<?xml version="1.0" encoding="UTF-8"?>
<svg xmlns="http://www.w3.org/2000/svg" id="Layer_1" data-name="Layer 1" viewBox="0 0 600 600">
  <defs>
    <style>.cls-1,.cls-11,.cls-6{fill:#00ab81;}.cls-1,.cls-10,.cls-11,.cls-12,.cls-13,.cls-2,.cls-3,.cls-4,.cls-5,.cls-6,.cls-7,.cls-8,.cls-9{stroke:#1c19a8;}.cls-1,.cls-10,.cls-11,.cls-12,.cls-13,.cls-2,.cls-3,.cls-4,.cls-6,.cls-7,.cls-9{stroke-linejoin:round;}.cls-1,.cls-2,.cls-3,.cls-4,.cls-5,.cls-6,.cls-7,.cls-8{stroke-width:2.82px;}.cls-10,.cls-2{fill:#fb715d;}.cls-13,.cls-14,.cls-15,.cls-21,.cls-25,.cls-3,.cls-8{fill:#1c19a8;}.cls-4{fill:#fff;}.cls-12,.cls-5{fill:none;}.cls-5,.cls-8{stroke-miterlimit:10;}.cls-6{fill-rule:evenodd;}.cls-7,.cls-9{fill:#ffdc2d;}.cls-11,.cls-12,.cls-13,.cls-9{stroke-width:2.81px;}.cls-10{stroke-width:2.78px;}.cls-15{font-size:32.87px;letter-spacing:-0.05em;}.cls-15,.cls-21,.cls-25{font-family:BreeSerif-Regular, Bree Serif;}.cls-16{letter-spacing:-0.07em;}.cls-17{letter-spacing:-0.08em;}.cls-18{letter-spacing:-0.05em;}.cls-19{letter-spacing:-0.13em;}.cls-20{letter-spacing:-0.06em;}.cls-21,.cls-25{font-size:12.85px;}.cls-21,.cls-28{letter-spacing:-0.05em;}.cls-22{letter-spacing:-0.07em;}.cls-23{letter-spacing:-0.08em;}.cls-24{letter-spacing:-0.13em;}.cls-25{letter-spacing:-0.05em;}.cls-26{letter-spacing:-0.06em;}.cls-27{letter-spacing:-0.07em;}.cls-29{letter-spacing:-0.08em;}</style>
  </defs>
  <rect class="cls-1" x="230.58" y="367.48" width="12.4" height="12.4"></rect>
  <rect class="cls-2" x="232.87" y="358.88" width="7.79" height="1.55"></rect>
  <line class="cls-2" x1="236.76" y1="360.43" x2="236.76" y2="367.48"></line>
  <circle class="cls-3" cx="236.76" cy="372.91" r="1.44"></circle>
  <line class="cls-3" x1="236.76" y1="372.91" x2="234.11" y2="376.21"></line>
  <rect class="cls-1" x="224.39" y="379.88" width="24.77" height="30.11"></rect>
  <rect class="cls-4" x="228.07" y="389.13" width="17.38" height="13.11"></rect>
  <rect class="cls-1" x="259.99" y="367.48" width="12.4" height="12.4"></rect>
  <rect class="cls-2" x="262.28" y="358.88" width="7.79" height="1.55"></rect>
  <line class="cls-2" x1="266.17" y1="360.43" x2="266.17" y2="367.48"></line>
  <circle class="cls-3" cx="266.17" cy="372.91" r="1.44"></circle>
  <line class="cls-3" x1="266.17" y1="372.91" x2="263.52" y2="376.21"></line>
  <rect class="cls-1" x="253.8" y="379.88" width="24.77" height="30.11"></rect>
  <rect class="cls-4" x="257.48" y="389.13" width="17.38" height="13.11"></rect>
  <line class="cls-5" x1="399.42" y1="371.4" x2="399.42" y2="481.98"></line>
  <path class="cls-6" d="M355.81,407a.35.35,0,0,1,.27.39v1.94a.35.35,0,0,1-.3.39h-.08a1.3,1.3,0,0,0,.27.52,4.36,4.36,0,0,0,.83.73,4.4,4.4,0,0,1,1,.89,2.87,2.87,0,0,1,.5,1.63h0v9a1.57,1.57,0,0,1-1.33,1.72h-7.11a1.57,1.57,0,0,1-1.33-1.72v-9h0a2.73,2.73,0,0,1,.49-1.61,4.52,4.52,0,0,1,1-.91,4.64,4.64,0,0,0,.82-.73,1.34,1.34,0,0,0,.27-.53h-.1a.36.36,0,0,1-.31-.39v-1.93a.45.45,0,0,1,.09-.28.25.25,0,0,1,.21-.12h4.9Z"></path>
  <path class="cls-6" d="M371.4,407a.36.36,0,0,1,.27.39v1.94a.35.35,0,0,1-.3.39h-.08a1.3,1.3,0,0,0,.27.52,4.61,4.61,0,0,0,.82.73,4,4,0,0,1,1,.89,2.8,2.8,0,0,1,.51,1.63h0v9a1.57,1.57,0,0,1-1.33,1.72H365.4a1.57,1.57,0,0,1-1.33-1.72v-9h0a2.8,2.8,0,0,1,.5-1.61,4.09,4.09,0,0,1,1-.91,5,5,0,0,0,.82-.73,1.34,1.34,0,0,0,.27-.53h-.1a.36.36,0,0,1-.31-.39v-1.93a.51.51,0,0,1,.08-.28.28.28,0,0,1,.22-.12h4.9Z"></path>
  <path class="cls-7" d="M395.28,453.33h-6.71V441.77l1.74-5.42v-4.44h3.26v4.44l1.75,5.42Z"></path>
  <path class="cls-7" d="M383.21,453.33H376.5l0-11.56,1.75-5.42v-4.44h3.25v4.44l1.75,5.42Z"></path>
  <rect class="cls-2" x="374.45" y="383.37" width="18.35" height="14.28" transform="translate(767.24 781.01) rotate(-180)"></rect>
  <rect class="cls-8" x="343.96" y="450.89" width="56.42" height="3.79" transform="translate(744.33 905.56) rotate(-180)"></rect>
  <rect class="cls-8" x="343.96" y="424.27" width="56.42" height="3.79" transform="translate(744.33 852.32) rotate(-180)"></rect>
  <rect class="cls-8" x="343.96" y="397.65" width="56.42" height="3.79" transform="translate(744.33 799.08) rotate(-180)"></rect>
  <rect class="cls-8" x="343.96" y="371.03" width="56.42" height="3.79" transform="translate(744.33 745.84) rotate(-180)"></rect>
  <path class="cls-1" d="M374,371h-6.71V359.46l1.74-5.41V349.6h3.26v4.45l1.75,5.41Z"></path>
  <path class="cls-1" d="M361.93,371h-6.71l0-11.57,1.75-5.41V349.6h3.26v4.45l1.75,5.41Z"></path>
  <line class="cls-5" x1="289.07" y1="371.4" x2="289.07" y2="481.98"></line>
  <path class="cls-6" d="M332.68,407a.36.36,0,0,0-.27.39v1.94a.35.35,0,0,0,.3.39h.08a1.3,1.3,0,0,1-.27.52,4.61,4.61,0,0,1-.82.73,4,4,0,0,0-1,.89,2.87,2.87,0,0,0-.51,1.63h0v9a1.57,1.57,0,0,0,1.33,1.72h7.12a1.57,1.57,0,0,0,1.33-1.72v-9h0a2.73,2.73,0,0,0-.5-1.61,4.09,4.09,0,0,0-1-.91,5,5,0,0,1-.82-.73,1.34,1.34,0,0,1-.27-.53h.1a.36.36,0,0,0,.31-.39v-1.93a.51.51,0,0,0-.08-.28.28.28,0,0,0-.22-.12h-4.9Z"></path>
  <path class="cls-6" d="M317.09,407a.37.37,0,0,0-.27.39v1.94a.36.36,0,0,0,.31.39h.08a1.44,1.44,0,0,1-.27.52,5.08,5.08,0,0,1-.83.73,4.18,4.18,0,0,0-1,.89,3,3,0,0,0-.51,1.63h0v9a1.57,1.57,0,0,0,1.34,1.72h7.11a1.57,1.57,0,0,0,1.33-1.72v-9h0a2.73,2.73,0,0,0-.5-1.61,4.09,4.09,0,0,0-1-.91,5,5,0,0,1-.82-.73,1.2,1.2,0,0,1-.26-.53h.1a.36.36,0,0,0,.3-.39l0-1.93a.45.45,0,0,0-.09-.28A.28.28,0,0,0,322,407h-4.9Z"></path>
  <path class="cls-7" d="M293.21,453.33h6.71l0-11.56-1.75-5.42v-4.44h-3.25v4.44l-1.75,5.42Z"></path>
  <path class="cls-7" d="M305.28,453.33H312l0-11.56-1.75-5.42v-4.44H307v4.44l-1.74,5.42Z"></path>
  <rect class="cls-2" x="295.7" y="383.37" width="18.35" height="14.28"></rect>
  <rect class="cls-9" x="321.97" y="379.3" width="12.94" height="18.35"></rect>
  <rect class="cls-8" x="288.12" y="450.89" width="56.42" height="3.79"></rect>
  <rect class="cls-8" x="288.12" y="424.27" width="56.42" height="3.79"></rect>
  <rect class="cls-8" x="288.12" y="397.65" width="56.42" height="3.79"></rect>
  <rect class="cls-8" x="288.12" y="371.03" width="56.42" height="3.79"></rect>
  <path class="cls-1" d="M314.49,371h6.71l0-11.57-1.75-5.41V349.6h-3.25v4.45l-1.75,5.41Z"></path>
  <path class="cls-1" d="M301.91,371h6.71l0-11.57-1.75-5.41V349.6h-3.25v4.45l-1.75,5.41Z"></path>
  <rect class="cls-7" x="454.02" y="432.33" width="8.78" height="8.78" rx="4.39" transform="translate(1051.59 658.07) rotate(156.85)"></rect>
  <rect class="cls-7" x="444.13" y="433.77" width="8.78" height="8.78" rx="4.39" transform="translate(1033.17 664.73) rotate(156.85)"></rect>
  <rect class="cls-7" x="436.26" y="438.16" width="8.78" height="8.78" rx="4.39" transform="translate(1019.8 676.25) rotate(156.85)"></rect>
  <rect class="cls-7" x="442.2" y="440.98" width="8.78" height="8.78" rx="4.39" transform="translate(1032.31 679.32) rotate(156.85)"></rect>
  <rect class="cls-7" x="450.9" y="437.26" width="8.78" height="8.78" rx="4.39" transform="translate(1047.53 668.77) rotate(156.85)"></rect>
  <rect class="cls-7" x="459.79" y="441.58" width="8.78" height="8.78" rx="4.39" transform="translate(1066.31 673.56) rotate(156.85)"></rect>
  <rect class="cls-1" x="438.76" y="449.29" width="32.42" height="5.69" transform="translate(1051.05 689.02) rotate(156.85)"></rect>
  <polygon class="cls-1" points="435.92 443.19 439.55 446.06 441.25 450.03 462.93 440.77 461.23 436.79 461.67 432.18 463.7 431.31 465.3 435.05 466.2 437.17 466.2 437.17 470.99 448.37 441.18 461.12 441.18 461.12 436.39 449.92 435.48 447.8 433.88 444.06 435.92 443.19"></polygon>
  <rect class="cls-7" x="454.02" y="357.66" width="8.78" height="8.78" rx="4.39" transform="translate(1022.24 514.75) rotate(156.85)"></rect>
  <rect class="cls-7" x="444.13" y="359.11" width="8.78" height="8.78" rx="4.39" transform="translate(1003.82 521.41) rotate(156.85)"></rect>
  <rect class="cls-7" x="436.26" y="363.49" width="8.78" height="8.78" rx="4.39" transform="translate(990.45 532.92) rotate(156.85)"></rect>
  <rect class="cls-7" x="442.2" y="366.31" width="8.78" height="8.78" rx="4.39" transform="translate(1002.96 536) rotate(156.85)"></rect>
  <rect class="cls-7" x="450.9" y="362.6" width="8.78" height="8.78" rx="4.39" transform="translate(1018.18 525.45) rotate(156.85)"></rect>
  <rect class="cls-7" x="459.79" y="366.91" width="8.78" height="8.78" rx="4.39" transform="translate(1036.96 530.24) rotate(156.85)"></rect>
  <rect class="cls-1" x="438.76" y="374.62" width="32.42" height="5.69" transform="translate(1021.69 545.69) rotate(156.85)"></rect>
  <polygon class="cls-1" points="435.92 368.52 439.55 371.39 441.25 375.37 462.93 366.1 461.23 362.13 461.67 357.51 463.7 356.64 465.3 360.39 466.2 362.5 466.2 362.5 470.99 373.71 441.18 386.45 441.18 386.45 436.39 375.25 435.48 373.13 433.88 369.39 435.92 368.52"></polygon>
  <rect class="cls-9" x="433.84" y="377.29" width="51.04" height="5.23" transform="translate(1031.08 548.64) rotate(156.85)"></rect>
  <rect class="cls-9" x="433.79" y="417.24" width="51.04" height="4.97" transform="translate(1046.64 625.11) rotate(156.85)"></rect>
  <polygon class="cls-9" points="481.94 486.38 434.87 486.38 434.87 462.16 481.8 442.09 481.94 486.38"></polygon>
  <rect class="cls-9" x="476.26" y="357.53" width="9.07" height="125.63" transform="translate(961.59 840.69) rotate(-180)"></rect>
  <path class="cls-1" d="M462,391.17h.32a0,0,0,0,1,0,0v0a6.16,6.16,0,0,1-6.16,6.16h-.32a0,0,0,0,1,0,0v0A6.16,6.16,0,0,1,462,391.17Z" transform="translate(1063.82 416.85) rotate(141.49)"></path>
  <path class="cls-7" d="M457.85,397.13a10.28,10.28,0,0,0-3.5-2.44"></path>
  <path class="cls-10" d="M456.22,403.36l.15-4.5a2.07,2.07,0,0,1,1.71-2h0a2.07,2.07,0,0,1,2.3,1.33l1.6,4.37a2.77,2.77,0,0,1,.16,2.53,3.2,3.2,0,0,1-2.36,2.05,3.13,3.13,0,0,1-3.6-2.54A3,3,0,0,1,456.22,403.36Z"></path>
  <path class="cls-1" d="M451.17,396.12h.32a0,0,0,0,1,0,0v0a6.16,6.16,0,0,1-6.16,6.16H445a0,0,0,0,1,0,0v0A6.16,6.16,0,0,1,451.17,396.12Z" transform="matrix(-0.1, 1, -1, -0.1, 889.09, -8.18)"></path>
  <path class="cls-7" d="M449.46,402.1a10.16,10.16,0,0,0-4.19.82"></path>
  <path class="cls-10" d="M452.8,407.6l-3.13-3.24a2.06,2.06,0,0,1-.22-2.59h0A2.06,2.06,0,0,1,452,401l4.25,1.89a2.81,2.81,0,0,1,1.93,1.64,3.2,3.2,0,0,1-.17,3.13,3.14,3.14,0,0,1-4.33.82A3.08,3.08,0,0,1,452.8,407.6Z"></path>
  <path class="cls-1" d="M452.75,396.74h.32a0,0,0,0,1,0,0v0a6.16,6.16,0,0,1-6.16,6.16h-.32a0,0,0,0,1,0,0v0A6.16,6.16,0,0,1,452.75,396.74Z" transform="translate(1035.86 536.82) rotate(151.53)"></path>
  <path class="cls-7" d="M448.1,402.44a10.26,10.26,0,0,0-3-3"></path>
  <path class="cls-10" d="M445.41,408.29l.93-4.41a2.09,2.09,0,0,1,2-1.64h0a2.08,2.08,0,0,1,2,1.71l.82,4.59a2.79,2.79,0,0,1-.28,2.51,3.19,3.19,0,0,1-2.69,1.61,3.12,3.12,0,0,1-3.1-3.13A3.2,3.2,0,0,1,445.41,408.29Z"></path>
  <path class="cls-1" d="M441.2,399h.32a0,0,0,0,1,0,0v0a6.16,6.16,0,0,1-6.16,6.16H435a0,0,0,0,1,0,0v0A6.16,6.16,0,0,1,441.2,399Z" transform="translate(960.22 116.89) rotate(108.81)"></path>
  <path class="cls-7" d="M438.79,405.2a10.28,10.28,0,0,0-4.27-.17"></path>
  <path class="cls-10" d="M440.78,411.32l-2.31-3.87a2.07,2.07,0,0,1,.38-2.58h0a2.07,2.07,0,0,1,2.65-.13l3.71,2.82a2.79,2.79,0,0,1,1.5,2,3.2,3.2,0,0,1-.88,3,3.11,3.11,0,0,1-4.4-.19A3.07,3.07,0,0,1,440.78,411.32Z"></path>
  <rect class="cls-7" x="459.79" y="405.24" width="8.78" height="8.78" rx="4.39" transform="translate(1052.02 603.8) rotate(156.85)"></rect>
  <rect class="cls-1" x="438.76" y="412.95" width="32.42" height="5.69" transform="translate(1036.76 619.25) rotate(156.85)"></rect>
  <polygon class="cls-9" points="435.92 406.85 439.55 409.72 441.25 413.69 462.93 404.42 461.23 400.45 461.67 395.84 463.7 394.97 465.3 398.71 466.2 400.82 466.2 400.82 470.99 412.03 441.18 424.78 441.18 424.78 436.39 413.57 435.48 411.46 433.88 407.71 435.92 406.85"></polygon>
  <rect class="cls-9" x="215.59" y="409.92" width="8.13" height="72.78"></rect>
  <rect class="cls-9" x="270.25" y="409.92" width="8.13" height="72.78"></rect>
  <rect class="cls-9" x="223.72" y="409.87" width="46.54" height="10.4"></rect>
  <rect class="cls-9" x="223.72" y="420.28" width="46.54" height="20.81"></rect>
  <rect class="cls-9" x="223.72" y="441.09" width="46.54" height="10.4"></rect>
  <rect class="cls-9" x="223.72" y="451.49" width="46.54" height="20.81"></rect>
  <rect class="cls-9" x="223.72" y="472.3" width="46.54" height="10.4"></rect>
  <rect class="cls-9" x="278.77" y="409.92" width="8.13" height="72.78"></rect>
  <rect class="cls-9" x="333.44" y="409.92" width="8.13" height="72.78"></rect>
  <rect class="cls-9" x="286.91" y="409.87" width="46.54" height="10.4"></rect>
  <rect class="cls-9" x="286.91" y="420.28" width="46.54" height="20.81"></rect>
  <rect class="cls-9" x="286.91" y="441.09" width="46.54" height="10.4"></rect>
  <rect class="cls-9" x="286.91" y="451.49" width="46.54" height="20.81"></rect>
  <rect class="cls-9" x="286.91" y="472.3" width="46.54" height="10.4"></rect>
  <rect class="cls-7" x="133.81" y="432.33" width="8.78" height="8.78" rx="4.39" transform="translate(182.8 -19.17) rotate(23.15)"></rect>
  <rect class="cls-7" x="143.7" y="433.77" width="8.78" height="8.78" rx="4.39" transform="translate(184.17 -22.94) rotate(23.15)"></rect>
  <rect class="cls-7" x="151.57" y="438.16" width="8.78" height="8.78" rx="4.39" transform="translate(186.52 -25.68) rotate(23.15)"></rect>
  <rect class="cls-7" x="145.63" y="440.98" width="8.78" height="8.78" rx="4.39" transform="translate(187.15 -23.12) rotate(23.15)"></rect>
  <rect class="cls-7" x="136.94" y="437.26" width="8.78" height="8.78" rx="4.39" transform="translate(184.99 -20) rotate(23.15)"></rect>
  <rect class="cls-7" x="128.04" y="441.58" width="8.78" height="8.78" rx="4.39" transform="translate(185.97 -16.15) rotate(23.15)"></rect>
  <rect class="cls-1" x="125.43" y="449.29" width="32.42" height="5.69" transform="translate(189.14 -19.28) rotate(23.15)"></rect>
  <polygon class="cls-1" points="160.69 443.19 157.06 446.06 155.36 450.03 133.68 440.77 135.38 436.79 134.94 432.18 132.91 431.31 131.31 435.05 130.41 437.17 130.41 437.17 125.62 448.37 155.43 461.12 155.43 461.12 160.22 449.92 161.13 447.8 162.72 444.06 160.69 443.19"></polygon>
  <rect class="cls-7" x="133.81" y="357.66" width="8.78" height="8.78" rx="4.39" transform="translate(153.45 -25.18) rotate(23.15)"></rect>
  <rect class="cls-7" x="143.7" y="359.11" width="8.78" height="8.78" rx="4.39" transform="translate(154.81 -28.95) rotate(23.15)"></rect>
  <rect class="cls-7" x="151.57" y="363.49" width="8.78" height="8.78" rx="4.39" transform="translate(157.17 -31.69) rotate(23.15)"></rect>
  <rect class="cls-7" x="145.63" y="366.31" width="8.78" height="8.78" rx="4.39" transform="translate(157.8 -29.13) rotate(23.15)"></rect>
  <rect class="cls-7" x="136.94" y="362.6" width="8.78" height="8.78" rx="4.39" transform="translate(155.64 -26.01) rotate(23.15)"></rect>
  <rect class="cls-7" x="128.04" y="366.91" width="8.78" height="8.78" rx="4.39" transform="translate(156.62 -22.17) rotate(23.15)"></rect>
  <rect class="cls-1" x="125.43" y="374.62" width="32.42" height="5.69" transform="translate(159.79 -25.29) rotate(23.15)"></rect>
  <polygon class="cls-1" points="160.69 368.52 157.06 371.39 155.36 375.37 133.68 366.1 135.38 362.13 134.94 357.51 132.91 356.64 131.31 360.39 130.41 362.5 130.41 362.5 125.62 373.71 155.43 386.45 155.43 386.45 160.22 375.25 161.13 373.13 162.72 369.39 160.69 368.52"></polygon>
  <rect class="cls-9" x="111.73" y="377.29" width="51.04" height="5.23" transform="translate(160.39 -23.37) rotate(23.15)"></rect>
  <rect class="cls-9" x="111.78" y="417.24" width="51.04" height="4.97" transform="translate(176.05 -20.18) rotate(23.15)"></rect>
  <polygon class="cls-9" points="114.67 486.38 161.74 486.38 161.74 462.16 114.81 442.09 114.67 486.38"></polygon>
  <rect class="cls-9" x="117.07" y="157.29" width="365.86" height="80.8"></rect>
  <rect class="cls-9" x="111.28" y="357.53" width="9.07" height="125.63"></rect>
  <rect class="cls-11" x="268.45" y="25.91" width="63.09" height="345.86" transform="translate(101.16 498.84) rotate(-90)"></rect>
  <rect class="cls-9" x="103.93" y="149.89" width="392.14" height="9.42"></rect>
  <path class="cls-9" d="M88.27,180.47v57.62H97.9a6,6,0,1,0,12.06,0h9.63V180.47Z"></path>
  <path class="cls-9" d="M480.41,180.47v57.62H490a6,6,0,0,0,12.06,0h9.63V180.47Z"></path>
  <polygon class="cls-9" points="119.59 159.49 103.93 147.3 88.27 159.49 88.27 180.47 119.59 180.47 119.59 159.49"></polygon>
  <line class="cls-12" x1="88.27" y1="228.72" x2="119.59" y2="228.72"></line>
  <path class="cls-12" d="M480.41,180.47v57.62H490a6,6,0,0,0,12.06,0h9.63V180.47Z"></path>
  <polygon class="cls-9" points="511.73 159.49 496.07 147.3 480.41 159.49 480.41 180.47 511.73 180.47 511.73 159.49"></polygon>
  <line class="cls-12" x1="480.41" y1="228.72" x2="511.73" y2="228.72"></line>
  <path class="cls-10" d="M502.1,238.09a6,6,0,0,1-12.06,0h-4.71V483.16h21.48V238.09Z"></path>
  <path class="cls-10" d="M114.67,474.25V238.09H110a6,6,0,1,1-12.06,0H93.19V483.16h21.48Z"></path>
  <rect class="cls-9" x="115.42" y="238.09" width="369.91" height="5.42"></rect>
  <polygon class="cls-11" points="513.02 318.65 88.21 318.65 115.69 243.51 485.37 243.51 513.02 318.65"></polygon>
  <rect class="cls-10" x="88.21" y="325.94" width="424.81" height="18.15"></rect>
  <rect class="cls-9" x="80.64" y="318.65" width="439.94" height="7.29" rx="3.64"></rect>
  <rect class="cls-10" x="93.19" y="483.16" width="413.62" height="8.7"></rect>
  <rect class="cls-10" x="88.24" y="475.92" width="31.38" height="15.94"></rect>
  <rect class="cls-10" x="480.38" y="475.92" width="31.38" height="15.94"></rect>
  <path class="cls-1" d="M134.27,391.17h.32a6.16,6.16,0,0,1,6.16,6.16v0a0,0,0,0,1,0,0h-.32a6.16,6.16,0,0,1-6.16-6.16v0A0,0,0,0,1,134.27,391.17Z" transform="translate(275.42 0.14) rotate(38.51)"></path>
  <path class="cls-7" d="M138.76,397.13a10.28,10.28,0,0,1,3.5-2.44"></path>
  <path class="cls-10" d="M140.39,403.36l-.15-4.5a2.08,2.08,0,0,0-1.71-2h0a2.07,2.07,0,0,0-2.3,1.33l-1.6,4.37a2.77,2.77,0,0,0-.16,2.53,3.2,3.2,0,0,0,2.36,2.05,3.13,3.13,0,0,0,3.6-2.54A3,3,0,0,0,140.39,403.36Z"></path>
  <path class="cls-1" d="M145.11,396.12h.32a6.16,6.16,0,0,1,6.16,6.16v0a0,0,0,0,1,0,0h-.32a6.16,6.16,0,0,1-6.16-6.16v0A0,0,0,0,1,145.11,396.12Z" transform="translate(531.27 212.79) rotate(84.43)"></path>
  <path class="cls-7" d="M147.15,402.1a10.16,10.16,0,0,1,4.19.82"></path>
  <path class="cls-10" d="M143.81,407.6l3.13-3.24a2.06,2.06,0,0,0,.22-2.59h0a2.06,2.06,0,0,0-2.55-.73l-4.25,1.89a2.81,2.81,0,0,0-1.93,1.64,3.2,3.2,0,0,0,.17,3.13,3.14,3.14,0,0,0,4.33.82A3.08,3.08,0,0,0,143.81,407.6Z"></path>
  <path class="cls-1" d="M143.54,396.74h.32A6.16,6.16,0,0,1,150,402.9v0a0,0,0,0,1,0,0h-.32a6.16,6.16,0,0,1-6.16-6.16v0A0,0,0,0,1,143.54,396.74Z" transform="translate(208.37 -21.61) rotate(28.47)"></path>
  <path class="cls-7" d="M148.51,402.44a10.26,10.26,0,0,1,3-3"></path>
  <path class="cls-10" d="M151.2,408.29l-.94-4.41a2.07,2.07,0,0,0-2-1.64h0a2.1,2.1,0,0,0-2,1.71l-.81,4.59a2.79,2.79,0,0,0,.28,2.51,3.19,3.19,0,0,0,2.69,1.61,3.13,3.13,0,0,0,3.1-3.13A3.2,3.2,0,0,0,151.2,408.29Z"></path>
  <path class="cls-1" d="M155.09,399h.32a6.16,6.16,0,0,1,6.16,6.16v0a0,0,0,0,1,0,0h-.32a6.16,6.16,0,0,1-6.16-6.16v0A0,0,0,0,1,155.09,399Z" transform="translate(487.9 122.57) rotate(71.19)"></path>
  <path class="cls-7" d="M157.82,405.2a10.25,10.25,0,0,1,4.26-.17"></path>
  <path class="cls-10" d="M155.83,411.32l2.31-3.87a2.07,2.07,0,0,0-.38-2.58h0a2.07,2.07,0,0,0-2.65-.13l-3.71,2.82a2.79,2.79,0,0,0-1.5,2,3.15,3.15,0,0,0,.88,3,3.11,3.11,0,0,0,4.4-.19A3.07,3.07,0,0,0,155.83,411.32Z"></path>
  <rect class="cls-7" x="128.04" y="405.24" width="8.78" height="8.78" rx="4.39" transform="translate(171.69 -19.08) rotate(23.15)"></rect>
  <rect class="cls-1" x="125.43" y="412.95" width="32.42" height="5.69" transform="translate(174.85 -22.21) rotate(23.15)"></rect>
  <polygon class="cls-9" points="160.69 406.85 157.06 409.72 155.36 413.69 133.68 404.42 135.38 400.45 134.94 395.84 132.91 394.97 131.31 398.71 130.41 400.82 130.41 400.82 125.62 412.03 155.43 424.78 155.43 424.78 160.22 413.57 161.13 411.46 162.72 407.71 160.69 406.85"></polygon>
  <rect class="cls-1" x="200.68" y="449.56" width="108.9" height="28.03"></rect>
  <rect class="cls-1" x="246.12" y="414.12" width="18.03" height="98.9" transform="translate(718.71 208.44) rotate(90)"></rect>
  <circle class="cls-13" cx="221.51" cy="479.74" r="2.96"></circle>
  <circle class="cls-13" cx="285.68" cy="479.74" r="2.96"></circle>
  <path class="cls-14" d="M219.17,335.39a2.2,2.2,0,0,1,.67.72,1.83,1.83,0,0,1,.26,1,2.29,2.29,0,0,1-.29,1.18,2.1,2.1,0,0,1-.85.76,4.3,4.3,0,0,1-1.34.42,11.54,11.54,0,0,1-1.79.12h-4.76v-.5l.5-.06A2.31,2.31,0,0,0,212,339a.64.64,0,0,0,.33-.26.81.81,0,0,0,.08-.41v-6.46a.88.88,0,0,0-.07-.39.61.61,0,0,0-.34-.27,2.5,2.5,0,0,0-.46-.14l-.47-.09v-.5h5a5.45,5.45,0,0,1,2.72.51,1.69,1.69,0,0,1,.83,1.53,1.8,1.8,0,0,1-.18.82,2,2,0,0,1-.54.61,2.88,2.88,0,0,1-.76.41,5.17,5.17,0,0,1-.94.29v.13a5.18,5.18,0,0,1,1,.22A3.55,3.55,0,0,1,219.17,335.39Zm-2.08-2.76a1.6,1.6,0,0,0-.43-1.19,1.79,1.79,0,0,0-1.29-.42h-.32l-.34,0v3.4h.34a2.11,2.11,0,0,0,1.54-.49A1.76,1.76,0,0,0,217.09,332.63Zm.45,4.41a1.87,1.87,0,0,0-.57-1.47,2.36,2.36,0,0,0-1.63-.51h-.63v3.36a.67.67,0,0,0,.36.41,1.53,1.53,0,0,0,.74.16,1.64,1.64,0,0,0,1.25-.51A2.09,2.09,0,0,0,217.54,337Z"></path>
  <path class="cls-14" d="M231.37,339.6h-3.53c-.6-.93-1.11-1.67-1.51-2.22s-.9-1.19-1.5-1.92h-.36v2.79a.75.75,0,0,0,.09.39.72.72,0,0,0,.33.28,2.11,2.11,0,0,0,.39.1l.45.08v.5h-4.9v-.5l.5-.06a1.93,1.93,0,0,0,.43-.08.58.58,0,0,0,.33-.27.79.79,0,0,0,.09-.4v-6.47a1,1,0,0,0-.07-.39.69.69,0,0,0-.35-.27,2,2,0,0,0-.48-.14l-.45-.09v-.5H226a5.15,5.15,0,0,1,2.62.54,1.77,1.77,0,0,1,.9,1.63,2.17,2.17,0,0,1-.56,1.55,3.66,3.66,0,0,1-1.68.91l1,1.32c.39.5.8,1,1.22,1.53.14.17.32.38.55.62a1.45,1.45,0,0,0,.61.45,2.49,2.49,0,0,0,.38.08l.33,0ZM227,332.78a1.64,1.64,0,0,0-.51-1.34A2.26,2.26,0,0,0,225,331h-.51v3.84H225a1.8,1.8,0,0,0,2-2.08Z"></path>
  <path class="cls-14" d="M239.6,331.45a4.44,4.44,0,0,1,1.08,1.5,4.86,4.86,0,0,1,.4,2,5.52,5.52,0,0,1-.34,1.91,4.47,4.47,0,0,1-1,1.56,4.84,4.84,0,0,1-1.56,1.06,5.57,5.57,0,0,1-2.14.37,5.46,5.46,0,0,1-1.9-.33,4.82,4.82,0,0,1-1.57-.95,4.55,4.55,0,0,1-1.07-1.5,4.76,4.76,0,0,1-.39-2,5.33,5.33,0,0,1,.38-2,4.64,4.64,0,0,1,1.06-1.56,4.51,4.51,0,0,1,1.58-1,5.48,5.48,0,0,1,2-.35,5.55,5.55,0,0,1,1.93.34A4.89,4.89,0,0,1,239.6,331.45ZM237.94,338a4.89,4.89,0,0,0,.42-1.34,9.48,9.48,0,0,0,.13-1.68,11.2,11.2,0,0,0-.11-1.55,5.21,5.21,0,0,0-.39-1.35,2.56,2.56,0,0,0-.73-.94,1.82,1.82,0,0,0-1.15-.36,1.93,1.93,0,0,0-1.78,1.11,6.71,6.71,0,0,0-.6,3.14,9.45,9.45,0,0,0,.13,1.63,5,5,0,0,0,.42,1.33,2.44,2.44,0,0,0,.73.9,1.88,1.88,0,0,0,1.1.32,1.84,1.84,0,0,0,1.1-.33A2.19,2.19,0,0,0,237.94,338Z"></path>
  <path class="cls-14" d="M251.67,339.6h-5v-.5a6.47,6.47,0,0,0,.82-.13c.31-.07.47-.15.47-.25s0-.07,0-.11a.94.94,0,0,0-.06-.18l-.78-1.9H244l-.24.62c-.09.24-.16.45-.23.63a3,3,0,0,0-.14.53,1.13,1.13,0,0,0,0,.22c0,.14.1.26.31.36a3.84,3.84,0,0,0,1,.21v.5h-3.76v-.5a3.27,3.27,0,0,0,.48-.07,1.44,1.44,0,0,0,.42-.15,1.68,1.68,0,0,0,.45-.38,1.91,1.91,0,0,0,.31-.54l1.5-3.64,1.67-4H247q1.28,3.12,2,4.92c.47,1.21.88,2.21,1.22,3a1.62,1.62,0,0,0,.21.36,1.71,1.71,0,0,0,.37.3,1.3,1.3,0,0,0,.42.15,2.55,2.55,0,0,0,.43.07Zm-4.82-3.71-1.32-3.32-1.31,3.32Z"></path>
  <path class="cls-14" d="M259.76,331.37a4.15,4.15,0,0,1,1.35,1.47,4.42,4.42,0,0,1,.52,2.24,4.18,4.18,0,0,1-.46,2,4.13,4.13,0,0,1-1.23,1.42,5.57,5.57,0,0,1-1.76.81,7.76,7.76,0,0,1-2.06.27h-4.63v-.5l.52,0a1.41,1.41,0,0,0,.41-.08.6.6,0,0,0,.33-.26.82.82,0,0,0,.09-.4v-6.5a.87.87,0,0,0-.09-.4.6.6,0,0,0-.33-.29,2.1,2.1,0,0,0-.52-.15l-.42-.05v-.5h4.88a7.38,7.38,0,0,1,1.68.2A5.28,5.28,0,0,1,259.76,331.37ZM258.44,338a4,4,0,0,0,.46-1.24,8,8,0,0,0,.15-1.64,6.57,6.57,0,0,0-.2-1.66,3.86,3.86,0,0,0-.57-1.28,2.52,2.52,0,0,0-.93-.82,2.67,2.67,0,0,0-1.27-.29h-.52l-.43,0v7a1.33,1.33,0,0,0,.06.42,1.06,1.06,0,0,0,.21.31,1.12,1.12,0,0,0,.37.21,1.76,1.76,0,0,0,.57.07,2.71,2.71,0,0,0,1.25-.27A2.15,2.15,0,0,0,258.44,338Z"></path>
  <path class="cls-14" d="M277,330.94a2.59,2.59,0,0,0-.4.09,2.83,2.83,0,0,0-.4.17,1.2,1.2,0,0,0-.42.37,2.24,2.24,0,0,0-.23.49c-.24.65-.6,1.7-1.1,3.15s-1,2.94-1.54,4.5h-1.31l-2.41-6.82L267,339.71h-1.31q-1.08-3.15-1.65-4.84l-1-2.85a1.56,1.56,0,0,0-.28-.51,2.33,2.33,0,0,0-.4-.32A1.37,1.37,0,0,0,262,331a2.88,2.88,0,0,0-.46-.09v-.5h4.89v.49a6.31,6.31,0,0,0-.64.1,1.75,1.75,0,0,0-.34.1.27.27,0,0,0-.14.11.2.2,0,0,0,0,.1.55.55,0,0,0,0,.18c0,.05,0,.12.05.19.1.34.31,1,.62,1.91s.71,2.11,1.17,3.5l2.09-6.68h1.37l2.42,6.89c.35-1.11.64-2,.85-2.72s.4-1.3.54-1.8c.09-.31.16-.56.21-.77a2.43,2.43,0,0,0,.08-.54.28.28,0,0,0-.13-.23,1.34,1.34,0,0,0-.34-.17,2.18,2.18,0,0,0-.47-.09l-.49-.06v-.51H277Z"></path>
  <path class="cls-14" d="M286.88,339.6h-5v-.5a6.2,6.2,0,0,0,.82-.13c.32-.07.47-.15.47-.25a.45.45,0,0,0,0-.11.49.49,0,0,0-.05-.18l-.79-1.9h-3.16c-.08.18-.16.38-.24.62s-.17.45-.23.63a4.94,4.94,0,0,0-.15.53c0,.11,0,.18,0,.22s.11.26.31.36a3.94,3.94,0,0,0,1.05.21v.5h-3.77v-.5a3.2,3.2,0,0,0,.49-.07,1.44,1.44,0,0,0,.42-.15,1.68,1.68,0,0,0,.45-.38,2.55,2.55,0,0,0,.31-.54l1.5-3.64,1.66-4h1.3l2,4.92c.48,1.21.89,2.21,1.22,3a1.65,1.65,0,0,0,.22.36,1.5,1.5,0,0,0,.37.3,1.3,1.3,0,0,0,.42.15,2.55,2.55,0,0,0,.43.07Zm-4.82-3.71-1.33-3.32-1.31,3.32Z"></path>
  <path class="cls-14" d="M296.38,330.93a2.5,2.5,0,0,0-.43.09,1.34,1.34,0,0,0-.37.16,1.83,1.83,0,0,0-.49.39c-.14.17-.29.35-.42.54-.28.41-.58.86-.88,1.34s-.65,1-1,1.59a3.31,3.31,0,0,0-.43.84,4.11,4.11,0,0,0-.08,1v1.3a.91.91,0,0,0,.08.41.65.65,0,0,0,.34.28,3,3,0,0,0,.46.12l.52.09v.5h-5.11v-.5l.52-.05a3,3,0,0,0,.48-.09.64.64,0,0,0,.32-.28.87.87,0,0,0,.09-.42v-1.61c0-.15,0-.27,0-.38a1,1,0,0,0,0-.27,1.54,1.54,0,0,0-.16-.31c-.07-.13-.16-.3-.28-.5q-.5-.87-1-1.65l-.89-1.47a2.82,2.82,0,0,0-.44-.57,2.5,2.5,0,0,0-.46-.36,1.59,1.59,0,0,0-.42-.14,2.93,2.93,0,0,0-.45-.07v-.5h5.25v.5a4.2,4.2,0,0,0-1,.1c-.17.06-.25.13-.25.22a.94.94,0,0,0,.09.29c.07.14.18.36.34.66s.36.66.64,1.15.62,1.07,1,1.73c.81-1.3,1.38-2.2,1.68-2.72a3.13,3.13,0,0,0,.46-.94c0-.15-.09-.26-.27-.34a2.63,2.63,0,0,0-.87-.15v-.5h3.4Z"></path>
  <path class="cls-14" d="M307.47,332.88H307a3.79,3.79,0,0,0-.66-1.14,1.57,1.57,0,0,0-.9-.66l-.52-.05h-2v3.59h.91a2.29,2.29,0,0,0,.68-.09,1.2,1.2,0,0,0,.5-.31,1.63,1.63,0,0,0,.31-.54,2.28,2.28,0,0,0,.19-.65h.49v3.86h-.49a2.5,2.5,0,0,0-.2-.71,2.24,2.24,0,0,0-.3-.55,1.08,1.08,0,0,0-.48-.31,2,2,0,0,0-.7-.1h-.91v3a.82.82,0,0,0,.09.4.66.66,0,0,0,.33.27,2.18,2.18,0,0,0,.39.1l.5.08v.5h-4.95v-.5l.5-.06a1.82,1.82,0,0,0,.43-.08.64.64,0,0,0,.33-.26.8.8,0,0,0,.09-.41v-6.47a.93.93,0,0,0-.08-.39.64.64,0,0,0-.34-.27,2.69,2.69,0,0,0-.47-.14,3.26,3.26,0,0,0-.46-.09v-.5h8.25Z"></path>
  <path class="cls-14" d="M318.38,339.6h-3.52c-.61-.93-1.11-1.67-1.52-2.22s-.9-1.19-1.5-1.92h-.35v2.79a.87.87,0,0,0,.08.39.7.7,0,0,0,.34.28,2.19,2.19,0,0,0,.38.1l.45.08v.5h-4.89v-.5l.49-.06a2.05,2.05,0,0,0,.44-.08.66.66,0,0,0,.33-.27.92.92,0,0,0,.08-.4v-6.47a.88.88,0,0,0-.07-.39.65.65,0,0,0-.34-.27,2,2,0,0,0-.49-.14l-.44-.09v-.5H313a5.16,5.16,0,0,1,2.63.54,1.78,1.78,0,0,1,.89,1.63,2.16,2.16,0,0,1-.55,1.55,3.7,3.7,0,0,1-1.69.91l1,1.32c.39.5.8,1,1.22,1.53a7.57,7.57,0,0,0,.54.62,1.53,1.53,0,0,0,.62.45,2.1,2.1,0,0,0,.37.08l.33,0Zm-4.4-6.82a1.62,1.62,0,0,0-.52-1.34A2.25,2.25,0,0,0,312,331h-.51v3.84H312a2.06,2.06,0,0,0,1.47-.5A2.09,2.09,0,0,0,314,332.78Z"></path>
  <path class="cls-14" d="M328.71,330.93a4.25,4.25,0,0,0-.54.09,1.48,1.48,0,0,0-.6.23,1,1,0,0,0-.34.59,5.66,5.66,0,0,0-.1,1.26v3.41a3.12,3.12,0,0,1-1,2.43,3.9,3.9,0,0,1-2.71.91,4.66,4.66,0,0,1-3-.88,3,3,0,0,1-1.07-2.47v-4.7a.68.68,0,0,0-.42-.67,1.38,1.38,0,0,0-.42-.14,2.6,2.6,0,0,0-.4-.07v-.49h4.81v.49a3.41,3.41,0,0,0-.42.05,3.77,3.77,0,0,0-.43.1.56.56,0,0,0-.33.26,1.07,1.07,0,0,0-.08.41v4.63a2.76,2.76,0,0,0,.6,2A2.29,2.29,0,0,0,324,339a2.26,2.26,0,0,0,1.76-.68,2.85,2.85,0,0,0,.64-2v-3.11a4.89,4.89,0,0,0-.11-1.24,1.1,1.1,0,0,0-.35-.59,1.67,1.67,0,0,0-.58-.26l-.59-.14v-.5h4Z"></path>
  <path class="cls-14" d="M334,339.6h-5.09v-.5l.52,0a1.76,1.76,0,0,0,.47-.08.57.57,0,0,0,.32-.25.83.83,0,0,0,.09-.41v-6.5a.93.93,0,0,0-.08-.39.66.66,0,0,0-.33-.27,2.89,2.89,0,0,0-.46-.14l-.53-.09v-.5H334v.5l-.48.06a1.91,1.91,0,0,0-.49.1.52.52,0,0,0-.34.26.87.87,0,0,0-.08.4v6.5a1,1,0,0,0,.08.4.64.64,0,0,0,.34.27,2.43,2.43,0,0,0,.45.11,4.19,4.19,0,0,0,.52.07Z"></path>
  <path class="cls-14" d="M343.08,333.05h-.5a5.84,5.84,0,0,0-.65-1.26q-.44-.68-.81-.72l-.51-.05-.52,0h-.31v7.2a.91.91,0,0,0,.09.41.56.56,0,0,0,.33.28,2.64,2.64,0,0,0,.46.12l.53.09v.5h-5.11v-.5l.52-.06a2.17,2.17,0,0,0,.47-.08.63.63,0,0,0,.33-.28.93.93,0,0,0,.09-.42V331h-.31l-.52,0-.51.05q-.37,0-.81.72a5.84,5.84,0,0,0-.65,1.26h-.5v-2.62h8.89Z"></path>
  <path class="cls-14" d="M351.48,332.77H351a3.49,3.49,0,0,0-.65-1.06,1.72,1.72,0,0,0-.91-.63,3.13,3.13,0,0,0-.54-.06H347v3.53h.95a2.63,2.63,0,0,0,.65-.08,1.31,1.31,0,0,0,.53-.33,1.86,1.86,0,0,0,.3-.52,3.19,3.19,0,0,0,.19-.65h.49v3.83h-.49a3.18,3.18,0,0,0-.19-.69,2.08,2.08,0,0,0-.3-.56,1.11,1.11,0,0,0-.51-.32,2.26,2.26,0,0,0-.67-.09H347v2.64a2.76,2.76,0,0,0,.07.66.59.59,0,0,0,.23.37.85.85,0,0,0,.44.16,5.17,5.17,0,0,0,.76,0H349l.55,0a3.84,3.84,0,0,0,.51-.1.62.62,0,0,0,.35-.19,5.2,5.2,0,0,0,.7-1,6.76,6.76,0,0,0,.51-1h.47L352,339.6h-8.61v-.5l.5-.05a3,3,0,0,0,.44-.09.66.66,0,0,0,.33-.27.92.92,0,0,0,.08-.4v-6.47a.88.88,0,0,0-.07-.39.65.65,0,0,0-.34-.27,2.36,2.36,0,0,0-.48-.14,3.26,3.26,0,0,0-.46-.09v-.5h8.14Z"></path>
  <path class="cls-14" d="M363.16,339.6h-3.52c-.61-.93-1.11-1.67-1.51-2.22s-.91-1.19-1.51-1.92h-.35v2.79a.75.75,0,0,0,.09.39.72.72,0,0,0,.33.28,2.11,2.11,0,0,0,.39.1l.44.08v.5h-4.89v-.5l.49-.06a2.05,2.05,0,0,0,.44-.08.66.66,0,0,0,.33-.27.79.79,0,0,0,.08-.4v-6.47a.88.88,0,0,0-.07-.39.61.61,0,0,0-.34-.27,2,2,0,0,0-.49-.14l-.44-.09v-.5h5.15a5.15,5.15,0,0,1,2.62.54,1.78,1.78,0,0,1,.89,1.63,2.16,2.16,0,0,1-.55,1.55,3.71,3.71,0,0,1-1.68.91l1,1.32c.39.5.8,1,1.22,1.53a8,8,0,0,0,.55.62,1.45,1.45,0,0,0,.61.45,2.25,2.25,0,0,0,.38.08l.32,0Zm-4.4-6.82a1.62,1.62,0,0,0-.52-1.34,2.25,2.25,0,0,0-1.46-.42h-.51v3.84h.49a2.09,2.09,0,0,0,1.48-.5A2.13,2.13,0,0,0,358.76,332.78Z"></path>
  <path class="cls-14" d="M371.06,332.77h-.49a3.7,3.7,0,0,0-.65-1.06,1.72,1.72,0,0,0-.91-.63,3.13,3.13,0,0,0-.54-.06h-1.91v3.53h.95a2.55,2.55,0,0,0,.64-.08,1.24,1.24,0,0,0,.53-.33,1.47,1.47,0,0,0,.3-.52,2.74,2.74,0,0,0,.2-.65h.49v3.83h-.49a2.78,2.78,0,0,0-.2-.69,1.64,1.64,0,0,0-.3-.56,1.08,1.08,0,0,0-.5-.32,2.26,2.26,0,0,0-.67-.09h-.95v2.64a2.85,2.85,0,0,0,.06.66.69.69,0,0,0,.23.37.92.92,0,0,0,.45.16,5.08,5.08,0,0,0,.76,0h.55l.55,0a3.84,3.84,0,0,0,.51-.1.65.65,0,0,0,.35-.19,5.2,5.2,0,0,0,.7-1,6.76,6.76,0,0,0,.51-1h.47l-.17,2.86h-8.61v-.5l.49-.05a2.47,2.47,0,0,0,.44-.09.58.58,0,0,0,.33-.27.79.79,0,0,0,.09-.4v-6.47a1,1,0,0,0-.07-.39.69.69,0,0,0-.35-.27,2.24,2.24,0,0,0-.47-.14,3.26,3.26,0,0,0-.46-.09v-.5h8.14Z"></path>
  <path class="cls-14" d="M382.74,339.6h-3.52c-.61-.93-1.11-1.67-1.52-2.22s-.9-1.19-1.5-1.92h-.35v2.79a.87.87,0,0,0,.08.39.7.7,0,0,0,.34.28,2.19,2.19,0,0,0,.38.1l.45.08v.5h-4.89v-.5l.49-.06a2.05,2.05,0,0,0,.44-.08.66.66,0,0,0,.33-.27.92.92,0,0,0,.08-.4v-6.47a.88.88,0,0,0-.07-.39.65.65,0,0,0-.34-.27,2,2,0,0,0-.49-.14l-.44-.09v-.5h5.14A5.19,5.19,0,0,1,380,331a1.78,1.78,0,0,1,.89,1.63,2.16,2.16,0,0,1-.55,1.55,3.7,3.7,0,0,1-1.69.91l1,1.32c.39.5.79,1,1.22,1.53a7.57,7.57,0,0,0,.54.62,1.51,1.51,0,0,0,.61.45,2.49,2.49,0,0,0,.38.08l.33,0Zm-4.4-6.82a1.62,1.62,0,0,0-.52-1.34,2.25,2.25,0,0,0-1.46-.42h-.51v3.84h.49a2.06,2.06,0,0,0,1.47-.5A2.09,2.09,0,0,0,378.34,332.78Z"></path>
  <path class="cls-14" d="M386.35,339.85a5.92,5.92,0,0,1-2.8-.7l-.45.45h-.55l-.08-3.32H383a10,10,0,0,0,.48,1,4.71,4.71,0,0,0,.68.94,3.31,3.31,0,0,0,.88.71,2.29,2.29,0,0,0,1.14.27,1.92,1.92,0,0,0,1.35-.43,1.42,1.42,0,0,0,.47-1.08,1.22,1.22,0,0,0-.4-.91,3.5,3.5,0,0,0-1.23-.63l-1-.32c-.31-.1-.59-.2-.86-.31a2.81,2.81,0,0,1-1.37-1,2.75,2.75,0,0,1-.45-1.54,2.46,2.46,0,0,1,.23-1,2.75,2.75,0,0,1,.68-.89,3.15,3.15,0,0,1,1.09-.6,4.28,4.28,0,0,1,1.45-.24,4.71,4.71,0,0,1,1.43.22,6.31,6.31,0,0,1,1.05.42l.39-.38h.56l.06,3.13h-.56c-.13-.34-.28-.68-.46-1a4.77,4.77,0,0,0-.55-.88,2.47,2.47,0,0,0-.73-.6,2.13,2.13,0,0,0-1-.22,1.6,1.6,0,0,0-1.14.4,1.23,1.23,0,0,0-.44,1,1.14,1.14,0,0,0,.38.9,3.33,3.33,0,0,0,1.2.62c.32.11.64.22,1,.32l.88.31a3.31,3.31,0,0,1,1.43,1,2.59,2.59,0,0,1,.49,1.59,2.63,2.63,0,0,1-.28,1.15,2.85,2.85,0,0,1-.75.93,3.8,3.8,0,0,1-1.2.62A5,5,0,0,1,386.35,339.85Z"></path>
  <path class="cls-14" d="M420.86,333.18a2,2,0,0,1,.66.71,2.17,2.17,0,0,1,.25,1.09,2,2,0,0,1-.22,1,2.08,2.08,0,0,1-.59.69,2.8,2.8,0,0,1-.86.39,3.66,3.66,0,0,1-1,.13h-2.24v-.24l.25,0a.56.56,0,0,0,.2,0,.3.3,0,0,0,.16-.12.42.42,0,0,0,0-.2V333.4a.38.38,0,0,0,0-.19.28.28,0,0,0-.16-.14.72.72,0,0,0-.25-.07l-.21,0v-.24h2.37a4,4,0,0,1,.81.09A2.65,2.65,0,0,1,420.86,333.18Zm-.63,3.19a2,2,0,0,0,.22-.6,3.74,3.74,0,0,0,.07-.79,3.35,3.35,0,0,0-.09-.81,2.08,2.08,0,0,0-.28-.62,1.33,1.33,0,0,0-.45-.4,1.38,1.38,0,0,0-.62-.14h-.46v3.38a.64.64,0,0,0,0,.2.33.33,0,0,0,.11.15.4.4,0,0,0,.17.1.72.72,0,0,0,.28,0,1.36,1.36,0,0,0,.6-.13A1.12,1.12,0,0,0,420.23,336.37Z"></path>
  <path class="cls-14" d="M426.91,337.17h-2.42v-.24l.39-.06c.16,0,.23-.07.23-.12v-.06a.16.16,0,0,0,0-.08l-.38-.93h-1.53c0,.09-.08.19-.12.31l-.11.3a1.75,1.75,0,0,0-.07.26.54.54,0,0,0,0,.11c0,.06.05.12.15.17a1.87,1.87,0,0,0,.51.1v.24h-1.83v-.24l.24,0a.76.76,0,0,0,.2-.08.79.79,0,0,0,.22-.18,1.1,1.1,0,0,0,.15-.26c.24-.59.48-1.18.73-1.77l.8-1.95h.63c.41,1,.73,1.81,1,2.39s.43,1.07.59,1.46a1,1,0,0,0,.11.17.54.54,0,0,0,.18.14.6.6,0,0,0,.2.08l.21,0Zm-2.34-1.8-.64-1.6-.63,1.6Z"></path>
  <path class="cls-14" d="M429.27,337.17H426.8v-.24l.25,0a.8.8,0,0,0,.23,0,.3.3,0,0,0,.16-.12.4.4,0,0,0,0-.2V333.4a.41.41,0,0,0,0-.19.31.31,0,0,0-.16-.13l-.22-.06a1.47,1.47,0,0,0-.26,0v-.24h2.47V333l-.23,0a.72.72,0,0,0-.24.05.28.28,0,0,0-.17.12.65.65,0,0,0,0,.2v3.15a.38.38,0,0,0,.05.19.27.27,0,0,0,.16.13l.22.06.25,0Z"></path>
  <path class="cls-14" d="M433.74,335.75l-.09,1.42h-4.09v-.24l.25,0,.2,0a.27.27,0,0,0,.15-.12.39.39,0,0,0,0-.2V333.4a.36.36,0,0,0,0-.19.27.27,0,0,0-.16-.13l-.24-.07-.21,0v-.24H432V333l-.24,0a.85.85,0,0,0-.24.05.26.26,0,0,0-.16.12.45.45,0,0,0,0,.2v2.92a1.42,1.42,0,0,0,0,.33.24.24,0,0,0,.11.17.44.44,0,0,0,.23.08l.4,0a3.91,3.91,0,0,0,.49,0,.59.59,0,0,0,.34-.13,2.64,2.64,0,0,0,.32-.45,3,3,0,0,0,.27-.53Z"></path>
  <path class="cls-14" d="M438.52,333l-.21,0-.17.08a.88.88,0,0,0-.24.19l-.21.26-.43.65c-.15.23-.31.49-.48.77a1.31,1.31,0,0,0-.21.41,1.87,1.87,0,0,0,0,.49v.63a.42.42,0,0,0,0,.2.32.32,0,0,0,.16.14l.23.06.25,0v.24h-2.48v-.24l.25,0a.8.8,0,0,0,.23,0,.31.31,0,0,0,.16-.13.46.46,0,0,0,0-.21v-1a.44.44,0,0,0,0-.13,1.15,1.15,0,0,0-.08-.15l-.13-.24c-.16-.29-.32-.55-.47-.81s-.29-.49-.43-.71a1.1,1.1,0,0,0-.44-.45.77.77,0,0,0-.2-.07l-.22,0v-.24H436V333a2,2,0,0,0-.47,0c-.08,0-.12.06-.12.11a.34.34,0,0,0,0,.13,3.08,3.08,0,0,0,.16.32c.07.14.18.33.31.57l.5.83c.39-.63.67-1.07.81-1.32a1.74,1.74,0,0,0,.23-.45.19.19,0,0,0-.13-.17,1.3,1.3,0,0,0-.43-.07v-.24h1.65Z"></path>
  <path class="cls-14" d="M443.9,333.91h-.25a2.15,2.15,0,0,0-.32-.55.76.76,0,0,0-.44-.32l-.25,0h-1v1.74h.45a1,1,0,0,0,.32,0,.64.64,0,0,0,.25-.15.85.85,0,0,0,.15-.26,1.21,1.21,0,0,0,.09-.32h.24v1.87h-.24a1.22,1.22,0,0,0-.1-.34,1.56,1.56,0,0,0-.14-.27.7.7,0,0,0-.24-.15,1.06,1.06,0,0,0-.33,0h-.45v1.47a.38.38,0,0,0,0,.19.27.27,0,0,0,.16.13.64.64,0,0,0,.19.05l.24,0v.24h-2.4v-.24l.24,0a.7.7,0,0,0,.21,0,.3.3,0,0,0,.16-.12.4.4,0,0,0,0-.2V333.4a.41.41,0,0,0,0-.19.31.31,0,0,0-.16-.13.9.9,0,0,0-.23-.07l-.22,0v-.24h4Z"></path>
  <path class="cls-14" d="M449.19,337.17h-1.71c-.29-.45-.54-.81-.73-1.07s-.44-.58-.73-.93h-.17v1.35a.38.38,0,0,0,0,.19.31.31,0,0,0,.16.13.56.56,0,0,0,.19.05l.21,0v.24h-2.37v-.24l.24,0a.7.7,0,0,0,.21,0,.27.27,0,0,0,.16-.13.36.36,0,0,0,0-.19V333.4a.5.5,0,0,0,0-.19s-.08-.09-.17-.13a1,1,0,0,0-.23-.07l-.22,0v-.24h2.5a2.46,2.46,0,0,1,1.27.26.86.86,0,0,1,.43.79,1,1,0,0,1-.27.75,1.73,1.73,0,0,1-.81.44l.49.64.59.75.27.29a.67.67,0,0,0,.3.22.6.6,0,0,0,.18,0l.16,0Zm-2.14-3.3a.77.77,0,0,0-.25-.65,1.06,1.06,0,0,0-.71-.21h-.24v1.86h.23a1,1,0,0,0,.72-.24A1,1,0,0,0,447.05,333.87Z"></path>
  <path class="cls-14" d="M453,333.86h-.23a1.59,1.59,0,0,0-.32-.51A.86.86,0,0,0,452,333l-.26,0h-.92v1.72h.45a1.07,1.07,0,0,0,.32-.05.47.47,0,0,0,.25-.15.74.74,0,0,0,.15-.26,1.82,1.82,0,0,0,.1-.31h.23v1.85h-.23a3.43,3.43,0,0,0-.1-.33.8.8,0,0,0-.15-.27.49.49,0,0,0-.24-.16,1.06,1.06,0,0,0-.33,0h-.45v1.28a1.33,1.33,0,0,0,0,.32.28.28,0,0,0,.11.18.4.4,0,0,0,.21.08l.37,0h.27l.27,0,.24-.05a.3.3,0,0,0,.17-.09,2.29,2.29,0,0,0,.34-.47,3.27,3.27,0,0,0,.25-.47h.23l-.09,1.38h-4.17v-.24l.24,0a.7.7,0,0,0,.21,0,.27.27,0,0,0,.16-.13.36.36,0,0,0,0-.19V333.4a.5.5,0,0,0,0-.19s-.08-.09-.17-.13a.79.79,0,0,0-.23-.07l-.22,0v-.24H453Z"></path>
  <path class="cls-14" d="M455.44,337.3a2.63,2.63,0,0,1-.76-.11,2.09,2.09,0,0,1-.6-.24l-.22.22h-.26l0-1.6h.27a3.44,3.44,0,0,0,.23.48,2.14,2.14,0,0,0,.32.45,1.58,1.58,0,0,0,.43.35,1.09,1.09,0,0,0,.55.13.93.93,0,0,0,.66-.21.68.68,0,0,0,.23-.52.57.57,0,0,0-.2-.44,1.61,1.61,0,0,0-.59-.31l-.49-.16a3.93,3.93,0,0,1-.41-.14,1.32,1.32,0,0,1-.89-1.26,1.11,1.11,0,0,1,.12-.5,1.31,1.31,0,0,1,.32-.43,1.58,1.58,0,0,1,.53-.29,2,2,0,0,1,.71-.12,2.26,2.26,0,0,1,.69.11,3.39,3.39,0,0,1,.51.2l.19-.18H457l0,1.51h-.27c-.07-.16-.14-.33-.22-.5a2.55,2.55,0,0,0-.27-.42,1.1,1.1,0,0,0-.36-.29.88.88,0,0,0-.47-.11.78.78,0,0,0-.55.19.62.62,0,0,0-.22.47.58.58,0,0,0,.19.44,1.82,1.82,0,0,0,.58.3l.48.15.43.15a1.57,1.57,0,0,1,.69.49,1.28,1.28,0,0,1,.23.77,1.24,1.24,0,0,1-.13.56,1.14,1.14,0,0,1-.37.44,1.62,1.62,0,0,1-.58.31A2.44,2.44,0,0,1,455.44,337.3Z"></path>
  <path class="cls-14" d="M463,337.17h-2.41v-.24l.23,0a.7.7,0,0,0,.21,0,.3.3,0,0,0,.16-.12.4.4,0,0,0,0-.2V335h-1.9v1.5a.41.41,0,0,0,.05.19.28.28,0,0,0,.15.13.64.64,0,0,0,.21.05l.23,0v.24h-2.4v-.24l.23,0,.22,0a.27.27,0,0,0,.16-.13.38.38,0,0,0,0-.19V333.4a.38.38,0,0,0,0-.19.31.31,0,0,0-.16-.13l-.24-.07-.21,0v-.24H460V333l-.23,0-.21.05a.27.27,0,0,0-.16.13.58.58,0,0,0,0,.19v1.33h1.9v-1.3a.38.38,0,0,0,0-.19.31.31,0,0,0-.16-.13l-.22-.07-.22,0v-.24H463V333l-.23,0-.22.05a.24.24,0,0,0-.16.13.41.41,0,0,0,0,.19v3.15a.38.38,0,0,0,0,.19.27.27,0,0,0,.16.13l.21.06.24,0Z"></path>
  <path class="cls-14" d="M468.84,333.91h-.24a2.22,2.22,0,0,0-.33-.55.74.74,0,0,0-.43-.32l-.25,0h-1v1.74h.44a1.11,1.11,0,0,0,.33,0,.61.61,0,0,0,.24-.15.85.85,0,0,0,.15-.26,1.21,1.21,0,0,0,.09-.32h.24v1.87h-.24a1.22,1.22,0,0,0-.1-.34,1.07,1.07,0,0,0-.14-.27.76.76,0,0,0-.23-.15,1.18,1.18,0,0,0-.34,0h-.44v1.47a.38.38,0,0,0,0,.19.31.31,0,0,0,.16.13.74.74,0,0,0,.19.05l.24,0v.24h-2.4v-.24l.25,0a.7.7,0,0,0,.21,0,.31.31,0,0,0,.15-.12.39.39,0,0,0,.05-.2V333.4a.58.58,0,0,0,0-.19.36.36,0,0,0-.16-.13,1,1,0,0,0-.24-.07l-.22,0v-.24h4Z"></path>
  <path class="cls-14" d="M474.13,337.17h-1.71c-.29-.45-.54-.81-.73-1.07s-.44-.58-.73-.93h-.17v1.35a.38.38,0,0,0,0,.19.31.31,0,0,0,.16.13.64.64,0,0,0,.19.05l.22,0v.24H469v-.24l.24,0a.87.87,0,0,0,.22,0,.31.31,0,0,0,.16-.13.49.49,0,0,0,0-.19V333.4a.36.36,0,0,0,0-.19.31.31,0,0,0-.16-.13l-.24-.07-.22,0v-.24h2.5a2.43,2.43,0,0,1,1.27.26.86.86,0,0,1,.43.79,1,1,0,0,1-.26.75,1.72,1.72,0,0,1-.82.44c.14.19.31.4.5.64l.59.75a2.91,2.91,0,0,0,.26.29.67.67,0,0,0,.3.22l.18,0,.16,0Zm-2.13-3.3a.8.8,0,0,0-.25-.65A1.09,1.09,0,0,0,471,333h-.25v1.86H471a.88.88,0,0,0,1-1Z"></path>
  <path class="cls-14" d="M479.14,333l-.27,0a.6.6,0,0,0-.28.12.41.41,0,0,0-.17.28,2.94,2.94,0,0,0-.05.61v1.66a1.5,1.5,0,0,1-.49,1.17,1.88,1.88,0,0,1-1.31.45,2.26,2.26,0,0,1-1.47-.43,1.47,1.47,0,0,1-.52-1.2v-2.28a.35.35,0,0,0-.05-.18c0-.06-.08-.1-.16-.15l-.2-.06-.19,0v-.23h2.33V333l-.2,0-.21.05a.23.23,0,0,0-.16.12.46.46,0,0,0-.05.2v2.25a1.31,1.31,0,0,0,.3,1,1.1,1.1,0,0,0,.84.3,1.14,1.14,0,0,0,.86-.33,1.42,1.42,0,0,0,.31-1v-1.51a2.2,2.2,0,0,0-.06-.6.55.55,0,0,0-.17-.29,1,1,0,0,0-.28-.12l-.28-.07v-.24h1.93Z"></path>
  <path class="cls-14" d="M481.68,337.17h-2.46v-.24l.25,0a.71.71,0,0,0,.22,0,.3.3,0,0,0,.16-.12.39.39,0,0,0,0-.2V333.4a.41.41,0,0,0,0-.19.27.27,0,0,0-.16-.13l-.22-.06-.25,0v-.24h2.46V333l-.23,0a.85.85,0,0,0-.24.05.26.26,0,0,0-.16.12.45.45,0,0,0,0,.2v3.15a.38.38,0,0,0,0,.19.31.31,0,0,0,.16.13l.22.06.25,0Z"></path>
  <path class="cls-14" d="M486.1,334h-.24a2.51,2.51,0,0,0-.31-.61c-.14-.22-.28-.34-.4-.35l-.24,0h-.4v3.49a.42.42,0,0,0,0,.2.25.25,0,0,0,.16.14l.22.06.26,0v.24h-2.48v-.24l.26,0a.78.78,0,0,0,.22,0,.27.27,0,0,0,.16-.13.46.46,0,0,0,0-.21V333H483l-.24,0c-.13,0-.26.13-.4.35a2.51,2.51,0,0,0-.31.61h-.25v-1.27h4.31Z"></path>
  <path class="cls-14" d="M491.18,337.17h-1.85l-.19-.22-.21-.24a2.3,2.3,0,0,1-.66.44,1.82,1.82,0,0,1-.7.13,1.44,1.44,0,0,1-1-.31,1,1,0,0,1-.38-.83,1.33,1.33,0,0,1,.07-.43,1.29,1.29,0,0,1,.22-.37,1.23,1.23,0,0,1,.36-.31,4.15,4.15,0,0,1,.47-.27,3.69,3.69,0,0,1-.39-.6,1.35,1.35,0,0,1-.11-.52.9.9,0,0,1,.38-.74,1.4,1.4,0,0,1,.9-.3,1.24,1.24,0,0,1,.79.24.73.73,0,0,1,.3.61,1,1,0,0,1-.18.59,1.87,1.87,0,0,1-.6.52c.22.29.4.51.52.66l.5.58a3,3,0,0,0,.3-.54,1.27,1.27,0,0,0,.1-.41c0-.06-.05-.11-.14-.15a2,2,0,0,0-.4-.11v-.24h1.76v.24a2.38,2.38,0,0,0-.43.07.61.61,0,0,0-.26.18.74.74,0,0,0-.14.2c-.06.09-.11.18-.16.27l-.2.34a3.45,3.45,0,0,1-.25.37,6.12,6.12,0,0,0,.48.5,1.5,1.5,0,0,0,.3.23,1.35,1.35,0,0,0,.34.12,3,3,0,0,0,.42.05Zm-2.41-.66-.61-.74c-.24-.28-.45-.55-.65-.8a.77.77,0,0,0-.24.38,1.36,1.36,0,0,0-.08.44.91.91,0,0,0,.27.68.94.94,0,0,0,.68.26.88.88,0,0,0,.33-.05A1.17,1.17,0,0,0,488.77,336.51Zm0-3a.63.63,0,0,0-.14-.43.46.46,0,0,0-.67,0,.44.44,0,0,0-.13.34.9.9,0,0,0,.12.41,3.85,3.85,0,0,0,.36.56,1.18,1.18,0,0,0,.35-.39A1.07,1.07,0,0,0,488.75,333.5Z"></path>
  <path class="cls-14" d="M496,333a1.38,1.38,0,0,0-.2,0l-.19.09a.74.74,0,0,0-.21.17,1.09,1.09,0,0,0-.15.25l-.27.63c-.12.27-.25.59-.4.94s-.28.67-.43,1.05-.31.74-.45,1.08h-.63l-.89-2.18-.64-1.54a1.17,1.17,0,0,0-.14-.24.83.83,0,0,0-.22-.16L491,333l-.21,0v-.24h2.41V333a2.41,2.41,0,0,0-.46.09c-.08,0-.12.07-.12.11a.22.22,0,0,0,0,.08.62.62,0,0,1,0,.1c.07.19.19.49.37.9l.78,1.91c.21-.52.38-1,.52-1.32s.27-.68.37-.95a3.43,3.43,0,0,0,.13-.38.77.77,0,0,0,.05-.26c0-.06,0-.12-.14-.16a1.58,1.58,0,0,0-.53-.1v-.25H496Z"></path>
  <path class="cls-14" d="M499.94,333.86h-.24a1.55,1.55,0,0,0-.31-.51A.86.86,0,0,0,499,333l-.26,0h-.93v1.72h.46a1.07,1.07,0,0,0,.32-.05.47.47,0,0,0,.25-.15.74.74,0,0,0,.15-.26A1.15,1.15,0,0,0,499,334h.24v1.85H499a1.68,1.68,0,0,0-.09-.33.8.8,0,0,0-.15-.27.54.54,0,0,0-.24-.16,1.11,1.11,0,0,0-.33,0h-.46v1.28a1.33,1.33,0,0,0,0,.32.29.29,0,0,0,.12.18.4.4,0,0,0,.21.08l.37,0h.26l.27,0,.25-.05a.34.34,0,0,0,.17-.09,2.75,2.75,0,0,0,.34-.47,3.27,3.27,0,0,0,.25-.47h.23l-.09,1.38H496v-.24l.24,0a.7.7,0,0,0,.21,0,.31.31,0,0,0,.16-.13.36.36,0,0,0,0-.19V333.4a.5.5,0,0,0,0-.19.35.35,0,0,0-.17-.13.79.79,0,0,0-.23-.07l-.22,0v-.24h3.94Z"></path>
  <path class="cls-14" d="M505.45,335.36l-.17,0-.19.05a.26.26,0,0,0-.17.13.65.65,0,0,0,0,.2v.52a1.78,1.78,0,0,0,0,.25v.24a3.78,3.78,0,0,1-.92.35,4.43,4.43,0,0,1-1.13.17,2.66,2.66,0,0,1-.9-.15,2.25,2.25,0,0,1-.75-.44,2.11,2.11,0,0,1-.5-.73,2.57,2.57,0,0,1-.18-1,2.49,2.49,0,0,1,.17-1,2.16,2.16,0,0,1,1.28-1.25,2.71,2.71,0,0,1,1-.18,2.3,2.3,0,0,1,.71.1,3.12,3.12,0,0,1,.53.2l.19-.17h.28l0,1.62h-.27a3,3,0,0,0-.57-1.09,1.12,1.12,0,0,0-.84-.35,1,1,0,0,0-.93.52,2.77,2.77,0,0,0-.33,1.46,3.11,3.11,0,0,0,.32,1.53,1,1,0,0,0,.91.56,1.44,1.44,0,0,0,.49-.08,1,1,0,0,0,.34-.2v-.9a.53.53,0,0,0,0-.19.4.4,0,0,0-.17-.13.69.69,0,0,0-.23-.07l-.24-.05v-.24h2.31Z"></path>
  <path class="cls-14" d="M99.58,333.47h-.25a2.34,2.34,0,0,0-.31-.61c-.14-.21-.27-.33-.39-.35l-.25,0H98V336a.42.42,0,0,0,0,.2.32.32,0,0,0,.16.14l.23.05.25.05v.24H96.18v-.24l.26,0,.22,0a.31.31,0,0,0,.17-.14.54.54,0,0,0,0-.2v-3.52h-.4l-.25,0c-.12,0-.25.14-.39.35a2.78,2.78,0,0,0-.32.61h-.24V332.2h4.31Z"></path>
  <path class="cls-14" d="M103.65,333.34h-.24a1.55,1.55,0,0,0-.31-.51.83.83,0,0,0-.44-.31,1.56,1.56,0,0,0-.26,0h-.93v1.71h.46a1,1,0,0,0,.31,0,.6.6,0,0,0,.26-.16.68.68,0,0,0,.15-.25,1.21,1.21,0,0,0,.09-.32H103v1.86h-.24a1.38,1.38,0,0,0-.09-.33.87.87,0,0,0-.15-.28.61.61,0,0,0-.24-.15,1.15,1.15,0,0,0-.33,0h-.46v1.28a1.39,1.39,0,0,0,0,.32.33.33,0,0,0,.11.18.63.63,0,0,0,.22.08h.63l.27,0,.25,0a.55.55,0,0,0,.17-.1,2.6,2.6,0,0,0,.34-.46,3.83,3.83,0,0,0,.25-.48H104l-.08,1.39H99.71v-.24l.24,0,.21,0a.36.36,0,0,0,.16-.13.4.4,0,0,0,0-.2v-3.13a.5.5,0,0,0,0-.19.35.35,0,0,0-.17-.13.9.9,0,0,0-.23-.07l-.22,0v-.25h3.94Z"></path>
  <path class="cls-14" d="M108.39,335.22l-.08,1.43h-4.1v-.24l.26,0,.19,0a.27.27,0,0,0,.16-.13.37.37,0,0,0,0-.2v-3.13a.5.5,0,0,0,0-.19.35.35,0,0,0-.17-.13.69.69,0,0,0-.23-.07l-.22,0v-.25h2.44v.25l-.24,0-.23,0a.29.29,0,0,0-.17.13.58.58,0,0,0,0,.19v2.93a1.42,1.42,0,0,0,0,.33.34.34,0,0,0,.11.17.48.48,0,0,0,.23.08h.4a3.93,3.93,0,0,0,.49,0,.57.57,0,0,0,.34-.14,2.18,2.18,0,0,0,.33-.44,4.31,4.31,0,0,0,.26-.54Z"></path>
  <path class="cls-14" d="M110.06,334.15a.61.61,0,0,1-.18.43.6.6,0,0,1-.43.18.6.6,0,0,1-.44-.18.6.6,0,0,1-.18-.43.61.61,0,0,1,.62-.62.6.6,0,0,1,.43.18A.62.62,0,0,1,110.06,334.15Zm0,2a.61.61,0,0,1-.61.61.6.6,0,0,1-.44-.18.62.62,0,0,1,.44-1.05.57.57,0,0,1,.43.19A.58.58,0,0,1,110.06,336.13Z"></path>
  <path class="cls-14" d="M115.71,333.73a1.87,1.87,0,0,1,.35.57,2.19,2.19,0,0,1,.11.67,1.78,1.78,0,0,1-.14.74,1.49,1.49,0,0,1-.39.56,1.66,1.66,0,0,1-.6.36,2.44,2.44,0,0,1-.8.13,2.16,2.16,0,0,1-.83-.15,1.88,1.88,0,0,1-.61-.39,1.58,1.58,0,0,1-.36-.56,2,2,0,0,1-.12-.69,1.87,1.87,0,0,1,.12-.68,1.45,1.45,0,0,1,.36-.57,1.71,1.71,0,0,1,.6-.4,2.26,2.26,0,0,1,.85-.15,2.22,2.22,0,0,1,.85.16A1.66,1.66,0,0,1,115.71,333.73Zm-.89,2.33a1.64,1.64,0,0,0,.13-.46,3.92,3.92,0,0,0,0-.63,5.47,5.47,0,0,0,0-.6,2.09,2.09,0,0,0-.13-.48.65.65,0,0,0-.23-.32.51.51,0,0,0-.35-.12.61.61,0,0,0-.36.11.92.92,0,0,0-.23.33,1.47,1.47,0,0,0-.12.47,3.82,3.82,0,0,0,0,.61,4.91,4.91,0,0,0,0,.59,1.91,1.91,0,0,0,.12.47.89.89,0,0,0,.23.33.56.56,0,0,0,.36.12.52.52,0,0,0,.35-.11A.67.67,0,0,0,114.82,336.06Z"></path>
  <path class="cls-14" d="M120.11,336.65h-3.4v-.57a3.94,3.94,0,0,1,.49-.41l.54-.33.49-.27a1.37,1.37,0,0,0,.31-.26.8.8,0,0,0,.16-.26,1.14,1.14,0,0,0,0-.33.78.78,0,0,0-.19-.58.7.7,0,0,0-.5-.18l-.18,0a.61.61,0,0,0-.18,0l.09.29a1.18,1.18,0,0,1,0,.34.43.43,0,0,1-.16.35.61.61,0,0,1-.41.13.48.48,0,0,1-.37-.15.57.57,0,0,1-.14-.38.81.81,0,0,1,.44-.66,2.08,2.08,0,0,1,1.09-.28,2.41,2.41,0,0,1,1.19.26.86.86,0,0,1,.46.82.84.84,0,0,1-.12.47,1,1,0,0,1-.36.31,2.13,2.13,0,0,1-.46.2l-.55.15a5,5,0,0,0-.54.17,2.25,2.25,0,0,0-.41.21v0h2.62Z"></path>
  <path class="cls-14" d="M124,333.73a1.55,1.55,0,0,1,.35.57,2,2,0,0,1,0,1.41,1.76,1.76,0,0,1-.39.56,1.79,1.79,0,0,1-.61.36,2.38,2.38,0,0,1-.79.13,2.17,2.17,0,0,1-.84-.15,1.83,1.83,0,0,1-.6-.39,1.58,1.58,0,0,1-.36-.56,1.8,1.8,0,0,1-.13-.69,1.87,1.87,0,0,1,.12-.68,1.72,1.72,0,0,1,.36-.57,1.66,1.66,0,0,1,.61-.4,2.17,2.17,0,0,1,.84-.15,2.24,2.24,0,0,1,.86.16A1.71,1.71,0,0,1,124,333.73Zm-.88,2.33a2.06,2.06,0,0,0,.13-.46,5.57,5.57,0,0,0,0-.63,3.7,3.7,0,0,0,0-.6,1.69,1.69,0,0,0-.12-.48.8.8,0,0,0-.23-.32.61.61,0,0,0-.71,0,.83.83,0,0,0-.24.33,2.28,2.28,0,0,0-.12.47,5.66,5.66,0,0,0,0,.61,4.91,4.91,0,0,0,0,.59,1.91,1.91,0,0,0,.12.47.87.87,0,0,0,.22.33.57.57,0,0,0,.37.12.54.54,0,0,0,.35-.11A.84.84,0,0,0,123.09,336.06Z"></path>
  <path class="cls-14" d="M128.65,335.41a1.16,1.16,0,0,1-.52,1,2.2,2.2,0,0,1-1.4.4,2.23,2.23,0,0,1-1.28-.34,1,1,0,0,1-.49-.86.9.9,0,0,1,.26-.66.52.52,0,1,0,.14-.91,1.17,1.17,0,0,1-.23-.69,1,1,0,0,1,.5-.88,2.09,2.09,0,0,1,1.24-.36,2,2,0,0,1,1.16.32.94.94,0,0,1,.44.77.85.85,0,0,1-.24.61,1.63,1.63,0,0,1-.72.38,2.09,2.09,0,0,1,.87.53A1.08,1.08,0,0,1,128.65,335.41Zm-1.05.31a.59.59,0,0,0-.1-.36.84.84,0,0,0-.27-.26,2.52,2.52,0,0,0-.44-.23l-.52-.24a1,1,0,0,0-.18.36,1.77,1.77,0,0,0-.08.52,1.05,1.05,0,0,0,.22.72.76.76,0,0,0,.59.26.77.77,0,0,0,.57-.21A.78.78,0,0,0,127.6,335.72Zm-.18-2.56a1,1,0,0,0-.16-.59.52.52,0,0,0-.45-.22.58.58,0,0,0-.45.19.69.69,0,0,0-.18.49.71.71,0,0,0,.08.34.75.75,0,0,0,.22.25,3.79,3.79,0,0,0,.38.21l.42.21a1.72,1.72,0,0,0,.11-.38A4,4,0,0,0,127.42,333.16Z"></path>
  <path class="cls-14" d="M132.09,335.6a.92.92,0,0,1,.44.84,1.17,1.17,0,0,1-.56,1,2.47,2.47,0,0,1-1.44.39,2,2,0,0,1-1.08-.27.8.8,0,0,1-.44-.67.57.57,0,0,1,.14-.38.5.5,0,0,1,.38-.15.61.61,0,0,1,.41.13.47.47,0,0,1,.16.36,1.11,1.11,0,0,1-.06.34l-.08.28a.58.58,0,0,0,.17.05l.26,0a1.13,1.13,0,0,0,.36-.06.83.83,0,0,0,.3-.2.93.93,0,0,0,.21-.33,1.36,1.36,0,0,0,.07-.5,1.87,1.87,0,0,0,0-.34.7.7,0,0,0-.12-.28.55.55,0,0,0-.24-.18.88.88,0,0,0-.39-.07h-.4v-.38h.28A.7.7,0,0,0,131,335a1.27,1.27,0,0,0,.17-.72.79.79,0,0,0-.17-.57.62.62,0,0,0-.49-.2l-.21,0a.67.67,0,0,0-.19,0l.09.3a1.39,1.39,0,0,1,0,.32.47.47,0,0,1-.16.36.62.62,0,0,1-.4.13.44.44,0,0,1-.37-.16.49.49,0,0,1-.14-.37.78.78,0,0,1,.45-.66,2.15,2.15,0,0,1,1.13-.28,2.48,2.48,0,0,1,.78.11,1.78,1.78,0,0,1,.48.27,1,1,0,0,1,.25.34,1,1,0,0,1,.06.32,1.32,1.32,0,0,1-.05.32.92.92,0,0,1-.18.3,1.15,1.15,0,0,1-.36.28,2.1,2.1,0,0,1-.52.18v0a2.36,2.36,0,0,1,.44.07A1.35,1.35,0,0,1,132.09,335.6Z"></path>
  <path class="cls-14" d="M136.68,336.62H136v1.19H135v-1.19h-2.07V336l2.25-2.85H136V336h.68ZM135,336v-2l-1.59,2Z"></path>
  <path class="cls-14" d="M140.48,333.73a1.69,1.69,0,0,1,.35.57,1.92,1.92,0,0,1,.11.67,1.78,1.78,0,0,1-.14.74,1.49,1.49,0,0,1-.39.56,1.66,1.66,0,0,1-.6.36,2.44,2.44,0,0,1-.8.13,2.16,2.16,0,0,1-.83-.15,1.83,1.83,0,0,1-.6-.39,1.76,1.76,0,0,1-.37-.56,2,2,0,0,1-.12-.69,1.87,1.87,0,0,1,.12-.68,1.68,1.68,0,0,1,1-1,2.26,2.26,0,0,1,.85-.15,2.31,2.31,0,0,1,.86.16A1.71,1.71,0,0,1,140.48,333.73Zm-.89,2.33a1.64,1.64,0,0,0,.13-.46,3.92,3.92,0,0,0,0-.63,5.47,5.47,0,0,0,0-.6,2.8,2.8,0,0,0-.12-.48.73.73,0,0,0-.24-.32.51.51,0,0,0-.35-.12.61.61,0,0,0-.36.11.92.92,0,0,0-.23.33,1.47,1.47,0,0,0-.12.47,3.82,3.82,0,0,0,0,.61,4.91,4.91,0,0,0,0,.59,3.59,3.59,0,0,0,.12.47.89.89,0,0,0,.23.33.56.56,0,0,0,.36.12.52.52,0,0,0,.35-.11A.67.67,0,0,0,139.59,336.06Z"></path>
  <path class="cls-14" d="M145.15,335.41a1.17,1.17,0,0,1-.51,1,2.22,2.22,0,0,1-1.4.4,2.29,2.29,0,0,1-1.29-.34,1,1,0,0,1-.49-.86.87.87,0,0,1,.27-.66,1.66,1.66,0,0,1,.82-.4,1.59,1.59,0,0,1-.68-.51,1.17,1.17,0,0,1-.23-.69,1,1,0,0,1,.5-.88,2.07,2.07,0,0,1,1.24-.36,1.93,1.93,0,0,1,1.15.32.93.93,0,0,1,.45.77.85.85,0,0,1-.24.61,1.63,1.63,0,0,1-.72.38,2.09,2.09,0,0,1,.87.53A1.12,1.12,0,0,1,145.15,335.41Zm-1.05.31a.66.66,0,0,0-.09-.36.84.84,0,0,0-.27-.26,3.1,3.1,0,0,0-.45-.23l-.51-.24a1.19,1.19,0,0,0-.19.36,1.77,1.77,0,0,0-.08.52,1.05,1.05,0,0,0,.23.72.74.74,0,0,0,.59.26.77.77,0,0,0,.57-.21A.82.82,0,0,0,144.1,335.72Zm-.17-2.56a1.05,1.05,0,0,0-.16-.59.52.52,0,0,0-.45-.22.58.58,0,0,0-.45.19.69.69,0,0,0-.18.49.71.71,0,0,0,.08.34.65.65,0,0,0,.22.25,3.46,3.46,0,0,0,.37.21l.43.21a1.74,1.74,0,0,0,.1-.38A2.67,2.67,0,0,0,143.93,333.16Z"></path>
  <path class="cls-14" d="M148.37,335.16a1.38,1.38,0,0,1,.4.43,1.28,1.28,0,0,1,.16.65,1.39,1.39,0,0,1-.54,1.13,2.08,2.08,0,0,1-1.36.44,2,2,0,0,1-1.07-.28.77.77,0,0,1-.43-.65.53.53,0,0,1,.14-.38.49.49,0,0,1,.38-.15.61.61,0,0,1,.41.13.46.46,0,0,1,.15.36,1.08,1.08,0,0,1-.05.34,1.54,1.54,0,0,1-.09.28.48.48,0,0,0,.18,0l.19,0a.89.89,0,0,0,.35-.08.73.73,0,0,0,.29-.24,1.08,1.08,0,0,0,.22-.41,2.21,2.21,0,0,0,.07-.54,1.09,1.09,0,0,0-.24-.73.75.75,0,0,0-.61-.28,1,1,0,0,0-.49.11,1.74,1.74,0,0,0-.36.31l-.24-.08.3-2.31h2.65v.87h-2.42l-.13,1a2,2,0,0,1,.44-.2,1.92,1.92,0,0,1,.62-.1,2.51,2.51,0,0,1,.55.06A1.78,1.78,0,0,1,148.37,335.16Z"></path>
  <path class="cls-14" d="M152.91,335.06a2.42,2.42,0,0,1-.78,1.86,3.64,3.64,0,0,1-2.1.91l-.07-.31.33-.06a2.37,2.37,0,0,0,.64-.28,1.57,1.57,0,0,0,.41-.4,1.84,1.84,0,0,0,.26-.5,3.39,3.39,0,0,0,.13-.55,1.32,1.32,0,0,1-.53.32,2.08,2.08,0,0,1-.58.08,1.26,1.26,0,0,1-.51-.11,1.46,1.46,0,0,1-.41-.29,1.42,1.42,0,0,1-.27-.45,1.57,1.57,0,0,1-.1-.58,1.37,1.37,0,0,1,.51-1.09,1.89,1.89,0,0,1,1.27-.44,1.72,1.72,0,0,1,1.31.51A2,2,0,0,1,152.91,335.06Zm-1.15.17v-.11a.49.49,0,0,0,0-.12,2.91,2.91,0,0,0-.18-1.15c-.12-.27-.28-.4-.47-.4a.5.5,0,0,0-.45.3,1.78,1.78,0,0,0-.18.88,1.53,1.53,0,0,0,.18.8.53.53,0,0,0,.46.3.89.89,0,0,0,.34-.07.71.71,0,0,0,.28-.27.35.35,0,0,0,0-.06Z"></path>
  <path class="cls-14" d="M157.05,336.62h-.67v1.19h-1v-1.19h-2.08V336l2.25-2.85h.88V336h.67Zm-1.72-.66v-2l-1.59,2Z"></path>
  <text class="cls-15" transform="translate(135.66 201.78)">B<tspan class="cls-16" x="18.15" y="0">R</tspan><tspan class="cls-17" x="36.42" y="0">O</tspan><tspan class="cls-18" x="55.62" y="0">AD</tspan><tspan class="cls-19" x="95.96" y="0">WA</tspan><tspan x="138.27" y="0">Y F</tspan><tspan class="cls-20" x="176.5" y="0">R</tspan><tspan x="195.11" y="0">UITERERS</tspan></text>
  <text class="cls-21" transform="translate(136.13 220.71)">15 THE B<tspan class="cls-22" x="43.39" y="0">R</tspan><tspan class="cls-23" x="50.53" y="0">O</tspan><tspan x="58.03" y="0">AD</tspan><tspan class="cls-24" x="73.8" y="0">WA</tspan><tspan x="90.33" y="0">Y</tspan></text>
  <text class="cls-25" transform="translate(372.17 220.71)">TEL: 020<tspan class="cls-26" x="41.73" y="0">8</tspan><tspan class="cls-27" x="47.83" y="0">3</tspan><tspan class="cls-28" x="53.64" y="0">40</tspan><tspan class="cls-29" x="66.12" y="0">8</tspan><tspan class="cls-22" x="71.96" y="0">5</tspan><tspan class="cls-28" x="77.58" y="0">94</tspan></text>
</svg>
