<?xml version="1.0" encoding="UTF-8"?>
<svg xmlns="http://www.w3.org/2000/svg" xmlns:xlink="http://www.w3.org/1999/xlink" id="Layer_1" data-name="Layer 1" viewBox="0 0 600 600">
  <defs>
    <style>.cls-1,.cls-18{fill:none;}.cls-2{fill:#0a2a7d;}.cls-3,.cls-6{fill:#fff;}.cls-16,.cls-4{fill:#ffdc2d;}.cls-16,.cls-17,.cls-18,.cls-19,.cls-4,.cls-5,.cls-6,.cls-7,.cls-8{stroke:#1c19a8;stroke-width:2.82px;}.cls-16,.cls-17,.cls-4,.cls-5,.cls-6,.cls-7,.cls-8{stroke-linejoin:round;}.cls-17,.cls-5{fill:#fb715d;}.cls-7{fill:#00ab81;}.cls-19,.cls-8,.cls-9{fill:#1c19a8;}.cls-9{font-size:21.33px;font-family:Alegreya-Regular, Alegreya;}.cls-10{letter-spacing:-0.02em;}.cls-11,.cls-12{font-size:25.18px;font-family:Alegreya-Bold, Alegreya;font-weight:700;}.cls-11{letter-spacing:-0.02em;}.cls-13{letter-spacing:-0.01em;}.cls-14{letter-spacing:-0.02em;}.cls-15{fill:url(#Blue_dots_2);}.cls-16,.cls-17{fill-rule:evenodd;}.cls-18,.cls-19{stroke-miterlimit:10;}</style>
    <pattern id="Blue_dots_2" data-name="Blue dots 2" width="28.8" height="28.8" patternUnits="userSpaceOnUse" viewBox="0 0 28.8 28.8">
      <rect class="cls-1" width="28.8" height="28.8"></rect>
      <path class="cls-2" d="M28.8,30.24a1.44,1.44,0,1,0-1.44-1.44A1.44,1.44,0,0,0,28.8,30.24Z"></path>
      <path class="cls-2" d="M14.4,30.24A1.44,1.44,0,1,0,13,28.8,1.44,1.44,0,0,0,14.4,30.24Z"></path>
      <path class="cls-2" d="M28.8,15.84a1.44,1.44,0,1,0-1.44-1.44A1.44,1.44,0,0,0,28.8,15.84Z"></path>
      <path class="cls-2" d="M14.4,15.84A1.44,1.44,0,1,0,13,14.4,1.44,1.44,0,0,0,14.4,15.84Z"></path>
      <path class="cls-2" d="M7.2,23A1.44,1.44,0,1,0,5.76,21.6,1.44,1.44,0,0,0,7.2,23Z"></path>
      <path class="cls-2" d="M21.6,23a1.44,1.44,0,1,0-1.44-1.44A1.44,1.44,0,0,0,21.6,23Z"></path>
      <path class="cls-2" d="M7.2,8.64A1.44,1.44,0,1,0,5.76,7.2,1.44,1.44,0,0,0,7.2,8.64Z"></path>
      <path class="cls-2" d="M21.6,8.64A1.44,1.44,0,1,0,20.16,7.2,1.44,1.44,0,0,0,21.6,8.64Z"></path>
      <path class="cls-2" d="M0,30.24A1.44,1.44,0,0,0,1.44,28.8,1.45,1.45,0,0,0,0,27.36,1.44,1.44,0,0,0-1.44,28.8,1.43,1.43,0,0,0,0,30.24Z"></path>
      <path class="cls-2" d="M0,15.84A1.44,1.44,0,0,0,1.44,14.4,1.45,1.45,0,0,0,0,13,1.44,1.44,0,0,0-1.44,14.4,1.43,1.43,0,0,0,0,15.84Z"></path>
      <path class="cls-2" d="M28.8,1.44A1.45,1.45,0,0,0,30.24,0,1.45,1.45,0,0,0,28.8-1.44,1.44,1.44,0,0,0,27.36,0,1.44,1.44,0,0,0,28.8,1.44Z"></path>
      <path class="cls-2" d="M14.4,1.44A1.45,1.45,0,0,0,15.84,0,1.45,1.45,0,0,0,14.4-1.44,1.44,1.44,0,0,0,13,0,1.44,1.44,0,0,0,14.4,1.44Z"></path>
      <path class="cls-2" d="M0,1.44A1.45,1.45,0,0,0,1.44,0,1.45,1.45,0,0,0,0-1.44,1.44,1.44,0,0,0-1.44,0,1.44,1.44,0,0,0,0,1.44Z"></path>
    </pattern>
  </defs>
  <rect class="cls-3" x="70.58" y="197.51" width="431.9" height="274.66"></rect>
  <path class="cls-4" d="M201.74,233.74V487.88h95.44V233.74Z"></path>
  <rect class="cls-5" x="197.08" y="223.59" width="9.33" height="257.97"></rect>
  <rect class="cls-6" x="212.14" y="252.2" width="75.12" height="29.63"></rect>
  <rect class="cls-6" x="212.14" y="296.55" width="75.12" height="158.61"></rect>
  <line class="cls-6" x1="206.41" y1="288.23" x2="292.51" y2="288.23"></line>
  <rect class="cls-4" x="203.59" y="364.65" width="21.81" height="8.36" transform="translate(583.33 154.33) rotate(90)"></rect>
  <rect class="cls-4" x="232.49" y="460.46" width="34.43" height="6.11"></rect>
  <rect class="cls-4" x="81.51" y="471.87" width="336.38" height="9.69"></rect>
  <rect class="cls-7" x="59.65" y="203.91" width="21.86" height="277.48"></rect>
  <rect class="cls-7" x="510.3" y="203.91" width="21.86" height="277.48"></rect>
  <rect class="cls-7" x="423.96" y="223.59" width="86.1" height="38.33"></rect>
  <path class="cls-4" d="M424,252.2V471.87h86.1V252.2s-15.76-10.32-43.37-10.32C435.76,241.88,424,252.2,424,252.2ZM500.8,458.5H432.55V397.27H500.8Zm0-98.15V374H432.55V269.53h68.27Z"></path>
  <rect class="cls-8" x="424.85" y="365.62" width="21.81" height="6.41" transform="translate(804.59 -66.93) rotate(90)"></rect>
  <rect class="cls-5" x="81.51" y="147.6" width="428.79" height="75.99"></rect>
  <rect class="cls-8" x="457.05" y="382.83" width="21.81" height="4.57"></rect>
  <polygon class="cls-4" points="70.64 124.97 59.65 138.61 81.62 138.61 70.64 124.97"></polygon>
  <rect class="cls-4" x="59.65" y="138.61" width="10.96" height="65.18"></rect>
  <rect class="cls-4" x="70.56" y="138.61" width="10.96" height="65.18"></rect>
  <rect class="cls-4" x="81.57" y="141.74" width="428.61" height="5.86"></rect>
  <rect class="cls-4" x="57.29" y="200.93" width="26.5" height="5.97"></rect>
  <polygon class="cls-4" points="521.33 124.97 510.35 138.61 532.31 138.61 521.33 124.97"></polygon>
  <rect class="cls-4" x="510.35" y="138.61" width="10.96" height="65.18"></rect>
  <rect class="cls-4" x="521.25" y="138.61" width="10.96" height="65.18"></rect>
  <rect class="cls-4" x="507.98" y="200.93" width="26.5" height="5.97"></rect>
  <rect class="cls-4" x="423.96" y="471.87" width="86.1" height="9.69"></rect>
  <rect class="cls-6" x="301.84" y="236.85" width="115.56" height="225.64"></rect>
  <rect class="cls-8" x="329.54" y="415.88" width="63.03" height="6.51"></rect>
  <rect class="cls-8" x="356.08" y="422.4" width="7.37" height="49.51"></rect>
  <rect class="cls-8" x="410.48" y="400.41" width="5.73" height="37.83" transform="translate(826.68 838.66) rotate(-180)"></rect>
  <rect class="cls-8" x="376.02" y="436.37" width="40.19" height="4.53" transform="translate(792.23 877.28) rotate(-180)"></rect>
  <line class="cls-8" x1="412.31" y1="440.91" x2="412.31" y2="471.15"></line>
  <line class="cls-8" x1="408.37" y1="440.91" x2="408.37" y2="471.15"></line>
  <line class="cls-8" x1="385.19" y1="440.91" x2="385.19" y2="471.15"></line>
  <line class="cls-8" x1="381.24" y1="440.91" x2="381.24" y2="471.15"></line>
  <rect class="cls-8" x="302.52" y="400.41" width="5.73" height="37.83"></rect>
  <rect class="cls-8" x="302.52" y="436.37" width="40.19" height="4.53"></rect>
  <line class="cls-8" x1="306.41" y1="440.91" x2="306.41" y2="471.15"></line>
  <line class="cls-8" x1="310.36" y1="440.91" x2="310.36" y2="471.15"></line>
  <line class="cls-8" x1="333.54" y1="440.91" x2="333.54" y2="471.15"></line>
  <line class="cls-8" x1="337.48" y1="440.91" x2="337.48" y2="471.15"></line>
  <rect class="cls-6" x="81.51" y="246.23" width="115.56" height="225.64"></rect>
  <rect class="cls-7" x="59.65" y="481.56" width="472.51" height="9.79"></rect>
  <text class="cls-9" transform="translate(98.57 203.91)">
    <tspan class="cls-10">m</tspan>
    <tspan x="17.34" y="0">y </tspan>
    <tspan class="cls-11" x="31.08" y="0">J</tspan>
    <tspan class="cls-12" x="38.91" y="0">amii</tspan>
    <tspan x="86.87" y="0"> </tspan>
    <tspan class="cls-13" x="91.1" y="0">c</tspan>
    <tspan x="99.93" y="0">a</tspan>
    <tspan class="cls-14" x="109.87" y="0">f</tspan>
    <tspan x="116.52" y="0">é</tspan>
  </text>
  <text class="cls-9" transform="translate(462.63 203.8)">3</text>
  <line class="cls-8" x1="357" y1="246.23" x2="357" y2="311.62"></line>
  <line class="cls-8" x1="357" y1="289.56" x2="357" y2="311.62"></line>
  <rect class="cls-8" x="354.63" y="309.26" width="4.73" height="4.73"></rect>
  <circle class="cls-4" cx="357" cy="320.62" r="7.97"></circle>
  <rect class="cls-15" x="301.84" y="236.85" width="115.56" height="225.64"></rect>
  <path class="cls-16" d="M90.13,378.61a.46.46,0,0,0-.34.5v2.45a.45.45,0,0,0,.38.49h.11a1.87,1.87,0,0,1-.35.67,6,6,0,0,1-1,.91,5.4,5.4,0,0,0-1.22,1.14,3.59,3.59,0,0,0-.64,2.05h0v11.42a2,2,0,0,0,1.69,2.16h9a2,2,0,0,0,1.68-2.16v-11.4h0a3.51,3.51,0,0,0-.62-2,5.45,5.45,0,0,0-1.22-1.15,5.69,5.69,0,0,1-1-.93,1.77,1.77,0,0,1-.34-.67h.13a.45.45,0,0,0,.39-.49l0-2.44a.56.56,0,0,0-.12-.36.36.36,0,0,0-.27-.15h-6.2Z"></path>
  <path class="cls-16" d="M108.19,378.61a.48.48,0,0,0-.35.5v2.45a.45.45,0,0,0,.39.49h.1a1.7,1.7,0,0,1-.34.67,6.54,6.54,0,0,1-1,.91,5.36,5.36,0,0,0-1.21,1.14,3.59,3.59,0,0,0-.64,2.05h0v11.42a2,2,0,0,0,1.68,2.16h9a2,2,0,0,0,1.68-2.16v-11.4h0a3.51,3.51,0,0,0-.63-2,5.42,5.42,0,0,0-1.21-1.15,5.69,5.69,0,0,1-1-.93,1.64,1.64,0,0,1-.34-.67h.13a.45.45,0,0,0,.38-.49l0-2.44a.61.61,0,0,0-.11-.36.36.36,0,0,0-.27-.15h-6.2Z"></path>
  <path class="cls-17" d="M103.43,268.42a.47.47,0,0,0-.35.5v2.44a.46.46,0,0,0,.39.5h.1a1.6,1.6,0,0,1-.34.66,6.11,6.11,0,0,1-1,.92,5.15,5.15,0,0,0-1.21,1.14,3.57,3.57,0,0,0-.64,2.05h0v11.42a2,2,0,0,0,1.68,2.17h9a2,2,0,0,0,1.68-2.17V276.66h0a3.51,3.51,0,0,0-.63-2,5.71,5.71,0,0,0-1.21-1.16,5.66,5.66,0,0,1-1-.92,1.7,1.7,0,0,1-.34-.67h.13c.21,0,.38-.22.38-.5l0-2.44a.58.58,0,0,0-.11-.35.33.33,0,0,0-.27-.15h-6.2Z"></path>
  <path class="cls-7" d="M99.43,437.2h8.48l0-14.64-2.21-6.85v-5.62h-4.12v5.62l-2.22,6.85Z"></path>
  <rect class="cls-5" x="125.58" y="272.15" width="23.22" height="18.07"></rect>
  <rect class="cls-7" x="126.53" y="414.61" width="22.27" height="18.07"></rect>
  <rect class="cls-7" x="94.37" y="351.62" width="23.22" height="18.07"></rect>
  <line class="cls-18" x1="153.88" y1="289.4" x2="153.88" y2="473.26"></line>
  <path class="cls-4" d="M93,333.49h8.49l0-14.63L99.27,312v-5.62H95.15V312L93,318.86Z"></path>
  <path class="cls-4" d="M108.25,333.49h8.49l0-14.63L114.55,312v-5.62h-4.13V312l-2.21,6.86Z"></path>
  <rect class="cls-19" x="81.51" y="433.17" width="72.35" height="5.74"></rect>
  <rect class="cls-19" x="81.59" y="399.95" width="72.22" height="5.74"></rect>
  <rect class="cls-19" x="81.51" y="366.73" width="72.31" height="5.74"></rect>
  <rect class="cls-19" x="81.51" y="333.51" width="72.33" height="5.74"></rect>
  <rect class="cls-19" x="82.28" y="289.41" width="72.08" height="5.74"></rect>
  <rect class="cls-5" x="417.76" y="223.59" width="6.19" height="257.97"></rect>
  <rect class="cls-5" x="292.51" y="223.59" width="9.33" height="257.97"></rect>
  <rect class="cls-5" x="81.51" y="218.84" width="335.9" height="27.39"></rect>
</svg>
