<?xml version="1.0" encoding="UTF-8"?>
<svg xmlns="http://www.w3.org/2000/svg" viewBox="0 0 600 600">
  <defs>
    <style>.cls-1,.cls-6{fill:none}.cls-2{fill:#1c19a9}.cls-3{fill:#fffff7}.cls-3,.cls-4,.cls-6,.cls-8{stroke:#1c19a9;stroke-miterlimit:10;stroke-width:3.5px}.cls-4{fill:#34c18b}.cls-5{clip-path:url(#clip-path)}.cls-7{fill:#fd0}.cls-8{fill:url(#Blue_dots_2)}</style>
    <clipPath id="clip-path">
      <path class="cls-1" d="M301.24 464.64h55c20.52 0 38.14-13.69 42-32.63l23.59-219.91H178.74L202.35 432c3.86 18.94 21.49 32.63 42 32.63h56.88z"></path>
    </clipPath>
    <pattern id="Blue_dots_2" data-name="Blue dots 2" width="28.8" height="28.8" patternTransform="translate(-683.42 46.73)" patternUnits="userSpaceOnUse">
      <path class="cls-1" d="M0 0H28.8V28.8H0z"></path>
      <path class="cls-2" d="M28.8 30.24a1.44 1.44 0 1 0-1.44-1.44 1.44 1.44 0 0 0 1.44 1.44zm-14.4 0A1.44 1.44 0 1 0 13 28.8a1.44 1.44 0 0 0 1.4 1.44zm14.4-14.4a1.44 1.44 0 1 0-1.44-1.44 1.44 1.44 0 0 0 1.44 1.44zm-14.4 0A1.44 1.44 0 1 0 13 14.4a1.44 1.44 0 0 0 1.4 1.44zM7.2 23a1.44 1.44 0 1 0-1.44-1.4A1.44 1.44 0 0 0 7.2 23zm14.4 0a1.44 1.44 0 1 0-1.44-1.44A1.44 1.44 0 0 0 21.6 23zM7.2 8.64A1.44 1.44 0 1 0 5.76 7.2 1.44 1.44 0 0 0 7.2 8.64zm14.4 0a1.44 1.44 0 1 0-1.44-1.44 1.44 1.44 0 0 0 1.44 1.44zM0 30.24a1.44 1.44 0 0 0 1.44-1.44A1.45 1.45 0 0 0 0 27.36a1.44 1.44 0 0 0-1.44 1.44A1.43 1.43 0 0 0 0 30.24zm0-14.4a1.44 1.44 0 0 0 1.44-1.44A1.45 1.45 0 0 0 0 13a1.44 1.44 0 0 0-1.44 1.4A1.43 1.43 0 0 0 0 15.84zm28.8-14.4A1.45 1.45 0 0 0 30.24 0a1.45 1.45 0 0 0-1.44-1.44A1.44 1.44 0 0 0 27.36 0a1.44 1.44 0 0 0 1.44 1.44zm-14.4 0A1.45 1.45 0 0 0 15.84 0a1.45 1.45 0 0 0-1.44-1.44A1.44 1.44 0 0 0 13 0a1.44 1.44 0 0 0 1.4 1.44zM0 1.44A1.45 1.45 0 0 0 1.44 0 1.45 1.45 0 0 0 0-1.44 1.44 1.44 0 0 0-1.44 0 1.44 1.44 0 0 0 0 1.44z"></path>
    </pattern>
  </defs>
  <g id="Layer_2" data-name="Layer 2">
    <path class="cls-3" d="M301.24 464.64h55c20.52 0 38.14-13.69 42-32.63l23.59-219.91H178.74L202.35 432c3.86 18.94 21.49 32.63 42 32.63h56.88z"></path>
    <ellipse class="cls-4" cx="300" cy="157.51" rx="61.04" ry="22.15"></ellipse>
    <path class="cls-4" d="M433.33 212.1H166.67a3.75 3.75 0 0 1-3.67-4.56L175.33 151a19.85 19.85 0 0 1 19.38-15.61c70.79 14.08 141.14 14.26 211 0a19.83 19.83 0 0 1 19.41 15.75L437 207.56a3.76 3.76 0 0 1-3.67 4.54z"></path>
    <g class="cls-5">
      <ellipse class="cls-3" cx="298.9" cy="481.55" rx="80.14" ry="40.71"></ellipse>
      <path class="cls-2" d="M149.92 398.03L437.09 398.03 410.48 482.12 171.52 492.42 149.92 398.03z"></path>
    </g>
    <path class="cls-6" d="M301.24 464.64h55c20.52 0 38.14-13.69 42-32.63l23.59-219.91H178.74L202.35 432c3.86 18.94 21.49 32.63 42 32.63h56.88z"></path>
    <path class="cls-7" d="M300.28 282.16h112.13a7.65 7.65 0 0 1 7.61 8.41l-8.16 80.56a7.64 7.64 0 0 1-7.6 6.87H196.31a7.65 7.65 0 0 1-7.61-6.87l-8.15-80.56a7.64 7.64 0 0 1 7.6-8.41z"></path>
    <path class="cls-8" d="M300.28 282.16h112.13a7.65 7.65 0 0 1 7.61 8.41l-8.16 80.56a7.64 7.64 0 0 1-7.6 6.87H196.31a7.65 7.65 0 0 1-7.61-6.87l-8.15-80.56a7.64 7.64 0 0 1 7.6-8.41z"></path>
    <rect class="cls-4" x="157.8" y="205.65" width="284.4" height="17.64" rx="8.82"></rect>
  </g>
</svg>
