<?xml version="1.0" encoding="UTF-8"?>
<svg xmlns="http://www.w3.org/2000/svg" viewBox="0 0 600 600">
  <defs>
    <style>.cls-1{fill:none}.cls-2{fill:#1c19a9}.cls-12,.cls-3{fill:#fc715d}.cls-10,.cls-11,.cls-12,.cls-3,.cls-4,.cls-5,.cls-6,.cls-7,.cls-8,.cls-9{stroke:#1c19a9;stroke-width:3.5px}.cls-10,.cls-11,.cls-3,.cls-4,.cls-7,.cls-8{stroke-linecap:round}.cls-10,.cls-11,.cls-3,.cls-4,.cls-6,.cls-7,.cls-8{stroke-miterlimit:10}.cls-4{fill:url(#Blue_dots_2)}.cls-10,.cls-5,.cls-6{fill:#fd0}.cls-12,.cls-5,.cls-9{stroke-linejoin:round}.cls-7{fill:#34c18b}.cls-8{fill:url(#Blue_dots_2-3)}.cls-9{fill:#fff}.cls-11{fill:url(#Blue_dots_2-5)}</style>
    <pattern id="Blue_dots_2" data-name="Blue dots 2" width="28.8" height="28.8" patternTransform="matrix(-1 0 0 1 -771.19 41.06)" patternUnits="userSpaceOnUse">
      <path class="cls-1" d="M0 0H28.8V28.8H0z"></path>
      <path class="cls-2" d="M28.8 30.24a1.44 1.44 0 1 0-1.44-1.44 1.44 1.44 0 0 0 1.44 1.44zm-14.4 0A1.44 1.44 0 1 0 13 28.8a1.44 1.44 0 0 0 1.4 1.44zm14.4-14.4a1.44 1.44 0 1 0-1.44-1.44 1.44 1.44 0 0 0 1.44 1.44zm-14.4 0A1.44 1.44 0 1 0 13 14.4a1.44 1.44 0 0 0 1.4 1.44zM7.2 23a1.44 1.44 0 1 0-1.44-1.4A1.44 1.44 0 0 0 7.2 23zm14.4 0a1.44 1.44 0 1 0-1.44-1.44A1.44 1.44 0 0 0 21.6 23zM7.2 8.64A1.44 1.44 0 1 0 5.76 7.2 1.44 1.44 0 0 0 7.2 8.64zm14.4 0a1.44 1.44 0 1 0-1.44-1.44 1.44 1.44 0 0 0 1.44 1.44zM0 30.24a1.44 1.44 0 0 0 1.44-1.44A1.45 1.45 0 0 0 0 27.36a1.44 1.44 0 0 0-1.44 1.44A1.43 1.43 0 0 0 0 30.24zm0-14.4a1.44 1.44 0 0 0 1.44-1.44A1.45 1.45 0 0 0 0 13a1.44 1.44 0 0 0-1.44 1.4A1.43 1.43 0 0 0 0 15.84zm28.8-14.4A1.45 1.45 0 0 0 30.24 0a1.45 1.45 0 0 0-1.44-1.44A1.44 1.44 0 0 0 27.36 0a1.44 1.44 0 0 0 1.44 1.44zm-14.4 0A1.45 1.45 0 0 0 15.84 0a1.45 1.45 0 0 0-1.44-1.44A1.44 1.44 0 0 0 13 0a1.44 1.44 0 0 0 1.4 1.44zM0 1.44A1.45 1.45 0 0 0 1.44 0 1.45 1.45 0 0 0 0-1.44 1.44 1.44 0 0 0-1.44 0 1.44 1.44 0 0 0 0 1.44z"></path>
    </pattern>
    <pattern id="Blue_dots_2-3" data-name="Blue dots 2" width="28.8" height="28.8" patternTransform="translate(-740.9 41.06)" patternUnits="userSpaceOnUse">
      <path class="cls-1" d="M0 0H28.8V28.8H0z"></path>
      <path class="cls-2" d="M28.8 30.24a1.44 1.44 0 1 0-1.44-1.44 1.44 1.44 0 0 0 1.44 1.44zm-14.4 0A1.44 1.44 0 1 0 13 28.8a1.44 1.44 0 0 0 1.4 1.44zm14.4-14.4a1.44 1.44 0 1 0-1.44-1.44 1.44 1.44 0 0 0 1.44 1.44zm-14.4 0A1.44 1.44 0 1 0 13 14.4a1.44 1.44 0 0 0 1.4 1.44zM7.2 23a1.44 1.44 0 1 0-1.44-1.4A1.44 1.44 0 0 0 7.2 23zm14.4 0a1.44 1.44 0 1 0-1.44-1.44A1.44 1.44 0 0 0 21.6 23zM7.2 8.64A1.44 1.44 0 1 0 5.76 7.2 1.44 1.44 0 0 0 7.2 8.64zm14.4 0a1.44 1.44 0 1 0-1.44-1.44 1.44 1.44 0 0 0 1.44 1.44zM0 30.24a1.44 1.44 0 0 0 1.44-1.44A1.45 1.45 0 0 0 0 27.36a1.44 1.44 0 0 0-1.44 1.44A1.43 1.43 0 0 0 0 30.24zm0-14.4a1.44 1.44 0 0 0 1.44-1.44A1.45 1.45 0 0 0 0 13a1.44 1.44 0 0 0-1.44 1.4A1.43 1.43 0 0 0 0 15.84zm28.8-14.4A1.45 1.45 0 0 0 30.24 0a1.45 1.45 0 0 0-1.44-1.44A1.44 1.44 0 0 0 27.36 0a1.44 1.44 0 0 0 1.44 1.44zm-14.4 0A1.45 1.45 0 0 0 15.84 0a1.45 1.45 0 0 0-1.44-1.44A1.44 1.44 0 0 0 13 0a1.44 1.44 0 0 0 1.4 1.44zM0 1.44A1.45 1.45 0 0 0 1.44 0 1.45 1.45 0 0 0 0-1.44 1.44 1.44 0 0 0-1.44 0 1.44 1.44 0 0 0 0 1.44z"></path>
    </pattern>
    <pattern id="Blue_dots_2-5" data-name="Blue dots 2" width="28.8" height="28.8" patternTransform="matrix(-1 0 0 1 -730 41.06)" patternUnits="userSpaceOnUse">
      <path class="cls-1" d="M0 0H28.8V28.8H0z"></path>
      <path class="cls-2" d="M28.8 30.24a1.44 1.44 0 1 0-1.44-1.44 1.44 1.44 0 0 0 1.44 1.44zm-14.4 0A1.44 1.44 0 1 0 13 28.8a1.44 1.44 0 0 0 1.4 1.44zm14.4-14.4a1.44 1.44 0 1 0-1.44-1.44 1.44 1.44 0 0 0 1.44 1.44zm-14.4 0A1.44 1.44 0 1 0 13 14.4a1.44 1.44 0 0 0 1.4 1.44zM7.2 23a1.44 1.44 0 1 0-1.44-1.4A1.44 1.44 0 0 0 7.2 23zm14.4 0a1.44 1.44 0 1 0-1.44-1.44A1.44 1.44 0 0 0 21.6 23zM7.2 8.64A1.44 1.44 0 1 0 5.76 7.2 1.44 1.44 0 0 0 7.2 8.64zm14.4 0a1.44 1.44 0 1 0-1.44-1.44 1.44 1.44 0 0 0 1.44 1.44zM0 30.24a1.44 1.44 0 0 0 1.44-1.44A1.45 1.45 0 0 0 0 27.36a1.44 1.44 0 0 0-1.44 1.44A1.43 1.43 0 0 0 0 30.24zm0-14.4a1.44 1.44 0 0 0 1.44-1.44A1.45 1.45 0 0 0 0 13a1.44 1.44 0 0 0-1.44 1.4A1.43 1.43 0 0 0 0 15.84zm28.8-14.4A1.45 1.45 0 0 0 30.24 0a1.45 1.45 0 0 0-1.44-1.44A1.44 1.44 0 0 0 27.36 0a1.44 1.44 0 0 0 1.44 1.44zm-14.4 0A1.45 1.45 0 0 0 15.84 0a1.45 1.45 0 0 0-1.44-1.44A1.44 1.44 0 0 0 13 0a1.44 1.44 0 0 0 1.4 1.44zM0 1.44A1.45 1.45 0 0 0 1.44 0 1.45 1.45 0 0 0 0-1.44 1.44 1.44 0 0 0-1.44 0 1.44 1.44 0 0 0 0 1.44z"></path>
    </pattern>
  </defs>
  <g id="Layer_2" data-name="Layer 2">
    <path class="cls-3" d="M187.22 310.06h11.57a10.74 10.74 0 0 1 10.74 10.74v171.43h-33V320.8a10.74 10.74 0 0 1 10.74-10.74z" transform="rotate(180 193.005 401.145)"></path>
    <path class="cls-4" d="M187.22 492.23h11.57a10.74 10.74 0 0 0 10.74-10.74V310.06h-33.05v171.43a10.74 10.74 0 0 0 10.74 10.74z"></path>
    <path class="cls-5" d="M176.48 308.14L209.53 308.14 209.53 107.77 197.59 107.77 197.59 207.96 176.48 308.14z"></path>
    <path class="cls-6" d="M197.6 107.77L176.48 107.77"></path>
    <path class="cls-6" d="M197.6 113.41L176.48 113.41"></path>
    <path class="cls-6" d="M197.6 119.04L176.48 119.04"></path>
    <path class="cls-6" d="M197.6 124.67L176.48 124.67"></path>
    <path class="cls-6" d="M197.6 130.31L176.48 130.31"></path>
    <path class="cls-6" d="M197.6 135.94L176.48 135.94"></path>
    <path class="cls-6" d="M197.6 141.58L176.48 141.58"></path>
    <path class="cls-6" d="M197.6 147.21L176.48 147.21"></path>
    <path class="cls-6" d="M197.6 152.84L176.48 152.84"></path>
    <path class="cls-6" d="M197.6 158.48L176.48 158.48"></path>
    <path class="cls-7" d="M283.48 310.06h33v171.43a10.74 10.74 0 0 1-10.74 10.74h-11.52a10.74 10.74 0 0 1-10.74-10.74V310.06z"></path>
    <path class="cls-8" d="M283.48 310.06h33v171.43a10.74 10.74 0 0 1-10.74 10.74h-11.52a10.74 10.74 0 0 1-10.74-10.74V310.06z"></path>
    <path class="cls-9" d="M316.52 308.14L283.48 308.14 283.48 107.77 295.41 107.77 295.41 207.96 316.52 308.14z"></path>
    <path class="cls-6" d="M295.41 107.77L316.52 107.77"></path>
    <path class="cls-6" d="M295.41 113.41L316.52 113.41"></path>
    <path class="cls-6" d="M295.41 119.04L316.52 119.04"></path>
    <path class="cls-6" d="M295.41 124.67L316.52 124.67"></path>
    <path class="cls-6" d="M295.41 130.31L316.52 130.31"></path>
    <path class="cls-6" d="M295.41 135.94L316.52 135.94"></path>
    <path class="cls-6" d="M295.41 141.58L316.52 141.58"></path>
    <path class="cls-6" d="M295.41 147.21L316.52 147.21"></path>
    <path class="cls-6" d="M295.41 152.84L316.52 152.84"></path>
    <path class="cls-6" d="M295.41 158.48L316.52 158.48"></path>
    <path class="cls-10" d="M401.21 310.06h11.57a10.74 10.74 0 0 1 10.74 10.74v171.43h-33V320.8a10.74 10.74 0 0 1 10.69-10.74z" transform="rotate(180 406.995 401.145)"></path>
    <path class="cls-11" d="M401.21 492.23h11.57a10.74 10.74 0 0 0 10.74-10.74V310.06h-33v171.43a10.74 10.74 0 0 0 10.69 10.74z"></path>
    <path class="cls-12" d="M390.47 308.14L423.52 308.14 423.52 107.77 411.58 107.77 411.58 207.96 390.47 308.14z"></path>
    <path class="cls-6" d="M411.58 107.77L390.47 107.77"></path>
    <path class="cls-6" d="M411.58 113.41L390.47 113.41"></path>
    <path class="cls-6" d="M411.58 119.04L390.47 119.04"></path>
    <path class="cls-6" d="M411.58 124.67L390.47 124.67"></path>
    <path class="cls-6" d="M411.58 130.31L390.47 130.31"></path>
    <path class="cls-6" d="M411.58 135.94L390.47 135.94"></path>
    <path class="cls-6" d="M411.58 141.58L390.47 141.58"></path>
    <path class="cls-6" d="M411.58 147.21L390.47 147.21"></path>
    <path class="cls-6" d="M411.58 152.84L390.47 152.84"></path>
    <path class="cls-6" d="M411.58 158.48L390.47 158.48"></path>
  </g>
</svg>
