<?xml version="1.0" encoding="UTF-8"?>
<svg xmlns="http://www.w3.org/2000/svg" viewBox="0 0 600 600">
  <defs>
    <style>.cls-1{fill:none}.cls-2{fill:#1c19a9}.cls-3{fill:#fffff7}.cls-4{fill:#fd0}.cls-5{clip-path:url(#clip-path)}.cls-6{clip-path:url(#clip-path-2)}.cls-7{clip-path:url(#clip-path-3)}.cls-8{clip-path:url(#clip-path-4)}.cls-9{clip-path:url(#clip-path-5)}.cls-10{clip-path:url(#clip-path-6)}.cls-11{clip-path:url(#clip-path-7)}.cls-12{clip-path:url(#clip-path-8)}.cls-13{clip-path:url(#clip-path-9)}.cls-14{clip-path:url(#clip-path-10)}.cls-15{clip-path:url(#clip-path-11)}.cls-16{clip-path:url(#clip-path-12)}.cls-17{clip-path:url(#clip-path-13)}.cls-18{clip-path:url(#clip-path-14)}.cls-19{clip-path:url(#clip-path-15)}.cls-20{clip-path:url(#clip-path-16)}.cls-21{clip-path:url(#clip-path-17)}.cls-22{clip-path:url(#clip-path-18)}.cls-23{clip-path:url(#clip-path-19)}.cls-24{clip-path:url(#clip-path-20)}.cls-25{clip-path:url(#clip-path-21)}.cls-26{clip-path:url(#clip-path-22)}.cls-27{clip-path:url(#clip-path-23)}.cls-28{clip-path:url(#clip-path-24)}.cls-29{clip-path:url(#clip-path-25)}.cls-30{fill:#fc715d}</style>
    <clipPath id="clip-path">
      <path class="cls-1" d="M320.33 252.16l4.79 67.84v134.78c0 11.46-6.31 20.75-14.08 20.75H289c-7.77 0-14.08-9.29-14.08-20.75V320l4.79-67.85z"></path>
    </clipPath>
    <clipPath id="clip-path-2">
      <path class="cls-1" d="M322.7 247.51H351.5V276.31H322.7z"></path>
    </clipPath>
    <clipPath id="clip-path-3">
      <path class="cls-1" d="M322.7 276.31H351.5V305.11H322.7z"></path>
    </clipPath>
    <clipPath id="clip-path-4">
      <path class="cls-1" d="M322.7 305.11H351.5V333.91H322.7z"></path>
    </clipPath>
    <clipPath id="clip-path-5">
      <path class="cls-1" d="M322.7 333.91H351.5V362.71000000000004H322.7z"></path>
    </clipPath>
    <clipPath id="clip-path-6">
      <path class="cls-1" d="M322.7 362.71H351.5V391.51H322.7z"></path>
    </clipPath>
    <clipPath id="clip-path-7">
      <path class="cls-1" d="M322.7 391.51H351.5V420.31H322.7z"></path>
    </clipPath>
    <clipPath id="clip-path-8">
      <path class="cls-1" d="M322.7 420.31H351.5V449.11H322.7z"></path>
    </clipPath>
    <clipPath id="clip-path-9">
      <path class="cls-1" d="M322.7 449.11H351.5V477.91H322.7z"></path>
    </clipPath>
    <clipPath id="clip-path-10">
      <path class="cls-1" d="M293.9 247.51H322.7V276.31H293.9z"></path>
    </clipPath>
    <clipPath id="clip-path-11">
      <path class="cls-1" d="M293.9 276.31H322.7V305.11H293.9z"></path>
    </clipPath>
    <clipPath id="clip-path-12">
      <path class="cls-1" d="M293.9 305.11H322.7V333.91H293.9z"></path>
    </clipPath>
    <clipPath id="clip-path-13">
      <path class="cls-1" d="M293.9 333.91H322.7V362.71000000000004H293.9z"></path>
    </clipPath>
    <clipPath id="clip-path-14">
      <path class="cls-1" d="M293.9 362.71H322.7V391.51H293.9z"></path>
    </clipPath>
    <clipPath id="clip-path-15">
      <path class="cls-1" d="M293.9 391.51H322.7V420.31H293.9z"></path>
    </clipPath>
    <clipPath id="clip-path-16">
      <path class="cls-1" d="M293.9 420.31H322.7V449.11H293.9z"></path>
    </clipPath>
    <clipPath id="clip-path-17">
      <path class="cls-1" d="M293.9 449.11H322.7V477.91H293.9z"></path>
    </clipPath>
    <clipPath id="clip-path-18">
      <path class="cls-1" d="M265.1 247.51H293.90000000000003V276.31H265.1z"></path>
    </clipPath>
    <clipPath id="clip-path-19">
      <path class="cls-1" d="M265.1 276.31H293.90000000000003V305.11H265.1z"></path>
    </clipPath>
    <clipPath id="clip-path-20">
      <path class="cls-1" d="M265.1 305.11H293.90000000000003V333.91H265.1z"></path>
    </clipPath>
    <clipPath id="clip-path-21">
      <path class="cls-1" d="M265.1 333.91H293.90000000000003V362.71000000000004H265.1z"></path>
    </clipPath>
    <clipPath id="clip-path-22">
      <path class="cls-1" d="M265.1 362.71H293.90000000000003V391.51H265.1z"></path>
    </clipPath>
    <clipPath id="clip-path-23">
      <path class="cls-1" d="M265.1 391.51H293.90000000000003V420.31H265.1z"></path>
    </clipPath>
    <clipPath id="clip-path-24">
      <path class="cls-1" d="M265.1 420.31H293.90000000000003V449.11H265.1z"></path>
    </clipPath>
    <clipPath id="clip-path-25">
      <path class="cls-1" d="M265.1 449.11H293.90000000000003V477.91H265.1z"></path>
    </clipPath>
  </defs>
  <g id="Layer_2" data-name="Layer 2">
    <rect class="cls-2" x="217.94" y="128.94" width="164.12" height="36.7" rx="7.45"></rect>
    <path class="cls-2" d="M374.61 167.4H225.39a9.21 9.21 0 0 1-9.2-9.2v-21.81a9.21 9.21 0 0 1 9.2-9.2h149.22a9.21 9.21 0 0 1 9.2 9.2v21.81a9.21 9.21 0 0 1-9.2 9.2zm-149.22-36.71a5.71 5.71 0 0 0-5.7 5.7v21.81a5.71 5.71 0 0 0 5.7 5.7h149.22a5.71 5.71 0 0 0 5.7-5.7v-21.81a5.71 5.71 0 0 0-5.7-5.7z"></path>
    <rect class="cls-3" x="217.94" y="124.47" width="164.12" height="36.7" rx="7.45"></rect>
    <path class="cls-2" d="M374.61 162.93H225.39a9.21 9.21 0 0 1-9.2-9.2v-21.81a9.21 9.21 0 0 1 9.2-9.2h149.22a9.21 9.21 0 0 1 9.2 9.2v21.81a9.21 9.21 0 0 1-9.2 9.2zm-149.22-36.71a5.71 5.71 0 0 0-5.7 5.7v21.81a5.71 5.71 0 0 0 5.7 5.7h149.22a5.71 5.71 0 0 0 5.7-5.7v-21.81a5.71 5.71 0 0 0-5.7-5.7z"></path>
    <path class="cls-3" d="M300 165.61h14.22L325.12 320v134.78c0 11.46-6.31 20.75-14.08 20.75H289c-7.77 0-14.08-9.29-14.08-20.75V320l10.9-154.43z"></path>
    <path class="cls-2" d="M311 477.28h-22c-8.72 0-15.83-10.09-15.83-22.5V319.92l11-156.06h31.7l11 156.18v134.74c0 12.41-7.1 22.5-15.87 22.5zm-34.37-157.17v134.67c0 10.48 5.54 19 12.33 19H311c6.8 0 12.33-8.52 12.33-19V320.11l-10.74-152.75h-25.18z"></path>
    <path class="cls-4" d="M320.33 252.16l4.79 67.84v134.78c0 11.46-6.31 20.75-14.08 20.75H289c-7.77 0-14.08-9.29-14.08-20.75V320l4.79-67.85z"></path>
    <path class="cls-2" d="M311 477.28h-22c-8.72 0-15.83-10.09-15.83-22.5V319.92l4.9-69.47h43.92l4.88 69.55v134.78c0 12.41-7.1 22.5-15.87 22.5zm-34.37-157.17v134.67c0 10.48 5.54 19 12.33 19H311c6.8 0 12.33-8.52 12.33-19V320.11l-4.67-66.2h-37.4z"></path>
    <g class="cls-5">
      <g class="cls-6">
        <path class="cls-2" d="M351.5 277.75a1.44 1.44 0 1 0-1.45-1.44 1.44 1.44 0 0 0 1.45 1.44zm-14.41 0a1.44 1.44 0 1 0 0-2.88 1.44 1.44 0 0 0 0 2.88zm14.41-14.4a1.44 1.44 0 1 0-1.45-1.44 1.44 1.44 0 0 0 1.45 1.44zm-14.41 0a1.44 1.44 0 1 0 0-2.88 1.44 1.44 0 0 0 0 2.88zm-7.2 7.2a1.44 1.44 0 1 0-1.43-1.44 1.44 1.44 0 0 0 1.43 1.44zm14.4 0a1.44 1.44 0 1 0-1.44-1.44 1.44 1.44 0 0 0 1.44 1.44zm-14.4-14.4a1.44 1.44 0 1 0 0-2.88 1.44 1.44 0 0 0 0 2.88zm14.4 0a1.44 1.44 0 1 0-1.44-1.44 1.45 1.45 0 0 0 1.44 1.44zm-21.59 21.6a1.44 1.44 0 1 0-1.45-1.44 1.44 1.44 0 0 0 1.45 1.44zm0-14.4a1.44 1.44 0 1 0-1.45-1.44 1.44 1.44 0 0 0 1.45 1.44zM351.5 249a1.44 1.44 0 1 0-1.45-1.44 1.44 1.44 0 0 0 1.45 1.44zm-14.41 0a1.44 1.44 0 1 0 0-2.88 1.44 1.44 0 0 0 0 2.88zm-14.39 0a1.44 1.44 0 1 0-1.45-1.44 1.44 1.44 0 0 0 1.45 1.44z"></path>
      </g>
      <g class="cls-7">
        <path class="cls-2" d="M351.5 306.55a1.44 1.44 0 0 0 0-2.88 1.44 1.44 0 1 0 0 2.88zm-14.41 0a1.44 1.44 0 1 0-1.43-1.44 1.44 1.44 0 0 0 1.43 1.44zm14.41-14.4a1.44 1.44 0 1 0-1.45-1.44 1.44 1.44 0 0 0 1.45 1.44zm-14.41 0a1.44 1.44 0 1 0-1.43-1.44 1.45 1.45 0 0 0 1.43 1.44zm-7.2 7.2a1.44 1.44 0 1 0-1.43-1.44 1.44 1.44 0 0 0 1.43 1.44zm14.4 0a1.44 1.44 0 1 0-1.44-1.44 1.44 1.44 0 0 0 1.44 1.44zM329.89 285a1.44 1.44 0 1 0-1.43-1.44 1.44 1.44 0 0 0 1.43 1.44zm14.4 0a1.44 1.44 0 1 0-1.44-1.44 1.44 1.44 0 0 0 1.44 1.44zm-21.59 21.55a1.44 1.44 0 0 0 0-2.88 1.44 1.44 0 1 0 0 2.88zm0-14.4a1.44 1.44 0 1 0-1.45-1.44 1.44 1.44 0 0 0 1.45 1.44zm28.8-14.4a1.44 1.44 0 1 0-1.45-1.44 1.44 1.44 0 0 0 1.45 1.44zm-14.41 0a1.44 1.44 0 1 0 0-2.88 1.44 1.44 0 0 0 0 2.88zm-14.39 0a1.44 1.44 0 1 0-1.45-1.44 1.44 1.44 0 0 0 1.45 1.44z"></path>
      </g>
      <g class="cls-8">
        <path class="cls-2" d="M351.5 335.35a1.44 1.44 0 0 0 0-2.88 1.44 1.44 0 1 0 0 2.88zm-14.41 0a1.44 1.44 0 1 0-1.43-1.44 1.44 1.44 0 0 0 1.43 1.44zM351.5 321a1.44 1.44 0 0 0 0-2.88 1.44 1.44 0 1 0 0 2.88zm-14.41 0a1.44 1.44 0 1 0-1.43-1.44 1.44 1.44 0 0 0 1.43 1.44zm-7.2 7.15a1.44 1.44 0 1 0-1.43-1.44 1.44 1.44 0 0 0 1.43 1.44zm14.4 0a1.44 1.44 0 1 0-1.44-1.44 1.44 1.44 0 0 0 1.44 1.44zm-14.4-14.4a1.44 1.44 0 1 0-1.43-1.44 1.44 1.44 0 0 0 1.43 1.44zm14.4 0a1.44 1.44 0 1 0-1.44-1.44 1.44 1.44 0 0 0 1.44 1.44zm-21.59 21.6a1.44 1.44 0 0 0 0-2.88 1.44 1.44 0 1 0 0 2.88zm0-14.35a1.44 1.44 0 0 0 0-2.88 1.44 1.44 0 1 0 0 2.88zm28.8-14.45a1.44 1.44 0 0 0 0-2.88 1.44 1.44 0 1 0 0 2.88zm-14.41 0a1.44 1.44 0 1 0-1.43-1.44 1.44 1.44 0 0 0 1.43 1.44zm-14.39 0a1.44 1.44 0 0 0 0-2.88 1.44 1.44 0 1 0 0 2.88z"></path>
      </g>
      <g class="cls-9">
        <path class="cls-2" d="M351.5 364.15a1.44 1.44 0 0 0 0-2.88 1.44 1.44 0 1 0 0 2.88zm-14.41 0a1.44 1.44 0 1 0-1.43-1.44 1.44 1.44 0 0 0 1.43 1.44zm14.41-14.4a1.44 1.44 0 0 0 0-2.88 1.44 1.44 0 1 0 0 2.88zm-14.41 0a1.44 1.44 0 1 0-1.43-1.44 1.44 1.44 0 0 0 1.43 1.44zm-7.2 7.25a1.44 1.44 0 1 0-1.43-1.44 1.44 1.44 0 0 0 1.43 1.44zm14.4 0a1.44 1.44 0 1 0-1.44-1.44 1.44 1.44 0 0 0 1.44 1.44zm-14.4-14.45a1.44 1.44 0 1 0-1.43-1.44 1.44 1.44 0 0 0 1.43 1.44zm14.4 0a1.44 1.44 0 1 0-1.44-1.44 1.44 1.44 0 0 0 1.44 1.44zm-21.59 21.6a1.44 1.44 0 0 0 0-2.88 1.44 1.44 0 1 0 0 2.88zm0-14.4a1.44 1.44 0 0 0 0-2.88 1.44 1.44 0 1 0 0 2.88zm28.8-14.4a1.44 1.44 0 0 0 0-2.88 1.44 1.44 0 1 0 0 2.88zm-14.41 0a1.44 1.44 0 1 0-1.43-1.44 1.44 1.44 0 0 0 1.43 1.44zm-14.39 0a1.44 1.44 0 0 0 0-2.88 1.44 1.44 0 1 0 0 2.88z"></path>
      </g>
      <g class="cls-10">
        <path class="cls-2" d="M351.5 393a1.44 1.44 0 0 0 0-2.88 1.44 1.44 0 1 0 0 2.88zm-14.41 0a1.44 1.44 0 1 0-1.43-1.44 1.44 1.44 0 0 0 1.43 1.44zm14.41-14.45a1.44 1.44 0 0 0 0-2.88 1.44 1.44 0 1 0 0 2.88zm-14.41 0a1.44 1.44 0 1 0-1.43-1.44 1.44 1.44 0 0 0 1.43 1.44zm-7.2 7.2a1.44 1.44 0 1 0-1.43-1.44 1.44 1.44 0 0 0 1.43 1.44zm14.4 0a1.44 1.44 0 1 0-1.44-1.44 1.44 1.44 0 0 0 1.44 1.44zm-14.4-14.4a1.44 1.44 0 1 0-1.43-1.44 1.44 1.44 0 0 0 1.43 1.44zm14.4 0a1.44 1.44 0 1 0-1.44-1.44 1.44 1.44 0 0 0 1.44 1.44zM322.7 393a1.44 1.44 0 0 0 0-2.88 1.44 1.44 0 1 0 0 2.88zm0-14.45a1.44 1.44 0 0 0 0-2.88 1.44 1.44 0 1 0 0 2.88zm28.8-14.4a1.44 1.44 0 0 0 0-2.88 1.44 1.44 0 1 0 0 2.88zm-14.41 0a1.44 1.44 0 1 0-1.43-1.44 1.44 1.44 0 0 0 1.43 1.44zm-14.39 0a1.44 1.44 0 0 0 0-2.88 1.44 1.44 0 1 0 0 2.88z"></path>
      </g>
      <g class="cls-11">
        <path class="cls-2" d="M351.5 421.75a1.44 1.44 0 0 0 0-2.88 1.44 1.44 0 1 0 0 2.88zm-14.41 0a1.44 1.44 0 1 0-1.43-1.44 1.44 1.44 0 0 0 1.43 1.44zm14.41-14.4a1.44 1.44 0 0 0 0-2.88 1.44 1.44 0 1 0 0 2.88zm-14.41 0a1.44 1.44 0 1 0-1.43-1.44 1.44 1.44 0 0 0 1.43 1.44zm-7.2 7.2a1.44 1.44 0 1 0-1.43-1.44 1.44 1.44 0 0 0 1.43 1.44zm14.4 0a1.44 1.44 0 1 0-1.44-1.44 1.44 1.44 0 0 0 1.44 1.44zm-14.4-14.4a1.44 1.44 0 1 0-1.43-1.44 1.44 1.44 0 0 0 1.43 1.44zm14.4 0a1.44 1.44 0 1 0-1.44-1.44 1.44 1.44 0 0 0 1.44 1.44zm-21.59 21.6a1.44 1.44 0 0 0 0-2.88 1.44 1.44 0 1 0 0 2.88zm0-14.4a1.44 1.44 0 0 0 0-2.88 1.44 1.44 0 1 0 0 2.88zM351.5 393a1.44 1.44 0 0 0 0-2.88 1.44 1.44 0 1 0 0 2.88zm-14.41 0a1.44 1.44 0 1 0-1.43-1.44 1.44 1.44 0 0 0 1.43 1.44zm-14.39 0a1.44 1.44 0 0 0 0-2.88 1.44 1.44 0 1 0 0 2.88z"></path>
      </g>
      <g class="cls-12">
        <path class="cls-2" d="M351.5 450.55a1.44 1.44 0 0 0 0-2.88 1.44 1.44 0 1 0 0 2.88zm-14.41 0a1.44 1.44 0 1 0-1.43-1.44 1.44 1.44 0 0 0 1.43 1.44zm14.41-14.39a1.45 1.45 0 1 0-1.45-1.45 1.44 1.44 0 0 0 1.45 1.45zm-14.41 0a1.45 1.45 0 1 0-1.43-1.45 1.45 1.45 0 0 0 1.43 1.45zm-7.2 7.19a1.44 1.44 0 1 0-1.43-1.43 1.44 1.44 0 0 0 1.43 1.43zm14.4 0a1.44 1.44 0 1 0-1.44-1.43 1.44 1.44 0 0 0 1.44 1.43zM329.89 429a1.44 1.44 0 1 0-1.43-1.44 1.44 1.44 0 0 0 1.43 1.44zm14.4 0a1.44 1.44 0 1 0-1.44-1.44 1.44 1.44 0 0 0 1.44 1.44zm-21.59 21.55a1.44 1.44 0 0 0 0-2.88 1.44 1.44 0 1 0 0 2.88zm0-14.39a1.45 1.45 0 1 0-1.45-1.45 1.44 1.44 0 0 0 1.45 1.45zm28.8-14.41a1.44 1.44 0 0 0 0-2.88 1.44 1.44 0 1 0 0 2.88zm-14.41 0a1.44 1.44 0 1 0-1.43-1.44 1.44 1.44 0 0 0 1.43 1.44zm-14.39 0a1.44 1.44 0 0 0 0-2.88 1.44 1.44 0 1 0 0 2.88z"></path>
      </g>
      <g class="cls-13">
        <path class="cls-2" d="M351.5 479.35a1.44 1.44 0 1 0-1.45-1.43 1.43 1.43 0 0 0 1.45 1.43zm-14.41 0a1.44 1.44 0 1 0-1.43-1.43 1.44 1.44 0 0 0 1.43 1.43zM351.5 465a1.44 1.44 0 1 0-1.45-1.45 1.44 1.44 0 0 0 1.45 1.45zm-14.41 0a1.44 1.44 0 1 0 0-2.88 1.44 1.44 0 0 0 0 2.88zm-7.2 7.16a1.45 1.45 0 1 0-1.43-1.44 1.45 1.45 0 0 0 1.43 1.44zm14.4 0a1.45 1.45 0 1 0-1.44-1.44 1.45 1.45 0 0 0 1.44 1.44zm-14.4-14.4a1.45 1.45 0 1 0-1.43-1.44 1.45 1.45 0 0 0 1.43 1.44zm14.4 0a1.45 1.45 0 1 0-1.44-1.44 1.45 1.45 0 0 0 1.44 1.44zm-21.59 21.59a1.44 1.44 0 1 0-1.45-1.43 1.43 1.43 0 0 0 1.45 1.43zm0-14.35a1.44 1.44 0 1 0-1.45-1.45 1.44 1.44 0 0 0 1.45 1.45zm28.8-14.45a1.44 1.44 0 0 0 0-2.88 1.44 1.44 0 1 0 0 2.88zm-14.41 0a1.44 1.44 0 1 0-1.43-1.44 1.44 1.44 0 0 0 1.43 1.44zm-14.39 0a1.44 1.44 0 0 0 0-2.88 1.44 1.44 0 1 0 0 2.88z"></path>
      </g>
      <g class="cls-14">
        <path class="cls-2" d="M322.7 277.75a1.44 1.44 0 1 0-1.45-1.44 1.44 1.44 0 0 0 1.45 1.44zm-14.41 0a1.44 1.44 0 1 0 0-2.88 1.44 1.44 0 0 0 0 2.88zm14.41-14.4a1.44 1.44 0 1 0-1.45-1.44 1.44 1.44 0 0 0 1.45 1.44zm-14.41 0a1.44 1.44 0 1 0 0-2.88 1.44 1.44 0 0 0 0 2.88zm-7.2 7.2a1.44 1.44 0 1 0-1.43-1.44 1.44 1.44 0 0 0 1.43 1.44zm14.41 0a1.44 1.44 0 1 0-1.45-1.44 1.44 1.44 0 0 0 1.45 1.44zm-14.41-14.4a1.44 1.44 0 1 0 0-2.88 1.44 1.44 0 0 0 0 2.88zm14.41 0a1.44 1.44 0 1 0-1.45-1.44 1.45 1.45 0 0 0 1.45 1.44zm-21.6 21.6a1.44 1.44 0 1 0-1.44-1.44 1.45 1.45 0 0 0 1.44 1.44zm0-14.4a1.44 1.44 0 1 0-1.44-1.44 1.45 1.45 0 0 0 1.44 1.44zM322.7 249a1.44 1.44 0 1 0-1.45-1.44 1.44 1.44 0 0 0 1.45 1.44zm-14.41 0a1.44 1.44 0 1 0 0-2.88 1.44 1.44 0 0 0 0 2.88zm-14.39 0a1.44 1.44 0 1 0-1.44-1.44 1.45 1.45 0 0 0 1.44 1.44z"></path>
      </g>
      <g class="cls-15">
        <path class="cls-2" d="M322.7 306.55a1.44 1.44 0 0 0 0-2.88 1.44 1.44 0 1 0 0 2.88zm-14.41 0a1.44 1.44 0 1 0-1.43-1.44 1.44 1.44 0 0 0 1.43 1.44zm14.41-14.4a1.44 1.44 0 1 0-1.45-1.44 1.44 1.44 0 0 0 1.45 1.44zm-14.41 0a1.44 1.44 0 1 0-1.43-1.44 1.45 1.45 0 0 0 1.43 1.44zm-7.2 7.2a1.44 1.44 0 1 0-1.43-1.44 1.44 1.44 0 0 0 1.43 1.44zm14.41 0a1.44 1.44 0 1 0-1.45-1.44 1.44 1.44 0 0 0 1.45 1.44zM301.09 285a1.44 1.44 0 1 0-1.43-1.44 1.44 1.44 0 0 0 1.43 1.44zm14.41 0a1.44 1.44 0 1 0-1.45-1.44 1.44 1.44 0 0 0 1.45 1.44zm-21.6 21.55a1.44 1.44 0 1 0-1.44-1.44 1.44 1.44 0 0 0 1.44 1.44zm0-14.4a1.44 1.44 0 1 0-1.44-1.44 1.45 1.45 0 0 0 1.44 1.44zm28.8-14.4a1.44 1.44 0 1 0-1.45-1.44 1.44 1.44 0 0 0 1.45 1.44zm-14.41 0a1.44 1.44 0 1 0 0-2.88 1.44 1.44 0 0 0 0 2.88zm-14.39 0a1.44 1.44 0 1 0-1.44-1.44 1.45 1.45 0 0 0 1.44 1.44z"></path>
      </g>
      <g class="cls-16">
        <path class="cls-2" d="M322.7 335.35a1.44 1.44 0 0 0 0-2.88 1.44 1.44 0 1 0 0 2.88zm-14.41 0a1.44 1.44 0 1 0-1.43-1.44 1.44 1.44 0 0 0 1.43 1.44zM322.7 321a1.44 1.44 0 0 0 0-2.88 1.44 1.44 0 1 0 0 2.88zm-14.41 0a1.44 1.44 0 1 0-1.43-1.44 1.44 1.44 0 0 0 1.43 1.44zm-7.2 7.15a1.44 1.44 0 1 0-1.43-1.44 1.44 1.44 0 0 0 1.43 1.44zm14.41 0a1.44 1.44 0 1 0-1.45-1.44 1.44 1.44 0 0 0 1.45 1.44zm-14.41-14.4a1.44 1.44 0 1 0-1.43-1.44 1.44 1.44 0 0 0 1.43 1.44zm14.41 0a1.44 1.44 0 1 0-1.45-1.44 1.44 1.44 0 0 0 1.45 1.44zm-21.6 21.6a1.44 1.44 0 1 0-1.44-1.44 1.44 1.44 0 0 0 1.44 1.44zm0-14.35a1.44 1.44 0 1 0-1.44-1.44 1.44 1.44 0 0 0 1.44 1.44zm28.8-14.45a1.44 1.44 0 0 0 0-2.88 1.44 1.44 0 1 0 0 2.88zm-14.41 0a1.44 1.44 0 1 0-1.43-1.44 1.44 1.44 0 0 0 1.43 1.44zm-14.39 0a1.44 1.44 0 1 0-1.44-1.44 1.44 1.44 0 0 0 1.44 1.44z"></path>
      </g>
      <g class="cls-17">
        <path class="cls-2" d="M322.7 364.15a1.44 1.44 0 0 0 0-2.88 1.44 1.44 0 1 0 0 2.88zm-14.41 0a1.44 1.44 0 1 0-1.43-1.44 1.44 1.44 0 0 0 1.43 1.44zm14.41-14.4a1.44 1.44 0 0 0 0-2.88 1.44 1.44 0 1 0 0 2.88zm-14.41 0a1.44 1.44 0 1 0-1.43-1.44 1.44 1.44 0 0 0 1.43 1.44zm-7.2 7.25a1.44 1.44 0 1 0-1.43-1.44 1.44 1.44 0 0 0 1.43 1.44zm14.41 0a1.44 1.44 0 1 0-1.45-1.44 1.44 1.44 0 0 0 1.45 1.44zm-14.41-14.45a1.44 1.44 0 1 0-1.43-1.44 1.44 1.44 0 0 0 1.43 1.44zm14.41 0a1.44 1.44 0 1 0-1.45-1.44 1.44 1.44 0 0 0 1.45 1.44zm-21.6 21.6a1.44 1.44 0 1 0-1.44-1.44 1.44 1.44 0 0 0 1.44 1.44zm0-14.4a1.44 1.44 0 1 0-1.44-1.44 1.44 1.44 0 0 0 1.44 1.44zm28.8-14.4a1.44 1.44 0 0 0 0-2.88 1.44 1.44 0 1 0 0 2.88zm-14.41 0a1.44 1.44 0 1 0-1.43-1.44 1.44 1.44 0 0 0 1.43 1.44zm-14.39 0a1.44 1.44 0 1 0-1.44-1.44 1.44 1.44 0 0 0 1.44 1.44z"></path>
      </g>
      <g class="cls-18">
        <path class="cls-2" d="M322.7 393a1.44 1.44 0 0 0 0-2.88 1.44 1.44 0 1 0 0 2.88zm-14.41 0a1.44 1.44 0 1 0-1.43-1.44 1.44 1.44 0 0 0 1.43 1.44zm14.41-14.45a1.44 1.44 0 0 0 0-2.88 1.44 1.44 0 1 0 0 2.88zm-14.41 0a1.44 1.44 0 1 0-1.43-1.44 1.44 1.44 0 0 0 1.43 1.44zm-7.2 7.2a1.44 1.44 0 1 0-1.43-1.44 1.44 1.44 0 0 0 1.43 1.44zm14.41 0a1.44 1.44 0 1 0-1.45-1.44 1.44 1.44 0 0 0 1.45 1.44zm-14.41-14.4a1.44 1.44 0 1 0-1.43-1.44 1.44 1.44 0 0 0 1.43 1.44zm14.41 0a1.44 1.44 0 1 0-1.45-1.44 1.44 1.44 0 0 0 1.45 1.44zM293.9 393a1.44 1.44 0 1 0-1.44-1.44 1.44 1.44 0 0 0 1.44 1.44zm0-14.45a1.44 1.44 0 1 0-1.44-1.44 1.44 1.44 0 0 0 1.44 1.44zm28.8-14.4a1.44 1.44 0 0 0 0-2.88 1.44 1.44 0 1 0 0 2.88zm-14.41 0a1.44 1.44 0 1 0-1.43-1.44 1.44 1.44 0 0 0 1.43 1.44zm-14.39 0a1.44 1.44 0 1 0-1.44-1.44 1.44 1.44 0 0 0 1.44 1.44z"></path>
      </g>
      <g class="cls-19">
        <path class="cls-2" d="M322.7 421.75a1.44 1.44 0 0 0 0-2.88 1.44 1.44 0 1 0 0 2.88zm-14.41 0a1.44 1.44 0 1 0-1.43-1.44 1.44 1.44 0 0 0 1.43 1.44zm14.41-14.4a1.44 1.44 0 0 0 0-2.88 1.44 1.44 0 1 0 0 2.88zm-14.41 0a1.44 1.44 0 1 0-1.43-1.44 1.44 1.44 0 0 0 1.43 1.44zm-7.2 7.2a1.44 1.44 0 1 0-1.43-1.44 1.44 1.44 0 0 0 1.43 1.44zm14.41 0a1.44 1.44 0 1 0-1.45-1.44 1.44 1.44 0 0 0 1.45 1.44zm-14.41-14.4a1.44 1.44 0 1 0-1.43-1.44 1.44 1.44 0 0 0 1.43 1.44zm14.41 0a1.44 1.44 0 1 0-1.45-1.44 1.44 1.44 0 0 0 1.45 1.44zm-21.6 21.6a1.44 1.44 0 1 0-1.44-1.44 1.44 1.44 0 0 0 1.44 1.44zm0-14.4a1.44 1.44 0 1 0-1.44-1.44 1.44 1.44 0 0 0 1.44 1.44zM322.7 393a1.44 1.44 0 0 0 0-2.88 1.44 1.44 0 1 0 0 2.88zm-14.41 0a1.44 1.44 0 1 0-1.43-1.44 1.44 1.44 0 0 0 1.43 1.44zm-14.39 0a1.44 1.44 0 1 0-1.44-1.44 1.44 1.44 0 0 0 1.44 1.44z"></path>
      </g>
      <g class="cls-20">
        <path class="cls-2" d="M322.7 450.55a1.44 1.44 0 0 0 0-2.88 1.44 1.44 0 1 0 0 2.88zm-14.41 0a1.44 1.44 0 1 0-1.43-1.44 1.44 1.44 0 0 0 1.43 1.44zm14.41-14.39a1.45 1.45 0 1 0-1.45-1.45 1.44 1.44 0 0 0 1.45 1.45zm-14.41 0a1.45 1.45 0 1 0-1.43-1.45 1.45 1.45 0 0 0 1.43 1.45zm-7.2 7.19a1.44 1.44 0 1 0-1.43-1.43 1.44 1.44 0 0 0 1.43 1.43zm14.41 0a1.44 1.44 0 1 0-1.45-1.43 1.44 1.44 0 0 0 1.45 1.43zM301.09 429a1.44 1.44 0 1 0-1.43-1.44 1.44 1.44 0 0 0 1.43 1.44zm14.41 0a1.44 1.44 0 1 0-1.45-1.44 1.44 1.44 0 0 0 1.45 1.44zm-21.6 21.55a1.44 1.44 0 1 0-1.44-1.44 1.44 1.44 0 0 0 1.44 1.44zm0-14.39a1.45 1.45 0 1 0-1.44-1.45 1.45 1.45 0 0 0 1.44 1.45zm28.8-14.41a1.44 1.44 0 0 0 0-2.88 1.44 1.44 0 1 0 0 2.88zm-14.41 0a1.44 1.44 0 1 0-1.43-1.44 1.44 1.44 0 0 0 1.43 1.44zm-14.39 0a1.44 1.44 0 1 0-1.44-1.44 1.44 1.44 0 0 0 1.44 1.44z"></path>
      </g>
      <g class="cls-21">
        <path class="cls-2" d="M322.7 479.35a1.44 1.44 0 1 0-1.45-1.43 1.43 1.43 0 0 0 1.45 1.43zm-14.41 0a1.44 1.44 0 1 0-1.43-1.43 1.44 1.44 0 0 0 1.43 1.43zM322.7 465a1.44 1.44 0 1 0-1.45-1.45 1.44 1.44 0 0 0 1.45 1.45zm-14.41 0a1.44 1.44 0 1 0 0-2.88 1.44 1.44 0 0 0 0 2.88zm-7.2 7.16a1.45 1.45 0 1 0-1.43-1.44 1.45 1.45 0 0 0 1.43 1.44zm14.41 0a1.45 1.45 0 1 0-1.45-1.44 1.45 1.45 0 0 0 1.45 1.44zm-14.41-14.4a1.45 1.45 0 1 0-1.43-1.44 1.45 1.45 0 0 0 1.43 1.44zm14.41 0a1.45 1.45 0 1 0-1.45-1.44 1.45 1.45 0 0 0 1.45 1.44zm-21.6 21.59a1.44 1.44 0 1 0-1.44-1.43 1.44 1.44 0 0 0 1.44 1.43zm0-14.35a1.44 1.44 0 1 0 0-2.88 1.44 1.44 0 1 0 0 2.88zm28.8-14.45a1.44 1.44 0 0 0 0-2.88 1.44 1.44 0 1 0 0 2.88zm-14.41 0a1.44 1.44 0 1 0-1.43-1.44 1.44 1.44 0 0 0 1.43 1.44zm-14.39 0a1.44 1.44 0 1 0-1.44-1.44 1.44 1.44 0 0 0 1.44 1.44z"></path>
      </g>
      <g class="cls-22">
        <path class="cls-2" d="M293.9 277.75a1.44 1.44 0 1 0-1.44-1.44 1.45 1.45 0 0 0 1.44 1.44zm-14.4 0a1.44 1.44 0 1 0-1.44-1.44 1.45 1.45 0 0 0 1.44 1.44zm14.4-14.4a1.44 1.44 0 1 0-1.44-1.44 1.45 1.45 0 0 0 1.44 1.44zm-14.4 0a1.44 1.44 0 1 0-1.44-1.44 1.45 1.45 0 0 0 1.44 1.44zm-7.21 7.2a1.44 1.44 0 1 0-1.43-1.44 1.44 1.44 0 0 0 1.43 1.44zm14.41 0a1.44 1.44 0 1 0-1.45-1.44 1.44 1.44 0 0 0 1.45 1.44zm-14.41-14.4a1.44 1.44 0 1 0 0-2.88 1.44 1.44 0 0 0 0 2.88zm14.41 0a1.44 1.44 0 1 0-1.45-1.44 1.45 1.45 0 0 0 1.45 1.44zm-21.6 21.6a1.44 1.44 0 1 0-1.44-1.44 1.45 1.45 0 0 0 1.44 1.44zm0-14.4a1.44 1.44 0 1 0-1.44-1.44 1.45 1.45 0 0 0 1.44 1.44zM293.9 249a1.44 1.44 0 1 0-1.44-1.44 1.45 1.45 0 0 0 1.44 1.44zm-14.4 0a1.44 1.44 0 1 0-1.44-1.44 1.45 1.45 0 0 0 1.44 1.44zm-14.4 0a1.44 1.44 0 1 0-1.44-1.44 1.45 1.45 0 0 0 1.44 1.44z"></path>
      </g>
      <g class="cls-23">
        <path class="cls-2" d="M293.9 306.55a1.44 1.44 0 1 0-1.44-1.44 1.44 1.44 0 0 0 1.44 1.44zm-14.4 0a1.44 1.44 0 1 0-1.44-1.44 1.44 1.44 0 0 0 1.44 1.44zm14.4-14.4a1.44 1.44 0 1 0-1.44-1.44 1.45 1.45 0 0 0 1.44 1.44zm-14.4 0a1.44 1.44 0 1 0-1.44-1.44 1.45 1.45 0 0 0 1.44 1.44zm-7.21 7.2a1.44 1.44 0 1 0-1.43-1.44 1.44 1.44 0 0 0 1.43 1.44zm14.41 0a1.44 1.44 0 1 0-1.45-1.44 1.44 1.44 0 0 0 1.45 1.44zM272.29 285a1.44 1.44 0 1 0-1.43-1.44 1.44 1.44 0 0 0 1.43 1.44zm14.41 0a1.44 1.44 0 1 0-1.45-1.44 1.44 1.44 0 0 0 1.45 1.44zm-21.6 21.55a1.44 1.44 0 1 0-1.44-1.44 1.44 1.44 0 0 0 1.44 1.44zm0-14.4a1.44 1.44 0 1 0-1.44-1.44 1.45 1.45 0 0 0 1.44 1.44zm28.8-14.4a1.44 1.44 0 1 0-1.44-1.44 1.45 1.45 0 0 0 1.44 1.44zm-14.4 0a1.44 1.44 0 1 0-1.44-1.44 1.45 1.45 0 0 0 1.44 1.44zm-14.4 0a1.44 1.44 0 1 0-1.44-1.44 1.45 1.45 0 0 0 1.44 1.44z"></path>
      </g>
      <g class="cls-24">
        <path class="cls-2" d="M293.9 335.35a1.44 1.44 0 1 0-1.44-1.44 1.44 1.44 0 0 0 1.44 1.44zm-14.4 0a1.44 1.44 0 1 0-1.44-1.44 1.44 1.44 0 0 0 1.44 1.44zM293.9 321a1.44 1.44 0 1 0-1.44-1.44 1.44 1.44 0 0 0 1.44 1.44zm-14.4 0a1.44 1.44 0 1 0-1.44-1.44 1.44 1.44 0 0 0 1.44 1.44zm-7.21 7.15a1.44 1.44 0 1 0-1.43-1.44 1.44 1.44 0 0 0 1.43 1.44zm14.41 0a1.44 1.44 0 1 0-1.45-1.44 1.44 1.44 0 0 0 1.45 1.44zm-14.41-14.4a1.44 1.44 0 1 0-1.43-1.44 1.44 1.44 0 0 0 1.43 1.44zm14.41 0a1.44 1.44 0 1 0-1.45-1.44 1.44 1.44 0 0 0 1.45 1.44zm-21.6 21.6a1.44 1.44 0 1 0-1.44-1.44 1.44 1.44 0 0 0 1.44 1.44zm0-14.35a1.44 1.44 0 1 0-1.44-1.44 1.44 1.44 0 0 0 1.44 1.44zm28.8-14.45a1.44 1.44 0 1 0-1.44-1.44 1.44 1.44 0 0 0 1.44 1.44zm-14.4 0a1.44 1.44 0 1 0-1.44-1.44 1.44 1.44 0 0 0 1.44 1.44zm-14.4 0a1.44 1.44 0 1 0-1.44-1.44 1.44 1.44 0 0 0 1.44 1.44z"></path>
      </g>
      <g class="cls-25">
        <path class="cls-2" d="M293.9 364.15a1.44 1.44 0 1 0-1.44-1.44 1.44 1.44 0 0 0 1.44 1.44zm-14.4 0a1.44 1.44 0 1 0-1.44-1.44 1.44 1.44 0 0 0 1.44 1.44zm14.4-14.4a1.44 1.44 0 1 0-1.44-1.44 1.44 1.44 0 0 0 1.44 1.44zm-14.4 0a1.44 1.44 0 1 0-1.44-1.44 1.44 1.44 0 0 0 1.44 1.44zm-7.21 7.25a1.44 1.44 0 1 0-1.43-1.44 1.44 1.44 0 0 0 1.43 1.44zm14.41 0a1.44 1.44 0 1 0-1.45-1.44 1.44 1.44 0 0 0 1.45 1.44zm-14.41-14.45a1.44 1.44 0 1 0-1.43-1.44 1.44 1.44 0 0 0 1.43 1.44zm14.41 0a1.44 1.44 0 1 0-1.45-1.44 1.44 1.44 0 0 0 1.45 1.44zm-21.6 21.6a1.44 1.44 0 1 0-1.44-1.44 1.44 1.44 0 0 0 1.44 1.44zm0-14.4a1.44 1.44 0 1 0-1.44-1.44 1.44 1.44 0 0 0 1.44 1.44zm28.8-14.4a1.44 1.44 0 1 0-1.44-1.44 1.44 1.44 0 0 0 1.44 1.44zm-14.4 0a1.44 1.44 0 1 0-1.44-1.44 1.44 1.44 0 0 0 1.44 1.44zm-14.4 0a1.44 1.44 0 1 0-1.44-1.44 1.44 1.44 0 0 0 1.44 1.44z"></path>
      </g>
      <g class="cls-26">
        <path class="cls-2" d="M293.9 393a1.44 1.44 0 1 0-1.44-1.44 1.44 1.44 0 0 0 1.44 1.44zm-14.4 0a1.44 1.44 0 1 0-1.44-1.44 1.44 1.44 0 0 0 1.44 1.44zm14.4-14.45a1.44 1.44 0 1 0-1.44-1.44 1.44 1.44 0 0 0 1.44 1.44zm-14.4 0a1.44 1.44 0 1 0-1.44-1.44 1.44 1.44 0 0 0 1.44 1.44zm-7.21 7.2a1.44 1.44 0 1 0-1.43-1.44 1.44 1.44 0 0 0 1.43 1.44zm14.41 0a1.44 1.44 0 1 0-1.45-1.44 1.44 1.44 0 0 0 1.45 1.44zm-14.41-14.4a1.44 1.44 0 1 0-1.43-1.44 1.44 1.44 0 0 0 1.43 1.44zm14.41 0a1.44 1.44 0 1 0-1.45-1.44 1.44 1.44 0 0 0 1.45 1.44zM265.1 393a1.44 1.44 0 1 0-1.44-1.44 1.44 1.44 0 0 0 1.44 1.44zm0-14.45a1.44 1.44 0 1 0-1.44-1.44 1.44 1.44 0 0 0 1.44 1.44zm28.8-14.4a1.44 1.44 0 1 0-1.44-1.44 1.44 1.44 0 0 0 1.44 1.44zm-14.4 0a1.44 1.44 0 1 0-1.44-1.44 1.44 1.44 0 0 0 1.44 1.44zm-14.4 0a1.44 1.44 0 1 0-1.44-1.44 1.44 1.44 0 0 0 1.44 1.44z"></path>
      </g>
      <g class="cls-27">
        <path class="cls-2" d="M293.9 421.75a1.44 1.44 0 1 0-1.44-1.44 1.44 1.44 0 0 0 1.44 1.44zm-14.4 0a1.44 1.44 0 1 0-1.44-1.44 1.44 1.44 0 0 0 1.44 1.44zm14.4-14.4a1.44 1.44 0 1 0-1.44-1.44 1.44 1.44 0 0 0 1.44 1.44zm-14.4 0a1.44 1.44 0 1 0-1.44-1.44 1.44 1.44 0 0 0 1.44 1.44zm-7.21 7.2a1.44 1.44 0 1 0-1.43-1.44 1.44 1.44 0 0 0 1.43 1.44zm14.41 0a1.44 1.44 0 1 0-1.45-1.44 1.44 1.44 0 0 0 1.45 1.44zm-14.41-14.4a1.44 1.44 0 1 0-1.43-1.44 1.44 1.44 0 0 0 1.43 1.44zm14.41 0a1.44 1.44 0 1 0-1.45-1.44 1.44 1.44 0 0 0 1.45 1.44zm-21.6 21.6a1.44 1.44 0 1 0-1.44-1.44 1.44 1.44 0 0 0 1.44 1.44zm0-14.4a1.44 1.44 0 1 0-1.44-1.44 1.44 1.44 0 0 0 1.44 1.44zM293.9 393a1.44 1.44 0 1 0-1.44-1.44 1.44 1.44 0 0 0 1.44 1.44zm-14.4 0a1.44 1.44 0 1 0-1.44-1.44 1.44 1.44 0 0 0 1.44 1.44zm-14.4 0a1.44 1.44 0 1 0-1.44-1.44 1.44 1.44 0 0 0 1.44 1.44z"></path>
      </g>
      <g class="cls-28">
        <path class="cls-2" d="M293.9 450.55a1.44 1.44 0 1 0-1.44-1.44 1.44 1.44 0 0 0 1.44 1.44zm-14.4 0a1.44 1.44 0 1 0-1.44-1.44 1.44 1.44 0 0 0 1.44 1.44zm14.4-14.39a1.45 1.45 0 1 0-1.44-1.45 1.45 1.45 0 0 0 1.44 1.45zm-14.4 0a1.45 1.45 0 1 0-1.44-1.45 1.45 1.45 0 0 0 1.44 1.45zm-7.21 7.19a1.44 1.44 0 1 0-1.43-1.43 1.44 1.44 0 0 0 1.43 1.43zm14.41 0a1.44 1.44 0 1 0-1.45-1.43 1.44 1.44 0 0 0 1.45 1.43zM272.29 429a1.44 1.44 0 1 0-1.43-1.44 1.44 1.44 0 0 0 1.43 1.44zm14.41 0a1.44 1.44 0 1 0-1.45-1.44 1.44 1.44 0 0 0 1.45 1.44zm-21.6 21.55a1.44 1.44 0 1 0-1.44-1.44 1.44 1.44 0 0 0 1.44 1.44zm0-14.39a1.45 1.45 0 1 0-1.44-1.45 1.45 1.45 0 0 0 1.44 1.45zm28.8-14.41a1.44 1.44 0 1 0-1.44-1.44 1.44 1.44 0 0 0 1.44 1.44zm-14.4 0a1.44 1.44 0 1 0-1.44-1.44 1.44 1.44 0 0 0 1.44 1.44zm-14.4 0a1.44 1.44 0 1 0-1.44-1.44 1.44 1.44 0 0 0 1.44 1.44z"></path>
      </g>
      <g class="cls-29">
        <path class="cls-2" d="M293.9 479.35a1.44 1.44 0 1 0-1.44-1.43 1.44 1.44 0 0 0 1.44 1.43zm-14.4 0a1.44 1.44 0 1 0-1.44-1.43 1.44 1.44 0 0 0 1.44 1.43zM293.9 465a1.44 1.44 0 1 0 0-2.88 1.44 1.44 0 1 0 0 2.88zm-14.4 0a1.44 1.44 0 1 0 0-2.88 1.44 1.44 0 1 0 0 2.88zm-7.21 7.16a1.45 1.45 0 1 0-1.43-1.44 1.45 1.45 0 0 0 1.43 1.44zm14.41 0a1.45 1.45 0 1 0-1.45-1.44 1.45 1.45 0 0 0 1.45 1.44zm-14.41-14.4a1.45 1.45 0 1 0-1.43-1.44 1.45 1.45 0 0 0 1.43 1.44zm14.41 0a1.45 1.45 0 1 0-1.45-1.44 1.45 1.45 0 0 0 1.45 1.44zm-21.6 21.59a1.44 1.44 0 1 0-1.44-1.43 1.44 1.44 0 0 0 1.44 1.43zm0-14.35a1.44 1.44 0 1 0 0-2.88 1.44 1.44 0 1 0 0 2.88zm28.8-14.45a1.44 1.44 0 1 0-1.44-1.44 1.44 1.44 0 0 0 1.44 1.44zm-14.4 0a1.44 1.44 0 1 0-1.44-1.44 1.44 1.44 0 0 0 1.44 1.44zm-14.4 0a1.44 1.44 0 1 0-1.44-1.44 1.44 1.44 0 0 0 1.44 1.44z"></path>
      </g>
    </g>
    <path class="cls-2" d="M311 477.28h-22c-8.72 0-15.83-10.09-15.83-22.5V319.92l4.9-69.47h43.92l4.88 69.55v134.78c0 12.41-7.1 22.5-15.87 22.5zm-34.37-157.17v134.67c0 10.48 5.54 19 12.33 19H311c6.8 0 12.33-8.52 12.33-19V320.11l-4.67-66.2h-37.4z"></path>
    <path class="cls-30" d="M279.67 252.19L285.78 165.61 300 165.61 314.22 165.61 320.33 252.16 279.67 252.19z"></path>
    <path class="cls-2" d="M277.79 254l6.36-90.09h31.7l6.36 90zm9.62-86.59l-5.86 83.08h36.9l-5.86-83z"></path>
    <path class="cls-3" d="M217.94 131.51L224.77 135.54 231.61 131.51 238.44 135.54 245.28 131.51 252.12 135.54 258.95 131.51 265.79 135.54 272.63 131.51 279.46 135.54 286.3 131.51 293.14 135.54 299.98 131.51 306.82 135.54 313.65 131.51 320.5 135.54 327.33 131.51 334.17 135.54 341.01 131.51 347.85 135.54 354.69 131.51 361.52 135.54 368.37 131.51 375.21 135.54 382.06 131.51"></path>
    <path class="cls-2" d="M238.44 137.57L231.61 133.55 224.77 137.57 217.05 133.02 218.83 130.01 224.77 133.51 231.61 129.48 238.44 133.51 245.28 129.48 252.12 133.51 258.95 129.48 265.79 133.51 272.63 129.48 279.46 133.51 286.3 129.48 293.14 133.51 299.98 129.48 306.82 133.51 313.65 129.48 320.49 133.51 327.33 129.48 334.17 133.51 341.01 129.48 347.85 133.51 354.69 129.48 361.52 133.51 368.37 129.49 375.21 133.51 381.17 130.01 382.95 133.02 375.21 137.57 368.37 133.54 361.52 137.57 354.69 133.55 347.85 137.57 341.01 133.55 334.17 137.57 327.33 133.55 320.5 137.57 313.65 133.55 306.82 137.57 299.98 133.55 293.14 137.57 286.3 133.55 279.46 137.57 272.63 133.55 265.79 137.57 258.95 133.55 252.12 137.57 245.28 133.55 238.44 137.57z"></path>
    <path class="cls-3" d="M217.94 140.81L224.77 144.84 231.61 140.81 238.44 144.84 245.28 140.81 252.12 144.84 258.95 140.81 265.79 144.84 272.63 140.81 279.46 144.84 286.3 140.81 293.14 144.84 299.98 140.81 306.82 144.84 313.65 140.81 320.5 144.84 327.33 140.81 334.17 144.84 341.01 140.81 347.85 144.84 354.69 140.81 361.52 144.84 368.37 140.81 375.21 144.84 382.06 140.81"></path>
    <path class="cls-2" d="M238.44 146.87L231.61 142.84 224.77 146.87 217.05 142.32 218.83 139.3 224.77 142.81 231.61 138.78 238.44 142.81 245.28 138.78 252.12 142.81 258.95 138.78 265.79 142.81 272.63 138.78 279.46 142.81 286.3 138.78 293.14 142.81 299.98 138.78 306.82 142.81 313.65 138.78 320.49 142.81 327.33 138.78 334.17 142.81 341.01 138.78 347.85 142.81 354.69 138.78 361.52 142.81 368.37 138.78 375.21 142.81 381.17 139.3 382.95 142.32 375.21 146.87 368.37 142.84 361.52 146.87 354.69 142.84 347.85 146.87 341.01 142.84 334.17 146.87 327.33 142.84 320.5 146.87 313.65 142.84 306.82 146.87 299.98 142.84 293.14 146.87 286.3 142.84 279.46 146.87 272.63 142.84 265.79 146.87 258.95 142.84 252.12 146.87 245.28 142.84 238.44 146.87z"></path>
    <path class="cls-3" d="M217.94 150.11L224.77 154.13 231.61 150.11 238.44 154.13 245.28 150.11 252.12 154.13 258.95 150.11 265.79 154.13 272.63 150.11 279.46 154.13 286.3 150.11 293.14 154.13 299.98 150.11 306.82 154.13 313.65 150.11 320.5 154.13 327.33 150.11 334.17 154.13 341.01 150.11 347.85 154.13 354.69 150.11 361.52 154.13 368.37 150.11 375.21 154.13 382.06 150.11"></path>
    <path class="cls-2" d="M238.44 156.16L231.61 152.14 224.77 156.16 217.05 151.61 218.83 148.6 224.77 152.1 231.61 148.07 238.44 152.1 245.28 148.07 252.12 152.1 258.95 148.07 265.79 152.1 272.63 148.07 279.46 152.1 286.3 148.07 293.14 152.1 299.98 148.07 306.82 152.1 313.65 148.07 320.49 152.1 327.33 148.07 334.17 152.1 341.01 148.07 347.85 152.1 354.69 148.07 361.52 152.1 368.37 148.08 375.21 152.1 381.17 148.6 382.95 151.62 375.21 156.16 368.37 152.14 361.52 156.16 354.69 152.14 347.85 156.16 341.01 152.14 334.17 156.16 327.33 152.14 320.5 156.16 313.65 152.14 306.82 156.16 299.98 152.14 293.14 156.16 286.3 152.14 279.46 156.16 272.63 152.14 265.79 156.16 258.95 152.14 252.12 156.16 245.28 152.14 238.44 156.16z"></path>
  </g>
</svg>
