<?xml version="1.0" encoding="UTF-8"?>
<svg xmlns="http://www.w3.org/2000/svg" xmlns:xlink="http://www.w3.org/1999/xlink" viewBox="0 0 600 600">
  <defs>
    <style>.cls-1{fill:none;}.cls-2{fill:#1d336a;}.cls-3{fill:#fff;}.cls-3,.cls-4,.cls-5,.cls-6{stroke:#1c19a8;stroke-miterlimit:10;stroke-width:3.5px;}.cls-4{fill:url(#Blue_dots_3);}.cls-5{fill:#fdbf48;}.cls-6{fill:#fb715d;}</style>
    <pattern id="Blue_dots_3" data-name="Blue dots 3" width="28.8" height="28.8" patternTransform="translate(43.78 3.31)" patternUnits="userSpaceOnUse" viewBox="0 0 28.8 28.8">
      <rect class="cls-1" width="28.8" height="28.8"></rect>
      <path class="cls-2" d="M28.8,30.24a1.44,1.44,0,1,0-1.44-1.44A1.44,1.44,0,0,0,28.8,30.24Z"></path>
      <path class="cls-2" d="M14.4,30.24A1.44,1.44,0,1,0,13,28.8,1.44,1.44,0,0,0,14.4,30.24Z"></path>
      <path class="cls-2" d="M28.8,15.84a1.44,1.44,0,1,0-1.44-1.44A1.44,1.44,0,0,0,28.8,15.84Z"></path>
      <path class="cls-2" d="M14.4,15.84A1.44,1.44,0,1,0,13,14.4,1.44,1.44,0,0,0,14.4,15.84Z"></path>
      <path class="cls-2" d="M7.2,23A1.44,1.44,0,1,0,5.76,21.6,1.44,1.44,0,0,0,7.2,23Z"></path>
      <path class="cls-2" d="M21.6,23a1.44,1.44,0,1,0-1.44-1.44A1.44,1.44,0,0,0,21.6,23Z"></path>
      <path class="cls-2" d="M7.2,8.64A1.44,1.44,0,1,0,5.76,7.2,1.44,1.44,0,0,0,7.2,8.64Z"></path>
      <path class="cls-2" d="M21.6,8.64A1.44,1.44,0,1,0,20.16,7.2,1.44,1.44,0,0,0,21.6,8.64Z"></path>
      <path class="cls-2" d="M0,30.24A1.44,1.44,0,0,0,1.44,28.8,1.45,1.45,0,0,0,0,27.36,1.44,1.44,0,0,0-1.44,28.8,1.43,1.43,0,0,0,0,30.24Z"></path>
      <path class="cls-2" d="M0,15.84A1.44,1.44,0,0,0,1.44,14.4,1.45,1.45,0,0,0,0,13,1.44,1.44,0,0,0-1.44,14.4,1.43,1.43,0,0,0,0,15.84Z"></path>
      <path class="cls-2" d="M28.8,1.44A1.45,1.45,0,0,0,30.24,0,1.45,1.45,0,0,0,28.8-1.44,1.44,1.44,0,0,0,27.36,0,1.44,1.44,0,0,0,28.8,1.44Z"></path>
      <path class="cls-2" d="M14.4,1.44A1.45,1.45,0,0,0,15.84,0,1.45,1.45,0,0,0,14.4-1.44,1.44,1.44,0,0,0,13,0,1.44,1.44,0,0,0,14.4,1.44Z"></path>
      <path class="cls-2" d="M0,1.44A1.45,1.45,0,0,0,1.44,0,1.45,1.45,0,0,0,0-1.44,1.44,1.44,0,0,0-1.44,0,1.44,1.44,0,0,0,0,1.44Z"></path>
    </pattern>
  </defs>
  <title>Kit_</title>
  <g id="Layer_2" data-name="Layer 2">
    <path class="cls-3" d="M241.76,184.67a96.24,96.24,0,1,0,0,192.47H360.24V184.67Z"></path>
    <path class="cls-4" d="M241.76,184.67a96.24,96.24,0,1,0,0,192.47H360.24V184.67Z"></path>
    <circle class="cls-3" cx="360.24" cy="280.91" r="96.23"></circle>
    <circle class="cls-5" cx="360.24" cy="280.91" r="39.81"></circle>
    <circle class="cls-6" cx="360.24" cy="280.91" r="39.81"></circle>
    <path class="cls-3" d="M145.52,279.65V469.33c14.81,0,14.81-10,29.63-10s14.81,10,29.62,10,14.81-10,29.62-10,14.81,10,29.62,10V279.65"></path>
    <path class="cls-4" d="M145.52,279.65V469.33c14.81,0,14.81-10,29.63-10s14.81,10,29.62,10,14.81-10,29.62-10,14.81,10,29.62,10V279.65"></path>
  </g>
</svg>
