<?xml version="1.0" encoding="UTF-8"?>
<svg xmlns="http://www.w3.org/2000/svg" xmlns:xlink="http://www.w3.org/1999/xlink" viewBox="0 0 600 600">
  <defs>
    <style>.cls-1{fill:none;}.cls-2{fill:#1c19a9;}.cls-3{fill:#ffde00;}.cls-3,.cls-4,.cls-5,.cls-6,.cls-7,.cls-8{stroke:#1c19a8;stroke-miterlimit:10;stroke-width:3.5px;}.cls-4{fill:#00ab81;}.cls-5{fill:#fff;}.cls-6{fill:url(#Blue_dots_2);}.cls-7{fill:url(#Blue_dots_2-3);}.cls-8,.cls-9{fill:#1c19a8;}</style>
    <pattern id="Blue_dots_2" data-name="Blue dots 2" width="28.8" height="28.8" patternTransform="translate(-5.08 -24.72) scale(1.09)" patternUnits="userSpaceOnUse" viewBox="0 0 28.8 28.8">
      <rect class="cls-1" width="28.8" height="28.8"></rect>
      <path class="cls-2" d="M28.8,30.24a1.44,1.44,0,1,0-1.44-1.44A1.44,1.44,0,0,0,28.8,30.24Z"></path>
      <path class="cls-2" d="M14.4,30.24A1.44,1.44,0,1,0,13,28.8,1.44,1.44,0,0,0,14.4,30.24Z"></path>
      <path class="cls-2" d="M28.8,15.84a1.44,1.44,0,1,0-1.44-1.44A1.44,1.44,0,0,0,28.8,15.84Z"></path>
      <path class="cls-2" d="M14.4,15.84A1.44,1.44,0,1,0,13,14.4,1.44,1.44,0,0,0,14.4,15.84Z"></path>
      <path class="cls-2" d="M7.2,23A1.44,1.44,0,1,0,5.76,21.6,1.44,1.44,0,0,0,7.2,23Z"></path>
      <path class="cls-2" d="M21.6,23a1.44,1.44,0,1,0-1.44-1.44A1.44,1.44,0,0,0,21.6,23Z"></path>
      <path class="cls-2" d="M7.2,8.64A1.44,1.44,0,1,0,5.76,7.2,1.44,1.44,0,0,0,7.2,8.64Z"></path>
      <path class="cls-2" d="M21.6,8.64A1.44,1.44,0,1,0,20.16,7.2,1.44,1.44,0,0,0,21.6,8.64Z"></path>
      <path class="cls-2" d="M0,30.24A1.44,1.44,0,0,0,1.44,28.8,1.45,1.45,0,0,0,0,27.36,1.44,1.44,0,0,0-1.44,28.8,1.43,1.43,0,0,0,0,30.24Z"></path>
      <path class="cls-2" d="M0,15.84A1.44,1.44,0,0,0,1.44,14.4,1.45,1.45,0,0,0,0,13,1.44,1.44,0,0,0-1.44,14.4,1.43,1.43,0,0,0,0,15.84Z"></path>
      <path class="cls-2" d="M28.8,1.44A1.45,1.45,0,0,0,30.24,0,1.45,1.45,0,0,0,28.8-1.44,1.44,1.44,0,0,0,27.36,0,1.44,1.44,0,0,0,28.8,1.44Z"></path>
      <path class="cls-2" d="M14.4,1.44A1.45,1.45,0,0,0,15.84,0,1.45,1.45,0,0,0,14.4-1.44,1.44,1.44,0,0,0,13,0,1.44,1.44,0,0,0,14.4,1.44Z"></path>
      <path class="cls-2" d="M0,1.44A1.45,1.45,0,0,0,1.44,0,1.45,1.45,0,0,0,0-1.44,1.44,1.44,0,0,0-1.44,0,1.44,1.44,0,0,0,0,1.44Z"></path>
    </pattern>
    <pattern id="Blue_dots_2-3" data-name="Blue dots 2" width="28.8" height="28.8" patternTransform="matrix(-1.09, 0, 0, 1.09, 17.24, -24.72)" patternUnits="userSpaceOnUse" viewBox="0 0 28.8 28.8">
      <rect class="cls-1" width="28.8" height="28.8"></rect>
      <path class="cls-2" d="M28.8,30.24a1.44,1.44,0,1,0-1.44-1.44A1.44,1.44,0,0,0,28.8,30.24Z"></path>
      <path class="cls-2" d="M14.4,30.24A1.44,1.44,0,1,0,13,28.8,1.44,1.44,0,0,0,14.4,30.24Z"></path>
      <path class="cls-2" d="M28.8,15.84a1.44,1.44,0,1,0-1.44-1.44A1.44,1.44,0,0,0,28.8,15.84Z"></path>
      <path class="cls-2" d="M14.4,15.84A1.44,1.44,0,1,0,13,14.4,1.44,1.44,0,0,0,14.4,15.84Z"></path>
      <path class="cls-2" d="M7.2,23A1.44,1.44,0,1,0,5.76,21.6,1.44,1.44,0,0,0,7.2,23Z"></path>
      <path class="cls-2" d="M21.6,23a1.44,1.44,0,1,0-1.44-1.44A1.44,1.44,0,0,0,21.6,23Z"></path>
      <path class="cls-2" d="M7.2,8.64A1.44,1.44,0,1,0,5.76,7.2,1.44,1.44,0,0,0,7.2,8.64Z"></path>
      <path class="cls-2" d="M21.6,8.64A1.44,1.44,0,1,0,20.16,7.2,1.44,1.44,0,0,0,21.6,8.64Z"></path>
      <path class="cls-2" d="M0,30.24A1.44,1.44,0,0,0,1.44,28.8,1.45,1.45,0,0,0,0,27.36,1.44,1.44,0,0,0-1.44,28.8,1.43,1.43,0,0,0,0,30.24Z"></path>
      <path class="cls-2" d="M0,15.84A1.44,1.44,0,0,0,1.44,14.4,1.45,1.45,0,0,0,0,13,1.44,1.44,0,0,0-1.44,14.4,1.43,1.43,0,0,0,0,15.84Z"></path>
      <path class="cls-2" d="M28.8,1.44A1.45,1.45,0,0,0,30.24,0,1.45,1.45,0,0,0,28.8-1.44,1.44,1.44,0,0,0,27.36,0,1.44,1.44,0,0,0,28.8,1.44Z"></path>
      <path class="cls-2" d="M14.4,1.44A1.45,1.45,0,0,0,15.84,0,1.45,1.45,0,0,0,14.4-1.44,1.44,1.44,0,0,0,13,0,1.44,1.44,0,0,0,14.4,1.44Z"></path>
      <path class="cls-2" d="M0,1.44A1.45,1.45,0,0,0,1.44,0,1.45,1.45,0,0,0,0-1.44,1.44,1.44,0,0,0-1.44,0,1.44,1.44,0,0,0,0,1.44Z"></path>
    </pattern>
  </defs>
  <title>Kit_</title>
  <g id="Layer_2" data-name="Layer 2">
    <path class="cls-3" d="M414,220,382.55,373.46a63,63,0,0,1-32.42,43.13,56.43,56.43,0,0,1-26.26,6.48H276.14a56.32,56.32,0,0,1-26.26-6.48,63,63,0,0,1-32.43-43.13L186,220Z"></path>
    <path class="cls-4" d="M171.72,195.07H428.28a0,0,0,0,1,0,0v12.53A12.45,12.45,0,0,1,415.83,220H184.17a12.45,12.45,0,0,1-12.45-12.45V195.07A0,0,0,0,1,171.72,195.07Z"></path>
    <rect class="cls-3" x="156.74" y="176.93" width="286.51" height="18.14" rx="9.07"></rect>
    <path class="cls-5" d="M356.62,350.23l26.67-130.18H414L382.55,373.46h-7A19.34,19.34,0,0,1,356.62,350.23Z"></path>
    <path class="cls-6" d="M356.62,350.23l26.67-130.18H414L382.55,373.46h-7A19.34,19.34,0,0,1,356.62,350.23Z"></path>
    <path class="cls-5" d="M243.38,350.23,216.71,220.05H186l31.43,153.41h7A19.34,19.34,0,0,0,243.38,350.23Z"></path>
    <path class="cls-7" d="M243.38,350.23,216.71,220.05H186l31.43,153.41h7A19.34,19.34,0,0,0,243.38,350.23Z"></path>
    <path class="cls-8" d="M340.87,420.45a56.46,56.46,0,0,1-17,2.62H276.14a56.48,56.48,0,0,1-17-2.62c5.86-10.09,21.95-17.33,40.87-17.33S335,410.36,340.87,420.45Z"></path>
    <path class="cls-9" d="M317.35,310.4c-9.76,14-24.93,20.34-33.88,14.11a13.83,13.83,0,0,1-4.88-6.27c1.78-2.7,4.23-5.81,6.08-7.11,3.4-2.39,7.86-2.41,11.79-3.73,8.63-2.88,13.76-11.53,18.13-19.51,1.54-2.82,4.55-7.78,6.85-11.71C327.49,283.6,326,297.94,317.35,310.4Z"></path>
    <path class="cls-9" d="M294.2,302.23c-3.93,1.32-8.4,1.35-11.79,3.74-1.84,1.31-4.29,4.42-6.06,7.12-3.23-7.89-1.08-19.83,6.26-30.41,9.73-14.05,24.88-20.39,33.85-14.18a13,13,0,0,1,2.66,2.46c-2.3,3.93-5.3,8.89-6.84,11.72C307.93,290.67,302.82,299.32,294.2,302.23Z"></path>
  </g>
</svg>
