<?xml version="1.0" encoding="UTF-8"?>
<svg xmlns="http://www.w3.org/2000/svg" viewBox="0 0 600 600">
  <defs>
    <style>.cls-1{fill:none}.cls-2{fill:#fd0}.cls-3{fill:#1c19a9}.cls-4{fill:#fc715d}.cls-5{fill:#fff}.cls-6{clip-path:url(#clip-path)}.cls-7{clip-path:url(#clip-path-2)}.cls-8{clip-path:url(#clip-path-3)}.cls-9{clip-path:url(#clip-path-4)}.cls-10{clip-path:url(#clip-path-5)}.cls-11{clip-path:url(#clip-path-6)}.cls-12{clip-path:url(#clip-path-7)}.cls-13{clip-path:url(#clip-path-8)}.cls-14{clip-path:url(#clip-path-9)}.cls-15{clip-path:url(#clip-path-10)}.cls-16{clip-path:url(#clip-path-11)}.cls-17{clip-path:url(#clip-path-12)}.cls-18{clip-path:url(#clip-path-13)}.cls-19{clip-path:url(#clip-path-14)}.cls-20{clip-path:url(#clip-path-15)}.cls-21{clip-path:url(#clip-path-16)}.cls-22{clip-path:url(#clip-path-17)}.cls-23{clip-path:url(#clip-path-18)}.cls-24{clip-path:url(#clip-path-19)}.cls-25{clip-path:url(#clip-path-20)}.cls-26{clip-path:url(#clip-path-21)}.cls-27{clip-path:url(#clip-path-22)}.cls-28{clip-path:url(#clip-path-23)}.cls-29{clip-path:url(#clip-path-24)}.cls-30{clip-path:url(#clip-path-25)}.cls-31{clip-path:url(#clip-path-26)}.cls-32{clip-path:url(#clip-path-27)}.cls-33{clip-path:url(#clip-path-28)}.cls-34{clip-path:url(#clip-path-29)}.cls-35{clip-path:url(#clip-path-30)}.cls-36{clip-path:url(#clip-path-31)}.cls-37{clip-path:url(#clip-path-32)}.cls-38{clip-path:url(#clip-path-33)}.cls-39{clip-path:url(#clip-path-34)}.cls-40{clip-path:url(#clip-path-35)}.cls-41{clip-path:url(#clip-path-36)}.cls-42{clip-path:url(#clip-path-37)}.cls-43{clip-path:url(#clip-path-38)}.cls-44{clip-path:url(#clip-path-39)}.cls-45{clip-path:url(#clip-path-40)}.cls-46{clip-path:url(#clip-path-41)}.cls-47{clip-path:url(#clip-path-42)}.cls-48{clip-path:url(#clip-path-43)}.cls-49{clip-path:url(#clip-path-44)}.cls-50{clip-path:url(#clip-path-45)}.cls-51{clip-path:url(#clip-path-46)}.cls-52{clip-path:url(#clip-path-47)}.cls-53{clip-path:url(#clip-path-48)}.cls-54{clip-path:url(#clip-path-49)}.cls-55{clip-path:url(#clip-path-50)}.cls-56{clip-path:url(#clip-path-51)}.cls-57{clip-path:url(#clip-path-52)}.cls-58{clip-path:url(#clip-path-53)}.cls-59{clip-path:url(#clip-path-54)}.cls-60{clip-path:url(#clip-path-55)}.cls-61{clip-path:url(#clip-path-56)}.cls-62{fill:#34c18b}</style>
    <clipPath id="clip-path">
      <path class="cls-1" d="M158.37 244.47H441.63V350.51H158.37z"></path>
    </clipPath>
    <clipPath id="clip-path-2">
      <path class="cls-1" d="M432.07 231.69H460.87V260.49H432.07z"></path>
    </clipPath>
    <clipPath id="clip-path-3">
      <path class="cls-1" d="M432.07 260.49H460.87V289.29H432.07z"></path>
    </clipPath>
    <clipPath id="clip-path-4">
      <path class="cls-1" d="M432.07 289.29H460.87V318.09000000000003H432.07z"></path>
    </clipPath>
    <clipPath id="clip-path-5">
      <path class="cls-1" d="M432.07 318.09H460.87V346.89H432.07z"></path>
    </clipPath>
    <clipPath id="clip-path-6">
      <path class="cls-1" d="M432.07 346.89H460.87V375.69H432.07z"></path>
    </clipPath>
    <clipPath id="clip-path-7">
      <path class="cls-1" d="M403.27 231.69H432.07V260.49H403.27z"></path>
    </clipPath>
    <clipPath id="clip-path-8">
      <path class="cls-1" d="M403.27 260.49H432.07V289.29H403.27z"></path>
    </clipPath>
    <clipPath id="clip-path-9">
      <path class="cls-1" d="M403.27 289.29H432.07V318.09000000000003H403.27z"></path>
    </clipPath>
    <clipPath id="clip-path-10">
      <path class="cls-1" d="M403.27 318.09H432.07V346.89H403.27z"></path>
    </clipPath>
    <clipPath id="clip-path-11">
      <path class="cls-1" d="M403.27 346.89H432.07V375.69H403.27z"></path>
    </clipPath>
    <clipPath id="clip-path-12">
      <path class="cls-1" d="M374.47 231.69H403.27000000000004V260.49H374.47z"></path>
    </clipPath>
    <clipPath id="clip-path-13">
      <path class="cls-1" d="M374.47 260.49H403.27000000000004V289.29H374.47z"></path>
    </clipPath>
    <clipPath id="clip-path-14">
      <path class="cls-1" d="M374.47 289.29H403.27000000000004V318.09000000000003H374.47z"></path>
    </clipPath>
    <clipPath id="clip-path-15">
      <path class="cls-1" d="M374.47 318.09H403.27000000000004V346.89H374.47z"></path>
    </clipPath>
    <clipPath id="clip-path-16">
      <path class="cls-1" d="M374.47 346.89H403.27000000000004V375.69H374.47z"></path>
    </clipPath>
    <clipPath id="clip-path-17">
      <path class="cls-1" d="M345.67 231.69H374.47V260.49H345.67z"></path>
    </clipPath>
    <clipPath id="clip-path-18">
      <path class="cls-1" d="M345.67 260.49H374.47V289.29H345.67z"></path>
    </clipPath>
    <clipPath id="clip-path-19">
      <path class="cls-1" d="M345.67 289.29H374.47V318.09000000000003H345.67z"></path>
    </clipPath>
    <clipPath id="clip-path-20">
      <path class="cls-1" d="M345.67 318.09H374.47V346.89H345.67z"></path>
    </clipPath>
    <clipPath id="clip-path-21">
      <path class="cls-1" d="M345.67 346.89H374.47V375.69H345.67z"></path>
    </clipPath>
    <clipPath id="clip-path-22">
      <path class="cls-1" d="M316.87 231.69H345.67V260.49H316.87z"></path>
    </clipPath>
    <clipPath id="clip-path-23">
      <path class="cls-1" d="M316.87 260.49H345.67V289.29H316.87z"></path>
    </clipPath>
    <clipPath id="clip-path-24">
      <path class="cls-1" d="M316.87 289.29H345.67V318.09000000000003H316.87z"></path>
    </clipPath>
    <clipPath id="clip-path-25">
      <path class="cls-1" d="M316.87 318.09H345.67V346.89H316.87z"></path>
    </clipPath>
    <clipPath id="clip-path-26">
      <path class="cls-1" d="M316.87 346.89H345.67V375.69H316.87z"></path>
    </clipPath>
    <clipPath id="clip-path-27">
      <path class="cls-1" d="M288.07 231.69H316.87V260.49H288.07z"></path>
    </clipPath>
    <clipPath id="clip-path-28">
      <path class="cls-1" d="M288.07 260.49H316.87V289.29H288.07z"></path>
    </clipPath>
    <clipPath id="clip-path-29">
      <path class="cls-1" d="M288.07 289.29H316.87V318.09000000000003H288.07z"></path>
    </clipPath>
    <clipPath id="clip-path-30">
      <path class="cls-1" d="M288.07 318.09H316.87V346.89H288.07z"></path>
    </clipPath>
    <clipPath id="clip-path-31">
      <path class="cls-1" d="M288.07 346.89H316.87V375.69H288.07z"></path>
    </clipPath>
    <clipPath id="clip-path-32">
      <path class="cls-1" d="M259.27 231.69H288.07V260.49H259.27z"></path>
    </clipPath>
    <clipPath id="clip-path-33">
      <path class="cls-1" d="M259.27 260.49H288.07V289.29H259.27z"></path>
    </clipPath>
    <clipPath id="clip-path-34">
      <path class="cls-1" d="M259.27 289.29H288.07V318.09000000000003H259.27z"></path>
    </clipPath>
    <clipPath id="clip-path-35">
      <path class="cls-1" d="M259.27 318.09H288.07V346.89H259.27z"></path>
    </clipPath>
    <clipPath id="clip-path-36">
      <path class="cls-1" d="M259.27 346.89H288.07V375.69H259.27z"></path>
    </clipPath>
    <clipPath id="clip-path-37">
      <path class="cls-1" d="M230.47 231.69H259.27V260.49H230.47z"></path>
    </clipPath>
    <clipPath id="clip-path-38">
      <path class="cls-1" d="M230.47 260.49H259.27V289.29H230.47z"></path>
    </clipPath>
    <clipPath id="clip-path-39">
      <path class="cls-1" d="M230.47 289.29H259.27V318.09000000000003H230.47z"></path>
    </clipPath>
    <clipPath id="clip-path-40">
      <path class="cls-1" d="M230.47 318.09H259.27V346.89H230.47z"></path>
    </clipPath>
    <clipPath id="clip-path-41">
      <path class="cls-1" d="M230.47 346.89H259.27V375.69H230.47z"></path>
    </clipPath>
    <clipPath id="clip-path-42">
      <path class="cls-1" d="M201.67 231.69H230.47V260.49H201.67z"></path>
    </clipPath>
    <clipPath id="clip-path-43">
      <path class="cls-1" d="M201.67 260.49H230.47V289.29H201.67z"></path>
    </clipPath>
    <clipPath id="clip-path-44">
      <path class="cls-1" d="M201.67 289.29H230.47V318.09000000000003H201.67z"></path>
    </clipPath>
    <clipPath id="clip-path-45">
      <path class="cls-1" d="M201.67 318.09H230.47V346.89H201.67z"></path>
    </clipPath>
    <clipPath id="clip-path-46">
      <path class="cls-1" d="M201.67 346.89H230.47V375.69H201.67z"></path>
    </clipPath>
    <clipPath id="clip-path-47">
      <path class="cls-1" d="M172.87 231.69H201.67000000000002V260.49H172.87z"></path>
    </clipPath>
    <clipPath id="clip-path-48">
      <path class="cls-1" d="M172.87 260.49H201.67000000000002V289.29H172.87z"></path>
    </clipPath>
    <clipPath id="clip-path-49">
      <path class="cls-1" d="M172.87 289.29H201.67000000000002V318.09000000000003H172.87z"></path>
    </clipPath>
    <clipPath id="clip-path-50">
      <path class="cls-1" d="M172.87 318.09H201.67000000000002V346.89H172.87z"></path>
    </clipPath>
    <clipPath id="clip-path-51">
      <path class="cls-1" d="M172.87 346.89H201.67000000000002V375.69H172.87z"></path>
    </clipPath>
    <clipPath id="clip-path-52">
      <path class="cls-1" d="M144.07 231.69H172.87V260.49H144.07z"></path>
    </clipPath>
    <clipPath id="clip-path-53">
      <path class="cls-1" d="M144.07 260.49H172.87V289.29H144.07z"></path>
    </clipPath>
    <clipPath id="clip-path-54">
      <path class="cls-1" d="M144.07 289.29H172.87V318.09000000000003H144.07z"></path>
    </clipPath>
    <clipPath id="clip-path-55">
      <path class="cls-1" d="M144.07 318.09H172.87V346.89H144.07z"></path>
    </clipPath>
    <clipPath id="clip-path-56">
      <path class="cls-1" d="M144.07 346.89H172.87V375.69H144.07z"></path>
    </clipPath>
  </defs>
  <g id="Layer_2" data-name="Layer 2">
    <path class="cls-2" d="M158.37 195.09h283.26v202.75a33.36 33.36 0 0 1-33.36 33.36H191.73a33.36 33.36 0 0 1-33.36-33.36V195.09z"></path>
    <path class="cls-3" d="M408.27 433H191.73a35.15 35.15 0 0 1-35.11-35.11V193.34h286.76v204.5A35.15 35.15 0 0 1 408.27 433zM160.12 196.84v201a31.65 31.65 0 0 0 31.61 31.61h216.54a31.65 31.65 0 0 0 31.61-31.61v-201z"></path>
    <rect class="cls-4" x="150.6" y="168.8" width="298.8" height="26.29" rx="6.94"></rect>
    <path class="cls-3" d="M442.46 196.84H157.54a8.7 8.7 0 0 1-8.69-8.69v-12.41a8.7 8.7 0 0 1 8.69-8.69h284.92a8.7 8.7 0 0 1 8.69 8.69v12.41a8.7 8.7 0 0 1-8.69 8.69zm-284.92-26.29a5.2 5.2 0 0 0-5.19 5.19v12.41a5.2 5.2 0 0 0 5.19 5.19h284.92a5.2 5.2 0 0 0 5.19-5.19v-12.41a5.2 5.2 0 0 0-5.19-5.19z"></path>
    <path class="cls-5" d="M158.37 244.47H441.63V350.51H158.37z"></path>
    <path class="cls-3" d="M443.38 352.26H156.62V242.72h286.76zm-283.26-3.5h279.76V246.22H160.12z"></path>
    <g class="cls-6">
      <g class="cls-7">
        <path class="cls-3" d="M460.87 261.93a1.44 1.44 0 0 0 0-2.88 1.44 1.44 0 1 0 0 2.88zm-14.41 0a1.44 1.44 0 1 0-1.43-1.44 1.44 1.44 0 0 0 1.43 1.44zm14.41-14.4a1.44 1.44 0 1 0-1.45-1.44 1.44 1.44 0 0 0 1.45 1.44zm-14.41 0a1.44 1.44 0 1 0 0-2.88 1.44 1.44 0 0 0 0 2.88zm-7.2 7.2a1.44 1.44 0 1 0-1.43-1.44 1.44 1.44 0 0 0 1.43 1.44zm14.4 0a1.44 1.44 0 1 0-1.44-1.44 1.44 1.44 0 0 0 1.44 1.44zm-14.4-14.4a1.44 1.44 0 1 0-1.43-1.44 1.44 1.44 0 0 0 1.43 1.44zm14.4 0a1.44 1.44 0 1 0-1.44-1.44 1.44 1.44 0 0 0 1.44 1.44zm-21.59 21.6a1.44 1.44 0 0 0 0-2.88 1.44 1.44 0 1 0 0 2.88zm0-14.4a1.44 1.44 0 1 0-1.45-1.44 1.44 1.44 0 0 0 1.45 1.44zm28.8-14.4a1.44 1.44 0 1 0-1.45-1.44 1.44 1.44 0 0 0 1.45 1.44zm-14.41 0a1.44 1.44 0 1 0 0-2.88 1.44 1.44 0 0 0 0 2.88zm-14.39 0a1.44 1.44 0 1 0-1.45-1.44 1.44 1.44 0 0 0 1.45 1.44z"></path>
      </g>
      <g class="cls-8">
        <path class="cls-3" d="M460.87 290.73a1.44 1.44 0 0 0 0-2.88 1.44 1.44 0 1 0 0 2.88zm-14.41 0a1.44 1.44 0 1 0-1.43-1.44 1.44 1.44 0 0 0 1.43 1.44zm14.41-14.4a1.44 1.44 0 0 0 0-2.88 1.44 1.44 0 1 0 0 2.88zm-14.41 0a1.44 1.44 0 1 0-1.43-1.44 1.44 1.44 0 0 0 1.43 1.44zm-7.2 7.2a1.44 1.44 0 1 0-1.43-1.44 1.44 1.44 0 0 0 1.43 1.44zm14.4 0a1.44 1.44 0 1 0-1.44-1.44 1.44 1.44 0 0 0 1.44 1.44zm-14.4-14.4a1.44 1.44 0 1 0-1.43-1.44 1.44 1.44 0 0 0 1.43 1.44zm14.4 0a1.44 1.44 0 1 0-1.44-1.44 1.44 1.44 0 0 0 1.44 1.44zm-21.59 21.6a1.44 1.44 0 0 0 0-2.88 1.44 1.44 0 1 0 0 2.88zm0-14.4a1.44 1.44 0 0 0 0-2.88 1.44 1.44 0 1 0 0 2.88zm28.8-14.4a1.44 1.44 0 0 0 0-2.88 1.44 1.44 0 1 0 0 2.88zm-14.41 0a1.44 1.44 0 1 0-1.43-1.44 1.44 1.44 0 0 0 1.43 1.44zm-14.39 0a1.44 1.44 0 0 0 0-2.88 1.44 1.44 0 1 0 0 2.88z"></path>
      </g>
      <g class="cls-9">
        <path class="cls-3" d="M460.87 319.53a1.44 1.44 0 0 0 0-2.88 1.44 1.44 0 1 0 0 2.88zm-14.41 0a1.44 1.44 0 1 0-1.43-1.44 1.44 1.44 0 0 0 1.43 1.44zm14.41-14.4a1.44 1.44 0 0 0 0-2.88 1.44 1.44 0 1 0 0 2.88zm-14.41 0a1.44 1.44 0 1 0-1.43-1.44 1.44 1.44 0 0 0 1.43 1.44zm-7.2 7.2a1.44 1.44 0 1 0-1.43-1.44 1.44 1.44 0 0 0 1.43 1.44zm14.4 0a1.44 1.44 0 1 0-1.44-1.44 1.44 1.44 0 0 0 1.44 1.44zm-14.4-14.4a1.44 1.44 0 1 0-1.43-1.44 1.44 1.44 0 0 0 1.43 1.44zm14.4 0a1.44 1.44 0 1 0-1.44-1.44 1.44 1.44 0 0 0 1.44 1.44zm-21.59 21.6a1.44 1.44 0 0 0 0-2.88 1.44 1.44 0 1 0 0 2.88zm0-14.4a1.44 1.44 0 0 0 0-2.88 1.44 1.44 0 1 0 0 2.88zm28.8-14.4a1.44 1.44 0 0 0 0-2.88 1.44 1.44 0 1 0 0 2.88zm-14.41 0a1.44 1.44 0 1 0-1.43-1.44 1.44 1.44 0 0 0 1.43 1.44zm-14.39 0a1.44 1.44 0 0 0 0-2.88 1.44 1.44 0 1 0 0 2.88z"></path>
      </g>
      <g class="cls-10">
        <path class="cls-3" d="M460.87 348.33a1.44 1.44 0 0 0 0-2.88 1.44 1.44 0 1 0 0 2.88zm-14.41 0a1.44 1.44 0 1 0-1.43-1.44 1.44 1.44 0 0 0 1.43 1.44zm14.41-14.4a1.44 1.44 0 0 0 0-2.88 1.44 1.44 0 1 0 0 2.88zm-14.41 0a1.44 1.44 0 1 0-1.43-1.44 1.44 1.44 0 0 0 1.43 1.44zm-7.2 7.2a1.44 1.44 0 1 0-1.43-1.44 1.44 1.44 0 0 0 1.43 1.44zm14.4 0a1.44 1.44 0 1 0-1.44-1.44 1.44 1.44 0 0 0 1.44 1.44zm-14.4-14.4a1.44 1.44 0 1 0-1.43-1.44 1.44 1.44 0 0 0 1.43 1.44zm14.4 0a1.44 1.44 0 1 0-1.44-1.44 1.44 1.44 0 0 0 1.44 1.44zm-21.59 21.6a1.44 1.44 0 0 0 0-2.88 1.44 1.44 0 1 0 0 2.88zm0-14.4a1.44 1.44 0 0 0 0-2.88 1.44 1.44 0 1 0 0 2.88zm28.8-14.4a1.44 1.44 0 0 0 0-2.88 1.44 1.44 0 1 0 0 2.88zm-14.41 0a1.44 1.44 0 1 0-1.43-1.44 1.44 1.44 0 0 0 1.43 1.44zm-14.39 0a1.44 1.44 0 0 0 0-2.88 1.44 1.44 0 1 0 0 2.88z"></path>
      </g>
      <g class="cls-11">
        <path class="cls-3" d="M460.87 377.13a1.44 1.44 0 0 0 0-2.88 1.44 1.44 0 1 0 0 2.88zm-14.41 0a1.44 1.44 0 1 0-1.43-1.44 1.44 1.44 0 0 0 1.43 1.44zm14.41-14.4a1.44 1.44 0 0 0 0-2.88 1.44 1.44 0 1 0 0 2.88zm-14.41 0a1.44 1.44 0 1 0-1.43-1.44 1.44 1.44 0 0 0 1.43 1.44zm-7.2 7.2a1.44 1.44 0 1 0-1.43-1.44 1.44 1.44 0 0 0 1.43 1.44zm14.4 0a1.44 1.44 0 1 0-1.44-1.44 1.44 1.44 0 0 0 1.44 1.44zm-14.4-14.4a1.44 1.44 0 1 0-1.43-1.44 1.44 1.44 0 0 0 1.43 1.44zm14.4 0a1.44 1.44 0 1 0-1.44-1.44 1.44 1.44 0 0 0 1.44 1.44zm-21.59 21.6a1.44 1.44 0 0 0 0-2.88 1.44 1.44 0 1 0 0 2.88zm0-14.4a1.44 1.44 0 0 0 0-2.88 1.44 1.44 0 1 0 0 2.88zm28.8-14.4a1.44 1.44 0 0 0 0-2.88 1.44 1.44 0 1 0 0 2.88zm-14.41 0a1.44 1.44 0 1 0-1.43-1.44 1.44 1.44 0 0 0 1.43 1.44zm-14.39 0a1.44 1.44 0 0 0 0-2.88 1.44 1.44 0 1 0 0 2.88z"></path>
      </g>
      <g class="cls-12">
        <path class="cls-3" d="M432.07 261.93a1.44 1.44 0 0 0 0-2.88 1.44 1.44 0 1 0 0 2.88zm-14.41 0a1.44 1.44 0 1 0-1.43-1.44 1.44 1.44 0 0 0 1.43 1.44zm14.41-14.4a1.44 1.44 0 1 0-1.45-1.44 1.44 1.44 0 0 0 1.45 1.44zm-14.41 0a1.44 1.44 0 1 0 0-2.88 1.44 1.44 0 0 0 0 2.88zm-7.2 7.2a1.44 1.44 0 1 0-1.43-1.44 1.44 1.44 0 0 0 1.43 1.44zm14.41 0a1.44 1.44 0 1 0-1.45-1.44 1.44 1.44 0 0 0 1.45 1.44zm-14.41-14.4a1.44 1.44 0 1 0-1.43-1.44 1.44 1.44 0 0 0 1.43 1.44zm14.41 0a1.44 1.44 0 1 0-1.45-1.44 1.44 1.44 0 0 0 1.45 1.44zm-21.6 21.6a1.44 1.44 0 1 0-1.44-1.44 1.44 1.44 0 0 0 1.44 1.44zm0-14.4a1.44 1.44 0 1 0-1.44-1.44 1.45 1.45 0 0 0 1.44 1.44zm28.8-14.4a1.44 1.44 0 1 0-1.45-1.44 1.44 1.44 0 0 0 1.45 1.44zm-14.41 0a1.44 1.44 0 1 0 0-2.88 1.44 1.44 0 0 0 0 2.88zm-14.39 0a1.44 1.44 0 1 0-1.44-1.44 1.45 1.45 0 0 0 1.44 1.44z"></path>
      </g>
      <g class="cls-13">
        <path class="cls-3" d="M432.07 290.73a1.44 1.44 0 0 0 0-2.88 1.44 1.44 0 1 0 0 2.88zm-14.41 0a1.44 1.44 0 1 0-1.43-1.44 1.44 1.44 0 0 0 1.43 1.44zm14.41-14.4a1.44 1.44 0 0 0 0-2.88 1.44 1.44 0 1 0 0 2.88zm-14.41 0a1.44 1.44 0 1 0-1.43-1.44 1.44 1.44 0 0 0 1.43 1.44zm-7.2 7.2a1.44 1.44 0 1 0-1.43-1.44 1.44 1.44 0 0 0 1.43 1.44zm14.41 0a1.44 1.44 0 1 0-1.45-1.44 1.44 1.44 0 0 0 1.45 1.44zm-14.41-14.4a1.44 1.44 0 1 0-1.43-1.44 1.44 1.44 0 0 0 1.43 1.44zm14.41 0a1.44 1.44 0 1 0-1.45-1.44 1.44 1.44 0 0 0 1.45 1.44zm-21.6 21.6a1.44 1.44 0 1 0-1.44-1.44 1.44 1.44 0 0 0 1.44 1.44zm0-14.4a1.44 1.44 0 1 0-1.44-1.44 1.44 1.44 0 0 0 1.44 1.44zm28.8-14.4a1.44 1.44 0 0 0 0-2.88 1.44 1.44 0 1 0 0 2.88zm-14.41 0a1.44 1.44 0 1 0-1.43-1.44 1.44 1.44 0 0 0 1.43 1.44zm-14.39 0a1.44 1.44 0 1 0-1.44-1.44 1.44 1.44 0 0 0 1.44 1.44z"></path>
      </g>
      <g class="cls-14">
        <path class="cls-3" d="M432.07 319.53a1.44 1.44 0 0 0 0-2.88 1.44 1.44 0 1 0 0 2.88zm-14.41 0a1.44 1.44 0 1 0-1.43-1.44 1.44 1.44 0 0 0 1.43 1.44zm14.41-14.4a1.44 1.44 0 0 0 0-2.88 1.44 1.44 0 1 0 0 2.88zm-14.41 0a1.44 1.44 0 1 0-1.43-1.44 1.44 1.44 0 0 0 1.43 1.44zm-7.2 7.2a1.44 1.44 0 1 0-1.43-1.44 1.44 1.44 0 0 0 1.43 1.44zm14.41 0a1.44 1.44 0 1 0-1.45-1.44 1.44 1.44 0 0 0 1.45 1.44zm-14.41-14.4a1.44 1.44 0 1 0-1.43-1.44 1.44 1.44 0 0 0 1.43 1.44zm14.41 0a1.44 1.44 0 1 0-1.45-1.44 1.44 1.44 0 0 0 1.45 1.44zm-21.6 21.6a1.44 1.44 0 1 0-1.44-1.44 1.44 1.44 0 0 0 1.44 1.44zm0-14.4a1.44 1.44 0 1 0-1.44-1.44 1.44 1.44 0 0 0 1.44 1.44zm28.8-14.4a1.44 1.44 0 0 0 0-2.88 1.44 1.44 0 1 0 0 2.88zm-14.41 0a1.44 1.44 0 1 0-1.43-1.44 1.44 1.44 0 0 0 1.43 1.44zm-14.39 0a1.44 1.44 0 1 0-1.44-1.44 1.44 1.44 0 0 0 1.44 1.44z"></path>
      </g>
      <g class="cls-15">
        <path class="cls-3" d="M432.07 348.33a1.44 1.44 0 0 0 0-2.88 1.44 1.44 0 1 0 0 2.88zm-14.41 0a1.44 1.44 0 1 0-1.43-1.44 1.44 1.44 0 0 0 1.43 1.44zm14.41-14.4a1.44 1.44 0 0 0 0-2.88 1.44 1.44 0 1 0 0 2.88zm-14.41 0a1.44 1.44 0 1 0-1.43-1.44 1.44 1.44 0 0 0 1.43 1.44zm-7.2 7.2a1.44 1.44 0 1 0-1.43-1.44 1.44 1.44 0 0 0 1.43 1.44zm14.41 0a1.44 1.44 0 1 0-1.45-1.44 1.44 1.44 0 0 0 1.45 1.44zm-14.41-14.4a1.44 1.44 0 1 0-1.43-1.44 1.44 1.44 0 0 0 1.43 1.44zm14.41 0a1.44 1.44 0 1 0-1.45-1.44 1.44 1.44 0 0 0 1.45 1.44zm-21.6 21.6a1.44 1.44 0 1 0-1.44-1.44 1.44 1.44 0 0 0 1.44 1.44zm0-14.4a1.44 1.44 0 1 0-1.44-1.44 1.44 1.44 0 0 0 1.44 1.44zm28.8-14.4a1.44 1.44 0 0 0 0-2.88 1.44 1.44 0 1 0 0 2.88zm-14.41 0a1.44 1.44 0 1 0-1.43-1.44 1.44 1.44 0 0 0 1.43 1.44zm-14.39 0a1.44 1.44 0 1 0-1.44-1.44 1.44 1.44 0 0 0 1.44 1.44z"></path>
      </g>
      <g class="cls-16">
        <path class="cls-3" d="M432.07 377.13a1.44 1.44 0 0 0 0-2.88 1.44 1.44 0 1 0 0 2.88zm-14.41 0a1.44 1.44 0 1 0-1.43-1.44 1.44 1.44 0 0 0 1.43 1.44zm14.41-14.4a1.44 1.44 0 0 0 0-2.88 1.44 1.44 0 1 0 0 2.88zm-14.41 0a1.44 1.44 0 1 0-1.43-1.44 1.44 1.44 0 0 0 1.43 1.44zm-7.2 7.2a1.44 1.44 0 1 0-1.43-1.44 1.44 1.44 0 0 0 1.43 1.44zm14.41 0a1.44 1.44 0 1 0-1.45-1.44 1.44 1.44 0 0 0 1.45 1.44zm-14.41-14.4a1.44 1.44 0 1 0-1.43-1.44 1.44 1.44 0 0 0 1.43 1.44zm14.41 0a1.44 1.44 0 1 0-1.45-1.44 1.44 1.44 0 0 0 1.45 1.44zm-21.6 21.6a1.44 1.44 0 1 0-1.44-1.44 1.44 1.44 0 0 0 1.44 1.44zm0-14.4a1.44 1.44 0 1 0-1.44-1.44 1.44 1.44 0 0 0 1.44 1.44zm28.8-14.4a1.44 1.44 0 0 0 0-2.88 1.44 1.44 0 1 0 0 2.88zm-14.41 0a1.44 1.44 0 1 0-1.43-1.44 1.44 1.44 0 0 0 1.43 1.44zm-14.39 0a1.44 1.44 0 1 0-1.44-1.44 1.44 1.44 0 0 0 1.44 1.44z"></path>
      </g>
      <g class="cls-17">
        <path class="cls-3" d="M403.27 261.93a1.44 1.44 0 1 0-1.44-1.44 1.44 1.44 0 0 0 1.44 1.44zm-14.4 0a1.44 1.44 0 1 0-1.44-1.44 1.44 1.44 0 0 0 1.44 1.44zm14.4-14.4a1.44 1.44 0 1 0-1.44-1.44 1.45 1.45 0 0 0 1.44 1.44zm-14.4 0a1.44 1.44 0 1 0-1.44-1.44 1.45 1.45 0 0 0 1.44 1.44zm-7.2 7.2a1.44 1.44 0 1 0-1.44-1.44 1.44 1.44 0 0 0 1.44 1.44zm14.4 0a1.44 1.44 0 1 0-1.45-1.44 1.44 1.44 0 0 0 1.45 1.44zm-14.4-14.4a1.44 1.44 0 1 0-1.44-1.44 1.44 1.44 0 0 0 1.44 1.44zm14.4 0a1.44 1.44 0 1 0-1.45-1.44 1.44 1.44 0 0 0 1.45 1.44zm-21.6 21.6a1.44 1.44 0 1 0-1.44-1.44 1.44 1.44 0 0 0 1.44 1.44zm0-14.4a1.44 1.44 0 1 0-1.44-1.44 1.45 1.45 0 0 0 1.44 1.44zm28.8-14.4a1.44 1.44 0 1 0-1.44-1.44 1.45 1.45 0 0 0 1.44 1.44zm-14.4 0a1.44 1.44 0 1 0-1.44-1.44 1.45 1.45 0 0 0 1.44 1.44zm-14.4 0a1.44 1.44 0 1 0-1.44-1.44 1.45 1.45 0 0 0 1.44 1.44z"></path>
      </g>
      <g class="cls-18">
        <path class="cls-3" d="M403.27 290.73a1.44 1.44 0 1 0-1.44-1.44 1.44 1.44 0 0 0 1.44 1.44zm-14.4 0a1.44 1.44 0 1 0-1.44-1.44 1.44 1.44 0 0 0 1.44 1.44zm14.4-14.4a1.44 1.44 0 1 0-1.44-1.44 1.44 1.44 0 0 0 1.44 1.44zm-14.4 0a1.44 1.44 0 1 0-1.44-1.44 1.44 1.44 0 0 0 1.44 1.44zm-7.2 7.2a1.44 1.44 0 1 0-1.44-1.44 1.44 1.44 0 0 0 1.44 1.44zm14.4 0a1.44 1.44 0 1 0-1.45-1.44 1.44 1.44 0 0 0 1.45 1.44zm-14.4-14.4a1.44 1.44 0 1 0-1.44-1.44 1.44 1.44 0 0 0 1.44 1.44zm14.4 0a1.44 1.44 0 1 0-1.45-1.44 1.44 1.44 0 0 0 1.45 1.44zm-21.6 21.6a1.44 1.44 0 1 0-1.44-1.44 1.44 1.44 0 0 0 1.44 1.44zm0-14.4a1.44 1.44 0 1 0-1.44-1.44 1.44 1.44 0 0 0 1.44 1.44zm28.8-14.4a1.44 1.44 0 1 0-1.44-1.44 1.44 1.44 0 0 0 1.44 1.44zm-14.4 0a1.44 1.44 0 1 0-1.44-1.44 1.44 1.44 0 0 0 1.44 1.44zm-14.4 0a1.44 1.44 0 1 0-1.44-1.44 1.44 1.44 0 0 0 1.44 1.44z"></path>
      </g>
      <g class="cls-19">
        <path class="cls-3" d="M403.27 319.53a1.44 1.44 0 1 0-1.44-1.44 1.44 1.44 0 0 0 1.44 1.44zm-14.4 0a1.44 1.44 0 1 0-1.44-1.44 1.44 1.44 0 0 0 1.44 1.44zm14.4-14.4a1.44 1.44 0 1 0-1.44-1.44 1.44 1.44 0 0 0 1.44 1.44zm-14.4 0a1.44 1.44 0 1 0-1.44-1.44 1.44 1.44 0 0 0 1.44 1.44zm-7.2 7.2a1.44 1.44 0 1 0-1.44-1.44 1.44 1.44 0 0 0 1.44 1.44zm14.4 0a1.44 1.44 0 1 0-1.45-1.44 1.44 1.44 0 0 0 1.45 1.44zm-14.4-14.4a1.44 1.44 0 1 0-1.44-1.44 1.44 1.44 0 0 0 1.44 1.44zm14.4 0a1.44 1.44 0 1 0-1.45-1.44 1.44 1.44 0 0 0 1.45 1.44zm-21.6 21.6a1.44 1.44 0 1 0-1.44-1.44 1.44 1.44 0 0 0 1.44 1.44zm0-14.4a1.44 1.44 0 1 0-1.44-1.44 1.44 1.44 0 0 0 1.44 1.44zm28.8-14.4a1.44 1.44 0 1 0-1.44-1.44 1.44 1.44 0 0 0 1.44 1.44zm-14.4 0a1.44 1.44 0 1 0-1.44-1.44 1.44 1.44 0 0 0 1.44 1.44zm-14.4 0a1.44 1.44 0 1 0-1.44-1.44 1.44 1.44 0 0 0 1.44 1.44z"></path>
      </g>
      <g class="cls-20">
        <path class="cls-3" d="M403.27 348.33a1.44 1.44 0 1 0-1.44-1.44 1.44 1.44 0 0 0 1.44 1.44zm-14.4 0a1.44 1.44 0 1 0-1.44-1.44 1.44 1.44 0 0 0 1.44 1.44zm14.4-14.4a1.44 1.44 0 1 0-1.44-1.44 1.44 1.44 0 0 0 1.44 1.44zm-14.4 0a1.44 1.44 0 1 0-1.44-1.44 1.44 1.44 0 0 0 1.44 1.44zm-7.2 7.2a1.44 1.44 0 1 0-1.44-1.44 1.44 1.44 0 0 0 1.44 1.44zm14.4 0a1.44 1.44 0 1 0-1.45-1.44 1.44 1.44 0 0 0 1.45 1.44zm-14.4-14.4a1.44 1.44 0 1 0-1.44-1.44 1.44 1.44 0 0 0 1.44 1.44zm14.4 0a1.44 1.44 0 1 0-1.45-1.44 1.44 1.44 0 0 0 1.45 1.44zm-21.6 21.6a1.44 1.44 0 1 0-1.44-1.44 1.44 1.44 0 0 0 1.44 1.44zm0-14.4a1.44 1.44 0 1 0-1.44-1.44 1.44 1.44 0 0 0 1.44 1.44zm28.8-14.4a1.44 1.44 0 1 0-1.44-1.44 1.44 1.44 0 0 0 1.44 1.44zm-14.4 0a1.44 1.44 0 1 0-1.44-1.44 1.44 1.44 0 0 0 1.44 1.44zm-14.4 0a1.44 1.44 0 1 0-1.44-1.44 1.44 1.44 0 0 0 1.44 1.44z"></path>
      </g>
      <g class="cls-21">
        <path class="cls-3" d="M403.27 377.13a1.44 1.44 0 1 0-1.44-1.44 1.44 1.44 0 0 0 1.44 1.44zm-14.4 0a1.44 1.44 0 1 0-1.44-1.44 1.44 1.44 0 0 0 1.44 1.44zm14.4-14.4a1.44 1.44 0 1 0-1.44-1.44 1.44 1.44 0 0 0 1.44 1.44zm-14.4 0a1.44 1.44 0 1 0-1.44-1.44 1.44 1.44 0 0 0 1.44 1.44zm-7.2 7.2a1.44 1.44 0 1 0-1.44-1.44 1.44 1.44 0 0 0 1.44 1.44zm14.4 0a1.44 1.44 0 1 0-1.45-1.44 1.44 1.44 0 0 0 1.45 1.44zm-14.4-14.4a1.44 1.44 0 1 0-1.44-1.44 1.44 1.44 0 0 0 1.44 1.44zm14.4 0a1.44 1.44 0 1 0-1.45-1.44 1.44 1.44 0 0 0 1.45 1.44zm-21.6 21.6a1.44 1.44 0 1 0-1.44-1.44 1.44 1.44 0 0 0 1.44 1.44zm0-14.4a1.44 1.44 0 1 0-1.44-1.44 1.44 1.44 0 0 0 1.44 1.44zm28.8-14.4a1.44 1.44 0 1 0-1.44-1.44 1.44 1.44 0 0 0 1.44 1.44zm-14.4 0a1.44 1.44 0 1 0-1.44-1.44 1.44 1.44 0 0 0 1.44 1.44zm-14.4 0a1.44 1.44 0 1 0-1.44-1.44 1.44 1.44 0 0 0 1.44 1.44z"></path>
      </g>
      <g class="cls-22">
        <path class="cls-3" d="M374.47 261.93a1.44 1.44 0 1 0-1.44-1.44 1.44 1.44 0 0 0 1.44 1.44zm-14.4 0a1.44 1.44 0 1 0-1.44-1.44 1.44 1.44 0 0 0 1.44 1.44zm14.4-14.4a1.44 1.44 0 1 0-1.44-1.44 1.45 1.45 0 0 0 1.44 1.44zm-14.4 0a1.44 1.44 0 1 0-1.44-1.44 1.45 1.45 0 0 0 1.44 1.44zm-7.2 7.2a1.44 1.44 0 1 0-1.44-1.44 1.44 1.44 0 0 0 1.44 1.44zm14.4 0a1.44 1.44 0 1 0-1.44-1.44 1.44 1.44 0 0 0 1.44 1.44zm-14.4-14.4a1.44 1.44 0 1 0-1.44-1.44 1.44 1.44 0 0 0 1.44 1.44zm14.4 0a1.44 1.44 0 1 0-1.44-1.44 1.44 1.44 0 0 0 1.44 1.44zm-21.6 21.6a1.44 1.44 0 1 0-1.44-1.44 1.44 1.44 0 0 0 1.44 1.44zm0-14.4a1.44 1.44 0 1 0-1.44-1.44 1.45 1.45 0 0 0 1.44 1.44zm28.8-14.4a1.44 1.44 0 1 0-1.44-1.44 1.45 1.45 0 0 0 1.44 1.44zm-14.4 0a1.44 1.44 0 1 0-1.44-1.44 1.45 1.45 0 0 0 1.44 1.44zm-14.4 0a1.44 1.44 0 1 0-1.44-1.44 1.45 1.45 0 0 0 1.44 1.44z"></path>
      </g>
      <g class="cls-23">
        <path class="cls-3" d="M374.47 290.73a1.44 1.44 0 1 0-1.44-1.44 1.44 1.44 0 0 0 1.44 1.44zm-14.4 0a1.44 1.44 0 1 0-1.44-1.44 1.44 1.44 0 0 0 1.44 1.44zm14.4-14.4a1.44 1.44 0 1 0-1.44-1.44 1.44 1.44 0 0 0 1.44 1.44zm-14.4 0a1.44 1.44 0 1 0-1.44-1.44 1.44 1.44 0 0 0 1.44 1.44zm-7.2 7.2a1.44 1.44 0 1 0-1.44-1.44 1.44 1.44 0 0 0 1.44 1.44zm14.4 0a1.44 1.44 0 1 0-1.44-1.44 1.44 1.44 0 0 0 1.44 1.44zm-14.4-14.4a1.44 1.44 0 1 0-1.44-1.44 1.44 1.44 0 0 0 1.44 1.44zm14.4 0a1.44 1.44 0 1 0-1.44-1.44 1.44 1.44 0 0 0 1.44 1.44zm-21.6 21.6a1.44 1.44 0 1 0-1.44-1.44 1.44 1.44 0 0 0 1.44 1.44zm0-14.4a1.44 1.44 0 1 0-1.44-1.44 1.44 1.44 0 0 0 1.44 1.44zm28.8-14.4a1.44 1.44 0 1 0-1.44-1.44 1.44 1.44 0 0 0 1.44 1.44zm-14.4 0a1.44 1.44 0 1 0-1.44-1.44 1.44 1.44 0 0 0 1.44 1.44zm-14.4 0a1.44 1.44 0 1 0-1.44-1.44 1.44 1.44 0 0 0 1.44 1.44z"></path>
      </g>
      <g class="cls-24">
        <path class="cls-3" d="M374.47 319.53a1.44 1.44 0 1 0-1.44-1.44 1.44 1.44 0 0 0 1.44 1.44zm-14.4 0a1.44 1.44 0 1 0-1.44-1.44 1.44 1.44 0 0 0 1.44 1.44zm14.4-14.4a1.44 1.44 0 1 0-1.44-1.44 1.44 1.44 0 0 0 1.44 1.44zm-14.4 0a1.44 1.44 0 1 0-1.44-1.44 1.44 1.44 0 0 0 1.44 1.44zm-7.2 7.2a1.44 1.44 0 1 0-1.44-1.44 1.44 1.44 0 0 0 1.44 1.44zm14.4 0a1.44 1.44 0 1 0-1.44-1.44 1.44 1.44 0 0 0 1.44 1.44zm-14.4-14.4a1.44 1.44 0 1 0-1.44-1.44 1.44 1.44 0 0 0 1.44 1.44zm14.4 0a1.44 1.44 0 1 0-1.44-1.44 1.44 1.44 0 0 0 1.44 1.44zm-21.6 21.6a1.44 1.44 0 1 0-1.44-1.44 1.44 1.44 0 0 0 1.44 1.44zm0-14.4a1.44 1.44 0 1 0-1.44-1.44 1.44 1.44 0 0 0 1.44 1.44zm28.8-14.4a1.44 1.44 0 1 0-1.44-1.44 1.44 1.44 0 0 0 1.44 1.44zm-14.4 0a1.44 1.44 0 1 0-1.44-1.44 1.44 1.44 0 0 0 1.44 1.44zm-14.4 0a1.44 1.44 0 1 0-1.44-1.44 1.44 1.44 0 0 0 1.44 1.44z"></path>
      </g>
      <g class="cls-25">
        <path class="cls-3" d="M374.47 348.33a1.44 1.44 0 1 0-1.44-1.44 1.44 1.44 0 0 0 1.44 1.44zm-14.4 0a1.44 1.44 0 1 0-1.44-1.44 1.44 1.44 0 0 0 1.44 1.44zm14.4-14.4a1.44 1.44 0 1 0-1.44-1.44 1.44 1.44 0 0 0 1.44 1.44zm-14.4 0a1.44 1.44 0 1 0-1.44-1.44 1.44 1.44 0 0 0 1.44 1.44zm-7.2 7.2a1.44 1.44 0 1 0-1.44-1.44 1.44 1.44 0 0 0 1.44 1.44zm14.4 0a1.44 1.44 0 1 0-1.44-1.44 1.44 1.44 0 0 0 1.44 1.44zm-14.4-14.4a1.44 1.44 0 1 0-1.44-1.44 1.44 1.44 0 0 0 1.44 1.44zm14.4 0a1.44 1.44 0 1 0-1.44-1.44 1.44 1.44 0 0 0 1.44 1.44zm-21.6 21.6a1.44 1.44 0 1 0-1.44-1.44 1.44 1.44 0 0 0 1.44 1.44zm0-14.4a1.44 1.44 0 1 0-1.44-1.44 1.44 1.44 0 0 0 1.44 1.44zm28.8-14.4a1.44 1.44 0 1 0-1.44-1.44 1.44 1.44 0 0 0 1.44 1.44zm-14.4 0a1.44 1.44 0 1 0-1.44-1.44 1.44 1.44 0 0 0 1.44 1.44zm-14.4 0a1.44 1.44 0 1 0-1.44-1.44 1.44 1.44 0 0 0 1.44 1.44z"></path>
      </g>
      <g class="cls-26">
        <path class="cls-3" d="M374.47 377.13a1.44 1.44 0 1 0-1.44-1.44 1.44 1.44 0 0 0 1.44 1.44zm-14.4 0a1.44 1.44 0 1 0-1.44-1.44 1.44 1.44 0 0 0 1.44 1.44zm14.4-14.4a1.44 1.44 0 1 0-1.44-1.44 1.44 1.44 0 0 0 1.44 1.44zm-14.4 0a1.44 1.44 0 1 0-1.44-1.44 1.44 1.44 0 0 0 1.44 1.44zm-7.2 7.2a1.44 1.44 0 1 0-1.44-1.44 1.44 1.44 0 0 0 1.44 1.44zm14.4 0a1.44 1.44 0 1 0-1.44-1.44 1.44 1.44 0 0 0 1.44 1.44zm-14.4-14.4a1.44 1.44 0 1 0-1.44-1.44 1.44 1.44 0 0 0 1.44 1.44zm14.4 0a1.44 1.44 0 1 0-1.44-1.44 1.44 1.44 0 0 0 1.44 1.44zm-21.6 21.6a1.44 1.44 0 1 0-1.44-1.44 1.44 1.44 0 0 0 1.44 1.44zm0-14.4a1.44 1.44 0 1 0-1.44-1.44 1.44 1.44 0 0 0 1.44 1.44zm28.8-14.4a1.44 1.44 0 1 0-1.44-1.44 1.44 1.44 0 0 0 1.44 1.44zm-14.4 0a1.44 1.44 0 1 0-1.44-1.44 1.44 1.44 0 0 0 1.44 1.44zm-14.4 0a1.44 1.44 0 1 0-1.44-1.44 1.44 1.44 0 0 0 1.44 1.44z"></path>
      </g>
      <g class="cls-27">
        <path class="cls-3" d="M345.67 261.93a1.44 1.44 0 1 0-1.44-1.44 1.44 1.44 0 0 0 1.44 1.44zm-14.4 0a1.44 1.44 0 1 0-1.44-1.44 1.44 1.44 0 0 0 1.44 1.44zm14.4-14.4a1.44 1.44 0 1 0-1.44-1.44 1.45 1.45 0 0 0 1.44 1.44zm-14.4 0a1.44 1.44 0 1 0-1.44-1.44 1.45 1.45 0 0 0 1.44 1.44zm-7.2 7.2a1.44 1.44 0 1 0-1.44-1.44 1.44 1.44 0 0 0 1.44 1.44zm14.4 0a1.44 1.44 0 1 0-1.44-1.44 1.44 1.44 0 0 0 1.44 1.44zm-14.4-14.4a1.44 1.44 0 1 0-1.44-1.44 1.44 1.44 0 0 0 1.44 1.44zm14.4 0a1.44 1.44 0 1 0-1.44-1.44 1.44 1.44 0 0 0 1.44 1.44zm-21.6 21.6a1.44 1.44 0 1 0-1.44-1.44 1.44 1.44 0 0 0 1.44 1.44zm0-14.4a1.44 1.44 0 1 0-1.44-1.44 1.45 1.45 0 0 0 1.44 1.44zm28.8-14.4a1.44 1.44 0 1 0-1.44-1.44 1.45 1.45 0 0 0 1.44 1.44zm-14.4 0a1.44 1.44 0 1 0-1.44-1.44 1.45 1.45 0 0 0 1.44 1.44zm-14.4 0a1.44 1.44 0 1 0-1.44-1.44 1.45 1.45 0 0 0 1.44 1.44z"></path>
      </g>
      <g class="cls-28">
        <path class="cls-3" d="M345.67 290.73a1.44 1.44 0 1 0-1.44-1.44 1.44 1.44 0 0 0 1.44 1.44zm-14.4 0a1.44 1.44 0 1 0-1.44-1.44 1.44 1.44 0 0 0 1.44 1.44zm14.4-14.4a1.44 1.44 0 1 0-1.44-1.44 1.44 1.44 0 0 0 1.44 1.44zm-14.4 0a1.44 1.44 0 1 0-1.44-1.44 1.44 1.44 0 0 0 1.44 1.44zm-7.2 7.2a1.44 1.44 0 1 0-1.44-1.44 1.44 1.44 0 0 0 1.44 1.44zm14.4 0a1.44 1.44 0 1 0-1.44-1.44 1.44 1.44 0 0 0 1.44 1.44zm-14.4-14.4a1.44 1.44 0 1 0-1.44-1.44 1.44 1.44 0 0 0 1.44 1.44zm14.4 0a1.44 1.44 0 1 0-1.44-1.44 1.44 1.44 0 0 0 1.44 1.44zm-21.6 21.6a1.44 1.44 0 1 0-1.44-1.44 1.44 1.44 0 0 0 1.44 1.44zm0-14.4a1.44 1.44 0 1 0-1.44-1.44 1.44 1.44 0 0 0 1.44 1.44zm28.8-14.4a1.44 1.44 0 1 0-1.44-1.44 1.44 1.44 0 0 0 1.44 1.44zm-14.4 0a1.44 1.44 0 1 0-1.44-1.44 1.44 1.44 0 0 0 1.44 1.44zm-14.4 0a1.44 1.44 0 1 0-1.44-1.44 1.44 1.44 0 0 0 1.44 1.44z"></path>
      </g>
      <g class="cls-29">
        <path class="cls-3" d="M345.67 319.53a1.44 1.44 0 1 0-1.44-1.44 1.44 1.44 0 0 0 1.44 1.44zm-14.4 0a1.44 1.44 0 1 0-1.44-1.44 1.44 1.44 0 0 0 1.44 1.44zm14.4-14.4a1.44 1.44 0 1 0-1.44-1.44 1.44 1.44 0 0 0 1.44 1.44zm-14.4 0a1.44 1.44 0 1 0-1.44-1.44 1.44 1.44 0 0 0 1.44 1.44zm-7.2 7.2a1.44 1.44 0 1 0-1.44-1.44 1.44 1.44 0 0 0 1.44 1.44zm14.4 0a1.44 1.44 0 1 0-1.44-1.44 1.44 1.44 0 0 0 1.44 1.44zm-14.4-14.4a1.44 1.44 0 1 0-1.44-1.44 1.44 1.44 0 0 0 1.44 1.44zm14.4 0a1.44 1.44 0 1 0-1.44-1.44 1.44 1.44 0 0 0 1.44 1.44zm-21.6 21.6a1.44 1.44 0 1 0-1.44-1.44 1.44 1.44 0 0 0 1.44 1.44zm0-14.4a1.44 1.44 0 1 0-1.44-1.44 1.44 1.44 0 0 0 1.44 1.44zm28.8-14.4a1.44 1.44 0 1 0-1.44-1.44 1.44 1.44 0 0 0 1.44 1.44zm-14.4 0a1.44 1.44 0 1 0-1.44-1.44 1.44 1.44 0 0 0 1.44 1.44zm-14.4 0a1.44 1.44 0 1 0-1.44-1.44 1.44 1.44 0 0 0 1.44 1.44z"></path>
      </g>
      <g class="cls-30">
        <path class="cls-3" d="M345.67 348.33a1.44 1.44 0 1 0-1.44-1.44 1.44 1.44 0 0 0 1.44 1.44zm-14.4 0a1.44 1.44 0 1 0-1.44-1.44 1.44 1.44 0 0 0 1.44 1.44zm14.4-14.4a1.44 1.44 0 1 0-1.44-1.44 1.44 1.44 0 0 0 1.44 1.44zm-14.4 0a1.44 1.44 0 1 0-1.44-1.44 1.44 1.44 0 0 0 1.44 1.44zm-7.2 7.2a1.44 1.44 0 1 0-1.44-1.44 1.44 1.44 0 0 0 1.44 1.44zm14.4 0a1.44 1.44 0 1 0-1.44-1.44 1.44 1.44 0 0 0 1.44 1.44zm-14.4-14.4a1.44 1.44 0 1 0-1.44-1.44 1.44 1.44 0 0 0 1.44 1.44zm14.4 0a1.44 1.44 0 1 0-1.44-1.44 1.44 1.44 0 0 0 1.44 1.44zm-21.6 21.6a1.44 1.44 0 1 0-1.44-1.44 1.44 1.44 0 0 0 1.44 1.44zm0-14.4a1.44 1.44 0 1 0-1.44-1.44 1.44 1.44 0 0 0 1.44 1.44zm28.8-14.4a1.44 1.44 0 1 0-1.44-1.44 1.44 1.44 0 0 0 1.44 1.44zm-14.4 0a1.44 1.44 0 1 0-1.44-1.44 1.44 1.44 0 0 0 1.44 1.44zm-14.4 0a1.44 1.44 0 1 0-1.44-1.44 1.44 1.44 0 0 0 1.44 1.44z"></path>
      </g>
      <g class="cls-31">
        <path class="cls-3" d="M345.67 377.13a1.44 1.44 0 1 0-1.44-1.44 1.44 1.44 0 0 0 1.44 1.44zm-14.4 0a1.44 1.44 0 1 0-1.44-1.44 1.44 1.44 0 0 0 1.44 1.44zm14.4-14.4a1.44 1.44 0 1 0-1.44-1.44 1.44 1.44 0 0 0 1.44 1.44zm-14.4 0a1.44 1.44 0 1 0-1.44-1.44 1.44 1.44 0 0 0 1.44 1.44zm-7.2 7.2a1.44 1.44 0 1 0-1.44-1.44 1.44 1.44 0 0 0 1.44 1.44zm14.4 0a1.44 1.44 0 1 0-1.44-1.44 1.44 1.44 0 0 0 1.44 1.44zm-14.4-14.4a1.44 1.44 0 1 0-1.44-1.44 1.44 1.44 0 0 0 1.44 1.44zm14.4 0a1.44 1.44 0 1 0-1.44-1.44 1.44 1.44 0 0 0 1.44 1.44zm-21.6 21.6a1.44 1.44 0 1 0-1.44-1.44 1.44 1.44 0 0 0 1.44 1.44zm0-14.4a1.44 1.44 0 1 0-1.44-1.44 1.44 1.44 0 0 0 1.44 1.44zm28.8-14.4a1.44 1.44 0 1 0-1.44-1.44 1.44 1.44 0 0 0 1.44 1.44zm-14.4 0a1.44 1.44 0 1 0-1.44-1.44 1.44 1.44 0 0 0 1.44 1.44zm-14.4 0a1.44 1.44 0 1 0-1.44-1.44 1.44 1.44 0 0 0 1.44 1.44z"></path>
      </g>
      <g class="cls-32">
        <path class="cls-3" d="M316.87 261.93a1.44 1.44 0 1 0-1.44-1.44 1.44 1.44 0 0 0 1.44 1.44zm-14.4 0a1.44 1.44 0 1 0-1.44-1.44 1.44 1.44 0 0 0 1.44 1.44zm14.4-14.4a1.44 1.44 0 1 0-1.44-1.44 1.45 1.45 0 0 0 1.44 1.44zm-14.4 0a1.44 1.44 0 1 0-1.44-1.44 1.45 1.45 0 0 0 1.44 1.44zm-7.2 7.2a1.44 1.44 0 1 0-1.44-1.44 1.44 1.44 0 0 0 1.44 1.44zm14.4 0a1.44 1.44 0 1 0-1.44-1.44 1.44 1.44 0 0 0 1.44 1.44zm-14.4-14.4a1.44 1.44 0 1 0-1.44-1.44 1.44 1.44 0 0 0 1.44 1.44zm14.4 0a1.44 1.44 0 1 0-1.44-1.44 1.44 1.44 0 0 0 1.44 1.44zm-21.6 21.6a1.44 1.44 0 1 0-1.44-1.44 1.44 1.44 0 0 0 1.44 1.44zm0-14.4a1.44 1.44 0 1 0-1.44-1.44 1.45 1.45 0 0 0 1.44 1.44zm28.8-14.4a1.44 1.44 0 1 0-1.44-1.44 1.45 1.45 0 0 0 1.44 1.44zm-14.4 0a1.44 1.44 0 1 0-1.44-1.44 1.45 1.45 0 0 0 1.44 1.44zm-14.4 0a1.44 1.44 0 1 0-1.44-1.44 1.45 1.45 0 0 0 1.44 1.44z"></path>
      </g>
      <g class="cls-33">
        <path class="cls-3" d="M316.87 290.73a1.44 1.44 0 1 0-1.44-1.44 1.44 1.44 0 0 0 1.44 1.44zm-14.4 0a1.44 1.44 0 1 0-1.44-1.44 1.44 1.44 0 0 0 1.44 1.44zm14.4-14.4a1.44 1.44 0 1 0-1.44-1.44 1.44 1.44 0 0 0 1.44 1.44zm-14.4 0a1.44 1.44 0 1 0-1.44-1.44 1.44 1.44 0 0 0 1.44 1.44zm-7.2 7.2a1.44 1.44 0 1 0-1.44-1.44 1.44 1.44 0 0 0 1.44 1.44zm14.4 0a1.44 1.44 0 1 0-1.44-1.44 1.44 1.44 0 0 0 1.44 1.44zm-14.4-14.4a1.44 1.44 0 1 0-1.44-1.44 1.44 1.44 0 0 0 1.44 1.44zm14.4 0a1.44 1.44 0 1 0-1.44-1.44 1.44 1.44 0 0 0 1.44 1.44zm-21.6 21.6a1.44 1.44 0 1 0-1.44-1.44 1.44 1.44 0 0 0 1.44 1.44zm0-14.4a1.44 1.44 0 1 0-1.44-1.44 1.44 1.44 0 0 0 1.44 1.44zm28.8-14.4a1.44 1.44 0 1 0-1.44-1.44 1.44 1.44 0 0 0 1.44 1.44zm-14.4 0a1.44 1.44 0 1 0-1.44-1.44 1.44 1.44 0 0 0 1.44 1.44zm-14.4 0a1.44 1.44 0 1 0-1.44-1.44 1.44 1.44 0 0 0 1.44 1.44z"></path>
      </g>
      <g class="cls-34">
        <path class="cls-3" d="M316.87 319.53a1.44 1.44 0 1 0-1.44-1.44 1.44 1.44 0 0 0 1.44 1.44zm-14.4 0a1.44 1.44 0 1 0-1.44-1.44 1.44 1.44 0 0 0 1.44 1.44zm14.4-14.4a1.44 1.44 0 1 0-1.44-1.44 1.44 1.44 0 0 0 1.44 1.44zm-14.4 0a1.44 1.44 0 1 0-1.44-1.44 1.44 1.44 0 0 0 1.44 1.44zm-7.2 7.2a1.44 1.44 0 1 0-1.44-1.44 1.44 1.44 0 0 0 1.44 1.44zm14.4 0a1.44 1.44 0 1 0-1.44-1.44 1.44 1.44 0 0 0 1.44 1.44zm-14.4-14.4a1.44 1.44 0 1 0-1.44-1.44 1.44 1.44 0 0 0 1.44 1.44zm14.4 0a1.44 1.44 0 1 0-1.44-1.44 1.44 1.44 0 0 0 1.44 1.44zm-21.6 21.6a1.44 1.44 0 1 0-1.44-1.44 1.44 1.44 0 0 0 1.44 1.44zm0-14.4a1.44 1.44 0 1 0-1.44-1.44 1.44 1.44 0 0 0 1.44 1.44zm28.8-14.4a1.44 1.44 0 1 0-1.44-1.44 1.44 1.44 0 0 0 1.44 1.44zm-14.4 0a1.44 1.44 0 1 0-1.44-1.44 1.44 1.44 0 0 0 1.44 1.44zm-14.4 0a1.44 1.44 0 1 0-1.44-1.44 1.44 1.44 0 0 0 1.44 1.44z"></path>
      </g>
      <g class="cls-35">
        <path class="cls-3" d="M316.87 348.33a1.44 1.44 0 1 0-1.44-1.44 1.44 1.44 0 0 0 1.44 1.44zm-14.4 0a1.44 1.44 0 1 0-1.44-1.44 1.44 1.44 0 0 0 1.44 1.44zm14.4-14.4a1.44 1.44 0 1 0-1.44-1.44 1.44 1.44 0 0 0 1.44 1.44zm-14.4 0a1.44 1.44 0 1 0-1.44-1.44 1.44 1.44 0 0 0 1.44 1.44zm-7.2 7.2a1.44 1.44 0 1 0-1.44-1.44 1.44 1.44 0 0 0 1.44 1.44zm14.4 0a1.44 1.44 0 1 0-1.44-1.44 1.44 1.44 0 0 0 1.44 1.44zm-14.4-14.4a1.44 1.44 0 1 0-1.44-1.44 1.44 1.44 0 0 0 1.44 1.44zm14.4 0a1.44 1.44 0 1 0-1.44-1.44 1.44 1.44 0 0 0 1.44 1.44zm-21.6 21.6a1.44 1.44 0 1 0-1.44-1.44 1.44 1.44 0 0 0 1.44 1.44zm0-14.4a1.44 1.44 0 1 0-1.44-1.44 1.44 1.44 0 0 0 1.44 1.44zm28.8-14.4a1.44 1.44 0 1 0-1.44-1.44 1.44 1.44 0 0 0 1.44 1.44zm-14.4 0a1.44 1.44 0 1 0-1.44-1.44 1.44 1.44 0 0 0 1.44 1.44zm-14.4 0a1.44 1.44 0 1 0-1.44-1.44 1.44 1.44 0 0 0 1.44 1.44z"></path>
      </g>
      <g class="cls-36">
        <path class="cls-3" d="M316.87 377.13a1.44 1.44 0 1 0-1.44-1.44 1.44 1.44 0 0 0 1.44 1.44zm-14.4 0a1.44 1.44 0 1 0-1.44-1.44 1.44 1.44 0 0 0 1.44 1.44zm14.4-14.4a1.44 1.44 0 1 0-1.44-1.44 1.44 1.44 0 0 0 1.44 1.44zm-14.4 0a1.44 1.44 0 1 0-1.44-1.44 1.44 1.44 0 0 0 1.44 1.44zm-7.2 7.2a1.44 1.44 0 1 0-1.44-1.44 1.44 1.44 0 0 0 1.44 1.44zm14.4 0a1.44 1.44 0 1 0-1.44-1.44 1.44 1.44 0 0 0 1.44 1.44zm-14.4-14.4a1.44 1.44 0 1 0-1.44-1.44 1.44 1.44 0 0 0 1.44 1.44zm14.4 0a1.44 1.44 0 1 0-1.44-1.44 1.44 1.44 0 0 0 1.44 1.44zm-21.6 21.6a1.44 1.44 0 1 0-1.44-1.44 1.44 1.44 0 0 0 1.44 1.44zm0-14.4a1.44 1.44 0 1 0-1.44-1.44 1.44 1.44 0 0 0 1.44 1.44zm28.8-14.4a1.44 1.44 0 1 0-1.44-1.44 1.44 1.44 0 0 0 1.44 1.44zm-14.4 0a1.44 1.44 0 1 0-1.44-1.44 1.44 1.44 0 0 0 1.44 1.44zm-14.4 0a1.44 1.44 0 1 0-1.44-1.44 1.44 1.44 0 0 0 1.44 1.44z"></path>
      </g>
      <g class="cls-37">
        <path class="cls-3" d="M288.07 261.93a1.44 1.44 0 1 0-1.44-1.44 1.44 1.44 0 0 0 1.44 1.44zm-14.4 0a1.44 1.44 0 1 0-1.44-1.44 1.44 1.44 0 0 0 1.44 1.44zm14.4-14.4a1.44 1.44 0 1 0-1.44-1.44 1.45 1.45 0 0 0 1.44 1.44zm-14.4 0a1.44 1.44 0 1 0-1.44-1.44 1.45 1.45 0 0 0 1.44 1.44zm-7.2 7.2a1.44 1.44 0 1 0-1.44-1.44 1.44 1.44 0 0 0 1.44 1.44zm14.4 0a1.44 1.44 0 1 0-1.44-1.44 1.44 1.44 0 0 0 1.44 1.44zm-14.4-14.4a1.44 1.44 0 1 0-1.44-1.44 1.44 1.44 0 0 0 1.44 1.44zm14.4 0a1.44 1.44 0 1 0-1.44-1.44 1.44 1.44 0 0 0 1.44 1.44zm-21.6 21.6a1.44 1.44 0 1 0-1.44-1.44 1.44 1.44 0 0 0 1.44 1.44zm0-14.4a1.44 1.44 0 1 0-1.44-1.44 1.45 1.45 0 0 0 1.44 1.44zm28.8-14.4a1.44 1.44 0 1 0-1.44-1.44 1.45 1.45 0 0 0 1.44 1.44zm-14.4 0a1.44 1.44 0 1 0-1.44-1.44 1.45 1.45 0 0 0 1.44 1.44zm-14.4 0a1.44 1.44 0 1 0-1.44-1.44 1.45 1.45 0 0 0 1.44 1.44z"></path>
      </g>
      <g class="cls-38">
        <path class="cls-3" d="M288.07 290.73a1.44 1.44 0 1 0-1.44-1.44 1.44 1.44 0 0 0 1.44 1.44zm-14.4 0a1.44 1.44 0 1 0-1.44-1.44 1.44 1.44 0 0 0 1.44 1.44zm14.4-14.4a1.44 1.44 0 1 0-1.44-1.44 1.44 1.44 0 0 0 1.44 1.44zm-14.4 0a1.44 1.44 0 1 0-1.44-1.44 1.44 1.44 0 0 0 1.44 1.44zm-7.2 7.2a1.44 1.44 0 1 0-1.44-1.44 1.44 1.44 0 0 0 1.44 1.44zm14.4 0a1.44 1.44 0 1 0-1.44-1.44 1.44 1.44 0 0 0 1.44 1.44zm-14.4-14.4a1.44 1.44 0 1 0-1.44-1.44 1.44 1.44 0 0 0 1.44 1.44zm14.4 0a1.44 1.44 0 1 0-1.44-1.44 1.44 1.44 0 0 0 1.44 1.44zm-21.6 21.6a1.44 1.44 0 1 0-1.44-1.44 1.44 1.44 0 0 0 1.44 1.44zm0-14.4a1.44 1.44 0 1 0-1.44-1.44 1.44 1.44 0 0 0 1.44 1.44zm28.8-14.4a1.44 1.44 0 1 0-1.44-1.44 1.44 1.44 0 0 0 1.44 1.44zm-14.4 0a1.44 1.44 0 1 0-1.44-1.44 1.44 1.44 0 0 0 1.44 1.44zm-14.4 0a1.44 1.44 0 1 0-1.44-1.44 1.44 1.44 0 0 0 1.44 1.44z"></path>
      </g>
      <g class="cls-39">
        <path class="cls-3" d="M288.07 319.53a1.44 1.44 0 1 0-1.44-1.44 1.44 1.44 0 0 0 1.44 1.44zm-14.4 0a1.44 1.44 0 1 0-1.44-1.44 1.44 1.44 0 0 0 1.44 1.44zm14.4-14.4a1.44 1.44 0 1 0-1.44-1.44 1.44 1.44 0 0 0 1.44 1.44zm-14.4 0a1.44 1.44 0 1 0-1.44-1.44 1.44 1.44 0 0 0 1.44 1.44zm-7.2 7.2a1.44 1.44 0 1 0-1.44-1.44 1.44 1.44 0 0 0 1.44 1.44zm14.4 0a1.44 1.44 0 1 0-1.44-1.44 1.44 1.44 0 0 0 1.44 1.44zm-14.4-14.4a1.44 1.44 0 1 0-1.44-1.44 1.44 1.44 0 0 0 1.44 1.44zm14.4 0a1.44 1.44 0 1 0-1.44-1.44 1.44 1.44 0 0 0 1.44 1.44zm-21.6 21.6a1.44 1.44 0 1 0-1.44-1.44 1.44 1.44 0 0 0 1.44 1.44zm0-14.4a1.44 1.44 0 1 0-1.44-1.44 1.44 1.44 0 0 0 1.44 1.44zm28.8-14.4a1.44 1.44 0 1 0-1.44-1.44 1.44 1.44 0 0 0 1.44 1.44zm-14.4 0a1.44 1.44 0 1 0-1.44-1.44 1.44 1.44 0 0 0 1.44 1.44zm-14.4 0a1.44 1.44 0 1 0-1.44-1.44 1.44 1.44 0 0 0 1.44 1.44z"></path>
      </g>
      <g class="cls-40">
        <path class="cls-3" d="M288.07 348.33a1.44 1.44 0 1 0-1.44-1.44 1.44 1.44 0 0 0 1.44 1.44zm-14.4 0a1.44 1.44 0 1 0-1.44-1.44 1.44 1.44 0 0 0 1.44 1.44zm14.4-14.4a1.44 1.44 0 1 0-1.44-1.44 1.44 1.44 0 0 0 1.44 1.44zm-14.4 0a1.44 1.44 0 1 0-1.44-1.44 1.44 1.44 0 0 0 1.44 1.44zm-7.2 7.2a1.44 1.44 0 1 0-1.44-1.44 1.44 1.44 0 0 0 1.44 1.44zm14.4 0a1.44 1.44 0 1 0-1.44-1.44 1.44 1.44 0 0 0 1.44 1.44zm-14.4-14.4a1.44 1.44 0 1 0-1.44-1.44 1.44 1.44 0 0 0 1.44 1.44zm14.4 0a1.44 1.44 0 1 0-1.44-1.44 1.44 1.44 0 0 0 1.44 1.44zm-21.6 21.6a1.44 1.44 0 1 0-1.44-1.44 1.44 1.44 0 0 0 1.44 1.44zm0-14.4a1.44 1.44 0 1 0-1.44-1.44 1.44 1.44 0 0 0 1.44 1.44zm28.8-14.4a1.44 1.44 0 1 0-1.44-1.44 1.44 1.44 0 0 0 1.44 1.44zm-14.4 0a1.44 1.44 0 1 0-1.44-1.44 1.44 1.44 0 0 0 1.44 1.44zm-14.4 0a1.44 1.44 0 1 0-1.44-1.44 1.44 1.44 0 0 0 1.44 1.44z"></path>
      </g>
      <g class="cls-41">
        <path class="cls-3" d="M288.07 377.13a1.44 1.44 0 1 0-1.44-1.44 1.44 1.44 0 0 0 1.44 1.44zm-14.4 0a1.44 1.44 0 1 0-1.44-1.44 1.44 1.44 0 0 0 1.44 1.44zm14.4-14.4a1.44 1.44 0 1 0-1.44-1.44 1.44 1.44 0 0 0 1.44 1.44zm-14.4 0a1.44 1.44 0 1 0-1.44-1.44 1.44 1.44 0 0 0 1.44 1.44zm-7.2 7.2a1.44 1.44 0 1 0-1.44-1.44 1.44 1.44 0 0 0 1.44 1.44zm14.4 0a1.44 1.44 0 1 0-1.44-1.44 1.44 1.44 0 0 0 1.44 1.44zm-14.4-14.4a1.44 1.44 0 1 0-1.44-1.44 1.44 1.44 0 0 0 1.44 1.44zm14.4 0a1.44 1.44 0 1 0-1.44-1.44 1.44 1.44 0 0 0 1.44 1.44zm-21.6 21.6a1.44 1.44 0 1 0-1.44-1.44 1.44 1.44 0 0 0 1.44 1.44zm0-14.4a1.44 1.44 0 1 0-1.44-1.44 1.44 1.44 0 0 0 1.44 1.44zm28.8-14.4a1.44 1.44 0 1 0-1.44-1.44 1.44 1.44 0 0 0 1.44 1.44zm-14.4 0a1.44 1.44 0 1 0-1.44-1.44 1.44 1.44 0 0 0 1.44 1.44zm-14.4 0a1.44 1.44 0 1 0-1.44-1.44 1.44 1.44 0 0 0 1.44 1.44z"></path>
      </g>
      <g class="cls-42">
        <path class="cls-3" d="M259.27 261.93a1.44 1.44 0 1 0-1.44-1.44 1.44 1.44 0 0 0 1.44 1.44zm-14.4 0a1.44 1.44 0 1 0-1.44-1.44 1.44 1.44 0 0 0 1.44 1.44zm14.4-14.4a1.44 1.44 0 1 0-1.44-1.44 1.45 1.45 0 0 0 1.44 1.44zm-14.4 0a1.44 1.44 0 1 0-1.44-1.44 1.45 1.45 0 0 0 1.44 1.44zm-7.2 7.2a1.44 1.44 0 1 0-1.44-1.44 1.44 1.44 0 0 0 1.44 1.44zm14.4 0a1.44 1.44 0 1 0-1.44-1.44 1.44 1.44 0 0 0 1.44 1.44zm-14.4-14.4a1.44 1.44 0 1 0-1.44-1.44 1.44 1.44 0 0 0 1.44 1.44zm14.4 0a1.44 1.44 0 1 0-1.44-1.44 1.44 1.44 0 0 0 1.44 1.44zm-21.6 21.6a1.44 1.44 0 1 0-1.44-1.44 1.44 1.44 0 0 0 1.44 1.44zm0-14.4a1.44 1.44 0 1 0-1.44-1.44 1.45 1.45 0 0 0 1.44 1.44zm28.8-14.4a1.44 1.44 0 1 0-1.44-1.44 1.45 1.45 0 0 0 1.44 1.44zm-14.4 0a1.44 1.44 0 1 0-1.44-1.44 1.45 1.45 0 0 0 1.44 1.44zm-14.4 0a1.44 1.44 0 1 0-1.44-1.44 1.45 1.45 0 0 0 1.44 1.44z"></path>
      </g>
      <g class="cls-43">
        <path class="cls-3" d="M259.27 290.73a1.44 1.44 0 1 0-1.44-1.44 1.44 1.44 0 0 0 1.44 1.44zm-14.4 0a1.44 1.44 0 1 0-1.44-1.44 1.44 1.44 0 0 0 1.44 1.44zm14.4-14.4a1.44 1.44 0 1 0-1.44-1.44 1.44 1.44 0 0 0 1.44 1.44zm-14.4 0a1.44 1.44 0 1 0-1.44-1.44 1.44 1.44 0 0 0 1.44 1.44zm-7.2 7.2a1.44 1.44 0 1 0-1.44-1.44 1.44 1.44 0 0 0 1.44 1.44zm14.4 0a1.44 1.44 0 1 0-1.44-1.44 1.44 1.44 0 0 0 1.44 1.44zm-14.4-14.4a1.44 1.44 0 1 0-1.44-1.44 1.44 1.44 0 0 0 1.44 1.44zm14.4 0a1.44 1.44 0 1 0-1.44-1.44 1.44 1.44 0 0 0 1.44 1.44zm-21.6 21.6a1.44 1.44 0 1 0-1.44-1.44 1.44 1.44 0 0 0 1.44 1.44zm0-14.4a1.44 1.44 0 1 0-1.44-1.44 1.44 1.44 0 0 0 1.44 1.44zm28.8-14.4a1.44 1.44 0 1 0-1.44-1.44 1.44 1.44 0 0 0 1.44 1.44zm-14.4 0a1.44 1.44 0 1 0-1.44-1.44 1.44 1.44 0 0 0 1.44 1.44zm-14.4 0a1.44 1.44 0 1 0-1.44-1.44 1.44 1.44 0 0 0 1.44 1.44z"></path>
      </g>
      <g class="cls-44">
        <path class="cls-3" d="M259.27 319.53a1.44 1.44 0 1 0-1.44-1.44 1.44 1.44 0 0 0 1.44 1.44zm-14.4 0a1.44 1.44 0 1 0-1.44-1.44 1.44 1.44 0 0 0 1.44 1.44zm14.4-14.4a1.44 1.44 0 1 0-1.44-1.44 1.44 1.44 0 0 0 1.44 1.44zm-14.4 0a1.44 1.44 0 1 0-1.44-1.44 1.44 1.44 0 0 0 1.44 1.44zm-7.2 7.2a1.44 1.44 0 1 0-1.44-1.44 1.44 1.44 0 0 0 1.44 1.44zm14.4 0a1.44 1.44 0 1 0-1.44-1.44 1.44 1.44 0 0 0 1.44 1.44zm-14.4-14.4a1.44 1.44 0 1 0-1.44-1.44 1.44 1.44 0 0 0 1.44 1.44zm14.4 0a1.44 1.44 0 1 0-1.44-1.44 1.44 1.44 0 0 0 1.44 1.44zm-21.6 21.6a1.44 1.44 0 1 0-1.44-1.44 1.44 1.44 0 0 0 1.44 1.44zm0-14.4a1.44 1.44 0 1 0-1.44-1.44 1.44 1.44 0 0 0 1.44 1.44zm28.8-14.4a1.44 1.44 0 1 0-1.44-1.44 1.44 1.44 0 0 0 1.44 1.44zm-14.4 0a1.44 1.44 0 1 0-1.44-1.44 1.44 1.44 0 0 0 1.44 1.44zm-14.4 0a1.44 1.44 0 1 0-1.44-1.44 1.44 1.44 0 0 0 1.44 1.44z"></path>
      </g>
      <g class="cls-45">
        <path class="cls-3" d="M259.27 348.33a1.44 1.44 0 1 0-1.44-1.44 1.44 1.44 0 0 0 1.44 1.44zm-14.4 0a1.44 1.44 0 1 0-1.44-1.44 1.44 1.44 0 0 0 1.44 1.44zm14.4-14.4a1.44 1.44 0 1 0-1.44-1.44 1.44 1.44 0 0 0 1.44 1.44zm-14.4 0a1.44 1.44 0 1 0-1.44-1.44 1.44 1.44 0 0 0 1.44 1.44zm-7.2 7.2a1.44 1.44 0 1 0-1.44-1.44 1.44 1.44 0 0 0 1.44 1.44zm14.4 0a1.44 1.44 0 1 0-1.44-1.44 1.44 1.44 0 0 0 1.44 1.44zm-14.4-14.4a1.44 1.44 0 1 0-1.44-1.44 1.44 1.44 0 0 0 1.44 1.44zm14.4 0a1.44 1.44 0 1 0-1.44-1.44 1.44 1.44 0 0 0 1.44 1.44zm-21.6 21.6a1.44 1.44 0 1 0-1.44-1.44 1.44 1.44 0 0 0 1.44 1.44zm0-14.4a1.44 1.44 0 1 0-1.44-1.44 1.44 1.44 0 0 0 1.44 1.44zm28.8-14.4a1.44 1.44 0 1 0-1.44-1.44 1.44 1.44 0 0 0 1.44 1.44zm-14.4 0a1.44 1.44 0 1 0-1.44-1.44 1.44 1.44 0 0 0 1.44 1.44zm-14.4 0a1.44 1.44 0 1 0-1.44-1.44 1.44 1.44 0 0 0 1.44 1.44z"></path>
      </g>
      <g class="cls-46">
        <path class="cls-3" d="M259.27 377.13a1.44 1.44 0 1 0-1.44-1.44 1.44 1.44 0 0 0 1.44 1.44zm-14.4 0a1.44 1.44 0 1 0-1.44-1.44 1.44 1.44 0 0 0 1.44 1.44zm14.4-14.4a1.44 1.44 0 1 0-1.44-1.44 1.44 1.44 0 0 0 1.44 1.44zm-14.4 0a1.44 1.44 0 1 0-1.44-1.44 1.44 1.44 0 0 0 1.44 1.44zm-7.2 7.2a1.44 1.44 0 1 0-1.44-1.44 1.44 1.44 0 0 0 1.44 1.44zm14.4 0a1.44 1.44 0 1 0-1.44-1.44 1.44 1.44 0 0 0 1.44 1.44zm-14.4-14.4a1.44 1.44 0 1 0-1.44-1.44 1.44 1.44 0 0 0 1.44 1.44zm14.4 0a1.44 1.44 0 1 0-1.44-1.44 1.44 1.44 0 0 0 1.44 1.44zm-21.6 21.6a1.44 1.44 0 1 0-1.44-1.44 1.44 1.44 0 0 0 1.44 1.44zm0-14.4a1.44 1.44 0 1 0-1.44-1.44 1.44 1.44 0 0 0 1.44 1.44zm28.8-14.4a1.44 1.44 0 1 0-1.44-1.44 1.44 1.44 0 0 0 1.44 1.44zm-14.4 0a1.44 1.44 0 1 0-1.44-1.44 1.44 1.44 0 0 0 1.44 1.44zm-14.4 0a1.44 1.44 0 1 0-1.44-1.44 1.44 1.44 0 0 0 1.44 1.44z"></path>
      </g>
      <g class="cls-47">
        <path class="cls-3" d="M230.47 261.93a1.44 1.44 0 1 0-1.44-1.44 1.44 1.44 0 0 0 1.44 1.44zm-14.4 0a1.44 1.44 0 1 0-1.44-1.44 1.44 1.44 0 0 0 1.44 1.44zm14.4-14.4a1.44 1.44 0 1 0-1.44-1.44 1.45 1.45 0 0 0 1.44 1.44zm-14.4 0a1.44 1.44 0 1 0-1.44-1.44 1.45 1.45 0 0 0 1.44 1.44zm-7.2 7.2a1.44 1.44 0 1 0-1.44-1.44 1.44 1.44 0 0 0 1.44 1.44zm14.4 0a1.44 1.44 0 1 0-1.44-1.44 1.44 1.44 0 0 0 1.44 1.44zm-14.4-14.4a1.44 1.44 0 1 0-1.44-1.44 1.44 1.44 0 0 0 1.44 1.44zm14.4 0a1.44 1.44 0 1 0-1.44-1.44 1.44 1.44 0 0 0 1.44 1.44zm-21.6 21.6a1.44 1.44 0 1 0-1.44-1.44 1.44 1.44 0 0 0 1.44 1.44zm0-14.4a1.44 1.44 0 1 0-1.44-1.44 1.45 1.45 0 0 0 1.44 1.44zm28.8-14.4a1.44 1.44 0 1 0-1.44-1.44 1.45 1.45 0 0 0 1.44 1.44zm-14.4 0a1.44 1.44 0 1 0-1.44-1.44 1.45 1.45 0 0 0 1.44 1.44zm-14.4 0a1.44 1.44 0 1 0-1.44-1.44 1.45 1.45 0 0 0 1.44 1.44z"></path>
      </g>
      <g class="cls-48">
        <path class="cls-3" d="M230.47 290.73a1.44 1.44 0 1 0-1.44-1.44 1.44 1.44 0 0 0 1.44 1.44zm-14.4 0a1.44 1.44 0 1 0-1.44-1.44 1.44 1.44 0 0 0 1.44 1.44zm14.4-14.4a1.44 1.44 0 1 0-1.44-1.44 1.44 1.44 0 0 0 1.44 1.44zm-14.4 0a1.44 1.44 0 1 0-1.44-1.44 1.44 1.44 0 0 0 1.44 1.44zm-7.2 7.2a1.44 1.44 0 1 0-1.44-1.44 1.44 1.44 0 0 0 1.44 1.44zm14.4 0a1.44 1.44 0 1 0-1.44-1.44 1.44 1.44 0 0 0 1.44 1.44zm-14.4-14.4a1.44 1.44 0 1 0-1.44-1.44 1.44 1.44 0 0 0 1.44 1.44zm14.4 0a1.44 1.44 0 1 0-1.44-1.44 1.44 1.44 0 0 0 1.44 1.44zm-21.6 21.6a1.44 1.44 0 1 0-1.44-1.44 1.44 1.44 0 0 0 1.44 1.44zm0-14.4a1.44 1.44 0 1 0-1.44-1.44 1.44 1.44 0 0 0 1.44 1.44zm28.8-14.4a1.44 1.44 0 1 0-1.44-1.44 1.44 1.44 0 0 0 1.44 1.44zm-14.4 0a1.44 1.44 0 1 0-1.44-1.44 1.44 1.44 0 0 0 1.44 1.44zm-14.4 0a1.44 1.44 0 1 0-1.44-1.44 1.44 1.44 0 0 0 1.44 1.44z"></path>
      </g>
      <g class="cls-49">
        <path class="cls-3" d="M230.47 319.53a1.44 1.44 0 1 0-1.44-1.44 1.44 1.44 0 0 0 1.44 1.44zm-14.4 0a1.44 1.44 0 1 0-1.44-1.44 1.44 1.44 0 0 0 1.44 1.44zm14.4-14.4a1.44 1.44 0 1 0-1.44-1.44 1.44 1.44 0 0 0 1.44 1.44zm-14.4 0a1.44 1.44 0 1 0-1.44-1.44 1.44 1.44 0 0 0 1.44 1.44zm-7.2 7.2a1.44 1.44 0 1 0-1.44-1.44 1.44 1.44 0 0 0 1.44 1.44zm14.4 0a1.44 1.44 0 1 0-1.44-1.44 1.44 1.44 0 0 0 1.44 1.44zm-14.4-14.4a1.44 1.44 0 1 0-1.44-1.44 1.44 1.44 0 0 0 1.44 1.44zm14.4 0a1.44 1.44 0 1 0-1.44-1.44 1.44 1.44 0 0 0 1.44 1.44zm-21.6 21.6a1.44 1.44 0 1 0-1.44-1.44 1.44 1.44 0 0 0 1.44 1.44zm0-14.4a1.44 1.44 0 1 0-1.44-1.44 1.44 1.44 0 0 0 1.44 1.44zm28.8-14.4a1.44 1.44 0 1 0-1.44-1.44 1.44 1.44 0 0 0 1.44 1.44zm-14.4 0a1.44 1.44 0 1 0-1.44-1.44 1.44 1.44 0 0 0 1.44 1.44zm-14.4 0a1.44 1.44 0 1 0-1.44-1.44 1.44 1.44 0 0 0 1.44 1.44z"></path>
      </g>
      <g class="cls-50">
        <path class="cls-3" d="M230.47 348.33a1.44 1.44 0 1 0-1.44-1.44 1.44 1.44 0 0 0 1.44 1.44zm-14.4 0a1.44 1.44 0 1 0-1.44-1.44 1.44 1.44 0 0 0 1.44 1.44zm14.4-14.4a1.44 1.44 0 1 0-1.44-1.44 1.44 1.44 0 0 0 1.44 1.44zm-14.4 0a1.44 1.44 0 1 0-1.44-1.44 1.44 1.44 0 0 0 1.44 1.44zm-7.2 7.2a1.44 1.44 0 1 0-1.44-1.44 1.44 1.44 0 0 0 1.44 1.44zm14.4 0a1.44 1.44 0 1 0-1.44-1.44 1.44 1.44 0 0 0 1.44 1.44zm-14.4-14.4a1.44 1.44 0 1 0-1.44-1.44 1.44 1.44 0 0 0 1.44 1.44zm14.4 0a1.44 1.44 0 1 0-1.44-1.44 1.44 1.44 0 0 0 1.44 1.44zm-21.6 21.6a1.44 1.44 0 1 0-1.44-1.44 1.44 1.44 0 0 0 1.44 1.44zm0-14.4a1.44 1.44 0 1 0-1.44-1.44 1.44 1.44 0 0 0 1.44 1.44zm28.8-14.4a1.44 1.44 0 1 0-1.44-1.44 1.44 1.44 0 0 0 1.44 1.44zm-14.4 0a1.44 1.44 0 1 0-1.44-1.44 1.44 1.44 0 0 0 1.44 1.44zm-14.4 0a1.44 1.44 0 1 0-1.44-1.44 1.44 1.44 0 0 0 1.44 1.44z"></path>
      </g>
      <g class="cls-51">
        <path class="cls-3" d="M230.47 377.13a1.44 1.44 0 1 0-1.44-1.44 1.44 1.44 0 0 0 1.44 1.44zm-14.4 0a1.44 1.44 0 1 0-1.44-1.44 1.44 1.44 0 0 0 1.44 1.44zm14.4-14.4a1.44 1.44 0 1 0-1.44-1.44 1.44 1.44 0 0 0 1.44 1.44zm-14.4 0a1.44 1.44 0 1 0-1.44-1.44 1.44 1.44 0 0 0 1.44 1.44zm-7.2 7.2a1.44 1.44 0 1 0-1.44-1.44 1.44 1.44 0 0 0 1.44 1.44zm14.4 0a1.44 1.44 0 1 0-1.44-1.44 1.44 1.44 0 0 0 1.44 1.44zm-14.4-14.4a1.44 1.44 0 1 0-1.44-1.44 1.44 1.44 0 0 0 1.44 1.44zm14.4 0a1.44 1.44 0 1 0-1.44-1.44 1.44 1.44 0 0 0 1.44 1.44zm-21.6 21.6a1.44 1.44 0 1 0-1.44-1.44 1.44 1.44 0 0 0 1.44 1.44zm0-14.4a1.44 1.44 0 1 0-1.44-1.44 1.44 1.44 0 0 0 1.44 1.44zm28.8-14.4a1.44 1.44 0 1 0-1.44-1.44 1.44 1.44 0 0 0 1.44 1.44zm-14.4 0a1.44 1.44 0 1 0-1.44-1.44 1.44 1.44 0 0 0 1.44 1.44zm-14.4 0a1.44 1.44 0 1 0-1.44-1.44 1.44 1.44 0 0 0 1.44 1.44z"></path>
      </g>
      <g class="cls-52">
        <path class="cls-3" d="M201.67 261.93a1.44 1.44 0 1 0-1.44-1.44 1.44 1.44 0 0 0 1.44 1.44zm-14.4 0a1.44 1.44 0 1 0-1.44-1.44 1.44 1.44 0 0 0 1.44 1.44zm14.4-14.4a1.44 1.44 0 1 0-1.44-1.44 1.45 1.45 0 0 0 1.44 1.44zm-14.4 0a1.44 1.44 0 1 0-1.44-1.44 1.45 1.45 0 0 0 1.44 1.44zm-7.2 7.2a1.44 1.44 0 1 0-1.44-1.44 1.44 1.44 0 0 0 1.44 1.44zm14.4 0a1.44 1.44 0 1 0-1.44-1.44 1.44 1.44 0 0 0 1.44 1.44zm-14.4-14.4a1.44 1.44 0 1 0-1.44-1.44 1.44 1.44 0 0 0 1.44 1.44zm14.4 0a1.44 1.44 0 1 0-1.44-1.44 1.44 1.44 0 0 0 1.44 1.44zm-21.6 21.6a1.44 1.44 0 1 0-1.44-1.44 1.44 1.44 0 0 0 1.44 1.44zm0-14.4a1.44 1.44 0 1 0-1.44-1.44 1.45 1.45 0 0 0 1.44 1.44zm28.8-14.4a1.44 1.44 0 1 0-1.44-1.44 1.45 1.45 0 0 0 1.44 1.44zm-14.4 0a1.44 1.44 0 1 0-1.44-1.44 1.45 1.45 0 0 0 1.44 1.44zm-14.4 0a1.44 1.44 0 1 0-1.44-1.44 1.45 1.45 0 0 0 1.44 1.44z"></path>
      </g>
      <g class="cls-53">
        <path class="cls-3" d="M201.67 290.73a1.44 1.44 0 1 0-1.44-1.44 1.44 1.44 0 0 0 1.44 1.44zm-14.4 0a1.44 1.44 0 1 0-1.44-1.44 1.44 1.44 0 0 0 1.44 1.44zm14.4-14.4a1.44 1.44 0 1 0-1.44-1.44 1.44 1.44 0 0 0 1.44 1.44zm-14.4 0a1.44 1.44 0 1 0-1.44-1.44 1.44 1.44 0 0 0 1.44 1.44zm-7.2 7.2a1.44 1.44 0 1 0-1.44-1.44 1.44 1.44 0 0 0 1.44 1.44zm14.4 0a1.44 1.44 0 1 0-1.44-1.44 1.44 1.44 0 0 0 1.44 1.44zm-14.4-14.4a1.44 1.44 0 1 0-1.44-1.44 1.44 1.44 0 0 0 1.44 1.44zm14.4 0a1.44 1.44 0 1 0-1.44-1.44 1.44 1.44 0 0 0 1.44 1.44zm-21.6 21.6a1.44 1.44 0 1 0-1.44-1.44 1.44 1.44 0 0 0 1.44 1.44zm0-14.4a1.44 1.44 0 1 0-1.44-1.44 1.44 1.44 0 0 0 1.44 1.44zm28.8-14.4a1.44 1.44 0 1 0-1.44-1.44 1.44 1.44 0 0 0 1.44 1.44zm-14.4 0a1.44 1.44 0 1 0-1.44-1.44 1.44 1.44 0 0 0 1.44 1.44zm-14.4 0a1.44 1.44 0 1 0-1.44-1.44 1.44 1.44 0 0 0 1.44 1.44z"></path>
      </g>
      <g class="cls-54">
        <path class="cls-3" d="M201.67 319.53a1.44 1.44 0 1 0-1.44-1.44 1.44 1.44 0 0 0 1.44 1.44zm-14.4 0a1.44 1.44 0 1 0-1.44-1.44 1.44 1.44 0 0 0 1.44 1.44zm14.4-14.4a1.44 1.44 0 1 0-1.44-1.44 1.44 1.44 0 0 0 1.44 1.44zm-14.4 0a1.44 1.44 0 1 0-1.44-1.44 1.44 1.44 0 0 0 1.44 1.44zm-7.2 7.2a1.44 1.44 0 1 0-1.44-1.44 1.44 1.44 0 0 0 1.44 1.44zm14.4 0a1.44 1.44 0 1 0-1.44-1.44 1.44 1.44 0 0 0 1.44 1.44zm-14.4-14.4a1.44 1.44 0 1 0-1.44-1.44 1.44 1.44 0 0 0 1.44 1.44zm14.4 0a1.44 1.44 0 1 0-1.44-1.44 1.44 1.44 0 0 0 1.44 1.44zm-21.6 21.6a1.44 1.44 0 1 0-1.44-1.44 1.44 1.44 0 0 0 1.44 1.44zm0-14.4a1.44 1.44 0 1 0-1.44-1.44 1.44 1.44 0 0 0 1.44 1.44zm28.8-14.4a1.44 1.44 0 1 0-1.44-1.44 1.44 1.44 0 0 0 1.44 1.44zm-14.4 0a1.44 1.44 0 1 0-1.44-1.44 1.44 1.44 0 0 0 1.44 1.44zm-14.4 0a1.44 1.44 0 1 0-1.44-1.44 1.44 1.44 0 0 0 1.44 1.44z"></path>
      </g>
      <g class="cls-55">
        <path class="cls-3" d="M201.67 348.33a1.44 1.44 0 1 0-1.44-1.44 1.44 1.44 0 0 0 1.44 1.44zm-14.4 0a1.44 1.44 0 1 0-1.44-1.44 1.44 1.44 0 0 0 1.44 1.44zm14.4-14.4a1.44 1.44 0 1 0-1.44-1.44 1.44 1.44 0 0 0 1.44 1.44zm-14.4 0a1.44 1.44 0 1 0-1.44-1.44 1.44 1.44 0 0 0 1.44 1.44zm-7.2 7.2a1.44 1.44 0 1 0-1.44-1.44 1.44 1.44 0 0 0 1.44 1.44zm14.4 0a1.44 1.44 0 1 0-1.44-1.44 1.44 1.44 0 0 0 1.44 1.44zm-14.4-14.4a1.44 1.44 0 1 0-1.44-1.44 1.44 1.44 0 0 0 1.44 1.44zm14.4 0a1.44 1.44 0 1 0-1.44-1.44 1.44 1.44 0 0 0 1.44 1.44zm-21.6 21.6a1.44 1.44 0 1 0-1.44-1.44 1.44 1.44 0 0 0 1.44 1.44zm0-14.4a1.44 1.44 0 1 0-1.44-1.44 1.44 1.44 0 0 0 1.44 1.44zm28.8-14.4a1.44 1.44 0 1 0-1.44-1.44 1.44 1.44 0 0 0 1.44 1.44zm-14.4 0a1.44 1.44 0 1 0-1.44-1.44 1.44 1.44 0 0 0 1.44 1.44zm-14.4 0a1.44 1.44 0 1 0-1.44-1.44 1.44 1.44 0 0 0 1.44 1.44z"></path>
      </g>
      <g class="cls-56">
        <path class="cls-3" d="M201.67 377.13a1.44 1.44 0 1 0-1.44-1.44 1.44 1.44 0 0 0 1.44 1.44zm-14.4 0a1.44 1.44 0 1 0-1.44-1.44 1.44 1.44 0 0 0 1.44 1.44zm14.4-14.4a1.44 1.44 0 1 0-1.44-1.44 1.44 1.44 0 0 0 1.44 1.44zm-14.4 0a1.44 1.44 0 1 0-1.44-1.44 1.44 1.44 0 0 0 1.44 1.44zm-7.2 7.2a1.44 1.44 0 1 0-1.44-1.44 1.44 1.44 0 0 0 1.44 1.44zm14.4 0a1.44 1.44 0 1 0-1.44-1.44 1.44 1.44 0 0 0 1.44 1.44zm-14.4-14.4a1.44 1.44 0 1 0-1.44-1.44 1.44 1.44 0 0 0 1.44 1.44zm14.4 0a1.44 1.44 0 1 0-1.44-1.44 1.44 1.44 0 0 0 1.44 1.44zm-21.6 21.6a1.44 1.44 0 1 0-1.44-1.44 1.44 1.44 0 0 0 1.44 1.44zm0-14.4a1.44 1.44 0 1 0-1.44-1.44 1.44 1.44 0 0 0 1.44 1.44zm28.8-14.4a1.44 1.44 0 1 0-1.44-1.44 1.44 1.44 0 0 0 1.44 1.44zm-14.4 0a1.44 1.44 0 1 0-1.44-1.44 1.44 1.44 0 0 0 1.44 1.44zm-14.4 0a1.44 1.44 0 1 0-1.44-1.44 1.44 1.44 0 0 0 1.44 1.44z"></path>
      </g>
      <g class="cls-57">
        <path class="cls-3" d="M172.87 261.93a1.44 1.44 0 1 0-1.44-1.44 1.44 1.44 0 0 0 1.44 1.44zm-14.4 0a1.44 1.44 0 1 0-1.44-1.44 1.44 1.44 0 0 0 1.44 1.44zm14.4-14.4a1.44 1.44 0 1 0-1.44-1.44 1.45 1.45 0 0 0 1.44 1.44zm-14.4 0a1.44 1.44 0 1 0-1.44-1.44 1.45 1.45 0 0 0 1.44 1.44zm-7.2 7.2a1.44 1.44 0 1 0-1.44-1.44 1.44 1.44 0 0 0 1.44 1.44zm14.4 0a1.44 1.44 0 1 0-1.44-1.44 1.44 1.44 0 0 0 1.44 1.44zm-14.4-14.4a1.44 1.44 0 1 0-1.44-1.44 1.44 1.44 0 0 0 1.44 1.44zm14.4 0a1.44 1.44 0 1 0-1.44-1.44 1.44 1.44 0 0 0 1.44 1.44zm-21.6 21.6a1.44 1.44 0 1 0-1.44-1.44 1.44 1.44 0 0 0 1.44 1.44zm0-14.4a1.44 1.44 0 1 0-1.44-1.44 1.45 1.45 0 0 0 1.44 1.44zm28.8-14.4a1.44 1.44 0 1 0-1.44-1.44 1.45 1.45 0 0 0 1.44 1.44zm-14.4 0a1.44 1.44 0 1 0-1.44-1.44 1.45 1.45 0 0 0 1.44 1.44zm-14.4 0a1.44 1.44 0 1 0-1.44-1.44 1.45 1.45 0 0 0 1.44 1.44z"></path>
      </g>
      <g class="cls-58">
        <path class="cls-3" d="M172.87 290.73a1.44 1.44 0 1 0-1.44-1.44 1.44 1.44 0 0 0 1.44 1.44zm-14.4 0a1.44 1.44 0 1 0-1.44-1.44 1.44 1.44 0 0 0 1.44 1.44zm14.4-14.4a1.44 1.44 0 1 0-1.44-1.44 1.44 1.44 0 0 0 1.44 1.44zm-14.4 0a1.44 1.44 0 1 0-1.44-1.44 1.44 1.44 0 0 0 1.44 1.44zm-7.2 7.2a1.44 1.44 0 1 0-1.44-1.44 1.44 1.44 0 0 0 1.44 1.44zm14.4 0a1.44 1.44 0 1 0-1.44-1.44 1.44 1.44 0 0 0 1.44 1.44zm-14.4-14.4a1.44 1.44 0 1 0-1.44-1.44 1.44 1.44 0 0 0 1.44 1.44zm14.4 0a1.44 1.44 0 1 0-1.44-1.44 1.44 1.44 0 0 0 1.44 1.44zm-21.6 21.6a1.44 1.44 0 1 0-1.44-1.44 1.44 1.44 0 0 0 1.44 1.44zm0-14.4a1.44 1.44 0 1 0-1.44-1.44 1.44 1.44 0 0 0 1.44 1.44zm28.8-14.4a1.44 1.44 0 1 0-1.44-1.44 1.44 1.44 0 0 0 1.44 1.44zm-14.4 0a1.44 1.44 0 1 0-1.44-1.44 1.44 1.44 0 0 0 1.44 1.44zm-14.4 0a1.44 1.44 0 1 0-1.44-1.44 1.44 1.44 0 0 0 1.44 1.44z"></path>
      </g>
      <g class="cls-59">
        <path class="cls-3" d="M172.87 319.53a1.44 1.44 0 1 0-1.44-1.44 1.44 1.44 0 0 0 1.44 1.44zm-14.4 0a1.44 1.44 0 1 0-1.44-1.44 1.44 1.44 0 0 0 1.44 1.44zm14.4-14.4a1.44 1.44 0 1 0-1.44-1.44 1.44 1.44 0 0 0 1.44 1.44zm-14.4 0a1.44 1.44 0 1 0-1.44-1.44 1.44 1.44 0 0 0 1.44 1.44zm-7.2 7.2a1.44 1.44 0 1 0-1.44-1.44 1.44 1.44 0 0 0 1.44 1.44zm14.4 0a1.44 1.44 0 1 0-1.44-1.44 1.44 1.44 0 0 0 1.44 1.44zm-14.4-14.4a1.44 1.44 0 1 0-1.44-1.44 1.44 1.44 0 0 0 1.44 1.44zm14.4 0a1.44 1.44 0 1 0-1.44-1.44 1.44 1.44 0 0 0 1.44 1.44zm-21.6 21.6a1.44 1.44 0 1 0-1.44-1.44 1.44 1.44 0 0 0 1.44 1.44zm0-14.4a1.44 1.44 0 1 0-1.44-1.44 1.44 1.44 0 0 0 1.44 1.44zm28.8-14.4a1.44 1.44 0 1 0-1.44-1.44 1.44 1.44 0 0 0 1.44 1.44zm-14.4 0a1.44 1.44 0 1 0-1.44-1.44 1.44 1.44 0 0 0 1.44 1.44zm-14.4 0a1.44 1.44 0 1 0-1.44-1.44 1.44 1.44 0 0 0 1.44 1.44z"></path>
      </g>
      <g class="cls-60">
        <path class="cls-3" d="M172.87 348.33a1.44 1.44 0 1 0-1.44-1.44 1.44 1.44 0 0 0 1.44 1.44zm-14.4 0a1.44 1.44 0 1 0-1.44-1.44 1.44 1.44 0 0 0 1.44 1.44zm14.4-14.4a1.44 1.44 0 1 0-1.44-1.44 1.44 1.44 0 0 0 1.44 1.44zm-14.4 0a1.44 1.44 0 1 0-1.44-1.44 1.44 1.44 0 0 0 1.44 1.44zm-7.2 7.2a1.44 1.44 0 1 0-1.44-1.44 1.44 1.44 0 0 0 1.44 1.44zm14.4 0a1.44 1.44 0 1 0-1.44-1.44 1.44 1.44 0 0 0 1.44 1.44zm-14.4-14.4a1.44 1.44 0 1 0-1.44-1.44 1.44 1.44 0 0 0 1.44 1.44zm14.4 0a1.44 1.44 0 1 0-1.44-1.44 1.44 1.44 0 0 0 1.44 1.44zm-21.6 21.6a1.44 1.44 0 1 0-1.44-1.44 1.44 1.44 0 0 0 1.44 1.44zm0-14.4a1.44 1.44 0 1 0-1.44-1.44 1.44 1.44 0 0 0 1.44 1.44zm28.8-14.4a1.44 1.44 0 1 0-1.44-1.44 1.44 1.44 0 0 0 1.44 1.44zm-14.4 0a1.44 1.44 0 1 0-1.44-1.44 1.44 1.44 0 0 0 1.44 1.44zm-14.4 0a1.44 1.44 0 1 0-1.44-1.44 1.44 1.44 0 0 0 1.44 1.44z"></path>
      </g>
      <g class="cls-61">
        <path class="cls-3" d="M172.87 377.13a1.44 1.44 0 1 0-1.44-1.44 1.44 1.44 0 0 0 1.44 1.44zm-14.4 0a1.44 1.44 0 1 0-1.44-1.44 1.44 1.44 0 0 0 1.44 1.44zm14.4-14.4a1.44 1.44 0 1 0-1.44-1.44 1.44 1.44 0 0 0 1.44 1.44zm-14.4 0a1.44 1.44 0 1 0-1.44-1.44 1.44 1.44 0 0 0 1.44 1.44zm-7.2 7.2a1.44 1.44 0 1 0-1.44-1.44 1.44 1.44 0 0 0 1.44 1.44zm14.4 0a1.44 1.44 0 1 0-1.44-1.44 1.44 1.44 0 0 0 1.44 1.44zm-14.4-14.4a1.44 1.44 0 1 0-1.44-1.44 1.44 1.44 0 0 0 1.44 1.44zm14.4 0a1.44 1.44 0 1 0-1.44-1.44 1.44 1.44 0 0 0 1.44 1.44zm-21.6 21.6a1.44 1.44 0 1 0-1.44-1.44 1.44 1.44 0 0 0 1.44 1.44zm0-14.4a1.44 1.44 0 1 0-1.44-1.44 1.44 1.44 0 0 0 1.44 1.44zm28.8-14.4a1.44 1.44 0 1 0-1.44-1.44 1.44 1.44 0 0 0 1.44 1.44zm-14.4 0a1.44 1.44 0 1 0-1.44-1.44 1.44 1.44 0 0 0 1.44 1.44zm-14.4 0a1.44 1.44 0 1 0-1.44-1.44 1.44 1.44 0 0 0 1.44 1.44z"></path>
      </g>
    </g>
    <path class="cls-3" d="M443.38 352.26H156.62V242.72h286.76zm-283.26-3.5h279.76V246.22H160.12z"></path>
    <path class="cls-62" d="M158.37 269.91H441.63V323.04H158.37z"></path>
    <path class="cls-3" d="M443.38 324.79H156.62v-56.63h286.76zm-283.26-3.5h279.76v-49.63H160.12z"></path>
    <path class="cls-3" d="M178.05 284.35h8.39c8.46 0 13.4 4.32 13.4 12.78 0 8.06-4.94 12.64-13.4 12.64h-8.39zm9.29 19.06c9.37 0 11-2.83 11-6.28 0-4.14-2.29-6.43-11-6.43h-7.51v12.71zm19.1-19.06h18.63v6.35h-16.85v3.45h16.45v5.41h-16.45v3.85h16.85v6.36h-18.63zM231 297.06c0-8.17 4.47-13.26 11.84-13.26s11.8 5.09 11.8 13.26-4.47 13.25-11.8 13.25S231 305.23 231 297.06zm22.15 0c0-2.8-2-7-10.31-7s-10.35 4.21-10.35 7 2 7 10.35 7 10.26-4.21 10.26-7zm8.04-12.71h8.39c8.46 0 13.4 4.32 13.4 12.78 0 8.06-4.94 12.64-13.4 12.64h-8.39zm9.3 19.06c9.37 0 11-2.83 11-6.28 0-4.14-2.28-6.43-11-6.43H263v12.71zm18.59-6.35c0-8.17 4.47-13.26 11.84-13.26s11.8 5.09 11.8 13.26-4.47 13.25-11.8 13.25-11.84-5.08-11.84-13.25zm22.15 0c0-2.8-2-7-10.31-7s-10.35 4.21-10.35 7 2 7 10.35 7 10.31-4.21 10.31-7zm23.93 2.83l3.88 9.88h-6l-3.64-9.08h-8.3v9.08h-1.78v-25.42h10.75c4 0 9.81.83 9.81 8.06 0 4.25-1.96 6.46-4.72 7.48zm-14.06-5.27h8.36c7.44 0 9.22-.07 9.22-2.18s-2.07-2-9.22-2h-8.36zm32.9-10.27h6.87l9.4 25.42h-6.94l-1.45-4.18h-13.51l-1.37 4.18h-2.18zm5.85 15.47l-4.69-13.59-4.83 13.59zm15.43-15.47h3.81l15.4 19v-19h1.78v25.42h-3.81l-15.4-18.31v18.31h-1.78zm35.65 6.35h-9.51v-6.35h20.84v6.35h-9.55v19.07h-1.78z"></path>
  </g>
</svg>
