<?xml version="1.0" encoding="UTF-8"?>
<svg xmlns="http://www.w3.org/2000/svg" viewBox="0 0 600 600">
  <defs>
    <style>.cls-1,.cls-7{fill:none}.cls-2{fill:#1c19a9}.cls-3{fill:#fc715d}.cls-3,.cls-4,.cls-5,.cls-6,.cls-7{stroke:#1c19a9}.cls-3,.cls-6,.cls-7{stroke-linecap:round;stroke-linejoin:round;stroke-width:3.71px}.cls-4,.cls-5{fill:#fd0;stroke-miterlimit:10;stroke-width:4.32px}.cls-5{fill:url(#Blue_dots_2)}.cls-6{fill:#fffff7}</style>
    <pattern id="Blue_dots_2" data-name="Blue dots 2" width="28.8" height="28.8" patternTransform="matrix(1.1 0 0 1.1 -670.6 1.82)" patternUnits="userSpaceOnUse">
      <path class="cls-1" d="M0 0H28.8V28.8H0z"></path>
      <path class="cls-2" d="M28.8 30.24a1.44 1.44 0 1 0-1.44-1.44 1.44 1.44 0 0 0 1.44 1.44zm-14.4 0A1.44 1.44 0 1 0 13 28.8a1.44 1.44 0 0 0 1.4 1.44zm14.4-14.4a1.44 1.44 0 1 0-1.44-1.44 1.44 1.44 0 0 0 1.44 1.44zm-14.4 0A1.44 1.44 0 1 0 13 14.4a1.44 1.44 0 0 0 1.4 1.44zM7.2 23a1.44 1.44 0 1 0-1.44-1.4A1.44 1.44 0 0 0 7.2 23zm14.4 0a1.44 1.44 0 1 0-1.44-1.44A1.44 1.44 0 0 0 21.6 23zM7.2 8.64A1.44 1.44 0 1 0 5.76 7.2 1.44 1.44 0 0 0 7.2 8.64zm14.4 0a1.44 1.44 0 1 0-1.44-1.44 1.44 1.44 0 0 0 1.44 1.44zM0 30.24a1.44 1.44 0 0 0 1.44-1.44A1.45 1.45 0 0 0 0 27.36a1.44 1.44 0 0 0-1.44 1.44A1.43 1.43 0 0 0 0 30.24zm0-14.4a1.44 1.44 0 0 0 1.44-1.44A1.45 1.45 0 0 0 0 13a1.44 1.44 0 0 0-1.44 1.4A1.43 1.43 0 0 0 0 15.84zm28.8-14.4A1.45 1.45 0 0 0 30.24 0a1.45 1.45 0 0 0-1.44-1.44A1.44 1.44 0 0 0 27.36 0a1.44 1.44 0 0 0 1.44 1.44zm-14.4 0A1.45 1.45 0 0 0 15.84 0a1.45 1.45 0 0 0-1.44-1.44A1.44 1.44 0 0 0 13 0a1.44 1.44 0 0 0 1.4 1.44zM0 1.44A1.45 1.45 0 0 0 1.44 0 1.45 1.45 0 0 0 0-1.44 1.44 1.44 0 0 0-1.44 0 1.44 1.44 0 0 0 0 1.44z"></path>
    </pattern>
  </defs>
  <g id="Layer_2" data-name="Layer 2">
    <path class="cls-3" d="M160.75 191.82h275.11v247.81a31.43 31.43 0 0 1-31.43 31.43H192.18a31.43 31.43 0 0 1-31.43-31.43V191.82z"></path>
    <path class="cls-4" d="M452.62 223.48c-19.08 0-19.08-24.7-38.16-24.7s-19.08 24.7-38.16 24.7-19.08-24.7-38.16-24.7-19.08 24.7-38.16 24.7-19.07-24.7-38.15-24.7-19.08 24.7-38.15 24.7-19.08-24.7-38.15-24.7-19.07 24.7-38.15 24.7l13.37-48h275.11zm-270.3-94.54h232a21.56 21.56 0 0 1 21.56 21.56v24.95H160.75v-24.94a21.56 21.56 0 0 1 21.57-21.57z"></path>
    <path class="cls-5" d="M452.62 223.48c-19.08 0-19.08-24.7-38.16-24.7s-19.08 24.7-38.16 24.7-19.08-24.7-38.16-24.7-19.08 24.7-38.16 24.7-19.07-24.7-38.15-24.7-19.08 24.7-38.15 24.7-19.08-24.7-38.15-24.7-19.07 24.7-38.15 24.7l13.37-48h275.11zm-270.3-94.54h232a21.56 21.56 0 0 1 21.56 21.56v24.95H160.75v-24.94a21.56 21.56 0 0 1 21.57-21.57z"></path>
    <circle class="cls-6" cx="300.31" cy="349.03" r="83.18"></circle>
    <circle class="cls-6" cx="300.31" cy="349.03" r="73.15"></circle>
    <circle class="cls-6" cx="300.31" cy="349.03" r="63.12"></circle>
    <circle class="cls-6" cx="300.31" cy="349.03" r="53.09"></circle>
    <circle class="cls-6" cx="300.31" cy="349.03" r="43.05"></circle>
    <circle class="cls-6" cx="300.31" cy="349.03" r="33.02"></circle>
    <circle class="cls-6" cx="300.31" cy="349.03" r="22.99"></circle>
    <circle class="cls-6" cx="300.31" cy="349.03" r="12.96"></circle>
    <path class="cls-6" d="M359.13 290.21a83.18 83.18 0 0 1-117.64 117.64z"></path>
    <path class="cls-7" d="M226.17 423.17l15.32-15.32s-10.19 7.77-20.52 2.2m20.52-2.2s-7.77 10.19-2.19 20.52"></path>
    <path class="cls-6" d="M361.59 263.28L365.53 283.81 361.59 263.28 353.43 284.51 364.83 295.91 386.06 287.75 365.53 283.81"></path>
  </g>
</svg>
