<?xml version="1.0" encoding="UTF-8"?>
<svg xmlns="http://www.w3.org/2000/svg" viewBox="0 0 600 600">
  <defs>
    <style>.cls-1{fill:none}.cls-2,.cls-3{fill:#1c19a9}.cls-10,.cls-3,.cls-4,.cls-5,.cls-6,.cls-7,.cls-8,.cls-9{stroke:#1c19a9}.cls-3{stroke-miterlimit:10}.cls-3,.cls-4,.cls-5,.cls-6,.cls-7,.cls-8,.cls-9{stroke-width:3.5px}.cls-4,.cls-7{fill:#fd0}.cls-10,.cls-4,.cls-5,.cls-6,.cls-7,.cls-8,.cls-9{stroke-linejoin:round}.cls-5{fill:url(#Blue_dots_2)}.cls-10,.cls-6{fill:#fff}.cls-10,.cls-6,.cls-7,.cls-8,.cls-9{stroke-linecap:round}.cls-8{fill:url(#Blue_dots_2-3)}.cls-9{fill:#34c18b}.cls-10{stroke-width:2.8px}</style>
    <pattern id="Blue_dots_2" data-name="Blue dots 2" width="28.8" height="28.8" patternTransform="translate(-732.61 30.41)" patternUnits="userSpaceOnUse">
      <path class="cls-1" d="M0 0H28.8V28.8H0z"></path>
      <path class="cls-2" d="M28.8 30.24a1.44 1.44 0 1 0-1.44-1.44 1.44 1.44 0 0 0 1.44 1.44zm-14.4 0A1.44 1.44 0 1 0 13 28.8a1.44 1.44 0 0 0 1.4 1.44zm14.4-14.4a1.44 1.44 0 1 0-1.44-1.44 1.44 1.44 0 0 0 1.44 1.44zm-14.4 0A1.44 1.44 0 1 0 13 14.4a1.44 1.44 0 0 0 1.4 1.44zM7.2 23a1.44 1.44 0 1 0-1.44-1.4A1.44 1.44 0 0 0 7.2 23zm14.4 0a1.44 1.44 0 1 0-1.44-1.44A1.44 1.44 0 0 0 21.6 23zM7.2 8.64A1.44 1.44 0 1 0 5.76 7.2 1.44 1.44 0 0 0 7.2 8.64zm14.4 0a1.44 1.44 0 1 0-1.44-1.44 1.44 1.44 0 0 0 1.44 1.44zM0 30.24a1.44 1.44 0 0 0 1.44-1.44A1.45 1.45 0 0 0 0 27.36a1.44 1.44 0 0 0-1.44 1.44A1.43 1.43 0 0 0 0 30.24zm0-14.4a1.44 1.44 0 0 0 1.44-1.44A1.45 1.45 0 0 0 0 13a1.44 1.44 0 0 0-1.44 1.4A1.43 1.43 0 0 0 0 15.84zm28.8-14.4A1.45 1.45 0 0 0 30.24 0a1.45 1.45 0 0 0-1.44-1.44A1.44 1.44 0 0 0 27.36 0a1.44 1.44 0 0 0 1.44 1.44zm-14.4 0A1.45 1.45 0 0 0 15.84 0a1.45 1.45 0 0 0-1.44-1.44A1.44 1.44 0 0 0 13 0a1.44 1.44 0 0 0 1.4 1.44zM0 1.44A1.45 1.45 0 0 0 1.44 0 1.45 1.45 0 0 0 0-1.44 1.44 1.44 0 0 0-1.44 0 1.44 1.44 0 0 0 0 1.44z"></path>
    </pattern>
    <pattern id="Blue_dots_2-3" data-name="Blue dots 2" width="28.8" height="28.8" patternTransform="translate(-734.82 62.11)" patternUnits="userSpaceOnUse">
      <path class="cls-1" d="M0 0H28.8V28.8H0z"></path>
      <path class="cls-2" d="M28.8 30.24a1.44 1.44 0 1 0-1.44-1.44 1.44 1.44 0 0 0 1.44 1.44zm-14.4 0A1.44 1.44 0 1 0 13 28.8a1.44 1.44 0 0 0 1.4 1.44zm14.4-14.4a1.44 1.44 0 1 0-1.44-1.44 1.44 1.44 0 0 0 1.44 1.44zm-14.4 0A1.44 1.44 0 1 0 13 14.4a1.44 1.44 0 0 0 1.4 1.44zM7.2 23a1.44 1.44 0 1 0-1.44-1.4A1.44 1.44 0 0 0 7.2 23zm14.4 0a1.44 1.44 0 1 0-1.44-1.44A1.44 1.44 0 0 0 21.6 23zM7.2 8.64A1.44 1.44 0 1 0 5.76 7.2 1.44 1.44 0 0 0 7.2 8.64zm14.4 0a1.44 1.44 0 1 0-1.44-1.44 1.44 1.44 0 0 0 1.44 1.44zM0 30.24a1.44 1.44 0 0 0 1.44-1.44A1.45 1.45 0 0 0 0 27.36a1.44 1.44 0 0 0-1.44 1.44A1.43 1.43 0 0 0 0 30.24zm0-14.4a1.44 1.44 0 0 0 1.44-1.44A1.45 1.45 0 0 0 0 13a1.44 1.44 0 0 0-1.44 1.4A1.43 1.43 0 0 0 0 15.84zm28.8-14.4A1.45 1.45 0 0 0 30.24 0a1.45 1.45 0 0 0-1.44-1.44A1.44 1.44 0 0 0 27.36 0a1.44 1.44 0 0 0 1.44 1.44zm-14.4 0A1.45 1.45 0 0 0 15.84 0a1.45 1.45 0 0 0-1.44-1.44A1.44 1.44 0 0 0 13 0a1.44 1.44 0 0 0 1.4 1.44zM0 1.44A1.45 1.45 0 0 0 1.44 0 1.45 1.45 0 0 0 0-1.44 1.44 1.44 0 0 0-1.44 0 1.44 1.44 0 0 0 0 1.44z"></path>
    </pattern>
  </defs>
  <g id="Layer_2" data-name="Layer 2">
    <rect class="cls-3" x="264.55" y="125.76" width="68.93" height="40.25" rx="5.02"></rect>
    <path class="cls-4" d="M218.44 268.63h163.12V452a22.2 22.2 0 0 1-22.2 22.2H240.64a22.2 22.2 0 0 1-22.2-22.2V268.63z"></path>
    <path class="cls-5" d="M218.44 268.63h163.12V452a22.2 22.2 0 0 1-22.2 22.2H240.64a22.2 22.2 0 0 1-22.2-22.2V268.63z"></path>
    <path class="cls-6" d="M328.5 166.01L269.54 166.01 218.44 268.63 381.56 268.63 328.5 166.01z"></path>
    <path class="cls-7" d="M355.03 217.32L381.56 268.63 218.44 268.63 243.99 217.32 355.03 217.32z"></path>
    <path class="cls-8" d="M355.03 217.32L381.56 268.63 218.44 268.63 243.99 217.32 355.03 217.32z"></path>
    <path class="cls-9" d="M218.44 268.63H381.57V401.4H218.44z"></path>
    <circle class="cls-10" cx="300.62" cy="336.96" r="33.77"></circle>
    <path class="cls-2" d="M296.48 344.2l-12 12a3.1 3.1 0 0 0 .47 4.76 28.28 28.28 0 0 0 9.95 4.04 3.08 3.08 0 0 0 3.69-3v-17a1.24 1.24 0 0 0-2.11-.87zm8.28-14.05l12-12a3.09 3.09 0 0 0 .89-2.49 3.13 3.13 0 0 0-1.35-2.27 28.14 28.14 0 0 0-9.95-4.11 3.07 3.07 0 0 0-3.68 3v17a1.24 1.24 0 0 0 2.11.87zm-11.98 9.06h-17a3 3 0 0 0-2.37 1.14 3.1 3.1 0 0 0-.63 2.56 28.39 28.39 0 0 0 4.09 9.9c1.07 1.63 3.39 1.86 5.81-.55l11-11a1.2 1.2 0 0 0 .27-1.32 1.21 1.21 0 0 0-1.12-.74zm-17.02-4.07h17a1.22 1.22 0 0 0 1.12-.75 1.2 1.2 0 0 0-.27-1.32l-11-11c-2.42-2.41-4.74-2.18-5.81-.54a28.31 28.31 0 0 0-4.09 9.9 3.09 3.09 0 0 0 3 3.7zm19.14-25.82a28.1 28.1 0 0 0-9.94 4.11 3.1 3.1 0 0 0-.47 4.76l12 12a1.24 1.24 0 0 0 2.11-.87v-17a3.08 3.08 0 0 0-3.69-3zm9.86 34.88a1.25 1.25 0 0 0-1.35-.27 1.23 1.23 0 0 0-.76 1.14v17a3.07 3.07 0 0 0 3.68 3 28.33 28.33 0 0 0 9.95-4.11 3.13 3.13 0 0 0 1.35-2.27 3.09 3.09 0 0 0-.89-2.49zm13.82-22.11l-11 11a1.21 1.21 0 0 0 .86 2.06h17a3.11 3.11 0 0 0 2.38-1.14 3.07 3.07 0 0 0 .62-2.56 28.29 28.29 0 0 0-4.08-9.9c-1.08-1.63-3.39-1.87-5.81.56zm6.89 17.12h-17a1.21 1.21 0 0 0-.86 2.06l11 11c2.42 2.42 4.74 2.19 5.81.55a28.11 28.11 0 0 0 4.08-9.9 3.06 3.06 0 0 0-.62-2.56 3.1 3.1 0 0 0-2.38-1.14z"></path>
    <path class="cls-2" d="M296.48 344.2l-12 12a3.1 3.1 0 0 0 .47 4.76 28.28 28.28 0 0 0 9.95 4.04 3.08 3.08 0 0 0 3.69-3v-17a1.24 1.24 0 0 0-2.11-.87zm8.28-14.05l12-12a3.09 3.09 0 0 0 .89-2.49 3.13 3.13 0 0 0-1.35-2.27 28.14 28.14 0 0 0-9.95-4.11 3.07 3.07 0 0 0-3.68 3v17a1.24 1.24 0 0 0 2.11.87zm-11.98 9.06h-17a3 3 0 0 0-2.37 1.14 3.1 3.1 0 0 0-.63 2.56 28.39 28.39 0 0 0 4.09 9.9c1.07 1.63 3.39 1.86 5.81-.55l11-11a1.2 1.2 0 0 0 .27-1.32 1.21 1.21 0 0 0-1.12-.74zm-17.02-4.07h17a1.22 1.22 0 0 0 1.12-.75 1.2 1.2 0 0 0-.27-1.32l-11-11c-2.42-2.41-4.74-2.18-5.81-.54a28.31 28.31 0 0 0-4.09 9.9 3.09 3.09 0 0 0 3 3.7zm19.14-25.82a28.1 28.1 0 0 0-9.94 4.11 3.1 3.1 0 0 0-.47 4.76l12 12a1.24 1.24 0 0 0 2.11-.87v-17a3.08 3.08 0 0 0-3.69-3zm9.86 34.88a1.25 1.25 0 0 0-1.35-.27 1.23 1.23 0 0 0-.76 1.14v17a3.07 3.07 0 0 0 3.68 3 28.33 28.33 0 0 0 9.95-4.11 3.13 3.13 0 0 0 1.35-2.27 3.09 3.09 0 0 0-.89-2.49zm13.82-22.11l-11 11a1.21 1.21 0 0 0 .86 2.06h17a3.11 3.11 0 0 0 2.38-1.14 3.07 3.07 0 0 0 .62-2.56 28.29 28.29 0 0 0-4.08-9.9c-1.08-1.63-3.39-1.87-5.81.56zm6.89 17.12h-17a1.21 1.21 0 0 0-.86 2.06l11 11c2.42 2.42 4.74 2.19 5.81.55a28.11 28.11 0 0 0 4.08-9.9 3.06 3.06 0 0 0-.62-2.56 3.1 3.1 0 0 0-2.38-1.14z"></path>
    <path class="cls-2" d="M296.48 344.2l-12 12a3.1 3.1 0 0 0 .47 4.76 28.28 28.28 0 0 0 9.95 4.04 3.08 3.08 0 0 0 3.69-3v-17a1.24 1.24 0 0 0-2.11-.87zm8.28-14.05l12-12a3.09 3.09 0 0 0 .89-2.49 3.13 3.13 0 0 0-1.35-2.27 28.14 28.14 0 0 0-9.95-4.11 3.07 3.07 0 0 0-3.68 3v17a1.24 1.24 0 0 0 2.11.87zm-11.98 9.06h-17a3 3 0 0 0-2.37 1.14 3.1 3.1 0 0 0-.63 2.56 28.39 28.39 0 0 0 4.09 9.9c1.07 1.63 3.39 1.86 5.81-.55l11-11a1.2 1.2 0 0 0 .27-1.32 1.21 1.21 0 0 0-1.12-.74zm-17.02-4.07h17a1.22 1.22 0 0 0 1.12-.75 1.2 1.2 0 0 0-.27-1.32l-11-11c-2.42-2.41-4.74-2.18-5.81-.54a28.31 28.31 0 0 0-4.09 9.9 3.09 3.09 0 0 0 3 3.7zm19.14-25.82a28.1 28.1 0 0 0-9.94 4.11 3.1 3.1 0 0 0-.47 4.76l12 12a1.24 1.24 0 0 0 2.11-.87v-17a3.08 3.08 0 0 0-3.69-3zm9.86 34.88a1.25 1.25 0 0 0-1.35-.27 1.23 1.23 0 0 0-.76 1.14v17a3.07 3.07 0 0 0 3.68 3 28.33 28.33 0 0 0 9.95-4.11 3.13 3.13 0 0 0 1.35-2.27 3.09 3.09 0 0 0-.89-2.49zm13.82-22.11l-11 11a1.21 1.21 0 0 0 .86 2.06h17a3.11 3.11 0 0 0 2.38-1.14 3.07 3.07 0 0 0 .62-2.56 28.29 28.29 0 0 0-4.08-9.9c-1.08-1.63-3.39-1.87-5.81.56zm6.89 17.12h-17a1.21 1.21 0 0 0-.86 2.06l11 11c2.42 2.42 4.74 2.19 5.81.55a28.11 28.11 0 0 0 4.08-9.9 3.06 3.06 0 0 0-.62-2.56 3.1 3.1 0 0 0-2.38-1.14z"></path>
    <path class="cls-2" d="M296.48 344.2l-12 12a3.1 3.1 0 0 0 .47 4.76 28.28 28.28 0 0 0 9.95 4.04 3.08 3.08 0 0 0 3.69-3v-17a1.24 1.24 0 0 0-2.11-.87zm8.28-14.05l12-12a3.09 3.09 0 0 0 .89-2.49 3.13 3.13 0 0 0-1.35-2.27 28.14 28.14 0 0 0-9.95-4.11 3.07 3.07 0 0 0-3.68 3v17a1.24 1.24 0 0 0 2.11.87zm-11.98 9.06h-17a3 3 0 0 0-2.37 1.14 3.1 3.1 0 0 0-.63 2.56 28.39 28.39 0 0 0 4.09 9.9c1.07 1.63 3.39 1.86 5.81-.55l11-11a1.2 1.2 0 0 0 .27-1.32 1.21 1.21 0 0 0-1.12-.74zm-17.02-4.07h17a1.22 1.22 0 0 0 1.12-.75 1.2 1.2 0 0 0-.27-1.32l-11-11c-2.42-2.41-4.74-2.18-5.81-.54a28.31 28.31 0 0 0-4.09 9.9 3.09 3.09 0 0 0 3 3.7zm19.14-25.82a28.1 28.1 0 0 0-9.94 4.11 3.1 3.1 0 0 0-.47 4.76l12 12a1.24 1.24 0 0 0 2.11-.87v-17a3.08 3.08 0 0 0-3.69-3zm9.86 34.88a1.25 1.25 0 0 0-1.35-.27 1.23 1.23 0 0 0-.76 1.14v17a3.07 3.07 0 0 0 3.68 3 28.33 28.33 0 0 0 9.95-4.11 3.13 3.13 0 0 0 1.35-2.27 3.09 3.09 0 0 0-.89-2.49zm13.82-22.11l-11 11a1.21 1.21 0 0 0 .86 2.06h17a3.11 3.11 0 0 0 2.38-1.14 3.07 3.07 0 0 0 .62-2.56 28.29 28.29 0 0 0-4.08-9.9c-1.08-1.63-3.39-1.87-5.81.56zm6.89 17.12h-17a1.21 1.21 0 0 0-.86 2.06l11 11c2.42 2.42 4.74 2.19 5.81.55a28.11 28.11 0 0 0 4.08-9.9 3.06 3.06 0 0 0-.62-2.56 3.1 3.1 0 0 0-2.38-1.14z"></path>
    <path class="cls-2" d="M296.48 344.2l-12 12a3.1 3.1 0 0 0 .47 4.76 28.28 28.28 0 0 0 9.95 4.04 3.08 3.08 0 0 0 3.69-3v-17a1.24 1.24 0 0 0-2.11-.87zm8.28-14.05l12-12a3.09 3.09 0 0 0 .89-2.49 3.13 3.13 0 0 0-1.35-2.27 28.14 28.14 0 0 0-9.95-4.11 3.07 3.07 0 0 0-3.68 3v17a1.24 1.24 0 0 0 2.11.87zm-11.98 9.06h-17a3 3 0 0 0-2.37 1.14 3.1 3.1 0 0 0-.63 2.56 28.39 28.39 0 0 0 4.09 9.9c1.07 1.63 3.39 1.86 5.81-.55l11-11a1.2 1.2 0 0 0 .27-1.32 1.21 1.21 0 0 0-1.12-.74zm-17.02-4.07h17a1.22 1.22 0 0 0 1.12-.75 1.2 1.2 0 0 0-.27-1.32l-11-11c-2.42-2.41-4.74-2.18-5.81-.54a28.31 28.31 0 0 0-4.09 9.9 3.09 3.09 0 0 0 3 3.7zm19.14-25.82a28.1 28.1 0 0 0-9.94 4.11 3.1 3.1 0 0 0-.47 4.76l12 12a1.24 1.24 0 0 0 2.11-.87v-17a3.08 3.08 0 0 0-3.69-3zm9.86 34.88a1.25 1.25 0 0 0-1.35-.27 1.23 1.23 0 0 0-.76 1.14v17a3.07 3.07 0 0 0 3.68 3 28.33 28.33 0 0 0 9.95-4.11 3.13 3.13 0 0 0 1.35-2.27 3.09 3.09 0 0 0-.89-2.49zm13.82-22.11l-11 11a1.21 1.21 0 0 0 .86 2.06h17a3.11 3.11 0 0 0 2.38-1.14 3.07 3.07 0 0 0 .62-2.56 28.29 28.29 0 0 0-4.08-9.9c-1.08-1.63-3.39-1.87-5.81.56zm6.89 17.12h-17a1.21 1.21 0 0 0-.86 2.06l11 11c2.42 2.42 4.74 2.19 5.81.55a28.11 28.11 0 0 0 4.08-9.9 3.06 3.06 0 0 0-.62-2.56 3.1 3.1 0 0 0-2.38-1.14z"></path>
    <path class="cls-2" d="M296.48 344.2l-12 12a3.1 3.1 0 0 0 .47 4.76 28.28 28.28 0 0 0 9.95 4.04 3.08 3.08 0 0 0 3.69-3v-17a1.24 1.24 0 0 0-2.11-.87zm8.28-14.05l12-12a3.09 3.09 0 0 0 .89-2.49 3.13 3.13 0 0 0-1.35-2.27 28.14 28.14 0 0 0-9.95-4.11 3.07 3.07 0 0 0-3.68 3v17a1.24 1.24 0 0 0 2.11.87zm-11.98 9.06h-17a3 3 0 0 0-2.37 1.14 3.1 3.1 0 0 0-.63 2.56 28.39 28.39 0 0 0 4.09 9.9c1.07 1.63 3.39 1.86 5.81-.55l11-11a1.2 1.2 0 0 0 .27-1.32 1.21 1.21 0 0 0-1.12-.74zm-17.02-4.07h17a1.22 1.22 0 0 0 1.12-.75 1.2 1.2 0 0 0-.27-1.32l-11-11c-2.42-2.41-4.74-2.18-5.81-.54a28.31 28.31 0 0 0-4.09 9.9 3.09 3.09 0 0 0 3 3.7zm19.14-25.82a28.1 28.1 0 0 0-9.94 4.11 3.1 3.1 0 0 0-.47 4.76l12 12a1.24 1.24 0 0 0 2.11-.87v-17a3.08 3.08 0 0 0-3.69-3zm9.86 34.88a1.25 1.25 0 0 0-1.35-.27 1.23 1.23 0 0 0-.76 1.14v17a3.07 3.07 0 0 0 3.68 3 28.33 28.33 0 0 0 9.95-4.11 3.13 3.13 0 0 0 1.35-2.27 3.09 3.09 0 0 0-.89-2.49zm13.82-22.11l-11 11a1.21 1.21 0 0 0 .86 2.06h17a3.11 3.11 0 0 0 2.38-1.14 3.07 3.07 0 0 0 .62-2.56 28.29 28.29 0 0 0-4.08-9.9c-1.08-1.63-3.39-1.87-5.81.56zm6.89 17.12h-17a1.21 1.21 0 0 0-.86 2.06l11 11c2.42 2.42 4.74 2.19 5.81.55a28.11 28.11 0 0 0 4.08-9.9 3.06 3.06 0 0 0-.62-2.56 3.1 3.1 0 0 0-2.38-1.14zm-70.69 30.19l-.43-.93 8.35-7.89-11.38 1.42-.5-1.08 8.36-7.87-11.4 1.33-1.52-3.38 13.65-1.5 1.3 2.82-6.1 5.74 8.31-1 1.32 2.83zm-9.17-27.27l-.22-3.5 12.7-5.59.22 3.54-2.09.87.41 6.91 2.18.57.07 1.12zm7.72-3.46l-6.8 2.81 7.09 2zm.31-7.39l.17-.72c1.07.25 2.2-1.12 2.88-4s.61-4.79-.29-5c-2.17-.52-1.53 9.91-7.19 8.48-2.37-.61-3.32-2.89-2.59-5.95s2.81-4.62 5.56-4l-.18.72c-.76-.18-1.63 1.31-2.3 4.13s-.6 4.25 0 4.39c2.24.54 2-9.71 7-8.52 2.73.66 3.89 3.05 3.11 6.31s-3.17 4.88-6.17 4.16zM250.57 313l.48-.78 4.08 2.49 4.79-7.86-4.08-2.49.47-.77 11.11 6.77-.48.78-4.25-2.6-4.79 7.86 4.26 2.59-.48.78zm9.79-13.84l.63-.66 9.41 9-.63.66zm4.8-4.87l1.61-1.1 12 3.61-5.46-8 .75-.51 7.29 10.71-1.61 1.1-11.74-3.31 5.27 7.74-.76.52zm16.75-2.77c-1.14-4.17.6-7.15 4.22-8.14 2.87-.79 5.94.1 6.83 3.34l-.73.2c-.47-.85-2.09-1.27-5.24-.41-4.3 1.18-4.72 3.45-4.34 4.81s1.91 3.18 6.21 2c3.1-.85 4.64-2.12 4.34-3.25l-8.34 2.28-.67-2.41 9-2.47 2 7.2-.74.2-.62-2.28c-.25 1.13-1.06 3-4.41 4s-6.36-.89-7.51-5.07zm22.53-1.46l1.64-8.32.89.18-1.52 7.71c-.26 1.32.07 2.23 3.94 3s4.5 0 4.76-1.28l1.52-7.71.89.18-1.63 8.31c-.55 2.77-2.26 4.46-6.17 3.69s-4.87-2.99-4.32-5.76zm18.31-3.94l4.83 2.63c1.81 1 4.2 2.77 2.43 6-1.6 3-4.16 2.56-6.43 1.32l-4-2.19-2.25 4.12-.8-.43zm2 7.1c3.34 1.82 4.16 2.22 4.68 1.27s-.44-1.42-3.65-3.17l-3.76-2-1 1.89zm17.46 7.19l.55.72L335 307l5.12 6.76-2.6 2-5.66-7.48zm7.79 11.74l.4.81-11.66 5.76-.41-.82zm-7.66 18.92l.67-1a6.12 6.12 0 0 1-1.64-3c-.89-3.66 1.1-6.5 5.16-7.48s7.13.61 8 4.28-1.1 6.48-5.16 7.47a8 8 0 0 1-4.06 0l-.77 1.22zm2.41-3.84l1.38-2.19 2.23 1.47-2.05 3.27a3.17 3.17 0 0 0 2.9.77c1.39-.34 3.25-1.83 2.24-6s-3.35-4.63-4.74-4.29-3.24 1.84-2.23 6c.08.35.18.67.27.97zm2.89 8.15l8.45.66-.09.96-7.84-.62c-1.33-.1-2.2.33-2.51 4.26s.48 4.47 1.82 4.58l7.83.62-.07.9-8.43-.74c-2.81-.23-4.69-1.73-4.37-5.7s2.4-5.15 5.21-4.92zm6.09 16.75l-.26.87-12.47-3.67.25-.87zm-2.04 6.51l-2.05 3.77c-2.06 3.8-5.21 5-9 2.9-3.63-2-4.48-5.3-2.41-9.11l2-3.77zm-10.84-.48c-2.29 4.21-1.41 5.64.14 6.48 1.86 1 3.45.54 5.57-3.38l1.84-3.38-5.71-3.1z"></path>
  </g>
</svg>
