<?xml version="1.0" encoding="UTF-8"?>
<svg xmlns="http://www.w3.org/2000/svg" viewBox="0 0 600 600">
  <defs>
    <style>.cls-1{fill:#fff;}.cls-1,.cls-2,.cls-3,.cls-4,.cls-5{stroke:#1c19a8;stroke-miterlimit:10;stroke-width:3.5px;}.cls-2{fill:none;}.cls-3{fill:#ffde00;}.cls-4{fill:#fb715d;}.cls-5{fill:#00ab81;}</style>
  </defs>
  <title>Kit_</title>
  <g id="Layer_2" data-name="Layer 2">
    <line class="cls-1" x1="408.68" y1="466.76" x2="408.68" y2="82.49"></line>
    <line class="cls-2" x1="404.93" y1="186.72" x2="413.23" y2="183.31"></line>
    <line class="cls-2" x1="400.11" y1="181.74" x2="417.9" y2="174.42"></line>
    <line class="cls-2" x1="404.12" y1="114.03" x2="412.41" y2="110.61"></line>
    <line class="cls-2" x1="399.45" y1="123.3" x2="417.24" y2="115.98"></line>
    <line class="cls-2" x1="395.66" y1="177.03" x2="422.2" y2="166.11"></line>
    <line class="cls-2" x1="395.57" y1="169.44" x2="422.12" y2="158.52"></line>
    <line class="cls-2" x1="395.48" y1="161.85" x2="422.03" y2="150.93"></line>
    <line class="cls-2" x1="395.4" y1="154.26" x2="421.95" y2="143.34"></line>
    <line class="cls-2" x1="395.31" y1="146.68" x2="421.86" y2="135.75"></line>
    <line class="cls-2" x1="395.23" y1="139.09" x2="421.78" y2="128.17"></line>
    <line class="cls-2" x1="395.14" y1="131.5" x2="421.69" y2="120.58"></line>
    <path class="cls-3" d="M408.68,466.76a14.87,14.87,0,1,0,14.87,14.87A14.89,14.89,0,0,0,408.68,466.76Zm0,19.6a4.73,4.73,0,1,1,4.73-4.73A4.73,4.73,0,0,1,408.68,486.36Z"></path>
    <path class="cls-3" d="M229.26,496.5h17.05V137.61a38.07,38.07,0,0,1,38.07-38.07h80.24V82.49H281.17a51.91,51.91,0,0,0-51.91,51.9Z"></path>
    <rect class="cls-3" x="176.45" y="82.49" width="17.05" height="414.01"></rect>
    <rect class="cls-4" x="176.45" y="171.73" width="17.05" height="8.1"></rect>
    <rect class="cls-4" x="176.45" y="179.83" width="17.05" height="8.1"></rect>
    <rect class="cls-4" x="176.45" y="187.93" width="17.05" height="8.1"></rect>
    <rect class="cls-4" x="176.45" y="196.04" width="17.05" height="8.1"></rect>
    <rect class="cls-4" x="176.45" y="204.14" width="17.05" height="8.1"></rect>
    <rect class="cls-4" x="176.45" y="212.25" width="17.05" height="8.1"></rect>
    <rect class="cls-4" x="176.45" y="220.35" width="17.05" height="8.1"></rect>
    <rect class="cls-4" x="176.45" y="228.45" width="17.05" height="8.1"></rect>
    <path class="cls-5" d="M229.26,185.46h17.05V137.61a38.07,38.07,0,0,1,38.07-38.07h17.24V82.49H281.17a51.91,51.91,0,0,0-51.91,51.9Z"></path>
  </g>
</svg>
