<?xml version="1.0" encoding="UTF-8"?>
<!-- Generator: Adobe Illustrator 24.0.0, SVG Export Plug-In . SVG Version: 6.00 Build 0)  -->
<svg xmlns="http://www.w3.org/2000/svg" xmlns:xlink="http://www.w3.org/1999/xlink" x="0px" y="0px" viewBox="0 0 600 600" style="enable-background:new 0 0 600 600;" xml:space="preserve">
<style type="text/css">
	.st0{fill:none;}
	.st1{fill:#1C19A9;}
	.st2{fill:#FFFFF7;stroke:#1C19A9;stroke-width:3.5;stroke-miterlimit:10;}
	.st3{fill:url(#SVGID_1_);stroke:#1C19A9;stroke-width:3.5;stroke-miterlimit:10;}
	.st4{fill:#1C19A9;stroke:#1C19A9;stroke-width:3.5;stroke-miterlimit:10;}
	.st5{fill:#FC715D;stroke:#1C19A9;stroke-width:2.88;stroke-miterlimit:10;}
	.st6{fill:#FFDD00;}
</style>
<pattern x="-975" y="-700" width="28.8" height="28.8" patternUnits="userSpaceOnUse" id="Blue_dots_2-3" viewBox="1.4 -30.2 28.8 28.8" style="overflow:visible;">
	<g>
		<rect x="1.4" y="-30.2" class="st0" width="28.8" height="28.8"></rect>
		<path class="st0" d="M1.4-1.4h28.8v-28.8H1.4V-1.4z"></path>
		<path class="st1" d="M30.2-31.7c0.8,0,1.4,0.6,1.4,1.4c0,0.8-0.6,1.4-1.4,1.4c-0.8,0-1.4-0.6-1.4-1.4S29.4-31.7,30.2-31.7    C30.2-31.7,30.2-31.7,30.2-31.7z M15.8-31.7c0.8,0,1.5,0.6,1.5,1.4s-0.6,1.5-1.4,1.5c-0.8,0-1.5-0.6-1.5-1.4c0,0,0,0,0,0    C14.4-31,15.1-31.7,15.8-31.7z M30.2-17.3c0.8,0,1.4,0.6,1.4,1.4c0,0.8-0.6,1.4-1.4,1.4c-0.8,0-1.4-0.6-1.4-1.4    S29.4-17.3,30.2-17.3C30.2-17.3,30.2-17.3,30.2-17.3z M15.8-17.3c0.8,0,1.5,0.6,1.5,1.4s-0.6,1.5-1.4,1.5c-0.8,0-1.5-0.6-1.5-1.4    c0,0,0,0,0,0C14.4-16.6,15.1-17.3,15.8-17.3z M8.6-24.4c0.8,0,1.4,0.6,1.4,1.4s-0.6,1.4-1.4,1.4S7.2-22.2,7.2-23c0,0,0,0,0,0    C7.2-23.8,7.9-24.4,8.6-24.4z M23-24.4c0.8,0,1.4,0.6,1.4,1.4c0,0.8-0.6,1.4-1.4,1.4c-0.8,0-1.4-0.6-1.4-1.4S22.2-24.4,23-24.4    C23-24.4,23-24.4,23-24.4z M8.6-10.1c0.8,0,1.4,0.6,1.4,1.4S9.4-7.2,8.6-7.2c-0.8,0-1.4-0.6-1.4-1.4S7.8-10.1,8.6-10.1L8.6-10.1z     M23-10.1c0.8,0,1.4,0.6,1.4,1.4c0,0.8-0.6,1.4-1.4,1.4c-0.8,0-1.4-0.6-1.4-1.4S22.2-10.1,23-10.1L23-10.1z M1.4-31.7    c0.8,0,1.4,0.6,1.4,1.4l0,0c0,0.8-0.6,1.4-1.4,1.4c-0.8,0-1.4-0.6-1.4-1.4l0,0C0-31,0.6-31.7,1.4-31.7C1.4-31.7,1.4-31.7,1.4-31.7    z M1.4-17.3c0.8,0,1.4,0.6,1.4,1.4c0,0,0,0,0,0c0,0.8-0.7,1.4-1.4,1.4c-0.8,0-1.4-0.6-1.4-1.4C0-16.6,0.6-17.3,1.4-17.3    C1.4-17.3,1.4-17.3,1.4-17.3z M30.2-2.9c0.8,0,1.4,0.6,1.4,1.4C31.7-0.6,31,0,30.2,0c-0.8,0-1.4-0.6-1.4-1.4S29.4-2.9,30.2-2.9    C30.2-2.9,30.2-2.9,30.2-2.9z M15.8-2.9c0.8,0,1.4,0.6,1.4,1.4c0,0.8-0.6,1.4-1.4,1.4c-0.8,0-1.4-0.7-1.4-1.4    C14.4-2.2,15.1-2.9,15.8-2.9z M1.4-2.9c0.8,0,1.4,0.6,1.4,1.4C2.9-0.6,2.2,0,1.4,0C0.6,0,0-0.6,0-1.4c0,0,0,0,0,0    C0-2.2,0.6-2.9,1.4-2.9C1.4-2.9,1.4-2.9,1.4-2.9z"></path>
	</g>
</pattern>
<g id="background">
</g>
<g id="Layer_1">
	<title>Kit</title>
	<path class="st2" d="M365.6,166.9H234.4c-12.7,0-23,10.3-23,23v292.8c0,12.7,10.3,23,23,23h131.1c12.7,0,23-10.3,23-23V189.9   C388.6,177.2,378.3,166.9,365.6,166.9z"></path>
	<pattern id="SVGID_1_" xlink:href="#Blue_dots_2-3" patternTransform="matrix(1 0 0 -1 -451.7877 -12299.0498)">
	</pattern>
	<path class="st3" d="M365.6,166.9H234.4c-12.7,0-23,10.3-23,23v292.8c0,12.7,10.3,23,23,23h131.1c12.7,0,23-10.3,23-23V189.9   C388.6,177.2,378.3,166.9,365.6,166.9z"></path>
	<path class="st4" d="M282.5,94.2h34.9c9.4,0,17,7.6,17,17v55.7h-68.9v-55.7C265.5,101.9,273.2,94.2,282.5,94.2z"></path>
	<path class="st5" d="M211.4,255.7h177.1v162.4H211.4V255.7z"></path>
	<g>
		<circle class="st1" cx="300" cy="320.4" r="47.2"></circle>
		<circle class="st6" cx="300" cy="320.4" r="20.2"></circle>
		<polygon class="st6" points="329.7,313.9 338.4,320.4 329.7,327   "></polygon>
		<polygon class="st6" points="270.3,327 261.6,320.4 270.3,313.9   "></polygon>
		<polygon class="st6" points="306.5,350.1 300,358.8 293.5,350.1   "></polygon>
		<polygon class="st6" points="293.5,290.8 300,282.1 306.5,290.8   "></polygon>
		<polygon class="st6" points="314.8,296.4 325.6,294.8 324.1,305.6   "></polygon>
		<polygon class="st6" points="285.2,344.5 274.4,346 275.9,335.3   "></polygon>
		<polygon class="st6" points="324.1,335.3 325.6,346 314.8,344.5   "></polygon>
		<polygon class="st6" points="275.9,305.6 274.4,294.8 285.2,296.4   "></polygon>
	</g>
	<g>
		<path class="st1" d="M284.2,388.4h0.6c0,0.9,1.3,1.5,3.6,1.5s3.8-0.4,3.8-1.1c0-1.8-8,0.6-7.9-4c0-2,1.6-3.1,4.1-3.1    s4.1,1.3,4.1,3.6H292c0-0.6-1.3-1-3.6-1s-3.4,0.3-3.4,0.8c0,1.8,7.9-0.2,7.9,3.9c0,2.2-1.6,3.6-4.3,3.6    C285.9,392.5,284.2,390.9,284.2,388.4z"></path>
		<path class="st1" d="M250.4,388.4h0.6c0,0.9,1.3,1.5,3.6,1.5c2.3,0,3.8-0.4,3.8-1.1c0-1.8-7.9,0.6-7.9-4c0-2,1.6-3.1,4.1-3.1    s4.1,1.3,4.1,3.6h-0.6c0-0.6-1.3-1-3.6-1s-3.4,0.3-3.4,0.8c0,1.8,7.9-0.2,7.9,3.9c0,2.2-1.6,3.6-4.3,3.6    C252,392.5,250.4,390.9,250.4,388.4z"></path>
		<path class="st1" d="M294.8,387.1c0-3.4,1.9-5.4,5.1-5.4c2.2,0,4.4,1.3,4.4,3.7h-0.6c0-0.7-1.7-1.1-4-1.1c-3.9,0-4.2,1.7-4.2,2.8    s0.3,2.8,4.2,2.8c2.4,0,4-0.6,4-1.2h0.6c0,2.3-2.2,3.8-4.4,3.8C296.7,392.4,294.8,390.4,294.8,387.1L294.8,387.1z"></path>
		<polygon class="st1" points="341.1,381.9 342.6,381.9 348.9,389.6 348.9,381.9 349.6,381.9 349.6,392.2 348.1,392.2 341.8,384.8     341.8,392.2 341.1,392.2   "></polygon>
		<polygon class="st1" points="273,381.9 274.6,381.9 280.9,389.6 280.9,381.9 281.6,381.9 281.6,392.2 280,392.2 273.8,384.8     273.8,392.2 273,392.2   "></polygon>
		<polygon class="st1" points="318.8,381.9 326.4,381.9 326.4,384.5 319.5,384.5 319.5,385.9 326.2,385.9 326.2,388.1 319.5,388.1     319.5,389.6 326.4,389.6 326.4,392.2 318.8,392.2   "></polygon>
		<polygon class="st1" points="330.2,381.9 337.7,381.9 337.7,384.5 330.9,384.5 330.9,385.9 337.6,385.9 337.6,388.1 330.9,388.1     330.9,389.6 337.7,389.6 337.7,392.2 330.2,392.2   "></polygon>
		<path class="st1" d="M315.4,385.2c0-2.9-2.4-3.3-4-3.3h-4.4v10.3h0.7v-3.7h3.4l1.5,3.7h2.5l-1.6-4    C314.8,387.8,315.6,386.5,315.4,385.2z M311.2,386.1h-3.4v-1.7h3.4c2.9,0,3.8-0.1,3.8,0.8C314.9,386.1,314.2,386.1,311.2,386.1z"></path>
		<path class="st1" d="M261.5,388.5v-6.7h0.8v6.2c0,0.9,0.4,1.5,3.6,1.5c3.3,0,3.6-0.6,3.6-1.5v-6.2h0.8v6.7c0,2.2-1.1,3.9-4.4,3.9    S261.5,390.8,261.5,388.5z"></path>
	</g>
</g>
</svg>
