<?xml version="1.0" encoding="UTF-8"?>
<svg xmlns="http://www.w3.org/2000/svg" viewBox="0 0 600 600">
  <defs>
    <style>.cls-1,.cls-4{fill:none}.cls-2{fill:#1c19a9}.cls-3{fill:#fc715d}.cls-3,.cls-4,.cls-5{stroke:#1c19a9;stroke-miterlimit:10;stroke-width:3.5px}.cls-5{fill:#34c18b}.cls-6{fill:url(#Blue_dots_2)}</style>
    <pattern id="Blue_dots_2" data-name="Blue dots 2" width="28.8" height="28.8" patternTransform="translate(-450.81 331.31)" patternUnits="userSpaceOnUse">
      <path class="cls-1" d="M0 0H28.8V28.8H0z"></path>
      <path class="cls-2" d="M28.8 30.24a1.44 1.44 0 1 0-1.44-1.44 1.44 1.44 0 0 0 1.44 1.44zm-14.4 0A1.44 1.44 0 1 0 13 28.8a1.44 1.44 0 0 0 1.4 1.44zm14.4-14.4a1.44 1.44 0 1 0-1.44-1.44 1.44 1.44 0 0 0 1.44 1.44zm-14.4 0A1.44 1.44 0 1 0 13 14.4a1.44 1.44 0 0 0 1.4 1.44zM7.2 23a1.44 1.44 0 1 0-1.44-1.4A1.44 1.44 0 0 0 7.2 23zm14.4 0a1.44 1.44 0 1 0-1.44-1.44A1.44 1.44 0 0 0 21.6 23zM7.2 8.64A1.44 1.44 0 1 0 5.76 7.2 1.44 1.44 0 0 0 7.2 8.64zm14.4 0a1.44 1.44 0 1 0-1.44-1.44 1.44 1.44 0 0 0 1.44 1.44zM0 30.24a1.44 1.44 0 0 0 1.44-1.44A1.45 1.45 0 0 0 0 27.36a1.44 1.44 0 0 0-1.44 1.44A1.43 1.43 0 0 0 0 30.24zm0-14.4a1.44 1.44 0 0 0 1.44-1.44A1.45 1.45 0 0 0 0 13a1.44 1.44 0 0 0-1.44 1.4A1.43 1.43 0 0 0 0 15.84zm28.8-14.4A1.45 1.45 0 0 0 30.24 0a1.45 1.45 0 0 0-1.44-1.44A1.44 1.44 0 0 0 27.36 0a1.44 1.44 0 0 0 1.44 1.44zm-14.4 0A1.45 1.45 0 0 0 15.84 0a1.45 1.45 0 0 0-1.44-1.44A1.44 1.44 0 0 0 13 0a1.44 1.44 0 0 0 1.4 1.44zM0 1.44A1.45 1.45 0 0 0 1.44 0 1.45 1.45 0 0 0 0-1.44 1.44 1.44 0 0 0-1.44 0 1.44 1.44 0 0 0 0 1.44z"></path>
    </pattern>
  </defs>
  <g id="Layer_2" data-name="Layer 2">
    <path class="cls-3" d="M352.8 184.83L339 134.32h-78l-13.8 50.51a280.2 280.2 0 0 0-9.95 74v207.23h125.5V258.81a280.2 280.2 0 0 0-9.95-73.98zm9.95 317.61v-36.38h-125.5v36.38A20.78 20.78 0 0 0 258 523.22c7 0 7-6 14-6s7 6 14 6 7-6 14-6 7 6 14 6 7-6 14-6 7 6 14 6a20.78 20.78 0 0 0 20.75-20.78z"></path>
    <path class="cls-4" d="M237.25 466.06L362.75 466.06"></path>
    <path class="cls-5" d="M280.35 76.78h39.3A19.31 19.31 0 0 1 339 96.09v15.47a3.89 3.89 0 0 1-3.89 3.89h-70.18a3.89 3.89 0 0 1-3.89-3.89V96.09a19.31 19.31 0 0 1 19.31-19.31z"></path>
    <rect class="cls-3" x="256.3" y="124.39" width="87.4" height="9.93" rx="2.78"></rect>
    <path class="cls-5" d="M266.62 115.44H334.56V124.39H266.62z"></path>
    <path class="cls-6" d="M352.8 184.83L339 134.32h4.74v-9.93H256.3v9.93h4.7l-13.8 50.51a280.2 280.2 0 0 0-9.95 74v243.61A20.78 20.78 0 0 0 258 523.22c7 0 7-6 14-6s7 6 14 6 7-6 14-6 7 6 14 6 7-6 14-6 7 6 14 6a20.78 20.78 0 0 0 20.79-20.78V258.81a280.2 280.2 0 0 0-9.99-73.98z"></path>
  </g>
</svg>
