<?xml version="1.0" encoding="UTF-8"?>
<svg xmlns="http://www.w3.org/2000/svg" viewBox="0 0 600 600">
  <defs>
    <style>.cls-1{fill:none}.cls-2{fill:#1c19a9}.cls-11,.cls-3{fill:#fd0}.cls-10,.cls-11,.cls-3,.cls-4,.cls-5,.cls-6,.cls-7,.cls-8{stroke:#1c19a9;stroke-miterlimit:10}.cls-10,.cls-3,.cls-4,.cls-5,.cls-6,.cls-7{stroke-width:3.5px}.cls-4{fill:#fff}.cls-5,.cls-9{fill:#fffff7}.cls-6{fill:#34c18b}.cls-7{fill:url(#Blue_dots_2)}.cls-8{fill:#fc715d}.cls-11,.cls-8{stroke-width:2.88px}.cls-10{fill:url(#Blue_dots_2-3)}</style>
    <pattern id="Blue_dots_2" data-name="Blue dots 2" width="28.8" height="28.8" patternTransform="translate(-757.16 55.21)" patternUnits="userSpaceOnUse">
      <path class="cls-1" d="M0 0H28.8V28.8H0z"></path>
      <path class="cls-2" d="M28.8 30.24a1.44 1.44 0 1 0-1.44-1.44 1.44 1.44 0 0 0 1.44 1.44zm-14.4 0A1.44 1.44 0 1 0 13 28.8a1.44 1.44 0 0 0 1.4 1.44zm14.4-14.4a1.44 1.44 0 1 0-1.44-1.44 1.44 1.44 0 0 0 1.44 1.44zm-14.4 0A1.44 1.44 0 1 0 13 14.4a1.44 1.44 0 0 0 1.4 1.44zM7.2 23a1.44 1.44 0 1 0-1.44-1.4A1.44 1.44 0 0 0 7.2 23zm14.4 0a1.44 1.44 0 1 0-1.44-1.44A1.44 1.44 0 0 0 21.6 23zM7.2 8.64A1.44 1.44 0 1 0 5.76 7.2 1.44 1.44 0 0 0 7.2 8.64zm14.4 0a1.44 1.44 0 1 0-1.44-1.44 1.44 1.44 0 0 0 1.44 1.44zM0 30.24a1.44 1.44 0 0 0 1.44-1.44A1.45 1.45 0 0 0 0 27.36a1.44 1.44 0 0 0-1.44 1.44A1.43 1.43 0 0 0 0 30.24zm0-14.4a1.44 1.44 0 0 0 1.44-1.44A1.45 1.45 0 0 0 0 13a1.44 1.44 0 0 0-1.44 1.4A1.43 1.43 0 0 0 0 15.84zm28.8-14.4A1.45 1.45 0 0 0 30.24 0a1.45 1.45 0 0 0-1.44-1.44A1.44 1.44 0 0 0 27.36 0a1.44 1.44 0 0 0 1.44 1.44zm-14.4 0A1.45 1.45 0 0 0 15.84 0a1.45 1.45 0 0 0-1.44-1.44A1.44 1.44 0 0 0 13 0a1.44 1.44 0 0 0 1.4 1.44zM0 1.44A1.45 1.45 0 0 0 1.44 0 1.45 1.45 0 0 0 0-1.44 1.44 1.44 0 0 0-1.44 0 1.44 1.44 0 0 0 0 1.44z"></path>
    </pattern>
    <pattern id="Blue_dots_2-3" data-name="Blue dots 2" width="28.8" height="28.8" patternTransform="translate(-731.3 55.21)" patternUnits="userSpaceOnUse">
      <path class="cls-1" d="M0 0H28.8V28.8H0z"></path>
      <path class="cls-2" d="M28.8 30.24a1.44 1.44 0 1 0-1.44-1.44 1.44 1.44 0 0 0 1.44 1.44zm-14.4 0A1.44 1.44 0 1 0 13 28.8a1.44 1.44 0 0 0 1.4 1.44zm14.4-14.4a1.44 1.44 0 1 0-1.44-1.44 1.44 1.44 0 0 0 1.44 1.44zm-14.4 0A1.44 1.44 0 1 0 13 14.4a1.44 1.44 0 0 0 1.4 1.44zM7.2 23a1.44 1.44 0 1 0-1.44-1.4A1.44 1.44 0 0 0 7.2 23zm14.4 0a1.44 1.44 0 1 0-1.44-1.44A1.44 1.44 0 0 0 21.6 23zM7.2 8.64A1.44 1.44 0 1 0 5.76 7.2 1.44 1.44 0 0 0 7.2 8.64zm14.4 0a1.44 1.44 0 1 0-1.44-1.44 1.44 1.44 0 0 0 1.44 1.44zM0 30.24a1.44 1.44 0 0 0 1.44-1.44A1.45 1.45 0 0 0 0 27.36a1.44 1.44 0 0 0-1.44 1.44A1.43 1.43 0 0 0 0 30.24zm0-14.4a1.44 1.44 0 0 0 1.44-1.44A1.45 1.45 0 0 0 0 13a1.44 1.44 0 0 0-1.44 1.4A1.43 1.43 0 0 0 0 15.84zm28.8-14.4A1.45 1.45 0 0 0 30.24 0a1.45 1.45 0 0 0-1.44-1.44A1.44 1.44 0 0 0 27.36 0a1.44 1.44 0 0 0 1.44 1.44zm-14.4 0A1.45 1.45 0 0 0 15.84 0a1.45 1.45 0 0 0-1.44-1.44A1.44 1.44 0 0 0 13 0a1.44 1.44 0 0 0 1.4 1.44zM0 1.44A1.45 1.45 0 0 0 1.44 0 1.45 1.45 0 0 0 0-1.44 1.44 1.44 0 0 0-1.44 0 1.44 1.44 0 0 0 0 1.44z"></path>
    </pattern>
  </defs>
  <g id="Layer_2" data-name="Layer 2">
    <rect class="cls-3" x="180.61" y="94.25" width="68.93" height="50.75" rx="5.02"></rect>
    <path class="cls-4" d="M244.51 145h-58.88l-34.06 44.41V478.9a26.85 26.85 0 0 0 26.84 26.85h73.32a26.85 26.85 0 0 0 26.84-26.85V189.42z"></path>
    <path class="cls-5" d="M244.51 145h-58.88l-34.06 44.41V478.9a26.85 26.85 0 0 0 26.84 26.85h73.32a26.85 26.85 0 0 0 26.84-26.85V189.42z"></path>
    <path class="cls-6" d="M167.92 168.1l-16.35 21.32V478.9a26.85 26.85 0 0 0 26.84 26.85h73.32a26.85 26.85 0 0 0 26.84-26.85V189.42l-16.34-21.32z"></path>
    <path class="cls-7" d="M167.92 168.1l-16.35 21.32V478.9a26.85 26.85 0 0 0 26.84 26.85h73.32a26.85 26.85 0 0 0 26.84-26.85V189.42l-16.34-21.32z"></path>
    <path class="cls-8" d="M151.57 228.52H278.57V390.90999999999997H151.57z"></path>
    <path class="cls-2" d="M173.51 366.09h.59c0 .87 1.28 1.49 3.63 1.49s3.81-.41 3.81-1.15c0-1.78-7.95.65-7.89-4 0-2 1.62-3.11 4.12-3.11s4.1 1.32 4.1 3.56h-.59c0-.62-1.32-1-3.63-1s-3.4.33-3.4.82c0 1.83 7.9-.22 7.9 3.86 0 2.23-1.64 3.57-4.31 3.57s-4.33-1.59-4.33-4.04zm11.18-6.54h.72v3.8h7.32v-3.8h.73v10.35h-.73v-4h-7.32v4h-.72zm14.41 0h2.79l3.83 10.35h-2.82l-.59-1.7h-5.5l-.56 1.7h-.89zm2.38 6.3l-1.91-5.53-2 5.53zm6.37-6.3h1.42l4.63 7.66 4.65-7.66h1v10.35h-2.3V363l-3.8 6.23h-1.38l-3.52-6.14v6.83h-.72zm14.77 0H227c1.64 0 4 .34 4 3.29 0 2.67-1.93 3.37-4 3.37h-3.65v3.69h-.72zm4.12 4.19c3 0 3.76 0 3.76-.89s-.85-.83-3.76-.83h-3.4v1.72zm6.52.99c0-3.33 1.82-5.4 4.82-5.4s4.8 2.07 4.8 5.4-1.82 5.39-4.8 5.39-4.82-2.07-4.82-5.39zm9 0c0-1.14-.8-2.86-4.2-2.86s-4.22 1.72-4.22 2.86.82 2.85 4.22 2.85 4.22-1.71 4.22-2.85zm3.1 0c0-3.33 1.82-5.4 4.82-5.4s4.81 2.07 4.81 5.4-1.82 5.39-4.81 5.39-4.82-2.07-4.82-5.39zm9 0c0-1.14-.8-2.86-4.2-2.86s-4.21 1.72-4.21 2.86.81 2.85 4.21 2.85 4.22-1.71 4.22-2.85z"></path>
    <circle class="cls-2" cx="215.07" cy="293.66" r="47.16"></circle>
    <path class="cls-9" d="M210 272.49c-4.28-4.28-19.77-5.28-20.42-5.32a1 1 0 0 0-1 1c0 .66 1.05 16.14 5.32 20.42a11.38 11.38 0 0 0 15.39.62l2 2a.94.94 0 0 0 1.32 0 .93.93 0 0 0 0-1.31l-2-2a11.38 11.38 0 0 0-.61-15.41zm-.69 14.08l-3.47-3.47v-6.28a.93.93 0 0 0-1.86 0v4.43l-12-12c5.26.53 14.07 1.92 16.72 4.57a9.54 9.54 0 0 1 .62 12.77zm-14.08.69c-2.65-2.65-4-11.46-4.57-16.72l12 12h-4.43a.93.93 0 1 0 0 1.85h6.28l3.47 3.47a9.53 9.53 0 0 1-12.77-.62zm-6.4 32.64a1 1 0 0 0 .72.27c.65 0 16.14-1.05 20.41-5.33a11.37 11.37 0 0 0 .63-15.39l2-2a.93.93 0 1 0-1.32-1.32l-2 2a11.38 11.38 0 0 0-15.39.62c-4.28 4.28-5.28 19.77-5.32 20.42a1 1 0 0 0 .27.73zm19.83-6.37c-2.65 2.65-11.46 4-16.72 4.57l12-12v4.43a.93.93 0 0 0 .93.93 1 1 0 0 0 .65-.27.92.92 0 0 0 .27-.66v-6.28l3.47-3.47a9.54 9.54 0 0 1-.62 12.77zm-.66-14.08l-3.47 3.47h-6.28a.93.93 0 1 0 0 1.85h4.43l-12 12c.53-5.26 1.92-14.07 4.57-16.72a9.54 9.54 0 0 1 12.77-.62zm12.85-1.31l-2-2a.93.93 0 0 0-1.31 0 .94.94 0 0 0 0 1.32l2 2a11.38 11.38 0 0 0 .62 15.39c4.28 4.28 19.76 5.28 20.42 5.32a.91.91 0 0 0 .71-.26 1 1 0 0 0 .28-.72c0-.65-1-16.14-5.33-20.41a11.37 11.37 0 0 0-15.39-.63zm0 2.62l3.47 3.47v6.28a.93.93 0 1 0 1.85 0v-4.43l12 12c-5.26-.53-14.07-1.92-16.72-4.57a9.53 9.53 0 0 1-.62-12.77zm18.65 16l-12-12h4.43a.9.9 0 0 0 .65-.27.92.92 0 0 0-.65-1.58h-6.28l-3.47-3.47a9.53 9.53 0 0 1 12.76.62c2.65 2.65 4.05 11.46 4.58 16.72zm-19.34-44.27a11.38 11.38 0 0 0-.62 15.39l-2 2a.93.93 0 0 0 1.31 1.31l2-2a11.38 11.38 0 0 0 15.39-.62c4.28-4.28 5.28-19.76 5.32-20.42a.89.89 0 0 0-.27-.71.93.93 0 0 0-.71-.28c-.66 0-16.14 1-20.42 5.33zm1.31 1.31c2.65-2.65 11.46-4 16.72-4.57l-12 12v-4.43a.93.93 0 1 0-1.85 0v6.28l-3.47 3.47a9.53 9.53 0 0 1 .62-12.77zm.69 14.08l3.47-3.47h6.28a.92.92 0 0 0 .66-.27 1 1 0 0 0 .27-.66.93.93 0 0 0-.93-.92h-4.43l12-12c-.53 5.26-1.92 14.07-4.57 16.72a9.53 9.53 0 0 1-12.77.62zm-33.46 6.25a.92.92 0 0 0 0-1.09c-.12-.18-3.19-4.24-7.11-4.21s-6.93 4.13-7.06 4.31a.93.93 0 0 0 0 1.09c.13.17 3.19 4.23 7.11 4.21 2.48 0 4.59-1.66 5.84-2.91a12.45 12.45 0 0 0 1.22-1.4zm-12.23-.46c1-1.16 3-3 5.12-3s4.28 1.94 5.15 2.92c-.86 1-2.87 3-5.11 3s-4.28-1.95-5.16-2.92zM214.44 320c-.18.12-4.24 3.19-4.21 7.11s4.13 6.93 4.3 7.06a1 1 0 0 0 1.1 0 11.86 11.86 0 0 0 1.24-1.1c1.25-1.25 3-3.45 3-6 0-3.93-4.14-6.93-4.31-7.06a.92.92 0 0 0-1.09 0zm3.56 7.1c0 2.25-1.94 4.28-2.92 5.16-1.15-1-3-3-3-5.12S214 322.86 215 322c1 .86 3 2.87 3 5.11zm37.61-32.9a1 1 0 0 0 0-1.1c-.13-.17-3.19-4.23-7.12-4.21s-6.92 4.13-7 4.31a.9.9 0 0 0 0 1.09c.12.18 3.18 4.24 7.11 4.21 2.47 0 4.58-1.65 5.84-2.91a14.06 14.06 0 0 0 1.22-1.39zm-12.23-.47c.87-1 2.87-3 5.11-3s4.29 1.94 5.16 2.92c-1 1.15-3 3-5.11 3-2.25 0-4.28-1.94-5.16-2.92zm-28.88-40.6c-.17.13-4.24 3.19-4.21 7.11s4.13 6.93 4.31 7.06a.92.92 0 0 0 1.09 0 11.39 11.39 0 0 0 1.25-1.1c1.25-1.25 3-3.45 3-6 0-3.93-4.13-6.93-4.31-7.06a.93.93 0 0 0-1.09 0zm3.55 7.06c0 2.24-1.94 4.28-2.92 5.15-1-.86-3-2.87-3-5.11s1.94-4.29 2.92-5.16c1.15 1 3 3 3 5.12z"></path>
    <rect class="cls-8" x="350.47" y="94.25" width="68.93" height="50.75" rx="5.02"></rect>
    <path class="cls-4" d="M414.37 145h-58.88l-34.06 44.41V478.9a26.85 26.85 0 0 0 26.84 26.85h73.32a26.85 26.85 0 0 0 26.84-26.85V189.42z"></path>
    <path class="cls-5" d="M414.37 145h-58.88l-34.06 44.41V478.9a26.85 26.85 0 0 0 26.84 26.85h73.32a26.85 26.85 0 0 0 26.84-26.85V189.42z"></path>
    <path class="cls-6" d="M337.77 168.1l-16.34 21.32V478.9a26.85 26.85 0 0 0 26.84 26.85h73.32a26.85 26.85 0 0 0 26.84-26.85V189.42l-16.35-21.32z"></path>
    <path class="cls-10" d="M337.77 168.1l-16.34 21.32V478.9a26.85 26.85 0 0 0 26.84 26.85h73.32a26.85 26.85 0 0 0 26.84-26.85V189.42l-16.35-21.32z"></path>
    <path class="cls-11" d="M321.43 228.52H448.43V390.90999999999997H321.43z"></path>
    <path class="cls-2" d="M331 364.73c0-3.36 1.85-5.4 5.08-5.4 2.18 0 4.36 1.33 4.36 3.67h-.6c0-.73-1.69-1.08-4-1.08-3.92 0-4.25 1.67-4.25 2.81s.33 2.81 4.25 2.81c2.39 0 4-.56 4-1.22h.61c0 2.31-2.16 3.8-4.4 3.8-3.18 0-5.05-2.04-5.05-5.39zm11.6 0c0-3.33 1.81-5.4 4.82-5.4s4.8 2.07 4.8 5.4-1.82 5.39-4.8 5.39-4.82-2.07-4.82-5.39zm9 0c0-1.14-.8-2.86-4.2-2.86s-4.22 1.72-4.22 2.86.82 2.85 4.22 2.85 4.22-1.71 4.22-2.85zm3.31-5.18h1.55l6.27 7.74v-7.74h.73v10.35h-1.56l-6.27-7.45v7.45h-.72zm11.59 0h3.41c3.45 0 5.46 1.76 5.46 5.21 0 3.28-2 5.14-5.46 5.14h-3.41zm3.78 7.77c3.82 0 4.48-1.16 4.48-2.56 0-1.69-.93-2.62-4.48-2.62h-3.06v5.18zm7.77-7.77h.73v10.35h-.73zm6.7 2.59h-3.87v-2.59h8.49v2.59h-3.89v7.76h-.73zm6.71-2.59h.73v10.35h-.73zm3.42 5.18c0-3.33 1.82-5.4 4.82-5.4s4.8 2.07 4.8 5.4-1.82 5.39-4.8 5.39-4.82-2.07-4.82-5.39zm9 0c0-1.14-.8-2.86-4.2-2.86s-4.22 1.72-4.22 2.86.82 2.85 4.22 2.85 4.22-1.71 4.22-2.85zm3.31-5.18h1.55l6.27 7.74v-7.74h.73v10.35h-1.56l-6.27-7.45v7.45h-.72zm11.59 0h7.58v2.59h-6.86v1.41h6.7v2.2h-6.7v1.57h6.86v2.58h-7.58zm16.81 6.33l1.58 4h-2.46l-1.48-3.69h-3.37v3.69h-.72v-10.33h4.38c1.64 0 4 .34 4 3.29a2.89 2.89 0 0 1-1.93 3.04zm-5.73-2.14h3.41c3 0 3.75 0 3.75-.89s-.84-.83-3.75-.83h-3.41z"></path>
    <circle class="cls-2" cx="384.93" cy="293.66" r="47.16"></circle>
    <path class="cls-9" d="M379.83 272.49c-4.28-4.28-19.77-5.28-20.42-5.32a1 1 0 0 0-1 1c0 .66 1 16.14 5.32 20.42a11.38 11.38 0 0 0 15.39.62l2 2a.94.94 0 0 0 1.32 0 .93.93 0 0 0 0-1.31l-2-2a11.38 11.38 0 0 0-.61-15.41zm-.69 14.08l-3.47-3.47v-6.28a.93.93 0 0 0-1.86 0v4.43l-12-12c5.26.53 14.07 1.92 16.72 4.57a9.54 9.54 0 0 1 .62 12.77zm-14.08.69c-2.65-2.65-4-11.46-4.57-16.72l12 12h-4.43a.93.93 0 1 0 0 1.85h6.28l3.47 3.47a9.53 9.53 0 0 1-12.77-.62zm-6.37 32.64a1 1 0 0 0 .72.27c.65 0 16.14-1.05 20.41-5.33a11.37 11.37 0 0 0 .63-15.39l2-2a.93.93 0 1 0-1.32-1.32l-2 2a11.38 11.38 0 0 0-15.39.62c-4.28 4.28-5.28 19.77-5.33 20.42a1 1 0 0 0 .28.73zm19.83-6.37c-2.65 2.65-11.46 4-16.72 4.57l12-12v4.43a.93.93 0 0 0 .93.93 1 1 0 0 0 .65-.27.92.92 0 0 0 .27-.66v-6.28l3.47-3.47a9.54 9.54 0 0 1-.62 12.77zm-.69-14.08l-3.47 3.47h-6.28a.93.93 0 1 0 0 1.85h4.43l-12 12c.53-5.26 1.92-14.07 4.57-16.72a9.54 9.54 0 0 1 12.77-.62zm12.88-1.31l-2-2a.93.93 0 0 0-1.31 0 .94.94 0 0 0 0 1.32l2 2a11.38 11.38 0 0 0 .62 15.39c4.28 4.28 19.76 5.28 20.42 5.32a.91.91 0 0 0 .71-.26 1 1 0 0 0 .28-.72c-.05-.65-1.05-16.14-5.33-20.41a11.37 11.37 0 0 0-15.39-.63zm0 2.62l3.47 3.47v6.28a.93.93 0 1 0 1.85 0v-4.43l12 12c-5.26-.53-14.07-1.92-16.72-4.57a9.53 9.53 0 0 1-.62-12.77zm18.65 16l-12-12h4.43a.9.9 0 0 0 .65-.27.92.92 0 0 0-.65-1.58h-6.28l-3.51-3.46a9.53 9.53 0 0 1 12.76.62c2.65 2.65 4.05 11.46 4.58 16.72zM390 272.49a11.38 11.38 0 0 0-.62 15.39l-2 2a.93.93 0 0 0 1.31 1.31l2-2a11.38 11.38 0 0 0 15.39-.62c4.28-4.28 5.28-19.76 5.32-20.42a.89.89 0 0 0-.27-.71.93.93 0 0 0-.71-.28c-.66 0-16.14 1-20.42 5.33zm1.31 1.31c2.65-2.65 11.46-4 16.72-4.57l-12 12v-4.43a.93.93 0 1 0-1.85 0v6.28l-3.47 3.47a9.53 9.53 0 0 1 .62-12.77zm.69 14.08l3.47-3.47h6.28a.92.92 0 0 0 .66-.27 1 1 0 0 0 .27-.66.93.93 0 0 0-.93-.92h-4.43l12-12c-.53 5.26-1.92 14.07-4.57 16.72a9.53 9.53 0 0 1-12.77.62zm-33.44 6.25a.92.92 0 0 0 0-1.09c-.12-.18-3.19-4.24-7.11-4.21s-6.93 4.13-7.06 4.31a.93.93 0 0 0 0 1.09c.13.17 3.19 4.23 7.11 4.21 2.48 0 4.59-1.66 5.84-2.91a12.45 12.45 0 0 0 1.22-1.4zm-12.23-.46c1-1.16 3-3 5.12-3s4.28 1.94 5.15 2.92c-.86 1-2.87 3-5.11 3s-4.28-1.95-5.16-2.92zM384.3 320c-.18.12-4.24 3.19-4.21 7.11s4.13 6.93 4.3 7.06a1 1 0 0 0 1.1 0 11.86 11.86 0 0 0 1.24-1.1c1.25-1.25 3-3.45 3-6 0-3.93-4.14-6.93-4.31-7.06a.92.92 0 0 0-1.09 0zm3.54 7.06c0 2.25-1.94 4.28-2.92 5.16-1.15-1-3-3-3-5.12s1.94-4.28 2.92-5.15c1 .86 3 2.87 3 5.11zm37.63-32.86a1 1 0 0 0 0-1.1c-.13-.17-3.19-4.23-7.12-4.21s-6.92 4.13-7 4.31a.9.9 0 0 0 0 1.09c.12.18 3.18 4.24 7.11 4.21 2.47 0 4.58-1.65 5.84-2.91a14.06 14.06 0 0 0 1.22-1.39zm-12.23-.47c.87-1 2.87-3 5.11-3s4.29 1.94 5.16 2.92c-1 1.15-3 3-5.11 3-2.25 0-4.28-1.94-5.16-2.92zm-28.88-40.6c-.17.13-4.24 3.19-4.21 7.11s4.13 6.93 4.31 7.06a.92.92 0 0 0 1.09 0 11.39 11.39 0 0 0 1.25-1.1c1.25-1.25 3-3.45 3-6 0-3.93-4.13-6.93-4.31-7.06a.93.93 0 0 0-1.09 0zm3.55 7.06c0 2.24-1.94 4.28-2.92 5.15-1-.86-3-2.87-3-5.11s1.94-4.29 2.92-5.16c1.15 1 3 3 3 5.12z"></path>
  </g>
</svg>
