<?xml version="1.0" encoding="UTF-8"?>
<svg xmlns="http://www.w3.org/2000/svg" xmlns:xlink="http://www.w3.org/1999/xlink" viewBox="0 0 600 600">
  <defs>
    <style>.cls-1,.cls-4,.cls-7{fill:none;}.cls-2{fill:#fff;}.cls-2,.cls-4,.cls-6,.cls-7,.cls-8{stroke:#1c19a8;stroke-width:3.5px;}.cls-2,.cls-4,.cls-6,.cls-8{stroke-miterlimit:10;}.cls-3{clip-path:url(#clip-path);}.cls-5{clip-path:url(#clip-path-2);}.cls-6{fill:#ffde00;}.cls-7{stroke-linejoin:round;}.cls-8{fill:#fb715d;}</style>
    <clipPath id="clip-path">
      <path class="cls-1" d="M215.79,144.2h76a13.43,13.43,0,0,1,13.43,13.43V451.69a17.64,17.64,0,0,1-17.64,17.64H220a17.64,17.64,0,0,1-17.64-17.64V157.63A13.43,13.43,0,0,1,215.79,144.2Z"></path>
    </clipPath>
    <clipPath id="clip-path-2">
      <ellipse class="cls-1" cx="256.55" cy="331.39" rx="37.5" ry="128.76"></ellipse>
    </clipPath>
  </defs>
  <title>Kit</title>
  <g id="Layer_2" data-name="Layer 2">
    <path class="cls-2" d="M215.79,144.2h76a13.43,13.43,0,0,1,13.43,13.43V451.69a17.64,17.64,0,0,1-17.64,17.64H220a17.64,17.64,0,0,1-17.64-17.64V157.63A13.43,13.43,0,0,1,215.79,144.2Z"></path>
    <g class="cls-3">
      <path class="cls-4" d="M264.66,457.13s27.08,6.57,15,0-76.94-11.62-48.87,0,57.58,13.31,47.66,8.22-69.2-9.92-52.5-2.66"></path>
      <ellipse class="cls-2" cx="256.55" cy="331.39" rx="37.5" ry="128.76"></ellipse>
      <g class="cls-5">
        <path class="cls-4" d="M295,281.73c-.24-.41-47.3-12.38-78.39-49.58"></path>
        <path class="cls-4" d="M295.76,289.16c-.25-.39-47.56-11.31-79.47-47.82"></path>
        <path class="cls-4" d="M294.85,296.87c-.25-.4-47.56-11.32-79.47-47.82"></path>
        <path class="cls-4" d="M296,303.94c-.27-.38-48-9.46-81.27-44.7"></path>
        <path class="cls-4" d="M297.19,311.32c-.28-.38-48.17-8.39-82.24-42.88"></path>
        <path class="cls-4" d="M296.75,319.07c-.27-.38-48.16-8.4-82.24-42.88"></path>
        <path class="cls-4" d="M296.66,326.35c-.29-.38-48.37-7.14-83.34-40.73"></path>
        <path class="cls-4" d="M298.21,333.66c-.29-.37-48.51-6.06-84.22-38.86"></path>
        <path class="cls-4" d="M298.15,341.42c-.29-.37-48.51-6.06-84.22-38.86"></path>
        <path class="cls-4" d="M297,349.42c-.3-.36-48.57-5.61-84.57-38.09"></path>
        <path class="cls-4" d="M298.82,356.68c-.3-.36-48.68-4.53-85.39-36.2"></path>
        <path class="cls-4" d="M299,364.44c-.3-.36-48.68-4.53-85.39-36.2"></path>
        <path class="cls-4" d="M297.34,371.52c-.3-.36-48.7-4.25-85.6-35.7"></path>
        <path class="cls-4" d="M299.33,378.73c-.31-.35-48.79-3.17-86.37-33.79"></path>
        <path class="cls-4" d="M299.73,386.48c-.31-.35-48.79-3.17-86.37-33.79"></path>
        <path class="cls-4" d="M297.59,392.67c-.32-.35-48.8-3.06-86.46-33.59"></path>
        <path class="cls-4" d="M299.75,399.83c-.32-.34-48.85-2-87.18-31.66"></path>
        <path class="cls-4" d="M300.34,407.56c-.32-.34-48.85-2-87.18-31.66"></path>
        <path class="cls-4" d="M295.53,413.71c-.32-.35-48.79-3.14-86.39-33.75"></path>
        <path class="cls-4" d="M297.68,420.87c-.32-.34-48.85-2.06-87.12-31.82"></path>
        <path class="cls-4" d="M298.25,428.61c-.32-.34-48.84-2.06-87.12-31.82"></path>
        <path class="cls-4" d="M294.1,433.73c-.31-.35-48.8-2.91-86.56-33.33"></path>
        <path class="cls-4" d="M296.29,440.88c-.33-.34-48.86-1.82-87.28-31.39"></path>
        <path class="cls-4" d="M296.9,448.61c-.32-.34-48.86-1.82-87.28-31.39"></path>
        <path class="cls-4" d="M294.31,454.62c-.32-.34-48.86-1.72-87.34-31.22"></path>
        <path class="cls-4" d="M296.67,461.72c-.33-.33-48.89-.64-88-29.27"></path>
        <path class="cls-4" d="M297.47,469.44c-.33-.34-48.89-.64-88-29.28"></path>
        <path class="cls-4" d="M229.77,439.57c.23-.41,42.72-11.85,66.42-38.41"></path>
        <path class="cls-4" d="M229.77,447.89c.23-.41,42.72-11.85,66.42-38.41"></path>
        <path class="cls-4" d="M229.77,456.21c.23-.41,42.72-11.85,66.42-38.41"></path>
        <path class="cls-4" d="M219.05,403.72c.23-.41,47-13.54,77.14-51.5"></path>
        <path class="cls-4" d="M218.48,411.18c.25-.4,47.27-12.49,78.27-49.77"></path>
        <path class="cls-4" d="M219.58,418.86c.24-.4,47.27-12.49,78.27-49.77"></path>
        <path class="cls-4" d="M219.05,364.05c.23-.41,47-13.54,77.14-51.5"></path>
        <path class="cls-4" d="M218.48,371.5c.25-.4,47.27-12.49,78.27-49.77"></path>
        <path class="cls-4" d="M219.58,379.19c.24-.41,47.27-12.5,78.27-49.78"></path>
        <path class="cls-4" d="M219.05,325.46c.23-.41,47-13.54,77.14-51.5"></path>
        <path class="cls-4" d="M218.48,332.92c.25-.41,47.27-12.5,78.27-49.78"></path>
        <path class="cls-4" d="M219.58,340.6c.24-.41,47.27-12.49,78.27-49.77"></path>
        <path class="cls-4" d="M219.05,286.87c.23-.41,47-13.54,77.14-51.5"></path>
        <path class="cls-4" d="M218.48,294.33c.25-.41,47.27-12.49,78.27-49.77"></path>
        <path class="cls-4" d="M219.58,302c.24-.41,47.27-12.49,78.27-49.77"></path>
        <path class="cls-4" d="M219.05,248.28c.23-.41,47-13.54,77.14-51.5"></path>
        <path class="cls-4" d="M218.48,255.74c.25-.41,47.27-12.49,78.27-49.77"></path>
        <path class="cls-4" d="M219.58,263.42c.24-.41,47.27-12.49,78.27-49.77"></path>
        <path class="cls-4" d="M295.67,258.82c-.23-.41-47-13.54-77.14-51.5"></path>
        <path class="cls-4" d="M296.23,266.28c-.24-.4-47.26-12.49-78.26-49.77"></path>
        <path class="cls-4" d="M295.14,274c-.24-.4-47.27-12.49-78.27-49.77"></path>
        <path class="cls-4" d="M295,233.81c-.21-.42-46.49-15.12-75.35-54.08"></path>
        <path class="cls-4" d="M295.35,241.28c-.23-.41-46.82-14.08-76.54-52.39"></path>
        <path class="cls-4" d="M294,248.92c-.23-.41-46.82-14.08-76.54-52.39"></path>
        <path class="cls-4" d="M297.12,211.39c-.21-.42-46.31-15.67-74.71-55"></path>
        <path class="cls-4" d="M297.34,218.86c-.22-.41-46.65-14.63-75.91-53.28"></path>
        <path class="cls-4" d="M295.9,226.49c-.23-.42-46.65-14.63-75.92-53.29"></path>
      </g>
    </g>
    <line class="cls-4" x1="202.36" y1="222.38" x2="305.21" y2="222.38"></line>
    <rect class="cls-6" x="196.61" y="159.45" width="114.34" height="12.56" rx="6.28"></rect>
    <rect class="cls-6" x="196.61" y="192.93" width="114.34" height="12.56" rx="6.28"></rect>
    <polygon class="cls-7" points="265.39 144.2 232.9 144.2 232.9 134.75 265.39 144.2 265.39 144.2"></polygon>
    <path class="cls-7" d="M242.26,144.2c-1.9,0-85.29,1.77-78.73-18.75,5.72-17.88,32.74,11.91,4.36,40.28s-16.41,70.94-8.26,79.08"></path>
    <rect class="cls-6" x="202.36" y="440.95" width="102.85" height="10.74"></rect>
    <path class="cls-8" d="M305.21,451.69a17.63,17.63,0,0,1-17.64,17.63H220a17.63,17.63,0,0,1-17.64-17.63H305.21Z"></path>
    <rect class="cls-8" x="202.36" y="205.47" width="102.85" height="16.91"></rect>
    <rect class="cls-8" x="202.89" y="170.82" width="102.31" height="22.1"></rect>
    <path class="cls-6" d="M385.92,313.11H367.69l-.8,6.46a135.25,135.25,0,0,0,0,33.76l.8,6.46h18.23l1.39-11.12a98,98,0,0,0,0-24.44Z"></path>
    <line class="cls-4" x1="440.6" y1="242.02" x2="440.6" y2="156.15"></line>
    <path class="cls-8" d="M447.49,144.2H410.21a36.3,36.3,0,0,0-36.3,36.3V254l-6.22,59.14h18.23l5.59-43.68A15.46,15.46,0,0,1,407,254h38.39a3.75,3.75,0,0,0,3.67-4.51L448,244.22a2.77,2.77,0,0,0-2.71-2.2H409.7a23.12,23.12,0,0,1-23.12-23.12V179.27a23.12,23.12,0,0,1,23.12-23.12H445a3.23,3.23,0,0,0,3.12-2.38l1.74-6.44a2.48,2.48,0,0,0-2.39-3.13Z"></path>
    <line class="cls-4" x1="366.88" y1="322.42" x2="386.27" y2="322.42"></line>
    <line class="cls-4" x1="366.88" y1="331.76" x2="386.27" y2="331.76"></line>
    <line class="cls-4" x1="366.88" y1="341.1" x2="386.27" y2="341.1"></line>
    <line class="cls-4" x1="366.88" y1="350.44" x2="386.27" y2="350.44"></line>
    <path class="cls-8" d="M361,416.41c-2.7,8.18-6.11,30.2,5.28,52.86a.09.09,0,0,0,.18,0c-.08-4.25-.95-33.76,9.29-55.6,8.71-18.56,10.34-53.84,10.34-53.84H367.69a189,189,0,0,1-2.21,38.34A116.19,116.19,0,0,1,361,416.41Z"></path>
    <path class="cls-8" d="M305.21,157.63a13.43,13.43,0,0,0-13.44-13.43h-76a13.43,13.43,0,0,0-13.43,13.43v1.85H305.21Z"></path>
  </g>
</svg>
