<?xml version="1.0" encoding="UTF-8"?>
<!-- Generator: Adobe Illustrator 25.2.1, SVG Export Plug-In . SVG Version: 6.00 Build 0)  -->
<svg xmlns="http://www.w3.org/2000/svg" xmlns:xlink="http://www.w3.org/1999/xlink" id="Layer_1" x="0px" y="0px" viewBox="0 0 600 600" style="enable-background:new 0 0 600 600;" xml:space="preserve">
<style type="text/css">
	.st0{fill:none;}
	.st1{fill:#1C19A9;}
	.st2{fill:#FFDD00;stroke:#1C19A9;stroke-width:3.5;stroke-miterlimit:10;}
	.st3{fill:#FFFFFF;stroke:#1C19A9;stroke-width:3.5;stroke-miterlimit:10;}
	.st4{fill:url(#SVGID_2_);stroke:#1C19A9;stroke-width:3.5;stroke-miterlimit:10;}
	.st5{fill:none;stroke:#1C19A9;stroke-width:3.5;stroke-miterlimit:10;}
</style>
<pattern y="600" width="28.8" height="28.8" patternUnits="userSpaceOnUse" id="SVGID_1_" viewBox="1.4 -30.2 28.8 28.8" style="overflow:visible;">
	<g>
		<rect x="1.4" y="-30.2" class="st0" width="28.8" height="28.8"></rect>
		<g>
			<rect x="1.4" y="-30.2" class="st0" width="28.8" height="28.8"></rect>
			<g>
				<rect x="1.4" y="-30.2" class="st0" width="28.8" height="28.8"></rect>
				<path class="st0" d="M1.4-1.4h28.8v-28.8H1.4V-1.4z"></path>
				<path class="st1" d="M30.2-31.7c0.8,0,1.4,0.6,1.4,1.4s-0.6,1.4-1.4,1.4s-1.4-0.6-1.4-1.4S29.4-31.7,30.2-31.7L30.2-31.7z       M15.8-31.7c0.8,0,1.5,0.6,1.5,1.4s-0.6,1.5-1.4,1.5c-0.8,0-1.5-0.6-1.5-1.4l0,0C14.4-31,15.1-31.7,15.8-31.7z M30.2-17.3      c0.8,0,1.4,0.6,1.4,1.4s-0.6,1.4-1.4,1.4s-1.4-0.6-1.4-1.4S29.4-17.3,30.2-17.3L30.2-17.3z M15.8-17.3c0.8,0,1.5,0.6,1.5,1.4      s-0.6,1.5-1.4,1.5c-0.8,0-1.5-0.6-1.5-1.4l0,0C14.4-16.6,15.1-17.3,15.8-17.3z M8.6-24.4c0.8,0,1.4,0.6,1.4,1.4      c0,0.8-0.6,1.4-1.4,1.4S7.2-22.2,7.2-23l0,0C7.2-23.8,7.9-24.4,8.6-24.4z M23-24.4c0.8,0,1.4,0.6,1.4,1.4c0,0.8-0.6,1.4-1.4,1.4      s-1.4-0.6-1.4-1.4S22.2-24.4,23-24.4L23-24.4z M8.6-10.1c0.8,0,1.4,0.6,1.4,1.4S9.4-7.2,8.6-7.2c-0.8,0-1.4-0.6-1.4-1.4      C7.2-9.4,7.8-10.1,8.6-10.1L8.6-10.1z M23-10.1c0.8,0,1.4,0.6,1.4,1.4S23.8-7.3,23-7.3s-1.4-0.6-1.4-1.4S22.2-10.1,23-10.1      L23-10.1z M1.4-31.7c0.8,0,1.4,0.6,1.4,1.4l0,0c0,0.8-0.6,1.4-1.4,1.4S0-29.5,0-30.3l0,0C0-31,0.6-31.7,1.4-31.7L1.4-31.7z       M1.4-17.3c0.8,0,1.4,0.6,1.4,1.4l0,0c0,0.8-0.7,1.4-1.4,1.4c-0.8,0-1.4-0.6-1.4-1.4C0-16.6,0.6-17.3,1.4-17.3L1.4-17.3z       M30.2-2.9c0.8,0,1.4,0.6,1.4,1.4C31.7-0.6,31,0,30.2,0s-1.4-0.6-1.4-1.4C28.8-2.2,29.4-2.9,30.2-2.9L30.2-2.9z M15.8-2.9      c0.8,0,1.4,0.6,1.4,1.4s-0.6,1.4-1.4,1.4c-0.8,0-1.4-0.7-1.4-1.4C14.4-2.2,15.1-2.9,15.8-2.9z M1.4-2.9c0.8,0,1.4,0.6,1.4,1.4      C2.9-0.6,2.2,0,1.4,0S0-0.6,0-1.4l0,0C0-2.2,0.6-2.9,1.4-2.9L1.4-2.9z"></path>
			</g>
		</g>
	</g>
</pattern>
<path class="st2" d="M454.2,203.2c-14.1-14.1-35.2-22.1-55.9-23.1l0,0c-9.1-0.5-18.2,0.5-27,2.9l-0.6,0.2c-23,6.6-46.8,9.9-70.7,9.9  s-47.7-3.3-70.7-9.9l-0.6-0.2c-8.8-2.4-17.9-3.4-27-2.9l0,0c-20.8,1-41.8,9-55.9,23.1c-14.8,14.8-23.1,34.9-23.2,55.9v81.8  c0.1,20.9,8.4,41,23.2,55.9c14.1,14.1,35.2,22.1,55.9,23.1l0,0c9.1,0.5,18.2-0.5,27-2.9l0.6-0.2c23-6.6,46.8-9.9,70.7-9.9  s47.7,3.3,70.7,9.9l0.6,0.2c8.8,2.4,17.9,3.4,27,2.9l0,0c20.8-1,41.8-9,55.9-23.1c14.8-14.8,23.1-34.9,23.2-55.9v-81.8  C477.3,238.1,469,218.1,454.2,203.2z"></path>
<path class="st3" d="M454.2,203.2c-14.1-14.1-35.2-22.1-55.9-23.1l0,0c-9.1-0.5-18.2,0.5-27,2.9l-0.6,0.2c-23,6.6-46.8,9.9-70.7,9.9  s-47.7-3.3-70.7-9.9l-0.6-0.2c-8.8-2.4-17.9-3.4-27-2.9l0,0c-20.8,1-41.8,9-55.9,23.1c-14.8,14.8-23.1,34.9-23.2,55.9v20.1  c0.1,20.9,8.4,41,23.2,55.9c14.1,14.1,35.2,22.1,55.9,23.1l0,0c9.1,0.5,18.2-0.5,27-2.9l0.6-0.2c23-6.6,46.8-9.9,70.7-9.9  s47.7,3.3,70.7,9.9l0.6,0.2c8.8,2.4,17.9,3.4,27,2.9l0,0c20.8-1,41.8-9,55.9-23.1c14.8-14.8,23.1-34.9,23.2-55.9v-20.1  C477.3,238.1,469,218.1,454.2,203.2z"></path>
<pattern id="SVGID_2_" xlink:href="#SVGID_1_" patternTransform="matrix(1 0 0 -1 -3440.3877 -31375.4395)">
</pattern>
<path class="st4" d="M454.2,203.2c-14.1-14.1-35.2-22.1-55.9-23.1l0,0c-9.1-0.5-18.2,0.5-27,2.9l-0.6,0.2c-23,6.6-46.8,9.9-70.7,9.9  s-47.7-3.3-70.7-9.9l-0.6-0.2c-8.8-2.4-17.9-3.4-27-2.9l0,0c-20.8,1-41.8,9-55.9,23.1c-14.8,14.8-23.1,34.9-23.2,55.9v20.1  c0.1,20.9,8.4,41,23.2,55.9c14.1,14.1,35.2,22.1,55.9,23.1l0,0c9.1,0.5,18.2-0.5,27-2.9l0.6-0.2c23-6.6,46.8-9.9,70.7-9.9  s47.7,3.3,70.7,9.9l0.6,0.2c8.8,2.4,17.9,3.4,27,2.9l0,0c20.8-1,41.8-9,55.9-23.1c14.8-14.8,23.1-34.9,23.2-55.9v-20.1  C477.3,238.1,469,218.1,454.2,203.2z"></path>
<circle class="st5" cx="364.3" cy="381" r="9.5"></circle>
<circle class="st5" cx="207.1" cy="390.5" r="9.5"></circle>
<circle class="st5" cx="164.9" cy="374" r="9.5"></circle>
<circle class="st5" cx="416.9" cy="390.5" r="9.5"></circle>
</svg>
