<?xml version="1.0" encoding="UTF-8"?>
<svg xmlns="http://www.w3.org/2000/svg" viewBox="0 0 600 600">
  <defs>
    <style>.cls-1{fill:none}.cls-2{fill:#1c19a9}.cls-3{fill:#fffff7;stroke-miterlimit:10}.cls-3,.cls-5{stroke:#1c19a9;stroke-width:3.5px}.cls-4{fill:url(#Blue_dots_2)}.cls-5{fill:#fd0;stroke-linejoin:round}</style>
    <pattern id="Blue_dots_2" data-name="Blue dots 2" width="28.8" height="28.8" patternTransform="translate(-695.71 9.76)" patternUnits="userSpaceOnUse">
      <path class="cls-1" d="M0 0H28.8V28.8H0z"></path>
      <path class="cls-2" d="M28.8 30.24a1.44 1.44 0 1 0-1.44-1.44 1.44 1.44 0 0 0 1.44 1.44zm-14.4 0A1.44 1.44 0 1 0 13 28.8a1.44 1.44 0 0 0 1.4 1.44zm14.4-14.4a1.44 1.44 0 1 0-1.44-1.44 1.44 1.44 0 0 0 1.44 1.44zm-14.4 0A1.44 1.44 0 1 0 13 14.4a1.44 1.44 0 0 0 1.4 1.44zM7.2 23a1.44 1.44 0 1 0-1.44-1.4A1.44 1.44 0 0 0 7.2 23zm14.4 0a1.44 1.44 0 1 0-1.44-1.44A1.44 1.44 0 0 0 21.6 23zM7.2 8.64A1.44 1.44 0 1 0 5.76 7.2 1.44 1.44 0 0 0 7.2 8.64zm14.4 0a1.44 1.44 0 1 0-1.44-1.44 1.44 1.44 0 0 0 1.44 1.44zM0 30.24a1.44 1.44 0 0 0 1.44-1.44A1.45 1.45 0 0 0 0 27.36a1.44 1.44 0 0 0-1.44 1.44A1.43 1.43 0 0 0 0 30.24zm0-14.4a1.44 1.44 0 0 0 1.44-1.44A1.45 1.45 0 0 0 0 13a1.44 1.44 0 0 0-1.44 1.4A1.43 1.43 0 0 0 0 15.84zm28.8-14.4A1.45 1.45 0 0 0 30.24 0a1.45 1.45 0 0 0-1.44-1.44A1.44 1.44 0 0 0 27.36 0a1.44 1.44 0 0 0 1.44 1.44zm-14.4 0A1.45 1.45 0 0 0 15.84 0a1.45 1.45 0 0 0-1.44-1.44A1.44 1.44 0 0 0 13 0a1.44 1.44 0 0 0 1.4 1.44zM0 1.44A1.45 1.45 0 0 0 1.44 0 1.45 1.45 0 0 0 0-1.44 1.44 1.44 0 0 0-1.44 0 1.44 1.44 0 0 0 0 1.44z"></path>
    </pattern>
  </defs>
  <g id="Layer_2" data-name="Layer 2">
    <rect class="cls-3" x="122.63" y="197.01" width="354.75" height="205.98" rx="37.49"></rect>
    <rect class="cls-4" x="122.63" y="197.01" width="354.75" height="165.17" rx="37.49"></rect>
    <path class="cls-5" d="M239.92 197.01H360.08V402.99H239.92z"></path>
    <path class="cls-2" d="M300 246.42c-5.9 0-7.89 4.8-7.84 9.2 0 3.21 2.59 8.63 3.65 13 .94 3.89 2.4 9.37 2.4 12.79v9.69c-2.37-2.47-5.1-8-7.11-11.46-2.25-3.88-4.17-9.6-6.33-11.87-3.05-3.18-8.09-5-12-1.23-4.26 4.07-2.39 8.92.69 12.07 2.23 2.29 7.83 4.45 11.61 6.88 3.38 2.16 8.22 5.12 10.58 7.58l2.6 2.73V310l-1.34-.82c-2.92-1.79-6.84-5.92-9.68-8.77-3.17-3.17-6.49-8.22-9.16-9.85-3.75-2.3-9.09-2.76-11.94 1.89-3.07 5 0 9.23 3.75 11.49 2.75 1.64 8.72 2.3 13 3.68 3.81 1.22 9.25 2.84 12.16 4.62l3.22 2v16.7l-1.96-.94c-3.1-1.45-7.47-5.11-10.62-7.62-3.5-2.79-7.37-7.42-10.21-8.74-4-1.86-9.35-1.71-11.65 3.23-2.49 5.35 1 9.18 5 11 2.92 1.32 8.92 1.29 13.33 2.18 3.92.78 9.51 1.77 12.61 3.21l3.41 1.59v18.72h3.6v-18.71l3.41-1.59c3.1-1.44 8.69-2.43 12.61-3.21 4.41-.89 10.41-.86 13.33-2.18 4-1.81 7.52-5.65 5-11-2.3-4.94-7.66-5.09-11.66-3.23-2.84 1.32-6.71 5.95-10.21 8.74-3.15 2.51-7.52 6.17-10.62 7.62l-1.9.88V314.2l3.21-2c2.91-1.78 8.35-3.39 12.16-4.62 4.28-1.38 10.24-2 13-3.68 3.78-2.26 6.82-6.47 3.75-11.49-2.85-4.65-8.19-4.19-11.94-1.89-2.67 1.64-6 6.68-9.16 9.85-2.84 2.85-6.76 7-9.68 8.77l-1.34.82V295.8l2.6-2.73c2.36-2.46 7.2-5.42 10.58-7.58 3.78-2.43 9.38-4.59 11.62-6.88 3.07-3.15 4.94-8 .68-12.07-3.94-3.77-9-2-12 1.23-2.17 2.27-4.09 8-6.33 11.87-2 3.48-4.75 9-7.12 11.46v-9.69c0-3.43 1.48-8.93 2.43-12.85 1-4.35 3.62-9.81 3.62-12.94 0-4.4-2.4-9.2-7.85-9.2z"></path>
  </g>
</svg>
