<?xml version="1.0" encoding="UTF-8"?>
<svg xmlns="http://www.w3.org/2000/svg" viewBox="0 0 600 600">
  <defs>
    <style>.cls-1{fill:none}.cls-2{fill:#1c19a9}.cls-3{fill:#fffff7}.cls-3,.cls-4,.cls-5,.cls-6,.cls-7{stroke:#1c19a9;stroke-miterlimit:10;stroke-width:3.5px}.cls-4{fill:#fff}.cls-5{fill:#fd0}.cls-6{fill:url(#Blue_dots_2)}.cls-7{fill:#34c18b}</style>
    <pattern id="Blue_dots_2" data-name="Blue dots 2" width="28.8" height="28.8" patternTransform="translate(-703.1 39.13)" patternUnits="userSpaceOnUse">
      <path class="cls-1" d="M0 0H28.8V28.8H0z"></path>
      <path class="cls-2" d="M28.8 30.24a1.44 1.44 0 1 0-1.44-1.44 1.44 1.44 0 0 0 1.44 1.44zm-14.4 0A1.44 1.44 0 1 0 13 28.8a1.44 1.44 0 0 0 1.4 1.44zm14.4-14.4a1.44 1.44 0 1 0-1.44-1.44 1.44 1.44 0 0 0 1.44 1.44zm-14.4 0A1.44 1.44 0 1 0 13 14.4a1.44 1.44 0 0 0 1.4 1.44zM7.2 23a1.44 1.44 0 1 0-1.44-1.4A1.44 1.44 0 0 0 7.2 23zm14.4 0a1.44 1.44 0 1 0-1.44-1.44A1.44 1.44 0 0 0 21.6 23zM7.2 8.64A1.44 1.44 0 1 0 5.76 7.2 1.44 1.44 0 0 0 7.2 8.64zm14.4 0a1.44 1.44 0 1 0-1.44-1.44 1.44 1.44 0 0 0 1.44 1.44zM0 30.24a1.44 1.44 0 0 0 1.44-1.44A1.45 1.45 0 0 0 0 27.36a1.44 1.44 0 0 0-1.44 1.44A1.43 1.43 0 0 0 0 30.24zm0-14.4a1.44 1.44 0 0 0 1.44-1.44A1.45 1.45 0 0 0 0 13a1.44 1.44 0 0 0-1.44 1.4A1.43 1.43 0 0 0 0 15.84zm28.8-14.4A1.45 1.45 0 0 0 30.24 0a1.45 1.45 0 0 0-1.44-1.44A1.44 1.44 0 0 0 27.36 0a1.44 1.44 0 0 0 1.44 1.44zm-14.4 0A1.45 1.45 0 0 0 15.84 0a1.45 1.45 0 0 0-1.44-1.44A1.44 1.44 0 0 0 13 0a1.44 1.44 0 0 0 1.4 1.44zM0 1.44A1.45 1.45 0 0 0 1.44 0 1.45 1.45 0 0 0 0-1.44 1.44 1.44 0 0 0-1.44 0 1.44 1.44 0 0 0 0 1.44z"></path>
    </pattern>
  </defs>
  <g id="Layer_2" data-name="Layer 2">
    <path class="cls-3" d="M216 167.87v110.41A84 84 0 0 0 285.82 361v89.44a10.73 10.73 0 0 0 10.73 10.73h6.9a10.73 10.73 0 0 0 10.73-10.73V361A84 84 0 0 0 384 278.28V167.87z"></path>
    <path class="cls-4" d="M216 167.87v110.41A84 84 0 0 0 285.82 361v89.44a10.73 10.73 0 0 0 10.73 10.73h6.9a10.73 10.73 0 0 0 10.73-10.73V361A84 84 0 0 0 384 278.28V167.87z"></path>
    <path class="cls-5" d="M206.77 167.87h186.46v21.75a8.68 8.68 0 0 1-8.68 8.68h-169.1a8.68 8.68 0 0 1-8.68-8.68v-21.75z"></path>
    <path class="cls-6" d="M206.77 167.87h186.46v21.75a8.68 8.68 0 0 1-8.68 8.68h-169.1a8.68 8.68 0 0 1-8.68-8.68v-21.75z"></path>
    <rect class="cls-7" x="197.21" y="138.79" width="205.57" height="30.43" rx="7.69"></rect>
    <path class="cls-3" d="M220.29 304.73L381.13 304.73"></path>
    <path class="cls-3" d="M287.24 380.83L314.18 380.83"></path>
    <path class="cls-3" d="M287.24 406.99L314.18 406.99"></path>
    <path class="cls-3" d="M287.24 433.16L314.18 433.16"></path>
    <path class="cls-3" d="M216.03 246.42L383.97 246.42"></path>
  </g>
</svg>
