<?xml version="1.0" encoding="UTF-8"?>
<svg xmlns="http://www.w3.org/2000/svg" id="Layer_1" data-name="Layer 1" viewBox="0 0 1570 1080">
  <defs>
    <style>.cls-1{fill:#fff;}.cls-2,.cls-8{fill:#00ab81;}.cls-3,.cls-7{fill:#fb715d;}.cls-4{fill:#1c19a8;}.cls-5,.cls-6{fill:#ffde00;}.cls-6,.cls-7,.cls-8{fill-rule:evenodd;}</style>
  </defs>
  <rect class="cls-1" x="201.29" y="112.39" width="380.84" height="238.28"></rect>
  <rect class="cls-2" x="-19.42" y="-14.49" width="1625" height="1118.55"></rect>
  <rect class="cls-3" x="298.19" y="216.67" width="1008" height="690.2"></rect>
  <path class="cls-4" d="M1307.6,908.28H296.78v-693H1307.6Zm-1008-2.82H1304.78V218.08H299.6Z"></path>
  <rect class="cls-4" x="298.19" y="265.41" width="1008" height="2.82"></rect>
  <rect class="cls-5" x="388.49" y="230.67" width="21" height="21" rx="10.5"></rect>
  <path class="cls-4" d="M399,253.08a11.91,11.91,0,1,1,11.91-11.91A11.93,11.93,0,0,1,399,253.08Zm0-21a9.09,9.09,0,1,0,9.09,9.09A9.1,9.1,0,0,0,399,232.08Z"></path>
  <rect class="cls-5" x="352.09" y="231.37" width="21" height="21" rx="10.5"></rect>
  <path class="cls-4" d="M362.59,253.78a11.91,11.91,0,1,1,11.91-11.91A11.93,11.93,0,0,1,362.59,253.78Zm0-21a9.09,9.09,0,1,0,9.09,9.09A9.1,9.1,0,0,0,362.59,232.78Z"></path>
  <rect class="cls-5" x="315.69" y="232.07" width="21" height="21" rx="10.5"></rect>
  <path class="cls-4" d="M326.19,254.48a11.91,11.91,0,1,1,11.91-11.91A11.93,11.93,0,0,1,326.19,254.48Zm0-21a9.09,9.09,0,1,0,9.09,9.09A9.1,9.1,0,0,0,326.19,233.48Z"></path>
  <path class="cls-4" d="M450.6,546.46l48.5-39.31H451.5V485.31h60.59v16.91l-47.6,39.65H512v21.84H450.6Z"></path>
  <path class="cls-4" d="M519.37,485.31h59v21.84H525.08v7.61h52.08V533H525.08v8.85h53.31v21.84h-59Z"></path>
  <path class="cls-4" d="M638.65,534.48l11,29.23H629l-10.19-26.66H593v26.66h-5.71v-78.4h34.94c13.11,0,30.47,3.13,30.47,25.65C652.65,524.62,646.37,531.34,638.65,534.48ZM593,516.33h26.88c24.75,0,29.34,0,29.34-5.37S643.24,506,619.83,506H593Z"></path>
  <path class="cls-4" d="M656.79,524.51c0-25.2,13.78-40.88,37.41-40.88s37.29,15.68,37.29,40.88-13.77,40.88-37.29,40.88S656.79,549.71,656.79,524.51Zm70.11,0c0-8.63-6.94-19.49-32.7-19.49s-32.82,10.86-32.82,19.49S668.44,544,694.2,544,726.9,533.13,726.9,524.51Z"></path>
  <path class="cls-4" d="M759.83,485.31h6.61l23.18,65.07,22.29-65.07h6.61l23.18,65.07,22.4-65.07h24.41l-27.88,78.4H839.91l-15.68-44-15.68,44H787.83Z"></path>
  <path class="cls-4" d="M906,485.31h23.63l29,78.4h-24l-4-11.76H888.52l-3.92,11.76h-7Zm17.92,47L909.8,491.47l-14.67,40.88Z"></path>
  <path class="cls-4" d="M956.39,533.92H961C961,540.3,971.4,544,989,544c18.7,0,29.79-2.92,29.79-7.84,0-11.88-62.38,8.51-61.82-28.23.22-15.23,12.43-24.3,32.81-24.3,20,0,31.92,10.64,31.92,28.56h-4.59c0-4.48-10.53-7.17-28.45-7.17-17,0-27.1,1.9-27.1,5.15,0,13.11,61.82-4.25,61.82,27.22,0,17.58-12.32,28-33.26,28C968.93,565.39,956.39,553.74,956.39,533.92Z"></path>
  <path class="cls-4" d="M1055,507.15H1025V485.31h65.64v21.84h-30v56.56H1055Z"></path>
  <path class="cls-4" d="M1094.82,485.31h59v21.84h-53.31v7.61h52.08V533h-52.08v8.85h53.31v21.84h-59Z"></path>
  <path class="cls-4" d="M661.83,658.91c0-25.2,13.78-40.88,39.65-40.88,16.91,0,33.71,10.41,33.71,28H730.6c0-4.82-13-6.16-31.36-6.16-30.24,0-32.82,10.41-32.82,19s2.58,19,32.82,19c19.26,0,31.58-3.14,31.58-7.39h4.59c0,18.25-16.57,29.23-33.93,29.23C675.61,699.79,661.83,684.11,661.83,658.91Z"></path>
  <path class="cls-4" d="M741.35,619.71h5.71v56.56h52.19v21.84h-57.9Z"></path>
  <path class="cls-4" d="M804.3,670.33V619.71H810v46.93c0,6.6,2.8,11.31,27.44,11.31s27.33-4.71,27.33-11.31V619.71h5.71v50.62c0,17-8.18,29.46-33,29.46S804.3,687.36,804.3,670.33Z"></path>
  <path class="cls-4" d="M879.33,619.71h33.83c19.49,0,31.58,7.61,31.58,20.94,0,9.75-2.24,14.67-13.55,16.35,11.65,2,14,8.4,14,19.38,0,17.14-14.78,21.73-27.55,21.73H879.33Zm28.23,31.36c26.43,0,31.58-1.12,31.58-4.82s-6.49-4.7-31.58-4.7H885.05v9.52Zm3.69,25.2c24.87,0,29.35-1.68,29.35-5.49,0-4.59-5.71-5.94-29.35-5.94h-26.2v11.43Z"></path>
  <path class="cls-1" d="M991,410.78l-43.1-25.25a3.52,3.52,0,0,0-3.93.12,3.7,3.7,0,0,0-1.51,3.64l8.71,49.22a3.64,3.64,0,0,0,6.51,1.59l7.3-9.39,9.49,13.73a3.35,3.35,0,0,0,2.39,1.46,3.68,3.68,0,0,0,1,.08,4,4,0,0,0,1.72-.62l8-5.53a3.65,3.65,0,0,0,.93-5.1L979.05,421l11.18-3.61a3.75,3.75,0,0,0,2.56-3.12A3.67,3.67,0,0,0,991,410.78Z"></path>
  <path class="cls-4" d="M977.65,447.4a5,5,0,0,1-.83-.08l-.16,0a4.74,4.74,0,0,1-3.37-2.1l-8.37-12.1L958.8,441a5,5,0,0,1-9-2.23l-8.71-49.21a5.1,5.1,0,0,1,2.09-5,4.93,4.93,0,0,1,5.48-.17l43.06,25.23a5,5,0,0,1,2.48,4.85,5.18,5.18,0,0,1-3.56,4.33l-9.34,3,8.42,12.16a5.09,5.09,0,0,1-1.29,7.07l-8,5.53a5.3,5.3,0,0,1-2.38.86A2.18,2.18,0,0,1,977.65,447.4ZM965,429.3h0a1.43,1.43,0,0,1,1.12.6l9.49,13.73a2,2,0,0,0,1.46.88l.16,0a1.87,1.87,0,0,0,.46.05,2.65,2.65,0,0,0,1.11-.41l8-5.5a2.27,2.27,0,0,0,.57-3.15l-9.5-13.72a1.41,1.41,0,0,1,.73-2.14l11.18-3.61a2.35,2.35,0,0,0,1.59-2,2.23,2.23,0,0,0-1.06-2.06h0l-43.1-25.25a2.11,2.11,0,0,0-2.4.05,2.29,2.29,0,0,0-.94,2.26l8.71,49.21a2.23,2.23,0,0,0,4,.94l7.27-9.37A1.43,1.43,0,0,1,965,429.3Z"></path>
  <path class="cls-6" d="M212.05,699.83a.86.86,0,0,0-.64.93v4.6a.85.85,0,0,0,.72.93h.2a3.06,3.06,0,0,1-.65,1.25,11,11,0,0,1-2,1.72,9.87,9.87,0,0,0-2.29,2.13,6.78,6.78,0,0,0-1.2,3.86v21.48c0,2.24,1.43,4.07,3.17,4.07h16.92c1.74,0,3.17-1.84,3.17-4.07V715.29a6.68,6.68,0,0,0-1.18-3.84,10.54,10.54,0,0,0-2.29-2.17,10.23,10.23,0,0,1-2-1.73,3.14,3.14,0,0,1-.64-1.26h.24a.85.85,0,0,0,.73-.93l0-4.59a1,1,0,0,0-.21-.67.66.66,0,0,0-.51-.27H212.05Z"></path>
  <rect class="cls-5" x="139.45" y="621.96" width="24.34" height="27.38"></rect>
  <rect class="cls-2" x="139.07" y="574.08" width="87.82" height="27.38"></rect>
  <path class="cls-4" d="M226.89,602.87H139.07a1.41,1.41,0,0,1-1.41-1.41V574.08a1.41,1.41,0,0,1,1.41-1.41h87.82a1.41,1.41,0,0,1,1.41,1.41v27.38A1.41,1.41,0,0,1,226.89,602.87Zm-86.41-2.82h85V575.49h-85Z"></path>
  <rect class="cls-2" x="294.13" y="574.08" width="87.82" height="27.38"></rect>
  <path class="cls-4" d="M382,602.87H294.13a1.41,1.41,0,0,1-1.41-1.41V574.08a1.41,1.41,0,0,1,1.41-1.41H382a1.41,1.41,0,0,1,1.41,1.41v27.38A1.41,1.41,0,0,1,382,602.87Zm-86.41-2.82h85V575.49h-85Z"></path>
  <rect class="cls-5" x="177.05" y="621.96" width="24.34" height="27.38"></rect>
  <rect class="cls-5" x="169.66" y="792.35" width="24.34" height="27.38"></rect>
  <rect class="cls-5" x="221.6" y="792.35" width="24.34" height="27.38"></rect>
  <path class="cls-6" d="M146.43,699.83a.88.88,0,0,0-.65.93v4.6a.85.85,0,0,0,.73.93h.19a3.06,3.06,0,0,1-.65,1.25,11,11,0,0,1-2,1.72,9.84,9.84,0,0,0-2.28,2.13,6.71,6.71,0,0,0-1.21,3.86v21.48c0,2.24,1.43,4.07,3.17,4.07h16.92c1.74,0,3.17-1.84,3.17-4.07V715.29a6.61,6.61,0,0,0-1.18-3.84,10.51,10.51,0,0,0-2.28-2.17,10.63,10.63,0,0,1-2-1.73,3.12,3.12,0,0,1-.63-1.26h.24a.85.85,0,0,0,.72-.93l0-4.59a1.16,1.16,0,0,0-.21-.67.69.69,0,0,0-.52-.27H146.43Z"></path>
  <path class="cls-7" d="M209.4,740.8c-1.74,0-3.17-1.83-3.17-4.07V715.25a6.78,6.78,0,0,1,1.21-3.86,10.12,10.12,0,0,1,2.28-2.14,10.26,10.26,0,0,0,2-1.71,3.06,3.06,0,0,0,.65-1.25h-.19a.86.86,0,0,1-.73-.94v-4.59a.88.88,0,0,1,.65-.93H221v-.35a12.09,12.09,0,0,0-2.16-7,18.73,18.73,0,0,0-4.16-4,19.49,19.49,0,0,1-3.56-3.16,5.55,5.55,0,0,1-1.16-2.31h.43a1.55,1.55,0,0,0,1.33-1.7l.06-8.36a2,2,0,0,0-.38-1.22,1.22,1.22,0,0,0-.95-.51H189.19A1.6,1.6,0,0,0,188,673v8.39a1.55,1.55,0,0,0,1.32,1.7h.35a5.65,5.65,0,0,1-1.18,2.28,19.58,19.58,0,0,1-3.58,3.14,18,18,0,0,0-4.16,3.9,12.23,12.23,0,0,0-2.2,7v39.19c0,4.07,2.61,7.43,5.78,7.43h30.87c2.56,0,4.67-2.23,5.42-5.22Z"></path>
  <path class="cls-4" d="M226.32,743H209.4c-3,0-5.38-2.82-5.38-6.29V715.26a8.93,8.93,0,0,1,1.63-5.17,12.09,12.09,0,0,1,2.75-2.61c.37-.28.75-.56,1.06-.83a3.29,3.29,0,0,1-.27-1.3v-4.59a3.06,3.06,0,0,1,2.55-3.12,1.63,1.63,0,0,1,.31,0h11.66a2.86,2.86,0,0,1,2.26,1.14,3.32,3.32,0,0,1,.68,2l0,4.6a3.33,3.33,0,0,1-.27,1.31c.33.31.67.57,1,.84a12.62,12.62,0,0,1,2.74,2.64,8.86,8.86,0,0,1,1.6,5.11v21.46C231.7,740.2,229.28,743,226.32,743Zm-12.7-38.45a3,3,0,0,1,.36.35,2.32,2.32,0,0,1,.5,1.9,5.45,5.45,0,0,1-1.07,2.1,12.78,12.78,0,0,1-2.36,2.11,8,8,0,0,0-1.82,1.66,4.5,4.5,0,0,0-.79,2.6v21.44c0,1.14.63,1.86,1,1.86h16.92c.32,0,1-.72,1-1.86V715.31a4.44,4.44,0,0,0-.76-2.57,8.46,8.46,0,0,0-1.82-1.7,12.18,12.18,0,0,1-2.36-2.12,5.37,5.37,0,0,1-1.05-2.13,2.23,2.23,0,0,1,.42-1.88,2.37,2.37,0,0,1,.49-.46l0-2.41h-8.59Zm8.57.77h0Zm-10.06-1.27h0Z"></path>
  <path class="cls-4" d="M215.2,748.23H184.34c-4.41,0-8-4.32-8-9.65V699.43a14.59,14.59,0,0,1,2.61-8.36,19.94,19.94,0,0,1,4.64-4.37,19.25,19.25,0,0,0,3.15-2.72,3.93,3.93,0,0,1-1-2.63V673a3.81,3.81,0,0,1,3.1-3.9,5.24,5.24,0,0,1,.69,0h20.87a3.38,3.38,0,0,1,2.69,1.38A4.11,4.11,0,0,1,214,673l-.06,8.35a4.14,4.14,0,0,1-1,2.71,19.27,19.27,0,0,0,3,2.59,21.56,21.56,0,0,1,4.74,4.51,14.39,14.39,0,0,1,2.57,8.27,2.62,2.62,0,0,1-.64,1.76A2.39,2.39,0,0,1,221,702h-7.36v2.53a2.32,2.32,0,0,1,.35.35,2.25,2.25,0,0,1,.5,1.9,5.42,5.42,0,0,1-1.06,2.1A12.39,12.39,0,0,1,211,711a8.23,8.23,0,0,0-1.81,1.66,4.47,4.47,0,0,0-.78,2.6v21.44c0,1.14.62,1.86,1,1.86h11.23a2.2,2.2,0,0,1,1.74.85,2.23,2.23,0,0,1,.41,1.9C221.75,745.46,218.7,748.23,215.2,748.23Zm-25-67.23a2.21,2.21,0,0,1,1,.69,2.3,2.3,0,0,1,.58,1.9,7.85,7.85,0,0,1-1.6,3.13,22.18,22.18,0,0,1-4,3.52,16.56,16.56,0,0,0-3.7,3.42,10.1,10.1,0,0,0-1.78,5.78v39.14c0,2.79,1.67,5.23,3.57,5.23H215.2A2.67,2.67,0,0,0,217,743H209.4c-3,0-5.38-2.82-5.38-6.29V715.26a9.06,9.06,0,0,1,1.62-5.16,12.24,12.24,0,0,1,2.75-2.62c.37-.26.76-.56,1.08-.83a3.15,3.15,0,0,1-.27-1.3v-4.59a3.06,3.06,0,0,1,2.55-3.12l6.83,0a9.13,9.13,0,0,0-1.54-3.85,17.15,17.15,0,0,0-3.71-3.49,21.56,21.56,0,0,1-4-3.56,7.92,7.92,0,0,1-1.57-3.17,2.2,2.2,0,0,1,1.71-2.66l.05-7.41H190.22Zm21.92,23.07h0Zm1.49-3.34v0Z"></path>
  <rect class="cls-4" x="121.28" y="818.38" width="134.23" height="9.02"></rect>
  <rect class="cls-4" x="121.28" y="647.86" width="134.23" height="9.02"></rect>
  <rect class="cls-4" x="121.28" y="600.56" width="134.23" height="9.02"></rect>
  <path class="cls-4" d="M166,651.57H137.22V619.72H166Zm-24.34-4.47h19.86V624.2H141.69Z"></path>
  <path class="cls-4" d="M203.63,651.57H174.81V619.72h28.82Zm-24.35-4.47h19.87V624.2H179.28Z"></path>
  <path class="cls-4" d="M196.24,822H167.42V790.11h28.82ZM171.9,817.5h19.86V794.59H171.9Z"></path>
  <path class="cls-4" d="M248.17,822H219.36V790.11h28.81Zm-24.33-4.47H243.7V794.59H223.84Z"></path>
  <path class="cls-4" d="M160.69,743H143.77c-3,0-5.38-2.82-5.38-6.29V715.26A9.06,9.06,0,0,1,140,710.1a12.24,12.24,0,0,1,2.75-2.62c.35-.25.75-.55,1.07-.83a3.32,3.32,0,0,1-.26-1.3v-4.59a3.06,3.06,0,0,1,2.55-3.12,1.55,1.55,0,0,1,.31,0h11.65a2.88,2.88,0,0,1,2.27,1.14,3.27,3.27,0,0,1,.67,2.07l0,4.54a3.27,3.27,0,0,1-.28,1.33,11.69,11.69,0,0,0,1,.78,12.85,12.85,0,0,1,2.8,2.69,8.9,8.9,0,0,1,1.6,5.1v21.47C166.07,740.2,163.66,743,160.69,743ZM148,704.57a2.32,2.32,0,0,1,.35.35,2.29,2.29,0,0,1,.5,1.9,5.42,5.42,0,0,1-1.06,2.1,13,13,0,0,1-2.38,2.11,8.23,8.23,0,0,0-1.81,1.66,4.4,4.4,0,0,0-.78,2.6v21.44c0,1.14.63,1.86,1,1.86h16.92c.33,0,1-.72,1-1.86V715.31a4.47,4.47,0,0,0-.77-2.57,8.33,8.33,0,0,0-1.82-1.69,12.2,12.2,0,0,1-2.36-2.14,5.31,5.31,0,0,1-1-2.14,2.2,2.2,0,0,1,.43-1.87,2.32,2.32,0,0,1,.49-.45l0-2.41H148Zm8.56.77h0Zm-10.05-1.27h0Zm10.08-3.31v0Zm-8.59,0v0Z"></path>
  <rect class="cls-4" x="121.28" y="740.8" width="134.23" height="9.02"></rect>
  <rect class="cls-4" x="254.1" y="600.56" width="2.82" height="306.53"></rect>
  <rect class="cls-4" x="119.87" y="600.56" width="2.82" height="306.53"></rect>
  <path class="cls-6" d="M361.7,699.83a.88.88,0,0,0-.65.93v4.6a.85.85,0,0,0,.73.93H362a3.16,3.16,0,0,1-.64,1.25,11.08,11.08,0,0,1-2,1.72,10,10,0,0,0-2.28,2.13,6.78,6.78,0,0,0-1.21,3.86v21.48c0,2.24,1.43,4.07,3.17,4.07H376c1.74,0,3.17-1.84,3.17-4.07V715.29a6.61,6.61,0,0,0-1.18-3.84,10.29,10.29,0,0,0-2.28-2.17,10.23,10.23,0,0,1-1.95-1.73,3,3,0,0,1-.64-1.26h.24a.85.85,0,0,0,.73-.93l0-4.59a1.09,1.09,0,0,0-.21-.67.67.67,0,0,0-.52-.27H361.7Z"></path>
  <rect class="cls-5" x="289.1" y="621.96" width="24.34" height="27.38"></rect>
  <rect class="cls-5" x="326.69" y="621.96" width="24.34" height="27.38"></rect>
  <rect class="cls-5" x="319.31" y="792.35" width="24.34" height="27.38"></rect>
  <rect class="cls-5" x="371.24" y="792.35" width="24.34" height="27.38"></rect>
  <path class="cls-6" d="M296.07,699.83a.86.86,0,0,0-.64.93v4.6a.85.85,0,0,0,.72.93h.2a3.32,3.32,0,0,1-.65,1.25,11.08,11.08,0,0,1-2,1.72,10,10,0,0,0-2.28,2.13,6.71,6.71,0,0,0-1.2,3.86v21.48c0,2.24,1.43,4.07,3.17,4.07h16.92c1.74,0,3.17-1.84,3.17-4.07V715.29a6.76,6.76,0,0,0-1.18-3.84,10.54,10.54,0,0,0-2.29-2.17,10.23,10.23,0,0,1-2-1.73,3.14,3.14,0,0,1-.64-1.26h.24a.85.85,0,0,0,.73-.93l0-4.59a1,1,0,0,0-.21-.67.66.66,0,0,0-.51-.27H296.07Z"></path>
  <path class="cls-7" d="M359.05,740.8c-1.74,0-3.17-1.83-3.17-4.07V715.25a6.71,6.71,0,0,1,1.2-3.86,10.15,10.15,0,0,1,2.29-2.14,10.58,10.58,0,0,0,2-1.71,3.32,3.32,0,0,0,.65-1.25h-.19a.85.85,0,0,1-.73-.94v-4.59a.86.86,0,0,1,.64-.93h8.93v-.35a12.16,12.16,0,0,0-2.15-7,18.77,18.77,0,0,0-4.17-4,20.18,20.18,0,0,1-3.56-3.16,5.8,5.8,0,0,1-1.16-2.31H360a1.55,1.55,0,0,0,1.32-1.7l.06-8.36a2,2,0,0,0-.38-1.22,1.2,1.2,0,0,0-.94-.51H338.83a1.62,1.62,0,0,0-1.18,1.7v8.39a1.55,1.55,0,0,0,1.33,1.7h.35a5.65,5.65,0,0,1-1.18,2.28,20,20,0,0,1-3.59,3.14,18.42,18.42,0,0,0-4.16,3.9,12.31,12.31,0,0,0-2.2,7v39.19c0,4.07,2.61,7.43,5.79,7.43h30.86c2.57,0,4.68-2.23,5.43-5.22Z"></path>
  <path class="cls-4" d="M376,743H359c-3,0-5.38-2.82-5.38-6.29V715.26a9,9,0,0,1,1.63-5.17,12.51,12.51,0,0,1,2.75-2.61c.37-.28.75-.56,1.07-.83a3.12,3.12,0,0,1-.27-1.3v-4.59a3.05,3.05,0,0,1,2.54-3.12,1.73,1.73,0,0,1,.32,0h11.65a2.88,2.88,0,0,1,2.27,1.14,3.31,3.31,0,0,1,.67,2l0,4.6a3.33,3.33,0,0,1-.27,1.31,10.35,10.35,0,0,0,1,.84,12.62,12.62,0,0,1,2.74,2.64,8.85,8.85,0,0,1,1.59,5.11v21.46C381.34,740.2,378.93,743,376,743Zm-12.69-38.45a2.32,2.32,0,0,1,.35.35,2.29,2.29,0,0,1,.5,1.9,5.42,5.42,0,0,1-1.06,2.1,12.84,12.84,0,0,1-2.37,2.11,8,8,0,0,0-1.82,1.66,4.5,4.5,0,0,0-.78,2.6v21.44c0,1.14.63,1.86,1,1.86H376c.33,0,1-.72,1-1.86V715.31a4.44,4.44,0,0,0-.77-2.57,8.23,8.23,0,0,0-1.82-1.7,12.13,12.13,0,0,1-2.35-2.12,5.4,5.4,0,0,1-1.06-2.13,2.23,2.23,0,0,1,.42-1.88,2.42,2.42,0,0,1,.5-.46l0-2.41h-8.59Zm8.56.77h0Zm-10.05-1.27h0Z"></path>
  <path class="cls-4" d="M364.85,748.23H334c-4.4,0-8-4.32-8-9.65V699.43a14.67,14.67,0,0,1,2.62-8.36,20.11,20.11,0,0,1,4.63-4.37,18.83,18.83,0,0,0,3.15-2.72,4,4,0,0,1-.95-2.63V673a3.8,3.8,0,0,1,3.09-3.9,5.27,5.27,0,0,1,.69,0h20.87a3.38,3.38,0,0,1,2.7,1.38,4.17,4.17,0,0,1,.84,2.59l-.07,8.35a4.09,4.09,0,0,1-1,2.71,18.93,18.93,0,0,0,3,2.59,21.53,21.53,0,0,1,4.73,4.51,14.4,14.4,0,0,1,2.58,8.27,2.72,2.72,0,0,1-.64,1.76,2.42,2.42,0,0,1-1.58.83h-7.36v2.53a2.39,2.39,0,0,1,.36.35,2.29,2.29,0,0,1,.5,1.9,5.31,5.31,0,0,1-1.07,2.1,12.64,12.64,0,0,1-2.37,2.11,8.06,8.06,0,0,0-1.82,1.66,4.55,4.55,0,0,0-.78,2.6v21.44c0,1.14.63,1.86,1,1.86h11.24a2.2,2.2,0,0,1,1.74.85,2.23,2.23,0,0,1,.41,1.9C371.4,745.46,368.35,748.23,364.85,748.23Zm-25-67.23a2.3,2.3,0,0,1,1,.69,2.33,2.33,0,0,1,.58,1.9,8.12,8.12,0,0,1-1.6,3.13,22.25,22.25,0,0,1-4,3.52,16.78,16.78,0,0,0-3.7,3.42,10,10,0,0,0-1.77,5.78v39.14c0,2.79,1.66,5.23,3.56,5.23h30.87a2.63,2.63,0,0,0,1.78-.79H359c-3,0-5.37-2.82-5.37-6.29V715.26a8.92,8.92,0,0,1,1.62-5.16,12,12,0,0,1,2.75-2.62c.36-.26.75-.56,1.07-.83a3.32,3.32,0,0,1-.26-1.3v-4.59a3.05,3.05,0,0,1,2.55-3.12l6.83,0a9,9,0,0,0-1.55-3.85,16.93,16.93,0,0,0-3.71-3.49,21.48,21.48,0,0,1-4-3.56,7.79,7.79,0,0,1-1.57-3.17,2.21,2.21,0,0,1,1.7-2.66l.05-7.41H339.86Zm21.93,23.07Zm1.48-3.34v0Z"></path>
  <rect class="cls-4" x="270.93" y="818.38" width="134.23" height="9.02"></rect>
  <rect class="cls-4" x="270.93" y="647.86" width="134.23" height="9.02"></rect>
  <rect class="cls-4" x="270.93" y="600.56" width="134.23" height="9.02"></rect>
  <path class="cls-4" d="M315.67,651.57H286.86V619.72h28.81Zm-24.34-4.47H311.2V624.2H291.33Z"></path>
  <path class="cls-4" d="M353.27,651.57H324.45V619.72h28.82Zm-24.34-4.47H348.8V624.2H328.93Z"></path>
  <path class="cls-4" d="M345.88,822H317.07V790.11h28.81Zm-24.34-4.47h19.87V794.59H321.54Z"></path>
  <path class="cls-4" d="M397.82,822H369V790.11h28.81Zm-24.34-4.47h19.87V794.59H373.48Z"></path>
  <path class="cls-4" d="M310.34,743H293.42c-3,0-5.38-2.82-5.38-6.29V715.26a8.92,8.92,0,0,1,1.62-5.16,12,12,0,0,1,2.75-2.62c.34-.25.74-.55,1.07-.83a3.32,3.32,0,0,1-.27-1.3v-4.59a3.07,3.07,0,0,1,2.56-3.12l.3,0h11.66a2.86,2.86,0,0,1,2.26,1.14,3.21,3.21,0,0,1,.67,2.07l0,4.54a3.26,3.26,0,0,1-.27,1.33,9.07,9.07,0,0,0,1,.78,12.85,12.85,0,0,1,2.8,2.69,8.9,8.9,0,0,1,1.6,5.1v21.47C315.72,740.2,313.3,743,310.34,743Zm-12.7-38.45a3,3,0,0,1,.36.35,2.29,2.29,0,0,1,.5,1.9,5.45,5.45,0,0,1-1.07,2.1,12.9,12.9,0,0,1-2.37,2.11,8.06,8.06,0,0,0-1.82,1.66,4.55,4.55,0,0,0-.78,2.6v21.44c0,1.14.63,1.86,1,1.86h16.92c.32,0,1-.72,1-1.86V715.31a4.47,4.47,0,0,0-.77-2.57,8.11,8.11,0,0,0-1.82-1.69,12.81,12.81,0,0,1-2.36-2.14,5.44,5.44,0,0,1-1-2.14,2.24,2.24,0,0,1,.44-1.87,2.27,2.27,0,0,1,.48-.45l0-2.41h-8.59Zm8.57.77h0Zm-10-1.27Zm10.08-3.31v0Zm-8.6,0v0Z"></path>
  <rect class="cls-4" x="270.93" y="740.8" width="134.23" height="9.02"></rect>
  <rect class="cls-4" x="403.75" y="600.56" width="2.82" height="306.53"></rect>
  <rect class="cls-4" x="269.52" y="600.56" width="2.82" height="306.53"></rect>
  <rect class="cls-2" x="129.83" y="849.48" width="53.53" height="8.4"></rect>
  <path class="cls-4" d="M183.36,859.3H129.83a1.41,1.41,0,0,1-1.41-1.41v-8.41a1.41,1.41,0,0,1,1.41-1.41h53.53a1.42,1.42,0,0,1,1.41,1.41v8.41A1.42,1.42,0,0,1,183.36,859.3Zm-52.12-2.82H182v-5.59H131.24Z"></path>
  <polygon class="cls-8" points="181.01 849.48 132.17 849.48 137.27 841.08 175.91 841.08 181.01 849.48"></polygon>
  <path class="cls-4" d="M181,850.89H132.17a1.41,1.41,0,0,1-1.22-.71,1.43,1.43,0,0,1,0-1.43l5.09-8.4a1.43,1.43,0,0,1,1.21-.68h38.65a1.4,1.4,0,0,1,1.2.68l5.09,8.4a1.4,1.4,0,0,1-1.2,2.14Zm-46.33-2.82H178.5l-3.38-5.58H138.06Z"></path>
  <polygon class="cls-8" points="166.25 857.88 166.25 864.59 146.93 864.59 146.93 857.88 132.17 857.88 139.82 907.08 173.37 907.08 181.01 857.88 166.25 857.88"></polygon>
  <path class="cls-4" d="M173.37,908.49H139.82a1.42,1.42,0,0,1-1.4-1.19l-7.64-49.2a1.4,1.4,0,0,1,.32-1.13,1.42,1.42,0,0,1,1.07-.49h14.76a1.41,1.41,0,0,1,1.41,1.41v5.29h16.5v-5.29a1.41,1.41,0,0,1,1.41-1.41H181a1.42,1.42,0,0,1,1.07.49,1.4,1.4,0,0,1,.32,1.13l-7.64,49.2A1.42,1.42,0,0,1,173.37,908.49ZM141,905.67h31.14l7.2-46.37H167.67v5.29a1.42,1.42,0,0,1-1.42,1.41H146.93a1.41,1.41,0,0,1-1.41-1.41V859.3h-11.7Z"></path>
  <rect class="cls-2" x="146.93" y="857.89" width="19.33" height="6.71"></rect>
  <path class="cls-4" d="M166.25,866H146.93a1.41,1.41,0,0,1-1.41-1.41v-6.7a1.41,1.41,0,0,1,1.41-1.41h19.32a1.42,1.42,0,0,1,1.42,1.41v6.7A1.42,1.42,0,0,1,166.25,866Zm-17.91-2.82h16.5V859.3h-16.5Z"></path>
  <rect class="cls-2" x="192.6" y="849.48" width="53.53" height="8.4"></rect>
  <path class="cls-4" d="M246.13,859.3H192.6a1.41,1.41,0,0,1-1.41-1.41v-8.41a1.41,1.41,0,0,1,1.41-1.41h53.53a1.42,1.42,0,0,1,1.41,1.41v8.41A1.42,1.42,0,0,1,246.13,859.3ZM194,856.48h50.71v-5.59H194Z"></path>
  <polygon class="cls-8" points="243.78 849.48 194.94 849.48 200.04 841.08 238.69 841.08 243.78 849.48"></polygon>
  <path class="cls-4" d="M243.78,850.89H195a1.41,1.41,0,0,1-1.23-.71,1.43,1.43,0,0,1,0-1.43l5.09-8.4a1.43,1.43,0,0,1,1.21-.68h38.65a1.4,1.4,0,0,1,1.2.68l5.1,8.4a1.43,1.43,0,0,1,0,1.43A1.41,1.41,0,0,1,243.78,850.89Zm-46.33-2.82h43.83l-3.39-5.58H200.83Z"></path>
  <polygon class="cls-8" points="229.03 857.88 229.03 864.59 209.7 864.59 209.7 857.88 194.94 857.88 202.59 907.08 236.14 907.08 243.78 857.88 229.03 857.88"></polygon>
  <path class="cls-4" d="M236.14,908.49H202.59a1.42,1.42,0,0,1-1.4-1.19l-7.64-49.2a1.4,1.4,0,0,1,1.4-1.62H209.7a1.41,1.41,0,0,1,1.41,1.41v5.29h16.51v-5.29a1.41,1.41,0,0,1,1.41-1.41h14.75a1.42,1.42,0,0,1,1.07.49,1.36,1.36,0,0,1,.32,1.13l-7.64,49.2A1.42,1.42,0,0,1,236.14,908.49Zm-32.35-2.82h31.14l7.2-46.37H230.44v5.29A1.41,1.41,0,0,1,229,866H209.7a1.41,1.41,0,0,1-1.41-1.41V859.3h-11.7Z"></path>
  <rect class="cls-2" x="209.7" y="857.89" width="19.33" height="6.71"></rect>
  <path class="cls-4" d="M229,866H209.7a1.41,1.41,0,0,1-1.41-1.41v-6.7a1.41,1.41,0,0,1,1.41-1.41H229a1.41,1.41,0,0,1,1.41,1.41v6.7A1.41,1.41,0,0,1,229,866Zm-17.92-2.82h16.51V859.3H211.11Z"></path>
  <rect class="cls-5" x="279.87" y="849.48" width="53.53" height="8.4"></rect>
  <path class="cls-4" d="M333.4,859.3H279.87a1.41,1.41,0,0,1-1.41-1.41v-8.41a1.41,1.41,0,0,1,1.41-1.41H333.4a1.42,1.42,0,0,1,1.41,1.41v8.41A1.42,1.42,0,0,1,333.4,859.3Zm-52.12-2.82H332v-5.59H281.28Z"></path>
  <polygon class="cls-6" points="331.05 849.48 282.21 849.48 287.31 841.08 325.95 841.08 331.05 849.48"></polygon>
  <path class="cls-4" d="M331.05,850.89H282.21a1.41,1.41,0,0,1-1.2-2.14l5.09-8.4a1.43,1.43,0,0,1,1.21-.68H326a1.42,1.42,0,0,1,1.21.68l5.09,8.4a1.4,1.4,0,0,1-1.2,2.14Zm-46.33-2.82h43.82l-3.38-5.58H288.1Z"></path>
  <polygon class="cls-6" points="316.3 857.88 316.3 864.59 296.97 864.59 296.97 857.88 282.21 857.88 289.86 907.08 323.41 907.08 331.05 857.88 316.3 857.88"></polygon>
  <path class="cls-4" d="M323.41,908.49H289.86a1.42,1.42,0,0,1-1.4-1.19l-7.64-49.2a1.4,1.4,0,0,1,1.39-1.62H297a1.41,1.41,0,0,1,1.41,1.41v5.29h16.5v-5.29a1.41,1.41,0,0,1,1.41-1.41h14.76a1.42,1.42,0,0,1,1.07.49,1.4,1.4,0,0,1,.32,1.13l-7.64,49.2A1.42,1.42,0,0,1,323.41,908.49Zm-32.35-2.82H322.2l7.2-46.37H317.71v5.29a1.42,1.42,0,0,1-1.42,1.41H297a1.41,1.41,0,0,1-1.41-1.41V859.3h-11.7Z"></path>
  <rect class="cls-5" x="296.97" y="857.89" width="19.33" height="6.71"></rect>
  <path class="cls-4" d="M316.29,866H297a1.41,1.41,0,0,1-1.41-1.41v-6.7a1.41,1.41,0,0,1,1.41-1.41h19.32a1.42,1.42,0,0,1,1.42,1.41v6.7A1.42,1.42,0,0,1,316.29,866Zm-17.91-2.82h16.5V859.3h-16.5Z"></path>
  <rect class="cls-5" x="342.64" y="849.48" width="53.53" height="8.4"></rect>
  <path class="cls-4" d="M396.17,859.3H342.64a1.41,1.41,0,0,1-1.41-1.41v-8.41a1.41,1.41,0,0,1,1.41-1.41h53.53a1.42,1.42,0,0,1,1.41,1.41v8.41A1.42,1.42,0,0,1,396.17,859.3Zm-52.12-2.82h50.71v-5.59H344.05Z"></path>
  <polygon class="cls-6" points="393.82 849.48 344.99 849.48 350.08 841.08 388.73 841.08 393.82 849.48"></polygon>
  <path class="cls-4" d="M393.82,850.89H345a1.41,1.41,0,0,1-1.23-.71,1.43,1.43,0,0,1,0-1.43l5.09-8.4a1.43,1.43,0,0,1,1.21-.68h38.65a1.4,1.4,0,0,1,1.2.68l5.1,8.4a1.43,1.43,0,0,1,0,1.43A1.41,1.41,0,0,1,393.82,850.89Zm-46.33-2.82h43.83l-3.39-5.58H350.87Z"></path>
  <polygon class="cls-6" points="379.07 857.88 379.07 864.59 359.74 864.59 359.74 857.88 344.99 857.88 352.63 907.08 386.18 907.08 393.82 857.88 379.07 857.88"></polygon>
  <path class="cls-4" d="M386.18,908.49H352.63a1.42,1.42,0,0,1-1.4-1.19l-7.64-49.2a1.4,1.4,0,0,1,.33-1.13,1.39,1.39,0,0,1,1.07-.49h14.75a1.41,1.41,0,0,1,1.41,1.41v5.29h16.51v-5.29a1.41,1.41,0,0,1,1.41-1.41h14.75a1.42,1.42,0,0,1,1.07.49,1.36,1.36,0,0,1,.32,1.13l-7.64,49.2A1.42,1.42,0,0,1,386.18,908.49Zm-32.35-2.82H385l7.2-46.37H380.48v5.29a1.41,1.41,0,0,1-1.41,1.41H359.74a1.41,1.41,0,0,1-1.41-1.41V859.3h-11.7Z"></path>
  <rect class="cls-5" x="359.74" y="857.89" width="19.33" height="6.71"></rect>
  <path class="cls-4" d="M379.07,866H359.74a1.41,1.41,0,0,1-1.41-1.41v-6.7a1.41,1.41,0,0,1,1.41-1.41h19.33a1.41,1.41,0,0,1,1.41,1.41v6.7A1.41,1.41,0,0,1,379.07,866Zm-17.92-2.82h16.51V859.3H361.15Z"></path>
  <polygon class="cls-5" points="534.67 837.21 532.27 844.63 504.01 844.63 501.81 837.21 491.09 837.21 491.09 906.07 545.53 906.07 545.53 837.21 534.67 837.21"></polygon>
  <path class="cls-4" d="M545.53,907.48H491.09a1.41,1.41,0,0,1-1.41-1.41V837.21a1.42,1.42,0,0,1,1.41-1.42h10.72a1.4,1.4,0,0,1,1.35,1l1.9,6.41h26.19l2.08-6.45a1.4,1.4,0,0,1,1.34-1h10.86a1.42,1.42,0,0,1,1.41,1.42v68.86A1.41,1.41,0,0,1,545.53,907.48Zm-53-2.82h51.62v-66h-8.43l-2.08,6.44a1.4,1.4,0,0,1-1.34,1H504a1.4,1.4,0,0,1-1.35-1l-1.9-6.41H492.5Z"></path>
  <rect class="cls-4" x="491.09" y="853.22" width="54.8" height="2.82"></rect>
  <rect class="cls-4" x="491.09" y="861.33" width="54.8" height="2.82"></rect>
  <rect class="cls-4" x="538.52" y="809.59" width="2.82" height="27.61"></rect>
  <polygon class="cls-5" points="547.74 813.25 542.5 813.25 532.13 813.25 532.13 806.04 547.74 806.04 547.74 813.25"></polygon>
  <path class="cls-4" d="M547.74,814.66H532.13a1.41,1.41,0,0,1-1.41-1.41V806a1.41,1.41,0,0,1,1.41-1.41h15.61a1.41,1.41,0,0,1,1.41,1.41v7.21A1.41,1.41,0,0,1,547.74,814.66Zm-14.2-2.82h12.79v-4.39H533.54Z"></path>
  <path class="cls-4" d="M560.5,827.62l-4.25-4.25H539.93v-2.82h16.9a1.41,1.41,0,0,1,1,.41l4.66,4.66Z"></path>
  <polygon class="cls-3" points="507.95 837.21 505.55 844.63 477.29 844.63 475.09 837.21 464.37 837.21 464.37 906.07 518.81 906.07 518.81 837.21 507.95 837.21"></polygon>
  <path class="cls-4" d="M518.81,907.48H464.37a1.41,1.41,0,0,1-1.41-1.41V837.21a1.42,1.42,0,0,1,1.41-1.42h10.72a1.43,1.43,0,0,1,1.36,1l1.89,6.41h26.19l2.08-6.45a1.4,1.4,0,0,1,1.34-1h10.86a1.42,1.42,0,0,1,1.41,1.42v68.86A1.41,1.41,0,0,1,518.81,907.48Zm-53-2.82H517.4v-66H509l-2.08,6.44a1.39,1.39,0,0,1-1.34,1H477.29a1.41,1.41,0,0,1-1.35-1l-1.9-6.41h-8.26Z"></path>
  <rect class="cls-4" x="464.37" y="853.22" width="54.8" height="2.82"></rect>
  <rect class="cls-4" x="464.37" y="861.33" width="54.8" height="2.82"></rect>
  <rect class="cls-4" x="511.8" y="809.59" width="2.82" height="27.61"></rect>
  <polygon class="cls-3" points="521.02 813.25 515.78 813.25 505.41 813.25 505.41 806.04 521.02 806.04 521.02 813.25"></polygon>
  <path class="cls-4" d="M521,814.66H505.41a1.41,1.41,0,0,1-1.41-1.41V806a1.41,1.41,0,0,1,1.41-1.41H521a1.41,1.41,0,0,1,1.41,1.41v7.21A1.41,1.41,0,0,1,521,814.66Zm-14.2-2.82h12.79v-4.39H506.82Z"></path>
  <path class="cls-4" d="M533.78,827.62l-4.25-4.25H513.21v-2.82h16.91a1.41,1.41,0,0,1,1,.41l4.66,4.66Z"></path>
  <polygon class="cls-5" points="479.2 837.21 476.8 844.63 448.54 844.63 446.34 837.21 435.62 837.21 435.62 906.07 490.06 906.07 490.06 837.21 479.2 837.21"></polygon>
  <path class="cls-4" d="M490.06,907.48H435.62a1.41,1.41,0,0,1-1.41-1.41V837.21a1.42,1.42,0,0,1,1.41-1.42h10.72a1.4,1.4,0,0,1,1.35,1l1.9,6.41h26.19l2.08-6.45a1.4,1.4,0,0,1,1.34-1h10.86a1.42,1.42,0,0,1,1.41,1.42v68.86A1.41,1.41,0,0,1,490.06,907.48Zm-53-2.82h51.62v-66h-8.43l-2.08,6.44a1.4,1.4,0,0,1-1.34,1H448.54a1.41,1.41,0,0,1-1.35-1l-1.9-6.41H437Z"></path>
  <rect class="cls-4" x="435.62" y="853.22" width="54.8" height="2.82"></rect>
  <rect class="cls-4" x="435.62" y="861.33" width="54.8" height="2.82"></rect>
  <rect class="cls-4" x="483.05" y="809.59" width="2.82" height="27.61"></rect>
  <polygon class="cls-5" points="492.26 813.25 487.03 813.25 476.66 813.25 476.66 806.04 492.26 806.04 492.26 813.25"></polygon>
  <path class="cls-4" d="M492.27,814.66H476.66a1.41,1.41,0,0,1-1.41-1.41V806a1.41,1.41,0,0,1,1.41-1.41h15.61a1.41,1.41,0,0,1,1.41,1.41v7.21A1.41,1.41,0,0,1,492.27,814.66Zm-14.2-2.82h12.79v-4.39H478.07Z"></path>
  <path class="cls-4" d="M505,827.62l-4.25-4.25H484.46v-2.82h16.91a1.41,1.41,0,0,1,1,.41l4.66,4.66Z"></path>
  <rect class="cls-1" x="1174.05" y="798.67" width="60.37" height="85.04"></rect>
  <polygon class="cls-2" points="1169.53 876.07 1169.53 907.05 1180.73 907.05 1180.73 906.67 1193.7 893.99 1215.41 893.99 1227.45 906.67 1227.45 907.05 1238.93 907.05 1238.93 876.07 1169.53 876.07"></polygon>
  <path class="cls-4" d="M1238.93,908.46h-11.48a1.41,1.41,0,0,1-1.39-1.21L1214.8,895.4h-20.52l-12.16,11.89a1.41,1.41,0,0,1-1.39,1.17h-11.2a1.41,1.41,0,0,1-1.41-1.41v-31a1.41,1.41,0,0,1,1.41-1.41h69.4a1.41,1.41,0,0,1,1.41,1.41v31A1.41,1.41,0,0,1,1238.93,908.46Zm-10.52-2.82h9.11V877.48h-66.58v28.16h8.84L1192.71,893a1.42,1.42,0,0,1,1-.4h21.71a1.42,1.42,0,0,1,1,.44Z"></path>
  <rect class="cls-2" x="1169.53" y="806.62" width="9.04" height="69.44"></rect>
  <path class="cls-4" d="M1178.56,877.48h-9a1.41,1.41,0,0,1-1.41-1.41V806.62a1.41,1.41,0,0,1,1.41-1.41h9a1.41,1.41,0,0,1,1.41,1.41v69.45A1.41,1.41,0,0,1,1178.56,877.48Zm-7.62-2.82h6.21V808h-6.21Z"></path>
  <rect class="cls-2" x="1229.9" y="806.62" width="9.04" height="69.44"></rect>
  <path class="cls-4" d="M1238.93,877.48h-9a1.41,1.41,0,0,1-1.41-1.41V806.62a1.41,1.41,0,0,1,1.41-1.41h9a1.41,1.41,0,0,1,1.41,1.41v69.45A1.41,1.41,0,0,1,1238.93,877.48Zm-7.62-2.82h6.21V808h-6.21Z"></path>
  <rect class="cls-2" x="1169.53" y="783.49" width="69.41" height="23.13"></rect>
  <path class="cls-4" d="M1238.93,808h-69.4a1.41,1.41,0,0,1-1.41-1.41V783.49a1.41,1.41,0,0,1,1.41-1.41h69.4a1.41,1.41,0,0,1,1.41,1.41v23.13A1.41,1.41,0,0,1,1238.93,808Zm-68-2.82h66.58V784.9h-66.58Z"></path>
  <rect class="cls-2" x="1196.54" y="771.86" width="15.38" height="11.63"></rect>
  <path class="cls-4" d="M1211.92,784.9h-15.38a1.41,1.41,0,0,1-1.41-1.41V771.86a1.41,1.41,0,0,1,1.41-1.41h15.38a1.41,1.41,0,0,1,1.41,1.41v11.63A1.41,1.41,0,0,1,1211.92,784.9Zm-14-2.82h12.56v-8.81H1198Z"></path>
  <rect class="cls-2" x="1183.26" y="759.86" width="41.94" height="12"></rect>
  <path class="cls-4" d="M1225.2,773.27h-41.94a1.41,1.41,0,0,1-1.41-1.41v-12a1.41,1.41,0,0,1,1.41-1.41h41.94a1.41,1.41,0,0,1,1.41,1.41v12A1.41,1.41,0,0,1,1225.2,773.27Zm-40.53-2.82h39.12v-9.18h-39.12Z"></path>
  <rect class="cls-2" x="1188.21" y="727.84" width="32.11" height="32.11"></rect>
  <path class="cls-4" d="M1220.32,761.36h-32.11a1.41,1.41,0,0,1-1.41-1.41V727.84a1.41,1.41,0,0,1,1.41-1.41h32.11a1.41,1.41,0,0,1,1.41,1.41V760A1.41,1.41,0,0,1,1220.32,761.36Zm-30.7-2.82h29.29V729.25h-29.29Z"></path>
  <rect class="cls-3" x="1194.15" y="715.36" width="20.17" height="4"></rect>
  <path class="cls-4" d="M1214.32,720.77h-20.17a1.41,1.41,0,0,1-1.41-1.41v-4a1.41,1.41,0,0,1,1.41-1.41h20.17a1.41,1.41,0,0,1,1.41,1.41v4A1.41,1.41,0,0,1,1214.32,720.77ZM1195.56,718h17.35v-1.18h-17.35Z"></path>
  <rect class="cls-4" x="1202.82" y="719.36" width="2.82" height="8.48"></rect>
  <rect class="cls-1" x="1188.21" y="825.77" width="32.05" height="24.36"></rect>
  <path class="cls-4" d="M1220.25,851.54h-32a1.41,1.41,0,0,1-1.41-1.41V825.77a1.41,1.41,0,0,1,1.41-1.41h32a1.41,1.41,0,0,1,1.41,1.41v24.36A1.41,1.41,0,0,1,1220.25,851.54Zm-30.63-2.82h29.22V827.18h-29.22Z"></path>
  <circle class="cls-4" cx="1204.23" cy="741.9" r="3.74"></circle>
  <path class="cls-4" d="M1204.23,747.05a5.15,5.15,0,1,1,5.15-5.15A5.16,5.16,0,0,1,1204.23,747.05Zm0-7.48a2.33,2.33,0,1,0,2.33,2.33A2.33,2.33,0,0,0,1204.23,739.57Z"></path>
  <line class="cls-4" x1="1204.23" y1="741.9" x2="1212.78" y2="750.44"></line>
  <rect class="cls-4" x="1207.09" y="740.13" width="2.82" height="12.09" transform="translate(-173.66 1073.09) rotate(-45)"></rect>
  <polygon class="cls-5" points="1325.19 767.71 1289.73 767.71 1296.47 801.51 1318.45 801.51 1325.19 767.71"></polygon>
  <path class="cls-2" d="M1313.69,767.71l5-1.43a17.38,17.38,0,0,1,1.47-3c1.12-1.8,2.58-3.4,3.53-5.3,2.06-4.14,1.44-9.05.77-13.62l-9.72,6.61-.14.23a33.82,33.82,0,0,0-.79-14.27c-1.34-4.52-3.54-8.79-4.53-13.4s-2.32-9.8-.73-14.4c-4.48,5.11-5.5,12.44-5,19.22.22,2.64.55,5.24.87,7.84l-1.37-1.8a36.46,36.46,0,0,1-7.93-26.27c-1.85,9.62-5.63,18.22-2.26,27.41,1.49,4.07,3.71,11,5.48,15,.12.27.27.55.4.82-.9-.37-1.85-.69-2.76-1a40.13,40.13,0,0,1-11.09-6c1.08,4.59,5,7.86,7.5,11.88a19.88,19.88,0,0,1,2.91,10.86h-.15l18.5.72"></path>
  <path class="cls-3" d="M1337.25,664.31a31.06,31.06,0,1,0-62.11,0h-13.49V685h89.09V664.31Z"></path>
  <rect class="cls-3" x="1268.4" y="865.05" width="75.6" height="19.38"></rect>
  <rect class="cls-3" x="1268.4" y="801.51" width="75.6" height="19.38"></rect>
  <polygon class="cls-3" points="1268.39 884.43 1268.39 865.05 1275.14 865.05 1275.14 820.89 1268.39 820.89 1268.39 801.51 1275.14 801.51 1275.14 753.4 1268.39 753.4 1268.39 734.02 1275.14 734.02 1275.14 685.02 1261.65 685.02 1261.65 905.6 1275.14 905.6 1275.14 884.43 1268.39 884.43"></polygon>
  <polygon class="cls-3" points="1337.25 685.02 1337.25 734.02 1343.99 734.02 1343.99 753.4 1337.25 753.4 1337.25 801.51 1343.99 801.51 1343.99 820.89 1337.25 820.89 1337.25 865.05 1343.99 865.05 1343.99 884.43 1337.25 884.43 1337.25 905.6 1350.74 905.6 1350.74 685.02 1337.25 685.02"></polygon>
  <path class="cls-3" d="M1312.84,734c.34,1,.68,1.91,1,2.87a33.82,33.82,0,0,1,.79,14.27l.14-.23,9.72-6.61a35.55,35.55,0,0,1,.44,9.08H1344V734Z"></path>
  <path class="cls-3" d="M1284.93,744.25a40.13,40.13,0,0,0,11.09,6c.91.32,1.86.64,2.76,1-.13-.27-.28-.55-.4-.82-1.77-4-4-10.88-5.48-15-.18-.49-.27-1-.41-1.47h-24.1V753.4h22.11C1288.26,750.51,1285.76,747.77,1284.93,744.25Z"></path>
  <path class="cls-4" d="M1353.19,687.48h-94V661.86h13.58a33.5,33.5,0,0,1,66.83,0h13.58Zm-89.09-4.91h84.18V666.76H1334.8v-2.45a28.61,28.61,0,1,0-57.21,0v2.45H1264.1Z"></path>
  <path class="cls-4" d="M1346.45,886.88h-80.51V862.6h80.51Zm-75.61-4.9h70.7V867.5h-70.7Z"></path>
  <path class="cls-4" d="M1346.45,823.34h-80.51V799.06h80.51Zm-75.61-4.9h70.7V804h-70.7Z"></path>
  <path class="cls-4" d="M1320.46,804h-26l-7.72-38.7h41.44Zm-22-4.9h18l5.76-28.9h-29.48Z"></path>
  <rect class="cls-4" x="1293.58" y="784.61" width="27.75" height="4.9"></rect>
  <path class="cls-4" d="M1277.59,908.05H1259.2V682.57h18.39v53.9h-6.75V751h6.75v53h-6.75v14.48h6.75V867.5h-6.75V882h6.75Zm-13.49-4.9h8.59V886.88h-6.75V862.6h6.75V823.34h-6.75V799.06h6.75V755.85h-6.75V731.57h6.75V687.48h-8.59Z"></path>
  <path class="cls-4" d="M1353.19,908.05H1334.8V882h6.74V867.5h-6.74V818.44h6.74V804h-6.74V751h6.74V736.47h-6.74v-53.9h18.39Zm-13.49-4.9h8.58V687.48h-8.58v44.09h6.75v24.28h-6.75v43.21h6.75v24.28h-6.75V862.6h6.75v24.28h-6.75Z"></path>
  <path class="cls-4" d="M1344,755.85h-19.1a2.45,2.45,0,0,1-1.83-.82,2.38,2.38,0,0,1-.6-1.91,25,25,0,0,0,0-4.5l-6.23,4.23a2.55,2.55,0,0,1-2.43.51,2.37,2.37,0,0,1-1.67-2.53,31.2,31.2,0,0,0-.71-13.24c-.27-.92-.6-1.83-.92-2.74a2.45,2.45,0,0,1,2.3-3.28H1344a2.45,2.45,0,0,1,2.45,2.45V753.4A2.45,2.45,0,0,1,1344,755.85Zm-16.51-4.9h14V736.47h-25.3a33.19,33.19,0,0,1,1.21,9.66l5.63-3.84a2.51,2.51,0,0,1,2.36-.22,2.48,2.48,0,0,1,1.44,1.89A45.87,45.87,0,0,1,1327.49,751Z"></path>
  <path class="cls-4" d="M1290.5,755.85h-22.11a2.45,2.45,0,0,1-2.45-2.45V734a2.45,2.45,0,0,1,2.45-2.45h24.1a2.46,2.46,0,0,1,2.36,1.78s.16.61.16.64c.06.23.11.44.19.67.47,1.26,1,2.81,1.57,4.45,1.25,3.61,2.67,7.69,3.85,10.33,0,0,.36.74.36.74a2.45,2.45,0,0,1-.41,2.75,2.42,2.42,0,0,1-2.72.59c-.72-.29-1.46-.54-2.19-.79-1.3-.46-2.55-1-3.74-1.49l.52.66a2.45,2.45,0,0,1-1.94,4Zm-19.66-4.9h14.67a17.54,17.54,0,0,1-3-6.14,2.46,2.46,0,0,1,3.88-2.51,37.25,37.25,0,0,0,7.94,4.68c-.75-2-1.51-4.22-2.22-6.26-.54-1.56-1.05-3-1.5-4.25h-19.8Z"></path>
  <path class="cls-4" d="M1313.69,770.16h-.1l-18.49-.71a2.45,2.45,0,0,1-2.36-2.5,2.58,2.58,0,0,1,.15-.79,17.62,17.62,0,0,0-2.55-8.76,40.42,40.42,0,0,0-2.75-3.75c-2.07-2.61-4.22-5.3-5-8.84a2.45,2.45,0,0,1,3.88-2.51,37.25,37.25,0,0,0,7.94,4.68c-.75-2-1.51-4.22-2.22-6.26-.56-1.61-1.09-3.13-1.55-4.38-2.85-7.79-1-15.21.72-22.38.51-2.07,1-4.18,1.45-6.34a2.36,2.36,0,0,1,2.75-2,2.45,2.45,0,0,1,2.09,2.66,33.94,33.94,0,0,0,3.44,18.36c-.24-5.94.7-13.55,5.67-19.21a2.45,2.45,0,0,1,4.16,2.42c-1.26,3.65-.32,8,.59,12.13l.21,1a51.52,51.52,0,0,0,2.45,7.46c.73,1.9,1.46,3.81,2,5.77a33.26,33.26,0,0,1,1.29,9.93l5.63-3.84a2.51,2.51,0,0,1,2.36-.22,2.46,2.46,0,0,1,1.44,1.89c.63,4.27,1.48,10.1-1,15.07a26,26,0,0,1-2.31,3.58c-.46.63-.93,1.27-1.34,1.94a13.45,13.45,0,0,0-1.25,2.59,2.47,2.47,0,0,1-1.63,1.5l-5,1.42A2.18,2.18,0,0,1,1313.69,770.16Zm-16-5.52,15.69.6,3.47-1a17.87,17.87,0,0,1,1.21-2.29c.47-.78,1-1.51,1.54-2.24a19.51,19.51,0,0,0,1.88-2.88c1.18-2.36,1.3-5.14,1-8.24l-6.25,4.25a2.55,2.55,0,0,1-2.43.51,2.37,2.37,0,0,1-1.67-2.53,31.2,31.2,0,0,0-.71-13.24c-.54-1.84-1.23-3.62-1.92-5.41a55.13,55.13,0,0,1-2.66-8.18l-.2-.93c-.17-.75-.34-1.52-.5-2.3a34.45,34.45,0,0,0-.14,7.34c.18,2.25.45,4.47.73,6.69l.12,1.06a2.45,2.45,0,0,1-4.38,1.78l-1.37-1.8a38.21,38.21,0,0,1-6.79-12.66,22.54,22.54,0,0,0,.85,11.47c.47,1.27,1,2.82,1.57,4.46,1.25,3.61,2.67,7.69,3.85,10.33,0,0,.36.74.36.74a2.45,2.45,0,0,1-.41,2.75,2.42,2.42,0,0,1-2.72.59c-.72-.29-1.46-.54-2.19-.79-1.3-.46-2.53-1-3.72-1.48a34.76,34.76,0,0,1,2.58,3.6A22.39,22.39,0,0,1,1297.71,764.64Z"></path>
  <rect class="cls-1" x="1030.91" y="820.54" width="122.25" height="55.66"></rect>
  <path class="cls-5" d="M1026.22,810.39v96h66.06v-96Zm54.08,52.31h-42.1V834h42.1Z"></path>
  <path class="cls-5" d="M1092.28,810.39v96h66.07v-96Zm54.09,52.31h-42.1V834h42.1Z"></path>
  <rect class="cls-1" x="1164.84" y="855.44" width="39.37" height="27.12"></rect>
  <path class="cls-5" d="M1158.35,845.65v60.76h49.82V845.65Zm40.78,33.1h-31.74V860.6h31.74Z"></path>
  <path class="cls-4" d="M1092.29,909h-66.07a2.55,2.55,0,0,1-2.55-2.55v-96a2.55,2.55,0,0,1,2.55-2.55h66.07a2.55,2.55,0,0,1,2.54,2.55v96A2.55,2.55,0,0,1,1092.29,909Zm-63.52-5.1h61V812.94h-61Zm51.53-38.61h-42.1a2.55,2.55,0,0,1-2.55-2.55V834a2.55,2.55,0,0,1,2.55-2.55h42.1a2.55,2.55,0,0,1,2.55,2.55V862.7A2.55,2.55,0,0,1,1080.3,865.25Zm-39.55-5.1h37V836.56h-37Z"></path>
  <path class="cls-4" d="M1158.35,909h-66.06a2.55,2.55,0,0,1-2.55-2.55v-96a2.55,2.55,0,0,1,2.55-2.55h66.06a2.55,2.55,0,0,1,2.55,2.55v96A2.55,2.55,0,0,1,1158.35,909Zm-63.52-5.1h61V812.94h-61Zm51.54-38.61h-42.1a2.55,2.55,0,0,1-2.55-2.55V834a2.55,2.55,0,0,1,2.55-2.55h42.1a2.55,2.55,0,0,1,2.55,2.55V862.7A2.55,2.55,0,0,1,1146.37,865.25Zm-39.55-5.1h37V836.56h-37Z"></path>
  <path class="cls-4" d="M1208.17,909h-49.82a2.55,2.55,0,0,1-2.54-2.55V845.65a2.55,2.55,0,0,1,2.54-2.55h49.82a2.55,2.55,0,0,1,2.55,2.55v60.76A2.55,2.55,0,0,1,1208.17,909Zm-47.27-5.1h44.72V848.2H1160.9Zm38.23-22.56h-31.74a2.55,2.55,0,0,1-2.55-2.55V860.6a2.55,2.55,0,0,1,2.55-2.55h31.74a2.55,2.55,0,0,1,2.55,2.55v18.15A2.55,2.55,0,0,1,1199.13,881.3Zm-29.19-5.1h26.65V863.15h-26.65Z"></path>
  <polygon class="cls-5" points="1054.17 849.1 993.44 849.1 1004.98 906.99 1042.63 906.99 1054.17 849.1"></polygon>
  <path class="cls-2" d="M1042,849c5.5,0,10-5.06,11.12-10.45s-.42-11-2.41-16.1c-1.17-3-2.51-6-2.65-9.24s1-6.5,1.4-9.77a23.59,23.59,0,0,0-1.17-11c-1.7-4.74-4.91-8.9-6-13.81-1-4.43-.26-9.07-.6-13.61a7.3,7.3,0,0,0-1.1-3.81,6.22,6.22,0,0,0-2.84-2,13.53,13.53,0,0,0-11.36,1.14,19.9,19.9,0,0,0-7.75,8.66c-2,4.11-3,8.85-6,12.28-2.8,3.15-7.15,4.95-9.06,8.71a14.68,14.68,0,0,0-1.17,6.9c.09,6.68,1.38,13.7-1.31,19.82-1.76,4-5.79,6.76-7,10.91-.06.19-.12.38-.17.57a16.51,16.51,0,0,0,16,20.86Z"></path>
  <path class="cls-4" d="M1009.77,851.06A18.47,18.47,0,0,1,995,843.72a18.18,18.18,0,0,1-3.08-16l.18-.6a19.85,19.85,0,0,1,4.07-6.67,21.18,21.18,0,0,0,3-4.48c1.89-4.28,1.62-9.13,1.34-14.27-.08-1.58-.17-3.16-.19-4.72a16.42,16.42,0,0,1,1.39-7.83c1.35-2.65,3.6-4.37,5.77-6a24.83,24.83,0,0,0,3.57-3.08c1.79-2,2.81-4.66,3.89-7.45.57-1.48,1.15-3,1.85-4.39a21.6,21.6,0,0,1,8.54-9.5,15.47,15.47,0,0,1,13-1.27,8,8,0,0,1,3.73,2.66,9.26,9.26,0,0,1,1.48,4.82c.13,1.79.1,3.59.07,5.39a23.79,23.79,0,0,0,3.65,15.46,49.14,49.14,0,0,1,2.8,6,25.69,25.69,0,0,1,1.28,11.92c-.16,1.2-.41,2.4-.66,3.59a24.17,24.17,0,0,0-.73,5.83,23.8,23.8,0,0,0,2.09,7.54l.42,1.08c1.85,4.75,3.79,11,2.51,17.21-1.2,5.8-6.18,12-13,12h0l-32.14.1ZM1042,849h0Zm-8.6-88.57a12.34,12.34,0,0,0-6.08,1.66,18.05,18.05,0,0,0-6.95,7.81c-.64,1.32-1.17,2.7-1.7,4.08-1.16,3-2.36,6.09-4.63,8.64a27.26,27.26,0,0,1-4.12,3.6c-1.9,1.46-3.71,2.84-4.65,4.7a13.08,13.08,0,0,0-1,6c0,1.51.11,3,.19,4.57.3,5.37.6,10.93-1.67,16.07a23.35,23.35,0,0,1-3.6,5.37,16.65,16.65,0,0,0-3.35,5.32l-.15.52a14.21,14.21,0,0,0,2.42,12.58,14.52,14.52,0,0,0,11.67,5.79h0L1042,847c4.62,0,8.3-4.54,9.21-8.88,1.07-5.2-.68-10.74-2.33-15l-.41-1.06a27.1,27.1,0,0,1-2.37-8.81,27.59,27.59,0,0,1,.81-6.8c.24-1.1.47-2.2.61-3.3a21.57,21.57,0,0,0-1.07-10.08,46.15,46.15,0,0,0-2.6-5.56,27.66,27.66,0,0,1-4.09-17.35c0-1.68.06-3.36-.06-5a5.59,5.59,0,0,0-.73-2.79,4.19,4.19,0,0,0-2-1.3A10,10,0,0,0,1033.36,760.43Z"></path>
  <path class="cls-4" d="M1024.28,851a2,2,0,0,1-1.95-1.74c-.2-1.68-4.8-41.39,3.56-66.14a2,2,0,1,1,3.73,1.26c-8.07,23.92-3.43,64-3.39,64.42a2,2,0,0,1-1.72,2.19Z"></path>
  <path class="cls-4" d="M1042.63,909H1005a2,2,0,0,1-1.93-1.59L991.5,849.48a2,2,0,0,1,1.94-2.36h60.74a2,2,0,0,1,1.93,2.36l-11.55,57.89A2,2,0,0,1,1042.63,909Zm-36-3.94H1041l10.77-54H995.84Z"></path>
</svg>
