<?xml version="1.0" encoding="UTF-8"?>
<svg xmlns="http://www.w3.org/2000/svg" id="Layer_1" data-name="Layer 1" viewBox="0 0 1570 1080">
  <defs>
    <style>.cls-1,.cls-5{fill:#ffde00;}.cls-2{fill:#1c19a8;}.cls-3,.cls-7{fill:#fb715d;}.cls-3,.cls-5,.cls-6{fill-rule:evenodd;}.cls-4,.cls-6{fill:#00ab81;}.cls-8{fill:#fff;}</style>
  </defs>
  <rect class="cls-1" x="-27.5" y="-19.49" width="1625" height="1118.55"></rect>
  <path class="cls-2" d="M1598.91,1100.46H-28.91V-20.9H1598.91Zm-1625-2.82H1596.09V-18.08H-26.09Z"></path>
  <polygon class="cls-3" points="1413.36 648.2 1363.76 648.2 1363.76 663.16 1363.76 719.94 1413.36 719.94 1413.36 648.2"></polygon>
  <path class="cls-2" d="M1413.36,721.35h-49.6a1.41,1.41,0,0,1-1.41-1.41V648.2a1.41,1.41,0,0,1,1.41-1.41h49.6a1.41,1.41,0,0,1,1.41,1.41v71.74A1.41,1.41,0,0,1,1413.36,721.35Zm-48.19-2.82H1412V649.61h-46.78Z"></path>
  <rect class="cls-2" x="1362.34" y="664.67" width="51.02" height="2.82"></rect>
  <rect class="cls-2" x="1362.34" y="674.16" width="51.02" height="2.82"></rect>
  <polygon class="cls-3" points="1363.86 648.2 1314.26 648.2 1314.26 663.16 1314.26 719.94 1363.86 719.94 1363.86 648.2"></polygon>
  <path class="cls-2" d="M1363.86,721.35h-49.61a1.41,1.41,0,0,1-1.41-1.41V648.2a1.41,1.41,0,0,1,1.41-1.41h49.61a1.41,1.41,0,0,1,1.41,1.41v71.74A1.41,1.41,0,0,1,1363.86,721.35Zm-48.19-2.82h46.78V649.61h-46.78Z"></path>
  <rect class="cls-2" x="1312.84" y="664.67" width="51.02" height="2.82"></rect>
  <rect class="cls-2" x="1312.84" y="674.16" width="51.02" height="2.82"></rect>
  <rect class="cls-4" x="1303.52" y="469.61" width="114.73" height="35.77"></rect>
  <path class="cls-2" d="M1418.24,506.79H1303.52a1.41,1.41,0,0,1-1.41-1.41V469.61a1.41,1.41,0,0,1,1.41-1.41h114.72a1.41,1.41,0,0,1,1.41,1.41v35.77A1.41,1.41,0,0,1,1418.24,506.79ZM1304.93,504h111.9V471h-111.9Z"></path>
  <rect class="cls-1" x="1346.06" y="532.16" width="31.8" height="35.77"></rect>
  <rect class="cls-2" x="1273.2" y="788.77" width="175.36" height="11.78"></rect>
  <rect class="cls-2" x="1273.2" y="565.99" width="175.36" height="11.78"></rect>
  <rect class="cls-2" x="1273.2" y="504.2" width="175.36" height="11.78"></rect>
  <path class="cls-2" d="M1380.78,570.85h-37.65V529.24h37.65ZM1349,565h26V535.08h-26Z"></path>
  <rect class="cls-2" x="1447.15" y="504.2" width="2.82" height="400.45"></rect>
  <polygon class="cls-5" points="1387.85 718.89 1338.25 718.89 1338.25 733.85 1338.25 790.63 1387.85 790.63 1387.85 718.89"></polygon>
  <path class="cls-2" d="M1387.85,792h-49.6a1.41,1.41,0,0,1-1.41-1.41V718.89a1.41,1.41,0,0,1,1.41-1.41h49.6a1.41,1.41,0,0,1,1.41,1.41v71.74A1.41,1.41,0,0,1,1387.85,792Zm-48.19-2.82h46.78V720.3h-46.78Z"></path>
  <rect class="cls-2" x="1336.83" y="735.36" width="51.02" height="2.82"></rect>
  <rect class="cls-2" x="1336.83" y="744.85" width="51.02" height="2.82"></rect>
  <polygon class="cls-5" points="1437.23 718.89 1387.62 718.89 1387.62 733.85 1387.62 790.63 1437.23 790.63 1437.23 718.89"></polygon>
  <path class="cls-2" d="M1437.23,792h-49.61a1.41,1.41,0,0,1-1.41-1.41V718.89a1.41,1.41,0,0,1,1.41-1.41h49.61a1.41,1.41,0,0,1,1.41,1.41v71.74A1.41,1.41,0,0,1,1437.23,792Zm-48.2-2.82h46.79V720.3H1389Z"></path>
  <rect class="cls-2" x="1386.21" y="735.36" width="51.02" height="2.82"></rect>
  <rect class="cls-2" x="1386.21" y="744.85" width="51.02" height="2.82"></rect>
  <path class="cls-6" d="M295,619.81a1.26,1.26,0,0,0-.93,1.33v6.62a1.22,1.22,0,0,0,1.05,1.34h.28a4.64,4.64,0,0,1-.94,1.8,15.32,15.32,0,0,1-2.82,2.47,14.51,14.51,0,0,0-3.29,3.08,9.73,9.73,0,0,0-1.73,5.55v30.9c0,3.21,2.06,5.86,4.56,5.86h24.34c2.51,0,4.56-2.65,4.56-5.86V642.06a9.56,9.56,0,0,0-1.7-5.53,15,15,0,0,0-3.28-3.12,15.65,15.65,0,0,1-2.81-2.49,4.55,4.55,0,0,1-.92-1.82h.35a1.22,1.22,0,0,0,1-1.34l.05-6.59a1.49,1.49,0,0,0-.3-1,.92.92,0,0,0-.74-.4H295Z"></path>
  <path class="cls-2" d="M315.53,680.17H291.19c-3.29,0-6-3.26-6-7.27V642a11.21,11.21,0,0,1,2-6.4,15.75,15.75,0,0,1,3.58-3.38,15,15,0,0,0,2.57-2.22l.14-.18a2.86,2.86,0,0,1-.84-2.08v-6.62a2.65,2.65,0,0,1,2.14-2.73h17a2.33,2.33,0,0,1,1.86,1,3,3,0,0,1,.59,1.83l-.05,6.59a2.88,2.88,0,0,1-.9,2.12,1.83,1.83,0,0,0,.13.16,14.39,14.39,0,0,0,2.49,2.19,16.39,16.39,0,0,1,3.64,3.47,11,11,0,0,1,2,6.33V672.9C321.5,676.91,318.82,680.17,315.53,680.17Zm-20-52.48a1.44,1.44,0,0,1,1,.54,1.42,1.42,0,0,1,.25,1.21,5.92,5.92,0,0,1-1.19,2.34,16.63,16.63,0,0,1-3.09,2.72,12.93,12.93,0,0,0-3,2.77A8.31,8.31,0,0,0,288,642V672.9c0,2.41,1.44,4.45,3.15,4.45h24.34c1.71,0,3.15-2,3.15-4.45V642.08a8.19,8.19,0,0,0-1.43-4.72,13.45,13.45,0,0,0-3-2.82,16.72,16.72,0,0,1-3.07-2.75,5.75,5.75,0,0,1-1.18-2.37,1.41,1.41,0,0,1,1.35-1.73l.05-6.48H295.49Z"></path>
  <path class="cls-6" d="M241.66,619.81a1.26,1.26,0,0,0-.93,1.33v6.62a1.22,1.22,0,0,0,1.05,1.34h.27a4.49,4.49,0,0,1-.93,1.8,15.65,15.65,0,0,1-2.82,2.47,14.51,14.51,0,0,0-3.29,3.08,9.73,9.73,0,0,0-1.73,5.55v30.9c0,3.21,2.06,5.86,4.56,5.86h24.34c2.51,0,4.56-2.65,4.56-5.86V642.06a9.56,9.56,0,0,0-1.7-5.53,15,15,0,0,0-3.28-3.12,15.65,15.65,0,0,1-2.81-2.49,4.55,4.55,0,0,1-.92-1.82h.35a1.22,1.22,0,0,0,1-1.34l.05-6.59a1.55,1.55,0,0,0-.3-1,1,1,0,0,0-.75-.4H241.66Z"></path>
  <path class="cls-2" d="M262.18,680.17H237.84c-3.29,0-6-3.26-6-7.27V642a11.21,11.21,0,0,1,2-6.4,15.54,15.54,0,0,1,3.58-3.38A15,15,0,0,0,240,630l.14-.18a2.86,2.86,0,0,1-.84-2.08v-6.62a2.65,2.65,0,0,1,2.14-2.73h17a2.34,2.34,0,0,1,1.87,1,3,3,0,0,1,.59,1.83l-.05,6.59a2.88,2.88,0,0,1-.9,2.12,1.83,1.83,0,0,0,.13.16,14.41,14.41,0,0,0,2.49,2.2,16.55,16.55,0,0,1,3.64,3.46,11,11,0,0,1,2,6.33V672.9C268.15,676.91,265.47,680.17,262.18,680.17Zm-20-52.48a1.44,1.44,0,0,1,1,.54,1.42,1.42,0,0,1,.25,1.21,5.92,5.92,0,0,1-1.19,2.34,17,17,0,0,1-3.09,2.72,12.93,12.93,0,0,0-3,2.77,8.31,8.31,0,0,0-1.47,4.75V672.9c0,2.41,1.44,4.45,3.15,4.45h24.34c1.71,0,3.15-2,3.15-4.45V642.08a8.19,8.19,0,0,0-1.43-4.72,13.68,13.68,0,0,0-3-2.82,16.72,16.72,0,0,1-3.07-2.75,5.75,5.75,0,0,1-1.18-2.37,1.41,1.41,0,0,1,1.35-1.73l.05-6.48H242.14Z"></path>
  <path class="cls-1" d="M159.93,778.23h22.95l.06-39.57-6-18.54,0-15.2H165.83l0,15.2-6,18.54Z"></path>
  <path class="cls-2" d="M182.88,779.64H159.93a1.41,1.41,0,0,1-1.41-1.4l-.07-39.58a1.55,1.55,0,0,1,.07-.43l5.92-18.33,0-15a1.42,1.42,0,0,1,1.41-1.42H177a1.42,1.42,0,0,1,1.41,1.42l0,15,5.92,18.33a1.54,1.54,0,0,1,.06.43l-.06,39.58A1.41,1.41,0,0,1,182.88,779.64Zm-21.54-2.82h20.13l.06-37.94-5.91-18.33a1.25,1.25,0,0,1-.07-.43l0-13.79h-8.33l0,13.79a1.55,1.55,0,0,1-.07.43l-5.92,18.33Z"></path>
  <path class="cls-1" d="M201.24,778.23h23l.06-39.57-6-18.54v-15.2H207.15v15.2l-6,18.54Z"></path>
  <path class="cls-2" d="M224.2,779.64h-23a1.42,1.42,0,0,1-1.41-1.4l-.06-39.58a1.25,1.25,0,0,1,.07-.43l5.91-18.33v-15a1.34,1.34,0,0,1,.41-1,1.38,1.38,0,0,1,1-.42h11.14a1.43,1.43,0,0,1,1.42,1.42l0,15,5.91,18.33a1.25,1.25,0,0,1,.07.43l-.06,39.58A1.42,1.42,0,0,1,224.2,779.64Zm-21.55-2.82h20.14l.06-37.94-5.91-18.33a1.25,1.25,0,0,1-.07-.43V706.33h-8.32v13.79a1.25,1.25,0,0,1-.07.43l-5.91,18.33Z"></path>
  <rect class="cls-7" x="168.44" y="538.77" width="62.8" height="48.87"></rect>
  <path class="cls-2" d="M231.23,589.05H168.44a1.42,1.42,0,0,1-1.42-1.41V538.77a1.42,1.42,0,0,1,1.42-1.41h62.79a1.41,1.41,0,0,1,1.41,1.41v48.87A1.41,1.41,0,0,1,231.23,589.05Zm-61.38-2.82h60V540.18h-60Z"></path>
  <rect class="cls-2" x="142.49" y="769.87" width="193.1" height="12.98"></rect>
  <path class="cls-2" d="M337,784.26H141.08v-15.8H337Zm-193.1-2.82H334.18V771.28H143.9Z"></path>
  <rect class="cls-2" x="142.49" y="678.76" width="193.1" height="12.98"></rect>
  <path class="cls-2" d="M337,693.14H141.08V677.35H337Zm-193.1-2.82H334.18V680.17H143.9Z"></path>
  <rect class="cls-2" x="142.49" y="587.64" width="193.1" height="12.98"></rect>
  <path class="cls-2" d="M337,602H141.08v-15.8H337Zm-193.1-2.82H334.18V589.05H143.9Z"></path>
  <rect class="cls-2" x="142.49" y="496.53" width="193.1" height="12.98"></rect>
  <path class="cls-2" d="M337,510.92H141.08v-15.8H337ZM143.9,508.1H334.18V497.94H143.9Z"></path>
  <rect class="cls-2" x="141.08" y="496.53" width="2.82" height="409.68"></rect>
  <path class="cls-4" d="M232.76,496.53h23l.07-39.57-6-18.54,0-15.21H238.66l0,15.21-6,18.54Z"></path>
  <path class="cls-2" d="M255.71,497.94h-23a1.41,1.41,0,0,1-1.41-1.41L231.29,457a1.35,1.35,0,0,1,.07-.44l5.91-18.32,0-15a1.43,1.43,0,0,1,1.41-1.42h11.15a1.38,1.38,0,0,1,1,.42,1.41,1.41,0,0,1,.41,1v15l5.91,18.32a1.35,1.35,0,0,1,.07.44l-.07,39.57A1.41,1.41,0,0,1,255.71,497.94Zm-21.54-2.82h20.14l.06-37.94-5.92-18.33a1.61,1.61,0,0,1-.07-.43l0-13.8h-8.33l0,13.8a1.29,1.29,0,0,1-.07.43l-5.91,18.33Z"></path>
  <path class="cls-4" d="M274.08,496.53H297l.06-39.57-6-18.54,0-15.21H280l0,15.21L274,457Z"></path>
  <path class="cls-2" d="M297,497.94H274.08a1.41,1.41,0,0,1-1.41-1.41L272.6,457a1.68,1.68,0,0,1,.07-.44l5.92-18.32,0-15a1.41,1.41,0,0,1,.41-1,1.4,1.4,0,0,1,1-.42h11.15a1.42,1.42,0,0,1,1.41,1.42l0,15,5.92,18.32a1.67,1.67,0,0,1,.06.44l-.06,39.57A1.41,1.41,0,0,1,297,497.94Zm-21.54-2.82h20.13l.06-37.94-5.91-18.33a1.29,1.29,0,0,1-.07-.43l0-13.8h-8.33l0,13.8a1.61,1.61,0,0,1-.07.43l-5.92,18.33Z"></path>
  <polygon class="cls-1" points="1312.45 661.01 1357.12 661.01 1348.63 703.6 1320.94 703.6 1312.45 661.01"></polygon>
  <path class="cls-4" d="M1326.94,661l-6.3-1.79a21.8,21.8,0,0,0-1.85-3.83c-1.42-2.27-3.26-4.28-4.45-6.68-2.6-5.21-1.81-11.39-1-17.15l12.24,8.32.18.3a42.41,42.41,0,0,1,1-18c1.68-5.7,4.45-11.07,5.71-16.89,1.29-6,2.91-12.33.91-18.13,5.65,6.44,6.93,15.68,6.24,24.21-.26,3.32-.68,6.6-1.09,9.88l1.73-2.27a45.94,45.94,0,0,0,10-33.09c2.34,12.11,7.1,23,2.86,34.53-1.88,5.13-4.68,13.84-6.91,18.83-.15.33-.34.68-.5,1,1.14-.47,2.32-.86,3.48-1.27a50.45,50.45,0,0,0,14-7.56c-1.37,5.78-6.35,9.89-9.46,15a25,25,0,0,0-3.65,13.69h.18l-23.3.89"></path>
  <path class="cls-2" d="M1308.69,657.93h52.19l-9.72,48.75h-32.75Zm44.67,6.17h-37.15l7.26,36.41h22.63Z"></path>
  <rect class="cls-2" x="1317.31" y="682.31" width="34.96" height="6.17"></rect>
  <path class="cls-2" d="M1326.09,664l-6.29-1.79a3.07,3.07,0,0,1-2-1.89,18.17,18.17,0,0,0-1.58-3.26c-.52-.84-1.11-1.64-1.69-2.44a32.51,32.51,0,0,1-2.91-4.52c-3.12-6.25-2-13.6-1.25-19a3,3,0,0,1,1.82-2.38,3.14,3.14,0,0,1,3,.27l7.09,4.83a41.92,41.92,0,0,1,1.63-12.51c.73-2.46,1.64-4.87,2.57-7.26a65.26,65.26,0,0,0,3.09-9.4l.25-1.19c1.15-5.25,2.33-10.69.75-15.29a3.09,3.09,0,0,1,5.24-3c6.26,7.14,7.44,16.71,7.14,24.2a42.67,42.67,0,0,0,4.34-23.13,3.07,3.07,0,0,1,2.62-3.35,3,3,0,0,1,3.48,2.47c.52,2.72,1.17,5.38,1.81,8,2.22,9,4.5,18.37.91,28.18-.58,1.58-1.24,3.49-2,5.52-.89,2.58-1.85,5.33-2.79,7.88a47.14,47.14,0,0,0,10-5.88,3.09,3.09,0,0,1,4.89,3.16c-1,4.45-3.76,7.84-6.37,11.13a50.14,50.14,0,0,0-3.46,4.73,22,22,0,0,0-3.21,11,3,3,0,0,1,.18,1,3.07,3.07,0,0,1-3,3.14l-23.3.89h-.12A3.06,3.06,0,0,1,1326.09,664Zm25-19.16a47.7,47.7,0,0,1,3.26-4.54c-1.5.67-3.06,1.3-4.69,1.87-.93.32-1.86.63-2.77,1a3,3,0,0,1-3.41-.75,3.07,3.07,0,0,1-.53-3.46s.45-.93.46-.93c1.49-3.32,3.27-8.47,4.85-13,.72-2.08,1.39-4,2-5.62a28.48,28.48,0,0,0,1.07-14.45,48.21,48.21,0,0,1-8.56,16l-1.73,2.27a3.08,3.08,0,0,1-5.51-2.25l.16-1.34c.35-2.8.69-5.59.92-8.42a43.32,43.32,0,0,0-.19-9.25c-.2,1-.41,2-.62,2.9l-.25,1.18a68.59,68.59,0,0,1-3.36,10.3c-.87,2.25-1.73,4.5-2.42,6.81a39.6,39.6,0,0,0-.89,16.68,3,3,0,0,1-2.11,3.18,3.21,3.21,0,0,1-3-.63l-7.88-5.36c-.35,3.9-.19,7.41,1.29,10.38a26.31,26.31,0,0,0,2.37,3.63c.67.91,1.34,1.84,1.94,2.81a22.86,22.86,0,0,1,1.52,2.9l4.38,1.24,19.75-.75A28.25,28.25,0,0,1,1351.08,644.82Z"></path>
  <path class="cls-2" d="M1375.87,794.19h-30.32L1338,755.52h18a3,3,0,0,0,3-3V707.88a3,3,0,0,0-3-3h-27.88l-19.33-99.13a3,3,0,0,0-3.51-2.35l-15.1,3a2.94,2.94,0,0,0-1.9,1.26,3,3,0,0,0-.45,2.24l18.54,95h-18.65a3,3,0,0,0-3,3v44.65a3,3,0,0,0,3,3h28.54l7.57,38.67h-37.6a3,3,0,0,0-3,3v44.65a3,3,0,0,0,3,3h47.5L1346,908.06a3,3,0,0,0,2.92,2.41h15.68a3,3,0,0,0,2.93-3.56l-12.12-62.1h20.42a3,3,0,0,0,3-3V797.18A3,3,0,0,0,1375.87,794.19Z"></path>
  <rect class="cls-7" x="280.78" y="216.44" width="1008" height="690.2"></rect>
  <path class="cls-2" d="M1290.19,908.05H279.37V215H1290.19Zm-1008-2.82H1287.37V217.85H282.19Z"></path>
  <rect class="cls-2" x="280.78" y="265.17" width="1008" height="2.82"></rect>
  <path class="cls-2" d="M381.58,252.85a11.91,11.91,0,1,1,11.91-11.91A11.93,11.93,0,0,1,381.58,252.85Zm0-21a9.09,9.09,0,1,0,9.09,9.09A9.1,9.1,0,0,0,381.58,231.85Z"></path>
  <path class="cls-2" d="M345.18,253.55a11.91,11.91,0,1,1,11.91-11.91A11.93,11.93,0,0,1,345.18,253.55Zm0-21a9.09,9.09,0,1,0,9.09,9.09A9.1,9.1,0,0,0,345.18,232.55Z"></path>
  <path class="cls-2" d="M308.78,254.25a11.91,11.91,0,1,1,11.91-11.91A11.93,11.93,0,0,1,308.78,254.25Zm0-21a9.09,9.09,0,1,0,9.09,9.09A9.1,9.1,0,0,0,308.78,233.25Z"></path>
  <path class="cls-2" d="M465.13,496.5h13.56l47.71,58.35V496.5h5.71v78.4H518.56l-47.71-56v56h-5.72Z"></path>
  <path class="cls-2" d="M540.18,535.7c0-25.2,13.77-40.88,37.4-40.88s37.3,15.68,37.3,40.88-13.78,40.88-37.3,40.88S540.18,560.9,540.18,535.7Zm70.11,0c0-8.62-6.95-19.49-32.71-19.49s-32.81,10.87-32.81,19.49,7.05,19.49,32.81,19.49S610.29,544.33,610.29,535.7Z"></path>
  <path class="cls-2" d="M650.94,496.5h34.95c13.1,0,30.46,3.14,30.46,25.65,0,22.85-17.36,26.1-30.46,26.1H656.65V574.9h-5.71Zm32.59,31c24.76,0,29.35,0,29.35-5.38s-5.94-4.93-29.35-4.93H656.65v10.31Z"></path>
  <path class="cls-2" d="M723.3,496.5H729v56.56H781.2V574.9H723.3Z"></path>
  <path class="cls-2" d="M811.55,496.5h23.63l29,78.4h-24l-4-11.76H794.08l-3.92,11.76h-6.95Zm17.92,47-14.11-40.88-14.67,40.88Z"></path>
  <path class="cls-2" d="M862,545.11h4.59c0,6.38,10.42,10.08,28,10.08,18.71,0,29.79-2.91,29.79-7.84,0-11.87-62.38,8.51-61.82-28.22.22-15.24,12.43-24.31,32.82-24.31,20,0,31.92,10.64,31.92,28.56h-4.6c0-4.48-10.52-7.17-28.44-7.17-17,0-27.11,1.91-27.11,5.16,0,13.1,61.83-4.26,61.83,27.21,0,17.59-12.32,28-33.27,28C874.49,576.58,862,564.93,862,545.11Z"></path>
  <path class="cls-2" d="M960.51,518.34h-29.9V496.5h65.63v21.84h-30V574.9h-5.71Z"></path>
  <path class="cls-2" d="M1000.38,496.5h5.72v78.4h-5.72Z"></path>
  <path class="cls-2" d="M1014.16,535.7c0-25.2,13.78-40.88,39.65-40.88,16.91,0,33.71,10.42,33.71,28h-4.59c0-4.81-13-6.16-31.36-6.16-30.24,0-32.82,10.42-32.82,19s2.58,19,32.82,19c19.26,0,31.58-3.13,31.58-7.39h4.59c0,18.26-16.57,29.23-33.93,29.23C1027.94,576.58,1014.16,560.9,1014.16,535.7Z"></path>
  <path class="cls-2" d="M635.15,679.51h4.59c0,6.38,10.42,10.08,28,10.08,18.71,0,29.79-2.91,29.79-7.84,0-11.87-62.38,8.51-61.82-28.22.22-15.24,12.43-24.31,32.82-24.31,20,0,31.92,10.64,31.92,28.56h-4.6c0-4.48-10.52-7.16-28.44-7.16-17,0-27.11,1.9-27.11,5.15,0,13.1,61.82-4.26,61.82,27.21,0,17.59-12.31,28-33.26,28C647.69,711,635.15,699.33,635.15,679.51Z"></path>
  <path class="cls-2" d="M709.07,630.9h5.71v27.67h57.68V630.9h5.71v78.4h-5.71V680.41H714.78V709.3h-5.71Z"></path>
  <path class="cls-2" d="M786.24,670.1c0-25.2,13.78-40.88,37.41-40.88s37.29,15.68,37.29,40.88S847.17,711,823.65,711,786.24,695.3,786.24,670.1Zm70.11,0c0-8.62-6.94-19.48-32.7-19.48s-32.82,10.86-32.82,19.48,7.06,19.49,32.82,19.49S856.35,678.73,856.35,670.1Z"></path>
  <path class="cls-2" d="M869,630.9H904c13.11,0,30.47,3.14,30.47,25.65,0,22.85-17.36,26.1-30.47,26.1H874.72V709.3H869Zm32.59,31c24.75,0,29.34,0,29.34-5.38s-5.93-4.93-29.34-4.93H874.72v10.31Z"></path>
  <path class="cls-8" d="M1142.21,421,1099.1,395.7a3.5,3.5,0,0,0-3.92.12,3.71,3.71,0,0,0-1.52,3.64l8.72,49.22a3.77,3.77,0,0,0,2.7,3,3.84,3.84,0,0,0,3.8-1.36l7.3-9.4,9.5,13.73a3.33,3.33,0,0,0,2.38,1.46,3.71,3.71,0,0,0,1,.08,4,4,0,0,0,1.73-.62l8-5.53a3.66,3.66,0,0,0,.92-5.1l-9.49-13.73,11.18-3.61a3.73,3.73,0,0,0,2.55-3.12A3.64,3.64,0,0,0,1142.21,421Z"></path>
  <path class="cls-2" d="M1128.84,457.57a4.85,4.85,0,0,1-.82-.08l-.17,0a4.75,4.75,0,0,1-3.36-2.11l-8.37-12.1-6.12,7.88a5,5,0,0,1-9-2.23l-8.71-49.2a5.12,5.12,0,0,1,2.09-5,5,5,0,0,1,5.49-.17l43.06,25.23a5.06,5.06,0,0,1,2.48,4.85,5.18,5.18,0,0,1-3.57,4.33l-9.33,3,8.41,12.17a5.05,5.05,0,0,1-1.28,7.06l-8,5.54a5.55,5.55,0,0,1-2.39.86Zm-12.66-18.1h0a1.39,1.39,0,0,1,1.12.61l9.5,13.73a1.94,1.94,0,0,0,1.45.87l.17,0a2.34,2.34,0,0,0,.45,0,2.69,2.69,0,0,0,1.12-.41l8-5.5a2.19,2.19,0,0,0,.93-1.44,2.23,2.23,0,0,0-.37-1.7L1129.09,432a1.4,1.4,0,0,1,.72-2.14l11.19-3.61a2.35,2.35,0,0,0,1.59-2,2.22,2.22,0,0,0-1.07-2.05l0,0-43.1-25.25a2.11,2.11,0,0,0-2.39.05,2.3,2.3,0,0,0-1,2.26l8.71,49.21a2.23,2.23,0,0,0,4,.94l7.28-9.37A1.42,1.42,0,0,1,1116.18,439.47Z"></path>
  <rect class="cls-1" x="370.4" y="854.77" width="126.28" height="25.93"></rect>
  <path class="cls-2" d="M496.69,882.12H370.4a1.42,1.42,0,0,1-1.41-1.41V854.77a1.42,1.42,0,0,1,1.41-1.41H496.69a1.41,1.41,0,0,1,1.41,1.41v25.94A1.41,1.41,0,0,1,496.69,882.12ZM371.81,879.3H495.28V856.18H371.81Z"></path>
  <rect class="cls-1" x="370.4" y="880.71" width="126.28" height="25.93"></rect>
  <path class="cls-2" d="M496.69,908.05H370.4a1.41,1.41,0,0,1-1.41-1.41V880.71a1.41,1.41,0,0,1,1.41-1.41H496.69a1.41,1.41,0,0,1,1.41,1.41v25.93A1.41,1.41,0,0,1,496.69,908.05Zm-124.88-2.82H495.28V882.12H371.81Z"></path>
  <rect class="cls-1" x="386.55" y="854.77" width="12.22" height="51.87"></rect>
  <path class="cls-2" d="M398.77,908.05H386.55a1.41,1.41,0,0,1-1.41-1.41V854.77a1.41,1.41,0,0,1,1.41-1.41h12.22a1.41,1.41,0,0,1,1.41,1.41v51.87A1.41,1.41,0,0,1,398.77,908.05ZM388,905.23h9.4V856.18H388Z"></path>
  <rect class="cls-1" x="472.13" y="854.77" width="12.22" height="51.87"></rect>
  <path class="cls-2" d="M484.35,908.05H472.13a1.41,1.41,0,0,1-1.41-1.41V854.77a1.41,1.41,0,0,1,1.41-1.41h12.22a1.41,1.41,0,0,1,1.41,1.41v51.87A1.41,1.41,0,0,1,484.35,908.05Zm-10.81-2.82h9.4V856.18h-9.4Z"></path>
  <rect class="cls-4" x="391.54" y="807.95" width="86.11" height="38.04"></rect>
  <path class="cls-2" d="M477.65,847.4H391.54a1.41,1.41,0,0,1-1.41-1.41V808a1.41,1.41,0,0,1,1.41-1.41h86.11a1.41,1.41,0,0,1,1.41,1.41v38A1.41,1.41,0,0,1,477.65,847.4ZM393,844.58h83.29V809.36H393Z"></path>
  <path class="cls-4" d="M442,744.91h1a19.6,19.6,0,0,1,19.6,19.6v0a0,0,0,0,1,0,0h-1a19.6,19.6,0,0,1-19.6-19.6v0A0,0,0,0,1,442,744.91Z" transform="translate(1035.51 95.89) rotate(72.45)"></path>
  <path class="cls-2" d="M446.07,768.91a1.36,1.36,0,0,1-.65-.16,1.4,1.4,0,0,1-.69-.82l-.31-1a21,21,0,0,1,13.7-26.36,1.4,1.4,0,0,1,1.77.92l.31,1a21.05,21.05,0,0,1-13.7,26.37A1.59,1.59,0,0,1,446.07,768.91Zm11.56-25.17A18.2,18.2,0,0,0,447,765.68,18.23,18.23,0,0,0,457.63,743.74Z"></path>
  <path class="cls-1" d="M450.48,764.53s7.31-1.8,13.57-.22"></path>
  <path class="cls-2" d="M450.81,765.9l-.67-2.74c.31-.08,7.73-1.86,14.25-.22l-.69,2.74C457.85,764.2,450.88,765.88,450.81,765.9Z"></path>
  <path class="cls-1" d="M443.71,783.87l7.6-12.15a6.58,6.58,0,0,0-1-8.24h0a6.59,6.59,0,0,0-8.43-.58l-12,8.71A8.84,8.84,0,0,0,425,778a10.14,10.14,0,0,0,2.59,9.61,9.91,9.91,0,0,0,16.17-3.73Z"></path>
  <path class="cls-2" d="M434.4,791.75a11.35,11.35,0,0,1-7.84-3.13,11.52,11.52,0,0,1-3-10.93,10.27,10.27,0,0,1,5.55-7.29L441,761.76a8,8,0,0,1,11.48,10.71l-7.53,12a11,11,0,0,1-2.4,3.77A11.28,11.28,0,0,1,434.4,791.75Zm11.33-28.7a5.18,5.18,0,0,0-3,1l-12,8.71-.18.11a7.43,7.43,0,0,0-4.18,5.43,8.7,8.7,0,0,0,2.18,8.29,8.54,8.54,0,0,0,12-.26,8.4,8.4,0,0,0,1.84-2.94,2.1,2.1,0,0,1,.13-.26l7.6-12.15a5.19,5.19,0,0,0-.81-6.47A5.13,5.13,0,0,0,445.73,763.05Z"></path>
  <path class="cls-4" d="M469.28,756.75h1a19.6,19.6,0,0,1,19.6,19.6v0a0,0,0,0,1,0,0h-1a19.6,19.6,0,0,1-19.6-19.6v0A0,0,0,0,1,469.28,756.75Z" transform="translate(1302.98 392.82) rotate(97.62)"></path>
  <path class="cls-2" d="M471.13,777.06a22.17,22.17,0,0,1-2.8-.18,1.43,1.43,0,0,1-1.21-1.59l.14-1a21,21,0,0,1,23.61-18,1.42,1.42,0,0,1,1.21,1.59l-.14,1A21,21,0,0,1,471.13,777.06Zm-1-2.84a18.25,18.25,0,0,0,19-15.33,18.19,18.19,0,0,0-19,15.33Z"></path>
  <path class="cls-1" d="M473.77,774.66s7.38,1.49,12.38,5.58"></path>
  <path class="cls-2" d="M485.25,781.33c-4.67-3.82-11.69-5.27-11.76-5.28l.56-2.77c.31.07,7.78,1.6,13,5.87Z"></path>
  <path class="cls-1" d="M459.43,789.29l12-7.76a6.6,6.6,0,0,0,2.58-7.89h0a6.59,6.59,0,0,0-7.39-4.11L452.1,772.3a8.87,8.87,0,0,0-7.16,3.69,10.16,10.16,0,0,0-1.75,9.8,9.95,9.95,0,0,0,16.24,3.5Z"></path>
  <path class="cls-2" d="M452.48,793.55a11.38,11.38,0,0,1-10.6-7.25,11.52,11.52,0,0,1,1.94-11.17,10.27,10.27,0,0,1,8.12-4.23l14.46-2.76a8,8,0,0,1,5.83,14.57l-11.92,7.69a11.41,11.41,0,0,1-3.78,2.4A11.29,11.29,0,0,1,452.48,793.55Zm15.42-22.73a5.39,5.39,0,0,0-1,.09l-14.56,2.78-.22,0a7.43,7.43,0,0,0-6.09,3.14,8.69,8.69,0,0,0-1.55,8.43,8.56,8.56,0,0,0,11,4.89,8.44,8.44,0,0,0,2.92-1.89l.22-.18,12-7.76a5.17,5.17,0,0,0-2.8-9.52Z"></path>
  <path class="cls-4" d="M397.26,750.12h1a19.6,19.6,0,0,1,19.6,19.6v0a0,0,0,0,1,0,0h-1a19.6,19.6,0,0,1-19.6-19.6v0A0,0,0,0,1,397.26,750.12Z" transform="translate(488.17 -98.63) rotate(33.57)"></path>
  <path class="cls-2" d="M410.75,775.2A1.4,1.4,0,0,1,410,775l-.85-.57a21,21,0,0,1-5.89-29.12,1.41,1.41,0,0,1,1.95-.4l.86.57a21,21,0,0,1,5.89,29.13,1.44,1.44,0,0,1-.9.6A1.27,1.27,0,0,1,410.75,775.2ZM404.84,748a18.21,18.21,0,0,0,5.48,23.76A18.22,18.22,0,0,0,404.84,748Z"></path>
  <path class="cls-1" d="M412.32,768.71s4.56-6,10.43-8.69"></path>
  <path class="cls-2" d="M413.44,769.57l-2.24-1.71c.19-.26,4.85-6.3,10.95-9.12l1.19,2.56C417.87,763.82,413.48,769.51,413.44,769.57Z"></path>
  <path class="cls-1" d="M419.19,788l-1.71-14.23a6.58,6.58,0,0,0-6-5.77h0a6.58,6.58,0,0,0-6.93,4.84l-3.87,14.31a8.83,8.83,0,0,0,.17,8.05,10.14,10.14,0,0,0,8.06,5.86A9.91,9.91,0,0,0,419.19,788Z"></path>
  <path class="cls-2" d="M409.78,802.51c-.32,0-.63,0-.95,0a11.54,11.54,0,0,1-9.2-6.64,10.27,10.27,0,0,1-.25-9.15l3.85-14.21a8,8,0,0,1,15.65,1.13l1.7,14.09a11.34,11.34,0,0,1-10.8,14.81Zm1.16-33.11a5.16,5.16,0,0,0-5,3.82l-3.87,14.3a1.8,1.8,0,0,1-.08.21,7.43,7.43,0,0,0,.16,6.85,8.72,8.72,0,0,0,6.9,5.09,8.57,8.57,0,0,0,9.21-7.77,8.48,8.48,0,0,0-.42-3.45,1.27,1.27,0,0,1-.06-.28L416.08,774a5.18,5.18,0,0,0-4.69-4.53A3.39,3.39,0,0,0,410.94,769.4Z"></path>
  <path class="cls-4" d="M475.18,779.94h1a19.6,19.6,0,0,1,19.6,19.6v0a0,0,0,0,1,0,0h-1a19.6,19.6,0,0,1-19.6-19.6v0A0,0,0,0,1,475.18,779.94Z" transform="translate(1411.65 749.21) rotate(119.08)"></path>
  <path class="cls-2" d="M481.41,797.89a20.94,20.94,0,0,1-10.18-2.66,1.42,1.42,0,0,1-.55-1.92l.5-.9a21,21,0,0,1,28.58-8.15,1.41,1.41,0,0,1,.55,1.92l-.5.9a21.11,21.11,0,0,1-18.4,10.81Zm-7.54-4.48a18.2,18.2,0,0,0,23.26-7.33,18.19,18.19,0,0,0-23.26,7.33Z"></path>
  <path class="cls-1" d="M477.1,795.16s6.33,4.08,9.48,9.71"></path>
  <path class="cls-2" d="M485.35,805.56c-2.94-5.25-9-9.18-9-9.22l1.52-2.36c.28.17,6.66,4.33,9.95,10.21Z"></path>
  <path class="cls-1" d="M458.4,803.52l14.05-2.82a6.57,6.57,0,0,0,5.28-6.39h0a6.58,6.58,0,0,0-5.36-6.53L457.8,785a8.81,8.81,0,0,0-8,.81,10.11,10.11,0,0,0-5.21,8.48,9.92,9.92,0,0,0,13.82,9.19Z"></path>
  <path class="cls-2" d="M454.52,805.73h-.1a11.37,11.37,0,0,1-11.25-11.4,11.49,11.49,0,0,1,5.89-9.69,10.3,10.3,0,0,1,9.11-1l14.46,2.72a8,8,0,0,1,.1,15.7l-13.91,2.79A11.21,11.21,0,0,1,454.52,805.73Zm0-19.89a7.65,7.65,0,0,0-4,1.21,8.73,8.73,0,0,0-4.52,7.29,8.54,8.54,0,0,0,8.46,8.57,8.71,8.71,0,0,0,3.4-.68l.27-.09,14.05-2.82a5.17,5.17,0,0,0-.06-10.15l-14.57-2.75-.21,0A8.33,8.33,0,0,0,454.52,785.84Z"></path>
  <path class="cls-4" d="M365.09,763.78h1a19.6,19.6,0,0,1,19.6,19.6v0a0,0,0,0,1,0,0h-1a19.6,19.6,0,0,1-19.6-19.6v0A0,0,0,0,1,365.09,763.78Z" transform="translate(-111.95 65.18) rotate(-8.64)"></path>
  <path class="cls-2" d="M383.07,783.51a21,21,0,0,1-20.73-17.86,1.42,1.42,0,0,1,1.18-1.61l1-.15a21,21,0,0,1,23.93,17.61,1.42,1.42,0,0,1-1.18,1.61l-1,.15A20.39,20.39,0,0,1,383.07,783.51ZM365.4,766.62a18.2,18.2,0,0,0,20,13.92A18.21,18.21,0,0,0,365.4,766.62Z"></path>
  <path class="cls-1" d="M384.83,776.9s-.65-7.5,1.88-13.44"></path>
  <path class="cls-2" d="M383.42,777c0-.32-.64-7.93,2-14.12L388,764c-2.36,5.56-1.79,12.7-1.78,12.78Z"></path>
  <path class="cls-1" d="M402.88,786.58l-10.82-9.39a6.58,6.58,0,0,0-8.3-.26h0a6.57,6.57,0,0,0-1.88,8.23l6.74,13.2a8.87,8.87,0,0,0,5.55,5.85,10.14,10.14,0,0,0,9.9-1.07,9.92,9.92,0,0,0-1.19-16.56Z"></path>
  <path class="cls-2" d="M398.34,806.42a12.79,12.79,0,0,1-4.68-.9,10.25,10.25,0,0,1-6.34-6.61l-6.69-13.11A8,8,0,0,1,393,776.13l10.72,9.29a11.23,11.23,0,0,1,3.36,3,11.38,11.38,0,0,1-2.13,15.88A10.76,10.76,0,0,1,398.34,806.42ZM387.74,777a5.16,5.16,0,0,0-4.6,7.52l6.74,13.2a1.67,1.67,0,0,1,.08.2,7.43,7.43,0,0,0,4.72,5,8.7,8.7,0,0,0,8.53-.87,8.56,8.56,0,0,0,1.61-11.94,8.46,8.46,0,0,0-2.63-2.27,1.24,1.24,0,0,1-.23-.17l-10.83-9.38A5.13,5.13,0,0,0,387.74,777Z"></path>
  <path class="cls-4" d="M397.18,789.56h1a19.6,19.6,0,0,1,19.6,19.6v0a0,0,0,0,1,0,0h-1a19.6,19.6,0,0,1-19.6-19.6v0A0,0,0,0,1,397.18,789.56Z" transform="translate(-489.17 767.41) rotate(-60.95)"></path>
  <path class="cls-2" d="M403.4,807.5a20.82,20.82,0,0,1-10.17-2.65,1.4,1.4,0,0,1-.54-1.91l.5-.9a21,21,0,0,1,28.57-8.17,1.42,1.42,0,0,1,.55,1.92l-.5.9A21.06,21.06,0,0,1,403.4,807.5ZM395.87,803a18.21,18.21,0,0,0,23.25-7.33A18.19,18.19,0,0,0,395.87,803Z"></path>
  <path class="cls-1" d="M415.89,794s-6.33-4.08-9.49-9.71"></path>
  <path class="cls-2" d="M415.12,795.13c-.27-.17-6.66-4.34-9.95-10.2l2.46-1.38c2.94,5.24,9,9.17,9,9.21Z"></path>
  <path class="cls-1" d="M434.58,785.57l-14,2.83a6.6,6.6,0,0,0-5.29,6.4h0a6.58,6.58,0,0,0,5.37,6.52l14.57,2.74a8.89,8.89,0,0,0,8-.81,10.14,10.14,0,0,0,5.2-8.49,9.94,9.94,0,0,0-13.83-9.19Z"></path>
  <path class="cls-2" d="M438.46,806.07a11.3,11.3,0,0,1-3.63-.64l-14.47-2.72a8,8,0,0,1-.1-15.69l13.91-2.8a11,11,0,0,1,4.39-.85,11.37,11.37,0,0,1,11.26,11.4,11.51,11.51,0,0,1-5.89,9.69A10.47,10.47,0,0,1,438.46,806.07Zm0-19.88a8.65,8.65,0,0,0-3.35.68,1.07,1.07,0,0,1-.27.09l-14,2.82a5.18,5.18,0,0,0,.06,10.16l14.57,2.73.21.06a7.43,7.43,0,0,0,6.82-.69,8.71,8.71,0,0,0,4.52-7.29,8.54,8.54,0,0,0-8.46-8.56Z"></path>
  <path class="cls-4" d="M420,753.12h1a19.6,19.6,0,0,1,19.6,19.6v0a0,0,0,0,1,0,0h-1a19.6,19.6,0,0,1-19.6-19.6v0A0,0,0,0,1,420,753.12Z" transform="translate(762.29 -47.65) rotate(51.7)"></path>
  <path class="cls-2" d="M429,778.5h-.16a1.4,1.4,0,0,1-.94-.52l-.64-.81a21,21,0,0,1,3.46-29.51,1.4,1.4,0,0,1,2,.23l.64.81a21,21,0,0,1-3.46,29.51A1.4,1.4,0,0,1,429,778.5Zm2.4-27.72a18.22,18.22,0,0,0-2.19,24.29,18.21,18.21,0,0,0,2.19-24.29Z"></path>
  <path class="cls-1" d="M432.62,793.23l2.8-14.05a6.58,6.58,0,0,0-3.88-7.34h0a6.58,6.58,0,0,0-8.08,2.44l-8.14,12.39a8.85,8.85,0,0,0-2.33,7.71,10.13,10.13,0,0,0,5.83,8.08,9.93,9.93,0,0,0,13.8-9.23Z"></path>
  <path class="cls-2" d="M422.66,804.65a11.33,11.33,0,0,1-4.39-.89,11.51,11.51,0,0,1-6.68-9.17,10.28,10.28,0,0,1,2.61-8.78l8.08-12.3a8,8,0,0,1,14.52,6L434,793.37a11.12,11.12,0,0,1-.91,4.38A11.36,11.36,0,0,1,422.66,804.65Zm6.3-31.93a5.15,5.15,0,0,0-4.32,2.34l-8.14,12.39-.13.17a7.43,7.43,0,0,0-2,6.56,8.72,8.72,0,0,0,5,7,8.55,8.55,0,0,0,11.17-4.51,8.44,8.44,0,0,0,.68-3.41,1.27,1.27,0,0,1,0-.28L434,778.91a5.18,5.18,0,0,0-3-5.77A5,5,0,0,0,429,772.72Z"></path>
  <rect class="cls-4" x="381.08" y="844.06" width="104.19" height="10.71"></rect>
  <path class="cls-2" d="M485.27,856.18H381.08a1.41,1.41,0,0,1-1.41-1.41V844.06a1.41,1.41,0,0,1,1.41-1.41H485.27a1.42,1.42,0,0,1,1.42,1.41v10.71A1.42,1.42,0,0,1,485.27,856.18ZM382.5,853.36H483.86v-7.89H382.5Z"></path>
  <rect class="cls-4" x="381.08" y="797.24" width="104.19" height="10.71"></rect>
  <path class="cls-2" d="M485.27,809.36H381.08a1.41,1.41,0,0,1-1.41-1.41V797.24a1.41,1.41,0,0,1,1.41-1.41H485.27a1.42,1.42,0,0,1,1.42,1.41V808A1.42,1.42,0,0,1,485.27,809.36ZM382.5,806.54H483.86v-7.89H382.5Z"></path>
  <rect class="cls-2" x="454.27" y="807.95" width="2.82" height="36.11"></rect>
  <rect class="cls-2" x="431.77" y="807.95" width="2.82" height="36.11"></rect>
  <rect class="cls-2" x="409.27" y="807.95" width="2.82" height="36.11"></rect>
  <rect class="cls-1" x="223.59" y="828.84" width="126.28" height="25.93"></rect>
  <path class="cls-2" d="M349.87,856.18H223.59a1.41,1.41,0,0,1-1.41-1.41V828.84a1.41,1.41,0,0,1,1.41-1.41H349.87a1.41,1.41,0,0,1,1.41,1.41v25.93A1.41,1.41,0,0,1,349.87,856.18ZM225,853.36H348.46V830.25H225Z"></path>
  <rect class="cls-1" x="223.59" y="854.77" width="126.28" height="25.93"></rect>
  <path class="cls-2" d="M349.87,882.12H223.59a1.41,1.41,0,0,1-1.41-1.41V854.77a1.41,1.41,0,0,1,1.41-1.41H349.87a1.41,1.41,0,0,1,1.41,1.41v25.94A1.41,1.41,0,0,1,349.87,882.12ZM225,879.3H348.46V856.18H225Z"></path>
  <rect class="cls-1" x="223.59" y="880.71" width="126.28" height="25.93"></rect>
  <path class="cls-2" d="M349.87,908.05H223.59a1.41,1.41,0,0,1-1.41-1.41V880.71a1.41,1.41,0,0,1,1.41-1.41H349.87a1.41,1.41,0,0,1,1.41,1.41v25.93A1.41,1.41,0,0,1,349.87,908.05ZM225,905.23H348.46V882.12H225Z"></path>
  <rect class="cls-1" x="239.73" y="828.84" width="12.22" height="77.8"></rect>
  <path class="cls-2" d="M252,908.05H239.73a1.41,1.41,0,0,1-1.41-1.41v-77.8a1.41,1.41,0,0,1,1.41-1.41H252a1.41,1.41,0,0,1,1.41,1.41v77.8A1.41,1.41,0,0,1,252,908.05Zm-10.81-2.82h9.4v-75h-9.4Z"></path>
  <rect class="cls-1" x="325.31" y="828.84" width="12.22" height="77.8"></rect>
  <path class="cls-2" d="M337.54,908.05H325.31a1.41,1.41,0,0,1-1.41-1.41v-77.8a1.41,1.41,0,0,1,1.41-1.41h12.23a1.41,1.41,0,0,1,1.41,1.41v77.8A1.41,1.41,0,0,1,337.54,908.05Zm-10.82-2.82h9.41v-75h-9.41Z"></path>
  <path class="cls-4" d="M256.12,713.94h1a19.6,19.6,0,0,1,19.6,19.6v0a0,0,0,0,1,0,0h-1a19.6,19.6,0,0,1-19.6-19.6v0A0,0,0,0,1,256.12,713.94Z" transform="translate(378.76 -39.26) rotate(28.58)"></path>
  <path class="cls-2" d="M270.81,738.69a1.4,1.4,0,0,1-.68-.17l-.9-.49a21,21,0,0,1-8.4-28.5,1.42,1.42,0,0,1,1.92-.57l.9.49a21,21,0,0,1,8.4,28.51A1.41,1.41,0,0,1,270.81,738.69Zm-8.13-26.55a18.22,18.22,0,0,0,7.52,23.2,18.19,18.19,0,0,0-7.52-23.2Z"></path>
  <path class="cls-1" d="M271.93,732.09s4-6.36,9.63-9.56"></path>
  <path class="cls-2" d="M273.12,732.84l-2.39-1.5c.18-.28,4.29-6.7,10.13-10l1.4,2.45C277,726.73,273.15,732.78,273.12,732.84Z"></path>
  <path class="cls-4" d="M312.29,716.67h1a0,0,0,0,1,0,0v0a19.6,19.6,0,0,1-19.6,19.6h-1a0,0,0,0,1,0,0v0A19.6,19.6,0,0,1,312.29,716.67Z" transform="matrix(-0.99, 0.17, -0.17, -0.99, 724.62, 1391.15)"></path>
  <path class="cls-2" d="M294.49,739.28a1.41,1.41,0,0,1-1.39-1.17,21,21,0,0,1,17.15-24.26l1-.18a1.42,1.42,0,0,1,1.63,1.15,21,21,0,0,1-17.15,24.27l-1,.17A1,1,0,0,1,294.49,739.28ZM310.3,716.7a18.22,18.22,0,0,0-14.6,19.53,18.2,18.2,0,0,0,14.6-19.53Z"></path>
  <path class="cls-1" d="M295.11,732.6s-1.76-7.33-6-12.16"></path>
  <path class="cls-2" d="M293.74,732.93c0-.07-1.73-7-5.71-11.56l2.11-1.87c4.45,5,6.27,12.46,6.34,12.77Z"></path>
  <path class="cls-4" d="M313.76,734.19h1a19.6,19.6,0,0,1,19.6,19.6v0a0,0,0,0,1,0,0h-1a19.6,19.6,0,0,1-19.6-19.6v0A0,0,0,0,1,313.76,734.19Z" transform="translate(395.47 -64.37) rotate(28.58)"></path>
  <path class="cls-2" d="M328.44,758.94a1.45,1.45,0,0,1-.67-.17l-.9-.49a21,21,0,0,1-8.4-28.51,1.41,1.41,0,0,1,1.91-.56l.9.49a21,21,0,0,1,8.4,28.5A1.41,1.41,0,0,1,328.44,758.94Zm-8.13-26.55a18.21,18.21,0,0,0,7.52,23.2,18.19,18.19,0,0,0-7.52-23.2Z"></path>
  <circle class="cls-4" cx="270.62" cy="744.58" r="12.95"></circle>
  <path class="cls-2" d="M270.62,758.94A14.36,14.36,0,1,1,285,744.58,14.37,14.37,0,0,1,270.62,758.94Zm0-25.9a11.54,11.54,0,1,0,11.53,11.54A11.56,11.56,0,0,0,270.62,733Z"></path>
  <circle class="cls-4" cx="295.04" cy="745.86" r="12.95"></circle>
  <path class="cls-2" d="M295,760.21a14.36,14.36,0,1,1,14.36-14.35A14.37,14.37,0,0,1,295,760.21Zm0-25.89a11.54,11.54,0,1,0,11.54,11.54A11.54,11.54,0,0,0,295,734.32Z"></path>
  <circle class="cls-4" cx="322.57" cy="762.17" r="12.95"></circle>
  <path class="cls-2" d="M322.57,776.53a14.36,14.36,0,1,1,14.36-14.36A14.37,14.37,0,0,1,322.57,776.53Zm0-25.89a11.54,11.54,0,1,0,11.54,11.53A11.54,11.54,0,0,0,322.57,750.64Z"></path>
  <circle class="cls-4" cx="255.02" cy="763.86" r="12.95"></circle>
  <path class="cls-2" d="M255,778.22a14.36,14.36,0,1,1,14.36-14.36A14.37,14.37,0,0,1,255,778.22Zm0-25.9a11.54,11.54,0,1,0,11.54,11.54A11.56,11.56,0,0,0,255,752.32Z"></path>
  <circle class="cls-4" cx="276.81" cy="764.65" r="12.95"></circle>
  <path class="cls-2" d="M276.81,779a14.36,14.36,0,1,1,14.36-14.35A14.37,14.37,0,0,1,276.81,779Zm0-25.89a11.54,11.54,0,1,0,11.54,11.54A11.55,11.55,0,0,0,276.81,753.11Z"></path>
  <circle class="cls-4" cx="302.71" cy="764.65" r="12.95"></circle>
  <path class="cls-2" d="M302.71,779a14.36,14.36,0,1,1,14.35-14.35A14.37,14.37,0,0,1,302.71,779Zm0-25.89a11.54,11.54,0,1,0,11.53,11.54A11.54,11.54,0,0,0,302.71,753.11Z"></path>
  <rect class="cls-7" x="244.72" y="782.02" width="86.11" height="38.04"></rect>
  <path class="cls-2" d="M330.84,821.46H244.72a1.41,1.41,0,0,1-1.41-1.41V782a1.41,1.41,0,0,1,1.41-1.41h86.12a1.41,1.41,0,0,1,1.41,1.41v38A1.41,1.41,0,0,1,330.84,821.46Zm-84.71-2.82h83.3V783.43h-83.3Z"></path>
  <rect class="cls-7" x="234.27" y="818.13" width="104.19" height="10.71"></rect>
  <path class="cls-2" d="M338.46,830.25H234.27a1.41,1.41,0,0,1-1.41-1.41V818.13a1.41,1.41,0,0,1,1.41-1.41H338.46a1.41,1.41,0,0,1,1.41,1.41v10.71A1.41,1.41,0,0,1,338.46,830.25Zm-102.78-2.82H337.05v-7.89H235.68Z"></path>
  <rect class="cls-7" x="234.27" y="771.31" width="104.19" height="10.71"></rect>
  <path class="cls-2" d="M338.46,783.43H234.27a1.41,1.41,0,0,1-1.41-1.41V771.31a1.41,1.41,0,0,1,1.41-1.41H338.46a1.41,1.41,0,0,1,1.41,1.41V782A1.41,1.41,0,0,1,338.46,783.43Zm-102.78-2.82H337.05v-7.89H235.68Z"></path>
  <rect class="cls-2" x="307.46" y="782.02" width="2.82" height="36.11"></rect>
  <rect class="cls-2" x="284.96" y="782.02" width="2.82" height="36.11"></rect>
  <rect class="cls-2" x="262.45" y="782.02" width="2.82" height="36.11"></rect>
  <path class="cls-1" d="M329.56,752.34s4-6.37,9.63-9.57"></path>
  <path class="cls-2" d="M330.75,753.09l-2.38-1.51c.17-.27,4.28-6.7,10.12-10l1.4,2.45C334.67,747,330.79,753,330.75,753.09Z"></path>
  <path class="cls-2" d="M1097,902.8l-24.77-145.57a3.09,3.09,0,0,0-3.5-2.49l-2.24.39a11.16,11.16,0,0,0-22,0l-2.25-.39a3.06,3.06,0,0,0-3.49,2.49L1014,902.8a3,3,0,0,0,2.48,3.5l13.1,2.23a4.75,4.75,0,0,0,.51,0,3,3,0,0,0,1.76-.56,3.13,3.13,0,0,0,1.24-2l22.42-131.8L1077.92,906a3,3,0,0,0,1.24,2,3,3,0,0,0,1.75.56,4.38,4.38,0,0,0,.51,0l13.1-2.23A3,3,0,0,0,1097,902.8Z"></path>
  <path class="cls-4" d="M1140.22,762.9s-11.84-24-31.42-1.44C1108.8,761.46,1124.16,780.41,1140.22,762.9Z"></path>
  <path class="cls-2" d="M1125.67,771.73h-.53c-10-.3-17.13-9-17.43-9.37a1.41,1.41,0,0,1,0-1.82c6.48-7.45,12.91-10.82,19.12-10,9.31,1.21,14.41,11.33,14.62,11.76a1.41,1.41,0,0,1-.22,1.58C1136.46,769.08,1131.22,771.73,1125.67,771.73Zm-15-10.28c2,2.11,7.63,7.25,14.55,7.46,4.61.11,9.07-2,13.24-6.23-1.36-2.3-5.61-8.55-12-9.37C1121.52,752.67,1116.21,755.41,1110.69,761.45Z"></path>
  <path class="cls-4" d="M1191,806.15s17.19,19.19,29.56-6.79C1220.51,799.36,1201.34,785.74,1191,806.15Z"></path>
  <path class="cls-2" d="M1204.61,814.39c-8.07,0-14.42-7-14.71-7.3a1.39,1.39,0,0,1-.2-1.58c3.21-6.31,7.57-10.18,13-11.51,9.35-2.3,18.28,3.94,18.65,4.21a1.42,1.42,0,0,1,.46,1.76c-4.1,8.61-9.21,13.41-15.21,14.28A14.58,14.58,0,0,1,1204.61,814.39Zm-11.93-8.49c1.88,1.79,7.41,6.44,13.5,5.55,4.75-.69,9-4.58,12.5-11.58-2.44-1.44-8.93-4.72-15.36-3.13C1199,797.81,1195.44,800.89,1192.68,805.9Z"></path>
  <path class="cls-4" d="M1187.65,807.58s34-17,1.85-44.66C1189.5,762.92,1162.67,784.87,1187.65,807.58Z"></path>
  <path class="cls-2" d="M1187.65,809a1.44,1.44,0,0,1-1-.37c-7.57-6.89-11.3-14.42-11.09-22.41.36-13.89,12.48-24,13-24.39a1.42,1.42,0,0,1,1.81,0c10.47,9,15.23,18,14.16,26.6-1.61,12.92-15.7,20.1-16.3,20.4A1.39,1.39,0,0,1,1187.65,809Zm1.86-44.19c-2.73,2.54-10.82,11-11.09,21.5-.17,6.87,3,13.44,9.45,19.55,3-1.71,12.71-8.05,13.91-17.78C1202.7,780.71,1198.57,772.88,1189.51,764.81Z"></path>
  <path class="cls-4" d="M1166.41,752.06s3.78-34.54-33.43-23.55C1133,728.51,1136.57,760,1166.41,752.06Z"></path>
  <path class="cls-2" d="M1157.32,754.76a23.2,23.2,0,0,1-13.37-3.92c-10.55-7.2-12.3-21.56-12.37-22.17a1.4,1.4,0,0,1,1-1.51c12.17-3.59,21.45-2.82,27.58,2.31,9.19,7.68,7.72,22.13,7.66,22.74a1.42,1.42,0,0,1-1,1.21A37,37,0,0,1,1157.32,754.76Zm-22.75-25.24c.64,3.45,3.14,13.66,11,19,5.14,3.5,11.71,4.31,19.53,2.42.14-3.21,0-13.66-6.74-19.32C1153.17,727.31,1145.18,726.6,1134.57,729.52Z"></path>
  <path class="cls-2" d="M1179.31,821.69l-2.81-.15c0-.22,1.19-22.18,4.8-46.94,4.87-33.41,11.6-55.76,20-66.44l2.22,1.75C1184.12,734.54,1179.36,820.82,1179.31,821.69Z"></path>
  <path class="cls-8" d="M1134.26,708.51s10.11-25.6-19-27C1115.27,681.56,1109.93,713.46,1134.26,708.51Z"></path>
  <path class="cls-2" d="M1129.45,710.44a14.24,14.24,0,0,1-10.31-3.83c-8.08-7.8-5.38-24.57-5.26-25.28a1.4,1.4,0,0,1,1.46-1.18c9.35.43,15.83,3.36,19.28,8.69,5.48,8.47,1.14,19.72,1,20.19a1.41,1.41,0,0,1-1,.86A25.33,25.33,0,0,1,1129.45,710.44Zm-13-27.39c-.44,3.9-1.25,15.88,4.6,21.53,2.8,2.7,6.86,3.61,12.09,2.7.81-2.47,3-10.79-.94-16.92C1129.47,686.08,1124.18,683.62,1116.5,683.05Z"></path>
  <path class="cls-4" d="M1127.29,746.62s15.68-33.74-28-29.37C1099.31,717.25,1092.15,758.93,1127.29,746.62Z"></path>
  <path class="cls-2" d="M1115.71,750.3a16.63,16.63,0,0,1-11.11-3.72c-10.15-8.58-6.83-28.72-6.68-29.57a1.41,1.41,0,0,1,1.25-1.17c14.67-1.47,24.49,1.16,29.21,7.8,6.66,9.37.45,23,.19,23.58a1.41,1.41,0,0,1-.82.73A36.82,36.82,0,0,1,1115.71,750.3Zm-15.16-31.75c-.52,4.15-1.83,19.37,5.87,25.88,4.35,3.67,11,4,19.82,1.06,1-2.49,4.88-13.14-.17-20.23C1122.1,719.67,1113.52,717.41,1100.55,718.55Z"></path>
  <path class="cls-8" d="M1182.67,686.73s26-9.16,7.9-32C1190.57,654.72,1163,671.6,1182.67,686.73Z"></path>
  <path class="cls-2" d="M1182.67,688.14a1.42,1.42,0,0,1-.86-.29c-5.32-4.09-7.89-8.73-7.62-13.79.59-11.21,15-20.17,15.64-20.54a1.41,1.41,0,0,1,1.84.33c5.81,7.34,7.85,14.15,6.09,20.25-2.8,9.69-14.14,13.79-14.62,14A1.55,1.55,0,0,1,1182.67,688.14Zm7.58-31.52c-3.24,2.22-12.82,9.47-13.24,17.59-.21,3.89,1.78,7.55,5.89,10.91,2.39-1,10.13-4.8,12.15-11.82C1196.47,668.4,1194.85,662.79,1190.25,656.62Z"></path>
  <path class="cls-8" d="M1224.49,722.86s25.79,9.64,26.6-19.48C1251.09,703.38,1219.1,698.63,1224.49,722.86Z"></path>
  <path class="cls-2" d="M1233.55,725.81a29.83,29.83,0,0,1-9.55-1.63,1.37,1.37,0,0,1-.88-1c-1.46-6.55-.45-11.75,3-15.46,7.65-8.22,24.46-5.83,25.18-5.72a1.41,1.41,0,0,1,1.2,1.43c-.26,9.36-3.06,15.9-8.33,19.44A18.77,18.77,0,0,1,1233.55,725.81Zm-7.84-4c2.48.75,10.84,2.82,16.9-1.26,4.23-2.86,6.58-8.2,7-15.88-3.91-.38-15.91-1-21.45,5C1225.53,712.48,1224.7,716.56,1225.71,721.78Z"></path>
  <polygon class="cls-7" points="1146.74 906.64 1192.85 906.64 1212.31 821.62 1127.29 821.62 1146.74 906.64"></polygon>
  <path class="cls-2" d="M1192.85,908.05h-46.1a1.42,1.42,0,0,1-1.38-1.1l-19.46-85a1.44,1.44,0,0,1,.27-1.19,1.42,1.42,0,0,1,1.11-.54h85a1.39,1.39,0,0,1,1.1.54,1.41,1.41,0,0,1,.28,1.19l-19.46,85A1.42,1.42,0,0,1,1192.85,908.05Zm-45-2.82h43.86L1210.54,823h-81.48Z"></path>
  <path class="cls-1" d="M1202,862.06h-10.38a9,9,0,0,1-9-8.95h0a9,9,0,0,0-8.94-9h-4.66a9,9,0,0,0-8.94,9h0a9,9,0,0,1-9,8.95h-13.6l-10.3-40.45h85Z"></path>
  <path class="cls-2" d="M1202,863.47h-10.38a10.37,10.37,0,0,1-10.36-10.36,7.54,7.54,0,0,0-7.53-7.54h-4.66a7.54,7.54,0,0,0-7.53,7.54,10.37,10.37,0,0,1-10.36,10.36h-13.6a1.4,1.4,0,0,1-1.36-1.07L1125.92,822a1.42,1.42,0,0,1,.25-1.21,1.44,1.44,0,0,1,1.12-.55h85a1.4,1.4,0,0,1,1.11.55,1.39,1.39,0,0,1,.26,1.21l-10.31,40.44A1.41,1.41,0,0,1,1202,863.47Zm-32.93-20.72h4.66a10.37,10.37,0,0,1,10.35,10.36,7.55,7.55,0,0,0,7.54,7.54h9.28L1210.5,823h-81.4l9.59,37.63h12.5a7.55,7.55,0,0,0,7.54-7.54A10.37,10.37,0,0,1,1169.08,842.75Z"></path>
  <path class="cls-2" d="M1155.39,821.77l-2.81-.31c.06-.53,5.31-52.84-35.74-81.58l1.62-2.31C1160.9,767.28,1155.45,821.23,1155.39,821.77Z"></path>
  <path class="cls-4" d="M1136.82,787s-10.2-37.95-44.9-11.09C1091.92,775.94,1108.63,807.67,1136.82,787Z"></path>
  <path class="cls-2" d="M1118.23,795.42a24.73,24.73,0,0,1-5.55-.63c-14-3.23-21.69-17.58-22-18.19a1.4,1.4,0,0,1,.39-1.77c11.29-8.75,21.33-11.73,29.83-8.86,12.75,4.29,17.11,20,17.29,20.7a1.41,1.41,0,0,1-.53,1.5C1131.06,793,1124.55,795.42,1118.23,795.42Zm-24.47-19.11c2,3.25,8.9,13.28,19.57,15.73,7,1.6,14.29-.27,21.84-5.56-1.11-3.31-5.53-14.6-15.19-17.84C1112.66,766.18,1103.85,768.76,1093.76,776.31Z"></path>
  <path class="cls-4" d="M1202.44,796.36s31.22,11,29.1-25.9C1231.54,770.46,1201.53,767,1202.44,796.36Z"></path>
  <path class="cls-2" d="M1212.14,799.32a33.18,33.18,0,0,1-10.17-1.63,1.4,1.4,0,0,1-.94-1.28c-.28-9,2.2-15.93,7.37-20.67,9-8.25,22.73-6.75,23.31-6.68a1.41,1.41,0,0,1,1.24,1.32c.69,12.09-2,20.55-8.16,25.14A20.76,20.76,0,0,1,1212.14,799.32Zm-8.31-4c3,.84,12.62,3,19.28-2,5.1-3.84,7.48-11.06,7.08-21.48-3.39-.15-13.3,0-19.89,6.05C1206,781.82,1203.78,787.7,1203.83,795.31Z"></path>
  <path class="cls-4" d="M1222.87,738h15.85a0,0,0,0,1,0,0v0a21.87,21.87,0,0,1-21.87,21.87H1201a0,0,0,0,1,0,0v0A21.87,21.87,0,0,1,1222.87,738Z" transform="translate(2508.21 1372.65) rotate(174.29)"></path>
  <path class="cls-2" d="M1202.19,763.06a1.4,1.4,0,0,1-1.4-1.27,23.26,23.26,0,0,1,20.84-25.48l15.77-1.57a1.4,1.4,0,0,1,1.54,1.26,23.26,23.26,0,0,1-20.84,25.47l-15.77,1.58Zm34-25.37-14.32,1.43a20.47,20.47,0,0,0-18.41,21l14.32-1.43a20.47,20.47,0,0,0,18.41-21Z"></path>
  <path class="cls-4" d="M1195.94,724.39s22.23-6.75,19-35.72C1215,688.67,1180.34,690.28,1195.94,724.39Z"></path>
  <path class="cls-2" d="M1195.94,725.8a1.4,1.4,0,0,1-1.28-.82c-5-11-5.51-19.91-1.45-26.56,6.3-10.33,21.09-11.13,21.72-11.16a1.42,1.42,0,0,1,1.46,1.25c3.27,29.8-19.81,37.16-20,37.23A1.51,1.51,0,0,1,1195.94,725.8Zm17.78-35.6c-3.61.45-13.62,2.32-18.11,9.7-3.39,5.57-3,13.21,1.08,22.72C1201,720.83,1215.63,713.09,1213.72,690.2Z"></path>
  <path class="cls-4" d="M1164.39,738.72s18.82-40.88-13.73-57.16C1150.66,681.56,1128.8,715.16,1164.39,738.72Z"></path>
  <path class="cls-2" d="M1164.39,740.13a1.42,1.42,0,0,1-.78-.23c-36.34-24.06-14.36-58.76-14.13-59.11a1.41,1.41,0,0,1,1.81-.49c33.38,16.69,14.57,58.59,14.38,59a1.41,1.41,0,0,1-.9.77A1.28,1.28,0,0,1,1164.39,740.13Zm-13.21-56.71c-3.32,5.82-16.46,32.83,12.57,53.16a68,68,0,0,0,4.57-20.48C1169.09,701,1163.32,690,1151.18,683.42Z"></path>
  <path class="cls-2" d="M1166.21,821.72l-2.81-.22c0-.63,4.42-64.07-37.25-120.91l2.27-1.66C1170.74,756.64,1166.26,821.08,1166.21,821.72Z"></path>
  <path class="cls-2" d="M1171.1,822.15l-2.61-1.07,0,.09c.79-3.21,1.17-72.22-9.75-103.85l2.66-.92C1172.52,748.68,1172.33,819.15,1171.1,822.15Z"></path>
  <path class="cls-2" d="M1161.45,821.66l-2.82-.09c0-.16.34-15.88-10.16-26.9-6.67-7-16.27-10.67-28.55-10.91l.06-2.82c13.06.25,23.35,4.22,30.56,11.81C1161.84,804.63,1161.47,821,1161.45,821.66Z"></path>
  <path class="cls-2" d="M1177.9,823a1.37,1.37,0,0,1-1.4-1.45c0-.57,2.36-56.44,39.94-74l1.19,2.55c-30,14-36.59,53.91-38,67.16,5.92-6.84,20.16-22.21,35-30.26l1.35,2.47c-18.5,10.07-36.79,32.73-37,33A1.4,1.4,0,0,1,1177.9,823Z"></path>
  <path class="cls-2" d="M1172.53,821.69a142.89,142.89,0,0,1,5.86-43.48c6.38-21.34,21-49.54,54.58-62.67l1,2.63c-32.45,12.7-46.66,40.06-52.87,60.77a140.07,140.07,0,0,0-5.78,42.6Z"></path>
  <path class="cls-2" d="M1172.88,819.59c-.57-.56-1.21-1.19-.63-21.55.38-13,1.17-29.43,2.19-45.06,1.62-24.82,5.14-68.57,10.51-82.76l2.64,1c-3.77,9.95-7.5,39.21-10.22,80.26-2.33,35.14-3,64.12-2.24,66.5a1.09,1.09,0,0,0-.27-.4Z"></path>
  <path class="cls-4" d="M1162.91,789.47s15.78-27.73-19.59-32C1143.32,757.44,1134.85,785.3,1162.91,789.47Z"></path>
  <path class="cls-2" d="M1162.91,790.88h-.21c-8.57-1.28-14.75-4.83-18.38-10.56-6.29-9.95-2.51-22.74-2.35-23.28a1.41,1.41,0,0,1,1.52-1c11.6,1.41,19.17,5.47,22.49,12.06,5,9.88-1.56,21.57-1.84,22.07A1.44,1.44,0,0,1,1162.91,790.88ZM1144.38,759c-.73,3.22-2.26,12.58,2.34,19.82,3,4.78,8.21,7.83,15.4,9.1,1.32-2.74,4.93-11.44,1.33-18.57C1160.69,763.89,1154.28,760.41,1144.38,759Z"></path>
  <path class="cls-4" d="M1178.7,787.86s31.55,4.76,22.86-29.79C1201.56,758.07,1172.52,760.18,1178.7,787.86Z"></path>
  <path class="cls-2" d="M1182.45,789.5a29,29,0,0,1-4-.24,1.42,1.42,0,0,1-1.16-1.09c-1.89-8.46-.8-15.5,3.24-20.94,7-9.46,20.33-10.53,20.89-10.57a1.41,1.41,0,0,1,1.47,1.06c2.85,11.34,1.78,19.86-3.18,25.33S1187.09,789.5,1182.45,789.5Zm-2.58-2.93c3,.25,12.45.48,17.8-5.43,4.11-4.54,5.06-11.77,2.81-21.52-3.27.48-12.55,2.42-17.65,9.3C1179.46,773.47,1178.46,779.4,1179.87,786.57Z"></path>
  <path class="cls-4" d="M1176.42,759.33s34.5-2.6,16.95-37C1193.37,722.31,1163.18,731.56,1176.42,759.33Z"></path>
  <path class="cls-2" d="M1176.42,760.74a1.43,1.43,0,0,1-1.28-.8c-4-8.45-4.58-16.13-1.63-22.83,5.12-11.64,18.87-16,19.45-16.15a1.4,1.4,0,0,1,1.67.71c5.74,11.25,6.67,20.48,2.77,27.42-5.85,10.4-20.27,11.6-20.88,11.65Zm16.25-36.69c-3.27,1.26-12.79,5.57-16.59,14.21-2.48,5.67-2.09,12.25,1.19,19.55,3.17-.45,13.38-2.45,17.68-10.11C1198.23,741.85,1197.46,733.9,1192.67,724.05Z"></path>
  <path class="cls-4" d="M1162.91,789.47s-4-11.4-6-13.94"></path>
  <path class="cls-2" d="M1161.58,789.94c-1.1-3.11-4.28-11.61-5.78-13.54l2.22-1.74c2.06,2.64,5.8,13.15,6.22,14.34Z"></path>
  <path class="cls-4" d="M1178.7,787.86s9.94-10.85,11.46-12.06"></path>
  <path class="cls-2" d="M1179.74,788.82l-2.08-1.91c1-1.12,10.06-11,11.62-12.21l1.76,2.2C1190,777.74,1183.71,784.49,1179.74,788.82Z"></path>
  <path class="cls-4" d="M1189,741.62s-12,14.69-12.57,17.71"></path>
  <path class="cls-2" d="M1177.8,759.59l-2.77-.52c.61-3.21,10.83-15.84,12.87-18.34l2.18,1.79C1184.3,749.6,1178.12,757.92,1177.8,759.59Z"></path>
  <polygon class="cls-1" points="171.92 852.57 111.18 852.57 122.73 910.47 160.38 910.47 171.92 852.57"></polygon>
  <path class="cls-2" d="M161.53,911.88h-40l-12.11-60.72h64.18Zm-37.65-2.82h35.34l11-55.08H112.9Z"></path>
  <path class="cls-4" d="M159.7,852.48c5.51,0,10-5.06,11.13-10.45s-.43-11-2.42-16.1c-1.16-3-2.5-6-2.64-9.24s1-6.5,1.4-9.77a23.59,23.59,0,0,0-1.18-11c-1.7-4.74-4.91-8.9-6-13.81-1-4.43-.26-9.07-.59-13.61a7.39,7.39,0,0,0-1.1-3.81,6.12,6.12,0,0,0-2.85-2,13.51,13.51,0,0,0-11.35,1.14,19.78,19.78,0,0,0-7.75,8.66c-2,4.11-3,8.85-6,12.28-2.79,3.15-7.14,5-9.05,8.71a14.69,14.69,0,0,0-1.18,6.9c.1,6.68,1.39,13.7-1.31,19.81-1.75,4-5.78,6.77-7,10.92-.06.19-.11.38-.16.57a16.51,16.51,0,0,0,16,20.86Z"></path>
  <path class="cls-2" d="M127.51,854a17.91,17.91,0,0,1-14.36-7.12,17.63,17.63,0,0,1-3-15.53c0-.2.11-.4.17-.59a19.36,19.36,0,0,1,4-6.48,21.3,21.3,0,0,0,3.13-4.6c1.94-4.4,1.67-9.32,1.39-14.52-.09-1.55-.18-3.14-.2-4.71a16.14,16.14,0,0,1,1.33-7.56c1.29-2.55,3.49-4.23,5.62-5.85a25.74,25.74,0,0,0,3.64-3.16c1.86-2.1,2.9-4.78,4-7.62.55-1.44,1.13-2.92,1.82-4.34a21.18,21.18,0,0,1,8.32-9.27,14.94,14.94,0,0,1,12.56-1.23,7.56,7.56,0,0,1,3.48,2.47,8.57,8.57,0,0,1,1.36,4.53c.14,1.8.1,3.6.07,5.35a24.41,24.41,0,0,0,3.71,15.72,48,48,0,0,1,2.78,6,25.13,25.13,0,0,1,1.25,11.66c-.16,1.2-.41,2.39-.65,3.55a17.9,17.9,0,0,0,1.39,13.7l.42,1.06c1.81,4.68,3.73,10.83,2.48,16.89-1.16,5.59-5.93,11.54-12.5,11.58h0l-32.14.09Zm23.6-90.63a13,13,0,0,0-6.36,1.73,18.64,18.64,0,0,0-7.18,8.06c-.64,1.31-1.19,2.73-1.72,4.12-1.14,2.94-2.32,6-4.52,8.47a28.55,28.55,0,0,1-4,3.53c-2,1.5-3.81,2.91-4.81,4.88a13.57,13.57,0,0,0-1,6.25c0,1.51.11,3.08.19,4.59.29,5.31.59,10.8-1.62,15.81A23.75,23.75,0,0,1,116.5,826a16.88,16.88,0,0,0-3.46,5.51l-.16.54a14.8,14.8,0,0,0,2.52,13.06,15.11,15.11,0,0,0,12.11,6h0l32.14-.09c4.9,0,8.8-4.77,9.75-9.33,1.1-5.34-.68-11-2.35-15.3l-.41-1.05a26.66,26.66,0,0,1-2.33-8.64,26.26,26.26,0,0,1,.8-6.67c.24-1.15.46-2.24.61-3.34a22.17,22.17,0,0,0-1.1-10.34,45.87,45.87,0,0,0-2.63-5.63,27.18,27.18,0,0,1-4-17.07c0-1.68.07-3.42-.06-5.09a6.21,6.21,0,0,0-.83-3.08,4.74,4.74,0,0,0-2.21-1.49A10.54,10.54,0,0,0,151.11,763.35Z"></path>
  <path class="cls-4" d="M141.42,852.57a118.79,118.79,0,0,1,4-54.92"></path>
  <path class="cls-2" d="M140,852.86a121.28,121.28,0,0,1,4.08-55.64l2.68.87a118.11,118.11,0,0,0-4,54.2Z"></path>
</svg>
