<?xml version="1.0" encoding="UTF-8"?>
<svg xmlns="http://www.w3.org/2000/svg" id="Layer_1" data-name="Layer 1" viewBox="0 0 1570 1080">
  <defs>
    <style>.cls-1,.cls-8{fill:#00ab81;}.cls-2,.cls-3{fill:#ffde00;}.cls-2,.cls-4,.cls-8{fill-rule:evenodd;}.cls-4,.cls-7{fill:#fb715d;}.cls-5{fill:#1c19a8;}.cls-6{fill:#fff;}</style>
  </defs>
  <rect class="cls-1" x="-28" y="-19.27" width="1625" height="1118.55"></rect>
  <path class="cls-2" d="M250.81,674a1.07,1.07,0,0,0-.78,1.13v5.54a1,1,0,0,0,.88,1.12h.23a3.82,3.82,0,0,1-.78,1.51,13.45,13.45,0,0,1-2.37,2.07,11.82,11.82,0,0,0-2.75,2.58,8,8,0,0,0-1.45,4.64v25.89c0,2.69,1.72,4.91,3.82,4.91H268c2.1,0,3.82-2.22,3.82-4.91V692.67h0a8,8,0,0,0-1.43-4.63,12.26,12.26,0,0,0-2.75-2.62,13,13,0,0,1-2.35-2.08,3.82,3.82,0,0,1-.77-1.53h.29a1,1,0,0,0,.88-1.12l0-5.53a1.34,1.34,0,0,0-.25-.8.79.79,0,0,0-.63-.34h-14Z"></path>
  <rect class="cls-3" x="163.32" y="580.17" width="29.33" height="33"></rect>
  <rect class="cls-3" x="208.62" y="580.17" width="29.33" height="33"></rect>
  <rect class="cls-3" x="199.72" y="784.17" width="29.33" height="33"></rect>
  <rect class="cls-3" x="262.31" y="784.17" width="29.33" height="33"></rect>
  <path class="cls-2" d="M171.72,674a1.07,1.07,0,0,0-.78,1.13v5.54a1,1,0,0,0,.88,1.12h.23a3.82,3.82,0,0,1-.78,1.51,13.45,13.45,0,0,1-2.37,2.07,12,12,0,0,0-2.75,2.58,8,8,0,0,0-1.45,4.64v25.89c0,2.69,1.72,4.91,3.82,4.91h20.39c2.1,0,3.82-2.22,3.82-4.91V692.67h0a8,8,0,0,0-1.42-4.63,12.5,12.5,0,0,0-2.76-2.62,13.29,13.29,0,0,1-2.35-2.08,3.82,3.82,0,0,1-.77-1.53h.29a1,1,0,0,0,.88-1.12l0-5.53a1.34,1.34,0,0,0-.25-.8.79.79,0,0,0-.63-.34h-14Z"></path>
  <path class="cls-4" d="M247.61,723.4c-2.09,0-3.82-2.22-3.82-4.91V692.6a8.12,8.12,0,0,1,1.45-4.64,12.05,12.05,0,0,1,2.76-2.58,13.36,13.36,0,0,0,2.36-2.07,3.7,3.7,0,0,0,.78-1.51h-.23a1,1,0,0,1-.88-1.12v-5.54a1.08,1.08,0,0,1,.78-1.13h10.76v-.41a14.54,14.54,0,0,0-2.59-8.44,22.6,22.6,0,0,0-5-4.77,24.16,24.16,0,0,1-4.29-3.81,6.84,6.84,0,0,1-1.4-2.78h.52a1.87,1.87,0,0,0,1.6-2l.08-10.08a2.42,2.42,0,0,0-.46-1.46,1.43,1.43,0,0,0-1.14-.62H223.25a1.94,1.94,0,0,0-1.42,2v10.11a1.86,1.86,0,0,0,1.6,2h.42a7,7,0,0,1-1.42,2.75,24.25,24.25,0,0,1-4.32,3.77,22,22,0,0,0-5,4.71,14.82,14.82,0,0,0-2.65,8.47v47.22c0,4.92,3.15,9,7,9h37.2c3.09,0,5.63-2.68,6.54-6.28Z"></path>
  <path class="cls-5" d="M268,726.06H247.61c-3.58,0-6.49-3.39-6.49-7.57V692.62a10.69,10.69,0,0,1,2-6.23,14.39,14.39,0,0,1,3.31-3.15c.45-.33.91-.68,1.28-1a3.82,3.82,0,0,1-.32-1.56v-5.53a3.69,3.69,0,0,1,3.07-3.77,2.42,2.42,0,0,1,.38,0h14a3.44,3.44,0,0,1,2.73,1.37,4,4,0,0,1,.82,2.43l0,5.55a3.74,3.74,0,0,1-.33,1.57,14.91,14.91,0,0,0,1.24,1,15.09,15.09,0,0,1,3.3,3.17,10.78,10.78,0,0,1,1.92,6.17v25.86C274.48,722.67,271.57,726.06,268,726.06Zm-15.3-46.33a2.44,2.44,0,0,1,.42.43,2.73,2.73,0,0,1,.61,2.28,6.41,6.41,0,0,1-1.29,2.53,15.29,15.29,0,0,1-2.85,2.54,9.72,9.72,0,0,0-2.19,2,5.41,5.41,0,0,0-.94,3.14v25.83c0,1.37.75,2.24,1.15,2.24H268c.39,0,1.15-.87,1.15-2.24V692.68a5.47,5.47,0,0,0-.92-3.11,10.25,10.25,0,0,0-2.2-2A14.92,14.92,0,0,1,263.2,685a6.32,6.32,0,0,1-1.27-2.57,2.68,2.68,0,0,1,.5-2.27,2.6,2.6,0,0,1,.6-.55l0-2.91H252.7Zm10.32.92v0Zm-12.11-1.52Z"></path>
  <path class="cls-5" d="M254.6,732.35H217.41c-5.31,0-9.63-5.21-9.63-11.63V673.54a17.57,17.57,0,0,1,3.15-10.08,24.07,24.07,0,0,1,5.58-5.27,23,23,0,0,0,3.8-3.27,4.8,4.8,0,0,1-1.15-3.17V641.64a4.56,4.56,0,0,1,3.73-4.68,3.81,3.81,0,0,1,.83,0h25.15a4.1,4.1,0,0,1,3.25,1.65,5.05,5.05,0,0,1,1,3.13l-.08,10.06a5,5,0,0,1-1.2,3.27,23.06,23.06,0,0,0,3.58,3.12,25.54,25.54,0,0,1,5.71,5.44,17.24,17.24,0,0,1,3.1,10,3.2,3.2,0,0,1-.77,2.12,2.88,2.88,0,0,1-1.9,1H252.7v3.05a2.91,2.91,0,0,1,.43.43,2.69,2.69,0,0,1,.6,2.28,6.39,6.39,0,0,1-1.28,2.53,15.17,15.17,0,0,1-2.86,2.55,10,10,0,0,0-2.19,2,5.45,5.45,0,0,0-.94,3.14v25.83c0,1.37.75,2.24,1.15,2.24h13.54a2.65,2.65,0,0,1,2.09,1,2.69,2.69,0,0,1,.5,2.29C262.49,729,258.82,732.35,254.6,732.35Zm-30.11-81a2.77,2.77,0,0,1,1.25.84,2.8,2.8,0,0,1,.7,2.29,9.38,9.38,0,0,1-1.93,3.76,26.59,26.59,0,0,1-4.8,4.25,19.71,19.71,0,0,0-4.46,4.13,12,12,0,0,0-2.14,7v47.17c0,3.36,2,6.3,4.3,6.3H254.6a3.16,3.16,0,0,0,2.15-1h-9.14c-3.58,0-6.48-3.39-6.48-7.57V692.62a10.82,10.82,0,0,1,2-6.23,14.94,14.94,0,0,1,3.31-3.15,15.38,15.38,0,0,0,1.3-1,3.82,3.82,0,0,1-.32-1.56v-5.53a3.71,3.71,0,0,1,3.07-3.77l8.24,0a11.06,11.06,0,0,0-1.86-4.64,20.59,20.59,0,0,0-4.48-4.2,26,26,0,0,1-4.77-4.29,9.52,9.52,0,0,1-1.9-3.82,2.66,2.66,0,0,1,2.06-3.21l.06-8.93h-23.3Zm26.42,27.81h0Zm1.79-4v0Z"></path>
  <rect class="cls-5" x="141.42" y="815.54" width="161.76" height="10.87"></rect>
  <path class="cls-5" d="M305.88,829.1H138.72V812.84H305.88Zm-161.77-5.39H300.49v-5.48H144.11Z"></path>
  <rect class="cls-5" x="141.42" y="611.39" width="161.76" height="10.87"></rect>
  <path class="cls-5" d="M305.88,625H138.72V608.69H305.88Zm-161.77-5.39H300.49v-5.48H144.11Z"></path>
  <rect class="cls-5" x="141.42" y="513.06" width="161.76" height="10.87"></rect>
  <path class="cls-5" d="M305.88,526.63H138.72V510.37H305.88Zm-161.77-5.39H300.49v-5.48H144.11Z"></path>
  <path class="cls-5" d="M195.34,615.86H160.62V577.48h34.72ZM166,610.47H190v-27.6H166Z"></path>
  <path class="cls-5" d="M240.65,615.86H205.92V577.48h34.73Zm-29.34-5.39h23.95v-27.6H211.31Z"></path>
  <path class="cls-5" d="M231.75,819.86H197V781.47h34.73Zm-29.34-5.39h23.94V786.86H202.41Z"></path>
  <path class="cls-5" d="M294.34,819.86H259.62V781.47h34.72ZM265,814.47H289V786.86H265Z"></path>
  <path class="cls-5" d="M188.91,726.06H168.52c-3.57,0-6.48-3.39-6.48-7.57V692.62a10.82,10.82,0,0,1,2-6.23,14.94,14.94,0,0,1,3.31-3.15c.42-.31.9-.66,1.29-1a4,4,0,0,1-.31-1.56v-5.53a3.69,3.69,0,0,1,3.07-3.77,2.36,2.36,0,0,1,.37,0h14.05a3.46,3.46,0,0,1,2.73,1.37,4,4,0,0,1,.8,2.49l0,5.48a4,4,0,0,1-.33,1.59,11.6,11.6,0,0,0,1.15,1,15.45,15.45,0,0,1,3.38,3.23,10.88,10.88,0,0,1,1.93,6.16v25.87C195.4,722.67,192.48,726.06,188.91,726.06Zm-15.3-46.33a2.91,2.91,0,0,1,.43.43,2.72,2.72,0,0,1,.6,2.28,6.52,6.52,0,0,1-1.28,2.53,16,16,0,0,1-2.87,2.55,10,10,0,0,0-2.18,2,5.45,5.45,0,0,0-.94,3.14v25.83c0,1.37.76,2.24,1.15,2.24h20.39c.39,0,1.15-.87,1.15-2.24V692.68a5.42,5.42,0,0,0-.93-3.11,9.83,9.83,0,0,0-2.19-2A14.74,14.74,0,0,1,184.1,685a6.42,6.42,0,0,1-1.27-2.58,2.7,2.7,0,0,1,1.11-2.79l0-2.91H173.61Zm10.32.93h0Zm-12.11-1.53h0Zm12.15-4v0Zm-10.36,0v0Z"></path>
  <rect class="cls-5" x="141.42" y="723.4" width="161.76" height="10.87"></rect>
  <path class="cls-5" d="M305.88,737H138.72V720.7H305.88Zm-161.77-5.39H300.49v-5.48H144.11Z"></path>
  <rect class="cls-5" x="137.31" y="510.37" width="2.82" height="405.77"></rect>
  <rect class="cls-5" x="304.47" y="510.37" width="2.82" height="405.77"></rect>
  <rect class="cls-3" x="296.01" y="225.47" width="1008" height="690.2"></rect>
  <path class="cls-5" d="M1305.42,917.08H294.6v-693H1305.42Zm-1008-2.82H1302.6V226.88H297.42Z"></path>
  <rect class="cls-5" x="296.01" y="274.2" width="1008" height="2.82"></rect>
  <rect class="cls-3" x="386.31" y="239.47" width="21" height="21" rx="10.5"></rect>
  <path class="cls-5" d="M396.81,261.88A11.91,11.91,0,1,1,408.72,250,11.93,11.93,0,0,1,396.81,261.88Zm0-21A9.09,9.09,0,1,0,405.9,250,9.1,9.1,0,0,0,396.81,240.88Z"></path>
  <rect class="cls-3" x="349.91" y="240.17" width="21" height="21" rx="10.5"></rect>
  <path class="cls-5" d="M360.41,262.58a11.91,11.91,0,1,1,11.91-11.91A11.93,11.93,0,0,1,360.41,262.58Zm0-21a9.09,9.09,0,1,0,9.09,9.09A9.1,9.1,0,0,0,360.41,241.58Z"></path>
  <rect class="cls-3" x="313.51" y="240.87" width="21" height="21" rx="10.5"></rect>
  <path class="cls-5" d="M324,263.28a11.91,11.91,0,1,1,11.91-11.91A11.93,11.93,0,0,1,324,263.28Zm0-21a9.09,9.09,0,1,0,9.09,9.09A9.1,9.1,0,0,0,324,242.28Z"></path>
  <path class="cls-5" d="M505.37,528.34h59v21.84H511.08v7.62h52.08v18.26H511.08v8.84h53.31v21.84h-59Z"></path>
  <path class="cls-5" d="M570.22,567.54c0-25.2,13.77-40.88,39.64-40.88,16.92,0,33.72,10.42,33.72,28H639c0-4.81-13-6.16-31.36-6.16-30.24,0-32.81,10.42-32.81,19s2.57,19,32.81,19c19.27,0,31.59-3.13,31.59-7.39h4.59c0,18.26-16.58,29.23-33.94,29.23C584,608.42,570.22,592.74,570.22,567.54Z"></path>
  <path class="cls-5" d="M647.27,567.54c0-25.2,13.78-40.88,37.41-40.88S722,542.34,722,567.54s-13.78,40.88-37.3,40.88S647.27,592.74,647.27,567.54Zm70.11,0c0-8.62-6.94-19.48-32.7-19.48s-32.82,10.86-32.82,19.48S658.92,587,684.68,587,717.38,576.17,717.38,567.54Z"></path>
  <path class="cls-5" d="M809.45,577.51l11,29.23h-20.6l-10.2-26.65H763.75v26.65H758v-78.4H793c13.11,0,30.47,3.14,30.47,25.65C823.45,567.66,817.18,574.37,809.45,577.51Zm-45.7-18.14h26.88c24.75,0,29.35,0,29.35-5.38s-5.94-4.93-29.35-4.93H763.75Z"></path>
  <path class="cls-5" d="M831.18,528.34h59v21.84H836.89v7.62H889v18.26H836.89v8.84H890.2v21.84h-59Z"></path>
  <path class="cls-5" d="M899.05,528.34h59v21.84H904.76v7.62h52.08v18.26H904.76v30.68h-5.71Z"></path>
  <path class="cls-5" d="M965.57,528.34h5.72v78.4h-5.72Z"></path>
  <path class="cls-5" d="M981.81,528.34h5.71V584.9h52.2v21.84H981.81Z"></path>
  <path class="cls-5" d="M1045.32,528.34H1051V584.9h52.19v21.84h-57.9Z"></path>
  <path class="cls-6" d="M907,425.05,863.93,399.8a3.47,3.47,0,0,0-3.92.12,3.7,3.7,0,0,0-1.52,3.63l8.72,49.23a3.76,3.76,0,0,0,2.7,3,3.82,3.82,0,0,0,3.8-1.36L881,445l9.5,13.73a3.35,3.35,0,0,0,2.38,1.47,4.18,4.18,0,0,0,1,.08,4,4,0,0,0,1.73-.62l8-5.54a3.66,3.66,0,0,0,.92-5.1l-9.49-13.73,11.18-3.61a3.71,3.71,0,0,0,2.55-3.11A3.62,3.62,0,0,0,907,425.05Z"></path>
  <path class="cls-5" d="M893.68,461.67a6.49,6.49,0,0,1-.84-.08l-.16,0a4.72,4.72,0,0,1-3.36-2.11L881,447.36l-6.12,7.88a5,5,0,0,1-9-2.24l-8.71-49.2a5.1,5.1,0,0,1,2.09-5,4.94,4.94,0,0,1,5.49-.17l43.06,25.22a5.05,5.05,0,0,1,2.48,4.86,5.19,5.19,0,0,1-3.57,4.33l-9.33,3,8.41,12.17a5,5,0,0,1,.83,3.8,5,5,0,0,1-2.11,3.26l-8,5.54a5.55,5.55,0,0,1-2.39.86ZM881,443.56h0a1.42,1.42,0,0,1,1.12.61l9.5,13.73a2,2,0,0,0,1.46.88l.16,0a1.74,1.74,0,0,0,.46,0,2.67,2.67,0,0,0,1.11-.4l8-5.51a2.17,2.17,0,0,0,.93-1.44,2.24,2.24,0,0,0-.37-1.7l-9.49-13.72a1.41,1.41,0,0,1,.72-2.15l11.19-3.61a2.34,2.34,0,0,0,1.59-2,2.24,2.24,0,0,0-1.07-2.05l0,0L863.22,401a2.11,2.11,0,0,0-2.39.06,2.3,2.3,0,0,0-1,2.26l8.71,49.2a2.23,2.23,0,0,0,4,1l7.28-9.37A1.4,1.4,0,0,1,881,443.56Z"></path>
  <rect class="cls-3" x="1238.78" y="780.5" width="131.81" height="27.07"></rect>
  <path class="cls-5" d="M1370.59,809H1238.78a1.41,1.41,0,0,1-1.41-1.41V780.5a1.41,1.41,0,0,1,1.41-1.41h131.81a1.41,1.41,0,0,1,1.41,1.41v27.07A1.41,1.41,0,0,1,1370.59,809Zm-130.4-2.82h129V781.91h-129Z"></path>
  <rect class="cls-3" x="1238.78" y="807.57" width="131.81" height="27.07"></rect>
  <path class="cls-5" d="M1370.59,836.05H1238.78a1.41,1.41,0,0,1-1.41-1.41V807.57a1.41,1.41,0,0,1,1.41-1.41h131.81a1.41,1.41,0,0,1,1.41,1.41v27.07A1.41,1.41,0,0,1,1370.59,836.05Zm-130.4-2.82h129V809h-129Z"></path>
  <rect class="cls-3" x="1238.78" y="834.64" width="131.81" height="27.07"></rect>
  <path class="cls-5" d="M1370.59,863.12H1238.78a1.41,1.41,0,0,1-1.41-1.41V834.64a1.41,1.41,0,0,1,1.41-1.41h131.81a1.41,1.41,0,0,1,1.41,1.41v27.07A1.41,1.41,0,0,1,1370.59,863.12Zm-130.4-2.82h129V836.05h-129Z"></path>
  <rect class="cls-3" x="1238.78" y="861.71" width="131.81" height="27.07"></rect>
  <path class="cls-5" d="M1370.59,890.19H1238.78a1.41,1.41,0,0,1-1.41-1.41V861.71a1.41,1.41,0,0,1,1.41-1.41h131.81a1.41,1.41,0,0,1,1.41,1.41v27.07A1.41,1.41,0,0,1,1370.59,890.19Zm-130.4-2.82h129V863.12h-129Z"></path>
  <rect class="cls-3" x="1238.78" y="888.78" width="131.81" height="27.07"></rect>
  <path class="cls-5" d="M1370.59,917.26H1238.78a1.41,1.41,0,0,1-1.41-1.41V888.78a1.41,1.41,0,0,1,1.41-1.41h131.81a1.41,1.41,0,0,1,1.41,1.41v27.07A1.41,1.41,0,0,1,1370.59,917.26Zm-130.4-2.82h129V890.19h-129Z"></path>
  <rect class="cls-3" x="1255.62" y="780.5" width="12.76" height="135.34"></rect>
  <path class="cls-5" d="M1268.38,917.26h-12.76a1.42,1.42,0,0,1-1.41-1.41V780.5a1.41,1.41,0,0,1,1.41-1.41h12.76a1.41,1.41,0,0,1,1.41,1.41V915.85A1.41,1.41,0,0,1,1268.38,917.26ZM1257,914.44H1267V781.91H1257Z"></path>
  <rect class="cls-3" x="1344.95" y="780.5" width="12.76" height="135.34"></rect>
  <path class="cls-5" d="M1357.71,917.26H1345a1.42,1.42,0,0,1-1.41-1.41V780.5a1.41,1.41,0,0,1,1.41-1.41h12.76a1.41,1.41,0,0,1,1.41,1.41V915.85A1.41,1.41,0,0,1,1357.71,917.26Zm-11.35-2.82h9.94V781.91h-9.94Z"></path>
  <path class="cls-1" d="M1272.73,660.57h1.07A20.46,20.46,0,0,1,1294.27,681v0a0,0,0,0,1,0,0h-1.07a20.46,20.46,0,0,1-20.46-20.46v0A0,0,0,0,1,1272.73,660.57Z" transform="translate(477.39 -532.34) rotate(28.58)"></path>
  <path class="cls-5" d="M1288.06,686.35a1.35,1.35,0,0,1-.67-.18l-.94-.51A21.87,21.87,0,0,1,1277.7,656a1.42,1.42,0,0,1,1.92-.56l.94.51a21.89,21.89,0,0,1,8.74,29.67A1.42,1.42,0,0,1,1288.06,686.35Zm-8.51-27.74a19,19,0,0,0,7.91,24.39,19.06,19.06,0,0,0-7.91-24.39Z"></path>
  <path class="cls-3" d="M1289.23,679.52s4.2-6.65,10-10"></path>
  <path class="cls-5" d="M1290.42,680.27l-2.38-1.51c.18-.28,4.46-7,10.54-10.45l1.4,2.45C1294.52,673.88,1290.46,680.21,1290.42,680.27Z"></path>
  <path class="cls-1" d="M1331.36,663.42h1.07a0,0,0,0,1,0,0v0A20.46,20.46,0,0,1,1312,683.88h-1.07a0,0,0,0,1,0,0v0A20.46,20.46,0,0,1,1331.36,663.42Z" transform="translate(2738.3 1113.8) rotate(170.25)"></path>
  <path class="cls-5" d="M1312.78,687a1.41,1.41,0,0,1-1.39-1.17,21.88,21.88,0,0,1,17.86-25.26l1-.18a1.42,1.42,0,0,1,1.63,1.15,21.89,21.89,0,0,1-17.85,25.26l-1.06.18A1,1,0,0,1,1312.78,687Zm16.56-23.58A19.08,19.08,0,0,0,1314,683.91,19.08,19.08,0,0,0,1329.34,663.38Z"></path>
  <path class="cls-3" d="M1313.43,680.05s-1.83-7.65-6.29-12.7"></path>
  <path class="cls-5" d="M1312.06,680.37c0-.07-1.81-7.37-6-12.09l2.12-1.86c4.63,5.25,6.52,13,6.6,13.3Z"></path>
  <path class="cls-1" d="M1332.89,681.7H1334a20.46,20.46,0,0,1,20.46,20.46v0a0,0,0,0,1,0,0h-1.07a20.46,20.46,0,0,1-20.46-20.46v0A0,0,0,0,1,1332.89,681.7Z" transform="translate(494.84 -558.54) rotate(28.58)"></path>
  <path class="cls-5" d="M1348.22,707.48a1.45,1.45,0,0,1-.67-.17l-1-.52a21.9,21.9,0,0,1-8.74-29.67,1.43,1.43,0,0,1,1.92-.56l.94.52a21.87,21.87,0,0,1,8.74,29.66A1.42,1.42,0,0,1,1348.22,707.48Zm-8.51-27.74a19.08,19.08,0,0,0,7.91,24.39,19.07,19.07,0,0,0-7.91-24.39Z"></path>
  <circle class="cls-3" cx="1287.86" cy="692.56" r="13.51"></circle>
  <path class="cls-5" d="M1287.86,707.48a14.93,14.93,0,1,1,14.93-14.93A14.94,14.94,0,0,1,1287.86,707.48Zm0-27a12.11,12.11,0,1,0,12.11,12.1A12.12,12.12,0,0,0,1287.86,680.45Z"></path>
  <circle class="cls-3" cx="1313.36" cy="693.88" r="13.51"></circle>
  <path class="cls-5" d="M1313.36,708.81a14.93,14.93,0,1,1,14.92-14.93A15,15,0,0,1,1313.36,708.81Zm0-27a12.11,12.11,0,1,0,12.1,12.1A12.12,12.12,0,0,0,1313.36,681.78Z"></path>
  <circle class="cls-3" cx="1342.1" cy="710.92" r="13.51"></circle>
  <path class="cls-5" d="M1342.1,725.84A14.93,14.93,0,1,1,1357,710.92,14.94,14.94,0,0,1,1342.1,725.84Zm0-27a12.11,12.11,0,1,0,12.1,12.11A12.12,12.12,0,0,0,1342.1,698.81Z"></path>
  <circle class="cls-3" cx="1271.58" cy="712.68" r="13.51"></circle>
  <path class="cls-5" d="M1271.58,727.6a14.93,14.93,0,1,1,14.92-14.92A14.93,14.93,0,0,1,1271.58,727.6Zm0-27a12.11,12.11,0,1,0,12.1,12.11A12.12,12.12,0,0,0,1271.58,700.57Z"></path>
  <circle class="cls-3" cx="1294.33" cy="713.5" r="13.51"></circle>
  <path class="cls-5" d="M1294.33,728.42a14.93,14.93,0,1,1,14.92-14.92A14.94,14.94,0,0,1,1294.33,728.42Zm0-27a12.11,12.11,0,1,0,12.1,12.11A12.12,12.12,0,0,0,1294.33,701.39Z"></path>
  <circle class="cls-3" cx="1321.36" cy="713.5" r="13.51"></circle>
  <path class="cls-5" d="M1321.36,728.42a14.93,14.93,0,1,1,14.92-14.92A14.94,14.94,0,0,1,1321.36,728.42Zm0-27a12.11,12.11,0,1,0,12.1,12.11A12.12,12.12,0,0,0,1321.36,701.39Z"></path>
  <rect class="cls-7" x="1260.83" y="731.63" width="89.89" height="39.7"></rect>
  <path class="cls-5" d="M1350.72,772.74h-89.89a1.41,1.41,0,0,1-1.41-1.41v-39.7a1.41,1.41,0,0,1,1.41-1.41h89.89a1.41,1.41,0,0,1,1.41,1.41v39.7A1.41,1.41,0,0,1,1350.72,772.74Zm-88.48-2.82h87.07V733h-87.07Z"></path>
  <rect class="cls-7" x="1249.92" y="769.32" width="108.75" height="11.18"></rect>
  <path class="cls-5" d="M1358.68,781.91H1249.92a1.41,1.41,0,0,1-1.41-1.41V769.32a1.41,1.41,0,0,1,1.41-1.41h108.76a1.41,1.41,0,0,1,1.41,1.41V780.5A1.41,1.41,0,0,1,1358.68,781.91Zm-107.35-2.82h105.94v-8.36H1251.33Z"></path>
  <rect class="cls-7" x="1249.92" y="720.45" width="108.75" height="11.18"></rect>
  <path class="cls-5" d="M1358.68,733H1249.92a1.41,1.41,0,0,1-1.41-1.41V720.45a1.41,1.41,0,0,1,1.41-1.41h108.76a1.41,1.41,0,0,1,1.41,1.41v11.18A1.41,1.41,0,0,1,1358.68,733Zm-107.35-2.82h105.94v-8.36H1251.33Z"></path>
  <rect class="cls-5" x="1326.38" y="731.63" width="2.82" height="37.69"></rect>
  <rect class="cls-5" x="1302.89" y="731.63" width="2.82" height="37.69"></rect>
  <rect class="cls-5" x="1279.4" y="731.63" width="2.82" height="37.69"></rect>
  <path class="cls-3" d="M1349.39,700.65s4.2-6.64,10-10"></path>
  <path class="cls-5" d="M1350.58,701.4l-2.38-1.51c.18-.28,4.46-7,10.54-10.45l1.4,2.45C1354.68,695,1350.62,701.34,1350.58,701.4Z"></path>
  <rect class="cls-6" x="289.79" y="773.52" width="79.23" height="111.6"></rect>
  <polygon class="cls-1" points="283.86 875.09 283.86 915.75 298.56 915.75 298.56 915.26 315.58 898.61 344.07 898.61 359.88 915.26 359.88 915.75 374.95 915.75 374.95 875.09 283.86 875.09"></polygon>
  <path class="cls-5" d="M375,917.16H359.88a1.41,1.41,0,0,1-1.41-1.34l-15-15.8h-27.3L300,915.86a1.41,1.41,0,0,1-1.41,1.3h-14.7a1.41,1.41,0,0,1-1.41-1.41V875.09a1.41,1.41,0,0,1,1.41-1.41H375a1.41,1.41,0,0,1,1.41,1.41v40.66A1.42,1.42,0,0,1,375,917.16Zm-14-2.82h12.59V876.5H285.27v37.84H297.5l.08-.09,17-16.65a1.44,1.44,0,0,1,1-.4h28.49a1.41,1.41,0,0,1,1,.44l15.81,16.65S360.93,914.32,361,914.34Z"></path>
  <rect class="cls-1" x="283.86" y="783.96" width="11.86" height="91.14"></rect>
  <path class="cls-5" d="M295.72,876.5H283.86a1.41,1.41,0,0,1-1.41-1.41V784a1.41,1.41,0,0,1,1.41-1.41h11.86a1.41,1.41,0,0,1,1.41,1.41v91.13A1.41,1.41,0,0,1,295.72,876.5Zm-10.45-2.82h9V785.37h-9Z"></path>
  <rect class="cls-1" x="363.09" y="783.96" width="11.86" height="91.14"></rect>
  <path class="cls-5" d="M375,876.5H363.09a1.41,1.41,0,0,1-1.41-1.41V784a1.41,1.41,0,0,1,1.41-1.41H375a1.41,1.41,0,0,1,1.41,1.41v91.13A1.41,1.41,0,0,1,375,876.5Zm-10.45-2.82h9V785.37h-9Z"></path>
  <rect class="cls-1" x="283.86" y="753.6" width="91.09" height="30.36"></rect>
  <path class="cls-5" d="M375,785.37H283.86a1.41,1.41,0,0,1-1.41-1.41V753.6a1.41,1.41,0,0,1,1.41-1.41H375a1.41,1.41,0,0,1,1.41,1.41V784A1.41,1.41,0,0,1,375,785.37Zm-89.68-2.82h88.27V755H285.27Z"></path>
  <rect class="cls-1" x="319.31" y="738.34" width="20.18" height="15.26"></rect>
  <path class="cls-5" d="M339.5,755H319.31a1.41,1.41,0,0,1-1.41-1.41V738.34a1.41,1.41,0,0,1,1.41-1.41H339.5a1.41,1.41,0,0,1,1.41,1.41V753.6A1.41,1.41,0,0,1,339.5,755Zm-18.78-2.82h17.36V739.75H320.72Z"></path>
  <rect class="cls-1" x="301.88" y="722.59" width="55.04" height="15.74"></rect>
  <path class="cls-5" d="M356.92,739.75h-55a1.41,1.41,0,0,1-1.41-1.41V722.59a1.41,1.41,0,0,1,1.41-1.41h55a1.41,1.41,0,0,1,1.41,1.41v15.75A1.41,1.41,0,0,1,356.92,739.75Zm-53.63-2.82h52.22V724H303.29Z"></path>
  <rect class="cls-1" x="308.38" y="680.56" width="42.14" height="42.14"></rect>
  <path class="cls-5" d="M350.52,724.12H308.38a1.41,1.41,0,0,1-1.41-1.41V680.56a1.41,1.41,0,0,1,1.41-1.41h42.14a1.41,1.41,0,0,1,1.41,1.41v42.15A1.41,1.41,0,0,1,350.52,724.12Zm-40.73-2.82h39.32V682H309.79Z"></path>
  <rect class="cls-7" x="316.17" y="664.18" width="26.47" height="5.25"></rect>
  <path class="cls-5" d="M342.64,670.85H316.17a1.41,1.41,0,0,1-1.41-1.41v-5.26a1.41,1.41,0,0,1,1.41-1.41h26.47a1.41,1.41,0,0,1,1.41,1.41v5.26A1.41,1.41,0,0,1,342.64,670.85ZM317.58,668h23.65v-2.44H317.58Z"></path>
  <rect class="cls-5" x="327.99" y="669.44" width="2.82" height="11.13"></rect>
  <rect class="cls-6" x="308.38" y="809.09" width="42.06" height="31.97"></rect>
  <path class="cls-5" d="M350.43,842.47H308.38a1.41,1.41,0,0,1-1.41-1.41v-32a1.41,1.41,0,0,1,1.41-1.41h42.05a1.41,1.41,0,0,1,1.41,1.41v32A1.41,1.41,0,0,1,350.43,842.47Zm-40.64-2.82H349V810.5H309.79Z"></path>
  <circle class="cls-5" cx="329.4" cy="699.02" r="4.91"></circle>
  <path class="cls-5" d="M329.4,705.33a6.32,6.32,0,1,1,6.32-6.31A6.32,6.32,0,0,1,329.4,705.33Zm0-9.81a3.5,3.5,0,1,0,3.5,3.5A3.5,3.5,0,0,0,329.4,695.52Z"></path>
  <rect class="cls-5" x="314.65" y="697.61" width="14.76" height="2.82"></rect>
  <rect class="cls-6" x="395.78" y="773.23" width="79.39" height="111.83"></rect>
  <polygon class="cls-1" points="389.84 875.01 389.84 915.75 404.57 915.75 404.57 915.26 421.63 898.58 450.17 898.58 466.01 915.26 466.01 915.75 481.12 915.75 481.12 875.01 389.84 875.01"></polygon>
  <path class="cls-5" d="M481.12,917.16H466a1.41,1.41,0,0,1-1.4-1.34l-15-15.83H422.21L406,915.85a1.41,1.41,0,0,1-1.4,1.31H389.84a1.41,1.41,0,0,1-1.41-1.41V875a1.41,1.41,0,0,1,1.41-1.41h91.28a1.41,1.41,0,0,1,1.41,1.41v40.74A1.42,1.42,0,0,1,481.12,917.16Zm-14-2.82h12.63V876.42H391.25v37.92h12.26l.08-.09,17.05-16.68a1.42,1.42,0,0,1,1-.4h28.54a1.43,1.43,0,0,1,1,.44L467,914.29Z"></path>
  <rect class="cls-1" x="389.84" y="783.69" width="11.88" height="91.32"></rect>
  <path class="cls-5" d="M401.72,876.42H389.84a1.41,1.41,0,0,1-1.41-1.41V783.69a1.41,1.41,0,0,1,1.41-1.41h11.88a1.41,1.41,0,0,1,1.41,1.41V875A1.41,1.41,0,0,1,401.72,876.42Zm-10.47-2.82h9.06V785.1h-9.06Z"></path>
  <rect class="cls-1" x="469.23" y="783.69" width="11.88" height="91.32"></rect>
  <path class="cls-5" d="M481.12,876.42H469.23a1.41,1.41,0,0,1-1.41-1.41V783.69a1.41,1.41,0,0,1,1.41-1.41h11.89a1.41,1.41,0,0,1,1.41,1.41V875A1.41,1.41,0,0,1,481.12,876.42Zm-10.48-2.82h9.07V785.1h-9.07Z"></path>
  <rect class="cls-1" x="389.84" y="753.27" width="91.27" height="30.42"></rect>
  <path class="cls-5" d="M481.12,785.1H389.84a1.41,1.41,0,0,1-1.41-1.41V753.27a1.41,1.41,0,0,1,1.41-1.41h91.28a1.41,1.41,0,0,1,1.41,1.41v30.42A1.42,1.42,0,0,1,481.12,785.1Zm-89.87-2.82h88.46v-27.6H391.25Z"></path>
  <rect class="cls-1" x="425.37" y="737.97" width="20.22" height="15.29"></rect>
  <path class="cls-5" d="M445.59,754.68H425.37a1.41,1.41,0,0,1-1.41-1.41V738a1.41,1.41,0,0,1,1.41-1.41h20.22A1.41,1.41,0,0,1,447,738v15.3A1.41,1.41,0,0,1,445.59,754.68Zm-18.81-2.82h17.4V739.38h-17.4Z"></path>
  <rect class="cls-1" x="407.9" y="722.2" width="55.15" height="15.78"></rect>
  <path class="cls-5" d="M463.06,739.38H407.9a1.41,1.41,0,0,1-1.41-1.41V722.2a1.41,1.41,0,0,1,1.41-1.41h55.16a1.41,1.41,0,0,1,1.41,1.41V738A1.41,1.41,0,0,1,463.06,739.38Zm-53.75-2.82h52.34V723.61H409.31Z"></path>
  <rect class="cls-1" x="414.41" y="680.08" width="42.23" height="42.23"></rect>
  <path class="cls-5" d="M456.64,723.72H414.41a1.41,1.41,0,0,1-1.41-1.41V680.08a1.41,1.41,0,0,1,1.41-1.41h42.23a1.41,1.41,0,0,1,1.41,1.41v42.23A1.41,1.41,0,0,1,456.64,723.72Zm-40.82-2.82h39.41V681.49H415.82Z"></path>
  <rect class="cls-7" x="422.22" y="663.67" width="26.53" height="5.26"></rect>
  <path class="cls-5" d="M448.74,670.34H422.21a1.41,1.41,0,0,1-1.41-1.41v-5.26a1.41,1.41,0,0,1,1.41-1.41h26.53a1.41,1.41,0,0,1,1.41,1.41v5.26A1.41,1.41,0,0,1,448.74,670.34Zm-25.12-2.82h23.71v-2.44H423.62Z"></path>
  <rect class="cls-5" x="434.07" y="668.93" width="2.82" height="11.15"></rect>
  <rect class="cls-6" x="414.41" y="808.87" width="42.14" height="32.04"></rect>
  <path class="cls-5" d="M456.55,842.32H414.41a1.41,1.41,0,0,1-1.41-1.41v-32a1.41,1.41,0,0,1,1.41-1.41h42.14a1.41,1.41,0,0,1,1.41,1.41v32A1.41,1.41,0,0,1,456.55,842.32Zm-40.73-2.82h39.32V810.28H415.82Z"></path>
  <circle class="cls-5" cx="435.48" cy="698.57" r="4.92"></circle>
  <path class="cls-5" d="M435.48,704.9a6.33,6.33,0,1,1,6.32-6.33A6.34,6.34,0,0,1,435.48,704.9Zm0-9.84a3.51,3.51,0,1,0,3.5,3.51A3.51,3.51,0,0,0,435.48,695.06Z"></path>
  <rect class="cls-5" x="420.69" y="697.16" width="14.79" height="2.82"></rect>
  <polygon class="cls-3" points="656.97 833.73 654.13 842.56 620.51 842.56 617.9 833.73 605.15 833.73 605.15 915.63 669.9 915.63 669.9 833.73 656.97 833.73"></polygon>
  <path class="cls-5" d="M669.9,917H605.15a1.41,1.41,0,0,1-1.41-1.41v-81.9a1.41,1.41,0,0,1,1.41-1.41H617.9a1.4,1.4,0,0,1,1.35,1l2.32,7.82H653.1l2.53-7.85a1.4,1.4,0,0,1,1.34-1H669.9a1.41,1.41,0,0,1,1.41,1.41v81.9A1.41,1.41,0,0,1,669.9,917Zm-63.34-2.82h61.93V835.14H658L655.47,843a1.41,1.41,0,0,1-1.35,1H620.51a1.41,1.41,0,0,1-1.35-1l-2.31-7.82H606.56Z"></path>
  <rect class="cls-5" x="605.15" y="853.04" width="65.17" height="2.82"></rect>
  <rect class="cls-5" x="605.15" y="862.69" width="65.17" height="2.82"></rect>
  <rect class="cls-5" x="661.83" y="800.89" width="2.82" height="32.84"></rect>
  <polygon class="cls-3" points="672.51 805.24 666.29 805.24 653.96 805.24 653.96 796.67 672.51 796.67 672.51 805.24"></polygon>
  <path class="cls-5" d="M672.51,806.65H654a1.41,1.41,0,0,1-1.41-1.41v-8.57a1.41,1.41,0,0,1,1.41-1.41h18.55a1.41,1.41,0,0,1,1.41,1.41v8.57A1.41,1.41,0,0,1,672.51,806.65Zm-17.14-2.82H671.1v-5.75H655.37Z"></path>
  <path class="cls-5" d="M687.88,822.14,682.75,817H663.24v-2.82h20.1a1.41,1.41,0,0,1,1,.41l5.55,5.54Z"></path>
  <polygon class="cls-7" points="625.2 833.73 622.35 842.56 588.74 842.56 586.12 833.73 573.38 833.73 573.38 915.63 638.12 915.63 638.12 833.73 625.2 833.73"></polygon>
  <path class="cls-5" d="M638.12,917H573.38a1.41,1.41,0,0,1-1.41-1.41v-81.9a1.41,1.41,0,0,1,1.41-1.41h12.74a1.42,1.42,0,0,1,1.36,1l2.31,7.82h31.53l2.53-7.85a1.41,1.41,0,0,1,1.35-1h12.92a1.41,1.41,0,0,1,1.41,1.41v81.9A1.41,1.41,0,0,1,638.12,917Zm-63.33-2.82h61.92V835.14H626.22L623.69,843a1.4,1.4,0,0,1-1.34,1H588.74a1.4,1.4,0,0,1-1.35-1l-2.32-7.82H574.79Z"></path>
  <rect class="cls-5" x="573.38" y="853.04" width="65.17" height="2.82"></rect>
  <rect class="cls-5" x="573.38" y="862.69" width="65.17" height="2.82"></rect>
  <rect class="cls-5" x="630.05" y="800.89" width="2.82" height="32.84"></rect>
  <polygon class="cls-7" points="640.74 805.24 634.52 805.24 622.18 805.24 622.18 796.67 640.74 796.67 640.74 805.24"></polygon>
  <path class="cls-5" d="M640.74,806.65H622.18a1.41,1.41,0,0,1-1.41-1.41v-8.57a1.41,1.41,0,0,1,1.41-1.41h18.56a1.41,1.41,0,0,1,1.41,1.41v8.57A1.41,1.41,0,0,1,640.74,806.65Zm-17.15-2.82h15.74v-5.75H623.59Z"></path>
  <path class="cls-5" d="M656.1,822.14,651,817H631.46v-2.82h20.1a1.43,1.43,0,0,1,1,.41l5.54,5.54Z"></path>
  <polygon class="cls-3" points="591 833.73 588.16 842.56 554.54 842.56 551.93 833.73 539.18 833.73 539.18 915.63 603.93 915.63 603.93 833.73 591 833.73"></polygon>
  <path class="cls-5" d="M603.93,917H539.18a1.41,1.41,0,0,1-1.41-1.41v-81.9a1.41,1.41,0,0,1,1.41-1.41h12.75a1.4,1.4,0,0,1,1.35,1l2.32,7.82h31.53l2.53-7.85a1.4,1.4,0,0,1,1.34-1h12.93a1.41,1.41,0,0,1,1.41,1.41v81.9A1.41,1.41,0,0,1,603.93,917Zm-63.34-2.82h61.93V835.14H592L589.5,843a1.4,1.4,0,0,1-1.34,1H554.54a1.41,1.41,0,0,1-1.35-1l-2.31-7.82H540.59Z"></path>
  <rect class="cls-5" x="539.18" y="853.04" width="65.17" height="2.82"></rect>
  <rect class="cls-5" x="539.18" y="862.69" width="65.17" height="2.82"></rect>
  <rect class="cls-5" x="595.86" y="800.89" width="2.82" height="32.84"></rect>
  <polygon class="cls-3" points="606.55 805.24 600.32 805.24 587.99 805.24 587.99 796.67 606.55 796.67 606.55 805.24"></polygon>
  <path class="cls-5" d="M606.55,806.65H588a1.41,1.41,0,0,1-1.41-1.41v-8.57a1.41,1.41,0,0,1,1.41-1.41h18.56a1.41,1.41,0,0,1,1.41,1.41v8.57A1.41,1.41,0,0,1,606.55,806.65Zm-17.15-2.82h15.74v-5.75H589.4Z"></path>
  <path class="cls-5" d="M621.91,822.14,616.78,817H597.27v-2.82h20.1a1.45,1.45,0,0,1,1,.41l5.54,5.54Z"></path>
  <rect class="cls-1" x="1093.99" y="804.5" width="103.42" height="16.23"></rect>
  <path class="cls-5" d="M1197.41,822.14H1094a1.41,1.41,0,0,1-1.41-1.41V804.5a1.41,1.41,0,0,1,1.41-1.41h103.42a1.41,1.41,0,0,1,1.41,1.41v16.23A1.41,1.41,0,0,1,1197.41,822.14Zm-102-2.82H1196V805.91H1095.4Z"></path>
  <polygon class="cls-8" points="1192.88 804.5 1098.53 804.5 1108.37 788.27 1183.03 788.27 1192.88 804.5"></polygon>
  <path class="cls-5" d="M1192.88,805.91h-94.35a1.41,1.41,0,0,1-1.21-2.14l9.84-16.23a1.41,1.41,0,0,1,1.21-.68H1183a1.4,1.4,0,0,1,1.21.68l9.84,16.23a1.39,1.39,0,0,1,0,1.42A1.42,1.42,0,0,1,1192.88,805.91ZM1101,803.09h89.34l-8.13-13.41h-73.08Z"></path>
  <polygon class="cls-8" points="1164.37 820.73 1164.37 833.69 1127.03 833.69 1127.03 820.73 1098.53 820.73 1113.29 915.78 1178.11 915.78 1192.88 820.73 1164.37 820.73"></polygon>
  <path class="cls-5" d="M1178.11,917.19h-64.82a1.4,1.4,0,0,1-1.39-1.19l-14.77-95a1.43,1.43,0,0,1,.33-1.14,1.39,1.39,0,0,1,1.07-.49H1127a1.41,1.41,0,0,1,1.41,1.41v11.55H1163V820.73a1.41,1.41,0,0,1,1.41-1.41h28.51a1.4,1.4,0,0,1,1.39,1.63l-14.76,95A1.42,1.42,0,0,1,1178.11,917.19Zm-63.61-2.82h62.41l14.32-92.23h-25.45v11.55a1.41,1.41,0,0,1-1.41,1.41H1127a1.41,1.41,0,0,1-1.41-1.41V822.14h-25.45Z"></path>
  <rect class="cls-1" x="1127.03" y="820.73" width="37.34" height="12.96"></rect>
  <path class="cls-5" d="M1164.37,835.1H1127a1.41,1.41,0,0,1-1.41-1.41v-13a1.41,1.41,0,0,1,1.41-1.41h37.34a1.41,1.41,0,0,1,1.41,1.41v13A1.41,1.41,0,0,1,1164.37,835.1Zm-35.93-2.82H1163V822.14h-34.52Z"></path>
  <path class="cls-1" d="M1261.24,268.57h0a14.36,14.36,0,0,1,14.36,14.36v0a0,0,0,0,1,0,0h0a14.36,14.36,0,0,1-14.36-14.36v0A0,0,0,0,1,1261.24,268.57Z" transform="translate(273.31 1109.23) rotate(-52.21)"></path>
  <path class="cls-5" d="M1267.13,281.44a15.66,15.66,0,0,1-9.65-3.3,1.42,1.42,0,0,1-.25-2,15.8,15.8,0,0,1,22.13-2.8,1.42,1.42,0,0,1,.25,2A15.74,15.74,0,0,1,1267.13,281.44Zm-6.68-4.68a12.92,12.92,0,0,0,15.94-2,13,13,0,0,0-15.94,2Z"></path>
  <path class="cls-1" d="M1267.9,289.57h0a14.36,14.36,0,0,1,14.36,14.36v0a0,0,0,0,1,0,0h0a14.36,14.36,0,0,1-14.36-14.36v0A0,0,0,0,1,1267.9,289.57Z" transform="translate(50.82 760.51) rotate(-33.85)"></path>
  <path class="cls-5" d="M1277.07,302.55a15.76,15.76,0,0,1-13.12-7,1.43,1.43,0,0,1-.21-1.06,1.41,1.41,0,0,1,.6-.9,15.75,15.75,0,0,1,21.87,4.31,1.41,1.41,0,0,1-.38,2A15.71,15.71,0,0,1,1277.07,302.55Zm-9.87-7.36A13,13,0,0,0,1283,298.3a12.95,12.95,0,0,0-15.77-3.11Z"></path>
  <path class="cls-1" d="M1267.9,303.52h0a14.36,14.36,0,0,1,14.36,14.36v0a0,0,0,0,1,0,0h0a14.36,14.36,0,0,1-14.36-14.36v0A0,0,0,0,1,1267.9,303.52Z" transform="translate(43.05 762.87) rotate(-33.85)"></path>
  <path class="cls-5" d="M1277.07,316.5a15.76,15.76,0,0,1-13.12-7,1.42,1.42,0,0,1,.39-2,15.78,15.78,0,0,1,21.87,4.31,1.41,1.41,0,0,1-.38,2A15.71,15.71,0,0,1,1277.07,316.5Zm-9.87-7.36a13,13,0,0,0,15.77,3.11A13,13,0,0,0,1267.2,309.14Z"></path>
  <path class="cls-1" d="M1261.53,315.71h0a14.36,14.36,0,0,1,14.36,14.36v0a0,0,0,0,1,0,0h0a14.36,14.36,0,0,1-14.36-14.36v0A0,0,0,0,1,1261.53,315.71Z" transform="translate(35.18 761.39) rotate(-33.85)"></path>
  <path class="cls-5" d="M1270.69,328.69a15.78,15.78,0,0,1-13.12-7,1.46,1.46,0,0,1-.21-1.06,1.41,1.41,0,0,1,.6-.9,15.78,15.78,0,0,1,21.88,4.32,1.4,1.4,0,0,1-.39,1.95A15.63,15.63,0,0,1,1270.69,328.69Zm-9.87-7.36a13,13,0,0,0,15.77,3.11A13,13,0,0,0,1260.82,321.33Z"></path>
  <path class="cls-1" d="M1239,320.51h0a14.36,14.36,0,0,1,14.36,14.36v0a0,0,0,0,1,0,0h0A14.36,14.36,0,0,1,1239,320.51v0A0,0,0,0,1,1239,320.51Z" transform="translate(339.31 1243.07) rotate(-60)"></path>
  <path class="cls-5" d="M1243.53,333.64a15.64,15.64,0,0,1-7.85-2.11,1.4,1.4,0,0,1-.52-1.92,15.78,15.78,0,0,1,21.54-5.77,1.41,1.41,0,0,1,.51,1.92A15.74,15.74,0,0,1,1243.53,333.64Zm-5.11-3.87a13,13,0,0,0,15.53-4.16A13,13,0,0,0,1238.42,329.77Z"></path>
  <path class="cls-1" d="M1235,337.13h0a14.36,14.36,0,0,1,14.36,14.36v0a0,0,0,0,1,0,0h0A14.36,14.36,0,0,1,1235,337.13v0A0,0,0,0,1,1235,337.13Z" transform="translate(644.78 1486.54) rotate(-77.88)"></path>
  <path class="cls-5" d="M1236.71,351.56a15.9,15.9,0,0,1-3.35-.36,1.41,1.41,0,0,1-1.08-1.67A15.79,15.79,0,0,1,1251,337.42a1.41,1.41,0,0,1,1.08,1.67,15.78,15.78,0,0,1-15.38,12.47Zm-1.27-2.89a12.93,12.93,0,0,0,13.49-8.72A12.94,12.94,0,0,0,1235.44,348.67Z"></path>
  <path class="cls-1" d="M1253.23,331.47h0a14.36,14.36,0,0,1,14.36,14.36v0a0,0,0,0,1,0,0h0a14.36,14.36,0,0,1-14.36-14.36v0A0,0,0,0,1,1253.23,331.47Z" transform="translate(-29.37 538.13) rotate(-23.83)"></path>
  <path class="cls-5" d="M1264.08,345a15.91,15.91,0,0,1-5.7-1.07,15.68,15.68,0,0,1-8.73-8.33,1.42,1.42,0,0,1,.72-1.86,15.79,15.79,0,0,1,20.8,8.05,1.42,1.42,0,0,1-.72,1.86A15.74,15.74,0,0,1,1264.08,345Zm-11.17-9.21a13,13,0,0,0,15,5.81A13,13,0,0,0,1252.91,335.75Z"></path>
  <path class="cls-5" d="M1176.27,261.46c-5.72,0-11-2.2-14.23-6.06-1.34.42-2.65.74-3.85,1-9.41,2.08-18.06,2-25.69-.29-9-2.68-16.33-8.48-20.14-15.93l2.51-1.28c3.46,6.76,10.18,12,18.44,14.51,7.16,2.13,15.33,2.21,24.27.24.89-.2,1.83-.42,2.8-.7a20.89,20.89,0,0,1-2.34-9.37c-.15-4.91,1.48-8.72,4.47-10.45a7.45,7.45,0,0,1,6.52-.33,9.25,9.25,0,0,1,5.41,5.69c1.48,4.86-1.09,9.85-4.3,12.64a20,20,0,0,1-5.24,3.22c3.38,3.41,8.93,5,14.62,4,11.9-2,19.85-12.85,23.32-22.36,3.21-8.79,4.05-18.43,4.86-27.74.2-2.25.39-4.5.62-6.74.38-3.8,1-7.77,3.33-10.9,2.94-3.88,8.43-5.9,14.72-5.4,5.08.41,10.47,3.08,11.06,8.12l-2.8.33c-.4-3.44-4.68-5.33-8.48-5.64-5.31-.42-9.9,1.18-12.26,4.3-1.93,2.55-2.41,5.94-2.77,9.48-.22,2.22-.42,4.46-.61,6.69-.83,9.5-1.68,19.32-5,28.46-3.74,10.26-12.41,22-25.5,24.18A22.5,22.5,0,0,1,1176.27,261.46ZM1166,235a4.14,4.14,0,0,0-2.08.54c-2.93,1.69-3.12,6.1-3.06,7.92a18,18,0,0,0,2.25,8.55,18.06,18.06,0,0,0,5.18-3c2.52-2.2,4.56-6,3.45-9.69a6.31,6.31,0,0,0-3.74-3.89A5.4,5.4,0,0,0,1166,235Z"></path>
  <path class="cls-7" d="M1264.15,225h-22.61a13.46,13.46,0,0,1-13.15-10.59L1224,194.51h57.61l-4.35,19.94A13.46,13.46,0,0,1,1264.15,225Z"></path>
  <path class="cls-5" d="M1264.15,226.45h-22.61a15,15,0,0,1-14.53-11.7l-4.35-19.94a1.4,1.4,0,0,1,.28-1.18,1.42,1.42,0,0,1,1.1-.53h57.61a1.42,1.42,0,0,1,1.1.53,1.4,1.4,0,0,1,.28,1.18l-4.35,19.94A15,15,0,0,1,1264.15,226.45Zm-38.36-30.53,4,18.23a12.12,12.12,0,0,0,11.77,9.48h22.61a12.12,12.12,0,0,0,11.77-9.48l4-18.23Z"></path>
  <rect class="cls-3" x="1246.91" y="181.56" width="11.87" height="12.95"></rect>
  <path class="cls-5" d="M1258.78,195.92h-11.87a1.41,1.41,0,0,1-1.41-1.41V181.56a1.41,1.41,0,0,1,1.41-1.41h11.87a1.41,1.41,0,0,1,1.41,1.41v12.95A1.41,1.41,0,0,1,1258.78,195.92Zm-10.46-2.82h9V183h-9Z"></path>
  <path class="cls-1" d="M1217.28,170.74h0A21.22,21.22,0,0,1,1238.51,192v0a0,0,0,0,1,0,0h0a21.22,21.22,0,0,1-21.22-21.22v0A0,0,0,0,1,1217.28,170.74Z" transform="translate(2423.45 514.91) rotate(-172.81)"></path>
  <path class="cls-5" d="M1237.1,194.62h-.18a22.63,22.63,0,0,1-19.62-25.29,1.4,1.4,0,0,1,1.57-1.23,22.67,22.67,0,0,1,19.63,25.29,1.43,1.43,0,0,1-1.4,1.24ZM1220,171.13a19.82,19.82,0,0,0,15.87,20.44A19.85,19.85,0,0,0,1220,171.13Z"></path>
  <path class="cls-1" d="M1235.36,168.13h0a21.22,21.22,0,0,1,21.22,21.22v0a0,0,0,0,1,0,0h0a21.22,21.22,0,0,1-21.22-21.22v0A0,0,0,0,1,1235.36,168.13Z" transform="translate(2159.23 1044.97) rotate(-144.68)"></path>
  <path class="cls-5" d="M1248.49,195a1.44,1.44,0,0,1-.81-.26,22.63,22.63,0,0,1-5.38-31.56,1.41,1.41,0,0,1,2-.33,22.62,22.62,0,0,1,5.38,31.55A1.4,1.4,0,0,1,1248.49,195Zm-4.7-29a19.82,19.82,0,0,0,4.36,25.51,19.81,19.81,0,0,0-4.36-25.51Z"></path>
  <path class="cls-1" d="M1248.1,169.07h0a21.22,21.22,0,0,1,21.22,21.22v0a0,0,0,0,1,0,0h0a21.22,21.22,0,0,1-21.22-21.22v0A0,0,0,0,1,1248.1,169.07Z" transform="translate(1475.8 1432.48) rotate(-107.96)"></path>
  <path class="cls-5" d="M1251.88,194.46a1.44,1.44,0,0,1-.64-.16,1.42,1.42,0,0,1-.7-.82A22.65,22.65,0,0,1,1265.1,165a1.41,1.41,0,0,1,1.77.91,22.66,22.66,0,0,1-14.55,28.51A1.62,1.62,0,0,1,1251.88,194.46Zm12.71-26.31a19.82,19.82,0,0,0-11.76,23A19.85,19.85,0,0,0,1264.59,168.15Z"></path>
  <path class="cls-1" d="M1225,169.34h0a21.22,21.22,0,0,1,21.22,21.22v0a0,0,0,0,1,0,0h0A21.22,21.22,0,0,1,1225,169.34v0A0,0,0,0,1,1225,169.34Z" transform="translate(2434.96 527.24) rotate(-172.14)"></path>
  <path class="cls-5" d="M1244.66,193.33l-.2,0a22.65,22.65,0,0,1-19.32-25.51,1.38,1.38,0,0,1,.54-.93,1.42,1.42,0,0,1,1-.28,22.65,22.65,0,0,1,19.32,25.52A1.41,1.41,0,0,1,1244.66,193.33Zm-16.88-23.69a19.85,19.85,0,0,0,15.63,20.63,19.81,19.81,0,0,0-15.63-20.63Z"></path>
  <path class="cls-1" d="M1261.82,182.74h0a14.36,14.36,0,0,1,14.36,14.36v0a0,0,0,0,1,0,0h0a14.36,14.36,0,0,1-14.36-14.36v0A0,0,0,0,1,1261.82,182.74Z" transform="translate(271.14 996.58) rotate(-47.46)"></path>
  <path class="cls-5" d="M1268.54,195.54a15.65,15.65,0,0,1-10.64-4.15,1.42,1.42,0,0,1-.09-2,15.78,15.78,0,0,1,22.28-1,1.42,1.42,0,0,1,.09,2,15.69,15.69,0,0,1-10.94,5.09Zm-7.58-5.28a13,13,0,0,0,16.07-.69,13,13,0,0,0-16.07.69Z"></path>
  <path class="cls-1" d="M1212,182.38h0a14.36,14.36,0,0,1,14.36,14.36v0a0,0,0,0,1,0,0h0A14.36,14.36,0,0,1,1212,182.38v0A0,0,0,0,1,1212,182.38Z" transform="translate(2368.69 -258.8) rotate(149.85)"></path>
  <path class="cls-5" d="M1221.82,195.52a15.79,15.79,0,0,1-13.66-7.85,1.41,1.41,0,0,1,.51-1.93,15.76,15.76,0,0,1,21.56,5.72,1.38,1.38,0,0,1,.14,1.07,1.4,1.4,0,0,1-.65.85A15.65,15.65,0,0,1,1221.82,195.52Zm-10.39-8a13,13,0,0,0,15.53,4.12,12.95,12.95,0,0,0-15.53-4.12Z"></path>
  <path class="cls-1" d="M1149.67,257.72h0A14.36,14.36,0,0,1,1164,272.08v0a0,0,0,0,1,0,0h0a14.36,14.36,0,0,1-14.36-14.36v0A0,0,0,0,1,1149.67,257.72Z" transform="translate(2232.32 766.75) rotate(-167.88)"></path>
  <path class="cls-5" d="M1162.36,274.84l-.29,0A15.8,15.8,0,0,1,1150,256.08a1.41,1.41,0,0,1,1.68-1.08,15.77,15.77,0,0,1,12.1,18.73,1.42,1.42,0,0,1-1.38,1.11Zm-9.87-16.69a13,13,0,0,0,8.73,13.5,13,13,0,0,0-8.73-13.5Z"></path>
  <path class="cls-1" d="M1136.35,259.36h0a14.36,14.36,0,0,1,14.36,14.36v0a0,0,0,0,1,0,0h0a14.36,14.36,0,0,1-14.36-14.36v0A0,0,0,0,1,1136.35,259.36Z" transform="translate(1559.1 1364.71) rotate(-123.85)"></path>
  <path class="cls-5" d="M1141.56,277.91l-.27,0a1.41,1.41,0,0,1-.9-.6,15.79,15.79,0,0,1,4.32-21.88,1.4,1.4,0,0,1,2,.39,15.79,15.79,0,0,1-4.31,21.88A1.47,1.47,0,0,1,1141.56,277.91Zm3.52-19.26a13,13,0,0,0-3.11,15.77A13,13,0,0,0,1145.08,258.65Z"></path>
  <path class="cls-1" d="M1123.36,257.72h0a14.36,14.36,0,0,1,14.36,14.36v0a0,0,0,0,1,0,0h0a14.36,14.36,0,0,1-14.36-14.36v0A0,0,0,0,1,1123.36,257.72Z" transform="translate(1087.35 1425.26) rotate(-101.06)"></path>
  <path class="cls-5" d="M1124.87,274.74a1.41,1.41,0,0,1-1.38-1.14,15.76,15.76,0,0,1,12.45-18.5,1.41,1.41,0,0,1,1.66,1.11,15.78,15.78,0,0,1-12.46,18.5A1.24,1.24,0,0,1,1124.87,274.74Zm10.16-16.5a12.94,12.94,0,0,0-9,13.33,13,13,0,0,0,9-13.33Z"></path>
  <path class="cls-1" d="M1111.87,249.61h0A14.36,14.36,0,0,1,1126.23,264v0a0,0,0,0,1,0,0h0a14.36,14.36,0,0,1-14.36-14.36v0A0,0,0,0,1,1111.87,249.61Z" transform="translate(426.29 1172.37) rotate(-65.81)"></path>
  <path class="cls-5" d="M1115.43,263.07a15.67,15.67,0,0,1-6.45-1.39,1.41,1.41,0,0,1-.71-1.86,15.78,15.78,0,0,1,20.85-7.93,1.41,1.41,0,0,1,.7,1.87,15.77,15.77,0,0,1-14.39,9.31Zm-3.9-3.43a12.95,12.95,0,0,0,15-5.71,12.95,12.95,0,0,0-15,5.71Z"></path>
  <path class="cls-1" d="M1171.52,230.2h0a14.36,14.36,0,0,1,14.36,14.36v0a0,0,0,0,1,0,0h0a14.36,14.36,0,0,1-14.36-14.36v0A0,0,0,0,1,1171.52,230.2Z" transform="translate(1912.11 1190.17) rotate(-138.97)"></path>
  <path class="cls-5" d="M1179.41,248.92a1.44,1.44,0,0,1-.93-.35,15.75,15.75,0,0,1-1.54-22.24,1.41,1.41,0,0,1,2-.14,15.75,15.75,0,0,1,1.54,22.24A1.41,1.41,0,0,1,1179.41,248.92Zm-1.26-19.56a13,13,0,0,0,1.11,16,13,13,0,0,0-1.11-16Z"></path>
  <path class="cls-1" d="M1034,379.35h0a14.36,14.36,0,0,1,14.36,14.36v0a0,0,0,0,1,0,0h0A14.36,14.36,0,0,1,1034,379.35v0A0,0,0,0,1,1034,379.35Z" transform="translate(311.85 -451.07) rotate(28.58)"></path>
  <path class="cls-5" d="M1044.09,397.68a1.35,1.35,0,0,1-.67-.18,15.75,15.75,0,0,1-6.3-21.38,1.4,1.4,0,0,1,1.91-.57,15.77,15.77,0,0,1,6.3,21.39A1.41,1.41,0,0,1,1044.09,397.68ZM1039,378.82a12.94,12.94,0,0,0,4.55,15.42A13,13,0,0,0,1039,378.82Z"></path>
  <path class="cls-1" d="M1022.93,365.3h0a14.36,14.36,0,0,1,14.36,14.36v0a0,0,0,0,1,0,0h0a14.36,14.36,0,0,1-14.36-14.36v0A0,0,0,0,1,1022.93,365.3Z" transform="translate(-64.91 400.75) rotate(-21.36)"></path>
  <path class="cls-5" d="M1034.17,379a15.79,15.79,0,0,1-14.68-10,1.42,1.42,0,0,1,.8-1.83,15.8,15.8,0,0,1,20.43,8.94,1.42,1.42,0,0,1-.8,1.83A15.73,15.73,0,0,1,1034.17,379Zm-11.43-9.7a12.94,12.94,0,0,0,14.73,6.45A13,13,0,0,0,1022.74,369.25Z"></path>
  <path class="cls-1" d="M1044.49,305.69h0A14.36,14.36,0,0,1,1058.85,320v0a0,0,0,0,1,0,0h0a14.36,14.36,0,0,1-14.36-14.36v0A0,0,0,0,1,1044.49,305.69Z" transform="translate(-45.07 280.3) rotate(-14.87)"></path>
  <path class="cls-5" d="M1056.77,319.86a15.79,15.79,0,0,1-15.24-11.72,1.38,1.38,0,0,1,.14-1.07,1.42,1.42,0,0,1,.86-.66,15.78,15.78,0,0,1,19.28,11.2,1.41,1.41,0,0,1-1,1.72A15.68,15.68,0,0,1,1056.77,319.86Zm-12-11a12.93,12.93,0,0,0,13.9,8.07A13,13,0,0,0,1044.72,308.83Z"></path>
  <path class="cls-1" d="M1024.71,315.75h0a14.36,14.36,0,0,1,14.36,14.36v0a0,0,0,0,1,0,0h0a14.36,14.36,0,0,1-14.36-14.36v0A0,0,0,0,1,1024.71,315.75Z" transform="translate(566.93 1299.1) rotate(-81.91)"></path>
  <path class="cls-5" d="M1025.8,330.58a16.67,16.67,0,0,1-2.22-.15,1.43,1.43,0,0,1-.93-.55,1.41,1.41,0,0,1-.27-1.05,15.79,15.79,0,0,1,17.83-13.39,1.41,1.41,0,0,1,.93.55,1.38,1.38,0,0,1,.26,1A15.78,15.78,0,0,1,1025.8,330.58Zm-.34-2.82a13,13,0,0,0,12.86-9.65A13,13,0,0,0,1025.46,327.76Z"></path>
  <path class="cls-5" d="M1238.77,309.58c-.84,0-1.68,0-2.51-.08l.17-2.82c3.12.18,6.09.21,8-1.44a8.28,8.28,0,0,0,2.39-4.65c1.81-7.91-1.09-17.37-8-26-.51-.64-1-1.26-1.55-1.89a36.51,36.51,0,0,1-5-7.07,19.76,19.76,0,0,1,5.78-24.09,39.64,39.64,0,0,1,6-3.42c3.36-1.67,6.52-3.25,8.3-6.12s1.9-6.75.39-10.53-4.27-6.84-6.8-9.4l-.39-.4c-3.45-3.48-7.36-7.43-7.3-12.66a6.41,6.41,0,0,1,6.44-6.16l.12,2.82a3.63,3.63,0,0,0-3.74,3.37c0,4.05,3.27,7.41,6.48,10.65l.4.4c2.73,2.76,5.74,6.15,7.41,10.34,1.84,4.6,1.61,9.48-.61,13.06s-5.88,5.38-9.44,7.15a37.65,37.65,0,0,0-5.53,3.16,17.1,17.1,0,0,0-4.94,20.57,34.6,34.6,0,0,0,4.65,6.53q.81,1,1.59,1.92c7.43,9.28,10.54,19.62,8.53,28.37a11,11,0,0,1-3.31,6.17C1244.19,309.17,1241.51,309.58,1238.77,309.58Z"></path>
  <path class="cls-5" d="M1260.25,351.56c-6.22,0-10.74-6.33-10.93-12.14-.2-6.05,3-11.55,5.9-15.67l1.76-2.47c2.46-3.44,5-7,6.31-11,1.71-5.22,1.36-11.62-1-19-1-3.07-2.24-6.13-3.45-9.09-1.3-3.2-2.65-6.5-3.7-9.87s-2.28-8.7.18-12.95c1.4-2.42,3.64-4,5.8-5.45.64-.44,1.28-.88,1.88-1.34,6-4.55,9-11.08,10.5-15.76,1.7-5.48,2.4-11.66,2.21-19.45-.11-4.24-.47-9.15-2.35-13.51a12.61,12.61,0,0,0-8.76-7.58l.76-2.72a15.4,15.4,0,0,1,10.59,9.19c2.07,4.79,2.46,10,2.58,14.55.2,8.11-.54,14.58-2.34,20.36-1.58,5.07-4.86,12.17-11.49,17.17-.64.48-1.3,1-2,1.41-2,1.37-3.89,2.68-5,4.55-1.45,2.5-1.43,5.9.07,10.69,1,3.26,2.34,6.5,3.62,9.64s2.5,6.12,3.52,9.29c2.58,8,2.93,15,1,20.76-1.43,4.37-4.11,8.12-6.7,11.74l-1.73,2.43c-2.6,3.76-5.57,8.75-5.4,14,.15,4.49,3.64,9.41,8.12,9.41h.19l.09,2.82Z"></path>
  <path class="cls-5" d="M1030.61,384.25l-1.52-2.38c22-14,32.73-32.56,31.89-55-.39-10.4-3.79-20.58-7.08-30.43a164.23,164.23,0,0,1-6.14-21.63c-.66-3.56-1.22-7.76-.29-11.93,1.61-7.24,7.72-13.58,16.33-17,6.11-2.41,12.68-3.24,19-4q2-.24,4-.51c7.36-1,15-2.56,21.08-7,6.68-4.9,11.31-13.51,13.05-24.26,1.32-8.2.61-15.13-2.13-20.58-3.27-6.52-9.9-10.71-16.12-10.18a12.47,12.47,0,0,0-8.84,5.33,9.59,9.59,0,0,0-1.66,8.09l-2.72.75a12.37,12.37,0,0,1,2.06-10.45,15.15,15.15,0,0,1,10.92-6.53c7.35-.62,15.11,4.2,18.89,11.72,3,6,3.8,13.5,2.38,22.3-1.86,11.49-6.89,20.75-14.16,26.08-6.6,4.84-15,6.53-22.37,7.53l-4,.52c-6.18.78-12.57,1.58-18.34,3.86-7.75,3.06-13.21,8.65-14.62,15a27.25,27.25,0,0,0,.32,10.8c1.34,7.19,3.73,14.34,6,21.26,3.35,10,6.81,20.41,7.22,31.22C1064.67,350,1053.19,369.84,1030.61,384.25Z"></path>
  <path class="cls-5" d="M1045.24,337.06a39.81,39.81,0,0,1-6.42-19.11,26,26,0,0,1,.76-8.92c1.4-4.94,4.76-9.56,10.27-14.13,1.93-1.6,4-3.08,5.93-4.52a91.67,91.67,0,0,0,7.38-5.79,45.15,45.15,0,0,0,7.82-57.88c-1.5-2.34-3.26-4.61-5-6.8a82.08,82.08,0,0,1-5.87-8.24c-2.3-3.88-5.75-11.48-3-18.86l2.64,1c-2.34,6.29.74,13,2.79,16.44a80.25,80.25,0,0,0,5.67,8c1.74,2.24,3.54,4.56,5.11,7a48,48,0,0,1-8.31,61.5,94.19,94.19,0,0,1-7.6,6c-1.94,1.42-3.94,2.88-5.8,4.42-5.06,4.2-8.12,8.36-9.36,12.73a23.2,23.2,0,0,0-.66,8,36.92,36.92,0,0,0,6,17.75Z"></path>
  <path class="cls-5" d="M1152.26,258.82c-5.26,0-10.3-3.19-11.92-7.9s.27-9.39,1.56-11.74a25.63,25.63,0,0,1,11.87-10.72A41.17,41.17,0,0,0,1144,222c-7.32-3.27-15.56-3.49-24.8-3.42h-.29c-8.63,0-17.56.12-25.73-3.15-11-4.4-15.84-13.49-15.75-20.54l2.82,0c-.11,8.41,7.17,15.17,14,17.89,7.65,3.07,16.3,3,24.66,2.94h.29c9.57-.06,18.14.16,26,3.67a44.39,44.39,0,0,1,10.92,7.24l.65.57a34,34,0,0,1,9.29-1.78c8-.4,16.65,1.65,27.15,6.47,3.28,1.49,6.53,3.15,9.67,4.75,4.88,2.48,9.93,5,15.09,7,6.16,2.39,11.12,3.33,15.6,3,5.55-.45,10.47-3.22,12.85-7.22l2.42,1.45c-2.88,4.84-8.5,8.05-15,8.58s-12.72-1.54-16.85-3.15c-5.29-2-10.4-4.65-15.35-7.16-3.12-1.59-6.34-3.23-9.56-4.7-10.08-4.62-18.3-6.59-25.84-6.21a31.08,31.08,0,0,0-7.11,1.18c5.35,5.54,7.82,11.27,7.17,16.73a14.73,14.73,0,0,1-11.28,12.33A13.24,13.24,0,0,1,1152.26,258.82Zm3.8-28.29a23.14,23.14,0,0,0-11.68,10c-1.81,3.3-2.31,6.76-1.38,9.47,1.43,4.13,6.61,6.79,11.32,5.79a11.84,11.84,0,0,0,9.07-9.91C1164.1,240,1160.15,234.49,1156.06,230.53Z"></path>
  <path class="cls-1" d="M1063.54,198h0a14.36,14.36,0,0,1,14.36,14.36v0a0,0,0,0,1,0,0h0A14.36,14.36,0,0,1,1063.54,198v0A0,0,0,0,1,1063.54,198Z" transform="translate(598.95 1188.05) rotate(-75.21)"></path>
  <path class="cls-5" d="M1065.64,212.21a16,16,0,0,1-4.05-.53,1.41,1.41,0,0,1-1-1.73,15.8,15.8,0,0,1,19.27-11.22,1.42,1.42,0,0,1,1,1.73,15.81,15.81,0,0,1-15.22,11.75Zm-1.87-3a13,13,0,0,0,13.9-8.09A13,13,0,0,0,1063.77,209.25Z"></path>
  <path class="cls-1" d="M1048.17,212.28h0a14.36,14.36,0,0,1,14.36,14.36v0a0,0,0,0,1,0,0h0a14.36,14.36,0,0,1-14.36-14.36v0A0,0,0,0,1,1048.17,212.28Z" transform="matrix(0.26, -0.97, 0.97, 0.26, 573.73, 1183.8)"></path>
  <path class="cls-5" d="M1050.27,226.45a15.59,15.59,0,0,1-4-.53,1.41,1.41,0,0,1-.86-.65,1.38,1.38,0,0,1-.14-1.07A15.79,15.79,0,0,1,1064.49,213a1.41,1.41,0,0,1,1,1.73,15.76,15.76,0,0,1-15.22,11.74Zm-1.86-2.95a13,13,0,0,0,13.89-8.09A13,13,0,0,0,1048.41,223.5Z"></path>
  <path class="cls-1" d="M1057.52,226h0a14.36,14.36,0,0,1,14.36,14.36v0a0,0,0,0,1,0,0h0A14.36,14.36,0,0,1,1057.52,226v0A0,0,0,0,1,1057.52,226Z" transform="translate(415.71 1108.87) rotate(-65.81)"></path>
  <path class="cls-5" d="M1061.06,239.49a15.66,15.66,0,0,1-6.43-1.39,1.41,1.41,0,0,1-.71-1.86,15.77,15.77,0,0,1,20.84-7.92,1.41,1.41,0,0,1,.71,1.86A15.79,15.79,0,0,1,1061.06,239.49Zm-3.88-3.42a13,13,0,0,0,15-5.72,13,13,0,0,0-15,5.72Z"></path>
  <path class="cls-1" d="M1032.83,253.44h0a14.36,14.36,0,0,1,14.36,14.36v0a0,0,0,0,1,0,0h0a14.36,14.36,0,0,1-14.36-14.36v0A0,0,0,0,1,1032.83,253.44Z" transform="translate(-12.47 56.09) rotate(-3.07)"></path>
  <path class="cls-5" d="M1046.77,268.83a15.78,15.78,0,0,1-15.72-14.92,1.42,1.42,0,0,1,1.33-1.49A15.81,15.81,0,0,1,1049,267.33a1.41,1.41,0,0,1-1.33,1.48ZM1034,255.25A12.95,12.95,0,0,0,1046,266a12.95,12.95,0,0,0-12-10.74Z"></path>
  <path class="cls-1" d="M1054.7,250.23h0a14.36,14.36,0,0,1,14.36,14.36v0a0,0,0,0,1,0,0h0a14.36,14.36,0,0,1-14.36-14.36v0A0,0,0,0,1,1054.7,250.23Z" transform="translate(73.61 723.42) rotate(-38.87)"></path>
  <path class="cls-5" d="M1063,263.07a15.76,15.76,0,0,1-12.29-5.86,1.42,1.42,0,0,1-.31-1,1.44,1.44,0,0,1,.52-1,15.79,15.79,0,0,1,22.17,2.38,1.41,1.41,0,0,1-.21,2A15.68,15.68,0,0,1,1063,263.07Zm-9.09-6.52a13,13,0,0,0,16,1.71A13,13,0,0,0,1053.89,256.55Z"></path>
  <path class="cls-1" d="M1081.13,252.87h0a14.36,14.36,0,0,1,14.36,14.36v0a0,0,0,0,1,0,0h0a14.36,14.36,0,0,1-14.36-14.36v0A0,0,0,0,1,1081.13,252.87Z" transform="translate(405.17 1146.26) rotate(-65.81)"></path>
  <path class="cls-5" d="M1084.68,266.32a15.66,15.66,0,0,1-6.44-1.38,1.4,1.4,0,0,1-.7-1.86,15.79,15.79,0,0,1,20.84-7.93,1.42,1.42,0,0,1,.71,1.87A15.8,15.8,0,0,1,1084.68,266.32Zm-3.88-3.42a12.94,12.94,0,0,0,15-5.71A13,13,0,0,0,1080.8,262.9Z"></path>
  <path class="cls-1" d="M1085.87,196.77h0a14.36,14.36,0,0,1,14.36,14.36v0a0,0,0,0,1,0,0h0a14.36,14.36,0,0,1-14.36-14.36v0a0,0,0,0,1,0,0Z" transform="translate(459.14 1117.46) rotate(-65.81)"></path>
  <path class="cls-5" d="M1089.41,210.23a15.66,15.66,0,0,1-6.43-1.39,1.41,1.41,0,0,1-.71-1.86,15.77,15.77,0,0,1,20.84-7.92,1.4,1.4,0,0,1,.71,1.86A15.79,15.79,0,0,1,1089.41,210.23Zm-3.88-3.43a12.95,12.95,0,0,0,15-5.71A13,13,0,0,0,1085.53,206.8Z"></path>
  <path class="cls-1" d="M1098.86,202h0a14.36,14.36,0,0,1,14.36,14.36v0a0,0,0,0,1,0,0h0A14.36,14.36,0,0,1,1098.86,202v0A0,0,0,0,1,1098.86,202Z" transform="translate(956.44 1324.8) rotate(-93.07)"></path>
  <path class="cls-5" d="M1099.26,218.11a1.41,1.41,0,0,1-1.41-1.34,15.79,15.79,0,0,1,14.9-16.59,1.43,1.43,0,0,1,1.48,1.34,15.76,15.76,0,0,1-14.9,16.59Zm12.15-14.94a13,13,0,0,0-10.74,12,12.95,12.95,0,0,0,10.74-12Z"></path>
  <path class="cls-1" d="M1112.69,217.86h0a14.36,14.36,0,0,1,14.36,14.36v0a0,0,0,0,1,0,0h0a14.36,14.36,0,0,1-14.36-14.36v0A0,0,0,0,1,1112.69,217.86Z" transform="translate(2155.87 706.14) rotate(-166.45)"></path>
  <path class="cls-5" d="M1125.17,235.11a1.24,1.24,0,0,1-.33,0,15.75,15.75,0,0,1-11.63-19,1.36,1.36,0,0,1,.63-.87,1.38,1.38,0,0,1,1.07-.17,15.78,15.78,0,0,1,11.63,19A1.4,1.4,0,0,1,1125.17,235.11Zm-9.49-16.92a13,13,0,0,0,8.39,13.71A13,13,0,0,0,1115.68,218.19Z"></path>
  <path class="cls-1" d="M1113.78,202.6h0A14.36,14.36,0,0,1,1128.14,217v0a0,0,0,0,1,0,0h0a14.36,14.36,0,0,1-14.36-14.36v0A0,0,0,0,1,1113.78,202.6Z" transform="translate(1040.44 1347.35) rotate(-96.55)"></path>
  <path class="cls-5" d="M1114.65,219.14a1.41,1.41,0,0,1-1.4-1.25,15.78,15.78,0,0,1,13.86-17.46,1.39,1.39,0,0,1,1.56,1.24,15.76,15.76,0,0,1-13.86,17.46ZM1126,203.48a13,13,0,0,0-10,12.59,12.94,12.94,0,0,0,10-12.59Z"></path>
  <path class="cls-1" d="M1073.63,269h0A14.36,14.36,0,0,1,1088,283.35v0a0,0,0,0,1,0,0h0A14.36,14.36,0,0,1,1073.63,269v0A0,0,0,0,1,1073.63,269Z" transform="translate(192.02 950.32) rotate(-51.51)"></path>
  <path class="cls-5" d="M1079.64,281.85a15.72,15.72,0,0,1-9.8-3.42,1.4,1.4,0,0,1-.22-2,15.78,15.78,0,0,1,22.15-2.53,1.42,1.42,0,0,1,.23,2A15.76,15.76,0,0,1,1079.64,281.85Zm-6.82-4.77a13,13,0,0,0,16-1.82,13,13,0,0,0-16,1.82Z"></path>
  <path class="cls-1" d="M1064,283.52h0a14.36,14.36,0,0,1,14.36,14.36v0a0,0,0,0,1,0,0h0A14.36,14.36,0,0,1,1064,283.52v0A0,0,0,0,1,1064,283.52Z" transform="translate(-13.96 523.94) rotate(-27.31)"></path>
  <path class="cls-5" d="M1074.24,296.8a15.89,15.89,0,0,1-4.81-.75,15.68,15.68,0,0,1-9.22-7.79,1.42,1.42,0,0,1,.6-1.9,15.79,15.79,0,0,1,21.25,6.78,1.41,1.41,0,0,1-.61,1.9A15.7,15.7,0,0,1,1074.24,296.8Zm-10.76-8.54a12.95,12.95,0,0,0,15.31,4.88A13,13,0,0,0,1063.48,288.26Z"></path>
  <path class="cls-1" d="M1052.64,293.94h0A14.36,14.36,0,0,1,1067,308.3v0a0,0,0,0,1,0,0h0a14.36,14.36,0,0,1-14.36-14.36v0A0,0,0,0,1,1052.64,293.94Z" transform="matrix(0.97, -0.26, 0.26, 0.97, -41.78, 282)"></path>
  <path class="cls-5" d="M1064.92,308.11a15.8,15.8,0,0,1-15.24-11.73,1.4,1.4,0,0,1,1-1.72A15.79,15.79,0,0,1,1070,305.85a1.42,1.42,0,0,1-1,1.73A16.13,16.13,0,0,1,1064.92,308.11Zm-12.05-11a13,13,0,0,0,13.9,8.07A13,13,0,0,0,1052.87,297.08Z"></path>
  <path class="cls-1" d="M1063.54,253.89h0a14.36,14.36,0,0,1,14.36,14.36v0a0,0,0,0,1,0,0h0a14.36,14.36,0,0,1-14.36-14.36v0A0,0,0,0,1,1063.54,253.89Z" transform="translate(158.68 -357.62) rotate(20.45)"></path>
  <path class="cls-5" d="M1074.94,271.71a1.36,1.36,0,0,1-.49-.08,15.79,15.79,0,0,1-9.27-20.29,1.41,1.41,0,0,1,1.81-.83,15.77,15.77,0,0,1,9.27,20.29A1.41,1.41,0,0,1,1074.94,271.71Zm-7.56-17.95a13,13,0,0,0,6.68,14.62,13,13,0,0,0-6.68-14.62Z"></path>
  <path class="cls-1" d="M1054.7,266.25h0a14.36,14.36,0,0,1,14.36,14.36v0a0,0,0,0,1,0,0h0a14.36,14.36,0,0,1-14.36-14.36v0A0,0,0,0,1,1054.7,266.25Z" transform="translate(81.06 -216.82) rotate(12.12)"></path>
  <path class="cls-5" d="M1067.39,283.37a1.54,1.54,0,0,1-.3,0,15.75,15.75,0,0,1-12.1-18.72,1.41,1.41,0,0,1,.61-.89,1.47,1.47,0,0,1,1.06-.2,15.8,15.8,0,0,1,12.11,18.73,1.41,1.41,0,0,1-1.38,1.12Zm-9.88-16.69a13,13,0,0,0,8.73,13.5A13,13,0,0,0,1057.51,266.68Z"></path>
  <path class="cls-1" d="M1044.07,275.32h0a14.36,14.36,0,0,1,14.36,14.36v0a0,0,0,0,1,0,0h0a14.36,14.36,0,0,1-14.36-14.36v0A0,0,0,0,1,1044.07,275.32Z" transform="translate(82.72 -214.38) rotate(12.12)"></path>
  <path class="cls-5" d="M1056.76,292.43l-.29,0a15.78,15.78,0,0,1-12.11-18.73,1.41,1.41,0,0,1,1.68-1.08,15.77,15.77,0,0,1,12.1,18.73A1.41,1.41,0,0,1,1056.76,292.43Zm-9.87-16.68a12.95,12.95,0,0,0,8.73,13.5,13,13,0,0,0-8.73-13.5Z"></path>
  <path class="cls-1" d="M1031.62,285.49h0A14.36,14.36,0,0,1,1046,299.85v0a0,0,0,0,1,0,0h0a14.36,14.36,0,0,1-14.36-14.36v0A0,0,0,0,1,1031.62,285.49Z" transform="translate(12.22 -40.33) rotate(2.24)"></path>
  <path class="cls-5" d="M1045.69,301.54h-.06a15.77,15.77,0,0,1-15.14-16.37,1.45,1.45,0,0,1,1.47-1.36,15.77,15.77,0,0,1,15.14,16.37A1.42,1.42,0,0,1,1045.69,301.54Zm-12.35-14.77a12.93,12.93,0,0,0,10.91,11.8,13,13,0,0,0-10.91-11.8Z"></path>
  <path class="cls-1" d="M1065,318.72h0a14.36,14.36,0,0,1,14.36,14.36v0a0,0,0,0,1,0,0h0A14.36,14.36,0,0,1,1065,318.72v0a0,0,0,0,1,0,0Z" transform="translate(32.92 745.08) rotate(-38.87)"></path>
  <path class="cls-5" d="M1073.32,331.56A15.73,15.73,0,0,1,1061,325.7a1.42,1.42,0,0,1,.22-2,15.8,15.8,0,0,1,22.17,2.38,1.45,1.45,0,0,1,.3,1,1.4,1.4,0,0,1-.52.95A15.71,15.71,0,0,1,1073.32,331.56Zm-9.09-6.52a13,13,0,0,0,16,1.71A13,13,0,0,0,1064.23,325Z"></path>
  <path class="cls-1" d="M1063.23,334.57h0a14.36,14.36,0,0,1,14.36,14.36v0a0,0,0,0,1,0,0h0a14.36,14.36,0,0,1-14.36-14.36v0A0,0,0,0,1,1063.23,334.57Z" transform="translate(-53.13 356.77) rotate(-18.47)"></path>
  <path class="cls-5" d="M1075,348.43a15.79,15.79,0,0,1-15-10.77,1.4,1.4,0,0,1,.89-1.78,15.75,15.75,0,0,1,19.95,9.95,1.41,1.41,0,0,1-.89,1.79A15.73,15.73,0,0,1,1075,348.43Zm-11.74-10.27a13,13,0,0,0,14.38,7.18,13,13,0,0,0-14.38-7.18Z"></path>
  <path class="cls-1" d="M1058.74,350.16h0a14.36,14.36,0,0,1,14.36,14.36v0a0,0,0,0,1,0,0h0a14.36,14.36,0,0,1-14.36-14.36v0a0,0,0,0,1,0,0Z" transform="translate(-12.9 41.07) rotate(-2.19)"></path>
  <path class="cls-5" d="M1072.81,365.66a15.79,15.79,0,0,1-15.75-15.17,1.41,1.41,0,0,1,1.36-1.46,15.77,15.77,0,0,1,16.35,15.15,1.4,1.4,0,0,1-1.35,1.46ZM1060,351.87a13,13,0,0,0,11.79,10.93A13,13,0,0,0,1060,351.87Z"></path>
  <path class="cls-1" d="M1042,343.77h0a14.36,14.36,0,0,1,14.36,14.36v0a0,0,0,0,1,0,0h0A14.36,14.36,0,0,1,1042,343.78v0A0,0,0,0,1,1042,343.77Z" transform="translate(128.15 963.85) rotate(-52.14)"></path>
  <path class="cls-5" d="M1047.88,356.65a15.68,15.68,0,0,1-9.65-3.32,1.42,1.42,0,0,1-.25-2,15.79,15.79,0,0,1,22.13-2.77,1.42,1.42,0,0,1,.25,2,15.72,15.72,0,0,1-10.49,6A16.73,16.73,0,0,1,1047.88,356.65Zm-6.68-4.7a12.95,12.95,0,0,0,16-2,12.94,12.94,0,0,0-16,2Z"></path>
  <path class="cls-1" d="M1049.58,365.48h0a14.36,14.36,0,0,1,14.36,14.36v0a0,0,0,0,1,0,0h0a14.36,14.36,0,0,1-14.36-14.36v0A0,0,0,0,1,1049.58,365.48Z" transform="translate(70.95 -160.06) rotate(8.96)"></path>
  <path class="cls-5" d="M1062.73,382.28l-.22,0a15.78,15.78,0,0,1-13.12-18,1.4,1.4,0,0,1,1.61-1.17,15.78,15.78,0,0,1,13.12,18A1.41,1.41,0,0,1,1062.73,382.28ZM1052,366.16a13,13,0,0,0,9.46,13A13,13,0,0,0,1052,366.16Z"></path>
  <path class="cls-1" d="M1034.38,356h0a14.36,14.36,0,0,1,14.36,14.36v0a0,0,0,0,1,0,0h0A14.36,14.36,0,0,1,1034.38,356v0A0,0,0,0,1,1034.38,356Z" transform="translate(17.1 772.08) rotate(-40.98)"></path>
  <path class="cls-5" d="M1042.29,368.79a15.73,15.73,0,0,1-11.92-5.42,1.41,1.41,0,0,1-.34-1,1.46,1.46,0,0,1,.48-1,15.78,15.78,0,0,1,22.24,1.57,1.4,1.4,0,0,1-.13,2A15.71,15.71,0,0,1,1042.29,368.79Zm-8.74-6.19a13,13,0,0,0,16,1.12A13,13,0,0,0,1033.55,362.6Z"></path>
  <path class="cls-1" d="M1045.21,327.64h0A14.36,14.36,0,0,1,1059.57,342v0a0,0,0,0,1,0,0h0a14.36,14.36,0,0,1-14.36-14.36v0A0,0,0,0,1,1045.21,327.64Z" transform="translate(-44.7 461.37) rotate(-24.23)"></path>
  <path class="cls-5" d="M1056,341.1a15.77,15.77,0,0,1-14.4-9.3,1.41,1.41,0,0,1,.71-1.86,15.79,15.79,0,0,1,20.85,7.91,1.41,1.41,0,0,1-.71,1.86A15.75,15.75,0,0,1,1056,341.1ZM1044.87,332a13,13,0,0,0,15,5.7A13,13,0,0,0,1044.87,332Z"></path>
  <path class="cls-1" d="M1072.31,211.55h0a14.36,14.36,0,0,1,14.36,14.36v0a0,0,0,0,1,0,0h0a14.36,14.36,0,0,1-14.36-14.36v0A0,0,0,0,1,1072.31,211.55Z" transform="matrix(0.5, -0.87, 0.87, 0.5, 350.32, 1044.23)"></path>
  <path class="cls-5" d="M1076.84,224.69a15.7,15.7,0,0,1-7.86-2.11,1.41,1.41,0,0,1-.51-1.93,15.75,15.75,0,0,1,21.53-5.77,1.41,1.41,0,0,1,.52,1.93A15.79,15.79,0,0,1,1076.84,224.69Zm-5.11-3.88a13,13,0,0,0,15.53-4.16,13,13,0,0,0-15.53,4.16Z"></path>
  <path class="cls-1" d="M1049.16,170.35h0a21.22,21.22,0,0,1,21.22,21.22v0a0,0,0,0,1,0,0h0a21.22,21.22,0,0,1-21.22-21.22v0a0,0,0,0,1,0,0Z" transform="translate(2074.21 537.04) rotate(-170.35)"></path>
  <path class="cls-5" d="M1068.46,194.61l-.24,0a22.63,22.63,0,0,1-18.52-26.11,1.41,1.41,0,0,1,1.63-1.15,22.66,22.66,0,0,1,18.52,26.11A1.42,1.42,0,0,1,1068.46,194.61Zm-16.17-24.2a19.8,19.8,0,0,0,15,21.1A19.84,19.84,0,0,0,1052.29,170.41Z"></path>
  <path class="cls-1" d="M1067.33,168.52h0a21.22,21.22,0,0,1,21.22,21.22v0a0,0,0,0,1,0,0h0a21.22,21.22,0,0,1-21.22-21.22v0A0,0,0,0,1,1067.33,168.52Z" transform="translate(1820.09 981.17) rotate(-142.21)"></path>
  <path class="cls-5" d="M1079.83,195.43a1.39,1.39,0,0,1-.87-.3,22.66,22.66,0,0,1-4-31.75,1.42,1.42,0,0,1,.94-.54,1.39,1.39,0,0,1,1,.29,22.64,22.64,0,0,1,4,31.75,1.4,1.4,0,0,1-.94.54Zm-3.51-29.14a19.85,19.85,0,0,0,3.25,25.68A19.87,19.87,0,0,0,1076.32,166.29Z"></path>
  <path class="cls-1" d="M1080,170h0a21.22,21.22,0,0,1,21.22,21.22v0a0,0,0,0,1,0,0h0A21.22,21.22,0,0,1,1080,170v0A0,0,0,0,1,1080,170Z" transform="translate(1207.88 1279.86) rotate(-105.49)"></path>
  <path class="cls-5" d="M1083.24,195.09a1.41,1.41,0,0,1-1.36-1,22.67,22.67,0,0,1,15.76-27.86,1.42,1.42,0,0,1,1.74,1A22.66,22.66,0,0,1,1083.61,195,1.19,1.19,0,0,1,1083.24,195.09ZM1097,169.35a19.85,19.85,0,0,0-12.74,22.52A19.82,19.82,0,0,0,1097,169.35Z"></path>
  <path class="cls-1" d="M1056.91,169.28h0a21.22,21.22,0,0,1,21.22,21.22v0a0,0,0,0,1,0,0h0a21.22,21.22,0,0,1-21.22-21.22v0A0,0,0,0,1,1056.91,169.28Z" transform="translate(2085.51 548.24) rotate(-169.67)"></path>
  <path class="cls-5" d="M1076.07,193.65a1.15,1.15,0,0,1-.26,0,22.63,22.63,0,0,1-18.21-26.32,1.4,1.4,0,0,1,1.64-1.13,22.65,22.65,0,0,1,18.21,26.32A1.41,1.41,0,0,1,1076.07,193.65Zm-15.91-24.4a19.83,19.83,0,0,0,14.73,21.29A19.86,19.86,0,0,0,1060.16,169.25Z"></path>
  <path class="cls-1" d="M1093.29,184.11h0a14.36,14.36,0,0,1,14.36,14.36v0a0,0,0,0,1,0,0h0a14.36,14.36,0,0,1-14.36-14.36v0A0,0,0,0,1,1093.29,184.11Z" transform="translate(187.06 834.17) rotate(-45)"></path>
  <path class="cls-5" d="M1100.47,196.89a15.68,15.68,0,0,1-11.15-4.61,1.41,1.41,0,0,1,0-2,15.76,15.76,0,0,1,22.3,0,1.41,1.41,0,0,1,0,2A15.72,15.72,0,0,1,1100.47,196.89Zm-8-5.6a13,13,0,0,0,16.07,0,12.93,12.93,0,0,0-16.07,0Z"></path>
  <path class="cls-1" d="M1043.55,181.61h0A14.36,14.36,0,0,1,1057.91,196v0a0,0,0,0,1,0,0h0a14.36,14.36,0,0,1-14.36-14.36v0A0,0,0,0,1,1043.55,181.61Z" transform="translate(2068.89 -132.17) rotate(152.32)"></path>
  <path class="cls-5" d="M1053.77,194.87a15.84,15.84,0,0,1-4.71-.72,15.64,15.64,0,0,1-9.27-7.73,1.4,1.4,0,0,1,.59-1.9,15.77,15.77,0,0,1,21.29,6.64,1.41,1.41,0,0,1-.6,1.9A15.68,15.68,0,0,1,1053.77,194.87Zm-10.72-8.47a13,13,0,0,0,15.35,4.78,12.95,12.95,0,0,0-15.35-4.78Z"></path>
  <path class="cls-1" d="M1097,216.36h0a14.36,14.36,0,0,1,14.36,14.36v0a0,0,0,0,1,0,0h0A14.36,14.36,0,0,1,1097,216.36v0A0,0,0,0,1,1097,216.36Z" transform="matrix(-0.96, -0.29, 0.29, -0.96, 2094.53, 760.62)"></path>
  <path class="cls-5" d="M1109,233.92a1.52,1.52,0,0,1-.42-.06,15.79,15.79,0,0,1-10.46-19.7,1.42,1.42,0,0,1,1.77-.93,15.77,15.77,0,0,1,10.45,19.69A1.4,1.4,0,0,1,1109,233.92Zm-8.54-17.48a13,13,0,0,0,7.54,14.2,13,13,0,0,0-7.54-14.2Z"></path>
  <path class="cls-1" d="M1130.11,204.63h0A14.36,14.36,0,0,1,1144.47,219v0a0,0,0,0,1,0,0h0a14.36,14.36,0,0,1-14.36-14.36v0A0,0,0,0,1,1130.11,204.63Z" transform="translate(866.28 1336.46) rotate(-87)"></path>
  <path class="cls-5" d="M1130.51,220l-.84,0a1.4,1.4,0,0,1-1.33-1.48,15.74,15.74,0,0,1,16.57-14.92,1.41,1.41,0,0,1,1.33,1.48A15.76,15.76,0,0,1,1130.51,220Zm12.75-13.6a12.94,12.94,0,0,0-11.94,10.76,13,13,0,0,0,11.94-10.76Z"></path>
  <path class="cls-1" d="M1142.18,221.9h0a14.36,14.36,0,0,1,14.36,14.36v0a0,0,0,0,1,0,0h0a14.36,14.36,0,0,1-14.36-14.36v0A0,0,0,0,1,1142.18,221.9Z" transform="translate(2155.11 830.72) rotate(-160.38)"></path>
  <path class="cls-5" d="M1153.71,239.66a1.5,1.5,0,0,1-.47-.08,15.79,15.79,0,0,1-9.56-20.15,1.4,1.4,0,0,1,1.8-.85,15.74,15.74,0,0,1,9.56,20.14,1.38,1.38,0,0,1-.72.8A1.43,1.43,0,0,1,1153.71,239.66Zm-7.79-17.85a13,13,0,0,0,6.89,14.53,13,13,0,0,0-6.89-14.53Z"></path>
  <path class="cls-1" d="M1144.88,206.84h0a14.36,14.36,0,0,1,14.36,14.36v0a0,0,0,0,1,0,0h0a14.36,14.36,0,0,1-14.36-14.36v0A0,0,0,0,1,1144.88,206.84Z" transform="translate(947.74 1367.83) rotate(-90.48)"></path>
  <path class="cls-5" d="M1144.94,222.66a1.4,1.4,0,0,1-1.41-1.4,15.76,15.76,0,0,1,15.63-15.89h0a1.41,1.41,0,0,1,1.41,1.39,15.78,15.78,0,0,1-15.64,15.9Zm12.75-14.38a13,13,0,0,0-11.27,11.46A13,13,0,0,0,1157.69,208.28Z"></path>
  <path class="cls-1" d="M1159.89,210.5h0a14.36,14.36,0,0,1,14.36,14.36v0a0,0,0,0,1,0,0h0a14.36,14.36,0,0,1-14.36-14.36v0A0,0,0,0,1,1159.89,210.5Z" transform="translate(1370.8 1387.26) rotate(-110.45)"></path>
  <path class="cls-5" d="M1162.85,228.32a1.41,1.41,0,0,1-1.32-.92,15.76,15.76,0,0,1,9.26-20.28,1.42,1.42,0,0,1,1.82.83,15.76,15.76,0,0,1-9.27,20.28A1.41,1.41,0,0,1,1162.85,228.32Zm7.56-18a13,13,0,0,0-6.68,14.63,13,13,0,0,0,6.68-14.63Z"></path>
  <path class="cls-1" d="M1189.77,254.64h0A14.36,14.36,0,0,1,1204.13,269v0a0,0,0,0,1,0,0h0a14.36,14.36,0,0,1-14.36-14.36v0A0,0,0,0,1,1189.77,254.64Z" transform="translate(2236.53 910.27) rotate(-160.38)"></path>
  <path class="cls-5" d="M1201.3,272.4a1.27,1.27,0,0,1-.47-.09,15.74,15.74,0,0,1-9.56-20.14,1.4,1.4,0,0,1,1.8-.86,15.78,15.78,0,0,1,9.56,20.15A1.42,1.42,0,0,1,1201.3,272.4Zm-7.8-17.85a13,13,0,0,0,6.89,14.53,13,13,0,0,0-6.89-14.53Z"></path>
  <path class="cls-1" d="M1176,262.23h0a14.36,14.36,0,0,1,14.36,14.36v0a0,0,0,0,1,0,0h0A14.36,14.36,0,0,1,1176,262.23v0A0,0,0,0,1,1176,262.23Z" transform="translate(2012.04 1155.71) rotate(-145.91)"></path>
  <path class="cls-5" d="M1185.11,280.79a1.43,1.43,0,0,1-.79-.24,15.76,15.76,0,0,1-4.22-21.9,1.41,1.41,0,0,1,2-.37,15.77,15.77,0,0,1,4.22,21.89A1.43,1.43,0,0,1,1185.11,280.79Zm-3.44-19.27a12.93,12.93,0,0,0,3,15.78,13,13,0,0,0-3-15.78Z"></path>
  <path class="cls-1" d="M1159.11,261.56h0a14.36,14.36,0,0,1,14.36,14.36v0a0,0,0,0,1,0,0h0a14.36,14.36,0,0,1-14.36-14.36v0a0,0,0,0,1,0,0Z" transform="translate(1321.9 1455.44) rotate(-110.45)"></path>
  <path class="cls-5" d="M1162.07,279.39a1.53,1.53,0,0,1-.59-.13,1.42,1.42,0,0,1-.73-.79,15.78,15.78,0,0,1,9.27-20.28,1.41,1.41,0,0,1,1.81.83,15.78,15.78,0,0,1-9.27,20.28A1.37,1.37,0,0,1,1162.07,279.39Zm7.56-18a13,13,0,0,0-6.68,14.62A13,13,0,0,0,1169.63,261.43Z"></path>
  <path class="cls-1" d="M1174.83,211h0a14.36,14.36,0,0,1,14.36,14.36v0a0,0,0,0,1,0,0h0A14.36,14.36,0,0,1,1174.83,211v0A0,0,0,0,1,1174.83,211Z" transform="translate(1390.51 1401.92) rotate(-110.45)"></path>
  <path class="cls-5" d="M1177.79,228.81a1.41,1.41,0,0,1-1.32-.92,15.76,15.76,0,0,1,9.27-20.28,1.41,1.41,0,0,1,1.81.83,15.76,15.76,0,0,1-9.26,20.28A1.47,1.47,0,0,1,1177.79,228.81Zm7.56-18a13,13,0,0,0-6.68,14.63,13,13,0,0,0,6.68-14.63Z"></path>
  <path class="cls-1" d="M1187.68,215.43h0A14.36,14.36,0,0,1,1202,229.79v0a0,0,0,0,1,0,0h0a14.36,14.36,0,0,1-14.36-14.36v0A0,0,0,0,1,1187.68,215.43Z" transform="translate(1403.68 1419.96) rotate(-110.45)"></path>
  <path class="cls-5" d="M1190.64,233.25a1.41,1.41,0,0,1-1.32-.91,15.76,15.76,0,0,1,9.27-20.28,1.41,1.41,0,0,1,1.81.82,15.77,15.77,0,0,1-9.27,20.29A1.4,1.4,0,0,1,1190.64,233.25Zm7.56-17.95a13,13,0,0,0-6.68,14.62,13,13,0,0,0,6.68-14.62Z"></path>
  <path class="cls-1" d="M1209.78,219.92h0a14.36,14.36,0,0,1,14.36,14.36v0a0,0,0,0,1,0,0h0a14.36,14.36,0,0,1-14.36-14.36v0A0,0,0,0,1,1209.78,219.92Z" transform="translate(-16.45 333.29) rotate(-15.49)"></path>
  <path class="cls-5" d="M1222,234a15.81,15.81,0,0,1-15.2-11.56,1.41,1.41,0,0,1,1-1.74,15.78,15.78,0,0,1,19.4,11,1.41,1.41,0,0,1-1,1.74A15.71,15.71,0,0,1,1222,234Zm-12-10.9a13,13,0,0,0,14,7.92A13,13,0,0,0,1210,223.14Z"></path>
  <path class="cls-1" d="M1238,216.13h0a14.36,14.36,0,0,1,14.36,14.36v0a0,0,0,0,1,0,0h0A14.36,14.36,0,0,1,1238,216.13v0A0,0,0,0,1,1238,216.13Z" transform="translate(206.79 945.86) rotate(-45)"></path>
  <path class="cls-5" d="M1245.15,228.92A15.63,15.63,0,0,1,1234,224.3a1.41,1.41,0,0,1,0-2,15.77,15.77,0,0,1,22.29,0,1.39,1.39,0,0,1,0,2A15.63,15.63,0,0,1,1245.15,228.92Zm-8-5.61a13,13,0,0,0,16.07,0A13,13,0,0,0,1237.11,223.31Z"></path>
  <path class="cls-1" d="M1235,250.23h0a14.36,14.36,0,0,1,14.36,14.36v0a0,0,0,0,1,0,0h0A14.36,14.36,0,0,1,1235,250.23v0A0,0,0,0,1,1235,250.23Z" transform="translate(-11.66 450.15) rotate(-20.45)"></path>
  <path class="cls-5" d="M1246.42,263.94a15.78,15.78,0,0,1-14.79-10.26,1.42,1.42,0,0,1,.83-1.82,15.79,15.79,0,0,1,20.28,9.27,1.4,1.4,0,0,1-.83,1.81A15.56,15.56,0,0,1,1246.42,263.94Zm-11.55-9.88a13,13,0,0,0,14.63,6.68,13,13,0,0,0-14.63-6.68Z"></path>
  <path class="cls-1" d="M1241.53,263.64h0A14.36,14.36,0,0,1,1255.89,278v0a0,0,0,0,1,0,0h0a14.36,14.36,0,0,1-14.36-14.36v0A0,0,0,0,1,1241.53,263.64Z" transform="translate(269.57 1091.74) rotate(-52.21)"></path>
  <path class="cls-5" d="M1247.42,276.51a15.72,15.72,0,0,1-9.65-3.3,1.41,1.41,0,0,1-.25-2,15.79,15.79,0,0,1,22.12-2.8,1.41,1.41,0,0,1,.25,2A15.74,15.74,0,0,1,1247.42,276.51Zm-6.69-4.68a13,13,0,0,0,16-2,13,13,0,0,0-16,2Z"></path>
  <path class="cls-1" d="M1250.1,279.87h0a14.36,14.36,0,0,1,14.36,14.36v0a0,0,0,0,1,0,0h0a14.36,14.36,0,0,1-14.36-14.36v0A0,0,0,0,1,1250.1,279.87Z" transform="translate(122.32 899.43) rotate(-41.21)"></path>
  <path class="cls-5" d="M1258,292.69c-.36,0-.71,0-1.07,0a15.72,15.72,0,0,1-10.82-5.34,1.42,1.42,0,0,1,.13-2,15.77,15.77,0,0,1,22.25,1.47,1.4,1.4,0,0,1-.13,2A15.64,15.64,0,0,1,1258,292.69Zm-8.72-6.17a13,13,0,0,0,16,1.06A13,13,0,0,0,1249.26,286.52Z"></path>
  <path class="cls-1" d="M1247.67,297.91h0A14.36,14.36,0,0,1,1262,312.26v0a0,0,0,0,1,0,0h0a14.36,14.36,0,0,1-14.36-14.36v0A0,0,0,0,1,1247.67,297.91Z" transform="translate(63.61 -193.59) rotate(9.05)"></path>
  <path class="cls-5" d="M1260.81,314.71h-.22a15.79,15.79,0,0,1-13.09-18.06,1.4,1.4,0,0,1,1.61-1.17,15.76,15.76,0,0,1,13.09,18.06,1.38,1.38,0,0,1-1.39,1.18Zm-10.68-16.13a13,13,0,0,0,9.44,13,13,13,0,0,0-9.44-13Z"></path>
  <path class="cls-1" d="M1233.14,307.33h0a14.36,14.36,0,0,1,14.36,14.36v0a0,0,0,0,1,0,0h0a14.36,14.36,0,0,1-14.36-14.36v0A0,0,0,0,1,1233.14,307.33Z" transform="translate(1212.12 -964.75) rotate(74.51)"></path>
  <path class="cls-5" d="M1235.31,324.75a1.39,1.39,0,0,1-.69-.18,1.38,1.38,0,0,1-.66-.85,15.77,15.77,0,0,1,11-19.41,1.4,1.4,0,0,1,1.73,1,15.77,15.77,0,0,1-11,19.4A1.2,1.2,0,0,1,1235.31,324.75Zm9-17.24a13,13,0,0,0-7.91,14A13,13,0,0,0,1244.27,307.51Z"></path>
  <path class="cls-1" d="M1228.42,276.14h0a14.36,14.36,0,0,1,14.36,14.36v0a0,0,0,0,1,0,0h0a14.36,14.36,0,0,1-14.36-14.36v0A0,0,0,0,1,1228.42,276.14Z" transform="translate(1095.09 1543.17) rotate(-96.55)"></path>
  <path class="cls-5" d="M1229.28,292.68a1.4,1.4,0,0,1-.87-.31,1.37,1.37,0,0,1-.53-.94A15.8,15.8,0,0,1,1241.75,274a1.42,1.42,0,0,1,1,.3,1.37,1.37,0,0,1,.53.94,15.79,15.79,0,0,1-13.87,17.47ZM1240.59,277a13,13,0,0,0-10,12.59A13,13,0,0,0,1240.59,277Z"></path>
  <path class="cls-1" d="M1226.37,297.24h0a14.36,14.36,0,0,1,14.36,14.36v0a0,0,0,0,1,0,0h0a14.36,14.36,0,0,1-14.36-14.36v0A0,0,0,0,1,1226.37,297.24Z" transform="translate(39.51 738.67) rotate(-33.85)"></path>
  <path class="cls-5" d="M1235.54,310.23a16.15,16.15,0,0,1-3.08-.3,15.66,15.66,0,0,1-10-6.69,1.41,1.41,0,0,1,.38-2,15.79,15.79,0,0,1,21.88,4.31,1.41,1.41,0,0,1-.39,2A15.67,15.67,0,0,1,1235.54,310.23Zm-9.88-7.37a12.95,12.95,0,0,0,15.77,3.11,12.94,12.94,0,0,0-15.77-3.11Z"></path>
  <path class="cls-1" d="M1219.25,258.2h0a14.36,14.36,0,0,1,14.36,14.36v0a0,0,0,0,1,0,0h0a14.36,14.36,0,0,1-14.36-14.36v0A0,0,0,0,1,1219.25,258.2Z" transform="translate(1201.16 1519.93) rotate(-101.06)"></path>
  <path class="cls-5" d="M1220.76,275.21a1.41,1.41,0,0,1-1.38-1.14,15.76,15.76,0,0,1,12.45-18.5,1.41,1.41,0,0,1,1.65,1.11,15.78,15.78,0,0,1-12.45,18.5Zm10.16-16.5a13,13,0,0,0-9,13.33,12.94,12.94,0,0,0,9-13.33Z"></path>
  <path class="cls-1" d="M1250,200.68h0A14.36,14.36,0,0,1,1264.39,215v0a0,0,0,0,1,0,0h0A14.36,14.36,0,0,1,1250,200.68v0A0,0,0,0,1,1250,200.68Z" transform="translate(1465.06 -1049.35) rotate(90)"></path>
  <path class="cls-5" d="M1250,216.44a1.41,1.41,0,0,1-1.41-1.41,15.78,15.78,0,0,1,15.76-15.76,1.41,1.41,0,0,1,1.41,1.41A15.78,15.78,0,0,1,1250,216.44Zm12.86-14.27a13,13,0,0,0-11.37,11.37A13,13,0,0,0,1262.89,202.17Z"></path>
  <path class="cls-1" d="M1192.79,199.1h0a14.36,14.36,0,0,1,14.36,14.36v0a0,0,0,0,1,0,0h0a14.36,14.36,0,0,1-14.36-14.36v0A0,0,0,0,1,1192.79,199.1Z" transform="translate(-11.5 328) rotate(-15.49)"></path>
  <path class="cls-5" d="M1205,213.21a15.79,15.79,0,0,1-15.2-11.55,1.42,1.42,0,0,1,1-1.74,15.75,15.75,0,0,1,19.4,11A1.38,1.38,0,0,1,1210,212a1.41,1.41,0,0,1-.85.66A15.62,15.62,0,0,1,1205,213.21Zm-12-10.89a13,13,0,0,0,14,7.92A13,13,0,0,0,1193,202.32Z"></path>
  <path class="cls-1" d="M1211.16,195.94h0a14.36,14.36,0,0,1,14.36,14.36v0a0,0,0,0,1,0,0h0a14.36,14.36,0,0,1-14.36-14.36v0A0,0,0,0,1,1211.16,195.94Z" transform="translate(348.19 1079.74) rotate(-54.68)"></path>
  <path class="cls-5" d="M1216.6,208.88a15.62,15.62,0,0,1-9.08-2.9,1.41,1.41,0,0,1-.34-2,15.76,15.76,0,0,1,22-3.75,1.41,1.41,0,0,1,.34,2,15.69,15.69,0,0,1-10.22,6.43A16.15,16.15,0,0,1,1216.6,208.88Zm-6.18-4.41a12.93,12.93,0,0,0,15.84-2.7,13,13,0,0,0-15.84,2.7Z"></path>
  <path class="cls-1" d="M1126.75,218.75h0a14.36,14.36,0,0,1,14.36,14.36v0a0,0,0,0,1,0,0h0a14.36,14.36,0,0,1-14.36-14.36v0A0,0,0,0,1,1126.75,218.75Z" transform="translate(2088.34 878.57) rotate(-156.9)"></path>
  <path class="cls-5" d="M1137.72,236.76a1.38,1.38,0,0,1-.56-.12,15.79,15.79,0,0,1-8.32-20.68,1.42,1.42,0,0,1,1.85-.75A15.78,15.78,0,0,1,1139,235.9,1.4,1.4,0,0,1,1137.72,236.76Zm-6.79-18.29a13,13,0,0,0,6,14.91A13,13,0,0,0,1130.93,218.47Z"></path>
  <path class="cls-1" d="M1253.23,347.27h0a14.36,14.36,0,0,1,14.36,14.36v0a0,0,0,0,1,0,0h0a14.36,14.36,0,0,1-14.36-14.36v0A0,0,0,0,1,1253.23,347.27Z"></path>
  <path class="cls-5" d="M1267.59,363a15.79,15.79,0,0,1-15.77-15.77,1.41,1.41,0,0,1,1.41-1.41A15.78,15.78,0,0,1,1269,361.63,1.41,1.41,0,0,1,1267.59,363Zm-12.86-14.27a13,13,0,0,0,11.36,11.36A13,13,0,0,0,1254.73,348.77Z"></path>
  <polygon class="cls-3" points="171.92 857.27 111.18 857.27 122.73 915.16 160.38 915.16 171.92 857.27"></polygon>
  <path class="cls-5" d="M161.53,916.58h-40l-12.11-60.72h64.18Zm-37.65-2.83h35.34l11-55.07H112.9Z"></path>
  <path class="cls-1" d="M159.7,857.17c5.51,0,10-5,11.13-10.44s-.43-11-2.42-16.1c-1.16-3-2.5-6-2.64-9.24s1-6.5,1.4-9.77a23.59,23.59,0,0,0-1.18-11c-1.7-4.74-4.91-8.9-6-13.81-1-4.43-.26-9.07-.59-13.61a7.36,7.36,0,0,0-1.1-3.81,6.12,6.12,0,0,0-2.85-2,13.51,13.51,0,0,0-11.35,1.14,19.73,19.73,0,0,0-7.75,8.66c-2,4.11-3,8.85-6,12.28-2.79,3.15-7.14,4.94-9.05,8.7a14.75,14.75,0,0,0-1.18,6.91c.1,6.68,1.39,13.7-1.31,19.81-1.75,4-5.78,6.77-7,10.92-.06.19-.11.38-.16.57a16.51,16.51,0,0,0,16,20.86Z"></path>
  <path class="cls-5" d="M127.51,858.68a17.91,17.91,0,0,1-14.36-7.12,17.63,17.63,0,0,1-3-15.53c0-.2.11-.4.17-.6a19.41,19.41,0,0,1,4-6.47,21.11,21.11,0,0,0,3.13-4.61c1.94-4.39,1.67-9.31,1.39-14.51-.09-1.55-.18-3.14-.2-4.71a16.14,16.14,0,0,1,1.33-7.56c1.29-2.55,3.49-4.23,5.62-5.85a25.74,25.74,0,0,0,3.64-3.16c1.86-2.1,2.9-4.78,4-7.62.55-1.44,1.13-2.92,1.82-4.34a21.12,21.12,0,0,1,8.32-9.27,14.94,14.94,0,0,1,12.56-1.23,7.49,7.49,0,0,1,3.48,2.47,8.57,8.57,0,0,1,1.36,4.53c.14,1.8.1,3.6.07,5.35a24.61,24.61,0,0,0,3.71,15.72,47.31,47.31,0,0,1,2.78,6,25.07,25.07,0,0,1,1.25,11.65c-.16,1.21-.41,2.4-.65,3.55a17.92,17.92,0,0,0,1.39,13.71l.42,1.06c1.81,4.68,3.73,10.83,2.48,16.89-1.16,5.59-5.93,11.54-12.5,11.57h0l-32.14.1Zm23.6-90.63a13,13,0,0,0-6.36,1.73,18.64,18.64,0,0,0-7.18,8.06c-.64,1.31-1.19,2.73-1.72,4.11-1.14,2.95-2.32,6-4.52,8.48a28.55,28.55,0,0,1-4,3.53c-2,1.5-3.81,2.91-4.81,4.88a13.55,13.55,0,0,0-1,6.25c0,1.51.11,3.08.19,4.59.29,5.31.6,10.8-1.62,15.81a23.46,23.46,0,0,1-3.52,5.24,17,17,0,0,0-3.46,5.52c-.05.18-.11.36-.16.54a14.8,14.8,0,0,0,2.52,13.06,15.11,15.11,0,0,0,12.11,6h0l32.14-.1c4.9,0,8.8-4.76,9.75-9.32,1.1-5.34-.68-11-2.35-15.3l-.41-1a26.73,26.73,0,0,1-2.33-8.64,26.21,26.21,0,0,1,.8-6.67c.24-1.15.47-2.24.61-3.34a22.29,22.29,0,0,0-1.1-10.34,45.87,45.87,0,0,0-2.63-5.63,27.19,27.19,0,0,1-4-17.08c0-1.68.07-3.42-.06-5.08a6.21,6.21,0,0,0-.83-3.08,4.83,4.83,0,0,0-2.21-1.5A10.75,10.75,0,0,0,151.11,768.05Z"></path>
  <path class="cls-1" d="M141.42,857.27a118.79,118.79,0,0,1,4-54.92"></path>
  <path class="cls-5" d="M140,857.56a121.28,121.28,0,0,1,4.08-55.64l2.68.87a118.11,118.11,0,0,0-4,54.2Z"></path>
</svg>
