<?xml version="1.0" encoding="UTF-8"?>
<svg xmlns="http://www.w3.org/2000/svg" id="Layer_1" data-name="Layer 1" viewBox="0 0 1570 1080">
  <defs>
    <style>.cls-1,.cls-5{fill:#fb715d;}.cls-2{fill:#1c19a8;}.cls-3,.cls-4{fill:#ffde00;}.cls-3,.cls-5,.cls-8{fill-rule:evenodd;}.cls-6{fill:#fff;}.cls-7,.cls-8{fill:#00ab81;}</style>
  </defs>
  <rect class="cls-1" x="-28" y="-19.27" width="1625" height="1118.55"></rect>
  <path class="cls-2" d="M1598.41,1100.68H-29.41V-20.68H1598.41Zm-1625-2.82H1595.59V-17.86H-26.59Z"></path>
  <path class="cls-3" d="M1371,675.13a1.07,1.07,0,0,0-.78,1.12v5.54a1,1,0,0,0,.88,1.12h.23a3.82,3.82,0,0,1-.78,1.51,12.73,12.73,0,0,1-2.37,2.07,12.45,12.45,0,0,0-2.75,2.58,8.15,8.15,0,0,0-1.45,4.65V719.6c0,2.7,1.73,4.91,3.82,4.91h20.39c2.1,0,3.82-2.22,3.82-4.91V693.77a8,8,0,0,0-1.42-4.63,12.65,12.65,0,0,0-2.75-2.61,13.41,13.41,0,0,1-2.36-2.09,3.89,3.89,0,0,1-.76-1.52h.28a1,1,0,0,0,.88-1.13l0-5.52a1.32,1.32,0,0,0-.25-.81.79.79,0,0,0-.62-.33h-14Z"></path>
  <rect class="cls-4" x="1283.47" y="581.29" width="29.33" height="33"></rect>
  <rect class="cls-4" x="1328.78" y="581.29" width="29.33" height="33"></rect>
  <rect class="cls-4" x="1319.87" y="785.28" width="29.33" height="33"></rect>
  <rect class="cls-4" x="1382.46" y="785.28" width="29.33" height="33"></rect>
  <path class="cls-3" d="M1291.87,675.13a1.07,1.07,0,0,0-.78,1.12v5.54a1,1,0,0,0,.88,1.12h.23a3.7,3.7,0,0,1-.78,1.51,13,13,0,0,1-2.36,2.07,12.28,12.28,0,0,0-2.76,2.58,8.15,8.15,0,0,0-1.45,4.65V719.6c0,2.7,1.73,4.91,3.82,4.91h20.39c2.1,0,3.82-2.22,3.82-4.91V693.77a8,8,0,0,0-1.42-4.63,12.43,12.43,0,0,0-2.75-2.61,13,13,0,0,1-2.35-2.09,3.78,3.78,0,0,1-.77-1.52h.29a1,1,0,0,0,.87-1.13l0-5.52a1.26,1.26,0,0,0-.25-.81.79.79,0,0,0-.62-.33h-14.05Z"></path>
  <path class="cls-5" d="M1367.76,724.51c-2.09,0-3.81-2.21-3.81-4.91V693.72a8.08,8.08,0,0,1,1.45-4.65,12,12,0,0,1,2.75-2.58,13.06,13.06,0,0,0,2.37-2.07,4,4,0,0,0,.78-1.51h-.23a1,1,0,0,1-.88-1.12v-5.54a1,1,0,0,1,.78-1.12h10.76v-.41a14.6,14.6,0,0,0-2.6-8.45,22.62,22.62,0,0,0-5-4.77,23.75,23.75,0,0,1-4.29-3.8,6.94,6.94,0,0,1-1.4-2.79h.53a1.85,1.85,0,0,0,1.59-2l.08-10.08a2.36,2.36,0,0,0-.46-1.47,1.45,1.45,0,0,0-1.14-.61h-25.61a1.93,1.93,0,0,0-1.43,2v10.11a1.86,1.86,0,0,0,1.6,2h.42a7,7,0,0,1-1.42,2.75,23.59,23.59,0,0,1-4.32,3.78,22.19,22.19,0,0,0-5,4.7,14.83,14.83,0,0,0-2.64,8.48v47.22c0,4.91,3.14,9,7,9h37.2c3.09,0,5.64-2.69,6.54-6.29Z"></path>
  <path class="cls-2" d="M1388.15,727.18h-20.39c-3.57,0-6.48-3.4-6.48-7.57V693.74a10.79,10.79,0,0,1,2-6.24,15,15,0,0,1,3.31-3.15c.45-.33.91-.67,1.29-1a3.85,3.85,0,0,1-.32-1.56v-5.54a3.68,3.68,0,0,1,3.06-3.76l.38,0h14a3.46,3.46,0,0,1,2.73,1.37,4.06,4.06,0,0,1,.81,2.44l0,5.54a4,4,0,0,1-.33,1.58,14.65,14.65,0,0,0,1.23,1,15.16,15.16,0,0,1,3.3,3.18,10.68,10.68,0,0,1,1.93,6.16v25.87C1394.64,723.78,1391.72,727.18,1388.15,727.18Zm-15.3-46.33a3.42,3.42,0,0,1,.43.42,2.75,2.75,0,0,1,.6,2.29,6.42,6.42,0,0,1-1.28,2.52,15,15,0,0,1-2.85,2.55,9.7,9.7,0,0,0-2.19,2,5.34,5.34,0,0,0-1,3.14v25.84c0,1.36.76,2.23,1.15,2.23h20.39c.39,0,1.15-.87,1.15-2.23V693.79a5.34,5.34,0,0,0-.92-3.1,10.2,10.2,0,0,0-2.19-2,15,15,0,0,1-2.84-2.56,6.51,6.51,0,0,1-1.27-2.57,2.69,2.69,0,0,1,.5-2.26,3.17,3.17,0,0,1,.6-.56l0-2.9h-10.35Zm10.32.92v0Zm-12.11-1.52h0Z"></path>
  <path class="cls-2" d="M1374.76,733.47h-37.2c-5.31,0-9.63-5.22-9.63-11.63V674.65a17.66,17.66,0,0,1,3.15-10.07,24.29,24.29,0,0,1,5.59-5.27,23.45,23.45,0,0,0,3.8-3.27,4.8,4.8,0,0,1-1.16-3.17V642.76a4.57,4.57,0,0,1,3.73-4.69,4.69,4.69,0,0,1,.84,0l25.14,0a4.08,4.08,0,0,1,3.25,1.66,5,5,0,0,1,1,3.12l-.08,10.07a5,5,0,0,1-1.21,3.27,22.66,22.66,0,0,0,3.59,3.11,26,26,0,0,1,5.7,5.44,17.36,17.36,0,0,1,3.11,10,3.16,3.16,0,0,1-.78,2.11,2.87,2.87,0,0,1-1.89,1h-8.87v3.05a3.42,3.42,0,0,1,.43.42,2.75,2.75,0,0,1,.6,2.29,6.31,6.31,0,0,1-1.29,2.52,14.54,14.54,0,0,1-2.86,2.55,9.73,9.73,0,0,0-2.18,2,5.38,5.38,0,0,0-.94,3.14v25.84c0,1.36.75,2.23,1.14,2.23h13.54a2.68,2.68,0,0,1,2.59,3.32C1382.65,730.13,1379,733.47,1374.76,733.47Zm-30.11-81a2.65,2.65,0,0,1,1.24.83,2.78,2.78,0,0,1,.7,2.29,9.42,9.42,0,0,1-1.93,3.77,26.25,26.25,0,0,1-4.8,4.25,19.64,19.64,0,0,0-4.45,4.12,12.15,12.15,0,0,0-2.15,7v47.17c0,3.35,2,6.29,4.3,6.29h37.2a3.16,3.16,0,0,0,2.15-1h-9.15c-3.57,0-6.48-3.4-6.48-7.57V693.74a11,11,0,0,1,2-6.23,15,15,0,0,1,3.32-3.15c.44-.32.91-.68,1.3-1a3.89,3.89,0,0,1-.33-1.56v-5.54a3.7,3.7,0,0,1,3.08-3.76l8.23,0a11.06,11.06,0,0,0-1.86-4.64,20.53,20.53,0,0,0-4.47-4.2,26.08,26.08,0,0,1-4.78-4.29,9.66,9.66,0,0,1-1.9-3.82,2.67,2.67,0,0,1,.51-2.26,2.71,2.71,0,0,1,1.55-1l.06-8.92h-23.29Zm26.42,27.81Zm1.79-4v0Z"></path>
  <rect class="cls-2" x="1261.57" y="816.65" width="161.76" height="10.87"></rect>
  <path class="cls-2" d="M1426,830.22H1258.87V814H1426Zm-161.77-5.39h156.38v-5.49H1264.26Z"></path>
  <rect class="cls-2" x="1261.57" y="612.5" width="161.76" height="10.87"></rect>
  <path class="cls-2" d="M1426,626.07H1258.87V609.81H1426Zm-161.77-5.39h156.38V615.2H1264.26Z"></path>
  <rect class="cls-2" x="1261.57" y="514.18" width="161.76" height="10.87"></rect>
  <path class="cls-2" d="M1426,527.74H1258.87V511.48H1426Zm-161.77-5.39h156.38v-5.48H1264.26Z"></path>
  <path class="cls-2" d="M1315.49,617h-34.72V578.59h34.72Zm-29.33-5.39h23.94V584h-23.94Z"></path>
  <path class="cls-2" d="M1360.81,617h-34.73V578.59h34.73Zm-29.34-5.39h24V584h-24Z"></path>
  <path class="cls-2" d="M1351.9,821h-34.72V782.59h34.72Zm-29.33-5.39h23.94V788h-23.94Z"></path>
  <path class="cls-2" d="M1414.49,821h-34.72V782.59h34.72Zm-29.33-5.39h23.94V788h-23.94Z"></path>
  <path class="cls-2" d="M1309.06,727.18h-20.38c-3.58,0-6.49-3.4-6.49-7.57V693.74a10.87,10.87,0,0,1,2-6.23,14.94,14.94,0,0,1,3.31-3.15c.43-.31.9-.67,1.3-1a3.89,3.89,0,0,1-.32-1.56v-5.54a3.7,3.7,0,0,1,3.07-3.76,2.43,2.43,0,0,1,.38,0h14a3.44,3.44,0,0,1,2.73,1.37,3.93,3.93,0,0,1,.81,2.5l0,5.47a4.05,4.05,0,0,1-.33,1.6,12.76,12.76,0,0,0,1.15.94,15.52,15.52,0,0,1,3.38,3.24,10.8,10.8,0,0,1,1.93,6.16v25.87C1315.55,723.78,1312.64,727.18,1309.06,727.18Zm-15.3-46.33a2.45,2.45,0,0,1,.43.42,2.75,2.75,0,0,1,.61,2.29,6.44,6.44,0,0,1-1.29,2.52,15.18,15.18,0,0,1-2.86,2.55,10,10,0,0,0-2.19,2,5.45,5.45,0,0,0-.94,3.14v25.84c0,1.36.76,2.23,1.16,2.23h20.38c.4,0,1.16-.87,1.16-2.23V693.79a5.44,5.44,0,0,0-.93-3.1,9.92,9.92,0,0,0-2.2-2,15.34,15.34,0,0,1-2.84-2.57,6.55,6.55,0,0,1-1.26-2.59,2.64,2.64,0,0,1,.52-2.25,3,3,0,0,1,.59-.54l0-2.9h-10.36Zm10.33.93h0ZM1292,680.25h0Zm12.15-4v0Zm-10.36,0v0Z"></path>
  <rect class="cls-2" x="1261.57" y="724.51" width="161.76" height="10.87"></rect>
  <path class="cls-2" d="M1426,738.08H1258.87V721.82H1426Zm-161.77-5.39h156.38v-5.48H1264.26Z"></path>
  <rect class="cls-2" x="1257.46" y="511.48" width="2.82" height="405.77"></rect>
  <rect class="cls-2" x="1424.62" y="511.48" width="2.82" height="405.77"></rect>
  <rect class="cls-4" x="267.81" y="227.87" width="1008" height="690.2"></rect>
  <path class="cls-2" d="M1277.22,919.48H266.4v-693H1277.22Zm-1008-2.82H1274.4V229.28H269.22Z"></path>
  <rect class="cls-2" x="267.81" y="276.6" width="1008" height="2.82"></rect>
  <rect class="cls-4" x="358.11" y="241.87" width="21" height="21" rx="10.5"></rect>
  <path class="cls-2" d="M368.61,264.28a11.91,11.91,0,1,1,11.91-11.91A11.92,11.92,0,0,1,368.61,264.28Zm0-21a9.09,9.09,0,1,0,9.09,9.09A9.1,9.1,0,0,0,368.61,243.28Z"></path>
  <rect class="cls-4" x="321.71" y="242.57" width="21" height="21" rx="10.5"></rect>
  <path class="cls-2" d="M332.21,265a11.91,11.91,0,1,1,11.91-11.91A11.92,11.92,0,0,1,332.21,265Zm0-21a9.09,9.09,0,1,0,9.09,9.09A9.1,9.1,0,0,0,332.21,244Z"></path>
  <rect class="cls-4" x="285.31" y="243.27" width="21" height="21" rx="10.5"></rect>
  <path class="cls-2" d="M295.81,265.68a11.91,11.91,0,1,1,11.91-11.91A11.92,11.92,0,0,1,295.81,265.68Zm0-21a9.09,9.09,0,1,0,9.09,9.09A9.1,9.1,0,0,0,295.81,244.68Z"></path>
  <path class="cls-2" d="M420.21,557.65l48.5-39.31h-47.6V496.5H481.7v16.91l-47.6,39.65h47.49V574.9H420.21Z"></path>
  <path class="cls-2" d="M489,496.5h59v21.84H494.69V526h52.08v18.25H494.69v8.85H548V574.9H489Z"></path>
  <path class="cls-2" d="M608.26,545.67l11,29.23h-20.6l-10.19-26.65H562.56V574.9h-5.71V496.5h34.94c13.11,0,30.47,3.14,30.47,25.65C622.26,535.81,616,542.53,608.26,545.67Zm-45.7-18.14h26.88c24.75,0,29.35,0,29.35-5.38s-5.94-4.93-29.35-4.93H562.56Z"></path>
  <path class="cls-2" d="M626.4,535.7c0-25.2,13.78-40.88,37.41-40.88s37.3,15.68,37.3,40.88-13.78,40.88-37.3,40.88S626.4,560.9,626.4,535.7Zm70.11,0c0-8.62-6.94-19.49-32.7-19.49S631,527.08,631,535.7s7.06,19.49,32.82,19.49S696.51,544.33,696.51,535.7Z"></path>
  <path class="cls-2" d="M729.44,496.5h6.61l23.18,65.07,22.29-65.07h6.61l23.18,65.07,22.4-65.07h24.42l-27.89,78.4H809.52l-15.68-44-15.68,44H757.44Z"></path>
  <path class="cls-2" d="M875.6,496.5h23.63l29,78.4h-24l-4-11.76H858.13l-3.92,11.76h-6.94Zm17.92,47-14.11-40.88-14.67,40.88Z"></path>
  <path class="cls-2" d="M926,545.11h4.59c0,6.38,10.42,10.08,28,10.08,18.71,0,29.8-2.91,29.8-7.84,0-11.87-62.39,8.51-61.83-28.22.23-15.24,12.43-24.31,32.82-24.31,20,0,31.92,10.64,31.92,28.56h-4.59c0-4.48-10.53-7.17-28.45-7.17-17,0-27.11,1.91-27.11,5.16,0,13.1,61.83-4.26,61.83,27.21,0,17.59-12.32,28-33.27,28C938.55,576.58,926,564.93,926,545.11Z"></path>
  <path class="cls-2" d="M1024.56,518.34h-29.9V496.5h65.63v21.84h-30V574.9h-5.71Z"></path>
  <path class="cls-2" d="M1064.43,496.5h59v21.84h-53.31V526h52.08v18.25h-52.08v8.85h53.31V574.9h-59Z"></path>
  <path class="cls-2" d="M640.23,630.9h34.95c13.1,0,30.46,3.14,30.46,25.65,0,22.85-17.36,26.1-30.46,26.1H646V709.3h-5.72Zm32.6,31c24.75,0,29.34,0,29.34-5.38s-5.94-4.93-29.34-4.93H646v10.31Z"></path>
  <path class="cls-2" d="M725,630.9h23.63l29,78.4h-24l-4-11.76H707.55l-3.92,11.76h-7Zm17.92,47-14.11-40.88-14.67,40.88Z"></path>
  <path class="cls-2" d="M795.8,652.74H765.9V630.9h65.63v21.84h-30V709.3H795.8Z"></path>
  <path class="cls-2" d="M835.68,630.9h5.71v27.67h57.68V630.9h5.71v78.4h-5.71V680.41H841.39V709.3h-5.71Z"></path>
  <path class="cls-6" d="M1003.07,755.31,960,730.06a3.5,3.5,0,0,0-3.92.12,3.71,3.71,0,0,0-1.52,3.64L963.24,783a3.64,3.64,0,0,0,6.51,1.59l7.3-9.39,9.5,13.73a3.33,3.33,0,0,0,2.38,1.46,3.71,3.71,0,0,0,1,.08,4,4,0,0,0,1.73-.62l8-5.53a3.66,3.66,0,0,0,.92-5.1l-9.49-13.73,11.18-3.61a3.73,3.73,0,0,0,2.55-3.12A3.67,3.67,0,0,0,1003.07,755.31Z"></path>
  <path class="cls-2" d="M989.71,791.93a4.85,4.85,0,0,1-.82-.08l-.17,0a4.76,4.76,0,0,1-3.37-2.1L977,777.62l-6.11,7.88a5.26,5.26,0,0,1-5.23,1.87,5.2,5.2,0,0,1-3.79-4.1l-8.71-49.21a5.1,5.1,0,0,1,2.09-5,5,5,0,0,1,5.49-.17l43,25.23a5,5,0,0,1,2.48,4.85,5.17,5.17,0,0,1-3.56,4.33l-9.34,3,8.42,12.17a5.07,5.07,0,0,1,.83,3.79,5,5,0,0,1-2.12,3.27l-8,5.53a5.46,5.46,0,0,1-2.39.86A2.11,2.11,0,0,1,989.71,791.93Zm-12.66-18.1h0a1.41,1.41,0,0,1,1.12.61l9.5,13.72a2,2,0,0,0,1.45.88l.17,0a2.24,2.24,0,0,0,.45,0,2.74,2.74,0,0,0,1.12-.41l8-5.5a2.29,2.29,0,0,0,.93-1.45,2.25,2.25,0,0,0-.37-1.7L990,766.33a1.39,1.39,0,0,1-.18-1.25,1.38,1.38,0,0,1,.9-.89l11.18-3.61a2.38,2.38,0,0,0,1.6-2,2.24,2.24,0,0,0-1.07-2.06h0l-43.1-25.25a2.11,2.11,0,0,0-2.4.05,2.31,2.31,0,0,0-.94,2.26l8.71,49.21a2.23,2.23,0,0,0,4,.94l7.28-9.37A1.41,1.41,0,0,1,977.05,773.83Z"></path>
  <polygon class="cls-4" points="256.38 774.58 219.91 774.58 226.84 809.34 249.45 809.34 256.38 774.58"></polygon>
  <path class="cls-2" d="M249.45,810.75H226.84a1.4,1.4,0,0,1-1.38-1.13l-6.94-34.77a1.41,1.41,0,0,1,1.39-1.68h36.47a1.43,1.43,0,0,1,1.09.51,1.38,1.38,0,0,1,.29,1.17l-6.93,34.77A1.4,1.4,0,0,1,249.45,810.75ZM228,807.93h20.29L254.66,776h-33Z"></path>
  <path class="cls-7" d="M244.55,774.58h5.14c.41-1.09.9-3.61,1.51-4.59,1.16-1.86,2.66-3.5,3.63-5.46,2.12-4.25,1.48-9.3.79-14l-10,6.79-.15.24a34.71,34.71,0,0,0-.81-14.67c-1.37-4.66-3.63-9-4.66-13.79s-2.38-10.07-.74-14.8c-4.62,5.25-5.67,12.79-5.1,19.77.21,2.71.56,5.38.89,8.06l-1.41-1.85a37.54,37.54,0,0,1-8.15-27c-1.91,9.89-5.79,18.74-2.33,28.19,1.53,4.19,3.82,11.3,5.64,15.37.12.27.27.56.41.84-.93-.38-1.9-.7-2.84-1A41.35,41.35,0,0,1,215,750.46c1.12,4.72,5.18,8.07,7.72,12.21a22.9,22.9,0,0,1,3,11.91h18.86"></path>
  <path class="cls-2" d="M249.69,776h-24a1.42,1.42,0,0,1-1.41-1.45,21.56,21.56,0,0,0-2.79-11.13,41.3,41.3,0,0,0-2.92-4c-2-2.58-4.17-5.25-5-8.64a1.41,1.41,0,0,1,.6-1.51,1.43,1.43,0,0,1,1.63.07,39.62,39.62,0,0,0,10.78,5.87c-1.05-2.63-2.17-5.86-3.18-8.78-.58-1.66-1.12-3.22-1.59-4.5-2.81-7.69-1.07-14.81.78-22.36.52-2.13,1.06-4.35,1.49-6.57a1.43,1.43,0,0,1,1.59-1.13,1.41,1.41,0,0,1,1.2,1.53A36,36,0,0,0,233,737.12c-.1-1-.2-2-.28-2.94-.49-6.1.05-14.67,5.45-20.81a1.41,1.41,0,0,1,2.39,1.39c-1.4,4-.39,8.64.58,13.08l.21,1a53.23,53.23,0,0,0,2.56,7.82c.73,1.9,1.48,3.86,2.08,5.87a33.94,33.94,0,0,1,1.18,12l7.62-5.18a1.42,1.42,0,0,1,2.19,1c.8,5.49,1.29,10.39-.92,14.84a24.56,24.56,0,0,1-2.27,3.51c-.52.71-1,1.37-1.43,2.06a14.2,14.2,0,0,0-.87,2.6c-.18.66-.35,1.29-.52,1.74A1.43,1.43,0,0,1,249.69,776Zm-22.6-2.82h21.56c0-.19.11-.39.16-.59a14.3,14.3,0,0,1,1.19-3.34c.49-.78,1-1.52,1.55-2.23a22.52,22.52,0,0,0,2-3.11c1.57-3.15,1.48-6.83,1-10.93l-7.87,5.35a1.41,1.41,0,0,1-2.59-1,33,33,0,0,0-.76-14.08c-.56-1.9-1.29-3.81-2-5.65a56.31,56.31,0,0,1-2.69-8.24l-.21-1a52.55,52.55,0,0,1-1.3-7.84A31.06,31.06,0,0,0,235.57,734c.2,2.43.5,4.89.8,7.26l.09.75a1.41,1.41,0,0,1-2.52,1l-1.41-1.85a38.62,38.62,0,0,1-8-17.47c-1.35,5.87-2.16,11.52,0,17.3.47,1.29,1,2.86,1.6,4.53,1.3,3.74,2.77,8,4,10.75.07.17.16.35.25.52l.14.27a1.42,1.42,0,0,1-1.81,1.93c-.72-.3-1.46-.56-2.2-.81l-.57-.2a43,43,0,0,1-7.56-3.52c.73,1.08,1.57,2.14,2.43,3.23a41.52,41.52,0,0,1,3.11,4.26A23.92,23.92,0,0,1,227.09,773.17Z"></path>
  <path class="cls-1" d="M269.17,666.86a32.33,32.33,0,1,0-64.66,0h-14v21.57h92.75V666.86Z"></path>
  <path class="cls-2" d="M283.22,689.84H190.47a1.41,1.41,0,0,1-1.41-1.41V666.86a1.41,1.41,0,0,1,1.41-1.41h12.66a33.74,33.74,0,0,1,67.43,0h12.66a1.41,1.41,0,0,1,1.41,1.41v21.57A1.41,1.41,0,0,1,283.22,689.84ZM191.88,687h89.93V668.27H269.17a1.41,1.41,0,0,1-1.41-1.41,30.92,30.92,0,0,0-61.84,0,1.41,1.41,0,0,1-1.41,1.41H191.88Z"></path>
  <rect class="cls-1" x="197.49" y="875.85" width="78.71" height="20.18"></rect>
  <path class="cls-2" d="M276.2,897.44H197.49a1.41,1.41,0,0,1-1.41-1.41V875.85a1.41,1.41,0,0,1,1.41-1.41H276.2a1.41,1.41,0,0,1,1.41,1.41V896A1.41,1.41,0,0,1,276.2,897.44Zm-77.3-2.82h75.89V877.26H198.9Z"></path>
  <rect class="cls-1" x="197.49" y="809.7" width="78.71" height="20.18"></rect>
  <path class="cls-2" d="M276.2,831.29H197.49a1.41,1.41,0,0,1-1.41-1.41V809.7a1.41,1.41,0,0,1,1.41-1.41H276.2a1.42,1.42,0,0,1,1.41,1.41v20.18A1.41,1.41,0,0,1,276.2,831.29Zm-77.3-2.82h75.89V811.11H198.9Z"></path>
  <polygon class="cls-1" points="197.49 896.03 197.49 875.85 204.51 875.85 204.51 829.88 197.49 829.88 197.49 809.7 204.51 809.7 204.51 759.62 197.49 759.62 197.49 739.44 204.51 739.44 204.51 688.43 190.47 688.43 190.47 918.07 204.51 918.07 204.51 896.03 197.49 896.03"></polygon>
  <path class="cls-2" d="M204.51,919.48h-14a1.41,1.41,0,0,1-1.41-1.41V688.43a1.41,1.41,0,0,1,1.41-1.41h14a1.41,1.41,0,0,1,1.41,1.41v51a1.41,1.41,0,0,1-1.41,1.41H198.9v17.36h5.61a1.41,1.41,0,0,1,1.41,1.41V809.7a1.41,1.41,0,0,1-1.41,1.41H198.9v17.36h5.61a1.41,1.41,0,0,1,1.41,1.41v46a1.41,1.41,0,0,1-1.41,1.41H198.9v17.36h5.61a1.41,1.41,0,0,1,1.41,1.41v22A1.41,1.41,0,0,1,204.51,919.48Zm-12.63-2.82H203.1V897.44h-5.61a1.41,1.41,0,0,1-1.41-1.41V875.85a1.41,1.41,0,0,1,1.41-1.41h5.61V831.29h-5.61a1.41,1.41,0,0,1-1.41-1.41V809.7a1.41,1.41,0,0,1,1.41-1.41h5.61V761h-5.61a1.41,1.41,0,0,1-1.41-1.41V739.44a1.41,1.41,0,0,1,1.41-1.41h5.61V689.84H191.88Z"></path>
  <polygon class="cls-1" points="269.17 688.43 269.17 739.44 276.19 739.44 276.19 759.62 269.17 759.62 269.17 809.7 276.19 809.7 276.19 829.88 269.17 829.88 269.17 875.85 276.19 875.85 276.19 896.03 269.17 896.03 269.17 918.07 283.21 918.07 283.21 688.43 269.17 688.43"></polygon>
  <path class="cls-2" d="M283.21,919.48h-14a1.41,1.41,0,0,1-1.41-1.41V896a1.41,1.41,0,0,1,1.41-1.41h5.61V877.26h-5.61a1.41,1.41,0,0,1-1.41-1.41v-46a1.41,1.41,0,0,1,1.41-1.41h5.61V811.11h-5.61a1.41,1.41,0,0,1-1.41-1.41V759.62a1.41,1.41,0,0,1,1.41-1.41h5.61V740.85h-5.61a1.41,1.41,0,0,1-1.41-1.41v-51a1.41,1.41,0,0,1,1.41-1.41h14a1.41,1.41,0,0,1,1.41,1.41V918.07A1.41,1.41,0,0,1,283.21,919.48Zm-12.63-2.82H281.8V689.84H270.58V738h5.61a1.41,1.41,0,0,1,1.41,1.41v20.18a1.41,1.41,0,0,1-1.41,1.41h-5.61v47.26h5.61a1.41,1.41,0,0,1,1.41,1.41v20.18a1.41,1.41,0,0,1-1.41,1.41h-5.61v43.15h5.61a1.41,1.41,0,0,1,1.41,1.41V896a1.41,1.41,0,0,1-1.41,1.41h-5.61Z"></path>
  <path class="cls-1" d="M243.76,739.44c.36,1,.71,2,1,3a35.11,35.11,0,0,1,.82,14.86l.15-.25,10.11-6.88a37.18,37.18,0,0,1,.47,9.46h19.87V739.44Z"></path>
  <path class="cls-2" d="M276.19,761H256.32a1.4,1.4,0,0,1-1.4-1.57,30.29,30.29,0,0,0-.16-6.85l-8,5.43a1.41,1.41,0,0,1-1.67.57,1.39,1.39,0,0,1-.92-1.51,33.55,33.55,0,0,0-.77-14.27c-.3-1-.65-2-1-2.91a1.42,1.42,0,0,1,1.33-1.89h32.43a1.41,1.41,0,0,1,1.41,1.41v20.18A1.41,1.41,0,0,1,276.19,761Zm-18.35-2.82h16.94V740.85h-29c.13.39.25.78.37,1.18a34.24,34.24,0,0,1,1.2,12.23l7.74-5.26a1.41,1.41,0,0,1,2.19,1A43.35,43.35,0,0,1,257.84,758.21Z"></path>
  <path class="cls-1" d="M214.7,750.09a41.71,41.71,0,0,0,11.55,6.25c.95.34,1.93.66,2.87,1-.13-.29-.29-.58-.41-.86-1.84-4.11-4.16-11.32-5.71-15.56-.19-.51-.28-1-.42-1.53H197.49v20.18h23C218.17,756.61,215.56,753.75,214.7,750.09Z"></path>
  <path class="cls-2" d="M220.51,761h-23a1.41,1.41,0,0,1-1.41-1.41V739.44a1.41,1.41,0,0,1,1.41-1.41h25.09a1.4,1.4,0,0,1,1.35,1c.06.21.11.41.16.62s.13.54.23.82c.48,1.31,1,2.9,1.62,4.59,1.31,3.79,2.8,8.08,4.06,10.88.07.17.16.35.25.53l.14.28a1.4,1.4,0,0,1-.24,1.58,1.39,1.39,0,0,1-1.56.34c-.73-.3-1.51-.57-2.26-.83l-.55-.19a42.83,42.83,0,0,1-7.73-3.61c.76,1.14,1.63,2.24,2.53,3.38.35.43.7.87,1,1.32a1.39,1.39,0,0,1,.15,1.48A1.41,1.41,0,0,1,220.51,761Zm-21.61-2.82h18.7a20.48,20.48,0,0,1-4.27-7.79,1.4,1.4,0,0,1,.6-1.51,1.43,1.43,0,0,1,1.63.06,40.2,40.2,0,0,0,10.95,6c-1.06-2.68-2.2-6-3.23-8.93-.59-1.68-1.13-3.26-1.61-4.55-.07-.2-.13-.41-.19-.61H198.9Z"></path>
  <rect class="cls-4" x="296.48" y="785.11" width="32.7" height="32.7" rx="16.35"></rect>
  <path class="cls-2" d="M312.83,819.22a17.76,17.76,0,1,1,17.76-17.76A17.78,17.78,0,0,1,312.83,819.22Zm0-32.7a14.94,14.94,0,1,0,14.94,14.94A15,15,0,0,0,312.83,786.52Z"></path>
  <rect class="cls-4" x="335.9" y="773.81" width="32.7" height="32.7" rx="16.35"></rect>
  <path class="cls-2" d="M352.25,807.92A17.76,17.76,0,1,1,370,790.16,17.78,17.78,0,0,1,352.25,807.92Zm0-32.7a14.94,14.94,0,1,0,14.94,14.94A15,15,0,0,0,352.25,775.22Z"></path>
  <rect class="cls-4" x="308.17" y="800.52" width="32.7" height="32.7" rx="16.35"></rect>
  <path class="cls-2" d="M324.52,834.63a17.76,17.76,0,1,1,17.76-17.76A17.78,17.78,0,0,1,324.52,834.63Zm0-32.7a14.94,14.94,0,1,0,14.94,14.94A15,15,0,0,0,324.52,801.93Z"></path>
  <rect class="cls-4" x="347.6" y="789.22" width="32.7" height="32.7" rx="16.35"></rect>
  <path class="cls-2" d="M364,823.33a17.76,17.76,0,1,1,17.76-17.76A17.78,17.78,0,0,1,364,823.33Zm0-32.7a14.94,14.94,0,1,0,14.94,14.94A15,15,0,0,0,364,790.63Z"></path>
  <rect class="cls-4" x="363.09" y="836.52" width="32.7" height="32.7" rx="16.35"></rect>
  <path class="cls-2" d="M379.44,870.63a17.76,17.76,0,1,1,17.76-17.76A17.78,17.78,0,0,1,379.44,870.63Zm0-32.7a14.94,14.94,0,1,0,14.94,14.94A15,15,0,0,0,379.44,837.93Z"></path>
  <rect class="cls-4" x="337.11" y="809.45" width="32.7" height="32.7" rx="16.35"></rect>
  <path class="cls-2" d="M353.46,843.56a17.76,17.76,0,1,1,17.76-17.76A17.78,17.78,0,0,1,353.46,843.56Zm0-32.7A14.94,14.94,0,1,0,368.4,825.8,15,15,0,0,0,353.46,810.86Z"></path>
  <rect class="cls-4" x="317.98" y="787.87" width="32.7" height="32.7" rx="16.35"></rect>
  <path class="cls-2" d="M334.33,822a17.76,17.76,0,1,1,17.76-17.76A17.78,17.78,0,0,1,334.33,822Zm0-32.7a14.94,14.94,0,1,0,14.94,14.94A15,15,0,0,0,334.33,789.28Z"></path>
  <rect class="cls-4" x="338.28" y="833.56" width="32.7" height="32.7" rx="16.35"></rect>
  <path class="cls-2" d="M354.63,867.67a17.76,17.76,0,1,1,17.76-17.76A17.78,17.78,0,0,1,354.63,867.67Zm0-32.7a14.94,14.94,0,0,0,0,29.88h0a14.94,14.94,0,0,0,0-29.88Z"></path>
  <rect class="cls-4" x="283.32" y="820.17" width="32.7" height="32.7" rx="16.35"></rect>
  <path class="cls-2" d="M299.67,854.28a17.76,17.76,0,1,1,17.76-17.76A17.78,17.78,0,0,1,299.67,854.28Zm0-32.7a14.94,14.94,0,1,0,14.94,14.94A15,15,0,0,0,299.67,821.58Z"></path>
  <rect class="cls-4" x="290.04" y="842.16" width="32.7" height="32.7" rx="16.35"></rect>
  <path class="cls-2" d="M306.39,876.27a17.76,17.76,0,1,1,17.76-17.76A17.78,17.78,0,0,1,306.39,876.27Zm0-32.7a14.94,14.94,0,1,0,14.94,14.94A15,15,0,0,0,306.39,843.57Z"></path>
  <rect class="cls-4" x="316.54" y="828.1" width="32.7" height="32.7" rx="16.35"></rect>
  <path class="cls-2" d="M332.89,862.21a17.76,17.76,0,1,1,17.76-17.76A17.78,17.78,0,0,1,332.89,862.21Zm0-32.7a14.94,14.94,0,1,0,14.94,14.94A15,15,0,0,0,332.89,829.51Z"></path>
  <rect class="cls-4" x="314.34" y="846.73" width="32.7" height="32.7" rx="16.35"></rect>
  <path class="cls-2" d="M330.69,880.84a17.76,17.76,0,1,1,17.76-17.76A17.78,17.78,0,0,1,330.69,880.84Zm0-32.7a14.94,14.94,0,1,0,14.94,14.94A15,15,0,0,0,330.69,848.14Z"></path>
  <rect class="cls-4" x="345.32" y="858.51" width="32.7" height="32.7" rx="16.35"></rect>
  <path class="cls-2" d="M361.67,892.62a17.76,17.76,0,1,1,17.76-17.76A17.78,17.78,0,0,1,361.67,892.62Zm0-32.7a14.94,14.94,0,1,0,14.94,14.94A15,15,0,0,0,361.67,859.92Z"></path>
  <rect class="cls-4" x="361.67" y="877.25" width="32.7" height="32.7" rx="16.35"></rect>
  <path class="cls-2" d="M378,911.36a17.76,17.76,0,1,1,17.76-17.76A17.78,17.78,0,0,1,378,911.36Zm0-32.7A14.94,14.94,0,1,0,393,893.6,15,15,0,0,0,378,878.66Z"></path>
  <rect class="cls-4" x="338.28" y="879.02" width="32.7" height="32.7" rx="16.35"></rect>
  <path class="cls-2" d="M354.63,913.13a17.76,17.76,0,1,1,17.76-17.76A17.78,17.78,0,0,1,354.63,913.13Zm0-32.7a14.94,14.94,0,0,0,0,29.88h0a14.94,14.94,0,0,0,0-29.88Z"></path>
  <rect class="cls-4" x="312.62" y="879.02" width="32.7" height="32.7" rx="16.35"></rect>
  <path class="cls-2" d="M329,913.13a17.76,17.76,0,1,1,17.76-17.76A17.78,17.78,0,0,1,329,913.13Zm0-32.7a14.94,14.94,0,1,0,14.94,14.94A15,15,0,0,0,329,880.43Z"></path>
  <rect class="cls-4" x="291.42" y="879.02" width="32.7" height="32.7" rx="16.35"></rect>
  <path class="cls-2" d="M307.77,913.13a17.76,17.76,0,1,1,17.76-17.76A17.78,17.78,0,0,1,307.77,913.13Zm0-32.7a14.94,14.94,0,1,0,14.94,14.94A15,15,0,0,0,307.77,880.43Z"></path>
  <polygon class="cls-7" points="279.86 848.93 279.86 864.09 279.86 918.07 296.34 918.07 296.34 864.09 288.1 848.93 279.86 848.93"></polygon>
  <path class="cls-2" d="M296.34,919.48H279.86a1.41,1.41,0,0,1-1.41-1.41V848.93a1.41,1.41,0,0,1,1.41-1.41h8.24a1.4,1.4,0,0,1,1.24.74l8.24,15.16a1.42,1.42,0,0,1,.17.67v54A1.41,1.41,0,0,1,296.34,919.48Zm-15.07-2.82h13.66V864.45l-7.67-14.11h-6Z"></path>
  <polygon class="cls-7" points="392.43 848.93 384.19 864.09 384.19 918.07 400.67 918.07 400.67 864.09 400.67 848.93 392.43 848.93"></polygon>
  <path class="cls-2" d="M400.67,919.48H384.19a1.41,1.41,0,0,1-1.41-1.41v-54a1.42,1.42,0,0,1,.17-.67l8.24-15.16a1.4,1.4,0,0,1,1.24-.74h8.24a1.41,1.41,0,0,1,1.41,1.41v69.14A1.41,1.41,0,0,1,400.67,919.48Zm-15.07-2.82h13.66V850.34h-6l-7.67,14.11Z"></path>
  <rect class="cls-7" x="279.86" y="896.89" width="120.81" height="21.18"></rect>
  <path class="cls-2" d="M400.67,919.48H279.86a1.41,1.41,0,0,1-1.41-1.41V896.89a1.41,1.41,0,0,1,1.41-1.41H400.67a1.41,1.41,0,0,1,1.41,1.41v21.18A1.41,1.41,0,0,1,400.67,919.48Zm-119.4-2.82h118V898.3h-118Z"></path>
  <rect class="cls-7" x="279.86" y="872.67" width="120.81" height="16.46"></rect>
  <path class="cls-2" d="M400.67,890.53H279.86a1.41,1.41,0,0,1-1.41-1.41V872.67a1.41,1.41,0,0,1,1.41-1.41H400.67a1.41,1.41,0,0,1,1.41,1.41v16.45A1.41,1.41,0,0,1,400.67,890.53Zm-119.4-2.82h118V874.08h-118Z"></path>
  <polygon class="cls-7" points="279.86 785.6 279.86 800.76 279.86 854.74 296.34 854.74 296.34 800.76 288.1 785.6 279.86 785.6"></polygon>
  <path class="cls-2" d="M296.34,856.15H279.86a1.41,1.41,0,0,1-1.41-1.41V785.6a1.41,1.41,0,0,1,1.41-1.41h8.24a1.42,1.42,0,0,1,1.24.74l8.24,15.16a1.45,1.45,0,0,1,.17.67v54A1.41,1.41,0,0,1,296.34,856.15Zm-15.07-2.82h13.66V801.12L287.26,787h-6Z"></path>
  <polygon class="cls-7" points="392.43 785.6 384.19 800.76 384.19 854.74 400.67 854.74 400.67 800.76 400.67 785.6 392.43 785.6"></polygon>
  <path class="cls-2" d="M400.67,856.15H384.19a1.41,1.41,0,0,1-1.41-1.41v-54a1.45,1.45,0,0,1,.17-.67l8.24-15.16a1.42,1.42,0,0,1,1.24-.74h8.24a1.41,1.41,0,0,1,1.41,1.41v69.14A1.41,1.41,0,0,1,400.67,856.15Zm-15.07-2.82h13.66V787h-6l-7.67,14.11Z"></path>
  <rect class="cls-7" x="279.86" y="833.56" width="120.81" height="21.18"></rect>
  <path class="cls-2" d="M400.67,856.15H279.86a1.41,1.41,0,0,1-1.41-1.41V833.56a1.41,1.41,0,0,1,1.41-1.41H400.67a1.41,1.41,0,0,1,1.41,1.41v21.18A1.41,1.41,0,0,1,400.67,856.15Zm-119.4-2.82h118V835h-118Z"></path>
  <rect class="cls-7" x="279.86" y="809.34" width="120.81" height="16.46"></rect>
  <path class="cls-2" d="M400.67,827.21H279.86a1.41,1.41,0,0,1-1.41-1.41V809.34a1.41,1.41,0,0,1,1.41-1.41H400.67a1.41,1.41,0,0,1,1.41,1.41V825.8A1.41,1.41,0,0,1,400.67,827.21Zm-119.4-2.82h118V810.75h-118Z"></path>
  <rect class="cls-7" x="469.49" y="841.92" width="28.15" height="28.15" rx="14.07"></rect>
  <path class="cls-2" d="M483.56,871.48A15.49,15.49,0,1,1,499.05,856,15.5,15.5,0,0,1,483.56,871.48Zm0-28.15a12.67,12.67,0,0,0,0,25.33h0a12.67,12.67,0,1,0,0-25.33Z"></path>
  <rect class="cls-7" x="441.34" y="840.76" width="28.15" height="28.15" rx="14.07"></rect>
  <path class="cls-2" d="M455.41,870.32a15.49,15.49,0,1,1,15.49-15.49A15.51,15.51,0,0,1,455.41,870.32Zm0-28.15a12.67,12.67,0,1,0,12.67,12.66A12.68,12.68,0,0,0,455.41,842.17Z"></path>
  <rect class="cls-7" x="491.16" y="847.99" width="28.15" height="28.15" rx="14.07"></rect>
  <path class="cls-2" d="M505.23,877.55a15.49,15.49,0,1,1,15.49-15.48A15.49,15.49,0,0,1,505.23,877.55Zm0-28.15a12.67,12.67,0,1,0,12.67,12.67A12.68,12.68,0,0,0,505.23,849.4Z"></path>
  <rect class="cls-7" x="422.17" y="854.83" width="28.15" height="28.15" rx="14.07"></rect>
  <path class="cls-2" d="M436.24,884.39a15.49,15.49,0,1,1,15.49-15.48A15.49,15.49,0,0,1,436.24,884.39Zm0-28.15a12.67,12.67,0,1,0,12.67,12.67A12.68,12.68,0,0,0,436.24,856.24Z"></path>
  <rect class="cls-7" x="427" y="875.64" width="28.15" height="28.15" rx="14.07"></rect>
  <path class="cls-2" d="M441.07,905.2a15.49,15.49,0,1,1,15.49-15.49A15.5,15.5,0,0,1,441.07,905.2Zm0-28.15a12.67,12.67,0,1,0,12.67,12.66A12.68,12.68,0,0,0,441.07,877.05Z"></path>
  <rect class="cls-7" x="446.93" y="886.38" width="28.15" height="28.15" rx="14.07"></rect>
  <path class="cls-2" d="M461,915.94a15.49,15.49,0,1,1,15.49-15.48A15.5,15.5,0,0,1,461,915.94Zm0-28.15a12.67,12.67,0,0,0,0,25.33h0a12.67,12.67,0,1,0,0-25.33Z"></path>
  <rect class="cls-7" x="449.63" y="859.95" width="28.15" height="28.15" rx="14.07"></rect>
  <path class="cls-2" d="M463.7,889.51A15.49,15.49,0,1,1,479.18,874,15.51,15.51,0,0,1,463.7,889.51Zm0-28.15A12.67,12.67,0,1,0,476.36,874,12.68,12.68,0,0,0,463.7,861.36Z"></path>
  <rect class="cls-7" x="473.14" y="870.54" width="28.15" height="28.15" rx="14.07"></rect>
  <path class="cls-2" d="M487.22,900.1a15.49,15.49,0,1,1,15.48-15.48A15.51,15.51,0,0,1,487.22,900.1Zm0-28.15a12.67,12.67,0,1,0,12.66,12.67A12.68,12.68,0,0,0,487.22,872Z"></path>
  <rect class="cls-7" x="473.14" y="884.62" width="28.15" height="28.15" rx="14.07"></rect>
  <path class="cls-2" d="M487.22,914.18a15.49,15.49,0,1,1,15.48-15.49A15.51,15.51,0,0,1,487.22,914.18Zm0-28.15a12.67,12.67,0,1,0,12.66,12.66A12.68,12.68,0,0,0,487.22,886Z"></path>
  <rect class="cls-7" x="491.89" y="882.98" width="28.15" height="28.15" rx="14.07"></rect>
  <path class="cls-2" d="M506,912.54a15.49,15.49,0,1,1,15.49-15.48A15.49,15.49,0,0,1,506,912.54Zm0-28.15a12.67,12.67,0,1,0,12.67,12.67A12.68,12.68,0,0,0,506,884.39Z"></path>
  <polygon class="cls-4" points="418.95 858.55 418.95 871.6 418.95 918.07 433.14 918.07 433.14 871.6 426.05 858.55 418.95 858.55"></polygon>
  <path class="cls-2" d="M433.14,919.48H419a1.41,1.41,0,0,1-1.41-1.41V858.55a1.41,1.41,0,0,1,1.41-1.41H426a1.39,1.39,0,0,1,1.24.74l7.1,13a1.45,1.45,0,0,1,.17.67v46.47A1.41,1.41,0,0,1,433.14,919.48Zm-12.78-2.82h11.37V872l-6.52-12h-4.85Z"></path>
  <polygon class="cls-4" points="515.86 858.55 508.76 871.6 508.76 918.07 522.95 918.07 522.95 871.6 522.95 858.55 515.86 858.55"></polygon>
  <path class="cls-2" d="M523,919.48H508.76a1.41,1.41,0,0,1-1.41-1.41V871.6a1.45,1.45,0,0,1,.17-.67l7.1-13a1.39,1.39,0,0,1,1.24-.74H523a1.41,1.41,0,0,1,1.41,1.41v59.52A1.41,1.41,0,0,1,523,919.48Zm-12.78-2.82h11.37V860h-4.85l-6.52,12Z"></path>
  <rect class="cls-4" x="418.95" y="899.84" width="104" height="18.24"></rect>
  <path class="cls-2" d="M523,919.48H419a1.41,1.41,0,0,1-1.41-1.41V899.83a1.41,1.41,0,0,1,1.41-1.41H523a1.41,1.41,0,0,1,1.41,1.41v18.24A1.41,1.41,0,0,1,523,919.48Zm-102.59-2.82H521.54V901.25H420.36Z"></path>
  <rect class="cls-4" x="418.95" y="878.98" width="104" height="14.17"></rect>
  <path class="cls-2" d="M523,894.56H419a1.41,1.41,0,0,1-1.41-1.41V879a1.41,1.41,0,0,1,1.41-1.41H523a1.41,1.41,0,0,1,1.41,1.41v14.16A1.41,1.41,0,0,1,523,894.56Zm-102.59-2.82H521.54V880.4H420.36Z"></path>
  <rect class="cls-4" x="264.8" y="841.92" width="28.15" height="28.15" rx="14.07"></rect>
  <path class="cls-2" d="M278.88,871.48A15.49,15.49,0,1,1,294.36,856,15.51,15.51,0,0,1,278.88,871.48Zm0-28.15A12.67,12.67,0,1,0,291.54,856,12.68,12.68,0,0,0,278.88,843.33Z"></path>
  <rect class="cls-4" x="236.65" y="840.76" width="28.15" height="28.15" rx="14.07"></rect>
  <path class="cls-2" d="M250.73,870.32a15.49,15.49,0,1,1,15.48-15.49A15.51,15.51,0,0,1,250.73,870.32Zm0-28.15a12.67,12.67,0,1,0,12.66,12.66A12.68,12.68,0,0,0,250.73,842.17Z"></path>
  <rect class="cls-4" x="286.47" y="847.99" width="28.15" height="28.15" rx="14.07"></rect>
  <path class="cls-2" d="M300.54,877.55A15.49,15.49,0,1,1,316,862.07,15.5,15.5,0,0,1,300.54,877.55Zm0-28.15a12.67,12.67,0,1,0,12.67,12.67A12.68,12.68,0,0,0,300.54,849.4Z"></path>
  <rect class="cls-4" x="217.48" y="854.83" width="28.15" height="28.15" rx="14.07"></rect>
  <path class="cls-2" d="M231.56,884.39A15.49,15.49,0,1,1,247,868.91,15.5,15.5,0,0,1,231.56,884.39Zm0-28.15a12.67,12.67,0,1,0,12.66,12.67A12.69,12.69,0,0,0,231.56,856.24Z"></path>
  <rect class="cls-4" x="222.31" y="875.64" width="28.15" height="28.15" rx="14.07"></rect>
  <path class="cls-2" d="M236.38,905.2a15.49,15.49,0,1,1,15.49-15.49A15.51,15.51,0,0,1,236.38,905.2Zm0-28.15a12.67,12.67,0,1,0,12.67,12.66A12.68,12.68,0,0,0,236.38,877.05Z"></path>
  <rect class="cls-4" x="242.24" y="886.38" width="28.15" height="28.15" rx="14.07"></rect>
  <path class="cls-2" d="M256.32,915.94a15.49,15.49,0,1,1,15.48-15.48A15.5,15.5,0,0,1,256.32,915.94Zm0-28.15A12.67,12.67,0,1,0,269,900.46,12.68,12.68,0,0,0,256.32,887.79Z"></path>
  <rect class="cls-4" x="244.94" y="859.95" width="28.15" height="28.15" rx="14.07"></rect>
  <path class="cls-2" d="M259,889.51A15.49,15.49,0,1,1,274.5,874,15.5,15.5,0,0,1,259,889.51Zm0-28.15a12.67,12.67,0,0,0,0,25.33h0a12.67,12.67,0,1,0,0-25.33Z"></path>
  <rect class="cls-4" x="268.45" y="870.54" width="28.15" height="28.15" rx="14.07"></rect>
  <path class="cls-2" d="M282.53,900.1A15.49,15.49,0,1,1,298,884.62,15.51,15.51,0,0,1,282.53,900.1Zm0-28.15a12.67,12.67,0,1,0,12.66,12.67A12.69,12.69,0,0,0,282.53,872Z"></path>
  <rect class="cls-4" x="268.45" y="884.62" width="28.15" height="28.15" rx="14.07"></rect>
  <path class="cls-2" d="M282.53,914.18A15.49,15.49,0,1,1,298,898.69,15.51,15.51,0,0,1,282.53,914.18Zm0-28.15a12.67,12.67,0,1,0,12.66,12.66A12.68,12.68,0,0,0,282.53,886Z"></path>
  <rect class="cls-4" x="287.2" y="882.98" width="28.15" height="28.15" rx="14.07"></rect>
  <path class="cls-2" d="M301.28,912.54a15.49,15.49,0,1,1,15.48-15.48A15.5,15.5,0,0,1,301.28,912.54Zm0-28.15a12.67,12.67,0,1,0,12.66,12.67A12.69,12.69,0,0,0,301.28,884.39Z"></path>
  <polygon class="cls-1" points="214.26 858.55 214.26 871.6 214.26 918.07 228.45 918.07 228.45 871.6 221.36 858.55 214.26 858.55"></polygon>
  <path class="cls-2" d="M228.45,919.48H214.26a1.41,1.41,0,0,1-1.41-1.41V858.55a1.41,1.41,0,0,1,1.41-1.41h7.1a1.41,1.41,0,0,1,1.24.74l7.09,13a1.45,1.45,0,0,1,.17.67v46.47A1.41,1.41,0,0,1,228.45,919.48Zm-12.78-2.82H227V872l-6.52-12h-4.85Z"></path>
  <polygon class="cls-1" points="311.17 858.55 304.08 871.6 304.08 918.07 318.26 918.07 318.26 871.6 318.26 858.55 311.17 858.55"></polygon>
  <path class="cls-2" d="M318.26,919.48H304.08a1.41,1.41,0,0,1-1.41-1.41V871.6a1.45,1.45,0,0,1,.17-.67l7.09-13a1.4,1.4,0,0,1,1.24-.74h7.09a1.41,1.41,0,0,1,1.41,1.41v59.52A1.41,1.41,0,0,1,318.26,919.48Zm-12.77-2.82h11.36V860H312l-6.52,12Z"></path>
  <rect class="cls-1" x="214.26" y="899.84" width="104" height="18.24"></rect>
  <path class="cls-2" d="M318.26,919.48h-104a1.41,1.41,0,0,1-1.41-1.41V899.83a1.42,1.42,0,0,1,1.41-1.41h104a1.41,1.41,0,0,1,1.41,1.41v18.24A1.41,1.41,0,0,1,318.26,919.48Zm-102.59-2.82H316.85V901.25H215.67Z"></path>
  <rect class="cls-1" x="214.26" y="878.98" width="104" height="14.17"></rect>
  <path class="cls-2" d="M318.26,894.56h-104a1.41,1.41,0,0,1-1.41-1.41V879a1.41,1.41,0,0,1,1.41-1.41h104a1.41,1.41,0,0,1,1.41,1.41v14.16A1.41,1.41,0,0,1,318.26,894.56Zm-102.59-2.82H316.85V880.4H215.67Z"></path>
  <rect class="cls-6" x="1271.32" y="798.03" width="66.71" height="93.97"></rect>
  <polygon class="cls-1" points="1266.33 883.56 1266.33 917.79 1278.71 917.79 1278.71 917.38 1293.04 903.36 1317.02 903.36 1330.33 917.38 1330.33 917.79 1343.02 917.79 1343.02 883.56 1266.33 883.56"></polygon>
  <path class="cls-2" d="M1343,919.2h-12.69a1.41,1.41,0,0,1-1.4-1.25l-12.51-13.18h-22.81L1280.1,918a1.4,1.4,0,0,1-1.39,1.21h-12.38a1.41,1.41,0,0,1-1.41-1.41V883.56a1.41,1.41,0,0,1,1.41-1.41H1343a1.41,1.41,0,0,1,1.41,1.41v34.23A1.41,1.41,0,0,1,1343,919.2Zm-11.69-2.82h10.28V885h-73.87v31.41h10l14.33-14a1.46,1.46,0,0,1,1-.4h24a1.39,1.39,0,0,1,1,.44Z"></path>
  <rect class="cls-1" x="1266.33" y="806.82" width="9.98" height="76.74"></rect>
  <path class="cls-2" d="M1276.31,885h-10a1.41,1.41,0,0,1-1.41-1.41V806.82a1.41,1.41,0,0,1,1.41-1.41h10a1.41,1.41,0,0,1,1.41,1.41v76.74A1.41,1.41,0,0,1,1276.31,885Zm-8.57-2.82h7.16V808.23h-7.16Z"></path>
  <rect class="cls-1" x="1333.04" y="806.82" width="9.98" height="76.74"></rect>
  <path class="cls-2" d="M1343,885h-10a1.41,1.41,0,0,1-1.41-1.41V806.82a1.41,1.41,0,0,1,1.41-1.41h10a1.41,1.41,0,0,1,1.41,1.41v76.74A1.41,1.41,0,0,1,1343,885Zm-8.57-2.82h7.16V808.23h-7.16Z"></path>
  <rect class="cls-1" x="1266.33" y="781.26" width="76.7" height="25.56"></rect>
  <path class="cls-2" d="M1343,808.23h-76.69a1.41,1.41,0,0,1-1.41-1.41V781.26a1.41,1.41,0,0,1,1.41-1.41H1343a1.41,1.41,0,0,1,1.41,1.41v25.56A1.41,1.41,0,0,1,1343,808.23Zm-75.28-2.82h73.87V782.67h-73.87Z"></path>
  <rect class="cls-1" x="1296.18" y="768.41" width="17" height="12.85"></rect>
  <path class="cls-2" d="M1313.17,782.67h-17a1.41,1.41,0,0,1-1.41-1.41V768.41a1.41,1.41,0,0,1,1.41-1.41h17a1.41,1.41,0,0,1,1.41,1.41v12.85A1.41,1.41,0,0,1,1313.17,782.67Zm-15.58-2.82h14.17v-10h-14.17Z"></path>
  <rect class="cls-1" x="1281.5" y="755.15" width="46.35" height="13.26"></rect>
  <path class="cls-2" d="M1327.85,769.82H1281.5a1.41,1.41,0,0,1-1.41-1.41V755.15a1.41,1.41,0,0,1,1.41-1.41h46.35a1.41,1.41,0,0,1,1.41,1.41v13.26A1.41,1.41,0,0,1,1327.85,769.82ZM1282.91,767h43.53V756.56h-43.53Z"></path>
  <rect class="cls-1" x="1286.97" y="719.76" width="35.49" height="35.49"></rect>
  <path class="cls-2" d="M1322.46,756.66H1287a1.41,1.41,0,0,1-1.41-1.41V719.76a1.41,1.41,0,0,1,1.41-1.41h35.49a1.41,1.41,0,0,1,1.41,1.41v35.49A1.41,1.41,0,0,1,1322.46,756.66Zm-34.08-2.82h32.67V721.17h-32.67Z"></path>
  <rect class="cls-1" x="1293.53" y="705.97" width="22.29" height="4.42"></rect>
  <path class="cls-2" d="M1315.82,711.8h-22.29a1.41,1.41,0,0,1-1.41-1.41V706a1.41,1.41,0,0,1,1.41-1.41h22.29a1.41,1.41,0,0,1,1.41,1.41v4.42A1.41,1.41,0,0,1,1315.82,711.8ZM1294.94,709h19.47v-1.6h-19.47Z"></path>
  <rect class="cls-2" x="1303.26" y="710.39" width="2.82" height="9.37"></rect>
  <rect class="cls-6" x="1286.97" y="827.98" width="35.41" height="26.92"></rect>
  <path class="cls-2" d="M1322.38,856.31H1287a1.41,1.41,0,0,1-1.41-1.41V828a1.41,1.41,0,0,1,1.41-1.41h35.41a1.41,1.41,0,0,1,1.41,1.41V854.9A1.41,1.41,0,0,1,1322.38,856.31Zm-34-2.82H1321v-24.1h-32.59Z"></path>
  <circle class="cls-2" cx="1304.67" cy="735.3" r="4.13"></circle>
  <path class="cls-2" d="M1304.67,740.84a5.54,5.54,0,1,1,5.55-5.54A5.55,5.55,0,0,1,1304.67,740.84Zm0-8.26a2.72,2.72,0,1,0,2.73,2.72A2.72,2.72,0,0,0,1304.67,732.58Z"></path>
  <rect class="cls-2" x="1292.25" y="733.89" width="12.43" height="2.82"></rect>
  <rect class="cls-6" x="1362.23" y="798.03" width="66.71" height="93.97"></rect>
  <polygon class="cls-1" points="1357.24 883.56 1357.24 917.79 1369.62 917.79 1369.62 917.38 1383.95 903.36 1407.94 903.36 1421.25 917.38 1421.25 917.79 1433.94 917.79 1433.94 883.56 1357.24 883.56"></polygon>
  <path class="cls-2" d="M1433.94,919.2h-12.69a1.4,1.4,0,0,1-1.4-1.25l-12.52-13.18h-22.8L1371,918a1.42,1.42,0,0,1-1.4,1.21h-12.38a1.41,1.41,0,0,1-1.41-1.41V883.56a1.41,1.41,0,0,1,1.41-1.41h76.7a1.41,1.41,0,0,1,1.41,1.41v34.23A1.41,1.41,0,0,1,1433.94,919.2Zm-11.69-2.82h10.28V885h-73.88v31.41h10l14.33-14a1.42,1.42,0,0,1,1-.4h24a1.42,1.42,0,0,1,1,.44Z"></path>
  <rect class="cls-1" x="1357.24" y="806.82" width="9.98" height="76.74"></rect>
  <path class="cls-2" d="M1367.22,885h-10a1.41,1.41,0,0,1-1.41-1.41V806.82a1.41,1.41,0,0,1,1.41-1.41h10a1.41,1.41,0,0,1,1.41,1.41v76.74A1.41,1.41,0,0,1,1367.22,885Zm-8.57-2.82h7.16V808.23h-7.16Z"></path>
  <rect class="cls-1" x="1423.95" y="806.82" width="9.98" height="76.74"></rect>
  <path class="cls-2" d="M1433.94,885h-10a1.41,1.41,0,0,1-1.41-1.41V806.82a1.41,1.41,0,0,1,1.41-1.41h10a1.41,1.41,0,0,1,1.41,1.41v76.74A1.41,1.41,0,0,1,1433.94,885Zm-8.58-2.82h7.17V808.23h-7.17Z"></path>
  <rect class="cls-1" x="1357.24" y="781.26" width="76.7" height="25.56"></rect>
  <path class="cls-2" d="M1433.94,808.23h-76.7a1.41,1.41,0,0,1-1.41-1.41V781.26a1.41,1.41,0,0,1,1.41-1.41h76.7a1.41,1.41,0,0,1,1.41,1.41v25.56A1.41,1.41,0,0,1,1433.94,808.23Zm-75.29-2.82h73.88V782.67h-73.88Z"></path>
  <rect class="cls-1" x="1387.09" y="768.41" width="17" height="12.85"></rect>
  <path class="cls-2" d="M1404.09,782.67h-17a1.41,1.41,0,0,1-1.41-1.41V768.41a1.41,1.41,0,0,1,1.41-1.41h17a1.41,1.41,0,0,1,1.41,1.41v12.85A1.41,1.41,0,0,1,1404.09,782.67Zm-15.59-2.82h14.18v-10H1388.5Z"></path>
  <rect class="cls-1" x="1372.42" y="755.15" width="46.35" height="13.26"></rect>
  <path class="cls-2" d="M1418.76,769.82h-46.34a1.41,1.41,0,0,1-1.41-1.41V755.15a1.41,1.41,0,0,1,1.41-1.41h46.34a1.41,1.41,0,0,1,1.41,1.41v13.26A1.41,1.41,0,0,1,1418.76,769.82ZM1373.83,767h43.52V756.56h-43.52Z"></path>
  <rect class="cls-1" x="1377.88" y="719.76" width="35.49" height="35.49"></rect>
  <path class="cls-2" d="M1413.37,756.66h-35.49a1.41,1.41,0,0,1-1.41-1.41V719.76a1.41,1.41,0,0,1,1.41-1.41h35.49a1.41,1.41,0,0,1,1.41,1.41v35.49A1.41,1.41,0,0,1,1413.37,756.66Zm-34.08-2.82H1412V721.17h-32.67Z"></path>
  <rect class="cls-1" x="1384.44" y="705.97" width="22.29" height="4.42"></rect>
  <path class="cls-2" d="M1406.73,711.8h-22.29a1.41,1.41,0,0,1-1.41-1.41V706a1.41,1.41,0,0,1,1.41-1.41h22.29a1.41,1.41,0,0,1,1.41,1.41v4.42A1.41,1.41,0,0,1,1406.73,711.8ZM1385.85,709h19.47v-1.6h-19.47Z"></path>
  <rect class="cls-2" x="1394.18" y="710.39" width="2.82" height="9.37"></rect>
  <rect class="cls-6" x="1377.88" y="827.98" width="35.41" height="26.92"></rect>
  <path class="cls-2" d="M1413.29,856.31h-35.41a1.41,1.41,0,0,1-1.41-1.41V828a1.41,1.41,0,0,1,1.41-1.41h35.41a1.41,1.41,0,0,1,1.41,1.41V854.9A1.41,1.41,0,0,1,1413.29,856.31Zm-34-2.82h32.59v-24.1h-32.59Z"></path>
  <circle class="cls-2" cx="1395.59" cy="735.3" r="4.13"></circle>
  <path class="cls-2" d="M1395.59,740.84a5.54,5.54,0,1,1,5.54-5.54A5.55,5.55,0,0,1,1395.59,740.84Zm0-8.26a2.72,2.72,0,1,0,2.72,2.72A2.72,2.72,0,0,0,1395.59,732.58Z"></path>
  <rect class="cls-2" x="1383.16" y="733.89" width="12.43" height="2.82"></rect>
  <rect class="cls-7" x="1156.05" y="837.95" width="74.46" height="11.69"></rect>
  <path class="cls-2" d="M1230.51,851.05h-74.46a1.41,1.41,0,0,1-1.41-1.41V838a1.41,1.41,0,0,1,1.41-1.41h74.46a1.42,1.42,0,0,1,1.41,1.41v11.69A1.41,1.41,0,0,1,1230.51,851.05Zm-73-2.82h71.64v-8.87h-71.64Z"></path>
  <polygon class="cls-8" points="1227.24 837.95 1159.31 837.95 1166.4 826.27 1220.15 826.27 1227.24 837.95"></polygon>
  <path class="cls-2" d="M1227.24,839.36h-67.93a1.4,1.4,0,0,1-1.2-2.14l7.08-11.68a1.43,1.43,0,0,1,1.21-.68h53.76a1.4,1.4,0,0,1,1.2.68l7.09,11.68a1.43,1.43,0,0,1,0,1.43A1.41,1.41,0,0,1,1227.24,839.36Zm-65.42-2.82h62.92l-5.38-8.86h-52.17Z"></path>
  <polygon class="cls-8" points="1206.72 849.64 1206.72 858.97 1179.84 858.97 1179.84 849.64 1159.31 849.64 1169.94 918.07 1216.61 918.07 1227.24 849.64 1206.72 849.64"></polygon>
  <path class="cls-2" d="M1216.61,919.48h-46.67a1.42,1.42,0,0,1-1.39-1.19l-10.63-68.43a1.4,1.4,0,0,1,1.39-1.63h20.53a1.41,1.41,0,0,1,1.41,1.41v7.92h24.06v-7.92a1.41,1.41,0,0,1,1.41-1.41h20.52a1.42,1.42,0,0,1,1.07.49,1.44,1.44,0,0,1,.33,1.14L1218,918.29A1.42,1.42,0,0,1,1216.61,919.48Zm-45.46-2.82h44.26l10.19-65.61h-17.47V859a1.41,1.41,0,0,1-1.41,1.41h-26.88a1.41,1.41,0,0,1-1.41-1.41v-7.92H1161Z"></path>
  <rect class="cls-7" x="1179.84" y="849.64" width="26.88" height="9.33"></rect>
  <path class="cls-2" d="M1206.72,860.38h-26.88a1.41,1.41,0,0,1-1.41-1.41v-9.33a1.41,1.41,0,0,1,1.41-1.41h26.88a1.41,1.41,0,0,1,1.41,1.41V859A1.41,1.41,0,0,1,1206.72,860.38Zm-25.47-2.82h24.06v-6.51h-24.06Z"></path>
  <rect class="cls-7" x="1071.77" y="837.95" width="74.46" height="11.69"></rect>
  <path class="cls-2" d="M1146.23,851.05h-74.46a1.41,1.41,0,0,1-1.41-1.41V838a1.41,1.41,0,0,1,1.41-1.41h74.46a1.41,1.41,0,0,1,1.41,1.41v11.69A1.41,1.41,0,0,1,1146.23,851.05Zm-73-2.82h71.64v-8.87h-71.64Z"></path>
  <polygon class="cls-8" points="1142.96 837.95 1075.04 837.95 1082.12 826.27 1135.88 826.27 1142.96 837.95"></polygon>
  <path class="cls-2" d="M1143,839.36H1075a1.41,1.41,0,0,1-1.23-.71,1.43,1.43,0,0,1,0-1.43l7.09-11.68a1.4,1.4,0,0,1,1.2-.68h53.76a1.4,1.4,0,0,1,1.2.68l7.09,11.68a1.43,1.43,0,0,1,0,1.43A1.41,1.41,0,0,1,1143,839.36Zm-65.42-2.82h62.92l-5.38-8.86h-52.16Z"></path>
  <polygon class="cls-8" points="1122.44 849.64 1122.44 858.97 1095.56 858.97 1095.56 849.64 1075.04 849.64 1085.66 918.07 1132.34 918.07 1142.96 849.64 1122.44 849.64"></polygon>
  <path class="cls-2" d="M1132.33,919.48h-46.67a1.42,1.42,0,0,1-1.39-1.19l-10.63-68.43a1.47,1.47,0,0,1,.32-1.14,1.43,1.43,0,0,1,1.08-.49h20.52a1.41,1.41,0,0,1,1.41,1.41v7.92H1121v-7.92a1.41,1.41,0,0,1,1.41-1.41H1143a1.39,1.39,0,0,1,1.07.49,1.44,1.44,0,0,1,.33,1.14l-10.63,68.43A1.42,1.42,0,0,1,1132.33,919.48Zm-45.46-2.82h44.26l10.19-65.61h-17.47V859a1.41,1.41,0,0,1-1.41,1.41h-26.88a1.41,1.41,0,0,1-1.41-1.41v-7.92h-17.47Z"></path>
  <rect class="cls-7" x="1095.56" y="849.64" width="26.88" height="9.33"></rect>
  <path class="cls-2" d="M1122.44,860.38h-26.88a1.41,1.41,0,0,1-1.41-1.41v-9.33a1.41,1.41,0,0,1,1.41-1.41h26.88a1.41,1.41,0,0,1,1.41,1.41V859A1.41,1.41,0,0,1,1122.44,860.38ZM1097,857.56H1121v-6.51H1097Z"></path>
  <path class="cls-7" d="M531,200.66l-.13-.52,2-6.11,3.18,2.82,6-3,.4,6.94,4.53,1.5L542.82,207l-.68.17a10,10,0,0,1-7.15-1A8.83,8.83,0,0,1,531,200.66Z"></path>
  <path class="cls-2" d="M539.78,208.88a10.79,10.79,0,0,1-5.5-1.44,10.19,10.19,0,0,1-4.63-6.46l-.13-.49a1.45,1.45,0,0,1,0-.8l2-6.11a1.41,1.41,0,0,1,2.28-.61l2.46,2.2,5.13-2.57a1.4,1.4,0,0,1,2,1.18l.35,6,3.63,1.21a1.41,1.41,0,0,1,.61,2.27L543.88,208a1.43,1.43,0,0,1-.7.43l-.69.18A10.7,10.7,0,0,1,539.78,208.88Zm-7.37-8.47a7.48,7.48,0,0,0,3.3,4.6,8.47,8.47,0,0,0,6,.83l.3-.08,2.49-2.79-2.5-.84a1.39,1.39,0,0,1-1-1.25l-.29-4.8-4.06,2a1.42,1.42,0,0,1-1.57-.2l-1.58-1.41-1.22,3.69,0,.12A.36.36,0,0,1,532.41,200.41Z"></path>
  <rect class="cls-2" x="404.7" y="226.74" width="6.85" height="2.82"></rect>
  <rect class="cls-2" x="516.59" y="226.74" width="6.85" height="2.82"></rect>
  <path class="cls-1" d="M426.8,200.67h72.92a0,0,0,0,1,0,0v11.11a8.2,8.2,0,0,1-8.2,8.2H435a8.2,8.2,0,0,1-8.2-8.2V200.67A0,0,0,0,1,426.8,200.67Z"></path>
  <path class="cls-2" d="M491.52,221.39H435a9.62,9.62,0,0,1-9.61-9.61V200.67a1.41,1.41,0,0,1,1.41-1.41h72.92a1.41,1.41,0,0,1,1.41,1.41v11.11A9.62,9.62,0,0,1,491.52,221.39Zm-63.31-19.31v9.7a6.8,6.8,0,0,0,6.79,6.79h56.52a6.8,6.8,0,0,0,6.79-6.79v-9.7Z"></path>
  <rect class="cls-4" x="435" y="219.98" width="12.67" height="7.2"></rect>
  <path class="cls-2" d="M447.67,228.59H435a1.41,1.41,0,0,1-1.41-1.41V220a1.41,1.41,0,0,1,1.41-1.41h12.67a1.41,1.41,0,0,1,1.41,1.41v7.2A1.41,1.41,0,0,1,447.67,228.59Zm-11.26-2.82h9.85v-4.38h-9.85Z"></path>
  <rect class="cls-4" x="478.64" y="219.98" width="12.67" height="7.2"></rect>
  <path class="cls-2" d="M491.31,228.59H478.64a1.41,1.41,0,0,1-1.41-1.41V220a1.41,1.41,0,0,1,1.41-1.41h12.67a1.41,1.41,0,0,1,1.41,1.41v7.2A1.41,1.41,0,0,1,491.31,228.59Zm-11.26-2.82h9.85v-4.38h-9.85Z"></path>
  <path class="cls-2" d="M553.12,453.33c-4.28-15-3-58.79-2.93-60.65a1,1,0,0,1,0-.24c0-.22,4.34-21.69-4.08-36.68-8.83-15.71-12.6-49.82-12.76-51.26v-.16a75.88,75.88,0,0,1,1.8-17.95,67.21,67.21,0,0,0,1.67-16.08c0-5.73-2.22-15.24-4.57-25.32-2-8.69-4-17.13-4.81-24-4.7-2.9-9-9.19-14.91-20.87-2.39-4.69-5.29-7.23-8.63-7.54-7.22-.68-14.64,8.84-14.71,8.94L487,199.81c.34-.45,8.42-10.83,17.2-10,4.37.4,8,3.46,10.89,9.07,5.13,10.07,8.79,15.55,12.06,18.43-.25-4.57.22-8.16,1.86-10.22a5.18,5.18,0,0,1,4.21-2c7.51,0,11,4.5,11.22,9,.16,4-2.43,8.51-7.55,8.92a16.62,16.62,0,0,1-6.35-.58c1,6.73,2.84,14.79,4.51,21.95,2.38,10.24,4.64,19.91,4.64,26A71.14,71.14,0,0,1,538,287a73,73,0,0,0-1.75,17.31c.2,1.81,4,35.24,12.4,50.11,8.69,15.48,4.8,36.5,4.41,38.5-.08,2.58-1.24,45.5,2.82,59.68Zm-23-234a12.45,12.45,0,0,0,6.51.88,5.56,5.56,0,0,0,5-6c-.12-3-2.39-6.26-8.4-6.26a2.35,2.35,0,0,0-2,.91C529.81,210.56,529.64,214.41,530.14,219.29Z"></path>
  <path class="cls-2" d="M484.38,201.28l-2.53-1.23,1.27.62-1.27-.62a7.78,7.78,0,0,0,0-6.06c-1.15-2.41-3.88-4.17-8.12-5.21l.68-2.74c5.12,1.26,8.49,3.54,10,6.78A10.52,10.52,0,0,1,484.38,201.28Z"></path>
  <path class="cls-2" d="M438.54,200.83c-.06-.49-1.39-12.22,4.5-18.78,2.58-2.87,6.12-4.28,10.51-4.25l0,2.82a10.5,10.5,0,0,0-8.37,3.31c-5,5.6-3.82,16.46-3.81,16.57Z"></path>
  <path class="cls-2" d="M408.92,242.74l-1.58-2.33c7.89-5.35,9.36-14.43,3.81-23.69-2.53-4.22-8-14.89-4.48-23,1.72-4,5.29-6.55,10.59-7.68,4.61-1,8.6-.33,11.86,1.93,6,4.14,7.22,12.16,7.27,12.5l-2.78.41,1.39-.2-1.39.21c0-.08-1.15-7.18-6.11-10.61-2.6-1.8-5.84-2.29-9.65-1.48-4.36.93-7.26,3-8.6,6-2.08,4.8-.47,12.44,4.32,20.44C419.86,225.78,418,236.56,408.92,242.74Z"></path>
  <path class="cls-2" d="M458.74,200.9c-.18-1.08-4.3-26.4,4.76-34.62,2.81-2.55,6.5-3.22,11-2l-.74,2.72c-3.54-.95-6.28-.5-8.35,1.39-7.93,7.19-3.92,31.82-3.88,32.06Z"></path>
  <path class="cls-2" d="M460.69,181.61l-2.78-.43c0-.09,1.37-9.36-3.24-14-2.28-2.28-5.75-3.09-10.32-2.39l-.42-2.79c5.5-.84,9.8.24,12.75,3.2C462.29,170.86,460.76,181.17,460.69,181.61Z"></path>
  <path class="cls-2" d="M467.35,201c-.16-.7-4-17,2-24,2-2.38,4.87-3.44,8.47-3.16l-.22,2.81c-2.68-.2-4.68.51-6.11,2.18-4.21,4.93-2.44,17.22-1.4,21.54Z"></path>
  <path class="cls-7" d="M505.92,191.14l.5.21,3.6,5.34-4.18.8-1.28,6.56-5.74-3.91-4,2.66-1.17-6.19L494,196a9.93,9.93,0,0,1,5.13-5.07A8.83,8.83,0,0,1,505.92,191.14Z"></path>
  <path class="cls-2" d="M504.56,205.46a1.42,1.42,0,0,1-.79-.25l-4.95-3.37L495.65,204a1.4,1.4,0,0,1-1.33.14,1.43,1.43,0,0,1-.84-1l-1.18-6.2a1.41,1.41,0,0,1,.09-.81l.28-.65a11.29,11.29,0,0,1,5.89-5.83,10.25,10.25,0,0,1,7.95.28l.46.19a1.54,1.54,0,0,1,.62.51l3.6,5.34a1.43,1.43,0,0,1,.13,1.33,1.41,1.41,0,0,1-1,.85l-3.24.61L506,204.32a1.41,1.41,0,0,1-.85,1A1.45,1.45,0,0,1,504.56,205.46Zm-5.74-6.73a1.39,1.39,0,0,1,.79.24l4,2.71.87-4.46a1.41,1.41,0,0,1,1.12-1.12l2.07-.39-2.17-3.22-.12-.05-.09-.05a7.49,7.49,0,0,0-5.65-.19,8.65,8.65,0,0,0-4.35,4.28l-.12.29.7,3.67L498,199A1.43,1.43,0,0,1,498.82,198.73Z"></path>
  <path class="cls-7" d="M502.08,185.14l-.19-.51,1.45-6.27,3.43,2.51,5.67-3.54,1.06,6.87,4.65,1.08-3.73,5.08-.67.24a10,10,0,0,1-7.2-.29A8.8,8.8,0,0,1,502.08,185.14Z"></path>
  <path class="cls-2" d="M510.44,192.55a10.6,10.6,0,0,1-4.49-1,10.15,10.15,0,0,1-5.21-6l-.17-.47a1.33,1.33,0,0,1-.05-.79L502,178a1.4,1.4,0,0,1,2.21-.82l2.66,1.95,4.85-3a1.45,1.45,0,0,1,1.34-.09,1.41,1.41,0,0,1,.8,1.07l.91,5.92,3.72.86a1.41,1.41,0,0,1,.82,2.21l-3.73,5.08a1.32,1.32,0,0,1-.65.49l-.67.25A11.47,11.47,0,0,1,510.44,192.55Zm-7-7.79a7.46,7.46,0,0,0,3.72,4.27,8.63,8.63,0,0,0,6.09.26l.29-.11,2.21-3-2.56-.6a1.42,1.42,0,0,1-1.08-1.16l-.73-4.75-3.85,2.41a1.42,1.42,0,0,1-1.58-.06l-1.71-1.25-.87,3.78,0,.12Z"></path>
  <path class="cls-7" d="M515,195.57l.2-.5,5.25-3.74.9,4.16,6.59,1.1-3.76,5.84,2.78,3.89-6.17,1.34-.65-.26a9.93,9.93,0,0,1-5.2-5A8.83,8.83,0,0,1,515,195.57Z"></path>
  <path class="cls-2" d="M520.78,209.07a1.29,1.29,0,0,1-.51-.1l-.66-.26a11.34,11.34,0,0,1-6-5.74,10.24,10.24,0,0,1,.07-7.95l.18-.47a1.44,1.44,0,0,1,.49-.63l5.25-3.74A1.46,1.46,0,0,1,521,190a1.44,1.44,0,0,1,.87,1l.7,3.22,5.65.95a1.41,1.41,0,0,1,1,2.15l-3.24,5,2.21,3.11a1.41,1.41,0,0,1-.85,2.2L521.08,209A1.53,1.53,0,0,1,520.78,209.07Zm-4.52-12.88a7.49,7.49,0,0,0,0,5.65,8.61,8.61,0,0,0,4.4,4.24l.28.11,3.66-.79L523,203.25a1.4,1.4,0,0,1,0-1.58l2.6-4-4.48-.75a1.43,1.43,0,0,1-1.15-1.09l-.45-2.07L516.35,196l0,.11Z"></path>
  <path class="cls-7" d="M521,214.89l0,.54-4,5.07-2-3.73-6.63.82,1.94-6.67L506.52,208l5.53-3,.7.07a9.9,9.9,0,0,1,6.41,3.31A8.79,8.79,0,0,1,521,214.89Z"></path>
  <path class="cls-2" d="M517,221.91h-.11a1.41,1.41,0,0,1-1.12-.73l-1.59-2.89-5.68.69a1.4,1.4,0,0,1-1.25-.48,1.44,1.44,0,0,1-.28-1.31l1.68-5.75-3-2.35a1.43,1.43,0,0,1-.53-1.23,1.4,1.4,0,0,1,.72-1.12l5.53-3a1.42,1.42,0,0,1,.8-.17l.71.06a11.38,11.38,0,0,1,7.36,3.81,10.24,10.24,0,0,1,2.19,7.65l0,.49a1.49,1.49,0,0,1-.3.75l-4,5.07A1.4,1.4,0,0,1,517,221.91Zm-2-6.55a1.41,1.41,0,0,1,1.24.74l1,1.85,2.4-3.06v-.13a.38.38,0,0,1,0-.1,7.5,7.5,0,0,0-1.56-5.44,8.49,8.49,0,0,0-5.41-2.81l-.32,0-3.27,1.79,2.07,1.63a1.41,1.41,0,0,1,.49,1.5l-1.35,4.62,4.51-.56Z"></path>
  <path class="cls-7" d="M481.1,192.1l0,.54-4,5.08L475,194l-6.63.81,1.94-6.67-3.76-2.94,5.53-3,.71.06a9.92,9.92,0,0,1,6.4,3.31A8.79,8.79,0,0,1,481.1,192.1Z"></path>
  <path class="cls-2" d="M477.09,199.13H477a1.4,1.4,0,0,1-1.12-.72l-1.58-2.9-5.69.7a1.4,1.4,0,0,1-1.52-1.79l1.67-5.76-3-2.35a1.4,1.4,0,0,1,.19-2.34l5.52-3a1.43,1.43,0,0,1,.81-.16l.7.06a11.31,11.31,0,0,1,7.36,3.81,10.17,10.17,0,0,1,2.19,7.64l0,.5a1.41,1.41,0,0,1-.29.74l-4,5.08A1.42,1.42,0,0,1,477.09,199.13Zm-2-6.55a1.43,1.43,0,0,1,1.24.73l1,1.86,2.39-3.07V192s0-.07,0-.1a7.44,7.44,0,0,0-1.56-5.44,8.44,8.44,0,0,0-5.41-2.81l-.31,0-3.28,1.8,2.07,1.62a1.41,1.41,0,0,1,.49,1.51l-1.35,4.61,4.51-.55Z"></path>
  <path class="cls-7" d="M474.07,168l.14-.52,4.77-4.32,1.38,4,6.67.33-3,6.24,3.2,3.54-6,2-.69-.18a9.92,9.92,0,0,1-5.74-4.36A8.77,8.77,0,0,1,474.07,168Z"></path>
  <path class="cls-2" d="M481.22,180.75a1.5,1.5,0,0,1-.37,0l-.68-.19a11.29,11.29,0,0,1-6.6-5,10.26,10.26,0,0,1-.86-7.9l.13-.49a1.42,1.42,0,0,1,.42-.68l4.78-4.32a1.4,1.4,0,0,1,1.3-.32,1.44,1.44,0,0,1,1,.91l1.07,3.12,5.71.29a1.4,1.4,0,0,1,1.2,2l-2.64,5.39,2.57,2.83a1.46,1.46,0,0,1,.32,1.3,1.44,1.44,0,0,1-.91,1l-6,2A1.41,1.41,0,0,1,481.22,180.75Zm-5.82-12.28a7.49,7.49,0,0,0,.61,5.63,8.62,8.62,0,0,0,4.85,3.69l.3.08,3.54-1.21-1.77-1.95a1.44,1.44,0,0,1-.22-1.57l2.12-4.31-4.54-.23a1.4,1.4,0,0,1-1.26-.95l-.69-2-2.88,2.6,0,.12Z"></path>
  <path class="cls-7" d="M463.16,165.24l-.51-.18-3.89-5.14,4.13-1,.91-6.62,5.95,3.59,3.81-2.89,1.51,6.12-.24.67a9.92,9.92,0,0,1-4.84,5.34A8.8,8.8,0,0,1,463.16,165.24Z"></path>
  <path class="cls-2" d="M466.51,167.28a10.46,10.46,0,0,1-3.87-.73l-.47-.17a1.43,1.43,0,0,1-.64-.47l-3.89-5.14a1.39,1.39,0,0,1-.21-1.32,1.42,1.42,0,0,1,1-.9l3.2-.79.79-5.67a1.41,1.41,0,0,1,2.12-1l5.13,3.09,3-2.3a1.39,1.39,0,0,1,1.32-.21,1.44,1.44,0,0,1,.9,1l1.51,6.12a1.43,1.43,0,0,1,0,.82l-.24.67a11.4,11.4,0,0,1-5.57,6.14A9.61,9.61,0,0,1,466.51,167.28ZM463.74,164a7.41,7.41,0,0,0,5.66-.12,8.62,8.62,0,0,0,4.1-4.51l.1-.29-.9-3.63L470.6,157a1.4,1.4,0,0,1-1.58.08l-4.11-2.48-.62,4.5a1.42,1.42,0,0,1-1.06,1.18l-2.05.51,2.35,3.09.11,0Z"></path>
  <path class="cls-7" d="M440.89,156.55l-.14-.53,2-6.12,3.19,2.82,6-3,.43,6.94,4.54,1.49-4.18,4.72L452,163a9.91,9.91,0,0,1-7.15-.94A8.82,8.82,0,0,1,440.89,156.55Z"></path>
  <path class="cls-2" d="M449.63,164.73a10.81,10.81,0,0,1-5.46-1.42,10.2,10.2,0,0,1-4.65-6.45l-.13-.48a1.37,1.37,0,0,1,0-.8l2-6.12a1.4,1.4,0,0,1,2.27-.61l2.47,2.18,5.11-2.58a1.41,1.41,0,0,1,2.05,1.17l.37,6,3.63,1.19a1.42,1.42,0,0,1,.92,1,1.4,1.4,0,0,1-.31,1.3l-4.17,4.73a1.38,1.38,0,0,1-.7.43l-.68.18A10.78,10.78,0,0,1,449.63,164.73Zm-7.35-8.44a7.47,7.47,0,0,0,3.31,4.58,8.43,8.43,0,0,0,6.05.81l.3-.08,2.47-2.8-2.5-.82a1.42,1.42,0,0,1-1-1.25l-.29-4.8-4.06,2a1.4,1.4,0,0,1-1.57-.21l-1.58-1.39-1.22,3.69,0,.12S442.27,156.25,442.28,156.29Z"></path>
  <path class="cls-7" d="M450.31,166.73l.33.43.59,6.42-4.05-1.32-4.28,5.13-3.15-6.19-4.75.43,1.95-6,.56-.43a9.9,9.9,0,0,1,6.93-2A8.81,8.81,0,0,1,450.31,166.73Z"></path>
  <path class="cls-2" d="M442.9,178.8h-.16a1.42,1.42,0,0,1-1.1-.76l-2.71-5.34-3.8.34a1.38,1.38,0,0,1-1.23-.52,1.4,1.4,0,0,1-.24-1.32l1.95-6a1.47,1.47,0,0,1,.47-.68l.56-.43a11.35,11.35,0,0,1,8-2.26,10.17,10.17,0,0,1,6.83,4.07l.31.39a1.42,1.42,0,0,1,.3.74l.58,6.42a1.42,1.42,0,0,1-1.84,1.47l-3.14-1-3.67,4.4A1.38,1.38,0,0,1,442.9,178.8Zm-3.15-9a1.4,1.4,0,0,1,1.26.77l2.18,4.28,2.91-3.49a1.41,1.41,0,0,1,1.52-.43l2,.65-.35-3.87-.08-.1-.06-.08h0a7.47,7.47,0,0,0-4.86-2.89,8.52,8.52,0,0,0-5.87,1.66l-.25.19L437,170l2.63-.24Z"></path>
  <path class="cls-7" d="M454.33,179.23l.53.14,4.31,4.78-4,1.37-.34,6.68-6.24-3.06-3.54,3.2-2-6,.19-.68a9.92,9.92,0,0,1,4.36-5.74A8.77,8.77,0,0,1,454.33,179.23Z"></path>
  <path class="cls-2" d="M445,193.75a1.34,1.34,0,0,1-.35-.05,1.4,1.4,0,0,1-1-.91l-2-6a1.43,1.43,0,0,1,0-.82l.18-.69a11.34,11.34,0,0,1,5-6.59,10.22,10.22,0,0,1,7.91-.85l.48.13a1.41,1.41,0,0,1,.68.41l4.32,4.78a1.41,1.41,0,0,1-.59,2.28l-3.12,1.07-.29,5.72a1.44,1.44,0,0,1-.69,1.14,1.39,1.39,0,0,1-1.34.05l-5.38-2.64L446,193.38A1.42,1.42,0,0,1,445,193.75Zm3.54-6a1.44,1.44,0,0,1,.62.14l4.32,2.12.23-4.54a1.42,1.42,0,0,1,.95-1.26l2-.68-2.6-2.89-.12,0-.1,0a7.48,7.48,0,0,0-5.63.61,8.53,8.53,0,0,0-3.69,4.85l-.08.3,1.2,3.54,2-1.77A1.38,1.38,0,0,1,448.57,187.73Z"></path>
  <path class="cls-7" d="M436.85,187.74h-.55l-5.41-3.49,3.53-2.38L433,175.34l6.82,1.33,2.58-4,3.52,5.23v.71a9.9,9.9,0,0,1-2.71,6.68A8.83,8.83,0,0,1,436.85,187.74Z"></path>
  <path class="cls-2" d="M437.12,189.16h-.81a1.81,1.81,0,0,1-.77-.23l-5.42-3.49a1.41,1.41,0,0,1,0-2.35l2.74-1.84-1.21-5.6a1.4,1.4,0,0,1,1.65-1.68l5.88,1.15,2.07-3.21a1.4,1.4,0,0,1,1.17-.65h0a1.43,1.43,0,0,1,1.17.62l3.52,5.24a1.36,1.36,0,0,1,.24.78v.71a11.24,11.24,0,0,1-3.12,7.67A10.2,10.2,0,0,1,437.12,189.16Zm-.18-2.83a7.49,7.49,0,0,0,5.28-2.05,8.51,8.51,0,0,0,2.3-5.65v-.31l-2.08-3.1L441,177.44a1.41,1.41,0,0,1-1.45.62l-4.72-.92,1,4.44a1.42,1.42,0,0,1-.59,1.46l-1.76,1.18,3.27,2.11h.22Z"></path>
  <path class="cls-7" d="M411.69,184.36l-.37-.4-1.15-6.34,4.15,1,3.8-5.5,3.69,5.89,4.69-.86-1.41,6.15-.51.48a9.92,9.92,0,0,1-6.73,2.58A8.81,8.81,0,0,1,411.69,184.36Z"></path>
  <path class="cls-2" d="M418.11,188.74h-.3a10.19,10.19,0,0,1-7.17-3.44l-.34-.36a1.34,1.34,0,0,1-.36-.72l-1.16-6.33a1.44,1.44,0,0,1,.41-1.28,1.43,1.43,0,0,1,1.29-.35l3.22.74,3.26-4.71a1.34,1.34,0,0,1,1.19-.61,1.41,1.41,0,0,1,1.16.66l3.19,5.08,3.75-.69a1.42,1.42,0,0,1,1.63,1.71l-1.41,6.14a1.42,1.42,0,0,1-.41.71l-.51.49A11.38,11.38,0,0,1,418.11,188.74Zm-5.32-5.27a7.52,7.52,0,0,0,5.1,2.45,8.59,8.59,0,0,0,5.7-2.18l.22-.22.84-3.64-2.59.47a1.41,1.41,0,0,1-1.45-.63l-2.55-4.08-2.58,3.74A1.43,1.43,0,0,1,414,180l-2.06-.47.7,3.82.08.09Z"></path>
  <path class="cls-7" d="M403,197.86l-.53.14-6.1-2.07,2.85-3.17-3-6,6.94-.37,1.53-4.52,4.69,4.22.17.69a9.91,9.91,0,0,1-1,7.13A8.81,8.81,0,0,1,403,197.86Z"></path>
  <path class="cls-2" d="M402.5,199.41a1.42,1.42,0,0,1-.45-.08l-6.1-2.07a1.4,1.4,0,0,1-.91-1,1.42,1.42,0,0,1,.31-1.3l2.21-2.45L395,187.39a1.41,1.41,0,0,1,1.2-2l6-.31,1.23-3.62a1.4,1.4,0,0,1,2.27-.59l4.69,4.21a1.34,1.34,0,0,1,.42.7l.18.69a11.31,11.31,0,0,1-1.17,8.21,10.21,10.21,0,0,1-6.49,4.59l-.48.12A1.41,1.41,0,0,1,402.5,199.41Zm-3.62-4.13,3.68,1.25.12,0,.1,0a7.41,7.41,0,0,0,4.62-3.27,8.57,8.57,0,0,0,.86-6l-.07-.3-2.78-2.5-.85,2.5a1.4,1.4,0,0,1-1.26.95l-4.8.26,2,4.07a1.4,1.4,0,0,1-.22,1.57Z"></path>
  <path class="cls-7" d="M408,200.42l.21-.5,5.28-3.69.86,4.17,6.58,1.17-3.82,5.8,2.73,3.92-6.17,1.27-.66-.27a9.89,9.89,0,0,1-5.14-5A8.78,8.78,0,0,1,408,200.42Z"></path>
  <path class="cls-2" d="M413.71,214a1.39,1.39,0,0,1-.53-.1l-.66-.27a11.33,11.33,0,0,1-5.91-5.8,10.24,10.24,0,0,1,.14-8l.19-.47a1.51,1.51,0,0,1,.5-.62l5.29-3.69a1.43,1.43,0,0,1,1.33-.15,1.39,1.39,0,0,1,.85,1l.67,3.23,5.64,1a1.4,1.4,0,0,1,.93,2.16l-3.29,5,2.18,3.13a1.42,1.42,0,0,1-.87,2.19L414,213.94A1.33,1.33,0,0,1,413.71,214ZM409.31,201a7.46,7.46,0,0,0-.11,5.66,8.64,8.64,0,0,0,4.36,4.28l.28.11,3.66-.75-1.5-2.16a1.42,1.42,0,0,1,0-1.58l2.65-4-4.47-.79a1.43,1.43,0,0,1-1.14-1.11l-.43-2.07-3.18,2.22,0,.12Z"></path>
  <path class="cls-7" d="M409.41,216.8l-.12.53-4.59,4.53-1.55-4-6.68,0,2.79-6.36-3.35-3.4,5.87-2.29.69.15a9.91,9.91,0,0,1,5.92,4.11A8.8,8.8,0,0,1,409.41,216.8Z"></path>
  <path class="cls-2" d="M404.7,223.27a1.45,1.45,0,0,1-.29,0,1.37,1.37,0,0,1-1-.86l-1.2-3.07-5.73-.05a1.41,1.41,0,0,1-1.28-2l2.4-5.49-2.68-2.72a1.41,1.41,0,0,1-.37-1.28,1.39,1.39,0,0,1,.86-1l5.88-2.3a1.4,1.4,0,0,1,.81-.06l.69.15a11.3,11.3,0,0,1,6.81,4.73,10.16,10.16,0,0,1,1.19,7.86l-.1.49a1.48,1.48,0,0,1-.39.7l-4.59,4.52A1.41,1.41,0,0,1,404.7,223.27Zm-6.08-6.82,4.54,0a1.42,1.42,0,0,1,1.31.9l.77,2,2.76-2.73,0-.12,0-.1a7.52,7.52,0,0,0-.85-5.59,8.59,8.59,0,0,0-5-3.49l-.31-.06-3.48,1.36,1.85,1.87a1.41,1.41,0,0,1,.29,1.56Z"></path>
  <path class="cls-7" d="M415.05,233.66l-.3.45-5.92,2.53v-4.25l-6.2-2.49,4.92-4.9-1.88-4.39H412l.58.39a10,10,0,0,1,4,6A8.82,8.82,0,0,1,415.05,233.66Z"></path>
  <path class="cls-2" d="M408.83,238.05a1.48,1.48,0,0,1-.78-.23,1.42,1.42,0,0,1-.63-1.18v-3.3l-5.31-2.13a1.4,1.4,0,0,1-.47-2.3l4.24-4.24-1.5-3.51a1.38,1.38,0,0,1,.12-1.33,1.41,1.41,0,0,1,1.17-.63H412a1.36,1.36,0,0,1,.78.24l.59.39a11.35,11.35,0,0,1,4.61,6.89,10.22,10.22,0,0,1-1.76,7.75l-.28.41a1.32,1.32,0,0,1-.61.51l-5.93,2.54A1.29,1.29,0,0,1,408.83,238.05Zm-3.69-8.66,4.22,1.69a1.41,1.41,0,0,1,.88,1.31v2.11l3.57-1.52.07-.11.06-.08a7.45,7.45,0,0,0,1.26-5.52,8.61,8.61,0,0,0-3.4-5.07l-.25-.17h-3.74l1,2.42a1.45,1.45,0,0,1-.3,1.56Z"></path>
  <path class="cls-7" d="M408,246.61l-.3.45-5.92,2.53v-4.25l-6.21-2.49,4.92-4.9-1.88-4.39h6.31l.58.39a9.93,9.93,0,0,1,4,6A8.78,8.78,0,0,1,408,246.61Z"></path>
  <path class="cls-2" d="M401.78,251a1.39,1.39,0,0,1-.78-.23,1.42,1.42,0,0,1-.63-1.18v-3.3l-5.31-2.13a1.4,1.4,0,0,1-.47-2.3l4.24-4.24-1.5-3.5a1.41,1.41,0,0,1,1.29-2h6.31a1.36,1.36,0,0,1,.78.24l.59.39a11.35,11.35,0,0,1,4.61,6.89,10.16,10.16,0,0,1-1.76,7.75l-.28.42a1.45,1.45,0,0,1-.61.51l-5.93,2.53A1.29,1.29,0,0,1,401.78,251Zm-3.69-8.66,4.22,1.69a1.41,1.41,0,0,1,.89,1.31v2.12l3.57-1.53.07-.11.06-.08a7.45,7.45,0,0,0,1.26-5.52,8.61,8.61,0,0,0-3.4-5.07l-.25-.17h-3.74l1,2.42a1.43,1.43,0,0,1-.3,1.56Z"></path>
  <path class="cls-7" d="M421.72,227.31l.53-.13,6.1,2.07-2.85,3.16,2.95,6-6.93.37L420,243.29l-4.68-4.22-.18-.69a9.88,9.88,0,0,1,1-7.13A8.79,8.79,0,0,1,421.72,227.31Z"></path>
  <path class="cls-2" d="M420,244.7a1.43,1.43,0,0,1-.94-.36l-4.69-4.22a1.48,1.48,0,0,1-.42-.7l-.17-.69a11.31,11.31,0,0,1,1.16-8.2,10.23,10.23,0,0,1,6.5-4.6l.48-.12a1.37,1.37,0,0,1,.8,0l6.1,2.07a1.42,1.42,0,0,1,.91,1,1.4,1.4,0,0,1-.32,1.3l-2.2,2.45,2.53,5.14a1.42,1.42,0,0,1-.05,1.34,1.39,1.39,0,0,1-1.14.69l-6,.32-1.22,3.61a1.4,1.4,0,0,1-1,.91A1.49,1.49,0,0,1,420,244.7Zm-3.42-6.39,2.78,2.5.84-2.49a1.42,1.42,0,0,1,1.26-1l4.8-.25-2-4.08a1.4,1.4,0,0,1,.22-1.56l1.42-1.57-3.68-1.25-.12,0-.1,0a7.46,7.46,0,0,0-4.62,3.27,8.6,8.6,0,0,0-.87,6Z"></path>
  <path class="cls-7" d="M427.53,204.43l-.53-.11-4.6-4.51,3.93-1.62-.07-6.68,6.41,2.68,3.34-3.41,2.4,5.83-.14.69a9.93,9.93,0,0,1-4,6A8.83,8.83,0,0,1,427.53,204.43Z"></path>
  <path class="cls-2" d="M429.58,206.07a10.13,10.13,0,0,1-2.37-.27l-.49-.1a1.39,1.39,0,0,1-.71-.37l-4.6-4.51a1.4,1.4,0,0,1,.45-2.31l3.05-1.26-.06-5.72a1.42,1.42,0,0,1,2-1.32l5.53,2.31,2.67-2.73a1.4,1.4,0,0,1,2.31.45l2.4,5.83a1.43,1.43,0,0,1,.07.82l-.14.69a11.29,11.29,0,0,1-4.6,6.89A9.8,9.8,0,0,1,429.58,206.07Zm-1.67-3a7.52,7.52,0,0,0,5.58-.95,8.42,8.42,0,0,0,3.39-5.06l.07-.31-1.43-3.46-1.84,1.88a1.42,1.42,0,0,1-1.55.32l-4.43-1.85,0,4.54a1.41,1.41,0,0,1-.87,1.32l-2,.8,2.78,2.72.12,0Z"></path>
  <path class="cls-7" d="M436.72,197.73l-.23-.49.81-6.39L441,193l5.28-4.1,1.75,6.73,4.73.6-3.19,5.43-.64.31a9.9,9.9,0,0,1-7.2.43A8.8,8.8,0,0,1,436.72,197.73Z"></path>
  <path class="cls-2" d="M444.65,204.32a9.91,9.91,0,0,1-9.22-6l-.21-.45a1.32,1.32,0,0,1-.13-.78l.81-6.4a1.39,1.39,0,0,1,.77-1.08,1.42,1.42,0,0,1,1.34,0l2.84,1.67,4.53-3.51a1.42,1.42,0,0,1,1.32-.22,1.4,1.4,0,0,1,.91,1l1.5,5.8,3.79.48a1.41,1.41,0,0,1,1,2.11l-3.2,5.44a1.39,1.39,0,0,1-.6.55l-.64.31A11.42,11.42,0,0,1,444.65,204.32ZM438,197.21a7.43,7.43,0,0,0,4.13,3.87,8.52,8.52,0,0,0,6.09-.36l.28-.13,1.89-3.22-2.61-.33a1.44,1.44,0,0,1-1.19-1l-1.2-4.65-3.59,2.78a1.39,1.39,0,0,1-1.58.1l-1.82-1.07-.49,3.86.05.11A.36.36,0,0,1,438,197.21Z"></path>
  <path class="cls-7" d="M454,204.43l-.53-.11-4.6-4.51,3.94-1.62-.07-6.68,6.41,2.68,3.34-3.41,2.4,5.83-.14.69a10,10,0,0,1-4,6A8.83,8.83,0,0,1,454,204.43Z"></path>
  <path class="cls-2" d="M456,206.07a10.13,10.13,0,0,1-2.37-.27l-.49-.1a1.36,1.36,0,0,1-.7-.37l-4.61-4.51a1.42,1.42,0,0,1,.45-2.31l3.06-1.26-.06-5.72a1.41,1.41,0,0,1,.62-1.19,1.43,1.43,0,0,1,1.33-.13l5.53,2.31,2.67-2.73a1.4,1.4,0,0,1,2.31.45l2.4,5.83a1.43,1.43,0,0,1,.08.82l-.14.69a11.38,11.38,0,0,1-4.61,6.89A9.8,9.8,0,0,1,456,206.07Zm-1.67-3a7.52,7.52,0,0,0,5.58-.95,8.46,8.46,0,0,0,3.4-5.06l.06-.31L462,193.29l-1.85,1.88a1.41,1.41,0,0,1-1.55.32l-4.43-1.85.05,4.54a1.41,1.41,0,0,1-.88,1.32l-2,.8,2.77,2.72.13,0Z"></path>
  <path class="cls-7" d="M463.14,197.73l-.23-.49.81-6.39,3.67,2.16,5.28-4.1,1.74,6.73,4.74.6-3.2,5.43-.64.31a9.88,9.88,0,0,1-7.19.43A8.8,8.8,0,0,1,463.14,197.73Z"></path>
  <path class="cls-2" d="M471.07,204.32a10.34,10.34,0,0,1-3.42-.57,10.19,10.19,0,0,1-5.79-5.45l-.22-.45a1.41,1.41,0,0,1-.13-.78l.81-6.4a1.38,1.38,0,0,1,.78-1.08,1.4,1.4,0,0,1,1.33,0l2.85,1.67,4.52-3.51a1.42,1.42,0,0,1,1.32-.22,1.4,1.4,0,0,1,.91,1l1.51,5.8,3.78.48a1.41,1.41,0,0,1,1,2.11l-3.19,5.44a1.47,1.47,0,0,1-.61.55l-.63.31A11.54,11.54,0,0,1,471.07,204.32Zm-6.61-7.11a7.39,7.39,0,0,0,4.12,3.87,8.51,8.51,0,0,0,6.09-.36l.28-.13,1.9-3.22-2.62-.33a1.41,1.41,0,0,1-1.18-1l-1.21-4.65-3.59,2.78a1.39,1.39,0,0,1-1.58.1l-1.82-1.07-.49,3.86.05.11Z"></path>
  <path class="cls-7" d="M481.24,202.48l-.54-.11-4.6-4.51,3.94-1.62-.07-6.68,6.41,2.68,3.34-3.41,2.4,5.83-.14.69a10,10,0,0,1-4,6A8.81,8.81,0,0,1,481.24,202.48Z"></path>
  <path class="cls-2" d="M483.28,204.12a9.55,9.55,0,0,1-2.36-.27l-.49-.1a1.36,1.36,0,0,1-.71-.37l-4.6-4.51a1.4,1.4,0,0,1,.45-2.31l3.05-1.26-.06-5.72a1.41,1.41,0,0,1,.62-1.19,1.43,1.43,0,0,1,1.33-.13l5.53,2.31,2.67-2.73a1.4,1.4,0,0,1,2.31.45l2.4,5.83a1.36,1.36,0,0,1,.08.82l-.14.69a11.33,11.33,0,0,1-4.61,6.89A9.76,9.76,0,0,1,483.28,204.12Zm-1.66-3a7.44,7.44,0,0,0,5.57-1,8.64,8.64,0,0,0,3.4-5.07l.06-.3-1.42-3.46-1.84,1.88a1.4,1.4,0,0,1-1.55.32l-4.44-1.85.05,4.54a1.41,1.41,0,0,1-.88,1.32l-1.95.8,2.77,2.72.13,0Z"></path>
  <path class="cls-7" d="M540.36,224.4l.41.35,1.92,6.15-4.24-.44-3.11,5.91L531,231l-4.56,1.42.66-6.27.45-.54a9.92,9.92,0,0,1,6.37-3.38A8.84,8.84,0,0,1,540.36,224.4Z"></path>
  <path class="cls-2" d="M535.34,237.78a1.41,1.41,0,0,1-1.09-.52l-3.77-4.66-3.65,1.14a1.41,1.41,0,0,1-1.31-.26,1.39,1.39,0,0,1-.51-1.23l.65-6.28a1.4,1.4,0,0,1,.32-.75l.46-.55a11.29,11.29,0,0,1,7.32-3.88,10.3,10.3,0,0,1,7.53,2.55l.38.32a1.45,1.45,0,0,1,.45.67l1.91,6.15a1.4,1.4,0,0,1-1.49,1.82l-3.28-.34L536.59,237a1.37,1.37,0,0,1-1.11.74ZM531,229.56a1.39,1.39,0,0,1,1.09.53l3,3.73,2.12-4a1.42,1.42,0,0,1,1.39-.75l2.1.22-1.15-3.71-.1-.08-.07-.06h0A7.45,7.45,0,0,0,534,223.6a8.61,8.61,0,0,0-5.4,2.86l-.2.23-.38,3.72,2.51-.78A1.23,1.23,0,0,1,531,229.56Z"></path>
  <path class="cls-7" d="M535.49,298.28l.35-.41,6.19-1.8-.52,4.22,5.86,3.22-5.48,4.27,1.33,4.59-6.25-.78-.54-.46a9.91,9.91,0,0,1-3.26-6.43A8.79,8.79,0,0,1,535.49,298.28Z"></path>
  <path class="cls-2" d="M543.22,313.78l-.17,0-6.26-.77a1.39,1.39,0,0,1-.74-.33l-.54-.46a11.35,11.35,0,0,1-3.75-7.39,10.27,10.27,0,0,1,2.69-7.49l.33-.37a1.38,1.38,0,0,1,.67-.44l6.18-1.8a1.44,1.44,0,0,1,1.31.28,1.42,1.42,0,0,1,.49,1.25l-.41,3.27,5,2.76a1.41,1.41,0,0,1,.73,1.12,1.39,1.39,0,0,1-.54,1.23l-4.72,3.69,1.07,3.66a1.44,1.44,0,0,1-.28,1.31A1.42,1.42,0,0,1,543.22,313.78Zm-5.66-3.53,3.71.45-.73-2.52a1.42,1.42,0,0,1,.48-1.51l3.79-3-4-2.18a1.41,1.41,0,0,1-.72-1.41l.26-2.1-3.73,1.08-.08.1-.07.07a7.46,7.46,0,0,0-1.91,5.33,8.55,8.55,0,0,0,2.75,5.45Z"></path>
  <path class="cls-7" d="M541.8,274.51l.48-.25,6.41.64-2.06,3.72,4.23,5.18-6.68,1.91-.47,4.75-5.52-3-.32-.63a9.88,9.88,0,0,1-.62-7.18A8.79,8.79,0,0,1,541.8,274.51Z"></path>
  <path class="cls-2" d="M543.71,291.87a1.41,1.41,0,0,1-.69-.17l-5.51-3.06a1.45,1.45,0,0,1-.57-.58l-.33-.63a11.35,11.35,0,0,1-.71-8.26,10.28,10.28,0,0,1,5.29-5.94l.45-.23a1.5,1.5,0,0,1,.78-.15l6.41.65a1.41,1.41,0,0,1,1.1,2.08l-1.6,2.89L552,282.9a1.43,1.43,0,0,1,.26,1.32,1.4,1.4,0,0,1-1,.93l-5.76,1.66-.38,3.79a1.41,1.41,0,0,1-.75,1.11A1.36,1.36,0,0,1,543.71,291.87Zm-4.46-5.49,3.27,1.81.26-2.62a1.41,1.41,0,0,1,1-1.21l4.62-1.33-2.88-3.51a1.41,1.41,0,0,1-.14-1.58l1-1.85-3.86-.39-.11.06-.1,0a7.51,7.51,0,0,0-3.76,4.23,8.59,8.59,0,0,0,.52,6.08Z"></path>
  <path class="cls-7" d="M538.81,258.56l.25-.48,5.57-3.24.51,4.22,6.46,1.71-4.28,5.47,2.4,4.13-6.26.76-.63-.32a9.92,9.92,0,0,1-4.72-5.45A8.83,8.83,0,0,1,538.81,258.56Z"></path>
  <path class="cls-2" d="M543.46,272.54a1.43,1.43,0,0,1-.64-.15l-.63-.32a11.34,11.34,0,0,1-5.42-6.27,10.26,10.26,0,0,1,.8-7.91l.23-.45a1.4,1.4,0,0,1,.55-.58l5.57-3.24a1.37,1.37,0,0,1,1.33,0,1.41,1.41,0,0,1,.78,1.09l.39,3.27,5.54,1.47a1.4,1.4,0,0,1,1,.91,1.42,1.42,0,0,1-.23,1.32L549,266.36l1.92,3.3a1.44,1.44,0,0,1,0,1.34,1.42,1.42,0,0,1-1.09.77l-6.26.76ZM540,259.29a7.47,7.47,0,0,0-.57,5.63,8.62,8.62,0,0,0,4,4.62l.27.14,3.71-.45L546.1,267a1.41,1.41,0,0,1,.11-1.58l3-3.78-4.39-1.16a1.41,1.41,0,0,1-1-1.2l-.26-2.1-3.35,2-.06.11Z"></path>
  <path class="cls-7" d="M535.67,261.23l-.25.48L529.85,265l-.51-4.23-6.46-1.7,4.28-5.47-2.4-4.13,6.26-.76.63.32a9.92,9.92,0,0,1,4.72,5.45A8.83,8.83,0,0,1,535.67,261.23Z"></path>
  <path class="cls-2" d="M529.85,266.36a1.35,1.35,0,0,1-.62-.15,1.41,1.41,0,0,1-.78-1.09l-.39-3.28-5.54-1.46a1.41,1.41,0,0,1-.75-2.23l3.69-4.72-1.92-3.3a1.44,1.44,0,0,1,0-1.34,1.42,1.42,0,0,1,1.09-.77l6.26-.76a1.34,1.34,0,0,1,.81.14l.63.32a11.29,11.29,0,0,1,5.42,6.27,10.23,10.23,0,0,1-.8,7.91l-.23.44a1.36,1.36,0,0,1-.55.59l-5.57,3.24A1.48,1.48,0,0,1,529.85,266.36Zm-4.54-8.16,4.39,1.16a1.41,1.41,0,0,1,1,1.19l.26,2.1,3.35-1.95.06-.11a.41.41,0,0,1,.05-.09,7.48,7.48,0,0,0,.57-5.63,8.57,8.57,0,0,0-4-4.62l-.27-.14-3.71.45,1.32,2.28a1.39,1.39,0,0,1-.11,1.57Z"></path>
  <path class="cls-7" d="M534,289l-.39.38-6.33,1.18.93-4.15-5.51-3.78,5.87-3.72-.88-4.69,6.15,1.38.49.52a9.88,9.88,0,0,1,2.61,6.72A8.75,8.75,0,0,1,534,289Z"></path>
  <path class="cls-2" d="M527.28,291.94a1.41,1.41,0,0,1-1.38-1.72l.73-3.22-4.73-3.24a1.39,1.39,0,0,1-.61-1.18,1.4,1.4,0,0,1,.65-1.17L527,278.2l-.7-3.75a1.4,1.4,0,0,1,.4-1.27,1.43,1.43,0,0,1,1.29-.36l6.15,1.38a1.4,1.4,0,0,1,.71.4l.49.51a11.31,11.31,0,0,1,3,7.73A10.16,10.16,0,0,1,535,290l-.37.35a1.34,1.34,0,0,1-.71.36l-6.33,1.19Zm-2-9.29,3.75,2.56a1.44,1.44,0,0,1,.58,1.48l-.47,2.06,3.82-.71L533,288l.08-.07a7.36,7.36,0,0,0,2.42-5.11,8.58,8.58,0,0,0-2.2-5.69l-.21-.22-3.65-.82.49,2.59a1.43,1.43,0,0,1-.64,1.45Z"></path>
  <path class="cls-7" d="M542.6,320.09l.35-.41,6.19-1.8-.52,4.22,5.86,3.22L549,329.59l1.33,4.58-6.25-.77-.54-.46a9.91,9.91,0,0,1-3.26-6.43A8.79,8.79,0,0,1,542.6,320.09Z"></path>
  <path class="cls-2" d="M550.33,335.58h-.17l-6.26-.77a1.45,1.45,0,0,1-.75-.33l-.53-.46a11.35,11.35,0,0,1-3.75-7.39,10.23,10.23,0,0,1,2.69-7.49l.32-.38a1.52,1.52,0,0,1,.68-.43l6.18-1.8a1.42,1.42,0,0,1,1.8,1.53l-.41,3.27,5,2.76a1.41,1.41,0,0,1,.19,2.35l-4.72,3.68,1.07,3.67a1.44,1.44,0,0,1-.28,1.31A1.41,1.41,0,0,1,550.33,335.58Zm-5.66-3.52,3.71.45-.73-2.53a1.39,1.39,0,0,1,.48-1.5l3.79-3-4-2.19a1.39,1.39,0,0,1-.72-1.4l.26-2.1-3.73,1.08-.09.1a.23.23,0,0,1-.07.07,7.53,7.53,0,0,0-1.9,5.33,8.62,8.62,0,0,0,2.75,5.45Z"></path>
  <path class="cls-7" d="M546.78,342.78l.26-.48,5.64-3.11.42,4.23,6.42,1.85-4.4,5.38,2.31,4.17-6.27.63-.63-.33a9.91,9.91,0,0,1-4.59-5.56A8.79,8.79,0,0,1,546.78,342.78Z"></path>
  <path class="cls-2" d="M551.16,356.86a1.45,1.45,0,0,1-.67-.17l-.62-.33a11.31,11.31,0,0,1-5.28-6.39,10.19,10.19,0,0,1,1-7.89l.24-.44a1.34,1.34,0,0,1,.56-.57L552,338a1.39,1.39,0,0,1,1.33,0,1.42,1.42,0,0,1,.75,1.11l.33,3.28,5.5,1.59a1.4,1.4,0,0,1,.7,2.24l-3.79,4.64,1.84,3.34a1.41,1.41,0,0,1-1.09,2.09l-6.27.62ZM548,343.54a7.38,7.38,0,0,0-.69,5.61,8.42,8.42,0,0,0,3.87,4.7l.28.15,3.72-.37-1.27-2.3a1.41,1.41,0,0,1,.14-1.58l3-3.72-4.36-1.25a1.4,1.4,0,0,1-1-1.22l-.21-2.1-3.4,1.88-.06.11A.41.41,0,0,0,548,343.54Z"></path>
  <path class="cls-7" d="M555.82,364.62l.4-.37,6.35-1.09-1,4.14,5.46,3.86-5.93,3.63.8,4.7L555.78,378l-.48-.52a9.91,9.91,0,0,1-2.51-6.76A8.77,8.77,0,0,1,555.82,364.62Z"></path>
  <path class="cls-2" d="M561.9,380.9a1.24,1.24,0,0,1-.33,0l-6.12-1.47a1.39,1.39,0,0,1-.71-.42l-.48-.52a11.29,11.29,0,0,1-2.88-7.77,10.21,10.21,0,0,1,3.52-7.13l.36-.34a1.48,1.48,0,0,1,.72-.35l6.35-1.09a1.4,1.4,0,0,1,1.27.43,1.42,1.42,0,0,1,.34,1.29l-.77,3.21,4.67,3.31a1.41,1.41,0,0,1-.08,2.36l-5.11,3.12.64,3.76a1.4,1.4,0,0,1-1.39,1.65Zm-5.38-4.15,3.63.87-.44-2.6a1.41,1.41,0,0,1,.66-1.44l4.1-2.5-3.71-2.63a1.42,1.42,0,0,1-.56-1.48l.5-2.06-3.83.66-.09.08-.08.07a7.42,7.42,0,0,0-2.5,5.07,8.42,8.42,0,0,0,2.11,5.72Z"></path>
  <path class="cls-7" d="M556.16,386.85l.47-.27,6.43.29-1.86,3.83,4.51,4.94-6.57,2.27-.22,4.77-5.67-2.75-.36-.61a9.92,9.92,0,0,1-1-7.14A8.76,8.76,0,0,1,556.16,386.85Z"></path>
  <path class="cls-2" d="M558.92,404.09a1.51,1.51,0,0,1-.62-.14l-5.67-2.75a1.41,1.41,0,0,1-.6-.56l-.36-.61a11.34,11.34,0,0,1-1.15-8.21,10.22,10.22,0,0,1,5-6.21l.44-.25a1.38,1.38,0,0,1,.77-.19l6.44.3a1.41,1.41,0,0,1,1.14.68,1.39,1.39,0,0,1,.06,1.34l-1.44,3,3.86,4.23a1.4,1.4,0,0,1,.32,1.3,1.37,1.37,0,0,1-.9,1l-5.67,2-.17,3.82a1.39,1.39,0,0,1-.69,1.14A1.33,1.33,0,0,1,558.92,404.09Zm-4.67-5.24,3.36,1.63.12-2.63a1.41,1.41,0,0,1,.95-1.27l4.54-1.57-3.06-3.36a1.4,1.4,0,0,1-.22-1.57l.92-1.9L557,388l-.11.07-.09,0a7.46,7.46,0,0,0-3.53,4.43,8.65,8.65,0,0,0,.84,6Z"></path>
  <path class="cls-7" d="M555.09,410.42l.42-.34,6.4-.67-1.26,4.06,5.19,4.21-6.14,3.23.49,4.75-6-1.87-.44-.55a9.94,9.94,0,0,1-2.07-6.91A8.81,8.81,0,0,1,555.09,410.42Z"></path>
  <path class="cls-2" d="M560.19,427.07a1.4,1.4,0,0,1-.41-.06l-6-1.87a1.47,1.47,0,0,1-.68-.46l-.45-.55a11.37,11.37,0,0,1-2.37-7.94,10.2,10.2,0,0,1,4-6.89l.39-.32a1.42,1.42,0,0,1,.74-.3l6.41-.67a1.41,1.41,0,0,1,1.23.5,1.43,1.43,0,0,1,.26,1.32l-1,3.15,4.45,3.6a1.44,1.44,0,0,1,.52,1.24,1.42,1.42,0,0,1-.75,1.11l-5.3,2.79.4,3.79a1.41,1.41,0,0,1-1.41,1.56Zm-5.19-4.5,3.57,1.11-.28-2.62a1.4,1.4,0,0,1,.75-1.39l4.25-2.24-3.53-2.86a1.42,1.42,0,0,1-.45-1.52l.62-2-3.86.4-.1.08-.08.06a7.46,7.46,0,0,0-2.83,4.9,8.56,8.56,0,0,0,1.75,5.85Z"></path>
  <path class="cls-7" d="M556.26,431.4l.42-.34,6.41-.67-1.26,4.06,5.19,4.2-6.15,3.24.5,4.75-6-1.87-.45-.55a9.9,9.9,0,0,1-2.06-6.91A8.77,8.77,0,0,1,556.26,431.4Z"></path>
  <path class="cls-2" d="M561.37,448.05A1.23,1.23,0,0,1,561,448l-6-1.87a1.38,1.38,0,0,1-.68-.46l-.44-.55a11.27,11.27,0,0,1-2.38-7.94,10.2,10.2,0,0,1,4-6.88l.38-.32a1.38,1.38,0,0,1,.74-.3l6.41-.68a1.42,1.42,0,0,1,1.5,1.82l-1,3.15,4.45,3.61a1.41,1.41,0,0,1,.51,1.23,1.37,1.37,0,0,1-.74,1.11l-5.31,2.79.4,3.8a1.41,1.41,0,0,1-.51,1.24A1.39,1.39,0,0,1,561.37,448.05Zm-5.2-4.5,3.57,1.11-.27-2.62a1.41,1.41,0,0,1,.74-1.4l4.26-2.24-3.53-2.86a1.4,1.4,0,0,1-.46-1.51l.63-2-3.87.41-.09.08-.09.06a7.44,7.44,0,0,0-2.82,4.9,8.63,8.63,0,0,0,1.74,5.85Z"></path>
  <path class="cls-7" d="M549.83,413.72l-.38.39-6.28,1.43.77-4.18-5.66-3.56,5.72-3.94-1.07-4.66,6.21,1.14.5.49a9.93,9.93,0,0,1,2.88,6.61A8.79,8.79,0,0,1,549.83,413.72Z"></path>
  <path class="cls-2" d="M543.17,417a1.36,1.36,0,0,1-1-.39,1.4,1.4,0,0,1-.41-1.27l.59-3.25-4.85-3a1.41,1.41,0,0,1,0-2.36l4.93-3.4-.85-3.72a1.39,1.39,0,0,1,.36-1.29,1.36,1.36,0,0,1,1.27-.41l6.2,1.13a1.4,1.4,0,0,1,.73.38l.51.49a11.35,11.35,0,0,1,3.3,7.6,10.2,10.2,0,0,1-3.12,7.31l-.34.36a1.4,1.4,0,0,1-.7.39l-6.28,1.44A1.73,1.73,0,0,1,543.17,417Zm-2.33-9.2,3.85,2.41a1.42,1.42,0,0,1,.64,1.45l-.38,2.08,3.78-.86.09-.09a.46.46,0,0,1,.07-.07,7.47,7.47,0,0,0,2.22-5.21,8.47,8.47,0,0,0-2.42-5.59l-.23-.22-3.67-.67.58,2.56a1.42,1.42,0,0,1-.57,1.48Z"></path>
  <path class="cls-7" d="M551.63,389.09l-.38.39L545,390.92l.77-4.19-5.66-3.55,5.72-3.95-1.07-4.65,6.2,1.13.51.5a9.93,9.93,0,0,1,2.88,6.61A8.76,8.76,0,0,1,551.63,389.09Z"></path>
  <path class="cls-2" d="M545,392.33a1.4,1.4,0,0,1-1-.39,1.38,1.38,0,0,1-.41-1.27l.59-3.25-4.85-3.05a1.4,1.4,0,0,1-.05-2.35l4.93-3.4-.85-3.73a1.43,1.43,0,0,1,.35-1.29,1.44,1.44,0,0,1,1.28-.41l6.2,1.14a1.46,1.46,0,0,1,.73.37l.5.49a11.34,11.34,0,0,1,3.31,7.6,10.25,10.25,0,0,1-3.12,7.32l-.35.36a1.45,1.45,0,0,1-.69.39l-6.28,1.43A1.17,1.17,0,0,1,545,392.33Zm-2.33-9.21,3.85,2.42a1.4,1.4,0,0,1,.63,1.45l-.38,2.08,3.79-.87.09-.09.07-.07a7.39,7.39,0,0,0,2.22-5.2,8.54,8.54,0,0,0-2.43-5.6l-.22-.22-3.68-.67.59,2.57a1.41,1.41,0,0,1-.57,1.47Z"></path>
  <path class="cls-7" d="M549.83,372.75l-.38.39-6.28,1.44.77-4.19-5.66-3.55,5.72-3.95-1.07-4.65,6.21,1.13.5.5a9.93,9.93,0,0,1,2.88,6.61A8.76,8.76,0,0,1,549.83,372.75Z"></path>
  <path class="cls-2" d="M543.17,376a1.41,1.41,0,0,1-1.38-1.67l.59-3.24L537.53,368a1.4,1.4,0,0,1,0-2.35l4.93-3.41-.85-3.72a1.41,1.41,0,0,1,1.63-1.7l6.2,1.14a1.46,1.46,0,0,1,.73.37l.5.49a11.29,11.29,0,0,1,3.31,7.61,10.23,10.23,0,0,1-3.12,7.31l-.34.36a1.48,1.48,0,0,1-.7.39L543.49,376A1.17,1.17,0,0,1,543.17,376Zm-2.33-9.21,3.85,2.42a1.42,1.42,0,0,1,.64,1.45l-.38,2.08,3.78-.87.09-.09.07-.07a7.41,7.41,0,0,0,2.22-5.2,8.54,8.54,0,0,0-2.43-5.6l-.22-.22-3.67-.67.58,2.57a1.41,1.41,0,0,1-.57,1.47Z"></path>
  <path class="cls-7" d="M537.53,336.06l-.28.47-5.78,2.84-.22-4.25L524.93,333l4.66-5.15-2.1-4.28,6.3-.32.6.36a10,10,0,0,1,4.32,5.78A8.78,8.78,0,0,1,537.53,336.06Z"></path>
  <path class="cls-2" d="M531.47,340.78a1.42,1.42,0,0,1-.72-.2,1.39,1.39,0,0,1-.69-1.14l-.17-3.3-5.42-1.85a1.44,1.44,0,0,1-.91-1,1.46,1.46,0,0,1,.32-1.3l4-4.45-1.68-3.42a1.42,1.42,0,0,1,0-1.34,1.4,1.4,0,0,1,1.15-.69l6.29-.32a1.49,1.49,0,0,1,.8.2l.61.36a11.37,11.37,0,0,1,5,6.64,10.28,10.28,0,0,1-1.36,7.84l-.26.42a1.36,1.36,0,0,1-.59.55l-5.78,2.83A1.38,1.38,0,0,1,531.47,340.78Zm-4.06-8.47,4.3,1.47a1.41,1.41,0,0,1,.95,1.27l.11,2.11,3.49-1.71.06-.11.06-.09a7.46,7.46,0,0,0,1-5.57,8.57,8.57,0,0,0-3.65-4.89l-.26-.16-3.73.19,1.16,2.36a1.44,1.44,0,0,1-.22,1.57Z"></path>
  <path class="cls-7" d="M522.18,240l-.28.46-5.79,2.84-.21-4.25-6.32-2.17,4.66-5.15-2.1-4.28,6.29-.32.61.36a10,10,0,0,1,4.32,5.78A8.82,8.82,0,0,1,522.18,240Z"></path>
  <path class="cls-2" d="M516.11,244.73a1.41,1.41,0,0,1-.71-.2,1.39,1.39,0,0,1-.69-1.14l-.17-3.3-5.42-1.85a1.41,1.41,0,0,1-.59-2.28l4-4.45-1.68-3.42a1.42,1.42,0,0,1,.05-1.34,1.39,1.39,0,0,1,1.14-.69l6.3-.32a1.49,1.49,0,0,1,.8.2l.6.36a11.33,11.33,0,0,1,5,6.64,10.18,10.18,0,0,1-1.36,7.84l-.25.43a1.46,1.46,0,0,1-.59.54l-5.79,2.83A1.32,1.32,0,0,1,516.11,244.73Zm-4.05-8.47,4.3,1.47a1.43,1.43,0,0,1,.95,1.27l.1,2.11,3.49-1.71.07-.11a.22.22,0,0,1,0-.08h0a7.47,7.47,0,0,0,1-5.58,8.57,8.57,0,0,0-3.65-4.89l-.26-.16-3.74.19,1.16,2.36a1.4,1.4,0,0,1-.22,1.57Z"></path>
  <path class="cls-7" d="M514,262.74l-.53.12-6.05-2.22,2.93-3.09-2.81-6.07,6.95-.19,1.65-4.47,4.58,4.33.15.69a9.9,9.9,0,0,1-1.19,7.11A8.77,8.77,0,0,1,514,262.74Z"></path>
  <path class="cls-2" d="M513.48,264.27a1.62,1.62,0,0,1-.49-.08L506.94,262a1.41,1.41,0,0,1-.88-1,1.39,1.39,0,0,1,.35-1.29l2.27-2.4-2.41-5.2a1.42,1.42,0,0,1,1.25-2l6-.16,1.32-3.58a1.4,1.4,0,0,1,1-.89,1.45,1.45,0,0,1,1.29.35l4.57,4.34a1.35,1.35,0,0,1,.41.71l.16.69a11.39,11.39,0,0,1-1.38,8.17,10.22,10.22,0,0,1-6.6,4.43l-.49.11A1.63,1.63,0,0,1,513.48,264.27Zm-3.55-4.22,3.64,1.35.12,0,.11,0a7.48,7.48,0,0,0,4.7-3.15,8.43,8.43,0,0,0,1-6l-.07-.31-2.71-2.57-.91,2.47a1.4,1.4,0,0,1-1.28.92l-4.81.13,1.91,4.13a1.41,1.41,0,0,1-.26,1.56Z"></path>
  <path class="cls-7" d="M508.43,280.88l-.53.12-6-2.23,2.93-3.09-2.8-6.07,6.94-.18,1.65-4.48,4.58,4.33.15.69a9.9,9.9,0,0,1-1.19,7.11A8.81,8.81,0,0,1,508.43,280.88Z"></path>
  <path class="cls-2" d="M507.9,282.41a1.37,1.37,0,0,1-.49-.09l-6-2.23a1.41,1.41,0,0,1-.54-2.29l2.27-2.39-2.4-5.2a1.42,1.42,0,0,1,.08-1.34,1.4,1.4,0,0,1,1.16-.66l6-.17,1.32-3.58a1.4,1.4,0,0,1,1-.89,1.45,1.45,0,0,1,1.29.35l4.58,4.34a1.4,1.4,0,0,1,.4.71l.16.69a11.33,11.33,0,0,1-1.38,8.17,10.25,10.25,0,0,1-6.6,4.43l-.49.11A1.65,1.65,0,0,1,507.9,282.41Zm-3.55-4.22,3.64,1.34.13,0,.1,0a7.48,7.48,0,0,0,4.7-3.15,8.67,8.67,0,0,0,1-6l-.07-.3-2.72-2.57-.91,2.47a1.39,1.39,0,0,1-1.28.93l-4.81.13,1.91,4.12a1.41,1.41,0,0,1-.26,1.56Z"></path>
  <path class="cls-7" d="M495.36,299.45h-.54l-5.4-3.53,3.55-2.35L491.6,287l6.81,1.37,2.61-4,3.49,5.25v.71a10,10,0,0,1-2.76,6.66A8.81,8.81,0,0,1,495.36,299.45Z"></path>
  <path class="cls-2" d="M495.68,300.87h-.87a1.42,1.42,0,0,1-.77-.23l-5.39-3.53a1.45,1.45,0,0,1-.64-1.17,1.4,1.4,0,0,1,.64-1.18l2.74-1.83-1.17-5.6a1.43,1.43,0,0,1,.38-1.29,1.41,1.41,0,0,1,1.28-.38l5.87,1.18,2.09-3.19A1.4,1.4,0,0,1,501,283h0a1.4,1.4,0,0,1,1.18.63l3.48,5.25a1.39,1.39,0,0,1,.24.79v.7a11.36,11.36,0,0,1-3.18,7.66A10.2,10.2,0,0,1,495.68,300.87Zm-.21-2.83a7.4,7.4,0,0,0,5.28-2,8.6,8.6,0,0,0,2.35-5.64v-.31L501,287l-1.44,2.2a1.4,1.4,0,0,1-1.46.62l-4.71-1,.93,4.45a1.41,1.41,0,0,1-.6,1.46L492,295.91l3.25,2.13h.23Z"></path>
  <path class="cls-7" d="M482.42,317.78l-.53.1-5.95-2.49,3.06-3-2.54-6.18,7,.11,1.84-4.4,4.39,4.53.12.7a9.94,9.94,0,0,1-1.5,7.05A8.81,8.81,0,0,1,482.42,317.78Z"></path>
  <path class="cls-2" d="M481.89,319.29a1.5,1.5,0,0,1-.55-.11l-5.94-2.49a1.41,1.41,0,0,1-.44-2.31l2.37-2.3-2.17-5.29a1.4,1.4,0,0,1,.14-1.33,1.38,1.38,0,0,1,1.19-.62l6,.1,1.47-3.52a1.4,1.4,0,0,1,2.31-.44l4.39,4.53a1.42,1.42,0,0,1,.37.73l.13.69a11.33,11.33,0,0,1-1.73,8.11,10.27,10.27,0,0,1-6.79,4.14l-.49.08Zm-3.43-4.37,3.59,1.5.12,0h.1a7.49,7.49,0,0,0,4.83-2.95,8.51,8.51,0,0,0,1.28-6l-.05-.31-2.6-2.68-1,2.43a1.44,1.44,0,0,1-1.32.86l-4.81-.08,1.72,4.21a1.4,1.4,0,0,1-.32,1.55Z"></path>
  <path class="cls-7" d="M472.19,339.21l-.5.21-6.34-1.17,2.36-3.54-3.8-5.5,6.81-1.37.86-4.69,5.25,3.49.28.65a9.94,9.94,0,0,1,0,7.21A8.81,8.81,0,0,1,472.19,339.21Z"></path>
  <path class="cls-2" d="M471.69,340.83a1.15,1.15,0,0,1-.26,0l-6.33-1.16a1.4,1.4,0,0,1-.92-2.17l1.82-2.74L462.75,330a1.43,1.43,0,0,1-.15-1.33,1.41,1.41,0,0,1,1-.85l5.88-1.18.69-3.76a1.42,1.42,0,0,1,.83-1,1.45,1.45,0,0,1,1.34.12l5.24,3.5a1.36,1.36,0,0,1,.53.63l.27.65a11.34,11.34,0,0,1,0,8.29,10.25,10.25,0,0,1-5.75,5.49l-.46.19A1.45,1.45,0,0,1,471.69,340.83Zm-4-3.58,3.82.71.12,0,.09,0a7.45,7.45,0,0,0,4.1-3.91,8.47,8.47,0,0,0,0-6.09l-.12-.29-3.11-2.07-.48,2.59a1.41,1.41,0,0,1-1.11,1.13l-4.71.94,2.58,3.74a1.4,1.4,0,0,1,0,1.58Z"></path>
  <path class="cls-7" d="M468.06,359.31l-.38.38-6.29,1.38.8-4.17-5.63-3.61,5.75-3.89-1-4.67,6.19,1.19.51.5a9.94,9.94,0,0,1,2.82,6.63A8.83,8.83,0,0,1,468.06,359.31Z"></path>
  <path class="cls-2" d="M461.39,362.48a1.41,1.41,0,0,1-1.38-1.67l.62-3.24-4.83-3.09a1.4,1.4,0,0,1-.65-1.17,1.42,1.42,0,0,1,.62-1.18l5-3.37-.82-3.72a1.41,1.41,0,0,1,1.65-1.69l6.19,1.19a1.37,1.37,0,0,1,.72.38l.51.5a11.32,11.32,0,0,1,3.24,7.62,10.29,10.29,0,0,1-3.18,7.29l-.35.35a1.4,1.4,0,0,1-.7.39l-6.3,1.38A1.53,1.53,0,0,1,461.39,362.48Zm-2.26-9.22,3.82,2.45a1.4,1.4,0,0,1,.63,1.45l-.4,2.08,3.79-.83.09-.09.08-.07a7.5,7.5,0,0,0,2.26-5.19,8.37,8.37,0,0,0-2.38-5.61l-.22-.23-3.67-.7.56,2.57a1.4,1.4,0,0,1-.58,1.47Z"></path>
  <path class="cls-7" d="M477.88,336.8l.5-.2,6.33,1.2-2.38,3.53,3.76,5.52-6.82,1.33-.89,4.69-5.23-3.53-.26-.65a9.89,9.89,0,0,1,0-7.21A8.81,8.81,0,0,1,477.88,336.8Z"></path>
  <path class="cls-2" d="M478.38,354.28a1.41,1.41,0,0,1-.79-.24l-5.23-3.53a1.39,1.39,0,0,1-.51-.64l-.27-.65a11.31,11.31,0,0,1,0-8.29,10.21,10.21,0,0,1,5.79-5.45l.46-.19a1.43,1.43,0,0,1,.79-.08l6.33,1.21a1.38,1.38,0,0,1,1,.84,1.43,1.43,0,0,1-.13,1.33L484,341.33l3.23,4.73a1.43,1.43,0,0,1,.13,1.33,1.41,1.41,0,0,1-1,.85l-5.88,1.14-.72,3.75a1.38,1.38,0,0,1-.84,1A1.45,1.45,0,0,1,478.38,354.28Zm-4.08-5.87,3.09,2.09.5-2.59a1.41,1.41,0,0,1,1.11-1.12l4.72-.91-2.55-3.76a1.4,1.4,0,0,1,0-1.58l1.18-1.75-3.81-.73-.12.05-.1,0A7.49,7.49,0,0,0,474.2,342a8.62,8.62,0,0,0,0,6.11Z"></path>
  <path class="cls-7" d="M488.16,318.1l.5-.21,6.33,1.2-2.38,3.53,3.76,5.53-6.82,1.32-.89,4.69-5.23-3.53-.27-.65a9.94,9.94,0,0,1,0-7.21A8.8,8.8,0,0,1,488.16,318.1Z"></path>
  <path class="cls-2" d="M488.66,335.57a1.39,1.39,0,0,1-.79-.24l-5.23-3.53a1.32,1.32,0,0,1-.51-.63l-.27-.66a11.34,11.34,0,0,1,0-8.29,10.28,10.28,0,0,1,5.79-5.45l.47-.19a1.33,1.33,0,0,1,.79-.07l6.33,1.2a1.4,1.4,0,0,1,1,.84,1.43,1.43,0,0,1-.13,1.33l-1.85,2.74,3.22,4.73a1.41,1.41,0,0,1-.89,2.18l-5.89,1.14-.71,3.75a1.4,1.4,0,0,1-.84,1A1.49,1.49,0,0,1,488.66,335.57Zm-4.09-5.87,3.1,2.09.49-2.58a1.41,1.41,0,0,1,1.12-1.12l4.72-.92-2.56-3.76a1.42,1.42,0,0,1,0-1.58l1.18-1.75-3.81-.73-.12,0-.1,0a7.48,7.48,0,0,0-4.12,3.88,8.57,8.57,0,0,0,0,6.1Z"></path>
  <path class="cls-7" d="M505.72,297.59h.54l5.37,3.56-3.56,2.33,1.32,6.55-6.8-1.43-2.64,4-3.45-5.28v-.71a9.94,9.94,0,0,1,2.8-6.64A8.8,8.8,0,0,1,505.72,297.59Z"></path>
  <path class="cls-2" d="M500,314h0a1.4,1.4,0,0,1-1.17-.64l-3.45-5.28a1.28,1.28,0,0,1-.23-.78v-.71a11.27,11.27,0,0,1,3.23-7.63,10.17,10.17,0,0,1,7.45-2.78h.5a1.38,1.38,0,0,1,.76.23l5.37,3.57a1.4,1.4,0,0,1,0,2.35l-2.76,1.81,1.13,5.61a1.41,1.41,0,0,1-1.67,1.66l-5.87-1.23-2.11,3.18A1.41,1.41,0,0,1,500,314Zm-2-7.1,2,3.13,1.45-2.2a1.41,1.41,0,0,1,1.47-.6l4.7,1-.9-4.45a1.42,1.42,0,0,1,.61-1.46l1.77-1.16L505.83,299h-.23a7.39,7.39,0,0,0-5.3,2,8.57,8.57,0,0,0-2.38,5.62Z"></path>
  <path class="cls-7" d="M516.42,279.84l.53-.12,6,2.21-2.92,3.1,2.82,6.06-6.95.2-1.63,4.49-4.59-4.33-.16-.69a9.93,9.93,0,0,1,1.18-7.11A8.81,8.81,0,0,1,516.42,279.84Z"></path>
  <path class="cls-2" d="M514.32,297.19a1.4,1.4,0,0,1-1-.39l-4.59-4.32a1.5,1.5,0,0,1-.41-.71l-.15-.69a11.32,11.32,0,0,1,1.35-8.18,10.25,10.25,0,0,1,6.6-4.44l.48-.11a1.45,1.45,0,0,1,.8,0l6.05,2.21a1.41,1.41,0,0,1,.54,2.29l-2.26,2.4,2.42,5.19a1.42,1.42,0,0,1-.08,1.34,1.44,1.44,0,0,1-1.16.67l-6,.17-1.31,3.59a1.4,1.4,0,0,1-1,.89A1.87,1.87,0,0,1,514.32,297.19ZM511,290.72l2.72,2.56.9-2.47a1.43,1.43,0,0,1,1.28-.93l4.81-.14-1.92-4.12a1.42,1.42,0,0,1,.25-1.56l1.45-1.54-3.65-1.33-.12,0-.1,0a7.43,7.43,0,0,0-4.69,3.16,8.6,8.6,0,0,0-1,6Z"></path>
  <path class="cls-7" d="M544.54,355.43l-.28.46-5.78,2.84-.22-4.25-6.32-2.16,4.66-5.16-2.1-4.28,6.3-.32.6.36a10,10,0,0,1,4.32,5.78A8.82,8.82,0,0,1,544.54,355.43Z"></path>
  <path class="cls-2" d="M538.48,360.14a1.42,1.42,0,0,1-.72-.2,1.39,1.39,0,0,1-.69-1.14l-.17-3.3-5.42-1.85a1.39,1.39,0,0,1-.9-1,1.42,1.42,0,0,1,.31-1.3l4-4.44-1.68-3.43a1.42,1.42,0,0,1,0-1.34,1.4,1.4,0,0,1,1.15-.69l6.29-.32a1.49,1.49,0,0,1,.8.2l.61.36a11.37,11.37,0,0,1,5,6.64,10.28,10.28,0,0,1-1.36,7.84l-.26.43a1.4,1.4,0,0,1-.59.54L539.1,360A1.38,1.38,0,0,1,538.48,360.14Zm-4.06-8.47,4.3,1.47a1.41,1.41,0,0,1,.95,1.27l.11,2.11,3.49-1.71.06-.11.06-.08a7.53,7.53,0,0,0,1-5.58,8.61,8.61,0,0,0-3.65-4.89l-.26-.16-3.73.19,1.16,2.36a1.44,1.44,0,0,1-.22,1.57Z"></path>
  <path class="cls-7" d="M532.11,312.12l-.39.37-6.33,1.18.93-4.15-5.51-3.77,5.87-3.72-.88-4.69,6.15,1.38.49.51a9.94,9.94,0,0,1,2.61,6.72A8.78,8.78,0,0,1,532.11,312.12Z"></path>
  <path class="cls-2" d="M525.39,315.08a1.41,1.41,0,0,1-1.38-1.72l.73-3.21L520,306.91a1.42,1.42,0,0,1-.61-1.19,1.43,1.43,0,0,1,.65-1.17l5.07-3.2-.7-3.75a1.41,1.41,0,0,1,.4-1.28,1.43,1.43,0,0,1,1.29-.36l6.15,1.38a1.5,1.5,0,0,1,.71.41l.49.51a11.3,11.3,0,0,1,3,7.73,10.17,10.17,0,0,1-3.41,7.18l-.36.34a1.36,1.36,0,0,1-.71.37l-6.33,1.18A1.18,1.18,0,0,1,525.39,315.08Zm-2-9.29,3.75,2.57a1.43,1.43,0,0,1,.58,1.47l-.47,2.06,3.82-.71.09-.08.08-.07a7.52,7.52,0,0,0,2.42-5.12,8.61,8.61,0,0,0-2.2-5.69l-.21-.22-3.65-.82.48,2.59a1.4,1.4,0,0,1-.63,1.45Z"></path>
  <path class="cls-7" d="M534.41,238.05l.25-.48,5.57-3.24.51,4.22,6.46,1.71-4.28,5.47,2.4,4.13-6.26.76-.63-.32a9.92,9.92,0,0,1-4.72-5.45A8.83,8.83,0,0,1,534.41,238.05Z"></path>
  <path class="cls-2" d="M539.06,252a1.43,1.43,0,0,1-.64-.15l-.63-.32a11.34,11.34,0,0,1-5.42-6.27,10.26,10.26,0,0,1,.8-7.91l.23-.45a1.4,1.4,0,0,1,.55-.58l5.57-3.24a1.42,1.42,0,0,1,2.11,1l.39,3.27,5.54,1.47a1.4,1.4,0,0,1,1,.91,1.42,1.42,0,0,1-.23,1.32l-3.69,4.72,1.92,3.3a1.44,1.44,0,0,1,0,1.34,1.42,1.42,0,0,1-1.09.77l-6.26.76Zm-3.44-13.25a7.48,7.48,0,0,0-.57,5.63,8.62,8.62,0,0,0,4,4.62l.27.14,3.71-.45-1.32-2.28a1.41,1.41,0,0,1,.11-1.58l3-3.78-4.39-1.16a1.41,1.41,0,0,1-1-1.2l-.25-2.1-3.36,2-.06.11A.41.41,0,0,1,535.62,238.78Z"></path>
  <path class="cls-7" d="M544.84,209.62l.34-.42,6.13-2-.39,4.24,6,3-5.34,4.45,1.48,4.54-6.28-.58-.55-.44a10,10,0,0,1-3.46-6.32A8.8,8.8,0,0,1,544.84,209.62Z"></path>
  <path class="cls-2" d="M553,224.87h-.13l-6.28-.57a1.45,1.45,0,0,1-.76-.31l-.55-.44a11.36,11.36,0,0,1-4-7.28,10.26,10.26,0,0,1,2.44-7.56l.32-.39a1.37,1.37,0,0,1,.66-.45l6.12-2a1.45,1.45,0,0,1,1.32.24,1.4,1.4,0,0,1,.52,1.23l-.29,3.29,5.1,2.59a1.42,1.42,0,0,1,.76,1.1,1.39,1.39,0,0,1-.5,1.24l-4.6,3.84,1.18,3.63a1.4,1.4,0,0,1-.24,1.32A1.42,1.42,0,0,1,553,224.87Zm-5.72-3.35,3.72.34-.82-2.51a1.42,1.42,0,0,1,.44-1.52l3.69-3.07-4-2.06a1.41,1.41,0,0,1-.77-1.39l.19-2.1-3.69,1.2-.08.1-.07.08a7.47,7.47,0,0,0-1.74,5.38,8.4,8.4,0,0,0,2.92,5.35Z"></path>
  <path class="cls-2" d="M469.62,359.66c-.07-11.3,3.89-34.54,31.21-63.14,22-23,20.66-80.57,20.64-81.15l2.82-.08a222.22,222.22,0,0,1-2,32.41c-3.25,23.62-9.78,40.7-19.4,50.77-26.64,27.88-30.5,50.3-30.43,61.18Z"></path>
</svg>
