<?xml version="1.0" encoding="UTF-8"?>
<svg xmlns="http://www.w3.org/2000/svg" viewBox="0 0 600 600">
  <path d="m120.67 279.71h359.29v201.56h-359.29z" fill="#fff"></path>
  <path d="m112.45 140.51h375.09v45.44h-375.09z" fill="#ffde00"></path>
  <path d="m112.45 284.81h16.43v194.05h-16.43z" fill="#ffde00"></path>
  <path d="m471.12 284.81h16.43v194.05h-16.43z" fill="#ffde00"></path>
  <path d="m128.88 466.4h133.02v12.47h-133.02z" fill="#ffde00"></path>
  <path d="m338.09 466.4h133.02v12.47h-133.02z" fill="#ffde00"></path>
  <path d="m123.41 215.09h355.95l8.49 16.95v-28.51h-375.47v33.7z" fill="#ffde00"></path>
  <rect fill="#00ab81" height="37.35" rx="1.45" width="30.82" x="223.23" y="424.63"></rect>
  <rect fill="#00ab81" height="4.42" rx=".59" width="30.82" x="223.23" y="461.98"></rect>
  <rect fill="#00ab81" height="4.42" rx=".59" width="30.82" x="223.23" y="420.21"></rect>
  <rect fill="#00ab81" height="37.35" rx="1.45" width="30.82" x="192.41" y="424.63"></rect>
  <rect fill="#00ab81" height="4.42" rx=".59" width="30.82" x="192.41" y="461.98"></rect>
  <rect fill="#00ab81" height="4.42" rx=".59" width="30.82" x="192.41" y="420.21"></rect>
  <path d="m156.87 378.75a.44.44 0 0 0 -.33.48v2.37a.44.44 0 0 0 .37.48h.1a1.61 1.61 0 0 1 -.33.65 6.5 6.5 0 0 1 -1 .88 5.09 5.09 0 0 0 -1.18 1.11 3.39 3.39 0 0 0 -.62 2v11.08a1.92 1.92 0 0 0 1.63 2.1h8.73a1.92 1.92 0 0 0 1.64-2.1v-11.06a3.52 3.52 0 0 0 -.61-2 5.15 5.15 0 0 0 -1.18-1.12 5.69 5.69 0 0 1 -1-.9 1.61 1.61 0 0 1 -.33-.65h.13a.44.44 0 0 0 .37-.48v-2.36a.58.58 0 0 0 -.11-.35.35.35 0 0 0 -.27-.14h-6z" fill="#00ab81" fill-rule="evenodd"></path>
  <path d="m137.74 378.75a.44.44 0 0 0 -.33.48v2.37c0 .27.16.48.37.48h.1a1.74 1.74 0 0 1 -.33.65 6.17 6.17 0 0 1 -1 .88 5.09 5.09 0 0 0 -1.18 1.11 3.53 3.53 0 0 0 -.62 2v11.08a1.92 1.92 0 0 0 1.64 2.1h8.73a1.92 1.92 0 0 0 1.63-2.1v-11.06a3.38 3.38 0 0 0 -.61-2 5.11 5.11 0 0 0 -1.17-1.12 5.36 5.36 0 0 1 -1-.9 1.61 1.61 0 0 1 -.33-.65h.12a.44.44 0 0 0 .38-.48v-2.36a.58.58 0 0 0 -.11-.35.35.35 0 0 0 -.27-.14h-6z" fill="#00ab81" fill-rule="evenodd"></path>
  <path d="m139 334.54h8.23v-14.19l-2.15-6.65v-5.45h-4v5.45l-2.08 6.65z" fill="#00ab81"></path>
  <path d="m153.83 334.54h8.23v-14.19l-2.14-6.65v-5.45h-4v5.45l-2.14 6.65z" fill="#00ab81"></path>
  <path d="m435.35 378.75a.45.45 0 0 1 .34.48v2.37a.44.44 0 0 1 -.38.48h-.1a1.63 1.63 0 0 0 .34.65 5.68 5.68 0 0 0 1 .88 5.09 5.09 0 0 1 1.18 1.11 3.46 3.46 0 0 1 .62 2v11.08a1.92 1.92 0 0 1 -1.64 2.1h-8.71a1.92 1.92 0 0 1 -1.63-2.1v-11.06a3.38 3.38 0 0 1 .61-2 5.15 5.15 0 0 1 1.18-1.12 5.6 5.6 0 0 0 1-.9 1.61 1.61 0 0 0 .33-.65h-.12a.44.44 0 0 1 -.38-.48v-2.36a.52.52 0 0 1 .1-.35.35.35 0 0 1 .27-.14h6z" fill="#00ab81" fill-rule="evenodd"></path>
  <path d="m454.48 378.75a.44.44 0 0 1 .34.48v2.37a.44.44 0 0 1 -.38.48h-.1a1.76 1.76 0 0 0 .34.65 5.68 5.68 0 0 0 1 .88 5.09 5.09 0 0 1 1.18 1.11 3.46 3.46 0 0 1 .62 2v11.08a1.92 1.92 0 0 1 -1.63 2.1h-8.73a1.92 1.92 0 0 1 -1.64-2.1v-11.06a3.38 3.38 0 0 1 .61-2 5.15 5.15 0 0 1 1.18-1.12 5.69 5.69 0 0 0 1-.9 1.72 1.72 0 0 0 .32-.65h-.12c-.21 0-.37-.21-.37-.48v-2.36a.58.58 0 0 1 .11-.35.33.33 0 0 1 .26-.14h6z" fill="#00ab81" fill-rule="evenodd"></path>
  <path d="m453.21 334.54h-8.21v-14.19l2.14-6.65v-5.45h4v5.45l2.14 6.65z" fill="#00ab81"></path>
  <path d="m438.39 334.54h-8.23v-14.19l2.15-6.65v-5.45h4v5.45l2.15 6.65z" fill="#00ab81"></path>
  <path d="m507.01 270.24h-411.07l27.47-55.15h355.95z" fill="#00ab81"></path>
  <path d="m95.94 270.24h411.07v14.57h-411.07z" fill="#00ab81"></path>
  <path d="m261.91 313.81v165.06h76.18v-165.06zm67.09 152.59h-58v-55.1h10.2v-29.92h-10.2v-58.5h58z" fill="#00ab81"></path>
  <path d="m267.23 381.38h13.97v29.91h-13.97z" fill="#00ab81"></path>
  <path d="m137.12 349.69h26.13v17.53h-26.13z" fill="#fb715d"></path>
  <path d="m137.12 415.04h26.13v17.53h-26.13z" fill="#fb715d"></path>
  <path d="m428.97 349.69h26.13v17.53h-26.13z" fill="#fb715d" transform="matrix(-1 0 0 -1 884.07 716.9)"></path>
  <path d="m428.97 415.04h26.13v17.53h-26.13z" fill="#fb715d" transform="matrix(-1 0 0 -1 884.07 847.6)"></path>
  <path d="m78.35 203.53h34.1v34.1h-34.1z" fill="#fb715d"></path>
  <path d="m78.35 305.83h34.1v34.1h-34.1z" fill="#fb715d"></path>
  <path d="m78.35 339.93h34.1v34.1h-34.1z" fill="#fb715d"></path>
  <path d="m78.35 374.03h34.1v34.1h-34.1z" fill="#fb715d"></path>
  <path d="m487.55 151.81h34.1v34.1h-34.1z" fill="#fb715d"></path>
  <path d="m521.65 203.53h-34.1v27.89l3.11 6.21h30.99z" fill="#fb715d"></path>
  <path d="m487.55 305.83h34.1v34.1h-34.1z" fill="#fb715d"></path>
  <path d="m487.55 339.93h34.1v34.1h-34.1z" fill="#fb715d"></path>
  <path d="m487.55 374.03h34.1v34.1h-34.1z" fill="#fb715d"></path>
  <path d="m112.38 478.87h375.17v10.99h-375.17z" fill="#fb715d"></path>
  <path d="m78.35 185.87h34.1v17.66h-34.1z" fill="#fb715d"></path>
  <path d="m112.45 185.87h34.1v17.66h-34.1z" fill="#fb715d"></path>
  <path d="m146.55 185.87h34.1v17.66h-34.1z" fill="#fb715d"></path>
  <path d="m180.65 185.87h34.1v17.66h-34.1z" fill="#fb715d"></path>
  <path d="m214.75 185.87h34.1v17.66h-34.1z" fill="#fb715d"></path>
  <path d="m248.85 185.87h34.1v17.66h-34.1z" fill="#fb715d"></path>
  <path d="m282.95 185.87h34.1v17.66h-34.1z" fill="#fb715d"></path>
  <path d="m317.05 185.87h34.1v17.66h-34.1z" fill="#fb715d"></path>
  <path d="m351.15 185.87h34.1v17.66h-34.1z" fill="#fb715d"></path>
  <path d="m385.25 185.87h34.1v17.66h-34.1z" fill="#fb715d"></path>
  <path d="m419.35 185.87h34.1v17.66h-34.1z" fill="#fb715d"></path>
  <path d="m453.45 185.87h34.1v17.66h-34.1z" fill="#fb715d"></path>
  <path d="m487.55 185.87h34.1v17.66h-34.1z" fill="#fb715d"></path>
  <path d="m487.55 140.51h34.1v11.3h-34.1z" fill="#fb715d"></path>
  <path d="m78.35 140.51h34.1v11.3h-34.1z" fill="#fb715d"></path>
  <path d="m78.35 151.77h34.1v34.1h-34.1z" fill="#fb715d"></path>
  <path d="m78.35 408.12h34.1v81.73h-34.1z" fill="#fb715d"></path>
  <path d="m487.55 408.12h34.1v81.73h-34.1z" fill="#fb715d"></path>
  <path d="m73.88 128.44h452.23v12.07h-452.23z" fill="#fb715d"></path>
  <path d="m490.66 237.63 16.35 32.61v14.57h-19.46v21.02h34.1v-68.2z" fill="#fb715d"></path>
  <path d="m112.45 237.63-15.7 32.61v14.57h15.7v21.02h-34.1v-68.2z" fill="#fb715d"></path>
  <g fill="#1c19a8">
    <path d="m487.55 187.36h-375.1a1.41 1.41 0 0 1 -1.4-1.41v-45.44a1.41 1.41 0 0 1 1.4-1.41h375.1a1.41 1.41 0 0 1 1.4 1.41v45.49a1.41 1.41 0 0 1 -1.4 1.36zm-373.69-2.82h372.28v-42.63h-372.28z"></path>
    <path d="m244.86 155.82v-8.46h4.89v31.09h-4.85v-.87c0-3.35 0-6.7 0-10v-1.58l-3.21-4v1.11 14.54.84s-.51 0-.87 0c-1.34-.05-2.67 0-4.07 0v-31.91c.48.6.76.93 1 1.29l6.39 9.5c.17.26.44.68.73 1.1"></path>
    <path d="m260.27 173.54h-.93v-.35c0-3.79 0-7.58 0-11.37 0-.22 0-.58 0-.58h4.45v-4.94h-3-.44-.88v-4h5.55v-4.88h-10.57v31.1h10.55v-4.93h-4.24"></path>
    <path d="m272.31 154.56v23 1h4.08c.72 0 .92-.19.92-.93 0-8.08 0-16.17 0-24.26v-1h3.85v-5h-12.61v5h3.77v2.19z"></path>
    <path d="m210.4 173.54h3.15v3.46 1.51s-.72 0-1.49 0c-2.34 0-4.69 0-7 0h-.86v-.82q0-14.79 0-29.56v-.82h5v26.2h1z"></path>
    <path d="m225 146.58h-.14c-2.91 10.61-5.81 21.22-8.75 31.93h4.54.39s.12-.38.16-.49a14.42 14.42 0 0 0 .59-2c.06-.27.14-.59.14-.59h.69 4.74.86l.2.94.4 1.55.2.71h.45 4.5c-2.97-10.85-5.97-21.45-8.97-32.05zm-1.73 24 1.63-6.47 1.86 6.47z"></path>
    <path d="m200.58 152.37a6.75 6.75 0 0 0 -7-5c-2 0-3.9 0-5.85 0-.38 0-.95 0-.95 0s0 .59 0 1q0 14.58 0 29.15v.72.32h.35 4.64v-14.28h1.9c3 0 5.37-1.07 6.6-4a11.07 11.07 0 0 0 .31-7.91zm-4.48 4.37a2.61 2.61 0 0 1 -2.61 2.61h-1.68v-7.19h1.68a2.61 2.61 0 0 1 2.61 2.61z"></path>
    <path d="m330.89 177.47c-.71-2.86-1.39-5.73-2.13-8.58-.62-2.41-1.05-4.89-2.56-7 .41-.34.84-.64 1.21-1a8.49 8.49 0 0 0 2.33-6.8 6.72 6.72 0 0 0 -5.55-6.52 72.79 72.79 0 0 0 -8.5-.3s-.07.06-.11.1v30.63h4.93v-14.18c1.27-.12 1.8.14 2.27 1.14a9.49 9.49 0 0 1 .66 1.85c.8 3.52 1.56 7 2.36 10.56.05.24.31.6.49.61h4.69c-.04-.21-.06-.36-.09-.51zm-6.24-20.38a2.86 2.86 0 0 1 -2.79 1.36h-1.31v-6.7c1.51 0 3.11-.3 4.1 1.21a3.76 3.76 0 0 1 0 4.13z"></path>
    <path d="m295.11 164c.09-5.23.44-9.14 2.19-12.75a10.7 10.7 0 0 1 2-3 5.32 5.32 0 0 1 8.12.5 15.25 15.25 0 0 1 3 7.12 33.07 33.07 0 0 1 -.58 15.63 12.37 12.37 0 0 1 -2.65 5.07 5.34 5.34 0 0 1 -8.2 0 12.59 12.59 0 0 1 -3-6.18c-.43-2.49-.69-5.08-.88-6.39zm9.39 8.27a11.53 11.53 0 0 0 1.3-3.1 30 30 0 0 0 0-13.16 10.55 10.55 0 0 0 -1.25-3 1.55 1.55 0 0 0 -2.82-.06 6.82 6.82 0 0 0 -1 2.05 29.14 29.14 0 0 0 -.35 13.83 13.72 13.72 0 0 0 1.24 3.3c.4.8.95 1 1.4.9a1.71 1.71 0 0 0 1.48-.77z"></path>
    <path d="m344.69 166.36c0-.28.11-.53.15-.9h-2.4v-4.76h7v2.83a26.85 26.85 0 0 1 -2 10.09 13 13 0 0 1 -1.33 2.32c-2.63 3.55-6.92 3.44-9.46-.19a17.45 17.45 0 0 1 -2.72-7.43 33.87 33.87 0 0 1 .55-14 14.35 14.35 0 0 1 2.4-5.2c2.48-3.24 6.48-3.34 9-.14a34.53 34.53 0 0 1 2.13 3.52l-4.35 1.76c-.25-.43-.45-.83-.7-1.19-.9-1.32-2.25-1.35-3 .05a12 12 0 0 0 -1.25 3.37 29.53 29.53 0 0 0 .21 13.16 10.63 10.63 0 0 0 1 2.46 1.77 1.77 0 0 0 .26.39 1.3 1.3 0 0 0 1.91.09c.82-.79 2.18-2.34 2.6-6.23z"></path>
    <path d="m405.45 170.14a29.79 29.79 0 0 1 -.45-13.14 8.94 8.94 0 0 1 1.5-4.11 1.66 1.66 0 0 1 2.81-.11 15.64 15.64 0 0 1 1 1.36l4.22-1.73a10.38 10.38 0 0 0 -2.73-4.32 5.6 5.6 0 0 0 -7.73.19 11 11 0 0 0 -2.59 4.38 32.48 32.48 0 0 0 -.85 16.77 14.73 14.73 0 0 0 3 7 5.51 5.51 0 0 0 7.13 1.31c2-1.15 3-3 3.77-5.13l-4.2-1.7c-.46.62-.82 1.17-1.24 1.67 0 0-.94 1.39-1.76.56a5.9 5.9 0 0 1 -1.88-3z"></path>
    <path d="m390.56 146.92h4.87v31h-4.87z"></path>
    <path d="m359.74 146.35h-.14c-2.91 10.61-5.81 21.23-8.75 31.93h4.54.39s.12-.38.16-.49a15.92 15.92 0 0 0 .6-2c0-.27.13-.58.13-.58h.69 4.74.86l.2.95.4 1.54.2.72h.45 4.5c-3.01-10.87-5.99-21.42-8.97-32.07zm-1.73 24 1.63-6.46 1.86 6.46z"></path>
    <path d="m380.42 155.28v-8.46h4.89v31.1h-4.84v-.92c0-3.35 0-6.69 0-10 0-.46 0-1.35 0-1.35v-.15l-3.24-4.06v1.12 14.54.83h-.87c-1.33-.05-2.67 0-4.06 0v-31.93c.47.6.75.94 1 1.29l6.39 9.5c.18.26.44.68.73 1.1"></path>
    <path d="m248.61 463.39h-19.94a6.85 6.85 0 0 1 -6.85-6.85v-26.47a6.86 6.86 0 0 1 6.85-6.85h19.94a6.86 6.86 0 0 1 6.84 6.85v26.47a6.85 6.85 0 0 1 -6.84 6.85zm-19.94-37.39a4 4 0 0 0 -4 4v26.47a4.05 4.05 0 0 0 4 4h19.94a4 4 0 0 0 4-4v-26.4a4 4 0 0 0 -4-4z"></path>
    <path d="m251.84 467.81h-26.4a3.62 3.62 0 1 1 0-7.23h26.4a3.62 3.62 0 0 1 0 7.23zm-26.4-4.42a.8.8 0 1 0 0 1.6h26.4a.8.8 0 0 0 0-1.6z"></path>
    <path d="m251.84 426h-26.4a3.62 3.62 0 0 1 0-7.24h26.4a3.62 3.62 0 0 1 0 7.24zm-26.4-4.42a.8.8 0 1 0 0 1.6h26.4a.8.8 0 0 0 0-1.6z"></path>
    <path d="m217.79 463.39h-19.94a6.86 6.86 0 0 1 -6.85-6.85v-26.47a6.87 6.87 0 0 1 6.85-6.85h19.94a6.86 6.86 0 0 1 6.84 6.85v26.47a6.85 6.85 0 0 1 -6.84 6.85zm-19.94-37.39a4 4 0 0 0 -4 4v26.47a4 4 0 0 0 4 4h19.94a4 4 0 0 0 4-4v-26.4a4 4 0 0 0 -4-4z"></path>
    <path d="m221 467.81h-26.4a3.62 3.62 0 1 1 0-7.23h26.4a3.62 3.62 0 0 1 0 7.23zm-26.4-4.42a.8.8 0 0 0 0 1.6h26.4a.8.8 0 0 0 0-1.6z"></path>
    <path d="m221 426h-26.4a3.62 3.62 0 1 1 0-7.24h26.4a3.62 3.62 0 0 1 0 7.24zm-26.4-4.42a.8.8 0 0 0 0 1.6h26.4a.8.8 0 0 0 0-1.6z"></path>
    <path d="m164.23 401.28h-8.73a3.28 3.28 0 0 1 -3-3.49v-11.08a4.84 4.84 0 0 1 .88-2.81 6.64 6.64 0 0 1 1.47-1.4l.41-.31a2 2 0 0 1 -.09-.59v-2.37a1.82 1.82 0 0 1 1.51-1.86h.21 6a2.1 2.1 0 0 1 1.38.7 2 2 0 0 1 .39 1.22v2.34a1.77 1.77 0 0 1 -.1.61l.37.28a6.77 6.77 0 0 1 1.48 1.43 4.89 4.89 0 0 1 .88 2.78v11.08a3.29 3.29 0 0 1 -3.06 3.47zm-6.3-20.2a.86.86 0 0 1 .13.14 1.41 1.41 0 0 1 .3 1.19 3 3 0 0 1 -.59 1.19 7.41 7.41 0 0 1 -1.27 1.13 3.82 3.82 0 0 0 -.89.8 2.13 2.13 0 0 0 -.35 1.2v11.06a.85.85 0 0 0 .28.71h8.69a1 1 0 0 0 .24-.71v-11.06a2 2 0 0 0 -.35-1.18 3.93 3.93 0 0 0 -.89-.82 6.79 6.79 0 0 1 -1.23-1.13 2.9 2.9 0 0 1 -.59-1.21 1.36 1.36 0 0 1 .27-1.18 1.8 1.8 0 0 1 .19-.2v-.87h-3.93z"></path>
    <path d="m145.1 401.28h-8.73a3.29 3.29 0 0 1 -3-3.49v-11.08a4.89 4.89 0 0 1 .89-2.81 6.6 6.6 0 0 1 1.45-1.39l.43-.32a2 2 0 0 1 -.1-.59v-2.37a1.84 1.84 0 0 1 1.52-1.86h.21 6a2.18 2.18 0 0 1 1.36.67 2 2 0 0 1 .41 1.21v2.38a1.77 1.77 0 0 1 -.1.61l.39.3a6.74 6.74 0 0 1 1.46 1.41 4.8 4.8 0 0 1 .87 2.78v11.08a3.28 3.28 0 0 1 -3.06 3.47zm-6.3-20.2.13.14a1.44 1.44 0 0 1 .3 1.19 3.19 3.19 0 0 1 -.6 1.19 6.79 6.79 0 0 1 -1.26 1.13 3.84 3.84 0 0 0 -.89.8 2.2 2.2 0 0 0 -.36 1.2v11.06a.82.82 0 0 0 .29.71h8.69a1 1 0 0 0 .24-.71v-11.06a2.06 2.06 0 0 0 -.35-1.18 4.4 4.4 0 0 0 -.89-.82 6.66 6.66 0 0 1 -1.25-1.13 3 3 0 0 1 -.6-1.21 1.43 1.43 0 0 1 .27-1.18l.2-.2v-.87h-3.92z"></path>
    <path d="m163.25 368.61h-26.13a1.4 1.4 0 0 1 -1.39-1.4v-17.52a1.39 1.39 0 0 1 1.39-1.39h26.13a1.39 1.39 0 0 1 1.39 1.39v17.52a1.4 1.4 0 0 1 -1.39 1.4zm-24.74-2.79h23.35v-14.74h-23.35z"></path>
    <path d="m163.25 434h-26.13a1.39 1.39 0 0 1 -1.39-1.39v-17.61a1.39 1.39 0 0 1 1.39-1.39h26.13a1.39 1.39 0 0 1 1.39 1.39v17.53a1.39 1.39 0 0 1 -1.39 1.47zm-24.74-2.78h23.35v-14.79h-23.35z"></path>
    <path d="m171.5 334.54h2.81v133.51h-2.81z"></path>
    <path d="m129.5 432.56h43.4v4.65h-43.4z"></path>
    <path d="m174.31 438.62h-46.21v-7.47h46.21zm-43.4-2.81h40.59v-1.81h-40.59z"></path>
    <path d="m129.5 399.89h43.4v4.65h-43.4z"></path>
    <path d="m174.31 406h-46.21v-7.47h46.21zm-43.4-2.81h40.59v-1.85h-40.59z"></path>
    <path d="m129.5 367.21h43.4v4.65h-43.4z"></path>
    <path d="m174.31 373.28h-46.21v-7.47h46.21zm-43.4-2.82h40.59v-1.84h-40.59z"></path>
    <path d="m129.5 334.54h43.4v4.65h-43.4z"></path>
    <path d="m174.31 340.6h-46.21v-7.47h46.21zm-43.4-2.81h40.59v-1.79h-40.59z"></path>
    <path d="m147.25 335.93h-8.25a1.39 1.39 0 0 1 -1.39-1.39v-14.19a1.25 1.25 0 0 1 .07-.43l2.08-6.44v-5.23a1.39 1.39 0 0 1 .41-1 1.34 1.34 0 0 1 1-.41h4a1.34 1.34 0 0 1 1 .41 1.39 1.39 0 0 1 .41 1v5.23l2.08 6.44a1.25 1.25 0 0 1 .07.43v14.19a1.39 1.39 0 0 1 -1.48 1.39zm-6.85-2.78h5.46v-12.58l-2.08-6.44a1.29 1.29 0 0 1 -.07-.43v-4.06h-1.22v4.06a1.29 1.29 0 0 1 -.07.43l-2.08 6.44z"></path>
    <path d="m162.06 335.93h-8.23a1.39 1.39 0 0 1 -1.39-1.39v-14.19a1.54 1.54 0 0 1 .06-.43l2.08-6.44v-5.23a1.38 1.38 0 0 1 1.39-1.39h4a1.34 1.34 0 0 1 1 .41 1.39 1.39 0 0 1 .41 1v5.23l2.08 6.44a1.55 1.55 0 0 1 .07.43v14.19a1.39 1.39 0 0 1 -1.47 1.37zm-6.84-2.78h5.46v-12.58l-2.08-6.44a1.59 1.59 0 0 1 -.06-.43v-4.06h-1.21v4.06a1.61 1.61 0 0 1 -.07.43l-2.08 6.44z"></path>
    <path d="m436.72 401.28h-8.72a3.28 3.28 0 0 1 -3-3.49v-11.06a4.78 4.78 0 0 1 .87-2.8 6.59 6.59 0 0 1 1.44-1.39l.41-.32a2.12 2.12 0 0 1 -.1-.62v-2.36a2 2 0 0 1 .4-1.2 2.16 2.16 0 0 1 1.37-.69h6 .25a1.85 1.85 0 0 1 1.52 1.88v2.35a2.2 2.2 0 0 1 -.09.58l.41.32a6.49 6.49 0 0 1 1.46 1.4 4.79 4.79 0 0 1 .89 2.77v11.12a3.29 3.29 0 0 1 -3.11 3.51zm-6.35-20.21.14.14a1.46 1.46 0 0 1 .33 1.18 3 3 0 0 1 -.59 1.2 6.5 6.5 0 0 1 -1.26 1.14 4.2 4.2 0 0 0 -.89.83 2 2 0 0 0 -.35 1.18v11.05a.85.85 0 0 0 .28.71h8.69a1 1 0 0 0 .25-.71v-11.08a2.14 2.14 0 0 0 -.36-1.18 4.18 4.18 0 0 0 -.87-.8 6.32 6.32 0 0 1 -1.28-1.13 3.19 3.19 0 0 1 -.6-1.19 1.38 1.38 0 0 1 .26-1.19 1 1 0 0 1 .17-.18v-.9h-3.93z"></path>
    <path d="m455.86 401.28h-8.73a3.29 3.29 0 0 1 -3-3.49v-11.06a4.84 4.84 0 0 1 .87-2.79 6.43 6.43 0 0 1 1.47-1.42l.38-.3a2.12 2.12 0 0 1 -.1-.62v-2.36a1.94 1.94 0 0 1 .37-1.17 2.11 2.11 0 0 1 1.39-.72h6 .25a1.83 1.83 0 0 1 1.52 1.86v2.37a2 2 0 0 1 -.09.59c.13.11.27.21.41.31a6.41 6.41 0 0 1 1.46 1.4 4.82 4.82 0 0 1 .89 2.78v11.11a3.29 3.29 0 0 1 -3.09 3.51zm-6.36-20.21.14.14a1.46 1.46 0 0 1 .33 1.18 2.93 2.93 0 0 1 -.59 1.2 6.53 6.53 0 0 1 -1.23 1.12 4 4 0 0 0 -.92.85 2.09 2.09 0 0 0 -.35 1.18v11.05a.85.85 0 0 0 .28.71h8.7a1 1 0 0 0 .24-.71v-11.08a2 2 0 0 0 -.36-1.18 3.77 3.77 0 0 0 -.88-.8 6.68 6.68 0 0 1 -1.26-1.13 3.07 3.07 0 0 1 -.61-1.19 1.38 1.38 0 0 1 .26-1.19 1.07 1.07 0 0 1 .18-.19v-.89h-3.94z"></path>
    <path d="m455.1 368.61h-26.1a1.4 1.4 0 0 1 -1.39-1.4v-17.52a1.39 1.39 0 0 1 1.39-1.39h26.1a1.39 1.39 0 0 1 1.39 1.39v17.52a1.4 1.4 0 0 1 -1.39 1.4zm-24.74-2.79h23.35v-14.74h-23.35z"></path>
    <path d="m455.1 434h-26.1a1.39 1.39 0 0 1 -1.39-1.39v-17.61a1.39 1.39 0 0 1 1.39-1.39h26.1a1.39 1.39 0 0 1 1.39 1.39v17.53a1.39 1.39 0 0 1 -1.39 1.47zm-24.74-2.78h23.35v-14.79h-23.35z"></path>
    <path d="m417.92 334.54h2.81v133.51h-2.81z"></path>
    <path d="m419.32 432.56h51.79v4.65h-51.79z" transform="matrix(-1 0 0 -1 890.44 869.77)"></path>
    <path d="m472.52 438.62h-54.6v-7.47h54.6zm-51.79-2.81h49v-1.81h-49z"></path>
    <path d="m419.32 399.89h51.79v4.65h-51.79z" transform="matrix(-1 0 0 -1 890.44 804.42)"></path>
    <path d="m472.52 405.94h-54.6v-7.46h54.6zm-51.79-2.81h49v-1.84h-49z"></path>
    <path d="m419.32 367.21h51.79v4.65h-51.79z" transform="matrix(-1 0 0 -1 890.44 739.08)"></path>
    <path d="m472.52 373.27h-54.6v-7.47h54.6zm-51.79-2.81h49v-1.84h-49z"></path>
    <path d="m419.32 334.54h51.79v4.65h-51.79z" transform="matrix(-1 0 0 -1 890.44 673.73)"></path>
    <path d="m472.52 340.6h-54.6v-7.47h54.6zm-51.79-2.81h49v-1.85h-49z"></path>
    <path d="m453.21 335.93h-8.21a1.39 1.39 0 0 1 -1.39-1.39v-14.19a1.54 1.54 0 0 1 .06-.43l2.08-6.44v-5.23a1.43 1.43 0 0 1 .41-1 1.4 1.4 0 0 1 1-.4h4a1.37 1.37 0 0 1 1 .41 1.39 1.39 0 0 1 .41 1v5.23l2.08 6.44a1.55 1.55 0 0 1 .07.43v14.19a1.39 1.39 0 0 1 -1.51 1.38zm-6.84-2.78h5.45v-12.59l-2.08-6.43a1.59 1.59 0 0 1 -.06-.43v-4.06h-1.21v4.06a1.59 1.59 0 0 1 -.06.43l-2.08 6.43z"></path>
    <path d="m438.39 335.93h-8.23a1.39 1.39 0 0 1 -1.39-1.39v-14.19a1.54 1.54 0 0 1 .06-.43l2.08-6.44v-5.23a1.38 1.38 0 0 1 1.39-1.39h4a1.34 1.34 0 0 1 1 .41 1.39 1.39 0 0 1 .41 1v5.23l2.08 6.44a1.25 1.25 0 0 1 .07.43v14.19a1.4 1.4 0 0 1 -1.47 1.37zm-6.84-2.78h5.45v-12.58l-2-6.44a1.29 1.29 0 0 1 -.07-.43v-4.06h-1.22v4.06a1.29 1.29 0 0 1 -.07.43l-2.08 6.44z"></path>
    <path d="m112.45 239h-34.1a1.4 1.4 0 0 1 -1.4-1.4v-34.1a1.41 1.41 0 0 1 1.4-1.41h34.1a1.41 1.41 0 0 1 1.41 1.41v34.1a1.41 1.41 0 0 1 -1.41 1.4zm-32.69-2.81h31.29v-31.25h-31.29z"></path>
    <path d="m112.45 341.33h-34.1a1.41 1.41 0 0 1 -1.4-1.41v-34.09a1.41 1.41 0 0 1 1.4-1.41h34.1a1.41 1.41 0 0 1 1.41 1.41v34.09a1.41 1.41 0 0 1 -1.41 1.41zm-32.69-2.81h31.29v-31.29h-31.29z"></path>
    <path d="m112.45 375.43h-34.1a1.4 1.4 0 0 1 -1.35-1.43v-34.08a1.4 1.4 0 0 1 1.4-1.4h34.1a1.41 1.41 0 0 1 1.41 1.4v34.08a1.41 1.41 0 0 1 -1.46 1.43zm-32.69-2.81h31.29v-31.29h-31.29z"></path>
    <path d="m112.45 409.53h-34.1a1.41 1.41 0 0 1 -1.4-1.41v-34.12a1.41 1.41 0 0 1 1.4-1.41h34.1a1.41 1.41 0 0 1 1.41 1.41v34.09a1.41 1.41 0 0 1 -1.41 1.44zm-32.69-2.81h31.29v-31.29h-31.29z"></path>
    <path d="m521.65 187.31h-34.1a1.41 1.41 0 0 1 -1.41-1.4v-34.1a1.41 1.41 0 0 1 1.41-1.41h34.1a1.41 1.41 0 0 1 1.4 1.41v34.1a1.4 1.4 0 0 1 -1.4 1.4zm-32.65-2.81h31.29v-31.28h-31.29z"></path>
    <path d="m521.65 239h-31a1.42 1.42 0 0 1 -1.26-.77l-3.11-6.21a1.36 1.36 0 0 1 -.15-.63v-27.86a1.41 1.41 0 0 1 1.41-1.41h34.1a1.41 1.41 0 0 1 1.4 1.41v34.1a1.4 1.4 0 0 1 -1.39 1.37zm-30.13-2.81h28.72v-31.25h-31.24v26.15z"></path>
    <path d="m521.65 341.33h-34.1a1.41 1.41 0 0 1 -1.41-1.41v-34.09a1.41 1.41 0 0 1 1.41-1.41h34.1a1.41 1.41 0 0 1 1.4 1.41v34.09a1.41 1.41 0 0 1 -1.4 1.41zm-32.65-2.81h31.29v-31.29h-31.29z"></path>
    <path d="m521.65 375.43h-34.1a1.41 1.41 0 0 1 -1.41-1.4v-34.11a1.41 1.41 0 0 1 1.41-1.4h34.1a1.4 1.4 0 0 1 1.4 1.4v34.08a1.4 1.4 0 0 1 -1.4 1.43zm-32.65-2.81h31.29v-31.29h-31.29z"></path>
    <path d="m521.65 409.53h-34.1a1.41 1.41 0 0 1 -1.41-1.41v-34.12a1.41 1.41 0 0 1 1.41-1.41h34.1a1.41 1.41 0 0 1 1.4 1.41v34.09a1.41 1.41 0 0 1 -1.4 1.44zm-32.65-2.81h31.29v-31.29h-31.29z"></path>
    <path d="m487.55 187.36h-375.1a1.41 1.41 0 0 1 -1.4-1.41v-45.44a1.41 1.41 0 0 1 1.4-1.41h375.1a1.41 1.41 0 0 1 1.4 1.41v45.49a1.41 1.41 0 0 1 -1.4 1.36zm-373.69-2.82h372.28v-42.63h-372.28z"></path>
    <path d="m487.55 491.26h-375.17a1.4 1.4 0 0 1 -1.4-1.4v-11a1.41 1.41 0 0 1 1.4-1.41h375.17a1.41 1.41 0 0 1 1.4 1.41v11a1.4 1.4 0 0 1 -1.4 1.4zm-373.76-2.81h372.35v-8.18h-372.35z"></path>
    <path d="m507 271.65h-411.06a1.4 1.4 0 0 1 -1.2-.67 1.38 1.38 0 0 1 -.06-1.36l27.47-55.16a1.41 1.41 0 0 1 1.26-.78h356a1.41 1.41 0 0 1 1.26.78l27.64 55.15a1.42 1.42 0 0 1 -.05 1.37 1.4 1.4 0 0 1 -1.26.67zm-408.8-2.81h406.53l-26.24-52.34h-354.21z"></path>
    <path d="m507 286.22h-411.06a1.41 1.41 0 0 1 -1.41-1.41v-14.57a1.41 1.41 0 0 1 1.41-1.4h411.06a1.4 1.4 0 0 1 1.4 1.4v14.57a1.41 1.41 0 0 1 -1.4 1.41zm-409.66-2.81h408.26v-11.76h-408.26z"></path>
    <path d="m128.88 480.27h-16.43a1.4 1.4 0 0 1 -1.4-1.4v-194.06a1.4 1.4 0 0 1 1.4-1.4h16.43a1.41 1.41 0 0 1 1.41 1.4v194.06a1.41 1.41 0 0 1 -1.41 1.4zm-15-2.81h13.62v-191.24h-13.64z"></path>
    <path d="m487.55 480.27h-16.43a1.41 1.41 0 0 1 -1.41-1.4v-194.06a1.41 1.41 0 0 1 1.41-1.4h16.43a1.4 1.4 0 0 1 1.4 1.4v194.06a1.4 1.4 0 0 1 -1.4 1.4zm-15-2.81h13.62v-191.24h-13.65z"></path>
    <path d="m112.45 204.94h-34.1a1.41 1.41 0 0 1 -1.4-1.41v-17.66a1.41 1.41 0 0 1 1.4-1.41h34.1a1.41 1.41 0 0 1 1.41 1.41v17.66a1.41 1.41 0 0 1 -1.41 1.41zm-32.69-2.82h31.29v-14.85h-31.29z"></path>
    <path d="m146.55 204.94h-34.1a1.41 1.41 0 0 1 -1.4-1.41v-17.66a1.41 1.41 0 0 1 1.4-1.41h34.1a1.41 1.41 0 0 1 1.41 1.41v17.66a1.41 1.41 0 0 1 -1.41 1.41zm-32.69-2.82h31.29v-14.85h-31.29z"></path>
    <path d="m180.65 204.94h-34.1a1.41 1.41 0 0 1 -1.4-1.41v-17.66a1.41 1.41 0 0 1 1.4-1.41h34.1a1.41 1.41 0 0 1 1.41 1.41v17.66a1.41 1.41 0 0 1 -1.41 1.41zm-32.65-2.82h31.29v-14.85h-31.29z"></path>
    <path d="m214.75 204.94h-34.1a1.41 1.41 0 0 1 -1.4-1.41v-17.66a1.41 1.41 0 0 1 1.4-1.41h34.1a1.41 1.41 0 0 1 1.41 1.41v17.66a1.41 1.41 0 0 1 -1.41 1.41zm-32.69-2.82h31.29v-14.85h-31.29z"></path>
    <path d="m248.85 204.94h-34.1a1.41 1.41 0 0 1 -1.4-1.41v-17.66a1.41 1.41 0 0 1 1.4-1.41h34.1a1.41 1.41 0 0 1 1.41 1.41v17.66a1.41 1.41 0 0 1 -1.41 1.41zm-32.69-2.82h31.29v-14.85h-31.29z"></path>
    <path d="m283 204.94h-34.1a1.4 1.4 0 0 1 -1.4-1.41v-17.66a1.4 1.4 0 0 1 1.4-1.41h34.1a1.41 1.41 0 0 1 1.41 1.41v17.66a1.41 1.41 0 0 1 -1.41 1.41zm-32.69-2.82h31.29v-14.85h-31.34z"></path>
    <path d="m317.05 204.94h-34.05a1.41 1.41 0 0 1 -1.4-1.41v-17.66a1.41 1.41 0 0 1 1.4-1.41h34.1a1.41 1.41 0 0 1 1.41 1.41v17.66a1.41 1.41 0 0 1 -1.46 1.41zm-32.69-2.82h31.28v-14.85h-31.28z"></path>
    <path d="m351.15 204.94h-34.1a1.41 1.41 0 0 1 -1.41-1.41v-17.66a1.41 1.41 0 0 1 1.41-1.41h34.1a1.4 1.4 0 0 1 1.4 1.41v17.66a1.4 1.4 0 0 1 -1.4 1.41zm-32.69-2.82h31.28v-14.85h-31.28z"></path>
    <path d="m385.25 204.94h-34.1a1.41 1.41 0 0 1 -1.41-1.41v-17.66a1.41 1.41 0 0 1 1.41-1.41h34.1a1.41 1.41 0 0 1 1.41 1.41v17.66a1.41 1.41 0 0 1 -1.41 1.41zm-32.7-2.82h31.29v-14.85h-31.29z"></path>
    <path d="m419.35 204.94h-34.1a1.41 1.41 0 0 1 -1.41-1.41v-17.66a1.41 1.41 0 0 1 1.41-1.41h34.1a1.41 1.41 0 0 1 1.4 1.41v17.66a1.41 1.41 0 0 1 -1.4 1.41zm-32.69-2.82h31.28v-14.85h-31.28z"></path>
    <path d="m453.45 204.94h-34.1a1.41 1.41 0 0 1 -1.41-1.41v-17.66a1.41 1.41 0 0 1 1.41-1.41h34.1a1.41 1.41 0 0 1 1.41 1.41v17.66a1.41 1.41 0 0 1 -1.41 1.41zm-32.7-2.82h31.25v-14.85h-31.25z"></path>
    <path d="m487.55 204.94h-34.1a1.41 1.41 0 0 1 -1.41-1.41v-17.66a1.41 1.41 0 0 1 1.41-1.41h34.1a1.41 1.41 0 0 1 1.4 1.41v17.66a1.41 1.41 0 0 1 -1.4 1.41zm-32.69-2.82h31.28v-14.85h-31.28z"></path>
    <path d="m521.65 204.94h-34.1a1.41 1.41 0 0 1 -1.41-1.41v-17.66a1.41 1.41 0 0 1 1.41-1.41h34.1a1.41 1.41 0 0 1 1.4 1.41v17.66a1.41 1.41 0 0 1 -1.4 1.41zm-32.65-2.82h31.29v-14.85h-31.29z"></path>
    <path d="m521.65 153.22h-34.1a1.41 1.41 0 0 1 -1.41-1.41v-11.3a1.41 1.41 0 0 1 1.41-1.41h34.1a1.41 1.41 0 0 1 1.4 1.41v11.3a1.41 1.41 0 0 1 -1.4 1.41zm-32.65-2.82h31.29v-8.49h-31.29z"></path>
    <path d="m112.45 153.22h-34.1a1.41 1.41 0 0 1 -1.4-1.41v-11.3a1.41 1.41 0 0 1 1.4-1.41h34.1a1.41 1.41 0 0 1 1.41 1.41v11.3a1.41 1.41 0 0 1 -1.41 1.41zm-32.69-2.82h31.29v-8.49h-31.29z"></path>
    <path d="m112.45 187.27h-34.1a1.4 1.4 0 0 1 -1.4-1.4v-34.1a1.41 1.41 0 0 1 1.4-1.41h34.1a1.41 1.41 0 0 1 1.41 1.41v34.1a1.41 1.41 0 0 1 -1.41 1.4zm-32.69-2.81h31.29v-31.28h-31.29z"></path>
    <path d="m112.45 491.26h-34.1a1.4 1.4 0 0 1 -1.4-1.4v-81.74a1.4 1.4 0 0 1 1.4-1.4h34.1a1.41 1.41 0 0 1 1.41 1.4v81.74a1.41 1.41 0 0 1 -1.41 1.4zm-32.69-2.81h31.29v-78.92h-31.29z"></path>
    <path d="m521.65 491.26h-34.1a1.41 1.41 0 0 1 -1.41-1.4v-81.74a1.41 1.41 0 0 1 1.41-1.4h34.1a1.4 1.4 0 0 1 1.4 1.4v81.74a1.4 1.4 0 0 1 -1.4 1.4zm-32.65-2.81h31.29v-78.92h-31.29z"></path>
    <path d="m338.09 480.27h-76.18a1.41 1.41 0 0 1 -1.41-1.4v-165.06a1.41 1.41 0 0 1 1.41-1.4h76.18a1.41 1.41 0 0 1 1.41 1.4v165.06a1.41 1.41 0 0 1 -1.41 1.4zm-74.78-2.81h73.38v-162.24h-73.38z"></path>
    <path d="m338.09 315.22h-76.18a1.41 1.41 0 0 1 -1.41-1.41v-29a1.41 1.41 0 0 1 1.41-1.4h76.18a1.41 1.41 0 0 1 1.41 1.4v29a1.41 1.41 0 0 1 -1.41 1.41zm-74.78-2.81h73.38v-26.19h-73.38z"></path>
    <path d="m338.09 315.22h-76.18a1.41 1.41 0 0 1 -1.41-1.41v-29a1.41 1.41 0 0 1 1.41-1.4h76.18a1.41 1.41 0 0 1 1.41 1.4v29a1.41 1.41 0 0 1 -1.41 1.41zm-74.78-2.81h73.38v-26.19h-73.38z"></path>
    <path d="m261.91 480.27h-133a1.4 1.4 0 0 1 -1.4-1.4v-12.47a1.41 1.41 0 0 1 1.4-1.41h133a1.41 1.41 0 0 1 1.4 1.41v12.47a1.4 1.4 0 0 1 -1.4 1.4zm-131.62-2.81h130.21v-9.65h-130.21z"></path>
    <path d="m471.12 480.27h-133a1.4 1.4 0 0 1 -1.4-1.4v-12.47a1.41 1.41 0 0 1 1.4-1.41h133a1.41 1.41 0 0 1 1.4 1.41v12.47a1.4 1.4 0 0 1 -1.4 1.4zm-131.62-2.81h130.21v-9.65h-130.21z"></path>
    <path d="m526.12 141.91h-452.24a1.4 1.4 0 0 1 -1.4-1.4v-12.07a1.41 1.41 0 0 1 1.4-1.41h452.24a1.41 1.41 0 0 1 1.4 1.41v12.07a1.4 1.4 0 0 1 -1.4 1.4zm-450.83-2.81h449.42v-9.25h-449.42z"></path>
    <path d="m338.09 480.27h-76.18a1.41 1.41 0 0 1 -1.41-1.4v-165.06a1.41 1.41 0 0 1 1.41-1.4h76.18a1.41 1.41 0 0 1 1.41 1.4v165.06a1.41 1.41 0 0 1 -1.41 1.4zm-74.77-2.81h73.37v-162.24h-73.37z"></path>
    <path d="m338.09 480.27h-76.18a1.41 1.41 0 0 1 -1.41-1.4v-165.06a1.41 1.41 0 0 1 1.41-1.4h76.18a1.41 1.41 0 0 1 1.41 1.4v165.06a1.41 1.41 0 0 1 -1.41 1.4zm-74.77-2.81h73.37v-162.24h-73.37zm65.68-9.65h-58a1.41 1.41 0 0 1 -1.41-1.41v-55.1a1.41 1.41 0 0 1 1.41-1.41h8.82v-27.1h-8.82a1.41 1.41 0 0 1 -1.41-1.41v-58.5a1.41 1.41 0 0 1 1.41-1.41h58a1.41 1.41 0 0 1 1.41 1.41v143.52a1.41 1.41 0 0 1 -1.41 1.41zm-56.62-2.81h55.25v-140.72h-55.25v55.72h8.82a1.4 1.4 0 0 1 1.4 1.4v29.9a1.4 1.4 0 0 1 -1.4 1.41h-8.82z"></path>
    <path d="m281.2 412.71h-14a1.41 1.41 0 0 1 -1.41-1.41v-29.92a1.41 1.41 0 0 1 1.41-1.4h14a1.4 1.4 0 0 1 1.4 1.4v29.92a1.4 1.4 0 0 1 -1.4 1.41zm-12.57-2.82h11.16v-27.1h-11.16z"></path>
    <path d="m521.65 307.23h-34.1a1.41 1.41 0 0 1 -1.41-1.4v-21a1.41 1.41 0 0 1 1.41-1.4h18.05v-12.85l-16.2-32.32a1.42 1.42 0 0 1 .06-1.37 1.4 1.4 0 0 1 1.2-.67h31a1.41 1.41 0 0 1 1.41 1.41v68.2a1.41 1.41 0 0 1 -1.42 1.4zm-32.65-2.81h31.29v-65.42h-27.3l15.32 30.58a1.39 1.39 0 0 1 .15.63v14.57a1.41 1.41 0 0 1 -1.4 1.41h-18.06z"></path>
    <path d="m112.45 307.23h-34.1a1.4 1.4 0 0 1 -1.4-1.4v-68.2a1.41 1.41 0 0 1 1.4-1.41h34.1a1.41 1.41 0 0 1 1.27 2l-15.57 32.34v12.85h14.3a1.41 1.41 0 0 1 1.41 1.4v21a1.41 1.41 0 0 1 -1.41 1.42zm-32.69-2.81h31.29v-18.2h-14.3a1.41 1.41 0 0 1 -1.41-1.41v-14.57a1.43 1.43 0 0 1 .14-.61l14.73-30.63h-30.45z"></path>
    <path d="m112.38 238.64a1.22 1.22 0 0 1 -.32 0 1.4 1.4 0 0 1 -1.08-1.36v-33.75a1.41 1.41 0 0 1 1.4-1.41h375.48a1.41 1.41 0 0 1 1.4 1.41v28.47a1.4 1.4 0 0 1 -1.08 1.37 1.39 1.39 0 0 1 -1.58-.74l-8.11-16.16h-354.21l-10.64 21.36a1.39 1.39 0 0 1 -1.26.81zm1.41-33.7v26.32l8.36-16.8a1.41 1.41 0 0 1 1.26-.78h356a1.41 1.41 0 0 1 1.26.78l5.83 11.63v-21.15z"></path>
  </g>
</svg>
