<?xml version="1.0" encoding="UTF-8"?>
<svg xmlns="http://www.w3.org/2000/svg" viewBox="0 0 600 600">
  <path d="m69.03 230.42h421.99v261.44h-421.99z" fill="#fff"></path>
  <path d="m159.39 323.86v64.53h-33.9v-110.52h25.37c3.06-5.76 6.4-12.6 6.4-12.6h-82.17v210.66h92.23v-152.07zm-43.32 138.57h-33.45v-45.89h33.45zm0-74h-33.45v-110.56h33.45zm43.33 74h-33.9v-45.89h33.9z" fill="#ffde00"></path>
  <path d="m75.09 222.48v42.79h82.17l10.06-22.82v-20zm84.31 35.09h-76.78v-27.19h76.78z" fill="#ffde00"></path>
  <path d="m179.43 399.41h305.54v6.11h-305.54z" fill="#ffde00"></path>
  <path d="m277.18 323.86h5.77v75.55h-5.77z" fill="#ffde00"></path>
  <path d="m380.98 323.86h5.77v75.55h-5.77z" fill="#ffde00"></path>
  <path d="m194.38 444.32h80.57v46.14h-80.57z" fill="#ffde00"></path>
  <path d="m507.01 215.27v-19.45h-444.03v26.66h104.39v-7.21z" fill="#00ab81"></path>
  <path d="m62.98 116.56h444.03v12.83h-444.03z" fill="#00ab81"></path>
  <path d="m62.98 475.93h131.41v14.53h-131.41z" fill="#00ab81"></path>
  <path d="m274.96 475.93h203.22v14.53h-203.22z" fill="#00ab81"></path>
  <path d="m179.43 405.52v70.41h14.95v-31.61h9.85v-27.78h29.1v27.78h41.67v31.61h203.17v-10.87h6.83v-59.54zm181.6 33h-64.47v-5.26h64.44zm87.3 0h-64.46v-5.26h64.46z" fill="#00ab81"></path>
  <path d="m72.91 129.58h424.17v66.24h-424.17z" fill="#fb715d"></path>
  <path d="m62.98 222.48h12.11v253.45h-12.11z" fill="#fb715d"></path>
  <path d="m167.32 323.86h12.11v152.06h-12.11z" fill="#fb715d"></path>
  <path d="m484.97 323.86h12.11v141.19h-12.11z" fill="#fb715d"></path>
  <path d="m330.47 222h-156.47a245 245 0 0 1 -33.6 73.25l-4.28 6.31h400.88l-4.28-6.31a245 245 0 0 1 -33.58-73.25z" fill="#fb715d"></path>
  <path d="m136.08 301.53h400.95v22.33h-400.95z" fill="#fb715d"></path>
  <path d="m478.17 465.06h18.9v25.4h-18.9z" fill="#fb715d"></path>
  <path d="m208.75 412.02h20.07v29.11h-20.07z" fill="#fb715d" transform="matrix(0 1 -1 0 645.35 207.79)"></path>
  <path d="m167.37 215.27h339.66v7.21h-339.66z" fill="#fb715d"></path>
  <path d="m173.7 222.48-4.73 15.62-1.65.56.05-16.18z" fill="#fb715d"></path>
  <path d="m204.23 436.6h29.11v7.72h-29.11z" fill="#fb715d"></path>
  <g fill="#1c19a8">
    <path d="m168.78 223.89h-107.21v-29.47h446.84v22.26h-339.63zm-104.4-2.82h101.62v-7.2h339.6v-16.64h-441.22z"></path>
    <path d="m167.32 477.33h-92.23a1.41 1.41 0 0 1 -1.41-1.4v-210.66a1.41 1.41 0 0 1 1.41-1.41h82.17a1.41 1.41 0 0 1 1.27 2c0 .07-3.08 6.28-6 11.82a1.49 1.49 0 0 1 -.21.92l-1.82 2.86c-3.83 6.91-11.55 18.31-13 20.48v20.47h29.83a1.4 1.4 0 0 1 1.4 1.4v152.12a1.4 1.4 0 0 1 -1.41 1.4zm-90.83-2.81h89.42v-149.25h-5.11v63.12a1.41 1.41 0 0 1 -1.41 1.4h-33.9a1.41 1.41 0 0 1 -1.41-1.4v-110.52a1.41 1.41 0 0 1 1.41-1.4h24.51c1.9-3.6 3.85-7.49 5-9.79h-78.51zm50.41-87.52h31.1v-61.73h-22a1.41 1.41 0 0 1 -1.32-1.28v-22.46a1.47 1.47 0 0 1 .22-.57l13.19-20.72.42-.77h-21.61zm32.5 76.86h-33.9a1.4 1.4 0 0 1 -1.4-1.4v-45.9a1.41 1.41 0 0 1 1.4-1.41h33.9a1.41 1.41 0 0 1 1.41 1.41v45.9a1.41 1.41 0 0 1 -1.41 1.38zm-32.49-2.86h31.09v-43.06h-31.09zm-10.84 2.81h-33.45a1.41 1.41 0 0 1 -1.41-1.4v-45.9a1.41 1.41 0 0 1 1.41-1.41h33.45a1.41 1.41 0 0 1 1.4 1.41v45.9a1.4 1.4 0 0 1 -1.4 1.43zm-32.07-2.81h30.64v-43.06h-30.64zm32.05-71.23h-33.43a1.41 1.41 0 0 1 -1.41-1.41v-110.49a1.41 1.41 0 0 1 1.41-1.41h33.45a1.41 1.41 0 0 1 1.4 1.41v110.52a1.41 1.41 0 0 1 -1.4 1.41zm-32.05-2.77h30.64v-107.72h-30.64z"></path>
    <path d="m497.08 197.23h-424.17a1.41 1.41 0 0 1 -1.41-1.41v-66.24a1.41 1.41 0 0 1 1.41-1.4h424.17a1.4 1.4 0 0 1 1.4 1.4v66.24a1.41 1.41 0 0 1 -1.4 1.41zm-422.77-2.81h421.36v-63.42h-421.36z"></path>
    <path d="m75.09 477.33h-12.09a1.41 1.41 0 0 1 -1.41-1.4v-253.45a1.41 1.41 0 0 1 1.41-1.41h12.09a1.41 1.41 0 0 1 1.4 1.41v253.45a1.4 1.4 0 0 1 -1.4 1.4zm-10.71-2.81h9.3v-250.63h-9.3z"></path>
    <path d="m507 130.8h-444a1.41 1.41 0 0 1 -1.41-1.41v-12.83a1.41 1.41 0 0 1 1.41-1.41h444a1.41 1.41 0 0 1 1.4 1.41v12.83a1.41 1.41 0 0 1 -1.4 1.41zm-442.62-2.8h441.22v-10h-441.22z"></path>
    <path d="m194.38 491.86h-131.38a1.41 1.41 0 0 1 -1.41-1.4v-14.53a1.41 1.41 0 0 1 1.41-1.41h131.4a1.41 1.41 0 0 1 1.41 1.41v14.53a1.41 1.41 0 0 1 -1.43 1.4zm-130-2.81h128.62v-11.72h-128.62z"></path>
    <path d="m157.26 266.68h-82.17a1.41 1.41 0 0 1 -1.41-1.41v-42.79a1.41 1.41 0 0 1 1.41-1.41h92.23a1.41 1.41 0 0 1 1.4 1.41v20a1.39 1.39 0 0 1 -.12.57l-10 22.82a1.41 1.41 0 0 1 -1.34.81zm-80.77-2.82h79.86l2.15-4.86h-75.88a1.41 1.41 0 0 1 -1.41-1.41v-27.21a1.41 1.41 0 0 1 1.41-1.4h76.78a1.41 1.41 0 0 1 1.41 1.4v23.35l5.1-11.57v-18.27h-89.42zm7.53-7.7h74v-24.37h-74.02z"></path>
    <path d="m179.43 477.33h-12.11a1.41 1.41 0 0 1 -1.41-1.4v-152.07a1.41 1.41 0 0 1 1.41-1.4h12.11a1.4 1.4 0 0 1 1.4 1.4v152.07a1.4 1.4 0 0 1 -1.4 1.4zm-10.71-2.81h9.28v-149.25h-9.3z"></path>
    <path d="m497.08 466.46h-12.08a1.41 1.41 0 0 1 -1.41-1.4v-141.2a1.41 1.41 0 0 1 1.41-1.4h12.11a1.4 1.4 0 0 1 1.4 1.4v141.2a1.4 1.4 0 0 1 -1.43 1.4zm-10.71-2.81h9.3v-138.38h-9.3z"></path>
    <path d="m537 302.94h-400.92a1.4 1.4 0 0 1 -1.24-.75 1.38 1.38 0 0 1 .08-1.45l4.28-6.31a243.21 243.21 0 0 0 33.41-72.83 1.39 1.39 0 0 1 1.35-1h325.18a1.39 1.39 0 0 1 1.35 1 243.33 243.33 0 0 0 33.41 72.83l4.29 6.31a1.42 1.42 0 0 1 -1.17 2.2zm-398.28-2.81h395.65l-2.8-4.12a246.27 246.27 0 0 1 -33.51-72.63h-323.06a246.27 246.27 0 0 1 -33.47 72.62z"></path>
    <path d="m537 325.27h-400.92a1.41 1.41 0 0 1 -1.41-1.41v-22.33a1.4 1.4 0 0 1 1.41-1.4h400.92a1.4 1.4 0 0 1 1.41 1.4v22.33a1.41 1.41 0 0 1 -1.41 1.41zm-399.53-2.81h398.15v-19.52h-398.13z"></path>
    <path d="m106.12 398.06h29.95v8.8h-29.95z"></path>
    <path d="m136.08 408.27h-30a1.41 1.41 0 0 1 -1.4-1.41v-8.8a1.4 1.4 0 0 1 1.4-1.4h30a1.41 1.41 0 0 1 1.41 1.4v8.8a1.41 1.41 0 0 1 -1.41 1.41zm-28.55-2.81h27.14v-6h-27.14z"></path>
    <path d="m485 406.92h-305.57a1.41 1.41 0 0 1 -1.41-1.4v-6.11a1.41 1.41 0 0 1 1.41-1.4h305.57a1.4 1.4 0 0 1 1.4 1.4v6.11a1.4 1.4 0 0 1 -1.4 1.4zm-304.14-2.81h302.7v-3.29h-302.73z"></path>
    <path d="m283 400.82h-5.77a1.41 1.41 0 0 1 -1.41-1.41v-75.55a1.41 1.41 0 0 1 1.41-1.4h5.77a1.41 1.41 0 0 1 1.41 1.4v75.55a1.41 1.41 0 0 1 -1.41 1.41zm-4.42-2.82h3v-72.73h-3z"></path>
    <path d="m386.75 400.82h-5.75a1.41 1.41 0 0 1 -1.4-1.41v-75.55a1.4 1.4 0 0 1 1.4-1.4h5.77a1.41 1.41 0 0 1 1.41 1.4v75.55a1.41 1.41 0 0 1 -1.43 1.41zm-4.36-2.82h3v-72.73h-3z"></path>
    <path d="m537 302.94h-400.92a1.4 1.4 0 0 1 -1.24-.75 1.38 1.38 0 0 1 .08-1.45l4.28-6.31a243.21 243.21 0 0 0 33.41-72.83 1.39 1.39 0 0 1 1.35-1h325.18a1.39 1.39 0 0 1 1.35 1 243.33 243.33 0 0 0 33.41 72.83l4.29 6.31a1.42 1.42 0 0 1 -1.17 2.2zm-398.28-2.81h395.65l-2.8-4.12a246.27 246.27 0 0 1 -33.51-72.63h-323.06a246.27 246.27 0 0 1 -33.47 72.62z"></path>
    <path d="m537 325.27h-400.92a1.41 1.41 0 0 1 -1.41-1.41v-22.33a1.4 1.4 0 0 1 1.41-1.4h400.92a1.4 1.4 0 0 1 1.41 1.4v22.33a1.41 1.41 0 0 1 -1.41 1.41zm-399.53-2.81h398.15v-19.52h-398.13z"></path>
    <path d="m535.88 302.35c-.28-.39-28.18-39.46-38-79.54l2.73-.66c9.67 39.55 37.25 78.17 37.52 78.56z"></path>
    <path d="m155.51 301.75-2.42-1.45c.26-.42 25.37-42.68 34.16-78.66l2.73.67c-8.89 36.4-34.22 79.01-34.47 79.44z"></path>
    <path d="m173.79 301.65-2.52-1.25c.23-.46 22.85-46.34 30.78-78.76l2.73.67c-8 32.69-30.78 78.88-30.99 79.34z"></path>
    <path d="m192.06 301.56-2.61-1.07c.2-.49 20.34-50 27.39-78.85l2.73.67c-7.1 29.06-27.31 78.75-27.51 79.25z"></path>
    <path d="m210.31 301.47-2.67-.89c.18-.53 17.81-53.66 24-78.94l2.73.67c-6.21 25.39-23.88 78.62-24.06 79.16z"></path>
    <path d="m228.56 301.39-2.72-.73c.16-.57 15.28-57.32 20.58-79l2.73.67c-5.3 21.67-20.44 78.49-20.59 79.06z"></path>
    <path d="m246.8 301.31-2.75-.57c.13-.61 12.74-61 17.17-79.1l2.73.67c-4.41 18.07-17.02 78.39-17.15 79z"></path>
    <path d="m265 301.24-2.77-.43c.41-2.64 10.19-64.63 13.74-79.17l2.73.67c-3.48 14.42-13.56 78.29-13.7 78.93z"></path>
    <path d="m283.27 301.18-2.79-.31c.31-2.78 7.65-68.28 10.32-79.23l2.74.67c-2.64 10.77-10.19 78.19-10.27 78.87z"></path>
    <path d="m301.5 301.12-2.8-.19c.21-2.94 5.1-71.94 6.9-79.29l2.73.67c-1.74 7.12-6.77 78.1-6.83 78.81z"></path>
    <path d="m319.73 301.07-2.81-.09c.26-7.73 2.57-75.64 3.47-79.34l2.73.67c-.63 2.6-2.37 48.53-3.39 78.76z"></path>
    <path d="m335.14 221.97h2.81v79.05h-2.81z"></path>
    <path d="m535.88 301.85c-.28-.39-28.18-39.46-38-79.54l2.73-.67c9.67 39.55 37.25 78.18 37.52 78.56z"></path>
    <path d="m517.59 301.75c-.25-.43-25.57-43-34.47-79.44l2.73-.67c8.8 36 33.91 78.24 34.16 78.66z"></path>
    <path d="m499.31 301.65c-.23-.46-23-46.62-31-79.34l2.74-.67c7.92 32.42 30.55 78.3 30.77 78.76z"></path>
    <path d="m481.05 301.56c-.2-.5-20.42-50.19-27.52-79.25l2.74-.67c7.05 28.86 27.18 78.36 27.38 78.85z"></path>
    <path d="m462.79 301.47c-.18-.54-17.85-53.77-24.05-79.16l2.73-.67c6.18 25.28 23.81 78.41 24 78.94z"></path>
    <path d="m444.54 301.39c-.15-.57-15.29-57.35-20.6-79.08l2.74-.67c5.3 21.7 20.42 78.45 20.58 79z"></path>
    <path d="m426.3 301.31c-.13-.61-12.73-60.93-17.15-79l2.73-.67c4.43 18.12 17 78.49 17.17 79.1z"></path>
    <path d="m408.06 301.24c-.1-.64-10.18-64.51-13.7-78.93l2.73-.67c3.55 14.54 13.33 76.53 13.75 79.16z"></path>
    <path d="m389.83 301.18c-.08-.68-7.63-68.1-10.26-78.87l2.73-.67c2.67 11 10 76.45 10.33 79.23z"></path>
    <path d="m371.6 301.12c-.05-.71-5.09-71.69-6.83-78.81l2.73-.67c1.8 7.35 6.69 76.35 6.9 79.29z"></path>
    <path d="m353.37 301.07c-1-30.23-2.76-76.16-3.39-78.76l2.73-.67c.9 3.7 3.21 71.61 3.47 79.34z"></path>
    <path d="m335.14 221.97h2.81v79.05h-2.81z"></path>
    <path d="m478.17 491.86h-203.17a1.4 1.4 0 0 1 -1.4-1.4v-14.53a1.41 1.41 0 0 1 1.4-1.41h203.17a1.41 1.41 0 0 1 1.41 1.41v14.53a1.41 1.41 0 0 1 -1.41 1.4zm-201.81-2.81h200.41v-11.72h-200.41z"></path>
    <path d="m478.17 477.33h-203.17a1.4 1.4 0 0 1 -1.4-1.4v-30.2h-40.27a1.41 1.41 0 0 1 -1.4-1.41v-26.38h-26.3v26.38a1.41 1.41 0 0 1 -1.4 1.41h-8.44v30.2a1.41 1.41 0 0 1 -1.41 1.4h-14.95a1.41 1.41 0 0 1 -1.41-1.4v-70.41a1.41 1.41 0 0 1 1.41-1.41h305.57a1.41 1.41 0 0 1 1.4 1.41v59.54a1.4 1.4 0 0 1 -1.4 1.4h-5.39v9.47a1.41 1.41 0 0 1 -1.44 1.4zm-201.81-2.81h200.41v-9.46a1.41 1.41 0 0 1 1.4-1.41h5.39v-56.73h-302.73v67.6h12.17v-30.2a1.4 1.4 0 0 1 1.4-1.4h8.44v-26.38a1.41 1.41 0 0 1 1.41-1.41h29.1a1.41 1.41 0 0 1 1.41 1.41v26.38h40.24a1.41 1.41 0 0 1 1.41 1.4zm172-34.63h-64.49a1.41 1.41 0 0 1 -1.41-1.4v-5.26a1.41 1.41 0 0 1 1.41-1.4h64.46a1.41 1.41 0 0 1 1.41 1.4v5.26a1.41 1.41 0 0 1 -1.41 1.4zm-63.05-2.81h61.65v-2.44h-61.68zm-24.31 2.81h-64.44a1.4 1.4 0 0 1 -1.4-1.4v-5.26a1.4 1.4 0 0 1 1.4-1.4h64.44a1.41 1.41 0 0 1 1.41 1.4v5.26a1.41 1.41 0 0 1 -1.41 1.4zm-63-2.81h61.65v-2.44h-61.65z"></path>
    <path d="m497.08 491.86h-18.91a1.4 1.4 0 0 1 -1.4-1.4v-25.4a1.41 1.41 0 0 1 1.4-1.41h18.91a1.41 1.41 0 0 1 1.4 1.41v25.4a1.4 1.4 0 0 1 -1.4 1.4zm-17.5-2.81h16.09v-22.59h-16.09z"></path>
    <path d="m216.18 186.5c0-1.58 0-3.11 0-4.64 0-5.42.12-10.84.15-16.26 0-1.11-.07-1.09-1.15-1.15-.7 0-1.4-.1-2.1-.16-.4 0-.56.1-.56.52 0 3.31 0 6.62-.1 9.93-.1 3.78-.26 7.55-.42 11.32a.84.84 0 0 1 -.49.59c-.39.09-.68-.09-.67-.6 0-2.08.08-4.17.08-6.26 0-2.7 0-5.41 0-8.12s.13-5.26.17-7.89 0-5.47.09-8.21.17-5.78.23-8.67c0-1.48 0-3 0-4.45v-2.25c1.27 0 1.39 0 1.41 1.17v7.11q-.09 6.22-.19 12.44s0 .05 0 .07c0 1.95 0 2 2 1.93.52 0 1-.06 1.63-.09l.53-22.51c1.11-.26 1.23-.12 1.22 1 0 2.31.08 4.63 0 7-.08 4.25-.25 8.49-.33 12.73 0 2.08.11 4.16.07 6.24-.06 4.45-.22 8.91-.28 13.36 0 1.56.11 3.13.16 4.69.01 1.14-.14 1.28-1.45 1.16z"></path>
    <path d="m267 140.52h1.39v7.06q0 6.13 0 12.28c0 .83-.05 1.67-.1 2.5 0 .54.1.84.71.85.86 0 1.71.15 2.57.16.19 0 .54-.28.55-.44.07-1.84.11-3.69.12-5.54 0-3.8 0-7.6 0-11.41 0-1.74 0-3.47 0-5.29l1.16.07a2.15 2.15 0 0 1 .08.42c.06 4.43.16 8.87.15 13.3 0 4-.18 8.07-.2 12.11 0 3.47.12 6.93.12 10.4 0 1.67-.18 3.33-.23 5 0 1.32-.05 2.65 0 4 0 .73-.25.88-.88.94s-.7-.32-.68-.81c.09-3.49.22-7 .27-10.47 0-3.28 0-6.57 0-9.85 0-.49-.19-.67-.7-.7-1-.06-2-.21-3.21-.35v2.88 14.16c0 1.44-.12 2.87-.21 4.3 0 .79-.12.82-1.21.75q.16-23.13.3-46.32z"></path>
    <path d="m242.19 186.83c-.12-1.18-.27-2.36-.35-3.55-.24-3.64-.45-7.28-.7-10.92-.15-2.26-.35-4.52-.51-6.78 0-.54-.25-.79-.81-.82-1-.06-2-.17-3.12-.26-.16 1.57-.32 3.06-.45 4.55q-.67 7.56-1.33 15.11c-.06.7-.06 1.41-.12 2.11 0 .41 0 .84-.68.79s-.71-.36-.67-.88c.23-2.57.44-5.14.66-7.71.43-4.85.9-9.7 1.28-14.56.53-6.76 1-13.52 1.49-20.27.08-1.11.23-2.22.35-3.32h2.28s.9.31.94 1c.15 2.7.31 5.41.5 8.12.34 4.94.72 9.87 1 14.82.35 5.38.64 10.76 1 16.14.11 1.8.27 3.59.44 5.38.13 1.1.1 1.15-1.2 1.05zm-5.4-23.78c1.11 0 2-.06 2.77 0 .67.07.89-.11.86-.78-.22-4-.36-8.06-.62-12.09-.16-2.44-.5-4.86-.77-7.3a5.69 5.69 0 0 0 -.25-.87h-.27c-.57 6.99-1.14 13.99-1.72 21.04z"></path>
    <path d="m227.92 162.94c.32 1.26.3 1.28-.95 1.35-.7 0-1.4.1-2.28.17v20.73h4c.78 0 1 .16.82.87a.79.79 0 0 1 -.52.49 18 18 0 0 1 -1.8 0h-4.06c-.06-1.62-.17-3.22-.15-4.82 0-3.28.16-6.57.21-9.85.06-3.78.11-7.55.13-11.33 0-2.79 0-5.58 0-8.37 0-3.05.07-6.1.1-9.15 0-.86 0-1.72 0-2.69h1.08c1.61 0 3.23 0 4.84-.05.48 0 .61.14.61.56s.09.8-.55.79c-1.2 0-2.4 0-3.6 0-.69 0-.91.26-.89 1 .06 2.42 0 4.85 0 7.27v6.5c-.05 1.87-.18 3.75-.3 5.62 0 .69.22.94.89.92s1.62-.01 2.42-.01z"></path>
    <path d="m254.81 141.84v-1.36h8.3v1.52a19.83 19.83 0 0 1 -2.44 0c-.8-.1-1 .19-1 .92v10.17c-.05 3.18-.25 6.36-.27 9.53 0 3.47.15 6.94.13 10.4 0 4.43-.18 8.86-.26 13.29 0 .56-.27.81-.8.82s-.49-.44-.49-.79c0-3.46.08-6.92.11-10.39 0-2.78 0-5.57 0-8.35 0-3 .07-5.93.09-8.89 0-4.58.06-9.17.09-13.75 0-.78-.06-1.56-.07-2.34 0-.51-.21-.77-.76-.75-.82-.01-1.68-.03-2.63-.03z"></path>
    <path d="m277.6 140.68a2.12 2.12 0 0 1 2.17.79c1 1.32 2.11 2.58 3.19 3.85a3.13 3.13 0 0 0 .6.4 2.69 2.69 0 0 0 .26-.64c.14-1.42.26-2.84.38-4.25 1.62-.23 1.65-.22 1.42 1.28-.29 1.93-.68 3.85-.94 5.78s-.31 3.62-.5 5.43c-.39 3.68-.77 7.36-1.22 11-.53 4.29-1.17 8.57-1.67 12.86-.34 2.92-.5 5.86-.79 8.79-.11 1.09-.36 1.2-1.53.89.25-1.63.55-3.27.75-4.91.32-2.74.58-5.49.89-8.24.38-3.39.81-6.77 1.19-10.16q.68-6.06 1.31-12.13c.12-1.11.19-2.23.21-3.35a1.58 1.58 0 0 0 -.4-.93c-1.73-2.14-3.49-4.23-5.32-6.46z"></path>
    <path d="m247.88 140.57c1.29.08 1.27.08 1.27 1.16 0 4.56 0 9.12-.05 13.68 0 4.74-.14 9.48-.2 14.21q-.08 6.3-.13 12.59c0 .93 0 1.87.06 2.8a.81.81 0 0 0 .59.46h3.44c.42 0 .91-.13.95.59s-.43.7-.86.71c-1.77 0-3.54 0-5.43 0q.18-23.02.36-46.2z"></path>
    <path d="m242 139.3c.1.83.23 1.62.28 2.41.22 3.61.41 7.23.63 10.85.15 2.46.32 4.93.49 7.4.22 3.3.42 6.61.67 9.91.38 4.77.77 9.55 1.23 14.33.12 1.15-.45 1.69-1.43 2.34-.16-1.7-.36-3.27-.45-4.84-.19-3.25-.28-6.51-.49-9.76-.31-4.62-.73-9.24-1-13.86-.27-4-.44-8-.69-12-.1-1.56-.26-3.12-.41-4.67-.16-1.28-.08-1.41 1.17-2.11z"></path>
    <path d="m217.9 186.39c0-3.19 0-6.23 0-9.27 0-4 0-7.92.09-11.88 0-3.31.16-6.61.2-9.91 0-4.43.05-8.86.07-13.29 0-1.06-.06-2.17 1.29-2.79 0 .5.09.95.08 1.39-.06 5-.15 10-.2 15v7.35c0 7-.06 13.91 0 20.86a2.62 2.62 0 0 1 -1.53 2.54z"></path>
    <path d="m249.16 184.62c0-1.21 0-2.42 0-3.63q.08-7.69.17-15.39c0-3.65.11-7.29.15-10.93s.08-7.09.1-10.63a26 26 0 0 0 -.06-2.65c-.07-.86.38-1.35 1.18-1.92 0 1.25.06 2.36.09 3.46 0 1.61.09 3.23.08 4.84 0 1-.14 2-.14 3v8.75c0 2.47-.1 4.94-.12 7.41 0 1.35.08 2.71.08 4.06v11.8c0 1-.8 1.29-1.3 1.86z"></path>
    <path d="m259.67 186.47c.15-14.78.3-29.42.44-44.12l1.48.08v1.41c-.09 1.9-.24 3.8-.27 5.7-.06 3.09 0 6.19-.05 9.29v.71c-.05 2.26-.09 4.52-.16 6.78-.11 3.31-.32 6.62-.34 9.92 0 2.52.14 5 .31 7.57.08 1.31-.08 1.77-1.41 2.66z"></path>
    <path d="m280.94 186.18c.22-2.38.42-4.76.67-7.14q.47-4.5 1-9c.35-3 .76-5.94 1.1-8.91.42-3.68.76-7.36 1.19-11 .34-2.84.79-5.66 1.14-8.5a2.28 2.28 0 0 1 1.43-1.86c-.16 1.18-.29 2.22-.43 3.25-.29 2.11-.6 4.22-.85 6.34-.37 3-.67 6-1 9-.56 4.7-1.12 9.4-1.74 14.1-.41 3.07-.94 6.12-1.36 9.19-.16 1.18-.13 2.39-.26 3.58a3.88 3.88 0 0 1 -.55 1.12z"></path>
    <path d="m275.19 139.46v4.31c0 3.3-.08 6.61-.15 9.91-.06 2.92-.17 5.83-.25 8.74v2 7.26 13a1.83 1.83 0 0 1 -1 1.67c0-1-.15-1.81-.13-2.65.05-1.66.21-3.32.23-5 0-2.42 0-4.84 0-7.26 0-3.94-.08-7.87 0-11.8 0-3.39.25-6.77.29-10.16q0-3.8-.19-7.58a2.55 2.55 0 0 1 1.2-2.44z"></path>
    <path d="m213 164.64c1.29 0 1.32 0 1.31 1.22-.05 5.91-.12 11.82-.18 17.73v.78c-.11 1.15-.4 1.52-1.71 2.11z"></path>
    <path d="m225.1 184.31v-19.51h1.42v3.24c0 2.58.15 5.16.13 7.73 0 2.22-.17 4.43-.24 6.64a2.16 2.16 0 0 1 -1.31 1.9z"></path>
    <path d="m270 139.46v2.95q0 8.09.08 16.18a6 6 0 0 1 -.08 1.86 7.11 7.11 0 0 1 -1 1.65l-.23-.07c0-.33 0-.65 0-1q0-7.94 0-15.87c0-1.41-.1-2.82 0-4.22.05-.57.59-1.11.91-1.66z"></path>
    <path d="m237 165c1.15-.13 1.19-.12 1.1.9-.32 3.63-.68 7.25-1 10.88-.22 2.57-.4 5.14-.57 7.71a2.23 2.23 0 0 1 -1.42 2.1c.64-7.29 1.27-14.45 1.89-21.59z"></path>
    <path d="m212.94 161.9c0-1.49 0-2.9 0-4.32q.09-7.47.19-14.92c0-.42 0-.83 0-1.25-.09-1.29 0-1.4 1.14-2.24v3l-.12 13q0 2.46 0 4.92a1.85 1.85 0 0 1 -1.21 1.81z"></path>
    <path d="m225.39 142.09 1.1-.05v4.86c0 2.79-.09 5.57-.12 8.36 0 1.77 0 3.54-.1 5.3 0 .58-.67 1.12-1.15 1.56.09-6.64.18-13.28.27-20.03z"></path>
    <path d="m268.55 186.21v-20.93c.92-.19 1.22.07 1.2.84q-.13 5.74-.21 11.48v6.8a2.06 2.06 0 0 1 -.99 1.81z"></path>
    <path d="m264.33 138.71c-.65.88-1.11 1.36-2.13 1.31-2-.11-3.95 0-5.93 0-.33 0-.65 0-1-.06l-.12-.26c.59-.34 1.16-1 1.77-1 2.4-.06 4.79.01 7.41.01z"></path>
    <path d="m283.41 145.13-4-4.7 1.44-1.28c.94 1.14 1.87 2.21 2.72 3.34.15.21 0 .65 0 1s-.11.95-.16 1.64z"></path>
    <path d="m231 138.87a2.64 2.64 0 0 1 -2.54 1.14 34.89 34.89 0 0 1 -4.45-.08c.47-.67.88-1.23 1.81-1.17 1.69.11 3.36.08 5.18.11z"></path>
    <path d="m230.51 184.34a6.47 6.47 0 0 1 -1.5.46c-1.18.07-2.37 0-3.64 0 .54-.53.94-1.15 1.88-1s2.11.12 3.17.17z"></path>
    <path d="m255.16 184a2.72 2.72 0 0 1 -2.58 1.1 11.76 11.76 0 0 0 -1.78 0c-.27 0-.54 0-.92-.06.52-.73 1-1.17 1.85-1.08 1.07.12 2.16.04 3.43.04z"></path>
    <path d="m269.12 162.85c.4-1.19.87-1.54 1.83-1.48.54 0 .84.16.82.82s-.28.9-.88.85-1.17-.12-1.77-.19z"></path>
    <path d="m237.67 139.88c1.07-1.61 2.57-1.14 4-1.22-.96 1.76-2.5 1.19-4 1.22z"></path>
    <path d="m215.83 161.16c.24 1.2.2 1.3-.87 1.39a13.64 13.64 0 0 1 -1.66-.08c.62-1.05.89-1.18 2.53-1.31z"></path>
    <path d="m229.05 161.56c-.92 1.5-2.36.59-3.51 1.09.41-1 .89-1.27 1.77-1.18.54.05 1.08.06 1.74.09z"></path>
    <path d="m214.05 138.55c-.77 1.37-1.16 1.56-2.33 1.13.57-.78 1.16-1.49 2.33-1.13z"></path>
    <path d="m264.63 139.28c.34 1.27.23 1.55-.89 2.28-.36-1.04-.2-1.47.89-2.28z"></path>
    <path d="m254.41 186.45c-.31-1.1-.18-1.31 1.21-2.06.32.92.21 1.11-1.21 2.06z"></path>
    <path d="m267.24 140a2 2 0 0 1 2.4-1.14c-.58.85-1.22 1.48-2.4 1.14z"></path>
    <path d="m274.91 139c-.66.67-1.09 1.59-2.24 1.16.91-1.3 1.24-1.48 2.24-1.16z"></path>
    <path d="m231.2 184.29c.32 1.09-.36 1.55-1.08 2-.3-1.12-.12-1.38 1.08-2z"></path>
    <path d="m248.23 140.1c1.09-1.28 1.09-1.28 2-1.22-.39 1.12-.94 1.46-2 1.22z"></path>
    <path d="m229.6 161.87c.33 1-.33 1.56-1 2.13-.35-1.09-.27-1.27 1-2.13z"></path>
    <path d="m278.09 140.13c.59-1.09.92-1.26 2-1-.75 1.04-1.09 1.19-2 1z"></path>
    <path d="m287 139.32c-.8 1.09-.86 1.12-2 .83 1.07-1.22 1.09-1.23 2-.83z"></path>
    <path d="m219.17 138.84c-.63.67-1.1 1.43-2.1 1 .36-.91.93-1.2 2.1-1z"></path>
    <path d="m231.48 139.38c.24.93-.32 1.42-1 1.88-.28-1.16-.19-1.34 1-1.88z"></path>
    <path d="m237.42 162.06c.12-5.79.84-11.43 1.34-17.08h.21a36.78 36.78 0 0 1 .33 3.92c-.05 2.09-.28 4.18-.42 6.28-.12 1.74-.24 3.48-.33 5.22a1.73 1.73 0 0 1 -1.13 1.66z"></path>
    <path d="m240 161.6v1h-2.2c.6-.73 1.05-1.44 2.2-1z"></path>
    <path d="m324.3 140.17c1.29-.12 1.32-.07 1.33 1.18 0 3.07.12 6.15.13 9.22 0 3.36-.1 6.73-.07 10.09.05 5.63.17 11.25.24 16.88v4.61a4.63 4.63 0 0 0 .2 1.16c.3 1 .75 1.41 1.52 1.43a1.69 1.69 0 0 0 2-1.32 14.28 14.28 0 0 0 .35-3.42c0-2.71-.26-5.41-.3-8.12-.05-3.42 0-6.83 0-10.25q0-9.89-.06-19.78a6.65 6.65 0 0 0 -.13-1.17c-.06-.38-.17-.73.42-.77s.88 0 .89.63c0 2 .12 4.06.14 6.1q.1 7.85.17 15.7l.18 16.89v3.35a3.66 3.66 0 0 1 -3.05 3.71 2.94 2.94 0 0 1 -3.37-2.72c-.14-2.73-.15-5.46-.18-8.19-.06-4.85-.07-9.7-.13-14.55-.05-3.6-.16-7.19-.2-10.79-.11-3.25-.08-6.53-.08-9.87z"></path>
    <path d="m301.32 177.23c0 .84-.06 1.62 0 2.39a36.55 36.55 0 0 0 .52 3.78 1.67 1.67 0 0 0 1.34 1.47 2.24 2.24 0 0 0 2.16-.79 6.9 6.9 0 0 0 1.56-4.33 20.77 20.77 0 0 0 -1.69-10.53c-1.3-2.93-2.8-5.77-4.12-8.68a29.18 29.18 0 0 1 -2.47-7.71 17.31 17.31 0 0 1 .91-8.9 6.53 6.53 0 0 1 2-3.12 2.62 2.62 0 0 1 2.77-.53 3.77 3.77 0 0 1 1.54 1.42 8 8 0 0 1 .63 2.25c.09.46.25 1-.54 1.11s-.88-.29-1-.88a5.45 5.45 0 0 0 -.3-1.12 1.63 1.63 0 0 0 -2.95-.48 9.23 9.23 0 0 0 -1.8 4.36 21.13 21.13 0 0 0 .51 8.91 20.91 20.91 0 0 0 2.76 6.17 48.74 48.74 0 0 1 3.69 7.92 22.14 22.14 0 0 1 1 12.29 7.29 7.29 0 0 1 -2.94 4.47 2.47 2.47 0 0 1 -3.29-.64 8.12 8.12 0 0 1 -1.63-5.42c0-.81.06-1.61.1-2.42.05-1.08.05-1.08 1.24-.99z"></path>
    <path d="m353.55 162.5c.21 1.42.18 1.45-1.05 1.44-2.2 0-2.17 0-2.14 2.17q.09 7.69.15 15.4c0 1.38 0 2.76-.08 4.14 0 .94-.28 1.07-1.3.78q-.27-23.25-.52-46.59h6.44c0 .21.06.39.09.57.08.58-.1.84-.76.81-1.17-.06-2.35 0-3.52 0-.54 0-.75.25-.75.76 0 3.1.05 6.19.08 9.29 0 3.36.08 6.72.09 10.08 0 1.08 0 1.1 1.06 1.17.72.01 1.45-.02 2.21-.02z"></path>
    <path d="m336.42 139.79h6.24l.15 1.56h-5v3.59 14c0 .93.06 1.87.07 2.81 0 .55.36.63.78.63h2.58v1.55c-.84 0-1.62 0-2.39 0s-.89.3-.9.9c0 2-.1 3.91-.08 5.87.05 5 .13 9.94.2 14.92 0 .38.07.81-.53.85s-.74 0-.74-.6c0-3.08.07-6.15 0-9.22-.09-3.65-.31-7.29-.41-10.94-.05-2.26 0-4.53 0-6.8 0-4.37-.05-8.75-.07-13.13.09-1.95.1-3.9.1-5.99z"></path>
    <path d="m318.56 141.42c-.93.06-1.83.14-2.73.16-.51 0-.74.15-.75.71 0 4.72-.11 9.43-.1 14.15 0 2.91.21 5.82.24 8.73 0 2.63-.1 5.27-.08 7.9 0 2.47.16 4.94.23 7.41.05 1.9.06 3.8.11 5.7 0 .85-.59.49-1.15.65-.18-15.07-.36-30.05-.54-45.19h-3.28v-1.64h3.16c1.25 0 2.5.09 3.74.07s1.2-.07 1.15 1.35z"></path>
    <path d="m315.53 142h1.34v2 17q0 9.22.16 18.44a37.62 37.62 0 0 0 .32 4.37 2.63 2.63 0 0 1 -1.4 2.66c-.26-14.88-.64-29.61-.42-44.47z"></path>
    <path d="m332.52 138.9c0 .3.09.6.09.89 0 2.09-.12 4.17-.09 6.26.05 3.64.19 7.29.25 10.93 0 1.72-.1 3.44-.09 5.16 0 3.09 0 6.19.09 9.29 0 2.75.15 5.51.15 8.27a20.59 20.59 0 0 1 -.38 3.49 3.64 3.64 0 0 1 -2.15 2.73c1.31-1.63 1.4-3.54 1.41-5.43 0-3.41-.05-6.82-.09-10.23s-.13-6.56-.17-9.84c0-2.62 0-5.25 0-7.87-.05-3.21-.17-6.41-.26-9.61a11.65 11.65 0 0 1 0-2.57 5.27 5.27 0 0 1 1-1.59z"></path>
    <path d="m329 183.61a1.05 1.05 0 0 1 -1.22.75 1.51 1.51 0 0 1 -1-.83 14.16 14.16 0 0 1 -.47-3.23c-.07-5.78-.07-11.56-.11-17.35 0-2.52-.09-5-.1-7.57 0-4.74 0-9.48 0-14.22a2.8 2.8 0 0 1 1.18-2.21v3.23c0 2.89 0 5.79.05 8.68v3.67c0 3 .15 6 .17 9 0 2.08-.09 4.17-.09 6.25 0 3.77.07 7.55.11 11.32a8 8 0 0 0 .07 1.1 1.43 1.43 0 0 0 1.41 1.41z"></path>
    <path d="m301.91 142.78c-2 5.48-1 10.57 1.52 15.56 1.63 3.23 3.28 6.45 4.73 9.75a19.48 19.48 0 0 1 1.06 12.4 26.56 26.56 0 0 1 -1.07 3.23 2 2 0 0 1 -.75.82 11.52 11.52 0 0 0 1.32-5.4 22.11 22.11 0 0 0 -1.37-9.27 66.66 66.66 0 0 0 -5.2-10.55 14.4 14.4 0 0 1 -1.23-3.52 18 18 0 0 1 -.2-10.17 28.14 28.14 0 0 1 1.19-2.85z"></path>
    <path d="m339.69 164.42v2.15 5.23c0 3.44-.05 6.88-.06 10.32a16.47 16.47 0 0 0 .09 2.11 1.54 1.54 0 0 1 -1 1.67c0-.09-.1-.15-.1-.22 0-2.94-.05-5.88-.11-8.83 0-1.19-.2-2.39-.2-3.58 0-2.66.08-5.31.13-8 .02-.99.09-1.04 1.25-.85z"></path>
    <path d="m350.81 186v-21.61h1.05v1.61c0 2.63 0 5.26.05 7.89 0 3.34.07 6.67.09 10 0 .84.08 1.78-1.19 2.11z"></path>
    <path d="m338.38 161.45v-19.71l.93-.05c.05.47.11.9.12 1.33q.12 7.23.22 14.46v1.72c.02 1.3.03 1.3-1.27 2.25z"></path>
    <path d="m350.63 161.57v-20l1 .07v2.33q.06 7.91.14 15.8c.04.96-.07 1.15-1.14 1.8z"></path>
    <path d="m304.93 183.72a1.48 1.48 0 0 1 -1.39.83 1.1 1.1 0 0 1 -1.11-.93 19 19 0 0 1 -.56-3c-.09-.87 0-1.77 0-2.65s.5-1.46 1.25-2v3.29c0 .91 0 1.82.09 2.73.12 1.2.48 1.51 1.72 1.73z"></path>
    <path d="m307.06 144.67c-.39-2.53-.76-5-4.15-5 1.16-1.21 3.61-1.35 4.44.62.24.55.41 1.12.61 1.68a2.15 2.15 0 0 1 -.9 2.7z"></path>
    <path d="m319.74 138.47a2.25 2.25 0 0 1 -2.14 1.19c-2.12 0-4.25 0-6.37 0l-.1-.33c.45-.28.9-.79 1.37-.81 2.35-.09 4.71-.05 7.24-.05z"></path>
    <path d="m356.43 138.2c-.54.65-1 1.24-1.84 1.23-1.78 0-3.56 0-5.53 0 .61-.77 1-1.34 2-1.29 1.63.09 3.27 0 4.91 0 .12.01.24.04.46.06z"></path>
    <path d="m337 139.37a1.79 1.79 0 0 1 1.77-1.06c1.45.08 2.91-.05 4.36-.08.27 0 .55 0 1 .05-.61.64-1.07 1.14-2 1.11-1.67-.06-3.37-.02-5.13-.02z"></path>
    <path d="m355 160.83c-.9 1.28-2 1.61-3.81 1.15.81-1.36 2.04-1.73 3.81-1.15z"></path>
    <path d="m338.91 161.88c.85-1.59 2.3-1 3.57-1.14-.6 1.26-1.58 1.56-3.57 1.14z"></path>
    <path d="m326.81 138.47c-.74 1.36-1.06 1.53-2.24 1.16.59-.71 1.17-1.36 2.24-1.16z"></path>
    <path d="m343.34 141c-.24-1.42-.14-1.61 1.13-2.23.44 1.17-.47 1.56-1.13 2.23z"></path>
    <path d="m302.77 175.41c-.61.73-1.07 1.58-2.22 1.33a2 2 0 0 1 2.22-1.33z"></path>
    <path d="m355.22 161.41a1.83 1.83 0 0 1 -1 2.17c-.35-1.02-.22-1.3 1-2.17z"></path>
    <path d="m342.94 161.36c.24 1.07.15 1.25-1 2-.32-1.07-.18-1.36 1-2z"></path>
    <path d="m320.14 139.09c.48 1-.46 1.36-.88 2-.46-.97-.26-1.3.88-2z"></path>
    <path d="m355.6 140.67c-.36-1.08.47-1.44 1-2 .4.84.06 1.24-1 2z"></path>
    <path d="m330.11 139.42c.61-.93.7-1 1.78-1-.47.87-.95 1.15-1.78 1z"></path>
    <path d="m168.78 223.89h-107.21v-29.47h446.84v22.26h-339.63zm-104.4-2.82h101.62v-7.2h339.6v-16.64h-441.22z"></path>
    <path d="m507 223.89h-339.63a1.41 1.41 0 0 1 -1.41-1.41v-7.21a1.41 1.41 0 0 1 1.41-1.4h339.63a1.4 1.4 0 0 1 1.4 1.4v7.21a1.41 1.41 0 0 1 -1.4 1.41zm-338.25-2.82h336.87v-4.39h-336.84z"></path>
    <path d="m275 491.86h-80.62a1.4 1.4 0 0 1 -1.4-1.4v-46.14a1.4 1.4 0 0 1 1.4-1.4h80.62a1.41 1.41 0 0 1 1.41 1.4v46.14a1.41 1.41 0 0 1 -1.41 1.4zm-79.16-2.81h77.76v-43.32h-77.81z"></path>
    <path d="m233.33 438h-29.1a1.41 1.41 0 0 1 -1.41-1.41v-20.05a1.41 1.41 0 0 1 1.41-1.41h29.1a1.41 1.41 0 0 1 1.41 1.41v20.06a1.41 1.41 0 0 1 -1.41 1.4zm-27.7-2.81h26.3v-17.25h-26.3z"></path>
    <path d="m296.57 433.23h64.46v5.25h-64.46z"></path>
    <path d="m362.44 439.89h-67.28v-8.06h67.28zm-64.44-2.81h61.65v-2.44h-61.65z"></path>
    <path d="m327.39 429.59h2.81v66.61h-2.81z" transform="matrix(.81177787 -.58396634 .58396634 .81177787 -208.42 279.1)"></path>
    <path d="m295.49 461.49h66.61v2.81h-66.61z" transform="matrix(.58325771 -.81228717 .81228717 .58325771 -238.98 460.02)"></path>
    <path d="m314.86 480.14h27.86v2.81h-27.86z"></path>
    <path d="m383.87 433.23h64.46v5.25h-64.46z"></path>
    <path d="m449.74 439.89h-67.28v-8.06h67.28zm-64.46-2.81h61.65v-2.44h-61.65z"></path>
    <path d="m414.69 429.59h2.81v66.61h-2.81z" transform="matrix(.81177787 -.58396634 .58396634 .81177787 -191.99 330.1)"></path>
    <path d="m382.79 461.49h66.61v2.81h-66.61z" transform="matrix(.58325771 -.81228717 .81228717 .58325771 -202.6 530.94)"></path>
    <path d="m402.17 480.86h27.86v2.81h-27.86z"></path>
  </g>
</svg>
