<?xml version="1.0" encoding="UTF-8"?>
<!-- Generator: Adobe Illustrator 24.0.1, SVG Export Plug-In . SVG Version: 6.00 Build 0)  -->
<svg xmlns="http://www.w3.org/2000/svg" xmlns:xlink="http://www.w3.org/1999/xlink" x="0px" y="0px" viewBox="0 0 600 600" style="enable-background:new 0 0 600 600;" xml:space="preserve">
<style type="text/css">
	.st0{fill:none;}
	.st1{fill:#1C19A8;}
	.st2{fill:#FFFFFF;}
	
		.st3{fill-rule:evenodd;clip-rule:evenodd;fill:#FFDE00;stroke:#1C19A8;stroke-width:2.82;stroke-linejoin:round;stroke-miterlimit:10;}
	
		.st4{fill-rule:evenodd;clip-rule:evenodd;fill:#FB715D;stroke:#1C19A8;stroke-width:2.82;stroke-linejoin:round;stroke-miterlimit:10;}
	.st5{fill:#00AB81;stroke:#1C19A8;stroke-width:2.82;stroke-linejoin:round;stroke-miterlimit:10;}
	.st6{fill:#FB715D;stroke:#1C19A8;stroke-width:2.82;stroke-linejoin:round;stroke-miterlimit:10;}
	.st7{fill:none;stroke:#1C19A8;stroke-width:2.82;stroke-miterlimit:10;}
	.st8{fill:#FFDE00;stroke:#1C19A8;stroke-width:2.82;stroke-linejoin:round;stroke-miterlimit:10;}
	.st9{fill-rule:evenodd;clip-rule:evenodd;fill:#1C19A8;stroke:#1C19A8;stroke-width:2.82;stroke-miterlimit:10;}
	.st10{fill:#FFFFFF;stroke:#1C19A8;stroke-width:2.82;stroke-linejoin:round;stroke-miterlimit:10;}
	.st11{fill:url(#New_Blue_Dots);}
	
		.st12{fill-rule:evenodd;clip-rule:evenodd;fill:#00AB81;stroke:#1C19A8;stroke-width:2.82;stroke-linejoin:round;stroke-miterlimit:10;}
	.st13{fill:#1C19A8;stroke:#1C19A8;stroke-width:2.82;stroke-miterlimit:10;}
	.st14{fill:#1C19A8;stroke:#1C19A8;stroke-width:2.82;stroke-linejoin:round;stroke-miterlimit:10;}
	.st15{fill:none;stroke:#1C19A8;stroke-width:2.82;stroke-linejoin:round;stroke-miterlimit:10;}
	.st16{fill:url(#);}
	.st17{fill:#FFDE00;}
	.st18{fill:#00AB81;}
	.st19{fill:#FB715D;}
	.st20{fill:url(#SVGID_1_);}
	.st21{fill:url(#SVGID_2_);}
	.st22{fill:#9D9D9C;stroke:#1C19A8;stroke-width:2.82;stroke-linejoin:round;stroke-miterlimit:10;}
	.st23{fill-rule:evenodd;clip-rule:evenodd;fill:#1C19A8;stroke:#1C19A8;stroke-miterlimit:10;}
	.st24{fill-rule:evenodd;clip-rule:evenodd;fill:#1C19A8;stroke:#1C19A8;stroke-width:1.0222;stroke-miterlimit:10;}
	.st25{fill:url(#SVGID_3_);}
	.st26{fill:url(#SVGID_4_);}
	.st27{fill:#EDEDED;stroke:#1C19A8;stroke-width:2.82;stroke-linejoin:round;stroke-miterlimit:10;}
	.st28{fill:#EDEDED;stroke:#1C19A8;stroke-width:2.82;stroke-linecap:round;stroke-linejoin:round;stroke-miterlimit:10;}
	.st29{fill-rule:evenodd;clip-rule:evenodd;fill:#00AB81;}
	.st30{fill-rule:evenodd;clip-rule:evenodd;fill:#FB715D;}
	.st31{fill:none;stroke:#1C19A8;stroke-width:2.82;stroke-linecap:round;stroke-linejoin:round;stroke-miterlimit:10;}
	.st32{fill-rule:evenodd;clip-rule:evenodd;fill:#FFDE00;}
	.st33{fill:url(#SVGID_5_);}
	.st34{fill:#FB715D;stroke:#1C19A8;stroke-width:2.82;stroke-linecap:round;stroke-linejoin:round;stroke-miterlimit:10;}
	.st35{fill:url(#SVGID_6_);}
	.st36{fill:url(#SVGID_7_);}
	.st37{fill:url(#SVGID_8_);}
	.st38{fill:url(#SVGID_9_);}
	.st39{fill:#FFFFFF;stroke:#1C19A8;stroke-width:2.82;stroke-linecap:round;stroke-linejoin:round;stroke-miterlimit:10;}
	.st40{fill:none;stroke:#1C19A8;stroke-width:2;stroke-miterlimit:10;}
	.st41{fill:url(#SVGID_10_);}
	.st42{fill:url(#SVGID_11_);}
	.st43{fill:url(#SVGID_12_);}
	.st44{fill:url(#SVGID_13_);}
	.st45{fill:#00AB81;stroke:#1C19A8;stroke-width:2.4933;stroke-linejoin:round;stroke-miterlimit:10;}
	.st46{fill:url(#SVGID_14_);}
	.st47{fill:#FFDE00;stroke:#1C19A8;stroke-width:2.82;stroke-miterlimit:10;}
	.st48{fill:#FB715D;stroke:#1C19A8;stroke-width:2.82;stroke-miterlimit:10;}
	.st49{fill:#00AB81;stroke:#1C19A8;stroke-width:2.82;stroke-miterlimit:10;}
	.st50{fill:#FFFFFF;stroke:#1C19A8;stroke-width:2.82;stroke-miterlimit:10;}
	.st51{fill:url(#SVGID_15_);stroke:#1C19A8;stroke-width:2.82;stroke-linejoin:round;stroke-miterlimit:10;}
	.st52{fill:url(#);stroke:#1C19A8;stroke-width:2.82;stroke-linejoin:round;stroke-miterlimit:10;}
	.st53{fill:#1C19A8;stroke:#1C19A8;stroke-miterlimit:10;}
	.st54{fill:none;stroke:#1C19A8;stroke-miterlimit:10;}
	.st55{fill:url(#SVGID_16_);}
	.st56{fill:url(#SVGID_17_);}
	.st57{fill:url(#SVGID_18_);}
	.st58{fill:#FFDE00;stroke:#1C19A8;stroke-width:2.82;stroke-linecap:round;stroke-linejoin:round;stroke-miterlimit:10;}
	.st59{clip-path:url(#XMLID_4_);}
	.st60{clip-path:url(#XMLID_5_);}
	.st61{clip-path:url(#XMLID_5_);fill:#00AB81;stroke:#1C19A8;stroke-width:2.82;stroke-linejoin:round;stroke-miterlimit:10;}
	.st62{clip-path:url(#XMLID_5_);fill:#FFDE00;stroke:#1C19A8;stroke-width:2.82;stroke-linejoin:round;stroke-miterlimit:10;}
	.st63{fill:url(#SVGID_19_);stroke:#1C19A8;stroke-width:2.82;stroke-linejoin:round;stroke-miterlimit:10;}
	.st64{fill:url(#SVGID_20_);stroke:#1C19A8;stroke-width:2.82;stroke-linejoin:round;stroke-miterlimit:10;}
	.st65{fill:url(#SVGID_21_);stroke:#1C19A8;stroke-width:2.82;stroke-linejoin:round;stroke-miterlimit:10;}
	.st66{fill:url(#SVGID_22_);stroke:#1C19A8;stroke-width:2.82;stroke-miterlimit:10;}
	.st67{fill:url(#SVGID_23_);stroke:#1C19A8;stroke-width:2.82;stroke-miterlimit:10;}
	.st68{clip-path:url(#SVGID_25_);}
	.st69{clip-path:url(#SVGID_27_);}
	.st70{fill:#FB715D;stroke:#1D1D1B;stroke-width:2.8125;stroke-linejoin:round;stroke-miterlimit:10;}
	
		.st71{fill-rule:evenodd;clip-rule:evenodd;fill:#00AB81;stroke:#1C19A8;stroke-width:2.8125;stroke-linejoin:round;stroke-miterlimit:10;}
	.st72{fill:#1C19A8;stroke:#1C19A8;stroke-width:2.8125;stroke-miterlimit:10;}
	.st73{fill:none;stroke:#1C19A8;stroke-width:2.8125;stroke-miterlimit:10;}
	.st74{fill:#FB715D;stroke:#1C19A8;stroke-width:2.8125;stroke-linejoin:round;stroke-miterlimit:10;}
	.st75{fill:#00AB81;stroke:#1C19A8;stroke-width:2.8125;stroke-linejoin:round;stroke-miterlimit:10;}
	
		.st76{fill-rule:evenodd;clip-rule:evenodd;fill:#FB715D;stroke:#1C19A8;stroke-width:2.8125;stroke-linejoin:round;stroke-miterlimit:10;}
	.st77{fill:#FFDE00;stroke:#1C19A8;stroke-width:2.8125;stroke-miterlimit:10;}
	.st78{fill:#FFDE00;stroke:#1C19A8;stroke-width:2.8125;stroke-linejoin:round;stroke-miterlimit:10;}
	.st79{fill:#1C19A8;stroke:#1C19A8;stroke-width:2.8125;stroke-linejoin:round;stroke-miterlimit:10;}
	
		.st80{fill-rule:evenodd;clip-rule:evenodd;fill:#FFDE00;stroke:#1C19A8;stroke-width:2.8125;stroke-linejoin:round;stroke-miterlimit:10;}
	.st81{fill:#00AB81;stroke:#1C19A8;stroke-width:2.8125;stroke-miterlimit:10;}
	.st82{fill:#1C19A8;stroke:#1C19A8;stroke-width:0.1875;stroke-miterlimit:10;}
	.st83{fill:#1C19A8;stroke:#1C19A8;stroke-width:0.75;stroke-linecap:round;stroke-linejoin:round;stroke-miterlimit:10;}
	.st84{fill:none;stroke:#1C19A8;stroke-width:2.8125;stroke-linejoin:round;stroke-miterlimit:10;}
	.st85{fill:#FB715D;stroke:#1C19A8;stroke-width:2.8125;stroke-miterlimit:10;}
	.st86{fill:#F6F6F6;stroke:#1C19A8;stroke-width:2.8125;stroke-linejoin:round;stroke-miterlimit:10;}
	.st87{fill:#FFFFFF;stroke:#1C19A8;stroke-width:2.8125;stroke-miterlimit:10;}
	.st88{fill:none;stroke:#1C19A8;stroke-width:2.8125;stroke-linecap:round;stroke-linejoin:round;stroke-miterlimit:10;}
	.st89{fill:url(#);stroke:#1C19A8;stroke-width:2.8125;stroke-miterlimit:10;}
	.st90{fill:#FFFFFF;stroke:#1C19A8;stroke-width:2.8125;stroke-linecap:round;stroke-linejoin:round;stroke-miterlimit:10;}
	.st91{fill:#FFFFFF;stroke:#1C19A8;stroke-width:2.8125;stroke-linejoin:round;stroke-miterlimit:10;}
	.st92{fill:none;stroke:#1C19A8;stroke-width:8.4375;stroke-linejoin:round;stroke-miterlimit:10;}
	.st93{fill:#00AB81;stroke:#1C19A8;stroke-width:2.8125;stroke-linecap:round;stroke-linejoin:round;stroke-miterlimit:10;}
	.st94{fill:#FFDE00;stroke:#1C19A8;stroke-width:2.8125;stroke-linejoin:bevel;stroke-miterlimit:10;}
	.st95{fill:#1D1D1B;stroke:#1C19A8;stroke-width:2.8125;stroke-linejoin:round;stroke-miterlimit:10;}
	.st96{fill:#00AB81;stroke:#1C19A8;stroke-width:2.7823;stroke-linejoin:round;stroke-miterlimit:10;}
	.st97{fill:url(#);stroke:#1C19A8;stroke-width:3.75;stroke-miterlimit:10;}
	.st98{fill:none;stroke:#1C19A8;stroke-width:2.8152;stroke-linejoin:round;stroke-miterlimit:10;}
	.st99{fill:none;stroke:#1C19A8;stroke-width:2.9816;stroke-linejoin:round;stroke-miterlimit:10;}
	.st100{fill:#FB715D;stroke:#1C19A8;stroke-width:2.4615;stroke-linejoin:round;stroke-miterlimit:10;}
	.st101{fill:#FB715D;stroke:#1C19A8;stroke-width:2.8108;stroke-linejoin:round;stroke-miterlimit:10;}
	.st102{fill-rule:evenodd;clip-rule:evenodd;fill:#1C19A8;stroke:#1C19A8;stroke-width:2.8125;stroke-miterlimit:10;}
	.st103{fill:#1C19A8;stroke:#1C19A8;stroke-width:1.875;stroke-miterlimit:10;}
	
		.st104{fill-rule:evenodd;clip-rule:evenodd;fill:#FFDE00;stroke:#1C19A8;stroke-width:2.7823;stroke-linejoin:round;stroke-miterlimit:10;}
	.st105{fill:#FB715D;stroke:#1C19A8;stroke-width:2.7823;stroke-linejoin:round;stroke-miterlimit:10;}
	.st106{fill:#1D1D1B;stroke:#1C19A8;stroke-width:2.8125;stroke-miterlimit:10;}
	.st107{fill:#1D1D1B;stroke:#1C19A8;stroke-width:2.8125;stroke-linecap:round;stroke-linejoin:round;stroke-miterlimit:10;}
	.st108{fill:#FFDE00;stroke:#1C19A8;stroke-width:2.8125;stroke-linecap:round;stroke-linejoin:round;stroke-miterlimit:10;}
	.st109{fill:#1C19A8;stroke:#1D1D1B;stroke-width:2.8125;stroke-miterlimit:10;}
	.st110{fill:#FFDE00;stroke:#1C19A8;stroke-width:2.7823;stroke-linejoin:round;stroke-miterlimit:10;}
	.st111{fill:none;stroke:#1C19A8;stroke-width:2.7823;stroke-linejoin:round;stroke-miterlimit:10;}
	.st112{fill:none;stroke:#1C19A8;stroke-width:2.7825;stroke-linecap:round;stroke-linejoin:round;stroke-miterlimit:10;}
	.st113{fill:none;stroke:#1C19A8;stroke-width:3.75;stroke-miterlimit:10;}
	
		.st114{fill-rule:evenodd;clip-rule:evenodd;fill:#00AB81;stroke:#1C19A8;stroke-width:2.7823;stroke-linejoin:round;stroke-miterlimit:10;}
	.st115{fill:#1C19A8;stroke:#1C19A8;stroke-width:3.75;stroke-miterlimit:10;}
	.st116{fill:#1C19A8;stroke:#1C19A8;stroke-width:2.8125;stroke-linecap:round;stroke-linejoin:round;stroke-miterlimit:10;}
	.st117{fill:#1C19A8;stroke:#1C19A8;stroke-width:0.9375;stroke-miterlimit:10;}
	.st118{fill:#1D1D1B;stroke:#1C19A8;stroke-width:3.75;stroke-miterlimit:10;}
	
		.st119{fill-rule:evenodd;clip-rule:evenodd;fill:#FB715D;stroke:#1C19A8;stroke-width:2.7823;stroke-linejoin:round;stroke-miterlimit:10;}
	.st120{fill:#1C19A8;stroke:#1C19A8;stroke-width:2.8108;stroke-linejoin:round;stroke-miterlimit:10;}
	.st121{fill:#FFDE00;stroke:#1C19A8;stroke-width:2.8108;stroke-linejoin:round;stroke-miterlimit:10;}
	.st122{fill-rule:evenodd;clip-rule:evenodd;fill:none;stroke:#1C19A8;stroke-width:3.75;stroke-miterlimit:10;}
	.st123{fill:#FFFFFF;stroke:#1D1D1B;stroke-width:2.82;stroke-miterlimit:10;}
</style>
<pattern x="-5030" y="-890" width="28.8" height="28.8" patternUnits="userSpaceOnUse" id="New_Blue_Dots" viewBox="1.4 -30.2 28.8 28.8" style="overflow:visible;">
	<g>
		<rect x="1.4" y="-30.2" class="st0" width="28.8" height="28.8"></rect>
		<g>
			<path class="st1" d="M30.2,0c0.8,0,1.4-0.6,1.4-1.4c0-0.8-0.6-1.4-1.4-1.4c-0.8,0-1.4,0.6-1.4,1.4C28.8-0.6,29.4,0,30.2,0z"></path>
			<path class="st1" d="M15.8,0c0.8,0,1.4-0.6,1.4-1.4c0-0.8-0.6-1.4-1.4-1.4c-0.8,0-1.4,0.6-1.4,1.4C14.4-0.6,15,0,15.8,0z"></path>
			<path class="st1" d="M30.2-14.4c0.8,0,1.4-0.6,1.4-1.4c0-0.8-0.6-1.4-1.4-1.4c-0.8,0-1.4,0.6-1.4,1.4     C28.8-15,29.4-14.4,30.2-14.4z"></path>
			<path class="st1" d="M15.8-14.4c0.8,0,1.4-0.6,1.4-1.4c0-0.8-0.6-1.4-1.4-1.4c-0.8,0-1.4,0.6-1.4,1.4C14.4-15,15-14.4,15.8-14.4z     "></path>
			<path class="st1" d="M8.6-7.2c0.8,0,1.4-0.6,1.4-1.4c0-0.8-0.6-1.4-1.4-1.4c-0.8,0-1.4,0.6-1.4,1.4C7.2-7.8,7.8-7.2,8.6-7.2z"></path>
			<path class="st1" d="M23-7.2c0.8,0,1.4-0.6,1.4-1.4c0-0.8-0.6-1.4-1.4-1.4c-0.8,0-1.4,0.6-1.4,1.4C21.6-7.8,22.2-7.2,23-7.2z"></path>
			<path class="st1" d="M8.6-21.6c0.8,0,1.4-0.6,1.4-1.4c0-0.8-0.6-1.4-1.4-1.4c-0.8,0-1.4,0.6-1.4,1.4C7.2-22.2,7.8-21.6,8.6-21.6z     "></path>
			<path class="st1" d="M23-21.6c0.8,0,1.4-0.6,1.4-1.4c0-0.8-0.6-1.4-1.4-1.4c-0.8,0-1.4,0.6-1.4,1.4C21.6-22.2,22.2-21.6,23-21.6z     "></path>
		</g>
		<g>
			<path class="st1" d="M1.4,0c0.8,0,1.4-0.6,1.4-1.4c0-0.8-0.6-1.4-1.4-1.4C0.6-2.9,0-2.2,0-1.4C0-0.6,0.6,0,1.4,0z"></path>
			<path class="st1" d="M1.4-14.4c0.8,0,1.4-0.6,1.4-1.4c0-0.8-0.6-1.4-1.4-1.4c-0.8,0-1.4,0.6-1.4,1.4C0-15,0.6-14.4,1.4-14.4z"></path>
		</g>
		<g>
			<path class="st1" d="M30.2-28.8c0.8,0,1.4-0.6,1.4-1.4c0-0.8-0.6-1.4-1.4-1.4c-0.8,0-1.4,0.6-1.4,1.4     C28.8-29.4,29.4-28.8,30.2-28.8z"></path>
			<path class="st1" d="M15.8-28.8c0.8,0,1.4-0.6,1.4-1.4c0-0.8-0.6-1.4-1.4-1.4c-0.8,0-1.4,0.6-1.4,1.4     C14.4-29.4,15-28.8,15.8-28.8z"></path>
		</g>
		<g>
			<path class="st1" d="M1.4-28.8c0.8,0,1.4-0.6,1.4-1.4c0-0.8-0.6-1.4-1.4-1.4C0.6-31.7,0-31,0-30.2C0-29.4,0.6-28.8,1.4-28.8z"></path>
		</g>
	</g>
</pattern>
<g id="Layer_1">
	<rect x="82.7" y="238.4" class="st2" width="437.1" height="228.4"></rect>
	<g>
		<line class="st7" x1="250" y1="320.6" x2="250" y2="460.5"></line>
		<g>
			<path class="st12" d="M193.7,366.1c0.2,0,0.3,0.2,0.3,0.5v2.4c0,0.3-0.2,0.5-0.4,0.5h-0.1c0.1,0.3,0.2,0.5,0.3,0.7     c0.3,0.3,0.6,0.6,1,0.9c0.4,0.3,0.9,0.6,1.2,1.1c0.4,0.5,0.6,1.2,0.6,2.1v0v11.4c0,1.2-0.8,2.2-1.7,2.2h-9c-0.9,0-1.7-1-1.7-2.2     v-11.4v0c0-0.9,0.3-1.5,0.6-2c0.4-0.5,0.8-0.8,1.2-1.2c0.4-0.3,0.8-0.6,1-0.9c0.2-0.2,0.3-0.4,0.3-0.7h-0.1     c-0.2,0-0.4-0.2-0.4-0.5l0-2.4c0-0.1,0-0.3,0.1-0.4s0.2-0.1,0.3-0.1L193.7,366.1C193.6,366.1,193.7,366.1,193.7,366.1     L193.7,366.1z"></path>
			<path class="st12" d="M213.4,366.1c0.2,0,0.3,0.2,0.3,0.5v2.4c0,0.3-0.2,0.5-0.4,0.5h-0.1c0.1,0.3,0.2,0.5,0.3,0.7     c0.3,0.3,0.6,0.6,1,0.9c0.4,0.3,0.9,0.6,1.2,1.1c0.4,0.5,0.6,1.2,0.6,2.1v0v11.4c0,1.2-0.8,2.2-1.7,2.2h-9c-0.9,0-1.7-1-1.7-2.2     v-11.4v0c0-0.9,0.3-1.5,0.6-2s0.8-0.8,1.2-1.2c0.4-0.3,0.8-0.6,1-0.9c0.2-0.2,0.3-0.4,0.3-0.7h-0.1c-0.2,0-0.4-0.2-0.4-0.5l0-2.4     c0-0.1,0-0.3,0.1-0.4s0.2-0.1,0.3-0.1L213.4,366.1C213.4,366.1,213.4,366.1,213.4,366.1L213.4,366.1z"></path>
			<g>
				<path class="st8" d="M243.6,424.7h-8.5l0-14.6l2.2-6.9l0-5.6h4.1l0,5.6l2.2,6.9L243.6,424.7z"></path>
			</g>
			<g>
				<path class="st8" d="M228.3,424.7h-8.5l0-14.6l2.2-6.9l0-5.6h4.1l0,5.6l2.2,6.9L228.3,424.7z"></path>
			</g>
			
				<rect x="217.2" y="336.2" transform="matrix(-1 -4.482737e-11 4.482737e-11 -1 457.6946 690.4346)" class="st6" width="23.2" height="18.1"></rect>
			
				<rect x="178.7" y="421.6" transform="matrix(-1 -4.498414e-11 4.498414e-11 -1 428.7139 847.9955)" class="st13" width="71.4" height="4.8"></rect>
			
				<rect x="178.7" y="387.9" transform="matrix(-1 -4.483137e-11 4.483137e-11 -1 428.7139 780.645)" class="st13" width="71.4" height="4.8"></rect>
			
				<rect x="178.7" y="354.2" transform="matrix(-1 -4.498414e-11 4.498414e-11 -1 428.7139 713.2945)" class="st13" width="71.4" height="4.8"></rect>
			
				<rect x="178.7" y="320.6" transform="matrix(-1 -4.498414e-11 4.498414e-11 -1 428.7139 645.944)" class="st13" width="71.4" height="4.8"></rect>
			<g>
				<path class="st5" d="M216.7,320.6h-8.5l0-14.6l2.2-6.9l0-5.6h4.1l0,5.6l2.2,6.9L216.7,320.6z"></path>
			</g>
			<g>
				<path class="st5" d="M201.4,320.6h-8.5l0-14.6l2.2-6.9l0-5.6h4.1l0,5.6l2.2,6.9L201.4,320.6z"></path>
			</g>
		</g>
	</g>
	<path class="st8" d="M386.5,317.9c0,3.9-3.1,7-7,7c-3.9,0-7-3.1-7-7"></path>
	<path class="st5" d="M406.8,317.9h-54.5l0,0c0-4.7,3.8-8.5,8.5-8.5h37.5C402.9,309.4,406.8,313.2,406.8,317.9L406.8,317.9z"></path>
	<path class="st5" d="M379.4,303.6L379.4,303.6c-2.5,0-4.5,2-4.5,4.5v1.3h8.9v-1.3C383.9,305.6,381.9,303.6,379.4,303.6z"></path>
	<path class="st8" d="M463.1,290.5c0,3.9-3.1,7-7,7c-3.9,0-7-3.1-7-7"></path>
	<path class="st5" d="M483.3,290.5h-54.5l0,0c0-4.7,3.8-8.5,8.5-8.5h37.5C479.5,282,483.3,285.8,483.3,290.5L483.3,290.5z"></path>
	<path class="st5" d="M456,276.2L456,276.2c-2.5,0-4.5,2-4.5,4.5v1.3h8.9v-1.3C460.4,278.2,458.4,276.2,456,276.2z"></path>
	<line class="st6" x1="456" y1="276.2" x2="456" y2="248.9"></line>
	<g>
		<rect x="285.6" y="398.3" class="st14" width="69.8" height="7.2"></rect>
		<rect x="315" y="405.5" class="st14" width="8.2" height="54.9"></rect>
		<g>
			
				<rect x="381.8" y="381.2" transform="matrix(-1 -4.411728e-11 4.411728e-11 -1 769.9992 804.2244)" class="st14" width="6.3" height="41.9"></rect>
			
				<rect x="343.6" y="421" transform="matrix(-1 -4.468793e-11 4.468793e-11 -1 731.8181 847.0196)" class="st14" width="44.5" height="5"></rect>
			<line class="st14" x1="383.9" y1="426" x2="383.9" y2="459.5"></line>
			<line class="st14" x1="379.5" y1="426" x2="379.5" y2="459.5"></line>
			<line class="st14" x1="353.8" y1="426" x2="353.8" y2="459.5"></line>
			<line class="st14" x1="349.4" y1="426" x2="349.4" y2="459.5"></line>
		</g>
		<g>
			<rect x="262.2" y="381.2" class="st14" width="6.3" height="41.9"></rect>
			<rect x="262.2" y="421" class="st14" width="44.5" height="5"></rect>
			<line class="st14" x1="266.5" y1="426" x2="266.5" y2="459.5"></line>
			<line class="st14" x1="270.9" y1="426" x2="270.9" y2="459.5"></line>
			<line class="st14" x1="296.6" y1="426" x2="296.6" y2="459.5"></line>
			<line class="st14" x1="300.9" y1="426" x2="300.9" y2="459.5"></line>
		</g>
	</g>
	<rect x="438.2" y="398.3" class="st14" width="69.8" height="7.2"></rect>
	<rect x="467.6" y="405.5" class="st14" width="8.2" height="54.9"></rect>
	<rect x="76.8" y="177.7" class="st8" width="448.6" height="12.5"></rect>
	
		<rect x="366.2" y="332" transform="matrix(-1.836970e-16 1 -1 -1.836970e-16 857.4203 -175.9485)" class="st8" width="301" height="17.4"></rect>
	
		<rect x="-65" y="332" transform="matrix(-1.836970e-16 1 -1 -1.836970e-16 426.2415 255.2303)" class="st8" width="301" height="17.4"></rect>
	<rect x="76.8" y="165.2" class="st8" width="448.6" height="12.5"></rect>
	<rect x="76.8" y="152.6" class="st8" width="448.6" height="12.5"></rect>
	<rect x="76.8" y="140.1" class="st8" width="448.6" height="12.5"></rect>
	<rect x="76.8" y="127.5" class="st8" width="448.6" height="12.5"></rect>
	<rect x="76.8" y="215.3" class="st8" width="448.6" height="12.5"></rect>
	<rect x="76.8" y="202.8" class="st8" width="448.6" height="12.5"></rect>
	<rect x="76.8" y="190.2" class="st8" width="448.6" height="12.5"></rect>
	<rect x="67.1" y="473.2" class="st5" width="471.5" height="18.1"></rect>
	<rect x="353.9" y="248.9" class="st8" width="10.5" height="224.3"></rect>
	<rect x="199.7" y="248.9" class="st8" width="10.5" height="224.3"></rect>
	<rect x="199.7" y="459.5" class="st8" width="308.2" height="13.6"></rect>
	<rect x="94.2" y="459.5" class="st8" width="105.5" height="13.6"></rect>
	<rect x="94.2" y="227.9" class="st6" width="413.8" height="21"></rect>
	<g>
		<rect x="411.5" y="381.2" class="st14" width="6.3" height="41.9"></rect>
		<rect x="411.5" y="421" class="st14" width="44.5" height="5"></rect>
		<line class="st14" x1="415.8" y1="426" x2="415.8" y2="459.5"></line>
		<line class="st14" x1="420.2" y1="426" x2="420.2" y2="459.5"></line>
		<line class="st14" x1="445.9" y1="426" x2="445.9" y2="459.5"></line>
		<line class="st14" x1="450.3" y1="426" x2="450.3" y2="459.5"></line>
	</g>
	<g>
		<path class="st8" d="M307,297.2c0,3.9-3.1,7-7,7s-7-3.1-7-7"></path>
		<path class="st5" d="M327.3,297.2h-54.5v0c0-4.7,3.8-8.5,8.5-8.5h37.5C323.4,288.7,327.3,292.5,327.3,297.2L327.3,297.2z"></path>
		<path class="st5" d="M299.9,282.9L299.9,282.9c-2.5,0-4.5,2-4.5,4.5v1.3h8.9v-1.3C304.4,284.9,302.4,282.9,299.9,282.9z"></path>
		<line class="st6" x1="299.9" y1="282.9" x2="299.9" y2="248.9"></line>
	</g>
	<line class="st6" x1="379.4" y1="303.6" x2="379.4" y2="248.9"></line>
	<g>
		<line class="st7" x1="166" y1="320.6" x2="166" y2="460.5"></line>
		<line class="st7" x1="177.7" y1="320.6" x2="177.7" y2="460.5"></line>
		<g>
			<path class="st12" d="M109.6,366.1c0.2,0,0.3,0.2,0.3,0.5v2.4c0,0.3-0.2,0.5-0.4,0.5h-0.1c0.1,0.3,0.2,0.5,0.3,0.7     c0.3,0.3,0.6,0.6,1,0.9s0.9,0.6,1.2,1.1c0.4,0.5,0.6,1.2,0.6,2.1v0v11.4c0,1.2-0.8,2.2-1.7,2.2h-9c-0.9,0-1.7-1-1.7-2.2v-11.4v0     c0-0.9,0.3-1.5,0.6-2c0.4-0.5,0.8-0.8,1.2-1.2c0.4-0.3,0.8-0.6,1-0.9c0.2-0.2,0.3-0.4,0.3-0.7h-0.1c-0.2,0-0.4-0.2-0.4-0.5l0-2.4     c0-0.1,0-0.3,0.1-0.4s0.2-0.1,0.3-0.1L109.6,366.1C109.6,366.1,109.6,366.1,109.6,366.1L109.6,366.1z"></path>
			<path class="st12" d="M129.3,366.1c0.2,0,0.3,0.2,0.3,0.5v2.4c0,0.3-0.2,0.5-0.4,0.5h-0.1c0.1,0.3,0.2,0.5,0.3,0.7     c0.3,0.3,0.6,0.6,1,0.9c0.4,0.3,0.9,0.6,1.2,1.1c0.4,0.5,0.6,1.2,0.6,2.1v0v11.4c0,1.2-0.8,2.2-1.7,2.2h-9c-0.9,0-1.7-1-1.7-2.2     v-11.4v0c0-0.9,0.3-1.5,0.6-2c0.4-0.5,0.8-0.8,1.2-1.2c0.4-0.3,0.8-0.6,1-0.9c0.2-0.2,0.3-0.4,0.3-0.7h-0.1     c-0.2,0-0.4-0.2-0.4-0.5l0-2.4c0-0.1,0-0.3,0.1-0.4s0.2-0.1,0.3-0.1L129.3,366.1C129.3,366.1,129.3,366.1,129.3,366.1     L129.3,366.1z"></path>
			<g>
				<path class="st8" d="M159.5,424.7h-8.5l0-14.6l2.2-6.9l0-5.6h4.1l0,5.6l2.2,6.9L159.5,424.7z"></path>
			</g>
			<g>
				<path class="st8" d="M144.3,424.7h-8.5l0-14.6l2.2-6.9l0-5.6h4.1l0,5.6l2.2,6.9L144.3,424.7z"></path>
			</g>
			
				<rect x="133.2" y="336.2" transform="matrix(-1 -4.482737e-11 4.482737e-11 -1 289.5738 690.4346)" class="st6" width="23.2" height="18.1"></rect>
			
				<rect x="94.6" y="421.6" transform="matrix(-1 -4.498414e-11 4.498414e-11 -1 260.5931 847.9955)" class="st13" width="71.4" height="4.8"></rect>
			
				<rect x="94.6" y="387.9" transform="matrix(-1 -4.483137e-11 4.483137e-11 -1 260.5931 780.645)" class="st13" width="71.4" height="4.8"></rect>
			
				<rect x="94.6" y="354.2" transform="matrix(-1 -4.498414e-11 4.498414e-11 -1 260.5931 713.2945)" class="st13" width="71.4" height="4.8"></rect>
			
				<rect x="94.6" y="320.6" transform="matrix(-1 -4.498414e-11 4.498414e-11 -1 260.5931 645.944)" class="st13" width="71.4" height="4.8"></rect>
			<g>
				<path class="st5" d="M132.6,320.6h-8.5l0-14.6l2.2-6.9l0-5.6h4.1l0,5.6l2.2,6.9L132.6,320.6z"></path>
			</g>
			<g>
				<path class="st5" d="M117.3,320.6h-8.5l0-14.6l2.2-6.9l0-5.6h4.1l0,5.6l2.2,6.9L117.3,320.6z"></path>
			</g>
		</g>
	</g>
	<pattern id="SVGID_1_" xlink:href="#New_Blue_Dots" patternTransform="matrix(1 0 0 1 0 -12.3836)">
	</pattern>
	
		<rect x="210.3" y="248.9" style="fill:url(#SVGID_1_);stroke:#1C19A8;stroke-width:2.82;stroke-miterlimit:10;" width="143.6" height="210.7"></rect>
	<pattern id="SVGID_2_" xlink:href="#New_Blue_Dots" patternTransform="matrix(1 0 0 1 10.1167 -12.3836)">
	</pattern>
	
		<rect x="364.4" y="248.9" style="fill:url(#SVGID_2_);stroke:#1C19A8;stroke-width:2.82;stroke-miterlimit:10;" width="143.6" height="210.7"></rect>
	<path class="st48" d="M94.2,248.9v210.1h105.5V248.9H94.2z M175,439.8h-66.2V270.5H175V439.8z"></path>
	<g>
		<circle class="st48" cx="188.7" cy="340.1" r="3.3"></circle>
		<circle class="st48" cx="188.7" cy="393.9" r="3.3"></circle>
		<line class="st50" x1="188.7" y1="343.4" x2="188.7" y2="391.1"></line>
	</g>
</g>
<g id="Layer_2">
</g>
</svg>
