<?xml version="1.0" encoding="UTF-8"?>
<svg xmlns="http://www.w3.org/2000/svg" xmlns:xlink="http://www.w3.org/1999/xlink" viewBox="0 0 600 600">
  <clipPath id="a">
    <path d="m414.9 298.07h68.53v105.77h-68.53z"></path>
  </clipPath>
  <clipPath id="b">
    <path d="m459.11 277.31h29.22v27h-29.22z"></path>
  </clipPath>
  <clipPath id="c">
    <path d="m459.11 304.32h29.22v27h-29.22z"></path>
  </clipPath>
  <clipPath id="d">
    <path d="m459.11 331.32h29.22v27h-29.22z"></path>
  </clipPath>
  <clipPath id="e">
    <path d="m459.11 358.32h29.22v27h-29.22z"></path>
  </clipPath>
  <clipPath id="f">
    <path d="m459.11 385.32h29.22v27h-29.22z"></path>
  </clipPath>
  <clipPath id="g">
    <path d="m429.89 277.31h29.22v27h-29.22z"></path>
  </clipPath>
  <clipPath id="h">
    <path d="m429.89 304.32h29.22v27h-29.22z"></path>
  </clipPath>
  <clipPath id="i">
    <path d="m429.89 331.32h29.22v27h-29.22z"></path>
  </clipPath>
  <clipPath id="j">
    <path d="m429.89 358.32h29.22v27h-29.22z"></path>
  </clipPath>
  <clipPath id="k">
    <path d="m429.89 385.32h29.22v27h-29.22z"></path>
  </clipPath>
  <clipPath id="l">
    <path d="m400.66 277.31h29.22v27h-29.22z"></path>
  </clipPath>
  <clipPath id="m">
    <path d="m400.66 304.32h29.22v27h-29.22z"></path>
  </clipPath>
  <clipPath id="n">
    <path d="m400.66 331.32h29.22v27h-29.22z"></path>
  </clipPath>
  <clipPath id="o">
    <path d="m400.66 358.32h29.22v27h-29.22z"></path>
  </clipPath>
  <clipPath id="p">
    <path d="m400.66 385.32h29.22v27h-29.22z"></path>
  </clipPath>
  <clipPath id="q">
    <path d="m414.9 424.43h68.53v37.54h-68.53z"></path>
  </clipPath>
  <clipPath id="r">
    <path d="m459.11 412.32h29.22v27h-29.22z"></path>
  </clipPath>
  <clipPath id="s">
    <path d="m459.11 439.32h29.22v27h-29.22z"></path>
  </clipPath>
  <clipPath id="t">
    <path d="m429.89 412.32h29.22v27h-29.22z"></path>
  </clipPath>
  <clipPath id="u">
    <path d="m429.89 439.32h29.22v27h-29.22z"></path>
  </clipPath>
  <clipPath id="v">
    <path d="m400.66 412.32h29.22v27h-29.22z"></path>
  </clipPath>
  <clipPath id="w">
    <path d="m400.66 439.32h29.22v27h-29.22z"></path>
  </clipPath>
  <path d="m98.4 231.79h415.6v260.18h-415.6z" fill="#fff"></path>
  <path d="m404.5 285.63v190.37h91.11v-190.37zm78.94 176.37h-68.54v-37.57h68.54zm0-58.13h-68.54v-105.8h68.54z" fill="#ffde00"></path>
  <path d="m165.68 374.83h6.26v31.8h-6.26z" fill="#ffde00"></path>
  <path d="m325.11 353.62v-7.38h-11.78v7.38h-5.03v25.35h21.83v-25.35z" fill="#ffde00"></path>
  <path d="m507.8 239.54v-81.22h-415.39v81.22h302.61v39.53h-135.24-9.47-145.92v6.56h145.92v190.4h9.47v-190.4h135.24v190.4h9.48v-190.4h91.11v-6.56h-91.11v-39.53z" fill="#ffde00"></path>
  <path d="m104.49 405.94h145.81v8.76h-145.81z" fill="#ffde00"></path>
  <path d="m259.78 405.94h135.24v8.76h-135.24z" fill="#ffde00"></path>
  <path d="m115.8 424.43h122.9v39.75h-122.9z" fill="#ffde00"></path>
  <path d="m270.2 424.43h114.06v39.75h-114.06z" fill="#ffde00"></path>
  <path d="m158.78 361v-5.55h-6.26v6.8a22.17 22.17 0 0 1 6.26-1.25z" fill="#ffde00"></path>
  <path d="m153 367.07v40.57h6.26v-39.64a30.85 30.85 0 0 0 -6.26-.93z" fill="#ffde00"></path>
  <path d="m152.52 374.94a17.36 17.36 0 0 0 -4.61-4 12.65 12.65 0 0 0 -11.67-.86 16.8 16.8 0 0 1 9 9.75 26.27 26.27 0 0 0 -23.44-1.91 24.78 24.78 0 0 1 18.2 5.83 27.25 27.25 0 0 0 -16.12 9.68c5.66-1.05 11.36-2.1 17.1-1.8a27.32 27.32 0 0 1 11.55 3.11z" fill="#00ab81"></path>
  <path d="m172 392.23a9.82 9.82 0 0 1 2.65-2.29 7.31 7.31 0 0 1 6.73-.5 9.67 9.67 0 0 0 -5.17 5.62 15.14 15.14 0 0 1 13.51-1.1 14.33 14.33 0 0 0 -10.51 3.35 15.71 15.71 0 0 1 9.3 5.58 41.63 41.63 0 0 0 -9.86-1 15.77 15.77 0 0 0 -6.65 1.79z" fill="#00ab81"></path>
  <path d="m495.61 239.63h11.98v236.4h-11.98z" fill="#00ab81"></path>
  <path d="m92.41 239.63h11.98v236.4h-11.98z" fill="#00ab81"></path>
  <path d="m104.49 414.7v61.3h145.82v-61.3zm134.22 49.48h-122.62v-39.75h122.62z" fill="#00ab81"></path>
  <path d="m259.7 414.7v61.3h135.3v-61.3zm124.56 49.48h-113.8v-39.75h113.8z" fill="#00ab81"></path>
  <path d="m178 361.77c-.39 0-.78 0-1.17 0 .44-.3.88-.61 1.33-.9l9.14-6c-2.09-1.07-4.55-1-6.88-.8a13 13 0 0 0 -4.39.78 8.92 8.92 0 0 0 -4.22 4.16 11.55 11.55 0 0 0 -.45 1.1v-.48c-.95-3.55-4.05-6.23-7.49-7.55a21.16 21.16 0 0 0 -5-1.18 13 13 0 0 1 2.79-2.89 21.34 21.34 0 0 1 7.6-3.46 36.91 36.91 0 0 1 14.42-.87c-3.43-4.49-9.48-6.11-15.12-6.34-.56 0-1.12 0-1.68 0 .63-.44 1.26-.87 1.9-1.29l13.13-8.65c-3-1.53-6.53-1.36-9.88-1.15a19.12 19.12 0 0 0 -6.3 1.12 12.83 12.83 0 0 0 -6.06 6c-.25.47-.45 1-.66 1.42v-.53c-1.37-5.1-5.82-9-10.75-10.84s-10.33-2.13-15.62-2.1a17.5 17.5 0 0 1 11.62 3.68c3.23 2.69 6.05 8.75 5.56 12.93a10.33 10.33 0 0 0 -2.88-1.38 16.45 16.45 0 0 0 -4.95-.38c-6.81.27-14.11 2.23-18.24 7.65a44.34 44.34 0 0 1 17.39 1 25.81 25.81 0 0 1 9.17 4.17c2.69 2.05 4.46 3.12 5.14 6.43h1.55v-.65a10.56 10.56 0 0 1 1.33-3.24 10.35 10.35 0 0 1 2.79 1.61c2.26 1.87 4.19 6 3.84 8.94v.06a7.1 7.1 0 0 0 -2-1 11.4 11.4 0 0 0 -3.45-.26c-4.74.18-9.82 1.55-12.7 5.32a30.92 30.92 0 0 1 12.11.73 18.17 18.17 0 0 1 6.39 2.9 10.83 10.83 0 0 1 2.62 2.62v2.28h2.2v-1.4a8.33 8.33 0 0 1 3-4.24 14.77 14.77 0 0 1 5.29-2.4 25.56 25.56 0 0 1 10-.61c-2.32-3.02-6.53-4.16-10.42-4.31z" fill="#00ab81"></path>
  <path d="m284.58 353.62h16.02v25.35h-16.02z" fill="#fb715d"></path>
  <path d="m336.22 361.33h16.02v17.64h-16.02z" fill="#fb715d"></path>
  <path d="m507.8 238.71h23.75v237.32h-23.75z" fill="#fb715d"></path>
  <path d="m68.55 238.71h23.75v237.32h-23.75z" fill="#fb715d"></path>
  <path d="m68.45 476.03h463.1v14.53h-463.1z" fill="#fb715d"></path>
  <path d="m507.59 145.12h23.96v94.43h-23.96z" fill="#fb715d"></path>
  <path d="m68.45 145.12h23.96v94.43h-23.96z" fill="#fb715d"></path>
  <g fill="#1c19a8">
    <path d="m495.61 477.44h-91.11a1.41 1.41 0 0 1 -1.4-1.41v-190.4a1.41 1.41 0 0 1 1.4-1.41h91.11a1.41 1.41 0 0 1 1.41 1.41v190.37a1.41 1.41 0 0 1 -1.41 1.44zm-89.7-2.81h88.3v-187.63h-88.3zm77.53-11.25h-68.54a1.41 1.41 0 0 1 -1.4-1.41v-37.54a1.41 1.41 0 0 1 1.4-1.41h68.54a1.41 1.41 0 0 1 1.4 1.41v37.57a1.41 1.41 0 0 1 -1.4 1.38zm-67.13-2.82h65.69v-34.72h-65.69zm67.13-55.31h-68.54a1.41 1.41 0 0 1 -1.4-1.41v-105.77a1.41 1.41 0 0 1 1.4-1.41h68.54a1.41 1.41 0 0 1 1.4 1.41v105.77a1.41 1.41 0 0 1 -1.4 1.41zm-67.13-2.82h65.69v-102.95h-65.69z"></path>
    <path d="m300.6 380.38h-16a1.41 1.41 0 0 1 -1.41-1.41v-25.35a1.41 1.41 0 0 1 1.41-1.4h16a1.41 1.41 0 0 1 1.41 1.4v25.38a1.41 1.41 0 0 1 -1.41 1.38zm-14.6-2.82h13.2v-22.56h-13.2z"></path>
    <path d="m352.24 380.38h-16a1.41 1.41 0 0 1 -1.4-1.41v-17.64a1.4 1.4 0 0 1 1.4-1.4h16a1.41 1.41 0 0 1 1.41 1.4v17.67a1.41 1.41 0 0 1 -1.41 1.38zm-14.61-2.82h13.21v-14.82h-13.21z"></path>
    <path d="m330.14 380.38h-21.84a1.41 1.41 0 0 1 -1.4-1.41v-25.35a1.4 1.4 0 0 1 1.4-1.4h3.62v-6a1.41 1.41 0 0 1 1.41-1.4h11.78a1.4 1.4 0 0 1 1.4 1.4v6h3.63a1.4 1.4 0 0 1 1.4 1.4v25.38a1.41 1.41 0 0 1 -1.4 1.38zm-20.43-2.82h19v-22.56h-3.62a1.41 1.41 0 0 1 -1.41-1.41v-6h-9v6a1.41 1.41 0 0 1 -1.4 1.41h-3.62z"></path>
    <path d="m404.5 477.44h-9.5a1.41 1.41 0 0 1 -1.41-1.41v-189.03h-132.4v189a1.41 1.41 0 0 1 -1.41 1.41h-9.47a1.41 1.41 0 0 1 -1.41-1.41v-189h-144.51a1.41 1.41 0 0 1 -1.41-1.4v-6.56a1.41 1.41 0 0 1 1.41-1.41h289.22v-36.63h-301.2a1.41 1.41 0 0 1 -1.41-1.46v-81.22a1.41 1.41 0 0 1 1.41-1.41h415.39a1.41 1.41 0 0 1 1.41 1.41v81.22a1.41 1.41 0 0 1 -1.41 1.46h-101.89v36.71h89.7a1.41 1.41 0 0 1 1.41 1.41v6.56a1.41 1.41 0 0 1 -1.41 1.4h-89.7v188.92a1.41 1.41 0 0 1 -1.41 1.44zm-8.07-2.81h6.67v-189a1.41 1.41 0 0 1 1.4-1.41h89.71v-3.74h-89.71a1.41 1.41 0 0 1 -1.4-1.41v-39.53a1.4 1.4 0 0 1 1.4-1.4h101.89v-78.42h-412.57v78.42h301.18a1.41 1.41 0 0 1 1.41 1.4v39.53a1.41 1.41 0 0 1 -1.41 1.41h-289.21v3.74h144.52a1.41 1.41 0 0 1 1.4 1.41v189h6.67v-189a1.41 1.41 0 0 1 1.4-1.41h135.22a1.41 1.41 0 0 1 1.41 1.41z"></path>
    <path d="m531.55 477.44h-23.75a1.41 1.41 0 0 1 -1.41-1.41v-237.32a1.41 1.41 0 0 1 1.41-1.41h23.75a1.41 1.41 0 0 1 1.41 1.41v237.29a1.41 1.41 0 0 1 -1.41 1.44zm-22.34-2.81h20.94v-234.51h-20.94z"></path>
    <path d="m92.31 477.44h-23.76a1.41 1.41 0 0 1 -1.41-1.44v-237.29a1.41 1.41 0 0 1 1.41-1.41h23.76a1.41 1.41 0 0 1 1.4 1.41v237.29a1.41 1.41 0 0 1 -1.4 1.44zm-22.31-2.81h20.9v-234.51h-20.9z"></path>
    <path d="m531.55 492h-463.1a1.41 1.41 0 0 1 -1.45-1.44v-14.56a1.41 1.41 0 0 1 1.41-1.4h463.1a1.41 1.41 0 0 1 1.49 1.4v14.53a1.41 1.41 0 0 1 -1.45 1.47zm-461.7-2.81h460.3v-11.75h-460.3z"></path>
    <path d="m507.59 477.44h-12a1.41 1.41 0 0 1 -1.4-1.41v-236.4a1.41 1.41 0 0 1 1.4-1.41h12a1.41 1.41 0 0 1 1.41 1.41v236.37a1.41 1.41 0 0 1 -1.41 1.44zm-10.59-2.81h9.17v-233.63h-9.17z"></path>
    <path d="m104.39 477.44h-12a1.41 1.41 0 0 1 -1.39-1.44v-236.37a1.41 1.41 0 0 1 1.41-1.41h12a1.41 1.41 0 0 1 1.4 1.41v236.37a1.41 1.41 0 0 1 -1.42 1.44zm-10.57-2.81h9.18v-233.63h-9.18z"></path>
    <path d="m531.55 241h-24a1.41 1.41 0 0 1 -1.4-1.41v-94.47a1.41 1.41 0 0 1 1.4-1.41h24a1.41 1.41 0 0 1 1.41 1.41v94.42a1.41 1.41 0 0 1 -1.41 1.46zm-22.55-2.86h21.15v-91.62h-21.15z"></path>
    <path d="m514 178.65h2.81v60.9h-2.81z"></path>
    <path d="m522.34 178.65h2.81v60.9h-2.81z"></path>
    <path d="m531.55 250.66h-24a1.41 1.41 0 0 1 -1.4-1.41v-9.71a1.4 1.4 0 0 1 1.4-1.4h24a1.41 1.41 0 0 1 1.41 1.4v9.71a1.41 1.41 0 0 1 -1.41 1.41zm-22.55-2.81h21.15v-6.85h-21.15z"></path>
    <path d="m507.59 177.24h23.96v2.81h-23.96z"></path>
    <path d="m92.41 241h-24a1.41 1.41 0 0 1 -1.41-1.46v-94.42a1.41 1.41 0 0 1 1.41-1.41h24a1.41 1.41 0 0 1 1.41 1.41v94.42a1.41 1.41 0 0 1 -1.41 1.46zm-22.56-2.81h21.15v-91.67h-21.15z"></path>
    <path d="m74.85 178.65h2.81v60.9h-2.81z"></path>
    <path d="m83.19 178.65h2.81v60.9h-2.81z"></path>
    <path d="m92.41 250.66h-24a1.41 1.41 0 0 1 -1.41-1.41v-9.71a1.41 1.41 0 0 1 1.41-1.4h24a1.41 1.41 0 0 1 1.41 1.4v9.71a1.41 1.41 0 0 1 -1.41 1.41zm-22.56-2.81h21.15v-6.85h-21.15z"></path>
    <path d="m68.45 177.24h23.96v2.81h-23.96z"></path>
    <path d="m435.3 410.32h29.76v6.59h-29.76z"></path>
    <path d="m465.06 418.32h-29.76a1.4 1.4 0 0 1 -1.4-1.4v-6.6a1.4 1.4 0 0 1 1.4-1.4h29.76a1.41 1.41 0 0 1 1.41 1.4v6.6a1.41 1.41 0 0 1 -1.41 1.4zm-28.35-2.81h27v-3.78h-27z"></path>
    <path d="m250.31 416.11h-145.82a1.41 1.41 0 0 1 -1.4-1.41v-8.7a1.41 1.41 0 0 1 1.4-1.41h145.82a1.41 1.41 0 0 1 1.4 1.41v8.75a1.41 1.41 0 0 1 -1.4 1.36zm-144.41-2.81h143v-5.95h-143z"></path>
    <path d="m395 416.11h-135.22a1.41 1.41 0 0 1 -1.4-1.41v-8.7a1.41 1.41 0 0 1 1.4-1.41h135.22a1.41 1.41 0 0 1 1.41 1.41v8.75a1.41 1.41 0 0 1 -1.41 1.36zm-133.81-2.81h132.42v-5.95h-132.42z"></path>
    <path d="m238.71 465.58h-122.91a1.4 1.4 0 0 1 -1.4-1.4v-39.75a1.41 1.41 0 0 1 1.4-1.41h122.91a1.41 1.41 0 0 1 1.4 1.41v39.75a1.4 1.4 0 0 1 -1.4 1.4zm-121.5-2.81h120.09v-36.93h-120.09z"></path>
    <path d="m250.31 477.44h-145.82a1.41 1.41 0 0 1 -1.4-1.41v-61.33a1.4 1.4 0 0 1 1.4-1.4h145.82a1.4 1.4 0 0 1 1.4 1.4v61.3a1.41 1.41 0 0 1 -1.4 1.44zm-144.41-2.81h143v-58.52h-143zm132.81-9.05h-122.62a1.4 1.4 0 0 1 -1.4-1.4v-39.75a1.41 1.41 0 0 1 1.4-1.41h122.62a1.41 1.41 0 0 1 1.4 1.41v39.75a1.4 1.4 0 0 1 -1.4 1.4zm-121.21-2.81h119.8v-36.93h-119.8z"></path>
    <path d="m276.25 378.97h102.31v9.79h-102.31z"></path>
    <path d="m378.56 390.17h-102.31a1.41 1.41 0 0 1 -1.41-1.41v-9.76a1.41 1.41 0 0 1 1.41-1.41h102.31a1.41 1.41 0 0 1 1.44 1.41v9.79a1.41 1.41 0 0 1 -1.44 1.38zm-100.91-2.81h99.5v-7h-99.5z"></path>
    <path d="m395 280.48h-290.61a1.41 1.41 0 0 1 -1.41-1.41v-39.44a1.41 1.41 0 0 1 1.41-1.41h290.61a1.41 1.41 0 0 1 1.41 1.41v39.44a1.41 1.41 0 0 1 -1.41 1.41zm-289.23-2.82h287.84v-36.66h-287.82z"></path>
    <path d="m495.61 279.87h-91.11a1.41 1.41 0 0 1 -1.4-1.41v-38.83a1.41 1.41 0 0 1 1.4-1.41h91.11a1.41 1.41 0 0 1 1.41 1.41v38.83a1.41 1.41 0 0 1 -1.41 1.41zm-89.7-2.82h88.3v-36.05h-88.3z"></path>
    <path d="m270.72 196.24c7.55-.05 9.86 6.91 7.88 10.75a1.16 1.16 0 0 0 .37 1.71c2.43 2 2.69 4.86 2.19 7.66-.54 3.06-2.68 4.88-5.72 5.54s-5.95 1.21-8.92 1.87c-1 .23-1.43-.23-1.6-1.11-1-4.92-1.95-9.84-2.94-14.75q-.75-3.78-1.56-7.54c-.34-1.59-.13-2 1.47-2.29zm-1.83 16.26c.29 1.53.5 2.88.83 4.21a1 1 0 0 0 .84.61 24.88 24.88 0 0 0 3.39-.7 2.16 2.16 0 0 0 1.64-2.65c-.33-1.65-1-2.32-2.49-2.16s-2.7.44-4.21.69zm-1.05-5.4c1.44-.26 2.75-.42 4-.74a2.35 2.35 0 0 0 1.67-2.44 2.51 2.51 0 0 0 -2.48-2.16c-1.38.16-2.73.53-4.23.84z"></path>
    <path d="m266 225.24a2.45 2.45 0 0 1 -1.35-.38 2.91 2.91 0 0 1 -1.15-1.93l-2.94-14.75c-.5-2.5-1-5-1.55-7.51a2.82 2.82 0 0 1 2.55-4l8.83-1.84a2 2 0 0 1 .36 0 9.52 9.52 0 0 1 8.53 4.41 8.73 8.73 0 0 1 .55 8.35c2.51 2.24 3.36 5.22 2.68 9-.62 3.48-3 5.85-6.81 6.67-1.33.29-2.67.56-4 .83-1.63.34-3.27.67-4.9 1a3.23 3.23 0 0 1 -.8.15zm-4.33-25.67a4.67 4.67 0 0 0 .09.51q.81 3.76 1.56 7.55l2.93 14.74 4.88-1c1.33-.26 2.65-.54 4-.82 2.66-.58 4.22-2.06 4.64-4.42.52-2.9 0-4.92-1.71-6.34a2.53 2.53 0 0 1 -.72-3.43 6 6 0 0 0 -.42-5.63 6.84 6.84 0 0 0 -6.07-3.07l-8.68 1.82a4.26 4.26 0 0 0 -.46.09zm8.83 19.16a2.43 2.43 0 0 1 -2.19-1.69c-.24-1-.42-2-.62-3.07l-.22-1.2a1.39 1.39 0 0 1 .23-1.07 1.36 1.36 0 0 1 .92-.58l1.34-.24c1-.19 2-.37 2.95-.47 2.23-.23 3.53.87 4 3.28a3.57 3.57 0 0 1 -2.65 4.29 29.12 29.12 0 0 1 -3.57.74zm-.01-5.09c.14.76.27 1.49.43 2.2a26 26 0 0 0 2.62-.57.79.79 0 0 0 .63-1c-.23-1.11-.41-1.1-1-1-.82.03-1.71.2-2.64.37zm-2.69-5.13a1.41 1.41 0 0 1 -1.37-1.1l-1-4.5a1.4 1.4 0 0 1 .19-1.07 1.36 1.36 0 0 1 .9-.61l1.31-.29a28.77 28.77 0 0 1 3-.58 3.87 3.87 0 0 1 4 3.32 3.71 3.71 0 0 1 -2.71 4c-.91.23-1.85.39-2.84.55l-1.27.22zm.67-4.84.41 1.82c.9-.14 1.76-.29 2.6-.49a1 1 0 0 0 .63-.84 1.29 1.29 0 0 0 -.93-1 24.29 24.29 0 0 0 -2.67.51z"></path>
    <path d="m341.15 203.27c-.32-3.25-2.34-6-5.75-6.5a29.89 29.89 0 0 0 -5.35 0 6.89 6.89 0 0 0 -6.62 6.75c.07 4.45.38 8.91.79 13.35a6.75 6.75 0 0 0 5.73 6.4 26.59 26.59 0 0 0 5.35 0 7.21 7.21 0 0 0 6.68-7.93c-.27-4.04-.45-8.07-.83-12.07zm-8.15 14.73c-2.38.12-3-.55-3.16-2.92-.18-3.3-.43-6.59-.72-9.88-.17-1.92.57-2.9 2.5-3.11.52-.06 1-.13 1.54-.14a2.06 2.06 0 0 1 2.1 2q.47 5.76.91 11.53c.15 1.62-.81 2.39-3.17 2.52z"></path>
    <path d="m332 224.81a16.93 16.93 0 0 1 -2.24-.13 8.2 8.2 0 0 1 -6.95-7.67c-.48-5.24-.73-9.52-.8-13.44a8.26 8.26 0 0 1 8-8.18h.94a23.45 23.45 0 0 1 4.66 0c3.83.52 6.55 3.56 7 7.75.27 2.83.44 5.65.61 8.49l.22 3.6a8.64 8.64 0 0 1 -8 9.42c-1.1.07-2.25.16-3.44.16zm1.43-26.75c-.76 0-1.55 0-2.35.09h-1a5.5 5.5 0 0 0 -5.28 5.32c.06 3.86.31 8.06.78 13.24a5.34 5.34 0 0 0 4.51 5.13 26.07 26.07 0 0 0 5.07 0 5.81 5.81 0 0 0 5.38-6.42l-.23-3.64c-.17-2.79-.33-5.59-.6-8.38-.22-2.26-1.52-4.83-4.54-5.24a13 13 0 0 0 -1.73-.1zm-.84 21.34c-2.77 0-4-1.27-4.14-4.27-.18-3.28-.44-6.56-.72-9.83-.23-2.69 1.1-4.34 3.75-4.63a13.58 13.58 0 0 1 1.68-.14 3.44 3.44 0 0 1 3.48 3.25q.46 5.76.92 11.53a3.53 3.53 0 0 1 -.8 2.7 5 5 0 0 1 -3.71 1.38zm.6-16.06c-.26 0-.76 0-1.14.09-1.4.16-1.62.44-1.51 1.62.28 3.31.54 6.62.72 9.93.09 1.68.16 1.67 1.69 1.6 1.32-.07 1.66-.35 1.73-.43a1 1 0 0 0 .1-.62q-.45-5.76-.92-11.52a.65.65 0 0 0 -.66-.67z"></path>
    <path d="m301.69 205.21c1.48-2.16 2.85-4.08 4.12-6.05a2 2 0 0 1 2.3-.94c.93.17 1.87.29 2.8.43 1.59.24 1.91.95.94 2.28-2.2 3-4.37 6-6.68 9a9.61 9.61 0 0 0 -2 5c-.27 2.34-.62 4.67-.94 7-.22 1.59-.61 1.85-2.18 1.57-.8-.15-1.61-.2-2.41-.32-1-.13-1.43-.58-1.26-1.65.37-2.37.47-4.8 1-7.13a10.53 10.53 0 0 0 -.7-6.47c-1.2-3.16-2.3-6.35-3.45-9.53-.62-1.73-.24-2.24 1.56-2.08a5.84 5.84 0 0 0 1.13.2c2.64-.24 3.75 1.14 4.21 3.57a48 48 0 0 0 1.56 5.12z"></path>
    <path d="m300.91 225a6.3 6.3 0 0 1 -1.14-.12c-.46-.08-.93-.14-1.4-.19l-1-.11a2.9 2.9 0 0 1 -2-1.07 2.86 2.86 0 0 1 -.44-2.2c.14-.86.24-1.73.33-2.61a38.25 38.25 0 0 1 .72-4.63 9 9 0 0 0 -.66-5.64c-.82-2.16-1.59-4.34-2.37-6.53l-1.08-3c-.22-.6-.73-2 .08-3.08a3.2 3.2 0 0 1 2.93-.87 4.27 4.27 0 0 1 .71.15c3.36-.24 5.24 1.35 5.88 4.76a18.36 18.36 0 0 0 .63 2.29c.87-1.26 1.71-2.47 2.51-3.71a3.38 3.38 0 0 1 3.72-1.55c.66.12 1.33.21 2 .31l.76.12a3 3 0 0 1 2.52 1.57 3.09 3.09 0 0 1 -.65 2.92l-.93 1.27c-1.9 2.6-3.79 5.2-5.78 7.73a8.26 8.26 0 0 0 -1.75 4.3c-.19 1.7-.42 3.39-.66 5.08l-.28 2a3.34 3.34 0 0 1 -1.14 2.44 2.6 2.6 0 0 1 -1.51.37zm-6.43-27.27.06.19 1.09 3c.77 2.16 1.54 4.33 2.35 6.47a12 12 0 0 1 .76 7.3 33.48 33.48 0 0 0 -.65 4.29c-.1.91-.21 1.82-.35 2.72l.95.16c.53.06 1.06.12 1.58.21l.46.07c0-.1 0-.24.08-.44l.27-2c.23-1.67.47-3.34.66-5a11 11 0 0 1 2.33-5.72c2-2.5 3.84-5.07 5.72-7.65l.93-1.27s0 0 0 0l-.75-.12c-.7-.1-1.4-.2-2.09-.32s-.66 0-.86.31c-.89 1.37-1.82 2.71-2.8 4.13l-1.37 1.94a1.38 1.38 0 0 1 -1.37.6 1.41 1.41 0 0 1 -1.13-1c-.19-.59-.38-1.15-.56-1.69a25.22 25.22 0 0 1 -1.05-3.62c-.42-2.21-1.23-2.56-2.7-2.42a2.74 2.74 0 0 1 -1.15-.14z"></path>
    <path d="m92.41 177.15h415.39v2.81h-415.39z"></path>
    <path d="m359.19 388.76h7.03l2.52 17.18h-7.1z"></path>
    <path d="m368.74 407.35h-7.1a1.39 1.39 0 0 1 -1.39-1.21l-2.45-17.14a1.39 1.39 0 0 1 1.39-1.6h7a1.4 1.4 0 0 1 1.39 1.2l2.52 17.18a1.41 1.41 0 0 1 -1.39 1.61zm-5.88-2.81h4.25l-2.11-14.37h-4.19z"></path>
    <path d="m292.59 388.76h-7.03l-2.52 17.18h7.1z"></path>
    <path d="m290.14 407.35h-7.14a1.42 1.42 0 0 1 -1.07-.49 1.39 1.39 0 0 1 -.32-1.12l2.52-17.18a1.4 1.4 0 0 1 1.39-1.2h7a1.4 1.4 0 0 1 1.48 1.64l-2.45 17.18a1.4 1.4 0 0 1 -1.41 1.17zm-5.48-2.81h4.26l2.08-14.37h-4.2z"></path>
    <path d="m384.26 465.58h-114.07a1.4 1.4 0 0 1 -1.4-1.4v-39.75a1.41 1.41 0 0 1 1.4-1.41h114.07a1.41 1.41 0 0 1 1.4 1.41v39.75a1.4 1.4 0 0 1 -1.4 1.4zm-112.66-2.81h111.25v-36.93h-111.25z"></path>
    <path d="m395 477.44h-135.3a1.41 1.41 0 0 1 -1.41-1.41v-61.33a1.41 1.41 0 0 1 1.41-1.4h135.3a1.41 1.41 0 0 1 1.41 1.4v61.3a1.41 1.41 0 0 1 -1.41 1.44zm-133.9-2.81h132.51v-58.52h-132.51zm123.16-9.05h-113.8a1.4 1.4 0 0 1 -1.4-1.4v-39.75a1.41 1.41 0 0 1 1.4-1.41h113.8a1.41 1.41 0 0 1 1.4 1.41v39.75a1.4 1.4 0 0 1 -1.4 1.4zm-112.39-2.81h111v-36.93h-111z"></path>
    <g clip-path="url(#a)">
      <g clip-path="url(#b)">
        <path d="m488.33 305.67a1.35 1.35 0 1 0 -1.46-1.35 1.41 1.41 0 0 0 1.46 1.35z"></path>
        <path d="m473.72 305.67a1.35 1.35 0 1 0 -1.46-1.35 1.41 1.41 0 0 0 1.46 1.35z"></path>
        <path d="m488.33 292.17a1.35 1.35 0 1 0 -1.46-1.35 1.41 1.41 0 0 0 1.46 1.35z"></path>
        <path d="m473.72 292.17a1.35 1.35 0 1 0 -1.46-1.35 1.41 1.41 0 0 0 1.46 1.35z"></path>
        <path d="m466.42 298.92a1.35 1.35 0 1 0 -1.47-1.35 1.42 1.42 0 0 0 1.47 1.35z"></path>
        <path d="m481 298.92a1.35 1.35 0 1 0 -1.46-1.35 1.42 1.42 0 0 0 1.46 1.35z"></path>
        <path d="m466.42 285.42a1.36 1.36 0 1 0 -1.47-1.35 1.42 1.42 0 0 0 1.47 1.35z"></path>
        <path d="m481 285.42a1.36 1.36 0 1 0 -1.46-1.35 1.42 1.42 0 0 0 1.46 1.35z"></path>
        <path d="m459.11 305.67a1.35 1.35 0 1 0 -1.46-1.35 1.41 1.41 0 0 0 1.46 1.35z"></path>
        <path d="m459.11 292.17a1.35 1.35 0 1 0 -1.46-1.35 1.41 1.41 0 0 0 1.46 1.35z"></path>
        <path d="m488.33 278.66a1.35 1.35 0 1 0 -1.46-1.35 1.4 1.4 0 0 0 1.46 1.35z"></path>
        <path d="m473.72 278.66a1.35 1.35 0 1 0 -1.46-1.35 1.4 1.4 0 0 0 1.46 1.35z"></path>
        <path d="m459.11 278.66a1.35 1.35 0 1 0 -1.46-1.35 1.4 1.4 0 0 0 1.46 1.35z"></path>
      </g>
      <g clip-path="url(#c)">
        <path d="m488.33 332.67a1.35 1.35 0 1 0 -1.46-1.35 1.41 1.41 0 0 0 1.46 1.35z"></path>
        <path d="m473.72 332.67a1.35 1.35 0 1 0 -1.46-1.35 1.41 1.41 0 0 0 1.46 1.35z"></path>
        <path d="m488.33 319.17a1.35 1.35 0 1 0 -1.46-1.35 1.41 1.41 0 0 0 1.46 1.35z"></path>
        <path d="m473.72 319.17a1.35 1.35 0 1 0 -1.46-1.35 1.41 1.41 0 0 0 1.46 1.35z"></path>
        <path d="m466.42 325.92a1.35 1.35 0 1 0 -1.47-1.35 1.42 1.42 0 0 0 1.47 1.35z"></path>
        <path d="m481 325.92a1.35 1.35 0 1 0 -1.46-1.35 1.42 1.42 0 0 0 1.46 1.35z"></path>
        <path d="m466.42 312.42a1.35 1.35 0 1 0 -1.47-1.35 1.42 1.42 0 0 0 1.47 1.35z"></path>
        <path d="m481 312.42a1.35 1.35 0 1 0 -1.46-1.35 1.42 1.42 0 0 0 1.46 1.35z"></path>
        <path d="m459.11 332.67a1.35 1.35 0 1 0 -1.46-1.35 1.41 1.41 0 0 0 1.46 1.35z"></path>
        <path d="m459.11 319.17a1.35 1.35 0 1 0 -1.46-1.35 1.41 1.41 0 0 0 1.46 1.35z"></path>
        <path d="m488.33 305.67a1.35 1.35 0 1 0 -1.46-1.35 1.41 1.41 0 0 0 1.46 1.35z"></path>
        <path d="m473.72 305.67a1.35 1.35 0 1 0 -1.46-1.35 1.41 1.41 0 0 0 1.46 1.35z"></path>
        <path d="m459.11 305.67a1.35 1.35 0 1 0 -1.46-1.35 1.41 1.41 0 0 0 1.46 1.35z"></path>
      </g>
      <g clip-path="url(#d)">
        <path d="m488.33 359.67a1.35 1.35 0 1 0 -1.46-1.35 1.41 1.41 0 0 0 1.46 1.35z"></path>
        <path d="m473.72 359.67a1.35 1.35 0 1 0 -1.46-1.35 1.41 1.41 0 0 0 1.46 1.35z"></path>
        <path d="m488.33 346.17a1.35 1.35 0 1 0 -1.46-1.35 1.41 1.41 0 0 0 1.46 1.35z"></path>
        <path d="m473.72 346.17a1.35 1.35 0 1 0 -1.46-1.35 1.41 1.41 0 0 0 1.46 1.35z"></path>
        <path d="m466.42 352.92a1.35 1.35 0 1 0 -1.47-1.35 1.42 1.42 0 0 0 1.47 1.35z"></path>
        <path d="m481 352.92a1.35 1.35 0 1 0 -1.46-1.35 1.42 1.42 0 0 0 1.46 1.35z"></path>
        <path d="m466.42 339.42a1.35 1.35 0 1 0 -1.47-1.35 1.42 1.42 0 0 0 1.47 1.35z"></path>
        <path d="m481 339.42a1.35 1.35 0 1 0 -1.46-1.35 1.42 1.42 0 0 0 1.46 1.35z"></path>
        <path d="m459.11 359.67a1.35 1.35 0 1 0 -1.46-1.35 1.41 1.41 0 0 0 1.46 1.35z"></path>
        <path d="m459.11 346.17a1.35 1.35 0 1 0 -1.46-1.35 1.41 1.41 0 0 0 1.46 1.35z"></path>
        <path d="m488.33 332.67a1.35 1.35 0 1 0 -1.46-1.35 1.41 1.41 0 0 0 1.46 1.35z"></path>
        <path d="m473.72 332.67a1.35 1.35 0 1 0 -1.46-1.35 1.41 1.41 0 0 0 1.46 1.35z"></path>
        <path d="m459.11 332.67a1.35 1.35 0 1 0 -1.46-1.35 1.41 1.41 0 0 0 1.46 1.35z"></path>
      </g>
      <g clip-path="url(#e)">
        <path d="m488.33 386.67a1.35 1.35 0 1 0 -1.46-1.35 1.41 1.41 0 0 0 1.46 1.35z"></path>
        <path d="m473.72 386.67a1.35 1.35 0 1 0 -1.46-1.35 1.41 1.41 0 0 0 1.46 1.35z"></path>
        <path d="m488.33 373.17a1.35 1.35 0 1 0 -1.46-1.35 1.41 1.41 0 0 0 1.46 1.35z"></path>
        <path d="m473.72 373.17a1.35 1.35 0 1 0 -1.46-1.35 1.41 1.41 0 0 0 1.46 1.35z"></path>
        <path d="m466.42 379.92a1.35 1.35 0 1 0 -1.47-1.35 1.42 1.42 0 0 0 1.47 1.35z"></path>
        <path d="m481 379.92a1.35 1.35 0 1 0 -1.46-1.35 1.42 1.42 0 0 0 1.46 1.35z"></path>
        <path d="m466.42 366.42a1.35 1.35 0 1 0 -1.47-1.35 1.42 1.42 0 0 0 1.47 1.35z"></path>
        <path d="m481 366.42a1.35 1.35 0 1 0 -1.46-1.35 1.42 1.42 0 0 0 1.46 1.35z"></path>
        <path d="m459.11 386.67a1.35 1.35 0 1 0 -1.46-1.35 1.41 1.41 0 0 0 1.46 1.35z"></path>
        <path d="m459.11 373.17a1.35 1.35 0 1 0 -1.46-1.35 1.41 1.41 0 0 0 1.46 1.35z"></path>
        <path d="m488.33 359.67a1.35 1.35 0 1 0 -1.46-1.35 1.41 1.41 0 0 0 1.46 1.35z"></path>
        <path d="m473.72 359.67a1.35 1.35 0 1 0 -1.46-1.35 1.41 1.41 0 0 0 1.46 1.35z"></path>
        <path d="m459.11 359.67a1.35 1.35 0 1 0 -1.46-1.35 1.41 1.41 0 0 0 1.46 1.35z"></path>
      </g>
      <g clip-path="url(#f)">
        <path d="m488.33 413.67a1.35 1.35 0 1 0 -1.46-1.35 1.41 1.41 0 0 0 1.46 1.35z"></path>
        <path d="m473.72 413.67a1.35 1.35 0 1 0 -1.46-1.35 1.41 1.41 0 0 0 1.46 1.35z"></path>
        <path d="m488.33 400.17a1.35 1.35 0 1 0 -1.46-1.35 1.41 1.41 0 0 0 1.46 1.35z"></path>
        <path d="m473.72 400.17a1.35 1.35 0 1 0 -1.46-1.35 1.41 1.41 0 0 0 1.46 1.35z"></path>
        <path d="m466.42 406.92a1.35 1.35 0 1 0 -1.47-1.35 1.42 1.42 0 0 0 1.47 1.35z"></path>
        <path d="m481 406.92a1.35 1.35 0 1 0 -1.46-1.35 1.42 1.42 0 0 0 1.46 1.35z"></path>
        <path d="m466.42 393.42a1.35 1.35 0 1 0 -1.47-1.35 1.42 1.42 0 0 0 1.47 1.35z"></path>
        <path d="m481 393.42a1.35 1.35 0 1 0 -1.46-1.35 1.42 1.42 0 0 0 1.46 1.35z"></path>
        <path d="m459.11 413.67a1.35 1.35 0 1 0 -1.46-1.35 1.41 1.41 0 0 0 1.46 1.35z"></path>
        <path d="m459.11 400.17a1.35 1.35 0 1 0 -1.46-1.35 1.41 1.41 0 0 0 1.46 1.35z"></path>
        <path d="m488.33 386.67a1.35 1.35 0 1 0 -1.46-1.35 1.41 1.41 0 0 0 1.46 1.35z"></path>
        <path d="m473.72 386.67a1.35 1.35 0 1 0 -1.46-1.35 1.41 1.41 0 0 0 1.46 1.35z"></path>
        <path d="m459.11 386.67a1.35 1.35 0 1 0 -1.46-1.35 1.41 1.41 0 0 0 1.46 1.35z"></path>
      </g>
      <g clip-path="url(#g)">
        <path d="m459.11 305.67a1.35 1.35 0 1 0 -1.46-1.35 1.41 1.41 0 0 0 1.46 1.35z"></path>
        <path d="m444.5 305.67a1.35 1.35 0 1 0 -1.46-1.35 1.41 1.41 0 0 0 1.46 1.35z"></path>
        <path d="m459.11 292.17a1.35 1.35 0 1 0 -1.46-1.35 1.41 1.41 0 0 0 1.46 1.35z"></path>
        <path d="m444.5 292.17a1.35 1.35 0 1 0 -1.46-1.35 1.41 1.41 0 0 0 1.46 1.35z"></path>
        <path d="m437.19 298.92a1.35 1.35 0 1 0 -1.46-1.35 1.41 1.41 0 0 0 1.46 1.35z"></path>
        <path d="m451.8 298.92a1.35 1.35 0 1 0 -1.46-1.35 1.42 1.42 0 0 0 1.46 1.35z"></path>
        <path d="m437.19 285.42a1.36 1.36 0 1 0 -1.46-1.35 1.41 1.41 0 0 0 1.46 1.35z"></path>
        <path d="m451.8 285.42a1.36 1.36 0 1 0 -1.46-1.35 1.42 1.42 0 0 0 1.46 1.35z"></path>
        <path d="m429.89 305.67a1.35 1.35 0 1 0 -1.46-1.35 1.42 1.42 0 0 0 1.46 1.35z"></path>
        <path d="m429.89 292.17a1.35 1.35 0 1 0 -1.46-1.35 1.42 1.42 0 0 0 1.46 1.35z"></path>
        <path d="m459.11 278.66a1.35 1.35 0 1 0 -1.46-1.35 1.4 1.4 0 0 0 1.46 1.35z"></path>
        <path d="m444.5 278.66a1.35 1.35 0 1 0 -1.46-1.35 1.4 1.4 0 0 0 1.46 1.35z"></path>
        <path d="m429.89 278.66a1.35 1.35 0 1 0 -1.46-1.35 1.41 1.41 0 0 0 1.46 1.35z"></path>
      </g>
      <g clip-path="url(#h)">
        <path d="m459.11 332.67a1.35 1.35 0 1 0 -1.46-1.35 1.41 1.41 0 0 0 1.46 1.35z"></path>
        <path d="m444.5 332.67a1.35 1.35 0 1 0 -1.46-1.35 1.41 1.41 0 0 0 1.46 1.35z"></path>
        <path d="m459.11 319.17a1.35 1.35 0 1 0 -1.46-1.35 1.41 1.41 0 0 0 1.46 1.35z"></path>
        <path d="m444.5 319.17a1.35 1.35 0 1 0 -1.46-1.35 1.41 1.41 0 0 0 1.46 1.35z"></path>
        <path d="m437.19 325.92a1.35 1.35 0 1 0 -1.46-1.35 1.41 1.41 0 0 0 1.46 1.35z"></path>
        <path d="m451.8 325.92a1.35 1.35 0 1 0 -1.46-1.35 1.42 1.42 0 0 0 1.46 1.35z"></path>
        <path d="m437.19 312.42a1.35 1.35 0 1 0 -1.46-1.35 1.41 1.41 0 0 0 1.46 1.35z"></path>
        <path d="m451.8 312.42a1.35 1.35 0 1 0 -1.46-1.35 1.42 1.42 0 0 0 1.46 1.35z"></path>
        <path d="m429.89 332.67a1.35 1.35 0 1 0 -1.46-1.35 1.42 1.42 0 0 0 1.46 1.35z"></path>
        <path d="m429.89 319.17a1.35 1.35 0 1 0 -1.46-1.35 1.42 1.42 0 0 0 1.46 1.35z"></path>
        <path d="m459.11 305.67a1.35 1.35 0 1 0 -1.46-1.35 1.41 1.41 0 0 0 1.46 1.35z"></path>
        <path d="m444.5 305.67a1.35 1.35 0 1 0 -1.46-1.35 1.41 1.41 0 0 0 1.46 1.35z"></path>
        <path d="m429.89 305.67a1.35 1.35 0 1 0 -1.46-1.35 1.42 1.42 0 0 0 1.46 1.35z"></path>
      </g>
      <g clip-path="url(#i)">
        <path d="m459.11 359.67a1.35 1.35 0 1 0 -1.46-1.35 1.41 1.41 0 0 0 1.46 1.35z"></path>
        <path d="m444.5 359.67a1.35 1.35 0 1 0 -1.46-1.35 1.41 1.41 0 0 0 1.46 1.35z"></path>
        <path d="m459.11 346.17a1.35 1.35 0 1 0 -1.46-1.35 1.41 1.41 0 0 0 1.46 1.35z"></path>
        <path d="m444.5 346.17a1.35 1.35 0 1 0 -1.46-1.35 1.41 1.41 0 0 0 1.46 1.35z"></path>
        <path d="m437.19 352.92a1.35 1.35 0 1 0 -1.46-1.35 1.41 1.41 0 0 0 1.46 1.35z"></path>
        <path d="m451.8 352.92a1.35 1.35 0 1 0 -1.46-1.35 1.42 1.42 0 0 0 1.46 1.35z"></path>
        <path d="m437.19 339.42a1.35 1.35 0 1 0 -1.46-1.35 1.41 1.41 0 0 0 1.46 1.35z"></path>
        <path d="m451.8 339.42a1.35 1.35 0 1 0 -1.46-1.35 1.42 1.42 0 0 0 1.46 1.35z"></path>
        <path d="m429.89 359.67a1.35 1.35 0 1 0 -1.46-1.35 1.42 1.42 0 0 0 1.46 1.35z"></path>
        <path d="m429.89 346.17a1.35 1.35 0 1 0 -1.46-1.35 1.42 1.42 0 0 0 1.46 1.35z"></path>
        <path d="m459.11 332.67a1.35 1.35 0 1 0 -1.46-1.35 1.41 1.41 0 0 0 1.46 1.35z"></path>
        <path d="m444.5 332.67a1.35 1.35 0 1 0 -1.46-1.35 1.41 1.41 0 0 0 1.46 1.35z"></path>
        <path d="m429.89 332.67a1.35 1.35 0 1 0 -1.46-1.35 1.42 1.42 0 0 0 1.46 1.35z"></path>
      </g>
      <g clip-path="url(#j)">
        <path d="m459.11 386.67a1.35 1.35 0 1 0 -1.46-1.35 1.41 1.41 0 0 0 1.46 1.35z"></path>
        <path d="m444.5 386.67a1.35 1.35 0 1 0 -1.46-1.35 1.41 1.41 0 0 0 1.46 1.35z"></path>
        <path d="m459.11 373.17a1.35 1.35 0 1 0 -1.46-1.35 1.41 1.41 0 0 0 1.46 1.35z"></path>
        <path d="m444.5 373.17a1.35 1.35 0 1 0 -1.46-1.35 1.41 1.41 0 0 0 1.46 1.35z"></path>
        <path d="m437.19 379.92a1.35 1.35 0 1 0 -1.46-1.35 1.41 1.41 0 0 0 1.46 1.35z"></path>
        <path d="m451.8 379.92a1.35 1.35 0 1 0 -1.46-1.35 1.42 1.42 0 0 0 1.46 1.35z"></path>
        <path d="m437.19 366.42a1.35 1.35 0 1 0 -1.46-1.35 1.41 1.41 0 0 0 1.46 1.35z"></path>
        <path d="m451.8 366.42a1.35 1.35 0 1 0 -1.46-1.35 1.42 1.42 0 0 0 1.46 1.35z"></path>
        <path d="m429.89 386.67a1.35 1.35 0 1 0 -1.46-1.35 1.42 1.42 0 0 0 1.46 1.35z"></path>
        <path d="m429.89 373.17a1.35 1.35 0 1 0 -1.46-1.35 1.42 1.42 0 0 0 1.46 1.35z"></path>
        <path d="m459.11 359.67a1.35 1.35 0 1 0 -1.46-1.35 1.41 1.41 0 0 0 1.46 1.35z"></path>
        <path d="m444.5 359.67a1.35 1.35 0 1 0 -1.46-1.35 1.41 1.41 0 0 0 1.46 1.35z"></path>
        <path d="m429.89 359.67a1.35 1.35 0 1 0 -1.46-1.35 1.42 1.42 0 0 0 1.46 1.35z"></path>
      </g>
      <g clip-path="url(#k)">
        <path d="m459.11 413.67a1.35 1.35 0 1 0 -1.46-1.35 1.41 1.41 0 0 0 1.46 1.35z"></path>
        <path d="m444.5 413.67a1.35 1.35 0 1 0 -1.46-1.35 1.41 1.41 0 0 0 1.46 1.35z"></path>
        <path d="m459.11 400.17a1.35 1.35 0 1 0 -1.46-1.35 1.41 1.41 0 0 0 1.46 1.35z"></path>
        <path d="m444.5 400.17a1.35 1.35 0 1 0 -1.46-1.35 1.41 1.41 0 0 0 1.46 1.35z"></path>
        <path d="m437.19 406.92a1.35 1.35 0 1 0 -1.46-1.35 1.41 1.41 0 0 0 1.46 1.35z"></path>
        <path d="m451.8 406.92a1.35 1.35 0 1 0 -1.46-1.35 1.42 1.42 0 0 0 1.46 1.35z"></path>
        <path d="m437.19 393.42a1.35 1.35 0 1 0 -1.46-1.35 1.41 1.41 0 0 0 1.46 1.35z"></path>
        <path d="m451.8 393.42a1.35 1.35 0 1 0 -1.46-1.35 1.42 1.42 0 0 0 1.46 1.35z"></path>
        <path d="m429.89 413.67a1.35 1.35 0 1 0 -1.46-1.35 1.42 1.42 0 0 0 1.46 1.35z"></path>
        <path d="m429.89 400.17a1.35 1.35 0 1 0 -1.46-1.35 1.42 1.42 0 0 0 1.46 1.35z"></path>
        <path d="m459.11 386.67a1.35 1.35 0 1 0 -1.46-1.35 1.41 1.41 0 0 0 1.46 1.35z"></path>
        <path d="m444.5 386.67a1.35 1.35 0 1 0 -1.46-1.35 1.41 1.41 0 0 0 1.46 1.35z"></path>
        <path d="m429.89 386.67a1.35 1.35 0 1 0 -1.46-1.35 1.42 1.42 0 0 0 1.46 1.35z"></path>
      </g>
      <g clip-path="url(#l)">
        <path d="m429.89 305.67a1.35 1.35 0 1 0 -1.46-1.35 1.42 1.42 0 0 0 1.46 1.35z"></path>
        <path d="m415.28 305.67a1.35 1.35 0 1 0 -1.46-1.35 1.42 1.42 0 0 0 1.46 1.35z"></path>
        <path d="m429.89 292.17a1.35 1.35 0 1 0 -1.46-1.35 1.42 1.42 0 0 0 1.46 1.35z"></path>
        <path d="m415.28 292.17a1.35 1.35 0 1 0 -1.46-1.35 1.42 1.42 0 0 0 1.46 1.35z"></path>
        <path d="m408 298.92a1.35 1.35 0 1 0 -1.46-1.35 1.41 1.41 0 0 0 1.46 1.35z"></path>
        <path d="m422.58 298.92a1.35 1.35 0 1 0 -1.46-1.35 1.41 1.41 0 0 0 1.46 1.35z"></path>
        <path d="m408 285.42a1.36 1.36 0 1 0 -1.46-1.35 1.41 1.41 0 0 0 1.46 1.35z"></path>
        <path d="m422.58 285.42a1.36 1.36 0 1 0 -1.46-1.35 1.41 1.41 0 0 0 1.46 1.35z"></path>
        <path d="m400.66 305.67a1.35 1.35 0 1 0 -1.46-1.35 1.42 1.42 0 0 0 1.46 1.35z"></path>
        <path d="m400.66 292.17a1.35 1.35 0 1 0 -1.46-1.35 1.42 1.42 0 0 0 1.46 1.35z"></path>
        <path d="m429.89 278.66a1.35 1.35 0 1 0 -1.46-1.35 1.41 1.41 0 0 0 1.46 1.35z"></path>
        <path d="m415.28 278.66a1.35 1.35 0 1 0 -1.46-1.35 1.41 1.41 0 0 0 1.46 1.35z"></path>
        <path d="m400.66 278.66a1.35 1.35 0 1 0 -1.46-1.35 1.41 1.41 0 0 0 1.46 1.35z"></path>
      </g>
      <g clip-path="url(#m)">
        <path d="m429.89 332.67a1.35 1.35 0 1 0 -1.46-1.35 1.42 1.42 0 0 0 1.46 1.35z"></path>
        <path d="m415.28 332.67a1.35 1.35 0 1 0 -1.46-1.35 1.42 1.42 0 0 0 1.46 1.35z"></path>
        <path d="m429.89 319.17a1.35 1.35 0 1 0 -1.46-1.35 1.42 1.42 0 0 0 1.46 1.35z"></path>
        <path d="m415.28 319.17a1.35 1.35 0 1 0 -1.46-1.35 1.42 1.42 0 0 0 1.46 1.35z"></path>
        <path d="m408 325.92a1.35 1.35 0 1 0 -1.46-1.35 1.41 1.41 0 0 0 1.46 1.35z"></path>
        <path d="m422.58 325.92a1.35 1.35 0 1 0 -1.46-1.35 1.41 1.41 0 0 0 1.46 1.35z"></path>
        <path d="m408 312.42a1.35 1.35 0 1 0 -1.46-1.35 1.41 1.41 0 0 0 1.46 1.35z"></path>
        <path d="m422.58 312.42a1.35 1.35 0 1 0 -1.46-1.35 1.41 1.41 0 0 0 1.46 1.35z"></path>
        <path d="m400.66 332.67a1.35 1.35 0 1 0 -1.46-1.35 1.42 1.42 0 0 0 1.46 1.35z"></path>
        <path d="m400.66 319.17a1.35 1.35 0 1 0 -1.46-1.35 1.42 1.42 0 0 0 1.46 1.35z"></path>
        <path d="m429.89 305.67a1.35 1.35 0 1 0 -1.46-1.35 1.42 1.42 0 0 0 1.46 1.35z"></path>
        <path d="m415.28 305.67a1.35 1.35 0 1 0 -1.46-1.35 1.42 1.42 0 0 0 1.46 1.35z"></path>
        <path d="m400.66 305.67a1.35 1.35 0 1 0 -1.46-1.35 1.42 1.42 0 0 0 1.46 1.35z"></path>
      </g>
      <g clip-path="url(#n)">
        <path d="m429.89 359.67a1.35 1.35 0 1 0 -1.46-1.35 1.42 1.42 0 0 0 1.46 1.35z"></path>
        <path d="m415.28 359.67a1.35 1.35 0 1 0 -1.46-1.35 1.42 1.42 0 0 0 1.46 1.35z"></path>
        <path d="m429.89 346.17a1.35 1.35 0 1 0 -1.46-1.35 1.42 1.42 0 0 0 1.46 1.35z"></path>
        <path d="m415.28 346.17a1.35 1.35 0 1 0 -1.46-1.35 1.42 1.42 0 0 0 1.46 1.35z"></path>
        <path d="m408 352.92a1.35 1.35 0 1 0 -1.46-1.35 1.41 1.41 0 0 0 1.46 1.35z"></path>
        <path d="m422.58 352.92a1.35 1.35 0 1 0 -1.46-1.35 1.41 1.41 0 0 0 1.46 1.35z"></path>
        <path d="m408 339.42a1.35 1.35 0 1 0 -1.46-1.35 1.41 1.41 0 0 0 1.46 1.35z"></path>
        <path d="m422.58 339.42a1.35 1.35 0 1 0 -1.46-1.35 1.41 1.41 0 0 0 1.46 1.35z"></path>
        <path d="m400.66 359.67a1.35 1.35 0 1 0 -1.46-1.35 1.42 1.42 0 0 0 1.46 1.35z"></path>
        <path d="m400.66 346.17a1.35 1.35 0 1 0 -1.46-1.35 1.42 1.42 0 0 0 1.46 1.35z"></path>
        <path d="m429.89 332.67a1.35 1.35 0 1 0 -1.46-1.35 1.42 1.42 0 0 0 1.46 1.35z"></path>
        <path d="m415.28 332.67a1.35 1.35 0 1 0 -1.46-1.35 1.42 1.42 0 0 0 1.46 1.35z"></path>
        <path d="m400.66 332.67a1.35 1.35 0 1 0 -1.46-1.35 1.42 1.42 0 0 0 1.46 1.35z"></path>
      </g>
      <g clip-path="url(#o)">
        <path d="m429.89 386.67a1.35 1.35 0 1 0 -1.46-1.35 1.42 1.42 0 0 0 1.46 1.35z"></path>
        <path d="m415.28 386.67a1.35 1.35 0 1 0 -1.46-1.35 1.42 1.42 0 0 0 1.46 1.35z"></path>
        <path d="m429.89 373.17a1.35 1.35 0 1 0 -1.46-1.35 1.42 1.42 0 0 0 1.46 1.35z"></path>
        <path d="m415.28 373.17a1.35 1.35 0 1 0 -1.46-1.35 1.42 1.42 0 0 0 1.46 1.35z"></path>
        <path d="m408 379.92a1.35 1.35 0 1 0 -1.46-1.35 1.41 1.41 0 0 0 1.46 1.35z"></path>
        <path d="m422.58 379.92a1.35 1.35 0 1 0 -1.46-1.35 1.41 1.41 0 0 0 1.46 1.35z"></path>
        <path d="m408 366.42a1.35 1.35 0 1 0 -1.46-1.35 1.41 1.41 0 0 0 1.46 1.35z"></path>
        <path d="m422.58 366.42a1.35 1.35 0 1 0 -1.46-1.35 1.41 1.41 0 0 0 1.46 1.35z"></path>
        <path d="m400.66 386.67a1.35 1.35 0 1 0 -1.46-1.35 1.42 1.42 0 0 0 1.46 1.35z"></path>
        <path d="m400.66 373.17a1.35 1.35 0 1 0 -1.46-1.35 1.42 1.42 0 0 0 1.46 1.35z"></path>
        <path d="m429.89 359.67a1.35 1.35 0 1 0 -1.46-1.35 1.42 1.42 0 0 0 1.46 1.35z"></path>
        <path d="m415.28 359.67a1.35 1.35 0 1 0 -1.46-1.35 1.42 1.42 0 0 0 1.46 1.35z"></path>
        <path d="m400.66 359.67a1.35 1.35 0 1 0 -1.46-1.35 1.42 1.42 0 0 0 1.46 1.35z"></path>
      </g>
      <g clip-path="url(#p)">
        <path d="m429.89 413.67a1.35 1.35 0 1 0 -1.46-1.35 1.42 1.42 0 0 0 1.46 1.35z"></path>
        <path d="m415.28 413.67a1.35 1.35 0 1 0 -1.46-1.35 1.42 1.42 0 0 0 1.46 1.35z"></path>
        <path d="m429.89 400.17a1.35 1.35 0 1 0 -1.46-1.35 1.42 1.42 0 0 0 1.46 1.35z"></path>
        <path d="m415.28 400.17a1.35 1.35 0 1 0 -1.46-1.35 1.42 1.42 0 0 0 1.46 1.35z"></path>
        <path d="m408 406.92a1.35 1.35 0 1 0 -1.46-1.35 1.41 1.41 0 0 0 1.46 1.35z"></path>
        <path d="m422.58 406.92a1.35 1.35 0 1 0 -1.46-1.35 1.41 1.41 0 0 0 1.46 1.35z"></path>
        <path d="m408 393.42a1.35 1.35 0 1 0 -1.46-1.35 1.41 1.41 0 0 0 1.46 1.35z"></path>
        <path d="m422.58 393.42a1.35 1.35 0 1 0 -1.46-1.35 1.41 1.41 0 0 0 1.46 1.35z"></path>
        <path d="m400.66 413.67a1.35 1.35 0 1 0 -1.46-1.35 1.42 1.42 0 0 0 1.46 1.35z"></path>
        <path d="m400.66 400.17a1.35 1.35 0 1 0 -1.46-1.35 1.42 1.42 0 0 0 1.46 1.35z"></path>
        <path d="m429.89 386.67a1.35 1.35 0 1 0 -1.46-1.35 1.42 1.42 0 0 0 1.46 1.35z"></path>
        <path d="m415.28 386.67a1.35 1.35 0 1 0 -1.46-1.35 1.42 1.42 0 0 0 1.46 1.35z"></path>
        <path d="m400.66 386.67a1.35 1.35 0 1 0 -1.46-1.35 1.42 1.42 0 0 0 1.46 1.35z"></path>
      </g>
    </g>
    <g clip-path="url(#q)">
      <g clip-path="url(#r)">
        <path d="m488.33 440.67a1.35 1.35 0 1 0 -1.46-1.35 1.41 1.41 0 0 0 1.46 1.35z"></path>
        <path d="m473.72 440.67a1.35 1.35 0 1 0 -1.46-1.35 1.41 1.41 0 0 0 1.46 1.35z"></path>
        <path d="m488.33 427.17a1.35 1.35 0 1 0 -1.46-1.35 1.41 1.41 0 0 0 1.46 1.35z"></path>
        <path d="m473.72 427.17a1.35 1.35 0 1 0 -1.46-1.35 1.41 1.41 0 0 0 1.46 1.35z"></path>
        <path d="m466.42 433.92a1.35 1.35 0 1 0 -1.47-1.35 1.41 1.41 0 0 0 1.47 1.35z"></path>
        <path d="m481 433.92a1.35 1.35 0 1 0 -1.46-1.35 1.41 1.41 0 0 0 1.46 1.35z"></path>
        <path d="m466.42 420.42a1.35 1.35 0 1 0 -1.47-1.35 1.41 1.41 0 0 0 1.47 1.35z"></path>
        <path d="m481 420.42a1.35 1.35 0 1 0 -1.46-1.35 1.41 1.41 0 0 0 1.46 1.35z"></path>
        <path d="m459.11 440.67a1.35 1.35 0 1 0 -1.46-1.35 1.41 1.41 0 0 0 1.46 1.35z"></path>
        <path d="m459.11 427.17a1.35 1.35 0 1 0 -1.46-1.35 1.41 1.41 0 0 0 1.46 1.35z"></path>
        <path d="m488.33 413.67a1.35 1.35 0 1 0 -1.46-1.35 1.41 1.41 0 0 0 1.46 1.35z"></path>
        <path d="m473.72 413.67a1.35 1.35 0 1 0 -1.46-1.35 1.41 1.41 0 0 0 1.46 1.35z"></path>
        <path d="m459.11 413.67a1.35 1.35 0 1 0 -1.46-1.35 1.41 1.41 0 0 0 1.46 1.35z"></path>
      </g>
      <g clip-path="url(#s)">
        <path d="m488.33 467.67a1.35 1.35 0 1 0 -1.46-1.35 1.4 1.4 0 0 0 1.46 1.35z"></path>
        <path d="m473.72 467.67a1.35 1.35 0 1 0 -1.46-1.35 1.4 1.4 0 0 0 1.46 1.35z"></path>
        <path d="m488.33 454.17a1.35 1.35 0 1 0 -1.46-1.35 1.4 1.4 0 0 0 1.46 1.35z"></path>
        <path d="m473.72 454.17a1.35 1.35 0 1 0 -1.46-1.35 1.4 1.4 0 0 0 1.46 1.35z"></path>
        <path d="m466.42 460.92a1.35 1.35 0 1 0 -1.47-1.35 1.41 1.41 0 0 0 1.47 1.35z"></path>
        <path d="m481 460.92a1.35 1.35 0 1 0 -1.46-1.35 1.41 1.41 0 0 0 1.46 1.35z"></path>
        <path d="m466.42 447.42a1.35 1.35 0 1 0 -1.47-1.35 1.41 1.41 0 0 0 1.47 1.35z"></path>
        <path d="m481 447.42a1.35 1.35 0 1 0 -1.46-1.35 1.41 1.41 0 0 0 1.46 1.35z"></path>
        <path d="m459.11 467.67a1.35 1.35 0 1 0 -1.46-1.35 1.4 1.4 0 0 0 1.46 1.35z"></path>
        <path d="m459.11 454.17a1.35 1.35 0 1 0 -1.46-1.35 1.4 1.4 0 0 0 1.46 1.35z"></path>
        <path d="m488.33 440.67a1.35 1.35 0 1 0 -1.46-1.35 1.41 1.41 0 0 0 1.46 1.35z"></path>
        <path d="m473.72 440.67a1.35 1.35 0 1 0 -1.46-1.35 1.41 1.41 0 0 0 1.46 1.35z"></path>
        <path d="m459.11 440.67a1.35 1.35 0 1 0 -1.46-1.35 1.41 1.41 0 0 0 1.46 1.35z"></path>
      </g>
      <g clip-path="url(#t)">
        <path d="m459.11 440.67a1.35 1.35 0 1 0 -1.46-1.35 1.41 1.41 0 0 0 1.46 1.35z"></path>
        <path d="m444.5 440.67a1.35 1.35 0 1 0 -1.46-1.35 1.41 1.41 0 0 0 1.46 1.35z"></path>
        <path d="m459.11 427.17a1.35 1.35 0 1 0 -1.46-1.35 1.41 1.41 0 0 0 1.46 1.35z"></path>
        <path d="m444.5 427.17a1.35 1.35 0 1 0 -1.46-1.35 1.41 1.41 0 0 0 1.46 1.35z"></path>
        <path d="m437.19 433.92a1.35 1.35 0 1 0 -1.46-1.35 1.4 1.4 0 0 0 1.46 1.35z"></path>
        <path d="m451.8 433.92a1.35 1.35 0 1 0 -1.46-1.35 1.41 1.41 0 0 0 1.46 1.35z"></path>
        <path d="m437.19 420.42a1.35 1.35 0 1 0 -1.46-1.35 1.4 1.4 0 0 0 1.46 1.35z"></path>
        <path d="m451.8 420.42a1.35 1.35 0 1 0 -1.46-1.35 1.41 1.41 0 0 0 1.46 1.35z"></path>
        <path d="m429.89 440.67a1.35 1.35 0 1 0 -1.46-1.35 1.42 1.42 0 0 0 1.46 1.35z"></path>
        <path d="m429.89 427.17a1.35 1.35 0 1 0 -1.46-1.35 1.42 1.42 0 0 0 1.46 1.35z"></path>
        <path d="m459.11 413.67a1.35 1.35 0 1 0 -1.46-1.35 1.41 1.41 0 0 0 1.46 1.35z"></path>
        <path d="m444.5 413.67a1.35 1.35 0 1 0 -1.46-1.35 1.41 1.41 0 0 0 1.46 1.35z"></path>
        <path d="m429.89 413.67a1.35 1.35 0 1 0 -1.46-1.35 1.42 1.42 0 0 0 1.46 1.35z"></path>
      </g>
      <g clip-path="url(#u)">
        <path d="m459.11 467.67a1.35 1.35 0 1 0 -1.46-1.35 1.4 1.4 0 0 0 1.46 1.35z"></path>
        <path d="m444.5 467.67a1.35 1.35 0 1 0 -1.46-1.35 1.4 1.4 0 0 0 1.46 1.35z"></path>
        <path d="m459.11 454.17a1.35 1.35 0 1 0 -1.46-1.35 1.4 1.4 0 0 0 1.46 1.35z"></path>
        <path d="m444.5 454.17a1.35 1.35 0 1 0 -1.46-1.35 1.4 1.4 0 0 0 1.46 1.35z"></path>
        <path d="m437.19 460.92a1.35 1.35 0 1 0 -1.46-1.35 1.4 1.4 0 0 0 1.46 1.35z"></path>
        <path d="m451.8 460.92a1.35 1.35 0 1 0 -1.46-1.35 1.41 1.41 0 0 0 1.46 1.35z"></path>
        <path d="m437.19 447.42a1.35 1.35 0 1 0 -1.46-1.35 1.4 1.4 0 0 0 1.46 1.35z"></path>
        <path d="m451.8 447.42a1.35 1.35 0 1 0 -1.46-1.35 1.41 1.41 0 0 0 1.46 1.35z"></path>
        <path d="m429.89 467.67a1.35 1.35 0 1 0 -1.46-1.35 1.41 1.41 0 0 0 1.46 1.35z"></path>
        <path d="m429.89 454.17a1.35 1.35 0 1 0 -1.46-1.35 1.41 1.41 0 0 0 1.46 1.35z"></path>
        <path d="m459.11 440.67a1.35 1.35 0 1 0 -1.46-1.35 1.41 1.41 0 0 0 1.46 1.35z"></path>
        <path d="m444.5 440.67a1.35 1.35 0 1 0 -1.46-1.35 1.41 1.41 0 0 0 1.46 1.35z"></path>
        <path d="m429.89 440.67a1.35 1.35 0 1 0 -1.46-1.35 1.42 1.42 0 0 0 1.46 1.35z"></path>
      </g>
      <g clip-path="url(#v)">
        <path d="m429.89 440.67a1.35 1.35 0 1 0 -1.46-1.35 1.42 1.42 0 0 0 1.46 1.35z"></path>
        <path d="m415.28 440.67a1.35 1.35 0 1 0 -1.46-1.35 1.42 1.42 0 0 0 1.46 1.35z"></path>
        <path d="m429.89 427.17a1.35 1.35 0 1 0 -1.46-1.35 1.42 1.42 0 0 0 1.46 1.35z"></path>
        <path d="m415.28 427.17a1.35 1.35 0 1 0 -1.46-1.35 1.42 1.42 0 0 0 1.46 1.35z"></path>
        <path d="m408 433.92a1.35 1.35 0 1 0 -1.46-1.35 1.4 1.4 0 0 0 1.46 1.35z"></path>
        <path d="m422.58 433.92a1.35 1.35 0 1 0 -1.46-1.35 1.4 1.4 0 0 0 1.46 1.35z"></path>
        <path d="m408 420.42a1.35 1.35 0 1 0 -1.46-1.35 1.4 1.4 0 0 0 1.46 1.35z"></path>
        <path d="m422.58 420.42a1.35 1.35 0 1 0 -1.46-1.35 1.4 1.4 0 0 0 1.46 1.35z"></path>
        <path d="m400.66 440.67a1.35 1.35 0 1 0 -1.46-1.35 1.42 1.42 0 0 0 1.46 1.35z"></path>
        <path d="m400.66 427.17a1.35 1.35 0 1 0 -1.46-1.35 1.42 1.42 0 0 0 1.46 1.35z"></path>
        <path d="m429.89 413.67a1.35 1.35 0 1 0 -1.46-1.35 1.42 1.42 0 0 0 1.46 1.35z"></path>
        <path d="m415.28 413.67a1.35 1.35 0 1 0 -1.46-1.35 1.42 1.42 0 0 0 1.46 1.35z"></path>
        <path d="m400.66 413.67a1.35 1.35 0 1 0 -1.46-1.35 1.42 1.42 0 0 0 1.46 1.35z"></path>
      </g>
      <g clip-path="url(#w)">
        <path d="m429.89 467.67a1.35 1.35 0 1 0 -1.46-1.35 1.41 1.41 0 0 0 1.46 1.35z"></path>
        <path d="m415.28 467.67a1.35 1.35 0 1 0 -1.46-1.35 1.41 1.41 0 0 0 1.46 1.35z"></path>
        <path d="m429.89 454.17a1.35 1.35 0 1 0 -1.46-1.35 1.41 1.41 0 0 0 1.46 1.35z"></path>
        <path d="m415.28 454.17a1.35 1.35 0 1 0 -1.46-1.35 1.41 1.41 0 0 0 1.46 1.35z"></path>
        <path d="m408 460.92a1.35 1.35 0 1 0 -1.46-1.35 1.4 1.4 0 0 0 1.46 1.35z"></path>
        <path d="m422.58 460.92a1.35 1.35 0 1 0 -1.46-1.35 1.4 1.4 0 0 0 1.46 1.35z"></path>
        <path d="m408 447.42a1.35 1.35 0 1 0 -1.46-1.35 1.4 1.4 0 0 0 1.46 1.35z"></path>
        <path d="m422.58 447.42a1.35 1.35 0 1 0 -1.46-1.35 1.4 1.4 0 0 0 1.46 1.35z"></path>
        <path d="m400.66 467.67a1.35 1.35 0 1 0 -1.46-1.35 1.41 1.41 0 0 0 1.46 1.35z"></path>
        <path d="m400.66 454.17a1.35 1.35 0 1 0 -1.46-1.35 1.41 1.41 0 0 0 1.46 1.35z"></path>
        <path d="m429.89 440.67a1.35 1.35 0 1 0 -1.46-1.35 1.42 1.42 0 0 0 1.46 1.35z"></path>
        <path d="m415.28 440.67a1.35 1.35 0 1 0 -1.46-1.35 1.42 1.42 0 0 0 1.46 1.35z"></path>
        <path d="m400.66 440.67a1.35 1.35 0 1 0 -1.46-1.35 1.42 1.42 0 0 0 1.46 1.35z"></path>
      </g>
    </g>
    <path d="m189.78 392.53c-.12 0-.25 0-.37 0a39.37 39.37 0 0 0 -7.9-.53h-1.34a16.54 16.54 0 0 1 1.82-1.45 1.42 1.42 0 0 0 -.71-2.62 15.73 15.73 0 0 0 -7 .81v-15a1.41 1.41 0 0 0 -1.41-1.41h-.08a16.46 16.46 0 0 1 4.1-3.85c3.41-1.92 8.1-1.59 11.91-1.73.84 0 1.49-1.18.75-1.8a20.33 20.33 0 0 0 -9.79-4.64 74.24 74.24 0 0 1 8.81-4.34c1.05-.45.38-1.89-.54-2-4.7-.38-12-.83-15.51 3-1.69-4.19-6.37-5.8-10.86-7.17 6.81-4.86 14.95-4.93 23.17-4.74a1.06 1.06 0 0 0 .54-2 37.65 37.65 0 0 0 -16.75-5.64c4.72-3.07 9.54-6 14.54-8.58a1.07 1.07 0 0 0 -.25-1.93c-7.16-1.8-20.05-3.2-23.85 4.32-1.05-3.23-2.08-5.84-5.8-7.63-6.11-2.94-14.14-3.26-20.76-3a1.06 1.06 0 0 0 0 2.11c8.51.12 13.59 5.9 16.09 13.23-9.76-2.67-19.69-.87-25.85 7.89-.59.83.38 1.68 1.19 1.55 6.55-1.09 15.27-.46 21.32 2.18 3.42 1.49 5.23 4.06 7.65 6.32h-.55a1.54 1.54 0 0 0 -1.54 1.55v6.71a16.79 16.79 0 0 0 -5.84 3.66 1.06 1.06 0 0 0 .74 1.8c1.5 0 3.17-.08 4.88 0v4.16c-4.56-3.11-9.25-5.31-15-3a1.06 1.06 0 0 0 0 2 12.26 12.26 0 0 1 6.92 6.08c-6.83-3.14-15.49-3.34-22 .66a1.07 1.07 0 0 0 .53 2c5.85.38 11.09 1.45 16.09 4.21-5.63 1.47-10.06 5-14.52 8.91-.82.72.05 2 1 1.76 8.48-2.13 18.61-2.67 27 .43v10.45a1.55 1.55 0 0 0 1.54 1.56h7.85a1.55 1.55 0 0 0 1.55-1.56v-35.91a13.24 13.24 0 0 1 4.64 3h-1.19a1.41 1.41 0 0 0 -1.4 1.41v31.48a1.41 1.41 0 0 0 1.4 1.41h7.87a1.41 1.41 0 0 0 1.41-1.41v-1.37a35 35 0 0 1 14.07 1 1.42 1.42 0 0 0 1.37-2.35 21.82 21.82 0 0 0 -7.05-5.78 15.76 15.76 0 0 1 6.78-1.46c1.55.02 1.93-2.45.33-2.75zm-64.78-14.78a23.1 23.1 0 0 1 18.89 2.25c1.55 1.32 3 2.77 4.42 4.19l-1.92-.35c-2.14-.36-4.29-.65-6.44-.9a34.86 34.86 0 0 0 -14.95-5.19zm25.57 14.79c-7.41-2.52-15.65-2.53-23.4-1.11 3.74-3.06 7.68-5.56 12.79-6.19a1.31 1.31 0 0 0 .4-.17c3.26.3 7.44.55 10.21 2.16zm0-9.13c-1.56-1.56-3.14-3.1-4.81-4.55-1.57-3.76-3.59-6.81-6.84-8.79 4.36-.56 8.06 1.69 11.65 4.26zm33.13-27.54a49.49 49.49 0 0 0 -7.37 4.13 5.17 5.17 0 0 0 -3.12 1.72 16.33 16.33 0 0 0 -.08-1.86c1.73-3.53 6.42-4.1 10.55-3.99zm-12.77 3.33v.07c.46 2 .05 4.29 0 6.3 0 .06.05.08.06.14-.53 1.43-.94 2.92-1.32 4.25-.33-3.35-1.31-6.55-4.1-8.62a37.62 37.62 0 0 0 -4.93-9.63c4.02 1.18 9.56 2.79 10.27 7.49zm-10.37-3.75a34.83 34.83 0 0 1 2.56 5.41c-.85-.05-1.71-.09-2.56-.1zm-1.82-2.79c.36.51.74 1 1.07 1.52a1.57 1.57 0 0 0 -.8-.25h-1a9.13 9.13 0 0 1 .71-1.27zm20.88-24.2c-4.95 2.7-9.78 5.58-14.47 8.73a9.52 9.52 0 0 0 -4.86 2.4c0-.89 0-1.79 0-2.69a11.67 11.67 0 0 0 -.12-2.14c1.27-7.67 12.75-7.42 19.43-6.3zm-14.51 10.79c.1 0 .16.09.27.09a35.14 35.14 0 0 1 15.19 3.66c-8 0-15.57 1.05-22 6.51a.91.91 0 0 0 -.3.51c-.12 0-.26 0-.33.14a13.14 13.14 0 0 0 -.76 1.13c.52-5.13 3-10.99 7.91-12.04zm-7.66 17.75v3.79a26.48 26.48 0 0 0 -3.59.46v-4.25zm-16.26-34a48 48 0 0 1 5.48.88c5.9 1.33 9.33 5.59 11.34 11a13.93 13.93 0 0 1 .07 3.17c-.09 1.33.11 2.64.08 4a17.27 17.27 0 0 0 -1.44 2.69c-.87-3.47-2.65-6.95-5.71-8-1.72-5.89-5.01-10.9-9.82-13.74zm8.74 24.68a20.77 20.77 0 0 0 -7.22-3.21 48.89 48.89 0 0 0 -16.64-1.4c6.12-6.82 15.18-7.46 23.81-4.57 3.88.89 5.3 7.42 5.45 10.77v.08a21.62 21.62 0 0 0 -.33 3.65c-1.77-1.6-3.08-3.82-5.07-5.28zm8.49 56h-4.78v-35.95a31.61 31.61 0 0 1 4.78.67zm-9.58-38.2c4.54-2.87 10.06-2.88 15.46-2.42 2.44 1.82 3.11 4.77 3.31 7.73-4.61-4.65-12.19-5.34-18.77-5.31zm22.59 38.35h-5.06v-28.67h5.06zm5.25-41.77a17.8 17.8 0 0 1 8.94 2.68 26.07 26.07 0 0 0 -8.16 1.18 15.31 15.31 0 0 0 -5.82 4.56c.89-3.2 2.14-8.02 5.04-8.42zm7.61 39.14a38.83 38.83 0 0 0 -10-.12v-9.31h.08a7.81 7.81 0 0 1 3-1 18.58 18.58 0 0 0 -2.33 2.91c-.73 1.12.78 2.77 1.92 1.92a7.57 7.57 0 0 1 4-1.09 19.81 19.81 0 0 0 -1.94 1.09 1.42 1.42 0 0 0 0 2.43 29.77 29.77 0 0 1 5.27 3.17z"></path>
  </g>
</svg>
