<?xml version="1.0" encoding="UTF-8"?>
<svg xmlns="http://www.w3.org/2000/svg" xmlns:xlink="http://www.w3.org/1999/xlink" viewBox="0 0 600 600">
  <clipPath id="a">
    <path d="m300.87 94.94c-105.5 0-139.93 20.81-139.93 20.81v54.73h20.77v-47.25h237.87v47.25h20.77v-54.73s-34.43-20.81-139.48-20.81z"></path>
  </clipPath>
  <clipPath id="b">
    <path d="m422.58 85.38h22.89v22.9h-22.89z"></path>
  </clipPath>
  <clipPath id="c">
    <path d="m422.58 108.28h22.89v22.9h-22.89z"></path>
  </clipPath>
  <clipPath id="d">
    <path d="m422.58 131.17h22.89v22.9h-22.89z"></path>
  </clipPath>
  <clipPath id="e">
    <path d="m422.58 154.07h22.89v22.9h-22.89z"></path>
  </clipPath>
  <clipPath id="f">
    <path d="m399.69 85.38h22.89v22.9h-22.89z"></path>
  </clipPath>
  <clipPath id="g">
    <path d="m399.69 108.28h22.89v22.9h-22.89z"></path>
  </clipPath>
  <clipPath id="h">
    <path d="m399.69 131.17h22.89v22.9h-22.89z"></path>
  </clipPath>
  <clipPath id="i">
    <path d="m399.69 154.07h22.89v22.9h-22.89z"></path>
  </clipPath>
  <clipPath id="j">
    <path d="m376.79 85.38h22.89v22.9h-22.89z"></path>
  </clipPath>
  <clipPath id="k">
    <path d="m376.79 108.28h22.89v22.9h-22.89z"></path>
  </clipPath>
  <clipPath id="l">
    <path d="m376.79 131.17h22.89v22.9h-22.89z"></path>
  </clipPath>
  <clipPath id="m">
    <path d="m376.79 154.07h22.89v22.9h-22.89z"></path>
  </clipPath>
  <clipPath id="n">
    <path d="m353.9 85.38h22.89v22.9h-22.89z"></path>
  </clipPath>
  <clipPath id="o">
    <path d="m353.9 108.28h22.89v22.9h-22.89z"></path>
  </clipPath>
  <clipPath id="p">
    <path d="m353.9 131.17h22.89v22.9h-22.89z"></path>
  </clipPath>
  <clipPath id="q">
    <path d="m353.9 154.07h22.89v22.9h-22.89z"></path>
  </clipPath>
  <clipPath id="r">
    <path d="m331 85.38h22.89v22.9h-22.89z"></path>
  </clipPath>
  <clipPath id="s">
    <path d="m331 108.28h22.89v22.9h-22.89z"></path>
  </clipPath>
  <clipPath id="t">
    <path d="m331 131.17h22.89v22.9h-22.89z"></path>
  </clipPath>
  <clipPath id="u">
    <path d="m331 154.07h22.89v22.9h-22.89z"></path>
  </clipPath>
  <clipPath id="v">
    <path d="m308.11 85.38h22.89v22.9h-22.89z"></path>
  </clipPath>
  <clipPath id="w">
    <path d="m308.11 108.28h22.89v22.9h-22.89z"></path>
  </clipPath>
  <clipPath id="x">
    <path d="m308.11 131.17h22.89v22.9h-22.89z"></path>
  </clipPath>
  <clipPath id="y">
    <path d="m308.11 154.07h22.89v22.9h-22.89z"></path>
  </clipPath>
  <clipPath id="z">
    <path d="m285.22 85.38h22.89v22.9h-22.89z"></path>
  </clipPath>
  <clipPath id="A">
    <path d="m285.22 108.28h22.89v22.9h-22.89z"></path>
  </clipPath>
  <clipPath id="B">
    <path d="m285.22 131.17h22.89v22.9h-22.89z"></path>
  </clipPath>
  <clipPath id="C">
    <path d="m285.22 154.07h22.89v22.9h-22.89z"></path>
  </clipPath>
  <clipPath id="D">
    <path d="m262.32 85.38h22.89v22.9h-22.89z"></path>
  </clipPath>
  <clipPath id="E">
    <path d="m262.32 108.28h22.89v22.9h-22.89z"></path>
  </clipPath>
  <clipPath id="F">
    <path d="m262.32 131.17h22.89v22.9h-22.89z"></path>
  </clipPath>
  <clipPath id="G">
    <path d="m262.32 154.07h22.89v22.9h-22.89z"></path>
  </clipPath>
  <clipPath id="H">
    <path d="m239.43 85.38h22.89v22.9h-22.89z"></path>
  </clipPath>
  <clipPath id="I">
    <path d="m239.43 108.28h22.89v22.9h-22.89z"></path>
  </clipPath>
  <clipPath id="J">
    <path d="m239.43 131.17h22.89v22.9h-22.89z"></path>
  </clipPath>
  <clipPath id="K">
    <path d="m239.43 154.07h22.89v22.9h-22.89z"></path>
  </clipPath>
  <clipPath id="L">
    <path d="m216.53 85.38h22.89v22.9h-22.89z"></path>
  </clipPath>
  <clipPath id="M">
    <path d="m216.53 108.28h22.89v22.9h-22.89z"></path>
  </clipPath>
  <clipPath id="N">
    <path d="m216.53 131.17h22.89v22.9h-22.89z"></path>
  </clipPath>
  <clipPath id="O">
    <path d="m216.53 154.07h22.89v22.9h-22.89z"></path>
  </clipPath>
  <clipPath id="P">
    <path d="m193.64 85.38h22.89v22.9h-22.89z"></path>
  </clipPath>
  <clipPath id="Q">
    <path d="m193.64 108.28h22.89v22.9h-22.89z"></path>
  </clipPath>
  <clipPath id="R">
    <path d="m193.64 131.17h22.89v22.9h-22.89z"></path>
  </clipPath>
  <clipPath id="S">
    <path d="m193.64 154.07h22.89v22.9h-22.89z"></path>
  </clipPath>
  <clipPath id="T">
    <path d="m170.74 85.38h22.89v22.9h-22.89z"></path>
  </clipPath>
  <clipPath id="U">
    <path d="m170.74 108.28h22.89v22.9h-22.89z"></path>
  </clipPath>
  <clipPath id="V">
    <path d="m170.74 131.17h22.89v22.9h-22.89z"></path>
  </clipPath>
  <clipPath id="W">
    <path d="m170.74 154.07h22.89v22.9h-22.89z"></path>
  </clipPath>
  <clipPath id="X">
    <path d="m147.85 85.38h22.89v22.9h-22.89z"></path>
  </clipPath>
  <clipPath id="Y">
    <path d="m147.85 108.28h22.89v22.9h-22.89z"></path>
  </clipPath>
  <clipPath id="Z">
    <path d="m147.85 131.17h22.89v22.9h-22.89z"></path>
  </clipPath>
  <clipPath id="aa">
    <path d="m147.85 154.07h22.89v22.9h-22.89z"></path>
  </clipPath>
  <path d="m142.94 279.32h308.98v212.65h-308.98z" fill="#fff"></path>
  <path d="m426.03 427.47h-43.38l8.24 41.35h26.9z" fill="#ffde00"></path>
  <path d="m293.92 182.81h-156.51a245.12 245.12 0 0 1 -33.6 73.25l-4.28 6.3h400.94l-4.28-6.3a245.12 245.12 0 0 1 -33.6-73.25z" fill="#ffde00"></path>
  <path d="m151.07 468.82h98.08v7.21h-98.08z" fill="#ffde00"></path>
  <path d="m346.2 468.82h97.58v7.21h-97.58z" fill="#ffde00"></path>
  <path d="m181.57 123.23h237.81v47.25h-237.81z" fill="#00ab81"></path>
  <path d="m417.31 427.4c3.93 0 7.15-3.61 7.94-7.46s-.3-7.84-1.72-11.5a21.36 21.36 0 0 1 -1.89-6.6c-.11-2.36.69-4.64 1-7a16.77 16.77 0 0 0 -.84-7.85c-1.22-3.39-3.51-6.36-4.32-9.86-.73-3.17-.18-6.48-.42-9.73a5.2 5.2 0 0 0 -.79-2.71 4.37 4.37 0 0 0 -2-1.42 9.65 9.65 0 0 0 -8.11.81 14.21 14.21 0 0 0 -5.54 6.19c-1.43 2.94-2.13 6.32-4.3 8.77-2 2.25-5.11 3.53-6.47 6.22a10.33 10.33 0 0 0 -.84 4.93c.06 4.77 1 9.79-.94 14.15-1.25 2.84-4.13 4.84-5 7.8l-.12.41a11.8 11.8 0 0 0 11.46 14.9z" fill="#00ab81"></path>
  <path d="m443.78 281.88h16.28v194.15h-16.28z" fill="#00ab81"></path>
  <path d="m134.8 281.88h16.28v194.15h-16.28z" fill="#00ab81"></path>
  <path d="m134.85 476.03h325.16v14.53h-325.16z" fill="#00ab81"></path>
  <path d="m300.87 94.94c-105.5 0-139.93 20.81-139.93 20.81v54.73h20.77v-47.25h237.87v47.25h20.77v-54.73s-34.43-20.81-139.48-20.81z" fill="#00ab81"></path>
  <path d="m211.61 427.52a14.59 14.59 0 0 0 1.46-2c.49-.78 1-1.54 1.59-2.29a26.7 26.7 0 0 0 2.51-3.89c2.64-5.29 1.74-11.45 1-16.4a1.31 1.31 0 0 0 -1.39-1.17c.06-.47.12-.95.17-1.41a84.3 84.3 0 0 0 .2-14.21l-.19-2.43c-.49-5.85-1-11.9 2-16.47a1.41 1.41 0 0 0 -2.3-1.63 35.28 35.28 0 0 0 -4.72 7.49c-1.7 4.05-1.83 8.43-2 12.66 0 1-.06 1.92-.11 2.88-.93-3.65-1.57-7.6-1.35-9.78a36.76 36.76 0 0 1 .8-4.33c.22-1 .44-2 .61-3 1.06-6.11.21-12.28-.6-18.26a76.53 76.53 0 0 1 -1-13.57 1.4 1.4 0 0 0 -1.18-1.45 1.42 1.42 0 0 0 -1.58 1c-1.53 5.3-1.53 10.74-1.53 16.09a70.91 70.91 0 0 1 -.69 12.11 75.7 75.7 0 0 1 -1.87 7.48c-.64 2.21-1.27 4.45-1.73 6.74-.26-.87-.55-1.72-.74-2.61a29.22 29.22 0 0 1 .94-15.7 1.41 1.41 0 0 0 -2.39-1.39c-6 6.79-6.56 16.27-6 23 .11 1.28.25 2.55.39 3.82a40.08 40.08 0 0 1 -7.22-26.92 1.41 1.41 0 0 0 -1.2-1.53 1.39 1.39 0 0 0 -1.58 1.13c-2.63 13.62-2.27 24.7 1.08 33.89a84.1 84.1 0 0 0 3.87 8.5c.84 1.68 1.68 3.35 2.44 5.06l.39.86c.17.39.35.77.52 1.16a22.11 22.11 0 0 0 -4.63-2l-.85-.3a44.19 44.19 0 0 1 -12.28-6.65 1.4 1.4 0 0 0 -1.62-.07 1.43 1.43 0 0 0 -.61 1.51c.89 3.72 3.23 6.68 5.5 9.53a48.66 48.66 0 0 1 3.26 4.45 21.37 21.37 0 0 1 3.11 11.58h28.77z" fill="#00ab81"></path>
  <path d="m217.63 429.92h-40.54l7.7 38.65h25.14z" fill="#fb715d"></path>
  <path d="m130.82 170.48h339.66v12.32h-339.66z" fill="#fb715d"></path>
  <path d="m99.53 262.36h400.95v19.52h-400.95z" fill="#fb715d"></path>
  <path d="m249.16 281.88v194.12h97v-194.12zm79.26 177.64h-61.48v-159.75h61.48z" fill="#fb715d"></path>
  <g fill="#1c19a8">
    <path d="m419.39 171.88h-237.82a1.4 1.4 0 0 1 -1.39-1.4v-47.25a1.39 1.39 0 0 1 1.39-1.39h237.82a1.39 1.39 0 0 1 1.39 1.39v47.25a1.4 1.4 0 0 1 -1.39 1.4zm-236.39-2.79h235v-44.47h-235z"></path>
    <path d="m394.31 428.88a13.18 13.18 0 0 1 -10.57-5.25 13 13 0 0 1 -2.2-11.44l.12-.43a14.06 14.06 0 0 1 2.91-4.76 15.14 15.14 0 0 0 2.18-3.2c1.35-3.06 1.16-6.52 1-10.19-.06-1.14-.13-2.26-.14-3.38a11.71 11.71 0 0 1 1-5.59 13.09 13.09 0 0 1 4.12-4.31 17.91 17.91 0 0 0 2.54-2.21 16.59 16.59 0 0 0 2.73-5.32c.41-1.06.83-2.12 1.32-3.13a15.49 15.49 0 0 1 6.1-6.79 11.08 11.08 0 0 1 9.31-.91 5.8 5.8 0 0 1 2.67 1.9 6.59 6.59 0 0 1 1 3.45c.1 1.28.07 2.56.05 3.85a17 17 0 0 0 2.61 11 34 34 0 0 1 2 4.32 18.16 18.16 0 0 1 .91 8.52c-.11.86-.29 1.71-.46 2.56a16.67 16.67 0 0 0 -.53 4.17 17.22 17.22 0 0 0 1.5 5.38l.3.77c1.31 3.39 2.71 7.86 1.79 12.29-.86 4.14-4.42 8.56-9.32 8.59l-23 .07zm16.86-64.74a8.83 8.83 0 0 0 -4.34 1.18 12.83 12.83 0 0 0 -5 5.58c-.46 1-.84 1.93-1.22 2.92a19.63 19.63 0 0 1 -3.3 6.17 20.2 20.2 0 0 1 -2.94 2.57 10.75 10.75 0 0 0 -3.33 3.36 9.38 9.38 0 0 0 -.69 4.27c0 1.08.08 2.17.14 3.26.21 3.84.43 7.81-1.2 11.48a17.06 17.06 0 0 1 -2.57 3.84 12 12 0 0 0 -2.39 3.8l-.11.37a10.16 10.16 0 0 0 1.73 9 10.39 10.39 0 0 0 8.33 4.13l23.02-.07c3.3 0 5.93-3.24 6.58-6.34.76-3.71-.49-7.67-1.66-10.7l-.3-.76a19.52 19.52 0 0 1 -1.69-6.29 19.85 19.85 0 0 1 .58-4.86c.17-.78.33-1.57.43-2.36a15.46 15.46 0 0 0 -.76-7.2 32.89 32.89 0 0 0 -1.86-4 19.72 19.72 0 0 1 -2.92-12.39c0-1.2.05-2.4 0-3.6a4 4 0 0 0 -.53-2 3 3 0 0 0 -1.39-.93 7.18 7.18 0 0 0 -2.61-.43z"></path>
    <path d="m404.68 428.84a1.41 1.41 0 0 1 -1.4-1.24c-.14-1.19-3.42-29.56 2.55-47.24a1.41 1.41 0 0 1 2.67.9c-5.77 17.08-2.46 45.72-2.43 46a1.41 1.41 0 0 1 -1.23 1.57z"></path>
    <path d="m417.79 470.23h-26.89a1.43 1.43 0 0 1 -1.39-1.13l-8.24-41.36a1.39 1.39 0 0 1 .29-1.16 1.41 1.41 0 0 1 1.09-.52h43.35a1.41 1.41 0 0 1 1.09.52 1.39 1.39 0 0 1 .29 1.16l-8.24 41.36a1.41 1.41 0 0 1 -1.35 1.13zm-25.74-2.81h24.58l7.69-38.54h-40z"></path>
    <path d="m199.86 323.86h-48.79a1.4 1.4 0 0 1 -1.4-1.4v-40.58a1.4 1.4 0 0 1 1.4-1.4h48.79a1.41 1.41 0 0 1 1.41 1.4v40.58a1.41 1.41 0 0 1 -1.41 1.4zm-47.38-2.81h46v-37.76h-46z"></path>
    <path d="m248.65 323.86h-48.79a1.4 1.4 0 0 1 -1.4-1.4v-40.58a1.4 1.4 0 0 1 1.4-1.4h48.79a1.41 1.41 0 0 1 1.41 1.4v40.58a1.41 1.41 0 0 1 -1.41 1.4zm-47.38-2.81h46v-37.76h-46z"></path>
    <path d="m199.86 372.65h-48.79a1.41 1.41 0 0 1 -1.4-1.41v-48.78a1.41 1.41 0 0 1 1.4-1.41h48.79a1.41 1.41 0 0 1 1.41 1.41v48.78a1.41 1.41 0 0 1 -1.41 1.41zm-47.38-2.81h46v-46h-46z"></path>
    <path d="m248.65 372.65h-48.79a1.41 1.41 0 0 1 -1.4-1.41v-48.78a1.41 1.41 0 0 1 1.4-1.41h48.79a1.41 1.41 0 0 1 1.41 1.41v48.78a1.41 1.41 0 0 1 -1.41 1.41zm-47.38-2.81h46v-46h-46z"></path>
    <path d="m199.86 421.44h-48.79a1.41 1.41 0 0 1 -1.4-1.41v-48.79a1.4 1.4 0 0 1 1.4-1.4h48.79a1.41 1.41 0 0 1 1.41 1.4v48.76a1.41 1.41 0 0 1 -1.41 1.44zm-47.38-2.81h46v-46h-46z"></path>
    <path d="m248.65 421.44h-48.79a1.41 1.41 0 0 1 -1.4-1.41v-48.79a1.4 1.4 0 0 1 1.4-1.4h48.79a1.41 1.41 0 0 1 1.41 1.4v48.76a1.41 1.41 0 0 1 -1.41 1.44zm-47.38-2.81h46v-46h-46z"></path>
    <path d="m199.86 470.23h-48.79a1.41 1.41 0 0 1 -1.4-1.41v-48.82a1.4 1.4 0 0 1 1.4-1.4h48.79a1.41 1.41 0 0 1 1.41 1.4v48.79a1.41 1.41 0 0 1 -1.41 1.44zm-47.38-2.81h46v-46h-46z"></path>
    <path d="m248.65 470.23h-48.79a1.41 1.41 0 0 1 -1.4-1.41v-48.82a1.4 1.4 0 0 1 1.4-1.4h48.79a1.41 1.41 0 0 1 1.41 1.4v48.79a1.41 1.41 0 0 1 -1.41 1.44zm-47.38-2.81h46v-46h-46z"></path>
    <path d="m395 323.86h-48.8a1.4 1.4 0 0 1 -1.4-1.4v-40.58a1.4 1.4 0 0 1 1.4-1.4h48.8a1.41 1.41 0 0 1 1.41 1.4v40.58a1.41 1.41 0 0 1 -1.41 1.4zm-47.38-2.81h46v-37.76h-46z"></path>
    <path d="m443.78 323.86h-48.78a1.4 1.4 0 0 1 -1.4-1.4v-40.58a1.4 1.4 0 0 1 1.4-1.4h48.79a1.41 1.41 0 0 1 1.41 1.4v40.58a1.41 1.41 0 0 1 -1.42 1.4zm-47.38-2.81h46v-37.76h-46z"></path>
    <path d="m395 372.65h-48.8a1.41 1.41 0 0 1 -1.4-1.41v-48.78a1.41 1.41 0 0 1 1.4-1.41h48.8a1.41 1.41 0 0 1 1.41 1.41v48.78a1.41 1.41 0 0 1 -1.41 1.41zm-47.38-2.81h46v-46h-46z"></path>
    <path d="m443.78 372.65h-48.78a1.41 1.41 0 0 1 -1.4-1.41v-48.78a1.41 1.41 0 0 1 1.4-1.41h48.79a1.41 1.41 0 0 1 1.41 1.41v48.78a1.41 1.41 0 0 1 -1.42 1.41zm-47.38-2.81h46v-46h-46z"></path>
    <path d="m395 421.44h-48.8a1.41 1.41 0 0 1 -1.4-1.41v-48.79a1.4 1.4 0 0 1 1.4-1.4h48.8a1.41 1.41 0 0 1 1.41 1.4v48.76a1.41 1.41 0 0 1 -1.41 1.44zm-47.38-2.81h46v-46h-46z"></path>
    <path d="m443.78 421.44h-48.78a1.41 1.41 0 0 1 -1.4-1.41v-48.79a1.4 1.4 0 0 1 1.4-1.4h48.79a1.41 1.41 0 0 1 1.41 1.4v48.76a1.41 1.41 0 0 1 -1.42 1.44zm-47.38-2.81h46v-46h-46z"></path>
    <path d="m395 470.23h-48.8a1.41 1.41 0 0 1 -1.4-1.41v-48.82a1.4 1.4 0 0 1 1.4-1.4h48.8a1.41 1.41 0 0 1 1.41 1.4v48.79a1.41 1.41 0 0 1 -1.41 1.44zm-47.38-2.81h46v-46h-46z"></path>
    <path d="m443.78 470.23h-48.78a1.41 1.41 0 0 1 -1.4-1.41v-48.82a1.4 1.4 0 0 1 1.4-1.4h48.79a1.41 1.41 0 0 1 1.41 1.4v48.79a1.41 1.41 0 0 1 -1.42 1.44zm-47.38-2.81h46v-46h-46z"></path>
    <path d="m460.06 477.44h-16.28a1.41 1.41 0 0 1 -1.41-1.41v-194.15a1.41 1.41 0 0 1 1.41-1.4h16.28a1.4 1.4 0 0 1 1.4 1.4v194.12a1.41 1.41 0 0 1 -1.4 1.44zm-14.87-2.81h13.46v-191.34h-13.46z"></path>
    <path d="m151.07 477.44h-16.27a1.41 1.41 0 0 1 -1.41-1.41v-194.15a1.41 1.41 0 0 1 1.41-1.4h16.27a1.41 1.41 0 0 1 1.41 1.4v194.12a1.41 1.41 0 0 1 -1.41 1.44zm-14.87-2.81h13.47v-191.34h-13.47z"></path>
    <path d="m470.47 184.21h-339.65a1.41 1.41 0 0 1 -1.41-1.4v-12.33a1.41 1.41 0 0 1 1.41-1.4h339.65a1.41 1.41 0 0 1 1.41 1.4v12.33a1.41 1.41 0 0 1 -1.41 1.4zm-338.24-2.81h336.84v-9.51h-336.84z"></path>
    <path d="m460 492h-325.15a1.41 1.41 0 0 1 -1.41-1.41v-14.59a1.41 1.41 0 0 1 1.41-1.4h325.15a1.4 1.4 0 0 1 1.4 1.4v14.53a1.41 1.41 0 0 1 -1.4 1.47zm-323.76-2.81h322.36v-11.75h-322.35z"></path>
    <path d="m500.47 263.77h-400.94a1.42 1.42 0 0 1 -1.17-2.2l4.29-6.3a243.44 243.44 0 0 0 33.41-72.83 1.4 1.4 0 0 1 1.35-1h325.18a1.4 1.4 0 0 1 1.35 1 243.67 243.67 0 0 0 33.41 72.83l4.29 6.3a1.42 1.42 0 0 1 -1.17 2.2zm-398.29-2.77h395.64l-2.8-4.11a245.89 245.89 0 0 1 -33.5-72.64h-323a246.16 246.16 0 0 1 -33.52 72.6z"></path>
    <path d="m500.47 283.29h-400.94a1.41 1.41 0 0 1 -1.41-1.41v-19.52a1.41 1.41 0 0 1 1.41-1.4h400.94a1.41 1.41 0 0 1 1.41 1.4v19.52a1.41 1.41 0 0 1 -1.41 1.41zm-399.54-2.81h398.14v-16.71h-398.14z"></path>
    <path d="m346.2 477.44h-97a1.41 1.41 0 0 1 -1.41-1.41v-194.15a1.41 1.41 0 0 1 1.41-1.4h97a1.41 1.41 0 0 1 1.41 1.4v194.12a1.41 1.41 0 0 1 -1.41 1.44zm-95.64-2.81h94.24v-191.34h-94.24zm77.86-13.71h-61.48a1.41 1.41 0 0 1 -1.41-1.4v-159.75a1.41 1.41 0 0 1 1.41-1.41h61.48a1.41 1.41 0 0 1 1.41 1.41v159.75a1.41 1.41 0 0 1 -1.41 1.4zm-60.08-2.81h58.66v-156.94h-58.66z"></path>
    <path d="m296.27 299.77h2.81v159.75h-2.81z"></path>
    <path d="m266.94 418.17h61.49v2.81h-61.49z"></path>
    <path d="m266.94 378.24h61.49v2.81h-61.49z"></path>
    <path d="m266.94 338.3h61.49v2.81h-61.49z"></path>
    <path d="m257.55 401a1.41 1.41 0 0 1 -1.41-1.41v-41.2a1.41 1.41 0 0 1 2.82 0v41.24a1.41 1.41 0 0 1 -1.41 1.37z"></path>
    <path d="m204.63 140.53h7.27a6.56 6.56 0 0 1 2.08.3 4.18 4.18 0 0 1 1.48.84 3.6 3.6 0 0 1 .89 1.29 4.22 4.22 0 0 1 .3 1.6 3.25 3.25 0 0 1 -1.79 3.08 4 4 0 0 1 1.79 1.26 3.4 3.4 0 0 1 .65 2.13 4.13 4.13 0 0 1 -.33 1.66 3.6 3.6 0 0 1 -.97 1.31 4.08 4.08 0 0 1 -1.5.85 6.16 6.16 0 0 1 -2 .31h-7.91zm3.75 3.41v2.33h3.09a1.48 1.48 0 0 0 1.08-.32 1.18 1.18 0 0 0 .31-.85 1.22 1.22 0 0 0 -.29-.84 1.16 1.16 0 0 0 -.89-.32zm0 5.25v2.57h3.75a1.38 1.38 0 0 0 1.08-.36 1.47 1.47 0 0 0 .31-1 1.34 1.34 0 0 0 -.31-.91 1.41 1.41 0 0 0 -1.08-.35z"></path>
    <path d="m236.47 140.53v8.23a7.57 7.57 0 0 1 -.45 2.63 6 6 0 0 1 -1.29 2.12 5.93 5.93 0 0 1 -2.11 1.41 8.32 8.32 0 0 1 -5.79 0 5.8 5.8 0 0 1 -2.1-1.41 6.17 6.17 0 0 1 -1.28-2.12 8.06 8.06 0 0 1 -.43-2.63v-8.23h3.75v8a3.53 3.53 0 0 0 .75 2.43 3.34 3.34 0 0 0 4.45 0 3.49 3.49 0 0 0 .76-2.43v-8z"></path>
    <path d="m242.82 140.53h3.74v11h7v3.62h-10.74z"></path>
    <path d="m259.25 140.53h3.75v5l4.53-5h4.84l-5.78 6.28 6.08 8.35h-4.67l-4-5.52-1 1.11v4.41h-3.75z"></path>
    <path d="m287.54 155.16v-14.63h3.77l4.22 9.24 4.24-9.24h3.76v14.63h-3.73v-6.89l-3 6.32h-2.45l-3-6.32v6.89z"></path>
    <path d="m318.61 140.53 5.9 14.63h-4.08l-.81-2.14h-5.75l-.81 2.14h-4.06l5.93-14.63zm-1.86 4.8-1.61 4.29h3.21z"></path>
    <path d="m337.1 140.53a6.4 6.4 0 0 1 2.43.42 4.67 4.67 0 0 1 1.71 1.16 4.61 4.61 0 0 1 1 1.7 6.4 6.4 0 0 1 .33 2.06 6.3 6.3 0 0 1 -.18 1.51 5.27 5.27 0 0 1 -.53 1.35 5.19 5.19 0 0 1 -.9 1.15 4.76 4.76 0 0 1 -1.28.85l3.17 4.43h-4.48l-2.77-3.92h-1.92v3.92h-3.68v-14.63zm-3.42 3.41v3.9h3.21a2.42 2.42 0 0 0 .95-.16 1.56 1.56 0 0 0 .64-.42 1.66 1.66 0 0 0 .36-.62 2.58 2.58 0 0 0 .11-.73 2.11 2.11 0 0 0 -.47-1.41 2 2 0 0 0 -1.59-.56z"></path>
    <path d="m348.63 140.53h3.75v5l4.53-5h4.84l-5.75 6.28 6.07 8.35h-4.67l-4-5.52-1 1.11v4.41h-3.75z"></path>
    <path d="m367.34 140.53h11.23v3.64h-7.48v2.1h6.15v3.39h-6.15v1.88h7.48v3.62h-11.23z"></path>
    <path d="m383.8 140.53h12.87v3.64h-4.56v11h-3.75v-11h-4.56z"></path>
    <path d="m249.16 477.44h-98.09a1.41 1.41 0 0 1 -1.4-1.41v-7.21a1.4 1.4 0 0 1 1.4-1.4h98.09a1.4 1.4 0 0 1 1.4 1.4v7.18a1.41 1.41 0 0 1 -1.4 1.44zm-96.68-2.81h95.27v-4.4h-95.27z"></path>
    <path d="m443.78 477.44h-97.58a1.41 1.41 0 0 1 -1.4-1.41v-7.21a1.4 1.4 0 0 1 1.4-1.4h97.58a1.41 1.41 0 0 1 1.41 1.4v7.18a1.41 1.41 0 0 1 -1.41 1.44zm-96.17-2.81h94.76v-4.4h-94.76z"></path>
    <path d="m440.35 171.88h-20.77a1.4 1.4 0 0 1 -1.39-1.4v-45.86h-235.09v45.86a1.4 1.4 0 0 1 -1.39 1.4h-20.77a1.4 1.4 0 0 1 -1.39-1.4v-54.73a1.4 1.4 0 0 1 .67-1.19c1.42-.86 36-21 140.65-21 104.25 0 138.78 20.15 140.2 21a1.38 1.38 0 0 1 .67 1.19v54.73a1.4 1.4 0 0 1 -1.39 1.4zm-19.35-2.79h18v-52.52c-5.3-2.77-42.53-20.24-138.09-20.24-96 0-133.24 17.47-138.53 20.24v52.52h18v-45.86a1.39 1.39 0 0 1 1.39-1.39h237.81a1.4 1.4 0 0 1 1.4 1.39z"></path>
    <g clip-path="url(#a)">
      <g clip-path="url(#b)">
        <path d="m445.48 109.42a1.15 1.15 0 1 0 -1.15-1.14 1.14 1.14 0 0 0 1.15 1.14z"></path>
        <path d="m434 109.42a1.15 1.15 0 1 0 -1.14-1.14 1.14 1.14 0 0 0 1.14 1.14z"></path>
        <path d="m445.48 98a1.15 1.15 0 1 0 -1.15-1.14 1.14 1.14 0 0 0 1.15 1.14z"></path>
        <path d="m434 98a1.15 1.15 0 1 0 -1.14-1.14 1.14 1.14 0 0 0 1.14 1.14z"></path>
        <path d="m428.31 103.7a1.15 1.15 0 1 0 -1.15-1.15 1.15 1.15 0 0 0 1.15 1.15z"></path>
        <path d="m439.75 103.7a1.15 1.15 0 1 0 -1.14-1.15 1.15 1.15 0 0 0 1.14 1.15z"></path>
        <path d="m428.31 92.25a1.15 1.15 0 1 0 -1.15-1.15 1.14 1.14 0 0 0 1.15 1.15z"></path>
        <path d="m439.75 92.25a1.15 1.15 0 1 0 -1.14-1.15 1.14 1.14 0 0 0 1.14 1.15z"></path>
        <path d="m422.58 109.42a1.15 1.15 0 1 0 -1.14-1.14 1.15 1.15 0 0 0 1.14 1.14z"></path>
        <path d="m422.58 98a1.15 1.15 0 1 0 -1.14-1.14 1.15 1.15 0 0 0 1.14 1.14z"></path>
        <path d="m445.48 86.52a1.14 1.14 0 1 0 -1.15-1.14 1.14 1.14 0 0 0 1.15 1.14z"></path>
        <path d="m434 86.52a1.14 1.14 0 1 0 -1.14-1.14 1.14 1.14 0 0 0 1.14 1.14z"></path>
        <path d="m422.58 86.52a1.14 1.14 0 1 0 -1.14-1.14 1.15 1.15 0 0 0 1.14 1.14z"></path>
      </g>
      <g clip-path="url(#c)">
        <path d="m445.48 132.31a1.14 1.14 0 1 0 -1.15-1.14 1.14 1.14 0 0 0 1.15 1.14z"></path>
        <path d="m434 132.31a1.14 1.14 0 1 0 -1.14-1.14 1.14 1.14 0 0 0 1.14 1.14z"></path>
        <path d="m445.48 120.87a1.15 1.15 0 1 0 -1.15-1.15 1.15 1.15 0 0 0 1.15 1.15z"></path>
        <path d="m434 120.87a1.15 1.15 0 1 0 -1.14-1.15 1.15 1.15 0 0 0 1.14 1.15z"></path>
        <path d="m428.31 126.59a1.15 1.15 0 1 0 -1.15-1.14 1.14 1.14 0 0 0 1.15 1.14z"></path>
        <path d="m439.75 126.59a1.15 1.15 0 1 0 -1.14-1.14 1.14 1.14 0 0 0 1.14 1.14z"></path>
        <path d="m428.31 115.14a1.15 1.15 0 1 0 -1.15-1.14 1.14 1.14 0 0 0 1.15 1.14z"></path>
        <path d="m439.75 115.14a1.15 1.15 0 1 0 -1.14-1.14 1.14 1.14 0 0 0 1.14 1.14z"></path>
        <path d="m422.58 132.31a1.14 1.14 0 1 0 -1.14-1.14 1.15 1.15 0 0 0 1.14 1.14z"></path>
        <path d="m422.58 120.87a1.15 1.15 0 1 0 0-2.29 1.15 1.15 0 0 0 0 2.29z"></path>
        <path d="m445.48 109.42a1.15 1.15 0 1 0 -1.15-1.14 1.14 1.14 0 0 0 1.15 1.14z"></path>
        <path d="m434 109.42a1.15 1.15 0 1 0 -1.14-1.14 1.14 1.14 0 0 0 1.14 1.14z"></path>
        <path d="m422.58 109.42a1.15 1.15 0 1 0 -1.14-1.14 1.15 1.15 0 0 0 1.14 1.14z"></path>
      </g>
      <g clip-path="url(#d)">
        <path d="m445.48 155.21a1.15 1.15 0 1 0 -1.15-1.14 1.14 1.14 0 0 0 1.15 1.14z"></path>
        <path d="m434 155.21a1.15 1.15 0 1 0 -1.14-1.14 1.14 1.14 0 0 0 1.14 1.14z"></path>
        <path d="m445.48 143.76a1.15 1.15 0 1 0 -1.15-1.14 1.14 1.14 0 0 0 1.15 1.14z"></path>
        <path d="m434 143.76a1.15 1.15 0 1 0 -1.14-1.14 1.14 1.14 0 0 0 1.14 1.14z"></path>
        <path d="m428.31 149.49a1.15 1.15 0 1 0 -1.15-1.15 1.15 1.15 0 0 0 1.15 1.15z"></path>
        <path d="m439.75 149.49a1.15 1.15 0 1 0 -1.14-1.15 1.15 1.15 0 0 0 1.14 1.15z"></path>
        <path d="m428.31 138a1.15 1.15 0 1 0 -1.15-1.14 1.14 1.14 0 0 0 1.15 1.14z"></path>
        <path d="m439.75 138a1.15 1.15 0 1 0 -1.14-1.14 1.14 1.14 0 0 0 1.14 1.14z"></path>
        <path d="m422.58 155.21a1.15 1.15 0 1 0 -1.14-1.14 1.15 1.15 0 0 0 1.14 1.14z"></path>
        <path d="m422.58 143.76a1.15 1.15 0 1 0 -1.14-1.14 1.15 1.15 0 0 0 1.14 1.14z"></path>
        <path d="m445.48 132.31a1.14 1.14 0 1 0 -1.15-1.14 1.14 1.14 0 0 0 1.15 1.14z"></path>
        <path d="m434 132.31a1.14 1.14 0 1 0 -1.14-1.14 1.14 1.14 0 0 0 1.14 1.14z"></path>
        <path d="m422.58 132.31a1.14 1.14 0 1 0 -1.14-1.14 1.15 1.15 0 0 0 1.14 1.14z"></path>
      </g>
      <g clip-path="url(#e)">
        <path d="m445.48 178.11a1.15 1.15 0 1 0 -1.15-1.15 1.15 1.15 0 0 0 1.15 1.15z"></path>
        <path d="m434 178.11a1.15 1.15 0 1 0 -1.14-1.15 1.15 1.15 0 0 0 1.14 1.15z"></path>
        <path d="m445.48 166.66a1.15 1.15 0 1 0 -1.15-1.15 1.14 1.14 0 0 0 1.15 1.15z"></path>
        <path d="m434 166.66a1.15 1.15 0 1 0 -1.14-1.15 1.14 1.14 0 0 0 1.14 1.15z"></path>
        <path d="m428.31 172.38a1.15 1.15 0 1 0 -1.15-1.14 1.14 1.14 0 0 0 1.15 1.14z"></path>
        <path d="m439.75 172.38a1.15 1.15 0 1 0 -1.14-1.14 1.14 1.14 0 0 0 1.14 1.14z"></path>
        <path d="m428.31 160.93a1.15 1.15 0 1 0 -1.15-1.14 1.14 1.14 0 0 0 1.15 1.14z"></path>
        <path d="m439.75 160.93a1.15 1.15 0 1 0 -1.14-1.14 1.14 1.14 0 0 0 1.14 1.14z"></path>
        <path d="m422.58 178.11a1.15 1.15 0 1 0 0-2.29 1.15 1.15 0 0 0 0 2.29z"></path>
        <path d="m422.58 166.66a1.15 1.15 0 1 0 -1.14-1.15 1.15 1.15 0 0 0 1.14 1.15z"></path>
        <path d="m445.48 155.21a1.15 1.15 0 1 0 -1.15-1.14 1.14 1.14 0 0 0 1.15 1.14z"></path>
        <path d="m434 155.21a1.15 1.15 0 1 0 -1.14-1.14 1.14 1.14 0 0 0 1.14 1.14z"></path>
        <path d="m422.58 155.21a1.15 1.15 0 1 0 -1.14-1.14 1.15 1.15 0 0 0 1.14 1.14z"></path>
      </g>
      <g clip-path="url(#f)">
        <path d="m422.58 109.42a1.15 1.15 0 1 0 -1.14-1.14 1.15 1.15 0 0 0 1.14 1.14z"></path>
        <path d="m411.14 109.42a1.15 1.15 0 1 0 -1.15-1.14 1.14 1.14 0 0 0 1.15 1.14z"></path>
        <path d="m422.58 98a1.15 1.15 0 1 0 -1.14-1.14 1.15 1.15 0 0 0 1.14 1.14z"></path>
        <path d="m411.14 98a1.15 1.15 0 1 0 -1.14-1.17 1.14 1.14 0 0 0 1.14 1.17z"></path>
        <path d="m405.41 103.7a1.15 1.15 0 1 0 0-2.29 1.15 1.15 0 0 0 0 2.29z"></path>
        <path d="m416.86 103.7a1.15 1.15 0 1 0 -1.15-1.15 1.15 1.15 0 0 0 1.15 1.15z"></path>
        <path d="m405.41 92.25a1.15 1.15 0 1 0 -1.14-1.15 1.15 1.15 0 0 0 1.14 1.15z"></path>
        <path d="m416.86 92.25a1.15 1.15 0 1 0 -1.15-1.15 1.14 1.14 0 0 0 1.15 1.15z"></path>
        <path d="m399.69 109.42a1.15 1.15 0 1 0 -1.15-1.14 1.14 1.14 0 0 0 1.15 1.14z"></path>
        <path d="m399.69 98a1.15 1.15 0 0 0 0-2.29 1.15 1.15 0 1 0 0 2.29z"></path>
        <path d="m422.58 86.52a1.14 1.14 0 1 0 -1.14-1.14 1.15 1.15 0 0 0 1.14 1.14z"></path>
        <path d="m411.14 86.52a1.14 1.14 0 1 0 -1.14-1.14 1.14 1.14 0 0 0 1.14 1.14z"></path>
        <path d="m399.69 86.52a1.14 1.14 0 1 0 -1.15-1.14 1.14 1.14 0 0 0 1.15 1.14z"></path>
      </g>
      <g clip-path="url(#g)">
        <path d="m422.58 132.31a1.14 1.14 0 1 0 -1.14-1.14 1.15 1.15 0 0 0 1.14 1.14z"></path>
        <path d="m411.14 132.31a1.14 1.14 0 1 0 -1.15-1.14 1.14 1.14 0 0 0 1.15 1.14z"></path>
        <path d="m422.58 120.87a1.15 1.15 0 1 0 0-2.29 1.15 1.15 0 0 0 0 2.29z"></path>
        <path d="m411.14 120.87a1.15 1.15 0 1 0 -1.15-1.15 1.15 1.15 0 0 0 1.15 1.15z"></path>
        <path d="m405.41 126.59a1.15 1.15 0 1 0 -1.14-1.14 1.15 1.15 0 0 0 1.14 1.14z"></path>
        <path d="m416.86 126.59a1.15 1.15 0 1 0 -1.15-1.14 1.14 1.14 0 0 0 1.15 1.14z"></path>
        <path d="m405.41 115.14a1.15 1.15 0 1 0 -1.14-1.14 1.15 1.15 0 0 0 1.14 1.14z"></path>
        <path d="m416.86 115.14a1.15 1.15 0 0 0 0-2.29 1.15 1.15 0 1 0 0 2.29z"></path>
        <path d="m399.69 132.31a1.14 1.14 0 1 0 -1.15-1.14 1.14 1.14 0 0 0 1.15 1.14z"></path>
        <path d="m399.69 120.87a1.15 1.15 0 1 0 -1.15-1.15 1.15 1.15 0 0 0 1.15 1.15z"></path>
        <path d="m422.58 109.42a1.15 1.15 0 1 0 -1.14-1.14 1.15 1.15 0 0 0 1.14 1.14z"></path>
        <path d="m411.14 109.42a1.15 1.15 0 1 0 -1.15-1.14 1.14 1.14 0 0 0 1.15 1.14z"></path>
        <path d="m399.69 109.42a1.15 1.15 0 1 0 -1.15-1.14 1.14 1.14 0 0 0 1.15 1.14z"></path>
      </g>
      <g clip-path="url(#h)">
        <path d="m422.58 155.21a1.15 1.15 0 1 0 -1.14-1.14 1.15 1.15 0 0 0 1.14 1.14z"></path>
        <path d="m411.14 155.21a1.15 1.15 0 1 0 -1.15-1.14 1.14 1.14 0 0 0 1.15 1.14z"></path>
        <path d="m422.58 143.76a1.15 1.15 0 1 0 -1.14-1.14 1.15 1.15 0 0 0 1.14 1.14z"></path>
        <path d="m411.14 143.76a1.15 1.15 0 1 0 -1.15-1.14 1.14 1.14 0 0 0 1.15 1.14z"></path>
        <path d="m405.41 149.49a1.15 1.15 0 1 0 0-2.29 1.15 1.15 0 0 0 0 2.29z"></path>
        <path d="m416.86 149.49a1.15 1.15 0 1 0 -1.15-1.15 1.15 1.15 0 0 0 1.15 1.15z"></path>
        <path d="m405.41 138a1.15 1.15 0 1 0 -1.14-1.14 1.15 1.15 0 0 0 1.14 1.14z"></path>
        <path d="m416.86 138a1.15 1.15 0 1 0 -1.15-1.14 1.14 1.14 0 0 0 1.15 1.14z"></path>
        <path d="m399.69 155.21a1.15 1.15 0 1 0 -1.15-1.14 1.14 1.14 0 0 0 1.15 1.14z"></path>
        <path d="m399.69 143.76a1.15 1.15 0 0 0 0-2.29 1.15 1.15 0 1 0 0 2.29z"></path>
        <path d="m422.58 132.31a1.14 1.14 0 1 0 -1.14-1.14 1.15 1.15 0 0 0 1.14 1.14z"></path>
        <path d="m411.14 132.31a1.14 1.14 0 1 0 -1.15-1.14 1.14 1.14 0 0 0 1.15 1.14z"></path>
        <path d="m399.69 132.31a1.14 1.14 0 1 0 -1.15-1.14 1.14 1.14 0 0 0 1.15 1.14z"></path>
      </g>
      <g clip-path="url(#i)">
        <path d="m422.58 178.11a1.15 1.15 0 1 0 0-2.29 1.15 1.15 0 0 0 0 2.29z"></path>
        <path d="m411.14 178.11a1.15 1.15 0 1 0 -1.14-1.11 1.15 1.15 0 0 0 1.14 1.11z"></path>
        <path d="m422.58 166.66a1.15 1.15 0 1 0 -1.14-1.15 1.15 1.15 0 0 0 1.14 1.15z"></path>
        <path d="m411.14 166.66a1.15 1.15 0 1 0 -1.15-1.15 1.14 1.14 0 0 0 1.15 1.15z"></path>
        <path d="m405.41 172.38a1.15 1.15 0 1 0 -1.14-1.14 1.15 1.15 0 0 0 1.14 1.14z"></path>
        <path d="m416.86 172.38a1.15 1.15 0 1 0 -1.15-1.14 1.14 1.14 0 0 0 1.15 1.14z"></path>
        <path d="m405.41 160.93a1.15 1.15 0 1 0 -1.14-1.14 1.15 1.15 0 0 0 1.14 1.14z"></path>
        <path d="m416.86 160.93a1.15 1.15 0 0 0 0-2.29 1.15 1.15 0 1 0 0 2.29z"></path>
        <path d="m399.69 178.11a1.15 1.15 0 1 0 -1.15-1.15 1.15 1.15 0 0 0 1.15 1.15z"></path>
        <path d="m399.69 166.66a1.15 1.15 0 1 0 -1.15-1.15 1.14 1.14 0 0 0 1.15 1.15z"></path>
        <path d="m422.58 155.21a1.15 1.15 0 1 0 -1.14-1.14 1.15 1.15 0 0 0 1.14 1.14z"></path>
        <path d="m411.14 155.21a1.15 1.15 0 1 0 -1.15-1.14 1.14 1.14 0 0 0 1.15 1.14z"></path>
        <path d="m399.69 155.21a1.15 1.15 0 1 0 -1.15-1.14 1.14 1.14 0 0 0 1.15 1.14z"></path>
      </g>
      <g clip-path="url(#j)">
        <path d="m399.69 109.42a1.15 1.15 0 1 0 -1.15-1.14 1.14 1.14 0 0 0 1.15 1.14z"></path>
        <path d="m388.24 109.42a1.15 1.15 0 1 0 -1.14-1.14 1.15 1.15 0 0 0 1.14 1.14z"></path>
        <path d="m399.69 98a1.15 1.15 0 0 0 0-2.29 1.15 1.15 0 1 0 0 2.29z"></path>
        <path d="m388.24 98a1.15 1.15 0 1 0 -1.14-1.14 1.15 1.15 0 0 0 1.14 1.14z"></path>
        <path d="m382.52 103.7a1.15 1.15 0 1 0 -1.15-1.15 1.15 1.15 0 0 0 1.15 1.15z"></path>
        <path d="m394 103.7a1.15 1.15 0 1 0 -1.14-1.15 1.15 1.15 0 0 0 1.14 1.15z"></path>
        <path d="m382.52 92.25a1.15 1.15 0 1 0 -1.15-1.15 1.14 1.14 0 0 0 1.15 1.15z"></path>
        <path d="m394 92.25a1.15 1.15 0 1 0 -1.14-1.15 1.14 1.14 0 0 0 1.14 1.15z"></path>
        <path d="m376.79 109.42a1.15 1.15 0 1 0 -1.14-1.14 1.14 1.14 0 0 0 1.14 1.14z"></path>
        <path d="m376.79 98a1.15 1.15 0 1 0 -1.14-1.14 1.14 1.14 0 0 0 1.14 1.14z"></path>
        <path d="m399.69 86.52a1.14 1.14 0 1 0 -1.15-1.14 1.14 1.14 0 0 0 1.15 1.14z"></path>
        <path d="m388.24 86.52a1.14 1.14 0 1 0 -1.14-1.14 1.15 1.15 0 0 0 1.14 1.14z"></path>
        <path d="m376.79 86.52a1.14 1.14 0 1 0 -1.14-1.14 1.14 1.14 0 0 0 1.14 1.14z"></path>
      </g>
      <g clip-path="url(#k)">
        <path d="m399.69 132.31a1.14 1.14 0 1 0 -1.15-1.14 1.14 1.14 0 0 0 1.15 1.14z"></path>
        <path d="m388.24 132.31a1.14 1.14 0 1 0 -1.14-1.14 1.15 1.15 0 0 0 1.14 1.14z"></path>
        <path d="m399.69 120.87a1.15 1.15 0 1 0 -1.15-1.15 1.15 1.15 0 0 0 1.15 1.15z"></path>
        <path d="m388.24 120.87a1.15 1.15 0 1 0 0-2.29 1.15 1.15 0 0 0 0 2.29z"></path>
        <path d="m382.52 126.59a1.15 1.15 0 1 0 -1.15-1.14 1.14 1.14 0 0 0 1.15 1.14z"></path>
        <path d="m394 126.59a1.15 1.15 0 1 0 -1.14-1.14 1.14 1.14 0 0 0 1.14 1.14z"></path>
        <path d="m382.52 115.14a1.15 1.15 0 1 0 -1.15-1.14 1.14 1.14 0 0 0 1.15 1.14z"></path>
        <path d="m394 115.14a1.15 1.15 0 1 0 -1.14-1.14 1.14 1.14 0 0 0 1.14 1.14z"></path>
        <path d="m376.79 132.31a1.14 1.14 0 1 0 -1.14-1.14 1.14 1.14 0 0 0 1.14 1.14z"></path>
        <path d="m376.79 120.87a1.15 1.15 0 1 0 -1.14-1.15 1.15 1.15 0 0 0 1.14 1.15z"></path>
        <path d="m399.69 109.42a1.15 1.15 0 1 0 -1.15-1.14 1.14 1.14 0 0 0 1.15 1.14z"></path>
        <path d="m388.24 109.42a1.15 1.15 0 1 0 -1.14-1.14 1.15 1.15 0 0 0 1.14 1.14z"></path>
        <path d="m376.79 109.42a1.15 1.15 0 1 0 -1.14-1.14 1.14 1.14 0 0 0 1.14 1.14z"></path>
      </g>
      <g clip-path="url(#l)">
        <path d="m399.69 155.21a1.15 1.15 0 1 0 -1.15-1.14 1.14 1.14 0 0 0 1.15 1.14z"></path>
        <path d="m388.24 155.21a1.15 1.15 0 1 0 -1.14-1.14 1.15 1.15 0 0 0 1.14 1.14z"></path>
        <path d="m399.69 143.76a1.15 1.15 0 0 0 0-2.29 1.15 1.15 0 1 0 0 2.29z"></path>
        <path d="m388.24 143.76a1.15 1.15 0 1 0 -1.14-1.14 1.15 1.15 0 0 0 1.14 1.14z"></path>
        <path d="m382.52 149.49a1.15 1.15 0 1 0 -1.15-1.15 1.15 1.15 0 0 0 1.15 1.15z"></path>
        <path d="m394 149.49a1.15 1.15 0 1 0 -1.14-1.15 1.15 1.15 0 0 0 1.14 1.15z"></path>
        <path d="m382.52 138a1.15 1.15 0 1 0 -1.15-1.14 1.14 1.14 0 0 0 1.15 1.14z"></path>
        <path d="m394 138a1.15 1.15 0 1 0 -1.14-1.14 1.14 1.14 0 0 0 1.14 1.14z"></path>
        <path d="m376.79 155.21a1.15 1.15 0 1 0 -1.14-1.14 1.14 1.14 0 0 0 1.14 1.14z"></path>
        <path d="m376.79 143.76a1.15 1.15 0 1 0 -1.14-1.14 1.14 1.14 0 0 0 1.14 1.14z"></path>
        <path d="m399.69 132.31a1.14 1.14 0 1 0 -1.15-1.14 1.14 1.14 0 0 0 1.15 1.14z"></path>
        <path d="m388.24 132.31a1.14 1.14 0 1 0 -1.14-1.14 1.15 1.15 0 0 0 1.14 1.14z"></path>
        <path d="m376.79 132.31a1.14 1.14 0 1 0 -1.14-1.14 1.14 1.14 0 0 0 1.14 1.14z"></path>
      </g>
      <g clip-path="url(#m)">
        <path d="m399.69 178.11a1.15 1.15 0 1 0 -1.15-1.15 1.15 1.15 0 0 0 1.15 1.15z"></path>
        <path d="m388.24 178.11a1.15 1.15 0 1 0 0-2.29 1.15 1.15 0 0 0 0 2.29z"></path>
        <path d="m399.69 166.66a1.15 1.15 0 1 0 -1.15-1.15 1.14 1.14 0 0 0 1.15 1.15z"></path>
        <path d="m388.24 166.66a1.15 1.15 0 1 0 -1.14-1.15 1.15 1.15 0 0 0 1.14 1.15z"></path>
        <path d="m382.52 172.38a1.15 1.15 0 1 0 -1.15-1.14 1.14 1.14 0 0 0 1.15 1.14z"></path>
        <path d="m394 172.38a1.15 1.15 0 1 0 -1.14-1.14 1.14 1.14 0 0 0 1.14 1.14z"></path>
        <path d="m382.52 160.93a1.15 1.15 0 1 0 -1.15-1.14 1.14 1.14 0 0 0 1.15 1.14z"></path>
        <path d="m394 160.93a1.15 1.15 0 1 0 -1.14-1.14 1.14 1.14 0 0 0 1.14 1.14z"></path>
        <path d="m376.79 178.11a1.15 1.15 0 1 0 -1.14-1.15 1.15 1.15 0 0 0 1.14 1.15z"></path>
        <path d="m376.79 166.66a1.15 1.15 0 1 0 -1.14-1.15 1.14 1.14 0 0 0 1.14 1.15z"></path>
        <path d="m399.69 155.21a1.15 1.15 0 1 0 -1.15-1.14 1.14 1.14 0 0 0 1.15 1.14z"></path>
        <path d="m388.24 155.21a1.15 1.15 0 1 0 -1.14-1.14 1.15 1.15 0 0 0 1.14 1.14z"></path>
        <path d="m376.79 155.21a1.15 1.15 0 1 0 -1.14-1.14 1.14 1.14 0 0 0 1.14 1.14z"></path>
      </g>
      <g clip-path="url(#n)">
        <path d="m376.79 109.42a1.15 1.15 0 1 0 -1.14-1.14 1.14 1.14 0 0 0 1.14 1.14z"></path>
        <path d="m365.35 109.42a1.15 1.15 0 1 0 -1.15-1.14 1.14 1.14 0 0 0 1.15 1.14z"></path>
        <path d="m376.79 98a1.15 1.15 0 1 0 -1.14-1.14 1.14 1.14 0 0 0 1.14 1.14z"></path>
        <path d="m365.35 98a1.15 1.15 0 1 0 -1.15-1.14 1.14 1.14 0 0 0 1.15 1.14z"></path>
        <path d="m359.62 103.7a1.15 1.15 0 1 0 0-2.29 1.15 1.15 0 0 0 0 2.29z"></path>
        <path d="m371.07 103.7a1.15 1.15 0 1 0 -1.15-1.15 1.16 1.16 0 0 0 1.15 1.15z"></path>
        <path d="m359.62 92.25a1.15 1.15 0 1 0 -1.14-1.15 1.15 1.15 0 0 0 1.14 1.15z"></path>
        <path d="m371.07 92.25a1.15 1.15 0 1 0 -1.15-1.15 1.15 1.15 0 0 0 1.15 1.15z"></path>
        <path d="m353.9 109.42a1.15 1.15 0 1 0 -1.15-1.14 1.14 1.14 0 0 0 1.15 1.14z"></path>
        <path d="m353.9 98a1.15 1.15 0 0 0 0-2.29 1.15 1.15 0 1 0 0 2.29z"></path>
        <path d="m376.79 86.52a1.14 1.14 0 1 0 -1.14-1.14 1.14 1.14 0 0 0 1.14 1.14z"></path>
        <path d="m365.35 86.52a1.14 1.14 0 1 0 -1.15-1.14 1.14 1.14 0 0 0 1.15 1.14z"></path>
        <path d="m353.9 86.52a1.14 1.14 0 1 0 -1.15-1.14 1.14 1.14 0 0 0 1.15 1.14z"></path>
      </g>
      <g clip-path="url(#o)">
        <path d="m376.79 132.31a1.14 1.14 0 1 0 -1.14-1.14 1.14 1.14 0 0 0 1.14 1.14z"></path>
        <path d="m365.35 132.31a1.14 1.14 0 1 0 -1.15-1.14 1.14 1.14 0 0 0 1.15 1.14z"></path>
        <path d="m376.79 120.87a1.15 1.15 0 1 0 -1.14-1.15 1.15 1.15 0 0 0 1.14 1.15z"></path>
        <path d="m365.35 120.87a1.15 1.15 0 1 0 -1.15-1.15 1.15 1.15 0 0 0 1.15 1.15z"></path>
        <path d="m359.62 126.59a1.15 1.15 0 1 0 -1.14-1.14 1.15 1.15 0 0 0 1.14 1.14z"></path>
        <path d="m371.07 126.59a1.15 1.15 0 1 0 -1.15-1.14 1.15 1.15 0 0 0 1.15 1.14z"></path>
        <path d="m359.62 115.14a1.15 1.15 0 1 0 -1.14-1.14 1.15 1.15 0 0 0 1.14 1.14z"></path>
        <path d="m371.07 115.14a1.15 1.15 0 1 0 -1.15-1.14 1.15 1.15 0 0 0 1.15 1.14z"></path>
        <path d="m353.9 132.31a1.14 1.14 0 1 0 -1.15-1.14 1.14 1.14 0 0 0 1.15 1.14z"></path>
        <path d="m353.9 120.87a1.15 1.15 0 1 0 -1.15-1.15 1.15 1.15 0 0 0 1.15 1.15z"></path>
        <path d="m376.79 109.42a1.15 1.15 0 1 0 -1.14-1.14 1.14 1.14 0 0 0 1.14 1.14z"></path>
        <path d="m365.35 109.42a1.15 1.15 0 1 0 -1.15-1.14 1.14 1.14 0 0 0 1.15 1.14z"></path>
        <path d="m353.9 109.42a1.15 1.15 0 1 0 -1.15-1.14 1.14 1.14 0 0 0 1.15 1.14z"></path>
      </g>
      <g clip-path="url(#p)">
        <path d="m376.79 155.21a1.15 1.15 0 1 0 -1.14-1.14 1.14 1.14 0 0 0 1.14 1.14z"></path>
        <path d="m365.35 155.21a1.15 1.15 0 1 0 -1.15-1.14 1.14 1.14 0 0 0 1.15 1.14z"></path>
        <path d="m376.79 143.76a1.15 1.15 0 1 0 -1.14-1.14 1.14 1.14 0 0 0 1.14 1.14z"></path>
        <path d="m365.35 143.76a1.15 1.15 0 1 0 -1.15-1.14 1.14 1.14 0 0 0 1.15 1.14z"></path>
        <path d="m359.62 149.49a1.15 1.15 0 1 0 0-2.29 1.15 1.15 0 0 0 0 2.29z"></path>
        <path d="m371.07 149.49a1.15 1.15 0 1 0 -1.15-1.15 1.16 1.16 0 0 0 1.15 1.15z"></path>
        <path d="m359.62 138a1.15 1.15 0 1 0 -1.14-1.14 1.15 1.15 0 0 0 1.14 1.14z"></path>
        <path d="m371.07 138a1.15 1.15 0 1 0 -1.15-1.14 1.15 1.15 0 0 0 1.15 1.14z"></path>
        <path d="m353.9 155.21a1.15 1.15 0 1 0 -1.15-1.14 1.14 1.14 0 0 0 1.15 1.14z"></path>
        <path d="m353.9 143.76a1.15 1.15 0 0 0 0-2.29 1.15 1.15 0 1 0 0 2.29z"></path>
        <path d="m376.79 132.31a1.14 1.14 0 1 0 -1.14-1.14 1.14 1.14 0 0 0 1.14 1.14z"></path>
        <path d="m365.35 132.31a1.14 1.14 0 1 0 -1.15-1.14 1.14 1.14 0 0 0 1.15 1.14z"></path>
        <path d="m353.9 132.31a1.14 1.14 0 1 0 -1.15-1.14 1.14 1.14 0 0 0 1.15 1.14z"></path>
      </g>
      <g clip-path="url(#q)">
        <path d="m376.79 178.11a1.15 1.15 0 1 0 -1.14-1.15 1.15 1.15 0 0 0 1.14 1.15z"></path>
        <path d="m365.35 178.11a1.15 1.15 0 1 0 -1.15-1.11 1.15 1.15 0 0 0 1.15 1.11z"></path>
        <path d="m376.79 166.66a1.15 1.15 0 1 0 -1.14-1.15 1.14 1.14 0 0 0 1.14 1.15z"></path>
        <path d="m365.35 166.66a1.15 1.15 0 1 0 -1.15-1.15 1.14 1.14 0 0 0 1.15 1.15z"></path>
        <path d="m359.62 172.38a1.15 1.15 0 1 0 -1.14-1.14 1.15 1.15 0 0 0 1.14 1.14z"></path>
        <path d="m371.07 172.38a1.15 1.15 0 1 0 -1.15-1.14 1.15 1.15 0 0 0 1.15 1.14z"></path>
        <path d="m359.62 160.93a1.15 1.15 0 1 0 -1.14-1.14 1.15 1.15 0 0 0 1.14 1.14z"></path>
        <path d="m371.07 160.93a1.15 1.15 0 1 0 -1.15-1.14 1.15 1.15 0 0 0 1.15 1.14z"></path>
        <path d="m353.9 178.11a1.15 1.15 0 1 0 -1.15-1.15 1.15 1.15 0 0 0 1.15 1.15z"></path>
        <path d="m353.9 166.66a1.15 1.15 0 1 0 -1.15-1.15 1.14 1.14 0 0 0 1.15 1.15z"></path>
        <path d="m376.79 155.21a1.15 1.15 0 1 0 -1.14-1.14 1.14 1.14 0 0 0 1.14 1.14z"></path>
        <path d="m365.35 155.21a1.15 1.15 0 1 0 -1.15-1.14 1.14 1.14 0 0 0 1.15 1.14z"></path>
        <path d="m353.9 155.21a1.15 1.15 0 1 0 -1.15-1.14 1.14 1.14 0 0 0 1.15 1.14z"></path>
      </g>
      <g clip-path="url(#r)">
        <path d="m353.9 109.42a1.15 1.15 0 1 0 -1.15-1.14 1.14 1.14 0 0 0 1.15 1.14z"></path>
        <path d="m342.45 109.42a1.15 1.15 0 1 0 -1.14-1.14 1.15 1.15 0 0 0 1.14 1.14z"></path>
        <path d="m353.9 98a1.15 1.15 0 0 0 0-2.29 1.15 1.15 0 1 0 0 2.29z"></path>
        <path d="m342.45 98a1.15 1.15 0 1 0 -1.14-1.14 1.15 1.15 0 0 0 1.14 1.14z"></path>
        <path d="m336.73 103.7a1.15 1.15 0 1 0 -1.15-1.15 1.15 1.15 0 0 0 1.15 1.15z"></path>
        <path d="m348.18 103.7a1.15 1.15 0 1 0 -1.15-1.15 1.15 1.15 0 0 0 1.15 1.15z"></path>
        <path d="m336.73 92.25a1.15 1.15 0 1 0 -1.15-1.15 1.14 1.14 0 0 0 1.15 1.15z"></path>
        <path d="m348.18 92.25a1.15 1.15 0 1 0 -1.18-1.15 1.14 1.14 0 0 0 1.18 1.15z"></path>
        <path d="m331 109.42a1.15 1.15 0 1 0 -1.14-1.14 1.14 1.14 0 0 0 1.14 1.14z"></path>
        <path d="m331 98a1.15 1.15 0 1 0 -1.14-1.14 1.14 1.14 0 0 0 1.14 1.14z"></path>
        <path d="m353.9 86.52a1.14 1.14 0 1 0 -1.15-1.14 1.14 1.14 0 0 0 1.15 1.14z"></path>
        <path d="m342.45 86.52a1.14 1.14 0 1 0 -1.14-1.14 1.15 1.15 0 0 0 1.14 1.14z"></path>
        <path d="m331 86.52a1.14 1.14 0 1 0 -1.14-1.14 1.14 1.14 0 0 0 1.14 1.14z"></path>
      </g>
      <g clip-path="url(#s)">
        <path d="m353.9 132.31a1.14 1.14 0 1 0 -1.15-1.14 1.14 1.14 0 0 0 1.15 1.14z"></path>
        <path d="m342.45 132.31a1.14 1.14 0 1 0 -1.14-1.14 1.15 1.15 0 0 0 1.14 1.14z"></path>
        <path d="m353.9 120.87a1.15 1.15 0 1 0 -1.15-1.15 1.15 1.15 0 0 0 1.15 1.15z"></path>
        <path d="m342.45 120.87a1.15 1.15 0 1 0 0-2.29 1.15 1.15 0 0 0 0 2.29z"></path>
        <path d="m336.73 126.59a1.15 1.15 0 1 0 -1.15-1.14 1.14 1.14 0 0 0 1.15 1.14z"></path>
        <path d="m348.18 126.59a1.15 1.15 0 1 0 -1.15-1.14 1.14 1.14 0 0 0 1.15 1.14z"></path>
        <path d="m336.73 115.14a1.15 1.15 0 0 0 0-2.29 1.15 1.15 0 1 0 0 2.29z"></path>
        <path d="m348.18 115.14a1.15 1.15 0 1 0 -1.18-1.14 1.14 1.14 0 0 0 1.18 1.14z"></path>
        <path d="m331 132.31a1.14 1.14 0 1 0 -1.14-1.14 1.14 1.14 0 0 0 1.14 1.14z"></path>
        <path d="m331 120.87a1.15 1.15 0 1 0 -1.14-1.15 1.15 1.15 0 0 0 1.14 1.15z"></path>
        <path d="m353.9 109.42a1.15 1.15 0 1 0 -1.15-1.14 1.14 1.14 0 0 0 1.15 1.14z"></path>
        <path d="m342.45 109.42a1.15 1.15 0 1 0 -1.14-1.14 1.15 1.15 0 0 0 1.14 1.14z"></path>
        <path d="m331 109.42a1.15 1.15 0 1 0 -1.14-1.14 1.14 1.14 0 0 0 1.14 1.14z"></path>
      </g>
      <g clip-path="url(#t)">
        <path d="m353.9 155.21a1.15 1.15 0 1 0 -1.15-1.14 1.14 1.14 0 0 0 1.15 1.14z"></path>
        <path d="m342.45 155.21a1.15 1.15 0 1 0 -1.14-1.14 1.15 1.15 0 0 0 1.14 1.14z"></path>
        <path d="m353.9 143.76a1.15 1.15 0 0 0 0-2.29 1.15 1.15 0 1 0 0 2.29z"></path>
        <path d="m342.45 143.76a1.15 1.15 0 1 0 -1.14-1.14 1.15 1.15 0 0 0 1.14 1.14z"></path>
        <path d="m336.73 149.49a1.15 1.15 0 1 0 -1.15-1.15 1.15 1.15 0 0 0 1.15 1.15z"></path>
        <path d="m348.18 149.49a1.15 1.15 0 1 0 -1.15-1.15 1.15 1.15 0 0 0 1.15 1.15z"></path>
        <path d="m336.73 138a1.15 1.15 0 1 0 -1.15-1.14 1.14 1.14 0 0 0 1.15 1.14z"></path>
        <path d="m348.18 138a1.15 1.15 0 1 0 -1.18-1.1 1.14 1.14 0 0 0 1.18 1.1z"></path>
        <path d="m331 155.21a1.15 1.15 0 1 0 -1.14-1.14 1.14 1.14 0 0 0 1.14 1.14z"></path>
        <path d="m331 143.76a1.15 1.15 0 1 0 -1.14-1.14 1.14 1.14 0 0 0 1.14 1.14z"></path>
        <path d="m353.9 132.31a1.14 1.14 0 1 0 -1.15-1.14 1.14 1.14 0 0 0 1.15 1.14z"></path>
        <path d="m342.45 132.31a1.14 1.14 0 1 0 -1.14-1.14 1.15 1.15 0 0 0 1.14 1.14z"></path>
        <path d="m331 132.31a1.14 1.14 0 1 0 -1.14-1.14 1.14 1.14 0 0 0 1.14 1.14z"></path>
      </g>
      <g clip-path="url(#u)">
        <path d="m353.9 178.11a1.15 1.15 0 1 0 -1.15-1.15 1.15 1.15 0 0 0 1.15 1.15z"></path>
        <path d="m342.45 178.11a1.15 1.15 0 1 0 0-2.29 1.15 1.15 0 0 0 0 2.29z"></path>
        <path d="m353.9 166.66a1.15 1.15 0 1 0 -1.15-1.15 1.14 1.14 0 0 0 1.15 1.15z"></path>
        <path d="m342.45 166.66a1.15 1.15 0 1 0 -1.14-1.15 1.15 1.15 0 0 0 1.14 1.15z"></path>
        <path d="m336.73 172.38a1.15 1.15 0 1 0 -1.15-1.14 1.14 1.14 0 0 0 1.15 1.14z"></path>
        <path d="m348.18 172.38a1.15 1.15 0 1 0 -1.15-1.14 1.14 1.14 0 0 0 1.15 1.14z"></path>
        <path d="m336.73 160.93a1.15 1.15 0 0 0 0-2.29 1.15 1.15 0 1 0 0 2.29z"></path>
        <path d="m348.18 160.93a1.15 1.15 0 1 0 -1.15-1.14 1.14 1.14 0 0 0 1.15 1.14z"></path>
        <path d="m331 178.11a1.15 1.15 0 1 0 -1.14-1.15 1.15 1.15 0 0 0 1.14 1.15z"></path>
        <path d="m331 166.66a1.15 1.15 0 1 0 -1.14-1.15 1.14 1.14 0 0 0 1.14 1.15z"></path>
        <path d="m353.9 155.21a1.15 1.15 0 1 0 -1.15-1.14 1.14 1.14 0 0 0 1.15 1.14z"></path>
        <path d="m342.45 155.21a1.15 1.15 0 1 0 -1.14-1.14 1.15 1.15 0 0 0 1.14 1.14z"></path>
        <path d="m331 155.21a1.15 1.15 0 1 0 -1.14-1.14 1.14 1.14 0 0 0 1.14 1.14z"></path>
      </g>
      <g clip-path="url(#v)">
        <path d="m331 109.42a1.15 1.15 0 1 0 -1.14-1.14 1.14 1.14 0 0 0 1.14 1.14z"></path>
        <path d="m319.56 109.42a1.15 1.15 0 1 0 -1.15-1.14 1.14 1.14 0 0 0 1.15 1.14z"></path>
        <path d="m331 98a1.15 1.15 0 1 0 -1.14-1.14 1.14 1.14 0 0 0 1.14 1.14z"></path>
        <path d="m319.56 98a1.15 1.15 0 1 0 -1.15-1.14 1.14 1.14 0 0 0 1.15 1.14z"></path>
        <path d="m313.83 103.7a1.15 1.15 0 1 0 -1.14-1.15 1.15 1.15 0 0 0 1.14 1.15z"></path>
        <path d="m325.28 103.7a1.15 1.15 0 1 0 0-2.29 1.15 1.15 0 0 0 0 2.29z"></path>
        <path d="m313.83 92.25a1.15 1.15 0 1 0 -1.14-1.15 1.14 1.14 0 0 0 1.14 1.15z"></path>
        <path d="m325.28 92.25a1.15 1.15 0 1 0 -1.14-1.15 1.15 1.15 0 0 0 1.14 1.15z"></path>
        <path d="m308.11 109.42a1.15 1.15 0 1 0 -1.14-1.14 1.14 1.14 0 0 0 1.14 1.14z"></path>
        <path d="m308.11 98a1.15 1.15 0 1 0 -1.11-1.17 1.14 1.14 0 0 0 1.11 1.17z"></path>
        <path d="m331 86.52a1.14 1.14 0 1 0 -1.14-1.14 1.14 1.14 0 0 0 1.14 1.14z"></path>
        <path d="m319.56 86.52a1.14 1.14 0 1 0 -1.15-1.14 1.14 1.14 0 0 0 1.15 1.14z"></path>
        <path d="m308.11 86.52a1.14 1.14 0 1 0 -1.11-1.14 1.14 1.14 0 0 0 1.11 1.14z"></path>
      </g>
      <g clip-path="url(#w)">
        <path d="m331 132.31a1.14 1.14 0 1 0 -1.14-1.14 1.14 1.14 0 0 0 1.14 1.14z"></path>
        <path d="m319.56 132.31a1.14 1.14 0 1 0 -1.15-1.14 1.14 1.14 0 0 0 1.15 1.14z"></path>
        <path d="m331 120.87a1.15 1.15 0 1 0 -1.14-1.15 1.15 1.15 0 0 0 1.14 1.15z"></path>
        <path d="m319.56 120.87a1.15 1.15 0 1 0 -1.15-1.15 1.15 1.15 0 0 0 1.15 1.15z"></path>
        <path d="m313.83 126.59a1.15 1.15 0 1 0 -1.14-1.14 1.14 1.14 0 0 0 1.14 1.14z"></path>
        <path d="m325.28 126.59a1.15 1.15 0 1 0 -1.14-1.14 1.15 1.15 0 0 0 1.14 1.14z"></path>
        <path d="m313.83 115.14a1.15 1.15 0 1 0 -1.14-1.14 1.14 1.14 0 0 0 1.14 1.14z"></path>
        <path d="m325.28 115.14a1.15 1.15 0 1 0 -1.14-1.14 1.15 1.15 0 0 0 1.14 1.14z"></path>
        <path d="m308.11 132.31a1.14 1.14 0 1 0 -1.14-1.14 1.14 1.14 0 0 0 1.14 1.14z"></path>
        <path d="m308.11 120.87a1.15 1.15 0 1 0 -1.14-1.15 1.15 1.15 0 0 0 1.14 1.15z"></path>
        <path d="m331 109.42a1.15 1.15 0 1 0 -1.14-1.14 1.14 1.14 0 0 0 1.14 1.14z"></path>
        <path d="m319.56 109.42a1.15 1.15 0 1 0 -1.15-1.14 1.14 1.14 0 0 0 1.15 1.14z"></path>
        <path d="m308.11 109.42a1.15 1.15 0 1 0 -1.14-1.14 1.14 1.14 0 0 0 1.14 1.14z"></path>
      </g>
      <g clip-path="url(#x)">
        <path d="m331 155.21a1.15 1.15 0 1 0 -1.14-1.14 1.14 1.14 0 0 0 1.14 1.14z"></path>
        <path d="m319.56 155.21a1.15 1.15 0 1 0 -1.15-1.14 1.14 1.14 0 0 0 1.15 1.14z"></path>
        <path d="m331 143.76a1.15 1.15 0 1 0 -1.14-1.14 1.14 1.14 0 0 0 1.14 1.14z"></path>
        <path d="m319.56 143.76a1.15 1.15 0 1 0 -1.15-1.14 1.14 1.14 0 0 0 1.15 1.14z"></path>
        <path d="m313.83 149.49a1.15 1.15 0 1 0 -1.14-1.15 1.15 1.15 0 0 0 1.14 1.15z"></path>
        <path d="m325.28 149.49a1.15 1.15 0 1 0 0-2.29 1.15 1.15 0 0 0 0 2.29z"></path>
        <path d="m313.83 138a1.15 1.15 0 1 0 -1.14-1.14 1.14 1.14 0 0 0 1.14 1.14z"></path>
        <path d="m325.28 138a1.15 1.15 0 1 0 -1.14-1.14 1.15 1.15 0 0 0 1.14 1.14z"></path>
        <path d="m308.11 155.21a1.15 1.15 0 1 0 -1.14-1.14 1.14 1.14 0 0 0 1.14 1.14z"></path>
        <path d="m308.11 143.76a1.15 1.15 0 1 0 -1.14-1.14 1.14 1.14 0 0 0 1.14 1.14z"></path>
        <path d="m331 132.31a1.14 1.14 0 1 0 -1.14-1.14 1.14 1.14 0 0 0 1.14 1.14z"></path>
        <path d="m319.56 132.31a1.14 1.14 0 1 0 -1.15-1.14 1.14 1.14 0 0 0 1.15 1.14z"></path>
        <path d="m308.11 132.31a1.14 1.14 0 1 0 -1.14-1.14 1.14 1.14 0 0 0 1.14 1.14z"></path>
      </g>
      <g clip-path="url(#y)">
        <path d="m331 178.11a1.15 1.15 0 1 0 -1.14-1.15 1.15 1.15 0 0 0 1.14 1.15z"></path>
        <path d="m319.56 178.11a1.15 1.15 0 1 0 -1.15-1.15 1.15 1.15 0 0 0 1.15 1.15z"></path>
        <path d="m331 166.66a1.15 1.15 0 1 0 -1.14-1.15 1.14 1.14 0 0 0 1.14 1.15z"></path>
        <path d="m319.56 166.66a1.15 1.15 0 1 0 -1.15-1.15 1.14 1.14 0 0 0 1.15 1.15z"></path>
        <path d="m313.83 172.38a1.15 1.15 0 1 0 -1.14-1.14 1.14 1.14 0 0 0 1.14 1.14z"></path>
        <path d="m325.28 172.38a1.15 1.15 0 1 0 -1.14-1.14 1.15 1.15 0 0 0 1.14 1.14z"></path>
        <path d="m313.83 160.93a1.15 1.15 0 1 0 -1.14-1.14 1.14 1.14 0 0 0 1.14 1.14z"></path>
        <path d="m325.28 160.93a1.15 1.15 0 1 0 -1.14-1.14 1.15 1.15 0 0 0 1.14 1.14z"></path>
        <path d="m308.11 178.11a1.15 1.15 0 1 0 -1.11-1.11 1.15 1.15 0 0 0 1.11 1.11z"></path>
        <path d="m308.11 166.66a1.15 1.15 0 1 0 -1.14-1.15 1.14 1.14 0 0 0 1.14 1.15z"></path>
        <path d="m331 155.21a1.15 1.15 0 1 0 -1.14-1.14 1.14 1.14 0 0 0 1.14 1.14z"></path>
        <path d="m319.56 155.21a1.15 1.15 0 1 0 -1.15-1.14 1.14 1.14 0 0 0 1.15 1.14z"></path>
        <path d="m308.11 155.21a1.15 1.15 0 1 0 -1.14-1.14 1.14 1.14 0 0 0 1.14 1.14z"></path>
      </g>
      <g clip-path="url(#z)">
        <path d="m308.11 109.42a1.15 1.15 0 1 0 -1.14-1.14 1.14 1.14 0 0 0 1.14 1.14z"></path>
        <path d="m296.66 109.42a1.15 1.15 0 1 0 -1.14-1.14 1.15 1.15 0 0 0 1.14 1.14z"></path>
        <path d="m308.11 98a1.15 1.15 0 1 0 -1.11-1.17 1.14 1.14 0 0 0 1.11 1.17z"></path>
        <path d="m296.66 98a1.15 1.15 0 1 0 -1.14-1.14 1.15 1.15 0 0 0 1.14 1.14z"></path>
        <path d="m290.94 103.7a1.15 1.15 0 1 0 -1.15-1.15 1.15 1.15 0 0 0 1.15 1.15z"></path>
        <path d="m302.39 103.7a1.15 1.15 0 1 0 -1.15-1.15 1.15 1.15 0 0 0 1.15 1.15z"></path>
        <path d="m290.94 92.25a1.15 1.15 0 1 0 -1.15-1.15 1.14 1.14 0 0 0 1.15 1.15z"></path>
        <path d="m302.39 92.25a1.15 1.15 0 1 0 -1.15-1.15 1.14 1.14 0 0 0 1.15 1.15z"></path>
        <path d="m285.22 109.42a1.15 1.15 0 1 0 -1.15-1.14 1.14 1.14 0 0 0 1.15 1.14z"></path>
        <path d="m285.22 98a1.15 1.15 0 1 0 -1.15-1.14 1.14 1.14 0 0 0 1.15 1.14z"></path>
        <path d="m308.11 86.52a1.14 1.14 0 1 0 -1.11-1.14 1.14 1.14 0 0 0 1.11 1.14z"></path>
        <path d="m296.66 86.52a1.14 1.14 0 1 0 -1.14-1.14 1.15 1.15 0 0 0 1.14 1.14z"></path>
        <path d="m285.22 86.52a1.14 1.14 0 1 0 -1.15-1.14 1.14 1.14 0 0 0 1.15 1.14z"></path>
      </g>
      <g clip-path="url(#A)">
        <path d="m308.11 132.31a1.14 1.14 0 1 0 -1.14-1.14 1.14 1.14 0 0 0 1.14 1.14z"></path>
        <path d="m296.66 132.31a1.14 1.14 0 1 0 -1.14-1.14 1.15 1.15 0 0 0 1.14 1.14z"></path>
        <path d="m308.11 120.87a1.15 1.15 0 1 0 -1.14-1.15 1.15 1.15 0 0 0 1.14 1.15z"></path>
        <path d="m296.66 120.87a1.15 1.15 0 1 0 0-2.29 1.15 1.15 0 0 0 0 2.29z"></path>
        <path d="m290.94 126.59a1.15 1.15 0 1 0 -1.15-1.14 1.14 1.14 0 0 0 1.15 1.14z"></path>
        <path d="m302.39 126.59a1.15 1.15 0 1 0 -1.15-1.14 1.14 1.14 0 0 0 1.15 1.14z"></path>
        <path d="m290.94 115.14a1.15 1.15 0 0 0 0-2.29 1.15 1.15 0 1 0 0 2.29z"></path>
        <path d="m302.39 115.14a1.15 1.15 0 1 0 -1.15-1.14 1.14 1.14 0 0 0 1.15 1.14z"></path>
        <path d="m285.22 132.31a1.14 1.14 0 1 0 -1.15-1.14 1.14 1.14 0 0 0 1.15 1.14z"></path>
        <path d="m285.22 120.87a1.15 1.15 0 1 0 -1.15-1.15 1.15 1.15 0 0 0 1.15 1.15z"></path>
        <path d="m308.11 109.42a1.15 1.15 0 1 0 -1.14-1.14 1.14 1.14 0 0 0 1.14 1.14z"></path>
        <path d="m296.66 109.42a1.15 1.15 0 1 0 -1.14-1.14 1.15 1.15 0 0 0 1.14 1.14z"></path>
        <path d="m285.22 109.42a1.15 1.15 0 1 0 -1.15-1.14 1.14 1.14 0 0 0 1.15 1.14z"></path>
      </g>
      <g clip-path="url(#B)">
        <path d="m308.11 155.21a1.15 1.15 0 1 0 -1.14-1.14 1.14 1.14 0 0 0 1.14 1.14z"></path>
        <path d="m296.66 155.21a1.15 1.15 0 1 0 -1.14-1.14 1.15 1.15 0 0 0 1.14 1.14z"></path>
        <path d="m308.11 143.76a1.15 1.15 0 1 0 -1.14-1.14 1.14 1.14 0 0 0 1.14 1.14z"></path>
        <path d="m296.66 143.76a1.15 1.15 0 1 0 -1.14-1.14 1.15 1.15 0 0 0 1.14 1.14z"></path>
        <path d="m290.94 149.49a1.15 1.15 0 1 0 -1.15-1.15 1.15 1.15 0 0 0 1.15 1.15z"></path>
        <path d="m302.39 149.49a1.15 1.15 0 1 0 -1.15-1.15 1.15 1.15 0 0 0 1.15 1.15z"></path>
        <path d="m290.94 138a1.15 1.15 0 1 0 -1.15-1.14 1.14 1.14 0 0 0 1.15 1.14z"></path>
        <path d="m302.39 138a1.15 1.15 0 1 0 -1.15-1.14 1.14 1.14 0 0 0 1.15 1.14z"></path>
        <path d="m285.22 155.21a1.15 1.15 0 1 0 -1.15-1.14 1.14 1.14 0 0 0 1.15 1.14z"></path>
        <path d="m285.22 143.76a1.15 1.15 0 1 0 -1.15-1.14 1.14 1.14 0 0 0 1.15 1.14z"></path>
        <path d="m308.11 132.31a1.14 1.14 0 1 0 -1.14-1.14 1.14 1.14 0 0 0 1.14 1.14z"></path>
        <path d="m296.66 132.31a1.14 1.14 0 1 0 -1.14-1.14 1.15 1.15 0 0 0 1.14 1.14z"></path>
        <path d="m285.22 132.31a1.14 1.14 0 1 0 -1.15-1.14 1.14 1.14 0 0 0 1.15 1.14z"></path>
      </g>
      <g clip-path="url(#C)">
        <path d="m308.11 178.11a1.15 1.15 0 1 0 -1.11-1.11 1.15 1.15 0 0 0 1.11 1.11z"></path>
        <path d="m296.66 178.11a1.15 1.15 0 1 0 0-2.29 1.15 1.15 0 0 0 0 2.29z"></path>
        <path d="m308.11 166.66a1.15 1.15 0 1 0 -1.14-1.15 1.14 1.14 0 0 0 1.14 1.15z"></path>
        <path d="m296.66 166.66a1.15 1.15 0 1 0 -1.14-1.15 1.15 1.15 0 0 0 1.14 1.15z"></path>
        <path d="m290.94 172.38a1.15 1.15 0 1 0 -1.15-1.14 1.14 1.14 0 0 0 1.15 1.14z"></path>
        <path d="m302.39 172.38a1.15 1.15 0 1 0 -1.15-1.14 1.14 1.14 0 0 0 1.15 1.14z"></path>
        <path d="m290.94 160.93a1.15 1.15 0 0 0 0-2.29 1.15 1.15 0 1 0 0 2.29z"></path>
        <path d="m302.39 160.93a1.15 1.15 0 1 0 -1.15-1.14 1.14 1.14 0 0 0 1.15 1.14z"></path>
        <path d="m285.22 178.11a1.15 1.15 0 1 0 -1.15-1.15 1.15 1.15 0 0 0 1.15 1.15z"></path>
        <path d="m285.22 166.66a1.15 1.15 0 1 0 -1.15-1.15 1.14 1.14 0 0 0 1.15 1.15z"></path>
        <path d="m308.11 155.21a1.15 1.15 0 1 0 -1.14-1.14 1.14 1.14 0 0 0 1.14 1.14z"></path>
        <path d="m296.66 155.21a1.15 1.15 0 1 0 -1.14-1.14 1.15 1.15 0 0 0 1.14 1.14z"></path>
        <path d="m285.22 155.21a1.15 1.15 0 1 0 -1.15-1.14 1.14 1.14 0 0 0 1.15 1.14z"></path>
      </g>
      <g clip-path="url(#D)">
        <path d="m285.22 109.42a1.15 1.15 0 1 0 -1.15-1.14 1.14 1.14 0 0 0 1.15 1.14z"></path>
        <path d="m273.77 109.42a1.15 1.15 0 1 0 -1.15-1.14 1.14 1.14 0 0 0 1.15 1.14z"></path>
        <path d="m285.22 98a1.15 1.15 0 1 0 -1.15-1.14 1.14 1.14 0 0 0 1.15 1.14z"></path>
        <path d="m273.77 98a1.15 1.15 0 0 0 0-2.29 1.15 1.15 0 1 0 0 2.29z"></path>
        <path d="m268 103.7a1.15 1.15 0 1 0 -1.14-1.15 1.15 1.15 0 0 0 1.14 1.15z"></path>
        <path d="m279.49 103.7a1.15 1.15 0 1 0 0-2.29 1.15 1.15 0 0 0 0 2.29z"></path>
        <path d="m268 92.25a1.15 1.15 0 1 0 -1.14-1.15 1.14 1.14 0 0 0 1.14 1.15z"></path>
        <path d="m279.49 92.25a1.15 1.15 0 1 0 -1.14-1.15 1.15 1.15 0 0 0 1.14 1.15z"></path>
        <path d="m262.32 109.42a1.15 1.15 0 1 0 -1.14-1.14 1.15 1.15 0 0 0 1.14 1.14z"></path>
        <path d="m262.32 98a1.15 1.15 0 1 0 -1.14-1.14 1.15 1.15 0 0 0 1.14 1.14z"></path>
        <path d="m285.22 86.52a1.14 1.14 0 1 0 -1.15-1.14 1.14 1.14 0 0 0 1.15 1.14z"></path>
        <path d="m273.77 86.52a1.14 1.14 0 1 0 -1.15-1.14 1.14 1.14 0 0 0 1.15 1.14z"></path>
        <path d="m262.32 86.52a1.14 1.14 0 1 0 -1.14-1.14 1.15 1.15 0 0 0 1.14 1.14z"></path>
      </g>
      <g clip-path="url(#E)">
        <path d="m285.22 132.31a1.14 1.14 0 1 0 -1.15-1.14 1.14 1.14 0 0 0 1.15 1.14z"></path>
        <path d="m273.77 132.31a1.14 1.14 0 1 0 -1.15-1.14 1.14 1.14 0 0 0 1.15 1.14z"></path>
        <path d="m285.22 120.87a1.15 1.15 0 1 0 -1.15-1.15 1.15 1.15 0 0 0 1.15 1.15z"></path>
        <path d="m273.77 120.87a1.15 1.15 0 1 0 -1.15-1.15 1.15 1.15 0 0 0 1.15 1.15z"></path>
        <path d="m268 126.59a1.15 1.15 0 1 0 -1.14-1.14 1.14 1.14 0 0 0 1.14 1.14z"></path>
        <path d="m279.49 126.59a1.15 1.15 0 1 0 -1.14-1.14 1.15 1.15 0 0 0 1.14 1.14z"></path>
        <path d="m268 115.14a1.15 1.15 0 1 0 -1.1-1.14 1.14 1.14 0 0 0 1.1 1.14z"></path>
        <path d="m279.49 115.14a1.15 1.15 0 1 0 -1.14-1.14 1.15 1.15 0 0 0 1.14 1.14z"></path>
        <path d="m262.32 132.31a1.14 1.14 0 1 0 -1.14-1.14 1.15 1.15 0 0 0 1.14 1.14z"></path>
        <path d="m262.32 120.87a1.15 1.15 0 1 0 0-2.29 1.15 1.15 0 0 0 0 2.29z"></path>
        <path d="m285.22 109.42a1.15 1.15 0 1 0 -1.15-1.14 1.14 1.14 0 0 0 1.15 1.14z"></path>
        <path d="m273.77 109.42a1.15 1.15 0 1 0 -1.15-1.14 1.14 1.14 0 0 0 1.15 1.14z"></path>
        <path d="m262.32 109.42a1.15 1.15 0 1 0 -1.14-1.14 1.15 1.15 0 0 0 1.14 1.14z"></path>
      </g>
      <g clip-path="url(#F)">
        <path d="m285.22 155.21a1.15 1.15 0 1 0 -1.15-1.14 1.14 1.14 0 0 0 1.15 1.14z"></path>
        <path d="m273.77 155.21a1.15 1.15 0 1 0 -1.15-1.14 1.14 1.14 0 0 0 1.15 1.14z"></path>
        <path d="m285.22 143.76a1.15 1.15 0 1 0 -1.15-1.14 1.14 1.14 0 0 0 1.15 1.14z"></path>
        <path d="m273.77 143.76a1.15 1.15 0 0 0 0-2.29 1.15 1.15 0 1 0 0 2.29z"></path>
        <path d="m268 149.49a1.15 1.15 0 1 0 -1.14-1.15 1.15 1.15 0 0 0 1.14 1.15z"></path>
        <path d="m279.49 149.49a1.15 1.15 0 1 0 0-2.29 1.15 1.15 0 0 0 0 2.29z"></path>
        <path d="m268 138a1.15 1.15 0 1 0 -1.14-1.14 1.14 1.14 0 0 0 1.14 1.14z"></path>
        <path d="m279.49 138a1.15 1.15 0 1 0 -1.14-1.14 1.15 1.15 0 0 0 1.14 1.14z"></path>
        <path d="m262.32 155.21a1.15 1.15 0 1 0 -1.14-1.14 1.15 1.15 0 0 0 1.14 1.14z"></path>
        <path d="m262.32 143.76a1.15 1.15 0 1 0 -1.14-1.14 1.15 1.15 0 0 0 1.14 1.14z"></path>
        <path d="m285.22 132.31a1.14 1.14 0 1 0 -1.15-1.14 1.14 1.14 0 0 0 1.15 1.14z"></path>
        <path d="m273.77 132.31a1.14 1.14 0 1 0 -1.15-1.14 1.14 1.14 0 0 0 1.15 1.14z"></path>
        <path d="m262.32 132.31a1.14 1.14 0 1 0 -1.14-1.14 1.15 1.15 0 0 0 1.14 1.14z"></path>
      </g>
      <g clip-path="url(#G)">
        <path d="m285.22 178.11a1.15 1.15 0 1 0 -1.15-1.15 1.15 1.15 0 0 0 1.15 1.15z"></path>
        <path d="m273.77 178.11a1.15 1.15 0 1 0 -1.15-1.15 1.15 1.15 0 0 0 1.15 1.15z"></path>
        <path d="m285.22 166.66a1.15 1.15 0 1 0 -1.15-1.15 1.14 1.14 0 0 0 1.15 1.15z"></path>
        <path d="m273.77 166.66a1.15 1.15 0 1 0 -1.15-1.15 1.14 1.14 0 0 0 1.15 1.15z"></path>
        <path d="m268 172.38a1.15 1.15 0 1 0 -1.14-1.14 1.14 1.14 0 0 0 1.14 1.14z"></path>
        <path d="m279.49 172.38a1.15 1.15 0 1 0 -1.14-1.14 1.15 1.15 0 0 0 1.14 1.14z"></path>
        <path d="m268 160.93a1.15 1.15 0 1 0 -1.14-1.14 1.14 1.14 0 0 0 1.14 1.14z"></path>
        <path d="m279.49 160.93a1.15 1.15 0 1 0 -1.14-1.14 1.15 1.15 0 0 0 1.14 1.14z"></path>
        <path d="m262.32 178.11a1.15 1.15 0 1 0 0-2.29 1.15 1.15 0 0 0 0 2.29z"></path>
        <path d="m262.32 166.66a1.15 1.15 0 1 0 -1.14-1.15 1.15 1.15 0 0 0 1.14 1.15z"></path>
        <path d="m285.22 155.21a1.15 1.15 0 1 0 -1.15-1.14 1.14 1.14 0 0 0 1.15 1.14z"></path>
        <path d="m273.77 155.21a1.15 1.15 0 1 0 -1.15-1.14 1.14 1.14 0 0 0 1.15 1.14z"></path>
        <path d="m262.32 155.21a1.15 1.15 0 1 0 -1.14-1.14 1.15 1.15 0 0 0 1.14 1.14z"></path>
      </g>
      <g clip-path="url(#H)">
        <path d="m262.32 109.42a1.15 1.15 0 1 0 -1.14-1.14 1.15 1.15 0 0 0 1.14 1.14z"></path>
        <path d="m250.87 109.42a1.15 1.15 0 1 0 -1.14-1.14 1.14 1.14 0 0 0 1.14 1.14z"></path>
        <path d="m262.32 98a1.15 1.15 0 1 0 -1.14-1.14 1.15 1.15 0 0 0 1.14 1.14z"></path>
        <path d="m250.87 98a1.15 1.15 0 1 0 -1.14-1.14 1.14 1.14 0 0 0 1.14 1.14z"></path>
        <path d="m245.15 103.7a1.15 1.15 0 1 0 0-2.29 1.15 1.15 0 0 0 0 2.29z"></path>
        <path d="m256.6 103.7a1.15 1.15 0 1 0 -1.15-1.15 1.15 1.15 0 0 0 1.15 1.15z"></path>
        <path d="m245.15 92.25a1.15 1.15 0 1 0 -1.15-1.15 1.15 1.15 0 0 0 1.15 1.15z"></path>
        <path d="m256.6 92.25a1.15 1.15 0 1 0 -1.15-1.15 1.14 1.14 0 0 0 1.15 1.15z"></path>
        <path d="m239.43 109.42a1.15 1.15 0 1 0 -1.15-1.14 1.14 1.14 0 0 0 1.15 1.14z"></path>
        <path d="m239.43 98a1.15 1.15 0 1 0 -1.15-1.14 1.14 1.14 0 0 0 1.15 1.14z"></path>
        <path d="m262.32 86.52a1.14 1.14 0 1 0 -1.14-1.14 1.15 1.15 0 0 0 1.14 1.14z"></path>
        <path d="m250.87 86.52a1.14 1.14 0 1 0 -1.14-1.14 1.14 1.14 0 0 0 1.14 1.14z"></path>
        <path d="m239.43 86.52a1.14 1.14 0 1 0 -1.15-1.14 1.14 1.14 0 0 0 1.15 1.14z"></path>
      </g>
      <g clip-path="url(#I)">
        <path d="m262.32 132.31a1.14 1.14 0 1 0 -1.14-1.14 1.15 1.15 0 0 0 1.14 1.14z"></path>
        <path d="m250.87 132.31a1.14 1.14 0 1 0 -1.14-1.14 1.14 1.14 0 0 0 1.14 1.14z"></path>
        <path d="m262.32 120.87a1.15 1.15 0 1 0 0-2.29 1.15 1.15 0 0 0 0 2.29z"></path>
        <path d="m250.87 120.87a1.15 1.15 0 1 0 -1.14-1.15 1.15 1.15 0 0 0 1.14 1.15z"></path>
        <path d="m245.15 126.59a1.15 1.15 0 1 0 -1.14-1.14 1.15 1.15 0 0 0 1.14 1.14z"></path>
        <path d="m256.6 126.59a1.15 1.15 0 1 0 -1.15-1.14 1.14 1.14 0 0 0 1.15 1.14z"></path>
        <path d="m245.15 115.14a1.15 1.15 0 1 0 -1.15-1.14 1.15 1.15 0 0 0 1.15 1.14z"></path>
        <path d="m256.6 115.14a1.15 1.15 0 1 0 -1.15-1.14 1.14 1.14 0 0 0 1.15 1.14z"></path>
        <path d="m239.43 132.31a1.14 1.14 0 1 0 -1.15-1.14 1.14 1.14 0 0 0 1.15 1.14z"></path>
        <path d="m239.43 120.87a1.15 1.15 0 1 0 -1.15-1.15 1.15 1.15 0 0 0 1.15 1.15z"></path>
        <path d="m262.32 109.42a1.15 1.15 0 1 0 -1.14-1.14 1.15 1.15 0 0 0 1.14 1.14z"></path>
        <path d="m250.87 109.42a1.15 1.15 0 1 0 -1.14-1.14 1.14 1.14 0 0 0 1.14 1.14z"></path>
        <path d="m239.43 109.42a1.15 1.15 0 1 0 -1.15-1.14 1.14 1.14 0 0 0 1.15 1.14z"></path>
      </g>
      <g clip-path="url(#J)">
        <path d="m262.32 155.21a1.15 1.15 0 1 0 -1.14-1.14 1.15 1.15 0 0 0 1.14 1.14z"></path>
        <path d="m250.87 155.21a1.15 1.15 0 1 0 -1.14-1.14 1.14 1.14 0 0 0 1.14 1.14z"></path>
        <path d="m262.32 143.76a1.15 1.15 0 1 0 -1.14-1.14 1.15 1.15 0 0 0 1.14 1.14z"></path>
        <path d="m250.87 143.76a1.15 1.15 0 1 0 -1.14-1.14 1.14 1.14 0 0 0 1.14 1.14z"></path>
        <path d="m245.15 149.49a1.15 1.15 0 1 0 0-2.29 1.15 1.15 0 0 0 0 2.29z"></path>
        <path d="m256.6 149.49a1.15 1.15 0 1 0 -1.15-1.15 1.15 1.15 0 0 0 1.15 1.15z"></path>
        <path d="m245.15 138a1.15 1.15 0 1 0 -1.15-1.1 1.15 1.15 0 0 0 1.15 1.1z"></path>
        <path d="m256.6 138a1.15 1.15 0 1 0 -1.15-1.14 1.14 1.14 0 0 0 1.15 1.14z"></path>
        <path d="m239.43 155.21a1.15 1.15 0 1 0 -1.15-1.14 1.14 1.14 0 0 0 1.15 1.14z"></path>
        <path d="m239.43 143.76a1.15 1.15 0 1 0 -1.15-1.14 1.14 1.14 0 0 0 1.15 1.14z"></path>
        <path d="m262.32 132.31a1.14 1.14 0 1 0 -1.14-1.14 1.15 1.15 0 0 0 1.14 1.14z"></path>
        <path d="m250.87 132.31a1.14 1.14 0 1 0 -1.14-1.14 1.14 1.14 0 0 0 1.14 1.14z"></path>
        <path d="m239.43 132.31a1.14 1.14 0 1 0 -1.15-1.14 1.14 1.14 0 0 0 1.15 1.14z"></path>
      </g>
      <g clip-path="url(#K)">
        <path d="m262.32 178.11a1.15 1.15 0 1 0 0-2.29 1.15 1.15 0 0 0 0 2.29z"></path>
        <path d="m250.87 178.11a1.15 1.15 0 1 0 -1.14-1.15 1.15 1.15 0 0 0 1.14 1.15z"></path>
        <path d="m262.32 166.66a1.15 1.15 0 1 0 -1.14-1.15 1.15 1.15 0 0 0 1.14 1.15z"></path>
        <path d="m250.87 166.66a1.15 1.15 0 1 0 -1.14-1.15 1.14 1.14 0 0 0 1.14 1.15z"></path>
        <path d="m245.15 172.38a1.15 1.15 0 1 0 -1.14-1.14 1.15 1.15 0 0 0 1.14 1.14z"></path>
        <path d="m256.6 172.38a1.15 1.15 0 1 0 -1.15-1.14 1.14 1.14 0 0 0 1.15 1.14z"></path>
        <path d="m245.15 160.93a1.15 1.15 0 1 0 -1.14-1.14 1.15 1.15 0 0 0 1.14 1.14z"></path>
        <path d="m256.6 160.93a1.15 1.15 0 1 0 -1.15-1.14 1.14 1.14 0 0 0 1.15 1.14z"></path>
        <path d="m239.43 178.11a1.15 1.15 0 1 0 -1.15-1.15 1.15 1.15 0 0 0 1.15 1.15z"></path>
        <path d="m239.43 166.66a1.15 1.15 0 1 0 -1.15-1.15 1.14 1.14 0 0 0 1.15 1.15z"></path>
        <path d="m262.32 155.21a1.15 1.15 0 1 0 -1.14-1.14 1.15 1.15 0 0 0 1.14 1.14z"></path>
        <path d="m250.87 155.21a1.15 1.15 0 1 0 -1.14-1.14 1.14 1.14 0 0 0 1.14 1.14z"></path>
        <path d="m239.43 155.21a1.15 1.15 0 1 0 -1.15-1.14 1.14 1.14 0 0 0 1.15 1.14z"></path>
      </g>
      <g clip-path="url(#L)">
        <path d="m239.43 109.42a1.15 1.15 0 1 0 -1.15-1.14 1.14 1.14 0 0 0 1.15 1.14z"></path>
        <path d="m228 109.42a1.15 1.15 0 1 0 -1.14-1.14 1.14 1.14 0 0 0 1.14 1.14z"></path>
        <path d="m239.43 98a1.15 1.15 0 1 0 -1.15-1.14 1.14 1.14 0 0 0 1.15 1.14z"></path>
        <path d="m228 98a1.15 1.15 0 1 0 -1.14-1.14 1.14 1.14 0 0 0 1.14 1.14z"></path>
        <path d="m222.26 103.7a1.15 1.15 0 1 0 -1.15-1.15 1.15 1.15 0 0 0 1.15 1.15z"></path>
        <path d="m233.7 103.7a1.15 1.15 0 1 0 -1.14-1.15 1.15 1.15 0 0 0 1.14 1.15z"></path>
        <path d="m222.26 92.25a1.15 1.15 0 1 0 -1.15-1.15 1.14 1.14 0 0 0 1.15 1.15z"></path>
        <path d="m233.7 92.25a1.15 1.15 0 1 0 -1.14-1.15 1.14 1.14 0 0 0 1.14 1.15z"></path>
        <path d="m216.53 109.42a1.15 1.15 0 1 0 -1.14-1.14 1.15 1.15 0 0 0 1.14 1.14z"></path>
        <path d="m216.53 98a1.15 1.15 0 1 0 -1.14-1.14 1.15 1.15 0 0 0 1.14 1.14z"></path>
        <path d="m239.43 86.52a1.14 1.14 0 1 0 -1.15-1.14 1.14 1.14 0 0 0 1.15 1.14z"></path>
        <path d="m228 86.52a1.14 1.14 0 1 0 -1.14-1.14 1.14 1.14 0 0 0 1.14 1.14z"></path>
        <path d="m216.53 86.52a1.14 1.14 0 1 0 -1.14-1.14 1.15 1.15 0 0 0 1.14 1.14z"></path>
      </g>
      <g clip-path="url(#M)">
        <path d="m239.43 132.31a1.14 1.14 0 1 0 -1.15-1.14 1.14 1.14 0 0 0 1.15 1.14z"></path>
        <path d="m228 132.31a1.14 1.14 0 1 0 -1.14-1.14 1.14 1.14 0 0 0 1.14 1.14z"></path>
        <path d="m239.43 120.87a1.15 1.15 0 1 0 -1.15-1.15 1.15 1.15 0 0 0 1.15 1.15z"></path>
        <path d="m228 120.87a1.15 1.15 0 1 0 -1.14-1.15 1.15 1.15 0 0 0 1.14 1.15z"></path>
        <path d="m222.26 126.59a1.15 1.15 0 1 0 -1.15-1.14 1.14 1.14 0 0 0 1.15 1.14z"></path>
        <path d="m233.7 126.59a1.15 1.15 0 1 0 -1.14-1.14 1.14 1.14 0 0 0 1.14 1.14z"></path>
        <path d="m222.26 115.14a1.15 1.15 0 1 0 -1.15-1.14 1.14 1.14 0 0 0 1.15 1.14z"></path>
        <path d="m233.7 115.14a1.15 1.15 0 1 0 -1.14-1.14 1.14 1.14 0 0 0 1.14 1.14z"></path>
        <path d="m216.53 132.31a1.14 1.14 0 1 0 -1.14-1.14 1.15 1.15 0 0 0 1.14 1.14z"></path>
        <path d="m216.53 120.87a1.15 1.15 0 1 0 0-2.29 1.15 1.15 0 0 0 0 2.29z"></path>
        <path d="m239.43 109.42a1.15 1.15 0 1 0 -1.15-1.14 1.14 1.14 0 0 0 1.15 1.14z"></path>
        <path d="m228 109.42a1.15 1.15 0 1 0 -1.14-1.14 1.14 1.14 0 0 0 1.14 1.14z"></path>
        <path d="m216.53 109.42a1.15 1.15 0 1 0 -1.14-1.14 1.15 1.15 0 0 0 1.14 1.14z"></path>
      </g>
      <g clip-path="url(#N)">
        <path d="m239.43 155.21a1.15 1.15 0 1 0 -1.15-1.14 1.14 1.14 0 0 0 1.15 1.14z"></path>
        <path d="m228 155.21a1.15 1.15 0 1 0 -1.14-1.14 1.14 1.14 0 0 0 1.14 1.14z"></path>
        <path d="m239.43 143.76a1.15 1.15 0 1 0 -1.15-1.14 1.14 1.14 0 0 0 1.15 1.14z"></path>
        <path d="m228 143.76a1.15 1.15 0 1 0 -1.14-1.14 1.14 1.14 0 0 0 1.14 1.14z"></path>
        <path d="m222.26 149.49a1.15 1.15 0 1 0 -1.15-1.15 1.15 1.15 0 0 0 1.15 1.15z"></path>
        <path d="m233.7 149.49a1.15 1.15 0 1 0 -1.14-1.15 1.15 1.15 0 0 0 1.14 1.15z"></path>
        <path d="m222.26 138a1.15 1.15 0 1 0 -1.15-1.14 1.14 1.14 0 0 0 1.15 1.14z"></path>
        <path d="m233.7 138a1.15 1.15 0 1 0 -1.14-1.14 1.14 1.14 0 0 0 1.14 1.14z"></path>
        <path d="m216.53 155.21a1.15 1.15 0 1 0 -1.14-1.14 1.15 1.15 0 0 0 1.14 1.14z"></path>
        <path d="m216.53 143.76a1.15 1.15 0 1 0 -1.14-1.14 1.15 1.15 0 0 0 1.14 1.14z"></path>
        <path d="m239.43 132.31a1.14 1.14 0 1 0 -1.15-1.14 1.14 1.14 0 0 0 1.15 1.14z"></path>
        <path d="m228 132.31a1.14 1.14 0 1 0 -1.14-1.14 1.14 1.14 0 0 0 1.14 1.14z"></path>
        <path d="m216.53 132.31a1.14 1.14 0 1 0 -1.14-1.14 1.15 1.15 0 0 0 1.14 1.14z"></path>
      </g>
      <g clip-path="url(#O)">
        <path d="m239.43 178.11a1.15 1.15 0 1 0 -1.15-1.15 1.15 1.15 0 0 0 1.15 1.15z"></path>
        <path d="m228 178.11a1.15 1.15 0 1 0 -1.14-1.15 1.15 1.15 0 0 0 1.14 1.15z"></path>
        <path d="m239.43 166.66a1.15 1.15 0 1 0 -1.15-1.15 1.14 1.14 0 0 0 1.15 1.15z"></path>
        <path d="m228 166.66a1.15 1.15 0 1 0 -1.14-1.15 1.14 1.14 0 0 0 1.14 1.15z"></path>
        <path d="m222.26 172.38a1.15 1.15 0 1 0 -1.15-1.14 1.14 1.14 0 0 0 1.15 1.14z"></path>
        <path d="m233.7 172.38a1.15 1.15 0 1 0 -1.14-1.14 1.14 1.14 0 0 0 1.14 1.14z"></path>
        <path d="m222.26 160.93a1.15 1.15 0 1 0 -1.15-1.14 1.14 1.14 0 0 0 1.15 1.14z"></path>
        <path d="m233.7 160.93a1.15 1.15 0 1 0 -1.14-1.14 1.14 1.14 0 0 0 1.14 1.14z"></path>
        <path d="m216.53 178.11a1.15 1.15 0 1 0 0-2.29 1.15 1.15 0 0 0 0 2.29z"></path>
        <path d="m216.53 166.66a1.15 1.15 0 1 0 -1.14-1.15 1.15 1.15 0 0 0 1.14 1.15z"></path>
        <path d="m239.43 155.21a1.15 1.15 0 1 0 -1.15-1.14 1.14 1.14 0 0 0 1.15 1.14z"></path>
        <path d="m228 155.21a1.15 1.15 0 1 0 -1.14-1.14 1.14 1.14 0 0 0 1.14 1.14z"></path>
        <path d="m216.53 155.21a1.15 1.15 0 1 0 -1.14-1.14 1.15 1.15 0 0 0 1.14 1.14z"></path>
      </g>
      <g clip-path="url(#P)">
        <path d="m216.53 109.42a1.15 1.15 0 1 0 -1.14-1.14 1.15 1.15 0 0 0 1.14 1.14z"></path>
        <path d="m205.08 109.42a1.15 1.15 0 1 0 -1.14-1.14 1.14 1.14 0 0 0 1.14 1.14z"></path>
        <path d="m216.53 98a1.15 1.15 0 1 0 -1.14-1.14 1.15 1.15 0 0 0 1.14 1.14z"></path>
        <path d="m205.08 98a1.15 1.15 0 1 0 -1.14-1.14 1.14 1.14 0 0 0 1.14 1.14z"></path>
        <path d="m199.36 103.7a1.15 1.15 0 1 0 0-2.29 1.15 1.15 0 0 0 0 2.29z"></path>
        <path d="m210.81 103.7a1.15 1.15 0 1 0 -1.15-1.15 1.15 1.15 0 0 0 1.15 1.15z"></path>
        <path d="m199.36 92.25a1.15 1.15 0 1 0 -1.14-1.15 1.15 1.15 0 0 0 1.14 1.15z"></path>
        <path d="m210.81 92.25a1.15 1.15 0 1 0 -1.15-1.15 1.14 1.14 0 0 0 1.15 1.15z"></path>
        <path d="m193.64 109.42a1.15 1.15 0 1 0 -1.15-1.14 1.14 1.14 0 0 0 1.15 1.14z"></path>
        <path d="m193.64 98a1.15 1.15 0 0 0 0-2.29 1.15 1.15 0 1 0 0 2.29z"></path>
        <path d="m216.53 86.52a1.14 1.14 0 1 0 -1.14-1.14 1.15 1.15 0 0 0 1.14 1.14z"></path>
        <path d="m205.08 86.52a1.14 1.14 0 1 0 -1.14-1.14 1.14 1.14 0 0 0 1.14 1.14z"></path>
        <path d="m193.64 86.52a1.14 1.14 0 1 0 -1.15-1.14 1.14 1.14 0 0 0 1.15 1.14z"></path>
      </g>
      <g clip-path="url(#Q)">
        <path d="m216.53 132.31a1.14 1.14 0 1 0 -1.14-1.14 1.15 1.15 0 0 0 1.14 1.14z"></path>
        <path d="m205.08 132.31a1.14 1.14 0 1 0 -1.14-1.14 1.14 1.14 0 0 0 1.14 1.14z"></path>
        <path d="m216.53 120.87a1.15 1.15 0 1 0 0-2.29 1.15 1.15 0 0 0 0 2.29z"></path>
        <path d="m205.08 120.87a1.15 1.15 0 1 0 -1.14-1.15 1.15 1.15 0 0 0 1.14 1.15z"></path>
        <path d="m199.36 126.59a1.15 1.15 0 1 0 -1.14-1.14 1.15 1.15 0 0 0 1.14 1.14z"></path>
        <path d="m210.81 126.59a1.15 1.15 0 1 0 -1.15-1.14 1.14 1.14 0 0 0 1.15 1.14z"></path>
        <path d="m199.36 115.14a1.15 1.15 0 1 0 -1.14-1.14 1.15 1.15 0 0 0 1.14 1.14z"></path>
        <path d="m210.81 115.14a1.15 1.15 0 0 0 0-2.29 1.15 1.15 0 1 0 0 2.29z"></path>
        <path d="m193.64 132.31a1.14 1.14 0 1 0 -1.15-1.14 1.14 1.14 0 0 0 1.15 1.14z"></path>
        <path d="m193.64 120.87a1.15 1.15 0 1 0 -1.15-1.15 1.15 1.15 0 0 0 1.15 1.15z"></path>
        <path d="m216.53 109.42a1.15 1.15 0 1 0 -1.14-1.14 1.15 1.15 0 0 0 1.14 1.14z"></path>
        <path d="m205.08 109.42a1.15 1.15 0 1 0 -1.14-1.14 1.14 1.14 0 0 0 1.14 1.14z"></path>
        <path d="m193.64 109.42a1.15 1.15 0 1 0 -1.15-1.14 1.14 1.14 0 0 0 1.15 1.14z"></path>
      </g>
      <g clip-path="url(#R)">
        <path d="m216.53 155.21a1.15 1.15 0 1 0 -1.14-1.14 1.15 1.15 0 0 0 1.14 1.14z"></path>
        <path d="m205.08 155.21a1.15 1.15 0 1 0 -1.14-1.14 1.14 1.14 0 0 0 1.14 1.14z"></path>
        <path d="m216.53 143.76a1.15 1.15 0 1 0 -1.14-1.14 1.15 1.15 0 0 0 1.14 1.14z"></path>
        <path d="m205.08 143.76a1.15 1.15 0 1 0 -1.14-1.14 1.14 1.14 0 0 0 1.14 1.14z"></path>
        <path d="m199.36 149.49a1.15 1.15 0 1 0 0-2.29 1.15 1.15 0 0 0 0 2.29z"></path>
        <path d="m210.81 149.49a1.15 1.15 0 1 0 -1.15-1.15 1.15 1.15 0 0 0 1.15 1.15z"></path>
        <path d="m199.36 138a1.15 1.15 0 1 0 -1.14-1.14 1.15 1.15 0 0 0 1.14 1.14z"></path>
        <path d="m210.81 138a1.15 1.15 0 1 0 -1.15-1.14 1.14 1.14 0 0 0 1.15 1.14z"></path>
        <path d="m193.64 155.21a1.15 1.15 0 1 0 -1.15-1.14 1.14 1.14 0 0 0 1.15 1.14z"></path>
        <path d="m193.64 143.76a1.15 1.15 0 0 0 0-2.29 1.15 1.15 0 1 0 0 2.29z"></path>
        <path d="m216.53 132.31a1.14 1.14 0 1 0 -1.14-1.14 1.15 1.15 0 0 0 1.14 1.14z"></path>
        <path d="m205.08 132.31a1.14 1.14 0 1 0 -1.14-1.14 1.14 1.14 0 0 0 1.14 1.14z"></path>
        <path d="m193.64 132.31a1.14 1.14 0 1 0 -1.15-1.14 1.14 1.14 0 0 0 1.15 1.14z"></path>
      </g>
      <g clip-path="url(#S)">
        <path d="m216.53 178.11a1.15 1.15 0 1 0 0-2.29 1.15 1.15 0 0 0 0 2.29z"></path>
        <path d="m205.08 178.11a1.15 1.15 0 1 0 -1.14-1.15 1.15 1.15 0 0 0 1.14 1.15z"></path>
        <path d="m216.53 166.66a1.15 1.15 0 1 0 -1.14-1.15 1.15 1.15 0 0 0 1.14 1.15z"></path>
        <path d="m205.08 166.66a1.15 1.15 0 1 0 -1.14-1.15 1.14 1.14 0 0 0 1.14 1.15z"></path>
        <path d="m199.36 172.38a1.15 1.15 0 1 0 -1.14-1.14 1.15 1.15 0 0 0 1.14 1.14z"></path>
        <path d="m210.81 172.38a1.15 1.15 0 1 0 -1.15-1.14 1.14 1.14 0 0 0 1.15 1.14z"></path>
        <path d="m199.36 160.93a1.15 1.15 0 1 0 -1.14-1.14 1.15 1.15 0 0 0 1.14 1.14z"></path>
        <path d="m210.81 160.93a1.15 1.15 0 0 0 0-2.29 1.15 1.15 0 1 0 0 2.29z"></path>
        <path d="m193.64 178.11a1.15 1.15 0 1 0 -1.15-1.15 1.15 1.15 0 0 0 1.15 1.15z"></path>
        <path d="m193.64 166.66a1.15 1.15 0 1 0 -1.15-1.15 1.14 1.14 0 0 0 1.15 1.15z"></path>
        <path d="m216.53 155.21a1.15 1.15 0 1 0 -1.14-1.14 1.15 1.15 0 0 0 1.14 1.14z"></path>
        <path d="m205.08 155.21a1.15 1.15 0 1 0 -1.14-1.14 1.14 1.14 0 0 0 1.14 1.14z"></path>
        <path d="m193.64 155.21a1.15 1.15 0 1 0 -1.15-1.14 1.14 1.14 0 0 0 1.15 1.14z"></path>
      </g>
      <g clip-path="url(#T)">
        <path d="m193.64 109.42a1.15 1.15 0 1 0 -1.15-1.14 1.14 1.14 0 0 0 1.15 1.14z"></path>
        <path d="m182.19 109.42a1.15 1.15 0 1 0 -1.14-1.14 1.15 1.15 0 0 0 1.14 1.14z"></path>
        <path d="m193.64 98a1.15 1.15 0 0 0 0-2.29 1.15 1.15 0 1 0 0 2.29z"></path>
        <path d="m182.19 98a1.15 1.15 0 1 0 -1.14-1.14 1.15 1.15 0 0 0 1.14 1.14z"></path>
        <path d="m176.47 103.7a1.15 1.15 0 1 0 -1.15-1.15 1.15 1.15 0 0 0 1.15 1.15z"></path>
        <path d="m187.91 103.7a1.15 1.15 0 1 0 -1.14-1.15 1.15 1.15 0 0 0 1.14 1.15z"></path>
        <path d="m176.47 92.25a1.15 1.15 0 1 0 -1.15-1.15 1.14 1.14 0 0 0 1.15 1.15z"></path>
        <path d="m187.91 92.25a1.15 1.15 0 1 0 -1.14-1.15 1.14 1.14 0 0 0 1.14 1.15z"></path>
        <path d="m170.74 109.42a1.15 1.15 0 1 0 -1.14-1.14 1.14 1.14 0 0 0 1.14 1.14z"></path>
        <path d="m170.74 98a1.15 1.15 0 1 0 -1.14-1.14 1.14 1.14 0 0 0 1.14 1.14z"></path>
        <path d="m193.64 86.52a1.14 1.14 0 1 0 -1.15-1.14 1.14 1.14 0 0 0 1.15 1.14z"></path>
        <path d="m182.19 86.52a1.14 1.14 0 1 0 -1.14-1.14 1.15 1.15 0 0 0 1.14 1.14z"></path>
        <path d="m170.74 86.52a1.14 1.14 0 1 0 -1.14-1.14 1.14 1.14 0 0 0 1.14 1.14z"></path>
      </g>
      <g clip-path="url(#U)">
        <path d="m193.64 132.31a1.14 1.14 0 1 0 -1.15-1.14 1.14 1.14 0 0 0 1.15 1.14z"></path>
        <path d="m182.19 132.31a1.14 1.14 0 1 0 -1.14-1.14 1.15 1.15 0 0 0 1.14 1.14z"></path>
        <path d="m193.64 120.87a1.15 1.15 0 1 0 -1.15-1.15 1.15 1.15 0 0 0 1.15 1.15z"></path>
        <path d="m182.19 120.87a1.15 1.15 0 1 0 0-2.29 1.15 1.15 0 0 0 0 2.29z"></path>
        <path d="m176.47 126.59a1.15 1.15 0 1 0 -1.15-1.14 1.14 1.14 0 0 0 1.15 1.14z"></path>
        <path d="m187.91 126.59a1.15 1.15 0 1 0 -1.14-1.14 1.14 1.14 0 0 0 1.14 1.14z"></path>
        <path d="m176.47 115.14a1.15 1.15 0 1 0 -1.15-1.14 1.14 1.14 0 0 0 1.15 1.14z"></path>
        <path d="m187.91 115.14a1.15 1.15 0 1 0 -1.14-1.14 1.14 1.14 0 0 0 1.14 1.14z"></path>
        <path d="m170.74 132.31a1.14 1.14 0 1 0 -1.14-1.14 1.14 1.14 0 0 0 1.14 1.14z"></path>
        <path d="m170.74 120.87a1.15 1.15 0 1 0 -1.14-1.15 1.15 1.15 0 0 0 1.14 1.15z"></path>
        <path d="m193.64 109.42a1.15 1.15 0 1 0 -1.15-1.14 1.14 1.14 0 0 0 1.15 1.14z"></path>
        <path d="m182.19 109.42a1.15 1.15 0 1 0 -1.14-1.14 1.15 1.15 0 0 0 1.14 1.14z"></path>
        <path d="m170.74 109.42a1.15 1.15 0 1 0 -1.14-1.14 1.14 1.14 0 0 0 1.14 1.14z"></path>
      </g>
      <g clip-path="url(#V)">
        <path d="m193.64 155.21a1.15 1.15 0 1 0 -1.15-1.14 1.14 1.14 0 0 0 1.15 1.14z"></path>
        <path d="m182.19 155.21a1.15 1.15 0 1 0 -1.14-1.14 1.15 1.15 0 0 0 1.14 1.14z"></path>
        <path d="m193.64 143.76a1.15 1.15 0 0 0 0-2.29 1.15 1.15 0 1 0 0 2.29z"></path>
        <path d="m182.19 143.76a1.15 1.15 0 1 0 -1.14-1.14 1.15 1.15 0 0 0 1.14 1.14z"></path>
        <path d="m176.47 149.49a1.15 1.15 0 1 0 -1.15-1.15 1.15 1.15 0 0 0 1.15 1.15z"></path>
        <path d="m187.91 149.49a1.15 1.15 0 1 0 -1.14-1.15 1.15 1.15 0 0 0 1.14 1.15z"></path>
        <path d="m176.47 138a1.15 1.15 0 1 0 -1.15-1.14 1.14 1.14 0 0 0 1.15 1.14z"></path>
        <path d="m187.91 138a1.15 1.15 0 1 0 -1.14-1.14 1.14 1.14 0 0 0 1.14 1.14z"></path>
        <path d="m170.74 155.21a1.15 1.15 0 1 0 -1.14-1.14 1.14 1.14 0 0 0 1.14 1.14z"></path>
        <path d="m170.74 143.76a1.15 1.15 0 1 0 -1.14-1.14 1.14 1.14 0 0 0 1.14 1.14z"></path>
        <path d="m193.64 132.31a1.14 1.14 0 1 0 -1.15-1.14 1.14 1.14 0 0 0 1.15 1.14z"></path>
        <path d="m182.19 132.31a1.14 1.14 0 1 0 -1.14-1.14 1.15 1.15 0 0 0 1.14 1.14z"></path>
        <path d="m170.74 132.31a1.14 1.14 0 1 0 -1.14-1.14 1.14 1.14 0 0 0 1.14 1.14z"></path>
      </g>
      <g clip-path="url(#W)">
        <path d="m193.64 178.11a1.15 1.15 0 1 0 -1.15-1.15 1.15 1.15 0 0 0 1.15 1.15z"></path>
        <path d="m182.19 178.11a1.15 1.15 0 1 0 0-2.29 1.15 1.15 0 0 0 0 2.29z"></path>
        <path d="m193.64 166.66a1.15 1.15 0 1 0 -1.15-1.15 1.14 1.14 0 0 0 1.15 1.15z"></path>
        <path d="m182.19 166.66a1.15 1.15 0 1 0 -1.14-1.15 1.15 1.15 0 0 0 1.14 1.15z"></path>
        <path d="m176.47 172.38a1.15 1.15 0 1 0 -1.15-1.14 1.14 1.14 0 0 0 1.15 1.14z"></path>
        <path d="m187.91 172.38a1.15 1.15 0 1 0 -1.14-1.14 1.14 1.14 0 0 0 1.14 1.14z"></path>
        <path d="m176.47 160.93a1.15 1.15 0 1 0 -1.15-1.14 1.14 1.14 0 0 0 1.15 1.14z"></path>
        <path d="m187.91 160.93a1.15 1.15 0 1 0 -1.14-1.14 1.14 1.14 0 0 0 1.14 1.14z"></path>
        <path d="m170.74 178.11a1.15 1.15 0 1 0 -1.14-1.11 1.15 1.15 0 0 0 1.14 1.11z"></path>
        <path d="m170.74 166.66a1.15 1.15 0 1 0 -1.14-1.15 1.14 1.14 0 0 0 1.14 1.15z"></path>
        <path d="m193.64 155.21a1.15 1.15 0 1 0 -1.15-1.14 1.14 1.14 0 0 0 1.15 1.14z"></path>
        <path d="m182.19 155.21a1.15 1.15 0 1 0 -1.14-1.14 1.15 1.15 0 0 0 1.14 1.14z"></path>
        <path d="m170.74 155.21a1.15 1.15 0 1 0 -1.14-1.14 1.14 1.14 0 0 0 1.14 1.14z"></path>
      </g>
      <g clip-path="url(#X)">
        <path d="m170.74 109.42a1.15 1.15 0 1 0 -1.14-1.14 1.14 1.14 0 0 0 1.14 1.14z"></path>
        <path d="m159.3 109.42a1.15 1.15 0 1 0 -1.15-1.14 1.14 1.14 0 0 0 1.15 1.14z"></path>
        <path d="m170.74 98a1.15 1.15 0 1 0 -1.14-1.14 1.14 1.14 0 0 0 1.14 1.14z"></path>
        <path d="m159.3 98a1.15 1.15 0 1 0 -1.15-1.14 1.14 1.14 0 0 0 1.15 1.14z"></path>
        <path d="m153.57 103.7a1.15 1.15 0 1 0 0-2.29 1.15 1.15 0 0 0 0 2.29z"></path>
        <path d="m165 103.7a1.15 1.15 0 1 0 -1.15-1.15 1.15 1.15 0 0 0 1.15 1.15z"></path>
        <path d="m153.57 92.25a1.15 1.15 0 1 0 -1.14-1.15 1.15 1.15 0 0 0 1.14 1.15z"></path>
        <path d="m165 92.25a1.15 1.15 0 1 0 -1.15-1.15 1.14 1.14 0 0 0 1.15 1.15z"></path>
        <path d="m147.85 109.42a1.15 1.15 0 1 0 -1.15-1.14 1.14 1.14 0 0 0 1.15 1.14z"></path>
        <path d="m147.85 98a1.15 1.15 0 0 0 0-2.29 1.15 1.15 0 1 0 0 2.29z"></path>
        <path d="m170.74 86.52a1.14 1.14 0 1 0 -1.14-1.14 1.14 1.14 0 0 0 1.14 1.14z"></path>
        <path d="m159.3 86.52a1.14 1.14 0 1 0 -1.15-1.14 1.14 1.14 0 0 0 1.15 1.14z"></path>
        <path d="m147.85 86.52a1.14 1.14 0 1 0 -1.15-1.14 1.14 1.14 0 0 0 1.15 1.14z"></path>
      </g>
      <g clip-path="url(#Y)">
        <path d="m170.74 132.31a1.14 1.14 0 1 0 -1.14-1.14 1.14 1.14 0 0 0 1.14 1.14z"></path>
        <path d="m159.3 132.31a1.14 1.14 0 1 0 -1.15-1.14 1.14 1.14 0 0 0 1.15 1.14z"></path>
        <path d="m170.74 120.87a1.15 1.15 0 1 0 -1.14-1.15 1.15 1.15 0 0 0 1.14 1.15z"></path>
        <path d="m159.3 120.87a1.15 1.15 0 1 0 -1.15-1.15 1.15 1.15 0 0 0 1.15 1.15z"></path>
        <path d="m153.57 126.59a1.15 1.15 0 1 0 -1.14-1.14 1.15 1.15 0 0 0 1.14 1.14z"></path>
        <path d="m165 126.59a1.15 1.15 0 1 0 -1.15-1.14 1.14 1.14 0 0 0 1.15 1.14z"></path>
        <path d="m153.57 115.14a1.15 1.15 0 1 0 -1.14-1.14 1.15 1.15 0 0 0 1.14 1.14z"></path>
        <path d="m165 115.14a1.15 1.15 0 0 0 0-2.29 1.15 1.15 0 1 0 0 2.29z"></path>
        <path d="m147.85 132.31a1.14 1.14 0 1 0 -1.15-1.14 1.14 1.14 0 0 0 1.15 1.14z"></path>
        <path d="m147.85 120.87a1.15 1.15 0 1 0 -1.15-1.15 1.15 1.15 0 0 0 1.15 1.15z"></path>
        <path d="m170.74 109.42a1.15 1.15 0 1 0 -1.14-1.14 1.14 1.14 0 0 0 1.14 1.14z"></path>
        <path d="m159.3 109.42a1.15 1.15 0 1 0 -1.15-1.14 1.14 1.14 0 0 0 1.15 1.14z"></path>
        <path d="m147.85 109.42a1.15 1.15 0 1 0 -1.15-1.14 1.14 1.14 0 0 0 1.15 1.14z"></path>
      </g>
      <g clip-path="url(#Z)">
        <path d="m170.74 155.21a1.15 1.15 0 1 0 -1.14-1.14 1.14 1.14 0 0 0 1.14 1.14z"></path>
        <path d="m159.3 155.21a1.15 1.15 0 1 0 -1.15-1.14 1.14 1.14 0 0 0 1.15 1.14z"></path>
        <path d="m170.74 143.76a1.15 1.15 0 1 0 -1.14-1.14 1.14 1.14 0 0 0 1.14 1.14z"></path>
        <path d="m159.3 143.76a1.15 1.15 0 1 0 -1.15-1.14 1.14 1.14 0 0 0 1.15 1.14z"></path>
        <path d="m153.57 149.49a1.15 1.15 0 1 0 0-2.29 1.15 1.15 0 0 0 0 2.29z"></path>
        <path d="m165 149.49a1.15 1.15 0 1 0 -1.15-1.15 1.15 1.15 0 0 0 1.15 1.15z"></path>
        <path d="m153.57 138a1.15 1.15 0 1 0 -1.14-1.14 1.15 1.15 0 0 0 1.14 1.14z"></path>
        <path d="m165 138a1.15 1.15 0 1 0 -1.15-1.14 1.14 1.14 0 0 0 1.15 1.14z"></path>
        <path d="m147.85 155.21a1.15 1.15 0 1 0 -1.15-1.14 1.14 1.14 0 0 0 1.15 1.14z"></path>
        <path d="m147.85 143.76a1.15 1.15 0 0 0 0-2.29 1.15 1.15 0 1 0 0 2.29z"></path>
        <path d="m170.74 132.31a1.14 1.14 0 1 0 -1.14-1.14 1.14 1.14 0 0 0 1.14 1.14z"></path>
        <path d="m159.3 132.31a1.14 1.14 0 1 0 -1.15-1.14 1.14 1.14 0 0 0 1.15 1.14z"></path>
        <path d="m147.85 132.31a1.14 1.14 0 1 0 -1.15-1.14 1.14 1.14 0 0 0 1.15 1.14z"></path>
      </g>
      <g clip-path="url(#aa)">
        <path d="m170.74 178.11a1.15 1.15 0 1 0 -1.14-1.11 1.15 1.15 0 0 0 1.14 1.11z"></path>
        <path d="m159.3 178.11a1.15 1.15 0 1 0 -1.15-1.15 1.15 1.15 0 0 0 1.15 1.15z"></path>
        <path d="m170.74 166.66a1.15 1.15 0 1 0 -1.14-1.15 1.14 1.14 0 0 0 1.14 1.15z"></path>
        <path d="m159.3 166.66a1.15 1.15 0 1 0 -1.15-1.15 1.14 1.14 0 0 0 1.15 1.15z"></path>
        <path d="m153.57 172.38a1.15 1.15 0 1 0 -1.14-1.14 1.15 1.15 0 0 0 1.14 1.14z"></path>
        <path d="m165 172.38a1.15 1.15 0 1 0 -1.15-1.14 1.14 1.14 0 0 0 1.15 1.14z"></path>
        <path d="m153.57 160.93a1.15 1.15 0 1 0 -1.14-1.14 1.15 1.15 0 0 0 1.14 1.14z"></path>
        <path d="m165 160.93a1.15 1.15 0 0 0 0-2.29 1.15 1.15 0 1 0 0 2.29z"></path>
        <path d="m147.85 178.11a1.15 1.15 0 1 0 -1.15-1.11 1.15 1.15 0 0 0 1.15 1.11z"></path>
        <path d="m147.85 166.66a1.15 1.15 0 1 0 -1.15-1.15 1.14 1.14 0 0 0 1.15 1.15z"></path>
        <path d="m170.74 155.21a1.15 1.15 0 1 0 -1.14-1.14 1.14 1.14 0 0 0 1.14 1.14z"></path>
        <path d="m159.3 155.21a1.15 1.15 0 1 0 -1.15-1.14 1.14 1.14 0 0 0 1.15 1.14z"></path>
        <path d="m147.85 155.21a1.15 1.15 0 1 0 -1.15-1.14 1.14 1.14 0 0 0 1.15 1.14z"></path>
      </g>
    </g>
    <path d="m216.18 424.37a28.71 28.71 0 0 0 2.67-4.15c2.9-5.83 2-12.3 1.19-17.5a3.31 3.31 0 0 0 -1.22-2.12 85 85 0 0 0 .2-14.54l-.19-2.45c-.46-5.53-.93-11.25 1.73-15.27a3.28 3.28 0 0 0 -5.34-3.8c-1 1.35-2.07 2.72-3 4.2.42-5.29-.29-10.52-1-15.66a75.1 75.1 0 0 1 -1-13.23 3.28 3.28 0 0 0 -6.43-1.06c-1.61 5.51-1.62 11.13-1.62 16.63a70 70 0 0 1 -.66 11.73c-.31 1.75-.78 3.55-1.28 5.35a27.5 27.5 0 0 1 1.5-8.51 3.28 3.28 0 0 0 -5.57-3.23c-5.16 5.86-6.58 13.5-6.64 20a37.8 37.8 0 0 1 -2.94-18.64 3.28 3.28 0 0 0 -6.49-.94c-2.69 14-2.31 25.37 1.17 34.9a83.73 83.73 0 0 0 4 8.84c.4.78.79 1.57 1.18 2.37l-.24-.09-.84-.28a42.57 42.57 0 0 1 -11.78-6.38 3.28 3.28 0 0 0 -5.18 3.37c1 4.13 3.45 7.25 5.86 10.29a44.24 44.24 0 0 1 3.12 4.24 19.44 19.44 0 0 1 2.81 10.12h-3.11a1.4 1.4 0 0 0 -1.08.44 1.42 1.42 0 0 0 -.3 1.17l7.71 38.65a1.41 1.41 0 0 0 1.38 1.13h25.13a1.41 1.41 0 0 0 1.38-1.13l7.7-38.62a1.45 1.45 0 0 0 -.29-1.17 1.43 1.43 0 0 0 -1.09-.51h-4.41a17.65 17.65 0 0 0 1.44-2c.46-.7.97-1.39 1.53-2.15zm-7.41 42.8h-22.83l-2.73-13.72h28.29zm3.29-16.53h-29.41l-.73-3.62h30.87zm1.29-6.43h-32l-2.56-12.88h37.12zm-2.89-40.81a63.32 63.32 0 0 0 1.25-14.33 1.24 1.24 0 0 0 .06-.29c.06-1 .09-1.93.12-2.92.13-4.06.26-8.26 1.82-12a22.13 22.13 0 0 1 1.79-3.32c-1.17 4.18-.78 8.82-.4 13.35l.18 2.43a81.42 81.42 0 0 1 -.19 13.88l-.16 1.37a3.09 3.09 0 0 0 0 .43c-2 2.25-4.09 4.37-6.1 6.59a42.33 42.33 0 0 0 1.63-5.19zm6.2 2.31c.54 4.16.81 8.86-1.17 12.83a25.94 25.94 0 0 1 -2.39 3.68c-.56.77-1.12 1.55-1.63 2.35a12.66 12.66 0 0 1 -1.29 1.73 1.63 1.63 0 0 0 -.23.35l-.23.43h-6.6a39 39 0 0 1 5.54-12.38c2.34-3.32 5.27-6.05 8-8.99zm-13.38-30.31a54.53 54.53 0 0 0 2.62-20 76.19 76.19 0 0 1 .57-11.4c.16 3.24.61 6.49 1.05 9.7.79 5.81 1.61 11.82.6 17.64-.17 1-.38 1.92-.59 2.88a36.26 36.26 0 0 0 -.84 4.55c-.3 2.92.73 7.68 1.24 9.8-.07 6.58-.42 13-2.81 19.42-1.15 3.08-2.44 6-3.6 8.88a79.8 79.8 0 0 0 -.74-9.07 2 2 0 0 0 .78-.38c7.72-6.28 3.56-17.85.14-25.89.42-2.01.96-3.95 1.58-6.13zm-5.85-10.2a31.13 31.13 0 0 0 -.27 14.27c.05.22.12.44.18.66a1.94 1.94 0 0 0 .15 1l.35.82.09.3a1.94 1.94 0 0 0 .3.57c2.68 6.16 6.45 15.44 1.81 20.84a45.78 45.78 0 0 0 -6.3-15.36v-.24c-.11-1.06-.22-2.11-.31-3.17-.49-5.79-.1-13.6 4-19.69zm-12.67 29.55c-2.7-7.39-3.38-16.09-2-26.47a41.86 41.86 0 0 0 6.07 19 1.77 1.77 0 0 0 .33.72c7.16 9.75 8.74 20.56 8.7 32.05-1.06-4.16-3.13-8.15-6.21-10.56l-.59-1.32c-.75-1.68-1.58-3.33-2.48-5.13a80 80 0 0 1 -3.82-8.29zm-7.57 17.06a27.74 27.74 0 0 1 -4.75-7.49 46 46 0 0 0 11.69 6.1l.85.29a20.76 20.76 0 0 1 4.24 1.85c.1.06.22 0 .32.08 3.79 3.17 5.41 9.71 5.36 14.44h-11a23.27 23.27 0 0 0 -3.35-10.64 47.65 47.65 0 0 0 -3.36-4.63z"></path>
  </g>
</svg>
