<?xml version="1.0" encoding="UTF-8"?>
<svg xmlns="http://www.w3.org/2000/svg" viewBox="0 0 600 600">
  <path d="m89.17 221.97h418.29v269.29h-418.29z" fill="#fff"></path>
  <path d="m101.55 165.26h396.91v44.75h-396.91z" fill="#ffde00"></path>
  <path d="m188.25 422.77h58.31v36.66h-58.31z" fill="#ffde00" transform="matrix(0 1 -1 0 658.5 223.69)"></path>
  <path d="m351.36 421.73h59.65v36.66h-59.65z" fill="#ffde00" transform="matrix(0 1 -1 0 821.24 58.87)"></path>
  <path d="m492.56 381.94a.42.42 0 0 0 -.31.44v2.2a.41.41 0 0 0 .35.45h.09a1.56 1.56 0 0 1 -.31.6 5.63 5.63 0 0 1 -.94.82 4.91 4.91 0 0 0 -1.09 1 3.19 3.19 0 0 0 -.57 1.84v10.27a1.78 1.78 0 0 0 1.51 1.94h8.09a1.78 1.78 0 0 0 1.52-1.94v-10.22a3.11 3.11 0 0 0 -.57-1.83 4.83 4.83 0 0 0 -1.09-1 5.15 5.15 0 0 1 -.93-.83 1.5 1.5 0 0 1 -.31-.6h.12a.41.41 0 0 0 .35-.45v-2.19a.51.51 0 0 0 -.1-.32.31.31 0 0 0 -.25-.13h-5.57z" fill="#ffde00" fill-rule="evenodd"></path>
  <path d="m474.83 381.94a.41.41 0 0 0 -.31.44v2.2a.4.4 0 0 0 .35.45h.13a1.72 1.72 0 0 1 -.31.6 5.63 5.63 0 0 1 -.94.82 4.51 4.51 0 0 0 -1.09 1 3.19 3.19 0 0 0 -.58 1.84v10.27a1.78 1.78 0 0 0 1.52 1.94h8.09a1.78 1.78 0 0 0 1.51-1.94v-10.22a3.18 3.18 0 0 0 -.56-1.83 4.83 4.83 0 0 0 -1.09-1 5.23 5.23 0 0 1 -.94-.83 1.48 1.48 0 0 1 -.3-.6h.11a.4.4 0 0 0 .35-.45v-2.19a.58.58 0 0 0 -.1-.32.34.34 0 0 0 -.25-.13h-5.57z" fill="#ffde00" fill-rule="evenodd"></path>
  <path d="m108.05 381.94a.41.41 0 0 1 .31.44v2.2c0 .25-.15.45-.34.45h-.1a1.72 1.72 0 0 0 .31.6 5.63 5.63 0 0 0 .94.82 4.51 4.51 0 0 1 1.09 1 3.19 3.19 0 0 1 .58 1.84v10.27a1.78 1.78 0 0 1 -1.52 1.94h-8.09a1.78 1.78 0 0 1 -1.51-1.94v-10.22a3.18 3.18 0 0 1 .56-1.83 4.83 4.83 0 0 1 1.09-1 5.23 5.23 0 0 0 .94-.83 1.48 1.48 0 0 0 .3-.6h-.11a.41.41 0 0 1 -.35-.45v-2.19a.58.58 0 0 1 .1-.32.34.34 0 0 1 .25-.13h5.57z" fill="#ffde00" fill-rule="evenodd"></path>
  <path d="m125.79 381.94a.42.42 0 0 1 .31.44v2.2a.41.41 0 0 1 -.35.45h-.09a1.56 1.56 0 0 0 .31.6 5.63 5.63 0 0 0 .94.82 4.7 4.7 0 0 1 1.09 1 3.19 3.19 0 0 1 .57 1.84v10.27a1.78 1.78 0 0 1 -1.51 1.94h-8.06a1.78 1.78 0 0 1 -1.52-1.94v-10.22a3.11 3.11 0 0 1 .57-1.83 4.83 4.83 0 0 1 1.09-1 4.83 4.83 0 0 0 .93-.83 1.5 1.5 0 0 0 .31-.6h-.12a.41.41 0 0 1 -.35-.45v-2.19a.51.51 0 0 1 .1-.32.31.31 0 0 1 .25-.13h5.57z" fill="#ffde00" fill-rule="evenodd"></path>
  <path d="m173.61 293.92h252.77v23.11h-252.77z" fill="#ffde00"></path>
  <path d="m93.95 129.93h412.1v22.97h-412.1z" fill="#ffde00"></path>
  <path d="m447.66 434.6h7.63v-13.15l-2-6.17v-5h-3.71v5l-2 6.17z" fill="#00ab81"></path>
  <path d="m461.39 434.6h7.61v-13.15l-2-6.17v-5h-3.71v5l-2 6.17z" fill="#00ab81"></path>
  <path d="m471.87 341h7.63v-13.16l-2-6.16v-5.05h-3.71v5.05l-2 6.16z" fill="#00ab81"></path>
  <path d="m485.6 341h7.63v-13.16l-2-6.16v-5.05h-3.71v5.05l-2 6.16z" fill="#00ab81"></path>
  <path d="m153 434.6h-7.63v-13.15l2-6.17v-5h3.63v5l2 6.17z" fill="#00ab81"></path>
  <path d="m139.22 434.6h-7.63v-13.15l2-6.17v-5h3.7v5l2 6.17z" fill="#00ab81"></path>
  <path d="m125 341h-7.63v-13.16l2-6.16v-5.05h3.63v5.05l2 6.16z" fill="#00ab81"></path>
  <path d="m111.26 341h-7.63v-13.16l2-6.16v-5.05h3.71v5.05l2 6.16z" fill="#00ab81"></path>
  <path d="m450.49 355h20.88v16.25h-20.88z" fill="#fb715d"></path>
  <path d="m129.25 355h20.88v16.25h-20.88z" fill="#fb715d" transform="matrix(-1 0 0 -1 279.38 726.25)"></path>
  <path d="m84.39 222.41h9.56v235.78h-9.56z" fill="#fb715d"></path>
  <path d="m506.05 222.41h9.56v235.78h-9.56z" fill="#fb715d"></path>
  <path d="m173.61 222.41v.05 15.03 220.71h13.75v-220.71h225.28v220.71h13.75v-220.71-15.03-.05z" fill="#fb715d"></path>
  <path d="m84.39 152.86v69.55h431.22v-69.55zm414.06 57.14h-396.9v-44.74h396.9z" fill="#fb715d"></path>
  <path d="m412.64 458.2v12.05h8.85v19.62h94.12v-31.67z" fill="#fb715d"></path>
  <path d="m351.01 470.25h70.48v19.62h-70.48z" fill="#fb715d"></path>
  <path d="m187.36 470.25v-12.05h-102.97v31.67h91.69v-19.62z" fill="#fb715d"></path>
  <path d="m176.08 470.25h70.48v19.62h-70.48z" fill="#fb715d"></path>
  <path d="m246.57 478.5h104.44v11.37h-104.44z" fill="#fb715d"></path>
  <g fill="#1c19a8">
    <path d="m498.46 211.4h-396.92a1.39 1.39 0 0 1 -1.39-1.39v-44.75a1.39 1.39 0 0 1 1.39-1.39h396.92a1.39 1.39 0 0 1 1.39 1.39v44.74a1.39 1.39 0 0 1 -1.39 1.4zm-395.52-2.78h394.12v-42h-394.12z"></path>
    <path d="m506.05 459.61h-79.67a1.41 1.41 0 0 1 -1.4-1.41v-235.79a1.4 1.4 0 0 1 1.4-1.4h79.67a1.41 1.41 0 0 1 1.41 1.4v235.79a1.41 1.41 0 0 1 -1.41 1.41zm-78.26-2.82h76.85v-233h-76.85z"></path>
    <path d="m173.61 459.61h-79.61a1.41 1.41 0 0 1 -1.41-1.41v-235.79a1.41 1.41 0 0 1 1.41-1.41h79.66a1.41 1.41 0 0 1 1.41 1.4v235.8a1.41 1.41 0 0 1 -1.46 1.41zm-78.25-2.82h76.85v-233h-76.85z"></path>
    <path d="m235.73 471.66h-36.65a1.41 1.41 0 0 1 -1.41-1.41v-58.31a1.41 1.41 0 0 1 1.41-1.41h36.65a1.41 1.41 0 0 1 1.41 1.41v58.31a1.41 1.41 0 0 1 -1.41 1.41zm-35.25-2.81h33.85v-55.5h-33.85z"></path>
    <path d="m399.51 471.29h-36.66a1.41 1.41 0 0 1 -1.4-1.41v-59.65a1.41 1.41 0 0 1 1.4-1.41h36.66a1.41 1.41 0 0 1 1.41 1.41v59.65a1.41 1.41 0 0 1 -1.41 1.41zm-35.25-2.81h33.85v-56.84h-33.85z"></path>
    <path d="m499.39 402.92h-8.1a3.15 3.15 0 0 1 -2.91-3.34v-10.26a4.62 4.62 0 0 1 .84-2.66 6.26 6.26 0 0 1 1.39-1.33l.32-.24a2.09 2.09 0 0 1 -.07-.51v-2.2a1.81 1.81 0 0 1 1.5-1.82h.2 5.57a2.1 2.1 0 0 1 1.37.7 1.94 1.94 0 0 1 .37 1.19v2.16a1.89 1.89 0 0 1 -.08.53l.3.23a6.1 6.1 0 0 1 1.39 1.34 4.59 4.59 0 0 1 .82 2.63v10.26a3.14 3.14 0 0 1 -2.91 3.32zm-5.75-18.86a.41.41 0 0 1 .09.1 1.44 1.44 0 0 1 .32 1.19 2.81 2.81 0 0 1 -.59 1.15 5.93 5.93 0 0 1 -1.18 1.06 3.54 3.54 0 0 0 -.8.73 1.76 1.76 0 0 0 -.31 1v10.24a.78.78 0 0 0 .2.58h8a2.25 2.25 0 0 0 .12-.56v-10.21a1.85 1.85 0 0 0 -.3-1 3.9 3.9 0 0 0 -.81-.75 6.13 6.13 0 0 1 -1.19-1.07 3 3 0 0 1 -.56-1.14 1.41 1.41 0 0 1 .26-1.19 1.37 1.37 0 0 1 .17-.17v-.66h-3.44z"></path>
    <path d="m481.65 402.92h-8.09a3.14 3.14 0 0 1 -2.91-3.34v-10.26a4.61 4.61 0 0 1 .84-2.67 6.37 6.37 0 0 1 1.39-1.32l.32-.24a1.7 1.7 0 0 1 -.07-.51v-2.2a1.8 1.8 0 0 1 1.5-1.82h.2 5.57a2 2 0 0 1 1.38.73 1.83 1.83 0 0 1 .36 1.12v2.2a1.88 1.88 0 0 1 -.07.53l.3.23a6.29 6.29 0 0 1 1.38 1.34 4.62 4.62 0 0 1 .83 2.63v10.26a3.15 3.15 0 0 1 -2.93 3.32zm-5.74-18.86a.52.52 0 0 1 .1.11 1.44 1.44 0 0 1 .3 1.19 2.9 2.9 0 0 1 -.59 1.14 5.71 5.71 0 0 1 -1.12 1 3.8 3.8 0 0 0 -.85.76 1.85 1.85 0 0 0 -.32 1.07v10.23a.77.77 0 0 0 .21.58h8a2.25 2.25 0 0 0 .12-.56v-10.24a1.64 1.64 0 0 0 -.3-1 3.69 3.69 0 0 0 -.81-.76 6.25 6.25 0 0 1 -1.18-1.07 2.92 2.92 0 0 1 -.57-1.14 1.42 1.42 0 0 1 .27-1.19 1.29 1.29 0 0 1 .16-.17v-.66h-3.44z"></path>
    <path d="m455.29 436h-7.63a1.39 1.39 0 0 1 -1.39-1.39v-13.15a1.55 1.55 0 0 1 .07-.43l1.92-6v-4.83a1.43 1.43 0 0 1 .41-1 1.38 1.38 0 0 1 1-.4h3.71a1.34 1.34 0 0 1 1 .41 1.39 1.39 0 0 1 .41 1v4.83l1.92 6a1.25 1.25 0 0 1 .07.43v13.15a1.39 1.39 0 0 1 -1.49 1.38zm-6.24-2.78h4.85v-11.54l-1.93-6a1.54 1.54 0 0 1 -.06-.43v-3.66h-.91v3.66a1.55 1.55 0 0 1 -.07.43l-1.92 6z"></path>
    <path d="m469 436h-7.63a1.39 1.39 0 0 1 -1.37-1.4v-13.15a1.25 1.25 0 0 1 .07-.43l1.92-6v-4.83a1.39 1.39 0 0 1 .41-1 1.34 1.34 0 0 1 1-.41h3.71a1.38 1.38 0 0 1 1.39 1.39v4.83l1.93 6a1.55 1.55 0 0 1 .07.43v13.15a1.39 1.39 0 0 1 -1.5 1.42zm-6.24-2.78h4.85v-11.54l-1.92-6a1.25 1.25 0 0 1 -.07-.43v-3.66h-.92v3.66a1.54 1.54 0 0 1 -.06.43l-1.93 6z"></path>
    <path d="m471.36 372.64h-20.87a1.4 1.4 0 0 1 -1.4-1.39v-16.25a1.4 1.4 0 0 1 1.4-1.39h20.87a1.39 1.39 0 0 1 1.39 1.39v16.25a1.39 1.39 0 0 1 -1.39 1.39zm-19.48-2.79h18.12v-13.46h-18.12z"></path>
    <path d="m507.46 437.54h-67v-7.12h67z"></path>
    <path d="m507.46 407.25h-67v-7.12h67z"></path>
    <path d="m507.46 377h-67v-7.13h67z"></path>
    <path d="m507.46 346.68h-67v-7.13h67z"></path>
    <path d="m440.45 340.96h2.81v117.24h-2.81z"></path>
    <path d="m479.5 342.35h-7.63a1.39 1.39 0 0 1 -1.39-1.39v-13.15a1.61 1.61 0 0 1 .06-.44l1.93-5.95v-4.83a1.39 1.39 0 0 1 .41-1 1.34 1.34 0 0 1 1-.41h3.71a1.34 1.34 0 0 1 1 .41 1.39 1.39 0 0 1 .41 1v4.83l1.92 5.95a1.31 1.31 0 0 1 .07.44v13.15a1.39 1.39 0 0 1 -1.49 1.39zm-6.24-2.78h4.85v-11.55l-1.93-5.95a1.54 1.54 0 0 1 -.06-.43v-3.64h-.93v3.66a1.25 1.25 0 0 1 -.07.43l-1.88 5.91z"></path>
    <path d="m493.23 342.35h-7.63a1.39 1.39 0 0 1 -1.39-1.39v-13.15a1.31 1.31 0 0 1 .07-.44l1.92-5.95v-4.83a1.39 1.39 0 0 1 .41-1 1.34 1.34 0 0 1 1-.41h3.71a1.37 1.37 0 0 1 1.39 1.39v4.83l1.92 5.95a1.62 1.62 0 0 1 .07.44v13.15a1.39 1.39 0 0 1 -1.47 1.41zm-6.23-2.78h4.86v-11.57l-1.92-5.95a1.55 1.55 0 0 1 -.07-.43v-3.62h-.87v3.66a1.54 1.54 0 0 1 -.06.43l-1.94 5.91z"></path>
    <path d="m109.32 402.92h-8.09a3.14 3.14 0 0 1 -2.9-3.34v-10.24a4.56 4.56 0 0 1 .82-2.65 6.08 6.08 0 0 1 1.38-1.34l.3-.23a1.9 1.9 0 0 1 -.07-.54v-2.18a2.56 2.56 0 0 1 .4-1.19 1.7 1.7 0 0 1 1.34-.67h5.5.23a1.79 1.79 0 0 1 1.51 1.82v2.2a2.09 2.09 0 0 1 -.07.51l.32.24a6.41 6.41 0 0 1 1.38 1.32 4.66 4.66 0 0 1 .84 2.64v10.29a3.14 3.14 0 0 1 -2.89 3.36zm-5.78-18.87.1.11a1.45 1.45 0 0 1 .33 1.19 2.91 2.91 0 0 1 -.58 1.15 5.85 5.85 0 0 1 -1.18 1.07 3.78 3.78 0 0 0 -.8.74 1.86 1.86 0 0 0 -.3 1v10.23a.78.78 0 0 0 .2.58h8a2 2 0 0 0 .13-.56v-10.24a1.88 1.88 0 0 0 -.31-1 4 4 0 0 0 -.8-.72 6.06 6.06 0 0 1 -1.2-1.07 3 3 0 0 1 -.57-1.13 1.42 1.42 0 0 1 .26-1.19l.18-.21v-.68h-3.44z"></path>
    <path d="m127.06 402.92h-8.06a3.15 3.15 0 0 1 -2.91-3.34v-10.24a4.54 4.54 0 0 1 .83-2.65 6.08 6.08 0 0 1 1.38-1.34l.3-.23a1.91 1.91 0 0 1 -.08-.54v-2.18a2.67 2.67 0 0 1 .4-1.19 1.71 1.71 0 0 1 1.34-.67h5.54.24a1.81 1.81 0 0 1 1.5 1.84v2.18a2.09 2.09 0 0 1 -.07.51l.28.22a5.86 5.86 0 0 1 1.42 1.35 4.6 4.6 0 0 1 .85 2.62v10.3a3.15 3.15 0 0 1 -2.96 3.36zm-5.79-18.87a.57.57 0 0 1 .11.11 1.44 1.44 0 0 1 .32 1.19 2.89 2.89 0 0 1 -.57 1.15 5.93 5.93 0 0 1 -1.18 1.06 3.61 3.61 0 0 0 -.8.75 1.77 1.77 0 0 0 -.31 1v10.23a.74.74 0 0 0 .21.58h8a2.25 2.25 0 0 0 .12-.56v-10.24a1.73 1.73 0 0 0 -.31-1 3.46 3.46 0 0 0 -.79-.73 6 6 0 0 1 -1.21-1.08 2.9 2.9 0 0 1 -.57-1.12 1.42 1.42 0 0 1 .26-1.19l.14-.16v-.68h-3.43z"></path>
    <path d="m153 436h-7.63a1.39 1.39 0 0 1 -1.39-1.39v-13.15a1.54 1.54 0 0 1 .02-.46l1.92-6v-4.83a1.38 1.38 0 0 1 1.39-1.39h3.69a1.4 1.4 0 0 1 1 .4 1.43 1.43 0 0 1 .41 1v4.83l1.92 6a1.25 1.25 0 0 1 .07.43v13.15a1.39 1.39 0 0 1 -1.4 1.41zm-6.24-2.78h4.85v-11.55l-1.93-6a1.54 1.54 0 0 1 -.06-.43v-3.66h-.92v3.66a1.25 1.25 0 0 1 -.07.43l-1.92 6z"></path>
    <path d="m139.22 436h-7.63a1.39 1.39 0 0 1 -1.39-1.39v-13.15a1.25 1.25 0 0 1 .07-.43l1.92-6v-4.83a1.39 1.39 0 0 1 .41-1 1.37 1.37 0 0 1 1-.41h3.7a1.38 1.38 0 0 1 1.39 1.39v4.83l1.92 6a1.54 1.54 0 0 1 .06.43v13.16a1.4 1.4 0 0 1 -1.45 1.4zm-6.22-2.79h4.86v-11.54l-1.92-6a1.25 1.25 0 0 1 -.07-.43v-3.66h-.87v3.66a1.54 1.54 0 0 1 -.06.43l-1.92 6z"></path>
    <path d="m150.13 372.64h-20.88a1.39 1.39 0 0 1 -1.39-1.39v-16.25a1.39 1.39 0 0 1 1.39-1.39h20.88a1.39 1.39 0 0 1 1.39 1.39v16.25a1.39 1.39 0 0 1 -1.39 1.39zm-19.49-2.79h18.1v-13.46h-18.1z"></path>
    <path d="m160.17 437.55h-67.62v-7.13h67.62z"></path>
    <path d="m160.17 407.24h-67.62v-7.12h67.62z"></path>
    <path d="m160.17 377h-67.62v-7.12h67.62z"></path>
    <path d="m160.17 346.68h-67.62v-7.12h67.62z"></path>
    <path d="m157.35 340.96h2.81v117.24h-2.81z"></path>
    <path d="m125 342.35h-7.63a1.4 1.4 0 0 1 -1.37-1.35v-13.19a1.61 1.61 0 0 1 .06-.44l1.92-5.95v-4.83a1.38 1.38 0 0 1 1.39-1.39h3.63a1.37 1.37 0 0 1 1 .41 1.39 1.39 0 0 1 .41 1v4.83l1.92 5.95a1.31 1.31 0 0 1 .07.44v13.15a1.39 1.39 0 0 1 -1.4 1.37zm-6.25-2.78h4.86v-11.55l-1.93-5.95a1.54 1.54 0 0 1 -.06-.43v-3.64h-.92v3.66a1.55 1.55 0 0 1 -.07.43l-1.89 5.91z"></path>
    <path d="m111.26 342.35h-7.63a1.39 1.39 0 0 1 -1.39-1.39v-13.15a1.61 1.61 0 0 1 .06-.44l1.93-5.95v-4.83a1.43 1.43 0 0 1 .41-1 1.4 1.4 0 0 1 1-.4h3.7a1.38 1.38 0 0 1 1.39 1.39v4.83l1.92 5.95a1.61 1.61 0 0 1 .06.44v13.2a1.4 1.4 0 0 1 -1.45 1.35zm-6.26-2.78h4.86v-11.57l-1.86-5.93a1.25 1.25 0 0 1 -.07-.43v-3.64h-.93v3.66a1.25 1.25 0 0 1 -.07.43l-1.93 5.91z"></path>
    <path d="m426.38 318.42h-252.77a1.39 1.39 0 0 1 -1.39-1.39v-23.11a1.39 1.39 0 0 1 1.39-1.39h252.77a1.4 1.4 0 0 1 1.4 1.39v23.08a1.4 1.4 0 0 1 -1.4 1.42zm-251.38-2.79h250v-20.32h-250z"></path>
    <path d="m506.05 154.3h-412.05a1.4 1.4 0 0 1 -1.39-1.4v-23a1.39 1.39 0 0 1 1.39-1.36h412.1a1.39 1.39 0 0 1 1.39 1.39v23a1.4 1.4 0 0 1 -1.44 1.37zm-410.71-2.79h409.32v-20.19h-409.32z"></path>
    <path d="m94 459.59h-9.61a1.39 1.39 0 0 1 -1.39-1.39v-235.79a1.39 1.39 0 0 1 1.39-1.41h9.61a1.39 1.39 0 0 1 1.39 1.39v235.81a1.39 1.39 0 0 1 -1.39 1.39zm-8.17-2.78h6.78v-233h-6.83z"></path>
    <path d="m515.61 459.59h-9.56a1.39 1.39 0 0 1 -1.39-1.39v-235.79a1.39 1.39 0 0 1 1.39-1.39h9.56a1.39 1.39 0 0 1 1.39 1.39v235.79a1.39 1.39 0 0 1 -1.39 1.39zm-8.17-2.78h6.78v-233h-6.78z"></path>
    <path d="m426.38 459.59h-13.74a1.39 1.39 0 0 1 -1.39-1.39v-219.32h-222.5v219.32a1.39 1.39 0 0 1 -1.39 1.39h-13.75a1.39 1.39 0 0 1 -1.39-1.39v-235.74a1.43 1.43 0 0 1 1.39-1.44h252.77a1.4 1.4 0 0 1 1.4 1.39v235.79a1.4 1.4 0 0 1 -1.4 1.39zm-12.38-2.78h11v-233h-250v233h11v-219.32a1.39 1.39 0 0 1 1.39-1.39h225.25a1.39 1.39 0 0 1 1.39 1.39z"></path>
    <path d="m351 479.9h-104.44a1.4 1.4 0 0 1 -1.39-1.39v-241a1.39 1.39 0 0 1 1.39-1.39h104.44a1.39 1.39 0 0 1 1.39 1.39v241a1.39 1.39 0 0 1 -1.39 1.39zm-103-2.79h101.62v-238.23h-101.62z"></path>
    <path d="m297.39 317.03h2.78v160.28h-2.78z"></path>
    <path d="m292 415.28a1.4 1.4 0 0 1 -1.39-1.4v-33.43a1.39 1.39 0 0 1 2.78 0v33.43a1.4 1.4 0 0 1 -1.39 1.4z"></path>
    <path d="m305.59 415.28a1.4 1.4 0 0 1 -1.39-1.4v-33.43a1.39 1.39 0 0 1 2.78 0v33.43a1.4 1.4 0 0 1 -1.39 1.4z"></path>
    <path d="m515.61 223.81h-431.22a1.4 1.4 0 0 1 -1.39-1.4v-69.55a1.4 1.4 0 0 1 1.39-1.4h431.22a1.4 1.4 0 0 1 1.39 1.4v69.55a1.4 1.4 0 0 1 -1.39 1.4zm-429.83-2.81h428.44v-66.75h-428.44zm412.68-9.62h-396.92a1.39 1.39 0 0 1 -1.39-1.39v-44.73a1.39 1.39 0 0 1 1.39-1.39h396.92a1.39 1.39 0 0 1 1.39 1.39v44.74a1.39 1.39 0 0 1 -1.39 1.4zm-395.52-2.78h394.12v-42h-394.12z"></path>
    <path d="m246.56 471.66h-59.2a1.41 1.41 0 0 1 -1.41-1.41v-153.66a1.41 1.41 0 0 1 1.41-1.41h59.2a1.41 1.41 0 0 1 1.41 1.41v153.66a1.41 1.41 0 0 1 -1.41 1.41zm-57.79-2.81h56.39v-150.85h-56.39z"></path>
    <path d="m412.64 471.66h-61.06a1.41 1.41 0 0 1 -1.41-1.41v-153.25a1.41 1.41 0 0 1 1.41-1.41h61.06a1.41 1.41 0 0 1 1.41 1.41v153.25a1.41 1.41 0 0 1 -1.41 1.41zm-59.64-2.81h58.24v-150.42h-58.24z"></path>
    <path d="m242.81 179.78v-8.46h4.89v31.1h-4.85v-.88c0-3.35 0-6.69 0-10v-1.54l-3.23-4.05v1.11 14.55.83h-.86c-1.34-.06-2.68 0-4.07 0v-31.9c.47.6.76.94 1 1.29 2.12 3.17 4.26 6.34 6.39 9.5.17.26.43.68.73 1.1"></path>
    <path d="m258.22 197.51h-.93c0-.17 0-.28 0-.35 0-3.8 0-7.59 0-11.38 0-.22 0-.58 0-.58h.71 3.74v-5h-3-.44-.88v-4h5.54v-4.88h-10.56v31.11h10.5v-4.93h-4.23"></path>
    <path d="m270.26 178.52v23 1h4.07c.72 0 .93-.19.93-.93 0-8.08 0-16.17 0-24.25v-1h3.84v-4.95h-12.6v5h3.77v2.19z"></path>
    <path d="m208.35 197.5h3.15v5s-.72 0-1.48 0c-2.34 0-4.69 0-7 0h-.87v-.82q0-14.78 0-29.56c0-.34 0-.82 0-.82h5v26.2h1z"></path>
    <path d="m223 170.54h-.14l-8.75 31.93h4.54.39s.12-.38.16-.49a15.88 15.88 0 0 0 .59-2l.13-.58h.7 4.74.85s.11.52.21.95l.39 1.54c.07.22.21.71.21.71s.26 0 .45 0h4.5c-3.07-10.86-6.04-21.46-8.97-32.06zm-1.73 24 1.63-6.46 1.86 6.46z"></path>
    <path d="m198.52 176.33a6.75 6.75 0 0 0 -7-5c-2 0-3.89 0-5.84 0h-1v1 29.15.72s0 .32 0 .32h.34 4.65v-14.28h1.9c3 0 5.37-1.07 6.59-4a11 11 0 0 0 .36-7.91zm-4.47 4.37a2.61 2.61 0 0 1 -2.61 2.61h-1.68v-7.19h1.68a2.61 2.61 0 0 1 2.61 2.61z"></path>
    <path d="m328.83 201.43c-.7-2.86-1.39-5.72-2.12-8.58-.62-2.41-1-4.89-2.57-7a13.48 13.48 0 0 0 1.21-1 8.46 8.46 0 0 0 2.33-6.8 6.71 6.71 0 0 0 -5.54-6.52 77.45 77.45 0 0 0 -8.5-.3s-.08.07-.11.1v30.58h4.93v-14.13c1.26-.12 1.8.14 2.26 1.14a9.12 9.12 0 0 1 .67 1.85c.8 3.52 1.56 7 2.35 10.56.06.24.32.6.5.61h4.69c-.04-.2-.06-.36-.1-.51zm-6.23-20.38a2.87 2.87 0 0 1 -2.79 1.37h-1.31v-6.7c1.51 0 3.11-.3 4.1 1.21a3.78 3.78 0 0 1 0 4.12z"></path>
    <path d="m293.05 188c.1-5.23.45-9.14 2.19-12.75a11.11 11.11 0 0 1 2-3 5.33 5.33 0 0 1 8.12.5 15.36 15.36 0 0 1 3 7.12 33.11 33.11 0 0 1 -.58 15.64 12.45 12.45 0 0 1 -2.65 5.06 5.34 5.34 0 0 1 -8.2.05 12.42 12.42 0 0 1 -3-6.18c-.42-2.58-.69-5.17-.88-6.44zm9.4 8.27a11.86 11.86 0 0 0 1.3-3.1 29.93 29.93 0 0 0 0-13.15 10.49 10.49 0 0 0 -1.25-3 1.56 1.56 0 0 0 -2.83-.06 6.8 6.8 0 0 0 -1 2 29.15 29.15 0 0 0 -.36 13.83 13.75 13.75 0 0 0 1.25 3.3c.39.81 1 1 1.4.9a1.71 1.71 0 0 0 1.49-.77z"></path>
    <path d="m342.64 190.32c0-.28.1-.53.15-.89h-2.4v-4.77h7v2.83a26.65 26.65 0 0 1 -2 10.09 13.07 13.07 0 0 1 -1.34 2.32c-2.63 3.55-6.91 3.44-9.45-.18a17.56 17.56 0 0 1 -2.73-7.44 33.87 33.87 0 0 1 .56-14 14.33 14.33 0 0 1 2.39-5.2c2.49-3.24 6.49-3.34 9-.14a32 32 0 0 1 2.12 3.53l-4.35 1.75c-.25-.43-.44-.83-.69-1.19-.9-1.32-2.25-1.35-3 .05a12 12 0 0 0 -1.26 3.37 29.53 29.53 0 0 0 .22 13.16 10.6 10.6 0 0 0 1 2.46 2.8 2.8 0 0 0 .27.4 1.3 1.3 0 0 0 1.91.08c.81-.79 2.18-2.33 2.6-6.23z"></path>
    <path d="m403.4 194.1a29.64 29.64 0 0 1 -.5-13.15 8.83 8.83 0 0 1 1.5-4.11 1.66 1.66 0 0 1 2.81-.1 14.08 14.08 0 0 1 1 1.35l4.22-1.73a10.36 10.36 0 0 0 -2.74-4.32 5.58 5.58 0 0 0 -7.72.2 10.94 10.94 0 0 0 -2.59 4.37 32.38 32.38 0 0 0 -.86 16.77 14.75 14.75 0 0 0 3.06 7 5.51 5.51 0 0 0 7.13 1.31 9.11 9.11 0 0 0 3.76-5.13l-4.19-1.69c-.46.62-.82 1.16-1.24 1.66 0 0-.95 1.39-1.76.56a5.86 5.86 0 0 1 -1.88-2.99z"></path>
    <path d="m388.5 170.88h4.88v31h-4.88z"></path>
    <path d="m357.69 170.32h-.14l-8.75 31.93h4.54.39s.12-.38.16-.49a15.88 15.88 0 0 0 .59-2l.13-.58h.7 4.74.85s.11.51.21.94l.39 1.54.21.72h.45 4.5c-3.02-10.87-5.99-21.47-8.97-32.06zm-1.73 24 1.63-6.46 1.86 6.46z"></path>
    <path d="m378.37 179.24v-8.46h4.89v31.1h-4.85v-.88c0-3.35 0-6.69 0-10v-1.5l-3.23-4.06v1.12 14.54.83s-.51 0-.87 0c-1.34 0-2.67 0-4.07 0v-31.93c.48.59.76.93 1 1.28l6.39 9.51c.17.25.44.67.73 1.09"></path>
    <path d="m515.61 491.26h-94.12a1.39 1.39 0 0 1 -1.39-1.39v-18.23h-7.46a1.39 1.39 0 0 1 -1.39-1.39v-12.05a1.39 1.39 0 0 1 1.39-1.39h103a1.39 1.39 0 0 1 1.36 1.39v31.67a1.39 1.39 0 0 1 -1.39 1.39zm-92.73-2.78h91.34v-28.89h-100.22v9.27h7.46a1.39 1.39 0 0 1 1.39 1.39z"></path>
    <path d="m421.49 491.26h-70.49a1.39 1.39 0 0 1 -1.39-1.39v-19.62a1.39 1.39 0 0 1 1.39-1.39h70.48a1.39 1.39 0 0 1 1.39 1.39v19.62a1.39 1.39 0 0 1 -1.38 1.39zm-69.09-2.78h67.7v-16.84h-67.7z"></path>
    <path d="m176.08 491.26h-91.69a1.39 1.39 0 0 1 -1.39-1.39v-31.67a1.39 1.39 0 0 1 1.39-1.39h103a1.39 1.39 0 0 1 1.39 1.39v12.05a1.39 1.39 0 0 1 -1.39 1.39h-9.89v18.23a1.39 1.39 0 0 1 -1.42 1.39zm-90.3-2.78h88.91v-18.23a1.39 1.39 0 0 1 1.39-1.39h9.92v-9.27h-100.22z"></path>
    <path d="m246.56 491.26h-70.48a1.39 1.39 0 0 1 -1.39-1.39v-19.62a1.39 1.39 0 0 1 1.39-1.39h70.48a1.4 1.4 0 0 1 1.4 1.39v19.62a1.4 1.4 0 0 1 -1.4 1.39zm-69.09-2.78h67.7v-16.84h-67.7z"></path>
    <path d="m351 491.26h-104.44a1.39 1.39 0 0 1 -1.39-1.39v-11.36a1.4 1.4 0 0 1 1.39-1.4h104.44a1.4 1.4 0 0 1 1.39 1.4v11.36a1.39 1.39 0 0 1 -1.39 1.39zm-103-2.78h101.62v-8.58h-101.62z"></path>
  </g>
</svg>
