<?xml version="1.0" encoding="UTF-8"?>
<svg xmlns="http://www.w3.org/2000/svg" xmlns:xlink="http://www.w3.org/1999/xlink" id="Layer_1" data-name="Layer 1" viewBox="0 0 600 600">
  <defs>
    <style>.cls-1,.cls-12,.cls-9{fill:none;}.cls-11,.cls-15,.cls-16,.cls-2,.cls-6{fill:#1c19a8;}.cls-3{fill:#fff;}.cls-4{fill:url(#New_Blue_Dots);}.cls-14,.cls-5{fill:#ffde00;}.cls-10,.cls-11,.cls-12,.cls-13,.cls-14,.cls-15,.cls-16,.cls-5,.cls-6,.cls-7,.cls-8,.cls-9{stroke:#1c19a8;}.cls-10,.cls-13,.cls-14,.cls-5,.cls-6,.cls-7,.cls-8,.cls-9{stroke-linejoin:round;}.cls-10,.cls-11,.cls-12,.cls-13,.cls-14,.cls-5,.cls-6,.cls-7,.cls-8,.cls-9{stroke-width:2.82px;}.cls-7{fill:#fb715d;}.cls-8{fill:#9d9d9c;}.cls-10,.cls-13{fill:#00ab81;}.cls-10,.cls-14{fill-rule:evenodd;}.cls-11,.cls-12,.cls-15,.cls-16{stroke-miterlimit:10;}.cls-16{stroke-width:1.02px;}</style>
    <pattern id="New_Blue_Dots" data-name="New Blue Dots" width="28.8" height="28.8" patternTransform="translate(28.8)" patternUnits="userSpaceOnUse" viewBox="0 0 28.8 28.8">
      <rect class="cls-1" width="28.8" height="28.8"></rect>
      <path class="cls-2" d="M28.8,30.24a1.44,1.44,0,1,0-1.44-1.44A1.44,1.44,0,0,0,28.8,30.24Z"></path>
      <path class="cls-2" d="M14.4,30.24A1.44,1.44,0,1,0,13,28.8,1.44,1.44,0,0,0,14.4,30.24Z"></path>
      <path class="cls-2" d="M28.8,15.84a1.44,1.44,0,1,0-1.44-1.44A1.44,1.44,0,0,0,28.8,15.84Z"></path>
      <path class="cls-2" d="M14.4,15.84A1.44,1.44,0,1,0,13,14.4,1.44,1.44,0,0,0,14.4,15.84Z"></path>
      <path class="cls-2" d="M7.2,23A1.44,1.44,0,1,0,5.76,21.6,1.44,1.44,0,0,0,7.2,23Z"></path>
      <path class="cls-2" d="M21.6,23a1.44,1.44,0,1,0-1.44-1.44A1.44,1.44,0,0,0,21.6,23Z"></path>
      <path class="cls-2" d="M7.2,8.64A1.44,1.44,0,1,0,5.76,7.2,1.44,1.44,0,0,0,7.2,8.64Z"></path>
      <path class="cls-2" d="M21.6,8.64A1.44,1.44,0,1,0,20.16,7.2,1.44,1.44,0,0,0,21.6,8.64Z"></path>
      <path class="cls-2" d="M0,30.24A1.44,1.44,0,0,0,1.44,28.8,1.45,1.45,0,0,0,0,27.36,1.44,1.44,0,0,0-1.44,28.8,1.43,1.43,0,0,0,0,30.24Z"></path>
      <path class="cls-2" d="M0,15.84A1.44,1.44,0,0,0,1.44,14.4,1.45,1.45,0,0,0,0,13,1.44,1.44,0,0,0-1.44,14.4,1.43,1.43,0,0,0,0,15.84Z"></path>
      <path class="cls-2" d="M28.8,1.44A1.45,1.45,0,0,0,30.24,0,1.45,1.45,0,0,0,28.8-1.44,1.44,1.44,0,0,0,27.36,0,1.44,1.44,0,0,0,28.8,1.44Z"></path>
      <path class="cls-2" d="M14.4,1.44A1.45,1.45,0,0,0,15.84,0,1.45,1.45,0,0,0,14.4-1.44,1.44,1.44,0,0,0,13,0,1.44,1.44,0,0,0,14.4,1.44Z"></path>
      <path class="cls-2" d="M0,1.44A1.45,1.45,0,0,0,1.44,0,1.45,1.45,0,0,0,0-1.44,1.44,1.44,0,0,0-1.44,0,1.44,1.44,0,0,0,0,1.44Z"></path>
    </pattern>
  </defs>
  <title>Shop_</title>
  <rect class="cls-3" x="106.2" y="219.68" width="396.29" height="261.59"></rect>
  <rect class="cls-4" x="345.84" y="230.9" width="145.8" height="241.11"></rect>
  <rect class="cls-4" x="113.6" y="230.9" width="145.8" height="241.11"></rect>
  <path class="cls-5" d="M259.73,300.19V472.1h86.11V300.19Zm76.85,160.9H268.33V423.63h68.25Zm0-72.17v21.81h-6.41V400.67H268.33V310.48H336.6Z"></path>
  <rect class="cls-6" x="322.49" y="396.62" width="21.81" height="6.41" transform="translate(733.22 66.43) rotate(90)"></rect>
  <path class="cls-5" d="M491.63,123.38V240.46h4.81a6.15,6.15,0,0,0,12.3,0h4.81v8.15h0V123.38Z"></path>
  <path class="cls-5" d="M91.64,240.46h4.8a6.15,6.15,0,1,0,12.3,0h4.81V123.38H91.64V248.61h0Z"></path>
  <rect class="cls-7" x="113.55" y="197.51" width="378.09" height="33.38"></rect>
  <rect class="cls-7" x="113.55" y="138.21" width="378.09" height="59.3"></rect>
  <line class="cls-8" x1="259.73" y1="321.07" x2="259.73" y2="230.9"></line>
  <line class="cls-8" x1="345.84" y1="321.07" x2="345.84" y2="230.9"></line>
  <line class="cls-9" x1="491.53" y1="132.41" x2="513.44" y2="132.41"></line>
  <line class="cls-9" x1="491.64" y1="137.81" x2="513.55" y2="137.81"></line>
  <line class="cls-9" x1="91.58" y1="132.41" x2="113.49" y2="132.41"></line>
  <line class="cls-9" x1="91.69" y1="137.81" x2="113.6" y2="137.81"></line>
  <line class="cls-9" x1="491.53" y1="197.51" x2="513.44" y2="197.51"></line>
  <line class="cls-9" x1="491.64" y1="202.27" x2="513.55" y2="202.27"></line>
  <line class="cls-9" x1="91.58" y1="197.51" x2="113.49" y2="197.51"></line>
  <line class="cls-9" x1="91.69" y1="202.27" x2="113.6" y2="202.27"></line>
  <path class="cls-2" d="M245.59,176.29c-.72,1.42-1.41,3-3.28,3s-2.51-1.14-3.27-2.76l-6.87-15.18c-1-2.24-1.34-2.66-2.69-2.87a1.2,1.2,0,0,1-1-1.34c0-2.66,5.48-2.79,7.24-2.79,7.24,0,7,1.72,7,2.24,0,1.31-1.66,1.38-1.66,2.31,0,.72,1.35,3.42,2.18,5.21.31.58.69,1.93,1.45,2,1.13.07,1.72-1.86,2.13-2.58s2-3.94,2-4.76c0-1.24-1.76-.9-1.76-2.28,0-2.14,4.35-2.1,5.73-2.1,4.35,0,5.07.79,5.07,2,0,.93-.69,1.38-1.52,1.48-1.48.17-1.62.07-2.93,2.73Z"></path>
  <path class="cls-2" d="M261.77,171c-.38,0-.93-.1-.93.49,0,1.72,2.25,3.17,3.87,3.17,2.58,0,3.86-1.55,4.58-1.55s1.35,1.07,1.35,1.72c0,2.66-4.86,4.59-8,4.59-6.21,0-9.42-4.48-9.42-8.94,0-5.31,4.52-9.17,9.7-9.17,5.86,0,8.45,4.52,8.45,7.11,0,2.27-1,2.58-2.14,2.58Zm3-4.34a2,2,0,0,0-2-2.21,2.28,2.28,0,0,0-2.07,2.27c0,1.25,1.17,1,2.07,1S264.77,167.88,264.77,166.64Z"></path>
  <path class="cls-2" d="M281.39,185.92c-6.38,0-8.79-2.42-8.79-4.62,0-2,1.89-2,1.89-2.56s-1.86-1.41-1.86-2.93c0-2.45,2.79-3.17,2.79-3.65s-2.34-2-2.34-4.56c0-4.17,5.21-6.1,8.69-6.1,1.76,0,4.14.65,5.35.65,2.62,0,3.93-1.83,4.45-1.83.79,0,1.14,1,1.14,1.69,0,1.94-1.93,3.31-1.93,3.69s.1.73.1,1.07c0,4.66-5.41,6.25-9.21,6.25-.59,0-1.17-.11-1.79-.11a.88.88,0,0,0-.94.94c0,1.07,1.52,1.27,2.32,1.27,1.06,0,5.07-.59,6.45-.59,3.58,0,5.1,2,5.1,4.11C292.81,181.74,289.84,185.92,281.39,185.92Zm.35-3c1.14,0,3.73-.17,3.73-1.76,0-.72-.7-1-1.35-1s-1.86.21-3,.21c-.79,0-2.65-.28-3-.28s-.42.31-.42.55C277.7,182.47,280.39,183,281.74,183ZM282,164c-1.35,0-1.93,1.27-1.93,2.48s.34,4.17,2.1,4.17c1.55,0,2.07-1.34,2.07-2.69S283.88,164,282,164Z"></path>
  <path class="cls-2" d="M328.63,172A1.89,1.89,0,0,0,329.7,174c.69.38,1.17.59,1.17,1.45S330.8,178,324,178c-1.52,0-5.94,0-5.94-2.35-.13-2.66,2.42.28,2.42-6.73,0-1.86-.42-1.79-2.14-1.79-4.83,0-4.38.14-4.38,3.24,0,4.73,2.14,2.83,2.14,5.07,0,2.42-5,2.56-6.69,2.56s-6.39-.14-6.39-2.49a1.65,1.65,0,0,1,1.11-1.45c1.24-.58,1.69-.48,1.69-7.69,0-9.18-.14-8.42-1.42-9.11-.51-.27-1.13-.58-1.13-1.27,0-2.66,5.76-2.93,7.69-2.93,1.45,0,5.45.17,5.45,2.24,0,1.07-.59,1.45-1.38,1.93s-1.07.9-1.07,4c0,1.93.9,1.69,2.55,1.69h1.76c2.28,0,2.21-.35,2.21-1.42,0-3.76-.59-4-1-4.24-.65-.38-1.27-.69-1.27-1.59,0-.65-.14-2.58,6.72-2.58,1.63,0,6.21,0,6.21,2.45a1.73,1.73,0,0,1-1.07,1.62c-1,.45-1.41.34-1.41,5.83Z"></path>
  <path class="cls-2" d="M341.93,170.2c0,1.38.1,3.51,2,3.51,2.48,0,2.13-3.24,2.13-4.89a27.14,27.14,0,0,0-.13-3.73c-.28-1.72-2-1.14-2-2.59,0-2,6.93-2.38,8.24-2.38s1.76.73,1.76,1.93-.06,2.18-.06,3.28v6.94c0,2.06,1.89,1.1,1.89,2.75,0,2.35-6.1,3-8,3-2.66,0-.9-2.07-2.28-2.07-.38,0-.93.51-1.76,1a6.27,6.27,0,0,1-3.45,1c-6.55,0-6-5.18-6-10.35s-2.38-3-2.38-5.25,8.69-2.31,9-2.31c1,0,1.07.45,1.07,1.31Z"></path>
  <path class="cls-2" d="M366.17,170.2c0,2.31,1,2.86,1.9,2.86s1.69-.79,2.31-.79,1.17,1,1.17,1.58c0,2.28-3.93,4.28-7.41,4.28-1.76,0-6.18-.76-6.18-6.24v-7.11c0-.62,0-.86-.17-1a4.66,4.66,0,0,0-1.34,0c-.9,0-1.35,0-1.52-.14s-.18-.58-.18-1.38c0-.48-.1-.86.31-1.14l7.87-5c.79-.48.76-.38,1.79-.38,1.38,0,1.45-.14,1.45,1.45a10.09,10.09,0,0,0,.11,2.55c.1.28.34.28,1.24.28h2.41c1.49,0,1.49.1,1.49,1.66,0,2-.24,2.1-1.59,2.1h-2.38c-1.21,0-1.28,0-1.28,1.28Z"></path>
  <path class="cls-2" d="M395.06,168.86c-.06-.12-.14-.45-.31-.45s-.29.28-.57,1l-.65,1.63c-.23.56-.34,1-1,1s-.77-.38-1-.88l-2-5.12c-.3-.78-.74-.38-.74-1s1.46-.77,2-.77c1.57,0,1.84.25,1.84.69s-.24.37-.24.71a6.06,6.06,0,0,0,.37,1.23c.06.17.3.93.55.93s.5-.78.56-.94a2.16,2.16,0,0,0,.14-.43,1.71,1.71,0,0,0-.55-.94.59.59,0,0,1-.4-.54c0-.06-.15-.71,2.1-.71,2.1,0,2.05.49,2.05.67,0,.36-.48.46-.48.73a4.41,4.41,0,0,0,.47,1.19c.08.18.32.85.57.85s.84-1.84.84-2c0-.46-.71-.23-.71-.82s1.11-.63,1.55-.63,1.25.06,1.25.66-.45.39-.74,1.15l-1.86,4.86c-.23.58-.48,1.14-1.09,1.14s-.72-.29-.91-.75Z"></path>
  <path class="cls-2" d="M405.31,169.27c0,1.9.65.86.65,1.45s-.84,1.28-1.63,1.28-.87-.55-1.14-.55-.27.14-.51.27a2,2,0,0,1-1.06.28,1.59,1.59,0,0,1-1.79-1.54c0-.77.73-1.72,2.63-1.72.34,0,.49,0,.49-.37s0-1.1-.51-1.1-.71,1.17-1.67,1.17a.59.59,0,0,1-.61-.6c0-.91,1.83-1.51,2.85-1.51.62,0,2.3.24,2.3,1.86Zm-3.23.95c0,.28.15.58.46.58s.44-.44.44-.76,0-.51-.29-.51A.65.65,0,0,0,402.08,170.22Z"></path>
  <path class="cls-2" d="M409.48,169.92a3.41,3.41,0,0,0,0,.72c.12.39.61.21.61.66,0,.72-1.32.67-1.78.67s-2,.05-2-.71c0-.38.47-.24.59-.64a11.61,11.61,0,0,0,.15-2.32,10.23,10.23,0,0,0-.08-1.72c-.16-.8-.8-.52-.8-1.13,0-.94,2.81-1.17,3-1.17.37,0,.45.24.45.56s-.14,1.44-.14,3Z"></path>
  <path class="cls-2" d="M413.75,169.52c0,.72.3.89.59.89s.53-.24.72-.24.37.3.37.49c0,.72-1.23,1.34-2.32,1.34a1.82,1.82,0,0,1-1.93-1.95v-2.23c0-.19,0-.27-.06-.3a1.49,1.49,0,0,0-.42,0c-.28,0-.42,0-.48,0s-.05-.19-.05-.43,0-.28.1-.36l2.46-1.57c.25-.15.23-.12.56-.12s.46,0,.46.46a3.07,3.07,0,0,0,0,.8c0,.08.1.08.38.08h.76c.47,0,.47,0,.47.52s-.08.66-.5.66h-.74c-.39,0-.4,0-.4.4Z"></path>
  <path class="cls-2" d="M422.56,170.24c0,.92.53.69.53,1.11,0,.63-1.38.62-1.78.62s-1.64,0-1.64-.55c0-.31.3-.3.38-.85a5.61,5.61,0,0,0,.08-1.08c0-.54,0-1.56-.78-1.56s-.64.56-.64,1v1.25c0,.9.44.71.44,1.1,0,.63-1.23.64-1.64.64-1.55,0-1.9-.32-1.9-.66s.42-.24.6-.94a15.93,15.93,0,0,0,.13-2.53c0-.48,0-1,0-1.46,0-.77-.67-.5-.67-1,0-.86,2.8-1.09,2.81-1.09.33,0,.35.1.35.41l-.06,2.05c0,.21,0,.55.26.55s.46-1,1.67-1a1.84,1.84,0,0,1,1.86,2.17Z"></path>
  <path class="cls-2" d="M428.82,169.27c0,1.9.65.86.65,1.45s-.84,1.28-1.63,1.28-.87-.55-1.15-.55c-.12,0-.27.14-.5.27a2,2,0,0,1-1.06.28,1.6,1.6,0,0,1-1.8-1.54c0-.77.74-1.72,2.64-1.72.33,0,.49,0,.49-.37s0-1.1-.51-1.1-.71,1.17-1.67,1.17a.59.59,0,0,1-.61-.6c0-.91,1.83-1.51,2.85-1.51.62,0,2.3.24,2.3,1.86Zm-3.24.95c0,.28.15.58.47.58s.44-.44.44-.76,0-.51-.29-.51A.66.66,0,0,0,425.58,170.22Z"></path>
  <path class="cls-2" d="M430.37,168.84c0-.69-.14-.89-.25-1s-.29-.11-.29-.39c0-.8,2.68-1.1,2.7-1.1.27,0,.29.23.29.46s0,.5.19.5.28-.24.58-.49a2.11,2.11,0,0,1,1.37-.47c1.28,0,1.3,1,1.52,1s.28-.24.59-.49a2.2,2.2,0,0,1,1.31-.47A1.49,1.49,0,0,1,440,168v2.28c0,.63.4.68.4,1,0,.68-1.23.71-1.65.71s-1.61-.08-1.61-.64c0-.4.38-.39.38-1v-1c0-.46.06-1.37-.56-1.37s-.55.74-.55,1.14v.67c0,1.33.39,1.1.39,1.5,0,.67-1.3.68-1.69.68-1.63,0-1.71-.3-1.7-.6,0-.58.55-.12.52-1.41v-.61c0-.39,0-1.37-.56-1.37s-.56.74-.56,1.14V170c0,1,.29.93.29,1.32s-.24.66-1.72.66c-.42,0-1.7,0-1.7-.56s.65-.23.65-1.58Z"></path>
  <path class="cls-2" d="M443.67,166.4c.19,0,.37.07.44.07a.69.69,0,0,0,.29-.07,1.11,1.11,0,0,1,.29-.07c.5,0,1,1,1,1.44a.52.52,0,0,1-.53.51c-.62,0-1-.86-1.44-.86a.39.39,0,0,0-.39.37c0,.69,2.38.82,2.38,2.5A1.92,1.92,0,0,1,443.6,172a6.19,6.19,0,0,1-.8-.07l-.57-.07-.21,0-.21,0a.51.51,0,0,1-.47-.2,2.42,2.42,0,0,1-.55-1.33c0-.28.1-.51.42-.51.47,0,.9,1.07,1.51,1.07.21,0,.42-.1.42-.34,0-.64-2.12-.72-2.12-2.5a1.82,1.82,0,0,1,2-1.76A2.81,2.81,0,0,1,443.67,166.4Z"></path>
  <path class="cls-2" d="M449.45,169.52c0,.72.3.89.59.89s.53-.24.72-.24.37.3.37.49c0,.72-1.23,1.34-2.32,1.34a1.82,1.82,0,0,1-1.93-1.95v-2.23c0-.19,0-.27-.06-.3a1.49,1.49,0,0,0-.42,0c-.28,0-.42,0-.47,0s-.06-.19-.06-.43,0-.28.1-.36l2.46-1.57c.25-.15.24-.12.56-.12s.46,0,.46.46a3.6,3.6,0,0,0,0,.8c0,.08.11.08.39.08h.76c.46,0,.46,0,.46.52s-.08.66-.5.66h-.74c-.38,0-.4,0-.4.4Z"></path>
  <path class="cls-2" d="M451.4,169.36c0-1.94,1.69-3,3.47-3a2.87,2.87,0,0,1,3,2.82c0,1.77-1.9,2.85-3.49,2.85A2.68,2.68,0,0,1,451.4,169.36Zm3-1.75a.57.57,0,0,0-.53.65c0,.68.24,2.34,1,2.38.41,0,.5-.32.5-.67S455.14,167.61,454.41,167.61Z"></path>
  <path class="cls-2" d="M464,169.9c-.08-.12-.19-.36-.36-.36s-.37.31-.47.49l-.79,1.37c-.15.25-.34.57-.67.57s-.64-.43-.82-.74l-2.05-3.33c-.35-.57-.87-.24-.87-.79s1.65-.74,2.14-.74,1.73,0,1.73.64c0,.25-.2.35-.2.49s.49,1.14.76,1.14.5-.56.5-.71c0-.52-.67-.52-.67-.92,0-.21,0-.64,2.17-.64.41,0,1.57,0,1.57.57,0,.39-.35.42-.35.67s.41,1.06.65,1.06.73-1,.73-1.06c0-.27-.3-.34-.3-.69,0-.54,1-.55,1.32-.55s1.32,0,1.32.53-.66.18-1.15,1.08l-1.38,2.71c-.19.35-.66,1.28-1.13,1.28s-.93-.88-1.13-1.19Z"></path>
  <path class="cls-2" d="M216.33,212.55h1.24v-3.88a.65.65,0,0,0,0-.25.55.55,0,0,0-.19-.15c-.12-.07-.17-.21-.17-.44a1.85,1.85,0,0,1,0-.53q0-.09.21-.09h3.36c.15,0,.24,0,.27.08a1.71,1.71,0,0,1,0,.53c0,.18,0,.29,0,.32a2.1,2.1,0,0,1-.31.18.5.5,0,0,0-.28.48v9.25a.65.65,0,0,0,.33.58c.18.11.27.21.27.31v.48a.34.34,0,0,1-.05.21.45.45,0,0,1-.27.05h-3.37q-.17,0-.21-.06a2.44,2.44,0,0,1,0-.58.46.46,0,0,1,.21-.4.47.47,0,0,0,.24-.39v-4.82h-1.24v4.87a.46.46,0,0,0,.21.39.57.57,0,0,1,.2.46,1.25,1.25,0,0,1-.05.47.22.22,0,0,1-.18.06h-3.4c-.1,0-.17,0-.2-.07a2.54,2.54,0,0,1,0-.55.85.85,0,0,1,0-.29.53.53,0,0,1,.22-.17.51.51,0,0,0,.32-.46V208.8a.55.55,0,0,0-.28-.43.67.67,0,0,1-.29-.59,1.05,1.05,0,0,1,.07-.49c0-.06.14-.08.29-.08h3.17a.41.41,0,0,1,.28.07.52.52,0,0,1,.08.35V208a.38.38,0,0,1-.2.25.46.46,0,0,0-.24.43Z"></path>
  <path class="cls-2" d="M225.72,208.16v4.41h.53a.49.49,0,0,0,.32-.09.81.81,0,0,0,.15-.41,2.92,2.92,0,0,1,.15-.65.2.2,0,0,1,.18-.11,2.44,2.44,0,0,1,.69.05q.09,0,.09.39v2.57a.48.48,0,0,1-.08.32.91.91,0,0,1-.48.07.44.44,0,0,1-.35-.1,1.31,1.31,0,0,1-.18-.54,1.33,1.33,0,0,0-.16-.5.3.3,0,0,0-.25-.1h-.61v5.33h.41a.6.6,0,0,0,.53-.21,8.65,8.65,0,0,0,.46-1.23,1.39,1.39,0,0,1,.26-.56.78.78,0,0,1,.49-.13c.32,0,.48.11.48.31a1.8,1.8,0,0,1,0,.27L228,219a3.19,3.19,0,0,1-.12.57c0,.07-.14.1-.32.1h-5.15c-.13,0-.21,0-.25-.09a1.33,1.33,0,0,1-.05-.52.41.41,0,0,1,.28-.39c.28-.12.42-.28.42-.49v-9.63c0-.1-.12-.2-.35-.29a.58.58,0,0,1-.27-.2,1.33,1.33,0,0,1,0-.44.86.86,0,0,1,0-.37.5.5,0,0,1,.27,0h4.93a.45.45,0,0,1,.27.06.46.46,0,0,1,.14.29l.39,2a1.26,1.26,0,0,1,0,.21c0,.13-.13.2-.37.2a1.15,1.15,0,0,1-.56-.09,1,1,0,0,1-.28-.49,4.26,4.26,0,0,0-.41-1,.47.47,0,0,0-.38-.27Z"></path>
  <path class="cls-2" d="M233.1,217h-1.92l-.09.71s0,0,0,.07a1.3,1.3,0,0,0-.07.4.56.56,0,0,0,.36.48.45.45,0,0,1,.24.2,1.11,1.11,0,0,1,0,.36,1.3,1.3,0,0,1,0,.38s-.08.07-.17.07h-2c-.11,0-.17-.12-.17-.36a.9.9,0,0,1,.27-.68,1,1,0,0,0,.3-.51l1.43-9.1a2.6,2.6,0,0,0,0-.36c0-.16-.11-.3-.33-.43s-.16-.19-.16-.41a1.63,1.63,0,0,1,.05-.52c0-.07.12-.1.25-.1H234a.38.38,0,0,1,.38.25,5.85,5.85,0,0,1,.22,1.12c0,.22.06.43.09.65l1.26,8.49a1.61,1.61,0,0,0,.46.95.51.51,0,0,1,.13.13.87.87,0,0,1,0,.31,1.18,1.18,0,0,1-.05.48c0,.06-.11.09-.23.09H232.9c-.11,0-.16-.1-.16-.3a1.84,1.84,0,0,1,0-.46.74.74,0,0,1,.22-.22.49.49,0,0,0,.27-.43A9,9,0,0,0,233.1,217Zm-.92-6.93-.87,6H233Z"></path>
  <path class="cls-2" d="M241.13,218.81h.44a.55.55,0,0,0,.5-.28,5.62,5.62,0,0,0,.42-1.25.83.83,0,0,1,.23-.46,1,1,0,0,1,.45-.08,1.07,1.07,0,0,1,.45.06.24.24,0,0,1,.1.21c0,.07,0,.19,0,.35l-.27,1.85a.82.82,0,0,1-.12.37.35.35,0,0,1-.3.1h-5.08c-.22,0-.33-.14-.33-.4a1.12,1.12,0,0,1,0-.4.29.29,0,0,1,.19-.14c.29-.09.44-.36.44-.81v-9.18a.44.44,0,0,0-.28-.41.47.47,0,0,1-.29-.22,1,1,0,0,1-.06-.41,1.15,1.15,0,0,1,0-.42c0-.06.12-.08.25-.08h3.56a.35.35,0,0,1,.28.09,1.1,1.1,0,0,1,.07.52.73.73,0,0,1,0,.35.47.47,0,0,1-.25.16.51.51,0,0,0-.39.51Z"></path>
  <path class="cls-2" d="M245.64,208.07h-.35c-.11,0-.21.08-.28.23a5.53,5.53,0,0,0-.23,1.23.91.91,0,0,1-.17.55.65.65,0,0,1-.46.12.8.8,0,0,1-.43-.08.43.43,0,0,1-.1-.32c0-.1,0-.19,0-.28l.1-1.8a.67.67,0,0,1,.1-.42.79.79,0,0,1,.47-.09H250a.47.47,0,0,1,.3.06,1.06,1.06,0,0,1,.08.45l.13,1.59a2.36,2.36,0,0,1,0,.38.82.82,0,0,1-.06.35c0,.09-.16.13-.36.13a1,1,0,0,1-.51-.08c-.08-.05-.13-.21-.18-.49a11.1,11.1,0,0,0-.27-1.1c-.1-.28-.22-.43-.36-.43h-.24V218a.6.6,0,0,0,.37.59.38.38,0,0,1,.21.17,1.09,1.09,0,0,1,.05.4c0,.26,0,.42-.07.46s-.15.07-.32.07h-3.4a.32.32,0,0,1-.26-.08.93.93,0,0,1-.06-.44c0-.29.08-.46.24-.52a.73.73,0,0,0,.3-.19.56.56,0,0,0,.06-.3Z"></path>
  <path class="cls-2" d="M255.15,212.55h1.24v-3.88a.34.34,0,0,0-.23-.4.48.48,0,0,1-.17-.44,2.34,2.34,0,0,1,0-.53c0-.06.1-.09.22-.09h3.35c.15,0,.24,0,.27.08a1.57,1.57,0,0,1,.05.53.6.6,0,0,1-.05.32,2.49,2.49,0,0,1-.32.18.5.5,0,0,0-.28.48v9.25a.67.67,0,0,0,.33.58c.18.11.27.21.27.31v.48a.35.35,0,0,1,0,.21.52.52,0,0,1-.28.05h-3.36q-.18,0-.21-.06a2,2,0,0,1,0-.58.46.46,0,0,1,.21-.4.47.47,0,0,0,.24-.39v-4.82h-1.24v4.87a.47.47,0,0,0,.2.39.54.54,0,0,1,.2.46,1.36,1.36,0,0,1,0,.47s-.09.06-.19.06h-3.39c-.11,0-.18,0-.2-.07a1.79,1.79,0,0,1,0-.55.6.6,0,0,1,0-.29.47.47,0,0,1,.22-.17.53.53,0,0,0,.32-.46V208.8a.57.57,0,0,0-.29-.43.67.67,0,0,1-.28-.59,1.11,1.11,0,0,1,.06-.49c.05-.06.14-.08.29-.08h3.17a.42.42,0,0,1,.29.07c.05.05.07.16.07.35V208a.36.36,0,0,1-.19.25.44.44,0,0,0-.24.43Z"></path>
  <path class="cls-2" d="M266.05,214.09v4q0,.31.39.45a.52.52,0,0,1,.24.13,1.14,1.14,0,0,1,.07.54.62.62,0,0,1-.07.36.35.35,0,0,1-.24.06h-3.67q-.27,0-.27-.24V219c0-.19.12-.32.36-.4a.49.49,0,0,0,.25-.15.66.66,0,0,0,.06-.34v-3.8l-1.55-5.49a.79.79,0,0,0-.44-.54A.27.27,0,0,1,261,208v-.58c0-.14.08-.21.23-.21h3.27c.09,0,.15,0,.18.08a1,1,0,0,1,.05.4,1.63,1.63,0,0,1,0,.42.23.23,0,0,1-.15.16.35.35,0,0,0-.18.3.8.8,0,0,0,.05.23l1,3.44,1-3.44a.49.49,0,0,0,0-.15.73.73,0,0,0-.3-.51c-.1-.08-.15-.15-.15-.22v-.46c0-.17.08-.25.23-.25H268c.16,0,.24.08.24.25V208a.33.33,0,0,1-.17.25,1,1,0,0,0-.41.6Z"></path>
  <path class="cls-2" d="M277.78,207a2.82,2.82,0,0,1,2,.76,5.53,5.53,0,0,1,1.35,2.17,10.4,10.4,0,0,1,.53,3.6,8.93,8.93,0,0,1-1,4.47,3.17,3.17,0,0,1-2.88,1.82,3.12,3.12,0,0,1-2.79-1.78,10.87,10.87,0,0,1,0-9.26A3.16,3.16,0,0,1,277.78,207Zm.61,1.83c0-.64-.21-1-.62-1a.54.54,0,0,0-.45.24.91.91,0,0,0-.19.59V218a1.11,1.11,0,0,0,.19.71.55.55,0,0,0,.44.25.54.54,0,0,0,.46-.28,1.13,1.13,0,0,0,.17-.6Z"></path>
  <path class="cls-2" d="M286.49,214.19V218a1.47,1.47,0,0,0,0,.37c0,.06.09.12.2.19a.49.49,0,0,1,.2.44,1.15,1.15,0,0,1-.08.55.36.36,0,0,1-.3.11h-3.26c-.18,0-.28-.14-.28-.4a4.37,4.37,0,0,1,0-.5.22.22,0,0,1,.16-.16.65.65,0,0,0,.42-.67v-9c0-.34-.12-.54-.37-.61a.52.52,0,0,1-.23-.12.78.78,0,0,1-.05-.36q0-.6.33-.6h4.27a3.25,3.25,0,0,1,2.28.95,3.4,3.4,0,0,1,1,2.58,2.92,2.92,0,0,1-2.34,3,2.49,2.49,0,0,1,2.14,2.71v1.84a.4.4,0,0,0,.18.35.49.49,0,0,1,.21.42,1.25,1.25,0,0,1-.06.53c0,.06-.13.09-.28.09H288.6a.71.71,0,0,1-.61-.42,2.08,2.08,0,0,1-.24-1V215.1a.81.81,0,0,0-.91-.91Zm0-6.1v5.21h.5c.51,0,.76-.52.76-1.54v-2.49a1.34,1.34,0,0,0-.24-.91,1,1,0,0,0-.76-.27Z"></path>
  <path class="cls-2" d="M297.64,218.92a2.08,2.08,0,0,1-1.71.9,3,3,0,0,1-2.61-1.87,9.27,9.27,0,0,1-1-4.44,8.74,8.74,0,0,1,1.14-4.71,3.26,3.26,0,0,1,2.71-1.8,2.41,2.41,0,0,1,1.33.38.6.6,0,0,0,.28.12c.1,0,.17-.09.24-.26a.34.34,0,0,1,.33-.24h.34a.4.4,0,0,1,.31.35l.49,2.46a3.41,3.41,0,0,1,.08.51c0,.18-.14.27-.41.27a.77.77,0,0,1-.52-.12,3.83,3.83,0,0,1-.46-.81,5.45,5.45,0,0,0-.82-1.31,1,1,0,0,0-.75-.37c-.71,0-1.06.57-1.06,1.69V218c0,.61.19.91.58.91s.63-.3.63-.91v-4a.48.48,0,0,0-.27-.5.51.51,0,0,1-.29-.51.94.94,0,0,1,.08-.5.49.49,0,0,1,.33-.08h3.27a.44.44,0,0,1,.32.09.66.66,0,0,1,.08.39,1.34,1.34,0,0,1,0,.43.43.43,0,0,1-.24.18.39.39,0,0,0-.28.42v5.25a1.72,1.72,0,0,1-.06.59q-.06.12-.33.12a1.25,1.25,0,0,1-.34,0,.8.8,0,0,1-.29-.21A2.59,2.59,0,0,0,297.64,218.92Z"></path>
  <path class="cls-2" d="M305,217h-1.93l-.09.71s0,0,0,.07a1.3,1.3,0,0,0-.07.4.56.56,0,0,0,.36.48.45.45,0,0,1,.24.2,1.06,1.06,0,0,1,.05.36.92.92,0,0,1,0,.38s-.08.07-.17.07h-2c-.11,0-.17-.12-.17-.36a.9.9,0,0,1,.27-.68.92.92,0,0,0,.3-.51l1.43-9.1a1.71,1.71,0,0,0,0-.36c0-.16-.12-.3-.34-.43s-.15-.19-.15-.41a1.37,1.37,0,0,1,.05-.52c0-.07.11-.1.24-.1H306a.38.38,0,0,1,.38.25,5.13,5.13,0,0,1,.22,1.12l.09.65,1.27,8.49a1.55,1.55,0,0,0,.45.95.94.94,0,0,1,.14.13.87.87,0,0,1,0,.31,1.11,1.11,0,0,1-.06.48c0,.06-.11.09-.23.09h-3.43q-.15,0-.15-.3a2.06,2.06,0,0,1,0-.46.81.81,0,0,1,.23-.22.5.5,0,0,0,.26-.43A10.14,10.14,0,0,0,305,217Zm-.93-6.93-.87,6h1.72Z"></path>
  <path class="cls-2" d="M311.45,212.61v5.45a.54.54,0,0,0,.38.51.47.47,0,0,1,.33.42,3.16,3.16,0,0,1,0,.63s-.09.06-.23.06h-2a.18.18,0,0,1-.2-.12,3.37,3.37,0,0,1,0-.59.28.28,0,0,1,.2-.3c.27-.12.4-.26.4-.41v-9.13a1.57,1.57,0,0,0-.06-.5.53.53,0,0,0-.28-.27.53.53,0,0,1-.25-.2.79.79,0,0,1-.07-.41c0-.36.1-.54.29-.54H312l2.6,6v-4.45a.52.52,0,0,0-.38-.52.56.56,0,0,1-.28-.23,1.14,1.14,0,0,1-.07-.5c0-.16,0-.25.05-.28s.09,0,.17,0h2.13q.18,0,.18.51a1.27,1.27,0,0,1,0,.36.31.31,0,0,1-.16.13.7.7,0,0,0-.34.21.55.55,0,0,0-.07.28v11h-1.31Z"></path>
  <path class="cls-2" d="M317.42,207.86v-.41c0-.16.08-.24.25-.24h3.7a.5.5,0,0,1,.27,0,.53.53,0,0,1,.07.33,2.25,2.25,0,0,1,0,.51.27.27,0,0,1-.2.12.54.54,0,0,0-.47.61v9.29a.51.51,0,0,0,.34.46.66.66,0,0,1,.27.19.71.71,0,0,1,.05.3v.3c0,.16,0,.26-.05.28a.56.56,0,0,1-.24,0H317.6c-.14,0-.21-.06-.21-.17a3,3,0,0,1,0-.68c0-.08.11-.15.27-.19s.41-.23.41-.45V209a1.27,1.27,0,0,0-.07-.49.61.61,0,0,0-.34-.27.7.7,0,0,1-.24-.15A.51.51,0,0,1,317.42,207.86Z"></path>
  <path class="cls-2" d="M327.82,207h.4a.23.23,0,0,1,.21.1,1.65,1.65,0,0,1,.1.56l.18,2.49s0,.1,0,.15a.62.62,0,0,1-.1.38.48.48,0,0,1-.37.11.56.56,0,0,1-.47-.18,2.39,2.39,0,0,1-.25-.84c-.22-1.13-.52-1.69-.91-1.69s-.48.4-.48,1.21V218c0,.57.16.86.5.86s.68-.48.73-1.44a1,1,0,0,1,.16-.58.77.77,0,0,1,.58-.17.67.67,0,0,1,.45.12.68.68,0,0,1,.12.47,2.65,2.65,0,0,1-.66,1.84,2.15,2.15,0,0,1-1.65.73,2.6,2.6,0,0,1-1.69-.61,4.85,4.85,0,0,1-1.25-2.11,14.2,14.2,0,0,1-.09-7.35,5.41,5.41,0,0,1,1.14-2,2.17,2.17,0,0,1,1.61-.72,1.62,1.62,0,0,1,1,.3.46.46,0,0,0,.23.11c.06,0,.15-.07.26-.22S327.74,207,327.82,207Z"></path>
  <path class="cls-2" d="M339.73,212.57a4,4,0,0,1,1.94,1.22,3.34,3.34,0,0,1,.54,2,3.88,3.88,0,0,1-1,2.91,4.17,4.17,0,0,1-3,1h-3.78c-.16,0-.23-.08-.23-.24V219a.31.31,0,0,1,.2-.29.66.66,0,0,0,.45-.61v-9.33a.41.41,0,0,0-.06-.26,1.61,1.61,0,0,0-.38-.22.28.28,0,0,1-.18-.15,2,2,0,0,1,0-.42.61.61,0,0,1,.08-.39.32.32,0,0,1,.28-.1h4.23a3.27,3.27,0,0,1,2.35.78,2.6,2.6,0,0,1,.82,2,2.37,2.37,0,0,1-.64,1.69A3.31,3.31,0,0,1,339.73,212.57Zm-2-4.49v4.06h.41a.82.82,0,0,0,.61-.23,1.16,1.16,0,0,0,.25-.74c0-.35,0-.79,0-1.32a3.1,3.1,0,0,0-.22-1.44.75.75,0,0,0-.68-.33Zm0,4.94v5.77a1.6,1.6,0,0,0,.95-.19,1,1,0,0,0,.29-.77c0-.38,0-1,0-1.93,0-.19,0-.61,0-1.26a6.16,6.16,0,0,0-.09-1.19.66.66,0,0,0-.25-.32,1,1,0,0,0-.51-.11Z"></path>
  <path class="cls-2" d="M347.51,207a2.82,2.82,0,0,1,2,.76,5.53,5.53,0,0,1,1.35,2.17,10.4,10.4,0,0,1,.53,3.6,9,9,0,0,1-1,4.47,3.2,3.2,0,0,1-2.89,1.82,3.12,3.12,0,0,1-2.79-1.78,10.87,10.87,0,0,1,0-9.26A3.17,3.17,0,0,1,347.51,207Zm.61,1.83c0-.64-.21-1-.62-1a.54.54,0,0,0-.45.24.91.91,0,0,0-.19.59V218a1.11,1.11,0,0,0,.19.71.55.55,0,0,0,.44.25.54.54,0,0,0,.46-.28,1.13,1.13,0,0,0,.17-.6Z"></path>
  <path class="cls-2" d="M353,207.21h3.35c.11,0,.19,0,.21.07a1,1,0,0,1,.05.45.53.53,0,0,1-.22.51.51.51,0,0,0-.23.19.82.82,0,0,0-.06.38v8.67a.84.84,0,0,0,.2.57.67.67,0,0,0,.52.22.58.58,0,0,0,.48-.25.79.79,0,0,0,.2-.54v-8.66a.76.76,0,0,0,0-.31.74.74,0,0,0-.22-.22.75.75,0,0,1-.26-.62.64.64,0,0,1,.08-.4.33.33,0,0,1,.21-.06h1.67a.25.25,0,0,1,.28.27v.38a1,1,0,0,1,0,.31.39.39,0,0,1-.18.12.49.49,0,0,0-.36.5v8.43a2.64,2.64,0,0,1-.69,1.9,2.6,2.6,0,0,1-1.92.7,2.78,2.78,0,0,1-2.1-.75,2.93,2.93,0,0,1-.72-2.14v-8.14a.51.51,0,0,0-.34-.48.44.44,0,0,1-.2-.14.58.58,0,0,1,0-.28,2.05,2.05,0,0,1,0-.57C352.69,207.25,352.79,207.21,353,207.21Z"></path>
  <path class="cls-2" d="M362.27,208.07h-.35c-.12,0-.21.08-.28.23a5,5,0,0,0-.23,1.23,1,1,0,0,1-.17.55.65.65,0,0,1-.46.12.78.78,0,0,1-.43-.08.4.4,0,0,1-.1-.32,2.53,2.53,0,0,1,0-.28l.09-1.8a.73.73,0,0,1,.11-.42.77.77,0,0,1,.47-.09h5.66q.26,0,.3.06a1,1,0,0,1,.09.45l.13,1.59c0,.12,0,.25,0,.38a.82.82,0,0,1-.06.35c0,.09-.16.13-.37.13a1,1,0,0,1-.5-.08c-.08-.05-.14-.21-.19-.49a7.37,7.37,0,0,0-.27-1.1c-.09-.28-.22-.43-.36-.43h-.23V218a.58.58,0,0,0,.37.59.46.46,0,0,1,.21.17,1.16,1.16,0,0,1,0,.4.94.94,0,0,1-.06.46.49.49,0,0,1-.32.07H362a.33.33,0,0,1-.26-.08,1,1,0,0,1-.05-.44c0-.29.08-.46.24-.52a.91.91,0,0,0,.3-.19.56.56,0,0,0,.06-.3Z"></path>
  <path class="cls-2" d="M368.25,207.86v-.41c0-.16.09-.24.26-.24h3.7a.5.5,0,0,1,.27,0,.55.55,0,0,1,.06.33,1.77,1.77,0,0,1,0,.51.25.25,0,0,1-.19.12.55.55,0,0,0-.48.61v9.29a.52.52,0,0,0,.35.46.66.66,0,0,1,.27.19.71.71,0,0,1,.05.3v.3c0,.16,0,.26-.05.28a.56.56,0,0,1-.24,0h-3.77c-.14,0-.22-.06-.22-.17a3.77,3.77,0,0,1,0-.68.37.37,0,0,1,.27-.19q.42-.12.42-.45V209a1.24,1.24,0,0,0-.08-.49.57.57,0,0,0-.34-.27.63.63,0,0,1-.23-.15A.49.49,0,0,1,368.25,207.86Z"></path>
  <path class="cls-2" d="M378.94,219.5a3.33,3.33,0,0,1-1.4.32,3.15,3.15,0,0,1-2.8-1.8,8.88,8.88,0,0,1-1.05-4.55,9.19,9.19,0,0,1,1.05-4.66,3.11,3.11,0,0,1,5.62-.07,9.26,9.26,0,0,1,1.07,4.84,8.75,8.75,0,0,1-1.09,4.54,2.22,2.22,0,0,0,1,.69.38.38,0,0,1,.25.16,8.71,8.71,0,0,1,0,1.06,4.4,4.4,0,0,0,0,.45c0,.08,0,.15,0,.22,0,.47-.22.71-.65.71a1.45,1.45,0,0,1-.8-.3A5.32,5.32,0,0,1,378.94,219.5Zm-.78-2.74v-8a.94.94,0,0,0-.17-.59.54.54,0,0,0-.44-.24.48.48,0,0,0-.45.25,1,1,0,0,0-.16.58v9.42a1,1,0,0,0,.18.58.48.48,0,0,0,.41.25.54.54,0,0,0,.43-.23.69.69,0,0,0,.18-.43c0-.23-.21-.51-.63-.83a.46.46,0,0,1-.18-.39v-.21c0-.21.08-.31.24-.31A2.33,2.33,0,0,1,378.16,216.76Z"></path>
  <path class="cls-2" d="M383,207.21h3.35c.11,0,.18,0,.21.07a1,1,0,0,1,.05.45.53.53,0,0,1-.22.51.51.51,0,0,0-.23.19.82.82,0,0,0-.06.38v8.67a.84.84,0,0,0,.2.57.67.67,0,0,0,.51.22.58.58,0,0,0,.49-.25.79.79,0,0,0,.2-.54v-8.66a.76.76,0,0,0,0-.31.74.74,0,0,0-.22-.22.75.75,0,0,1-.26-.62.64.64,0,0,1,.08-.4.33.33,0,0,1,.21-.06H389a.25.25,0,0,1,.28.27v.38a1,1,0,0,1,0,.31.46.46,0,0,1-.18.12.48.48,0,0,0-.36.5v8.43a2.64,2.64,0,0,1-.69,1.9,2.6,2.6,0,0,1-1.92.7,2.78,2.78,0,0,1-2.1-.75,2.93,2.93,0,0,1-.72-2.14v-8.14a.51.51,0,0,0-.34-.48.44.44,0,0,1-.2-.14.58.58,0,0,1,0-.28,2.05,2.05,0,0,1,0-.57C382.75,207.25,382.85,207.21,383,207.21Z"></path>
  <path class="cls-2" d="M393.8,208.16v4.41h.53a.49.49,0,0,0,.32-.09.81.81,0,0,0,.15-.41,2.92,2.92,0,0,1,.15-.65.2.2,0,0,1,.18-.11,2.44,2.44,0,0,1,.69.05c.06,0,.08.16.08.39v2.57a.49.49,0,0,1-.07.32.91.91,0,0,1-.48.07.44.44,0,0,1-.35-.1,1.31,1.31,0,0,1-.18-.54,1.33,1.33,0,0,0-.16-.5.3.3,0,0,0-.25-.1h-.61v5.33h.41a.6.6,0,0,0,.53-.21,8.65,8.65,0,0,0,.46-1.23,1.39,1.39,0,0,1,.26-.56.78.78,0,0,1,.49-.13c.32,0,.48.11.48.31a1.8,1.8,0,0,1,0,.27l-.29,1.76a3.19,3.19,0,0,1-.12.57c0,.07-.14.1-.32.1h-5.15c-.13,0-.21,0-.25-.09a1.33,1.33,0,0,1,0-.52.41.41,0,0,1,.28-.39c.28-.12.42-.28.42-.49v-9.63c0-.1-.12-.2-.35-.29a.58.58,0,0,1-.27-.2,1.33,1.33,0,0,1,0-.44.86.86,0,0,1,0-.37.48.48,0,0,1,.27,0h4.93a.47.47,0,0,1,.27.06.46.46,0,0,1,.13.29l.4,2a1.26,1.26,0,0,1,0,.21c0,.13-.13.2-.37.2a1.15,1.15,0,0,1-.56-.09,1,1,0,0,1-.28-.49,4.26,4.26,0,0,0-.41-1,.47.47,0,0,0-.39-.27Z"></path>
  <path class="cls-10" d="M476.13,394.26a.43.43,0,0,0-.32.45V397a.41.41,0,0,0,.36.45h.09a1.56,1.56,0,0,1-.32.61,5.35,5.35,0,0,1-.95.84,4.93,4.93,0,0,0-1.12,1,3.33,3.33,0,0,0-.59,1.88h0v10.47a1.82,1.82,0,0,0,1.55,2h8.25a1.82,1.82,0,0,0,1.55-2V401.81h0a3.25,3.25,0,0,0-.58-1.87,5,5,0,0,0-1.11-1.06A5,5,0,0,1,482,398a1.45,1.45,0,0,1-.31-.62h.11a.41.41,0,0,0,.36-.45l0-2.24a.55.55,0,0,0-.11-.33.31.31,0,0,0-.25-.13h-5.68Z"></path>
  <path class="cls-10" d="M458,394.26a.43.43,0,0,0-.32.45V397a.41.41,0,0,0,.36.45h.09a1.56,1.56,0,0,1-.32.61,5.35,5.35,0,0,1-1,.84,4.93,4.93,0,0,0-1.12,1,3.33,3.33,0,0,0-.59,1.88h0v10.47a1.82,1.82,0,0,0,1.55,2H465a1.82,1.82,0,0,0,1.55-2V401.81h0a3.25,3.25,0,0,0-.58-1.87,5,5,0,0,0-1.11-1.06,5,5,0,0,1-1-.84,1.45,1.45,0,0,1-.31-.62h.11a.41.41,0,0,0,.36-.45v-2.24a.48.48,0,0,0-.1-.33.31.31,0,0,0-.25-.13H458Z"></path>
  <path class="cls-5" d="M430.32,448h7.79l0-13.42-2-6.29v-5.15h-3.78v5.15l-2,6.29Z"></path>
  <path class="cls-5" d="M444.33,448h7.78l0-13.42-2-6.29v-5.15h-3.78v5.15l-2,6.29Z"></path>
  <rect class="cls-7" x="433.21" y="366.78" width="21.29" height="16.57"></rect>
  <rect class="cls-11" x="424.41" y="445.14" width="65.48" height="4.4"></rect>
  <rect class="cls-11" x="424.41" y="414.25" width="65.48" height="4.4"></rect>
  <rect class="cls-11" x="424.41" y="383.35" width="65.48" height="4.4"></rect>
  <rect class="cls-11" x="424.41" y="352.46" width="65.48" height="4.4"></rect>
  <line class="cls-12" x1="424.41" y1="352.46" x2="424.41" y2="472.05"></line>
  <path class="cls-13" d="M455,352.46h7.78l0-13.42-2-6.28V327.6H457v5.16L455,339Z"></path>
  <path class="cls-13" d="M469,352.46h7.78l0-13.42-2-6.28V327.6H471v5.16L469,339Z"></path>
  <polygon class="cls-6" points="486.45 481.35 486.45 472.27 481.27 472.27 481.27 466.88 513.55 466.88 513.55 490.44 493.47 490.44 493.47 481.35 486.45 481.35"></polygon>
  <rect class="cls-6" x="292.82" y="411.52" width="21.81" height="4.57"></rect>
  <path class="cls-13" d="M113.55,466.88V240.46h-4.81a6.15,6.15,0,1,1-12.3,0h-4.8V466.88Z"></path>
  <path class="cls-13" d="M508.74,240.46a6.15,6.15,0,0,1-12.3,0h-4.81V466.88h21.92V240.46Z"></path>
  <polygon class="cls-8" points="350.92 481.27 350.92 472.1 254.76 472.1 254.76 481.27 247.88 481.27 247.88 490.44 254.76 490.44 350.92 490.44 357.38 490.44 357.38 481.27 350.92 481.27"></polygon>
  <path class="cls-14" d="M163.51,383.26a.43.43,0,0,0-.32.45V386a.41.41,0,0,0,.36.45h.09a1.54,1.54,0,0,1-.31.61,5.42,5.42,0,0,1-1,.83,5.11,5.11,0,0,0-1.11,1,3.23,3.23,0,0,0-.58,1.88h0V401.2a1.81,1.81,0,0,0,1.54,2h8.22a1.81,1.81,0,0,0,1.54-2V390.79h0a3.22,3.22,0,0,0-.57-1.87,4.94,4.94,0,0,0-1.11-1.05,5.39,5.39,0,0,1-1-.84,1.58,1.58,0,0,1-.31-.62h.12a.41.41,0,0,0,.35-.45l0-2.23a.5.5,0,0,0-.11-.32.3.3,0,0,0-.25-.14h-5.66Z"></path>
  <path class="cls-14" d="M145.48,383.26a.43.43,0,0,0-.31.45V386a.41.41,0,0,0,.35.45h.1a1.56,1.56,0,0,1-.32.61,5.32,5.32,0,0,1-1,.83,4.9,4.9,0,0,0-1.11,1,3.31,3.31,0,0,0-.59,1.88h0V401.2a1.82,1.82,0,0,0,1.54,2h8.23a1.82,1.82,0,0,0,1.54-2V390.79h0a3.22,3.22,0,0,0-.58-1.87,4.74,4.74,0,0,0-1.11-1.05,5.78,5.78,0,0,1-1-.84,1.72,1.72,0,0,1-.31-.62h.12a.4.4,0,0,0,.35-.45l0-2.23a.49.49,0,0,0-.1-.32.33.33,0,0,0-.25-.14h-5.67Z"></path>
  <path class="cls-14" d="M135.48,282.58a.44.44,0,0,0-.31.46v2.23a.41.41,0,0,0,.35.45h.1a1.49,1.49,0,0,1-.32.61,5.35,5.35,0,0,1-1,.84,4.68,4.68,0,0,0-1.11,1,3.27,3.27,0,0,0-.59,1.87h0v10.43a1.81,1.81,0,0,0,1.54,2h8.23a1.81,1.81,0,0,0,1.54-2V290.11h0a3.19,3.19,0,0,0-.58-1.86,5,5,0,0,0-1.11-1.06,5.35,5.35,0,0,1-1-.84,1.58,1.58,0,0,1-.31-.62h.12a.41.41,0,0,0,.35-.45l0-2.23a.58.58,0,0,0-.1-.32.33.33,0,0,0-.25-.14h-5.67Z"></path>
  <path class="cls-13" d="M131.83,436.79h7.75l0-13.37-2-6.27V412h-3.77v5.13l-2,6.27Z"></path>
  <rect class="cls-5" x="155.72" y="285.99" width="21.22" height="16.51"></rect>
  <rect class="cls-7" x="127.21" y="358.6" width="21.22" height="16.51"></rect>
  <line class="cls-12" x1="181.58" y1="301.76" x2="181.58" y2="472.18"></line>
  <path class="cls-13" d="M150.1,342h7.75l0-13.38-2-6.26v-5.14h-3.77v5.14l-2,6.26Z"></path>
  <path class="cls-13" d="M164.06,342h7.75l0-13.38-2-6.26v-5.14h-3.77v5.14l-2,6.26Z"></path>
  <rect class="cls-15" x="115.05" y="433.1" width="66.51" height="5.24"></rect>
  <rect class="cls-15" x="115.08" y="402.75" width="66.43" height="5.24"></rect>
  <rect class="cls-15" x="115.1" y="372.4" width="66.42" height="5.24"></rect>
  <rect class="cls-15" x="115.08" y="342.05" width="66.46" height="5.24"></rect>
  <rect class="cls-16" x="113.55" y="301.76" width="68.48" height="5.24"></rect>
  <polygon class="cls-6" points="113.55 481.35 113.55 472.27 118.73 472.27 118.73 466.88 86.45 466.88 86.45 490.44 107.34 490.44 107.34 481.35 113.55 481.35"></polygon>
  <polygon class="cls-13" points="486.45 481.35 486.45 472.27 481.27 472.27 481.27 472 118.73 472.25 118.73 472.27 113.55 472.27 113.55 481.35 107.34 481.35 107.34 490.44 493.46 490.44 493.46 481.35 486.45 481.35"></polygon>
</svg>
