<?xml version="1.0" encoding="UTF-8"?>
<svg xmlns="http://www.w3.org/2000/svg" id="Layer_1" data-name="Layer 1" viewBox="0 0 600 600">
  <defs>
    <style>.cls-1,.cls-10,.cls-11{fill:#fff;}.cls-2,.cls-7{fill:#ffde00;}.cls-3,.cls-6{fill:#00ab81;}.cls-4,.cls-8{fill:#fb715d;}.cls-12,.cls-5{fill:#1c19a8;}.cls-10,.cls-11,.cls-12,.cls-6,.cls-7,.cls-8,.cls-9{stroke:#1c19a8;stroke-linejoin:round;stroke-width:2.82px;}.cls-9{fill:none;}.cls-11{stroke-linecap:round;}</style>
  </defs>
  <title>Shop_</title>
  <rect class="cls-1" x="82.73" y="213.66" width="157.65" height="213.69"></rect>
  <rect class="cls-1" x="359.79" y="213.66" width="157.65" height="213.69"></rect>
  <polygon class="cls-2" points="489.97 375.89 472.25 375.89 475.62 392.79 486.6 392.79 489.97 375.89"></polygon>
  <path class="cls-3" d="M484.22,375.89l2.5-.71a8.54,8.54,0,0,1,.74-1.52c.56-.9,1.29-1.7,1.76-2.65,1-2.07.72-4.52.38-6.8l-4.85,3.3-.07.12a16.79,16.79,0,0,0-.4-7.13c-.66-2.27-1.76-4.4-2.26-6.7s-1.16-4.9-.36-7.2c-2.24,2.56-2.75,6.22-2.48,9.61.1,1.32.27,2.62.43,3.92l-.68-.9a18.22,18.22,0,0,1-4-13.13c-.93,4.8-2.82,9.1-1.14,13.7.75,2,1.86,5.49,2.75,7.47.05.13.13.27.19.41-.45-.19-.92-.35-1.38-.51a20,20,0,0,1-5.54-3c.54,2.3,2.52,3.93,3.75,5.94a9.81,9.81,0,0,1,1.45,5.43H475l9.24.35"></path>
  <path class="cls-4" d="M496,324.23a15.52,15.52,0,1,0-31,0h-6.74v10.35h44.52V324.23Z"></path>
  <rect class="cls-4" x="461.59" y="424.53" width="37.78" height="9.69"></rect>
  <rect class="cls-4" x="461.59" y="392.78" width="37.78" height="9.69"></rect>
  <polygon class="cls-4" points="461.59 434.22 461.59 424.53 464.96 424.53 464.96 402.47 461.59 402.47 461.59 392.79 464.96 392.79 464.96 368.75 461.59 368.75 461.59 359.06 464.96 359.06 464.96 334.58 458.22 334.58 458.22 444.8 464.96 444.8 464.96 434.22 461.59 434.22"></polygon>
  <polygon class="cls-4" points="496 334.58 496 359.06 499.37 359.06 499.37 368.75 496 368.75 496 392.79 499.37 392.79 499.37 402.47 496 402.47 496 424.53 499.37 424.53 499.37 434.22 496 434.22 496 444.8 502.74 444.8 502.74 334.58 496 334.58"></polygon>
  <path class="cls-4" d="M483.8,359.06c.17.48.34.95.48,1.44a16.79,16.79,0,0,1,.4,7.13l.07-.12,4.85-3.3a17.76,17.76,0,0,1,.23,4.54h9.54v-9.69Z"></path>
  <path class="cls-4" d="M469.85,364.17a20,20,0,0,0,5.54,3c.46.16.93.32,1.38.51-.06-.14-.14-.28-.19-.41-.89-2-2-5.44-2.75-7.47-.09-.25-.13-.49-.2-.74h-12v9.69h11.05C471.52,367.3,470.27,365.93,469.85,364.17Z"></path>
  <path class="cls-5" d="M504,335.8H457V323h6.78a16.74,16.74,0,0,1,33.4,0H504Zm-44.51-2.45h42.06v-7.9h-6.74v-1.22a14.29,14.29,0,1,0-28.58,0v1.22h-6.74Z"></path>
  <path class="cls-5" d="M500.59,435.44H460.36V423.31h40.23ZM462.81,433h35.33v-7.24H462.81Z"></path>
  <path class="cls-5" d="M500.59,403.69H460.36V391.56h40.23Zm-37.78-2.44h35.33V394H462.81Z"></path>
  <path class="cls-5" d="M487.61,394h-13l-3.85-19.34h20.7Zm-11-2.45h9l2.88-14.44H473.74Z"></path>
  <rect class="cls-5" x="474.18" y="384.34" width="13.87" height="2.45"></rect>
  <path class="cls-5" d="M466.19,446H457V333.35h9.19v26.93h-3.38v7.24h3.38V394h-3.38v7.24h3.38v24.51h-3.38V433h3.38Zm-6.74-2.45h4.29v-8.13h-3.38V423.31h3.38V403.69h-3.38V391.56h3.38V370h-3.38V357.84h3.38v-22h-4.29Z"></path>
  <path class="cls-5" d="M504,446h-9.19V433h3.37v-7.24h-3.37V401.25h3.37V394h-3.37V367.52h3.37v-7.24h-3.37V333.35H504Zm-6.74-2.45h4.29V335.8h-4.29v22h3.37V370h-3.37v21.59h3.37v12.13h-3.37v19.62h3.37v12.13h-3.37Z"></path>
  <path class="cls-5" d="M499.37,370h-9.55a1.21,1.21,0,0,1-.91-.41,1.23,1.23,0,0,1-.3-.95,13.08,13.08,0,0,0,0-2.26l-3.12,2.12a1.28,1.28,0,0,1-1.21.25,1.2,1.2,0,0,1-.84-1.26,15.61,15.61,0,0,0-.35-6.62c-.14-.45-.3-.91-.46-1.36a1.22,1.22,0,0,1,1.15-1.64h15.57a1.22,1.22,0,0,1,1.22,1.22v9.69A1.22,1.22,0,0,1,499.37,370Zm-8.25-2.45h7v-7.24H485.5a16.45,16.45,0,0,1,.6,4.83l2.82-1.92a1.23,1.23,0,0,1,1.9.84A23.58,23.58,0,0,1,491.12,367.52Z"></path>
  <path class="cls-5" d="M472.64,370H461.59a1.23,1.23,0,0,1-1.23-1.22v-9.69a1.22,1.22,0,0,1,1.23-1.22h12a1.22,1.22,0,0,1,1.18.89,3,3,0,0,1,.08.32c0,.11.05.22.09.33.24.63.51,1.4.79,2.23.62,1.8,1.33,3.84,1.92,5.16l.18.37a1.22,1.22,0,0,1-.2,1.37,1.24,1.24,0,0,1-1.36.3c-.36-.15-.73-.27-1.1-.4-.65-.23-1.27-.48-1.86-.74l.26.33a1.25,1.25,0,0,1,.13,1.29A1.22,1.22,0,0,1,472.64,370Zm-9.83-2.45h7.33a8.76,8.76,0,0,1-1.48-3.07,1.2,1.2,0,0,1,.53-1.3,1.22,1.22,0,0,1,1.41.05,18.55,18.55,0,0,0,4,2.33c-.37-1-.75-2.1-1.1-3.12-.27-.78-.53-1.51-.75-2.13h-9.9Z"></path>
  <path class="cls-5" d="M484.22,377.12h0l-9.25-.36a1.21,1.21,0,0,1-1.17-1.24,1.34,1.34,0,0,1,.07-.4,8.74,8.74,0,0,0-1.27-4.37,17.77,17.77,0,0,0-1.38-1.88,11.33,11.33,0,0,1-2.52-4.42,1.21,1.21,0,0,1,.52-1.3,1.23,1.23,0,0,1,1.42.05,18.55,18.55,0,0,0,4,2.33c-.37-1-.75-2.1-1.1-3.12-.28-.81-.55-1.57-.78-2.19-1.42-3.89-.51-7.6.36-11.18.26-1,.52-2.09.72-3.17a1.18,1.18,0,0,1,1.38-1,1.21,1.21,0,0,1,1,1.33,17,17,0,0,0,1.72,9.17c-.12-3,.35-6.77,2.83-9.59a1.23,1.23,0,0,1,1.54-.26,1.21,1.21,0,0,1,.54,1.46c-.62,1.83-.16,4,.3,6.06l.1.48a25.29,25.29,0,0,0,1.23,3.72c.36,1,.73,1.91,1,2.89a16.62,16.62,0,0,1,.64,5l2.82-1.92a1.23,1.23,0,0,1,1.9.84c.31,2.13.74,5-.5,7.53a12.71,12.71,0,0,1-1.16,1.79c-.23.31-.46.63-.67,1a7.75,7.75,0,0,0-.62,1.3,1.24,1.24,0,0,1-.81.75l-2.5.71A1.27,1.27,0,0,1,484.22,377.12Zm-8-2.76,7.84.3,1.73-.49a9.71,9.71,0,0,1,.61-1.15c.23-.39.5-.75.77-1.12a10.3,10.3,0,0,0,.93-1.43,7.6,7.6,0,0,0,.52-4.12l-3.13,2.12a1.28,1.28,0,0,1-1.21.25,1.2,1.2,0,0,1-.84-1.26,15.61,15.61,0,0,0-.35-6.62c-.27-.91-.61-1.81-1-2.7a27.82,27.82,0,0,1-1.33-4.08l-.1-.47c-.08-.38-.17-.76-.25-1.15a16.9,16.9,0,0,0-.07,3.67c.09,1.12.23,2.23.36,3.34l.07.53a1.24,1.24,0,0,1-.76,1.28,1.22,1.22,0,0,1-1.43-.39L478,360a19.09,19.09,0,0,1-3.39-6.33,11.34,11.34,0,0,0,.42,5.74c.24.63.51,1.4.79,2.23.62,1.8,1.33,3.84,1.92,5.16l.18.37a1.22,1.22,0,0,1-.2,1.37,1.24,1.24,0,0,1-1.36.3c-.36-.15-.73-.27-1.1-.4-.64-.23-1.26-.48-1.86-.74a19.12,19.12,0,0,1,1.3,1.8A11.17,11.17,0,0,1,476.24,374.36Z"></path>
  <path class="cls-6" d="M120.65,356.88h.46a8.85,8.85,0,0,1,8.85,8.85v0a0,0,0,0,1,0,0h-.46a8.85,8.85,0,0,1-8.85-8.85v0a0,0,0,0,1,0,0Z" transform="translate(188.14 -15.91) rotate(28.58)"></path>
  <path class="cls-7" d="M127.78,365.08a14.7,14.7,0,0,1,4.35-4.32"></path>
  <path class="cls-6" d="M146,358.11h.46a0,0,0,0,1,0,0v0a8.85,8.85,0,0,1-8.85,8.85h-.46a0,0,0,0,1,0,0v0A8.85,8.85,0,0,1,146,358.11Z" transform="translate(342.96 695.83) rotate(170.25)"></path>
  <path class="cls-7" d="M138.25,365.3a14.74,14.74,0,0,0-2.72-5.49"></path>
  <path class="cls-6" d="M146.67,366h.46a8.85,8.85,0,0,1,8.85,8.85v0a0,0,0,0,1,0,0h-.46a8.85,8.85,0,0,1-8.85-8.85v0A0,0,0,0,1,146.67,366Z" transform="translate(195.69 -27.25) rotate(28.58)"></path>
  <circle class="cls-7" cx="127.19" cy="370.72" r="5.85"></circle>
  <circle class="cls-7" cx="138.22" cy="371.29" r="5.85"></circle>
  <circle class="cls-7" cx="150.65" cy="378.66" r="5.85"></circle>
  <circle class="cls-7" cx="120.15" cy="379.42" r="5.85"></circle>
  <circle class="cls-7" cx="129.99" cy="379.78" r="5.85"></circle>
  <circle class="cls-7" cx="141.68" cy="379.78" r="5.85"></circle>
  <rect class="cls-8" x="115.5" y="387.62" width="38.88" height="17.17"></rect>
  <path class="cls-6" d="M227.07,292.49h0a8.62,8.62,0,0,1,8.62,8.62v0a0,0,0,0,1,0,0h0a8.62,8.62,0,0,1-8.62-8.62v0A0,0,0,0,1,227.07,292.49Z" transform="translate(-144.95 297.81) rotate(-52.21)"></path>
  <path class="cls-6" d="M231.07,305.1h0a8.62,8.62,0,0,1,8.62,8.62v0a0,0,0,0,1,0,0h0a8.62,8.62,0,0,1-8.62-8.62v0A0,0,0,0,1,231.07,305.1Z" transform="translate(-132.44 183.55) rotate(-33.85)"></path>
  <path class="cls-6" d="M231.07,313.47h0a8.62,8.62,0,0,1,8.62,8.62v0a0,0,0,0,1,0,0h0a8.62,8.62,0,0,1-8.62-8.62v0A0,0,0,0,1,231.07,313.47Z" transform="translate(-137.11 184.97) rotate(-33.85)"></path>
  <path class="cls-6" d="M227.25,320.79h0a8.62,8.62,0,0,1,8.62,8.62v0a0,0,0,0,1,0,0h0a8.62,8.62,0,0,1-8.62-8.62v0A0,0,0,0,1,227.25,320.79Z" transform="translate(-141.83 184.07) rotate(-33.85)"></path>
  <path class="cls-6" d="M213.73,323.67h0a8.62,8.62,0,0,1,8.62,8.62v0a0,0,0,0,1,0,0h0a8.62,8.62,0,0,1-8.62-8.62v0A0,0,0,0,1,213.73,323.67Z" transform="translate(-175.02 352.82) rotate(-60)"></path>
  <path class="cls-6" d="M211.32,333.65h0a8.62,8.62,0,0,1,8.62,8.62v0a0,0,0,0,1,0,0h0a8.62,8.62,0,0,1-8.62-8.62v0A0,0,0,0,1,211.32,333.65Z" transform="translate(-160.06 477.85) rotate(-77.88)"></path>
  <path class="cls-6" d="M222.27,330.25h0a8.62,8.62,0,0,1,8.62,8.62v0a0,0,0,0,1,0,0h0a8.62,8.62,0,0,1-8.62-8.62v0A0,0,0,0,1,222.27,330.25Z" transform="translate(-115.86 120.07) rotate(-23.83)"></path>
  <path class="cls-9" d="M211.94,247.43c-.3-2.58-3.28-3.92-5.87-4.13-3-.24-6.29.53-8.09,2.92-1.31,1.71-1.62,4-1.84,6.11-.71,7-.9,14.26-3.33,20.9s-7.67,12.81-14.65,14c-3.75.63-8-.45-10.25-3.49a10.86,10.86,0,0,1-1.94-6.25c-.07-2.09.45-4.47,2.26-5.51,2.16-1.26,5.2.34,5.93,2.73a6.71,6.71,0,0,1-2.33,6.7,15.08,15.08,0,0,1-6.8,3,30.11,30.11,0,0,1-15-.16,19,19,0,0,1-11.58-9.14"></path>
  <path class="cls-8" d="M228.82,266.36H215.25a8.09,8.09,0,0,1-7.9-6.36l-2.61-12h34.59l-2.61,12A8.09,8.09,0,0,1,228.82,266.36Z"></path>
  <rect class="cls-7" x="218.47" y="240.26" width="7.13" height="7.78"></rect>
  <line class="cls-6" x1="222.03" y1="240.26" x2="222.03" y2="219.5"></line>
  <path class="cls-6" d="M200.68,233.76h0a12.74,12.74,0,0,1,12.74,12.74v0a0,0,0,0,1,0,0h0a12.74,12.74,0,0,1-12.74-12.74v0A0,0,0,0,1,200.68,233.76Z" transform="translate(382.44 504.28) rotate(-172.81)"></path>
  <path class="cls-6" d="M211.54,232.19h0a12.74,12.74,0,0,1,12.74,12.74v0a0,0,0,0,1,0,0h0a12.74,12.74,0,0,1-12.74-12.74v0A0,0,0,0,1,211.54,232.19Z" transform="translate(257.77 559.2) rotate(-144.68)"></path>
  <path class="cls-6" d="M219.18,232.76h0a12.74,12.74,0,0,1,12.74,12.74v0a0,0,0,0,1,0,0h0a12.74,12.74,0,0,1-12.74-12.74v0A0,0,0,0,1,219.18,232.76Z" transform="translate(67.6 527.41) rotate(-107.96)"></path>
  <path class="cls-6" d="M205.31,232.92h0A12.74,12.74,0,0,1,218,245.66v0a0,0,0,0,1,0,0h0a12.74,12.74,0,0,1-12.74-12.74v0A0,0,0,0,1,205.31,232.92Z" transform="translate(388.63 505.29) rotate(-172.14)"></path>
  <path class="cls-6" d="M227.42,241h0a8.62,8.62,0,0,1,8.62,8.62v0a0,0,0,0,1,0,0h0a8.62,8.62,0,0,1-8.62-8.62v0A0,0,0,0,1,227.42,241Z" transform="translate(-105.66 250.2) rotate(-47.46)"></path>
  <path class="cls-6" d="M197.52,240.75h0a8.62,8.62,0,0,1,8.62,8.62v0a0,0,0,0,1,0,0h0a8.62,8.62,0,0,1-8.62-8.62v0A0,0,0,0,1,197.52,240.75Z" transform="translate(499.44 355.61) rotate(149.85)"></path>
  <path class="cls-6" d="M160.1,286h0a8.62,8.62,0,0,1,8.62,8.62v0a0,0,0,0,1,0,0h0A8.62,8.62,0,0,1,160.1,286v0a0,0,0,0,1,0,0Z" transform="translate(264.21 608.62) rotate(-167.88)"></path>
  <path class="cls-6" d="M152.1,287h0a8.62,8.62,0,0,1,8.62,8.62v0a0,0,0,0,1,0,0h0A8.62,8.62,0,0,1,152.1,287v0A0,0,0,0,1,152.1,287Z" transform="translate(1.62 583.4) rotate(-123.85)"></path>
  <path class="cls-6" d="M144.3,286h0a8.62,8.62,0,0,1,8.62,8.62v0a0,0,0,0,1,0,0h0A8.62,8.62,0,0,1,144.3,286v0A0,0,0,0,1,144.3,286Z" transform="translate(-107.79 491.81) rotate(-101.06)"></path>
  <path class="cls-6" d="M137.4,281.11h0a8.62,8.62,0,0,1,8.62,8.62v0a0,0,0,0,1,0,0h0a8.62,8.62,0,0,1-8.62-8.62v0A0,0,0,0,1,137.4,281.11Z" transform="translate(-176.71 297.74) rotate(-65.81)"></path>
  <path class="cls-6" d="M173.22,269.46h0a8.62,8.62,0,0,1,8.62,8.62v0a0,0,0,0,1,0,0h0a8.62,8.62,0,0,1-8.62-8.62v0A0,0,0,0,1,173.22,269.46Z" transform="translate(131.75 596.83) rotate(-138.97)"></path>
  <path class="cls-6" d="M90.68,359h0a8.62,8.62,0,0,1,8.62,8.62v0a0,0,0,0,1,0,0h0A8.62,8.62,0,0,1,90.68,359v0a0,0,0,0,1,0,0Z" transform="translate(185.4 -1.17) rotate(28.58)"></path>
  <path class="cls-6" d="M84,350.56h0a8.62,8.62,0,0,1,8.62,8.62v0a0,0,0,0,1,0,0h0A8.62,8.62,0,0,1,84,350.56v0A0,0,0,0,1,84,350.56Z" transform="translate(-123.18 56.54) rotate(-21.36)"></path>
  <path class="cls-6" d="M97,314.78h0a8.62,8.62,0,0,1,8.62,8.62v0a0,0,0,0,1,0,0h0A8.62,8.62,0,0,1,97,314.78v0A0,0,0,0,1,97,314.78Z" transform="translate(-78.48 36.66) rotate(-14.87)"></path>
  <path class="cls-6" d="M85.08,320.82h0a8.62,8.62,0,0,1,8.62,8.62v0a0,0,0,0,1,0,0h0a8.62,8.62,0,0,1-8.62-8.62v0a0,0,0,0,1,0,0Z" transform="translate(-245.08 367.86) rotate(-81.91)"></path>
  <path class="cls-9" d="M217.17,247.9a3,3,0,0,0-3,2.86c0,2.9,2.33,5.17,4.37,7.23a18.59,18.59,0,0,1,4.27,5.93,8,8,0,0,1-.3,7.08c-1.89,3-5.9,3.83-8.78,6a11.09,11.09,0,0,0-3.21,13.41,29.85,29.85,0,0,0,3.84,5.22c3.68,4.59,6.27,10.58,5,16.31a5.9,5.9,0,0,1-1.72,3.25c-1.44,1.22-3.53,1.18-5.42,1.07"></path>
  <path class="cls-9" d="M229.3,248.29a8.44,8.44,0,0,1,5.81,5,22.92,22.92,0,0,1,1.48,8.42,37,37,0,0,1-1.37,11.95,19.55,19.55,0,0,1-6.6,9.89c-1.56,1.18-3.4,2.13-4.39,3.83-1.22,2.1-.76,4.77,0,7.09,1.21,3.87,3.05,7.52,4.29,11.38s1.88,8.08.62,11.94c-1,3.07-3.11,5.63-5,8.28s-3.5,5.67-3.4,8.9,2.64,6.56,5.87,6.46"></path>
  <path class="cls-8" d="M122.29,266.36H108.71a8.08,8.08,0,0,1-7.89-6.36l-2.61-12h34.58l-2.61,12A8.08,8.08,0,0,1,122.29,266.36Z"></path>
  <rect class="cls-7" x="111.94" y="240.26" width="7.13" height="7.78"></rect>
  <line class="cls-6" x1="115.5" y1="240.26" x2="115.5" y2="219.5"></line>
  <path class="cls-9" d="M124.76,247.17c-1.17-4.23,2.68-8.75,7-9.12s8.54,2.65,10.51,6.57,2.05,8.54,1.35,12.87c-.94,5.8-3.43,11.64-8.17,15.11-3.73,2.74-8.45,3.74-13,4.36s-9.29,1-13.6,2.68-8.29,5.07-9.29,9.59a17.1,17.1,0,0,0,.18,6.83c2,10.64,7.54,20.57,8,31.38.53,14.15-6.57,25.51-19.54,33.78"></path>
  <path class="cls-9" d="M105.35,247.3c-1.3,3.47-.16,7.42,1.73,10.6s4.5,5.89,6.49,9a28,28,0,0,1-4.84,35.83c-2.51,2.26-5.41,4.05-8,6.21s-5,4.81-5.89,8.06a14.91,14.91,0,0,0-.43,5.07,23.08,23.08,0,0,0,3.72,11.06"></path>
  <path class="cls-9" d="M117.56,248.29c-.06,5.17,4.13,9.62,8.93,11.54s10.12,1.86,15.29,1.82,10.52,0,15.24,2.13a26.11,26.11,0,0,1,6.35,4.22c3.27,2.82,6.31,6.69,5.8,11a8,8,0,0,1-6.11,6.68c-3.12.65-6.73-1-7.77-4a8.06,8.06,0,0,1,.88-6.37c2.65-4.83,8.27-7.5,13.76-7.78s10.91,1.52,15.91,3.81,9.77,5.11,14.91,7.1a22.19,22.19,0,0,0,9.74,1.84,10.66,10.66,0,0,0,8.37-4.75"></path>
  <path class="cls-6" d="M108.39,250.14h0a8.62,8.62,0,0,1,8.62,8.62v0a0,0,0,0,1,0,0h0a8.62,8.62,0,0,1-8.62-8.62v0A0,0,0,0,1,108.39,250.14Z" transform="translate(-162.09 298.45) rotate(-75.21)"></path>
  <path class="cls-6" d="M99.16,258.7h0a8.62,8.62,0,0,1,8.62,8.62v0a0,0,0,0,1,0,0h0a8.62,8.62,0,0,1-8.62-8.62v0A0,0,0,0,1,99.16,258.7Z" transform="translate(-177.23 295.9) rotate(-75.21)"></path>
  <path class="cls-6" d="M104.77,267h0a8.62,8.62,0,0,1,8.62,8.62v0a0,0,0,0,1,0,0h0a8.62,8.62,0,0,1-8.62-8.62v0A0,0,0,0,1,104.77,267Z" transform="translate(-183.06 259.62) rotate(-65.81)"></path>
  <path class="cls-6" d="M90,283.41h0A8.62,8.62,0,0,1,98.57,292v0a0,0,0,0,1,0,0h0A8.62,8.62,0,0,1,90,283.41v0A0,0,0,0,1,90,283.41Z" transform="translate(-15.28 5.46) rotate(-3.07)"></path>
  <path class="cls-6" d="M103.08,281.48h0a8.62,8.62,0,0,1,8.62,8.62v0a0,0,0,0,1,0,0h0a8.62,8.62,0,0,1-8.62-8.62v0A0,0,0,0,1,103.08,281.48Z" transform="translate(-155.57 130.68) rotate(-38.87)"></path>
  <path class="cls-6" d="M118.95,283.07h0a8.62,8.62,0,0,1,8.62,8.62v0a0,0,0,0,1,0,0h0a8.62,8.62,0,0,1-8.62-8.62v0A0,0,0,0,1,118.95,283.07Z" transform="translate(-189.39 282.06) rotate(-65.81)"></path>
  <path class="cls-6" d="M121.79,249.39h0a8.62,8.62,0,0,1,8.62,8.62v0a0,0,0,0,1,0,0h0a8.62,8.62,0,0,1-8.62-8.62v0A0,0,0,0,1,121.79,249.39Z" transform="translate(-156.99 264.78) rotate(-65.81)"></path>
  <path class="cls-6" d="M129.59,252.51h0a8.62,8.62,0,0,1,8.62,8.62v0a0,0,0,0,1,0,0h0a8.62,8.62,0,0,1-8.62-8.62v0A0,0,0,0,1,129.59,252.51Z" transform="translate(-115.37 404.28) rotate(-93.07)"></path>
  <path class="cls-6" d="M137.9,262.05h0a8.62,8.62,0,0,1,8.62,8.62v0a0,0,0,0,1,0,0h0a8.62,8.62,0,0,1-8.62-8.62v0A0,0,0,0,1,137.9,262.05Z" transform="translate(218.06 558.62) rotate(-166.45)"></path>
  <path class="cls-6" d="M138.55,252.89h0a8.62,8.62,0,0,1,8.62,8.62v0a0,0,0,0,1,0,0h0a8.62,8.62,0,0,1-8.62-8.62v0A0,0,0,0,1,138.55,252.89Z" transform="translate(-96.36 428.47) rotate(-96.55)"></path>
  <path class="cls-6" d="M114.44,292.75h0a8.62,8.62,0,0,1,8.62,8.62v0a0,0,0,0,1,0,0h0a8.62,8.62,0,0,1-8.62-8.62v0a0,0,0,0,1,0,0Z" transform="translate(-187.67 205.15) rotate(-51.51)"></path>
  <path class="cls-6" d="M108.64,301.47h0a8.62,8.62,0,0,1,8.62,8.62v0a0,0,0,0,1,0,0h0a8.62,8.62,0,0,1-8.62-8.62v0a0,0,0,0,1,0,0Z" transform="translate(-127.72 85.92) rotate(-27.31)"></path>
  <path class="cls-6" d="M101.84,307.72h0a8.62,8.62,0,0,1,8.62,8.62v0a0,0,0,0,1,0,0h0a8.62,8.62,0,0,1-8.62-8.62v0A0,0,0,0,1,101.84,307.72Z" transform="translate(-76.5 37.68) rotate(-14.87)"></path>
  <path class="cls-6" d="M108.39,283.68h0A8.62,8.62,0,0,1,117,292.3v0a0,0,0,0,1,0,0h0a8.62,8.62,0,0,1-8.62-8.62v0A0,0,0,0,1,108.39,283.68Z" transform="translate(107.72 -21.23) rotate(20.45)"></path>
  <path class="cls-6" d="M103.08,291.1h0a8.62,8.62,0,0,1,8.62,8.62v0a0,0,0,0,1,0,0h0a8.62,8.62,0,0,1-8.62-8.62v0A0,0,0,0,1,103.08,291.1Z" transform="translate(64.41 -15.96) rotate(12.12)"></path>
  <path class="cls-6" d="M96.7,296.54h0a8.62,8.62,0,0,1,8.62,8.62v0a0,0,0,0,1,0,0h0a8.62,8.62,0,0,1-8.62-8.62v0A0,0,0,0,1,96.7,296.54Z" transform="translate(65.41 -14.5) rotate(12.12)"></path>
  <path class="cls-6" d="M89.22,302.65h0a8.62,8.62,0,0,1,8.62,8.62v0a0,0,0,0,1,0,0h0a8.62,8.62,0,0,1-8.62-8.62v0A0,0,0,0,1,89.22,302.65Z" transform="translate(12.05 -3.42) rotate(2.24)"></path>
  <path class="cls-6" d="M109.29,322.6h0a8.62,8.62,0,0,1,8.62,8.62v0a0,0,0,0,1,0,0h0a8.62,8.62,0,0,1-8.62-8.62v0A0,0,0,0,1,109.29,322.6Z" transform="matrix(0.78, -0.63, 0.63, 0.78, -180, 143.69)"></path>
  <path class="cls-6" d="M108.2,332.11h0a8.62,8.62,0,0,1,8.62,8.62v0a0,0,0,0,1,0,0h0a8.62,8.62,0,0,1-8.62-8.62v0A0,0,0,0,1,108.2,332.11Z" transform="translate(-100.8 52.98) rotate(-18.47)"></path>
  <path class="cls-6" d="M105.51,341.47h0a8.62,8.62,0,0,1,8.62,8.62v0a0,0,0,0,1,0,0h0a8.62,8.62,0,0,1-8.62-8.62v0A0,0,0,0,1,105.51,341.47Z" transform="translate(-13.16 4.46) rotate(-2.19)"></path>
  <path class="cls-6" d="M95.45,337.64h0a8.62,8.62,0,0,1,8.62,8.62v0a0,0,0,0,1,0,0h0a8.62,8.62,0,0,1-8.62-8.62v0A0,0,0,0,1,95.45,337.64Z" transform="translate(-231.43 210.83) rotate(-52.14)"></path>
  <path class="cls-6" d="M100,350.67h0a8.62,8.62,0,0,1,8.62,8.62v0a0,0,0,0,1,0,0h0a8.62,8.62,0,0,1-8.62-8.62v0A0,0,0,0,1,100,350.67Z" transform="translate(56.57 -11.92) rotate(8.96)"></path>
  <path class="cls-6" d="M90.89,345h0a8.62,8.62,0,0,1,8.62,8.62v0a0,0,0,0,1,0,0h0A8.62,8.62,0,0,1,90.89,345v0A0,0,0,0,1,90.89,345Z" transform="translate(-205.73 148.03) rotate(-40.98)"></path>
  <path class="cls-6" d="M97.38,328h0a8.62,8.62,0,0,1,8.62,8.62v0a0,0,0,0,1,0,0h0A8.62,8.62,0,0,1,97.38,328v0A0,0,0,0,1,97.38,328Z" transform="translate(-127.4 71) rotate(-24.23)"></path>
  <path class="cls-6" d="M113.66,258.26h0a8.62,8.62,0,0,1,8.62,8.62v0a0,0,0,0,1,0,0h0a8.62,8.62,0,0,1-8.62-8.62v0A0,0,0,0,1,113.66,258.26Z" transform="translate(-168.41 233.45) rotate(-60)"></path>
  <path class="cls-6" d="M99.76,233.53h0a12.74,12.74,0,0,1,12.74,12.74v0a0,0,0,0,1,0,0h0a12.74,12.74,0,0,1-12.74-12.74v0A0,0,0,0,1,99.76,233.53Z" transform="translate(170.53 494.19) rotate(-170.35)"></path>
  <path class="cls-6" d="M110.66,232.43h0a12.74,12.74,0,0,1,12.74,12.74v0a0,0,0,0,1,0,0h0a12.74,12.74,0,0,1-12.74-12.74v0A0,0,0,0,1,110.66,232.43Z" transform="translate(63.21 499.23) rotate(-142.21)"></path>
  <path class="cls-6" d="M118.28,233.32h0A12.74,12.74,0,0,1,131,246.06v0a0,0,0,0,1,0,0h0a12.74,12.74,0,0,1-12.74-12.74v0a0,0,0,0,1,0,0Z" transform="translate(-73.04 423.83) rotate(-105.49)"></path>
  <path class="cls-6" d="M104.41,232.89h0a12.74,12.74,0,0,1,12.74,12.74v0a0,0,0,0,1,0,0h0a12.74,12.74,0,0,1-12.74-12.74v0A0,0,0,0,1,104.41,232.89Z" transform="translate(176.88 494.5) rotate(-169.67)"></path>
  <path class="cls-6" d="M126.25,241.79h0a8.62,8.62,0,0,1,8.62,8.62v0a0,0,0,0,1,0,0h0a8.62,8.62,0,0,1-8.62-8.62v0A0,0,0,0,1,126.25,241.79Z" transform="translate(-135.78 164.4) rotate(-45)"></path>
  <path class="cls-6" d="M96.39,240.29h0a8.62,8.62,0,0,1,8.62,8.62v0a0,0,0,0,1,0,0h0a8.62,8.62,0,0,1-8.62-8.62v0A0,0,0,0,1,96.39,240.29Z" transform="translate(303.5 414.42) rotate(152.32)"></path>
  <path class="cls-6" d="M128.48,261.15h0a8.62,8.62,0,0,1,8.62,8.62v0a0,0,0,0,1,0,0h0a8.62,8.62,0,0,1-8.62-8.62v0A0,0,0,0,1,128.48,261.15Z" transform="translate(182.03 558.17) rotate(-162.97)"></path>
  <path class="cls-6" d="M148.35,254.11h0a8.62,8.62,0,0,1,8.62,8.62v0a0,0,0,0,1,0,0h0a8.62,8.62,0,0,1-8.62-8.62v0A0,0,0,0,1,148.35,254.11Z" transform="translate(-113.39 397.35) rotate(-87)"></path>
  <path class="cls-6" d="M155.6,264.47h0a8.62,8.62,0,0,1,8.62,8.62v0a0,0,0,0,1,0,0h0a8.62,8.62,0,0,1-8.62-8.62v0A0,0,0,0,1,155.6,264.47Z" transform="translate(220.3 575.65) rotate(-160.38)"></path>
  <path class="cls-6" d="M157.22,255.43h0a8.62,8.62,0,0,1,8.62,8.62v0a0,0,0,0,1,0,0h0a8.62,8.62,0,0,1-8.62-8.62v0A0,0,0,0,1,157.22,255.43Z" transform="translate(-96.84 423.45) rotate(-90.48)"></path>
  <path class="cls-6" d="M166.23,257.63h0a8.62,8.62,0,0,1,8.62,8.62v0a0,0,0,0,1,0,0h0a8.62,8.62,0,0,1-8.62-8.62v0A0,0,0,0,1,166.23,257.63Z" transform="translate(-15.32 513.24) rotate(-110.45)"></path>
  <path class="cls-6" d="M184.17,284.13h0a8.62,8.62,0,0,1,8.62,8.62v0a0,0,0,0,1,0,0h0a8.62,8.62,0,0,1-8.62-8.62v0A0,0,0,0,1,184.17,284.13Z" transform="translate(269.18 623.41) rotate(-160.38)"></path>
  <path class="cls-6" d="M175.91,288.69h0a8.62,8.62,0,0,1,8.62,8.62v0a0,0,0,0,1,0,0h0a8.62,8.62,0,0,1-8.62-8.62v0a0,0,0,0,1,0,0Z" transform="translate(165.24 636.65) rotate(-145.91)"></path>
  <path class="cls-6" d="M165.76,288.29h0a8.62,8.62,0,0,1,8.62,8.62v0a0,0,0,0,1,0,0h0a8.62,8.62,0,0,1-8.62-8.62v0A0,0,0,0,1,165.76,288.29Z" transform="matrix(-0.35, -0.94, 0.94, -0.35, -44.68, 554.17)"></path>
  <path class="cls-6" d="M175.2,257.92h0a8.62,8.62,0,0,1,8.62,8.62v0a0,0,0,0,1,0,0h0a8.62,8.62,0,0,1-8.62-8.62v0A0,0,0,0,1,175.2,257.92Z" transform="translate(-3.49 522.04) rotate(-110.45)"></path>
  <path class="cls-6" d="M182.91,260.59h0a8.62,8.62,0,0,1,8.62,8.62v0a0,0,0,0,1,0,0h0a8.62,8.62,0,0,1-8.62-8.62v0A0,0,0,0,1,182.91,260.59Z" transform="translate(4.42 532.87) rotate(-110.45)"></path>
  <path class="cls-6" d="M196.18,263.29h0a8.62,8.62,0,0,1,8.62,8.62v0a0,0,0,0,1,0,0h0a8.62,8.62,0,0,1-8.62-8.62v0A0,0,0,0,1,196.18,263.29Z" transform="translate(-64.19 63.27) rotate(-15.49)"></path>
  <path class="cls-6" d="M213.1,261h0a8.62,8.62,0,0,1,8.62,8.62v0a0,0,0,0,1,0,0h0A8.62,8.62,0,0,1,213.1,261v0A0,0,0,0,1,213.1,261Z" transform="translate(-123.93 231.44) rotate(-45)"></path>
  <path class="cls-6" d="M211.32,281.48h0a8.62,8.62,0,0,1,8.62,8.62v0a0,0,0,0,1,0,0h0a8.62,8.62,0,0,1-8.62-8.62v0A0,0,0,0,1,211.32,281.48Z" transform="matrix(0.94, -0.35, 0.35, 0.94, -86.25, 93.33)"></path>
  <path class="cls-6" d="M215.24,289.53h0a8.62,8.62,0,0,1,8.62,8.62v0a0,0,0,0,1,0,0h0a8.62,8.62,0,0,1-8.62-8.62v0a0,0,0,0,1,0,0Z" transform="translate(-147.2 287.31) rotate(-52.21)"></path>
  <path class="cls-6" d="M220.39,299.27h0a8.62,8.62,0,0,1,8.62,8.62v0a0,0,0,0,1,0,0h0a8.62,8.62,0,0,1-8.62-8.62v0A0,0,0,0,1,220.39,299.27Z" transform="translate(-144.35 223.24) rotate(-41.21)"></path>
  <path class="cls-6" d="M218.93,310.1h0a8.62,8.62,0,0,1,8.62,8.62v0a0,0,0,0,1,0,0h0a8.62,8.62,0,0,1-8.62-8.62v0A0,0,0,0,1,218.93,310.1Z" transform="translate(52.23 -31.2) rotate(9.05)"></path>
  <path class="cls-6" d="M210.2,315.76h0a8.62,8.62,0,0,1,8.62,8.62v0a0,0,0,0,1,0,0h0a8.62,8.62,0,0,1-8.62-8.62v0A0,0,0,0,1,210.2,315.76Z" transform="matrix(0.27, 0.96, -0.96, 0.27, 465.66, 27.86)"></path>
  <path class="cls-6" d="M207.37,297h0a8.62,8.62,0,0,1,8.62,8.62v0a0,0,0,0,1,0,0h0a8.62,8.62,0,0,1-8.62-8.62v0A0,0,0,0,1,207.37,297Z" transform="translate(-63.55 546.02) rotate(-96.55)"></path>
  <path class="cls-6" d="M206.14,309.7h0a8.62,8.62,0,0,1,8.62,8.62v0a0,0,0,0,1,0,0h0a8.62,8.62,0,0,1-8.62-8.62v0A0,0,0,0,1,206.14,309.7Z" transform="matrix(0.83, -0.56, 0.56, 0.83, -139.23, 170.44)"></path>
  <path class="cls-6" d="M201.87,286.26h0a8.62,8.62,0,0,1,8.62,8.62v0a0,0,0,0,1,0,0h0a8.62,8.62,0,0,1-8.62-8.62v0A0,0,0,0,1,201.87,286.26Z" transform="translate(-39.47 548.64) rotate(-101.06)"></path>
  <path class="cls-6" d="M220.34,251.73h0a8.62,8.62,0,0,1,8.62,8.62v0a0,0,0,0,1,0,0h0a8.62,8.62,0,0,1-8.62-8.62v0A0,0,0,0,1,220.34,251.73Z" transform="translate(480.69 31.39) rotate(90)"></path>
  <path class="cls-6" d="M186,250.79h0a8.62,8.62,0,0,1,8.62,8.62v0a0,0,0,0,1,0,0h0a8.62,8.62,0,0,1-8.62-8.62v0A0,0,0,0,1,186,250.79Z" transform="translate(-61.22 60.09) rotate(-15.49)"></path>
  <path class="cls-6" d="M197,248.89h0a8.62,8.62,0,0,1,8.62,8.62v0a0,0,0,0,1,0,0h0a8.62,8.62,0,0,1-8.62-8.62v0A0,0,0,0,1,197,248.89Z" transform="translate(-121.67 271.06) rotate(-54.68)"></path>
  <path class="cls-6" d="M146.34,262.58h0A8.62,8.62,0,0,1,155,271.2v0a0,0,0,0,1,0,0h0a8.62,8.62,0,0,1-8.62-8.62v0A0,0,0,0,1,146.34,262.58Z" transform="translate(184.52 571.49) rotate(-156.9)"></path>
  <path class="cls-6" d="M222.27,339.74h0a8.62,8.62,0,0,1,8.62,8.62v0a0,0,0,0,1,0,0h0a8.62,8.62,0,0,1-8.62-8.62v0A0,0,0,0,1,222.27,339.74Z"></path>
  <path class="cls-6" d="M376.37,292.49h0a0,0,0,0,1,0,0v0a8.62,8.62,0,0,1-8.62,8.62h0a0,0,0,0,1,0,0v0A8.62,8.62,0,0,1,376.37,292.49Z" transform="translate(365.46 772.7) rotate(-127.79)"></path>
  <path class="cls-6" d="M372.37,305.1h0a0,0,0,0,1,0,0v0a8.62,8.62,0,0,1-8.62,8.62h0a0,0,0,0,1,0,0v0A8.62,8.62,0,0,1,372.37,305.1Z" transform="translate(501.4 771.38) rotate(-146.15)"></path>
  <path class="cls-6" d="M372.37,313.47h0a0,0,0,0,1,0,0v0a8.62,8.62,0,0,1-8.62,8.62h0a0,0,0,0,1,0,0v0A8.62,8.62,0,0,1,372.37,313.47Z" transform="matrix(-0.83, -0.56, 0.56, -0.83, 496.74, 786.71)"></path>
  <path class="cls-6" d="M376.2,320.79h0a0,0,0,0,1,0,0v0a8.62,8.62,0,0,1-8.62,8.62h0a0,0,0,0,1,0,0v0A8.62,8.62,0,0,1,376.2,320.79Z" transform="translate(499.67 802.24) rotate(-146.15)"></path>
  <path class="cls-6" d="M389.72,323.67h0a0,0,0,0,1,0,0v0a8.62,8.62,0,0,1-8.62,8.62h0a0,0,0,0,1,0,0v0A8.62,8.62,0,0,1,389.72,323.67Z" transform="translate(294.07 825.74) rotate(-120)"></path>
  <path class="cls-6" d="M392.12,333.65h0a0,0,0,0,1,0,0v0a8.62,8.62,0,0,1-8.62,8.62h0a0,0,0,0,1,0,0v0A8.62,8.62,0,0,1,392.12,333.65Z" transform="translate(138.79 788.07) rotate(-102.12)"></path>
  <path class="cls-6" d="M381.18,330.25h0a0,0,0,0,1,0,0v0a8.62,8.62,0,0,1-8.62,8.62h0a0,0,0,0,1,0,0v0A8.62,8.62,0,0,1,381.18,330.25Z" transform="translate(586.43 792.87) rotate(-156.17)"></path>
  <path class="cls-9" d="M391.5,247.43c.31-2.58,3.28-3.92,5.87-4.13,3-.24,6.29.53,8.1,2.92,1.3,1.71,1.61,4,1.83,6.11.71,7,.91,14.26,3.33,20.9s7.68,12.81,14.66,14c3.74.63,8-.45,10.24-3.49a10.94,10.94,0,0,0,2-6.25c.06-2.09-.46-4.47-2.26-5.51-2.17-1.26-5.2.34-5.93,2.73s.44,5.06,2.33,6.7a15,15,0,0,0,6.8,3,30.07,30.07,0,0,0,15-.16A19,19,0,0,0,465,275.06"></path>
  <path class="cls-8" d="M374.62,266.36H388.2a8.09,8.09,0,0,0,7.89-6.36l2.61-12H364.12l2.61,12A8.08,8.08,0,0,0,374.62,266.36Z"></path>
  <rect class="cls-7" x="377.85" y="240.26" width="7.13" height="7.78" transform="translate(762.82 488.29) rotate(-180)"></rect>
  <line class="cls-6" x1="381.41" y1="240.26" x2="381.41" y2="219.5"></line>
  <path class="cls-6" d="M402.76,233.76h0a0,0,0,0,1,0,0v0A12.74,12.74,0,0,1,390,246.5h0a0,0,0,0,1,0,0v0A12.74,12.74,0,0,1,402.76,233.76Z" transform="matrix(0.99, -0.13, 0.13, 0.99, -26.93, 51.48)"></path>
  <path class="cls-6" d="M391.91,232.19h0a0,0,0,0,1,0,0v0a12.74,12.74,0,0,1-12.74,12.74h0a0,0,0,0,1,0,0v0A12.74,12.74,0,0,1,391.91,232.19Z" transform="translate(-66.96 266.83) rotate(-35.32)"></path>
  <path class="cls-6" d="M384.26,232.76h0a0,0,0,0,1,0,0v0a12.74,12.74,0,0,1-12.74,12.74h0a0,0,0,0,1,0,0v0A12.74,12.74,0,0,1,384.26,232.76Z" transform="matrix(0.31, -0.95, 0.95, 0.31, 33.92, 524.9)"></path>
  <path class="cls-6" d="M398.14,232.92h0a0,0,0,0,1,0,0v0a12.74,12.74,0,0,1-12.74,12.74h0a0,0,0,0,1,0,0v0A12.74,12.74,0,0,1,398.14,232.92Z" transform="translate(-29.05 55.84) rotate(-7.86)"></path>
  <path class="cls-6" d="M376,241h0a0,0,0,0,1,0,0v0a8.62,8.62,0,0,1-8.62,8.62h0a0,0,0,0,1,0,0v0A8.62,8.62,0,0,1,376,241Z" transform="translate(442.28 684.99) rotate(-132.54)"></path>
  <path class="cls-6" d="M405.92,240.75h0a0,0,0,0,1,0,0v0a8.62,8.62,0,0,1-8.62,8.62h0a0,0,0,0,1,0,0v0A8.62,8.62,0,0,1,405.92,240.75Z" transform="translate(177.39 -168.55) rotate(30.15)"></path>
  <path class="cls-6" d="M443.35,286h0a0,0,0,0,1,0,0v0a8.62,8.62,0,0,1-8.62,8.62h0a0,0,0,0,1,0,0v0a8.62,8.62,0,0,1,8.62-8.62Z" transform="translate(-51.16 98.63) rotate(-12.12)"></path>
  <path class="cls-6" d="M451.35,287h0a0,0,0,0,1,0,0v0a8.62,8.62,0,0,1-8.62,8.62h0a0,0,0,0,1,0,0v0A8.62,8.62,0,0,1,451.35,287Z" transform="translate(-43.86 500.31) rotate(-56.15)"></path>
  <path class="cls-6" d="M459.14,286h0a0,0,0,0,1,0,0v0a8.62,8.62,0,0,1-8.62,8.62h0a0,0,0,0,1,0,0v0A8.62,8.62,0,0,1,459.14,286Z" transform="translate(82.71 681.01) rotate(-78.94)"></path>
  <path class="cls-6" d="M466,281.11h0a0,0,0,0,1,0,0v0a8.62,8.62,0,0,1-8.62,8.62h0a0,0,0,0,1,0,0v0A8.62,8.62,0,0,1,466,281.11Z" transform="translate(390.56 823.56) rotate(-114.19)"></path>
  <path class="cls-6" d="M430.23,269.46h0a0,0,0,0,1,0,0v0a8.62,8.62,0,0,1-8.62,8.62h0a0,0,0,0,1,0,0v0A8.62,8.62,0,0,1,430.23,269.46Z" transform="translate(-75.1 346.81) rotate(-41.03)"></path>
  <path class="cls-6" d="M512.76,359h0a0,0,0,0,1,0,0v0a8.62,8.62,0,0,1-8.62,8.62h0a0,0,0,0,1,0,0v0A8.62,8.62,0,0,1,512.76,359Z" transform="translate(1128.75 439.06) rotate(151.42)"></path>
  <path class="cls-6" d="M519.44,350.56h0a0,0,0,0,1,0,0v0a8.62,8.62,0,0,1-8.62,8.62h0a0,0,0,0,1,0,0v0A8.62,8.62,0,0,1,519.44,350.56Z" transform="translate(865.63 872.98) rotate(-158.64)"></path>
  <path class="cls-6" d="M506.49,314.78h0a0,0,0,0,1,0,0v0a8.62,8.62,0,0,1-8.62,8.62h0a0,0,0,0,1,0,0v0A8.62,8.62,0,0,1,506.49,314.78Z" transform="translate(905.68 756.34) rotate(-165.13)"></path>
  <path class="cls-6" d="M518.36,320.82h0a0,0,0,0,1,0,0v0a8.62,8.62,0,0,1-8.62,8.62h0a0,0,0,0,1,0,0v0A8.62,8.62,0,0,1,518.36,320.82Z" transform="translate(264.52 879.83) rotate(-98.09)"></path>
  <path class="cls-9" d="M386.27,247.9a3,3,0,0,1,3.05,2.86c0,2.9-2.33,5.17-4.37,7.23a18.59,18.59,0,0,0-4.27,5.93A8,8,0,0,0,381,271c1.88,3,5.9,3.83,8.77,6A11.1,11.1,0,0,1,393,290.37a30.42,30.42,0,0,1-3.85,5.22c-3.67,4.59-6.27,10.58-4.95,16.31a5.88,5.88,0,0,0,1.71,3.25c1.44,1.22,3.54,1.18,5.42,1.07"></path>
  <path class="cls-9" d="M374.14,248.29a8.41,8.41,0,0,0-5.8,5,22.52,22.52,0,0,0-1.48,8.42,36.69,36.69,0,0,0,1.36,11.95,19.55,19.55,0,0,0,6.6,9.89c1.56,1.18,3.41,2.13,4.39,3.83,1.22,2.1.76,4.77,0,7.09-1.21,3.87-3,7.52-4.29,11.38s-1.87,8.08-.62,11.94c1,3.07,3.11,5.63,4.95,8.28s3.51,5.67,3.4,8.9-2.63,6.56-5.86,6.46"></path>
  <path class="cls-8" d="M481.16,266.36h13.57a8.08,8.08,0,0,0,7.89-6.36l2.62-12H470.65l2.61,12A8.09,8.09,0,0,0,481.16,266.36Z"></path>
  <rect class="cls-7" x="484.38" y="240.26" width="7.13" height="7.78" transform="translate(975.89 488.29) rotate(-180)"></rect>
  <line class="cls-6" x1="487.94" y1="240.26" x2="487.94" y2="219.5"></line>
  <path class="cls-9" d="M478.69,247.17c1.16-4.23-2.68-8.75-7.05-9.12s-8.55,2.65-10.51,6.57-2.06,8.54-1.36,12.87c.94,5.8,3.43,11.64,8.17,15.11,3.74,2.74,8.45,3.74,13,4.36s9.3,1,13.61,2.68,8.28,5.07,9.29,9.59a17.1,17.1,0,0,1-.19,6.83c-2,10.64-7.54,20.57-7.94,31.38-.54,14.15,6.56,25.51,19.53,33.78"></path>
  <path class="cls-9" d="M498.1,247.3c1.29,3.47.15,7.42-1.74,10.6s-4.49,5.89-6.49,9a27.95,27.95,0,0,0,4.85,35.83c2.51,2.26,5.41,4.05,8,6.21s5,4.81,5.9,8.06a14.91,14.91,0,0,1,.42,5.07,23,23,0,0,1-3.72,11.06"></path>
  <path class="cls-9" d="M485.88,248.29c.07,5.17-4.12,9.62-8.92,11.54s-10.13,1.86-15.3,1.82-10.52,0-15.24,2.13a26.11,26.11,0,0,0-6.35,4.22c-3.26,2.82-6.31,6.69-5.8,11a8,8,0,0,0,6.11,6.68c3.12.65,6.73-1,7.77-4a8.06,8.06,0,0,0-.88-6.37c-2.64-4.83-8.26-7.5-13.76-7.78s-10.9,1.52-15.91,3.81-9.77,5.11-14.9,7.1a22.21,22.21,0,0,1-9.74,1.84,10.68,10.68,0,0,1-8.38-4.75"></path>
  <path class="cls-6" d="M495.05,250.14h0a0,0,0,0,1,0,0v0a8.62,8.62,0,0,1-8.62,8.62h0a0,0,0,0,1,0,0v0a8.62,8.62,0,0,1,8.62-8.62Z" transform="matrix(-0.26, -0.97, 0.97, -0.26, 370.02, 793.9)"></path>
  <path class="cls-6" d="M504.28,258.7h0a0,0,0,0,1,0,0v0a8.62,8.62,0,0,1-8.62,8.62h0a0,0,0,0,1,0,0v0A8.62,8.62,0,0,1,504.28,258.7Z" transform="translate(373.33 813.55) rotate(-104.79)"></path>
  <path class="cls-6" d="M498.67,267h0a0,0,0,0,1,0,0v0a8.62,8.62,0,0,1-8.62,8.62h0a0,0,0,0,1,0,0v0A8.62,8.62,0,0,1,498.67,267Z" transform="translate(449.47 833.37) rotate(-114.19)"></path>
  <path class="cls-6" d="M513.49,283.41h0a0,0,0,0,1,0,0v0a8.62,8.62,0,0,1-8.62,8.62h0a0,0,0,0,1,0,0v0A8.62,8.62,0,0,1,513.49,283.41Z" transform="translate(1002.22 602.3) rotate(-176.93)"></path>
  <path class="cls-6" d="M500.36,281.48h0a0,0,0,0,1,0,0v0a8.62,8.62,0,0,1-8.62,8.62h0a0,0,0,0,1,0,0v0A8.62,8.62,0,0,1,500.36,281.48Z" transform="translate(702.9 819.6) rotate(-141.13)"></path>
  <path class="cls-6" d="M484.49,283.07h0a0,0,0,0,1,0,0v0a8.62,8.62,0,0,1-8.62,8.62h0a0,0,0,0,1,0,0v0A8.62,8.62,0,0,1,484.49,283.07Z" transform="translate(414.79 843.15) rotate(-114.19)"></path>
  <path class="cls-6" d="M481.65,249.39h0a0,0,0,0,1,0,0v0A8.62,8.62,0,0,1,473,258h0a0,0,0,0,1,0,0v0a8.62,8.62,0,0,1,8.62-8.62Z" transform="translate(441.5 793.08) rotate(-114.19)"></path>
  <path class="cls-6" d="M473.85,252.51h0a0,0,0,0,1,0,0v0a8.62,8.62,0,0,1-8.62,8.62h0a0,0,0,0,1,0,0v0a8.62,8.62,0,0,1,8.62-8.62Z" transform="matrix(0.05, -1, 1, 0.05, 187.94, 711.93)"></path>
  <path class="cls-6" d="M465.55,262.05h0a0,0,0,0,1,0,0v0a8.62,8.62,0,0,1-8.62,8.62h0a0,0,0,0,1,0,0v0A8.62,8.62,0,0,1,465.55,262.05Z" transform="translate(-49.56 115.45) rotate(-13.55)"></path>
  <path class="cls-6" d="M464.89,252.89h0a0,0,0,0,1,0,0v0a8.62,8.62,0,0,1-8.62,8.62h0a0,0,0,0,1,0,0v0A8.62,8.62,0,0,1,464.89,252.89Z" transform="translate(152.52 685.43) rotate(-83.45)"></path>
  <path class="cls-6" d="M489,292.75h0a0,0,0,0,1,0,0v0a8.62,8.62,0,0,1-8.62,8.62h0a0,0,0,0,1,0,0v0A8.62,8.62,0,0,1,489,292.75Z" transform="translate(553.8 861.32) rotate(-128.49)"></path>
  <path class="cls-6" d="M494.81,301.47h0a0,0,0,0,1,0,0v0a8.62,8.62,0,0,1-8.62,8.62h0a0,0,0,0,1,0,0v0A8.62,8.62,0,0,1,494.81,301.47Z" transform="translate(785.99 802.54) rotate(-152.69)"></path>
  <path class="cls-6" d="M501.6,307.72h0a0,0,0,0,1,0,0v0a8.62,8.62,0,0,1-8.62,8.62h0a0,0,0,0,1,0,0v0A8.62,8.62,0,0,1,501.6,307.72Z" transform="translate(897.87 741.2) rotate(-165.13)"></path>
  <path class="cls-6" d="M495.05,283.68h0a0,0,0,0,1,0,0v0a8.62,8.62,0,0,1-8.62,8.62h0a0,0,0,0,1,0,0v0A8.62,8.62,0,0,1,495.05,283.68Z" transform="translate(1051.18 386.38) rotate(159.55)"></path>
  <path class="cls-6" d="M500.36,291.1h0a0,0,0,0,1,0,0v0a8.62,8.62,0,0,1-8.62,8.62h0a0,0,0,0,1,0,0v0A8.62,8.62,0,0,1,500.36,291.1Z" transform="translate(1043.06 480.1) rotate(167.88)"></path>
  <path class="cls-6" d="M506.74,296.54h0a0,0,0,0,1,0,0v0a8.62,8.62,0,0,1-8.62,8.62h0a0,0,0,0,1,0,0v0A8.62,8.62,0,0,1,506.74,296.54Z" transform="translate(1056.82 489.53) rotate(167.88)"></path>
  <path class="cls-6" d="M514.22,302.65h0a0,0,0,0,1,0,0v0a8.62,8.62,0,0,1-8.62,8.62h0a0,0,0,0,1,0,0v0A8.62,8.62,0,0,1,514.22,302.65Z" transform="translate(1031.41 593.78) rotate(177.76)"></path>
  <path class="cls-6" d="M494.15,322.6h0a0,0,0,0,1,0,0v0a8.62,8.62,0,0,1-8.62,8.62h0a0,0,0,0,1,0,0v0A8.62,8.62,0,0,1,494.15,322.6Z" transform="translate(666.05 888.83) rotate(-141.13)"></path>
  <path class="cls-6" d="M495.24,332.11h0a0,0,0,0,1,0,0v0a8.62,8.62,0,0,1-8.62,8.62h0a0,0,0,0,1,0,0v0A8.62,8.62,0,0,1,495.24,332.11Z" transform="translate(849.97 811.06) rotate(-161.53)"></path>
  <path class="cls-6" d="M497.94,341.47h0a0,0,0,0,1,0,0v0a8.62,8.62,0,0,1-8.62,8.62h0a0,0,0,0,1,0,0v0A8.62,8.62,0,0,1,497.94,341.47Z" transform="translate(973.66 710.2) rotate(-177.81)"></path>
  <path class="cls-6" d="M508,337.64h0a0,0,0,0,1,0,0v0a8.62,8.62,0,0,1-8.62,8.62h0a0,0,0,0,1,0,0v0A8.62,8.62,0,0,1,508,337.64Z" transform="translate(542.86 949.48) rotate(-127.86)"></path>
  <path class="cls-6" d="M503.44,350.67h0a0,0,0,0,1,0,0v0a8.62,8.62,0,0,1-8.62,8.62h0a0,0,0,0,1,0,0v0A8.62,8.62,0,0,1,503.44,350.67Z" transform="translate(1047.46 627.88) rotate(171.04)"></path>
  <path class="cls-6" d="M512.56,345h0a0,0,0,0,1,0,0v0a8.62,8.62,0,0,1-8.62,8.62h0a0,0,0,0,1,0,0v0A8.62,8.62,0,0,1,512.56,345Z" transform="translate(662.87 946.27) rotate(-139.02)"></path>
  <path class="cls-6" d="M506.06,328h0a0,0,0,0,1,0,0v0a8.62,8.62,0,0,1-8.62,8.62h0a0,0,0,0,1,0,0v0A8.62,8.62,0,0,1,506.06,328Z" transform="translate(822.95 841.17) rotate(-155.77)"></path>
  <path class="cls-6" d="M489.79,258.26h0a0,0,0,0,1,0,0v0a8.62,8.62,0,0,1-8.62,8.62h0a0,0,0,0,1,0,0v0a8.62,8.62,0,0,1,8.62-8.62Z" transform="translate(500.82 814.29) rotate(-120)"></path>
  <path class="cls-6" d="M503.69,233.53h0a0,0,0,0,1,0,0v0a12.74,12.74,0,0,1-12.74,12.74h0a0,0,0,0,1,0,0v0A12.74,12.74,0,0,1,503.69,233.53Z" transform="translate(-33.18 86.77) rotate(-9.65)"></path>
  <path class="cls-6" d="M492.78,232.43h0a0,0,0,0,1,0,0v0A12.74,12.74,0,0,1,480,245.17h0a0,0,0,0,1,0,0v0A12.74,12.74,0,0,1,492.78,232.43Z" transform="translate(-44.32 348.11) rotate(-37.79)"></path>
  <path class="cls-6" d="M485.16,233.32h0a0,0,0,0,1,0,0v0a12.74,12.74,0,0,1-12.74,12.74h0a0,0,0,0,1,0,0v0A12.74,12.74,0,0,1,485.16,233.32Z" transform="translate(119.93 637.07) rotate(-74.51)"></path>
  <path class="cls-6" d="M499,232.89h0a0,0,0,0,1,0,0v0a12.74,12.74,0,0,1-12.74,12.74h0a0,0,0,0,1,0,0v0A12.74,12.74,0,0,1,499,232.89Z" transform="translate(-34.91 92.19) rotate(-10.33)"></path>
  <path class="cls-6" d="M477.2,241.79h0a0,0,0,0,1,0,0v0a8.62,8.62,0,0,1-8.62,8.62h0a0,0,0,0,1,0,0v0A8.62,8.62,0,0,1,477.2,241.79Z" transform="translate(633.25 754.49) rotate(-135)"></path>
  <path class="cls-6" d="M507.06,240.29h0a0,0,0,0,1,0,0v0a8.62,8.62,0,0,1-8.62,8.62h0a0,0,0,0,1,0,0v0A8.62,8.62,0,0,1,507.06,240.29Z" transform="translate(171.18 -205.56) rotate(27.68)"></path>
  <path class="cls-6" d="M475,261.15h0a0,0,0,0,1,0,0v0a8.62,8.62,0,0,1-8.62,8.62h0a0,0,0,0,1,0,0v0A8.62,8.62,0,0,1,475,261.15Z" transform="translate(-57.1 149.46) rotate(-17.03)"></path>
  <path class="cls-6" d="M455.09,254.11h0a0,0,0,0,1,0,0v0a8.62,8.62,0,0,1-8.62,8.62h0a0,0,0,0,1,0,0v0a8.62,8.62,0,0,1,8.62-8.62Z" transform="translate(216.3 722.1) rotate(-93)"></path>
  <path class="cls-6" d="M447.84,264.47h0a0,0,0,0,1,0,0v0a8.62,8.62,0,0,1-8.62,8.62h0a0,0,0,0,1,0,0v0A8.62,8.62,0,0,1,447.84,264.47Z" transform="matrix(0.94, -0.34, 0.34, 0.94, -64.49, 164.5)"></path>
  <path class="cls-6" d="M446.22,255.43h0a0,0,0,0,1,0,0v0a8.62,8.62,0,0,1-8.62,8.62h0a0,0,0,0,1,0,0v0A8.62,8.62,0,0,1,446.22,255.43Z" transform="translate(178.47 699.46) rotate(-89.52)"></path>
  <path class="cls-6" d="M437.21,257.63h0a0,0,0,0,1,0,0v0a8.62,8.62,0,0,1-8.62,8.62h0a0,0,0,0,1,0,0v0A8.62,8.62,0,0,1,437.21,257.63Z" transform="translate(36.24 576.06) rotate(-69.55)"></path>
  <path class="cls-6" d="M419.28,284.13h0a0,0,0,0,1,0,0v0a8.62,8.62,0,0,1-8.62,8.62h0a0,0,0,0,1,0,0v0A8.62,8.62,0,0,1,419.28,284.13Z" transform="translate(-72.75 156.05) rotate(-19.62)"></path>
  <path class="cls-6" d="M427.54,288.69h0a0,0,0,0,1,0,0v0a8.62,8.62,0,0,1-8.62,8.62h0a0,0,0,0,1,0,0v0A8.62,8.62,0,0,1,427.54,288.69Z" transform="matrix(0.83, -0.56, 0.56, 0.83, -91.5, 287.57)"></path>
  <path class="cls-6" d="M437.68,288.29h0a0,0,0,0,1,0,0v0a8.62,8.62,0,0,1-8.62,8.62h0a0,0,0,0,1,0,0v0A8.62,8.62,0,0,1,437.68,288.29Z" transform="matrix(0.35, -0.94, 0.94, 0.35, 7.82, 596.45)"></path>
  <path class="cls-6" d="M428.24,257.92h0a0,0,0,0,1,0,0v0a8.62,8.62,0,0,1-8.62,8.62h0a0,0,0,0,1,0,0v0A8.62,8.62,0,0,1,428.24,257.92Z" transform="translate(30.13 567.85) rotate(-69.55)"></path>
  <path class="cls-6" d="M420.53,260.59h0a0,0,0,0,1,0,0v0a8.62,8.62,0,0,1-8.62,8.62h0a0,0,0,0,1,0,0v0A8.62,8.62,0,0,1,420.53,260.59Z" transform="translate(22.61 562.36) rotate(-69.55)"></path>
  <path class="cls-6" d="M407.26,263.29h0a0,0,0,0,1,0,0v0a8.62,8.62,0,0,1-8.62,8.62h0a0,0,0,0,1,0,0v0A8.62,8.62,0,0,1,407.26,263.29Z" transform="translate(719.79 633.1) rotate(-164.51)"></path>
  <path class="cls-6" d="M390.34,261h0a0,0,0,0,1,0,0v0a8.62,8.62,0,0,1-8.62,8.62h0a0,0,0,0,1,0,0v0A8.62,8.62,0,0,1,390.34,261Z" transform="translate(471.39 725.89) rotate(-135)"></path>
  <path class="cls-6" d="M392.12,281.48h0a0,0,0,0,1,0,0v0a8.62,8.62,0,0,1-8.62,8.62h0a0,0,0,0,1,0,0v0A8.62,8.62,0,0,1,392.12,281.48Z" transform="translate(651.35 689.05) rotate(-159.55)"></path>
  <path class="cls-6" d="M388.2,289.53h0a0,0,0,0,1,0,0v0a8.62,8.62,0,0,1-8.62,8.62h0a0,0,0,0,1,0,0v0A8.62,8.62,0,0,1,388.2,289.53Z" transform="translate(386.88 777.28) rotate(-127.79)"></path>
  <path class="cls-6" d="M383.05,299.27h0a0,0,0,0,1,0,0v0a8.62,8.62,0,0,1-8.62,8.62h0a0,0,0,0,1,0,0v0A8.62,8.62,0,0,1,383.05,299.27Z" transform="translate(463.66 781.5) rotate(-138.79)"></path>
  <path class="cls-6" d="M384.52,310.1h0a0,0,0,0,1,0,0v0a8.62,8.62,0,0,1-8.62,8.62h0a0,0,0,0,1,0,0v0A8.62,8.62,0,0,1,384.52,310.1Z" transform="translate(805.13 565.11) rotate(170.95)"></path>
  <path class="cls-6" d="M393.24,315.76h0a0,0,0,0,1,0,0v0a8.62,8.62,0,0,1-8.62,8.62h0a0,0,0,0,1,0,0v0A8.62,8.62,0,0,1,393.24,315.76Z" transform="matrix(-0.27, 0.96, -0.96, -0.27, 801.25, 30.76)"></path>
  <path class="cls-6" d="M396.07,297h0a0,0,0,0,1,0,0v0a8.62,8.62,0,0,1-8.62,8.62h0a0,0,0,0,1,0,0v0A8.62,8.62,0,0,1,396.07,297Z" transform="translate(47.69 656.17) rotate(-83.45)"></path>
  <path class="cls-6" d="M397.3,309.7h0a0,0,0,0,1,0,0v0a8.62,8.62,0,0,1-8.62,8.62h0a0,0,0,0,1,0,0v0A8.62,8.62,0,0,1,397.3,309.7Z" transform="translate(544.48 793.7) rotate(-146.15)"></path>
  <path class="cls-6" d="M401.58,286.26h0a0,0,0,0,1,0,0v0a8.62,8.62,0,0,1-8.62,8.62h0a0,0,0,0,1,0,0v0A8.62,8.62,0,0,1,401.58,286.26Z" transform="translate(35.91 624.75) rotate(-78.94)"></path>
  <path class="cls-6" d="M383.1,251.73h0a0,0,0,0,1,0,0v0a8.62,8.62,0,0,1-8.62,8.62h0a0,0,0,0,1,0,0v0A8.62,8.62,0,0,1,383.1,251.73Z" transform="translate(634.83 -122.75) rotate(90)"></path>
  <path class="cls-6" d="M417.46,250.79h0a0,0,0,0,1,0,0v0a8.62,8.62,0,0,1-8.62,8.62h0a0,0,0,0,1,0,0v0a8.62,8.62,0,0,1,8.62-8.62Z" transform="translate(743.16 611.28) rotate(-164.51)"></path>
  <path class="cls-6" d="M406.43,248.89h0a0,0,0,0,1,0,0v0a8.62,8.62,0,0,1-8.62,8.62h0a0,0,0,0,1,0,0v0a8.62,8.62,0,0,1,8.62-8.62Z" transform="matrix(-0.58, -0.82, 0.82, -0.58, 428.04, 727.69)"></path>
  <path class="cls-6" d="M457.11,262.58h0a0,0,0,0,1,0,0v0a8.62,8.62,0,0,1-8.62,8.62h0a0,0,0,0,1,0,0v0A8.62,8.62,0,0,1,457.11,262.58Z" transform="translate(-68.4 199.02) rotate(-23.1)"></path>
  <path class="cls-6" d="M381.18,339.74h0a0,0,0,0,1,0,0v0a8.62,8.62,0,0,1-8.62,8.62h0a0,0,0,0,1,0,0v0A8.62,8.62,0,0,1,381.18,339.74Z" transform="translate(753.74 688.09) rotate(-180)"></path>
  <rect class="cls-6" x="245.28" y="274.28" width="109.91" height="201.32"></rect>
  <rect class="cls-6" x="77.3" y="198.38" width="10.86" height="280.96" transform="translate(165.46 677.71) rotate(-180)"></rect>
  <rect class="cls-6" x="234.51" y="198.38" width="10.86" height="280.96" transform="translate(479.87 677.71) rotate(-180)"></rect>
  <rect class="cls-6" x="66.6" y="432.3" width="178.76" height="43.31" transform="translate(311.97 907.9) rotate(-180)"></rect>
  <rect class="cls-6" x="61.7" y="422.31" width="188.27" height="10.07" transform="translate(311.67 854.7) rotate(-180)"></rect>
  <rect class="cls-6" x="88.16" y="198.38" width="146.35" height="21.12" transform="translate(322.67 417.88) rotate(-180)"></rect>
  <rect class="cls-6" x="88.33" y="274.28" width="146.18" height="6.34" transform="translate(322.84 554.89) rotate(-180)"></rect>
  <rect class="cls-7" x="70.69" y="112.43" width="458.62" height="22.62"></rect>
  <rect class="cls-7" x="70.69" y="149.46" width="458.62" height="48.92"></rect>
  <rect class="cls-8" x="61.83" y="96.69" width="476.35" height="15.75"></rect>
  <rect class="cls-6" x="511.87" y="198.38" width="10.86" height="280.96"></rect>
  <rect class="cls-6" x="354.66" y="198.38" width="10.86" height="280.96"></rect>
  <rect class="cls-7" x="70.69" y="135.06" width="9.17" height="14.4"></rect>
  <rect class="cls-7" x="79.86" y="135.06" width="9.17" height="14.4"></rect>
  <rect class="cls-7" x="89.03" y="135.06" width="9.17" height="14.4"></rect>
  <rect class="cls-7" x="98.21" y="135.06" width="9.17" height="14.4"></rect>
  <rect class="cls-7" x="107.38" y="135.06" width="9.17" height="14.4"></rect>
  <rect class="cls-7" x="116.55" y="135.06" width="9.17" height="14.4"></rect>
  <rect class="cls-7" x="125.72" y="135.06" width="9.17" height="14.4"></rect>
  <rect class="cls-7" x="134.9" y="135.06" width="9.17" height="14.4"></rect>
  <rect class="cls-7" x="144.07" y="135.06" width="9.17" height="14.4"></rect>
  <rect class="cls-7" x="153.24" y="135.06" width="9.17" height="14.4"></rect>
  <rect class="cls-7" x="162.41" y="135.06" width="9.17" height="14.4"></rect>
  <rect class="cls-7" x="171.59" y="135.06" width="9.17" height="14.4"></rect>
  <rect class="cls-7" x="180.76" y="135.06" width="9.17" height="14.4"></rect>
  <rect class="cls-7" x="189.93" y="135.06" width="9.17" height="14.4"></rect>
  <rect class="cls-7" x="199.1" y="135.06" width="9.17" height="14.4"></rect>
  <rect class="cls-7" x="208.28" y="135.06" width="9.17" height="14.4"></rect>
  <rect class="cls-7" x="217.45" y="135.06" width="9.17" height="14.4"></rect>
  <rect class="cls-7" x="226.62" y="135.06" width="9.17" height="14.4"></rect>
  <rect class="cls-7" x="235.79" y="135.06" width="9.17" height="14.4"></rect>
  <rect class="cls-7" x="244.97" y="135.06" width="9.17" height="14.4"></rect>
  <rect class="cls-7" x="254.14" y="135.06" width="9.17" height="14.4"></rect>
  <rect class="cls-7" x="263.31" y="135.06" width="9.17" height="14.4"></rect>
  <rect class="cls-7" x="272.48" y="135.06" width="9.17" height="14.4"></rect>
  <rect class="cls-7" x="281.66" y="135.06" width="9.17" height="14.4"></rect>
  <rect class="cls-7" x="290.83" y="135.06" width="9.17" height="14.4"></rect>
  <rect class="cls-7" x="300" y="135.06" width="9.17" height="14.4"></rect>
  <rect class="cls-7" x="309.17" y="135.06" width="9.17" height="14.4"></rect>
  <rect class="cls-7" x="318.34" y="135.06" width="9.17" height="14.4"></rect>
  <rect class="cls-7" x="327.52" y="135.06" width="9.17" height="14.4"></rect>
  <rect class="cls-7" x="336.69" y="135.06" width="9.17" height="14.4"></rect>
  <rect class="cls-7" x="345.86" y="135.06" width="9.17" height="14.4"></rect>
  <rect class="cls-7" x="355.03" y="135.06" width="9.17" height="14.4"></rect>
  <rect class="cls-7" x="364.21" y="135.06" width="9.17" height="14.4"></rect>
  <rect class="cls-7" x="373.38" y="135.06" width="9.17" height="14.4"></rect>
  <rect class="cls-7" x="382.55" y="135.06" width="9.17" height="14.4"></rect>
  <rect class="cls-7" x="391.72" y="135.06" width="9.17" height="14.4"></rect>
  <rect class="cls-7" x="400.9" y="135.06" width="9.17" height="14.4"></rect>
  <rect class="cls-7" x="410.07" y="135.06" width="9.17" height="14.4"></rect>
  <rect class="cls-7" x="419.24" y="135.06" width="9.17" height="14.4"></rect>
  <rect class="cls-7" x="428.41" y="135.06" width="9.17" height="14.4"></rect>
  <rect class="cls-7" x="437.59" y="135.06" width="9.17" height="14.4"></rect>
  <rect class="cls-7" x="446.76" y="135.06" width="9.17" height="14.4"></rect>
  <rect class="cls-7" x="455.93" y="135.06" width="9.17" height="14.4"></rect>
  <rect class="cls-7" x="465.1" y="135.06" width="9.17" height="14.4"></rect>
  <rect class="cls-7" x="474.28" y="135.06" width="9.17" height="14.4"></rect>
  <rect class="cls-7" x="483.45" y="135.06" width="9.17" height="14.4"></rect>
  <rect class="cls-7" x="492.62" y="135.06" width="9.17" height="14.4"></rect>
  <rect class="cls-7" x="501.79" y="135.06" width="9.17" height="14.4"></rect>
  <rect class="cls-7" x="510.97" y="135.06" width="9.17" height="14.4"></rect>
  <rect class="cls-7" x="520.14" y="135.06" width="9.17" height="14.4"></rect>
  <rect class="cls-8" x="61.83" y="475.6" width="476.35" height="15.75"></rect>
  <rect class="cls-6" x="354.66" y="432.3" width="178.76" height="43.31"></rect>
  <rect class="cls-6" x="350.06" y="422.31" width="188.27" height="10.07"></rect>
  <rect class="cls-6" x="365.52" y="198.38" width="146.35" height="21.12"></rect>
  <rect class="cls-6" x="365.52" y="274.28" width="146.18" height="6.34"></rect>
  <rect class="cls-6" x="245.37" y="198.38" width="109.3" height="21.12" transform="translate(600.03 417.88) rotate(-180)"></rect>
  <rect class="cls-6" x="245.37" y="219.5" width="109.3" height="54.78" transform="translate(600.03 493.78) rotate(-180)"></rect>
  <rect class="cls-10" x="282.63" y="202.24" width="34.78" height="89.3" transform="translate(546.9 -53.13) rotate(90)"></rect>
  <rect class="cls-10" x="255.37" y="290.88" width="89.3" height="106.34"></rect>
  <circle class="cls-9" cx="341.71" cy="410.24" r="4.22"></circle>
  <rect class="cls-10" x="274.32" y="452.52" width="51.35" height="9.52"></rect>
  <line class="cls-11" x1="491.2" y1="203.37" x2="503.43" y2="203.37"></line>
  <line class="cls-11" x1="491.2" y1="213.66" x2="503.43" y2="213.66"></line>
  <line class="cls-11" x1="489.59" y1="208.51" x2="505.04" y2="208.51"></line>
  <line class="cls-11" x1="96.41" y1="203.37" x2="108.64" y2="203.37"></line>
  <line class="cls-11" x1="96.41" y1="213.66" x2="108.64" y2="213.66"></line>
  <line class="cls-11" x1="94.8" y1="208.51" x2="110.25" y2="208.51"></line>
  <rect class="cls-8" x="110.78" y="403.93" width="47.05" height="4.84"></rect>
  <rect class="cls-8" x="110.78" y="382.78" width="47.05" height="4.84"></rect>
  <line class="cls-8" x1="144.46" y1="387.62" x2="144.46" y2="403.93"></line>
  <line class="cls-8" x1="134.3" y1="387.62" x2="134.3" y2="403.93"></line>
  <line class="cls-8" x1="124.14" y1="387.62" x2="124.14" y2="403.93"></line>
  <path class="cls-7" d="M153.81,374.22a14.7,14.7,0,0,1,4.35-4.32"></path>
  <path class="cls-6" d="M173.4,356.88h.46a8.85,8.85,0,0,1,8.85,8.85v0a0,0,0,0,1,0,0h-.46a8.85,8.85,0,0,1-8.85-8.85v0A0,0,0,0,1,173.4,356.88Z" transform="translate(194.57 -41.16) rotate(28.58)"></path>
  <path class="cls-7" d="M180.54,365.08a14.7,14.7,0,0,1,4.35-4.32"></path>
  <path class="cls-6" d="M198.76,358.11h.46a0,0,0,0,1,0,0v0a8.85,8.85,0,0,1-8.85,8.85h-.46a0,0,0,0,1,0,0v0A8.85,8.85,0,0,1,198.76,358.11Z" transform="translate(447.71 686.9) rotate(170.25)"></path>
  <path class="cls-7" d="M191,365.3a14.92,14.92,0,0,0-2.72-5.49"></path>
  <path class="cls-6" d="M199.43,366h.46a8.85,8.85,0,0,1,8.85,8.85v0a0,0,0,0,1,0,0h-.46a8.85,8.85,0,0,1-8.85-8.85v0A0,0,0,0,1,199.43,366Z" transform="translate(202.12 -52.49) rotate(28.58)"></path>
  <circle class="cls-7" cx="179.95" cy="370.72" r="5.85"></circle>
  <circle class="cls-7" cx="190.98" cy="371.29" r="5.85"></circle>
  <circle class="cls-7" cx="203.41" cy="378.66" r="5.85"></circle>
  <circle class="cls-7" cx="172.9" cy="379.42" r="5.85"></circle>
  <circle class="cls-7" cx="182.74" cy="379.78" r="5.85"></circle>
  <circle class="cls-7" cx="194.44" cy="379.78" r="5.85"></circle>
  <rect class="cls-8" x="168.25" y="387.62" width="38.88" height="17.17"></rect>
  <rect class="cls-8" x="163.53" y="403.93" width="47.05" height="4.84"></rect>
  <rect class="cls-8" x="163.53" y="382.78" width="47.05" height="4.84"></rect>
  <line class="cls-8" x1="197.22" y1="387.62" x2="197.22" y2="403.93"></line>
  <line class="cls-8" x1="187.06" y1="387.62" x2="187.06" y2="403.93"></line>
  <line class="cls-8" x1="176.9" y1="387.62" x2="176.9" y2="403.93"></line>
  <path class="cls-7" d="M206.56,374.22a14.7,14.7,0,0,1,4.35-4.32"></path>
  <rect class="cls-12" x="101.26" y="408.76" width="119.5" height="5.69"></rect>
  <rect class="cls-12" x="110.78" y="413.6" width="4.16" height="8.71"></rect>
  <rect class="cls-12" x="206.42" y="413.6" width="4.16" height="8.71"></rect>
  <line class="cls-12" x1="164.41" y1="219.5" x2="164.41" y2="316.75"></line>
  <rect class="cls-12" x="162.04" y="314.39" width="4.73" height="4.73"></rect>
  <circle class="cls-7" cx="164.41" cy="325.75" r="7.97"></circle>
  <line class="cls-12" x1="442.17" y1="219.5" x2="442.17" y2="316.75"></line>
  <rect class="cls-12" x="439.81" y="314.39" width="4.73" height="4.73"></rect>
  <circle class="cls-7" cx="442.17" cy="325.75" r="7.97"></circle>
  <path class="cls-5" d="M188.46,182v.87a.74.74,0,0,1-.2.5.66.66,0,0,1-.5.21h-3.35a.75.75,0,0,1-.52-.2.66.66,0,0,1-.21-.51V164.36a.66.66,0,0,1,.21-.5.71.71,0,0,1,.52-.2H188a.65.65,0,0,1,.5.2.69.69,0,0,1,.2.5v6a5.34,5.34,0,0,1,4.07-1.63,5.44,5.44,0,0,1,4.27,1.75,7.42,7.42,0,0,1,1.69,4.82c0,.24,0,.58,0,1s0,.74,0,1a7.44,7.44,0,0,1-1.67,4.89,5.49,5.49,0,0,1-4.29,1.72A5.29,5.29,0,0,1,188.46,182Zm4.53-2.79a3.88,3.88,0,0,0,.64-2.07c0-.18,0-.48,0-.87s0-.68,0-.87a3.81,3.81,0,0,0-.64-2.06,2.07,2.07,0,0,0-1.81-.75,2.19,2.19,0,0,0-1.78.72,3,3,0,0,0-.66,1.81c0,.24,0,.59,0,1s0,.8,0,1.07a3.46,3.46,0,0,0,.64,2,2.15,2.15,0,0,0,1.8.77A2.1,2.1,0,0,0,193,179.24Z"></path>
  <path class="cls-5" d="M203,182.05a7.16,7.16,0,0,1-2-5.36v-.87a6.81,6.81,0,0,1,7.39-7.1,8.11,8.11,0,0,1,4.09,1,6.19,6.19,0,0,1,2.5,2.67,8.8,8.8,0,0,1,.83,3.87v.7a.7.7,0,0,1-.21.52.72.72,0,0,1-.52.21H206.1v.17a3.6,3.6,0,0,0,.59,2,1.87,1.87,0,0,0,1.6.77,1.92,1.92,0,0,0,1.08-.27,4.11,4.11,0,0,0,.78-.69,1.57,1.57,0,0,1,.4-.35,1.26,1.26,0,0,1,.5-.07h3.68a.62.62,0,0,1,.43.16.48.48,0,0,1,.18.38,2.88,2.88,0,0,1-.82,1.71,6.6,6.6,0,0,1-2.42,1.68,9.19,9.19,0,0,1-3.75.71A7.63,7.63,0,0,1,203,182.05Zm7.62-7.27v-.05a3.29,3.29,0,0,0-.59-2.09,2,2,0,0,0-1.66-.75,1.94,1.94,0,0,0-1.64.75,3.29,3.29,0,0,0-.58,2.09v.05Z"></path>
  <path class="cls-5" d="M219.73,182.05a7.13,7.13,0,0,1-2-5.36v-.87a6.81,6.81,0,0,1,7.39-7.1,8.09,8.09,0,0,1,4.09,1,6.19,6.19,0,0,1,2.5,2.67,8.8,8.8,0,0,1,.83,3.87v.7a.7.7,0,0,1-.21.52.72.72,0,0,1-.52.21h-8.91v.17a3.6,3.6,0,0,0,.59,2,1.88,1.88,0,0,0,1.6.77,2,2,0,0,0,1.09-.27,4.07,4.07,0,0,0,.77-.69,1.58,1.58,0,0,1,.41-.35,1.18,1.18,0,0,1,.49-.07h3.68a.6.6,0,0,1,.43.16.46.46,0,0,1,.19.38,2.9,2.9,0,0,1-.83,1.71,6.6,6.6,0,0,1-2.42,1.68,9.19,9.19,0,0,1-3.75.71A7.61,7.61,0,0,1,219.73,182.05Zm7.61-7.27v-.05a3.29,3.29,0,0,0-.59-2.09,2,2,0,0,0-1.66-.75,1.94,1.94,0,0,0-1.64.75,3.29,3.29,0,0,0-.58,2.09v.05Z"></path>
  <path class="cls-5" d="M236.72,178v-5.2H234.5a.72.72,0,0,1-.7-.7V169.7a.66.66,0,0,1,.21-.51.7.7,0,0,1,.49-.19h2.22v-4.64a.66.66,0,0,1,.21-.5.68.68,0,0,1,.5-.2h3.45a.66.66,0,0,1,.51.2.68.68,0,0,1,.19.5V169h3.52a.76.76,0,0,1,.52.19.66.66,0,0,1,.21.51v2.42a.66.66,0,0,1-.21.5.77.77,0,0,1-.52.2h-3.52v4.77a2.53,2.53,0,0,0,.37,1.49,1.35,1.35,0,0,0,1.18.51h2.22a.66.66,0,0,1,.5.21.69.69,0,0,1,.2.52v2.58a.69.69,0,0,1-.2.5.66.66,0,0,1-.5.21h-2.67C238.71,183.61,236.72,181.74,236.72,178Z"></path>
  <path class="cls-5" d="M248.54,183.4a.7.7,0,0,1-.21-.5V169.73a.73.73,0,0,1,.19-.52A.66.66,0,0,1,249,169h3.43a.72.72,0,0,1,.52.21.7.7,0,0,1,.21.52v1.07a5.17,5.17,0,0,1,1.84-1.34,5.72,5.72,0,0,1,2.34-.46h1.27a.68.68,0,0,1,.5.19.69.69,0,0,1,.2.51v3.06a.7.7,0,0,1-.2.49.66.66,0,0,1-.5.21H255.8a2.32,2.32,0,0,0-1.73.62,2.4,2.4,0,0,0-.6,1.74v7.08a.66.66,0,0,1-.21.51.75.75,0,0,1-.52.2H249A.67.67,0,0,1,248.54,183.4Z"></path>
  <path class="cls-5" d="M262.75,182.24a6.33,6.33,0,0,1-2.06-4.67c0-.25,0-.67,0-1.27s0-1,0-1.26a6.27,6.27,0,0,1,2.12-4.65,9.5,9.5,0,0,1,10.76,0,6.27,6.27,0,0,1,2.12,4.65c0,.48.06.91.06,1.26s0,.78-.06,1.27a6.33,6.33,0,0,1-2.06,4.67,9.79,9.79,0,0,1-10.88,0Zm7.15-2.61a3.91,3.91,0,0,0,.65-2.2c0-.19,0-.57,0-1.13s0-.93,0-1.12a3.9,3.9,0,0,0-.65-2.19,2.37,2.37,0,0,0-3.42,0,3.9,3.9,0,0,0-.65,2.19l0,1.12,0,1.13a3.91,3.91,0,0,0,.65,2.2,2.39,2.39,0,0,0,3.42,0Z"></path>
  <path class="cls-5" d="M280,182.24a6.33,6.33,0,0,1-2.06-4.67c0-.25,0-.67,0-1.27s0-1,0-1.26a6.27,6.27,0,0,1,2.12-4.65,9.5,9.5,0,0,1,10.76,0,6.27,6.27,0,0,1,2.12,4.65c0,.48.06.91.06,1.26s0,.78-.06,1.27a6.33,6.33,0,0,1-2.06,4.67,9.79,9.79,0,0,1-10.88,0Zm7.15-2.61a3.91,3.91,0,0,0,.65-2.2c0-.19,0-.57,0-1.13s0-.93,0-1.12a3.9,3.9,0,0,0-.65-2.19,2.37,2.37,0,0,0-3.42,0,3.9,3.9,0,0,0-.65,2.19l0,1.12,0,1.13a3.91,3.91,0,0,0,.65,2.2,2.39,2.39,0,0,0,3.42,0Z"></path>
  <path class="cls-5" d="M297.32,178v-5.2H295.1a.72.72,0,0,1-.7-.7V169.7a.66.66,0,0,1,.21-.51.7.7,0,0,1,.49-.19h2.22v-4.64a.66.66,0,0,1,.21-.5.68.68,0,0,1,.5-.2h3.45a.66.66,0,0,1,.51.2.68.68,0,0,1,.19.5V169h3.52a.74.74,0,0,1,.52.19.66.66,0,0,1,.21.51v2.42a.66.66,0,0,1-.21.5.75.75,0,0,1-.52.2h-3.52v4.77a2.53,2.53,0,0,0,.37,1.49,1.35,1.35,0,0,0,1.18.51H306a.66.66,0,0,1,.5.21.69.69,0,0,1,.2.52v2.58a.69.69,0,0,1-.2.5.66.66,0,0,1-.5.21h-2.67C299.31,183.61,297.32,181.74,297.32,178Z"></path>
  <path class="cls-5" d="M320,182.47a.68.68,0,0,1-.21-.49v-5.09h-4.95a.68.68,0,0,1-.49-.21.67.67,0,0,1-.21-.49V174a.73.73,0,0,1,.2-.52.66.66,0,0,1,.5-.21h4.95v-4.92a.66.66,0,0,1,.21-.51.69.69,0,0,1,.49-.19H323a.74.74,0,0,1,.52.19.66.66,0,0,1,.21.51v4.92h4.88a.7.7,0,0,1,.52.21.71.71,0,0,1,.22.52v2.16a.65.65,0,0,1-.22.5.69.69,0,0,1-.52.2h-4.88V182a.66.66,0,0,1-.21.5.75.75,0,0,1-.52.2h-2.42A.67.67,0,0,1,320,182.47Z"></path>
  <path class="cls-5" d="M342.5,182v.87a.74.74,0,0,1-.2.5.66.66,0,0,1-.5.21h-3.35a.75.75,0,0,1-.52-.2.66.66,0,0,1-.21-.51V164.36a.66.66,0,0,1,.21-.5.71.71,0,0,1,.52-.2h3.63a.65.65,0,0,1,.5.2.69.69,0,0,1,.2.5v6a5.34,5.34,0,0,1,4.07-1.63,5.43,5.43,0,0,1,4.27,1.75,7.42,7.42,0,0,1,1.69,4.82c0,.24,0,.58,0,1s0,.74,0,1a7.44,7.44,0,0,1-1.67,4.89,5.49,5.49,0,0,1-4.29,1.72A5.29,5.29,0,0,1,342.5,182Zm4.54-2.79a4,4,0,0,0,.63-2.07c0-.18,0-.48,0-.87s0-.68,0-.87a3.9,3.9,0,0,0-.63-2.06,2.11,2.11,0,0,0-1.82-.75,2.19,2.19,0,0,0-1.78.72,3,3,0,0,0-.66,1.81c0,.24,0,.59,0,1s0,.8,0,1.07a3.4,3.4,0,0,0,.65,2,2.54,2.54,0,0,0,3.61,0Z"></path>
  <path class="cls-5" d="M357,182.05a7.13,7.13,0,0,1-2-5.36v-.87a6.81,6.81,0,0,1,7.39-7.1,8.09,8.09,0,0,1,4.09,1,6.19,6.19,0,0,1,2.5,2.67,8.8,8.8,0,0,1,.83,3.87v.7a.7.7,0,0,1-.21.52.72.72,0,0,1-.52.21h-8.91v.17a3.6,3.6,0,0,0,.59,2,1.88,1.88,0,0,0,1.6.77,2,2,0,0,0,1.09-.27,4.07,4.07,0,0,0,.77-.69,1.58,1.58,0,0,1,.41-.35,1.18,1.18,0,0,1,.49-.07h3.68a.6.6,0,0,1,.43.16.49.49,0,0,1,.19.38,2.9,2.9,0,0,1-.83,1.71,6.6,6.6,0,0,1-2.42,1.68,9.19,9.19,0,0,1-3.75.71A7.59,7.59,0,0,1,357,182.05Zm7.61-7.27v-.05a3.29,3.29,0,0,0-.59-2.09,2,2,0,0,0-1.66-.75,1.94,1.94,0,0,0-1.64.75,3.29,3.29,0,0,0-.58,2.09v.05Z"></path>
  <path class="cls-5" d="M374,183.31a4.49,4.49,0,0,1-1.91-1.59,3.84,3.84,0,0,1-.69-2.22,3.71,3.71,0,0,1,1.59-3.1,9.71,9.71,0,0,1,4.36-1.64l3.49-.54v-.33a2.26,2.26,0,0,0-.42-1.52,1.84,1.84,0,0,0-1.44-.48,2.07,2.07,0,0,0-.94.2,4.39,4.39,0,0,0-.85.59,4.3,4.3,0,0,1-.65.45.33.33,0,0,1-.28.19H373a.62.62,0,0,1-.46-.18.48.48,0,0,1-.16-.43,3,3,0,0,1,.76-1.7,5.77,5.77,0,0,1,2.22-1.62,8.9,8.9,0,0,1,3.68-.67c2.32,0,4.05.51,5.17,1.53a5.32,5.32,0,0,1,1.68,4.14v8.51a.73.73,0,0,1-.19.5.66.66,0,0,1-.51.21h-3.45a.67.67,0,0,1-.49-.21.72.72,0,0,1-.22-.5v-1a4.56,4.56,0,0,1-1.71,1.42,5.84,5.84,0,0,1-2.61.55A6.33,6.33,0,0,1,374,183.31Zm6.12-3.55a3.29,3.29,0,0,0,.77-2.36v-.34l-2.33.39c-1.57.3-2.36.87-2.36,1.69a1.23,1.23,0,0,0,.55,1,2.3,2.3,0,0,0,1.36.39A2.64,2.64,0,0,0,380.13,179.76Z"></path>
  <path class="cls-5" d="M389.18,183.4a.7.7,0,0,1-.21-.5V169.7a.66.66,0,0,1,.21-.51.69.69,0,0,1,.49-.19h3.45a.67.67,0,0,1,.71.7v1.07a5.34,5.34,0,0,1,1.95-1.49,6.3,6.3,0,0,1,2.74-.56,5.5,5.5,0,0,1,2.85.73,5,5,0,0,1,2,2.16,7.76,7.76,0,0,1,.71,3.46v7.83a.73.73,0,0,1-.19.5.66.66,0,0,1-.51.21h-3.74a.77.77,0,0,1-.52-.2.66.66,0,0,1-.21-.51v-7.67a2.79,2.79,0,0,0-.6-1.93,2.24,2.24,0,0,0-1.76-.68,2.32,2.32,0,0,0-1.77.69,2.7,2.7,0,0,0-.64,1.92v7.67a.74.74,0,0,1-.2.5.66.66,0,0,1-.5.21h-3.74A.67.67,0,0,1,389.18,183.4Z"></path>
  <path class="cls-5" d="M409.39,183.24a5.84,5.84,0,0,1-2.29-1.54,2.72,2.72,0,0,1-.74-1.63.59.59,0,0,1,.21-.47.69.69,0,0,1,.46-.18h3.4a.39.39,0,0,1,.28.11c.32.21.5.33.54.37a5.45,5.45,0,0,0,1,.6,2.68,2.68,0,0,0,1.11.21,2.43,2.43,0,0,0,1.25-.29.93.93,0,0,0,.49-.83,1,1,0,0,0-.26-.73,2.75,2.75,0,0,0-1-.55,15.87,15.87,0,0,0-2.26-.55q-4.87-1-4.87-4.49a3.75,3.75,0,0,1,.75-2.21,5.19,5.19,0,0,1,2.19-1.7,8.47,8.47,0,0,1,3.47-.64,9.12,9.12,0,0,1,3.55.63,6.13,6.13,0,0,1,2.29,1.51,2.56,2.56,0,0,1,.79,1.62.64.64,0,0,1-.18.45.59.59,0,0,1-.44.2H416a.57.57,0,0,1-.39-.12,4.18,4.18,0,0,1-.68-.42,9.41,9.41,0,0,0-.88-.52,2.27,2.27,0,0,0-1-.18,1.73,1.73,0,0,0-1.1.31,1,1,0,0,0-.39.79,1,1,0,0,0,.24.68,2.33,2.33,0,0,0,1,.52,17.71,17.71,0,0,0,2.26.54,7.48,7.48,0,0,1,4,1.7,3.92,3.92,0,0,1-.62,6.21,9.4,9.4,0,0,1-5.24,1.25A10,10,0,0,1,409.39,183.24Z"></path>
  <path class="cls-5" d="M489.1,183.48a3.09,3.09,0,0,1-1.26-1.06,2.66,2.66,0,0,1-.47-1.4v0a.23.23,0,0,1,.09-.19.32.32,0,0,1,.21-.08h.74a.39.39,0,0,1,.4.33,2.06,2.06,0,0,0,.83,1.21,2.58,2.58,0,0,0,1.41.4,2.38,2.38,0,0,0,1.69-.63,2.2,2.2,0,0,0,.68-1.71,2,2,0,0,0-.68-1.6,2.44,2.44,0,0,0-1.69-.59,2.35,2.35,0,0,0-.87.13,3.18,3.18,0,0,0-.68.39,3.84,3.84,0,0,1-.32.22.68.68,0,0,1-.28.07h-.72a.37.37,0,0,1-.24-.1.26.26,0,0,1-.09-.23l.47-5c0-.25.15-.37.37-.37h5.19a.36.36,0,0,1,.26.09.33.33,0,0,1,.09.25v.56a.33.33,0,0,1-.1.24.37.37,0,0,1-.25.09h-4.32l-.27,3a3.3,3.3,0,0,1,1.94-.51,4.09,4.09,0,0,1,1.83.4,3.13,3.13,0,0,1,1.31,1.16,3.37,3.37,0,0,1,.49,1.82,3.66,3.66,0,0,1-.49,1.91,3.16,3.16,0,0,1-1.35,1.21,4.45,4.45,0,0,1-2,.42A4.38,4.38,0,0,1,489.1,183.48Z"></path>
  <path class="cls-5" d="M497.59,183.64a.38.38,0,0,1-.08-.23l0-.14,3.75-8.77h-5a.37.37,0,0,1-.25-.1.37.37,0,0,1-.09-.25v-.55a.4.4,0,0,1,.09-.27.33.33,0,0,1,.25-.09h6.12a.36.36,0,0,1,.26.09.4.4,0,0,1,.09.27v.51a1.63,1.63,0,0,1-.12.58L499,183.36a1.13,1.13,0,0,1-.16.27.33.33,0,0,1-.26.11h-.75A.3.3,0,0,1,497.59,183.64Z"></path>
  <path class="cls-5" d="M502.85,183.65a.29.29,0,0,1-.09-.21l0-.17,3.72-9.7a.47.47,0,0,1,.48-.33h1a.47.47,0,0,1,.48.33l3.72,9.7,0,.17a.26.26,0,0,1-.1.21.29.29,0,0,1-.21.09h-.71a.37.37,0,0,1-.25-.09.38.38,0,0,1-.12-.17l-.84-2.16h-5l-.82,2.16a.41.41,0,0,1-.38.26h-.72A.29.29,0,0,1,502.85,183.65Zm2.57-3.57h4.11l-2.06-5.39Z"></path>
  <path class="cls-5" d="M85.64,183.69a.29.29,0,0,1-.07-.19v-7.59a.33.33,0,0,1,.07-.21.25.25,0,0,1,.19-.07h4.78a.25.25,0,0,1,.28.28v.41a.25.25,0,0,1-.07.19.28.28,0,0,1-.21.07h-4v2.59h3.72a.27.27,0,0,1,.28.28v.4a.26.26,0,0,1-.08.19.28.28,0,0,1-.2.08H86.64v2.68h4.07a.28.28,0,0,1,.2.08.27.27,0,0,1,.07.2v.42a.22.22,0,0,1-.08.19.24.24,0,0,1-.19.08H85.83A.22.22,0,0,1,85.64,183.69Z"></path>
  <path class="cls-5" d="M93.18,183.62a2.25,2.25,0,0,1-.82-.59,1,1,0,0,1-.27-.56.22.22,0,0,1,.08-.18.26.26,0,0,1,.18-.07h.48a.16.16,0,0,1,.11,0,.44.44,0,0,1,.12.1,1.89,1.89,0,0,0,.59.51,1.78,1.78,0,0,0,.89.19,2,2,0,0,0,1-.23.76.76,0,0,0,.38-.68.67.67,0,0,0-.16-.46,1.35,1.35,0,0,0-.54-.32,10.54,10.54,0,0,0-1.13-.3,2.94,2.94,0,0,1-1.43-.64,1.46,1.46,0,0,1-.42-1.08,1.5,1.5,0,0,1,.26-.83,1.84,1.84,0,0,1,.76-.66,2.79,2.79,0,0,1,1.2-.25,3,3,0,0,1,1.26.25,2.06,2.06,0,0,1,.77.57,1,1,0,0,1,.27.54.25.25,0,0,1-.08.18.24.24,0,0,1-.18.07h-.44a.23.23,0,0,1-.23-.13c-.14-.15-.25-.26-.34-.34a1,1,0,0,0-.39-.21,1.93,1.93,0,0,0-.64-.09,1.37,1.37,0,0,0-.87.24.77.77,0,0,0-.3.63.66.66,0,0,0,.13.42,1.18,1.18,0,0,0,.49.31,6.21,6.21,0,0,0,1.07.3,3.21,3.21,0,0,1,1.56.66,1.45,1.45,0,0,1,.46,1.11,1.52,1.52,0,0,1-.28.9,1.82,1.82,0,0,1-.85.64,3.46,3.46,0,0,1-1.35.24A3.07,3.07,0,0,1,93.18,183.62Z"></path>
  <path class="cls-5" d="M98.88,181.73v-3.11H98a.29.29,0,0,1-.19-.07.25.25,0,0,1-.07-.19V178a.25.25,0,0,1,.07-.19.26.26,0,0,1,.19-.08h.91v-1.94a.29.29,0,0,1,.07-.19.26.26,0,0,1,.19-.08h.51a.27.27,0,0,1,.27.27v1.94h1.44a.26.26,0,0,1,.19.08.22.22,0,0,1,.08.19v.37a.22.22,0,0,1-.08.19.29.29,0,0,1-.19.07H99.92v3a1.67,1.67,0,0,0,.19.9.73.73,0,0,0,.66.3h.71a.26.26,0,0,1,.19.08.29.29,0,0,1,.07.19v.38a.29.29,0,0,1-.07.19.22.22,0,0,1-.19.08h-.79C99.49,183.77,98.88,183.09,98.88,181.73Z"></path>
  <path class="cls-5" d="M102.87,183.69a.26.26,0,0,1-.08-.19v-.8a.3.3,0,0,1,.08-.2.26.26,0,0,1,.19-.08h.8a.28.28,0,0,1,.2.08.29.29,0,0,1,.07.2v.8a.25.25,0,0,1-.07.19.24.24,0,0,1-.2.08h-.8A.22.22,0,0,1,102.87,183.69Z"></path>
  <path class="cls-5" d="M105.56,183.69a.26.26,0,0,1-.08-.19v-.35a.68.68,0,0,1,.29-.51l2.54-2.52a7.63,7.63,0,0,0,1.19-1.2,1.74,1.74,0,0,0,.32-1,1.34,1.34,0,0,0-1.5-1.47,1.48,1.48,0,0,0-1.1.41,1.86,1.86,0,0,0-.51,1.09.27.27,0,0,1-.11.2.3.3,0,0,1-.19.07h-.56a.22.22,0,0,1-.17-.07.2.2,0,0,1-.07-.16,2.7,2.7,0,0,1,.33-1.19,2.51,2.51,0,0,1,.91-.95,2.86,2.86,0,0,1,1.47-.36,2.62,2.62,0,0,1,2,.68,2.38,2.38,0,0,1,.66,1.73,2.47,2.47,0,0,1-.36,1.32,5.25,5.25,0,0,1-1.11,1.24l-2.29,2.32h3.66a.28.28,0,0,1,.2.07.26.26,0,0,1,.07.2v.44a.25.25,0,0,1-.07.19.24.24,0,0,1-.2.08h-5.09A.22.22,0,0,1,105.56,183.69Z"></path>
  <path class="cls-5" d="M113.19,183a3.83,3.83,0,0,1-.74-2.3v-2a3.66,3.66,0,0,1,.74-2.28,2.63,2.63,0,0,1,2.19-.88,2.66,2.66,0,0,1,2.21.88,3.72,3.72,0,0,1,.74,2.28c0,.22,0,.57,0,1s0,.79,0,1a3.83,3.83,0,0,1-.74,2.3,2.66,2.66,0,0,1-2.21.88A2.63,2.63,0,0,1,113.19,183Zm3.54-.68a2.89,2.89,0,0,0,.48-1.68c0-.22,0-.54,0-1s0-.75,0-1a2.88,2.88,0,0,0-.48-1.67,1.6,1.6,0,0,0-1.35-.6,1.59,1.59,0,0,0-1.34.6,2.81,2.81,0,0,0-.47,1.67v1.92a2.82,2.82,0,0,0,.47,1.68,1.83,1.83,0,0,0,2.69,0Z"></path>
  <path class="cls-5" d="M122.1,183.69a.25.25,0,0,1-.07-.19v-6.56l-2,1.5a.23.23,0,0,1-.17.07.27.27,0,0,1-.2-.11l-.28-.37a.25.25,0,0,1-.06-.16.26.26,0,0,1,.12-.21l2.52-1.95a.53.53,0,0,1,.31-.08h.54a.25.25,0,0,1,.19.07.27.27,0,0,1,.08.19v7.61a.26.26,0,0,1-.08.19.22.22,0,0,1-.19.08h-.57A.19.19,0,0,1,122.1,183.69Z"></path>
  <path class="cls-5" d="M126.1,183.69a.28.28,0,0,1-.06-.18.3.3,0,0,1,0-.15l1.79-2.49a2.59,2.59,0,0,1-.65.07,2.74,2.74,0,0,1-1.47-.39,2.53,2.53,0,0,1-1-1,2.67,2.67,0,0,1-.33-1.3,2.82,2.82,0,0,1,.33-1.33,2.55,2.55,0,0,1,1-1,3,3,0,0,1,1.59-.4,3.17,3.17,0,0,1,1.59.38,2.55,2.55,0,0,1,1,1,2.71,2.71,0,0,1,.34,1.33,2.68,2.68,0,0,1-.23,1.13,6.08,6.08,0,0,1-.6,1l-2.25,3.17-.16.17a.34.34,0,0,1-.22.06h-.58A.2.2,0,0,1,126.1,183.69Zm2.2-3.89a1.58,1.58,0,0,0,.66-.62,1.78,1.78,0,0,0,.24-.92,1.84,1.84,0,0,0-.24-.95,1.67,1.67,0,0,0-.66-.63,2,2,0,0,0-.92-.22,1.93,1.93,0,0,0-.9.22,1.67,1.67,0,0,0-.66.63,1.84,1.84,0,0,0-.25.95,1.79,1.79,0,0,0,.25.92,1.61,1.61,0,0,0,.65.62,1.83,1.83,0,0,0,.91.22A1.92,1.92,0,0,0,128.3,179.8Z"></path>
  <rect class="cls-4" x="372.17" y="386.6" width="31.88" height="4.57" rx="0.61"></rect>
  <path class="cls-4" d="M404.05,422.73V396.62a5.44,5.44,0,0,0-5.44-5.45h-21a5.45,5.45,0,0,0-5.44,5.45v26.11Z"></path>
  <rect class="cls-4" x="404.05" y="386.6" width="31.88" height="4.57" rx="0.61"></rect>
  <path class="cls-4" d="M435.94,422.73V396.62a5.45,5.45,0,0,0-5.45-5.45h-21a5.45,5.45,0,0,0-5.45,5.45v26.11Z"></path>
  <path class="cls-5" d="M401.77,392.58H374.45a3.69,3.69,0,0,1,0-7.38h27.32a3.69,3.69,0,0,1,0,7.38ZM374.45,388a.88.88,0,0,0,0,1.76h27.32a.88.88,0,0,0,0-1.76Z"></path>
  <path class="cls-5" d="M404.06,424.13H372.17a1.41,1.41,0,0,1-1.41-1.4V396.62a6.86,6.86,0,0,1,6.85-6.85h21a6.85,6.85,0,0,1,6.85,6.85v26.11A1.4,1.4,0,0,1,404.06,424.13Zm-30.48-2.81h29.07v-24.7a4,4,0,0,0-4-4h-21a4,4,0,0,0-4,4Z"></path>
  <path class="cls-5" d="M433.65,392.58H406.34a3.69,3.69,0,0,1,0-7.38h27.31a3.69,3.69,0,0,1,0,7.38ZM406.34,388a.88.88,0,0,0,0,1.76h27.31a.88.88,0,0,0,0-1.76Z"></path>
  <path class="cls-5" d="M435.94,424.13H404.06a1.41,1.41,0,0,1-1.41-1.4V396.62a6.85,6.85,0,0,1,6.85-6.85h21a6.85,6.85,0,0,1,6.84,6.85v26.11A1.4,1.4,0,0,1,435.94,424.13Zm-30.48-2.81h29.07v-24.7a4,4,0,0,0-4-4h-21a4,4,0,0,0-4,4Z"></path>
</svg>
