<?xml version="1.0" encoding="UTF-8"?>
<svg xmlns="http://www.w3.org/2000/svg" xmlns:xlink="http://www.w3.org/1999/xlink" id="Layer_1" data-name="Layer 1" viewBox="0 0 600 600">
  <defs>
    <style>.cls-1,.cls-17,.cls-9{fill:none;}.cls-2{fill:#1c19a8;}.cls-18,.cls-3{fill:#fff;}.cls-10,.cls-4,.cls-8{fill:#ffde00;}.cls-10,.cls-11,.cls-12,.cls-13,.cls-14,.cls-15,.cls-16,.cls-17,.cls-18,.cls-19,.cls-4,.cls-5,.cls-6,.cls-7,.cls-8,.cls-9{stroke:#1c19a8;}.cls-11,.cls-12,.cls-13,.cls-14,.cls-15,.cls-4,.cls-5,.cls-7,.cls-8,.cls-9{stroke-linejoin:round;}.cls-4{stroke-width:2.81px;}.cls-14,.cls-15,.cls-5,.cls-6,.cls-7{fill:#fb715d;}.cls-10,.cls-11,.cls-16,.cls-17,.cls-18,.cls-19,.cls-5,.cls-6{stroke-width:2.81px;}.cls-10,.cls-16,.cls-17,.cls-18,.cls-19,.cls-6{stroke-miterlimit:10;}.cls-7{stroke-width:2.78px;}.cls-13,.cls-15,.cls-7{fill-rule:evenodd;}.cls-12,.cls-13,.cls-14,.cls-15,.cls-8,.cls-9{stroke-width:2.82px;}.cls-11,.cls-12,.cls-13,.cls-16{fill:#00ab81;}.cls-19{fill:url(#Blue_dots);}</style>
    <pattern id="Blue_dots" data-name="Blue dots" width="28.8" height="28.8" patternUnits="userSpaceOnUse" viewBox="0 0 28.8 28.8">
      <rect class="cls-1" width="28.8" height="28.8"></rect>
      <path class="cls-2" d="M28.8,30.24a1.44,1.44,0,1,0-1.44-1.44A1.44,1.44,0,0,0,28.8,30.24Z"></path>
      <path class="cls-2" d="M14.4,30.24A1.44,1.44,0,1,0,13,28.8,1.44,1.44,0,0,0,14.4,30.24Z"></path>
      <path class="cls-2" d="M28.8,15.84a1.44,1.44,0,1,0-1.44-1.44A1.44,1.44,0,0,0,28.8,15.84Z"></path>
      <path class="cls-2" d="M14.4,15.84A1.44,1.44,0,1,0,13,14.4,1.44,1.44,0,0,0,14.4,15.84Z"></path>
      <path class="cls-2" d="M7.2,23A1.44,1.44,0,1,0,5.76,21.6,1.44,1.44,0,0,0,7.2,23Z"></path>
      <path class="cls-2" d="M21.6,23a1.44,1.44,0,1,0-1.44-1.44A1.44,1.44,0,0,0,21.6,23Z"></path>
      <path class="cls-2" d="M7.2,8.64A1.44,1.44,0,1,0,5.76,7.2,1.44,1.44,0,0,0,7.2,8.64Z"></path>
      <path class="cls-2" d="M21.6,8.64A1.44,1.44,0,1,0,20.16,7.2,1.44,1.44,0,0,0,21.6,8.64Z"></path>
      <path class="cls-2" d="M0,30.24A1.44,1.44,0,0,0,1.44,28.8,1.45,1.45,0,0,0,0,27.36,1.44,1.44,0,0,0-1.44,28.8,1.43,1.43,0,0,0,0,30.24Z"></path>
      <path class="cls-2" d="M0,15.84A1.44,1.44,0,0,0,1.44,14.4,1.45,1.45,0,0,0,0,13,1.44,1.44,0,0,0-1.44,14.4,1.43,1.43,0,0,0,0,15.84Z"></path>
      <path class="cls-2" d="M28.8,1.44A1.45,1.45,0,0,0,30.24,0,1.45,1.45,0,0,0,28.8-1.44,1.44,1.44,0,0,0,27.36,0,1.44,1.44,0,0,0,28.8,1.44Z"></path>
      <path class="cls-2" d="M14.4,1.44A1.45,1.45,0,0,0,15.84,0,1.45,1.45,0,0,0,14.4-1.44,1.44,1.44,0,0,0,13,0,1.44,1.44,0,0,0,14.4,1.44Z"></path>
      <path class="cls-2" d="M0,1.44A1.45,1.45,0,0,0,1.44,0,1.45,1.45,0,0,0,0-1.44,1.44,1.44,0,0,0-1.44,0,1.44,1.44,0,0,0,0,1.44Z"></path>
    </pattern>
  </defs>
  <title>Shops_NEW_</title>
  <rect class="cls-3" x="81.9" y="223.13" width="420.45" height="258.33"></rect>
  <rect class="cls-4" x="93.35" y="414.72" width="8.94" height="25.39"></rect>
  <rect class="cls-4" x="93.35" y="376.05" width="8.94" height="31.06"></rect>
  <rect class="cls-4" x="93.35" y="337.38" width="8.94" height="31.06"></rect>
  <rect class="cls-4" x="93.35" y="298.71" width="8.94" height="31.06"></rect>
  <rect class="cls-4" x="130.73" y="414.72" width="8.94" height="25.39"></rect>
  <rect class="cls-4" x="130.73" y="376.05" width="8.94" height="31.06"></rect>
  <rect class="cls-4" x="130.73" y="337.38" width="8.94" height="31.06"></rect>
  <rect class="cls-4" x="130.73" y="298.71" width="8.94" height="31.06"></rect>
  <rect class="cls-5" x="93.35" y="407.1" width="48.61" height="7.61"></rect>
  <rect class="cls-5" x="93.35" y="440.11" width="57.27" height="9.82"></rect>
  <rect class="cls-5" x="93.35" y="368.44" width="48.61" height="7.61"></rect>
  <rect class="cls-5" x="93.35" y="329.77" width="48.61" height="7.61"></rect>
  <rect class="cls-5" x="93.35" y="291.1" width="48.61" height="7.61" transform="translate(235.31 589.81) rotate(180)"></rect>
  <rect class="cls-5" x="93.35" y="449.93" width="57.27" height="37.01"></rect>
  <rect class="cls-6" x="116.03" y="354.48" width="9.96" height="14.13"></rect>
  <rect class="cls-6" x="106.13" y="354.48" width="9.96" height="14.13"></rect>
  <rect class="cls-6" x="116.04" y="317.48" width="8.66" height="12.29"></rect>
  <rect class="cls-6" x="107.42" y="317.48" width="8.66" height="12.29"></rect>
  <rect class="cls-6" x="111.71" y="305.19" width="8.66" height="12.29"></rect>
  <path class="cls-7" d="M112.58,382.56a.52.52,0,0,0-.38.55v2.74a.5.5,0,0,0,.43.55h.11a1.9,1.9,0,0,1-.38.75,6.73,6.73,0,0,1-1.17,1,6,6,0,0,0-1.36,1.27,4,4,0,0,0-.71,2.29h0v12.77a2.21,2.21,0,0,0,1.88,2.42h10.07a2.21,2.21,0,0,0,1.88-2.42V391.77h0a3.93,3.93,0,0,0-.7-2.28,6.07,6.07,0,0,0-1.36-1.29,6.32,6.32,0,0,1-1.16-1,2,2,0,0,1-.38-.76h.14a.5.5,0,0,0,.43-.55l0-2.73a.57.57,0,0,0-.12-.39.38.38,0,0,0-.31-.17h-6.93Z"></path>
  <polygon class="cls-8" points="192.28 421.16 190.68 426.14 171.73 426.14 170.25 421.16 163.07 421.16 163.07 467.34 199.57 467.34 199.57 421.16 192.28 421.16"></polygon>
  <line class="cls-8" x1="163.07" y1="432.84" x2="199.81" y2="432.84"></line>
  <line class="cls-8" x1="163.07" y1="438.28" x2="199.81" y2="438.28"></line>
  <line class="cls-8" x1="195.81" y1="402.65" x2="195.81" y2="421.16"></line>
  <polygon class="cls-8" points="201.04 405.1 197.54 405.1 190.58 405.1 190.58 400.27 201.04 400.27 201.04 405.1"></polygon>
  <polyline class="cls-9" points="195.81 410.94 207.15 410.94 210.27 414.07"></polyline>
  <polygon class="cls-8" points="219.8 421.16 218.19 426.14 199.24 426.14 197.77 421.16 190.58 421.16 190.58 467.34 227.08 467.34 227.08 421.16 219.8 421.16"></polygon>
  <line class="cls-8" x1="190.58" y1="432.84" x2="227.32" y2="432.84"></line>
  <line class="cls-8" x1="190.58" y1="438.28" x2="227.32" y2="438.28"></line>
  <line class="cls-8" x1="223.33" y1="402.65" x2="223.33" y2="421.16"></line>
  <polygon class="cls-8" points="228.56 405.1 225.05 405.1 218.1 405.1 218.1 400.27 228.56 400.27 228.56 405.1"></polygon>
  <polyline class="cls-9" points="223.33 410.94 234.66 410.94 237.78 414.07"></polyline>
  <path class="cls-6" d="M446.85,338.89a17.82,17.82,0,0,0-35.64,0h-7.73v11.89h51.11V338.89Z"></path>
  <rect class="cls-6" x="407.34" y="417.61" width="43.38" height="11.12"></rect>
  <polygon class="cls-10" points="439.93 398.21 419.58 398.21 423.45 417.61 436.07 417.61 439.93 398.21"></polygon>
  <polygon class="cls-6" points="407.34 465.19 407.34 454.07 411.21 454.07 411.21 428.73 407.34 428.73 407.34 417.61 411.21 417.61 411.21 390.01 407.34 390.01 407.34 378.89 411.21 378.89 411.21 350.78 403.48 350.78 403.48 477.33 411.21 477.33 411.21 465.19 407.34 465.19"></polygon>
  <polygon class="cls-6" points="446.85 350.78 446.85 378.89 450.72 378.89 450.72 390.01 446.85 390.01 446.85 417.61 450.72 417.61 450.72 428.73 446.85 428.73 446.85 454.07 450.72 454.07 450.72 465.19 446.85 465.19 446.85 477.33 454.59 477.33 454.59 350.78 446.85 350.78"></polygon>
  <path class="cls-5" d="M432.85,378.89c.19.54.39,1.09.55,1.65a19.27,19.27,0,0,1,.45,8.18l.08-.13,5.58-3.79a20.28,20.28,0,0,1,.25,5.21h11V378.89Z"></path>
  <path class="cls-5" d="M416.83,384.76a23.06,23.06,0,0,0,6.36,3.44c.53.19,1.07.37,1.59.58l-.23-.47c-1-2.27-2.29-6.24-3.15-8.58-.1-.28-.15-.56-.23-.84H407.34V390H420C418.74,388.35,417.3,386.78,416.83,384.76Z"></path>
  <path class="cls-11" d="M433.33,398.21l2.87-.81a10.06,10.06,0,0,1,.84-1.75,35.71,35.71,0,0,0,2-3c1.18-2.37.83-5.19.44-7.81l-5.58,3.79-.08.13a19.27,19.27,0,0,0-.45-8.18c-.77-2.6-2-5.05-2.6-7.7s-1.33-5.62-.41-8.26c-2.58,2.94-3.16,7.14-2.85,11,.12,1.52.31,3,.5,4.5l-.79-1A21,21,0,0,1,422.7,364c-1.06,5.51-3.23,10.45-1.3,15.72.86,2.34,2.13,6.31,3.15,8.58l.23.47c-.52-.21-1.06-.39-1.59-.58a23.06,23.06,0,0,1-6.36-3.44c.62,2.63,2.89,4.5,4.31,6.81a11.42,11.42,0,0,1,1.66,6.24h-.08l10.61.4"></path>
  <rect class="cls-12" x="390.31" y="427.83" width="38.04" height="5.97"></rect>
  <polygon class="cls-13" points="426.69 427.83 391.98 427.83 395.6 421.86 423.07 421.86 426.69 427.83"></polygon>
  <polygon class="cls-13" points="416.2 433.8 416.2 438.57 402.46 438.57 402.46 433.8 391.98 433.8 397.41 468.77 421.26 468.77 426.69 433.8 416.2 433.8"></polygon>
  <rect class="cls-12" x="402.47" y="433.8" width="13.74" height="4.77"></rect>
  <rect class="cls-14" x="352.27" y="427.83" width="38.04" height="5.97"></rect>
  <polygon class="cls-15" points="388.64 427.83 353.94 427.83 357.56 421.86 385.02 421.86 388.64 427.83"></polygon>
  <polygon class="cls-15" points="378.16 433.8 378.16 438.57 364.42 438.57 364.42 433.8 353.94 433.8 359.37 468.77 383.21 468.77 388.64 433.8 378.16 433.8"></polygon>
  <rect class="cls-14" x="364.42" y="433.8" width="13.74" height="4.77"></rect>
  <rect class="cls-16" x="93.55" y="103.3" width="396.11" height="14.66"></rect>
  <rect class="cls-10" x="93.55" y="200.47" width="396.11" height="25.32"></rect>
  <rect class="cls-10" x="341.45" y="225.79" width="136.23" height="14.53"></rect>
  <rect class="cls-10" x="93.37" y="225.79" width="148.4" height="14.53"></rect>
  <rect class="cls-10" x="105.73" y="477.33" width="53.35" height="14.53"></rect>
  <rect class="cls-10" x="171.06" y="459.63" width="70.71" height="32.24"></rect>
  <rect class="cls-10" x="171.06" y="450.32" width="70.71" height="9.3"></rect>
  <rect class="cls-16" x="489.66" y="200.47" width="23.96" height="291.4"></rect>
  <rect class="cls-10" x="477.68" y="225.79" width="11.98" height="266.08"></rect>
  <rect class="cls-10" x="93.55" y="240.32" width="11.98" height="251.54"></rect>
  <rect class="cls-10" x="159.08" y="240.32" width="11.98" height="251.54"></rect>
  <path class="cls-10" d="M241.77,280.56v211.3h99.68V280.56ZM255.83,477V294.63h71.56V360.1h-9.1v43.21h9.1V477Z"></path>
  <rect class="cls-16" x="69.59" y="200.47" width="23.96" height="291.4"></rect>
  <rect class="cls-6" x="407.34" y="454.07" width="43.38" height="11.12"></rect>
  <line class="cls-17" x1="421.8" y1="409.32" x2="437.72" y2="409.32"></line>
  <rect class="cls-16" x="93.55" y="117.96" width="396.11" height="82.5"></rect>
  <rect class="cls-10" x="318.29" y="360.16" width="18.19" height="43.21"></rect>
  <rect class="cls-10" x="241.77" y="225.79" width="99.69" height="54.78"></rect>
  <rect class="cls-18" x="273.04" y="212.97" width="37.14" height="80.41" transform="translate(544.78 -38.43) rotate(90)"></rect>
  <rect class="cls-10" x="341.45" y="459.63" width="136.23" height="32.24"></rect>
  <rect class="cls-10" x="341.45" y="450.32" width="136.23" height="9.3"></rect>
  <rect class="cls-16" x="485.26" y="191.15" width="32.76" height="9.32"></rect>
  <rect class="cls-16" x="481.36" y="162.48" width="40.56" height="7.16"></rect>
  <rect class="cls-16" x="481.36" y="124.49" width="40.56" height="7.16"></rect>
  <rect class="cls-16" x="485.26" y="169.64" width="32.76" height="21.51"></rect>
  <rect class="cls-16" x="485.26" y="131.6" width="32.76" height="30.88"></rect>
  <polygon class="cls-16" points="521.92 102.71 501.64 93.66 481.36 102.71 481.36 124.54 521.92 124.54 521.92 102.71"></polygon>
  <rect class="cls-16" x="65.52" y="191.15" width="32.76" height="9.32"></rect>
  <rect class="cls-16" x="61.62" y="162.48" width="40.56" height="7.16"></rect>
  <rect class="cls-16" x="61.62" y="124.49" width="40.56" height="7.16"></rect>
  <rect class="cls-16" x="65.52" y="169.64" width="32.76" height="21.51"></rect>
  <rect class="cls-16" x="65.52" y="131.6" width="32.76" height="30.88"></rect>
  <polygon class="cls-16" points="102.17 102.71 81.9 93.66 61.62 102.71 61.62 124.54 102.17 124.54 102.17 102.71"></polygon>
  <polygon class="cls-19" points="251.4 271.75 251.4 234.6 331.81 234.6 331.81 271.75 251.4 271.75"></polygon>
  <line class="cls-8" x1="206.41" y1="240.32" x2="206.41" y2="304.15"></line>
  <rect class="cls-8" x="202.48" y="304.15" width="7.86" height="7.86"></rect>
  <circle class="cls-12" cx="206.41" cy="325.73" r="13.72"></circle>
  <line class="cls-8" x1="371.29" y1="240.32" x2="371.29" y2="304.15"></line>
  <rect class="cls-8" x="367.36" y="304.15" width="7.86" height="7.86"></rect>
  <circle class="cls-12" cx="371.29" cy="325.73" r="13.72"></circle>
  <path class="cls-2" d="M196.9,148.34q-5.72.22-11.43.08a1.63,1.63,0,0,0,0,3.25q5.72.15,11.43-.08a1.63,1.63,0,0,0,0-3.25Z"></path>
  <path class="cls-2" d="M184.42,150l-.31,5.26a26.59,26.59,0,0,0-.13,5.35,1.63,1.63,0,0,0,2,1.13,1.67,1.67,0,0,0,1.14-2c0,.22,0-.25,0-.29l0-.66c0-.4,0-.81.07-1.21l.15-2.53.3-5.05a1.63,1.63,0,0,0-1.63-1.62,1.65,1.65,0,0,0-1.62,1.62Z"></path>
  <path class="cls-2" d="M193.69,153q-9.42.14-18.84-.14c-2.09-.06-2.09,3.19,0,3.25q9.42.27,18.84.14c2.09,0,2.1-3.28,0-3.25Z"></path>
  <path class="cls-2" d="M206.11,167.58q1.74-8.54,3.63-17c.46-2-2.67-2.91-3.13-.87q-1.91,8.51-3.63,17a1.67,1.67,0,0,0,1.13,2,1.64,1.64,0,0,0,2-1.13Z"></path>
  <path class="cls-2" d="M222.71,149.62,220,162.69l3-.39a45.22,45.22,0,0,0-5.79-7.82,1.65,1.65,0,0,0-2.78,1.15c.24,4-.31,7.89-.47,11.84-.09,2.09,3.16,2.09,3.25,0,.16-3.95.71-7.88.47-11.84l-2.77,1.15a42,42,0,0,1,5.29,7.16,1.64,1.64,0,0,0,3-.38l2.71-13.08c.42-2-2.71-2.91-3.13-.86Z"></path>
  <path class="cls-2" d="M251.48,163.19a66.62,66.62,0,0,1,4.66-9.24h-2.8q2.72,6.45,6,12.64a1.64,1.64,0,0,0,2.22.58,1.66,1.66,0,0,0,.59-2.22q-3.25-6.19-6-12.64c-.5-1.17-2.24-.93-2.8,0a70.86,70.86,0,0,0-5,10,1.63,1.63,0,0,0,1.13,2,1.66,1.66,0,0,0,2-1.13Z"></path>
  <path class="cls-2" d="M249.27,161q6.69.2,13.37.08c2.09,0,2.1-3.28,0-3.25q-6.69.12-13.37-.08c-2.09-.06-2.09,3.19,0,3.25Z"></path>
  <path class="cls-2" d="M269.36,154.89a52.11,52.11,0,0,1,.31,9.75,1.64,1.64,0,0,0,1.63,1.63,1.66,1.66,0,0,0,1.62-1.63,52.11,52.11,0,0,0-.31-9.75,1.66,1.66,0,0,0-1.63-1.62c-.79,0-1.74.72-1.62,1.62Z"></path>
  <path class="cls-2" d="M269.64,155.91a107.94,107.94,0,0,0,8.3,8.81,1.65,1.65,0,0,0,2.78-1.15l0-9.29a1.63,1.63,0,0,0-3.25,0l0,9.29,2.77-1.15a106.34,106.34,0,0,1-8.3-8.81,1.64,1.64,0,0,0-2.3,0,1.66,1.66,0,0,0,0,2.3Z"></path>
  <path class="cls-2" d="M286.35,155.21l.48,9.12a1.63,1.63,0,0,0,3.25,0l-.48-9.12a1.63,1.63,0,1,0-3.25,0Z"></path>
  <path class="cls-2" d="M288.74,166c1.58-.61,3.17-1.2,4.74-1.84a7.82,7.82,0,0,0,4-3,13.61,13.61,0,0,0,1-2.18,3,3,0,0,0-.06-2.7c-.81-1.47-2.76-2.12-4.25-2.64a20.55,20.55,0,0,0-5.59-1.11,1.63,1.63,0,0,0-1.63,1.62,1.67,1.67,0,0,0,1.63,1.63,14.34,14.34,0,0,1,2.32.31,19.77,19.77,0,0,1,2.5.71,13.61,13.61,0,0,1,2,.92c.15.1.16.1,0,0a1.14,1.14,0,0,1,.16.15c.08.08.07.06,0-.07.09.17.09.16,0,0s0-.31-.05,0l-.09.23,0,.07c-.15.35-.31.71-.49,1.05l-.25.43-.19.27,0,.06a4.84,4.84,0,0,1-1.72,1.12c-.43.19-1.5.59-2.19.85l-2.63,1a1.66,1.66,0,0,0-1.13,2,1.64,1.64,0,0,0,2,1.13Z"></path>
  <path class="cls-2" d="M324.34,152.79l-6.28,1c-.5.08-1,.12-1.52.25a1.9,1.9,0,0,0-1.43,1.77,10.74,10.74,0,0,0,.22,1.68l.23,1.51.47,3.13a8.65,8.65,0,0,0,.7,3.11c.66,1.12,1.93,1.23,3.1,1.19l3.21-.13a1.63,1.63,0,0,0,0-3.25l-3.31.13H319c-.17,0,.06,0,.12,0s.28.33.35.34,0-.09,0-.21,0-.25-.06-.38l-.14-.91-.49-3.23-.26-1.71-.12-.81-.06-.4c-.06-.31,0,.24,0-.11l-.22.82-.13.16-.71.42a9.35,9.35,0,0,1,1.83-.32l2-.33,4-.65a1.63,1.63,0,0,0,1.13-2,1.68,1.68,0,0,0-2-1.14Z"></path>
  <path class="cls-2" d="M317.22,162.16a35.49,35.49,0,0,0,6.6,0,1.76,1.76,0,0,0,1.15-.48,1.63,1.63,0,0,0-1.15-2.77,35.49,35.49,0,0,1-6.6,0,1.64,1.64,0,0,0-1.63,1.62,1.67,1.67,0,0,0,1.63,1.63Z"></path>
  <path class="cls-2" d="M331,163a28,28,0,0,0,4.69-8.78h-3.13a111.26,111.26,0,0,1,4.78,14.24c.52,2,3.66,1.16,3.13-.86a109.87,109.87,0,0,0-4.78-14.25,1.7,1.7,0,0,0-1.56-1.19,1.67,1.67,0,0,0-1.57,1.19,23.64,23.64,0,0,1-3.86,7.35,1.68,1.68,0,0,0,0,2.3,1.65,1.65,0,0,0,2.3,0Z"></path>
  <path class="cls-2" d="M328.06,161.31c3.78.12,7.55.14,11.33.07a1.65,1.65,0,0,0,1.62-1.63,1.63,1.63,0,0,0-1.62-1.62c-3.78.07-7.55.05-11.33-.07a1.63,1.63,0,0,0,0,3.25Z"></path>
  <path class="cls-2" d="M349,164.32l.57-12.21-.81,1.4a7.85,7.85,0,0,1,3.67-.91,7.26,7.26,0,0,1,1,.06,2.86,2.86,0,0,0,.28.07c.34.1.18-.07-.47-.53l0-.11c-.18-.07.24-.15,0-.07l-.09.13c-.23.29-.5.56-.75.83a29.13,29.13,0,0,1-6.5,5.21,1.65,1.65,0,0,0,.39,3,52.91,52.91,0,0,1,7,2.66,1.67,1.67,0,0,0,2.22-.58,1.65,1.65,0,0,0-.58-2.23,58.17,58.17,0,0,0-7.75-3l.39,3a32.59,32.59,0,0,0,5.45-4,29,29,0,0,0,2.39-2.44,3.39,3.39,0,0,0,1-3.26c-.46-1.44-1.82-1.75-3.16-1.87a11.08,11.08,0,0,0-3.49.29c-1.09.27-3,.77-3.36,2a9.43,9.43,0,0,0-.13,2l-.1,2.08-.4,8.57a1.63,1.63,0,1,0,3.25,0Z"></path>
  <path class="cls-2" d="M360.78,153.45l12.74-.06a1.63,1.63,0,0,0,0-3.25l-12.74.06a1.63,1.63,0,0,0,0,3.25Z"></path>
  <path class="cls-2" d="M365.17,151.59q.22,4.64.07,9.28a1.63,1.63,0,0,0,1.62,1.62,1.66,1.66,0,0,0,1.63-1.62q.15-4.65-.07-9.28a1.63,1.63,0,1,0-3.25,0Z"></path>
  <path class="cls-2" d="M379.92,149.07,379.78,167a1.63,1.63,0,0,0,3.25,0l.14-17.93a1.63,1.63,0,0,0-3.25,0Z"></path>
  <path class="cls-2" d="M387.8,148.76l.45,16.35c.05,2.09,3.3,2.1,3.25,0l-.45-16.35c-.06-2.09-3.31-2.1-3.25,0Z"></path>
  <path class="cls-2" d="M378.08,157.47q14.07.53,28.15.3c2.09,0,2.1-3.28,0-3.25q-14.07.22-28.15-.3c-2.09-.08-2.09,3.17,0,3.25Z"></path>
</svg>
