<?xml version="1.0" encoding="UTF-8"?>
<svg xmlns="http://www.w3.org/2000/svg" id="Layer_1" data-name="Layer 1" viewBox="0 0 600 600">
  <defs>
    <style>.cls-1{fill:#fff;}.cls-10,.cls-2,.cls-7,.cls-9{fill:none;}.cls-10,.cls-11,.cls-13,.cls-14,.cls-2,.cls-3,.cls-4,.cls-5,.cls-6,.cls-7,.cls-8,.cls-9{stroke:#1c19a8;}.cls-10,.cls-11,.cls-13,.cls-14,.cls-2,.cls-3,.cls-4,.cls-5,.cls-6,.cls-9{stroke-linejoin:round;}.cls-2,.cls-3,.cls-7,.cls-8{stroke-width:2.81px;}.cls-11,.cls-13,.cls-3,.cls-4{fill:#ffde00;}.cls-11,.cls-4,.cls-5,.cls-6,.cls-9{stroke-width:2.78px;}.cls-4{fill-rule:evenodd;}.cls-14,.cls-5{fill:#00ab81;}.cls-6{fill:#fb715d;}.cls-7,.cls-8{stroke-miterlimit:10;}.cls-8{fill:#1d1d1b;}.cls-10{stroke-linecap:round;stroke-width:2.78px;}.cls-12{fill:#1c19a8;}.cls-13,.cls-14{stroke-width:2.82px;}</style>
  </defs>
  <title>Shops_NEW_</title>
  <rect class="cls-1" x="91.02" y="251.46" width="417.41" height="234.72"></rect>
  <rect class="cls-1" x="90.45" y="189.08" width="420.38" height="294.6"></rect>
  <rect class="cls-2" x="426.39" y="224.41" width="79.66" height="235.78"></rect>
  <rect class="cls-2" x="93.95" y="224.41" width="79.66" height="235.78"></rect>
  <rect class="cls-3" x="180.93" y="424.76" width="58.31" height="36.66" transform="translate(653.18 233) rotate(90)"></rect>
  <rect class="cls-3" x="357.51" y="423.72" width="59.65" height="36.66" transform="translate(829.39 54.71) rotate(90)"></rect>
  <path class="cls-4" d="M492.56,383.93a.43.43,0,0,0-.31.44v2.2a.41.41,0,0,0,.35.45h.09a1.5,1.5,0,0,1-.31.6,5.63,5.63,0,0,1-.94.82,4.91,4.91,0,0,0-1.09,1,3.23,3.23,0,0,0-.57,1.85h0v10.27a1.78,1.78,0,0,0,1.51,1.95h8.09a1.79,1.79,0,0,0,1.52-1.95V391.33h0a3.12,3.12,0,0,0-.57-1.84,4.83,4.83,0,0,0-1.09-1,5.15,5.15,0,0,1-.93-.83,1.5,1.5,0,0,1-.31-.6h.12a.41.41,0,0,0,.35-.45v-2.19a.51.51,0,0,0-.1-.32.31.31,0,0,0-.25-.13h-5.57Z"></path>
  <path class="cls-4" d="M474.83,383.93a.42.42,0,0,0-.31.44v2.2a.4.4,0,0,0,.35.45H475a1.63,1.63,0,0,1-.31.6,5.63,5.63,0,0,1-.94.82,4.51,4.51,0,0,0-1.09,1,3.23,3.23,0,0,0-.58,1.85h0v10.27a1.79,1.79,0,0,0,1.52,1.95h8.09a1.79,1.79,0,0,0,1.51-1.95V391.33h0a3.19,3.19,0,0,0-.56-1.84,4.83,4.83,0,0,0-1.09-1,5.23,5.23,0,0,1-.94-.83,1.48,1.48,0,0,1-.3-.6h.11a.4.4,0,0,0,.35-.45l0-2.19a.58.58,0,0,0-.1-.32.34.34,0,0,0-.25-.13h-5.57Z"></path>
  <path class="cls-5" d="M447.66,436.59h7.63l0-13.15-2-6.16v-5.06h-3.71v5.06l-2,6.16Z"></path>
  <path class="cls-5" d="M461.39,436.59H469l0-13.15-2-6.16v-5.06h-3.71v5.06l-2,6.16Z"></path>
  <rect class="cls-6" x="450.49" y="356.99" width="20.88" height="16.25"></rect>
  <line class="cls-7" x1="510.78" y1="342.95" x2="510.78" y2="460.19"></line>
  <rect class="cls-8" x="441.86" y="433.81" width="64.19" height="4.31"></rect>
  <rect class="cls-8" x="441.86" y="403.53" width="64.19" height="4.31"></rect>
  <rect class="cls-8" x="441.86" y="373.24" width="64.19" height="4.31"></rect>
  <rect class="cls-8" x="441.86" y="342.95" width="64.19" height="4.31"></rect>
  <line class="cls-7" x1="441.86" y1="342.95" x2="441.86" y2="460.19"></line>
  <path class="cls-5" d="M471.87,343h7.63l0-13.15-2-6.17v-5.05h-3.71v5.05l-2,6.17Z"></path>
  <path class="cls-5" d="M485.6,343h7.63l0-13.15-2-6.17v-5.05h-3.71v5.05l-2,6.17Z"></path>
  <line class="cls-7" x1="89.83" y1="342.95" x2="89.83" y2="466.7"></line>
  <path class="cls-4" d="M108.05,383.93a.42.42,0,0,1,.31.44v2.2c0,.25-.15.45-.34.45h-.1a1.63,1.63,0,0,0,.31.6,5.63,5.63,0,0,0,.94.82,4.51,4.51,0,0,1,1.09,1,3.23,3.23,0,0,1,.58,1.85h0v10.27a1.78,1.78,0,0,1-1.52,1.95h-8.09a1.79,1.79,0,0,1-1.51-1.95V391.33h0a3.19,3.19,0,0,1,.56-1.84,4.83,4.83,0,0,1,1.09-1,5.23,5.23,0,0,0,.94-.83,1.48,1.48,0,0,0,.3-.6h-.11a.41.41,0,0,1-.35-.45l0-2.19a.58.58,0,0,1,.1-.32.34.34,0,0,1,.25-.13h5.57Z"></path>
  <path class="cls-4" d="M125.79,383.93a.43.43,0,0,1,.31.44v2.2a.41.41,0,0,1-.35.45h-.09a1.5,1.5,0,0,0,.31.6,5.63,5.63,0,0,0,.94.82,4.7,4.7,0,0,1,1.09,1,3.23,3.23,0,0,1,.57,1.85h0v10.27a1.78,1.78,0,0,1-1.51,1.95H119a1.79,1.79,0,0,1-1.52-1.95V391.33h0a3.12,3.12,0,0,1,.57-1.84,4.83,4.83,0,0,1,1.09-1,4.83,4.83,0,0,0,.93-.83,1.5,1.5,0,0,0,.31-.6h-.12a.41.41,0,0,1-.35-.45v-2.19a.51.51,0,0,1,.1-.32.31.31,0,0,1,.25-.13h5.57Z"></path>
  <path class="cls-5" d="M153,436.59h-7.63l0-13.15,2-6.16v-5.06H151v5.06l2,6.16Z"></path>
  <path class="cls-5" d="M139.22,436.59h-7.63l0-13.15,2-6.16v-5.06h3.7v5.06l2,6.16Z"></path>
  <rect class="cls-6" x="129.25" y="356.99" width="20.88" height="16.25" transform="translate(279.38 730.23) rotate(-180)"></rect>
  <rect class="cls-8" x="93.96" y="433.82" width="64.8" height="4.31"></rect>
  <rect class="cls-8" x="93.96" y="403.52" width="64.8" height="4.31"></rect>
  <rect class="cls-8" x="93.96" y="373.26" width="64.8" height="4.31"></rect>
  <rect class="cls-8" x="93.96" y="342.96" width="64.8" height="4.31"></rect>
  <line class="cls-7" x1="158.75" y1="342.95" x2="158.75" y2="462.51"></line>
  <path class="cls-5" d="M125,343h-7.63l0-13.15,2-6.17v-5.05H123v5.05l2,6.17Z"></path>
  <path class="cls-5" d="M111.26,343h-7.63l0-13.15,2-6.17v-5.05h3.71v5.05l2,6.17Z"></path>
  <rect class="cls-6" x="84.39" y="224.41" width="9.56" height="235.78"></rect>
  <rect class="cls-6" x="506.05" y="224.41" width="9.56" height="235.78"></rect>
  <rect class="cls-9" x="246.57" y="239.48" width="104.44" height="241.01"></rect>
  <line class="cls-9" x1="298.79" y1="260.61" x2="298.79" y2="479.3"></line>
  <line class="cls-10" x1="291.98" y1="382.44" x2="291.98" y2="415.88"></line>
  <line class="cls-10" x1="305.59" y1="382.44" x2="305.59" y2="415.88"></line>
  <rect class="cls-6" x="246.57" y="480.5" width="104.44" height="11.37"></rect>
  <rect class="cls-11" x="75.16" y="178.06" width="450.77" height="76.81"></rect>
  <rect class="cls-6" x="75.16" y="239.94" width="450.77" height="20.67"></rect>
  <line class="cls-9" x1="93.96" y1="298.52" x2="506.05" y2="298.52"></line>
  <rect class="cls-6" x="84.39" y="457.54" width="162.17" height="34.33"></rect>
  <rect class="cls-6" x="351.01" y="457.54" width="164.6" height="34.33"></rect>
  <rect class="cls-3" x="70.45" y="233.98" width="459.91" height="9.49"></rect>
  <path class="cls-12" d="M246.11,202.93c0-1.42,0-2.81,0-4.2,0-.89.26-1,1.06-1.07.5,0,.72-.22.73-.67,0-.64-.19-.9-.75-.9q-4.78,0-9.57,0a1.09,1.09,0,0,0-.72.32.77.77,0,0,0,.63,1.24c.94.1,1.14.37.9,1.26-.18.67-.37,1.34-.57,2-.66,2.17-1.32,4.35-2,6.51-.16.52-.35,1-.56,1.64-.11-.4-.18-.68-.28-1q-1.47-4.53-2.95-9.05c-.32-1-.2-1.18.79-1.43a1.07,1.07,0,0,1,.19-.07c.5-.12.66-.36.6-.92s-.36-.55-.71-.55h-5.66a.78.78,0,0,0-.82.71.72.72,0,0,0,.68.87,1.38,1.38,0,0,1,1.24,1.13c.17.67.49,1.3.69,2,.28.94.74,1.8.26,2.89-.79,1.82-1.38,3.73-2.06,5.61-.07-.08-.13-.12-.15-.19-1.21-3.41-2.43-6.82-3.63-10.23-.31-.89-.11-1.18.81-1.28h.11a.74.74,0,1,0-.08-1.47h-5.82c-.47,0-.79.15-.83.66a.68.68,0,0,0,.67.82,1.58,1.58,0,0,1,1.41,1.2c.49,1.34,1,2.67,1.48,4,1,2.65,2,5.29,3,7.94.37,1,.74,2,1.14,3,.3.75,1,.82,1.66.77a1.19,1.19,0,0,0,1-.88c.67-1.9,1.34-3.79,2-5.69.22-.6.45-1.2.72-1.89.07.15.1.19.12.24.78,2.33,1.55,4.67,2.34,7,.16.49.35,1,.92,1.19a1.47,1.47,0,0,0,2-1.07c.38-1.15.74-2.31,1.11-3.47q.81-2.56,1.61-5.15c.65-2.09,1.28-4.18,1.93-6.26.15-.46.51-.87,1-.8s.5.58.5,1v12.75c0,.84-.12,1-.94,1a.74.74,0,0,0-.8.55,1.13,1.13,0,0,0,.19.85,1.15,1.15,0,0,0,.81.27c1.79,0,3.59,0,5.39,0,.69,0,1-.32.95-.85a.8.8,0,0,0-.86-.83c-.33,0-.7.06-.82-.37a2.51,2.51,0,0,1-.11-.72c0-1.93.07-3.86.09-5.8,0-.54.26-.64.72-.64,1.29,0,2.58,0,3.86,0,.85,0,1.12-.09,1.14,1.15,0,1.71,0,3.42,0,5.13,0,1.07,0,1.06-1.08,1.27a1.14,1.14,0,0,0-.69.64.65.65,0,0,0,.4.9,2.85,2.85,0,0,0,.82.11h4.76a4.59,4.59,0,0,0,.82-.1c.48-.1.66-.38.56-.94a.72.72,0,0,0-.76-.64c-.92,0-1-.14-1-1.09V198.81c0-.9.22-1.14,1.1-1.14a.64.64,0,0,0,.69-.63c.1-.63-.21-.95-.9-1h-5.56c-.68,0-.92.18-.93.7,0,.72.13.86.9.88.42,0,.79.12.79.63,0,1.53,0,3.07,0,4.64ZM264,194.68l0,.14c-.09.07-.16.15-.25.21-.88.53-1.77,1-2.63,1.59a9,9,0,0,0-3.93,4.9,12.45,12.45,0,0,0-.29,6,8.71,8.71,0,0,0,2.74,5.11,8,8,0,0,0,5.38,2.05,15.21,15.21,0,0,0,2.77-.21,7.63,7.63,0,0,0,6-4.31,11.06,11.06,0,0,0,.95-6.63,10,10,0,0,0-2.25-5.24,5.58,5.58,0,0,0-4.46-2.21c-.35,0-.75,0-.85.41a.93.93,0,0,0,.4,1.08,6,6,0,0,1,2.43,2.81,13,13,0,0,1,.63,2.67,14.7,14.7,0,0,1-.12,5.08,6.07,6.07,0,0,1-2.13,3.7,4.35,4.35,0,0,1-5.34-.32,8.06,8.06,0,0,1-2.34-5.63,18.66,18.66,0,0,1,.1-2.89,7.35,7.35,0,0,1,3.16-5.62c1.39-1,2.89-1.85,4.33-2.78a5.93,5.93,0,0,0,2-1.76c.38-.62.3-1.56-.19-1.81a3,3,0,0,0-1.14-.32,3.14,3.14,0,0,1-2.09-.92,38,38,0,0,0-3.13-2.69,5,5,0,0,0-3.77-.92,5.73,5.73,0,0,0-4,2.83,3.13,3.13,0,0,0-.69,2.68c.06.22.27.52.44.54a.88.88,0,0,0,.69-.32c.22-.25.29-.62.49-.9a4.56,4.56,0,0,1,3.66-1.9,5.3,5.3,0,0,1,2.89.93c1.09.67,2.16,1.38,3.23,2.07a3.07,3.07,0,0,1,.34.29l0,.16a3.13,3.13,0,0,1-.92,0,16.58,16.58,0,0,1-1.68-.71,8.58,8.58,0,0,0-3-.92,4.91,4.91,0,0,0-3.8,1.43,5.91,5.91,0,0,0-1.05,1.71.66.66,0,0,0,.26.87.63.63,0,0,0,.84-.15c.13-.12.3-.2.42-.32a2.27,2.27,0,0,1,2.59-.52A6.23,6.23,0,0,0,264,194.68ZM293.3,203c0-1.3,0-2.51,0-3.73,0-.83.24-1.15,1-1.21a26.61,26.61,0,0,1,3.22,0,2.29,2.29,0,0,1,2,1.07c.12.19.26.44.44.5a1.55,1.55,0,0,0,1,.06c.32-.14.37-.5.21-.86-.27-.66-.53-1.32-.75-2a.91.91,0,0,0-1-.71H288.71a2.05,2.05,0,0,0-.61.1c-.47.13-.42.53-.38.86s.17.66.58.6c1-.14,1.18.45,1.19,1.29,0,4.17,0,8.35,0,12.53,0,.78-.2,1-.95,1a.73.73,0,0,0-.79.56,1.07,1.07,0,0,0,.19.85,1.4,1.4,0,0,0,.91.26c3.56,0,7.12,0,10.68,0,.41,0,1,.11,1.22-.49.33-.85.72-1.69,1.05-2.55.17-.46-.12-.78-.61-.85s-.82.26-1.07.65a2.48,2.48,0,0,1-2.35,1.27c-1,0-2,0-3,0-1.18,0-1.51-.31-1.52-1.46,0-1.61,0-3.21,0-4.81,0-.78.25-1,1-1s1.69,0,2.53,0c.62,0,1-.24,1-.93s-.38-1-1-1C295.68,203,294.52,203,293.3,203Zm80.31-7.16c-.79.08-1.34.08-1.87.19a4,4,0,0,0-3.13,2.33,4.58,4.58,0,0,0,1.36,5.57,33.12,33.12,0,0,0,2.95,2.14,12.48,12.48,0,0,1,3.11,2.68,2.39,2.39,0,0,1,.47,2.11c-.48,1.64-2.14,2-3.78,1.68a5.09,5.09,0,0,1-3.15-2.25,1.4,1.4,0,0,0-.79-.6c-.78-.13-1.18.51-.94,1.42s.46,1.77.68,2.66c.28,1.09.78,1.26,1.72.59a.7.7,0,0,1,.53-.13,10,10,0,0,0,4.44.4,5.38,5.38,0,0,0,3.79-2.13,4.93,4.93,0,0,0,.81-4,5.92,5.92,0,0,0-.88-2.14,14,14,0,0,0-3.56-3.11,13.18,13.18,0,0,1-3.1-2.52,1.81,1.81,0,0,1-.22-1.84,1.68,1.68,0,0,1,1.53-1,4.05,4.05,0,0,1,3.64,1.65,4.38,4.38,0,0,0,.68.84,1.43,1.43,0,0,0,.91.17c.38,0,.47-.4.4-.74-.2-1.05-.41-2.1-.64-3.15-.15-.68-.48-1.06-1.43-.58a1.42,1.42,0,0,1-1,.14C375.21,196,374.29,195.91,373.61,195.8Zm-62.95,7.37c0-1.43,0-2.8,0-4.17,0-.56.33-.8.89-.81,1,0,2,0,3,0a2,2,0,0,1,1.88,1,1.52,1.52,0,0,0,.6.63.91.91,0,0,0,.79-.06.77.77,0,0,0,.23-.71c-.23-.77-.57-1.52-.84-2.28a.83.83,0,0,0-.88-.59c-3.44,0-6.87,0-10.31,0a1.17,1.17,0,0,0-.87.41.82.82,0,0,0,.81,1.25.61.61,0,0,1,.8.64c0,.16.05.32.05.47v12.53c0,.89-.1,1-.93,1.08-.57,0-.85.33-.87.84s.2.82.84.83c2,0,3.95,0,5.93,0,.35,0,.74-.14.79-.55a1.1,1.1,0,0,0-.2-.85,1.55,1.55,0,0,0-.91-.26c-.63,0-.83-.17-.84-.8,0-2,0-4.05,0-6.08,0-.45.24-.67.73-.66.89,0,1.79,0,2.69,0,.68,0,1.13-.39,1.12-1s-.41-.93-1.13-.93Zm-34.91,2q0,3.23,0,6.46c0,.69-.16.86-.84.89s-.84.28-.85.87.16.79,1.07.8c3.56,0,7.12,0,10.69,0a1.08,1.08,0,0,0,1.16-.83,24.11,24.11,0,0,1,.94-2.3.66.66,0,0,0-.21-.92.71.71,0,0,0-1,0c-.27.27-.48.59-.73.89a2.43,2.43,0,0,1-1.76,1.11c-1.14,0-2.29,0-3.43,0-.85,0-1.15-.44-1.15-1.21,0-4.07,0-8.14,0-12.22,0-.9.16-1.06,1.07-1.06.6,0,.82-.2.84-.75s-.23-.79-.8-.82c-.35,0-.7,0-1.05,0h-4.92a.78.78,0,0,0-.84.86c0,.49.25.7.83.71.78,0,1,.19,1,1C275.75,200.79,275.74,203,275.75,205.13Z"></path>
  <path class="cls-12" d="M246.11,202.93h5.73c0-1.57,0-3.11,0-4.64,0-.51-.37-.62-.79-.63-.77,0-.92-.16-.9-.88,0-.52.25-.7.93-.7h5.56c.69,0,1,.33.9,1a.64.64,0,0,1-.69.63c-.88,0-1.1.24-1.1,1.14v12.58c0,1,.11,1.07,1,1.09a.72.72,0,0,1,.76.64c.1.56-.08.84-.56.94a4.59,4.59,0,0,1-.82.1h-4.76a2.85,2.85,0,0,1-.82-.11.65.65,0,0,1-.4-.9,1.14,1.14,0,0,1,.69-.64c1-.21,1.08-.2,1.08-1.27,0-1.71,0-3.42,0-5.13,0-1.24-.29-1.16-1.14-1.15-1.28,0-2.57,0-3.86,0-.46,0-.72.1-.72.64,0,1.94-.07,3.87-.09,5.8a2.51,2.51,0,0,0,.11.72c.12.43.49.37.82.37a.8.8,0,0,1,.86.83c0,.53-.26.84-.95.85-1.8,0-3.6,0-5.39,0a1.15,1.15,0,0,1-.81-.27,1.13,1.13,0,0,1-.19-.85.74.74,0,0,1,.8-.55c.82,0,.94-.16.94-1V198.73c0-.44,0-1-.5-1s-.83.34-1,.8c-.65,2.08-1.28,4.17-1.93,6.26q-.79,2.58-1.61,5.15c-.37,1.16-.73,2.32-1.11,3.47a1.47,1.47,0,0,1-2,1.07c-.57-.17-.76-.7-.92-1.19-.79-2.33-1.56-4.67-2.34-7,0-.05,0-.09-.12-.24-.27.69-.5,1.29-.72,1.89-.68,1.9-1.35,3.79-2,5.69a1.19,1.19,0,0,1-1,.88c-.7,0-1.36,0-1.66-.77-.4-1-.77-2-1.14-3-1-2.65-2-5.29-3-7.94-.5-1.33-1-2.66-1.48-4a1.58,1.58,0,0,0-1.41-1.2.68.68,0,0,1-.67-.82c0-.51.36-.66.83-.66h5.82a.74.74,0,1,1,.08,1.47h-.11c-.92.1-1.12.39-.81,1.28,1.2,3.41,2.42,6.82,3.63,10.23,0,.07.08.11.15.19.68-1.88,1.27-3.79,2.06-5.61.48-1.09,0-2-.26-2.89-.2-.66-.52-1.29-.69-2a1.38,1.38,0,0,0-1.24-1.13.72.72,0,0,1-.68-.87.78.78,0,0,1,.82-.71h5.66c.35,0,.66.13.71.55s-.1.8-.6.92a1.07,1.07,0,0,0-.19.07c-1,.25-1.11.47-.79,1.43q1.48,4.53,2.95,9.05c.1.28.17.56.28,1,.21-.61.4-1.12.56-1.64.67-2.16,1.33-4.34,2-6.51.2-.66.39-1.33.57-2,.24-.89,0-1.16-.9-1.26a.77.77,0,0,1-.63-1.24,1.09,1.09,0,0,1,.72-.32q4.78,0,9.57,0c.56,0,.76.26.75.9,0,.45-.23.66-.73.67-.8,0-1,.18-1.06,1.07C246.07,200.12,246.11,201.51,246.11,202.93Z"></path>
  <path class="cls-12" d="M334.31,202.1c1-3.17,2.9-5.35,6.28-6a10.26,10.26,0,0,1,6.44.63,7.79,7.79,0,0,1,4.43,5.73,12.06,12.06,0,0,1-.38,6.75,7.87,7.87,0,0,1-6.27,5.3,9.69,9.69,0,0,1-6.32-.76,7.87,7.87,0,0,1-4.14-5.29s0-.05-.08-.09c-.28.65-.52,1.31-.84,1.92a7.85,7.85,0,0,1-5.88,4.23,10.24,10.24,0,0,1-4.86-.23,7.81,7.81,0,0,1-5.53-5.86,11.7,11.7,0,0,1,.25-7A7.7,7.7,0,0,1,324,196a10.59,10.59,0,0,1,5.12.42,7.53,7.53,0,0,1,4.09,3.39C333.66,200.53,334,201.34,334.31,202.1Zm-13.44,3.23c.05.57.11,1.15.15,1.72a8.5,8.5,0,0,0,.94,3.27,4.11,4.11,0,0,0,7.2.33,8.94,8.94,0,0,0,1.27-4.35,12,12,0,0,0-.42-4.46,5.38,5.38,0,0,0-2.4-3.47,4,4,0,0,0-5.65,1.84A11.43,11.43,0,0,0,320.87,205.33Zm26.79-.06c-.09-.87-.15-1.74-.3-2.6a6.51,6.51,0,0,0-1.81-3.73,4,4,0,0,0-6,.65,9.47,9.47,0,0,0-1.45,4.83,11.72,11.72,0,0,0,.62,4.94,4.67,4.67,0,0,0,2.16,2.77,4.09,4.09,0,0,0,5.68-1.86A10.81,10.81,0,0,0,347.66,205.27Z"></path>
  <path class="cls-12" d="M264,194.68a6.23,6.23,0,0,1-3.22-.76,2.27,2.27,0,0,0-2.59.52c-.12.12-.29.2-.42.32a.63.63,0,0,1-.84.15.66.66,0,0,1-.26-.87,5.91,5.91,0,0,1,1.05-1.71,4.91,4.91,0,0,1,3.8-1.43,8.58,8.58,0,0,1,3,.92,16.58,16.58,0,0,0,1.68.71,3.13,3.13,0,0,0,.92,0l0-.16a3.07,3.07,0,0,0-.34-.29c-1.07-.69-2.14-1.4-3.23-2.07a5.3,5.3,0,0,0-2.89-.93A4.56,4.56,0,0,0,257,191c-.2.28-.27.65-.49.9a.88.88,0,0,1-.69.32c-.17,0-.38-.32-.44-.54A3.13,3.13,0,0,1,256,189a5.73,5.73,0,0,1,4-2.83,5,5,0,0,1,3.77.92,38,38,0,0,1,3.13,2.69,3.14,3.14,0,0,0,2.09.92,3,3,0,0,1,1.14.32c.49.25.57,1.19.19,1.81a5.93,5.93,0,0,1-2,1.76c-1.44.93-2.94,1.77-4.33,2.78a7.35,7.35,0,0,0-3.16,5.62,18.66,18.66,0,0,0-.1,2.89,8.06,8.06,0,0,0,2.34,5.63,4.35,4.35,0,0,0,5.34.32,6.07,6.07,0,0,0,2.13-3.7,14.7,14.7,0,0,0,.12-5.08,13,13,0,0,0-.63-2.67,6,6,0,0,0-2.43-2.81.93.93,0,0,1-.4-1.08c.1-.45.5-.4.85-.41a5.58,5.58,0,0,1,4.46,2.21,10,10,0,0,1,2.25,5.24,11.06,11.06,0,0,1-.95,6.63,7.63,7.63,0,0,1-6,4.31,15.21,15.21,0,0,1-2.77.21,8,8,0,0,1-5.38-2.05,8.71,8.71,0,0,1-2.74-5.11,12.45,12.45,0,0,1,.29-6,9,9,0,0,1,3.93-4.9c.86-.56,1.75-1.06,2.63-1.59.09-.06.16-.14.25-.21Z"></path>
  <path class="cls-12" d="M359,195.77c1,.14,2.32.25,3.63.54a7,7,0,0,1,4,2.72,8.94,8.94,0,0,1,1.64,4.43,13,13,0,0,1-.31,5.15,7.56,7.56,0,0,1-6.2,5.76,20.55,20.55,0,0,1-3.75.3,16.07,16.07,0,0,1-6-1.12.91.91,0,0,1-.65-1.06c.07-.47.44-.52.79-.61.8-.2.8-.19.8-1q0-5.69,0-11.37c0-.76,0-.74-.73-.92-.36-.09-.8-.12-.85-.63a.89.89,0,0,1,.67-1.05,29.63,29.63,0,0,1,3-.81C356.19,195.91,357.4,195.89,359,195.77Zm-2.2,9.5v5.93c0,.7.19,1,.86,1.17a8,8,0,0,0,2.12.2,3.86,3.86,0,0,0,2.75-1.5,7.86,7.86,0,0,0,1.6-4.33,12.73,12.73,0,0,0-.55-5.62,5.42,5.42,0,0,0-1.51-2.36,4.34,4.34,0,0,0-3.69-1c-1,.18-1.6.46-1.58,1.79C356.81,201.47,356.78,203.37,356.78,205.27Z"></path>
  <path class="cls-12" d="M293.3,203c1.22,0,2.38,0,3.54,0,.62,0,1,.25,1,1s-.37.95-1,.93c-.84,0-1.69,0-2.53,0s-1,.25-1,1c0,1.6,0,3.2,0,4.81,0,1.15.34,1.46,1.52,1.46,1,0,2,0,3,0a2.48,2.48,0,0,0,2.35-1.27c.25-.39.5-.73,1.07-.65s.78.39.61.85c-.33.86-.72,1.7-1.05,2.55-.24.6-.81.49-1.22.49-3.56,0-7.12,0-10.68,0a1.4,1.4,0,0,1-.91-.26,1.07,1.07,0,0,1-.19-.85.73.73,0,0,1,.79-.56c.75,0,.95-.23.95-1,0-4.18,0-8.36,0-12.53,0-.84-.19-1.43-1.19-1.29-.41.06-.55-.29-.58-.6s-.09-.73.38-.86a2.05,2.05,0,0,1,.61-.1h10.68a.91.91,0,0,1,1,.71c.22.67.48,1.33.75,2,.16.36.11.72-.21.86a1.55,1.55,0,0,1-1-.06c-.18-.06-.32-.31-.44-.5a2.29,2.29,0,0,0-2-1.07,26.61,26.61,0,0,0-3.22,0c-.79.06-1,.38-1,1.21C293.28,200.45,293.3,201.66,293.3,203Z"></path>
  <path class="cls-12" d="M373.61,195.8c.68.11,1.6.21,2.49.41a1.42,1.42,0,0,0,1-.14c.95-.48,1.28-.1,1.43.58.23,1,.44,2.1.64,3.15.07.34,0,.69-.4.74a1.43,1.43,0,0,1-.91-.17,4.38,4.38,0,0,1-.68-.84,4.05,4.05,0,0,0-3.64-1.65,1.68,1.68,0,0,0-1.53,1,1.81,1.81,0,0,0,.22,1.84,13.18,13.18,0,0,0,3.1,2.52,14,14,0,0,1,3.56,3.11,5.92,5.92,0,0,1,.88,2.14,4.93,4.93,0,0,1-.81,4,5.38,5.38,0,0,1-3.79,2.13,10,10,0,0,1-4.44-.4.7.7,0,0,0-.53.13c-.94.67-1.44.5-1.72-.59-.22-.89-.46-1.77-.68-2.66s.16-1.55.94-1.42a1.4,1.4,0,0,1,.79.6,5.09,5.09,0,0,0,3.15,2.25c1.64.33,3.3,0,3.78-1.68a2.39,2.39,0,0,0-.47-2.11,12.48,12.48,0,0,0-3.11-2.68,33.12,33.12,0,0,1-2.95-2.14,4.58,4.58,0,0,1-1.36-5.57,4,4,0,0,1,3.13-2.33C372.27,195.88,372.82,195.88,373.61,195.8Z"></path>
  <path class="cls-12" d="M310.66,203.17h3.41c.72,0,1.12.34,1.13.93s-.44,1-1.12,1c-.9,0-1.8,0-2.69,0-.49,0-.73.21-.73.66,0,2,0,4.06,0,6.08,0,.63.21.76.84.8a1.55,1.55,0,0,1,.91.26,1.1,1.1,0,0,1,.2.85c-.05.41-.44.55-.79.55-2,0-3.95,0-5.93,0-.64,0-.85-.28-.84-.83s.3-.79.87-.84c.83-.08.93-.19.93-1.08V199c0-.15,0-.31-.05-.47a.61.61,0,0,0-.8-.64.82.82,0,0,1-.81-1.25,1.17,1.17,0,0,1,.87-.41c3.44,0,6.87,0,10.31,0a.83.83,0,0,1,.88.59c.27.76.61,1.51.84,2.28a.77.77,0,0,1-.23.71.91.91,0,0,1-.79.06,1.52,1.52,0,0,1-.6-.63,2,2,0,0,0-1.88-1c-1,0-2,0-3,0-.56,0-.88.25-.89.81C310.63,200.37,310.66,201.74,310.66,203.17Z"></path>
  <path class="cls-12" d="M275.75,205.13c0-2.17,0-4.34,0-6.5,0-.78-.18-1-1-1-.58,0-.82-.22-.83-.71a.78.78,0,0,1,.84-.86h4.92c.35,0,.7,0,1.05,0,.57,0,.81.3.8.82s-.24.75-.84.75c-.91,0-1.07.16-1.07,1.06,0,4.08,0,8.15,0,12.22,0,.77.3,1.19,1.15,1.21,1.14,0,2.29,0,3.43,0a2.43,2.43,0,0,0,1.76-1.11c.25-.3.46-.62.73-.89a.71.71,0,0,1,1,0,.66.66,0,0,1,.21.92,24.11,24.11,0,0,0-.94,2.3,1.08,1.08,0,0,1-1.16.83c-3.57,0-7.13,0-10.69,0-.91,0-1.08-.19-1.07-.8s.25-.84.85-.87.84-.2.84-.89Q275.76,208.35,275.75,205.13Z"></path>
  <path class="cls-12" d="M378.85,218.75a4.46,4.46,0,0,0-4.39-2.56H224.91a5.52,5.52,0,0,0-1.35.13,4.35,4.35,0,0,0-3.44,5.25,4.3,4.3,0,0,0,4.28,3.5H375.05a2.57,2.57,0,0,0,.48,0A4.43,4.43,0,0,0,378.85,218.75Zm-137.57,3.92c0,.21.3.41.46.62a2.45,2.45,0,0,1-2.11-.06c.79-.22.54-.84.55-1.36a15.19,15.19,0,0,0-.1-2.41c-.21.33-.43.66-.64,1l-.63,1c-.18.3-.35.27-.54,0a14.64,14.64,0,0,0-1.46-2c0,1.1,0,2.19,0,3.29a.16.16,0,0,0,0,.11,5,5,0,0,0,.43.34h0a1.16,1.16,0,0,1-.78.25,1.83,1.83,0,0,1-1-.24l.57-.28v-4.59l-.52-.27a1.17,1.17,0,0,1,1.55.07l1.55,2.3,1.45-2.27a1.2,1.2,0,0,1,1.62-.1l-.55.27C241.25,219.78,241.24,221.23,241.28,222.67Zm22.88.69c.08-.12.11-.23.15-.23.41-.06.56-.26.43-.67s-.21-.79-.78-.67a1.57,1.57,0,0,1-.53,0c-.53-.1-.72.19-.88.64s.21.61.51.78a1.62,1.62,0,0,1-1.78,0c.8-.21.81-.9,1-1.46.42-1.17.78-2.36,1.19-3.54.06-.18.26-.33.39-.49.15.14.38.26.44.43.38,1,.72,2.06,1.07,3.09a12.69,12.69,0,0,0,.45,1.27,4.23,4.23,0,0,0,.66.79A4.56,4.56,0,0,1,264.16,223.36Zm26.72.07a1.25,1.25,0,0,1-1.5-.44c-.47-.76-.92-1.54-1.39-2.35a4.67,4.67,0,0,1,.44-.17,1.25,1.25,0,0,0,.5-2,1.05,1.05,0,0,0-.78-.25c-.31,0-.46.29-.46.66,0,1.21.06,2.43,0,3.64,0,.49.4.45.59.78a3.4,3.4,0,0,1-2.29-.08l.55-.31c0-1.33,0-2.74,0-4.15,0-.16-.23-.32-.4-.54.11-.07.23-.21.37-.24a5.49,5.49,0,0,1,2.64-.14,1.41,1.41,0,0,1,1.23,1.28c0,.81-.29,1.25-1.19,1.54.42.71.81,1.38,1.24,2,.09.15.31.21.47.32l.21.18C291,223.29,291,223.39,290.88,223.43Zm19.7-.12c1-.38.67-1.12.7-1.72,0-.92,0-1.83,0-2.75,0-.28,0-.53-.37-.57a.24.24,0,0,1-.13-.2.23.23,0,0,1,.16-.17c.61,0,1.22,0,1.83,0,0,0,.06.08.14.18-.87.28-.53,1-.56,1.56,0,.81,0,1.62,0,2.43,0,.45-.16,1,.56,1.16A3.52,3.52,0,0,1,310.58,223.31Zm3.75-.13c-.54-.76-1-1.55-1.56-2.33-.21-.32,0-.54.17-.78.44-.53.84-1.08,1.31-1.68-.24-.06-.39-.06-.48-.14a.32.32,0,0,1,0-.31,2.53,2.53,0,0,1,1.74.19c-1,.23-1.23,1.16-1.8,1.78a.54.54,0,0,0,0,.48c.45.72.9,1.44,1.4,2.12a5.58,5.58,0,0,0,.79.74A1.09,1.09,0,0,1,314.33,223.18Zm24.8.3c-1.06,0-2.12,0-3.17,0a2.88,2.88,0,0,1-.59-.18L336,223v-4.59l-.65-.33a2.33,2.33,0,0,1,.57-.17c1,0,2,0,3,0a.75.75,0,0,1,.58,1.08c-.58-.88-1.45-.43-2.24-.56v1.7c.33,0,.67,0,1,0,.11,0,.21.13.31.2-.1.08-.2.2-.31.21-.32,0-.66,0-1,0,0,.73,0,1.42,0,2.1,0,.11.22.3.36.31a3.8,3.8,0,0,0,1.26,0,3.22,3.22,0,0,0,.88-.54C339.88,222.76,339.51,223.47,339.13,223.48Zm24.9-4.43a1.28,1.28,0,0,0-1.63-.55v.86c0,.91,0,1.83,0,2.75,0,.46-.19,1,.73,1a2.28,2.28,0,0,1-2.46,0c.65,0,.56-.46.56-.87,0-1.27,0-2.53,0-3.78a1.33,1.33,0,0,0-1.64.58c-.21-.5.15-1.18.59-1.19h3.28C363.89,217.88,364.25,218.59,364,219.05Z"></path>
  <path class="cls-12" d="M264.33,221.22l-.67-2.16-.65,2.16Z"></path>
  <line class="cls-13" x1="210.09" y1="262.42" x2="210.09" y2="339.43"></line>
  <rect class="cls-13" x="206.16" y="339.43" width="7.86" height="7.86"></rect>
  <circle class="cls-14" cx="210.09" cy="361.01" r="13.72"></circle>
  <line class="cls-13" x1="387.34" y1="262.42" x2="387.34" y2="339.43"></line>
  <rect class="cls-13" x="383.41" y="339.43" width="7.86" height="7.86"></rect>
  <circle class="cls-14" cx="387.34" cy="361.01" r="13.72"></circle>
</svg>
