<?xml version="1.0" encoding="UTF-8"?>
<svg xmlns="http://www.w3.org/2000/svg" xmlns:xlink="http://www.w3.org/1999/xlink" id="Layer_1" data-name="Layer 1" viewBox="0 0 600 600">
  <defs>
    <style>.cls-1,.cls-11,.cls-14{fill:none;}.cls-15,.cls-2,.cls-5{fill:#1c19a8;}.cls-3{fill:#fff;}.cls-10,.cls-4{fill:#fb715d;}.cls-10,.cls-11,.cls-14,.cls-15,.cls-16,.cls-17,.cls-18,.cls-4,.cls-5,.cls-6,.cls-7,.cls-8,.cls-9{stroke:#1c19a8;}.cls-10,.cls-11,.cls-14,.cls-15,.cls-16,.cls-17,.cls-18,.cls-4,.cls-6,.cls-7,.cls-8,.cls-9{stroke-linejoin:round;}.cls-10,.cls-11,.cls-15,.cls-4,.cls-6,.cls-7{stroke-width:2.81px;}.cls-5{stroke-miterlimit:10;stroke-width:0.94px;}.cls-16,.cls-18,.cls-6{fill:#00ab81;}.cls-17,.cls-7,.cls-8,.cls-9{fill:#ffdc2d;}.cls-8{stroke-width:3.03px;}.cls-9{stroke-width:3.03px;}.cls-10{fill-rule:evenodd;}.cls-12{fill:url(#Blue_dots);}.cls-13{fill:url(#Blue_dots-3);}.cls-14{stroke-width:2.8px;}.cls-16{stroke-width:2.62px;}.cls-17,.cls-18{stroke-width:2.82px;}</style>
    <pattern id="Blue_dots" data-name="Blue dots" width="28.8" height="28.8" patternTransform="translate(-599.16 66.48) scale(0.94)" patternUnits="userSpaceOnUse" viewBox="0 0 28.8 28.8">
      <rect class="cls-1" width="28.8" height="28.8"></rect>
      <path class="cls-2" d="M28.8,30.24a1.44,1.44,0,1,0-1.44-1.44A1.44,1.44,0,0,0,28.8,30.24Z"></path>
      <path class="cls-2" d="M14.4,30.24A1.44,1.44,0,1,0,13,28.8,1.44,1.44,0,0,0,14.4,30.24Z"></path>
      <path class="cls-2" d="M28.8,15.84a1.44,1.44,0,1,0-1.44-1.44A1.44,1.44,0,0,0,28.8,15.84Z"></path>
      <path class="cls-2" d="M14.4,15.84A1.44,1.44,0,1,0,13,14.4,1.44,1.44,0,0,0,14.4,15.84Z"></path>
      <path class="cls-2" d="M7.2,23A1.44,1.44,0,1,0,5.76,21.6,1.44,1.44,0,0,0,7.2,23Z"></path>
      <path class="cls-2" d="M21.6,23a1.44,1.44,0,1,0-1.44-1.44A1.44,1.44,0,0,0,21.6,23Z"></path>
      <path class="cls-2" d="M7.2,8.64A1.44,1.44,0,1,0,5.76,7.2,1.44,1.44,0,0,0,7.2,8.64Z"></path>
      <path class="cls-2" d="M21.6,8.64A1.44,1.44,0,1,0,20.16,7.2,1.44,1.44,0,0,0,21.6,8.64Z"></path>
      <path class="cls-2" d="M0,30.24A1.44,1.44,0,0,0,1.44,28.8,1.45,1.45,0,0,0,0,27.36,1.44,1.44,0,0,0-1.44,28.8,1.43,1.43,0,0,0,0,30.24Z"></path>
      <path class="cls-2" d="M0,15.84A1.44,1.44,0,0,0,1.44,14.4,1.45,1.45,0,0,0,0,13,1.44,1.44,0,0,0-1.44,14.4,1.43,1.43,0,0,0,0,15.84Z"></path>
      <path class="cls-2" d="M28.8,1.44A1.45,1.45,0,0,0,30.24,0,1.45,1.45,0,0,0,28.8-1.44,1.44,1.44,0,0,0,27.36,0,1.44,1.44,0,0,0,28.8,1.44Z"></path>
      <path class="cls-2" d="M14.4,1.44A1.45,1.45,0,0,0,15.84,0,1.45,1.45,0,0,0,14.4-1.44,1.44,1.44,0,0,0,13,0,1.44,1.44,0,0,0,14.4,1.44Z"></path>
      <path class="cls-2" d="M0,1.44A1.45,1.45,0,0,0,1.44,0,1.45,1.45,0,0,0,0-1.44,1.44,1.44,0,0,0-1.44,0,1.44,1.44,0,0,0,0,1.44Z"></path>
    </pattern>
    <pattern id="Blue_dots-3" data-name="Blue dots" width="28.8" height="28.8" patternTransform="translate(-599.16 66.34) scale(0.94)" patternUnits="userSpaceOnUse" viewBox="0 0 28.8 28.8">
      <rect class="cls-1" width="28.8" height="28.8"></rect>
      <path class="cls-2" d="M28.8,30.24a1.44,1.44,0,1,0-1.44-1.44A1.44,1.44,0,0,0,28.8,30.24Z"></path>
      <path class="cls-2" d="M14.4,30.24A1.44,1.44,0,1,0,13,28.8,1.44,1.44,0,0,0,14.4,30.24Z"></path>
      <path class="cls-2" d="M28.8,15.84a1.44,1.44,0,1,0-1.44-1.44A1.44,1.44,0,0,0,28.8,15.84Z"></path>
      <path class="cls-2" d="M14.4,15.84A1.44,1.44,0,1,0,13,14.4,1.44,1.44,0,0,0,14.4,15.84Z"></path>
      <path class="cls-2" d="M7.2,23A1.44,1.44,0,1,0,5.76,21.6,1.44,1.44,0,0,0,7.2,23Z"></path>
      <path class="cls-2" d="M21.6,23a1.44,1.44,0,1,0-1.44-1.44A1.44,1.44,0,0,0,21.6,23Z"></path>
      <path class="cls-2" d="M7.2,8.64A1.44,1.44,0,1,0,5.76,7.2,1.44,1.44,0,0,0,7.2,8.64Z"></path>
      <path class="cls-2" d="M21.6,8.64A1.44,1.44,0,1,0,20.16,7.2,1.44,1.44,0,0,0,21.6,8.64Z"></path>
      <path class="cls-2" d="M0,30.24A1.44,1.44,0,0,0,1.44,28.8,1.45,1.45,0,0,0,0,27.36,1.44,1.44,0,0,0-1.44,28.8,1.43,1.43,0,0,0,0,30.24Z"></path>
      <path class="cls-2" d="M0,15.84A1.44,1.44,0,0,0,1.44,14.4,1.45,1.45,0,0,0,0,13,1.44,1.44,0,0,0-1.44,14.4,1.43,1.43,0,0,0,0,15.84Z"></path>
      <path class="cls-2" d="M28.8,1.44A1.45,1.45,0,0,0,30.24,0,1.45,1.45,0,0,0,28.8-1.44,1.44,1.44,0,0,0,27.36,0,1.44,1.44,0,0,0,28.8,1.44Z"></path>
      <path class="cls-2" d="M14.4,1.44A1.45,1.45,0,0,0,15.84,0,1.45,1.45,0,0,0,14.4-1.44,1.44,1.44,0,0,0,13,0,1.44,1.44,0,0,0,14.4,1.44Z"></path>
      <path class="cls-2" d="M0,1.44A1.45,1.45,0,0,0,1.44,0,1.45,1.45,0,0,0,0-1.44,1.44,1.44,0,0,0-1.44,0,1.44,1.44,0,0,0,0,1.44Z"></path>
    </pattern>
  </defs>
  <rect class="cls-3" x="107.67" y="218.36" width="382.79" height="266.39"></rect>
  <rect class="cls-4" x="84.39" y="116.54" width="431.22" height="54.44"></rect>
  <path class="cls-5" d="M143.9,142.74v-.58a3.89,3.89,0,0,0,2-.58,5.74,5.74,0,0,0,1.45-1.38,8.48,8.48,0,0,0,1-1.85c.28-.67.52-1.32.74-1.95h.51v5.25h5v1.09h-5v8.44c0,.31,0,.62.05.92a2.81,2.81,0,0,0,.22.82,1.3,1.3,0,0,0,1.32.8,3.19,3.19,0,0,0,1.81-.48,8.53,8.53,0,0,0,1.45-1.19l.33.36q-.62.54-1.2,1.11a10.45,10.45,0,0,1-1.21,1,6.06,6.06,0,0,1-1.38.73,4.65,4.65,0,0,1-1.61.27,2.18,2.18,0,0,1-2.06-.93,4.14,4.14,0,0,1-.55-2.19v-9.67Z"></path>
  <path class="cls-5" d="M173.69,155.09c-.71-.05-1.45-.08-2.25-.11s-1.61,0-2.43,0c-.55,0-1.09,0-1.61,0s-1,.06-1.5.11v-.43a5.72,5.72,0,0,0,1.79-.6,1.7,1.7,0,0,0,.63-1.58v-5.83a4.59,4.59,0,0,0-.78-2.86,3,3,0,0,0-2.51-1,4.4,4.4,0,0,0-1.27.19,5.37,5.37,0,0,0-1.2.48,4.39,4.39,0,0,0-.9.67,1,1,0,0,0-.37.69v7.68a1.64,1.64,0,0,0,.69,1.58,6.81,6.81,0,0,0,2.07.6v.43c-.82-.05-1.64-.08-2.45-.11s-1.62,0-2.44,0q-.84,0-1.62,0c-.52,0-1,.06-1.61.11v-.43a6.18,6.18,0,0,0,1.89-.6,1.69,1.69,0,0,0,.65-1.58V134a12.14,12.14,0,0,0-.13-2,2.38,2.38,0,0,0-.43-1.12,1.39,1.39,0,0,0-.84-.49,8.34,8.34,0,0,0-1.32-.15v-.43l5.54-.62v14a17.49,17.49,0,0,1,2.25-1.45A5.07,5.07,0,0,1,166,141a7.32,7.32,0,0,1,1.94.25,4.62,4.62,0,0,1,1.64.83,4,4,0,0,1,1.16,1.56,6,6,0,0,1,.44,2.43v6.37a1.69,1.69,0,0,0,.65,1.58,6.08,6.08,0,0,0,1.89.6Z"></path>
  <path class="cls-5" d="M178.72,147.34a8.47,8.47,0,0,0,.49,3.12,5.63,5.63,0,0,0,1.23,1.95,4.3,4.3,0,0,0,1.6,1,5,5,0,0,0,1.57.29,7.58,7.58,0,0,0,2.76-.49,6.82,6.82,0,0,0,2.28-1.54l.61.58a11.75,11.75,0,0,1-3,2.42,7.75,7.75,0,0,1-3.73.84,6.16,6.16,0,0,1-2.79-.62,6.6,6.6,0,0,1-2.1-1.63,7,7,0,0,1-1.32-2.32,8,8,0,0,1,0-5.36,7.1,7.1,0,0,1,1.32-2.32,6.75,6.75,0,0,1,2.1-1.63,6.15,6.15,0,0,1,2.79-.61,6.62,6.62,0,0,1,4.6,1.55,7.37,7.37,0,0,1,2.14,4.75Zm7.07-1.09a16.78,16.78,0,0,0-.29-1.75,3.67,3.67,0,0,0-.58-1.31,2.54,2.54,0,0,0-1-.8,4.46,4.46,0,0,0-1.67-.27,2.72,2.72,0,0,0-1.4.38,3.88,3.88,0,0,0-1.08,1,4.37,4.37,0,0,0-.69,1.34,4.66,4.66,0,0,0-.24,1.43Z"></path>
  <path class="cls-5" d="M201.15,150.35h.5a14.06,14.06,0,0,0,1.15,1.48,9.07,9.07,0,0,0,1.39,1.31,7.58,7.58,0,0,0,1.63.94,4.8,4.8,0,0,0,1.85.36,5.36,5.36,0,0,0,1-.09,2.85,2.85,0,0,0,.89-.31,1.91,1.91,0,0,0,.65-.58,1.52,1.52,0,0,0,.25-.9,1.87,1.87,0,0,0-.67-1.49,6.53,6.53,0,0,0-1.65-1,21.08,21.08,0,0,0-2.15-.82,12.51,12.51,0,0,1-2.16-.9,5.91,5.91,0,0,1-1.65-1.29,2.89,2.89,0,0,1-.67-2,3.75,3.75,0,0,1,1.22-3,4.51,4.51,0,0,1,3.06-1.05,9.81,9.81,0,0,1,2.66.36,12.4,12.4,0,0,0,2.67.43l.21,3.84h-.47a7,7,0,0,0-.9-1.32,7.18,7.18,0,0,0-1.22-1.12,6.7,6.7,0,0,0-1.43-.8,4.06,4.06,0,0,0-1.56-.31,3.31,3.31,0,0,0-1.63.4,1.52,1.52,0,0,0-.72,1.45,1.48,1.48,0,0,0,.67,1.25,7.88,7.88,0,0,0,1.65.91c.65.27,1.37.55,2.15.81a12.58,12.58,0,0,1,2.16,1,6,6,0,0,1,1.65,1.38,3.08,3.08,0,0,1,.67,2,4.53,4.53,0,0,1-.42,2.08,3.33,3.33,0,0,1-1.14,1.29,5.11,5.11,0,0,1-1.69.67,10.23,10.23,0,0,1-2,.2,10,10,0,0,1-1.67-.13,15.24,15.24,0,0,1-1.5-.31l-1.33-.32c-.41-.1-.77-.17-1.08-.22Z"></path>
  <path class="cls-5" d="M222.85,141a9.13,9.13,0,0,1,3.17.52,7.39,7.39,0,0,1,2.46,1.47,6.49,6.49,0,0,1,1.6,2.28,8.16,8.16,0,0,1,0,5.94,6.31,6.31,0,0,1-1.6,2.28A7.39,7.39,0,0,1,226,155a9.75,9.75,0,0,1-6.34,0,7.2,7.2,0,0,1-2.46-1.47,6.31,6.31,0,0,1-1.6-2.28,8.16,8.16,0,0,1,0-5.94,6.49,6.49,0,0,1,1.6-2.28,7.2,7.2,0,0,1,2.46-1.47A9.13,9.13,0,0,1,222.85,141Zm-.65,1.08a3,3,0,0,0-1.76.51,4.21,4.21,0,0,0-1.23,1.32,6.33,6.33,0,0,0-.73,1.85,9.61,9.61,0,0,0-.23,2,8.87,8.87,0,0,0,.31,2.32,6.63,6.63,0,0,0,1,2.11,5.06,5.06,0,0,0,1.63,1.56,4.39,4.39,0,0,0,2.35.6,3,3,0,0,0,1.76-.51,4.22,4.22,0,0,0,1.23-1.32,6.2,6.2,0,0,0,.73-1.83,9.43,9.43,0,0,0,.23-2.06,8.85,8.85,0,0,0-.32-2.3,7.33,7.33,0,0,0-1-2.14,5.39,5.39,0,0,0-1.63-1.56A4.38,4.38,0,0,0,222.2,142.12Z"></path>
  <path class="cls-5" d="M238,150.53a3.3,3.3,0,0,0,.78,2.35,3,3,0,0,0,2.3.84,5.11,5.11,0,0,0,2.3-.57A5.33,5.33,0,0,0,245,152v-7.65a4.79,4.79,0,0,0-.07-.87,1.39,1.39,0,0,0-.36-.7,2.46,2.46,0,0,0-.87-.55,7.73,7.73,0,0,0-1.56-.38v-.4l5.69-.39v11.12a2,2,0,0,0,.71,1.83,4.1,4.1,0,0,0,2,.52v.37c-.92,0-1.84.08-2.77.1s-1.84.06-2.74.11v-1.88a16.93,16.93,0,0,1-2.66,1.63,6.74,6.74,0,0,1-3,.69,4.68,4.68,0,0,1-3-1,3.6,3.6,0,0,1-1.23-3V144a1.64,1.64,0,0,0-.6-1.48,5,5,0,0,0-2.12-.58v-.47L238,141Z"></path>
  <path class="cls-5" d="M252.09,154.66a6,6,0,0,0,1.88-.6,1.66,1.66,0,0,0,.65-1.58v-8.4c0-.73-.24-1.17-.74-1.34a5.27,5.27,0,0,0-1.72-.26v-.43l5.29-.8v2.07c.29-.2.62-.45,1-.76s.77-.62,1.19-.93a9.63,9.63,0,0,1,1.29-.78,2.91,2.91,0,0,1,1.27-.32,2.73,2.73,0,0,1,2.12.78,3.3,3.3,0,0,1,.77,2.15L262.2,145c0-.16.09-.34.14-.52a2.78,2.78,0,0,0,.07-.71,1.51,1.51,0,0,0-.36-1,1.19,1.19,0,0,0-1-.45,2.22,2.22,0,0,0-1,.25,5,5,0,0,0-1,.64,9.71,9.71,0,0,0-.89.81c-.28.29-.52.55-.74.76v7.68a1.64,1.64,0,0,0,.69,1.58,6.82,6.82,0,0,0,2.06.6v.43c-.82-.05-1.63-.08-2.44-.11s-1.63,0-2.45,0c-.55,0-1.09,0-1.61,0s-1.06.06-1.61.11Z"></path>
  <path class="cls-5" d="M279.19,147.12c-.24-.6-.52-1.21-.82-1.83a7.83,7.83,0,0,0-1.08-1.65,5.55,5.55,0,0,0-1.49-1.19,4,4,0,0,0-2-.47,3.34,3.34,0,0,0-1.92.54,4.13,4.13,0,0,0-1.29,1.4,6.55,6.55,0,0,0-.73,1.92,10.17,10.17,0,0,0-.23,2.11,6.53,6.53,0,0,0,.4,2.29,6.35,6.35,0,0,0,1.12,1.94,5.32,5.32,0,0,0,1.76,1.34,5.38,5.38,0,0,0,2.3.49,6.8,6.8,0,0,0,2.54-.49,12.7,12.7,0,0,0,2.28-1.25l.51.58a13.62,13.62,0,0,1-3.21,2,9.07,9.07,0,0,1-3.53.67,6.55,6.55,0,0,1-2.7-.58,7.43,7.43,0,0,1-2.25-1.56,7.67,7.67,0,0,1-1.54-2.3,7.1,7.1,0,0,1,0-5.62,7.67,7.67,0,0,1,1.54-2.3,7.43,7.43,0,0,1,2.25-1.56,6.54,6.54,0,0,1,2.7-.57,21.86,21.86,0,0,1,2.79.16c.84.11,1.69.25,2.53.41l.47,5.51Z"></path>
  <path class="cls-5" d="M285.71,147.34a8.47,8.47,0,0,0,.49,3.12,5.35,5.35,0,0,0,1.23,1.95,4.35,4.35,0,0,0,1.59,1,5.06,5.06,0,0,0,1.58.29,7.52,7.52,0,0,0,2.75-.49,6.85,6.85,0,0,0,2.29-1.54l.61.58a11.75,11.75,0,0,1-3,2.42,7.75,7.75,0,0,1-3.73.84,6.16,6.16,0,0,1-2.79-.62,6.6,6.6,0,0,1-2.1-1.63,7.2,7.2,0,0,1-1.33-2.32,8.21,8.21,0,0,1,0-5.36,7.31,7.31,0,0,1,1.33-2.32,6.75,6.75,0,0,1,2.1-1.63,6.15,6.15,0,0,1,2.79-.61,6.64,6.64,0,0,1,4.6,1.55,7.37,7.37,0,0,1,2.14,4.75Zm7.06-1.09a12.76,12.76,0,0,0-.29-1.75,3.35,3.35,0,0,0-.58-1.31,2.42,2.42,0,0,0-1-.8,4.36,4.36,0,0,0-1.66-.27,2.7,2.7,0,0,0-1.4.38,3.88,3.88,0,0,0-1.08,1,4.16,4.16,0,0,0-.69,1.34,4.66,4.66,0,0,0-.24,1.43Z"></path>
  <path class="cls-5" d="M311.78,144.18c0-.6,0-1.11,0-1.5a2.32,2.32,0,0,0-.28-1,1.29,1.29,0,0,0-.67-.54,4,4,0,0,0-1.21-.24v-.26l1.32.06c.44,0,.88,0,1.33,0a16.56,16.56,0,0,0,1.73-.08,18.31,18.31,0,0,1,1.87-.09,10.11,10.11,0,0,1,1.92.2,6.23,6.23,0,0,1,1.86.66,4.33,4.33,0,0,1,1.41,1.25,3.22,3.22,0,0,1,.57,1.95,2.83,2.83,0,0,1-.62,1.77,3.31,3.31,0,0,1-1.53,1.1v0a5,5,0,0,1,2.33,1.47,3.88,3.88,0,0,1,.84,2.61,3,3,0,0,1-.44,1.66,3.29,3.29,0,0,1-1.15,1.07,5.41,5.41,0,0,1-1.63.56,10.46,10.46,0,0,1-1.86.16c-1,0-2,0-2.95-.1s-1.94-.11-2.94-.11c-.33,0-.67,0-1,0s-.67,0-1,.06v-.26a4.07,4.07,0,0,0,1.2-.24,1.24,1.24,0,0,0,.65-.54,2.43,2.43,0,0,0,.27-1c0-.4,0-.91,0-1.51Zm2,2.74a4.21,4.21,0,0,0,1.19.41,6.43,6.43,0,0,0,1.24.11,3.48,3.48,0,0,0,2.31-.77,2.72,2.72,0,0,0,.92-2.23,2.85,2.85,0,0,0-.3-1.32,3.28,3.28,0,0,0-.8-1,3.66,3.66,0,0,0-1.16-.65,4.34,4.34,0,0,0-1.38-.23c-.35,0-.69,0-1,.05a3.88,3.88,0,0,0-1,.21Zm0,6.77a.74.74,0,0,0,.4.31,6.58,6.58,0,0,0,.74.23q.42.09.9.15c.32,0,.62.05.91.05a3.91,3.91,0,0,0,2.75-.92,3.49,3.49,0,0,0,1-2.68,2.87,2.87,0,0,0-.58-1.75,5.4,5.4,0,0,0-1.35-1.31l-1,.16a7.45,7.45,0,0,1-1.06.08,12.22,12.22,0,0,1-1.35-.08,5.26,5.26,0,0,1-1.3-.32Z"></path>
  <path class="cls-5" d="M326.42,142.86a2.9,2.9,0,0,0-.12-.94,1.17,1.17,0,0,0-.36-.54,1.54,1.54,0,0,0-.59-.28c-.23-.06-.5-.11-.8-.17v-.26l1.79.06c.59,0,1.18,0,1.79,0,.44,0,.87,0,1.29,0l1.3-.06v.26a4.51,4.51,0,0,0-1.15.22,1.59,1.59,0,0,0-.72.43,1.63,1.63,0,0,0-.37.73,4.76,4.76,0,0,0-.11,1.09v7.08a3.92,3.92,0,0,0,.34,1.73,3.07,3.07,0,0,0,.92,1.15A4,4,0,0,0,331,154a6.19,6.19,0,0,0,1.64.21,5.4,5.4,0,0,0,2.28-.42,4.12,4.12,0,0,0,1.41-1,3.32,3.32,0,0,0,.71-1.28,4.47,4.47,0,0,0,.2-1.2v-6.08a12,12,0,0,0-.08-1.47,2.47,2.47,0,0,0-.3-1,1.44,1.44,0,0,0-.64-.58,3.77,3.77,0,0,0-1.06-.28v-.26c.44,0,.89.05,1.33.06s.89,0,1.34,0,.74,0,1.1,0l1.11-.06v.26a6.56,6.56,0,0,0-.84.17,1.37,1.37,0,0,0-.64.39,2,2,0,0,0-.4.82,6,6,0,0,0-.14,1.44v6.49a4.91,4.91,0,0,1-.47,2.25,4.43,4.43,0,0,1-1.27,1.57,5.49,5.49,0,0,1-1.87.94,8.5,8.5,0,0,1-2.29.3A7.88,7.88,0,0,1,330,155a5.62,5.62,0,0,1-1.82-.89,4.69,4.69,0,0,1-1.27-1.49,4.38,4.38,0,0,1-.47-2.06Z"></path>
  <path class="cls-5" d="M348.76,140.93a9.66,9.66,0,0,0-1.63.35,2.09,2.09,0,0,0-.86.48,1.36,1.36,0,0,0-.33.74,6.84,6.84,0,0,0-.07,1.1V154l1.14.2a8.32,8.32,0,0,0,1.12.08,8.23,8.23,0,0,0,2.23-.26,5.5,5.5,0,0,0,1.72-.78,6.88,6.88,0,0,0,1.4-1.31,16.63,16.63,0,0,0,1.29-1.86h.33L353.43,155c-.53,0-1.05,0-1.58-.06s-1.05,0-1.57,0h-6.39c-.36,0-.72,0-1.08,0l-1.09.06v-.26a4.65,4.65,0,0,0,1.14-.21,2,2,0,0,0,.67-.38,1.19,1.19,0,0,0,.31-.56,3.34,3.34,0,0,0,.08-.76v-8.6c0-.6,0-1.11-.06-1.5a2.18,2.18,0,0,0-.27-1,1.21,1.21,0,0,0-.65-.54,4.15,4.15,0,0,0-1.22-.24v-.26l1.69.06c.55,0,1.11,0,1.68,0s1.22,0,1.83,0,1.23,0,1.84-.06Z"></path>
  <path class="cls-5" d="M359.94,151.44c0,.6,0,1.11.05,1.51a2.13,2.13,0,0,0,.29,1,1.28,1.28,0,0,0,.68.54,4.39,4.39,0,0,0,1.26.24V155l-1.65-.06c-.55,0-1.1,0-1.65,0s-1.07,0-1.59,0l-1.56.06v-.26a4.15,4.15,0,0,0,1.22-.24,1.27,1.27,0,0,0,.66-.54,2.27,2.27,0,0,0,.28-1c0-.4.05-.91.05-1.51v-7.26c0-.6,0-1.11-.05-1.5a2.32,2.32,0,0,0-.28-1,1.26,1.26,0,0,0-.69-.54,4.3,4.3,0,0,0-1.23-.24v-.26l1.77.06c.57,0,1.16,0,1.77,0s1,0,1.43,0,.95,0,1.41-.06v.26a4,4,0,0,0-1.19.24,1.27,1.27,0,0,0-.66.54,2.48,2.48,0,0,0-.27,1c0,.39-.05.9-.05,1.5v3.67l3.3-2.69c.3-.24.59-.5.87-.77a8.73,8.73,0,0,0,.72-.81,4.85,4.85,0,0,0,.5-.79,1.43,1.43,0,0,0,.19-.67,1,1,0,0,0-.14-.55,1.19,1.19,0,0,0-.37-.37,2,2,0,0,0-.51-.21,2.76,2.76,0,0,0-.57-.06v-.26l1.62.06c.53,0,1.07,0,1.62,0s1.15,0,1.73,0l1.72-.06v.26a4.76,4.76,0,0,0-1.05.22,4.56,4.56,0,0,0-1,.44,10.56,10.56,0,0,0-1.09.74c-.38.3-.83.66-1.33,1.09l-2.69,2.31,4.38,6.44a9.23,9.23,0,0,0,1.53,1.7,3.34,3.34,0,0,0,2,.82V155c-.62,0-1.24,0-1.87-.06s-1.24,0-1.86,0-1.13,0-1.69,0l-1.68.06v-.26a3.53,3.53,0,0,0,1.36-.32,1,1,0,0,0,.57-1,1.16,1.16,0,0,0-.24-.65c-.15-.23-.38-.56-.67-1L362,146.92l-2.08,1.63Z"></path>
  <path class="cls-5" d="M381.54,151.81a7.84,7.84,0,0,0,.09,1.35,1.46,1.46,0,0,0,.36.77,1.71,1.71,0,0,0,.79.44c.35.1.82.21,1.41.32V155l-1.85-.06c-.6,0-1.22,0-1.84,0s-1.07,0-1.6,0l-1.59.06v-.26a4.15,4.15,0,0,0,1.22-.24,1.34,1.34,0,0,0,.69-.54,2.13,2.13,0,0,0,.3-1,12.75,12.75,0,0,0,.07-1.51v-7.26a12.46,12.46,0,0,0-.07-1.5,2.18,2.18,0,0,0-.3-1,1.34,1.34,0,0,0-.69-.54,4.15,4.15,0,0,0-1.22-.24v-.26l.8,0c.33,0,.68,0,1,0h6.53c.73,0,1.39,0,1.95,0l1.78-.05q0,.45-.06.9c0,.3,0,.59,0,.88s0,.75,0,1.12,0,.74.06,1.11h-.35a5.37,5.37,0,0,0-.9-1.92,3.38,3.38,0,0,0-1.3-1,5.51,5.51,0,0,0-1.7-.38c-.64,0-1.34-.06-2.09-.06l-.74,0c-.24,0-.5,0-.78,0v5.39h1.74a3.24,3.24,0,0,0,2-.55,3.65,3.65,0,0,0,1.15-1.78h.26c0,1-.07,2-.07,3,0,.52,0,1,0,1.44s0,.92.06,1.42h-.26a9.6,9.6,0,0,0-.46-1.33,2.8,2.8,0,0,0-.57-.86,2,2,0,0,0-.82-.48,6.27,6.27,0,0,0-1.17-.22l-.41,0h-1.48Z"></path>
  <path class="cls-5" d="M391.2,147.81a7.57,7.57,0,0,1,.64-3.15,7.18,7.18,0,0,1,1.73-2.35,7.34,7.34,0,0,1,2.55-1.48,9.77,9.77,0,0,1,6.23,0,7.34,7.34,0,0,1,2.55,1.48,7,7,0,0,1,1.73,2.35,8.07,8.07,0,0,1,0,6.3,7,7,0,0,1-1.73,2.35,7.34,7.34,0,0,1-2.55,1.48,9.77,9.77,0,0,1-6.23,0,7.34,7.34,0,0,1-2.55-1.48,7.18,7.18,0,0,1-1.73-2.35A7.57,7.57,0,0,1,391.2,147.81Zm2.3,0a8.28,8.28,0,0,0,.39,2.54,6.94,6.94,0,0,0,1.13,2.14,5.78,5.78,0,0,0,1.81,1.48,5.22,5.22,0,0,0,2.41.55,5.28,5.28,0,0,0,2.41-.55,5.74,5.74,0,0,0,1.8-1.48,6.74,6.74,0,0,0,1.13-2.14,8.47,8.47,0,0,0,0-5.08,6.74,6.74,0,0,0-1.13-2.14,5.58,5.58,0,0,0-1.8-1.47,5.16,5.16,0,0,0-2.41-.56,5.1,5.1,0,0,0-2.41.56,5.61,5.61,0,0,0-1.81,1.47,6.94,6.94,0,0,0-1.13,2.14A8.28,8.28,0,0,0,393.5,147.81Z"></path>
  <path class="cls-5" d="M409.29,147.81a7.42,7.42,0,0,1,.64-3.15,7.15,7.15,0,0,1,1.72-2.35,7.48,7.48,0,0,1,2.56-1.48,9.35,9.35,0,0,1,3.11-.51,9.45,9.45,0,0,1,3.12.51,7.53,7.53,0,0,1,2.55,1.48,7,7,0,0,1,1.72,2.35,8.07,8.07,0,0,1,0,6.3,7,7,0,0,1-1.72,2.35,7.53,7.53,0,0,1-2.55,1.48,9.45,9.45,0,0,1-3.12.51,9.35,9.35,0,0,1-3.11-.51,7.48,7.48,0,0,1-2.56-1.48,7.15,7.15,0,0,1-1.72-2.35A7.42,7.42,0,0,1,409.29,147.81Zm2.3,0a8.28,8.28,0,0,0,.39,2.54,6.74,6.74,0,0,0,1.13,2.14,5.63,5.63,0,0,0,1.8,1.48,5.56,5.56,0,0,0,4.82,0,5.63,5.63,0,0,0,1.8-1.48,6.74,6.74,0,0,0,1.13-2.14,8.47,8.47,0,0,0,0-5.08,6.74,6.74,0,0,0-1.13-2.14,5.47,5.47,0,0,0-1.8-1.47,5.47,5.47,0,0,0-4.82,0,5.47,5.47,0,0,0-1.8,1.47,6.74,6.74,0,0,0-1.13,2.14A8.28,8.28,0,0,0,411.59,147.81Z"></path>
  <path class="cls-5" d="M427.2,154.69a3.76,3.76,0,0,0,1.14-.24,1.9,1.9,0,0,0,.65-.4,1,1,0,0,0,.29-.49,1.81,1.81,0,0,0,.07-.52V143a5,5,0,0,0-.06-.83,1.13,1.13,0,0,0-.27-.62,1.35,1.35,0,0,0-.65-.41,4.43,4.43,0,0,0-1.17-.22v-.26c.38,0,.75.05,1.13.06s.75,0,1.13,0a24.76,24.76,0,0,0,2.82-.15,23.37,23.37,0,0,1,2.67-.15,9.93,9.93,0,0,1,3.3.54,8.21,8.21,0,0,1,2.7,1.56,7.19,7.19,0,0,1,1.84,2.44,7.41,7.41,0,0,1,.67,3.21,6.7,6.7,0,0,1-.65,3.07,6,6,0,0,1-1.74,2.09,7.2,7.2,0,0,1-2.48,1.18,11.29,11.29,0,0,1-2.92.37h-5.56c-.49,0-1,0-1.46,0l-1.45.06Zm4.1-1.47a4.06,4.06,0,0,0,1.6.91,6.6,6.6,0,0,0,1.81.26c2.23,0,3.85-.57,4.88-1.72a7.23,7.23,0,0,0,1.53-5,6.82,6.82,0,0,0-.51-2.64,6.62,6.62,0,0,0-3.56-3.57,7.21,7.21,0,0,0-2.73-.52,7,7,0,0,0-2.89.61c-.06.75-.09,1.5-.11,2.25s0,1.51,0,2.29Z"></path>
  <path class="cls-5" d="M455.1,144.79a8.37,8.37,0,0,0-.73-1.38,6.34,6.34,0,0,0-1-1.21,5.06,5.06,0,0,0-1.3-.86,3.71,3.71,0,0,0-1.57-.33,4.09,4.09,0,0,0-2,.46,1.71,1.71,0,0,0-.79,1.63,2,2,0,0,0,.36,1.2,3.76,3.76,0,0,0,.95.91,9.09,9.09,0,0,0,1.36.71l1.55.66c.53.23,1.05.47,1.56.73a6.47,6.47,0,0,1,1.35.93,4.49,4.49,0,0,1,1,1.26,3.8,3.8,0,0,1,.36,1.72,4,4,0,0,1-.39,1.83,3.56,3.56,0,0,1-1.06,1.27,4.32,4.32,0,0,1-1.54.74,7.07,7.07,0,0,1-1.88.24,6.4,6.4,0,0,1-1.13-.1L449,155l-1-.23a3.21,3.21,0,0,0-.71-.1,1.12,1.12,0,0,0-.45.08l-.46.16c-.13-.82-.28-1.63-.46-2.41s-.35-1.59-.54-2.41l.28-.15a15.28,15.28,0,0,0,1,1.57,9.55,9.55,0,0,0,1.25,1.51,6.73,6.73,0,0,0,1.53,1.13,3.74,3.74,0,0,0,1.81.45,5,5,0,0,0,1.22-.14,3.09,3.09,0,0,0,1-.44,2.22,2.22,0,0,0,.7-.79,2.49,2.49,0,0,0,.26-1.21,2.43,2.43,0,0,0-.63-1.7,6.18,6.18,0,0,0-1.56-1.19,18.22,18.22,0,0,0-2-.94,15.29,15.29,0,0,1-2-1,6,6,0,0,1-1.56-1.28,2.76,2.76,0,0,1-.63-1.86,3.69,3.69,0,0,1,.32-1.54,3.58,3.58,0,0,1,.88-1.18,3.82,3.82,0,0,1,1.28-.75,4.73,4.73,0,0,1,1.56-.26,9,9,0,0,1,1.44.11c.43.07.84.15,1.25.24l1.24.25a6.61,6.61,0,0,0,1.3.12c0,.65,0,1.28,0,1.9s.07,1.23.14,1.85Z"></path>
  <polygon class="cls-6" points="150.09 387.26 151.71 387.26 151.71 342.07 124.11 342.07 124.11 371.43 150.09 387.26"></polygon>
  <rect class="cls-4" x="94.93" y="479.07" width="407.72" height="11.37"></rect>
  <rect class="cls-7" x="78.19" y="170.98" width="443.62" height="11.72" rx="5.86"></rect>
  <rect class="cls-7" x="87.36" y="217.97" width="425.27" height="15.08"></rect>
  <rect class="cls-8" x="101.51" y="233.04" width="12.34" height="245.62"></rect>
  <rect class="cls-9" x="484.3" y="233.04" width="12.34" height="246.03" transform="translate(980.93 712.12) rotate(-180)"></rect>
  <line class="cls-4" x1="113.84" y1="320.48" x2="150.45" y2="320.48"></line>
  <path class="cls-10" d="M127.54,287.71a.7.7,0,0,0-.52.75v3.67a.68.68,0,0,0,.58.75h.16a2.66,2.66,0,0,1-.52,1,8.37,8.37,0,0,1-1.57,1.37,8.09,8.09,0,0,0-1.83,1.71,5.42,5.42,0,0,0-1,3.08v17.18c0,1.78,1.14,3.26,2.53,3.26h13.53c1.4,0,2.54-1.48,2.54-3.26V300.09h0a5.31,5.31,0,0,0-.95-3.07,8.46,8.46,0,0,0-1.82-1.74,8.68,8.68,0,0,1-1.56-1.38,2.42,2.42,0,0,1-.51-1h.19a.68.68,0,0,0,.58-.75l0-3.66a.91.91,0,0,0-.17-.54.53.53,0,0,0-.41-.22h-9.32Z"></path>
  <line class="cls-4" x1="447.09" y1="320.48" x2="483.7" y2="320.48"></line>
  <path class="cls-10" d="M460.75,287.71a.7.7,0,0,0-.51.75v3.67a.68.68,0,0,0,.58.75H461a2.5,2.5,0,0,1-.51,1,8.8,8.8,0,0,1-1.58,1.37,8.05,8.05,0,0,0-1.82,1.71,5.34,5.34,0,0,0-1,3.08v17.18c0,1.78,1.14,3.26,2.53,3.26h13.53c1.39,0,2.53-1.48,2.53-3.26V300.09h0a5.23,5.23,0,0,0-.94-3.07,8.27,8.27,0,0,0-1.83-1.74,9,9,0,0,1-1.56-1.38,2.68,2.68,0,0,1-.51-1H470a.68.68,0,0,0,.58-.75l0-3.66a1,1,0,0,0-.16-.54.54.54,0,0,0-.42-.22h-9.32Z"></path>
  <rect class="cls-11" x="242.97" y="233.04" width="112.46" height="56.99"></rect>
  <rect class="cls-11" x="278.21" y="212.81" width="41.99" height="97.46" transform="translate(560.74 -37.66) rotate(90)"></rect>
  <path class="cls-4" d="M243,233v57H355.43V233Zm105,49.49H250.47v-42h97.46Z"></path>
  <path class="cls-4" d="M243,290V479.17H355.43V290Zm105,168.84H250.47V297.53h97.46Z"></path>
  <polygon class="cls-4" points="512.75 218.36 87.36 218.36 99.1 182.69 500.82 182.69 512.75 218.36"></polygon>
  <polygon class="cls-6" points="161.97 394.5 113.84 365.18 113.84 479.07 161.97 479.07 161.97 394.5"></polygon>
  <polygon class="cls-6" points="447.5 387.42 445.88 387.42 445.88 342.23 473.48 342.23 473.48 371.59 447.5 387.42"></polygon>
  <polygon class="cls-6" points="435.61 394.66 483.74 365.33 483.74 479.07 435.61 479.07 435.61 394.66"></polygon>
  <polygon class="cls-12" points="512.64 218.36 87.36 218.36 99.1 182.69 500.82 182.69 512.64 218.36"></polygon>
  <polygon class="cls-13" points="250.47 282.39 250.47 240.41 347.93 240.41 347.93 282.39 250.47 282.39"></polygon>
  <rect class="cls-14" x="242.97" y="290.03" width="112.46" height="189.04"></rect>
  <rect class="cls-15" x="275.8" y="464.75" width="46.81" height="8.06"></rect>
  <rect class="cls-15" x="247.18" y="371.89" width="8.32" height="25.42"></rect>
  <path class="cls-6" d="M179.65,438.67h13.44a9.19,9.19,0,0,1,9.19,9.19v31.22a0,0,0,0,1,0,0H170.46a0,0,0,0,1,0,0V447.86A9.19,9.19,0,0,1,179.65,438.67Z"></path>
  <rect class="cls-16" x="174" y="433" width="24.75" height="5.67" rx="2.83"></rect>
  <line class="cls-6" x1="201.91" y1="449.31" x2="170.83" y2="449.31"></line>
  <line class="cls-6" x1="201.91" y1="468.8" x2="170.83" y2="468.8"></line>
  <path class="cls-6" d="M209.83,438.67h13.44a9.19,9.19,0,0,1,9.19,9.19v31.22a0,0,0,0,1,0,0H200.64a0,0,0,0,1,0,0V447.86A9.19,9.19,0,0,1,209.83,438.67Z"></path>
  <rect class="cls-16" x="204.17" y="433" width="24.75" height="5.67" rx="2.83"></rect>
  <line class="cls-6" x1="232.09" y1="449.31" x2="201" y2="449.31"></line>
  <line class="cls-6" x1="232.09" y1="468.8" x2="201" y2="468.8"></line>
  <path class="cls-9" d="M395.51,438.67H409a9.19,9.19,0,0,1,9.19,9.19v31.22a0,0,0,0,1,0,0H386.33a0,0,0,0,1,0,0V447.86A9.19,9.19,0,0,1,395.51,438.67Z"></path>
  <rect class="cls-9" x="389.86" y="433" width="24.75" height="5.67" rx="2.83"></rect>
  <line class="cls-6" x1="417.77" y1="449.31" x2="386.69" y2="449.31"></line>
  <line class="cls-6" x1="417.77" y1="468.8" x2="386.69" y2="468.8"></line>
  <path class="cls-9" d="M425.69,438.67h13.44a9.19,9.19,0,0,1,9.19,9.19v31.22a0,0,0,0,1,0,0H416.5a0,0,0,0,1,0,0V447.86A9.19,9.19,0,0,1,425.69,438.67Z"></path>
  <rect class="cls-9" x="420.04" y="433" width="24.75" height="5.67" rx="2.83"></rect>
  <line class="cls-6" x1="447.95" y1="449.31" x2="416.87" y2="449.31"></line>
  <line class="cls-6" x1="447.95" y1="468.8" x2="416.87" y2="468.8"></line>
  <line class="cls-17" x1="404.97" y1="233.04" x2="404.97" y2="270.47"></line>
  <rect class="cls-17" x="401.04" y="270.47" width="7.86" height="7.86"></rect>
  <circle class="cls-18" cx="404.97" cy="292.06" r="13.72"></circle>
  <line class="cls-17" x1="190.45" y1="233.04" x2="190.45" y2="270.47"></line>
  <rect class="cls-17" x="186.52" y="270.47" width="7.86" height="7.86"></rect>
  <circle class="cls-18" cx="190.45" cy="292.06" r="13.72"></circle>
  <path class="cls-2" d="M408.87,488.57l-14.13-83a1.75,1.75,0,0,0-2-1.42l-1.28.22a6.37,6.37,0,0,0-12.54,0l-1.28-.22a1.74,1.74,0,0,0-2,1.42l-14.13,83a1.73,1.73,0,0,0,1.41,2l7.47,1.27.29,0a1.63,1.63,0,0,0,1-.32,1.69,1.69,0,0,0,.71-1.12l12.79-75.17L398,490.42a1.69,1.69,0,0,0,.71,1.12,1.63,1.63,0,0,0,1,.32l.3,0,7.47-1.27A1.73,1.73,0,0,0,408.87,488.57Z"></path>
</svg>
