<?xml version="1.0" encoding="UTF-8"?>
<!-- Generator: Adobe Illustrator 24.0.1, SVG Export Plug-In . SVG Version: 6.00 Build 0)  -->
<svg xmlns="http://www.w3.org/2000/svg" xmlns:xlink="http://www.w3.org/1999/xlink" x="0px" y="0px" viewBox="0 0 600 600" style="enable-background:new 0 0 600 600;" xml:space="preserve">
<style type="text/css">
	.st0{fill:#FFFFFF;}
	
		.st1{fill-rule:evenodd;clip-rule:evenodd;fill:#FFDE00;stroke:#1C19A8;stroke-width:2.82;stroke-linejoin:round;stroke-miterlimit:10;}
	
		.st2{fill-rule:evenodd;clip-rule:evenodd;fill:#FB715D;stroke:#1C19A8;stroke-width:2.82;stroke-linejoin:round;stroke-miterlimit:10;}
	.st3{fill:#00AB81;stroke:#1C19A8;stroke-width:2.82;stroke-linejoin:round;stroke-miterlimit:10;}
	.st4{fill:#FB715D;stroke:#1C19A8;stroke-width:2.82;stroke-linejoin:round;stroke-miterlimit:10;}
	.st5{fill:none;stroke:#1C19A8;stroke-width:2.82;stroke-miterlimit:10;}
	.st6{fill:#FFDE00;stroke:#1C19A8;stroke-width:2.82;stroke-linejoin:round;stroke-miterlimit:10;}
	.st7{fill-rule:evenodd;clip-rule:evenodd;fill:#1C19A8;stroke:#1C19A8;stroke-width:2.82;stroke-miterlimit:10;}
	.st8{fill:#FFFFFF;stroke:#1C19A8;stroke-width:2.82;stroke-linejoin:round;stroke-miterlimit:10;}
	.st9{fill:url(#);}
	
		.st10{fill-rule:evenodd;clip-rule:evenodd;fill:#00AB81;stroke:#1C19A8;stroke-width:2.82;stroke-linejoin:round;stroke-miterlimit:10;}
	.st11{fill:#1C19A8;stroke:#1C19A8;stroke-width:2.82;stroke-miterlimit:10;}
	.st12{fill:#1C19A8;stroke:#1C19A8;stroke-width:2.82;stroke-linejoin:round;stroke-miterlimit:10;}
	.st13{fill:#1C19A8;}
	.st14{fill:none;stroke:#1C19A8;stroke-width:2.82;stroke-linejoin:round;stroke-miterlimit:10;}
	.st15{fill:#FFDE00;}
	.st16{fill:#00AB81;}
	.st17{fill:#FB715D;}
	.st18{fill:#9D9D9C;stroke:#1C19A8;stroke-width:2.82;stroke-linejoin:round;stroke-miterlimit:10;}
	.st19{fill-rule:evenodd;clip-rule:evenodd;fill:#1C19A8;stroke:#1C19A8;stroke-miterlimit:10;}
	.st20{fill-rule:evenodd;clip-rule:evenodd;fill:#1C19A8;stroke:#1C19A8;stroke-width:1.0222;stroke-miterlimit:10;}
	.st21{fill:#EDEDED;stroke:#1C19A8;stroke-width:2.82;stroke-linejoin:round;stroke-miterlimit:10;}
	.st22{fill:#EDEDED;stroke:#1C19A8;stroke-width:2.82;stroke-linecap:round;stroke-linejoin:round;stroke-miterlimit:10;}
	.st23{fill-rule:evenodd;clip-rule:evenodd;fill:#00AB81;}
	.st24{fill-rule:evenodd;clip-rule:evenodd;fill:#FB715D;}
	.st25{fill:none;stroke:#1C19A8;stroke-width:2.82;stroke-linecap:round;stroke-linejoin:round;stroke-miterlimit:10;}
	.st26{fill-rule:evenodd;clip-rule:evenodd;fill:#FFDE00;}
	.st27{fill:#FB715D;stroke:#1C19A8;stroke-width:2.82;stroke-linecap:round;stroke-linejoin:round;stroke-miterlimit:10;}
	.st28{fill:#FFFFFF;stroke:#1C19A8;stroke-width:2.82;stroke-linecap:round;stroke-linejoin:round;stroke-miterlimit:10;}
	.st29{fill:none;stroke:#1C19A8;stroke-width:2;stroke-miterlimit:10;}
	.st30{fill:#00AB81;stroke:#1C19A8;stroke-width:2.4933;stroke-linejoin:round;stroke-miterlimit:10;}
	.st31{fill:#FFDE00;stroke:#1C19A8;stroke-width:2.82;stroke-miterlimit:10;}
	.st32{fill:#FB715D;stroke:#1C19A8;stroke-width:2.82;stroke-miterlimit:10;}
	.st33{fill:#00AB81;stroke:#1C19A8;stroke-width:2.82;stroke-miterlimit:10;}
	.st34{fill:#FFFFFF;stroke:#1C19A8;stroke-width:2.82;stroke-miterlimit:10;}
	.st35{fill:url(#);stroke:#1C19A8;stroke-width:2.82;stroke-linejoin:round;stroke-miterlimit:10;}
	.st36{fill:#1C19A8;stroke:#1C19A8;stroke-miterlimit:10;}
	.st37{fill:none;stroke:#1C19A8;stroke-miterlimit:10;}
	.st38{fill:#FFDE00;stroke:#1C19A8;stroke-width:2.82;stroke-linecap:round;stroke-linejoin:round;stroke-miterlimit:10;}
	.st39{clip-path:url(#XMLID_4_);}
	.st40{clip-path:url(#XMLID_5_);}
	.st41{clip-path:url(#XMLID_5_);fill:#00AB81;stroke:#1C19A8;stroke-width:2.82;stroke-linejoin:round;stroke-miterlimit:10;}
	.st42{clip-path:url(#XMLID_5_);fill:#FFDE00;stroke:#1C19A8;stroke-width:2.82;stroke-linejoin:round;stroke-miterlimit:10;}
	.st43{fill:url(#);stroke:#1C19A8;stroke-width:2.82;stroke-miterlimit:10;}
	.st44{clip-path:url(#SVGID_2_);}
	.st45{clip-path:url(#SVGID_4_);}
	.st46{fill:#FB715D;stroke:#1D1D1B;stroke-width:2.8125;stroke-linejoin:round;stroke-miterlimit:10;}
	
		.st47{fill-rule:evenodd;clip-rule:evenodd;fill:#00AB81;stroke:#1C19A8;stroke-width:2.8125;stroke-linejoin:round;stroke-miterlimit:10;}
	.st48{fill:#1C19A8;stroke:#1C19A8;stroke-width:2.8125;stroke-miterlimit:10;}
	.st49{fill:none;stroke:#1C19A8;stroke-width:2.8125;stroke-miterlimit:10;}
	.st50{fill:#FB715D;stroke:#1C19A8;stroke-width:2.8125;stroke-linejoin:round;stroke-miterlimit:10;}
	.st51{fill:#00AB81;stroke:#1C19A8;stroke-width:2.8125;stroke-linejoin:round;stroke-miterlimit:10;}
	
		.st52{fill-rule:evenodd;clip-rule:evenodd;fill:#FB715D;stroke:#1C19A8;stroke-width:2.8125;stroke-linejoin:round;stroke-miterlimit:10;}
	.st53{fill:#FFDE00;stroke:#1C19A8;stroke-width:2.8125;stroke-miterlimit:10;}
	.st54{fill:#FFDE00;stroke:#1C19A8;stroke-width:2.8125;stroke-linejoin:round;stroke-miterlimit:10;}
	.st55{fill:#1C19A8;stroke:#1C19A8;stroke-width:2.8125;stroke-linejoin:round;stroke-miterlimit:10;}
	
		.st56{fill-rule:evenodd;clip-rule:evenodd;fill:#FFDE00;stroke:#1C19A8;stroke-width:2.8125;stroke-linejoin:round;stroke-miterlimit:10;}
	.st57{fill:#00AB81;stroke:#1C19A8;stroke-width:2.8125;stroke-miterlimit:10;}
	.st58{fill:#1C19A8;stroke:#1C19A8;stroke-width:0.1875;stroke-miterlimit:10;}
	.st59{fill:#1C19A8;stroke:#1C19A8;stroke-width:0.75;stroke-linecap:round;stroke-linejoin:round;stroke-miterlimit:10;}
	.st60{fill:none;stroke:#1C19A8;stroke-width:2.8125;stroke-linejoin:round;stroke-miterlimit:10;}
	.st61{fill:#FB715D;stroke:#1C19A8;stroke-width:2.8125;stroke-miterlimit:10;}
	.st62{fill:#F6F6F6;stroke:#1C19A8;stroke-width:2.8125;stroke-linejoin:round;stroke-miterlimit:10;}
	.st63{fill:#FFFFFF;stroke:#1C19A8;stroke-width:2.8125;stroke-miterlimit:10;}
	.st64{fill:none;stroke:#1C19A8;stroke-width:2.8125;stroke-linecap:round;stroke-linejoin:round;stroke-miterlimit:10;}
	.st65{fill:url(#);stroke:#1C19A8;stroke-width:2.8125;stroke-miterlimit:10;}
	.st66{fill:#FFFFFF;stroke:#1C19A8;stroke-width:2.8125;stroke-linecap:round;stroke-linejoin:round;stroke-miterlimit:10;}
	.st67{fill:#FFFFFF;stroke:#1C19A8;stroke-width:2.8125;stroke-linejoin:round;stroke-miterlimit:10;}
	.st68{fill:none;stroke:#1C19A8;stroke-width:8.4375;stroke-linejoin:round;stroke-miterlimit:10;}
	.st69{fill:#00AB81;stroke:#1C19A8;stroke-width:2.8125;stroke-linecap:round;stroke-linejoin:round;stroke-miterlimit:10;}
	.st70{fill:#FFDE00;stroke:#1C19A8;stroke-width:2.8125;stroke-linejoin:bevel;stroke-miterlimit:10;}
	.st71{fill:#1D1D1B;stroke:#1C19A8;stroke-width:2.8125;stroke-linejoin:round;stroke-miterlimit:10;}
	.st72{fill:#00AB81;stroke:#1C19A8;stroke-width:2.7823;stroke-linejoin:round;stroke-miterlimit:10;}
	.st73{fill:url(#);stroke:#1C19A8;stroke-width:3.75;stroke-miterlimit:10;}
	.st74{fill:none;stroke:#1C19A8;stroke-width:2.8152;stroke-linejoin:round;stroke-miterlimit:10;}
	.st75{fill:none;stroke:#1C19A8;stroke-width:2.9816;stroke-linejoin:round;stroke-miterlimit:10;}
	.st76{fill:#FB715D;stroke:#1C19A8;stroke-width:2.4615;stroke-linejoin:round;stroke-miterlimit:10;}
	.st77{fill:#FB715D;stroke:#1C19A8;stroke-width:2.8108;stroke-linejoin:round;stroke-miterlimit:10;}
	.st78{fill-rule:evenodd;clip-rule:evenodd;fill:#1C19A8;stroke:#1C19A8;stroke-width:2.8125;stroke-miterlimit:10;}
	.st79{fill:#1C19A8;stroke:#1C19A8;stroke-width:1.875;stroke-miterlimit:10;}
	
		.st80{fill-rule:evenodd;clip-rule:evenodd;fill:#FFDE00;stroke:#1C19A8;stroke-width:2.7823;stroke-linejoin:round;stroke-miterlimit:10;}
	.st81{fill:#FB715D;stroke:#1C19A8;stroke-width:2.7823;stroke-linejoin:round;stroke-miterlimit:10;}
	.st82{fill:#1D1D1B;stroke:#1C19A8;stroke-width:2.8125;stroke-miterlimit:10;}
	.st83{fill:#1D1D1B;stroke:#1C19A8;stroke-width:2.8125;stroke-linecap:round;stroke-linejoin:round;stroke-miterlimit:10;}
	.st84{fill:#FFDE00;stroke:#1C19A8;stroke-width:2.8125;stroke-linecap:round;stroke-linejoin:round;stroke-miterlimit:10;}
	.st85{fill:#1C19A8;stroke:#1D1D1B;stroke-width:2.8125;stroke-miterlimit:10;}
	.st86{fill:#FFDE00;stroke:#1C19A8;stroke-width:2.7823;stroke-linejoin:round;stroke-miterlimit:10;}
	.st87{fill:none;stroke:#1C19A8;stroke-width:2.7823;stroke-linejoin:round;stroke-miterlimit:10;}
	.st88{fill:none;stroke:#1C19A8;stroke-width:2.7825;stroke-linecap:round;stroke-linejoin:round;stroke-miterlimit:10;}
	.st89{fill:none;stroke:#1C19A8;stroke-width:3.75;stroke-miterlimit:10;}
	
		.st90{fill-rule:evenodd;clip-rule:evenodd;fill:#00AB81;stroke:#1C19A8;stroke-width:2.7823;stroke-linejoin:round;stroke-miterlimit:10;}
	.st91{fill:#1C19A8;stroke:#1C19A8;stroke-width:3.75;stroke-miterlimit:10;}
	.st92{fill:#1C19A8;stroke:#1C19A8;stroke-width:2.8125;stroke-linecap:round;stroke-linejoin:round;stroke-miterlimit:10;}
	.st93{fill:#1C19A8;stroke:#1C19A8;stroke-width:0.9375;stroke-miterlimit:10;}
	.st94{fill:#1D1D1B;stroke:#1C19A8;stroke-width:3.75;stroke-miterlimit:10;}
	
		.st95{fill-rule:evenodd;clip-rule:evenodd;fill:#FB715D;stroke:#1C19A8;stroke-width:2.7823;stroke-linejoin:round;stroke-miterlimit:10;}
	.st96{fill:#1C19A8;stroke:#1C19A8;stroke-width:2.8108;stroke-linejoin:round;stroke-miterlimit:10;}
	.st97{fill:#FFDE00;stroke:#1C19A8;stroke-width:2.8108;stroke-linejoin:round;stroke-miterlimit:10;}
	.st98{fill-rule:evenodd;clip-rule:evenodd;fill:none;stroke:#1C19A8;stroke-width:3.75;stroke-miterlimit:10;}
	.st99{fill:#FFFFFF;stroke:#1D1D1B;stroke-width:2.82;stroke-miterlimit:10;}
</style>
<g id="Layer_1">
	<rect x="333.3" y="201.6" class="st0" width="82.2" height="267.6"></rect>
	<rect x="93.2" y="321.8" class="st1" width="237.3" height="138.1"></rect>
	
		<rect x="366.2" y="332.4" transform="matrix(-1.836970e-16 1 -1 -1.836970e-16 857.7805 -175.5883)" class="st6" width="301" height="17.4"></rect>
	
		<rect x="-65" y="332.4" transform="matrix(-1.836970e-16 1 -1 -1.836970e-16 426.6017 255.5905)" class="st6" width="301" height="17.4"></rect>
	<rect x="76.8" y="127.9" class="st6" width="448.6" height="84.1"></rect>
	<rect x="67.1" y="473.6" class="st3" width="471.5" height="18.1"></rect>
	<rect x="411.3" y="233" class="st3" width="10.5" height="240.5"></rect>
	<rect x="94.2" y="459.9" class="st6" width="413.8" height="13.6"></rect>
	<rect x="94.2" y="212" class="st3" width="413.8" height="21"></rect>
	<g>
		<path class="st32" d="M421.8,212v70.7H508V212H421.8z"></path>
		<rect x="430" y="222" class="st8" width="69.8" height="50.7"></rect>
	</g>
	<g>
		<path class="st32" d="M421.8,282.7v176.5H508V282.7H421.8z"></path>
		<rect x="468.1" y="291.4" class="st8" width="31.7" height="87.6"></rect>
		<rect x="430" y="291.4" class="st8" width="31.7" height="87.6"></rect>
		<rect x="468.1" y="404.1" class="st4" width="31.7" height="43.8"></rect>
		<rect x="430" y="404.1" class="st4" width="31.7" height="43.8"></rect>
		<rect x="443.5" y="386.7" class="st12" width="42.8" height="8.8"></rect>
	</g>
	<g>
		<defs>
			<rect id="SVGID_3_" x="358.6" y="325" width="52.5" height="134.7"></rect>
		</defs>
		<clipPath id="SVGID_2_">
			<use xlink:href="#SVGID_3_" style="overflow:visible;"></use>
		</clipPath>
		<g class="st44">
			<g>
				<path class="st1" d="M408.1,395.7c0.1,0,0.2,0.2,0.2,0.3v1.7c0,0.2-0.1,0.3-0.3,0.3H408c0,0.2,0.1,0.3,0.2,0.5      c0.2,0.2,0.4,0.4,0.7,0.6c0.3,0.2,0.6,0.4,0.8,0.8s0.4,0.8,0.4,1.4v0v7.7c0,0.8-0.5,1.5-1.1,1.5H403c-0.6,0-1.1-0.7-1.1-1.5      v-7.7v0c0-0.6,0.2-1,0.4-1.4c0.2-0.3,0.5-0.6,0.8-0.8c0.3-0.2,0.5-0.4,0.7-0.6c0.1-0.1,0.2-0.3,0.2-0.5h-0.1      c-0.1,0-0.3-0.2-0.3-0.3l0-1.7c0-0.1,0-0.2,0.1-0.2s0.1-0.1,0.2-0.1L408.1,395.7C408.1,395.7,408.1,395.7,408.1,395.7      L408.1,395.7z"></path>
				<path class="st2" d="M420.7,395.7c0.1,0,0.2,0.2,0.2,0.3v1.7c0,0.2-0.1,0.3-0.3,0.3h-0.1c0,0.2,0.1,0.3,0.2,0.5      c0.2,0.2,0.4,0.4,0.7,0.6c0.3,0.2,0.6,0.4,0.8,0.8c0.2,0.3,0.4,0.8,0.4,1.4v0v7.7c0,0.8-0.5,1.5-1.1,1.5h-6.1      c-0.6,0-1.1-0.7-1.1-1.5v-7.7v0c0-0.6,0.2-1,0.4-1.4c0.2-0.3,0.5-0.6,0.8-0.8c0.3-0.2,0.5-0.4,0.7-0.6c0.1-0.1,0.2-0.3,0.2-0.5      h-0.1c-0.1,0-0.3-0.2-0.3-0.3l0-1.7c0-0.1,0-0.2,0.1-0.2s0.1-0.1,0.2-0.1L420.7,395.7C420.6,395.7,420.6,395.7,420.7,395.7      L420.7,395.7z"></path>
				<path class="st1" d="M395.9,395.7c0.1,0,0.2,0.2,0.2,0.3v1.7c0,0.2-0.1,0.3-0.3,0.3h-0.1c0,0.2,0.1,0.3,0.2,0.5      c0.2,0.2,0.4,0.4,0.7,0.6c0.3,0.2,0.6,0.4,0.8,0.8s0.4,0.8,0.4,1.4v0v7.7c0,0.8-0.5,1.5-1.1,1.5h-6.1c-0.6,0-1.1-0.7-1.1-1.5      v-7.7v0c0-0.6,0.2-1,0.4-1.4c0.2-0.3,0.5-0.6,0.8-0.8c0.3-0.2,0.5-0.4,0.7-0.6c0.1-0.1,0.2-0.3,0.2-0.5h-0.1      c-0.1,0-0.3-0.2-0.3-0.3l0-1.7c0-0.1,0-0.2,0.1-0.2c0-0.1,0.1-0.1,0.2-0.1L395.9,395.7C395.9,395.7,395.9,395.7,395.9,395.7      L395.9,395.7z"></path>
				<path class="st2" d="M399.1,321c0.1,0,0.2,0.2,0.2,0.3v1.7c0,0.2-0.1,0.3-0.3,0.3H399c0,0.2,0.1,0.3,0.2,0.5      c0.2,0.2,0.4,0.4,0.7,0.6c0.3,0.2,0.6,0.4,0.8,0.8c0.2,0.3,0.4,0.8,0.4,1.4v0v7.7c0,0.8-0.5,1.5-1.1,1.5H394      c-0.6,0-1.1-0.7-1.1-1.5v-7.7v0c0-0.6,0.2-1,0.4-1.4c0.2-0.3,0.5-0.6,0.8-0.8c0.3-0.2,0.5-0.4,0.7-0.6c0.1-0.1,0.2-0.3,0.2-0.5      h-0.1c-0.1,0-0.3-0.2-0.3-0.3l0-1.7c0-0.1,0-0.2,0.1-0.2c0-0.1,0.1-0.1,0.2-0.1L399.1,321C399.1,321,399.1,321,399.1,321      L399.1,321z"></path>
				<path class="st3" d="M401.8,435.4h-5.8l0-9.9l1.5-4.6l0-3.8h2.8l0,3.8l1.5,4.6L401.8,435.4z"></path>
				
					<rect x="368.4" y="323.5" transform="matrix(-1 -4.507917e-11 4.507917e-11 -1 752.448 659.3173)" class="st4" width="15.7" height="12.2"></rect>
				
					<rect x="368.4" y="420.1" transform="matrix(-1 -4.508139e-11 4.508139e-11 -1 751.8016 852.3922)" class="st3" width="15.1" height="12.2"></rect>
				
					<rect x="389.5" y="377.4" transform="matrix(-1 -4.519464e-11 4.519464e-11 -1 794.7425 767.0264)" class="st3" width="15.7" height="12.2"></rect>
				<line class="st5" x1="364.9" y1="335.2" x2="364.9" y2="459.8"></line>
				<path class="st6" d="M406.2,365.1h-5.8l0-9.9l1.5-4.6l0-3.8h2.8l0,3.8l1.5,4.6L406.2,365.1z"></path>
				<path class="st6" d="M395.8,365.1h-5.8l0-9.9l1.5-4.6l0-3.8h2.8l0,3.8l1.5,4.6L395.8,365.1z"></path>
				<path class="st6" d="M427.2,365.1h-5.8l0-9.9l1.5-4.6l0-3.8h2.8l0,3.8l1.5,4.6L427.2,365.1z"></path>
				<path class="st6" d="M416.8,365.1h-5.8l0-9.9l1.5-4.6l0-3.8h2.8l0,3.8l1.5,4.6L416.8,365.1z"></path>
				
					<rect x="364.9" y="432.7" transform="matrix(-1 -4.488466e-11 4.488466e-11 -1 798.4661 869.1895)" class="st7" width="68.6" height="3.9"></rect>
				
					<rect x="365" y="410.1" transform="matrix(-1 -4.480828e-11 4.480828e-11 -1 798.4423 824.1656)" class="st7" width="68.5" height="3.9"></rect>
				
					<rect x="365" y="387.6" transform="matrix(-1 -4.490109e-11 4.490109e-11 -1 798.4916 779.1417)" class="st7" width="68.6" height="3.9"></rect>
				
					<rect x="364.9" y="365.1" transform="matrix(-1 -4.489354e-11 4.489354e-11 -1 798.4797 734.1179)" class="st7" width="68.6" height="3.9"></rect>
				
					<rect x="364.6" y="335.2" transform="matrix(-1 -4.500101e-11 4.500101e-11 -1 797.5972 674.3546)" class="st7" width="68.4" height="3.9"></rect>
			</g>
		</g>
	</g>
	<g>
		<g>
			<path class="st13" d="M198.2,162.2c0-4.7,0.8-8.4,2.4-10.8c1.6-2.5,4.1-3.7,7.4-3.7c1.7,0,3.2,0.3,4.5,1c1.3,0.7,2.3,1.7,3.1,2.9     c0.8,1.3,1.4,2.8,1.8,4.6c0.4,1.8,0.6,3.8,0.6,6c0,4.7-0.8,8.4-2.5,10.8c-1.7,2.5-4.1,3.7-7.4,3.7c-1.8,0-3.3-0.3-4.5-1     c-1.2-0.7-2.3-1.7-3.1-2.9c-0.8-1.3-1.4-2.8-1.8-4.6C198.4,166.4,198.2,164.4,198.2,162.2z M203.5,162.2c0,1.4,0.1,2.7,0.2,3.9     c0.2,1.2,0.4,2.3,0.8,3.1c0.4,0.9,0.8,1.6,1.4,2.1c0.6,0.5,1.3,0.8,2.1,0.8c1.5,0,2.7-0.8,3.5-2.4c0.8-1.6,1.2-4.1,1.2-7.6     c0-1.4-0.1-2.6-0.2-3.9c-0.2-1.2-0.4-2.3-0.8-3.2c-0.4-0.9-0.8-1.6-1.4-2.1c-0.6-0.5-1.3-0.8-2.2-0.8     C205,152.2,203.5,155.5,203.5,162.2z"></path>
			<path class="st13" d="M230.3,160.9c-0.6-0.2-1.2-0.4-1.8-0.4c-0.7,0-1.3,0.2-1.9,0.6c-0.5,0.4-0.9,1-1.1,1.7v13.4h-4.8v-20h3.6     l0.6,2.4h0.2c0.3-0.9,0.8-1.6,1.5-2.1c0.7-0.5,1.4-0.7,2.3-0.7c0.6,0,1.3,0.1,1.9,0.4L230.3,160.9z"></path>
			<path class="st13" d="M246.9,176.2c0,2.9-0.7,5-2,6.4c-1.3,1.4-3.2,2.1-5.6,2.1c-1.7,0-2.9-0.1-3.9-0.4c-0.9-0.3-1.7-0.5-2.2-0.8     l1-4c0.6,0.2,1.2,0.5,1.9,0.7c0.7,0.2,1.5,0.3,2.4,0.3c1.4,0,2.3-0.4,2.8-1.1c0.5-0.7,0.8-1.8,0.8-3.3v-1.1h-0.1     c-0.4,0.5-0.9,0.9-1.5,1.2c-0.6,0.3-1.4,0.4-2.4,0.4c-2.1,0-3.7-0.8-4.7-2.4c-1.1-1.6-1.6-4.1-1.6-7.5c0-3.7,0.7-6.4,2.2-8.2     c1.5-1.8,3.5-2.6,6.2-2.6c1.4,0,2.7,0.1,3.9,0.3c1.1,0.2,2.1,0.5,2.8,0.8V176.2z M239.5,172.4c0.7,0,1.3-0.2,1.7-0.5     s0.7-0.8,0.9-1.5v-10c-0.3-0.1-0.6-0.2-1-0.3c-0.4-0.1-0.8-0.1-1.3-0.1c-1,0-1.8,0.5-2.3,1.4c-0.5,1-0.8,2.6-0.8,5     C236.8,170.4,237.7,172.4,239.5,172.4z"></path>
			<path class="st13" d="M250.3,157.4c0.8-0.5,1.8-0.9,3-1.2c1.2-0.3,2.6-0.4,4.1-0.4c2.3,0,3.8,0.6,4.7,1.8c0.9,1.2,1.3,2.8,1.3,5     c0,1.3,0,2.5-0.1,3.7c-0.1,1.2-0.1,2.4-0.1,3.6c0,1.2,0,2.3,0.1,3.4c0.1,1.1,0.2,2.1,0.5,3.1H260l-0.8-2.4h-0.2     c-0.4,0.8-1,1.4-1.8,1.9c-0.8,0.5-1.7,0.8-2.9,0.8c-1.6,0-2.8-0.5-3.7-1.6c-0.9-1.1-1.4-2.5-1.4-4.2c0-2.4,0.9-4.1,2.6-5.1     c1.7-1,4-1.4,6.9-1.3c0.1-1.5,0-2.7-0.3-3.4c-0.3-0.7-1-1-2.1-1c-0.8,0-1.6,0.1-2.5,0.3c-0.9,0.2-1.6,0.5-2.3,0.8L250.3,157.4z      M256.1,172.4c0.7,0,1.3-0.2,1.8-0.5c0.5-0.4,0.8-0.8,1-1.2v-3.3c-0.6-0.1-1.2-0.1-1.8,0s-1.1,0.2-1.5,0.4     c-0.4,0.2-0.8,0.5-1,0.8c-0.3,0.4-0.4,0.8-0.4,1.4c0,0.8,0.2,1.5,0.5,1.9C255,172.1,255.5,172.4,256.1,172.4z"></path>
			<path class="st13" d="M276.7,176.2V164c0-1.5-0.2-2.5-0.5-3.1c-0.3-0.6-0.9-0.9-1.8-0.9c-0.7,0-1.3,0.2-1.8,0.6     c-0.5,0.4-0.9,1-1.1,1.6v13.9h-4.8v-20h3.8l0.6,2.3h0.1c0.5-0.8,1.1-1.4,2-2c0.8-0.5,1.9-0.8,3.2-0.8c0.8,0,1.5,0.1,2.1,0.4     c0.6,0.2,1.2,0.6,1.6,1.2c0.4,0.5,0.7,1.3,1,2.2c0.2,0.9,0.3,2.1,0.3,3.4v13.3H276.7z"></path>
			<path class="st13" d="M284.7,150.5c0-0.8,0.3-1.5,0.8-2c0.5-0.5,1.2-0.8,2.2-0.8c0.9,0,1.7,0.3,2.2,0.8c0.6,0.5,0.8,1.2,0.8,2     c0,0.8-0.3,1.5-0.8,2c-0.6,0.5-1.3,0.7-2.2,0.7c-0.9,0-1.7-0.2-2.2-0.7C284.9,152,284.7,151.3,284.7,150.5z M285.2,156.2h4.8v20     h-4.8V156.2z"></path>
			<path class="st13" d="M305.6,175.1c-0.7,0.5-1.5,0.9-2.4,1.2c-0.9,0.3-1.9,0.4-2.8,0.4c-1.4,0-2.5-0.2-3.4-0.7     c-0.9-0.5-1.7-1.2-2.3-2.1c-0.6-0.9-1-2-1.3-3.3c-0.3-1.3-0.4-2.7-0.4-4.3c0-3.5,0.6-6.1,1.9-7.9c1.3-1.8,3.1-2.6,5.5-2.6     c1.2,0,2.2,0.1,2.9,0.3c0.8,0.2,1.4,0.5,2,0.8l-1.1,4c-0.5-0.2-0.9-0.4-1.4-0.5c-0.4-0.1-1-0.2-1.6-0.2c-1.1,0-2,0.5-2.5,1.5     c-0.6,1-0.8,2.5-0.8,4.7c0,1.8,0.3,3.3,0.9,4.4c0.6,1.1,1.5,1.7,2.7,1.7c0.7,0,1.2-0.1,1.7-0.3c0.5-0.2,0.9-0.4,1.3-0.7     L305.6,175.1z"></path>
			<path class="st13" d="M314.8,167.3l0.7,4.3h0.1l0.8-4.4l5.2-19.1h3.1l-8.5,28.4h-1.6l-8.6-28.4h3.3L314.8,167.3z"></path>
			<path class="st13" d="M326.9,150.1c0-0.6,0.2-1.2,0.5-1.6c0.4-0.4,0.8-0.6,1.4-0.6c0.6,0,1.1,0.2,1.5,0.6     c0.4,0.4,0.6,0.9,0.6,1.6c0,0.6-0.2,1.1-0.6,1.5c-0.4,0.4-0.9,0.5-1.5,0.5c-0.6,0-1.1-0.2-1.4-0.6     C327.1,151.2,326.9,150.7,326.9,150.1z M327.4,156.2h2.9v20h-2.9V156.2z"></path>
			<path class="st13" d="M338.7,171.4c0,0.9,0.1,1.6,0.4,2c0.3,0.4,0.6,0.6,1.1,0.6c0.6,0,1.2-0.1,2-0.4l0.3,2.3     c-0.3,0.2-0.8,0.4-1.5,0.5c-0.6,0.1-1.2,0.2-1.7,0.2c-1,0-1.8-0.3-2.5-0.9c-0.6-0.6-0.9-1.7-0.9-3.3v-24.2h2.9V171.4z"></path>
			<path class="st13" d="M348,171.4c0,0.9,0.1,1.6,0.4,2c0.3,0.4,0.6,0.6,1.1,0.6c0.6,0,1.2-0.1,2-0.4l0.3,2.3     c-0.3,0.2-0.8,0.4-1.5,0.5c-0.6,0.1-1.2,0.2-1.7,0.2c-1,0-1.8-0.3-2.5-0.9c-0.6-0.6-0.9-1.7-0.9-3.3v-24.2h2.9V171.4z"></path>
			<path class="st13" d="M354.1,157.4c0.8-0.5,1.7-0.9,2.8-1.1c1.1-0.3,2.3-0.4,3.5-0.4c1.1,0,2,0.2,2.7,0.5     c0.7,0.3,1.2,0.8,1.6,1.4c0.4,0.6,0.6,1.2,0.8,2c0.1,0.7,0.2,1.5,0.2,2.3c0,1.6,0,3.2-0.1,4.7c-0.1,1.5-0.1,3-0.1,4.3     c0,1,0,2,0.1,2.8c0.1,0.9,0.2,1.7,0.4,2.5h-2.3l-0.7-2.4h-0.2c-0.4,0.7-1,1.3-1.7,1.8c-0.8,0.5-1.8,0.8-3.1,0.8     c-1.4,0-2.6-0.5-3.5-1.5c-0.9-1-1.4-2.4-1.4-4.1c0-1.1,0.2-2.1,0.6-2.9c0.4-0.8,0.9-1.4,1.6-1.9c0.7-0.5,1.5-0.8,2.5-1     c1-0.2,2-0.3,3.2-0.3c0.3,0,0.5,0,0.8,0c0.3,0,0.5,0,0.8,0c0.1-0.8,0.1-1.6,0.1-2.2c0-1.5-0.2-2.6-0.7-3.2     c-0.4-0.6-1.3-0.9-2.5-0.9c-0.7,0-1.5,0.1-2.4,0.3c-0.9,0.2-1.6,0.5-2.2,0.9L354.1,157.4z M362.7,167c-0.3,0-0.5,0-0.8-0.1     c-0.3,0-0.5,0-0.8,0c-0.6,0-1.3,0.1-1.9,0.2c-0.6,0.1-1.1,0.3-1.6,0.6c-0.5,0.3-0.8,0.6-1.1,1.1s-0.4,1-0.4,1.7     c0,1.1,0.3,1.9,0.8,2.5c0.5,0.6,1.2,0.9,2,0.9c1.1,0,2-0.3,2.6-0.8c0.6-0.5,1-1.1,1.3-1.8V167z"></path>
			<path class="st13" d="M382.9,177.1c0,2.6-0.6,4.5-1.7,5.7c-1.1,1.2-2.8,1.8-5,1.8c-1.3,0-2.4-0.1-3.3-0.3     c-0.9-0.2-1.5-0.5-2.1-0.8l0.8-2.5c0.5,0.2,1.1,0.5,1.8,0.7c0.6,0.2,1.4,0.3,2.4,0.3c1.6,0,2.7-0.5,3.3-1.4     c0.6-0.9,0.9-2.4,0.9-4.6v-1.5h-0.1c-0.4,0.6-1,1.1-1.6,1.4c-0.7,0.3-1.5,0.5-2.6,0.5c-2.2,0-3.7-0.8-4.8-2.5     c-1-1.7-1.5-4.3-1.5-7.9c0-3.4,0.7-6,2-7.8c1.3-1.8,3.3-2.6,5.9-2.6c1.3,0,2.3,0.1,3.2,0.4c0.9,0.2,1.7,0.5,2.4,0.8V177.1z      M380,159c-0.8-0.4-1.8-0.6-3.1-0.6c-1.4,0-2.5,0.6-3.3,1.9c-0.8,1.2-1.2,3.2-1.2,5.9c0,1.1,0.1,2.2,0.2,3.1     c0.1,0.9,0.4,1.8,0.7,2.5c0.3,0.7,0.7,1.3,1.2,1.6c0.5,0.4,1.1,0.6,1.8,0.6c1,0,1.8-0.3,2.4-0.8c0.6-0.5,1-1.3,1.3-2.4V159z"></path>
			<path class="st13" d="M399.5,174.8c-0.6,0.6-1.5,1-2.4,1.4c-1,0.3-2,0.5-3.1,0.5c-1.3,0-2.3-0.2-3.3-0.7     c-0.9-0.5-1.7-1.2-2.3-2.1c-0.6-0.9-1-2-1.3-3.3c-0.3-1.3-0.4-2.7-0.4-4.3c0-3.4,0.6-6,1.9-7.8c1.3-1.8,3-2.7,5.3-2.7     c0.7,0,1.5,0.1,2.2,0.3c0.7,0.2,1.4,0.6,2,1.1c0.6,0.6,1.1,1.3,1.4,2.4c0.4,1,0.5,2.3,0.5,4c0,0.5,0,0.9-0.1,1.5     c0,0.5-0.1,1.1-0.1,1.6h-10.2c0,1.1,0.1,2.2,0.3,3.1c0.2,0.9,0.5,1.7,0.9,2.4c0.4,0.7,0.9,1.2,1.5,1.5c0.6,0.4,1.4,0.5,2.3,0.5     c0.7,0,1.4-0.1,2.1-0.4c0.7-0.3,1.2-0.6,1.6-1L399.5,174.8z M397.3,164.1c0.1-2-0.2-3.5-0.8-4.4c-0.6-0.9-1.5-1.4-2.5-1.4     c-1.2,0-2.2,0.5-2.9,1.4c-0.7,0.9-1.1,2.4-1.3,4.4H397.3z"></path>
		</g>
		<g>
			<path class="st13" d="M277.1,188.1h2l3,5.6l3-5.6h2v9.7h-2v-6.3l-2.5,4.6h-1.2l-2.5-4.6v6.3h-1.9V188.1z"></path>
			<path class="st13" d="M295.7,195.6h-3.5l-0.8,2.2h-2l3.6-9.7h1.9l3.6,9.7h-2.1L295.7,195.6z M295.1,193.9l-1.2-3.4l-1.2,3.4     H295.1z"></path>
			<path class="st13" d="M306.7,197.8l-2.4-3.4h-1.4v3.4h-1.9v-9.7h4.1c2.1,0,3.5,1.2,3.5,3.2c0,1.5-0.8,2.5-2,3l2.5,3.6H306.7z      M302.9,192.7h2.2c1,0,1.6-0.6,1.6-1.4c0-0.8-0.5-1.4-1.6-1.4h-2.2V192.7z"></path>
			<path class="st13" d="M317.6,197.8l-3.1-4.2l-1,1.1v3.1h-1.9v-9.7h1.9v4.1l3.8-4.1h2.5l-3.9,4.1l4,5.6H317.6z"></path>
			<path class="st13" d="M322.3,188.1h7v1.8h-5.1v2h4.4v1.8h-4.4v2.3h5.2v1.8h-7.2V188.1z"></path>
			<path class="st13" d="M334.4,189.9h-2.8v-1.8h7.6v1.8h-2.8v7.9h-1.9V189.9z"></path>
		</g>
		<circle class="st13" cx="264.6" cy="193.5" r="1.6"></circle>
		<circle class="st13" cx="350.9" cy="193.5" r="1.6"></circle>
	</g>
	<line class="st14" x1="544.4" y1="559.1" x2="543.6" y2="559.6"></line>
</g>
<g id="Layer_2">
	<g>
		<g>
			<path class="st3" d="M180.4,387.2L180,387c-4.3-2.3-5.9-7.7-3.5-12v0l0.4,0.2C181.1,377.6,182.7,382.9,180.4,387.2L180.4,387.2z"></path>
			<path class="st6" d="M180.9,384.9c0,0,1.8-2.9,4.3-4.3"></path>
			<path class="st3" d="M191.1,387.5l0.5-0.1c4.8-0.8,8.1-5.4,7.2-10.2l0,0l-0.5,0.1C193.5,378.1,190.3,382.7,191.1,387.5     L191.1,387.5z"></path>
			<path class="st6" d="M191.4,385.1c0,0-0.8-3.3-2.7-5.5"></path>
			<path class="st3" d="M206.4,396.4l-0.4-0.2c-4.3-2.3-5.9-7.7-3.5-12l0,0l0.4,0.2C207.2,386.7,208.8,392.1,206.4,396.4     L206.4,396.4z"></path>
			<circle class="st3" cx="180.3" cy="390.5" r="5.8"></circle>
			<circle class="st3" cx="191.3" cy="391.1" r="5.8"></circle>
			<circle class="st3" cx="203.8" cy="398.5" r="5.8"></circle>
			<circle class="st3" cx="173.3" cy="399.2" r="5.8"></circle>
			<circle class="st3" cx="183.1" cy="399.6" r="5.8"></circle>
			<circle class="st3" cx="194.8" cy="399.6" r="5.8"></circle>
			<rect x="168.6" y="407.4" class="st4" width="38.9" height="17.2"></rect>
			<rect x="163.9" y="423.7" class="st4" width="47" height="4.8"></rect>
			<rect x="163.9" y="402.6" class="st4" width="47" height="4.8"></rect>
			<line class="st4" x1="197.6" y1="407.4" x2="197.6" y2="423.7"></line>
			<line class="st4" x1="187.4" y1="407.4" x2="187.4" y2="423.7"></line>
			<line class="st4" x1="177.3" y1="407.4" x2="177.3" y2="423.7"></line>
			<path class="st6" d="M206.9,394c0,0,1.8-2.9,4.3-4.3"></path>
		</g>
	</g>
	<g>
		<rect x="109.5" y="407.9" class="st3" width="38.9" height="17.2"></rect>
		<g>
			<g>
				<path class="st3" d="M134.1,389.6l-0.1-0.4c-1.5-4.7,1.1-9.6,5.8-11.1h0l0.1,0.4C141.4,383.1,138.8,388.1,134.1,389.6      L134.1,389.6z"></path>
				<path class="st6" d="M136.1,388.2c0,0,3.3-0.8,6.1-0.1"></path>
				<path class="st6" d="M133.1,397l3.4-5.5c0.7-1.2,0.6-2.7-0.5-3.7v0c-1-1-2.6-1.1-3.8-0.3l-5.4,3.9c-1,0.5-1.9,1.3-2.2,2.9      c-0.3,1.6,0,3.2,1.2,4.3c1.8,1.7,4.6,1.6,6.3-0.1C132.5,398.1,132.9,397.5,133.1,397z"></path>
			</g>
			<g>
				<path class="st3" d="M144.3,393.2l0.1-0.5c0.6-4.8,5.1-8.2,9.9-7.6h0l-0.1,0.5C153.6,390.4,149.1,393.8,144.3,393.2L144.3,393.2      z"></path>
				<path class="st6" d="M146.6,392.8c0,0,3.3,0.7,5.6,2.5"></path>
				<path class="st6" d="M140.2,399.4l5.4-3.5c1.2-0.8,1.7-2.2,1.2-3.6v0c-0.5-1.3-1.9-2.1-3.3-1.9l-6.6,1.3c-1.1,0-2.3,0.4-3.2,1.7      c-1,1.3-1.4,2.9-0.8,4.4c0.9,2.3,3.5,3.5,5.8,2.6C139.2,400.2,139.7,399.8,140.2,399.4z"></path>
			</g>
			<g>
				<path class="st3" d="M118.2,392.4l-0.4-0.3c-4.1-2.7-5.2-8.2-2.5-12.3l0,0l0.4,0.3C119.8,382.9,120.9,388.4,118.2,392.4      L118.2,392.4z"></path>
				<path class="st6" d="M118.9,390.1c0,0,2.1-2.7,4.7-3.9"></path>
				<path class="st6" d="M122,398.9l-0.8-6.4c-0.2-1.4-1.3-2.5-2.7-2.6h0c-1.4-0.1-2.8,0.8-3.1,2.2l-1.7,6.5c-0.5,1-0.6,2.2,0.1,3.6      c0.7,1.4,2,2.5,3.6,2.6c2.5,0.2,4.6-1.6,4.8-4.1C122.3,400,122.2,399.4,122,398.9z"></path>
			</g>
			<g>
				<path class="st3" d="M145.8,401.6l0.2-0.4c2.4-4.3,7.8-5.8,12-3.4l0,0l-0.2,0.4C155.5,402.4,150.1,403.9,145.8,401.6      L145.8,401.6z"></path>
				<path class="st6" d="M148.1,402.1c0,0,2.9,1.8,4.3,4.4"></path>
				<path class="st6" d="M139.7,405.9l6.3-1.3c1.4-0.3,2.4-1.5,2.4-2.9l0,0c0-1.4-1-2.7-2.4-2.9l-6.6-1.2c-1.1-0.4-2.2-0.5-3.6,0.4      c-1.4,0.8-2.3,2.2-2.4,3.8c0,2.5,2,4.5,4.5,4.5C138.5,406.2,139.1,406.1,139.7,405.9z"></path>
			</g>
			<g>
				<path class="st3" d="M107.5,396l-0.5,0.1c-4.8,0.7-9.3-2.6-10.1-7.4v0l0.5-0.1C102.2,387.9,106.8,391.2,107.5,396L107.5,396z"></path>
				<path class="st6" d="M106.5,393.8c0,0-0.3-3.4,0.9-6.1"></path>
				<path class="st6" d="M114.6,398.2l-4.9-4.2c-1.1-0.9-2.6-1-3.7-0.1h0c-1.1,0.9-1.5,2.4-0.8,3.7l3,6c0.4,1.1,1,2.1,2.5,2.6      c1.5,0.6,3.2,0.5,4.5-0.5c2-1.5,2.3-4.3,0.8-6.3C115.6,398.9,115.1,398.5,114.6,398.2z"></path>
			</g>
			<g>
				<path class="st3" d="M122.8,402.1l-0.2,0.4c-2.4,4.3-7.8,5.8-12,3.4h0l0.2-0.4C113.2,401.2,118.6,399.7,122.8,402.1L122.8,402.1      z"></path>
				<path class="st6" d="M120.5,401.5c0,0-2.9-1.8-4.3-4.4"></path>
				<path class="st6" d="M128.9,397.8l-6.3,1.3c-1.4,0.3-2.4,1.5-2.4,2.9l0,0c0,1.4,1,2.7,2.4,2.9l6.6,1.2c1.1,0.4,2.2,0.5,3.6-0.4      c1.4-0.8,2.3-2.2,2.4-3.8c0-2.5-2-4.5-4.5-4.5C130.1,397.4,129.5,397.5,128.9,397.8z"></path>
			</g>
			<g>
				<path class="st3" d="M126.4,393.9l-0.3-0.4c-3-3.8-2.4-9.4,1.5-12.4h0l0.3,0.4C130.9,385.3,130.3,390.9,126.4,393.9L126.4,393.9      z"></path>
				<path class="st6" d="M128.1,401.2l1.3-6.3c0.3-1.4-0.5-2.8-1.7-3.3l0,0c-1.3-0.6-2.9-0.1-3.7,1.1l-3.7,5.6      c-0.7,0.8-1.3,1.9-1.1,3.5c0.2,1.6,1.2,3,2.6,3.6c2.3,1,4.9-0.1,5.9-2.4C127.9,402.4,128.1,401.8,128.1,401.2z"></path>
			</g>
		</g>
		<rect x="104.8" y="424.2" class="st3" width="47" height="4.8"></rect>
		<rect x="104.8" y="403" class="st3" width="47" height="4.8"></rect>
		<line class="st4" x1="138.5" y1="407.9" x2="138.5" y2="424.2"></line>
		<line class="st4" x1="128.3" y1="407.9" x2="128.3" y2="424.2"></line>
		<line class="st4" x1="118.1" y1="407.9" x2="118.1" y2="424.2"></line>
	</g>
	<g>
		<g>
			<path class="st3" d="M292.5,387.2l-0.4-0.2c-4.3-2.3-5.9-7.7-3.5-12v0l0.4,0.2C293.3,377.6,294.9,382.9,292.5,387.2L292.5,387.2z     "></path>
			<path class="st6" d="M293.1,384.9c0,0,1.8-2.9,4.3-4.3"></path>
			<path class="st3" d="M303.2,387.5l0.5-0.1c4.8-0.8,8.1-5.4,7.2-10.2l0,0l-0.5,0.1C305.6,378.1,302.4,382.7,303.2,387.5     L303.2,387.5z"></path>
			<path class="st6" d="M303.5,385.1c0,0-0.8-3.3-2.7-5.5"></path>
			<path class="st3" d="M318.6,396.4l-0.4-0.2c-4.3-2.3-5.9-7.7-3.5-12l0,0l0.4,0.2C319.3,386.7,320.9,392.1,318.6,396.4     L318.6,396.4z"></path>
			<circle class="st3" cx="292.5" cy="390.5" r="5.8"></circle>
			<circle class="st3" cx="303.5" cy="391.1" r="5.8"></circle>
			<circle class="st3" cx="315.9" cy="398.5" r="5.8"></circle>
			<circle class="st3" cx="285.4" cy="399.2" r="5.8"></circle>
			<circle class="st3" cx="295.3" cy="399.6" r="5.8"></circle>
			<circle class="st3" cx="307" cy="399.6" r="5.8"></circle>
			<rect x="280.8" y="407.4" class="st4" width="38.9" height="17.2"></rect>
			<rect x="276" y="423.7" class="st4" width="47" height="4.8"></rect>
			<rect x="276" y="402.6" class="st4" width="47" height="4.8"></rect>
			<line class="st4" x1="309.7" y1="407.4" x2="309.7" y2="423.7"></line>
			<line class="st4" x1="299.6" y1="407.4" x2="299.6" y2="423.7"></line>
			<line class="st4" x1="289.4" y1="407.4" x2="289.4" y2="423.7"></line>
			<path class="st6" d="M319.1,394c0,0,1.8-2.9,4.3-4.3"></path>
		</g>
	</g>
	<g>
		<rect x="223.7" y="407.9" class="st3" width="38.9" height="17.2"></rect>
		<g>
			<g>
				<path class="st3" d="M248.3,389.6l-0.1-0.4c-1.5-4.7,1.1-9.6,5.8-11.1l0,0l0.1,0.4C255.5,383.1,252.9,388.1,248.3,389.6      L248.3,389.6z"></path>
				<path class="st6" d="M250.3,388.2c0,0,3.3-0.8,6.1-0.1"></path>
				<path class="st6" d="M247.2,397l3.4-5.5c0.7-1.2,0.6-2.7-0.5-3.7v0c-1-1-2.6-1.1-3.8-0.3l-5.4,3.9c-1,0.5-1.9,1.3-2.2,2.9      c-0.3,1.6,0,3.2,1.2,4.3c1.8,1.7,4.6,1.6,6.3-0.1C246.7,398.1,247,397.5,247.2,397z"></path>
			</g>
			<g>
				<path class="st3" d="M258.4,393.2l0.1-0.5c0.6-4.8,5.1-8.2,9.9-7.6l0,0l-0.1,0.5C267.7,390.4,263.3,393.8,258.4,393.2      L258.4,393.2z"></path>
				<path class="st6" d="M260.8,392.8c0,0,3.3,0.7,5.6,2.5"></path>
				<path class="st6" d="M254.3,399.4l5.4-3.5c1.2-0.8,1.7-2.2,1.2-3.6v0c-0.5-1.3-1.9-2.1-3.3-1.9l-6.6,1.3c-1.1,0-2.3,0.4-3.2,1.7      c-1,1.3-1.4,2.9-0.8,4.4c0.9,2.3,3.5,3.5,5.8,2.6C253.4,400.2,253.9,399.8,254.3,399.4z"></path>
			</g>
			<g>
				<path class="st3" d="M232.3,392.4l-0.4-0.3c-4.1-2.7-5.2-8.2-2.5-12.3l0,0l0.4,0.3C233.9,382.9,235,388.4,232.3,392.4      L232.3,392.4z"></path>
				<path class="st6" d="M233,390.1c0,0,2.1-2.7,4.7-3.9"></path>
				<path class="st6" d="M236.1,398.9l-0.8-6.4c-0.2-1.4-1.3-2.5-2.7-2.6l0,0c-1.4-0.1-2.8,0.8-3.1,2.2l-1.7,6.5      c-0.5,1-0.6,2.2,0.1,3.6c0.7,1.4,2,2.5,3.6,2.6c2.5,0.2,4.6-1.6,4.8-4.1C236.4,400,236.3,399.4,236.1,398.9z"></path>
			</g>
			<g>
				<path class="st3" d="M260,401.6l0.2-0.4c2.4-4.3,7.8-5.8,12-3.4l0,0l-0.2,0.4C269.6,402.4,264.2,403.9,260,401.6L260,401.6z"></path>
				<path class="st6" d="M262.3,402.1c0,0,2.9,1.8,4.3,4.4"></path>
				<path class="st6" d="M253.9,405.9l6.3-1.3c1.4-0.3,2.4-1.5,2.4-2.9l0,0c0-1.4-1-2.7-2.4-2.9l-6.6-1.2c-1.1-0.4-2.2-0.5-3.6,0.4      c-1.4,0.8-2.3,2.2-2.4,3.8c0,2.5,2,4.5,4.5,4.5C252.7,406.2,253.3,406.1,253.9,405.9z"></path>
			</g>
			<g>
				<path class="st3" d="M221.6,396l-0.5,0.1c-4.8,0.7-9.3-2.6-10.1-7.4v0l0.5-0.1C216.4,387.9,220.9,391.2,221.6,396L221.6,396z"></path>
				<path class="st6" d="M220.6,393.8c0,0-0.3-3.4,0.9-6.1"></path>
				<path class="st6" d="M228.8,398.2l-4.9-4.2c-1.1-0.9-2.6-1-3.7-0.1l0,0c-1.1,0.9-1.5,2.4-0.8,3.7l3,6c0.4,1.1,1,2.1,2.5,2.6      c1.5,0.6,3.2,0.5,4.5-0.5c2-1.5,2.3-4.3,0.8-6.3C229.8,398.9,229.3,398.5,228.8,398.2z"></path>
			</g>
			<g>
				<path class="st3" d="M237,402.1l-0.2,0.4c-2.4,4.3-7.8,5.8-12,3.4h0l0.2-0.4C227.3,401.2,232.7,399.7,237,402.1L237,402.1z"></path>
				<path class="st6" d="M234.7,401.5c0,0-2.9-1.8-4.3-4.4"></path>
				<path class="st6" d="M243.1,397.8l-6.3,1.3c-1.4,0.3-2.4,1.5-2.4,2.9l0,0c0,1.4,1,2.7,2.4,2.9l6.6,1.2c1.1,0.4,2.2,0.5,3.6-0.4      c1.4-0.8,2.3-2.2,2.4-3.8c0-2.5-2-4.5-4.5-4.5C244.3,397.4,243.6,397.5,243.1,397.8z"></path>
			</g>
			<g>
				<path class="st3" d="M240.6,393.9l-0.3-0.4c-3-3.8-2.4-9.4,1.5-12.4l0,0l0.3,0.4C245.1,385.3,244.4,390.9,240.6,393.9      L240.6,393.9z"></path>
				<path class="st6" d="M242.2,401.2l1.3-6.3c0.3-1.4-0.5-2.8-1.7-3.3h0c-1.3-0.6-2.9-0.1-3.7,1.1l-3.7,5.6      c-0.7,0.8-1.3,1.9-1.1,3.5c0.2,1.6,1.2,3,2.6,3.6c2.3,1,4.9-0.1,5.9-2.4C242.1,402.4,242.2,401.8,242.2,401.2z"></path>
			</g>
		</g>
		<rect x="218.9" y="424.2" class="st3" width="47" height="4.8"></rect>
		<rect x="218.9" y="403" class="st3" width="47" height="4.8"></rect>
		<line class="st4" x1="252.6" y1="407.9" x2="252.6" y2="424.2"></line>
		<line class="st4" x1="242.5" y1="407.9" x2="242.5" y2="424.2"></line>
		<line class="st4" x1="232.3" y1="407.9" x2="232.3" y2="424.2"></line>
	</g>
	<rect x="94.2" y="429" class="st3" width="231.5" height="5.4"></rect>
	<g>
		<path class="st3" d="M133,346.6L133,346.6c-3.9,0-7.1-3.2-7.1-7.1v0c0-3.9,3.2-7.1,7.1-7.1h0c3.9,0,7.1,3.2,7.1,7.1v0    C140.1,343.4,136.9,346.6,133,346.6z"></path>
		<path class="st3" d="M118.7,346L118.7,346c-3.9,0-7.1-3.2-7.1-7.1l0,0c0-3.9,3.2-7.1,7.1-7.1h0c3.9,0,7.1,3.2,7.1,7.1l0,0    C125.9,342.8,122.7,346,118.7,346z"></path>
		<path class="st3" d="M143.9,349.6L143.9,349.6c-3.9,0-7.1-3.2-7.1-7.1v0c0-3.9,3.2-7.1,7.1-7.1h0c3.9,0,7.1,3.2,7.1,7.1v0    C151.1,346.4,147.9,349.6,143.9,349.6z"></path>
		<path class="st3" d="M109.1,353.1L109.1,353.1c-3.9,0-7.1-3.2-7.1-7.1l0,0c0-3.9,3.2-7.1,7.1-7.1h0c3.9,0,7.1,3.2,7.1,7.1l0,0    C116.2,349.9,113,353.1,109.1,353.1z"></path>
		<path class="st3" d="M111.5,363.6L111.5,363.6c-3.9,0-7.1-3.2-7.1-7.1l0,0c0-3.9,3.2-7.1,7.1-7.1h0c3.9,0,7.1,3.2,7.1,7.1l0,0    C118.6,360.4,115.4,363.6,111.5,363.6z"></path>
		<path class="st3" d="M121.6,369L121.6,369c-3.9,0-7.1-3.2-7.1-7.1l0,0c0-3.9,3.2-7.1,7.1-7.1h0c3.9,0,7.1,3.2,7.1,7.1l0,0    C128.7,365.8,125.5,369,121.6,369z"></path>
		<path class="st3" d="M122.9,355.7L122.9,355.7c-3.9,0-7.1-3.2-7.1-7.1v0c0-3.9,3.2-7.1,7.1-7.1h0c3.9,0,7.1,3.2,7.1,7.1v0    C130.1,352.5,126.9,355.7,122.9,355.7z"></path>
		<path class="st3" d="M134.8,361L134.8,361c-3.9,0-7.1-3.2-7.1-7.1v0c0-3.9,3.2-7.1,7.1-7.1l0,0c3.9,0,7.1,3.2,7.1,7.1v0    C142,357.8,138.7,361,134.8,361z"></path>
		<path class="st3" d="M134.8,368.2L134.8,368.2c-3.9,0-7.1-3.2-7.1-7.1v0c0-3.9,3.2-7.1,7.1-7.1l0,0c3.9,0,7.1,3.2,7.1,7.1v0    C142,365,138.7,368.2,134.8,368.2z"></path>
		<path class="st3" d="M144.3,367.3L144.3,367.3c-3.9,0-7.1-3.2-7.1-7.1v0c0-3.9,3.2-7.1,7.1-7.1h0c3.9,0,7.1,3.2,7.1,7.1v0    C151.4,364.1,148.2,367.3,144.3,367.3z"></path>
		<g>
			<polygon class="st6" points="100.3,340.7 100.3,347.3 100.3,370.8 107.5,370.8 107.5,347.3 103.9,340.7    "></polygon>
			<polygon class="st6" points="149.3,340.7 145.7,347.3 145.7,370.8 152.9,370.8 152.9,347.3 152.9,340.7    "></polygon>
		</g>
		<rect x="100.3" y="361.6" class="st6" width="52.6" height="9.2"></rect>
		<rect x="100.3" y="351.1" class="st6" width="52.6" height="7.2"></rect>
	</g>
	<g>
		<path class="st3" d="M300.8,346.5L300.8,346.5c-3.9,0-7.1-3.2-7.1-7.1l0,0c0-3.9,3.2-7.1,7.1-7.1h0c3.9,0,7.1,3.2,7.1,7.1l0,0    C307.9,343.3,304.7,346.5,300.8,346.5z"></path>
		<path class="st3" d="M286.5,345.9L286.5,345.9c-3.9,0-7.1-3.2-7.1-7.1v0c0-3.9,3.2-7.1,7.1-7.1h0c3.9,0,7.1,3.2,7.1,7.1v0    C293.7,342.7,290.4,345.9,286.5,345.9z"></path>
		<path class="st3" d="M311.7,349.6L311.7,349.6c-3.9,0-7.1-3.2-7.1-7.1l0,0c0-3.9,3.2-7.1,7.1-7.1h0c3.9,0,7.1,3.2,7.1,7.1l0,0    C318.9,346.3,315.6,349.6,311.7,349.6z"></path>
		<path class="st3" d="M276.8,353L276.8,353c-3.9,0-7.1-3.2-7.1-7.1v0c0-3.9,3.2-7.1,7.1-7.1l0,0c3.9,0,7.1,3.2,7.1,7.1v0    C284,349.8,280.8,353,276.8,353z"></path>
		<path class="st3" d="M279.3,363.5L279.3,363.5c-3.9,0-7.1-3.2-7.1-7.1v0c0-3.9,3.2-7.1,7.1-7.1h0c3.9,0,7.1,3.2,7.1,7.1v0    C286.4,360.3,283.2,363.5,279.3,363.5z"></path>
		<path class="st3" d="M289.4,369L289.4,369c-3.9,0-7.1-3.2-7.1-7.1v0c0-3.9,3.2-7.1,7.1-7.1l0,0c3.9,0,7.1,3.2,7.1,7.1v0    C296.5,365.8,293.3,369,289.4,369z"></path>
		<path class="st3" d="M290.7,355.6L290.7,355.6c-3.9,0-7.1-3.2-7.1-7.1l0,0c0-3.9,3.2-7.1,7.1-7.1h0c3.9,0,7.1,3.2,7.1,7.1l0,0    C297.8,352.4,294.6,355.6,290.7,355.6z"></path>
		<path class="st3" d="M302.6,361L302.6,361c-3.9,0-7.1-3.2-7.1-7.1l0,0c0-3.9,3.2-7.1,7.1-7.1l0,0c3.9,0,7.1,3.2,7.1,7.1l0,0    C309.7,357.8,306.5,361,302.6,361z"></path>
		<path class="st3" d="M302.6,368.1L302.6,368.1c-3.9,0-7.1-3.2-7.1-7.1l0,0c0-3.9,3.2-7.1,7.1-7.1l0,0c3.9,0,7.1,3.2,7.1,7.1l0,0    C309.7,364.9,306.5,368.1,302.6,368.1z"></path>
		<path class="st3" d="M312.1,367.3L312.1,367.3c-3.9,0-7.1-3.2-7.1-7.1l0,0c0-3.9,3.2-7.1,7.1-7.1l0,0c3.9,0,7.1,3.2,7.1,7.1l0,0    C319.2,364,316,367.3,312.1,367.3z"></path>
		<g>
			<polygon class="st6" points="268.1,340.7 268.1,347.3 268.1,370.8 275.3,370.8 275.3,347.3 271.7,340.7    "></polygon>
			<polygon class="st6" points="317.1,340.7 313.5,347.3 313.5,370.8 320.7,370.8 320.7,347.3 320.7,340.7    "></polygon>
		</g>
		<rect x="268.1" y="361.5" class="st6" width="52.6" height="9.2"></rect>
		<rect x="268.1" y="351" class="st6" width="52.6" height="7.2"></rect>
	</g>
	<g>
		<g>
			<path class="st3" d="M231.5,328.4l-0.4-0.2c-4.3-2.3-5.9-7.7-3.5-12v0l0.4,0.2C232.3,318.8,233.8,324.1,231.5,328.4L231.5,328.4z     "></path>
			<path class="st6" d="M232,326.1c0,0,1.8-2.9,4.3-4.3"></path>
			<path class="st3" d="M242.2,328.7l0.5-0.1c4.8-0.8,8.1-5.4,7.2-10.2l0,0l-0.5,0.1C244.6,319.3,241.4,323.9,242.2,328.7     L242.2,328.7z"></path>
			<path class="st6" d="M242.5,326.3c0,0-0.8-3.3-2.7-5.5"></path>
			<path class="st3" d="M257.5,337.6l-0.4-0.2c-4.3-2.3-5.9-7.7-3.5-12l0,0l0.4,0.2C258.3,327.9,259.9,333.3,257.5,337.6     L257.5,337.6z"></path>
			<circle class="st3" cx="231.4" cy="331.7" r="5.8"></circle>
			<circle class="st3" cx="242.5" cy="332.3" r="5.8"></circle>
			<circle class="st3" cx="254.9" cy="339.7" r="5.8"></circle>
			<circle class="st3" cx="224.4" cy="340.4" r="5.8"></circle>
			<circle class="st3" cx="234.2" cy="340.8" r="5.8"></circle>
			<circle class="st3" cx="245.9" cy="340.8" r="5.8"></circle>
			<rect x="219.7" y="348.6" class="st4" width="38.9" height="17.2"></rect>
			<rect x="215" y="364.9" class="st4" width="47" height="4.8"></rect>
			<rect x="215" y="343.8" class="st4" width="47" height="4.8"></rect>
			<line class="st4" x1="248.7" y1="348.6" x2="248.7" y2="364.9"></line>
			<line class="st4" x1="238.5" y1="348.6" x2="238.5" y2="364.9"></line>
			<line class="st4" x1="228.4" y1="348.6" x2="228.4" y2="364.9"></line>
			<path class="st6" d="M258,335.2c0,0,1.8-2.9,4.3-4.3"></path>
		</g>
	</g>
	<g>
		<rect x="164.5" y="349.1" class="st3" width="38.9" height="17.2"></rect>
		<g>
			<g>
				<path class="st3" d="M189.1,330.8l-0.1-0.4c-1.5-4.7,1.1-9.6,5.8-11.1h0l0.1,0.4C196.4,324.3,193.8,329.3,189.1,330.8      L189.1,330.8z"></path>
				<path class="st6" d="M191.1,329.5c0,0,3.3-0.8,6.1-0.1"></path>
				<path class="st6" d="M188.1,338.2l3.4-5.5c0.7-1.2,0.6-2.7-0.5-3.7l0,0c-1-1-2.6-1.1-3.8-0.3l-5.4,3.9c-1,0.5-1.9,1.3-2.2,2.9      c-0.3,1.6,0,3.2,1.2,4.3c1.8,1.7,4.6,1.6,6.3-0.1C187.6,339.3,187.9,338.7,188.1,338.2z"></path>
			</g>
			<g>
				<path class="st3" d="M199.3,334.4l0.1-0.5c0.6-4.8,5.1-8.2,9.9-7.6h0l-0.1,0.5C208.6,331.6,204.1,335,199.3,334.4L199.3,334.4z"></path>
				<path class="st6" d="M201.7,334c0,0,3.3,0.7,5.6,2.5"></path>
				<path class="st6" d="M195.2,340.6l5.4-3.5c1.2-0.8,1.7-2.2,1.2-3.6l0,0c-0.5-1.3-1.9-2.1-3.3-1.9l-6.6,1.3      c-1.1,0-2.3,0.4-3.2,1.7c-1,1.3-1.4,2.9-0.8,4.4c0.9,2.3,3.5,3.5,5.8,2.6C194.2,341.4,194.8,341.1,195.2,340.6z"></path>
			</g>
			<g>
				<path class="st3" d="M173.2,333.6l-0.4-0.3c-4.1-2.7-5.2-8.2-2.5-12.3v0l0.4,0.3C174.8,324.1,175.9,329.6,173.2,333.6      L173.2,333.6z"></path>
				<path class="st6" d="M173.9,331.3c0,0,2.1-2.7,4.7-3.9"></path>
				<path class="st6" d="M177,340.1l-0.8-6.4c-0.2-1.4-1.3-2.5-2.7-2.6l0,0c-1.4-0.1-2.8,0.8-3.1,2.2l-1.7,6.5      c-0.5,1-0.6,2.2,0.1,3.6c0.7,1.4,2,2.5,3.6,2.6c2.5,0.2,4.6-1.6,4.8-4.1C177.3,341.2,177.2,340.6,177,340.1z"></path>
			</g>
			<g>
				<path class="st3" d="M200.8,342.8l0.2-0.4c2.4-4.3,7.8-5.8,12-3.4h0l-0.2,0.4C210.5,343.6,205.1,345.1,200.8,342.8L200.8,342.8z      "></path>
				<path class="st6" d="M203.2,343.3c0,0,2.9,1.8,4.3,4.4"></path>
				<path class="st6" d="M194.7,347.1l6.3-1.3c1.4-0.3,2.4-1.5,2.4-2.9l0,0c0-1.4-1-2.7-2.4-2.9l-6.6-1.2c-1.1-0.4-2.2-0.5-3.6,0.4      c-1.4,0.8-2.3,2.2-2.4,3.8c0,2.5,2,4.5,4.5,4.5C193.6,347.4,194.2,347.3,194.7,347.1z"></path>
			</g>
			<g>
				<path class="st3" d="M162.5,337.2l-0.5,0.1c-4.8,0.7-9.3-2.6-10.1-7.4l0,0l0.5-0.1C157.3,329.1,161.8,332.4,162.5,337.2      L162.5,337.2z"></path>
				<path class="st6" d="M161.5,335c0,0-0.3-3.4,0.9-6.1"></path>
				<path class="st6" d="M169.6,339.4l-4.9-4.2c-1.1-0.9-2.6-1-3.7-0.1l0,0c-1.1,0.9-1.5,2.4-0.8,3.7l3,6c0.4,1.1,1,2.1,2.5,2.6      c1.5,0.6,3.2,0.5,4.5-0.5c2-1.5,2.3-4.3,0.8-6.3C170.6,340.1,170.2,339.7,169.6,339.4z"></path>
			</g>
			<g>
				<path class="st3" d="M177.9,343.3l-0.2,0.4c-2.4,4.3-7.8,5.8-12,3.4h0l0.2-0.4C168.2,342.4,173.6,340.9,177.9,343.3L177.9,343.3      z"></path>
				<path class="st6" d="M175.5,342.7c0,0-2.9-1.8-4.3-4.4"></path>
				<path class="st6" d="M184,339l-6.3,1.3c-1.4,0.3-2.4,1.5-2.4,2.9l0,0c0,1.4,1,2.7,2.4,2.9l6.6,1.2c1.1,0.4,2.2,0.5,3.6-0.4      c1.4-0.8,2.3-2.2,2.4-3.8c0-2.5-2-4.5-4.5-4.5C185.1,338.6,184.5,338.7,184,339z"></path>
			</g>
			<g>
				<path class="st3" d="M181.5,335.1l-0.3-0.4c-3-3.8-2.4-9.4,1.5-12.4v0l0.3,0.4C185.9,326.5,185.3,332.1,181.5,335.1L181.5,335.1      z"></path>
				<path class="st6" d="M183.1,342.4l1.3-6.3c0.3-1.4-0.5-2.8-1.7-3.3h0c-1.3-0.6-2.9-0.1-3.7,1.1l-3.7,5.6      c-0.7,0.8-1.3,1.9-1.1,3.5c0.2,1.6,1.2,3,2.6,3.6c2.3,1,4.9-0.1,5.9-2.4C183,343.6,183.1,343,183.1,342.4z"></path>
			</g>
		</g>
		<rect x="159.8" y="365.4" class="st3" width="47" height="4.8"></rect>
		<rect x="159.8" y="344.2" class="st3" width="47" height="4.8"></rect>
		<line class="st4" x1="193.5" y1="349.1" x2="193.5" y2="365.4"></line>
		<line class="st4" x1="183.3" y1="349.1" x2="183.3" y2="365.4"></line>
		<line class="st4" x1="173.2" y1="349.1" x2="173.2" y2="365.4"></line>
	</g>
	<rect x="94.2" y="370.3" class="st3" width="231.5" height="5.4"></rect>
	<rect x="327.6" y="326.1" class="st3" width="5.7" height="134.4"></rect>
	<g>
		<path class="st3" d="M100.3,432.2l-0.4-0.2c-4.3-2.3-5.9-7.7-3.5-12l0,0l0.4,0.2C101,422.5,102.6,427.9,100.3,432.2L100.3,432.2z"></path>
		<path class="st6" d="M100.8,429.8c0,0,1.8-2.9,4.3-4.3"></path>
		<path class="st3" d="M111,432.4l0.5-0.1c4.8-0.8,8.1-5.4,7.2-10.2l0,0l-0.5,0.1C113.4,423,110.2,427.6,111,432.4L111,432.4z"></path>
		<path class="st6" d="M111.3,430.1c0,0-0.8-3.3-2.7-5.5"></path>
		<path class="st3" d="M126.3,441.3l-0.4-0.2c-4.3-2.3-5.9-7.7-3.5-12l0,0l0.4,0.2C127.1,431.6,128.7,437,126.3,441.3L126.3,441.3z"></path>
		<circle class="st6" cx="100.2" cy="435.5" r="5.8"></circle>
		<circle class="st6" cx="111.2" cy="436" r="5.8"></circle>
		<circle class="st6" cx="123.7" cy="443.4" r="5.8"></circle>
		<circle class="st6" cx="93.2" cy="444.2" r="5.8"></circle>
		<circle class="st6" cx="103" cy="444.5" r="5.8"></circle>
		<circle class="st6" cx="114.7" cy="444.5" r="5.8"></circle>
		<rect x="88.5" y="452.4" class="st4" width="38.9" height="17.2"></rect>
		<rect x="83.8" y="468.7" class="st4" width="47" height="4.8"></rect>
		<rect x="83.8" y="447.5" class="st4" width="47" height="4.8"></rect>
		<line class="st4" x1="117.5" y1="452.4" x2="117.5" y2="468.7"></line>
		<line class="st4" x1="107.3" y1="452.4" x2="107.3" y2="468.7"></line>
		<line class="st4" x1="97.2" y1="452.4" x2="97.2" y2="468.7"></line>
		<path class="st6" d="M126.8,439c0,0,1.8-2.9,4.3-4.3"></path>
	</g>
	<polygon class="st6" points="428.3,310.9 77.2,310.9 94.2,233 411.3,233  "></polygon>
	<rect x="77.2" y="310.9" class="st3" width="349.5" height="14.7"></rect>
	<g>
		<g>
			<rect x="176.5" y="432.3" class="st2" width="38" height="6"></rect>
			<polygon class="st2" points="212.9,432.3 178.2,432.3 181.8,426.3 209.3,426.3    "></polygon>
			<polygon class="st2" points="202.4,438.3 202.4,443 188.7,443 188.7,438.3 178.2,438.3 183.6,473.2 207.5,473.2 212.9,438.3         "></polygon>
			<rect x="188.7" y="438.3" class="st2" width="13.7" height="4.8"></rect>
		</g>
		<g>
			<rect x="138.5" y="432.3" class="st2" width="38" height="6"></rect>
			<polygon class="st2" points="174.8,432.3 140.1,432.3 143.8,426.3 171.2,426.3    "></polygon>
			<polygon class="st2" points="164.4,438.3 164.4,443 150.6,443 150.6,438.3 140.1,438.3 145.6,473.2 169.4,473.2 174.8,438.3         "></polygon>
			<rect x="150.6" y="438.3" class="st2" width="13.7" height="4.8"></rect>
		</g>
	</g>
	<g>
		<path class="st6" d="M289.7,422.6L289.7,422.6c-4.5,0-8.2-3.7-8.2-8.2l0,0c0-4.5,3.7-8.2,8.2-8.2h0c4.5,0,8.2,3.7,8.2,8.2l0,0    C297.9,418.9,294.3,422.6,289.7,422.6z"></path>
		<path class="st6" d="M309.5,417L309.5,417c-4.5,0-8.2-3.7-8.2-8.2l0,0c0-4.5,3.7-8.2,8.2-8.2h0c4.5,0,8.2,3.7,8.2,8.2l0,0    C317.8,413.3,314.1,417,309.5,417z"></path>
		<path class="st6" d="M295.6,430.4L295.6,430.4c-4.5,0-8.2-3.7-8.2-8.2v0c0-4.5,3.7-8.2,8.2-8.2l0,0c4.5,0,8.2,3.7,8.2,8.2v0    C303.8,426.7,300.1,430.4,295.6,430.4z"></path>
		<path class="st6" d="M315.4,424.7L315.4,424.7c-4.5,0-8.2-3.7-8.2-8.2v0c0-4.5,3.7-8.2,8.2-8.2l0,0c4.5,0,8.2,3.7,8.2,8.2v0    C323.6,421,319.9,424.7,315.4,424.7z"></path>
		<path class="st6" d="M323.2,448.5L323.2,448.5c-4.5,0-8.2-3.7-8.2-8.2l0,0c0-4.5,3.7-8.2,8.2-8.2h0c4.5,0,8.2,3.7,8.2,8.2l0,0    C331.4,444.8,327.7,448.5,323.2,448.5z"></path>
		<path class="st6" d="M310.2,434.9L310.2,434.9c-4.5,0-8.2-3.7-8.2-8.2l0,0c0-4.5,3.7-8.2,8.2-8.2h0c4.5,0,8.2,3.7,8.2,8.2l0,0    C318.4,431.2,314.7,434.9,310.2,434.9z"></path>
		<path class="st6" d="M300.5,424L300.5,424c-4.5,0-8.2-3.7-8.2-8.2v0c0-4.5,3.7-8.2,8.2-8.2l0,0c4.5,0,8.2,3.7,8.2,8.2v0    C308.8,420.3,305.1,424,300.5,424z"></path>
		<path class="st6" d="M310.7,447L310.7,447c-4.5,0-8.2-3.7-8.2-8.2v0c0-4.5,3.7-8.2,8.2-8.2h0c4.5,0,8.2,3.7,8.2,8.2v0    C319,443.3,315.3,447,310.7,447z"></path>
		<path class="st6" d="M283.1,440.3L283.1,440.3c-4.5,0-8.2-3.7-8.2-8.2l0,0c0-4.5,3.7-8.2,8.2-8.2h0c4.5,0,8.2,3.7,8.2,8.2l0,0    C291.3,436.6,287.6,440.3,283.1,440.3z"></path>
		<path class="st6" d="M286.5,451.3L286.5,451.3c-4.5,0-8.2-3.7-8.2-8.2l0,0c0-4.5,3.7-8.2,8.2-8.2h0c4.5,0,8.2,3.7,8.2,8.2l0,0    C294.7,447.6,291,451.3,286.5,451.3z"></path>
		<path class="st6" d="M299.8,444.2L299.8,444.2c-4.5,0-8.2-3.7-8.2-8.2v0c0-4.5,3.7-8.2,8.2-8.2l0,0c4.5,0,8.2,3.7,8.2,8.2v0    C308,440.5,304.3,444.2,299.8,444.2z"></path>
		<path class="st6" d="M298.7,453.6L298.7,453.6c-4.5,0-8.2-3.7-8.2-8.2v0c0-4.5,3.7-8.2,8.2-8.2l0,0c4.5,0,8.2,3.7,8.2,8.2v0    C306.9,449.9,303.2,453.6,298.7,453.6z"></path>
		<path class="st6" d="M314.3,459.5L314.3,459.5c-4.5,0-8.2-3.7-8.2-8.2l0,0c0-4.5,3.7-8.2,8.2-8.2h0c4.5,0,8.2,3.7,8.2,8.2l0,0    C322.5,455.8,318.8,459.5,314.3,459.5z"></path>
		<path class="st6" d="M322.5,469L322.5,469c-4.5,0-8.2-3.7-8.2-8.2v0c0-4.5,3.7-8.2,8.2-8.2h0c4.5,0,8.2,3.7,8.2,8.2v0    C330.7,465.3,327,469,322.5,469z"></path>
		<path class="st6" d="M310.7,469.8L310.7,469.8c-4.5,0-8.2-3.7-8.2-8.2v0c0-4.5,3.7-8.2,8.2-8.2h0c4.5,0,8.2,3.7,8.2,8.2v0    C319,466.1,315.3,469.8,310.7,469.8z"></path>
		<path class="st6" d="M297.8,469.8L297.8,469.8c-4.5,0-8.2-3.7-8.2-8.2v0c0-4.5,3.7-8.2,8.2-8.2h0c4.5,0,8.2,3.7,8.2,8.2v0    C306.1,466.1,302.4,469.8,297.8,469.8z"></path>
		<path class="st6" d="M287.2,469.8L287.2,469.8c-4.5,0-8.2-3.7-8.2-8.2v0c0-4.5,3.7-8.2,8.2-8.2l0,0c4.5,0,8.2,3.7,8.2,8.2v0    C295.4,466.1,291.7,469.8,287.2,469.8z"></path>
		<g>
			<g>
				<polygon class="st3" points="273.2,438.3 273.2,445.9 273.2,473 281.4,473 281.4,445.9 277.3,438.3     "></polygon>
				<polygon class="st3" points="329.7,438.3 325.6,445.9 325.6,473 333.9,473 333.9,445.9 333.9,438.3     "></polygon>
			</g>
			<rect x="273.2" y="462.4" class="st3" width="60.7" height="10.6"></rect>
			<rect x="273.2" y="450.2" class="st3" width="60.7" height="8.3"></rect>
		</g>
		<g>
			<g>
				<polygon class="st3" points="273.2,406.5 273.2,414.1 273.2,441.2 281.4,441.2 281.4,414.1 277.3,406.5     "></polygon>
				<polygon class="st3" points="329.7,406.5 325.6,414.1 325.6,441.2 333.9,441.2 333.9,414.1 333.9,406.5     "></polygon>
			</g>
			<rect x="273.2" y="430.6" class="st3" width="60.7" height="10.6"></rect>
			<rect x="273.2" y="418.4" class="st3" width="60.7" height="8.3"></rect>
		</g>
	</g>
	<g>
		<path class="st3" d="M248.4,431.7l-0.4-0.2c-4.3-2.3-5.9-7.7-3.5-12h0l0.4,0.2C249.1,422,250.7,427.4,248.4,431.7L248.4,431.7z"></path>
		<path class="st6" d="M248.9,429.3c0,0,1.8-2.9,4.3-4.3"></path>
		<path class="st3" d="M259.1,432l0.5-0.1c4.8-0.8,8.1-5.4,7.2-10.2v0l-0.5,0.1C261.5,422.6,258.2,427.1,259.1,432L259.1,432z"></path>
		<path class="st6" d="M259.3,429.6c0,0-0.8-3.3-2.7-5.5"></path>
		<path class="st3" d="M274.4,440.8l-0.4-0.2c-4.3-2.3-5.9-7.7-3.5-12l0,0l0.4,0.2C275.2,431.2,276.7,436.5,274.4,440.8L274.4,440.8    z"></path>
		<circle class="st6" cx="248.3" cy="435" r="5.8"></circle>
		<circle class="st6" cx="259.3" cy="435.6" r="5.8"></circle>
		<circle class="st6" cx="271.7" cy="442.9" r="5.8"></circle>
		<circle class="st6" cx="241.2" cy="443.7" r="5.8"></circle>
		<circle class="st6" cx="251.1" cy="444.1" r="5.8"></circle>
		<circle class="st6" cx="262.8" cy="444.1" r="5.8"></circle>
		<rect x="236.6" y="451.9" class="st4" width="38.9" height="17.2"></rect>
		<rect x="231.9" y="468.2" class="st4" width="47" height="4.8"></rect>
		<rect x="231.9" y="447.1" class="st4" width="47" height="4.8"></rect>
		<line class="st4" x1="265.6" y1="451.9" x2="265.6" y2="468.2"></line>
		<line class="st4" x1="255.4" y1="451.9" x2="255.4" y2="468.2"></line>
		<line class="st4" x1="245.2" y1="451.9" x2="245.2" y2="468.2"></line>
		<path class="st6" d="M274.9,438.5c0,0,1.8-2.9,4.3-4.3"></path>
	</g>
</g>
</svg>
