<?xml version="1.0" encoding="UTF-8"?>
<svg xmlns="http://www.w3.org/2000/svg" viewBox="0 0 600 600">
  <path d="m109.79 253.29h380.57v231.68h-380.57z" fill="#fff"></path>
  <path d="m101.94 199.06h396.11v8.11h-396.11z" fill="#ffde00"></path>
  <path d="m101.94 207.64h396.11v14.09h-396.11z" fill="#ffde00"></path>
  <path d="m101.94 221.26h396.11v32.73h-396.11z" fill="#ffde00"></path>
  <path d="m349.84 475.93h136.23v14.53h-136.23z" fill="#ffde00"></path>
  <path d="m114.12 475.93h136.23v14.53h-136.23z" fill="#ffde00"></path>
  <path d="m486.07 254.06h11.98v236.4h-11.98z" fill="#ffde00"></path>
  <path d="m101.94 254.06h11.98v236.4h-11.98z" fill="#ffde00"></path>
  <path d="m250.16 254.06v236.4h99.68v-236.4zm14.06 221.54v-207.48h71.56v82.53h-9.09v43.21h9.09v81.74z" fill="#ffde00"></path>
  <path d="m127.17 307.33 10.89-24.44-18.18-1.31z" fill="#ffde00"></path>
  <path d="m200.9 301.12 2.76-26.63-17.69 4.42z" fill="#ffde00"></path>
  <path d="m435.98 307.26-7.22-25.77 18.18 1.35z" fill="#ffde00"></path>
  <path d="m364.32 288.7 1.61-26.71 16.74 7.23z" fill="#ffde00"></path>
  <path d="m326.68 350.65h18.19v43.21h-18.19z" fill="#ffde00"></path>
  <path d="m114.93 121.82-.2 1.14a6 6 0 1 0 4.06.73l.19-1.2.45-2.69-4.06-.68z" fill="#ffde00"></path>
  <path d="m160.38 126.83-.07 1.15a6 6 0 1 0 4.11.29l.07-1.21.16-2.73-4.11-.23z" fill="#ffde00"></path>
  <path d="m207.23 126.14.15 1.15a6 6 0 1 0 4.09-.46l-.16-1.21-.34-2.71-4.08.52z" fill="#ffde00"></path>
  <path d="m392.92 123.93-.11 1.15a6 6 0 1 0 4.1.43l.11-1.2.25-2.73-4.1-.37z" fill="#ffde00"></path>
  <path d="m440.81 127.13.1 1.15a6 6 0 1 0 4.09-.28l-.09-1.21-.22-2.72-4.11.33z" fill="#ffde00"></path>
  <path d="m487.1 122.35.23 1.14a6 6 0 1 0 4.05-.74l-.24-1.19-.52-2.68-4 .79z" fill="#ffde00"></path>
  <path d="m258.72 120.53-.19 1.14a6 6 0 1 0 4.05.73l.2-1.19.45-2.7-4.06-.67z" fill="#ffde00"></path>
  <path d="m301.3 125.52-.06 1.15a6 6 0 1 0 4.1.29l.07-1.21.16-2.72-4.11-.24z" fill="#ffde00"></path>
  <path d="m346.27 124.41.15 1.15a6 6 0 1 0 4.09-.46l-.15-1.21-.35-2.71-4.08.52z" fill="#ffde00"></path>
  <path d="m448.32 396.81h-20.34l3.86 19.39h12.62z" fill="#ffde00"></path>
  <path d="m169.99 435.17h-20.22l3.84 19.28h12.54z" fill="#ffde00"></path>
  <path d="m498.05 101.89h23.96v388.56h-23.96z" fill="#00ab81"></path>
  <path d="m77.98 101.89h23.96v388.56h-23.96z" fill="#00ab81"></path>
  <path d="m166 435.15a3.9 3.9 0 0 0 3.71-3.21 9.61 9.61 0 0 0 -.81-5.36 10.17 10.17 0 0 1 -.88-3.07 19.12 19.12 0 0 1 .47-3.26 7.87 7.87 0 0 0 -.39-3.66c-.57-1.57-1.64-3-2-4.59a29.83 29.83 0 0 1 -.2-4.54 2.41 2.41 0 0 0 -.37-1.26 2 2 0 0 0 -.94-.67 4.59 4.59 0 0 0 -3.79.38 6.7 6.7 0 0 0 -2.58 2.89c-.67 1.37-1 2.94-2 4.09s-2.37 1.64-3 2.9a4.85 4.85 0 0 0 -.39 2.3c0 2.22.46 4.56-.44 6.59-.58 1.33-1.93 2.26-2.34 3.64l-.06.19a5.29 5.29 0 0 0 5.34 6.68z" fill="#00ab81"></path>
  <path d="m441.72 396.81 2.87-.82a10.32 10.32 0 0 1 .84-1.74 35.87 35.87 0 0 0 2-3.05c1.18-2.37.83-5.18.44-7.81l-5.57 3.79-.09.14a19.33 19.33 0 0 0 -.45-8.19c-.76-2.6-2-5-2.6-7.69s-1.33-5.62-.41-8.26c-2.58 2.93-3.16 7.14-2.85 11 .12 1.51.31 3 .5 4.5l-.79-1a20.93 20.93 0 0 1 -4.55-15.07c-1.06 5.52-3.23 10.45-1.3 15.73.86 2.33 2.13 6.3 3.15 8.57.07.16.15.32.23.47-.52-.21-1.06-.39-1.59-.57a23.09 23.09 0 0 1 -6.36-3.45c.62 2.64 2.89 4.51 4.31 6.82a11.39 11.39 0 0 1 1.66 6.23h-.08l10.61.41" fill="#00ab81"></path>
  <path d="m101.94 116.56v82.5h396.11v-82.5zm19.72 13.27a6 6 0 1 1 -6.93-6.87l.2-1.14.44-2.7 4.06.68-.45 2.69-.19 1.2a6 6 0 0 1 2.87 6.14zm16.24 8.29a6 6 0 0 1 -.92-11.75l.11-1.15.25-2.73 4.1.38-.25 2.72-.11 1.21a6 6 0 0 1 -3.18 11.32zm23.72 1.57a6 6 0 0 1 -1.31-11.69l.07-1.15.16-2.73 4.11.23-.16 2.73-.07 1.21a6 6 0 0 1 -2.8 11.42zm25.58 0a6 6 0 0 1 -2.91-11.42l-.09-1.15-.22-2.73 4.1-.33.22 2.73.1 1.2a6 6 0 0 1 -1.2 11.7zm23.61-1.12a6 6 0 0 1 -3.43-11.27l-.15-1.15-.34-2.71 4.08-.52.34 2.71.16 1.21a6 6 0 0 1 -.66 11.73zm23.68-2.68a6 6 0 0 1 -4.17-11l-.22-1.13-.53-2.68 4-.79.53 2.68.23 1.19a6 6 0 0 1 .12 11.75zm31-7.34a6 6 0 1 1 -6.93-6.87l.19-1.14.45-2.69 4.06.67-.45 2.7-.2 1.19a6 6 0 0 1 2.85 6.13zm15.24 8.29a6 6 0 0 1 -.91-11.75l.1-1.15.25-2.72 4.1.37-.25 2.73-.11 1.2a6 6 0 0 1 -3.18 11.32zm21.85 1.55a6 6 0 0 1 -1.31-11.71l.06-1.15.16-2.73 4.11.24-.16 2.72-.07 1.21a6 6 0 0 1 -2.79 11.42zm25.57 0a6 6 0 0 1 -2.94-11.39l-.09-1.15-.22-2.72 4.1-.33.22 2.72.1 1.21a6 6 0 0 1 -1.2 11.69zm21.73-1.56a6 6 0 0 1 -3.43-11.27l-.15-1.15-.34-2.71 4.08-.52.35 2.71.15 1.21a6 6 0 0 1 -.66 11.73zm20.59-3.39a6 6 0 0 1 -4.18-11l-.22-1.13-.52-2.68 4-.79.52 2.68.23 1.19a6 6 0 0 1 .13 11.75zm23.29 3.39a6 6 0 0 1 -.92-11.75l.11-1.15.25-2.72 4.1.37-.25 2.73-.11 1.2a6 6 0 0 1 -3.18 11.32zm24.71 1.73a6 6 0 0 1 -1.32-11.72l.07-1.15.16-2.73 4.11.24-.16 2.73-.07 1.21a6 6 0 0 1 -2.79 11.42zm25.38 1.14a6 6 0 0 1 -2.91-11.42l-.1-1.15-.22-2.72 4.11-.33.22 2.72.05 1.2a6 6 0 0 1 -1.19 11.69zm25.65-1.58a6 6 0 0 1 -3.5-11.27l-.15-1.15-.34-2.71 4.08-.52.34 2.71.16 1.2a6 6 0 0 1 -.66 11.74zm22-3.61a6 6 0 0 1 -4.17-11l-.23-1.14-.52-2.68 4-.79.52 2.68.24 1.19a6 6 0 0 1 .12 11.76z" fill="#00ab81"></path>
  <path d="m101.94 101.89h396.11v14.66h-396.11z" fill="#00ab81"></path>
  <path d="m164.83 307.26 7.22-25.77-18.19 1.35z" fill="#fb715d"></path>
  <path d="m236.49 288.7-1.61-26.71-16.74 7.23z" fill="#fb715d"></path>
  <path d="m473.64 307.33-10.9-24.44 18.19-1.31z" fill="#fb715d"></path>
  <path d="m399.9 301.12-2.75-26.63 17.69 4.42z" fill="#fb715d"></path>
  <path d="m455.24 337.48a17.82 17.82 0 0 0 -35.64 0h-7.73v11.89h51.13v-11.89z" fill="#fb715d"></path>
  <path d="m415.74 452.66h43.38v11.12h-43.38z" fill="#fb715d"></path>
  <path d="m415.74 416.21h43.38v11.12h-43.38z" fill="#fb715d"></path>
  <path d="m415.74 463.78v-11.12h3.86v-25.33h-3.86v-11.13h3.86v-27.6h-3.86v-11.12h3.86v-28.11h-7.73v126.56h7.73v-12.15z" fill="#fb715d"></path>
  <path d="m455.24 349.37v28.11h3.87v11.12h-3.87v27.6h3.87v11.13h-3.87v25.33h3.87v11.12h-3.87v12.15h7.74v-126.56z" fill="#fb715d"></path>
  <path d="m441.24 377.48c.19.55.39 1.1.55 1.65a19.33 19.33 0 0 1 .45 8.19l.09-.14 5.57-3.79a20.77 20.77 0 0 1 .26 5.21h10.95v-11.12z" fill="#fb715d"></path>
  <path d="m425.22 383.35a23.09 23.09 0 0 0 6.36 3.45c.53.18 1.07.36 1.59.57-.08-.15-.16-.31-.23-.47-1-2.27-2.29-6.24-3.15-8.57-.1-.29-.15-.56-.23-.85h-13.83v11.12h12.69c-1.29-1.66-2.72-3.23-3.2-5.25z" fill="#fb715d"></path>
  <path d="m178.24 373.15a18.41 18.41 0 0 0 -36.81 0h-8v12.27h52.79v-12.27z" fill="#fb715d"></path>
  <path d="m137.44 465.93v-11.48h3.99v-28.51h-3.99v-11.48h3.99v-29.03h-7.99v90.5h7.99v-10z" fill="#fb715d"></path>
  <path d="m178.24 385.43v29.03h3.99v11.48h-3.99v28.51h3.99v11.48h-3.99v10h7.99v-90.5z" fill="#fb715d"></path>
  <path d="m137.44 454.45h44.8v11.49h-44.8z" fill="#fb715d"></path>
  <path d="m152.4 424.68c.9-2 .47-4.37.44-6.59a4.85 4.85 0 0 1 .39-2.3 4.26 4.26 0 0 1 1.17-1.33h-17v11.48h14.15a5.76 5.76 0 0 0 .85-1.26z" fill="#fb715d"></path>
  <path d="m167.13 414.46a17.25 17.25 0 0 1 1 2.13 7.87 7.87 0 0 1 .39 3.66 19.12 19.12 0 0 0 -.47 3.26 8 8 0 0 0 .64 2.43h13.53v-11.48z" fill="#fb715d"></path>
  <path d="m137.09 125.22-.11 1.15a6 6 0 1 0 4.1.43l.11-1.21.25-2.72-4.1-.38z" fill="#fb715d"></path>
  <path d="m184.2 127.11.09 1.15a6 6 0 1 0 4.11-.28l-.1-1.2-.22-2.73-4.1.33z" fill="#fb715d"></path>
  <path d="m230.1 123.73.22 1.13a6 6 0 1 0 4.05-.73l-.23-1.19-.53-2.68-4 .79z" fill="#fb715d"></path>
  <path d="m417.19 125.69-.07 1.15a6 6 0 1 0 4.11.3l.07-1.21.16-2.73-4.11-.24z" fill="#fb715d"></path>
  <path d="m465.89 125.7.15 1.15a6 6 0 1 0 4.09-.47l-.16-1.2-.34-2.71-4.08.52z" fill="#fb715d"></path>
  <path d="m279.89 123.93-.1 1.15a6 6 0 1 0 4.09.43l.11-1.2.25-2.73-4.1-.37z" fill="#fb715d"></path>
  <path d="m325.12 125.82.09 1.15a6 6 0 1 0 4.11-.27l-.1-1.21-.22-2.72-4.1.33z" fill="#fb715d"></path>
  <path d="m366 121.29.22 1.13a6 6 0 1 0 4.05-.73l-.23-1.19-.52-2.68-4 .79z" fill="#fb715d"></path>
  <g fill="#1c19a8">
    <path d="m499.46 118h-398.92v-17.51h398.92zm-396.11-2.82h393.3v-11.88h-393.3z"></path>
    <path d="m499.46 208.58h-398.92v-10.92h398.92zm-396.11-2.81h393.3v-5.3h-393.3z"></path>
    <path d="m499.46 223.13h-398.92v-16.9h398.92zm-396.11-2.81h393.3v-11.27h-393.3z"></path>
    <path d="m499.46 255.39h-398.92v-35.54h398.92zm-396.11-2.81h393.3v-29.91h-393.3z"></path>
    <path d="m487.48 491.86h-139v-17.34h139zm-136.23-2.81h133.42v-11.72h-133.42z"></path>
    <path d="m251.76 491.86h-139v-17.34h139zm-136.24-2.81h133.42v-11.72h-133.42z"></path>
    <path d="m523.42 491.86h-26.77v-391.37h26.77zm-24-2.81h21.15v-385.75h-21.11z"></path>
    <path d="m499.46 491.86h-14.79v-239.21h14.79zm-12-2.81h9.17v-233.59h-9.17z"></path>
    <path d="m115.33 491.86h-14.79v-239.21h14.79zm-12-2.81h9.17v-233.59h-9.17z"></path>
    <path d="m351.25 491.86h-102.5v-239.21h102.5zm-99.69-2.81h96.88v-233.59h-96.88zm85.63-12h-74.38v-210.34h74.38v85.35h-9.1v40.4h9.1zm-71.57-2.82h68.75v-78.96h-9.09v-46h9.09v-79.75h-68.75z"></path>
    <path d="m103.35 491.86h-26.77v-391.37h26.77zm-24-2.81h21.15v-385.75h-21.11z"></path>
    <path d="m464.38 350.78h-53.92v-14.7h7.79a19.23 19.23 0 0 1 38.35 0h7.78zm-51.11-2.78h48.3v-9.07h-7.74v-1.41a16.41 16.41 0 1 0 -32.82 0v1.41h-7.74z"></path>
    <path d="m460.52 465.19h-46.19v-13.94h46.19zm-43.38-2.81h40.57v-8.31h-40.57z"></path>
    <path d="m460.52 428.73h-46.19v-13.93h46.19zm-43.38-2.81h40.57v-8.31h-40.57z"></path>
    <path d="m187.64 386.83h-55.64v-15.09h8a19.81 19.81 0 0 1 39.52 0h8zm-52.79-2.83h50v-9.46h-8v-1.41a17 17 0 1 0 -34 0v1.41h-8z"></path>
    <path d="m142.84 477.33h-10.84v-93.33h10.8v31.84h-4v8.68h4v31.31h-4v8.68h4zm-8-2.81h5.16v-7.18h-4v-14.34h4v-25.65h-4v-14.3h4v-26.22h-5.18z"></path>
    <path d="m445.61 417.61h-14.92l-4.43-22.21h23.74zm-12.61-2.81h10.3l3.31-16.58h-16.92z"></path>
    <path d="m430.19 406.51h15.92v2.81h-15.92z"></path>
    <path d="m499.46 200.47h-398.92v-85.32h398.92zm-396.11-2.81h393.3v-65.17a7.39 7.39 0 0 1 -4.88 3.4 7.45 7.45 0 0 1 -5.54-1.12 7.39 7.39 0 0 1 -.46-11.92l-.84-4.29 3-.59h-116.93l.5 2.57a7.44 7.44 0 0 1 5 5.62 7.39 7.39 0 0 1 -5.83 8.67 7.38 7.38 0 0 1 -6-13l-.67-3.83h-99.25l-.63 3.78a7.44 7.44 0 0 1 2.73 7 7.42 7.42 0 0 1 -8.5 6.07 7.39 7.39 0 0 1 -6.07-8.49 7.4 7.4 0 0 1 5-5.82l.42-2.56h-140.7l4 .67-.73 4.39a7.46 7.46 0 0 1 2.73 7 7.39 7.39 0 1 1 -9.55-8.24l.64-3.85h-10.74zm13.18-76.92-.57 3.43-1 .17a4.58 4.58 0 0 0 -2.93 7.17 4.57 4.57 0 0 0 8.22-1.91 4.6 4.6 0 0 0 -2.19-4.7l-.84-.49.57-3.46zm371.7 0 .67 3.41-.86.51a4.57 4.57 0 0 0 3.19 8.43 4.57 4.57 0 0 0 -.09-9l-1-.17-.67-3.44zm-121.06-1.06.66 3.41-.85.51a4.57 4.57 0 0 0 3.19 8.43 4.58 4.58 0 0 0 -.1-9l-.95-.16-.67-3.44zm-106.84-.27-.57 3.43-1 .18a4.57 4.57 0 1 0 5.29 5.25 4.6 4.6 0 0 0 -2.2-4.7l-.83-.48.57-3.46zm232.26 2.15a7.42 7.42 0 0 1 4.06 3.19v-6.75h-4.77zm-49.26 19.53a7.39 7.39 0 0 1 -3.9-13.65l-.35-4.36 6.91-.56.36 4.44a7.48 7.48 0 0 1 4.35 6.15 7.4 7.4 0 0 1 -6.77 8zm-1.22-15.43.28 3.46-.91.41a4.58 4.58 0 0 0 -2.7 4.54 4.52 4.52 0 0 0 4.92 4.19 4.56 4.56 0 0 0 4.19-4.92 4.6 4.6 0 0 0 -3.27-4l-.93-.28-.28-3.49zm-280.11 15.45h-.43a7.39 7.39 0 0 1 -2.57-14.11l.25-4.37 6.92.4-.26 4.45a7.38 7.38 0 0 1 -3.9 13.65zm-.27-2.82a4.58 4.58 0 0 0 2.14-8.74l-.88-.39.2-3.5-1.3-.08-.2 3.48-1 .27a4.6 4.6 0 0 0 -3.3 4.13 4.65 4.65 0 0 0 1.15 3.31 4.56 4.56 0 0 0 3.15 1.52zm25 2.82a7.39 7.39 0 0 1 -3.89-13.66l-.36-4.36 6.91-.55.36 4.44a7.43 7.43 0 0 1 4.35 6.15 7.38 7.38 0 0 1 -6.77 8zm-1.21-15.44.27 3.47-.91.41a4.55 4.55 0 0 0 -2.69 4.54 4.57 4.57 0 0 0 4.92 4.19 4.59 4.59 0 0 0 4.19-4.93 4.59 4.59 0 0 0 -3.27-4l-.94-.28-.28-3.49zm24.53 14.33a7.39 7.39 0 0 1 -4.18-13.47l-.55-4.33 6.87-.88.56 4.42a7.38 7.38 0 0 1 -1.75 14.26 7.54 7.54 0 0 1 -.95 0zm-1.59-15.37.44 3.45-.89.45a4.57 4.57 0 0 0 2.62 8.62 4.57 4.57 0 0 0 .51-9l-.94-.22-.45-3.49zm210.33 15.37h-.43a7.39 7.39 0 0 1 -2.59-14.12l.26-4.37 6.91.41-.26 4.44a7.43 7.43 0 0 1 3.47 6.69 7.38 7.38 0 0 1 -7.36 7zm-.12-15.52-.2 3.47-1 .27a4.57 4.57 0 0 0 1 9 4.69 4.69 0 0 0 3.3-1.15 4.54 4.54 0 0 0 1.52-3.15 4.59 4.59 0 0 0 -2.68-4.43l-.89-.4.2-3.5zm-91 15.37a7.39 7.39 0 0 1 -7.35-6.79 7.41 7.41 0 0 1 3.46-6.86l-.35-4.36 6.9-.56.36 4.44a7.43 7.43 0 0 1 4.35 6.16 7.38 7.38 0 0 1 -6.76 8zm-1.21-15.43.27 3.46-.91.41a4.59 4.59 0 0 0 -2.69 4.55 4.56 4.56 0 0 0 4.87 4.16 4.57 4.57 0 0 0 4.19-4.92 4.58 4.58 0 0 0 -3.27-4l-.93-.27-.29-3.5zm-23.56 15.38h-.44a7.39 7.39 0 0 1 -2.57-14.12l.25-4.36 6.91.39-.25 4.45a7.43 7.43 0 0 1 3.46 6.69 7.38 7.38 0 0 1 -7.36 7zm-.27-2.82a4.73 4.73 0 0 0 3.3-1.15 4.56 4.56 0 0 0 -1.16-7.58l-.89-.4.21-3.5-1.31-.08-.2 3.48-.95.27a4.57 4.57 0 0 0 1 9zm166.07 2.59a7.38 7.38 0 0 1 -4.18-13.46l-.55-4.34 6.88-.87.56 4.42a7.42 7.42 0 0 1 4.63 5.94 7.38 7.38 0 0 1 -6.4 8.25 7.42 7.42 0 0 1 -.94.06zm-1.58-15.37.44 3.46-.89.44a4.57 4.57 0 0 0 2.62 8.62 4.56 4.56 0 0 0 4-5.1 4.6 4.6 0 0 0 -3.46-3.87l-.93-.23-.45-3.48zm-328.67 15.35a5.27 5.27 0 0 1 -.68 0 7.38 7.38 0 0 1 -2.1-14.19l.39-4.36 6.91.64-.41 4.43a7.39 7.39 0 0 1 -4.11 13.52zm-.42-2.83a4.57 4.57 0 0 0 2.43-8.66l-.87-.43.32-3.49-1.3-.12-.32 3.47-1 .24a4.6 4.6 0 0 0 -3.44 4 4.58 4.58 0 0 0 4.14 5zm211.05 1.57a7.38 7.38 0 0 1 -4.17-13.46l-.55-4.34 6.87-.88.56 4.42a7.43 7.43 0 0 1 4.63 5.94 7.38 7.38 0 0 1 -6.4 8.26 7.42 7.42 0 0 1 -.94.06zm-1.58-15.37.44 3.45-.89.45a4.57 4.57 0 0 0 -.75 7.7 4.51 4.51 0 0 0 3.37.92 4.57 4.57 0 0 0 .5-9l-.94-.22-.44-3.49zm46.78 15.34h-.68a7.39 7.39 0 0 1 -6.68-8 7.41 7.41 0 0 1 4.58-6.26l.4-4.36 6.89.63-.4 4.44a7.38 7.38 0 0 1 -4.11 13.51zm.16-15.52-.32 3.46-1 .24a4.61 4.61 0 0 0 -3.44 4 4.58 4.58 0 0 0 4.14 5 4.57 4.57 0 0 0 2.43-8.65l-.87-.43.32-3.49zm-113.19 15.52c-.22 0-.45 0-.67 0a7.38 7.38 0 0 1 -2.11-14.26l.4-4.36 6.9.63-.41 4.44a7.38 7.38 0 0 1 -4.11 13.51zm.16-15.52-.32 3.46-1 .24a4.61 4.61 0 0 0 -3.44 4 4.57 4.57 0 1 0 6.57-3.68l-.87-.43.32-3.49zm-48.06 14.66a7.38 7.38 0 0 1 -4.59-13.17l-.83-4.29 6.79-1.34.86 4.38a7.39 7.39 0 0 1 -.82 14.29 7.55 7.55 0 0 1 -1.41.13zm-2.13-15.24.67 3.41-.86.5a4.57 4.57 0 1 0 3.1-.56l-1-.16-.67-3.44z"></path>
    <path d="m179.26 125.41c-43.27 0-75.49-6.7-76-6.8l.59-2.75c.71.15 72.65 15.09 146 0h.26.25c.71.11 71.46 11.45 123.78 0l.3-.07.31.07c.65.15 66.07 14.42 122.94 0l.69 2.73c-55.49 14.06-119 1.13-123.94.07-51.21 11.11-119.51.74-124.27 0a356.18 356.18 0 0 1 -70.91 6.75z"></path>
    <path d="m143.46 284.32c-25.32 0-41.58-4.62-41.91-4.72l.79-2.7c.7.2 70.61 20.05 147.11-24.07l1.41 2.44a214.32 214.32 0 0 1 -107.4 29.05z"></path>
    <path d="m126.87 311.45-8.87-31.45 22.2 1.59zm-5.09-28.32 5.68 20.09 8.5-19.07z"></path>
    <path d="m165.14 311.38-13.38-29.79 22.18-1.66zm-9.14-27.28 8.55 19 5.63-20.1z"></path>
    <path d="m201.9 305.13-18.22-27.13 21.58-5.38zm-13.65-25.35 11.65 17.33 2.16-20.76z"></path>
    <path d="m238.13 292.5-22.39-23.78 20.42-8.82zm-17.59-22.79 14.31 15.2-1.26-20.84z"></path>
    <path d="m457.34 284.32a214.34 214.34 0 0 1 -107.39-29l1.4-2.44c76.56 44.12 146.42 24.22 147.11 24.02l.8 2.7c-.33.1-16.6 4.72-41.92 4.72z"></path>
    <path d="m473.94 311.45-13.3-29.82 22.19-1.63zm-9.09-27.3 8.5 19.07 5.65-20.09z"></path>
    <path d="m435.67 311.38-8.8-31.45 22.18 1.66zm-5-28.34 5.63 20.1 8.55-19z"></path>
    <path d="m398.91 305.13-3.37-32.48 21.59 5.35zm-.16-28.78 2.16 20.76 11.64-17.33z"></path>
    <path d="m362.68 292.5 2-32.6 20.42 8.82zm4.53-28.43-1.21 20.84 14.32-15.2z"></path>
    <path d="m346.28 395.27h-21v-46h21zm-18.19-2.81h15.38v-40.4h-15.38z"></path>
    <path d="m421 477.33h-10.54v-129.33h10.54v30.93h-3.87v8.31h3.87v30.41h-3.87v8.31h3.87v28.15h-3.87v8.31h3.87zm-7.74-2.81h4.93v-9.33h-3.87v-13.94h3.87v-22.52h-3.87v-13.93h3.87v-24.8h-3.87v-13.92h3.87v-25.3h-4.93z"></path>
    <path d="m464.38 477.33h-10.55v-14.95h3.88v-8.31h-3.88v-28.15h3.88v-8.31h-3.88v-30.41h3.88v-8.31h-3.88v-30.89h10.55zm-7.73-2.81h4.92v-123.74h-4.92v25.3h3.87v13.92h-3.87v24.8h3.87v13.93h-3.87v22.52h3.87v13.94h-3.87z"></path>
    <path d="m187.64 477.33h-10.81v-12.8h4v-8.68h-4v-31.31h4v-8.68h-4v-31.86h10.81zm-8-2.81h5.18v-87.69h-5.18v26.22h4v14.3h-4v25.65h4v14.3h-4z"></path>
    <path d="m155.32 436.59a7 7 0 0 1 -5.61-2.71 6.53 6.53 0 0 1 -1.06-5.76 7.29 7.29 0 0 1 1.55-2.68 6.66 6.66 0 0 0 .92-1.33 9.77 9.77 0 0 0 .38-4.39c0-.54-.06-1.08-.07-1.61a6.29 6.29 0 0 1 .55-3 6.77 6.77 0 0 1 2.13-2.27 5.09 5.09 0 0 0 2.24-3.19c.2-.51.4-1 .64-1.51a8 8 0 0 1 3.15-3.49 5.93 5.93 0 0 1 5-.47 3.47 3.47 0 0 1 1.58 1.14 3.78 3.78 0 0 1 .63 2v1.86a7.28 7.28 0 0 0 1.13 4.79 16.73 16.73 0 0 1 1 2.11 9.34 9.34 0 0 1 .47 4.32c-.06.42-.15.84-.23 1.25a7.14 7.14 0 0 0 -.23 1.75 7.4 7.4 0 0 0 .65 2.28l.14.35a11.14 11.14 0 0 1 .87 6.16 5.33 5.33 0 0 1 -5.08 4.33h-10.7zm7.87-29.91a3.38 3.38 0 0 0 -1.66.46 5.19 5.19 0 0 0 -2 2.28 13.45 13.45 0 0 0 -.54 1.29 9.82 9.82 0 0 1 -1.69 3.11 9.63 9.63 0 0 1 -1.47 1.3 4.63 4.63 0 0 0 -1.34 1.3 4 4 0 0 0 -.24 1.65c0 .5 0 1 .07 1.5a11.93 11.93 0 0 1 -.62 5.68 8.93 8.93 0 0 1 -1.31 2 5.32 5.32 0 0 0 -1 1.52 3.81 3.81 0 0 0 .55 3.45 4.18 4.18 0 0 0 3.37 1.6h10.7a2.52 2.52 0 0 0 2.33-2.09 8.52 8.52 0 0 0 -.74-4.57l-.13-.34a7.78 7.78 0 0 1 -.56-5.63c.08-.35.15-.7.2-1.05a6.37 6.37 0 0 0 -.33-3 13.35 13.35 0 0 0 -.82-1.76 12.35 12.35 0 0 1 -1.23-3 12.54 12.54 0 0 1 -.21-3.14c0-.54 0-1.07 0-1.6a1.38 1.38 0 0 0 -.1-.55.91.91 0 0 0 -.33-.18 2.67 2.67 0 0 0 -.9-.23z"></path>
    <path d="m183.64 467.34h-47.64v-14.34h47.61zm-44.79-2.81h42v-8.68h-42z"></path>
    <path d="m152.27 427.35h-16.27v-14.3h22.28l-3 2.49a2.92 2.92 0 0 0 -.81.88 3.82 3.82 0 0 0 -.25 1.65c0 .5 0 1 .07 1.5a11.93 11.93 0 0 1 -.62 5.68 7.36 7.36 0 0 1 -1 1.56zm-13.42-2.81h12a4.63 4.63 0 0 0 .24-.43 9.77 9.77 0 0 0 .38-4.39c0-.54-.06-1.08-.07-1.61a7.15 7.15 0 0 1 .26-2.25h-12.81z"></path>
    <path d="m183.64 427.35h-15.9l-.35-.9a9 9 0 0 1 -.73-2.88 9.82 9.82 0 0 1 .28-2.45c.08-.35.15-.7.2-1.05a6.37 6.37 0 0 0 -.33-3 13.69 13.69 0 0 0 -.8-1.74l-1.08-2.05 2.21-.23h16.5zm-13.95-2.81h11.14v-8.68h-11.46l.09.26a9.34 9.34 0 0 1 .47 4.32c-.06.42-.15.84-.23 1.25a7.14 7.14 0 0 0 -.23 1.75 4.05 4.05 0 0 0 .22 1.1z"></path>
    <path d="m158.76 435.61c-.07-.57-1.62-14 1.22-22.36l2.67.9c-2.64 7.81-1.11 21-1.1 21.13z"></path>
    <path d="m167.3 455.85h-14.84l-4.4-22.09h23.65zm-12.54-2.85h10.24l3.28-16.46h-16.8z"></path>
    <path d="m459.11 390h-11a1.4 1.4 0 0 1 -1.39-1.57 14.78 14.78 0 0 0 0-2.58l-3.58 2.43a1.47 1.47 0 0 1 -1.39.29 1.37 1.37 0 0 1 -1-1.45 18 18 0 0 0 -.4-7.6c-.16-.52-.35-1-.54-1.57a1.42 1.42 0 0 1 1.33-1.88h17.87a1.41 1.41 0 0 1 1.41 1.4v11.13a1.41 1.41 0 0 1 -1.31 1.4zm-9.47-2.81h8.07v-8.31h-14.52a19.09 19.09 0 0 1 .69 5.54l3.23-2.2a1.46 1.46 0 0 1 1.36-.13 1.42 1.42 0 0 1 .82 1.09 26.23 26.23 0 0 1 .35 4.02z"></path>
    <path d="m428.42 390h-12.69a1.41 1.41 0 0 1 -1.4-1.41v-11.11a1.4 1.4 0 0 1 1.4-1.4h13.83a1.39 1.39 0 0 1 1.35 1s.09.35.1.37.06.25.1.38c.27.72.58 1.61.91 2.55.71 2.07 1.53 4.42 2.2 5.93l.21.42a1.4 1.4 0 0 1 -.24 1.58 1.37 1.37 0 0 1 -1.55.34c-.42-.17-.84-.31-1.26-.45-.75-.27-1.46-.55-2.15-.86l.3.38a1.41 1.41 0 0 1 -1.11 2.27zm-11.28-2.81h8.42a10 10 0 0 1 -1.71-3.53 1.41 1.41 0 0 1 2.23-1.43 22.11 22.11 0 0 0 4.55 2.68c-.43-1.17-.86-2.42-1.27-3.59-.31-.9-.6-1.74-.86-2.44h-11.36z"></path>
    <path d="m441.72 398.22h-.05l-10.61-.41a1.42 1.42 0 0 1 -1.36-1.43 1.79 1.79 0 0 1 .09-.46 10 10 0 0 0 -1.46-5 21.56 21.56 0 0 0 -1.58-2.15 13.13 13.13 0 0 1 -2.9-5.08 1.4 1.4 0 0 1 2.23-1.43 22.11 22.11 0 0 0 4.55 2.68c-.43-1.17-.86-2.42-1.27-3.59-.32-.93-.63-1.8-.89-2.52-1.63-4.47-.59-8.72.41-12.83.3-1.19.59-2.4.83-3.64a1.36 1.36 0 0 1 1.58-1.13 1.41 1.41 0 0 1 1.2 1.53 19.43 19.43 0 0 0 2 10.53c-.14-3.41.4-7.77 3.25-11a1.39 1.39 0 0 1 1.76-.29 1.41 1.41 0 0 1 .62 1.68c-.72 2.09-.18 4.57.35 7l.11.54a30.12 30.12 0 0 0 1.41 4.28c.42 1.09.84 2.19 1.17 3.31a19.12 19.12 0 0 1 .74 5.7l3.23-2.2a1.46 1.46 0 0 1 1.36-.13 1.42 1.42 0 0 1 .82 1.09c.36 2.44.85 5.79-.57 8.64a14.4 14.4 0 0 1 -1.32 2.06c-.27.36-.53.73-.77 1.11a7.79 7.79 0 0 0 -.72 1.48 1.38 1.38 0 0 1 -.93.86l-2.87.82a1.27 1.27 0 0 1 -.41-.02zm-9.16-3.17 9 .35 2-.57a10.33 10.33 0 0 1 .69-1.32c.27-.44.58-.86.89-1.28a11.94 11.94 0 0 0 1.07-1.65 8.7 8.7 0 0 0 .59-4.73l-3.59 2.44a1.47 1.47 0 0 1 -1.39.29 1.37 1.37 0 0 1 -1-1.45 18 18 0 0 0 -.4-7.6c-.32-1-.71-2.08-1.11-3.1a32.14 32.14 0 0 1 -1.52-4.69l-.12-.54c-.1-.43-.19-.87-.28-1.32a19.4 19.4 0 0 0 -.09 4.21c.11 1.29.26 2.56.42 3.84l.07.61a1.4 1.4 0 0 1 -2.51 1l-.79-1a21.94 21.94 0 0 1 -3.89-7.27 12.94 12.94 0 0 0 .48 6.58c.27.73.58 1.62.91 2.56.71 2.07 1.53 4.42 2.2 5.93l.21.42a1.4 1.4 0 0 1 -.24 1.58 1.37 1.37 0 0 1 -1.55.34c-.42-.17-.84-.31-1.26-.45-.75-.26-1.46-.55-2.14-.85a21.1 21.1 0 0 1 1.49 2.06 13 13 0 0 1 1.86 5.61z"></path>
    <path d="m115.78 136.23a7.29 7.29 0 0 1 -1.23-.1 7.38 7.38 0 0 1 -1-14.31l.72-4.32 6.83 1.14-.73 4.39a7.46 7.46 0 0 1 2.73 7 7.39 7.39 0 0 1 -7.27 6.17zm.53-14.18-.35 2.12-1 .17a4.58 4.58 0 0 0 -2.93 7.17 4.57 4.57 0 0 0 8.22-1.91 4.6 4.6 0 0 0 -2.19-4.7l-.84-.49.57-3.46-1.28-.21z"></path>
    <path d="m138.45 139.55a5.27 5.27 0 0 1 -.68 0 7.38 7.38 0 0 1 -2.1-14.19l.4-4.36 6.9.64-.41 4.43a7.39 7.39 0 0 1 -4.11 13.52zm0-14.2-.19 2.14-1 .24a4.6 4.6 0 0 0 -3.44 4 4.58 4.58 0 0 0 4.14 5 4.57 4.57 0 0 0 2.43-8.66l-.87-.43.32-3.49-1.3-.12z"></path>
    <path d="m162 141.11h-.43a7.39 7.39 0 0 1 -2.57-14.11l.25-4.37 6.92.4-.26 4.45a7.43 7.43 0 0 1 3.47 6.69 7.38 7.38 0 0 1 -7.37 7zm-.19-14.2-.12 2.15-1 .27a4.57 4.57 0 1 0 3.14.22l-.88-.39.2-3.5-1.3-.08z"></path>
    <path d="m186.7 141.11a7.39 7.39 0 0 1 -7.34-6.8 7.41 7.41 0 0 1 3.46-6.86l-.36-4.36 6.91-.55.36 4.44a7.38 7.38 0 0 1 -2.42 14.1 6.08 6.08 0 0 1 -.61.03zm-1.2-15.44.27 3.47-.91.41a4.55 4.55 0 0 0 -2.69 4.54 4.57 4.57 0 0 0 4.92 4.19 4.59 4.59 0 0 0 4.19-4.93 4.59 4.59 0 0 0 -3.27-4l-.94-.28-.28-3.49z"></path>
    <path d="m210.05 140a7.39 7.39 0 0 1 -4.18-13.47l-.55-4.33 6.87-.88.56 4.42a7.45 7.45 0 0 1 4.63 5.94 7.39 7.39 0 0 1 -6.38 8.32 7.54 7.54 0 0 1 -.95 0zm-1.42-14 .27 2.14-.89.45a4.57 4.57 0 0 0 2.62 8.62 4.58 4.58 0 0 0 4-5.11 4.62 4.62 0 0 0 -3.45-3.87l-.94-.22-.45-3.49-1.29.17z"></path>
    <path d="m233.35 137.4a7.38 7.38 0 0 1 -4.59-13.17l-.83-4.29 6.79-1.34.86 4.38a7.45 7.45 0 0 1 5 5.62 7.39 7.39 0 0 1 -5.83 8.67 7.55 7.55 0 0 1 -1.4.13zm-2.13-15.24.67 3.41-.86.5a4.57 4.57 0 0 0 3.19 8.43 4.56 4.56 0 0 0 3.61-5.36 4.61 4.61 0 0 0 -3.7-3.63l-1-.16-.67-3.44z"></path>
    <path d="m394.29 138.26q-.35 0-.69 0a7.39 7.39 0 0 1 -6.68-8 7.41 7.41 0 0 1 4.58-6.26l.4-4.36 6.89.63-.4 4.44a7.42 7.42 0 0 1 3.23 6.8 7.37 7.37 0 0 1 -7.33 6.71zm.15-15.52-.32 3.46-1 .24a4.61 4.61 0 0 0 -3.44 4 4.57 4.57 0 0 0 7.48 3.93 4.57 4.57 0 0 0 -.91-7.62l-.87-.42.32-3.49z"></path>
    <path d="m418.78 140h-.42a7.39 7.39 0 0 1 -2.59-14.12l.26-4.37 6.91.41-.26 4.44a7.38 7.38 0 0 1 -3.9 13.65zm-.19-14.2-.12 2.15-1 .27a4.58 4.58 0 0 0 -2.15 7.44 4.54 4.54 0 0 0 3.15 1.52 4.69 4.69 0 0 0 3.3-1.15 4.54 4.54 0 0 0 1.52-3.15 4.59 4.59 0 0 0 -2.68-4.43l-.89-.4.2-3.5-1.3-.07z"></path>
    <path d="m443.33 141.13a7.39 7.39 0 0 1 -3.9-13.65l-.35-4.36 6.91-.56.36 4.44a7.48 7.48 0 0 1 4.35 6.15 7.4 7.4 0 0 1 -6.77 8zm-1.22-15.43.28 3.46-.91.41a4.57 4.57 0 1 0 5.34 7.14 4.53 4.53 0 0 0 1.07-3.33 4.6 4.6 0 0 0 -3.27-4l-.93-.28-.28-3.49z"></path>
    <path d="m468.7 139.57a7.38 7.38 0 0 1 -4.18-13.46l-.55-4.34 6.88-.87.56 4.42a7.42 7.42 0 0 1 4.63 5.94 7.38 7.38 0 0 1 -6.4 8.25 7.42 7.42 0 0 1 -.94.06zm-1.41-14 .27 2.14-.89.44a4.58 4.58 0 0 0 -2.49 4.67 4.58 4.58 0 0 0 5.11 3.95 4.56 4.56 0 0 0 4-5.1 4.6 4.6 0 0 0 -3.46-3.87l-.93-.23-.45-3.48-1.29.16z"></path>
    <path d="m490.34 136a7.38 7.38 0 0 1 -4.57-13.17l-.84-4.3 6.8-1.33.86 4.37a7.44 7.44 0 0 1 5 5.63 7.39 7.39 0 0 1 -5.83 8.66 7.78 7.78 0 0 1 -1.42.14zm-1.85-14 .41 2.12-.86.5a4.57 4.57 0 1 0 3.1-.56l-1-.17-.67-3.44-1.28.25z"></path>
    <path d="m259.58 135a7.3 7.3 0 0 1 -1.23-.11 7.38 7.38 0 0 1 -1.05-14.31l.71-4.31 6.84 1.13-.73 4.4a7.44 7.44 0 0 1 2.73 7 7.41 7.41 0 0 1 -7.27 6.18zm.75-15.5-.57 3.43-1 .18a4.56 4.56 0 0 0 -2.93 7.16 4.52 4.52 0 0 0 3 1.85 4.57 4.57 0 0 0 3.06-8.46l-.83-.48.57-3.46z"></path>
    <path d="m281.27 138.26q-.34 0-.69 0a7.38 7.38 0 0 1 -2.11-14.26l.4-4.36 6.9.63-.41 4.44a7.42 7.42 0 0 1 3.24 6.8 7.37 7.37 0 0 1 -7.33 6.71zm.14-15.52-.32 3.46-1 .24a4.61 4.61 0 0 0 -3.44 4 4.57 4.57 0 0 0 9.11.84 4.61 4.61 0 0 0 -2.54-4.53l-.87-.42.32-3.49z"></path>
    <path d="m302.89 139.8h-.43a7.39 7.39 0 0 1 -2.57-14.12l.25-4.36 6.91.39-.25 4.45a7.39 7.39 0 0 1 -3.91 13.65zm-.11-15.53-.2 3.48-.95.27a4.57 4.57 0 0 0 1 9 4.73 4.73 0 0 0 3.3-1.15 4.56 4.56 0 0 0 -1.16-7.58l-.89-.4.21-3.5z"></path>
    <path d="m327.63 139.82a7.39 7.39 0 0 1 -7.35-6.79 7.41 7.41 0 0 1 3.46-6.86l-.35-4.36 6.9-.56.36 4.44a7.45 7.45 0 0 1 4.35 6.16 7.38 7.38 0 0 1 -6.76 8zm-1.21-15.43.27 3.46-.91.41a4.59 4.59 0 0 0 -2.69 4.55 4.57 4.57 0 0 0 9.11-.74 4.6 4.6 0 0 0 -3.27-4l-.93-.27-.29-3.5z"></path>
    <path d="m349.08 138.29a7.4 7.4 0 0 1 -7.31-6.46 7.4 7.4 0 0 1 3.14-7l-.55-4.33 6.87-.88.56 4.42a7.43 7.43 0 0 1 4.63 5.94 7.38 7.38 0 0 1 -6.4 8.26 7.42 7.42 0 0 1 -.94.05zm-1.58-15.37.44 3.45-.89.45a4.57 4.57 0 0 0 -.75 7.7 4.51 4.51 0 0 0 3.37.92 4.59 4.59 0 0 0 3-1.73 4.52 4.52 0 0 0 .92-3.38 4.6 4.6 0 0 0 -3.46-3.87l-.94-.22-.44-3.49z"></path>
    <path d="m369.29 135a7.38 7.38 0 0 1 -4.58-13.17l-.85-4.29 6.81-1.34.85 4.38a7.44 7.44 0 0 1 5 5.62 7.39 7.39 0 0 1 -5.83 8.67 7.66 7.66 0 0 1 -1.4.13zm-2.12-15.24.66 3.41-.85.51a4.57 4.57 0 0 0 3.19 8.43 4.59 4.59 0 0 0 3.61-5.37 4.63 4.63 0 0 0 -3.71-3.63l-.95-.16-.67-3.44z"></path>
    <path d="m354.16 158.27a10.37 10.37 0 0 0 -5-7.71 9.62 9.62 0 0 0 -4.21-1.25 10.27 10.27 0 0 0 -6.95 1.69 16.68 16.68 0 0 0 -2.43 2.17c-.24-.26-.15-.51-.18-.74-.38-2.82-2.74-4-5-2.46a1.14 1.14 0 0 0 -.6 1.31 23.21 23.21 0 0 1 .28 4.49c0 3.51-.59 7-.7 10.49a44.47 44.47 0 0 1 -.2 5.29 45.56 45.56 0 0 0 -.43 10.76c.23 2.45 1.47 3.75 3.78 3.75a2.51 2.51 0 0 0 2.33-3.7 9 9 0 0 1 -1.06-3.75c0-.71 0-1.43 0-2.14 0-.93 0-.93.8-.51l.75.41a15.48 15.48 0 0 0 9.39 1.53c4.06-.57 6.52-3.23 8.08-6.84a23 23 0 0 0 1.35-12.79zm-4.94 6.08a27.12 27.12 0 0 1 -1.62 5.55c-1.46 3.27-3.89 4.58-7.42 4a10.72 10.72 0 0 1 -2.42-.6 5.22 5.22 0 0 1 -3.07-3.37 8.47 8.47 0 0 1 -.47-3.47c.45-4.76 2.19-8.89 6-12a5.63 5.63 0 0 1 4.11-1.16 4.34 4.34 0 0 1 3.61 2.38 12.25 12.25 0 0 1 1.28 8.67z"></path>
    <path d="m258.84 185a27.29 27.29 0 0 1 -8.67-2 10.7 10.7 0 0 1 -3.76-2.29 2.69 2.69 0 0 1 -.71-2.95 2.37 2.37 0 0 1 2.59-1.37 3.8 3.8 0 0 1 2.15 1 4.78 4.78 0 0 1 .74.68 7.8 7.8 0 0 0 5.74 2.5 20.52 20.52 0 0 0 4.5 0 4.06 4.06 0 0 0 .69-.16c1.45-.48 1.8-1.42 1-2.69a15.56 15.56 0 0 0 -4.41-4c-2.21-1.54-4.53-2.92-6.61-4.64s-3.89-3.64-4.57-6.33a12.69 12.69 0 0 1 2.06-10.94 11.34 11.34 0 0 1 4.18-3.72 9.07 9.07 0 0 1 4.67-.81 9.64 9.64 0 0 1 7.75 4.23 11 11 0 0 1 1.68 5.18c.13 1.35.36 2.69.55 4a6.08 6.08 0 0 1 -1.27 4.79 2.24 2.24 0 0 1 -2.19.78 2.93 2.93 0 0 1 -2.43-3.05 14.79 14.79 0 0 1 .44-2.39 10.5 10.5 0 0 0 -.47-6c-1-2.79-4.33-3.11-6.25-2a7.29 7.29 0 0 0 -2.44 10.67 18.74 18.74 0 0 0 5 4.62c2.57 1.81 5.25 3.48 7.65 5.53a9.15 9.15 0 0 1 2.38 3 4.69 4.69 0 0 1 -1 5.46c-1.92 1.81-4.34 2.4-6.84 2.77a10.31 10.31 0 0 1 -2.15.13z"></path>
    <path d="m290 159.25c0 1.67-.1 3.34-.11 5a11.71 11.71 0 0 0 .49 3.38 4.7 4.7 0 0 0 .28.74 1.78 1.78 0 0 0 3.17.44 6.9 6.9 0 0 0 1.36-2.58 32.51 32.51 0 0 0 1.55-9.28c0-.83-.06-1.67-.07-2.5a1.65 1.65 0 0 0 -.61-1.1 1.63 1.63 0 0 1 -.3-1.92 3 3 0 0 1 2.24-1.82 2 2 0 0 1 2.31 1 10.93 10.93 0 0 1 1.37 4.78 29.78 29.78 0 0 1 -2.26 12.22 15.84 15.84 0 0 1 -2.63 4.8c-2.3 2.67-5.55 2.36-7.82.4a10.44 10.44 0 0 1 -2.06-2.54c-.25-.41-.38-.5-.64 0a15.28 15.28 0 0 1 -1.22 2.1c-2 2.84-6.28 2.36-8.25.23a12.61 12.61 0 0 1 -2.73-5.06 31.77 31.77 0 0 1 -1.25-9.25 42.64 42.64 0 0 1 .39-6.78 2.12 2.12 0 0 1 2.15-1.89 4.27 4.27 0 0 1 3.28 1.5 1.44 1.44 0 0 1 .34 1 6.22 6.22 0 0 1 -.21 1.92 24.6 24.6 0 0 0 -.48 7.75 22.65 22.65 0 0 0 .61 5.31 7 7 0 0 0 .44 1.21 1.45 1.45 0 0 0 2.41.59 4.19 4.19 0 0 0 1.37-2 21 21 0 0 0 1.21-5.43c.27-2.59.26-5.19.33-7.79.06-1.92.82-2.68 2.67-2.66a2.54 2.54 0 0 1 2.79 2.75c0 1.81-.07 3.63-.11 5.44z"></path>
    <path d="m325.62 162.23c-.21-5.48-2.5-9.65-7.5-12.15a6.47 6.47 0 0 0 -6.6.48 12.1 12.1 0 0 0 -4.26 5.1 18.76 18.76 0 0 0 -1.72 13.78 8.94 8.94 0 0 0 8.94 7.07c.57 0 1.15 0 1.71-.07 4.15-.56 6.67-3.12 8.24-6.79a16.9 16.9 0 0 0 1.19-7.42zm-7.73-8.41c.07-.46.35-.8.63-.76s.45.45.39.91-.35.8-.63.75-.45-.44-.39-.9zm-1.06-.69c.28 0 .53.35.56.82s-.19.85-.47.86-.53-.35-.56-.81.19-.86.47-.87zm-1.75.44c.46 0 .93.73.89 1.37 0 .38-.07.8-.59.83s-.93-.77-.92-1.45c.01-.41.09-.77.62-.75zm-2.55.38c.48-.24.75.18 1 .45a2 2 0 0 1 .41 1.38c0 .3-.1.69-.5.82s-.66-.17-.89-.45a2.1 2.1 0 0 1 -.47-1.09.94.94 0 0 1 .45-1.06zm-2.24 3.72a2.44 2.44 0 0 1 -1.6-2.16 1.06 1.06 0 0 1 1.63-1 2.76 2.76 0 0 1 1.58 1.83 1.06 1.06 0 0 1 -.33 1.23 1.19 1.19 0 0 1 -1.28.1zm10.25 15.19c-.23.32-.4.36-.59 0a2 2 0 0 1 -.16-2 2.35 2.35 0 0 0 .19-2c-.2.52-.38 1.05-.58 1.57 0 .12-.1.29-.27.28s-.16-.16-.22-.26c-.43-.81-1-1.6-.37-2.58a.78.78 0 0 0 0-.7c-.29 0-.3.27-.4.44s-.07.5-.34.48-.27-.3-.37-.49a7.43 7.43 0 0 0 -1-1.73c-.07.68.33 1.07.49 1.53l.09.2c.47 1 .47 1-.57.95a2.13 2.13 0 0 0 -.35.06.76.76 0 0 0 .71.44c.93 0 1.26.61 1.47 1.36.07.27.38.55.17.79s-.58.08-.88.05-1-.29-1 0 .57.42.9.61a1.53 1.53 0 0 0 .49.11c1.05.11 1.09.17 1.33 1.19.14.56-.1.67-.57.69a3 3 0 0 1 -3.13-3.37 26 26 0 0 0 .44-4.9c0-.44.19-.44.47-.28a9.89 9.89 0 0 1 4.42 4.14 3.16 3.16 0 0 1 -.37 3.42zm1-5.29c0 .24 0 .53-.26.62s-.4-.2-.54-.37a13.54 13.54 0 0 0 -5.56-4 8.21 8.21 0 0 1 -3.1-2.24 3.61 3.61 0 0 1 -.67-1.25c-.54-1.66.06-2.86 1.8-3a4 4 0 0 0 3.4-1.62c.64-.84 1.8-.65 2.67.16a8 8 0 0 1 2.15 4 16.83 16.83 0 0 1 .18 4.7c.01 1-.01 2-.04 3z"></path>
    <path d="m320.92 163.72c0 .71.06 1.42.08 2.14 0 .15.06.34-.11.43s-.29-.08-.39-.19a11.85 11.85 0 0 0 -4.62-2.82 8.61 8.61 0 0 1 -2.09-1.12 3.32 3.32 0 0 1 -1.32-2.18 1.23 1.23 0 0 1 .77-1.34 4.27 4.27 0 0 1 2-.38.77.77 0 0 0 .76-.43c1.05-1.78 2.15-1.83 3.41-.15a7.52 7.52 0 0 1 1.46 4.14c0 .63.06 1.27.08 1.9z"></path>
    <path d="m311.68 156.78a.72.72 0 0 1 -.86.73 2.19 2.19 0 0 1 -1.86-2.09.72.72 0 0 1 .9-.75 2.49 2.49 0 0 1 1.82 2.11z"></path>
  </g>
</svg>
