<?xml version="1.0" encoding="UTF-8"?>
<!-- Generator: Adobe Illustrator 24.0.1, SVG Export Plug-In . SVG Version: 6.00 Build 0)  -->
<svg xmlns="http://www.w3.org/2000/svg" xmlns:xlink="http://www.w3.org/1999/xlink" x="0px" y="0px" viewBox="0 0 600 600" style="enable-background:new 0 0 600 600;" xml:space="preserve">
<style type="text/css">
	.st0{fill:#FFFFFF;}
	
		.st1{fill-rule:evenodd;clip-rule:evenodd;fill:#FFDE00;stroke:#1C19A8;stroke-width:2.82;stroke-linejoin:round;stroke-miterlimit:10;}
	
		.st2{fill-rule:evenodd;clip-rule:evenodd;fill:#FB715D;stroke:#1C19A8;stroke-width:2.82;stroke-linejoin:round;stroke-miterlimit:10;}
	.st3{fill:#00AB81;stroke:#1C19A8;stroke-width:2.82;stroke-linejoin:round;stroke-miterlimit:10;}
	.st4{fill:#FB715D;stroke:#1C19A8;stroke-width:2.82;stroke-linejoin:round;stroke-miterlimit:10;}
	.st5{fill:none;stroke:#1C19A8;stroke-width:2.82;stroke-miterlimit:10;}
	.st6{fill:#FFDE00;stroke:#1C19A8;stroke-width:2.82;stroke-linejoin:round;stroke-miterlimit:10;}
	.st7{fill-rule:evenodd;clip-rule:evenodd;fill:#1C19A8;stroke:#1C19A8;stroke-width:2.82;stroke-miterlimit:10;}
	.st8{fill:#FFFFFF;stroke:#1C19A8;stroke-width:2.82;stroke-linejoin:round;stroke-miterlimit:10;}
	.st9{fill:url(#);}
	
		.st10{fill-rule:evenodd;clip-rule:evenodd;fill:#00AB81;stroke:#1C19A8;stroke-width:2.82;stroke-linejoin:round;stroke-miterlimit:10;}
	.st11{fill:#1C19A8;stroke:#1C19A8;stroke-width:2.82;stroke-miterlimit:10;}
	.st12{fill:#1C19A8;stroke:#1C19A8;stroke-width:2.82;stroke-linejoin:round;stroke-miterlimit:10;}
	.st13{fill:#1C19A8;}
	.st14{fill:none;stroke:#1C19A8;stroke-width:2.82;stroke-linejoin:round;stroke-miterlimit:10;}
	.st15{fill:#FFDE00;}
	.st16{fill:#00AB81;}
	.st17{fill:#FB715D;}
	.st18{fill:#9D9D9C;stroke:#1C19A8;stroke-width:2.82;stroke-linejoin:round;stroke-miterlimit:10;}
	.st19{fill-rule:evenodd;clip-rule:evenodd;fill:#1C19A8;stroke:#1C19A8;stroke-miterlimit:10;}
	.st20{fill-rule:evenodd;clip-rule:evenodd;fill:#1C19A8;stroke:#1C19A8;stroke-width:1.0222;stroke-miterlimit:10;}
	.st21{fill:#EDEDED;stroke:#1C19A8;stroke-width:2.82;stroke-linejoin:round;stroke-miterlimit:10;}
	.st22{fill:#EDEDED;stroke:#1C19A8;stroke-width:2.82;stroke-linecap:round;stroke-linejoin:round;stroke-miterlimit:10;}
	.st23{fill-rule:evenodd;clip-rule:evenodd;fill:#00AB81;}
	.st24{fill-rule:evenodd;clip-rule:evenodd;fill:#FB715D;}
	.st25{fill:none;stroke:#1C19A8;stroke-width:2.82;stroke-linecap:round;stroke-linejoin:round;stroke-miterlimit:10;}
	.st26{fill-rule:evenodd;clip-rule:evenodd;fill:#FFDE00;}
	.st27{fill:#FB715D;stroke:#1C19A8;stroke-width:2.82;stroke-linecap:round;stroke-linejoin:round;stroke-miterlimit:10;}
	.st28{fill:#FFFFFF;stroke:#1C19A8;stroke-width:2.82;stroke-linecap:round;stroke-linejoin:round;stroke-miterlimit:10;}
	.st29{fill:none;stroke:#1C19A8;stroke-width:2;stroke-miterlimit:10;}
	.st30{fill:#00AB81;stroke:#1C19A8;stroke-width:2.4933;stroke-linejoin:round;stroke-miterlimit:10;}
	.st31{fill:#FFDE00;stroke:#1C19A8;stroke-width:2.82;stroke-miterlimit:10;}
	.st32{fill:#FB715D;stroke:#1C19A8;stroke-width:2.82;stroke-miterlimit:10;}
	.st33{fill:#00AB81;stroke:#1C19A8;stroke-width:2.82;stroke-miterlimit:10;}
	.st34{fill:#FFFFFF;stroke:#1C19A8;stroke-width:2.82;stroke-miterlimit:10;}
	.st35{fill:url(#);stroke:#1C19A8;stroke-width:2.82;stroke-linejoin:round;stroke-miterlimit:10;}
	.st36{fill:#1C19A8;stroke:#1C19A8;stroke-miterlimit:10;}
	.st37{fill:none;stroke:#1C19A8;stroke-miterlimit:10;}
	.st38{fill:#FFDE00;stroke:#1C19A8;stroke-width:2.82;stroke-linecap:round;stroke-linejoin:round;stroke-miterlimit:10;}
	.st39{clip-path:url(#XMLID_4_);}
	.st40{clip-path:url(#XMLID_5_);}
	.st41{clip-path:url(#XMLID_5_);fill:#00AB81;stroke:#1C19A8;stroke-width:2.82;stroke-linejoin:round;stroke-miterlimit:10;}
	.st42{clip-path:url(#XMLID_5_);fill:#FFDE00;stroke:#1C19A8;stroke-width:2.82;stroke-linejoin:round;stroke-miterlimit:10;}
	.st43{fill:url(#);stroke:#1C19A8;stroke-width:2.82;stroke-miterlimit:10;}
	.st44{clip-path:url(#SVGID_2_);}
	.st45{clip-path:url(#SVGID_4_);}
	.st46{fill:#FB715D;stroke:#1D1D1B;stroke-width:2.8125;stroke-linejoin:round;stroke-miterlimit:10;}
	
		.st47{fill-rule:evenodd;clip-rule:evenodd;fill:#00AB81;stroke:#1C19A8;stroke-width:2.8125;stroke-linejoin:round;stroke-miterlimit:10;}
	.st48{fill:#1C19A8;stroke:#1C19A8;stroke-width:2.8125;stroke-miterlimit:10;}
	.st49{fill:none;stroke:#1C19A8;stroke-width:2.8125;stroke-miterlimit:10;}
	.st50{fill:#FB715D;stroke:#1C19A8;stroke-width:2.8125;stroke-linejoin:round;stroke-miterlimit:10;}
	.st51{fill:#00AB81;stroke:#1C19A8;stroke-width:2.8125;stroke-linejoin:round;stroke-miterlimit:10;}
	
		.st52{fill-rule:evenodd;clip-rule:evenodd;fill:#FB715D;stroke:#1C19A8;stroke-width:2.8125;stroke-linejoin:round;stroke-miterlimit:10;}
	.st53{fill:#FFDE00;stroke:#1C19A8;stroke-width:2.8125;stroke-miterlimit:10;}
	.st54{fill:#FFDE00;stroke:#1C19A8;stroke-width:2.8125;stroke-linejoin:round;stroke-miterlimit:10;}
	.st55{fill:#1C19A8;stroke:#1C19A8;stroke-width:2.8125;stroke-linejoin:round;stroke-miterlimit:10;}
	
		.st56{fill-rule:evenodd;clip-rule:evenodd;fill:#FFDE00;stroke:#1C19A8;stroke-width:2.8125;stroke-linejoin:round;stroke-miterlimit:10;}
	.st57{fill:#00AB81;stroke:#1C19A8;stroke-width:2.8125;stroke-miterlimit:10;}
	.st58{fill:#1C19A8;stroke:#1C19A8;stroke-width:0.1875;stroke-miterlimit:10;}
	.st59{fill:#1C19A8;stroke:#1C19A8;stroke-width:0.75;stroke-linecap:round;stroke-linejoin:round;stroke-miterlimit:10;}
	.st60{fill:none;stroke:#1C19A8;stroke-width:2.8125;stroke-linejoin:round;stroke-miterlimit:10;}
	.st61{fill:#FB715D;stroke:#1C19A8;stroke-width:2.8125;stroke-miterlimit:10;}
	.st62{fill:#F6F6F6;stroke:#1C19A8;stroke-width:2.8125;stroke-linejoin:round;stroke-miterlimit:10;}
	.st63{fill:#FFFFFF;stroke:#1C19A8;stroke-width:2.8125;stroke-miterlimit:10;}
	.st64{fill:none;stroke:#1C19A8;stroke-width:2.8125;stroke-linecap:round;stroke-linejoin:round;stroke-miterlimit:10;}
	.st65{fill:url(#);stroke:#1C19A8;stroke-width:2.8125;stroke-miterlimit:10;}
	.st66{fill:#FFFFFF;stroke:#1C19A8;stroke-width:2.8125;stroke-linecap:round;stroke-linejoin:round;stroke-miterlimit:10;}
	.st67{fill:#FFFFFF;stroke:#1C19A8;stroke-width:2.8125;stroke-linejoin:round;stroke-miterlimit:10;}
	.st68{fill:none;stroke:#1C19A8;stroke-width:8.4375;stroke-linejoin:round;stroke-miterlimit:10;}
	.st69{fill:#00AB81;stroke:#1C19A8;stroke-width:2.8125;stroke-linecap:round;stroke-linejoin:round;stroke-miterlimit:10;}
	.st70{fill:#FFDE00;stroke:#1C19A8;stroke-width:2.8125;stroke-linejoin:bevel;stroke-miterlimit:10;}
	.st71{fill:#1D1D1B;stroke:#1C19A8;stroke-width:2.8125;stroke-linejoin:round;stroke-miterlimit:10;}
	.st72{fill:#00AB81;stroke:#1C19A8;stroke-width:2.7823;stroke-linejoin:round;stroke-miterlimit:10;}
	.st73{fill:url(#);stroke:#1C19A8;stroke-width:3.75;stroke-miterlimit:10;}
	.st74{fill:none;stroke:#1C19A8;stroke-width:2.8152;stroke-linejoin:round;stroke-miterlimit:10;}
	.st75{fill:none;stroke:#1C19A8;stroke-width:2.9816;stroke-linejoin:round;stroke-miterlimit:10;}
	.st76{fill:#FB715D;stroke:#1C19A8;stroke-width:2.4615;stroke-linejoin:round;stroke-miterlimit:10;}
	.st77{fill:#FB715D;stroke:#1C19A8;stroke-width:2.8108;stroke-linejoin:round;stroke-miterlimit:10;}
	.st78{fill-rule:evenodd;clip-rule:evenodd;fill:#1C19A8;stroke:#1C19A8;stroke-width:2.8125;stroke-miterlimit:10;}
	.st79{fill:#1C19A8;stroke:#1C19A8;stroke-width:1.875;stroke-miterlimit:10;}
	
		.st80{fill-rule:evenodd;clip-rule:evenodd;fill:#FFDE00;stroke:#1C19A8;stroke-width:2.7823;stroke-linejoin:round;stroke-miterlimit:10;}
	.st81{fill:#FB715D;stroke:#1C19A8;stroke-width:2.7823;stroke-linejoin:round;stroke-miterlimit:10;}
	.st82{fill:#1D1D1B;stroke:#1C19A8;stroke-width:2.8125;stroke-miterlimit:10;}
	.st83{fill:#1D1D1B;stroke:#1C19A8;stroke-width:2.8125;stroke-linecap:round;stroke-linejoin:round;stroke-miterlimit:10;}
	.st84{fill:#FFDE00;stroke:#1C19A8;stroke-width:2.8125;stroke-linecap:round;stroke-linejoin:round;stroke-miterlimit:10;}
	.st85{fill:#1C19A8;stroke:#1D1D1B;stroke-width:2.8125;stroke-miterlimit:10;}
	.st86{fill:#FFDE00;stroke:#1C19A8;stroke-width:2.7823;stroke-linejoin:round;stroke-miterlimit:10;}
	.st87{fill:none;stroke:#1C19A8;stroke-width:2.7823;stroke-linejoin:round;stroke-miterlimit:10;}
	.st88{fill:none;stroke:#1C19A8;stroke-width:2.7825;stroke-linecap:round;stroke-linejoin:round;stroke-miterlimit:10;}
	.st89{fill:none;stroke:#1C19A8;stroke-width:3.75;stroke-miterlimit:10;}
	
		.st90{fill-rule:evenodd;clip-rule:evenodd;fill:#00AB81;stroke:#1C19A8;stroke-width:2.7823;stroke-linejoin:round;stroke-miterlimit:10;}
	.st91{fill:#1C19A8;stroke:#1C19A8;stroke-width:3.75;stroke-miterlimit:10;}
	.st92{fill:#1C19A8;stroke:#1C19A8;stroke-width:2.8125;stroke-linecap:round;stroke-linejoin:round;stroke-miterlimit:10;}
	.st93{fill:#1C19A8;stroke:#1C19A8;stroke-width:0.9375;stroke-miterlimit:10;}
	.st94{fill:#1D1D1B;stroke:#1C19A8;stroke-width:3.75;stroke-miterlimit:10;}
	
		.st95{fill-rule:evenodd;clip-rule:evenodd;fill:#FB715D;stroke:#1C19A8;stroke-width:2.7823;stroke-linejoin:round;stroke-miterlimit:10;}
	.st96{fill:#1C19A8;stroke:#1C19A8;stroke-width:2.8108;stroke-linejoin:round;stroke-miterlimit:10;}
	.st97{fill:#FFDE00;stroke:#1C19A8;stroke-width:2.8108;stroke-linejoin:round;stroke-miterlimit:10;}
	.st98{fill-rule:evenodd;clip-rule:evenodd;fill:none;stroke:#1C19A8;stroke-width:3.75;stroke-miterlimit:10;}
	.st99{fill:#FFFFFF;stroke:#1D1D1B;stroke-width:2.82;stroke-miterlimit:10;}
</style>
<g id="Layer_1">
	<rect x="86.4" y="188.4" class="st0" width="443.4" height="280.8"></rect>
	<g>
		<g>
			<path class="st1" d="M369.8,360.7c-0.2,0-0.3,0.2-0.3,0.5v2.4c0,0.3,0.2,0.5,0.4,0.5h0.1c-0.1,0.3-0.2,0.5-0.3,0.7     c-0.3,0.3-0.6,0.6-1,0.9s-0.9,0.6-1.2,1.1c-0.4,0.5-0.6,1.2-0.6,2.1v0v11.4c0,1.2,0.8,2.2,1.7,2.2h9c0.9,0,1.7-1,1.7-2.2v-11.4v0     c0-0.9-0.3-1.5-0.6-2c-0.4-0.5-0.8-0.8-1.2-1.2c-0.4-0.3-0.8-0.6-1-0.9c-0.2-0.2-0.3-0.4-0.3-0.7h0.1c0.2,0,0.4-0.2,0.4-0.5     l0-2.4c0-0.1,0-0.3-0.1-0.4c-0.1-0.1-0.2-0.1-0.3-0.1L369.8,360.7C369.8,360.7,369.8,360.7,369.8,360.7L369.8,360.7z"></path>
			<path class="st1" d="M387.8,360.7c-0.2,0-0.3,0.2-0.3,0.5v2.4c0,0.3,0.2,0.5,0.4,0.5h0.1c-0.1,0.3-0.2,0.5-0.3,0.7     c-0.3,0.3-0.6,0.6-1,0.9s-0.9,0.6-1.2,1.1c-0.4,0.5-0.6,1.2-0.6,2.1v0v11.4c0,1.2,0.8,2.2,1.7,2.2h9c0.9,0,1.7-1,1.7-2.2v-11.4v0     c0-0.9-0.3-1.5-0.6-2c-0.4-0.5-0.8-0.8-1.2-1.2c-0.4-0.3-0.8-0.6-1-0.9c-0.2-0.2-0.3-0.4-0.3-0.7h0.1c0.2,0,0.4-0.2,0.4-0.5     l0-2.4c0-0.1,0-0.3-0.1-0.4c-0.1-0.1-0.2-0.1-0.3-0.1L387.8,360.7C387.8,360.7,387.8,360.7,387.8,360.7L387.8,360.7z"></path>
			<path class="st2" d="M383.1,250.5c-0.2,0-0.3,0.2-0.3,0.5v2.4c0,0.3,0.2,0.5,0.4,0.5h0.1c-0.1,0.3-0.2,0.5-0.3,0.7     c-0.3,0.3-0.6,0.6-1,0.9s-0.9,0.6-1.2,1.1c-0.4,0.5-0.6,1.2-0.6,2.1v0v11.4c0,1.2,0.8,2.2,1.7,2.2h9c0.9,0,1.7-1,1.7-2.2v-11.4v0     c0-0.9-0.3-1.5-0.6-2c-0.4-0.5-0.8-0.8-1.2-1.2s-0.8-0.6-1-0.9c-0.2-0.2-0.3-0.4-0.3-0.7h0.1c0.2,0,0.4-0.2,0.4-0.5l0-2.4     c0-0.1,0-0.3-0.1-0.4s-0.2-0.1-0.3-0.1L383.1,250.5C383.1,250.5,383.1,250.5,383.1,250.5L383.1,250.5z"></path>
			<path class="st3" d="M379.1,419.2h8.5l0-14.6l-2.2-6.9l0-5.6h-4.1l0,5.6l-2.2,6.9L379.1,419.2z"></path>
			<rect x="405.2" y="254.2" class="st4" width="23.2" height="18.1"></rect>
			<rect x="406.2" y="396.7" class="st3" width="22.3" height="18.1"></rect>
			<rect x="374" y="333.7" class="st3" width="23.2" height="18.1"></rect>
			<line class="st5" x1="433.5" y1="271.5" x2="433.5" y2="455.3"></line>
			<path class="st6" d="M372.6,315.5h8.5l0-14.6l-2.2-6.9l0-5.6h-4.1l0,5.6l-2.2,6.9L372.6,315.5z"></path>
			<path class="st6" d="M387.9,315.5h8.5l0-14.6l-2.2-6.9l0-5.6h-4.1l0,5.6l-2.2,6.9L387.9,315.5z"></path>
			<rect x="361.1" y="415.2" class="st7" width="72.3" height="5.7"></rect>
			<rect x="361.2" y="382" class="st7" width="72.2" height="5.7"></rect>
			<rect x="361.1" y="348.8" class="st7" width="72.3" height="5.7"></rect>
			<rect x="361.1" y="315.6" class="st7" width="72.3" height="5.7"></rect>
			<rect x="361.9" y="271.5" class="st7" width="72.1" height="5.7"></rect>
		</g>
	</g>
	<g>
		
			<rect x="86.5" y="268.2" transform="matrix(-1 -4.488067e-11 4.488067e-11 -1 221.3264 624.6393)" class="st3" width="48.4" height="88.3"></rect>
		<polygon class="st3" points="86.5,320.1 161.2,367.1 161.2,459.6 86.5,459.6   "></polygon>
	</g>
	<g>
		<rect x="487" y="290.4" class="st4" width="42.7" height="78"></rect>
		<polygon class="st4" points="529.8,336.3 463.7,377.8 463.7,459.6 529.8,459.6   "></polygon>
	</g>
	
		<rect x="74.2" y="138.2" transform="matrix(-1 -4.553481e-11 4.553481e-11 -1 160.6707 615.9976)" class="st3" width="12.3" height="339.6"></rect>
	
		<rect x="64" y="477.8" transform="matrix(-1 -1.976698e-11 1.976698e-11 -1 605.183 965.1975)" class="st4" width="477.1" height="9.6"></rect>
	<rect x="245.1" y="200" class="st6" width="9.9" height="277.8"></rect>
	<rect x="350.2" y="200" class="st6" width="9.9" height="277.8"></rect>
	<path class="st4" d="M255,277.4v200.4h95.2V277.4H255z M341.4,459.6h-77.6V289.9h77.6V459.6z"></path>
	
		<rect x="521.4" y="138.2" transform="matrix(-1 -4.553481e-11 4.553481e-11 -1 1055.1329 615.9976)" class="st3" width="12.3" height="339.6"></rect>
	
		<rect x="74.2" y="149.1" transform="matrix(-1 -3.090296e-11 3.090296e-11 -1 607.9018 342.099)" class="st4" width="459.5" height="43.9"></rect>
	<rect x="69.3" y="137.5" class="st3" width="469.3" height="11.6"></rect>
	<rect x="86.5" y="193" class="st6" width="434.9" height="7"></rect>
	<rect x="86.5" y="449.6" class="st6" width="158.7" height="28.2"></rect>
	
		<rect x="157.7" y="390.4" transform="matrix(-1.836970e-16 1 -1 -1.836970e-16 629.5032 297.866)" class="st6" width="16.2" height="146.7"></rect>
	<rect x="360" y="449.6" class="st6" width="161.4" height="28.2"></rect>
	
		<rect x="432.6" y="389" transform="matrix(-1.836970e-16 1 -1 -1.836970e-16 904.4084 22.9607)" class="st6" width="16.2" height="149.4"></rect>
	<rect x="259.5" y="358.2" class="st4" width="14.3" height="38.8"></rect>
	<rect x="275.5" y="466" class="st12" width="54.3" height="6"></rect>
	<g>
		<rect x="130.3" y="370.5" class="st6" width="63.5" height="7.7"></rect>
		<g>
			<polygon class="st6" points="202.8,406.2 118.3,406.2 121.3,393.5 205.8,393.5    "></polygon>
			<polygon class="st6" points="202.8,430 118.3,430 121.3,417.3 205.8,417.3    "></polygon>
		</g>
		<polygon class="st6" points="186,449.6 205,449.6 181.1,378.2 177.6,378.2 162.1,378.2 146.2,378.2 143,378.2 119.1,449.6     138.1,449.6 148.9,417.3 175.2,417.3   "></polygon>
	</g>
	<g>
		
			<rect x="149.6" y="260.2" transform="matrix(-1 -4.380464e-11 4.380464e-11 -1 301.2716 530.9465)" class="st13" width="2.1" height="10.6"></rect>
		<polygon class="st4" points="155.6,283.1 162.9,274.4 153.2,269.9 149.4,274.6   "></polygon>
		
			<rect x="146.7" y="268.7" transform="matrix(-0.639 0.7692 -0.7692 -0.639 453.74 328.6781)" class="st6" width="6.1" height="4.2"></rect>
		<rect x="124.4" y="260.2" class="st13" width="2.1" height="10.6"></rect>
		<g>
			<polygon class="st4" points="118.6,281.5 113.4,271.4 123.7,269.1 126.5,274.5    "></polygon>
			
				<rect x="123.9" y="268.6" transform="matrix(0.458 0.8889 -0.8889 0.458 309.4668 33.8888)" class="st6" width="6.1" height="4.2"></rect>
		</g>
	</g>
	<g>
		
			<rect x="206.2" y="260.2" transform="matrix(-1 -4.380464e-11 4.380464e-11 -1 414.4136 530.9465)" class="st13" width="2.1" height="10.6"></rect>
		<polygon class="st4" points="214.8,279.4 218.3,268.6 207.7,268 205.8,273.7   "></polygon>
		
			<rect x="201.7" y="268" transform="matrix(-0.3097 0.9508 -0.9508 -0.3097 525.0079 159.0493)" class="st6" width="6.1" height="4.2"></rect>
		<rect x="184" y="260.2" class="st13" width="2.1" height="10.6"></rect>
		<g>
			<polygon class="st4" points="177.2,279.6 172,269.5 182.4,267.2 185.1,272.5    "></polygon>
			
				<rect x="182.6" y="266.7" transform="matrix(0.458 0.8889 -0.8889 0.458 339.5536 -19.3191)" class="st6" width="6.1" height="4.2"></rect>
		</g>
	</g>
	<line class="st29" x1="136.7" y1="257.4" x2="136.7" y2="200"></line>
	<line class="st29" x1="201.6" y1="257.4" x2="201.6" y2="200"></line>
	<rect x="117.9" y="255.5" class="st13" width="96.3" height="4.7"></rect>
	<g>
		<g>
			<path class="st13" d="M240.6,177.4c-1.6,0.5-3.9,4.5-3.5,6.1C238.8,182.6,240.5,179.7,240.6,177.4z M256.6,178.2     c-0.6-1.7-4.6-3.9-6.1-3.5C251.2,176.5,254.7,178.3,256.6,178.2z M238.1,167.4c-0.7-1.7-4.3-3.8-6.1-3.5     C232.6,165.5,236.1,167.5,238.1,167.4z M240.7,164.9c0-1.1-0.3-2-0.8-2.9c-0.6-1.2-1.4-2.3-2.5-3.1c-0.1-0.1-0.2-0.2-0.3-0.1     c-0.1,0.1,0,0.2,0,0.3c0.2,1.8,1,3.2,2.1,4.6C239.6,164.1,240.1,164.5,240.7,164.9z M244.2,164c1.3-1.7,1.1-6.1,0-7.2     C243,159.2,243.2,161.5,244.2,164z M256.7,164c-0.8,0-1.5,0.1-2.1,0.4c-1.5,0.6-2.9,1.4-3.9,2.7c-0.1,0.1-0.2,0.2-0.2,0.4     c0.1,0.1,0.2,0.1,0.4,0c1.7-0.1,3.1-0.9,4.4-1.9C255.8,165.1,256.3,164.7,256.7,164z M247.8,177.3c-0.2,1.9,1.7,5.1,3.6,6.1     C251.6,181.4,249.3,177.8,247.8,177.3z M238,174.6c-2-0.2-5.7,2-6.1,3.5C233.7,178.4,237.2,176.4,238,174.6z M230,171.1     c1.6,1.2,5.6,1,7.1,0C235.5,169.9,231,170,230,171.1z M251.4,171.1c1.6,1.1,5.7,1.1,7.1,0C257,170,252.8,170,251.4,171.1z      M244.2,178.3c-1.1,1.6-1.1,5.6,0,7.1C245.3,183.9,245.3,179.7,244.2,178.3z M247.8,164.8c0.2,0,0.3-0.1,0.5-0.2     c1-0.7,1.7-1.7,2.3-2.8c0.4-0.9,0.8-1.7,0.9-2.7c0-0.1,0.1-0.3,0-0.4c-0.1-0.1-0.3,0.1-0.4,0.1c-0.1,0-0.1,0.1-0.2,0.1     c-1.1,0.9-1.9,2-2.4,3.3C248.1,163.1,247.8,163.9,247.8,164.8z"></path>
			<path class="st13" d="M240.6,177.4c-0.1,2.3-1.8,5.3-3.5,6.1C236.7,181.8,239,177.9,240.6,177.4z"></path>
			<path class="st13" d="M256.6,178.2c-1.9,0.1-5.3-1.7-6.1-3.5C251.9,174.3,255.9,176.5,256.6,178.2z"></path>
			<path class="st13" d="M238.1,167.4c-2,0.1-5.5-1.8-6.1-3.5C233.8,163.6,237.3,165.6,238.1,167.4z"></path>
			<path class="st13" d="M240.7,164.9c-0.6-0.4-1.1-0.8-1.5-1.3c-1.1-1.3-2-2.8-2.1-4.6c0-0.1-0.1-0.2,0-0.3c0.1-0.1,0.2,0,0.3,0.1     c1.1,0.8,1.9,1.9,2.5,3.1C240.4,162.9,240.7,163.8,240.7,164.9z"></path>
			<path class="st13" d="M244.2,164c-1-2.4-1.1-4.8,0-7.2C245.2,157.9,245.4,162.3,244.2,164z"></path>
			<path class="st13" d="M256.7,164c-0.4,0.7-0.9,1.1-1.4,1.6c-1.3,1-2.7,1.8-4.4,1.9c-0.1,0-0.3,0.1-0.4,0     c-0.1-0.1,0.1-0.2,0.2-0.4c1-1.3,2.4-2.1,3.9-2.7C255.2,164.1,255.9,163.9,256.7,164z"></path>
			<path class="st13" d="M247.8,177.3c1.5,0.5,3.8,4.1,3.6,6.1C249.5,182.4,247.7,179.2,247.8,177.3z"></path>
			<path class="st13" d="M238,174.6c-0.8,1.8-4.3,3.8-6.1,3.5C232.3,176.7,236,174.5,238,174.6z"></path>
			<path class="st13" d="M230,171.1c1-1.1,5.6-1.2,7.1,0C235.5,172,231.6,172.3,230,171.1z"></path>
			<path class="st13" d="M251.4,171.1c1.4-1.1,5.6-1.1,7.1,0C257,172.2,253,172.2,251.4,171.1z"></path>
			<path class="st13" d="M244.2,178.3c1.1,1.4,1.1,5.6,0,7.1C243.1,183.8,243.1,179.8,244.2,178.3z"></path>
			<path class="st13" d="M247.8,164.8c0-0.9,0.3-1.7,0.6-2.5c0.5-1.3,1.3-2.5,2.4-3.3c0.1,0,0.1-0.1,0.2-0.1     c0.1-0.1,0.2-0.2,0.4-0.1c0.1,0.1,0.1,0.3,0,0.4c-0.1,1-0.4,1.8-0.9,2.7c-0.6,1.1-1.3,2-2.3,2.8     C248.2,164.6,248.1,164.7,247.8,164.8z"></path>
		</g>
		<g>
			<path class="st13" d="M267.3,180.3v-18.6h6.7c3.2,0,5.4,1.8,5.4,4.6c0,2.1-1.4,3.8-3.4,4.2v0.1c2.6,0.3,4.4,2,4.4,4.6     c0,3.2-2.4,5.1-6.3,5.1H267.3z M269.1,170h4c2.8,0,4.5-1.3,4.5-3.5c0-2-1.5-3.2-3.9-3.2h-4.6V170z M273.8,178.8     c3,0,4.7-1.3,4.7-3.6c0-2.3-1.7-3.6-5-3.6h-4.5v7.2H273.8z"></path>
			<path class="st13" d="M290.4,180.3v-8l-6.6-10.5h2l5.5,8.8h0.1l5.5-8.8h2l-6.6,10.5v8H290.4z"></path>
			<path class="st13" d="M310.1,180.6c-5,0-8.3-3.8-8.3-9.7c0-5.7,3.3-9.5,8.3-9.5c3.9,0,6.9,2.3,7.6,5.9h-1.8     c-0.8-2.6-2.9-4.2-5.8-4.2c-4,0-6.5,3-6.5,7.8c0,4.9,2.6,8.1,6.5,8.1c3.6,0,6-2.3,6-5.8v-0.7h-5.8V171h7.5v1.8     C317.8,177.7,314.9,180.6,310.1,180.6z"></path>
			<path class="st13" d="M325,180.3h-1.7v-18.6h6.5c3.6,0,5.9,2.1,5.9,5.4c0,2.6-1.5,4.6-4,5.2l4.5,7.9h-2.1l-4.3-7.6     c-0.1,0-0.2,0-0.3,0H325V180.3z M325,171.2h4.7c2.7,0,4.3-1.4,4.3-3.9c0-2.5-1.6-3.9-4.3-3.9H325V171.2z"></path>
			<path class="st13" d="M351.5,174.6h-7.8l-2.1,5.7h-1.9l6.9-18.6h1.7l6.9,18.6h-1.9L351.5,174.6z M344.2,173.1h6.7l-3.3-9.2h-0.1     L344.2,173.1z"></path>
			<path class="st13" d="M376.3,180.3v-15.2h-0.1l-6.5,15.1h-1.5l-6.4-15.1h-0.1v15.2h-1.6v-18.6h2L369,178h0.1l6.9-16.2h2v18.6     H376.3z"></path>
		</g>
	</g>
</g>
<g id="Layer_2">
</g>
</svg>
