<?xml version="1.0" encoding="UTF-8"?>
<svg xmlns="http://www.w3.org/2000/svg" xmlns:xlink="http://www.w3.org/1999/xlink" id="Layer_1" data-name="Layer 1" viewBox="0 0 600 600">
  <defs>
    <style>.cls-1,.cls-11,.cls-13{fill:none;}.cls-14,.cls-17,.cls-2{fill:#1c19a8;}.cls-3{fill:#fff;}.cls-16,.cls-4,.cls-7,.cls-9{fill:#ffde00;}.cls-10,.cls-11,.cls-12,.cls-13,.cls-14,.cls-15,.cls-16,.cls-4,.cls-5,.cls-9{stroke:#1c19a8;}.cls-10,.cls-11,.cls-12,.cls-15,.cls-16,.cls-4,.cls-5,.cls-9{stroke-linejoin:round;}.cls-10,.cls-11,.cls-12,.cls-13,.cls-14,.cls-15,.cls-4,.cls-5,.cls-9{stroke-width:2.82px;}.cls-12,.cls-5{fill:#fb715d;}.cls-6{fill:url(#Blue_dots);}.cls-10,.cls-15,.cls-8{fill:#00ab81;}.cls-12,.cls-15,.cls-9{fill-rule:evenodd;}.cls-13,.cls-14{stroke-miterlimit:10;}.cls-16{stroke-width:2.78px;}.cls-17{font-size:19.76px;font-family:Montserrat-Medium, Montserrat;font-weight:500;}.cls-18{font-size:14.09px;}</style>
    <pattern id="Blue_dots" data-name="Blue dots" width="28.8" height="28.8" patternTransform="translate(597.62)" patternUnits="userSpaceOnUse" viewBox="0 0 28.8 28.8">
      <rect class="cls-1" width="28.8" height="28.8"></rect>
      <path class="cls-2" d="M28.8,30.24a1.44,1.44,0,1,0-1.44-1.44A1.44,1.44,0,0,0,28.8,30.24Z"></path>
      <path class="cls-2" d="M14.4,30.24A1.44,1.44,0,1,0,13,28.8,1.44,1.44,0,0,0,14.4,30.24Z"></path>
      <path class="cls-2" d="M28.8,15.84a1.44,1.44,0,1,0-1.44-1.44A1.44,1.44,0,0,0,28.8,15.84Z"></path>
      <path class="cls-2" d="M14.4,15.84A1.44,1.44,0,1,0,13,14.4,1.44,1.44,0,0,0,14.4,15.84Z"></path>
      <path class="cls-2" d="M7.2,23A1.44,1.44,0,1,0,5.76,21.6,1.44,1.44,0,0,0,7.2,23Z"></path>
      <path class="cls-2" d="M21.6,23a1.44,1.44,0,1,0-1.44-1.44A1.44,1.44,0,0,0,21.6,23Z"></path>
      <path class="cls-2" d="M7.2,8.64A1.44,1.44,0,1,0,5.76,7.2,1.44,1.44,0,0,0,7.2,8.64Z"></path>
      <path class="cls-2" d="M21.6,8.64A1.44,1.44,0,1,0,20.16,7.2,1.44,1.44,0,0,0,21.6,8.64Z"></path>
      <path class="cls-2" d="M0,30.24A1.44,1.44,0,0,0,1.44,28.8,1.45,1.45,0,0,0,0,27.36,1.44,1.44,0,0,0-1.44,28.8,1.43,1.43,0,0,0,0,30.24Z"></path>
      <path class="cls-2" d="M0,15.84A1.44,1.44,0,0,0,1.44,14.4,1.45,1.45,0,0,0,0,13,1.44,1.44,0,0,0-1.44,14.4,1.43,1.43,0,0,0,0,15.84Z"></path>
      <path class="cls-2" d="M28.8,1.44A1.45,1.45,0,0,0,30.24,0,1.45,1.45,0,0,0,28.8-1.44,1.44,1.44,0,0,0,27.36,0,1.44,1.44,0,0,0,28.8,1.44Z"></path>
      <path class="cls-2" d="M14.4,1.44A1.45,1.45,0,0,0,15.84,0,1.45,1.45,0,0,0,14.4-1.44,1.44,1.44,0,0,0,13,0,1.44,1.44,0,0,0,14.4,1.44Z"></path>
      <path class="cls-2" d="M0,1.44A1.45,1.45,0,0,0,1.44,0,1.45,1.45,0,0,0,0-1.44,1.44,1.44,0,0,0-1.44,0,1.44,1.44,0,0,0,0,1.44Z"></path>
    </pattern>
  </defs>
  <rect class="cls-3" x="117.58" y="175.99" width="400.74" height="305.68"></rect>
  <rect class="cls-3" x="104.95" y="268.08" width="392.83" height="203.92"></rect>
  <rect class="cls-4" x="101.24" y="138.21" width="12.3" height="333.79"></rect>
  <rect class="cls-5" x="92.45" y="472.1" width="420.29" height="19.25"></rect>
  <rect class="cls-6" x="287.93" y="180.43" width="203.71" height="273.86"></rect>
  <rect class="cls-4" x="71.96" y="138.38" width="29.28" height="10.75"></rect>
  <rect class="cls-4" x="71.96" y="149.13" width="29.28" height="10.75"></rect>
  <rect class="cls-4" x="71.96" y="159.89" width="29.28" height="10.75"></rect>
  <rect class="cls-4" x="71.96" y="170.64" width="29.28" height="10.75"></rect>
  <rect class="cls-4" x="71.96" y="181.39" width="29.28" height="10.75"></rect>
  <rect class="cls-4" x="71.96" y="192.14" width="29.28" height="10.75"></rect>
  <rect class="cls-4" x="71.96" y="202.9" width="29.28" height="10.75"></rect>
  <rect class="cls-4" x="71.96" y="213.65" width="29.28" height="10.75"></rect>
  <rect class="cls-4" x="71.96" y="224.4" width="29.28" height="10.75"></rect>
  <rect class="cls-4" x="71.96" y="235.15" width="29.28" height="10.75"></rect>
  <rect class="cls-4" x="71.96" y="245.91" width="29.28" height="10.75"></rect>
  <rect class="cls-4" x="71.96" y="256.66" width="29.28" height="10.75"></rect>
  <rect class="cls-4" x="71.96" y="267.41" width="29.28" height="10.75"></rect>
  <rect class="cls-4" x="71.96" y="278.16" width="29.28" height="10.75"></rect>
  <rect class="cls-4" x="71.96" y="288.92" width="29.28" height="10.75"></rect>
  <rect class="cls-4" x="71.96" y="299.67" width="29.28" height="10.75"></rect>
  <rect class="cls-4" x="71.96" y="310.42" width="29.28" height="10.75"></rect>
  <rect class="cls-4" x="71.96" y="321.17" width="29.28" height="10.75"></rect>
  <rect class="cls-4" x="71.96" y="331.92" width="29.28" height="10.75"></rect>
  <rect class="cls-4" x="71.96" y="342.68" width="29.28" height="10.75"></rect>
  <rect class="cls-4" x="71.96" y="353.43" width="29.28" height="10.75"></rect>
  <rect class="cls-4" x="71.96" y="364.18" width="29.28" height="10.75"></rect>
  <rect class="cls-4" x="71.96" y="374.93" width="29.28" height="10.75"></rect>
  <rect class="cls-4" x="71.96" y="385.69" width="29.28" height="10.75"></rect>
  <rect class="cls-4" x="71.96" y="396.44" width="29.28" height="10.75"></rect>
  <rect class="cls-4" x="71.96" y="407.19" width="29.28" height="10.75"></rect>
  <rect class="cls-4" x="71.96" y="417.94" width="29.28" height="10.75"></rect>
  <rect class="cls-4" x="71.96" y="428.7" width="29.28" height="10.75"></rect>
  <rect class="cls-4" x="71.96" y="439.45" width="29.28" height="10.75"></rect>
  <rect class="cls-4" x="71.96" y="450.2" width="29.28" height="10.75"></rect>
  <rect class="cls-4" x="71.96" y="460.95" width="29.28" height="10.75"></rect>
  <rect class="cls-4" x="66.64" y="472" width="38.31" height="19.35"></rect>
  <polygon class="cls-7" points="476.11 347.06 455.05 347.06 459.05 367.13 472.11 367.13 476.11 347.06"></polygon>
  <path class="cls-8" d="M469.28,347.06l3-.85a10.29,10.29,0,0,1,.87-1.8c.67-1.07,1.54-2,2.1-3.15,1.22-2.46.85-5.37.45-8.09l-5.77,3.93-.08.14a20.19,20.19,0,0,0-.47-8.48c-.79-2.69-2.1-5.22-2.69-8s-1.37-5.82-.43-8.55c-2.66,3-3.27,7.39-3,11.42.13,1.56.33,3.11.52,4.65l-.82-1.07a21.7,21.7,0,0,1-4.7-15.6c-1.1,5.71-3.34,10.82-1.35,16.28.89,2.42,2.21,6.53,3.26,8.88l.24.48c-.54-.22-1.1-.4-1.64-.6a23.63,23.63,0,0,1-6.59-3.56c.64,2.73,3,4.66,4.46,7.05a11.85,11.85,0,0,1,1.72,6.46h-.08l11,.42"></path>
  <path class="cls-2" d="M473.3,368.59H457.86l-4.58-23h24.6Zm-13.05-2.91h10.66l3.43-17.17H456.83Z"></path>
  <rect class="cls-2" x="457.34" y="357.09" width="16.48" height="2.91"></rect>
  <path class="cls-2" d="M469.28,348.51h-.06l-11-.42a1.46,1.46,0,0,1-1.4-1.48,1.23,1.23,0,0,1,.09-.47,10.47,10.47,0,0,0-1.51-5.2,23.2,23.2,0,0,0-1.64-2.23,13.61,13.61,0,0,1-3-5.25,1.46,1.46,0,0,1,2.3-1.49,22.43,22.43,0,0,0,4.72,2.78c-.44-1.2-.89-2.5-1.32-3.72-.33-.95-.64-1.86-.92-2.6-1.69-4.62-.61-9,.43-13.28.31-1.24.61-2.49.86-3.77a1.4,1.4,0,0,1,1.64-1.16,1.45,1.45,0,0,1,1.24,1.58,20,20,0,0,0,2,10.9c-.14-3.53.41-8.05,3.36-11.41a1.45,1.45,0,0,1,2.47,1.43c-.74,2.17-.18,4.73.36,7.21l.12.56a30.1,30.1,0,0,0,1.45,4.43c.44,1.13.87,2.27,1.22,3.43a19.74,19.74,0,0,1,.76,5.89l3.34-2.27a1.48,1.48,0,0,1,1.41-.13,1.43,1.43,0,0,1,.85,1.12c.38,2.53.88,6-.59,8.94a14.85,14.85,0,0,1-1.37,2.13c-.27.38-.55.76-.8,1.15a9.1,9.1,0,0,0-.74,1.54,1.42,1.42,0,0,1-1,.89l-3,.85A1.33,1.33,0,0,1,469.28,348.51Zm-9.49-3.27,9.32.36,2.06-.59a11.85,11.85,0,0,1,.71-1.37c.29-.45.6-.89.92-1.32a12.9,12.9,0,0,0,1.12-1.71,9.08,9.08,0,0,0,.61-4.89l-3.72,2.52a1.52,1.52,0,0,1-1.44.3,1.4,1.4,0,0,1-1-1.5,18.77,18.77,0,0,0-.42-7.87c-.33-1.08-.73-2.15-1.14-3.21a31.27,31.27,0,0,1-1.58-4.85l-.13-.56c-.09-.44-.19-.9-.29-1.36a20.11,20.11,0,0,0-.08,4.36c.1,1.33.26,2.65.43,4l.07.63a1.45,1.45,0,0,1-.89,1.52,1.46,1.46,0,0,1-1.71-.46l-.81-1.07a22.8,22.8,0,0,1-4-7.52,13.29,13.29,0,0,0,.5,6.81c.28.75.59,1.67.93,2.65.75,2.14,1.59,4.57,2.29,6.13l.21.44a1.46,1.46,0,0,1-1.85,2c-.43-.18-.87-.32-1.31-.48-.77-.27-1.5-.56-2.21-.88a24,24,0,0,1,1.54,2.14A13.33,13.33,0,0,1,459.79,345.24Z"></path>
  <path class="cls-2" d="M444.8,411.25V432.3a1.41,1.41,0,0,0,1.41,1.4h9.63L450.12,463a1.41,1.41,0,0,0,1.39,1.67h7.39a1.4,1.4,0,0,0,1.38-1.13l5.82-29.82h22.39a1.41,1.41,0,0,0,1.41-1.4V411.25a1.41,1.41,0,0,0-1.41-1.41H470.76l3.57-18.23h13.46a1.41,1.41,0,0,0,1.4-1.41V369.15a1.4,1.4,0,0,0-1.4-1.4H479l8.74-44.8a1.42,1.42,0,0,0-.22-1.06,1.4,1.4,0,0,0-.89-.59l-7.12-1.39a1.4,1.4,0,0,0-1.65,1.11l-9.12,46.73H455.6a1.4,1.4,0,0,0-1.41,1.4V390.2a1.41,1.41,0,0,0,1.41,1.41h8.47l-3.56,18.23h-14.3A1.41,1.41,0,0,0,444.8,411.25Z"></path>
  <rect class="cls-5" x="-27.45" y="322.39" width="290.07" height="8.07" transform="translate(444.01 208.85) rotate(90)"></rect>
  <rect class="cls-5" x="125.12" y="322.39" width="290.07" height="8.07" transform="translate(596.58 56.28) rotate(90)"></rect>
  <rect class="cls-5" x="119.05" y="277.39" width="11.71" height="98.08"></rect>
  <rect class="cls-2" x="326.37" y="258.22" width="133.03" height="6.15"></rect>
  <path class="cls-9" d="M377.88,229.85a.63.63,0,0,0-.46.67v3.33a.61.61,0,0,0,.52.67h.14a2.4,2.4,0,0,1-.47.91,7.78,7.78,0,0,1-1.42,1.24,7.17,7.17,0,0,0-1.65,1.54,4.84,4.84,0,0,0-.87,2.79h0v15.53c0,1.61,1,2.94,2.29,2.94H388.2c1.26,0,2.29-1.33,2.29-2.94V241a4.72,4.72,0,0,0-.85-2.77,7.56,7.56,0,0,0-1.65-1.57,8.59,8.59,0,0,1-1.42-1.25,2.42,2.42,0,0,1-.46-.92h.18a.61.61,0,0,0,.52-.67l0-3.32a.85.85,0,0,0-.15-.48.48.48,0,0,0-.38-.2h-8.43Z"></path>
  <path class="cls-9" d="M404.12,229.85a.64.64,0,0,0-.47.67v3.33a.61.61,0,0,0,.53.67h.14a2.4,2.4,0,0,1-.47.91,8.13,8.13,0,0,1-1.42,1.24,7.17,7.17,0,0,0-1.65,1.54,4.84,4.84,0,0,0-.87,2.79h0v15.53c0,1.61,1,2.94,2.29,2.94h12.24c1.25,0,2.29-1.33,2.29-2.94V241a4.8,4.8,0,0,0-.86-2.77,7.34,7.34,0,0,0-1.65-1.57,8.1,8.1,0,0,1-1.41-1.25,2.28,2.28,0,0,1-.46-.92h.17a.61.61,0,0,0,.53-.67l0-3.32a.78.78,0,0,0-.15-.48.47.47,0,0,0-.37-.2h-8.43Z"></path>
  <path class="cls-9" d="M431.54,229.85a.64.64,0,0,0-.47.67v3.33a.61.61,0,0,0,.53.67h.14a2.4,2.4,0,0,1-.47.91,8.13,8.13,0,0,1-1.42,1.24,7.17,7.17,0,0,0-1.65,1.54,4.84,4.84,0,0,0-.87,2.79h0v15.53c0,1.61,1,2.94,2.29,2.94h12.24c1.26,0,2.29-1.33,2.29-2.94V241a4.8,4.8,0,0,0-.86-2.77,7.14,7.14,0,0,0-1.65-1.57,8.49,8.49,0,0,1-1.41-1.25,2.28,2.28,0,0,1-.46-.92h.17a.61.61,0,0,0,.53-.67l0-3.32a.73.73,0,0,0-.15-.48.47.47,0,0,0-.37-.2h-8.43Z"></path>
  <rect class="cls-10" x="337.56" y="237.83" width="27.7" height="22.48"></rect>
  <rect class="cls-2" x="326.37" y="300.03" width="133.03" height="6.15"></rect>
  <path class="cls-9" d="M377.88,271.65a.64.64,0,0,0-.46.68v3.32c0,.38.23.68.52.68h.14a2.29,2.29,0,0,1-.47.9,7.09,7.09,0,0,1-1.42,1.24,7.23,7.23,0,0,0-1.65,1.55,4.84,4.84,0,0,0-.87,2.79h0v15.52c0,1.62,1,3,2.29,3H388.2c1.26,0,2.29-1.33,2.29-3V282.85h0a4.76,4.76,0,0,0-.85-2.78A7.5,7.5,0,0,0,388,278.5a8.18,8.18,0,0,1-1.42-1.26,2.38,2.38,0,0,1-.46-.91h.18c.29,0,.52-.3.52-.68l0-3.31a.83.83,0,0,0-.15-.48.5.5,0,0,0-.38-.21h-8.43Z"></path>
  <path class="cls-9" d="M404.12,271.65a.64.64,0,0,0-.47.68v3.32a.62.62,0,0,0,.53.68h.14a2.29,2.29,0,0,1-.47.9,7.38,7.38,0,0,1-1.42,1.24,7.23,7.23,0,0,0-1.65,1.55,4.84,4.84,0,0,0-.87,2.79h0v15.52c0,1.62,1,3,2.29,3h12.24c1.25,0,2.29-1.33,2.29-3V282.85h0a4.83,4.83,0,0,0-.86-2.78,7.28,7.28,0,0,0-1.65-1.56,7.74,7.74,0,0,1-1.41-1.26,2.24,2.24,0,0,1-.46-.91h.17a.62.62,0,0,0,.53-.68l0-3.31a.76.76,0,0,0-.15-.48.48.48,0,0,0-.37-.21h-8.43Z"></path>
  <path class="cls-9" d="M431.54,271.65a.64.64,0,0,0-.47.68v3.32a.62.62,0,0,0,.53.68h.14a2.29,2.29,0,0,1-.47.9,7.38,7.38,0,0,1-1.42,1.24A7.23,7.23,0,0,0,428.2,280a4.84,4.84,0,0,0-.87,2.79h0v15.52c0,1.62,1,3,2.29,3h12.24c1.26,0,2.29-1.33,2.29-3V282.85h0a4.83,4.83,0,0,0-.86-2.78,7.08,7.08,0,0,0-1.65-1.56,8.09,8.09,0,0,1-1.41-1.26,2.24,2.24,0,0,1-.46-.91h.17a.62.62,0,0,0,.53-.68l0-3.31a.71.71,0,0,0-.15-.48.48.48,0,0,0-.37-.21h-8.43Z"></path>
  <rect class="cls-10" x="337.56" y="279.64" width="27.7" height="22.48"></rect>
  <rect class="cls-2" x="326.37" y="341.84" width="133.03" height="6.15"></rect>
  <path class="cls-9" d="M377.88,313.46a.64.64,0,0,0-.46.68v3.32a.61.61,0,0,0,.52.67h.14a2.33,2.33,0,0,1-.47.91,7.78,7.78,0,0,1-1.42,1.24,7.23,7.23,0,0,0-1.65,1.55,4.84,4.84,0,0,0-.87,2.79h0v15.52c0,1.62,1,3,2.29,3H388.2c1.26,0,2.29-1.34,2.29-3V324.66h0a4.76,4.76,0,0,0-.85-2.78A7.8,7.8,0,0,0,388,320.3a7.76,7.76,0,0,1-1.42-1.25,2.35,2.35,0,0,1-.46-.92h.18a.61.61,0,0,0,.52-.67l0-3.31a.89.89,0,0,0-.15-.49.48.48,0,0,0-.38-.2h-8.43Z"></path>
  <path class="cls-9" d="M404.12,313.46a.64.64,0,0,0-.47.68v3.32a.61.61,0,0,0,.53.67h.14a2.33,2.33,0,0,1-.47.91,8.13,8.13,0,0,1-1.42,1.24,7.23,7.23,0,0,0-1.65,1.55,4.84,4.84,0,0,0-.87,2.79h0v15.52c0,1.62,1,3,2.29,3h12.24c1.25,0,2.29-1.34,2.29-3V324.66h0a4.83,4.83,0,0,0-.86-2.78,7.57,7.57,0,0,0-1.65-1.57,7.36,7.36,0,0,1-1.41-1.25,2.22,2.22,0,0,1-.46-.92h.17a.61.61,0,0,0,.53-.67l0-3.31a.81.81,0,0,0-.15-.49.47.47,0,0,0-.37-.2h-8.43Z"></path>
  <path class="cls-9" d="M431.54,313.46a.64.64,0,0,0-.47.68v3.32a.61.61,0,0,0,.53.67h.14a2.33,2.33,0,0,1-.47.91,8.13,8.13,0,0,1-1.42,1.24,7.23,7.23,0,0,0-1.65,1.55,4.84,4.84,0,0,0-.87,2.79h0v15.52c0,1.62,1,3,2.29,3h12.24c1.26,0,2.29-1.34,2.29-3V324.66h0a4.83,4.83,0,0,0-.86-2.78,7.35,7.35,0,0,0-1.65-1.57,7.68,7.68,0,0,1-1.41-1.25,2.22,2.22,0,0,1-.46-.92h.17a.61.61,0,0,0,.53-.67l0-3.31a.75.75,0,0,0-.15-.49.47.47,0,0,0-.37-.2h-8.43Z"></path>
  <rect class="cls-10" x="337.56" y="321.45" width="27.7" height="22.48"></rect>
  <rect class="cls-4" x="113.55" y="138.21" width="378.09" height="36.36"></rect>
  <rect class="cls-4" x="491.64" y="138.21" width="12.3" height="333.79"></rect>
  <rect class="cls-5" x="113.55" y="173.32" width="377.73" height="8.07"></rect>
  <rect class="cls-5" x="287.93" y="453.89" width="203.35" height="18.11"></rect>
  <rect class="cls-4" x="273.28" y="138.38" width="29.28" height="10.75"></rect>
  <rect class="cls-4" x="273.28" y="149.13" width="29.28" height="10.75"></rect>
  <rect class="cls-4" x="273.28" y="159.89" width="29.28" height="10.75"></rect>
  <rect class="cls-4" x="273.28" y="170.64" width="29.28" height="10.75"></rect>
  <rect class="cls-4" x="273.28" y="181.39" width="29.28" height="10.75"></rect>
  <rect class="cls-4" x="273.28" y="192.14" width="29.28" height="10.75"></rect>
  <rect class="cls-4" x="273.28" y="202.9" width="29.28" height="10.75"></rect>
  <rect class="cls-4" x="273.28" y="213.65" width="29.28" height="10.75"></rect>
  <rect class="cls-4" x="273.28" y="224.4" width="29.28" height="10.75"></rect>
  <rect class="cls-4" x="273.28" y="235.15" width="29.28" height="10.75"></rect>
  <rect class="cls-4" x="273.28" y="245.91" width="29.28" height="10.75"></rect>
  <rect class="cls-4" x="273.28" y="256.66" width="29.28" height="10.75"></rect>
  <rect class="cls-4" x="273.28" y="267.41" width="29.28" height="10.75"></rect>
  <rect class="cls-4" x="273.28" y="278.16" width="29.28" height="10.75"></rect>
  <rect class="cls-4" x="273.28" y="288.92" width="29.28" height="10.75"></rect>
  <rect class="cls-4" x="273.28" y="299.67" width="29.28" height="10.75"></rect>
  <rect class="cls-4" x="273.28" y="310.42" width="29.28" height="10.75"></rect>
  <rect class="cls-4" x="273.28" y="321.17" width="29.28" height="10.75"></rect>
  <rect class="cls-4" x="273.28" y="331.92" width="29.28" height="10.75"></rect>
  <rect class="cls-4" x="273.28" y="342.68" width="29.28" height="10.75"></rect>
  <rect class="cls-4" x="273.28" y="353.43" width="29.28" height="10.75"></rect>
  <rect class="cls-4" x="273.28" y="364.18" width="29.28" height="10.75"></rect>
  <rect class="cls-4" x="273.28" y="374.93" width="29.28" height="10.75"></rect>
  <rect class="cls-4" x="273.28" y="385.69" width="29.28" height="10.75"></rect>
  <rect class="cls-4" x="273.28" y="396.44" width="29.28" height="10.75"></rect>
  <rect class="cls-4" x="273.28" y="407.19" width="29.28" height="10.75"></rect>
  <rect class="cls-4" x="273.28" y="417.94" width="29.28" height="10.75"></rect>
  <rect class="cls-4" x="273.28" y="428.7" width="29.28" height="10.75"></rect>
  <rect class="cls-4" x="273.28" y="439.45" width="29.28" height="10.75"></rect>
  <rect class="cls-4" x="273.28" y="450.2" width="29.28" height="10.75"></rect>
  <rect class="cls-4" x="273.28" y="460.95" width="29.28" height="10.75"></rect>
  <rect class="cls-4" x="268.77" y="472" width="38.31" height="19.35"></rect>
  <rect class="cls-4" x="503.68" y="138.38" width="29.28" height="10.75"></rect>
  <rect class="cls-4" x="503.68" y="149.13" width="29.28" height="10.75"></rect>
  <rect class="cls-4" x="503.68" y="159.89" width="29.28" height="10.75"></rect>
  <rect class="cls-4" x="503.68" y="170.64" width="29.28" height="10.75"></rect>
  <rect class="cls-4" x="503.68" y="181.39" width="29.28" height="10.75"></rect>
  <rect class="cls-4" x="503.68" y="192.14" width="29.28" height="10.75"></rect>
  <rect class="cls-4" x="503.68" y="202.9" width="29.28" height="10.75"></rect>
  <rect class="cls-4" x="503.68" y="213.65" width="29.28" height="10.75"></rect>
  <rect class="cls-4" x="503.68" y="224.4" width="29.28" height="10.75"></rect>
  <rect class="cls-4" x="503.68" y="235.15" width="29.28" height="10.75"></rect>
  <rect class="cls-4" x="503.68" y="245.91" width="29.28" height="10.75"></rect>
  <rect class="cls-4" x="503.68" y="256.66" width="29.28" height="10.75"></rect>
  <rect class="cls-4" x="503.68" y="267.41" width="29.28" height="10.75"></rect>
  <rect class="cls-4" x="503.68" y="278.16" width="29.28" height="10.75"></rect>
  <rect class="cls-4" x="503.68" y="288.92" width="29.28" height="10.75"></rect>
  <rect class="cls-4" x="503.68" y="299.67" width="29.28" height="10.75"></rect>
  <rect class="cls-4" x="503.68" y="310.42" width="29.28" height="10.75"></rect>
  <rect class="cls-4" x="503.68" y="321.17" width="29.28" height="10.75"></rect>
  <rect class="cls-4" x="503.68" y="331.92" width="29.28" height="10.75"></rect>
  <rect class="cls-4" x="503.68" y="342.68" width="29.28" height="10.75"></rect>
  <rect class="cls-4" x="503.68" y="353.43" width="29.28" height="10.75"></rect>
  <rect class="cls-4" x="503.68" y="364.18" width="29.28" height="10.75"></rect>
  <rect class="cls-4" x="503.68" y="374.93" width="29.28" height="10.75"></rect>
  <rect class="cls-4" x="503.68" y="385.69" width="29.28" height="10.75"></rect>
  <rect class="cls-4" x="503.68" y="396.44" width="29.28" height="10.75"></rect>
  <rect class="cls-4" x="503.68" y="407.19" width="29.28" height="10.75"></rect>
  <rect class="cls-4" x="503.68" y="417.94" width="29.28" height="10.75"></rect>
  <rect class="cls-4" x="503.68" y="428.7" width="29.28" height="10.75"></rect>
  <rect class="cls-4" x="503.68" y="439.45" width="29.28" height="10.75"></rect>
  <rect class="cls-4" x="503.68" y="450.2" width="29.28" height="10.75"></rect>
  <rect class="cls-4" x="503.68" y="460.95" width="29.28" height="10.75"></rect>
  <rect class="cls-4" x="499.16" y="472" width="38.31" height="19.35"></rect>
  <rect class="cls-5" x="160.88" y="322.39" width="290.07" height="8.07" transform="translate(632.34 20.51) rotate(90)"></rect>
  <rect class="cls-5" x="342.21" y="322.39" width="290.07" height="8.07" transform="translate(813.67 -160.82) rotate(90)"></rect>
  <polygon class="cls-4" points="345.14 407.62 343.53 412.6 324.58 412.6 323.11 407.62 315.93 407.62 315.93 453.8 352.43 453.8 352.43 407.62 345.14 407.62"></polygon>
  <line class="cls-4" x1="315.93" y1="419.3" x2="352.66" y2="419.3"></line>
  <line class="cls-4" x1="315.93" y1="424.74" x2="352.66" y2="424.74"></line>
  <line class="cls-4" x1="348.67" y1="389.11" x2="348.67" y2="407.62"></line>
  <polygon class="cls-4" points="353.9 391.56 350.39 391.56 343.44 391.56 343.44 386.73 353.9 386.73 353.9 391.56"></polygon>
  <polyline class="cls-11" points="348.67 397.4 360 397.4 363.13 400.53"></polyline>
  <polygon class="cls-4" points="372.65 407.62 371.05 412.6 352.1 412.6 350.63 407.62 343.44 407.62 343.44 453.8 379.94 453.8 379.94 407.62 372.65 407.62"></polygon>
  <line class="cls-4" x1="343.44" y1="419.3" x2="380.18" y2="419.3"></line>
  <line class="cls-4" x1="343.44" y1="424.74" x2="380.18" y2="424.74"></line>
  <line class="cls-4" x1="376.18" y1="389.11" x2="376.18" y2="407.62"></line>
  <polygon class="cls-4" points="381.42 391.56 377.91 391.56 370.95 391.56 370.95 386.73 381.42 386.73 381.42 391.56"></polygon>
  <polyline class="cls-11" points="376.18 397.4 387.52 397.4 390.64 400.53"></polyline>
  <path class="cls-9" d="M255.32,321.92a.52.52,0,0,1,.37.54v2.67a.49.49,0,0,1-.42.53h-.11a1.76,1.76,0,0,0,.38.73,5.93,5.93,0,0,0,1.13,1,5.88,5.88,0,0,1,1.32,1.24,3.85,3.85,0,0,1,.7,2.24h0v12.43a2.16,2.16,0,0,1-1.83,2.36h-9.8a2.16,2.16,0,0,1-1.84-2.36v-12.4h0a3.88,3.88,0,0,1,.69-2.22,5.77,5.77,0,0,1,1.32-1.26,6,6,0,0,0,1.13-1,1.85,1.85,0,0,0,.37-.74h-.14a.49.49,0,0,1-.42-.53l0-2.66a.67.67,0,0,1,.12-.39.39.39,0,0,1,.3-.16h6.75Z"></path>
  <path class="cls-9" d="M235.66,321.92a.51.51,0,0,1,.38.54v2.67a.49.49,0,0,1-.42.53h-.11a1.87,1.87,0,0,0,.37.73,6,6,0,0,0,1.14,1,5.88,5.88,0,0,1,1.32,1.24,3.92,3.92,0,0,1,.7,2.24h0v12.43a2.16,2.16,0,0,1-1.84,2.36h-9.79a2.16,2.16,0,0,1-1.84-2.36v-12.4h0a3.73,3.73,0,0,1,.69-2.22,5.77,5.77,0,0,1,1.32-1.26,6.69,6.69,0,0,0,1.13-1,2,2,0,0,0,.37-.74h-.14a.49.49,0,0,1-.42-.53l0-2.66a.67.67,0,0,1,.12-.39.39.39,0,0,1,.3-.16h6.74Z"></path>
  <path class="cls-12" d="M240.85,202a.51.51,0,0,1,.37.54v2.66a.49.49,0,0,1-.42.54h-.11a1.94,1.94,0,0,0,.37.73,6.38,6.38,0,0,0,1.14,1,5.66,5.66,0,0,1,1.32,1.24,3.91,3.91,0,0,1,.7,2.23h0v12.43a2.16,2.16,0,0,1-1.84,2.36h-9.79a2.16,2.16,0,0,1-1.84-2.36V211h0a3.79,3.79,0,0,1,.69-2.23,5.93,5.93,0,0,1,1.32-1.25,6.31,6.31,0,0,0,1.13-1,1.74,1.74,0,0,0,.37-.73h-.14a.49.49,0,0,1-.42-.54l0-2.65a.62.62,0,0,1,.12-.39.39.39,0,0,1,.3-.16h6.75Z"></path>
  <path class="cls-10" d="M245.2,385.69H236l0-15.93,2.4-7.46v-6.12h4.48v6.12l2.4,7.46Z"></path>
  <rect class="cls-5" x="191.46" y="206.05" width="25.28" height="19.67" transform="translate(408.2 431.77) rotate(-180)"></rect>
  <rect class="cls-10" x="191.46" y="361.1" width="24.24" height="19.67" transform="translate(407.16 741.87) rotate(-180)"></rect>
  <rect class="cls-10" x="225.43" y="292.54" width="25.28" height="19.67" transform="translate(476.13 604.76) rotate(-180)"></rect>
  <line class="cls-13" x1="185.93" y1="224.83" x2="185.93" y2="472.1"></line>
  <path class="cls-4" d="M252.23,272.81H243l0-15.92,2.41-7.47V243.3h4.49v6.12l2.41,7.47Z"></path>
  <path class="cls-4" d="M235.6,272.81h-9.24l0-15.92,2.41-7.47V243.3h4.49v6.12l2.41,7.47Z"></path>
  <rect class="cls-14" x="185.95" y="381.3" width="78.74" height="6.25" transform="translate(450.65 768.85) rotate(-180)"></rect>
  <rect class="cls-14" x="186.01" y="345.14" width="78.6" height="6.25" transform="translate(450.61 696.53) rotate(-180)"></rect>
  <rect class="cls-14" x="186" y="308.99" width="78.7" height="6.25" transform="translate(450.69 624.22) rotate(-180)"></rect>
  <rect class="cls-14" x="185.98" y="272.83" width="78.72" height="6.25" transform="translate(450.67 551.9) rotate(-180)"></rect>
  <rect class="cls-14" x="185.4" y="224.84" width="78.46" height="6.25" transform="translate(449.26 455.92) rotate(-180)"></rect>
  <polygon class="cls-4" points="402.19 407.62 400.59 412.6 381.64 412.6 380.17 407.62 372.98 407.62 372.98 453.8 409.48 453.8 409.48 407.62 402.19 407.62"></polygon>
  <line class="cls-4" x1="372.98" y1="419.3" x2="409.72" y2="419.3"></line>
  <line class="cls-4" x1="372.98" y1="424.74" x2="409.72" y2="424.74"></line>
  <line class="cls-4" x1="405.72" y1="389.11" x2="405.72" y2="407.62"></line>
  <polygon class="cls-4" points="410.95 391.56 407.45 391.56 400.49 391.56 400.49 386.73 410.95 386.73 410.95 391.56"></polygon>
  <polyline class="cls-11" points="405.72 397.4 417.06 397.4 420.18 400.53"></polyline>
  <rect class="cls-10" x="217.9" y="420.14" width="48.22" height="7.57"></rect>
  <polygon class="cls-15" points="264 420.14 220.01 420.14 224.6 412.57 259.42 412.57 264 420.14"></polygon>
  <polygon class="cls-15" points="250.71 427.7 250.71 433.75 233.3 433.75 233.3 427.7 220.01 427.7 226.89 472.03 257.12 472.03 264 427.7 250.71 427.7"></polygon>
  <rect class="cls-10" x="233.3" y="427.71" width="17.41" height="6.04"></rect>
  <rect class="cls-5" x="169.67" y="420.14" width="48.22" height="7.57"></rect>
  <polygon class="cls-12" points="215.78 420.14 171.79 420.14 176.38 412.57 211.19 412.57 215.78 420.14"></polygon>
  <polygon class="cls-12" points="202.49 427.7 202.49 433.75 185.08 433.75 185.08 427.7 171.79 427.7 178.67 472.03 208.9 472.03 215.78 427.7 202.49 427.7"></polygon>
  <rect class="cls-5" x="185.08" y="427.71" width="17.41" height="6.04"></rect>
  <rect class="cls-16" x="480.11" y="191.84" width="80.47" height="75.14"></rect>
  <circle class="cls-2" cx="488.5" cy="200.81" r="2.53"></circle>
  <circle class="cls-2" cx="488.5" cy="258.36" r="2.53"></circle>
  <circle class="cls-2" cx="553.59" cy="200.81" r="2.53"></circle>
  <circle class="cls-2" cx="553.59" cy="258.36" r="2.53"></circle>
  <text class="cls-17" transform="translate(489.66 227.47)">HERO<tspan class="cls-18" x="58.95" y="0"> </tspan><tspan class="cls-18"><tspan x="0.31" y="16.91">MARKET</tspan></tspan></text>
</svg>
