<?xml version="1.0" encoding="UTF-8"?>
<svg xmlns="http://www.w3.org/2000/svg" id="Layer_1" data-name="Layer 1" viewBox="0 0 600 600">
  <defs>
    <style>.cls-1{fill:#fff;}.cls-2,.cls-6{fill:#00ab81;}.cls-10,.cls-11,.cls-12,.cls-2,.cls-3,.cls-4,.cls-5,.cls-6,.cls-7,.cls-8,.cls-9{stroke:#1c19a8;}.cls-10,.cls-12,.cls-2,.cls-3,.cls-4,.cls-5,.cls-6,.cls-7,.cls-8{stroke-linejoin:round;}.cls-10,.cls-11,.cls-12,.cls-2,.cls-3,.cls-4,.cls-5,.cls-9{stroke-width:2.82px;}.cls-3,.cls-9{fill:none;}.cls-4{fill:#fb715d;}.cls-10,.cls-5,.cls-7,.cls-8{fill:#ffde00;}.cls-6,.cls-8{stroke-linecap:round;}.cls-6,.cls-7,.cls-8{stroke-width:2.81px;}.cls-11,.cls-9{stroke-miterlimit:10;}.cls-10{fill-rule:evenodd;}.cls-11,.cls-12,.cls-13,.cls-14{fill:#1c19a8;}.cls-13,.cls-14{font-size:25.62px;}.cls-13{font-family:BradleyHandITCTT-Bold, Bradley Hand;font-weight:700;}.cls-14{font-family:Lobster-Regular, Lobster;}</style>
  </defs>
  <rect class="cls-1" x="100.34" y="219.07" width="416.38" height="236.04"></rect>
  <path class="cls-2" d="M452.31,296.2h0a8.62,8.62,0,0,1,8.62,8.62v0a0,0,0,0,1,0,0h0a8.62,8.62,0,0,1-8.62-8.62v0A0,0,0,0,1,452.31,296.2Z" transform="translate(-60.65 477.25) rotate(-52.21)"></path>
  <path class="cls-2" d="M456.31,308.8h0a8.62,8.62,0,0,1,8.62,8.62v0a0,0,0,0,1,0,0h0a8.62,8.62,0,0,1-8.62-8.62v0A0,0,0,0,1,456.31,308.8Z" transform="translate(-96.34 309.63) rotate(-33.85)"></path>
  <path class="cls-2" d="M456.31,317.18h0a8.62,8.62,0,0,1,8.62,8.62v0a0,0,0,0,1,0,0h0a8.62,8.62,0,0,1-8.62-8.62v0A0,0,0,0,1,456.31,317.18Z" transform="translate(-101 311.05) rotate(-33.85)"></path>
  <path class="cls-2" d="M452.48,324.5h0a8.62,8.62,0,0,1,8.62,8.62v0a0,0,0,0,1,0,0h0a8.62,8.62,0,0,1-8.62-8.62v0A0,0,0,0,1,452.48,324.5Z" transform="translate(-105.73 310.16) rotate(-33.85)"></path>
  <path class="cls-2" d="M439,327.38h0a8.62,8.62,0,0,1,8.62,8.62v0a0,0,0,0,1,0,0h0a8.62,8.62,0,0,1-8.62-8.62v0A0,0,0,0,1,439,327.38Z" transform="translate(-65.61 549.73) rotate(-60)"></path>
  <path class="cls-2" d="M436.56,337.36h0a8.62,8.62,0,0,1,8.62,8.62v0a0,0,0,0,1,0,0h0a8.62,8.62,0,0,1-8.62-8.62v0A0,0,0,0,1,436.56,337.36Z" transform="translate(14.27 700.99) rotate(-77.88)"></path>
  <path class="cls-2" d="M447.5,334h0a8.62,8.62,0,0,1,8.62,8.62v0a0,0,0,0,1,0,0h0A8.62,8.62,0,0,1,447.5,334v0A0,0,0,0,1,447.5,334Z" transform="translate(-98.16 211.39) rotate(-23.83)"></path>
  <path class="cls-3" d="M437.18,251.14c-.31-2.58-3.28-3.92-5.87-4.13-3-.24-6.29.53-8.1,2.91-1.3,1.72-1.61,4-1.83,6.12-.71,7-.91,14.25-3.33,20.9s-7.68,12.81-14.66,14c-3.74.63-8-.45-10.24-3.49a10.94,10.94,0,0,1-1.95-6.25c-.06-2.09.46-4.47,2.26-5.52,2.17-1.25,5.2.35,5.93,2.74s-.44,5.06-2.33,6.7a15,15,0,0,1-6.8,3,30.07,30.07,0,0,1-15-.16,19,19,0,0,1-11.58-9.14"></path>
  <path class="cls-4" d="M454.06,270.07H440.48a8.08,8.08,0,0,1-7.89-6.36l-2.61-12h34.58l-2.61,12A8.08,8.08,0,0,1,454.06,270.07Z"></path>
  <rect class="cls-5" x="443.71" y="243.97" width="7.13" height="7.78"></rect>
  <line class="cls-2" x1="447.27" y1="243.97" x2="447.27" y2="223.21"></line>
  <path class="cls-2" d="M425.92,237.47h0a12.74,12.74,0,0,1,12.74,12.74v0a0,0,0,0,1,0,0h0a12.74,12.74,0,0,1-12.74-12.74v0A0,0,0,0,1,425.92,237.47Z" transform="translate(830.68 539.85) rotate(-172.81)"></path>
  <path class="cls-2" d="M436.77,235.9h0a12.74,12.74,0,0,1,12.74,12.74v0a0,0,0,0,1,0,0h0a12.74,12.74,0,0,1-12.74-12.74v0A0,0,0,0,1,436.77,235.9Z" transform="translate(664.63 696.16) rotate(-144.68)"></path>
  <path class="cls-2" d="M444.42,236.47h0a12.74,12.74,0,0,1,12.74,12.74v0a0,0,0,0,1,0,0h0a12.74,12.74,0,0,1-12.74-12.74v0a0,0,0,0,1,0,0Z" transform="translate(358.75 746.53) rotate(-107.96)"></path>
  <path class="cls-2" d="M430.54,236.63h0a12.74,12.74,0,0,1,12.74,12.74v0a0,0,0,0,1,0,0h0a12.74,12.74,0,0,1-12.74-12.74v0a0,0,0,0,1,0,0Z" transform="translate(836.48 543.49) rotate(-172.14)"></path>
  <path class="cls-2" d="M452.66,244.67h0a8.62,8.62,0,0,1,8.62,8.62v0a0,0,0,0,1,0,0h0a8.62,8.62,0,0,1-8.62-8.62v0A0,0,0,0,1,452.66,244.67Z" transform="translate(-35.43 417.37) rotate(-47.46)"></path>
  <path class="cls-2" d="M422.76,244.46h0a8.62,8.62,0,0,1,8.62,8.62v0a0,0,0,0,1,0,0h0a8.62,8.62,0,0,1-8.62-8.62v0A0,0,0,0,1,422.76,244.46Z" transform="translate(921.31 249.41) rotate(149.85)"></path>
  <path class="cls-2" d="M385.33,289.69h0a8.62,8.62,0,0,1,8.62,8.62v0a0,0,0,0,1,0,0h0a8.62,8.62,0,0,1-8.62-8.62v0A0,0,0,0,1,385.33,289.69Z" transform="translate(708.89 663.24) rotate(-167.88)"></path>
  <path class="cls-2" d="M377.33,290.67h0a8.62,8.62,0,0,1,8.62,8.62v0a0,0,0,0,1,0,0h0a8.62,8.62,0,0,1-8.62-8.62v0A0,0,0,0,1,377.33,290.67Z" transform="translate(349.23 776.24) rotate(-123.85)"></path>
  <path class="cls-2" d="M369.54,289.69h0a8.62,8.62,0,0,1,8.62,8.62v0a0,0,0,0,1,0,0h0a8.62,8.62,0,0,1-8.62-8.62v0A0,0,0,0,1,369.54,289.69Z" transform="translate(156.99 717.29) rotate(-101.06)"></path>
  <path class="cls-2" d="M362.64,284.82h0a8.62,8.62,0,0,1,8.62,8.62v0a0,0,0,0,1,0,0h0a8.62,8.62,0,0,1-8.62-8.62v0A0,0,0,0,1,362.64,284.82Z" transform="translate(-47.15 505.39) rotate(-65.81)"></path>
  <path class="cls-2" d="M398.45,273.17h0a8.62,8.62,0,0,1,8.62,8.62v0a0,0,0,0,1,0,0h0a8.62,8.62,0,0,1-8.62-8.62v0A0,0,0,0,1,398.45,273.17Z" transform="translate(524.47 751.18) rotate(-138.97)"></path>
  <path class="cls-2" d="M322.19,318.49h0a8.62,8.62,0,0,1,8.62,8.62v0a0,0,0,0,1,0,0h0a8.62,8.62,0,0,1-8.62-8.62v0A0,0,0,0,1,322.19,318.49Z" transform="translate(-71.89 94.58) rotate(-14.87)"></path>
  <path class="cls-2" d="M310.31,324.53h0a8.62,8.62,0,0,1,8.62,8.62v0a0,0,0,0,1,0,0h0a8.62,8.62,0,0,1-8.62-8.62v0A0,0,0,0,1,310.31,324.53Z" transform="translate(-55.22 594.04) rotate(-81.91)"></path>
  <path class="cls-3" d="M442.41,251.61a3,3,0,0,0-3.05,2.86c0,2.9,2.33,5.17,4.37,7.23a18.59,18.59,0,0,1,4.27,5.93,8,8,0,0,1-.31,7.08c-1.88,3-5.9,3.83-8.77,6a11.08,11.08,0,0,0-3.22,13.4,30.5,30.5,0,0,0,3.85,5.23c3.67,4.59,6.27,10.58,4.95,16.31a5.88,5.88,0,0,1-1.71,3.25c-1.44,1.22-3.54,1.18-5.43,1.07"></path>
  <path class="cls-3" d="M454.54,252a8.41,8.41,0,0,1,5.8,5,22.48,22.48,0,0,1,1.48,8.42,37,37,0,0,1-1.36,11.95,19.55,19.55,0,0,1-6.6,9.89c-1.56,1.18-3.41,2.13-4.39,3.83-1.22,2.1-.76,4.77,0,7.09,1.21,3.87,3,7.52,4.29,11.37s1.87,8.09.61,11.94c-1,3.08-3.11,5.64-4.95,8.29s-3.5,5.67-3.39,8.9,2.63,6.56,5.86,6.46"></path>
  <path class="cls-4" d="M347.52,270.07H334a8.09,8.09,0,0,1-7.9-6.36l-2.61-12H358l-2.61,12A8.09,8.09,0,0,1,347.52,270.07Z"></path>
  <rect class="cls-5" x="337.17" y="243.97" width="7.13" height="7.78"></rect>
  <line class="cls-2" x1="340.74" y1="243.97" x2="340.74" y2="223.21"></line>
  <path class="cls-3" d="M350,250.88c-1.17-4.23,2.68-8.75,7.05-9.13s8.55,2.66,10.51,6.58,2.06,8.54,1.36,12.87c-.94,5.8-3.43,11.64-8.17,15.11-3.74,2.74-8.45,3.73-13,4.36s-9.3,1-13.61,2.68-8.28,5.07-9.29,9.59a17.1,17.1,0,0,0,.19,6.83c2,10.63,7.54,20.56,7.94,31.38a34.22,34.22,0,0,1-5.43,20.27"></path>
  <path class="cls-3" d="M330.58,251c-1.29,3.47-.15,7.41,1.74,10.6s4.49,5.89,6.49,9A27.95,27.95,0,0,1,334,306.45c-2.51,2.26-5.41,4.05-8,6.21s-5,4.81-5.9,8.06a14.91,14.91,0,0,0-.42,5.07,23,23,0,0,0,3.72,11.06"></path>
  <path class="cls-3" d="M342.8,252c-.07,5.17,4.12,9.62,8.92,11.54s10.13,1.86,15.3,1.82,10.52,0,15.24,2.13a26.11,26.11,0,0,1,6.35,4.22c3.26,2.82,6.31,6.69,5.8,11a8,8,0,0,1-6.11,6.67c-3.12.66-6.73-1-7.77-4a8.06,8.06,0,0,1,.88-6.37c2.64-4.83,8.26-7.5,13.76-7.78s10.9,1.52,15.91,3.81,9.77,5.11,14.9,7.1a22.36,22.36,0,0,0,9.74,1.84,10.68,10.68,0,0,0,8.38-4.75"></path>
  <path class="cls-2" d="M333.62,253.85h0a8.62,8.62,0,0,1,8.62,8.62v0a0,0,0,0,1,0,0h0a8.62,8.62,0,0,1-8.62-8.62v0A0,0,0,0,1,333.62,253.85Z" transform="translate(2.05 518.98) rotate(-75.21)"></path>
  <path class="cls-2" d="M324.4,262.4h0A8.62,8.62,0,0,1,333,271v0a0,0,0,0,1,0,0h0a8.62,8.62,0,0,1-8.62-8.62v0A0,0,0,0,1,324.4,262.4Z" transform="translate(-13.09 516.43) rotate(-75.21)"></path>
  <path class="cls-2" d="M330,270.66h0a8.62,8.62,0,0,1,8.62,8.62v0a0,0,0,0,1,0,0h0a8.62,8.62,0,0,1-8.62-8.62v0A0,0,0,0,1,330,270.66Z" transform="translate(-53.5 467.27) rotate(-65.81)"></path>
  <path class="cls-2" d="M315.19,287.12h0a8.62,8.62,0,0,1,8.62,8.62v0a0,0,0,0,1,0,0h0a8.62,8.62,0,0,1-8.62-8.62v0A0,0,0,0,1,315.19,287.12Z" transform="translate(-15.15 17.53) rotate(-3.07)"></path>
  <path class="cls-2" d="M328.32,285.19h0a8.62,8.62,0,0,1,8.62,8.62v0a0,0,0,0,1,0,0h0a8.62,8.62,0,0,1-8.62-8.62v0A0,0,0,0,1,328.32,285.19Z" transform="translate(-108.02 272.86) rotate(-38.87)"></path>
  <path class="cls-2" d="M344.19,286.77h0a8.62,8.62,0,0,1,8.62,8.62v0a0,0,0,0,1,0,0h0a8.62,8.62,0,0,1-8.62-8.62v0A0,0,0,0,1,344.19,286.77Z" transform="translate(-59.82 489.71) rotate(-65.81)"></path>
  <path class="cls-2" d="M347,253.1h0a8.62,8.62,0,0,1,8.62,8.62v0a0,0,0,0,1,0,0h0A8.62,8.62,0,0,1,347,253.1v0A0,0,0,0,1,347,253.1Z" transform="translate(-27.43 472.43) rotate(-65.81)"></path>
  <path class="cls-2" d="M354.83,256.22h0a8.62,8.62,0,0,1,8.62,8.62v0a0,0,0,0,1,0,0h0a8.62,8.62,0,0,1-8.62-8.62v0A0,0,0,0,1,354.83,256.22Z" transform="translate(118.23 633.1) rotate(-93.07)"></path>
  <path class="cls-2" d="M363.13,265.76h0a8.62,8.62,0,0,1,8.62,8.62v0a0,0,0,0,1,0,0h0a8.62,8.62,0,0,1-8.62-8.62v0A0,0,0,0,1,363.13,265.76Z" transform="translate(661.4 618.69) rotate(-166.45)"></path>
  <path class="cls-2" d="M363.79,256.6h0a8.62,8.62,0,0,1,8.62,8.62v0a0,0,0,0,1,0,0h0a8.62,8.62,0,0,1-8.62-8.62v0A0,0,0,0,1,363.79,256.6Z" transform="translate(150.89 656.36) rotate(-96.55)"></path>
  <path class="cls-2" d="M339.68,296.46h0a8.62,8.62,0,0,1,8.62,8.62v0a0,0,0,0,1,0,0h0a8.62,8.62,0,0,1-8.62-8.62v0A0,0,0,0,1,339.68,296.46Z" transform="translate(-105.51 382.86) rotate(-51.51)"></path>
  <path class="cls-2" d="M333.87,305.18h0a8.62,8.62,0,0,1,8.62,8.62v0a0,0,0,0,1,0,0h0a8.62,8.62,0,0,1-8.62-8.62v0A0,0,0,0,1,333.87,305.18Z" transform="translate(-104.31 189.69) rotate(-27.31)"></path>
  <path class="cls-2" d="M327.08,311.43h0A8.62,8.62,0,0,1,335.7,320v0a0,0,0,0,1,0,0h0a8.62,8.62,0,0,1-8.62-8.62v0A0,0,0,0,1,327.08,311.43Z" transform="translate(-69.92 95.59) rotate(-14.87)"></path>
  <path class="cls-2" d="M333.62,287.39h0a8.62,8.62,0,0,1,8.62,8.62v0a0,0,0,0,1,0,0h0a8.62,8.62,0,0,1-8.62-8.62v0A0,0,0,0,1,333.62,287.39Z" transform="translate(123.2 -99.68) rotate(20.45)"></path>
  <path class="cls-2" d="M328.32,294.81h0a8.62,8.62,0,0,1,8.62,8.62v0a0,0,0,0,1,0,0h0a8.62,8.62,0,0,1-8.62-8.62v0A0,0,0,0,1,328.32,294.81Z" transform="matrix(0.98, 0.21, -0.21, 0.98, 70.2, -63.16)"></path>
  <path class="cls-2" d="M321.94,300.25h0a8.62,8.62,0,0,1,8.62,8.62v0a0,0,0,0,1,0,0h0a8.62,8.62,0,0,1-8.62-8.62v0A0,0,0,0,1,321.94,300.25Z" transform="translate(71.2 -61.7) rotate(12.12)"></path>
  <path class="cls-2" d="M314.46,306.36h0a8.62,8.62,0,0,1,8.62,8.62v0a0,0,0,0,1,0,0h0a8.62,8.62,0,0,1-8.62-8.62v0A0,0,0,0,1,314.46,306.36Z" transform="translate(12.37 -12.21) rotate(2.24)"></path>
  <path class="cls-2" d="M334.53,326.3h0a8.62,8.62,0,0,1,8.62,8.62v0a0,0,0,0,1,0,0h0a8.62,8.62,0,0,1-8.62-8.62v0A0,0,0,0,1,334.53,326.3Z" transform="matrix(0.78, -0.63, 0.63, 0.78, -132.45, 285.86)"></path>
  <path class="cls-2" d="M333.44,335.82h0a8.62,8.62,0,0,1,8.62,8.62v0a0,0,0,0,1,0,0h0a8.62,8.62,0,0,1-8.62-8.62v0A0,0,0,0,1,333.44,335.82Z" transform="translate(-90.37 124.54) rotate(-18.47)"></path>
  <path class="cls-2" d="M330.74,345.18h0a8.62,8.62,0,0,1,8.62,8.62v0a0,0,0,0,1,0,0h0a8.62,8.62,0,0,1-8.62-8.62v0A0,0,0,0,1,330.74,345.18Z" transform="matrix(1, -0.04, 0.04, 1, -13.13, 13.08)"></path>
  <path class="cls-2" d="M320.69,341.35h0a8.62,8.62,0,0,1,8.62,8.62v0a0,0,0,0,1,0,0h0a8.62,8.62,0,0,1-8.62-8.62v0A0,0,0,0,1,320.69,341.35Z" transform="translate(-147.37 390.08) rotate(-52.14)"></path>
  <path class="cls-2" d="M322.62,331.66h0a8.62,8.62,0,0,1,8.62,8.62v0a0,0,0,0,1,0,0h0a8.62,8.62,0,0,1-8.62-8.62v0A0,0,0,0,1,322.62,331.66Z" transform="translate(-109.08 163.76) rotate(-24.23)"></path>
  <path class="cls-2" d="M338.89,262h0a8.62,8.62,0,0,1,8.62,8.62v0a0,0,0,0,1,0,0h0a8.62,8.62,0,0,1-8.62-8.62v0A0,0,0,0,1,338.89,262Z" transform="translate(-59 430.36) rotate(-60)"></path>
  <path class="cls-2" d="M325,237.23h0A12.74,12.74,0,0,1,337.73,250v0a0,0,0,0,1,0,0h0A12.74,12.74,0,0,1,325,237.23v0A0,0,0,0,1,325,237.23Z" transform="translate(617.19 539.32) rotate(-170.35)"></path>
  <path class="cls-2" d="M335.9,236.14h0a12.74,12.74,0,0,1,12.74,12.74v0a0,0,0,0,1,0,0h0a12.74,12.74,0,0,1-12.74-12.74v0A0,0,0,0,1,335.9,236.14Z" transform="translate(464.18 643.88) rotate(-142.21)"></path>
  <path class="cls-2" d="M343.52,237h0a12.74,12.74,0,0,1,12.74,12.74v0a0,0,0,0,1,0,0h0A12.74,12.74,0,0,1,343.52,237v0A0,0,0,0,1,343.52,237Z" transform="translate(208.78 645.58) rotate(-105.49)"></path>
  <path class="cls-2" d="M329.65,236.6h0a12.74,12.74,0,0,1,12.74,12.74v0a0,0,0,0,1,0,0h0a12.74,12.74,0,0,1-12.74-12.74v0A0,0,0,0,1,329.65,236.6Z" transform="translate(623.04 542.23) rotate(-169.67)"></path>
  <path class="cls-2" d="M351.48,245.5h0a8.62,8.62,0,0,1,8.62,8.62v0a0,0,0,0,1,0,0h0a8.62,8.62,0,0,1-8.62-8.62v0A0,0,0,0,1,351.48,245.5Z" transform="translate(-72.43 324.75) rotate(-45)"></path>
  <path class="cls-2" d="M321.62,244h0a8.62,8.62,0,0,1,8.62,8.62v0a0,0,0,0,1,0,0h0a8.62,8.62,0,0,1-8.62-8.62v0A0,0,0,0,1,321.62,244Z" transform="translate(729.91 316.77) rotate(152.32)"></path>
  <path class="cls-2" d="M353.72,264.86h0a8.62,8.62,0,0,1,8.62,8.62v0a0,0,0,0,1,0,0h0a8.62,8.62,0,0,1-8.62-8.62v0A0,0,0,0,1,353.72,264.86Z" transform="translate(621.55 631.38) rotate(-162.97)"></path>
  <path class="cls-2" d="M373.59,257.81h0a8.62,8.62,0,0,1,8.62,8.62v0a0,0,0,0,1,0,0h0a8.62,8.62,0,0,1-8.62-8.62v0A0,0,0,0,1,373.59,257.81Z" transform="translate(96.36 625.79) rotate(-87)"></path>
  <path class="cls-2" d="M380.84,268.18h0a8.62,8.62,0,0,1,8.62,8.62v0a0,0,0,0,1,0,0h0a8.62,8.62,0,0,1-8.62-8.62v0A0,0,0,0,1,380.84,268.18Z" transform="matrix(-0.94, -0.34, 0.34, -0.94, 656.46, 658.47)"></path>
  <path class="cls-2" d="M382.45,259.14h0a8.62,8.62,0,0,1,8.62,8.62v0a0,0,0,0,1,0,0h0a8.62,8.62,0,0,1-8.62-8.62v0A0,0,0,0,1,382.45,259.14Z" transform="translate(126.58 652.41) rotate(-90.48)"></path>
  <path class="cls-2" d="M391.47,261.34h0a8.62,8.62,0,0,1,8.62,8.62v0a0,0,0,0,1,0,0h0a8.62,8.62,0,0,1-8.62-8.62v0A0,0,0,0,1,391.47,261.34Z" transform="translate(285.12 729.29) rotate(-110.45)"></path>
  <path class="cls-2" d="M409.4,287.84h0a8.62,8.62,0,0,1,8.62,8.62v0a0,0,0,0,1,0,0h0a8.62,8.62,0,0,1-8.62-8.62v0A0,0,0,0,1,409.4,287.84Z" transform="translate(705.34 706.23) rotate(-160.38)"></path>
  <path class="cls-2" d="M401.14,292.4h0a8.62,8.62,0,0,1,8.62,8.62v0a0,0,0,0,1,0,0h0a8.62,8.62,0,0,1-8.62-8.62v0A0,0,0,0,1,401.14,292.4Z" transform="translate(574.92 769.68) rotate(-145.91)"></path>
  <path class="cls-2" d="M391,292h0a8.62,8.62,0,0,1,8.62,8.62v0a0,0,0,0,1,0,0h0A8.62,8.62,0,0,1,391,292v0A0,0,0,0,1,391,292Z" transform="translate(255.77 770.22) rotate(-110.45)"></path>
  <path class="cls-2" d="M400.44,261.63h0a8.62,8.62,0,0,1,8.62,8.62v0a0,0,0,0,1,0,0h0a8.62,8.62,0,0,1-8.62-8.62v0A0,0,0,0,1,400.44,261.63Z" transform="translate(296.95 738.09) rotate(-110.45)"></path>
  <path class="cls-2" d="M408.15,264.3h0a8.62,8.62,0,0,1,8.62,8.62v0a0,0,0,0,1,0,0h0a8.62,8.62,0,0,1-8.62-8.62v0A0,0,0,0,1,408.15,264.3Z" transform="translate(304.86 748.92) rotate(-110.45)"></path>
  <path class="cls-2" d="M421.42,267h0a8.62,8.62,0,0,1,8.62,8.62v0a0,0,0,0,1,0,0h0a8.62,8.62,0,0,1-8.62-8.62v0A0,0,0,0,1,421.42,267Z" transform="translate(-57 123.57) rotate(-15.49)"></path>
  <path class="cls-2" d="M438.34,264.72h0a8.62,8.62,0,0,1,8.62,8.62v0a0,0,0,0,1,0,0h0a8.62,8.62,0,0,1-8.62-8.62v0A0,0,0,0,1,438.34,264.72Z" transform="translate(-60.58 391.8) rotate(-45)"></path>
  <path class="cls-2" d="M436.56,285.19h0a8.62,8.62,0,0,1,8.62,8.62v0a0,0,0,0,1,0,0h0a8.62,8.62,0,0,1-8.62-8.62v0A0,0,0,0,1,436.56,285.19Z" transform="translate(-73.36 172.25) rotate(-20.45)"></path>
  <path class="cls-2" d="M440.48,293.24h0a8.62,8.62,0,0,1,8.62,8.62v0a0,0,0,0,1,0,0h0a8.62,8.62,0,0,1-8.62-8.62v0A0,0,0,0,1,440.48,293.24Z" transform="translate(-62.9 466.75) rotate(-52.21)"></path>
  <path class="cls-2" d="M445.62,303h0a8.62,8.62,0,0,1,8.62,8.62v0a0,0,0,0,1,0,0h0a8.62,8.62,0,0,1-8.62-8.62v0A0,0,0,0,1,445.62,303Z" transform="translate(-91 372.55) rotate(-41.21)"></path>
  <path class="cls-2" d="M444.16,313.81h0a8.62,8.62,0,0,1,8.62,8.62v0a0,0,0,0,1,0,0h0a8.62,8.62,0,0,1-8.62-8.62v0A0,0,0,0,1,444.16,313.81Z" transform="translate(55.62 -66.58) rotate(9.05)"></path>
  <path class="cls-2" d="M435.44,319.47h0a8.62,8.62,0,0,1,8.62,8.62v0a0,0,0,0,1,0,0h0a8.62,8.62,0,0,1-8.62-8.62v0A0,0,0,0,1,435.44,319.47Z" transform="matrix(0.27, 0.96, -0.96, 0.27, 634.31, -186.47)"></path>
  <path class="cls-2" d="M432.6,300.74h0a8.62,8.62,0,0,1,8.62,8.62v0a0,0,0,0,1,0,0h0a8.62,8.62,0,0,1-8.62-8.62v0A0,0,0,0,1,432.6,300.74Z" transform="translate(183.7 773.92) rotate(-96.55)"></path>
  <path class="cls-2" d="M431.37,313.41h0A8.62,8.62,0,0,1,440,322v0a0,0,0,0,1,0,0h0a8.62,8.62,0,0,1-8.62-8.62v0A0,0,0,0,1,431.37,313.41Z" transform="translate(-103.13 296.52) rotate(-33.85)"></path>
  <path class="cls-2" d="M427.1,290h0a8.62,8.62,0,0,1,8.62,8.62v0a0,0,0,0,1,0,0h0A8.62,8.62,0,0,1,427.1,290v0A0,0,0,0,1,427.1,290Z" transform="translate(225.32 774.12) rotate(-101.06)"></path>
  <path class="cls-2" d="M445.58,255.44h0a8.62,8.62,0,0,1,8.62,8.62v0a0,0,0,0,1,0,0h0a8.62,8.62,0,0,1-8.62-8.62v0A0,0,0,0,1,445.58,255.44Z" transform="matrix(0, 1, -1, 0, 709.64, -190.14)"></path>
  <path class="cls-2" d="M411.22,254.5h0a8.62,8.62,0,0,1,8.62,8.62v0a0,0,0,0,1,0,0h0a8.62,8.62,0,0,1-8.62-8.62v0A0,0,0,0,1,411.22,254.5Z" transform="translate(-54.03 120.39) rotate(-15.49)"></path>
  <path class="cls-2" d="M422.25,252.6h0a8.62,8.62,0,0,1,8.62,8.62v0a0,0,0,0,1,0,0h0a8.62,8.62,0,0,1-8.62-8.62v0A0,0,0,0,1,422.25,252.6Z" transform="translate(-29.68 456.4) rotate(-54.68)"></path>
  <path class="cls-2" d="M371.57,266.29h0a8.62,8.62,0,0,1,8.62,8.62v0a0,0,0,0,1,0,0h0a8.62,8.62,0,0,1-8.62-8.62v0A0,0,0,0,1,371.57,266.29Z" transform="translate(615.48 666.96) rotate(-156.9)"></path>
  <path class="cls-2" d="M447.5,343.45h0a8.62,8.62,0,0,1,8.62,8.62v0a0,0,0,0,1,0,0h0a8.62,8.62,0,0,1-8.62-8.62v0A0,0,0,0,1,447.5,343.45Z"></path>
  <path class="cls-6" d="M488.09,366.88c-.42-5,2-9.73,2.83-14.65,1.09-6.3-.3-12.93,1.49-19.06-.32,7.21,2.37,14.44,1.14,21.55-.29,1.69-.8,3.34-1,5-.29,2.85,1.29,9.18,2.51,11.69l-2.13,7-7.06.44Z"></path>
  <path class="cls-6" d="M476.47,394a15.54,15.54,0,0,0-2.26-8.46c-1.92-3.13-5-5.67-5.85-9.24A31.3,31.3,0,0,0,477,381c1.65.58,3.43,1.07,4.62,2.35l14.44,11.23-19.71,2.89Z"></path>
  <path class="cls-6" d="M493.87,396.42a13.48,13.48,0,0,1,1.92-5.31c.87-1.4,2-2.65,2.74-4.13,1.61-3.22,1.12-7,.6-10.6l-7.56,5.15-7.24,11.73Z"></path>
  <path class="cls-6" d="M484,389.7c.35-3.35-1.28-6.71-2.66-9.79s-3.11-6-4.27-9.16c-2.62-7.16-2.14-15.09-.7-22.57a28.42,28.42,0,0,0,6.17,20.45l5.54,7.25-1.51,13.82Z"></path>
  <path class="cls-6" d="M490.34,388l4-4.82a17.71,17.71,0,0,0,2.89-4.21,15.41,15.41,0,0,0,1-4.62,55.93,55.93,0,0,0,.14-9.51c-.33-4.59-1.13-9.62,1.41-13.46a23.15,23.15,0,0,0-3.1,4.88c-1.38,3.32-1.14,7.05-1.36,10.64s-1.1,7.48-4,9.65L488,378l-.72,11.72Z"></path>
  <path class="cls-6" d="M480.8,394.59c3.49-4,4.27-9.69,3.84-15s-1.32-10.42-1.75-15.69.37-11,3.86-15a21.06,21.06,0,0,0-.67,11.21c.78,3.59,2.49,6.91,3.53,10.43,2.41,8.15,1.1,17.06-2.24,24.87Z"></path>
  <polygon class="cls-7" points="499.7 394.58 472.1 394.58 477.35 420.89 494.46 420.89 499.7 394.58"></polygon>
  <line class="cls-8" x1="475.1" y1="409.64" x2="496.7" y2="409.64"></line>
  <line class="cls-8" x1="474.23" y1="405.26" x2="497.57" y2="405.26"></line>
  <rect class="cls-5" x="275.85" y="281.39" width="8.2" height="9.8"></rect>
  <line class="cls-5" x1="279.96" y1="281.39" x2="279.96" y2="226.19"></line>
  <path class="cls-2" d="M268.17,291.18h23.56a7.85,7.85,0,0,1,7.85,7.85v0a0,0,0,0,1,0,0H260.32a0,0,0,0,1,0,0v0A7.85,7.85,0,0,1,268.17,291.18Z"></path>
  <rect class="cls-5" x="407.42" y="281.39" width="8.2" height="9.8"></rect>
  <line class="cls-5" x1="411.53" y1="281.39" x2="411.53" y2="226.19"></line>
  <path class="cls-2" d="M399.75,291.18h23.56a7.85,7.85,0,0,1,7.85,7.85v0a0,0,0,0,1,0,0H391.89a0,0,0,0,1,0,0v0a7.85,7.85,0,0,1,7.85-7.85Z"></path>
  <rect class="cls-4" x="94.21" y="204.96" width="413.77" height="21"></rect>
  <path class="cls-2" d="M94.21,190v14.9A8.68,8.68,0,0,0,109.09,211a8.67,8.67,0,0,0,12.38,0,8.68,8.68,0,0,0,12.39,0,8.68,8.68,0,0,0,12.39,0,8.68,8.68,0,0,0,12.39,0A8.68,8.68,0,0,0,171,211a8.67,8.67,0,0,0,12.38,0,8.68,8.68,0,0,0,12.39,0,8.68,8.68,0,0,0,12.39,0,8.68,8.68,0,0,0,12.39,0A8.67,8.67,0,0,0,233,211a8.68,8.68,0,0,0,12.39,0,8.68,8.68,0,0,0,12.39,0,8.68,8.68,0,0,0,12.39,0,8.67,8.67,0,0,0,12.38,0,8.68,8.68,0,0,0,12.39,0,8.68,8.68,0,0,0,12.39,0,8.68,8.68,0,0,0,12.39,0,8.67,8.67,0,0,0,12.38,0,8.68,8.68,0,0,0,12.39,0,8.68,8.68,0,0,0,12.39,0,8.68,8.68,0,0,0,12.39,0,8.67,8.67,0,0,0,12.38,0A8.68,8.68,0,0,0,394,211a8.68,8.68,0,0,0,12.39,0,8.68,8.68,0,0,0,12.39,0,8.67,8.67,0,0,0,12.38,0,8.68,8.68,0,0,0,12.39,0,8.68,8.68,0,0,0,12.39,0,8.68,8.68,0,0,0,12.39,0,8.68,8.68,0,0,0,12.39,0,8.67,8.67,0,0,0,12.38,0A8.68,8.68,0,0,0,508,204.93V190Z"></path>
  <line class="cls-9" x1="250.04" y1="320.57" x2="250.04" y2="460.46"></line>
  <path class="cls-10" d="M193.67,366.14a.45.45,0,0,1,.34.49v2.45a.45.45,0,0,1-.38.49h-.11a1.87,1.87,0,0,0,.35.67,6,6,0,0,0,1,.91,5.4,5.4,0,0,1,1.22,1.14,3.57,3.57,0,0,1,.64,2h0v11.42a2,2,0,0,1-1.69,2.16h-9a2,2,0,0,1-1.68-2.16V374.37h0a3.51,3.51,0,0,1,.63-2,5.71,5.71,0,0,1,1.21-1.16,5.32,5.32,0,0,0,1-.92,1.64,1.64,0,0,0,.34-.67h-.13a.45.45,0,0,1-.38-.49l0-2.44a.64.64,0,0,1,.11-.36.35.35,0,0,1,.27-.14h6.2Z"></path>
  <path class="cls-10" d="M213.39,366.14a.46.46,0,0,1,.34.49v2.45a.45.45,0,0,1-.38.49h-.11a1.72,1.72,0,0,0,.35.67,6,6,0,0,0,1,.91,5.4,5.4,0,0,1,1.22,1.14,3.57,3.57,0,0,1,.64,2h0v11.42a2,2,0,0,1-1.69,2.16h-9a2,2,0,0,1-1.68-2.16V374.37h0a3.51,3.51,0,0,1,.63-2,5.71,5.71,0,0,1,1.21-1.16,5.32,5.32,0,0,0,1-.92,1.64,1.64,0,0,0,.34-.67h-.13a.45.45,0,0,1-.39-.49v-2.44a.52.52,0,0,1,.11-.36.35.35,0,0,1,.27-.14h6.2Z"></path>
  <path class="cls-2" d="M243.6,424.69h-8.49l0-14.63,2.21-6.85v-5.62h4.13v5.62l2.21,6.85Z"></path>
  <path class="cls-2" d="M228.33,424.69h-8.49l0-14.63,2.21-6.85v-5.62h4.13v5.62l2.21,6.85Z"></path>
  <rect class="cls-4" x="217.24" y="336.19" width="23.21" height="18.06" transform="translate(457.69 690.43) rotate(-180)"></rect>
  <rect class="cls-11" x="178.67" y="421.6" width="71.37" height="4.8" transform="translate(428.71 848) rotate(-180)"></rect>
  <rect class="cls-11" x="178.67" y="387.92" width="71.37" height="4.8" transform="translate(428.71 780.64) rotate(-180)"></rect>
  <rect class="cls-11" x="178.67" y="354.25" width="71.37" height="4.8" transform="translate(428.71 713.29) rotate(-180)"></rect>
  <rect class="cls-11" x="178.67" y="320.57" width="71.37" height="4.8" transform="translate(428.71 645.94) rotate(-180)"></rect>
  <path class="cls-5" d="M216.68,320.57h-8.49l0-14.62,2.21-6.86v-5.61h4.12v5.61L216.7,306Z"></path>
  <path class="cls-5" d="M201.41,320.57h-8.49l0-14.62,2.21-6.86v-5.61h4.12v5.61l2.21,6.86Z"></path>
  <rect class="cls-12" x="285.57" y="365.05" width="69.85" height="7.22"></rect>
  <rect class="cls-12" x="314.97" y="372.26" width="8.17" height="54.86"></rect>
  <rect class="cls-12" x="381.82" y="347.9" width="6.35" height="41.92" transform="translate(770 737.73) rotate(-180)"></rect>
  <rect class="cls-12" x="343.64" y="387.75" width="44.53" height="5.02" transform="translate(731.82 780.52) rotate(-180)"></rect>
  <line class="cls-12" x1="383.86" y1="392.77" x2="383.86" y2="426.29"></line>
  <line class="cls-12" x1="379.49" y1="392.77" x2="379.49" y2="426.29"></line>
  <line class="cls-12" x1="353.8" y1="392.77" x2="353.8" y2="426.29"></line>
  <line class="cls-12" x1="349.43" y1="392.77" x2="349.43" y2="426.29"></line>
  <rect class="cls-12" x="262.2" y="347.9" width="6.35" height="41.92"></rect>
  <rect class="cls-12" x="262.2" y="387.75" width="44.53" height="5.02"></rect>
  <line class="cls-12" x1="266.52" y1="392.77" x2="266.52" y2="426.29"></line>
  <line class="cls-12" x1="270.89" y1="392.77" x2="270.89" y2="426.29"></line>
  <line class="cls-12" x1="296.57" y1="392.77" x2="296.57" y2="426.29"></line>
  <line class="cls-12" x1="300.94" y1="392.77" x2="300.94" y2="426.29"></line>
  <rect class="cls-12" x="438.18" y="364.81" width="69.85" height="7.22"></rect>
  <rect class="cls-12" x="467.58" y="405.51" width="8.17" height="54.86"></rect>
  <rect class="cls-2" x="366.19" y="332.03" width="301" height="17.41" transform="translate(857.42 -175.95) rotate(90)"></rect>
  <rect class="cls-2" x="-59.66" y="337.36" width="290.34" height="17.41" transform="translate(431.57 260.56) rotate(90)"></rect>
  <rect class="cls-2" x="76.8" y="125.53" width="448.59" height="11.56"></rect>
  <rect class="cls-5" x="67.12" y="473.25" width="471.47" height="18.1"></rect>
  <rect class="cls-2" x="199.75" y="225.95" width="10.52" height="247.2"></rect>
  <rect class="cls-2" x="199.75" y="459.54" width="308.23" height="13.62"></rect>
  <rect class="cls-2" x="94.21" y="459.54" width="105.54" height="13.62"></rect>
  <rect class="cls-12" x="411.53" y="347.67" width="6.35" height="41.92"></rect>
  <rect class="cls-12" x="411.53" y="387.51" width="44.53" height="5.02"></rect>
  <line class="cls-12" x1="415.84" y1="392.54" x2="415.84" y2="426.05"></line>
  <line class="cls-12" x1="420.21" y1="392.54" x2="420.21" y2="426.05"></line>
  <line class="cls-12" x1="445.9" y1="392.54" x2="445.9" y2="426.05"></line>
  <line class="cls-12" x1="450.27" y1="392.54" x2="450.27" y2="426.05"></line>
  <line class="cls-9" x1="165.98" y1="320.57" x2="165.98" y2="460.46"></line>
  <line class="cls-9" x1="177.66" y1="320.57" x2="177.66" y2="460.46"></line>
  <path class="cls-10" d="M109.61,366.14a.45.45,0,0,1,.34.49v2.45a.45.45,0,0,1-.38.49h-.11a1.87,1.87,0,0,0,.35.67,6,6,0,0,0,1,.91,5.4,5.4,0,0,1,1.22,1.14,3.57,3.57,0,0,1,.64,2h0v11.42a2,2,0,0,1-1.69,2.16h-9a2,2,0,0,1-1.68-2.16V374.37h0a3.51,3.51,0,0,1,.63-2,5.71,5.71,0,0,1,1.21-1.16,5.32,5.32,0,0,0,1-.92,1.64,1.64,0,0,0,.34-.67h-.13a.45.45,0,0,1-.38-.49l0-2.44a.64.64,0,0,1,.11-.36.35.35,0,0,1,.27-.14h6.2Z"></path>
  <path class="cls-10" d="M129.33,366.14a.46.46,0,0,1,.34.49v2.45a.45.45,0,0,1-.38.49h-.11a1.72,1.72,0,0,0,.35.67,6,6,0,0,0,1,.91,5.4,5.4,0,0,1,1.22,1.14,3.57,3.57,0,0,1,.64,2h0v11.42a2,2,0,0,1-1.69,2.16h-9a2,2,0,0,1-1.68-2.16V374.37h0a3.51,3.51,0,0,1,.63-2,5.71,5.71,0,0,1,1.21-1.16,5.32,5.32,0,0,0,1-.92,1.64,1.64,0,0,0,.34-.67h-.13a.45.45,0,0,1-.39-.49v-2.44a.52.52,0,0,1,.11-.36.35.35,0,0,1,.27-.14h6.2Z"></path>
  <path class="cls-2" d="M159.54,424.69h-8.49l0-14.63,2.21-6.85v-5.62h4.13v5.62l2.21,6.85Z"></path>
  <path class="cls-2" d="M144.27,424.69h-8.49l0-14.63,2.21-6.85v-5.62h4.12v5.62l2.21,6.85Z"></path>
  <rect class="cls-4" x="133.18" y="336.19" width="23.21" height="18.06" transform="translate(289.57 690.43) rotate(-180)"></rect>
  <rect class="cls-11" x="94.61" y="421.6" width="71.37" height="4.8" transform="translate(260.59 848) rotate(-180)"></rect>
  <rect class="cls-11" x="94.61" y="387.92" width="71.37" height="4.8" transform="translate(260.59 780.64) rotate(-180)"></rect>
  <rect class="cls-11" x="94.61" y="354.25" width="71.37" height="4.8" transform="translate(260.59 713.29) rotate(-180)"></rect>
  <rect class="cls-11" x="94.61" y="320.57" width="71.37" height="4.8" transform="translate(260.59 645.94) rotate(-180)"></rect>
  <path class="cls-5" d="M132.62,320.57h-8.49l0-14.62,2.21-6.86v-5.61h4.13v5.61l2.21,6.86Z"></path>
  <path class="cls-5" d="M117.35,320.57h-8.49l0-14.62,2.21-6.86v-5.61h4.13v5.61l2.21,6.86Z"></path>
  <rect class="cls-2" x="72" y="190.03" width="25.72" height="12.77"></rect>
  <circle class="cls-2" cx="84.86" cy="205.41" r="7.41"></circle>
  <circle class="cls-2" cx="76.8" cy="202.8" r="4.8"></circle>
  <circle class="cls-2" cx="92.92" cy="202.8" r="4.8"></circle>
  <rect class="cls-2" x="72" y="150.99" width="8.6" height="39.04"></rect>
  <rect class="cls-2" x="80.6" y="150.99" width="8.6" height="39.04"></rect>
  <rect class="cls-2" x="89.12" y="150.99" width="8.6" height="39.04"></rect>
  <rect class="cls-2" x="72" y="125.26" width="25.72" height="25.72"></rect>
  <rect class="cls-2" x="503.82" y="190.29" width="25.72" height="12.77"></rect>
  <circle class="cls-2" cx="516.68" cy="205.67" r="7.41"></circle>
  <circle class="cls-2" cx="508.62" cy="203.06" r="4.8"></circle>
  <circle class="cls-2" cx="524.74" cy="203.06" r="4.8"></circle>
  <rect class="cls-2" x="503.82" y="151.25" width="8.6" height="39.04"></rect>
  <rect class="cls-2" x="512.42" y="151.25" width="8.6" height="39.04"></rect>
  <rect class="cls-2" x="520.95" y="151.25" width="8.6" height="39.04"></rect>
  <rect class="cls-2" x="503.82" y="125.53" width="25.72" height="25.72"></rect>
  <rect class="cls-2" x="97.72" y="137.09" width="10.12" height="10.12"></rect>
  <rect class="cls-2" x="107.85" y="137.09" width="10.12" height="10.12"></rect>
  <rect class="cls-2" x="117.97" y="137.09" width="10.12" height="10.12"></rect>
  <rect class="cls-2" x="128.09" y="137.09" width="10.12" height="10.12"></rect>
  <rect class="cls-2" x="138.22" y="137.09" width="10.12" height="10.12"></rect>
  <rect class="cls-2" x="148.34" y="137.09" width="10.12" height="10.12"></rect>
  <rect class="cls-2" x="158.47" y="137.09" width="10.12" height="10.12"></rect>
  <rect class="cls-2" x="168.59" y="137.09" width="10.12" height="10.12"></rect>
  <rect class="cls-2" x="178.71" y="137.09" width="10.12" height="10.12"></rect>
  <rect class="cls-2" x="188.84" y="137.09" width="10.12" height="10.12"></rect>
  <rect class="cls-2" x="198.96" y="137.09" width="10.12" height="10.12"></rect>
  <rect class="cls-2" x="209.09" y="137.09" width="10.12" height="10.12"></rect>
  <rect class="cls-2" x="219.21" y="137.09" width="10.12" height="10.12"></rect>
  <rect class="cls-2" x="229.34" y="137.09" width="10.12" height="10.12"></rect>
  <rect class="cls-2" x="239.46" y="137.09" width="10.12" height="10.12"></rect>
  <rect class="cls-2" x="249.58" y="137.09" width="10.12" height="10.12"></rect>
  <rect class="cls-2" x="259.71" y="137.09" width="10.12" height="10.12"></rect>
  <rect class="cls-2" x="269.83" y="137.09" width="10.12" height="10.12"></rect>
  <rect class="cls-2" x="279.96" y="137.09" width="10.12" height="10.12"></rect>
  <rect class="cls-2" x="290.08" y="137.09" width="10.12" height="10.12"></rect>
  <rect class="cls-2" x="300.2" y="137.09" width="10.12" height="10.12"></rect>
  <rect class="cls-2" x="310.33" y="137.09" width="10.12" height="10.12"></rect>
  <rect class="cls-2" x="320.45" y="137.09" width="10.12" height="10.12"></rect>
  <rect class="cls-2" x="330.58" y="137.09" width="10.12" height="10.12"></rect>
  <rect class="cls-2" x="340.7" y="137.09" width="10.12" height="10.12"></rect>
  <rect class="cls-2" x="350.82" y="137.09" width="10.12" height="10.12"></rect>
  <rect class="cls-2" x="360.95" y="137.09" width="10.12" height="10.12"></rect>
  <rect class="cls-2" x="371.07" y="137.09" width="10.12" height="10.12"></rect>
  <rect class="cls-2" x="381.2" y="137.09" width="10.12" height="10.12"></rect>
  <rect class="cls-2" x="391.32" y="137.09" width="10.12" height="10.12"></rect>
  <rect class="cls-2" x="401.44" y="137.09" width="10.12" height="10.12"></rect>
  <rect class="cls-2" x="411.57" y="137.09" width="10.12" height="10.12"></rect>
  <rect class="cls-2" x="421.69" y="137.09" width="10.12" height="10.12"></rect>
  <rect class="cls-2" x="431.82" y="137.09" width="10.12" height="10.12"></rect>
  <rect class="cls-2" x="441.94" y="137.09" width="10.12" height="10.12"></rect>
  <rect class="cls-2" x="452.06" y="137.09" width="10.12" height="10.12"></rect>
  <rect class="cls-2" x="462.19" y="137.09" width="10.12" height="10.12"></rect>
  <rect class="cls-2" x="472.31" y="137.09" width="10.12" height="10.12"></rect>
  <rect class="cls-2" x="482.44" y="137.09" width="10.12" height="10.12"></rect>
  <rect class="cls-2" x="492.56" y="137.09" width="10.12" height="10.12"></rect>
  <rect class="cls-2" x="97.72" y="147.21" width="406.1" height="43.08"></rect>
  <rect class="cls-2" x="199.75" y="403.05" width="325.64" height="70.11"></rect>
  <rect class="cls-2" x="210.3" y="263.67" width="297.72" height="6.14"></rect>
  <rect class="cls-2" x="94.21" y="263.67" width="105.54" height="6.14"></rect>
  <path class="cls-4" d="M94.21,226V459.57H199.75V226ZM190,444.59H104V240.93h86Z"></path>
  <rect class="cls-4" x="124.1" y="449.4" width="36.97" height="5.47"></rect>
  <rect class="cls-4" x="176.42" y="340.76" width="15.96" height="28.57"></rect>
  <rect class="cls-2" x="196.77" y="401.9" width="334.66" height="11.46"></rect>
  <text class="cls-13" transform="translate(179.45 176.45)">
    <tspan xml:space="preserve">The little            Shop</tspan>
  </text>
  <text class="cls-14" transform="matrix(1.19, -0.18, 0, 1, 284.06, 180.43)">Coffee</text>
</svg>
