<?xml version="1.0" encoding="UTF-8"?>
<!-- Generator: Adobe Illustrator 24.0.1, SVG Export Plug-In . SVG Version: 6.00 Build 0)  -->
<svg xmlns="http://www.w3.org/2000/svg" xmlns:xlink="http://www.w3.org/1999/xlink" x="0px" y="0px" viewBox="0 0 600 600" style="enable-background:new 0 0 600 600;" xml:space="preserve">
<style type="text/css">
	.st0{fill:#FFFFFF;}
	
		.st1{fill-rule:evenodd;clip-rule:evenodd;fill:#FFDE00;stroke:#1C19A8;stroke-width:2.82;stroke-linejoin:round;stroke-miterlimit:10;}
	
		.st2{fill-rule:evenodd;clip-rule:evenodd;fill:#FB715D;stroke:#1C19A8;stroke-width:2.82;stroke-linejoin:round;stroke-miterlimit:10;}
	.st3{fill:#00AB81;stroke:#1C19A8;stroke-width:2.82;stroke-linejoin:round;stroke-miterlimit:10;}
	.st4{fill:#FB715D;stroke:#1C19A8;stroke-width:2.82;stroke-linejoin:round;stroke-miterlimit:10;}
	.st5{fill:none;stroke:#1C19A8;stroke-width:2.82;stroke-miterlimit:10;}
	.st6{fill:#FFDE00;stroke:#1C19A8;stroke-width:2.82;stroke-linejoin:round;stroke-miterlimit:10;}
	.st7{fill-rule:evenodd;clip-rule:evenodd;fill:#1C19A8;stroke:#1C19A8;stroke-width:2.82;stroke-miterlimit:10;}
	.st8{fill:#FFFFFF;stroke:#1C19A8;stroke-width:2.82;stroke-linejoin:round;stroke-miterlimit:10;}
	.st9{fill:url(#);}
	
		.st10{fill-rule:evenodd;clip-rule:evenodd;fill:#00AB81;stroke:#1C19A8;stroke-width:2.82;stroke-linejoin:round;stroke-miterlimit:10;}
	.st11{fill:#1C19A8;stroke:#1C19A8;stroke-width:2.82;stroke-miterlimit:10;}
	.st12{fill:#1C19A8;stroke:#1C19A8;stroke-width:2.82;stroke-linejoin:round;stroke-miterlimit:10;}
	.st13{fill:#1C19A8;}
	.st14{fill:none;stroke:#1C19A8;stroke-width:2.82;stroke-linejoin:round;stroke-miterlimit:10;}
	.st15{fill:#FFDE00;}
	.st16{fill:#00AB81;}
	.st17{fill:#FB715D;}
	.st18{fill:#9D9D9C;stroke:#1C19A8;stroke-width:2.82;stroke-linejoin:round;stroke-miterlimit:10;}
	.st19{fill-rule:evenodd;clip-rule:evenodd;fill:#1C19A8;stroke:#1C19A8;stroke-miterlimit:10;}
	.st20{fill-rule:evenodd;clip-rule:evenodd;fill:#1C19A8;stroke:#1C19A8;stroke-width:1.0222;stroke-miterlimit:10;}
	.st21{fill:#EDEDED;stroke:#1C19A8;stroke-width:2.82;stroke-linejoin:round;stroke-miterlimit:10;}
	.st22{fill:#EDEDED;stroke:#1C19A8;stroke-width:2.82;stroke-linecap:round;stroke-linejoin:round;stroke-miterlimit:10;}
	.st23{fill-rule:evenodd;clip-rule:evenodd;fill:#00AB81;}
	.st24{fill-rule:evenodd;clip-rule:evenodd;fill:#FB715D;}
	.st25{fill:none;stroke:#1C19A8;stroke-width:2.82;stroke-linecap:round;stroke-linejoin:round;stroke-miterlimit:10;}
	.st26{fill-rule:evenodd;clip-rule:evenodd;fill:#FFDE00;}
	.st27{fill:#FB715D;stroke:#1C19A8;stroke-width:2.82;stroke-linecap:round;stroke-linejoin:round;stroke-miterlimit:10;}
	.st28{fill:#FFFFFF;stroke:#1C19A8;stroke-width:2.82;stroke-linecap:round;stroke-linejoin:round;stroke-miterlimit:10;}
	.st29{fill:none;stroke:#1C19A8;stroke-width:2;stroke-miterlimit:10;}
	.st30{fill:#00AB81;stroke:#1C19A8;stroke-width:2.4933;stroke-linejoin:round;stroke-miterlimit:10;}
	.st31{fill:#FFDE00;stroke:#1C19A8;stroke-width:2.82;stroke-miterlimit:10;}
	.st32{fill:#FB715D;stroke:#1C19A8;stroke-width:2.82;stroke-miterlimit:10;}
	.st33{fill:#00AB81;stroke:#1C19A8;stroke-width:2.82;stroke-miterlimit:10;}
	.st34{fill:#FFFFFF;stroke:#1C19A8;stroke-width:2.82;stroke-miterlimit:10;}
	.st35{fill:url(#);stroke:#1C19A8;stroke-width:2.82;stroke-linejoin:round;stroke-miterlimit:10;}
	.st36{fill:#1C19A8;stroke:#1C19A8;stroke-miterlimit:10;}
	.st37{fill:none;stroke:#1C19A8;stroke-miterlimit:10;}
	.st38{fill:#FFDE00;stroke:#1C19A8;stroke-width:2.82;stroke-linecap:round;stroke-linejoin:round;stroke-miterlimit:10;}
	.st39{clip-path:url(#XMLID_4_);}
	.st40{clip-path:url(#XMLID_5_);}
	.st41{clip-path:url(#XMLID_5_);fill:#00AB81;stroke:#1C19A8;stroke-width:2.82;stroke-linejoin:round;stroke-miterlimit:10;}
	.st42{clip-path:url(#XMLID_5_);fill:#FFDE00;stroke:#1C19A8;stroke-width:2.82;stroke-linejoin:round;stroke-miterlimit:10;}
	.st43{fill:url(#);stroke:#1C19A8;stroke-width:2.82;stroke-miterlimit:10;}
	.st44{clip-path:url(#SVGID_2_);}
	.st45{clip-path:url(#SVGID_4_);}
	.st46{fill:#FB715D;stroke:#1D1D1B;stroke-width:2.8125;stroke-linejoin:round;stroke-miterlimit:10;}
	
		.st47{fill-rule:evenodd;clip-rule:evenodd;fill:#00AB81;stroke:#1C19A8;stroke-width:2.8125;stroke-linejoin:round;stroke-miterlimit:10;}
	.st48{fill:#1C19A8;stroke:#1C19A8;stroke-width:2.8125;stroke-miterlimit:10;}
	.st49{fill:none;stroke:#1C19A8;stroke-width:2.8125;stroke-miterlimit:10;}
	.st50{fill:#FB715D;stroke:#1C19A8;stroke-width:2.8125;stroke-linejoin:round;stroke-miterlimit:10;}
	.st51{fill:#00AB81;stroke:#1C19A8;stroke-width:2.8125;stroke-linejoin:round;stroke-miterlimit:10;}
	
		.st52{fill-rule:evenodd;clip-rule:evenodd;fill:#FB715D;stroke:#1C19A8;stroke-width:2.8125;stroke-linejoin:round;stroke-miterlimit:10;}
	.st53{fill:#FFDE00;stroke:#1C19A8;stroke-width:2.8125;stroke-miterlimit:10;}
	.st54{fill:#FFDE00;stroke:#1C19A8;stroke-width:2.8125;stroke-linejoin:round;stroke-miterlimit:10;}
	.st55{fill:#1C19A8;stroke:#1C19A8;stroke-width:2.8125;stroke-linejoin:round;stroke-miterlimit:10;}
	
		.st56{fill-rule:evenodd;clip-rule:evenodd;fill:#FFDE00;stroke:#1C19A8;stroke-width:2.8125;stroke-linejoin:round;stroke-miterlimit:10;}
	.st57{fill:#00AB81;stroke:#1C19A8;stroke-width:2.8125;stroke-miterlimit:10;}
	.st58{fill:#1C19A8;stroke:#1C19A8;stroke-width:0.1875;stroke-miterlimit:10;}
	.st59{fill:#1C19A8;stroke:#1C19A8;stroke-width:0.75;stroke-linecap:round;stroke-linejoin:round;stroke-miterlimit:10;}
	.st60{fill:none;stroke:#1C19A8;stroke-width:2.8125;stroke-linejoin:round;stroke-miterlimit:10;}
	.st61{fill:#FB715D;stroke:#1C19A8;stroke-width:2.8125;stroke-miterlimit:10;}
	.st62{fill:#F6F6F6;stroke:#1C19A8;stroke-width:2.8125;stroke-linejoin:round;stroke-miterlimit:10;}
	.st63{fill:#FFFFFF;stroke:#1C19A8;stroke-width:2.8125;stroke-miterlimit:10;}
	.st64{fill:none;stroke:#1C19A8;stroke-width:2.8125;stroke-linecap:round;stroke-linejoin:round;stroke-miterlimit:10;}
	.st65{fill:url(#);stroke:#1C19A8;stroke-width:2.8125;stroke-miterlimit:10;}
	.st66{fill:#FFFFFF;stroke:#1C19A8;stroke-width:2.8125;stroke-linecap:round;stroke-linejoin:round;stroke-miterlimit:10;}
	.st67{fill:#FFFFFF;stroke:#1C19A8;stroke-width:2.8125;stroke-linejoin:round;stroke-miterlimit:10;}
	.st68{fill:none;stroke:#1C19A8;stroke-width:8.4375;stroke-linejoin:round;stroke-miterlimit:10;}
	.st69{fill:#00AB81;stroke:#1C19A8;stroke-width:2.8125;stroke-linecap:round;stroke-linejoin:round;stroke-miterlimit:10;}
	.st70{fill:#FFDE00;stroke:#1C19A8;stroke-width:2.8125;stroke-linejoin:bevel;stroke-miterlimit:10;}
	.st71{fill:#1D1D1B;stroke:#1C19A8;stroke-width:2.8125;stroke-linejoin:round;stroke-miterlimit:10;}
	.st72{fill:#00AB81;stroke:#1C19A8;stroke-width:2.7823;stroke-linejoin:round;stroke-miterlimit:10;}
	.st73{fill:url(#);stroke:#1C19A8;stroke-width:3.75;stroke-miterlimit:10;}
	.st74{fill:none;stroke:#1C19A8;stroke-width:2.8152;stroke-linejoin:round;stroke-miterlimit:10;}
	.st75{fill:none;stroke:#1C19A8;stroke-width:2.9816;stroke-linejoin:round;stroke-miterlimit:10;}
	.st76{fill:#FB715D;stroke:#1C19A8;stroke-width:2.4615;stroke-linejoin:round;stroke-miterlimit:10;}
	.st77{fill:#FB715D;stroke:#1C19A8;stroke-width:2.8108;stroke-linejoin:round;stroke-miterlimit:10;}
	.st78{fill-rule:evenodd;clip-rule:evenodd;fill:#1C19A8;stroke:#1C19A8;stroke-width:2.8125;stroke-miterlimit:10;}
	.st79{fill:#1C19A8;stroke:#1C19A8;stroke-width:1.875;stroke-miterlimit:10;}
	
		.st80{fill-rule:evenodd;clip-rule:evenodd;fill:#FFDE00;stroke:#1C19A8;stroke-width:2.7823;stroke-linejoin:round;stroke-miterlimit:10;}
	.st81{fill:#FB715D;stroke:#1C19A8;stroke-width:2.7823;stroke-linejoin:round;stroke-miterlimit:10;}
	.st82{fill:#1D1D1B;stroke:#1C19A8;stroke-width:2.8125;stroke-miterlimit:10;}
	.st83{fill:#1D1D1B;stroke:#1C19A8;stroke-width:2.8125;stroke-linecap:round;stroke-linejoin:round;stroke-miterlimit:10;}
	.st84{fill:#FFDE00;stroke:#1C19A8;stroke-width:2.8125;stroke-linecap:round;stroke-linejoin:round;stroke-miterlimit:10;}
	.st85{fill:#1C19A8;stroke:#1D1D1B;stroke-width:2.8125;stroke-miterlimit:10;}
	.st86{fill:#FFDE00;stroke:#1C19A8;stroke-width:2.7823;stroke-linejoin:round;stroke-miterlimit:10;}
	.st87{fill:none;stroke:#1C19A8;stroke-width:2.7823;stroke-linejoin:round;stroke-miterlimit:10;}
	.st88{fill:none;stroke:#1C19A8;stroke-width:2.7825;stroke-linecap:round;stroke-linejoin:round;stroke-miterlimit:10;}
	.st89{fill:none;stroke:#1C19A8;stroke-width:3.75;stroke-miterlimit:10;}
	
		.st90{fill-rule:evenodd;clip-rule:evenodd;fill:#00AB81;stroke:#1C19A8;stroke-width:2.7823;stroke-linejoin:round;stroke-miterlimit:10;}
	.st91{fill:#1C19A8;stroke:#1C19A8;stroke-width:3.75;stroke-miterlimit:10;}
	.st92{fill:#1C19A8;stroke:#1C19A8;stroke-width:2.8125;stroke-linecap:round;stroke-linejoin:round;stroke-miterlimit:10;}
	.st93{fill:#1C19A8;stroke:#1C19A8;stroke-width:0.9375;stroke-miterlimit:10;}
	.st94{fill:#1D1D1B;stroke:#1C19A8;stroke-width:3.75;stroke-miterlimit:10;}
	
		.st95{fill-rule:evenodd;clip-rule:evenodd;fill:#FB715D;stroke:#1C19A8;stroke-width:2.7823;stroke-linejoin:round;stroke-miterlimit:10;}
	.st96{fill:#1C19A8;stroke:#1C19A8;stroke-width:2.8108;stroke-linejoin:round;stroke-miterlimit:10;}
	.st97{fill:#FFDE00;stroke:#1C19A8;stroke-width:2.8108;stroke-linejoin:round;stroke-miterlimit:10;}
	.st98{fill-rule:evenodd;clip-rule:evenodd;fill:none;stroke:#1C19A8;stroke-width:3.75;stroke-miterlimit:10;}
	.st99{fill:#FFFFFF;stroke:#1D1D1B;stroke-width:2.82;stroke-miterlimit:10;}
</style>
<g id="Layer_1">
	<rect x="76.9" y="195.1" class="st0" width="450.6" height="267.6"></rect>
	<g>
		<g>
			<path class="st1" d="M509.7,357.6c0.2,0,0.4,0.3,0.4,0.6v2.9c0,0.3-0.2,0.6-0.5,0.6h-0.1c0.1,0.3,0.2,0.5,0.4,0.8     c0.3,0.4,0.8,0.7,1.2,1.1c0.5,0.4,1,0.8,1.4,1.3c0.4,0.6,0.7,1.4,0.8,2.4v0v13.5c0,1.4-0.9,2.6-2,2.6h-10.7c-1.1,0-2-1.2-2-2.6     v-13.5v0c0-1,0.3-1.8,0.7-2.4c0.4-0.6,1-1,1.4-1.4s0.9-0.7,1.2-1.1c0.2-0.2,0.3-0.5,0.4-0.8h-0.2c-0.3,0-0.5-0.3-0.5-0.6l0-2.9     c0-0.2,0-0.3,0.1-0.4s0.2-0.2,0.3-0.2L509.7,357.6C509.7,357.6,509.7,357.6,509.7,357.6L509.7,357.6z"></path>
			<path class="st1" d="M488.3,357.6c0.2,0,0.4,0.3,0.4,0.6v2.9c0,0.3-0.2,0.6-0.5,0.6h-0.1c0.1,0.3,0.2,0.5,0.4,0.8     c0.3,0.4,0.8,0.7,1.2,1.1c0.5,0.4,1,0.8,1.4,1.3c0.4,0.6,0.7,1.4,0.8,2.4v0v13.5c0,1.4-0.9,2.6-2,2.6h-10.7c-1.1,0-2-1.2-2-2.6     v-13.5v0c0-1,0.3-1.8,0.7-2.4c0.4-0.6,1-1,1.4-1.4s0.9-0.7,1.2-1.1c0.2-0.2,0.3-0.5,0.4-0.8H481c-0.3,0-0.5-0.3-0.5-0.6l0-2.9     c0-0.2,0-0.3,0.1-0.4s0.2-0.2,0.3-0.2L488.3,357.6C488.3,357.6,488.3,357.6,488.3,357.6L488.3,357.6z"></path>
			<path class="st2" d="M494,226.9c0.2,0,0.4,0.3,0.4,0.6v2.9c0,0.3-0.2,0.6-0.5,0.6h-0.1c0.1,0.3,0.2,0.5,0.4,0.8     c0.3,0.4,0.8,0.7,1.2,1.1c0.5,0.4,1,0.8,1.4,1.3s0.7,1.4,0.8,2.4v0v13.5c0,1.4-0.9,2.6-2,2.6H485c-1.1,0-2-1.2-2-2.6v-13.5v0     c0-1,0.3-1.8,0.7-2.4c0.4-0.6,1-1,1.4-1.4c0.5-0.4,0.9-0.7,1.2-1.1c0.2-0.2,0.3-0.5,0.4-0.8h-0.2c-0.3,0-0.5-0.3-0.5-0.6l0-2.9     c0-0.2,0-0.3,0.1-0.4c0.1-0.1,0.2-0.2,0.3-0.2L494,226.9C493.9,226.9,493.9,226.9,494,226.9L494,226.9z"></path>
			<path class="st3" d="M498.7,427.1h-10.1l0-17.4l2.6-8.1l0-6.7h4.9l0,6.7l2.6,8.1L498.7,427.1z"></path>
			
				<rect x="440.1" y="231.3" transform="matrix(-1 -4.503521e-11 4.503521e-11 -1 907.836 484.0452)" class="st4" width="27.5" height="21.4"></rect>
			
				<rect x="440.1" y="400.3" transform="matrix(-1 -4.503610e-11 4.503610e-11 -1 906.7047 822.0072)" class="st3" width="26.4" height="21.4"></rect>
			
				<rect x="477.2" y="325.6" transform="matrix(-1 -4.463908e-11 4.463908e-11 -1 981.8691 672.5812)" class="st3" width="27.5" height="21.4"></rect>
			<line class="st5" x1="434.1" y1="251.8" x2="434.1" y2="469.9"></line>
			<path class="st6" d="M506.4,304.1h-10.1l0-17.4l2.6-8.1l0-6.7h4.9l0,6.7l2.6,8.1L506.4,304.1z"></path>
			<path class="st6" d="M488.2,304.1h-10.1l0-17.4l2.6-8.1l0-6.7h4.9l0,6.7l2.6,8.1L488.2,304.1z"></path>
			
				<rect x="434.1" y="422.3" transform="matrix(-1 -4.497881e-11 4.497881e-11 -1 954.1058 851.4094)" class="st7" width="85.8" height="6.8"></rect>
			
				<rect x="434.2" y="382.9" transform="matrix(-1 -4.482427e-11 4.482427e-11 -1 954.0641 772.5988)" class="st7" width="85.7" height="6.8"></rect>
			
				<rect x="434.2" y="343.5" transform="matrix(-1 -4.487489e-11 4.487489e-11 -1 954.1505 693.7882)" class="st7" width="85.8" height="6.8"></rect>
			
				<rect x="434.2" y="304.1" transform="matrix(-1 -4.499124e-11 4.499124e-11 -1 954.1297 614.9776)" class="st7" width="85.8" height="6.8"></rect>
			
				<rect x="433.5" y="251.8" transform="matrix(-1 -4.490820e-11 4.490820e-11 -1 952.5849 510.3669)" class="st7" width="85.5" height="6.8"></rect>
		</g>
	</g>
	<g>
		<g>
			<rect x="414.4" y="412.1" class="st1" width="48.1" height="7.6"></rect>
			<polygon class="st1" points="460.4,412.1 416.5,412.1 421,404.6 455.8,404.6    "></polygon>
			<polygon class="st1" points="447.1,419.7 447.1,425.7 429.7,425.7 429.7,419.7 416.5,419.7 423.3,463.9 453.5,463.9 460.4,419.7         "></polygon>
			<rect x="429.7" y="419.7" class="st1" width="17.4" height="6"></rect>
		</g>
		<g>
			<rect x="366.2" y="412.1" class="st1" width="48.1" height="7.6"></rect>
			<polygon class="st1" points="412.2,412.1 368.3,412.1 372.9,404.6 407.7,404.6    "></polygon>
			<polygon class="st1" points="399,419.7 399,425.7 381.6,425.7 381.6,419.7 368.3,419.7 375.2,463.9 405.4,463.9 412.2,419.7         "></polygon>
			<rect x="381.6" y="419.7" class="st1" width="17.4" height="6"></rect>
		</g>
	</g>
	<g>
		<g>
			<path class="st1" d="M96.5,357.6c-0.2,0-0.4,0.3-0.4,0.6v2.9c0,0.3,0.2,0.6,0.5,0.6h0.1c-0.1,0.3-0.2,0.5-0.4,0.8     c-0.3,0.4-0.8,0.7-1.2,1.1c-0.5,0.4-1,0.8-1.4,1.3c-0.4,0.6-0.7,1.4-0.8,2.4v0v13.5c0,1.4,0.9,2.6,2,2.6h10.7c1.1,0,2-1.2,2-2.6     v-13.5v0c0-1-0.3-1.8-0.7-2.4c-0.4-0.6-1-1-1.4-1.4c-0.5-0.4-0.9-0.7-1.2-1.1c-0.2-0.2-0.3-0.5-0.4-0.8h0.2     c0.3,0,0.5-0.3,0.5-0.6l0-2.9c0-0.2,0-0.3-0.1-0.4s-0.2-0.2-0.3-0.2L96.5,357.6C96.5,357.6,96.5,357.6,96.5,357.6L96.5,357.6z"></path>
			<path class="st1" d="M117.9,357.6c-0.2,0-0.4,0.3-0.4,0.6v2.9c0,0.3,0.2,0.6,0.5,0.6h0.1c-0.1,0.3-0.2,0.5-0.4,0.8     c-0.3,0.4-0.8,0.7-1.2,1.1c-0.5,0.4-1,0.8-1.4,1.3c-0.4,0.6-0.7,1.4-0.8,2.4v0v13.5c0,1.4,0.9,2.6,2,2.6h10.7c1.1,0,2-1.2,2-2.6     v-13.5v0c0-1-0.3-1.8-0.7-2.4c-0.4-0.6-1-1-1.4-1.4s-0.9-0.7-1.2-1.1c-0.2-0.2-0.3-0.5-0.4-0.8h0.2c0.3,0,0.5-0.3,0.5-0.6l0-2.9     c0-0.2,0-0.3-0.1-0.4c-0.1-0.1-0.2-0.2-0.3-0.2L117.9,357.6C117.9,357.6,117.9,357.6,117.9,357.6L117.9,357.6z"></path>
			<path class="st2" d="M112.2,226.9c-0.2,0-0.4,0.3-0.4,0.6v2.9c0,0.3,0.2,0.6,0.5,0.6h0.1c-0.1,0.3-0.2,0.5-0.4,0.8     c-0.3,0.4-0.8,0.7-1.2,1.1s-1,0.8-1.4,1.3s-0.7,1.4-0.8,2.4v0v13.5c0,1.4,0.9,2.6,2,2.6h10.7c1.1,0,2-1.2,2-2.6v-13.5v0     c0-1-0.3-1.8-0.7-2.4c-0.4-0.6-1-1-1.4-1.4c-0.5-0.4-0.9-0.7-1.2-1.1c-0.2-0.2-0.3-0.5-0.4-0.8h0.2c0.3,0,0.5-0.3,0.5-0.6l0-2.9     c0-0.2,0-0.3-0.1-0.4c-0.1-0.1-0.2-0.2-0.3-0.2L112.2,226.9C112.3,226.9,112.2,226.9,112.2,226.9L112.2,226.9z"></path>
			<path class="st3" d="M107.5,427.1h10.1l0-17.4l-2.6-8.1l0-6.7h-4.9l0,6.7l-2.6,8.1L107.5,427.1z"></path>
			<rect x="138.5" y="231.3" class="st4" width="27.5" height="21.4"></rect>
			<rect x="139.6" y="400.3" class="st3" width="26.4" height="21.4"></rect>
			<rect x="101.5" y="325.6" class="st3" width="27.5" height="21.4"></rect>
			<line class="st5" x1="172.1" y1="251.8" x2="172.1" y2="469.9"></line>
			<path class="st6" d="M99.8,304.1h10.1l0-17.4l-2.6-8.1l0-6.7h-4.9l0,6.7l-2.6,8.1L99.8,304.1z"></path>
			<path class="st6" d="M118,304.1H128l0-17.4l-2.6-8.1l0-6.7h-4.9l0,6.7l-2.6,8.1L118,304.1z"></path>
			<rect x="86.2" y="422.3" class="st7" width="85.8" height="6.8"></rect>
			<rect x="86.3" y="382.9" class="st7" width="85.7" height="6.8"></rect>
			<rect x="86.2" y="343.5" class="st7" width="85.8" height="6.8"></rect>
			<rect x="86.2" y="304.1" class="st7" width="85.8" height="6.8"></rect>
			<rect x="87.2" y="251.8" class="st7" width="85.5" height="6.8"></rect>
		</g>
	</g>
	
		<rect x="74.2" y="138.2" transform="matrix(-1 -4.464796e-11 4.464796e-11 -1 160.6707 610.2142)" class="st3" width="12.3" height="333.8"></rect>
	
		<rect x="64" y="472.1" transform="matrix(-1 -3.954937e-11 3.954937e-11 -1 605.183 963.447)" class="st4" width="477.1" height="19.3"></rect>
	<rect x="245.1" y="207.3" class="st6" width="9.9" height="264.8"></rect>
	<rect x="350.2" y="207.3" class="st6" width="9.9" height="264.8"></rect>
	<path class="st4" d="M255,248.8v223.3h95.2V248.8H255z M341.4,457.8h-77.6V263.1h77.6V457.8z"></path>
	
		<rect x="521.4" y="138.2" transform="matrix(-1 -4.479584e-11 4.479584e-11 -1 1055.1329 610.2142)" class="st3" width="12.3" height="333.8"></rect>
	
		<rect x="86.5" y="154.8" transform="matrix(-1 -3.904178e-11 3.904178e-11 -1 607.9018 362.0081)" class="st4" width="434.9" height="52.5"></rect>
	<rect x="255" y="207.3" class="st4" width="95.2" height="41.5"></rect>
	<rect x="263.8" y="217.2" class="st8" width="77.6" height="22.4"></rect>
	<rect x="69.3" y="143" class="st3" width="469.3" height="17.7"></rect>
	<rect x="69.3" y="134.9" class="st6" width="469.3" height="8.1"></rect>
	<rect x="86.5" y="449.6" class="st6" width="158.7" height="22.5"></rect>
	<rect x="360" y="449.6" class="st6" width="161.4" height="22.5"></rect>
	<path class="st13" d="M427,488.1l-14.1-83c-0.2-0.9-1.1-1.5-2-1.4l-1.3,0.2c-0.5-3-3.1-5.3-6.3-5.3s-5.7,2.3-6.3,5.3l-1.3-0.2   c-0.9-0.1-1.8,0.5-2,1.4l-14.1,83c-0.2,0.9,0.5,1.8,1.4,2l7.5,1.3c0.1,0,0.2,0,0.3,0c0.4,0,0.7-0.1,1-0.3c0.4-0.3,0.6-0.7,0.7-1.1   l12.8-75.2l12.8,75.2c0.1,0.5,0.3,0.9,0.7,1.1c0.3,0.2,0.6,0.3,1,0.3c0.1,0,0.2,0,0.3,0l7.5-1.3C426.5,489.9,427.1,489,427,488.1z"></path>
	<g>
		<path class="st13" d="M186.5,174.5h7.3c1.9,0,3.3,0.5,4.3,1.4c1,0.9,1.5,2.2,1.5,3.9c0,1.7-0.5,3-1.5,3.9c-1,0.9-2.5,1.4-4.3,1.4    h-4.7v7h-2.6V174.5z M193.5,183c2.5,0,3.7-1.1,3.7-3.2c0-2.1-1.2-3.2-3.7-3.2h-4.4v6.4H193.5z"></path>
		<path class="st13" d="M212.5,186.4h-8.6c0.2,2.6,1.5,3.9,3.8,3.9c1.4,0,2.7-0.5,3.8-1.4l0.8,1.8c-0.6,0.5-1.3,0.9-2.1,1.1    s-1.7,0.4-2.5,0.4c-1.9,0-3.5-0.6-4.6-1.7c-1.1-1.1-1.7-2.6-1.7-4.6c0-1.2,0.2-2.3,0.7-3.3c0.5-1,1.2-1.7,2.1-2.2    c0.9-0.5,1.9-0.8,3-0.8c1.6,0,2.9,0.5,3.9,1.6c0.9,1.1,1.4,2.5,1.4,4.4V186.4z M204.9,182.4c-0.6,0.6-0.9,1.5-1,2.6h6.4    c-0.1-1.1-0.3-2-0.9-2.6c-0.5-0.6-1.3-0.9-2.2-0.9C206.3,181.5,205.5,181.8,204.9,182.4z"></path>
		<path class="st13" d="M226.4,174.5v17.6h-2.5V190c-0.4,0.7-0.9,1.3-1.6,1.7c-0.7,0.4-1.5,0.6-2.4,0.6c-1,0-2-0.3-2.8-0.8    c-0.8-0.5-1.5-1.3-1.9-2.2c-0.5-1-0.7-2.1-0.7-3.3c0-1.3,0.2-2.4,0.7-3.3c0.5-0.9,1.1-1.7,1.9-2.2c0.8-0.5,1.8-0.8,2.8-0.8    c0.9,0,1.7,0.2,2.4,0.6c0.7,0.4,1.2,0.9,1.6,1.7v-7.3H226.4z M223.1,189.1c0.6-0.7,0.9-1.8,0.9-3.2c0-1.4-0.3-2.4-0.9-3.2    c-0.6-0.7-1.4-1.1-2.5-1.1c-1.1,0-1.9,0.4-2.6,1.1c-0.6,0.7-0.9,1.8-0.9,3.2c0,1.4,0.3,2.4,0.9,3.2c0.6,0.8,1.5,1.2,2.5,1.2    C221.6,190.3,222.5,189.9,223.1,189.1z"></path>
		<path class="st13" d="M237.3,181.7l-1.5,0.1c-1.2,0.1-2.1,0.5-2.6,1.1c-0.5,0.6-0.8,1.4-0.8,2.3v6.8h-2.5v-12.2h2.4v2.1    c0.6-1.4,2-2.2,4-2.4l0.8,0L237.3,181.7z"></path>
		<path class="st13" d="M238.9,174.5h2.9v2.6h-2.9V174.5z M239.1,192.1v-12.2h2.5v12.2H239.1z"></path>
		<path class="st13" d="M247.2,191.5c-0.9-0.5-1.6-1.2-2.1-2.2c-0.5-0.9-0.7-2-0.7-3.3s0.3-2.4,0.8-3.3c0.5-1,1.2-1.7,2.1-2.2    c0.9-0.5,2-0.8,3.2-0.8c0.8,0,1.7,0.1,2.5,0.4c0.8,0.3,1.4,0.7,1.9,1.1l-0.8,1.8c-1.1-0.9-2.2-1.3-3.4-1.3c-1.2,0-2.1,0.4-2.7,1.1    c-0.7,0.8-1,1.8-1,3.2c0,1.4,0.3,2.4,1,3.2c0.6,0.7,1.6,1.1,2.7,1.1c1.2,0,2.3-0.4,3.4-1.3l0.8,1.8c-0.5,0.5-1.2,0.9-2,1.1    c-0.8,0.3-1.6,0.4-2.5,0.4C249.2,192.3,248.1,192,247.2,191.5z"></path>
		<path class="st13" d="M268.6,192.1h-3.2l-5.8-5.7v5.7h-2.5v-17.6h2.5v10.9l5.3-5.5h3.1l-5.8,5.8L268.6,192.1z"></path>
		<path class="st13" d="M272.4,174.5v2c0,0.8-0.1,1.5-0.4,2.1c-0.3,0.6-0.7,1.3-1.3,1.9l-1.1-0.9c0.7-0.7,1.1-1.5,1.2-2.2h-1.4v-3    H272.4z"></path>
		<path class="st13" d="M274.2,190.7l0.8-1.8c1.2,1,2.7,1.4,4.4,1.4c0.8,0,1.4-0.1,1.9-0.4c0.4-0.3,0.6-0.7,0.6-1.2    c0-0.4-0.1-0.8-0.4-1c-0.3-0.2-0.8-0.5-1.5-0.6l-2-0.4c-1.1-0.2-1.9-0.7-2.4-1.2c-0.5-0.6-0.8-1.3-0.8-2.1c0-1.1,0.4-2,1.3-2.7    c0.9-0.7,2.1-1,3.5-1c0.9,0,1.7,0.1,2.5,0.4c0.8,0.3,1.5,0.7,2,1.2l-0.8,1.8c-1.2-0.9-2.4-1.4-3.7-1.4c-0.8,0-1.4,0.1-1.8,0.4    c-0.4,0.3-0.7,0.7-0.7,1.2c0,0.4,0.1,0.8,0.4,1c0.3,0.3,0.7,0.5,1.3,0.6l2.1,0.5c1.2,0.3,2,0.7,2.6,1.2c0.5,0.6,0.8,1.3,0.8,2.2    c0,1.1-0.4,2-1.3,2.6c-0.9,0.6-2.1,1-3.6,1C277.1,192.3,275.4,191.7,274.2,190.7z"></path>
		<path class="st13" d="M295.9,190h9.9v2.1h-12.8v-1.9l9.6-13.6h-9.6v-2.1h12.5v1.9L295.9,190z"></path>
		<path class="st13" d="M318.6,186.4H310c0.2,2.6,1.5,3.9,3.8,3.9c1.4,0,2.7-0.5,3.8-1.4l0.8,1.8c-0.6,0.5-1.3,0.9-2.1,1.1    c-0.8,0.3-1.7,0.4-2.5,0.4c-1.9,0-3.5-0.6-4.6-1.7c-1.1-1.1-1.7-2.6-1.7-4.6c0-1.2,0.2-2.3,0.7-3.3c0.5-1,1.2-1.7,2.1-2.2    c0.9-0.5,1.9-0.8,3-0.8c1.6,0,2.9,0.5,3.9,1.6c0.9,1.1,1.4,2.5,1.4,4.4V186.4z M311.1,182.4c-0.6,0.6-0.9,1.5-1,2.6h6.4    c-0.1-1.1-0.3-2-0.9-2.6c-0.5-0.6-1.3-0.9-2.2-0.9C312.4,181.5,311.6,181.8,311.1,182.4z"></path>
		<path class="st13" d="M328.8,181.7l-1.5,0.1c-1.2,0.1-2.1,0.5-2.6,1.1c-0.5,0.6-0.8,1.4-0.8,2.3v6.8h-2.5v-12.2h2.4v2.1    c0.6-1.4,2-2.2,4-2.4l0.8,0L328.8,181.7z"></path>
		<path class="st13" d="M332.4,191.5c-0.9-0.5-1.6-1.3-2.1-2.2c-0.5-1-0.7-2.1-0.7-3.3c0-1.3,0.2-2.4,0.7-3.4c0.5-1,1.2-1.7,2.1-2.2    c0.9-0.5,2-0.8,3.2-0.8c1.2,0,2.2,0.3,3.2,0.8c0.9,0.5,1.6,1.3,2.1,2.2c0.5,1,0.7,2.1,0.7,3.4c0,1.3-0.2,2.4-0.7,3.3    c-0.5,1-1.2,1.7-2.1,2.2c-0.9,0.5-2,0.8-3.2,0.8C334.3,192.3,333.3,192,332.4,191.5z M338.1,189.2c0.6-0.7,0.9-1.8,0.9-3.2    c0-1.4-0.3-2.5-0.9-3.2c-0.6-0.7-1.4-1.1-2.5-1.1c-1.1,0-1.9,0.4-2.5,1.1c-0.6,0.7-0.9,1.8-0.9,3.2c0,1.4,0.3,2.5,0.9,3.2    c0.6,0.7,1.4,1.1,2.6,1.1C336.6,190.3,337.5,189.9,338.1,189.2z"></path>
		<path class="st13" d="M373.4,174.5h2.5l-6.2,17.6h-2.1l-4.7-13.6l-4.8,13.6H356l-6.2-17.6h2.6l4.7,13.9l4.9-13.9l1.9,0l4.8,14    L373.4,174.5z"></path>
		<path class="st13" d="M385.7,180.9c0.8,0.8,1.2,2.1,1.2,3.7v7.5h-2.4v-2c-0.3,0.7-0.8,1.3-1.4,1.6c-0.6,0.4-1.3,0.6-2.2,0.6    c-0.8,0-1.5-0.2-2.2-0.5c-0.7-0.3-1.2-0.8-1.6-1.4c-0.4-0.6-0.6-1.2-0.6-1.9c0-0.9,0.2-1.6,0.7-2.1c0.5-0.5,1.2-0.9,2.3-1.1    c1.1-0.2,2.5-0.3,4.3-0.3h0.6v-0.7c0-0.9-0.2-1.6-0.6-2c-0.4-0.4-1-0.6-1.9-0.6c-1.4,0-2.8,0.4-4.1,1.3l-0.7-1.8    c0.6-0.4,1.4-0.8,2.4-1.1c0.9-0.3,1.8-0.4,2.7-0.4C383.7,179.6,384.9,180,385.7,180.9z M383.5,189.5c0.6-0.6,0.9-1.4,0.9-2.4v-0.6    H384c-1.3,0-2.3,0.1-3,0.2c-0.7,0.1-1.2,0.3-1.5,0.6c-0.3,0.3-0.4,0.7-0.4,1.2c0,0.6,0.2,1.1,0.6,1.5c0.4,0.4,1,0.6,1.6,0.6    C382.2,190.4,383,190.1,383.5,189.5z"></path>
		<path class="st13" d="M389.5,190.7l0.8-1.8c1.2,1,2.7,1.4,4.4,1.4c0.8,0,1.4-0.1,1.9-0.4c0.4-0.3,0.6-0.7,0.6-1.2    c0-0.4-0.1-0.8-0.4-1c-0.3-0.2-0.8-0.5-1.5-0.6l-2-0.4c-1.1-0.2-1.9-0.7-2.4-1.2c-0.5-0.6-0.8-1.3-0.8-2.1c0-1.1,0.4-2,1.3-2.7    c0.9-0.7,2.1-1,3.5-1c0.9,0,1.7,0.1,2.5,0.4c0.8,0.3,1.5,0.7,2,1.2l-0.8,1.8c-1.2-0.9-2.4-1.4-3.7-1.4c-0.8,0-1.4,0.1-1.8,0.4    c-0.4,0.3-0.7,0.7-0.7,1.2c0,0.4,0.1,0.8,0.4,1c0.3,0.3,0.7,0.5,1.3,0.6l2.1,0.5c1.2,0.3,2,0.7,2.6,1.2c0.5,0.6,0.8,1.3,0.8,2.2    c0,1.1-0.4,2-1.3,2.6c-0.9,0.6-2.1,1-3.6,1C392.5,192.3,390.8,191.7,389.5,190.7z"></path>
		<path class="st13" d="M409.1,190.2l-0.1,1.9c-0.4,0.1-0.8,0.1-1.3,0.1c-1.6,0-2.8-0.4-3.5-1.2c-0.8-0.8-1.2-1.9-1.2-3.4v-5.9h-2.4    v-1.9h2.4v-3.7h2.5v3.7h3.3v1.9h-3.3v5.8c0,1.8,0.8,2.7,2.5,2.7C408.3,190.3,408.7,190.3,409.1,190.2z"></path>
		<path class="st13" d="M421.4,186.4h-8.6c0.2,2.6,1.5,3.9,3.8,3.9c1.4,0,2.7-0.5,3.8-1.4l0.8,1.8c-0.6,0.5-1.3,0.9-2.1,1.1    c-0.8,0.3-1.7,0.4-2.5,0.4c-1.9,0-3.5-0.6-4.6-1.7c-1.1-1.1-1.7-2.6-1.7-4.6c0-1.2,0.2-2.3,0.7-3.3c0.5-1,1.2-1.7,2.1-2.2    c0.9-0.5,1.9-0.8,3-0.8c1.6,0,2.9,0.5,3.9,1.6c0.9,1.1,1.4,2.5,1.4,4.4V186.4z M413.8,182.4c-0.6,0.6-0.9,1.5-1,2.6h6.4    c-0.1-1.1-0.3-2-0.9-2.6c-0.5-0.6-1.3-0.9-2.2-0.9C415.2,181.5,414.4,181.8,413.8,182.4z"></path>
	</g>
	<rect x="255" y="363.6" class="st4" width="93.7" height="13.8"></rect>
	<rect x="259.5" y="333.7" class="st4" width="14.3" height="24.5"></rect>
</g>
<g id="Layer_2">
</g>
</svg>
