<?xml version="1.0" encoding="UTF-8"?>
<svg xmlns="http://www.w3.org/2000/svg" viewBox="0 0 600 600">
  <path d="m104.1 182.76h396.11v309.1h-396.11z" fill="#fff"></path>
  <path d="m384.85 369.38h29.7v29.7h-29.7z" fill="#ffde00"></path>
  <path d="m458.63 380.46a.46.46 0 0 0 -.33.48v2.38a.44.44 0 0 0 .37.48h.1a1.51 1.51 0 0 1 -.33.64 6 6 0 0 1 -1 .89 5.26 5.26 0 0 0 -1.18 1.1 3.44 3.44 0 0 0 -.62 2v11.07a1.92 1.92 0 0 0 1.63 2.11h8.73a1.93 1.93 0 0 0 1.64-2.11v-11.05a3.5 3.5 0 0 0 -.61-2 5.62 5.62 0 0 0 -1.18-1.12 5.66 5.66 0 0 1 -1-.89 1.61 1.61 0 0 1 -.33-.65h.13a.44.44 0 0 0 .37-.48v-2.37a.55.55 0 0 0 -.11-.34.36.36 0 0 0 -.27-.15h-6z" fill="#ffde00" fill-rule="evenodd"></path>
  <path d="m264.18 189.6h229.98v11.06h-229.98z" fill="#ffde00"></path>
  <path d="m264.18 200.66h229.98v11.06h-229.98z" fill="#ffde00"></path>
  <path d="m264.18 211.73h229.98v11.06h-229.98z" fill="#ffde00"></path>
  <path d="m232.97 344.88h253v9.08h-253z" fill="#ffde00" transform="matrix(0 1 -1 0 708.9 -10.05)"></path>
  <path d="m364.01 249.08h130.14v9.08h-130.14z" fill="#ffde00"></path>
  <path d="m264.18 249.08h90.75v9.08h-90.75z" fill="#ffde00"></path>
  <path d="m110.16 249.08h144.81v9.08h-144.81z" fill="#ffde00"></path>
  <path d="m84.45 111.54h435.4v8.95h-435.4z" fill="#ffde00"></path>
  <path d="m217.73 395.05h6.26v31.8h-6.26z" fill="#ffde00"></path>
  <path d="m210.83 381.25v-5.55h-6.26v6.8a22.17 22.17 0 0 1 6.26-1.25z" fill="#ffde00"></path>
  <path d="m204.57 386.28v40.57h6.26v-39.63a30.74 30.74 0 0 0 -6.26-.94z" fill="#ffde00"></path>
  <path d="m264.18 258.26v217.66h90.75v-217.66zm80 203.67h-69.18v-48.28h69.17zm0-80.26h-69.18v-103.24s11.9-9.37 34.58-9.37c21.22 0 34.59 9.37 34.59 9.37z" fill="#00ab81"></path>
  <path d="m401.06 369.24h8.23v-14.19l-2.14-6.65v-5.4h-4v5.45l-2.15 6.6z" fill="#00ab81"></path>
  <path d="m364.01 434.25h130.14v41.68h-130.14z" fill="#00ab81"></path>
  <path d="m110.16 434.25h144.94v41.68h-144.94z" fill="#00ab81" transform="matrix(-1 0 0 -1 365.25 910.17)"></path>
  <path d="m204.57 395.16a17.32 17.32 0 0 0 -4.61-4 12.61 12.61 0 0 0 -11.66-.87 16.78 16.78 0 0 1 9 9.75 26.3 26.3 0 0 0 -23.44-1.91 24.85 24.85 0 0 1 18.19 5.87 27.27 27.27 0 0 0 -16.13 9.68c5.66-1 11.36-2.1 17.1-1.8a27.32 27.32 0 0 1 11.55 3.12z" fill="#00ab81"></path>
  <path d="m224 412.45a9.82 9.82 0 0 1 2.65-2.29 7.31 7.31 0 0 1 6.73-.5 9.7 9.7 0 0 0 -5.17 5.62 15.14 15.14 0 0 1 13.51-1.1 14.29 14.29 0 0 0 -10.5 3.35 15.72 15.72 0 0 1 9.29 5.58 42.1 42.1 0 0 0 -9.86-1 15.77 15.77 0 0 0 -6.65 1.79z" fill="#00ab81"></path>
  <path d="m230 382c-.39 0-.78 0-1.17 0l1.33-.9 9.14-6c-2.08-1.07-4.55-.95-6.88-.8a13.26 13.26 0 0 0 -4.39.78 8.92 8.92 0 0 0 -4.22 4.16c-.18.35-.3.74-.45 1.1v-.48c-1-3.55-4.05-6.23-7.48-7.55a21.24 21.24 0 0 0 -5-1.18 13 13 0 0 1 2.79-2.89 21.59 21.59 0 0 1 7.6-3.46 37.1 37.1 0 0 1 14.42-.87c-3.43-4.49-9.47-6.11-15.12-6.34-.56 0-1.12 0-1.68 0 .63-.44 1.27-.87 1.91-1.29l13.12-8.65c-3-1.53-6.53-1.36-9.88-1.15a19.12 19.12 0 0 0 -6.3 1.12 12.87 12.87 0 0 0 -6.06 6c-.24.47-.45.95-.66 1.43v-.54c-1.37-5.1-5.82-8.94-10.75-10.84s-10.33-2.13-15.62-2.1a17.48 17.48 0 0 1 11.77 3.73c3.23 2.69 6.05 8.75 5.56 12.93a10.33 10.33 0 0 0 -2.88-1.38 16.42 16.42 0 0 0 -5-.38c-6.81.27-14.11 2.23-18.24 7.65a44.34 44.34 0 0 1 17.39 1 26 26 0 0 1 9.17 4.17c2.69 2.05 4.46 3.12 5.14 6.43h1.55v-.65a10.34 10.34 0 0 1 1.34-3.24 10.45 10.45 0 0 1 2.78 1.61c2.26 1.87 4.19 6 3.85 8.94v.06a6.81 6.81 0 0 0 -2-.95 11.09 11.09 0 0 0 -3.45-.27c-4.74.18-9.82 1.55-12.7 5.32a30.9 30.9 0 0 1 12.11.73 18.09 18.09 0 0 1 6.39 2.9 10.66 10.66 0 0 1 2.62 2.62v2.28h2.2v-1.4a8.33 8.33 0 0 1 3-4.24 14.85 14.85 0 0 1 5.29-2.4 25.76 25.76 0 0 1 10-.61c-2.38-3.12-6.6-4.26-10.54-4.4z" fill="#00ab81"></path>
  <path d="m428.56 380.46a.46.46 0 0 0 -.33.48v2.38a.44.44 0 0 0 .37.48h.1a1.63 1.63 0 0 1 -.33.64 5.75 5.75 0 0 1 -1 .89 5.44 5.44 0 0 0 -1.17 1.1 3.51 3.51 0 0 0 -.63 2v11.07a1.93 1.93 0 0 0 1.64 2.11h8.73a1.93 1.93 0 0 0 1.63-2.11v-11.05a3.42 3.42 0 0 0 -.61-2 5.58 5.58 0 0 0 -1.17-1.12 5.33 5.33 0 0 1 -1-.89 1.61 1.61 0 0 1 -.33-.65h.12a.44.44 0 0 0 .38-.48v-2.37a.55.55 0 0 0 -.11-.34.36.36 0 0 0 -.27-.15h-6z" fill="#fb715d" fill-rule="evenodd"></path>
  <path d="m442.42 401.69h8.23v-14.2l-2.14-6.64v-5.46h-4v5.46l-2.14 6.64z" fill="#fb715d"></path>
  <path d="m116.48 328.22h286.32v9.08h-286.32z" fill="#fb715d" transform="matrix(0 1 -1 0 592.4 73.12)"></path>
  <path d="m98.05 190.73h12.11v285.19h-12.11z" fill="#fb715d"></path>
  <path d="m80.14 475.92h434.1v14.53h-434.1z" fill="#fb715d"></path>
  <path d="m494.16 189.6h12.11v286.32h-12.11z" fill="#fb715d"></path>
  <path d="m90.07 120.49h424.17v69.11h-424.17z" fill="#fb715d"></path>
  <path d="m230.53 434.25 1.66-8.35h-40.61l1.66 8.35z" fill="#fb715d"></path>
  <g fill="#1c19a8">
    <path d="m354.93 477.33h-90.75a1.41 1.41 0 0 1 -1.41-1.4v-217.67a1.41 1.41 0 0 1 1.41-1.4h90.75a1.41 1.41 0 0 1 1.41 1.4v217.67a1.41 1.41 0 0 1 -1.41 1.4zm-89.34-2.81h87.94v-214.85h-87.94zm78.55-11.18h-69.14a1.41 1.41 0 0 1 -1.4-1.41v-48.27a1.41 1.41 0 0 1 1.4-1.41h69.17a1.41 1.41 0 0 1 1.4 1.41v48.27a1.41 1.41 0 0 1 -1.43 1.41zm-67.76-2.82h66.35v-45.46h-66.35zm67.76-77.44h-69.14a1.41 1.41 0 0 1 -1.4-1.41v-103.24a1.38 1.38 0 0 1 .53-1.1c.5-.4 12.54-9.68 35.45-9.68 21.41 0 34.83 9.24 35.39 9.63a1.39 1.39 0 0 1 .6 1.15v103.24a1.41 1.41 0 0 1 -1.43 1.41zm-67.76-2.81h66.35v-101.07c-2.79-1.75-15.16-8.74-33.18-8.74-19.31 0-30.65 7-33.17 8.69z"></path>
    <path d="m409.29 370.65h-8.23a1.41 1.41 0 0 1 -1.41-1.4v-14.2a1.25 1.25 0 0 1 .07-.43l2.08-6.44v-5.18a1.41 1.41 0 0 1 .41-1 1.37 1.37 0 0 1 1-.41h4a1.4 1.4 0 0 1 1.4 1.41v5.22l2.08 6.44a1.25 1.25 0 0 1 .07.43v14.2a1.41 1.41 0 0 1 -1.47 1.36zm-6.83-2.81h5.43v-12.57l-2.08-6.44a1.25 1.25 0 0 1 -.07-.43v-4h-1.18v4a1.25 1.25 0 0 1 -.07.43l-2.08 6.44z"></path>
    <path d="m414.55 400.49h-29.7a1.41 1.41 0 0 1 -1.4-1.41v-29.7a1.4 1.4 0 0 1 1.4-1.4h29.7a1.41 1.41 0 0 1 1.41 1.4v29.7a1.41 1.41 0 0 1 -1.41 1.41zm-28.29-2.81h26.89v-26.89h-26.89z"></path>
    <path d="m466 403h-8.73a3.3 3.3 0 0 1 -3-3.51v-11.06a5 5 0 0 1 .88-2.82 6.39 6.39 0 0 1 1.49-1.41l.39-.3a1.9 1.9 0 0 1 -.09-.58v-2.32a1.85 1.85 0 0 1 1.53-1.88h6.22a2.14 2.14 0 0 1 1.39.69 2 2 0 0 1 .39 1.2v2.38a2 2 0 0 1 -.1.6l.38.29a7 7 0 0 1 1.47 1.41 4.87 4.87 0 0 1 .87 2.8v11.01a3.3 3.3 0 0 1 -3.09 3.5zm-6.3-20.2a.93.93 0 0 1 .14.14 1.44 1.44 0 0 1 .3 1.21 3 3 0 0 1 -.6 1.17 6.65 6.65 0 0 1 -1.27 1.13 4 4 0 0 0 -.88.8 2 2 0 0 0 -.36 1.2v11.05a.84.84 0 0 0 .28.7h8.69a1 1 0 0 0 .23-.7v-11.05a2.18 2.18 0 0 0 -.34-1.17 4.38 4.38 0 0 0 -.89-.82 6.44 6.44 0 0 1 -1.26-1.14 3 3 0 0 1 -.6-1.2 1.44 1.44 0 0 1 .27-1.2 1.89 1.89 0 0 1 .2-.2v-.85h-3.9z"></path>
    <path d="m435.92 403h-8.73a3.3 3.3 0 0 1 -3-3.51v-11.06a4.92 4.92 0 0 1 .88-2.82 6.52 6.52 0 0 1 1.48-1.41l.4-.3a1.85 1.85 0 0 1 -.09-.58v-2.32a1.85 1.85 0 0 1 1.53-1.88h6.22a2.11 2.11 0 0 1 1.4.72 2 2 0 0 1 .38 1.21v2.33a2 2 0 0 1 -.1.61l.35.28a6.81 6.81 0 0 1 1.5 1.43 5 5 0 0 1 .87 2.79v11.01a3.3 3.3 0 0 1 -3.09 3.5zm-6.29-20.22.13.14a1.44 1.44 0 0 1 .31 1.21 3 3 0 0 1 -.6 1.18 7 7 0 0 1 -1.28 1.14 4 4 0 0 0 -.88.8 2.06 2.06 0 0 0 -.35 1.19v11.06a.84.84 0 0 0 .27.7h8.69a1 1 0 0 0 .23-.7v-11.05a2.1 2.1 0 0 0 -.35-1.17 3.93 3.93 0 0 0 -.89-.82 6.87 6.87 0 0 1 -1.26-1.14 3.06 3.06 0 0 1 -.59-1.2 1.44 1.44 0 0 1 .27-1.2 1.26 1.26 0 0 1 .2-.2v-.85h-3.9z"></path>
    <path d="m450.65 403.09h-8.23a1.4 1.4 0 0 1 -1.41-1.4v-14.19a1.31 1.31 0 0 1 .07-.44l2.07-6.43v-5.24a1.43 1.43 0 0 1 .41-1 1.37 1.37 0 0 1 1-.41h4a1.39 1.39 0 0 1 1 .41 1.43 1.43 0 0 1 .41 1v5.24l2.08 6.43a1.31 1.31 0 0 1 .07.44v14.19a1.4 1.4 0 0 1 -1.47 1.4zm-6.83-2.81h5.43v-12.57l-2.08-6.43a1.29 1.29 0 0 1 -.07-.43v-4.05h-1.19v4.05a1.61 1.61 0 0 1 -.07.43l-2.08 6.43z"></path>
    <path d="m375.4 407.57h6.3v26.67h-6.3z"></path>
    <path d="m381.69 435.65h-6.29a1.41 1.41 0 0 1 -1.41-1.4v-26.68a1.41 1.41 0 0 1 1.41-1.4h6.29a1.41 1.41 0 0 1 1.41 1.4v26.68a1.41 1.41 0 0 1 -1.41 1.4zm-4.89-2.81h3.49v-23.84h-3.49z"></path>
    <path d="m426.22 407.57h5.33v26.67h-5.33z"></path>
    <path d="m431.55 435.65h-5.33a1.4 1.4 0 0 1 -1.4-1.4v-26.68a1.4 1.4 0 0 1 1.4-1.4h5.33a1.41 1.41 0 0 1 1.41 1.4v26.68a1.41 1.41 0 0 1 -1.41 1.4zm-3.92-2.81h2.52v-23.84h-2.52z"></path>
    <path d="m474.33 407.57h6.3v26.67h-6.3z"></path>
    <path d="m480.63 435.65h-6.3a1.41 1.41 0 0 1 -1.41-1.4v-26.68a1.41 1.41 0 0 1 1.41-1.4h6.3a1.4 1.4 0 0 1 1.4 1.4v26.68a1.4 1.4 0 0 1 -1.4 1.4zm-4.9-2.81h3.49v-23.84h-3.49z"></path>
    <path d="m375.4 400.05h105.23v7.41h-105.23z"></path>
    <path d="m480.63 408.87h-105.23a1.41 1.41 0 0 1 -1.41-1.41v-7.41a1.41 1.41 0 0 1 1.41-1.41h105.23a1.41 1.41 0 0 1 1.4 1.41v7.41a1.41 1.41 0 0 1 -1.4 1.41zm-103.83-2.82h102.42v-4.59h-102.42z"></path>
    <path d="m110.74 349.09h29.19v21.05h-29.19z"></path>
    <path d="m142.28 434.25h-7.4l-24.35-124.57 7.12-1.39z"></path>
    <path d="m149.31 389.78h-14.31l-3.56-18.23h8.48a1.41 1.41 0 0 0 1.4-1.41v-21.05a1.4 1.4 0 0 0 -1.4-1.4h-13.14l-7.78-39.69a1.41 1.41 0 0 0 -1.66-1.11l-7.11 1.39a1.39 1.39 0 0 0 -.9.59 1.41 1.41 0 0 0 -.21 1.06l7.38 37.74h-5.8a1.4 1.4 0 0 0 -1.4 1.4v21.05a1.41 1.41 0 0 0 1.4 1.41h10.46l3.57 18.23h-14a1.41 1.41 0 0 0 -1.4 1.41v21.05a1.4 1.4 0 0 0 1.4 1.4h18.69l4.09 20.88a1.39 1.39 0 0 0 1.38 1.13h7.39a1.41 1.41 0 0 0 1.38-1.67l-4-20.34h9.63a1.4 1.4 0 0 0 1.41-1.4v-21.03a1.41 1.41 0 0 0 -1.39-1.41zm-10.79-39.28v18.24h-7.62l-3.57-18.24zm-10.52 18.24h-4.52l-3.57-18.24h4.53zm-15.85-57.95 4.36-.85 7.38 37.75h-4.53zm0 57.95v-18.24h4.94l3.56 18.24zm11.92 2.81h4.52l3.57 18.23h-4.53zm16.51 61.29h-4.58l-3.75-19.2h4.53z"></path>
    <path d="m264.18 477.33h-9.08a1.41 1.41 0 0 1 -1.41-1.4v-286.33a1.41 1.41 0 0 1 1.41-1.41h9.08a1.41 1.41 0 0 1 1.41 1.41v286.33a1.41 1.41 0 0 1 -1.41 1.4zm-7.68-2.81h6.27v-283.52h-6.27z"></path>
    <path d="m494.16 202.07h-230a1.41 1.41 0 0 1 -1.41-1.41v-11.06a1.41 1.41 0 0 1 1.41-1.41h230a1.41 1.41 0 0 1 1.4 1.41v11.06a1.41 1.41 0 0 1 -1.4 1.41zm-228.57-2.81h227.16v-8.26h-227.16z"></path>
    <path d="m494.16 213.13h-230a1.41 1.41 0 0 1 -1.41-1.4v-11.07a1.41 1.41 0 0 1 1.41-1.4h230a1.4 1.4 0 0 1 1.4 1.4v11.07a1.4 1.4 0 0 1 -1.4 1.4zm-228.57-2.81h227.16v-8.25h-227.16z"></path>
    <path d="m494.16 224.2h-230a1.41 1.41 0 0 1 -1.41-1.41v-11.06a1.41 1.41 0 0 1 1.41-1.41h230a1.41 1.41 0 0 1 1.4 1.41v11.06a1.41 1.41 0 0 1 -1.4 1.41zm-228.57-2.82h227.16v-8.25h-227.16z"></path>
    <path d="m364 477.33h-9.08a1.4 1.4 0 0 1 -1.4-1.4v-253a1.4 1.4 0 0 1 1.4-1.4h9.08a1.41 1.41 0 0 1 1.41 1.4v253a1.41 1.41 0 0 1 -1.41 1.4zm-7.67-2.81h6.27v-250.19h-6.27z"></path>
    <path d="m354.93 477.33h-90.75a1.41 1.41 0 0 1 -1.41-1.4v-217.67a1.41 1.41 0 0 1 1.41-1.4h90.75a1.41 1.41 0 0 1 1.41 1.4v217.67a1.41 1.41 0 0 1 -1.41 1.4zm-89.34-2.81h87.94v-214.85h-87.94z"></path>
    <path d="m326.8 403.12h-34.49a1.41 1.41 0 0 1 -1.41-1.41v-10.13a1.41 1.41 0 0 1 1.41-1.41h34.49a1.41 1.41 0 0 1 1.41 1.41v10.13a1.41 1.41 0 0 1 -1.41 1.41zm-33.08-2.81h31.67v-7.31h-31.67z"></path>
    <path d="m110.16 477.33h-12.11a1.41 1.41 0 0 1 -1.41-1.4v-286a1.72 1.72 0 0 1 1.71-1.71h11.51a1.71 1.71 0 0 1 1.7 1.71v286a1.4 1.4 0 0 1 -1.4 1.4zm-10.7-2.81h9.29v-283.21a.29.29 0 0 0 -.3-.3h-8.69a.29.29 0 0 0 -.3.3z"></path>
    <path d="m514.24 491.86h-434.1a1.4 1.4 0 0 1 -1.4-1.4v-14.53a1.41 1.41 0 0 1 1.4-1.41h434.1a1.41 1.41 0 0 1 1.41 1.41v14.53a1.41 1.41 0 0 1 -1.41 1.4zm-432.69-2.81h431.28v-11.72h-431.28z"></path>
    <path d="m506.26 477.33h-12.1a1.41 1.41 0 0 1 -1.41-1.4v-286.33a1.41 1.41 0 0 1 1.41-1.4h12.1a1.41 1.41 0 0 1 1.41 1.4v286.33a1.41 1.41 0 0 1 -1.41 1.4zm-10.7-2.81h9.3v-283.52h-9.3z"></path>
    <path d="m494.16 477.33h-130.16a1.4 1.4 0 0 1 -1.4-1.4v-41.68a1.41 1.41 0 0 1 1.4-1.41h130.16a1.41 1.41 0 0 1 1.4 1.41v41.68a1.4 1.4 0 0 1 -1.4 1.4zm-128.74-2.81h127.33v-38.87h-127.33z"></path>
    <path d="m255.1 477.33h-144.94a1.41 1.41 0 0 1 -1.41-1.4v-41.68a1.41 1.41 0 0 1 1.41-1.41h144.94a1.41 1.41 0 0 1 1.4 1.41v41.68a1.4 1.4 0 0 1 -1.4 1.4zm-143.54-2.81h142.13v-38.87h-142.13z"></path>
    <path d="m494.16 259.57h-130.16a1.41 1.41 0 0 1 -1.4-1.41v-9.08a1.41 1.41 0 0 1 1.4-1.41h130.16a1.41 1.41 0 0 1 1.4 1.41v9.08a1.41 1.41 0 0 1 -1.4 1.41zm-128.74-2.81h127.33v-6.27h-127.33z"></path>
    <path d="m354.93 259.57h-90.75a1.41 1.41 0 0 1 -1.41-1.41v-9.08a1.41 1.41 0 0 1 1.41-1.41h90.75a1.41 1.41 0 0 1 1.41 1.41v9.08a1.41 1.41 0 0 1 -1.41 1.41zm-89.34-2.81h87.94v-6.27h-87.94z"></path>
    <path d="m255 259.57h-144.84a1.41 1.41 0 0 1 -1.41-1.41v-9.08a1.41 1.41 0 0 1 1.41-1.41h144.84a1.41 1.41 0 0 1 1.41 1.41v9.08a1.41 1.41 0 0 1 -1.41 1.41zm-143.4-2.81h142v-6.27h-142z"></path>
    <path d="m514.24 191h-424.17a1.41 1.41 0 0 1 -1.4-1.41v-69.1a1.41 1.41 0 0 1 1.4-1.41h424.17a1.41 1.41 0 0 1 1.41 1.41v69.11a1.41 1.41 0 0 1 -1.41 1.4zm-422.76-2.81h421.35v-66.3h-421.35z"></path>
    <path d="m519.86 121.89h-435.4a1.41 1.41 0 0 1 -1.41-1.4v-8.95a1.41 1.41 0 0 1 1.41-1.41h435.4a1.41 1.41 0 0 1 1.4 1.41v8.95a1.4 1.4 0 0 1 -1.4 1.4zm-434-2.81h432.59v-6.08h-432.59z"></path>
    <path d="m159.67 135.54s7 8.27 3.94 19.29-5.74 15.75-5.74 15.75-.28 6 4.89 1.41 7.54-15.69 5-27a23.18 23.18 0 0 1 5.66 8.77 1 1 0 0 0 1.84.1c2.19-4.67 7.25-14.85 11.06-18 0 0 1-2 0 11.44s-.89 22.68 4.57 26.41c0 0 5.38 2.36 1.19-7s-.55-33.15-.55-33.15 1.73-9.83-7.19 0c0 0-6.38 8.38-9.11 15.57 0 0-6.55-15-10.2-18.3s-7.86 4.37-7.11 4.46z"></path>
    <path d="m199.13 140.13s4.28 1.27 4.28 3.82v17.3s-.73 5.47 1.82 3.1 1.09.59 1.09.59-4 5.42-5.73 5-2.92.33-1.46-29.81z"></path>
    <path d="m244.43 140.13s4.28 1.27 4.28 3.82v17.3s-.73 5.47 1.82 3.1 1.09.59 1.09.59-4 5.42-5.74 5-2.88.33-1.45-29.81z"></path>
    <path d="m222.17 143.41s-6-6.92-10.93-4.47-2.64 10.11.36 12.66 12.8 13 3.67 14.66-3.76-7.47-.75-8.47c0 0 0-.73-1-.54s-11.48 11.16.36 12.68 12.57-10.59 6.92-16.23-10.38-7.84-6.46-11.39 7 1.55 7 1.55 1.66 1.46.83-.45z"></path>
    <path d="m238.1 143.41s-6-6.92-10.93-4.47-2.64 10.11.36 12.66 12.8 13 3.67 14.66-3.76-7.47-.75-8.47c0 0 0-.73-1-.54s-11.48 11.16.36 12.68 12.57-10.59 6.92-16.23-10.38-7.84-6.46-11.39 7 1.55 7 1.55 1.65 1.46.83-.45z"></path>
    <path d="m258.26 152.09s2.52-4.74 0-5.27-4.53 2.32-4.74 6.53-1.37 16.67 9.26 16.71 10-13.25 9.38-17.4-4.38-17.75-16.22-11.42c0 0-1.79 2.64 1.79 1.69s11.06-4.35 12.22 8.67-6.74 13.76-7.9 13.45-6.05-.53-3.79-12.96z"></path>
    <path d="m280 150.51s.53-8.32 0-8.95-4.11-3.06-4.42 3.16 0 22.22 0 22.22 1.1 7.33 4.21 3c.36-.5.45-4.11.47-7.14a30.36 30.36 0 0 1 2.86-13 15.65 15.65 0 0 1 4.25-5.74c3.37-2.53 1.69 11.69 1.48 15.58s.42 16.54 6.11 8-.53-2.32-.53-2.32-1.26-.74-.84-7.48 1.73-26.43-7.19-16.22c0 0-5.87 6-6.29 9.94z"></path>
    <path d="m429.18 150.51s.53-8.32 0-8.95-4.11-3.06-4.42 3.16 0 22.22 0 22.22 1.1 7.33 4.21 3c.36-.5.45-4.11.47-7.14a30.36 30.36 0 0 1 2.86-13 15.54 15.54 0 0 1 4.25-5.74c3.37-2.53 1.69 11.69 1.48 15.58s.42 16.54 6.11 8-.53-2.32-.53-2.32-1.26-.74-.84-7.48 1.73-26.43-7.2-16.22c0 0-5.86 6-6.28 9.94z"></path>
    <circle cx="201.97" cy="135.6" r="2.81"></circle>
    <circle cx="247.3" cy="135.6" r="2.81"></circle>
    <path d="m352.28 133.86s6-.11 7.24 6.9c0 0 3 3 1.89-2.34s-7.35-11.69-17.36-7.23-10.14 18.48-7.91 28.83 17 15.47 22.27 3a21.43 21.43 0 0 1 .66 10.79c-1.22 5.68-4.82 8.58-10.76 6.91s-1.48-7.69 5.31-7.24 26.83 1.45 31.62.89 2.22-2.23 2.22-2.23l-23.71-.22s-10.35-1.11-16.14.56-7 9.35 1.67 10.13 12.58-1.67 13.8-7.57 1.9-23.27 1.45-24.38-8.8-1.12-11-.67-4 4.42 2.22 4.83l2.34.2s-.78 8-5.68 9.44-13-1.44-12.91-16.92 12.78-13.68 12.78-13.68z"></path>
    <path d="m371.53 145.32s1.67-2.67 0-3.34-5.23-.11-4.68 4.68 5.42 4.9 5.42 4.9-1.41 18.3 1 18.5 3.71 2.54 10.37-7.15c0 0 .76-4.23-3.91.89 0 0-1.9 3.34-1-6s1-10.13-1.78-10.35-6.14-.28-5.42-2.13z"></path>
    <path d="m394.86 167.37c-5.9.44-4.34-11.15-4.34-11.15s7.23-.56 9.68-3.56 2.45-13.13-3.11-12.23a13.77 13.77 0 0 0 -11.8 14.4c.19 8.94 1.22 15.81 7.68 15.62s8.35-4.42 7.9-5.09-.1 1.56-6.01 2.01zm.78-23.38c3.67-2.34 4.34 4.9 2.78 6.57s-7.9 3.34-7.9 3.34 1.48-7.57 5.12-9.9z"></path>
    <path d="m412.91 167.37c-5.91.44-4.35-11.15-4.35-11.15s7.24-.56 9.69-3.56 2.44-13.13-3.12-12.23a13.77 13.77 0 0 0 -11.8 14.4c.2 8.94 1.22 15.81 7.68 15.62s8.35-4.42 7.9-5.09-.1 1.56-6 2.01zm.77-23.38c3.67-2.34 4.34 4.9 2.78 6.57s-7.9 3.34-7.9 3.34 1.44-7.57 5.12-9.9z"></path>
    <circle cx="316.64" cy="162.18" r="4.77"></circle>
    <circle cx="316.64" cy="145.55" r="4.77"></circle>
    <path d="m230.53 435.65h-37.29a1.4 1.4 0 0 1 -1.38-1.13l-1.66-8.34a1.37 1.37 0 0 1 .29-1.17 1.42 1.42 0 0 1 1.09-.51h40.62a1.41 1.41 0 0 1 1.38 1.68l-1.67 8.34a1.4 1.4 0 0 1 -1.38 1.13zm-36.13-2.81h35l1.1-5.53h-37.21z"></path>
    <path d="m241.83 412.75h-.37a39.37 39.37 0 0 0 -7.9-.53h-1.34a15.51 15.51 0 0 1 1.82-1.46 1.42 1.42 0 0 0 -.71-2.62 15.73 15.73 0 0 0 -7 .81v-14.95a1.41 1.41 0 0 0 -1.41-1.41h-.08a16.46 16.46 0 0 1 4.1-3.85c3.42-1.92 8.11-1.59 11.92-1.73.84 0 1.48-1.18.74-1.8a20.29 20.29 0 0 0 -9.79-4.64 74.24 74.24 0 0 1 8.81-4.34c1-.45.39-1.89-.53-2-4.7-.38-12-.83-15.52 3-1.69-4.19-6.37-5.8-10.86-7.17 6.81-4.86 15-4.93 23.17-4.74a1.06 1.06 0 0 0 .54-2 37.65 37.65 0 0 0 -16.75-5.64c4.72-3.07 9.54-6 14.54-8.58a1.07 1.07 0 0 0 -.25-1.93c-7.16-1.8-20-3.2-23.85 4.32-1-3.23-2.08-5.84-5.8-7.62-6.11-2.95-14.14-3.27-20.76-3a1.06 1.06 0 0 0 0 2.11c8.51.12 13.59 5.9 16.09 13.23-9.75-2.67-19.69-.87-25.85 7.89-.59.83.38 1.68 1.19 1.55 6.56-1.09 15.27-.46 21.32 2.18 3.43 1.49 5.24 4.06 7.65 6.32h-.54a1.54 1.54 0 0 0 -1.55 1.55v6.71a16.94 16.94 0 0 0 -5.84 3.66 1.06 1.06 0 0 0 .75 1.8c1.5 0 3.16-.07 4.87-.05v4.18c-4.56-3.11-9.25-5.31-15-3a1.06 1.06 0 0 0 0 2 12.27 12.27 0 0 1 6.91 6.08c-6.82-3.14-15.49-3.34-22 .66a1.07 1.07 0 0 0 .53 2c5.85.38 11.09 1.45 16.1 4.22-5.64 1.46-10.07 4.95-14.53 8.9-.82.72.06 2 1 1.76 8.48-2.13 18.61-2.67 26.95.43v10.46a1.55 1.55 0 0 0 1.55 1.55h7.85a1.55 1.55 0 0 0 1.54-1.55v-35.94a13.24 13.24 0 0 1 4.64 3h-1.18a1.41 1.41 0 0 0 -1.4 1.41v31.49a1.4 1.4 0 0 0 1.4 1.4h7.87a1.41 1.41 0 0 0 1.41-1.4v-1.38a35 35 0 0 1 14.07 1 1.42 1.42 0 0 0 1.37-2.35 21.82 21.82 0 0 0 -7-5.78 15.76 15.76 0 0 1 6.78-1.46c1.5.02 1.93-2.45.33-2.75zm-64.83-14.75a23.1 23.1 0 0 1 18.91 2.26c1.55 1.32 3 2.77 4.42 4.2q-.95-.19-1.92-.36c-2.14-.36-4.29-.64-6.44-.9a34.86 34.86 0 0 0 -14.97-5.2zm25.57 14.8c-7.41-2.53-15.65-2.54-23.4-1.12 3.74-3.06 7.68-5.56 12.79-6.19a1.31 1.31 0 0 0 .4-.17c3.26.3 7.44.55 10.21 2.16zm0-9.13c-1.56-1.57-3.13-3.11-4.8-4.55-1.58-3.77-3.6-6.82-6.84-8.8 4.35-.56 8 1.69 11.64 4.26zm33.13-27.55a49.49 49.49 0 0 0 -7.37 4.13 5.22 5.22 0 0 0 -3.12 1.72 16.33 16.33 0 0 0 -.08-1.86c1.78-3.56 6.47-4.11 10.6-4.02zm-12.7 3.3v.07c.46 2 0 4.29 0 6.3 0 .06.05.08.06.14-.53 1.43-.94 2.92-1.32 4.25-.33-3.35-1.31-6.55-4.1-8.62a37.62 37.62 0 0 0 -4.93-9.63c4 1.18 9.54 2.79 10.29 7.49zm-10.37-3.75a35.47 35.47 0 0 1 2.57 5.42c-.86-.06-1.72-.1-2.57-.11zm-1.82-2.79c.36.51.74 1 1.07 1.52a1.54 1.54 0 0 0 -.79-.25h-1a8.12 8.12 0 0 1 .68-1.27zm20.88-24.2c-5 2.7-9.78 5.58-14.47 8.73a9.6 9.6 0 0 0 -4.86 2.4c0-.89 0-1.79 0-2.69a10.85 10.85 0 0 0 -.12-2.14c1.25-7.67 12.76-7.42 19.41-6.3zm-14.51 10.79c.1 0 .16.09.27.09a35.14 35.14 0 0 1 15.21 3.61c-8 0-15.57 1.05-22 6.51a.91.91 0 0 0 -.3.51c-.12 0-.26.05-.33.14a13 13 0 0 0 -.75 1.13c.47-5.08 2.95-10.94 7.86-11.99zm-7.64 17.78v3.75a26.48 26.48 0 0 0 -3.59.46v-4.25zm-16.26-34a45.85 45.85 0 0 1 5.48.87c5.9 1.33 9.34 5.6 11.34 11a13.93 13.93 0 0 1 .07 3.17c-.09 1.33.11 2.64.08 4a16.42 16.42 0 0 0 -1.43 2.69c-.88-3.47-2.66-7-5.72-8-1.76-5.91-5.02-10.91-9.86-13.71zm8.72 24.69a21.09 21.09 0 0 0 -7.23-3.21 49.15 49.15 0 0 0 -16.64-1.4c6.12-6.81 15.19-7.46 23.81-4.57 3.88.89 5.3 7.42 5.45 10.77v.08a20.65 20.65 0 0 0 -.33 3.62c-1.78-1.6-3.06-3.83-5.06-5.29zm8.48 56h-4.78v-35.94a31.66 31.66 0 0 1 4.77.67zm-9.58-38.2c4.54-2.87 10.06-2.88 15.47-2.42 2.44 1.82 3.1 4.77 3.3 7.73-4.58-4.69-12.2-5.38-18.78-5.35zm22.59 38.35h-5.06v-28.71h5.06zm5.25-41.77a17.77 17.77 0 0 1 8.94 2.68 25.69 25.69 0 0 0 -8.15 1.19 15.24 15.24 0 0 0 -5.83 4.55c.88-3.24 2.13-8.06 5.03-8.46zm7.61 39.14a38.39 38.39 0 0 0 -10.05-.11v-9.35s.06 0 .08 0a7.86 7.86 0 0 1 3-1 18.63 18.63 0 0 0 -2.34 2.91c-.73 1.12.78 2.78 1.92 1.92a7.57 7.57 0 0 1 4-1.09 19.81 19.81 0 0 0 -1.94 1.09 1.42 1.42 0 0 0 0 2.43 29.77 29.77 0 0 1 5.32 3.16z"></path>
  </g>
</svg>
