<?xml version="1.0" encoding="UTF-8"?>
<svg xmlns="http://www.w3.org/2000/svg" xmlns:xlink="http://www.w3.org/1999/xlink" viewBox="0 0 600 600">
  <clipPath id="a">
    <path d="m464.82 269.25h35.85v153.58h-35.85z"></path>
  </clipPath>
  <clipPath id="b">
    <path d="m487.86 264.53h27v27h-27z"></path>
  </clipPath>
  <clipPath id="c">
    <path d="m487.86 291.53h27v27h-27z"></path>
  </clipPath>
  <clipPath id="d">
    <path d="m487.86 318.53h27v27h-27z"></path>
  </clipPath>
  <clipPath id="e">
    <path d="m487.86 345.54h27v27h-27z"></path>
  </clipPath>
  <clipPath id="f">
    <path d="m487.86 372.54h27v27h-27z"></path>
  </clipPath>
  <clipPath id="g">
    <path d="m487.86 399.54h27v27h-27z"></path>
  </clipPath>
  <clipPath id="h">
    <path d="m460.86 264.53h27v27h-27z"></path>
  </clipPath>
  <clipPath id="i">
    <path d="m460.86 291.53h27v27h-27z"></path>
  </clipPath>
  <clipPath id="j">
    <path d="m460.86 318.53h27v27h-27z"></path>
  </clipPath>
  <clipPath id="k">
    <path d="m460.86 345.54h27v27h-27z"></path>
  </clipPath>
  <clipPath id="l">
    <path d="m460.86 372.54h27v27h-27z"></path>
  </clipPath>
  <clipPath id="m">
    <path d="m460.86 399.54h27v27h-27z"></path>
  </clipPath>
  <clipPath id="n">
    <path d="m378.44 276.26h40.87v112.93h-40.87z"></path>
  </clipPath>
  <clipPath id="o">
    <path d="m406.86 264.53h27v27h-27z"></path>
  </clipPath>
  <clipPath id="p">
    <path d="m406.86 291.53h27v27h-27z"></path>
  </clipPath>
  <clipPath id="q">
    <path d="m406.86 318.53h27v27h-27z"></path>
  </clipPath>
  <clipPath id="r">
    <path d="m406.86 345.54h27v27h-27z"></path>
  </clipPath>
  <clipPath id="s">
    <path d="m406.86 372.54h27v27h-27z"></path>
  </clipPath>
  <clipPath id="t">
    <path d="m379.86 264.53h27v27h-27z"></path>
  </clipPath>
  <clipPath id="u">
    <path d="m379.86 291.53h27v27h-27z"></path>
  </clipPath>
  <clipPath id="v">
    <path d="m379.86 318.53h27v27h-27z"></path>
  </clipPath>
  <clipPath id="w">
    <path d="m379.86 345.54h27v27h-27z"></path>
  </clipPath>
  <clipPath id="x">
    <path d="m379.86 372.54h27v27h-27z"></path>
  </clipPath>
  <clipPath id="y">
    <path d="m352.86 264.53h27v27h-27z"></path>
  </clipPath>
  <clipPath id="z">
    <path d="m352.86 291.53h27v27h-27z"></path>
  </clipPath>
  <clipPath id="A">
    <path d="m352.86 318.53h27v27h-27z"></path>
  </clipPath>
  <clipPath id="B">
    <path d="m352.86 345.54h27v27h-27z"></path>
  </clipPath>
  <clipPath id="C">
    <path d="m352.86 372.54h27v27h-27z"></path>
  </clipPath>
  <clipPath id="D">
    <path d="m331.19 276.26h40.87v112.93h-40.87z"></path>
  </clipPath>
  <clipPath id="E">
    <path d="m359.62 264.53h27v27h-27z"></path>
  </clipPath>
  <clipPath id="F">
    <path d="m359.62 291.53h27v27h-27z"></path>
  </clipPath>
  <clipPath id="G">
    <path d="m359.62 318.53h27v27h-27z"></path>
  </clipPath>
  <clipPath id="H">
    <path d="m359.62 345.54h27v27h-27z"></path>
  </clipPath>
  <clipPath id="I">
    <path d="m359.62 372.54h27v27h-27z"></path>
  </clipPath>
  <clipPath id="J">
    <path d="m332.62 264.53h27v27h-27z"></path>
  </clipPath>
  <clipPath id="K">
    <path d="m332.62 291.53h27v27h-27z"></path>
  </clipPath>
  <clipPath id="L">
    <path d="m332.62 318.53h27v27h-27z"></path>
  </clipPath>
  <clipPath id="M">
    <path d="m332.62 345.54h27v27h-27z"></path>
  </clipPath>
  <clipPath id="N">
    <path d="m332.62 372.54h27v27h-27z"></path>
  </clipPath>
  <clipPath id="O">
    <path d="m305.62 264.53h27v27h-27z"></path>
  </clipPath>
  <clipPath id="P">
    <path d="m305.62 291.53h27v27h-27z"></path>
  </clipPath>
  <clipPath id="Q">
    <path d="m305.62 318.53h27v27h-27z"></path>
  </clipPath>
  <clipPath id="R">
    <path d="m305.62 345.54h27v27h-27z"></path>
  </clipPath>
  <clipPath id="S">
    <path d="m305.62 372.54h27v27h-27z"></path>
  </clipPath>
  <path d="m82.21 207.21h435.52v274.06h-435.52z" fill="#fff"></path>
  <path d="m446.14 250.45v201.7h3.61v24.35h58.31v-24.35h3.38v-201.7zm47.74 211.18h-29.95v-8.8h29.95zm6.78-38.8h-35.84v-153.58h35.84z" fill="#ffde00"></path>
  <path d="m316.79 263.37v180.07h4.72v9.64h-4.72v18.13h113.62l.08-19.06h3.51v-188.78zm14.4 12.89h40.87v112.93h-40.87zm56.93 121.65v7.47h-25.42v-7.47zm-16.06 60h-40.87v-43.8h40.87zm47.25 0h-40.87v-43.8h40.87zm0-68.73h-40.87v-112.92h40.87z" fill="#ffde00"></path>
  <path d="m76.21 128.3h447.58v82.16h-447.58z" fill="#ffde00"></path>
  <path d="m511.68 210.46h12.11v241.69h-12.11z" fill="#ffde00"></path>
  <path d="m508.06 452.15h19.34v37.7h-19.34z" fill="#ffde00"></path>
  <path d="m434.03 210.46h12.11v241.69h-12.11z" fill="#ffde00"></path>
  <path d="m76.21 210.46h12.11v232.98h-12.11z" fill="#ffde00"></path>
  <path d="m304.68 210.46h12.11v232.98h-12.11z" fill="#ffde00"></path>
  <path d="m69.79 443.44h251.72v9.39h-251.72z" fill="#ffde00"></path>
  <path d="m76.21 452.83h240.58v26.43h-240.58z" fill="#ffde00"></path>
  <path d="m316.79 250.45h117.24v12.92h-117.24z" fill="#ffde00"></path>
  <path d="m446.14 210.46v40h65.3v-40zm57.15 32.54h-48.76v-25h48.76z" fill="#ffde00"></path>
  <path d="m430.41 452.15v19.06 8.05h7.26v10.59h12.08v-37.7z" fill="#ffde00"></path>
  <path d="m191.95 276.26h9.1v7.94h-9.1z" fill="#ffde00"></path>
  <path d="m264.07 276.26h9.1v7.94h-9.1z" fill="#ffde00"></path>
  <path d="m143.33 393.49-35.53-86.82h-19.48v136.77h55.01z" fill="#00ab81"></path>
  <path d="m69.79 115.27h460.42v12.83h-460.42z" fill="#00ab81"></path>
  <path d="m449.75 476.5h58.31v13.34h-58.31z" fill="#00ab81"></path>
  <path d="m76.21 479.26h233.32v10.59h-233.32z" fill="#00ab81"></path>
  <circle cx="196.5" cy="297.06" fill="#00ab81" r="12.86"></circle>
  <circle cx="268.62" cy="297.06" fill="#00ab81" r="12.86"></circle>
  <path d="m316.79 471.21h113.62v8.05h-113.62z" fill="#00ab81"></path>
  <path d="m309.53 479.26h128.14v10.59h-128.14z" fill="#00ab81"></path>
  <g fill="#1c19a8">
    <path d="m508.06 477.91h-58.31a1.41 1.41 0 0 1 -1.4-1.41v-22.94h-2.21a1.41 1.41 0 0 1 -1.41-1.41v-201.7a1.41 1.41 0 0 1 1.41-1.41h65.3a1.41 1.41 0 0 1 1.41 1.41v201.7a1.41 1.41 0 0 1 -1.41 1.41h-2v22.94a1.41 1.41 0 0 1 -1.38 1.41zm-56.9-2.81h55.5v-23a1.4 1.4 0 0 1 1.4-1.4h2v-198.85h-62.52v198.9h2.21a1.41 1.41 0 0 1 1.41 1.4zm42.72-12.1h-29.95a1.41 1.41 0 0 1 -1.41-1.41v-8.8a1.41 1.41 0 0 1 1.41-1.41h29.95a1.41 1.41 0 0 1 1.41 1.41v8.8a1.41 1.41 0 0 1 -1.41 1.41zm-28.54-2.82h27.14v-6h-27.14zm35.33-36h-35.85a1.41 1.41 0 0 1 -1.41-1.41v-153.52a1.41 1.41 0 0 1 1.41-1.41h35.85a1.41 1.41 0 0 1 1.4 1.41v153.58a1.41 1.41 0 0 1 -1.4 1.41zm-34.45-2.82h33v-150.7h-33z"></path>
    <path d="m430.41 472.62h-113.62a1.41 1.41 0 0 1 -1.41-1.41v-18.13a1.41 1.41 0 0 1 1.41-1.41h3.32v-6.83h-3.32a1.41 1.41 0 0 1 -1.41-1.4v-180.07a1.41 1.41 0 0 1 1.41-1.4h117.21a1.4 1.4 0 0 1 1.4 1.4v188.78a1.41 1.41 0 0 1 -1.4 1.41h-2.14l-.08 17.66a1.4 1.4 0 0 1 -1.37 1.4zm-112.22-2.82h110.81l.07-17.65a1.41 1.41 0 0 1 1.41-1.4h2.13v-186h-114.42v177.25h3.32a1.41 1.41 0 0 1 1.41 1.41v9.64a1.41 1.41 0 0 1 -1.41 1.4h-3.32zm101.12-10.48h-40.87a1.41 1.41 0 0 1 -1.41-1.4v-43.81a1.41 1.41 0 0 1 1.41-1.4h40.87a1.41 1.41 0 0 1 1.41 1.4v43.81a1.41 1.41 0 0 1 -1.41 1.4zm-39.47-2.81h38.07v-41h-38.07zm-7.78 2.81h-40.87a1.41 1.41 0 0 1 -1.41-1.4v-43.81a1.41 1.41 0 0 1 1.41-1.4h40.87a1.41 1.41 0 0 1 1.41 1.4v43.81a1.41 1.41 0 0 1 -1.41 1.4zm-39.46-2.81h38.06v-41h-38.06zm55.52-49.72h-25.42a1.41 1.41 0 0 1 -1.41-1.41v-7.47a1.41 1.41 0 0 1 1.41-1.4h25.42a1.4 1.4 0 0 1 1.4 1.4v7.47a1.41 1.41 0 0 1 -1.4 1.41zm-24-2.81h22.6v-4.66h-22.6zm55.2-13.39h-40.88a1.41 1.41 0 0 1 -1.41-1.4v-112.94a1.41 1.41 0 0 1 1.41-1.4h40.87a1.41 1.41 0 0 1 1.41 1.4v112.94a1.41 1.41 0 0 1 -1.41 1.4zm-39.47-2.81h38.07v-110.12h-38.08zm-7.78 2.81h-40.88a1.41 1.41 0 0 1 -1.41-1.4v-112.94a1.41 1.41 0 0 1 1.41-1.4h40.87a1.41 1.41 0 0 1 1.41 1.4v112.94a1.41 1.41 0 0 1 -1.41 1.4zm-39.46-2.81h38.06v-110.12h-38.07z"></path>
    <path d="m143.33 444.85h-55a1.41 1.41 0 0 1 -1.41-1.41v-136.77a1.41 1.41 0 0 1 1.41-1.41h19.47a1.41 1.41 0 0 1 1.3.88l35.53 86.86a1.4 1.4 0 0 1 .11.53v49.95a1.41 1.41 0 0 1 -1.41 1.37zm-53.6-2.85h52.2v-48.23l-35.08-85.69h-17.12z"></path>
    <path d="m212.62 349.86h60.79v4.62h-60.79z"></path>
    <path d="m273.41 355.89h-60.79a1.41 1.41 0 0 1 -1.41-1.41v-4.62a1.41 1.41 0 0 1 1.41-1.4h60.79a1.4 1.4 0 0 1 1.4 1.4v4.62a1.41 1.41 0 0 1 -1.4 1.41zm-59.41-2.81h58v-1.81h-58z"></path>
    <path d="m241.06 354.48h3.91v88.96h-3.91z"></path>
    <path d="m245 444.85h-3.91a1.41 1.41 0 0 1 -1.41-1.41v-89a1.4 1.4 0 0 1 1.41-1.4h3.91a1.4 1.4 0 0 1 1.41 1.4v89a1.41 1.41 0 0 1 -1.41 1.41zm-2.54-2.85h1.1v-86.11h-1.1z"></path>
    <path d="m224.01 377.59h-22.18-6.79v-5.27h28.97z"></path>
    <path d="m224 379h-29a1.41 1.41 0 0 1 -1.41-1.4v-5.27a1.41 1.41 0 0 1 1.41-1.41h29a1.41 1.41 0 0 1 1.4 1.41v5.27a1.4 1.4 0 0 1 -1.4 1.4zm-27.57-2.81h26.17v-2.45h-26.16z"></path>
    <path d="m196.02 452.81-.04.27"></path>
    <path d="m197.37 453.27-2.78-.39 2.82.13z"></path>
    <path d="m196.88 443.44 1.01-11.1 5.07-54.75"></path>
    <path d="m166.86 409.11h66.13v2.81h-66.13z" transform="matrix(.09115401 -.99583681 .99583681 .09115401 -227.12 572.14)"></path>
    <path d="m223.99 453.08-.03-.27"></path>
    <path d="m222.6 453.27-.04-.26 2.79-.39z"></path>
    <path d="m223.09 443.44-1.01-11.1-5.02-54.75"></path>
    <path d="m218.67 377.45h2.81v66.12h-2.81z" transform="matrix(.99582088 -.09132782 .09132782 .99582088 -36.57 21.81)"></path>
    <path d="m224.58 433.75h-29.5a1.41 1.41 0 1 1 0-2.81h29.5a1.41 1.41 0 1 1 0 2.81z"></path>
    <path d="m208.6 453.08v-.27h2.81z"></path>
    <path d="m208.6 377.59h2.81v65.85h-2.81z"></path>
    <path d="m288.85 377.59h-22.17-6.8v-5.27h28.97z"></path>
    <path d="m288.85 379h-29a1.4 1.4 0 0 1 -1.4-1.4v-5.27a1.41 1.41 0 0 1 1.4-1.41h29a1.41 1.41 0 0 1 1.41 1.41v5.27a1.41 1.41 0 0 1 -1.41 1.4zm-27.56-2.81h26.16v-2.45h-26.16z"></path>
    <path d="m260.56 452.81-.04.27"></path>
    <path d="m261.91 453.27-2.78-.39 2.82.13z"></path>
    <path d="m261.42 443.44 1.01-11.1 5.03-54.75"></path>
    <path d="m231.38 409.11h66.12v2.81h-66.12z" transform="matrix(.09115401 -.99583681 .99583681 .09115401 -168.49 636.39)"></path>
    <path d="m288.53 453.08-.04-.27"></path>
    <path d="m287.14 453.27-.04-.26 2.78-.39z"></path>
    <path d="m287.63 443.44-1.01-11.1-5.03-54.75"></path>
    <path d="m283.21 377.45h2.81v66.12h-2.81z" transform="matrix(.99582088 -.09132782 .09132782 .99582088 -36.3 27.71)"></path>
    <path d="m289.11 433.75h-29.5a1.41 1.41 0 0 1 0-2.81h29.5a1.41 1.41 0 1 1 0 2.81z"></path>
    <path d="m273.14 453.08v-.27h2.81z"></path>
    <path d="m273.14 377.59h2.81v65.85h-2.81z"></path>
    <path d="m523.79 211.86h-447.58a1.4 1.4 0 0 1 -1.4-1.4v-82.16a1.41 1.41 0 0 1 1.4-1.41h447.58a1.41 1.41 0 0 1 1.4 1.41v82.16a1.4 1.4 0 0 1 -1.4 1.4zm-446.17-2.81h444.76v-79.35h-444.76z"></path>
    <path d="m530.21 129.51h-460.42a1.41 1.41 0 0 1 -1.41-1.41v-12.83a1.41 1.41 0 0 1 1.41-1.4h460.42a1.41 1.41 0 0 1 1.41 1.4v12.83a1.41 1.41 0 0 1 -1.41 1.41zm-459-2.81h457.59v-10h-457.6z"></path>
    <path d="m523.79 453.56h-12.11a1.41 1.41 0 0 1 -1.41-1.41v-241.69a1.41 1.41 0 0 1 1.41-1.41h12.11a1.41 1.41 0 0 1 1.4 1.41v241.69a1.41 1.41 0 0 1 -1.4 1.41zm-10.71-2.81h9.3v-238.89h-9.3z"></path>
    <path d="m527.41 491.25h-19.35a1.4 1.4 0 0 1 -1.4-1.4v-37.7a1.4 1.4 0 0 1 1.4-1.4h19.35a1.4 1.4 0 0 1 1.4 1.4v37.7a1.4 1.4 0 0 1 -1.4 1.4zm-17.94-2.81h16.53v-34.88h-16.53z"></path>
    <path d="m446.14 453.56h-12.14a1.41 1.41 0 0 1 -1.41-1.41v-241.69a1.41 1.41 0 0 1 1.41-1.41h12.11a1.41 1.41 0 0 1 1.4 1.41v241.69a1.41 1.41 0 0 1 -1.37 1.41zm-10.71-2.81h9.3v-238.89h-9.3z"></path>
    <path d="m508.06 491.25h-58.31a1.4 1.4 0 0 1 -1.4-1.4v-13.35a1.4 1.4 0 0 1 1.4-1.4h58.31a1.41 1.41 0 0 1 1.41 1.4v13.35a1.41 1.41 0 0 1 -1.41 1.4zm-56.9-2.81h55.5v-10.53h-55.5z"></path>
    <path d="m309.53 491.25h-233.32a1.4 1.4 0 0 1 -1.4-1.4v-10.59a1.41 1.41 0 0 1 1.4-1.41h233.32a1.41 1.41 0 0 1 1.41 1.41v10.59a1.41 1.41 0 0 1 -1.41 1.4zm-231.91-2.81h230.5v-7.77h-230.5z"></path>
    <path d="m88.32 444.85h-12.11a1.41 1.41 0 0 1 -1.4-1.41v-233a1.41 1.41 0 0 1 1.4-1.41h12.11a1.41 1.41 0 0 1 1.41 1.41v233a1.41 1.41 0 0 1 -1.41 1.41zm-10.7-2.85h9.29v-230.14h-9.29z"></path>
    <path d="m316.79 444.85h-12.11a1.41 1.41 0 0 1 -1.41-1.41v-233a1.41 1.41 0 0 1 1.41-1.41h12.11a1.41 1.41 0 0 1 1.4 1.41v233a1.41 1.41 0 0 1 -1.4 1.41zm-10.71-2.85h9.3v-230.14h-9.3z"></path>
    <path d="m321.51 454.23h-251.72a1.41 1.41 0 0 1 -1.41-1.4v-9.39a1.41 1.41 0 0 1 1.41-1.44h251.72a1.41 1.41 0 0 1 1.41 1.41v9.39a1.41 1.41 0 0 1 -1.41 1.43zm-250.31-2.81h248.91v-6.57h-248.91z"></path>
    <path d="m316.79 480.67h-240.58a1.41 1.41 0 0 1 -1.4-1.41v-26.43a1.41 1.41 0 0 1 1.4-1.41h240.58a1.41 1.41 0 0 1 1.4 1.41v26.43a1.41 1.41 0 0 1 -1.4 1.41zm-239.17-2.82h237.76v-23.62h-237.76z"></path>
    <path d="m434 264.78h-117.21a1.41 1.41 0 0 1 -1.41-1.41v-12.92a1.41 1.41 0 0 1 1.41-1.41h117.21a1.41 1.41 0 0 1 1.4 1.41v12.92a1.41 1.41 0 0 1 -1.4 1.41zm-115.81-2.78h114.43v-10.15h-114.43z"></path>
    <path d="m88.32 241.6h216.36v2.81h-216.36z"></path>
    <path d="m159.03 210.46h2.81v232.98h-2.81z"></path>
    <path d="m231.15 210.46h2.81v232.98h-2.81z"></path>
    <path d="m511.68 251.85h-65.54a1.41 1.41 0 0 1 -1.41-1.4v-40a1.41 1.41 0 0 1 1.41-1.41h65.54a1.41 1.41 0 0 1 1.4 1.41v40a1.4 1.4 0 0 1 -1.4 1.4zm-64.14-2.85h62.73v-37.14h-62.73z"></path>
    <path d="m511.44 251.85h-65.3a1.41 1.41 0 0 1 -1.41-1.4v-40a1.41 1.41 0 0 1 1.41-1.41h65.3a1.41 1.41 0 0 1 1.41 1.41v40a1.41 1.41 0 0 1 -1.41 1.4zm-63.9-2.85h62.46v-37.14h-62.46zm55.75-4.69h-48.76a1.41 1.41 0 0 1 -1.41-1.4v-24.91a1.41 1.41 0 0 1 1.41-1.41h48.76a1.41 1.41 0 0 1 1.4 1.41v25a1.4 1.4 0 0 1 -1.4 1.35zm-47.35-2.81h45.94v-22.14h-45.94z"></path>
    <path d="m449.75 491.25h-12.08a1.41 1.41 0 0 1 -1.41-1.4v-9.18h-5.85a1.41 1.41 0 0 1 -1.4-1.41v-27.11a1.4 1.4 0 0 1 1.4-1.4h19.34a1.41 1.41 0 0 1 1.41 1.4v37.7a1.41 1.41 0 0 1 -1.41 1.4zm-10.67-2.81h9.27v-34.88h-16.53v24.29h5.85a1.41 1.41 0 0 1 1.41 1.41z"></path>
    <path d="m150.1 452.48h68.52v6.17h-68.52z" transform="matrix(.16780119 .98582086 -.98582086 .16780119 602.54 197.4)"></path>
    <path d="m187.06 491.26a1.33 1.33 0 0 1 -.81-.26 1.39 1.39 0 0 1 -.57-.91l-11.5-67.55a1.42 1.42 0 0 1 .25-1.05 1.39 1.39 0 0 1 .91-.57l6.07-1a1.42 1.42 0 0 1 1.59 1.08l11.49 67.55a1.4 1.4 0 0 1 -1.15 1.62l-6.08 1zm-9.87-67.8 11 64.78 3.31-.57-11-64.77z"></path>
    <path d="m131.93 452.48h68.52v6.17h-68.52z" transform="matrix(-.16780119 .98582086 -.98582086 -.16780119 643.17 368.15)"></path>
    <path d="m163.48 491.26h-.24l-6.08-1a1.42 1.42 0 0 1 -1.15-1.62l11.5-67.64a1.42 1.42 0 0 1 1.62-1.15l6.08 1a1.41 1.41 0 0 1 .91.57 1.46 1.46 0 0 1 .24 1.05l-11.49 67.55a1.4 1.4 0 0 1 -.58.91 1.31 1.31 0 0 1 -.81.33zm-4.48-3.59 3.31.57 11-64.78-3.3-.56z"></path>
    <circle cx="175.27" cy="420.98" r="3.79"></circle>
    <path d="m175.27 426.18a5.2 5.2 0 1 1 5.2-5.19 5.2 5.2 0 0 1 -5.2 5.19zm0-7.58a2.39 2.39 0 1 0 2.38 2.39 2.39 2.39 0 0 0 -2.38-2.39z"></path>
    <path d="m196.5 311.33a14.27 14.27 0 1 1 14.27-14.27 14.28 14.28 0 0 1 -14.27 14.27zm0-25.72a11.46 11.46 0 1 0 11.5 11.45 11.47 11.47 0 0 0 -11.5-11.45z"></path>
    <path d="m201.05 285.61h-9.05a1.41 1.41 0 0 1 -1.41-1.41v-7.95a1.41 1.41 0 0 1 1.41-1.4h9.1a1.41 1.41 0 0 1 1.41 1.4v7.95a1.41 1.41 0 0 1 -1.46 1.41zm-7.69-2.81h6.28v-5.14h-6.28z"></path>
    <path d="m195.09 210.46h2.81v65.8h-2.81z"></path>
    <path d="m268.62 311.33a14.27 14.27 0 1 1 14.27-14.27 14.28 14.28 0 0 1 -14.27 14.27zm0-25.72a11.46 11.46 0 1 0 11.45 11.45 11.47 11.47 0 0 0 -11.45-11.45z"></path>
    <path d="m273.17 285.61h-9.1a1.41 1.41 0 0 1 -1.41-1.41v-7.95a1.41 1.41 0 0 1 1.41-1.4h9.1a1.4 1.4 0 0 1 1.4 1.4v7.95a1.41 1.41 0 0 1 -1.4 1.41zm-7.69-2.81h6.28v-5.14h-6.28z"></path>
    <path d="m267.21 210.46h2.81v65.8h-2.81z"></path>
    <path d="m221.53 160.27v-11.9h6.88v43.75h-6.82v-1.24c0-4.7 0-9.41 0-14.12 0-.64 0-1.91 0-1.91v-.21l-4.55-5.7v1.57 20.45 1.18s-.72 0-1.22 0c-1.88-.07-3.76 0-5.72 0v-44.86c.66.84 1.06 1.31 1.4 1.81q4.49 6.69 9 13.37c.25.36.61.94 1 1.53"></path>
    <path d="m243.22 185.21h-1.32c0-.22 0-.38 0-.49 0-5.33 0-10.67 0-16 0-.3 0-.81 0-.81h1 5.26v-7h-4.27-.62-1.27v-5.67h7.8v-6.86h-14.8v43.76h14.8v-6.94h-6"></path>
    <path d="m260.16 158.5q0 16.17 0 32.35v1.37c2 0 3.86-.06 5.73 0 1 0 1.31-.27 1.3-1.31 0-11.37 0-22.75 0-34.13v-1.44h5.41v-7h-17.7v7h5.31v3.09z"></path>
    <path d="m173.05 185.2h4.43v4.86 2.12s-1 0-2.09 0c-3.3 0-6.6 0-9.9 0h-1.21v-1.15q0-20.79 0-41.58v-1.16h7v36.86h1.36z"></path>
    <path d="m193.59 147.28h-.2c-4.09 14.93-8.18 29.86-12.31 44.92h6.39.54l.23-.68a22.08 22.08 0 0 0 .84-2.88c.08-.38.18-.82.18-.82s.69 0 1 0c2.22 0 4.45.06 6.67 0h1.2l.29 1.33.56 2.17c.08.32.28 1 .28 1h.64 6.33zm-2.43 33.79 2.29-9.1 2.62 9.1z"></path>
    <path d="m159.22 155.42c-1.55-4.73-4.89-7.07-9.85-7.07-2.74 0-5.48.05-8.22 0-.54 0-1.35 0-1.35 0v1.37q.06 20.51 0 41v1 .45h.48 6.54v-20h2.67c4.2 0 7.56-1.51 9.29-5.57a15.49 15.49 0 0 0 .44-11.18zm-6.29 6.15a3.68 3.68 0 0 1 -3.68 3.67h-2.36v-10.12h2.36a3.68 3.68 0 0 1 3.68 3.68z"></path>
    <path d="m342.57 190.74c-1-4-1.95-8.06-3-12.08-.87-3.38-1.47-6.88-3.61-9.84a21.35 21.35 0 0 0 1.71-1.41 12 12 0 0 0 3.27-9.57c-.26-4.57-3.28-8.53-7.8-9.17-3.93-.56-8-.32-12-.43-.05 0-.11.09-.15.14v43h7.01v-19.86c1.77-.16 2.53.21 3.18 1.61a12.92 12.92 0 0 1 .94 2.61c1.12 4.95 2.19 9.91 3.31 14.86.07.33.45.84.69.85 2.18.06 4.36 0 6.61 0-.08-.29-.11-.45-.16-.71zm-8.78-28.68c-.82 1.43-2.12 1.93-3.92 1.92h-1.87v-9.43c2.13 0 4.38-.42 5.76 1.7a5.29 5.29 0 0 1 .03 5.81z"></path>
    <path d="m292.23 171.77c.13-7.36.63-12.86 3.08-18a15.44 15.44 0 0 1 2.86-4.18c3.36-3.38 8.34-3 11.43.7a21.46 21.46 0 0 1 4.27 10 46.57 46.57 0 0 1 -.81 22 17.44 17.44 0 0 1 -3.73 7.12 7.5 7.5 0 0 1 -11.53.07 17.43 17.43 0 0 1 -4.2-8.7c-.73-3.51-1.1-7.16-1.37-9.01zm13.22 11.64a16.54 16.54 0 0 0 1.83-4.37 42.19 42.19 0 0 0 0-18.51 14.76 14.76 0 0 0 -1.76-4.27c-1-1.74-2.79-1.74-4-.08a9.69 9.69 0 0 0 -1.38 2.88 41.06 41.06 0 0 0 -.5 19.46 19.59 19.59 0 0 0 1.75 4.64c.56 1.14 1.34 1.4 2 1.27a2.42 2.42 0 0 0 2.06-1.02z"></path>
    <path d="m362 175.1c.05-.39.15-.74.22-1.26h-3.38v-6.7h9.86c0 1.33.05 2.66 0 4-.19 4.88-.79 9.69-2.81 14.19a18.61 18.61 0 0 1 -1.88 3.27c-3.7 5-9.73 4.84-13.3-.26a24.55 24.55 0 0 1 -3.84-10.46 47.62 47.62 0 0 1 .78-19.74 20.2 20.2 0 0 1 3.35-7.34c3.5-4.56 9.13-4.7 12.68-.19a44.88 44.88 0 0 1 3 5l-6.13 2.39c-.35-.61-.62-1.18-1-1.69-1.27-1.84-3.17-1.89-4.26.08a17.09 17.09 0 0 0 -1.76 4.75 41.61 41.61 0 0 0 .3 18.51 15 15 0 0 0 1.46 3.46 3.62 3.62 0 0 0 .37.56 1.84 1.84 0 0 0 2.69.12c1.13-1.03 3.05-3.21 3.65-8.69z"></path>
    <path d="m447.49 180.42a41.87 41.87 0 0 1 -.71-18.5 12.62 12.62 0 0 1 2.11-5.79 2.34 2.34 0 0 1 4-.14 21.32 21.32 0 0 1 1.34 1.9l5.95-2.43a14.54 14.54 0 0 0 -3.85-6.07 7.84 7.84 0 0 0 -10.87.27 15.36 15.36 0 0 0 -3.65 6.15 45.65 45.65 0 0 0 -1.2 23.59 20.74 20.74 0 0 0 4.3 9.88 7.74 7.74 0 0 0 10 1.85c2.78-1.62 4.2-4.25 5.3-7.23l-5.9-2.37c-.65.87-1.16 1.63-1.75 2.33 0 0-1.33 2-2.48.8a8.36 8.36 0 0 1 -2.59-4.24z"></path>
    <path d="m426.53 147.75h6.85v43.64h-6.85z"></path>
    <path d="m383.17 147h-.17c-4.1 14.94-8.19 29.87-12.31 44.93h6.38.55l.22-.68a20.63 20.63 0 0 0 .84-2.88c.08-.38.18-.82.18-.82s.69 0 1 0c2.23 0 4.45.05 6.67 0h1.2s.16.73.3 1.33l.55 2.17.29 1h.63 6.33zm-2.43 33.8 2.29-9.1 2.62 9.1z"></path>
    <path d="m412.27 159.51v-11.9h6.88v43.75h-6.82v-1.23c0-4.71 0-9.42 0-14.12 0-.65 0-1.91 0-1.91v-.21l-4.55-5.71v1.57 20.46 1.17s-.72 0-1.22 0c-1.88-.08-3.76 0-5.72 0v-44.86c.66.84 1.06 1.31 1.4 1.81q4.49 6.69 9 13.37c.25.36.62 1 1 1.54"></path>
    <path d="m430.41 480.67h-113.62a1.41 1.41 0 0 1 -1.41-1.41v-8.05a1.41 1.41 0 0 1 1.41-1.41h113.62a1.41 1.41 0 0 1 1.4 1.41v8.05a1.41 1.41 0 0 1 -1.4 1.41zm-112.22-2.82h110.81v-5.23h-110.81z"></path>
    <path d="m437.67 491.25h-128.14a1.41 1.41 0 0 1 -1.41-1.4v-10.59a1.41 1.41 0 0 1 1.41-1.41h128.14a1.41 1.41 0 0 1 1.41 1.41v10.59a1.41 1.41 0 0 1 -1.41 1.4zm-126.73-2.81h125.32v-7.77h-125.32z"></path>
    <path d="m463.93 452.83h29.95v8.8h-29.95z"></path>
    <path d="m493.88 463h-29.95a1.41 1.41 0 0 1 -1.41-1.41v-8.8a1.41 1.41 0 0 1 1.41-1.41h29.95a1.41 1.41 0 0 1 1.41 1.41v8.8a1.41 1.41 0 0 1 -1.41 1.41zm-28.54-2.82h27.14v-6h-27.14z"></path>
    <path d="m362.7 397.91h25.42v7.47h-25.42z"></path>
    <path d="m388.12 406.79h-25.42a1.41 1.41 0 0 1 -1.41-1.41v-7.47a1.41 1.41 0 0 1 1.41-1.4h25.42a1.4 1.4 0 0 1 1.4 1.4v7.47a1.41 1.41 0 0 1 -1.4 1.41zm-24-2.81h22.6v-4.66h-22.6z"></path>
    <g clip-path="url(#a)">
      <g clip-path="url(#b)">
        <path d="m514.86 292.88a1.35 1.35 0 1 0 -1.35-1.35 1.34 1.34 0 0 0 1.35 1.35z"></path>
        <path d="m501.36 292.88a1.35 1.35 0 1 0 -1.35-1.35 1.34 1.34 0 0 0 1.35 1.35z"></path>
        <path d="m514.86 279.39a1.36 1.36 0 1 0 -1.35-1.36 1.35 1.35 0 0 0 1.35 1.36z"></path>
        <path d="m501.36 279.39a1.36 1.36 0 1 0 -1.36-1.39 1.35 1.35 0 0 0 1.36 1.39z"></path>
        <path d="m494.61 286.13a1.35 1.35 0 1 0 -1.35-1.35 1.34 1.34 0 0 0 1.35 1.35z"></path>
        <path d="m508.11 286.13a1.35 1.35 0 1 0 -1.35-1.35 1.34 1.34 0 0 0 1.35 1.35z"></path>
        <path d="m494.61 272.63a1.35 1.35 0 1 0 -1.35-1.35 1.34 1.34 0 0 0 1.35 1.35z"></path>
        <path d="m508.11 272.63a1.35 1.35 0 1 0 -1.35-1.35 1.34 1.34 0 0 0 1.35 1.35z"></path>
        <path d="m487.86 292.88a1.35 1.35 0 1 0 -1.35-1.35 1.34 1.34 0 0 0 1.35 1.35z"></path>
        <path d="m487.86 279.39a1.36 1.36 0 1 0 -1.35-1.36 1.35 1.35 0 0 0 1.35 1.36z"></path>
        <path d="m514.86 265.88a1.35 1.35 0 1 0 -1.35-1.35 1.34 1.34 0 0 0 1.35 1.35z"></path>
        <path d="m501.36 265.88a1.35 1.35 0 1 0 -1.35-1.35 1.34 1.34 0 0 0 1.35 1.35z"></path>
        <path d="m487.86 265.88a1.35 1.35 0 1 0 -1.35-1.35 1.34 1.34 0 0 0 1.35 1.35z"></path>
      </g>
      <g clip-path="url(#c)">
        <path d="m514.86 319.88a1.35 1.35 0 1 0 -1.35-1.35 1.34 1.34 0 0 0 1.35 1.35z"></path>
        <path d="m501.36 319.88a1.35 1.35 0 1 0 -1.35-1.35 1.34 1.34 0 0 0 1.35 1.35z"></path>
        <path d="m514.86 306.39a1.36 1.36 0 1 0 -1.35-1.36 1.35 1.35 0 0 0 1.35 1.36z"></path>
        <path d="m501.36 306.39a1.36 1.36 0 1 0 -1.36-1.39 1.35 1.35 0 0 0 1.36 1.39z"></path>
        <path d="m494.61 313.13a1.35 1.35 0 1 0 0-2.7 1.35 1.35 0 1 0 0 2.7z"></path>
        <path d="m508.11 313.13a1.35 1.35 0 1 0 0-2.7 1.35 1.35 0 1 0 0 2.7z"></path>
        <path d="m494.61 299.63a1.35 1.35 0 1 0 0-2.7 1.35 1.35 0 1 0 0 2.7z"></path>
        <path d="m508.11 299.63a1.35 1.35 0 1 0 0-2.7 1.35 1.35 0 1 0 0 2.7z"></path>
        <path d="m487.86 319.88a1.35 1.35 0 1 0 -1.35-1.35 1.34 1.34 0 0 0 1.35 1.35z"></path>
        <path d="m487.86 306.39a1.36 1.36 0 1 0 -1.35-1.36 1.35 1.35 0 0 0 1.35 1.36z"></path>
        <path d="m514.86 292.88a1.35 1.35 0 1 0 -1.35-1.35 1.34 1.34 0 0 0 1.35 1.35z"></path>
        <path d="m501.36 292.88a1.35 1.35 0 1 0 -1.35-1.35 1.34 1.34 0 0 0 1.35 1.35z"></path>
        <path d="m487.86 292.88a1.35 1.35 0 1 0 -1.35-1.35 1.34 1.34 0 0 0 1.35 1.35z"></path>
      </g>
      <g clip-path="url(#d)">
        <path d="m514.86 346.89a1.35 1.35 0 1 0 -1.35-1.35 1.35 1.35 0 0 0 1.35 1.35z"></path>
        <path d="m501.36 346.89a1.35 1.35 0 1 0 -1.35-1.35 1.35 1.35 0 0 0 1.35 1.35z"></path>
        <path d="m514.86 333.39a1.35 1.35 0 1 0 -1.35-1.35 1.35 1.35 0 0 0 1.35 1.35z"></path>
        <path d="m501.36 333.39a1.35 1.35 0 1 0 -1.36-1.39 1.35 1.35 0 0 0 1.36 1.39z"></path>
        <path d="m494.61 340.14a1.36 1.36 0 1 0 -1.35-1.35 1.35 1.35 0 0 0 1.35 1.35z"></path>
        <path d="m508.11 340.14a1.36 1.36 0 1 0 -1.35-1.35 1.35 1.35 0 0 0 1.35 1.35z"></path>
        <path d="m494.61 326.64a1.36 1.36 0 1 0 -1.35-1.35 1.35 1.35 0 0 0 1.35 1.35z"></path>
        <path d="m508.11 326.64a1.36 1.36 0 1 0 -1.35-1.35 1.35 1.35 0 0 0 1.35 1.35z"></path>
        <path d="m487.86 346.89a1.35 1.35 0 1 0 -1.35-1.35 1.35 1.35 0 0 0 1.35 1.35z"></path>
        <path d="m487.86 333.39a1.35 1.35 0 1 0 -1.35-1.35 1.35 1.35 0 0 0 1.35 1.35z"></path>
        <path d="m514.86 319.88a1.35 1.35 0 1 0 -1.35-1.35 1.34 1.34 0 0 0 1.35 1.35z"></path>
        <path d="m501.36 319.88a1.35 1.35 0 1 0 -1.35-1.35 1.34 1.34 0 0 0 1.35 1.35z"></path>
        <path d="m487.86 319.88a1.35 1.35 0 1 0 -1.35-1.35 1.34 1.34 0 0 0 1.35 1.35z"></path>
      </g>
      <g clip-path="url(#e)">
        <path d="m514.86 373.89a1.35 1.35 0 1 0 -1.35-1.35 1.35 1.35 0 0 0 1.35 1.35z"></path>
        <path d="m501.36 373.89a1.35 1.35 0 1 0 -1.35-1.35 1.35 1.35 0 0 0 1.35 1.35z"></path>
        <path d="m514.86 360.39a1.35 1.35 0 1 0 -1.35-1.35 1.35 1.35 0 0 0 1.35 1.35z"></path>
        <path d="m501.36 360.39a1.35 1.35 0 1 0 -1.36-1.39 1.35 1.35 0 0 0 1.36 1.39z"></path>
        <path d="m494.61 367.14a1.35 1.35 0 1 0 -1.35-1.35 1.35 1.35 0 0 0 1.35 1.35z"></path>
        <path d="m508.11 367.14a1.35 1.35 0 1 0 -1.35-1.35 1.35 1.35 0 0 0 1.35 1.35z"></path>
        <path d="m494.61 353.64a1.35 1.35 0 1 0 -1.35-1.35 1.35 1.35 0 0 0 1.35 1.35z"></path>
        <path d="m508.11 353.64a1.35 1.35 0 1 0 -1.35-1.35 1.35 1.35 0 0 0 1.35 1.35z"></path>
        <path d="m487.86 373.89a1.35 1.35 0 1 0 -1.35-1.35 1.35 1.35 0 0 0 1.35 1.35z"></path>
        <path d="m487.86 360.39a1.35 1.35 0 1 0 -1.35-1.35 1.35 1.35 0 0 0 1.35 1.35z"></path>
        <path d="m514.86 346.89a1.35 1.35 0 1 0 -1.35-1.35 1.35 1.35 0 0 0 1.35 1.35z"></path>
        <path d="m501.36 346.89a1.35 1.35 0 1 0 -1.35-1.35 1.35 1.35 0 0 0 1.35 1.35z"></path>
        <path d="m487.86 346.89a1.35 1.35 0 1 0 -1.35-1.35 1.35 1.35 0 0 0 1.35 1.35z"></path>
      </g>
      <g clip-path="url(#f)">
        <path d="m514.86 400.89a1.35 1.35 0 1 0 -1.35-1.35 1.35 1.35 0 0 0 1.35 1.35z"></path>
        <path d="m501.36 400.89a1.35 1.35 0 1 0 -1.35-1.35 1.35 1.35 0 0 0 1.35 1.35z"></path>
        <path d="m514.86 387.39a1.35 1.35 0 1 0 -1.35-1.35 1.35 1.35 0 0 0 1.35 1.35z"></path>
        <path d="m501.36 387.39a1.35 1.35 0 1 0 -1.36-1.39 1.35 1.35 0 0 0 1.36 1.39z"></path>
        <path d="m494.61 394.14a1.35 1.35 0 1 0 -1.35-1.35 1.35 1.35 0 0 0 1.35 1.35z"></path>
        <path d="m508.11 394.14a1.35 1.35 0 1 0 -1.35-1.35 1.35 1.35 0 0 0 1.35 1.35z"></path>
        <path d="m494.61 380.64a1.35 1.35 0 1 0 -1.35-1.35 1.35 1.35 0 0 0 1.35 1.35z"></path>
        <path d="m508.11 380.64a1.35 1.35 0 1 0 -1.35-1.35 1.35 1.35 0 0 0 1.35 1.35z"></path>
        <path d="m487.86 400.89a1.35 1.35 0 1 0 -1.35-1.35 1.35 1.35 0 0 0 1.35 1.35z"></path>
        <path d="m487.86 387.39a1.35 1.35 0 1 0 -1.35-1.35 1.35 1.35 0 0 0 1.35 1.35z"></path>
        <path d="m514.86 373.89a1.35 1.35 0 1 0 -1.35-1.35 1.35 1.35 0 0 0 1.35 1.35z"></path>
        <path d="m501.36 373.89a1.35 1.35 0 1 0 -1.35-1.35 1.35 1.35 0 0 0 1.35 1.35z"></path>
        <path d="m487.86 373.89a1.35 1.35 0 1 0 -1.35-1.35 1.35 1.35 0 0 0 1.35 1.35z"></path>
      </g>
      <g clip-path="url(#g)">
        <path d="m514.86 427.89a1.35 1.35 0 1 0 -1.35-1.35 1.35 1.35 0 0 0 1.35 1.35z"></path>
        <path d="m501.36 427.89a1.35 1.35 0 1 0 -1.35-1.35 1.35 1.35 0 0 0 1.35 1.35z"></path>
        <path d="m514.86 414.39a1.35 1.35 0 1 0 -1.35-1.35 1.35 1.35 0 0 0 1.35 1.35z"></path>
        <path d="m501.36 414.39a1.35 1.35 0 1 0 -1.36-1.39 1.35 1.35 0 0 0 1.36 1.39z"></path>
        <path d="m494.61 421.14a1.35 1.35 0 1 0 -1.35-1.35 1.35 1.35 0 0 0 1.35 1.35z"></path>
        <path d="m508.11 421.14a1.35 1.35 0 1 0 -1.35-1.35 1.35 1.35 0 0 0 1.35 1.35z"></path>
        <path d="m494.61 407.64a1.35 1.35 0 1 0 -1.35-1.35 1.35 1.35 0 0 0 1.35 1.35z"></path>
        <path d="m508.11 407.64a1.35 1.35 0 1 0 -1.35-1.35 1.35 1.35 0 0 0 1.35 1.35z"></path>
        <path d="m487.86 427.89a1.35 1.35 0 1 0 -1.35-1.35 1.35 1.35 0 0 0 1.35 1.35z"></path>
        <path d="m487.86 414.39a1.35 1.35 0 1 0 -1.35-1.35 1.35 1.35 0 0 0 1.35 1.35z"></path>
        <path d="m514.86 400.89a1.35 1.35 0 1 0 -1.35-1.35 1.35 1.35 0 0 0 1.35 1.35z"></path>
        <path d="m501.36 400.89a1.35 1.35 0 1 0 -1.35-1.35 1.35 1.35 0 0 0 1.35 1.35z"></path>
        <path d="m487.86 400.89a1.35 1.35 0 1 0 -1.35-1.35 1.35 1.35 0 0 0 1.35 1.35z"></path>
      </g>
      <g clip-path="url(#h)">
        <path d="m487.86 292.88a1.35 1.35 0 1 0 -1.35-1.35 1.34 1.34 0 0 0 1.35 1.35z"></path>
        <path d="m474.36 292.88a1.35 1.35 0 1 0 -1.35-1.35 1.34 1.34 0 0 0 1.35 1.35z"></path>
        <path d="m487.86 279.39a1.36 1.36 0 1 0 -1.35-1.36 1.35 1.35 0 0 0 1.35 1.36z"></path>
        <path d="m474.36 279.39a1.36 1.36 0 1 0 -1.36-1.39 1.35 1.35 0 0 0 1.36 1.39z"></path>
        <path d="m467.61 286.13a1.35 1.35 0 1 0 -1.35-1.35 1.34 1.34 0 0 0 1.35 1.35z"></path>
        <path d="m481.11 286.13a1.35 1.35 0 1 0 -1.35-1.35 1.34 1.34 0 0 0 1.35 1.35z"></path>
        <path d="m467.61 272.63a1.35 1.35 0 1 0 -1.35-1.35 1.34 1.34 0 0 0 1.35 1.35z"></path>
        <path d="m481.11 272.63a1.35 1.35 0 1 0 -1.35-1.35 1.34 1.34 0 0 0 1.35 1.35z"></path>
        <path d="m460.86 292.88a1.35 1.35 0 1 0 -1.35-1.35 1.34 1.34 0 0 0 1.35 1.35z"></path>
        <path d="m460.86 279.39a1.36 1.36 0 1 0 -1.35-1.36 1.35 1.35 0 0 0 1.35 1.36z"></path>
        <path d="m487.86 265.88a1.35 1.35 0 1 0 -1.35-1.35 1.34 1.34 0 0 0 1.35 1.35z"></path>
        <path d="m474.36 265.88a1.35 1.35 0 1 0 -1.35-1.35 1.34 1.34 0 0 0 1.35 1.35z"></path>
        <path d="m460.86 265.88a1.35 1.35 0 1 0 -1.35-1.35 1.34 1.34 0 0 0 1.35 1.35z"></path>
      </g>
      <g clip-path="url(#i)">
        <path d="m487.86 319.88a1.35 1.35 0 1 0 -1.35-1.35 1.34 1.34 0 0 0 1.35 1.35z"></path>
        <path d="m474.36 319.88a1.35 1.35 0 1 0 -1.35-1.35 1.34 1.34 0 0 0 1.35 1.35z"></path>
        <path d="m487.86 306.39a1.36 1.36 0 1 0 -1.35-1.36 1.35 1.35 0 0 0 1.35 1.36z"></path>
        <path d="m474.36 306.39a1.36 1.36 0 1 0 -1.36-1.39 1.35 1.35 0 0 0 1.36 1.39z"></path>
        <path d="m467.61 313.13a1.35 1.35 0 1 0 0-2.7 1.35 1.35 0 1 0 0 2.7z"></path>
        <path d="m481.11 313.13a1.35 1.35 0 1 0 0-2.7 1.35 1.35 0 1 0 0 2.7z"></path>
        <path d="m467.61 299.63a1.35 1.35 0 1 0 0-2.7 1.35 1.35 0 1 0 0 2.7z"></path>
        <path d="m481.11 299.63a1.35 1.35 0 1 0 0-2.7 1.35 1.35 0 1 0 0 2.7z"></path>
        <path d="m460.86 319.88a1.35 1.35 0 1 0 -1.35-1.35 1.34 1.34 0 0 0 1.35 1.35z"></path>
        <path d="m460.86 306.39a1.36 1.36 0 1 0 -1.35-1.36 1.35 1.35 0 0 0 1.35 1.36z"></path>
        <path d="m487.86 292.88a1.35 1.35 0 1 0 -1.35-1.35 1.34 1.34 0 0 0 1.35 1.35z"></path>
        <path d="m474.36 292.88a1.35 1.35 0 1 0 -1.35-1.35 1.34 1.34 0 0 0 1.35 1.35z"></path>
        <path d="m460.86 292.88a1.35 1.35 0 1 0 -1.35-1.35 1.34 1.34 0 0 0 1.35 1.35z"></path>
      </g>
      <g clip-path="url(#j)">
        <path d="m487.86 346.89a1.35 1.35 0 1 0 -1.35-1.35 1.35 1.35 0 0 0 1.35 1.35z"></path>
        <path d="m474.36 346.89a1.35 1.35 0 1 0 -1.35-1.35 1.35 1.35 0 0 0 1.35 1.35z"></path>
        <path d="m487.86 333.39a1.35 1.35 0 1 0 -1.35-1.35 1.35 1.35 0 0 0 1.35 1.35z"></path>
        <path d="m474.36 333.39a1.35 1.35 0 1 0 -1.36-1.39 1.35 1.35 0 0 0 1.36 1.39z"></path>
        <path d="m467.61 340.14a1.36 1.36 0 1 0 -1.35-1.35 1.35 1.35 0 0 0 1.35 1.35z"></path>
        <path d="m481.11 340.14a1.36 1.36 0 1 0 -1.35-1.35 1.35 1.35 0 0 0 1.35 1.35z"></path>
        <path d="m467.61 326.64a1.36 1.36 0 1 0 -1.35-1.35 1.35 1.35 0 0 0 1.35 1.35z"></path>
        <path d="m481.11 326.64a1.36 1.36 0 1 0 -1.35-1.35 1.35 1.35 0 0 0 1.35 1.35z"></path>
        <path d="m460.86 346.89a1.35 1.35 0 1 0 -1.35-1.35 1.35 1.35 0 0 0 1.35 1.35z"></path>
        <path d="m460.86 333.39a1.35 1.35 0 1 0 -1.35-1.35 1.35 1.35 0 0 0 1.35 1.35z"></path>
        <path d="m487.86 319.88a1.35 1.35 0 1 0 -1.35-1.35 1.34 1.34 0 0 0 1.35 1.35z"></path>
        <path d="m474.36 319.88a1.35 1.35 0 1 0 -1.35-1.35 1.34 1.34 0 0 0 1.35 1.35z"></path>
        <path d="m460.86 319.88a1.35 1.35 0 1 0 -1.35-1.35 1.34 1.34 0 0 0 1.35 1.35z"></path>
      </g>
      <g clip-path="url(#k)">
        <path d="m487.86 373.89a1.35 1.35 0 1 0 -1.35-1.35 1.35 1.35 0 0 0 1.35 1.35z"></path>
        <path d="m474.36 373.89a1.35 1.35 0 1 0 -1.35-1.35 1.35 1.35 0 0 0 1.35 1.35z"></path>
        <path d="m487.86 360.39a1.35 1.35 0 1 0 -1.35-1.35 1.35 1.35 0 0 0 1.35 1.35z"></path>
        <path d="m474.36 360.39a1.35 1.35 0 1 0 -1.36-1.39 1.35 1.35 0 0 0 1.36 1.39z"></path>
        <path d="m467.61 367.14a1.35 1.35 0 1 0 -1.35-1.35 1.35 1.35 0 0 0 1.35 1.35z"></path>
        <path d="m481.11 367.14a1.35 1.35 0 1 0 -1.35-1.35 1.35 1.35 0 0 0 1.35 1.35z"></path>
        <path d="m467.61 353.64a1.35 1.35 0 1 0 -1.35-1.35 1.35 1.35 0 0 0 1.35 1.35z"></path>
        <path d="m481.11 353.64a1.35 1.35 0 1 0 -1.35-1.35 1.35 1.35 0 0 0 1.35 1.35z"></path>
        <path d="m460.86 373.89a1.35 1.35 0 1 0 -1.35-1.35 1.35 1.35 0 0 0 1.35 1.35z"></path>
        <path d="m460.86 360.39a1.35 1.35 0 1 0 -1.35-1.35 1.35 1.35 0 0 0 1.35 1.35z"></path>
        <path d="m487.86 346.89a1.35 1.35 0 1 0 -1.35-1.35 1.35 1.35 0 0 0 1.35 1.35z"></path>
        <path d="m474.36 346.89a1.35 1.35 0 1 0 -1.35-1.35 1.35 1.35 0 0 0 1.35 1.35z"></path>
        <path d="m460.86 346.89a1.35 1.35 0 1 0 -1.35-1.35 1.35 1.35 0 0 0 1.35 1.35z"></path>
      </g>
      <g clip-path="url(#l)">
        <path d="m487.86 400.89a1.35 1.35 0 1 0 -1.35-1.35 1.35 1.35 0 0 0 1.35 1.35z"></path>
        <path d="m474.36 400.89a1.35 1.35 0 1 0 -1.35-1.35 1.35 1.35 0 0 0 1.35 1.35z"></path>
        <path d="m487.86 387.39a1.35 1.35 0 1 0 -1.35-1.35 1.35 1.35 0 0 0 1.35 1.35z"></path>
        <path d="m474.36 387.39a1.35 1.35 0 1 0 -1.36-1.39 1.35 1.35 0 0 0 1.36 1.39z"></path>
        <path d="m467.61 394.14a1.35 1.35 0 1 0 -1.35-1.35 1.35 1.35 0 0 0 1.35 1.35z"></path>
        <path d="m481.11 394.14a1.35 1.35 0 1 0 -1.35-1.35 1.35 1.35 0 0 0 1.35 1.35z"></path>
        <path d="m467.61 380.64a1.35 1.35 0 1 0 -1.35-1.35 1.35 1.35 0 0 0 1.35 1.35z"></path>
        <path d="m481.11 380.64a1.35 1.35 0 1 0 -1.35-1.35 1.35 1.35 0 0 0 1.35 1.35z"></path>
        <path d="m460.86 400.89a1.35 1.35 0 1 0 -1.35-1.35 1.35 1.35 0 0 0 1.35 1.35z"></path>
        <path d="m460.86 387.39a1.35 1.35 0 1 0 -1.35-1.35 1.35 1.35 0 0 0 1.35 1.35z"></path>
        <path d="m487.86 373.89a1.35 1.35 0 1 0 -1.35-1.35 1.35 1.35 0 0 0 1.35 1.35z"></path>
        <path d="m474.36 373.89a1.35 1.35 0 1 0 -1.35-1.35 1.35 1.35 0 0 0 1.35 1.35z"></path>
        <path d="m460.86 373.89a1.35 1.35 0 1 0 -1.35-1.35 1.35 1.35 0 0 0 1.35 1.35z"></path>
      </g>
      <g clip-path="url(#m)">
        <path d="m487.86 427.89a1.35 1.35 0 1 0 -1.35-1.35 1.35 1.35 0 0 0 1.35 1.35z"></path>
        <path d="m474.36 427.89a1.35 1.35 0 1 0 -1.35-1.35 1.35 1.35 0 0 0 1.35 1.35z"></path>
        <path d="m487.86 414.39a1.35 1.35 0 1 0 -1.35-1.35 1.35 1.35 0 0 0 1.35 1.35z"></path>
        <path d="m474.36 414.39a1.35 1.35 0 1 0 -1.36-1.39 1.35 1.35 0 0 0 1.36 1.39z"></path>
        <path d="m467.61 421.14a1.35 1.35 0 1 0 -1.35-1.35 1.35 1.35 0 0 0 1.35 1.35z"></path>
        <path d="m481.11 421.14a1.35 1.35 0 1 0 -1.35-1.35 1.35 1.35 0 0 0 1.35 1.35z"></path>
        <path d="m467.61 407.64a1.35 1.35 0 1 0 -1.35-1.35 1.35 1.35 0 0 0 1.35 1.35z"></path>
        <path d="m481.11 407.64a1.35 1.35 0 1 0 -1.35-1.35 1.35 1.35 0 0 0 1.35 1.35z"></path>
        <path d="m460.86 427.89a1.35 1.35 0 1 0 -1.35-1.35 1.35 1.35 0 0 0 1.35 1.35z"></path>
        <path d="m460.86 414.39a1.35 1.35 0 1 0 -1.35-1.35 1.35 1.35 0 0 0 1.35 1.35z"></path>
        <path d="m487.86 400.89a1.35 1.35 0 1 0 -1.35-1.35 1.35 1.35 0 0 0 1.35 1.35z"></path>
        <path d="m474.36 400.89a1.35 1.35 0 1 0 -1.35-1.35 1.35 1.35 0 0 0 1.35 1.35z"></path>
        <path d="m460.86 400.89a1.35 1.35 0 1 0 -1.35-1.35 1.35 1.35 0 0 0 1.35 1.35z"></path>
      </g>
    </g>
    <g clip-path="url(#n)">
      <g clip-path="url(#o)">
        <path d="m433.86 292.88a1.35 1.35 0 1 0 -1.35-1.35 1.34 1.34 0 0 0 1.35 1.35z"></path>
        <path d="m420.36 292.88a1.35 1.35 0 1 0 -1.35-1.35 1.34 1.34 0 0 0 1.35 1.35z"></path>
        <path d="m433.86 279.39a1.36 1.36 0 1 0 -1.35-1.36 1.35 1.35 0 0 0 1.35 1.36z"></path>
        <path d="m420.36 279.39a1.36 1.36 0 1 0 -1.36-1.39 1.35 1.35 0 0 0 1.36 1.39z"></path>
        <path d="m413.61 286.13a1.35 1.35 0 1 0 -1.35-1.35 1.34 1.34 0 0 0 1.35 1.35z"></path>
        <path d="m427.11 286.13a1.35 1.35 0 1 0 -1.35-1.35 1.34 1.34 0 0 0 1.35 1.35z"></path>
        <path d="m413.61 272.63a1.35 1.35 0 1 0 -1.35-1.35 1.34 1.34 0 0 0 1.35 1.35z"></path>
        <path d="m427.11 272.63a1.35 1.35 0 1 0 -1.35-1.35 1.34 1.34 0 0 0 1.35 1.35z"></path>
        <path d="m406.86 292.88a1.35 1.35 0 1 0 -1.35-1.35 1.34 1.34 0 0 0 1.35 1.35z"></path>
        <path d="m406.86 279.39a1.36 1.36 0 1 0 -1.35-1.36 1.35 1.35 0 0 0 1.35 1.36z"></path>
        <path d="m433.86 265.88a1.35 1.35 0 1 0 -1.35-1.35 1.34 1.34 0 0 0 1.35 1.35z"></path>
        <path d="m420.36 265.88a1.35 1.35 0 1 0 -1.35-1.35 1.34 1.34 0 0 0 1.35 1.35z"></path>
        <path d="m406.86 265.88a1.35 1.35 0 1 0 -1.35-1.35 1.34 1.34 0 0 0 1.35 1.35z"></path>
      </g>
      <g clip-path="url(#p)">
        <path d="m433.86 319.88a1.35 1.35 0 1 0 -1.35-1.35 1.34 1.34 0 0 0 1.35 1.35z"></path>
        <path d="m420.36 319.88a1.35 1.35 0 1 0 -1.35-1.35 1.34 1.34 0 0 0 1.35 1.35z"></path>
        <path d="m433.86 306.39a1.36 1.36 0 1 0 -1.35-1.36 1.35 1.35 0 0 0 1.35 1.36z"></path>
        <path d="m420.36 306.39a1.36 1.36 0 1 0 -1.36-1.39 1.35 1.35 0 0 0 1.36 1.39z"></path>
        <path d="m413.61 313.13a1.35 1.35 0 1 0 0-2.7 1.35 1.35 0 1 0 0 2.7z"></path>
        <path d="m427.11 313.13a1.35 1.35 0 1 0 0-2.7 1.35 1.35 0 1 0 0 2.7z"></path>
        <path d="m413.61 299.63a1.35 1.35 0 1 0 0-2.7 1.35 1.35 0 1 0 0 2.7z"></path>
        <path d="m427.11 299.63a1.35 1.35 0 1 0 0-2.7 1.35 1.35 0 1 0 0 2.7z"></path>
        <path d="m406.86 319.88a1.35 1.35 0 1 0 -1.35-1.35 1.34 1.34 0 0 0 1.35 1.35z"></path>
        <path d="m406.86 306.39a1.36 1.36 0 1 0 -1.35-1.36 1.35 1.35 0 0 0 1.35 1.36z"></path>
        <path d="m433.86 292.88a1.35 1.35 0 1 0 -1.35-1.35 1.34 1.34 0 0 0 1.35 1.35z"></path>
        <path d="m420.36 292.88a1.35 1.35 0 1 0 -1.35-1.35 1.34 1.34 0 0 0 1.35 1.35z"></path>
        <path d="m406.86 292.88a1.35 1.35 0 1 0 -1.35-1.35 1.34 1.34 0 0 0 1.35 1.35z"></path>
      </g>
      <g clip-path="url(#q)">
        <path d="m433.86 346.89a1.35 1.35 0 1 0 -1.35-1.35 1.35 1.35 0 0 0 1.35 1.35z"></path>
        <path d="m420.36 346.89a1.35 1.35 0 1 0 -1.35-1.35 1.35 1.35 0 0 0 1.35 1.35z"></path>
        <path d="m433.86 333.39a1.35 1.35 0 1 0 -1.35-1.35 1.35 1.35 0 0 0 1.35 1.35z"></path>
        <path d="m420.36 333.39a1.35 1.35 0 1 0 -1.36-1.39 1.35 1.35 0 0 0 1.36 1.39z"></path>
        <path d="m413.61 340.14a1.36 1.36 0 1 0 -1.35-1.35 1.35 1.35 0 0 0 1.35 1.35z"></path>
        <path d="m427.11 340.14a1.36 1.36 0 1 0 -1.35-1.35 1.35 1.35 0 0 0 1.35 1.35z"></path>
        <path d="m413.61 326.64a1.36 1.36 0 1 0 -1.35-1.35 1.35 1.35 0 0 0 1.35 1.35z"></path>
        <path d="m427.11 326.64a1.36 1.36 0 1 0 -1.35-1.35 1.35 1.35 0 0 0 1.35 1.35z"></path>
        <path d="m406.86 346.89a1.35 1.35 0 1 0 -1.35-1.35 1.35 1.35 0 0 0 1.35 1.35z"></path>
        <path d="m406.86 333.39a1.35 1.35 0 1 0 -1.35-1.35 1.35 1.35 0 0 0 1.35 1.35z"></path>
        <path d="m433.86 319.88a1.35 1.35 0 1 0 -1.35-1.35 1.34 1.34 0 0 0 1.35 1.35z"></path>
        <path d="m420.36 319.88a1.35 1.35 0 1 0 -1.35-1.35 1.34 1.34 0 0 0 1.35 1.35z"></path>
        <path d="m406.86 319.88a1.35 1.35 0 1 0 -1.35-1.35 1.34 1.34 0 0 0 1.35 1.35z"></path>
      </g>
      <g clip-path="url(#r)">
        <path d="m433.86 373.89a1.35 1.35 0 1 0 -1.35-1.35 1.35 1.35 0 0 0 1.35 1.35z"></path>
        <path d="m420.36 373.89a1.35 1.35 0 1 0 -1.35-1.35 1.35 1.35 0 0 0 1.35 1.35z"></path>
        <path d="m433.86 360.39a1.35 1.35 0 1 0 -1.35-1.35 1.35 1.35 0 0 0 1.35 1.35z"></path>
        <path d="m420.36 360.39a1.35 1.35 0 1 0 -1.36-1.39 1.35 1.35 0 0 0 1.36 1.39z"></path>
        <path d="m413.61 367.14a1.35 1.35 0 1 0 -1.35-1.35 1.35 1.35 0 0 0 1.35 1.35z"></path>
        <path d="m427.11 367.14a1.35 1.35 0 1 0 -1.35-1.35 1.35 1.35 0 0 0 1.35 1.35z"></path>
        <path d="m413.61 353.64a1.35 1.35 0 1 0 -1.35-1.35 1.35 1.35 0 0 0 1.35 1.35z"></path>
        <path d="m427.11 353.64a1.35 1.35 0 1 0 -1.35-1.35 1.35 1.35 0 0 0 1.35 1.35z"></path>
        <path d="m406.86 373.89a1.35 1.35 0 1 0 -1.35-1.35 1.35 1.35 0 0 0 1.35 1.35z"></path>
        <path d="m406.86 360.39a1.35 1.35 0 1 0 -1.35-1.35 1.35 1.35 0 0 0 1.35 1.35z"></path>
        <path d="m433.86 346.89a1.35 1.35 0 1 0 -1.35-1.35 1.35 1.35 0 0 0 1.35 1.35z"></path>
        <path d="m420.36 346.89a1.35 1.35 0 1 0 -1.35-1.35 1.35 1.35 0 0 0 1.35 1.35z"></path>
        <path d="m406.86 346.89a1.35 1.35 0 1 0 -1.35-1.35 1.35 1.35 0 0 0 1.35 1.35z"></path>
      </g>
      <g clip-path="url(#s)">
        <path d="m433.86 400.89a1.35 1.35 0 1 0 -1.35-1.35 1.35 1.35 0 0 0 1.35 1.35z"></path>
        <path d="m420.36 400.89a1.35 1.35 0 1 0 -1.35-1.35 1.35 1.35 0 0 0 1.35 1.35z"></path>
        <path d="m433.86 387.39a1.35 1.35 0 1 0 -1.35-1.35 1.35 1.35 0 0 0 1.35 1.35z"></path>
        <path d="m420.36 387.39a1.35 1.35 0 1 0 -1.36-1.39 1.35 1.35 0 0 0 1.36 1.39z"></path>
        <path d="m413.61 394.14a1.35 1.35 0 1 0 -1.35-1.35 1.35 1.35 0 0 0 1.35 1.35z"></path>
        <path d="m427.11 394.14a1.35 1.35 0 1 0 -1.35-1.35 1.35 1.35 0 0 0 1.35 1.35z"></path>
        <path d="m413.61 380.64a1.35 1.35 0 1 0 -1.35-1.35 1.35 1.35 0 0 0 1.35 1.35z"></path>
        <path d="m427.11 380.64a1.35 1.35 0 1 0 -1.35-1.35 1.35 1.35 0 0 0 1.35 1.35z"></path>
        <path d="m406.86 400.89a1.35 1.35 0 1 0 -1.35-1.35 1.35 1.35 0 0 0 1.35 1.35z"></path>
        <path d="m406.86 387.39a1.35 1.35 0 1 0 -1.35-1.35 1.35 1.35 0 0 0 1.35 1.35z"></path>
        <path d="m433.86 373.89a1.35 1.35 0 1 0 -1.35-1.35 1.35 1.35 0 0 0 1.35 1.35z"></path>
        <path d="m420.36 373.89a1.35 1.35 0 1 0 -1.35-1.35 1.35 1.35 0 0 0 1.35 1.35z"></path>
        <path d="m406.86 373.89a1.35 1.35 0 1 0 -1.35-1.35 1.35 1.35 0 0 0 1.35 1.35z"></path>
      </g>
      <g clip-path="url(#t)">
        <path d="m406.86 292.88a1.35 1.35 0 1 0 -1.35-1.35 1.34 1.34 0 0 0 1.35 1.35z"></path>
        <path d="m393.36 292.88a1.35 1.35 0 1 0 -1.35-1.35 1.34 1.34 0 0 0 1.35 1.35z"></path>
        <path d="m406.86 279.39a1.36 1.36 0 1 0 -1.35-1.36 1.35 1.35 0 0 0 1.35 1.36z"></path>
        <path d="m393.36 279.39a1.36 1.36 0 1 0 -1.36-1.39 1.35 1.35 0 0 0 1.36 1.39z"></path>
        <path d="m386.61 286.13a1.35 1.35 0 1 0 -1.35-1.35 1.34 1.34 0 0 0 1.35 1.35z"></path>
        <path d="m400.11 286.13a1.35 1.35 0 1 0 -1.35-1.35 1.34 1.34 0 0 0 1.35 1.35z"></path>
        <path d="m386.61 272.63a1.35 1.35 0 1 0 -1.35-1.35 1.34 1.34 0 0 0 1.35 1.35z"></path>
        <path d="m400.11 272.63a1.35 1.35 0 1 0 -1.35-1.35 1.34 1.34 0 0 0 1.35 1.35z"></path>
        <path d="m379.86 292.88a1.35 1.35 0 1 0 -1.35-1.35 1.34 1.34 0 0 0 1.35 1.35z"></path>
        <path d="m379.86 279.39a1.36 1.36 0 1 0 -1.35-1.36 1.35 1.35 0 0 0 1.35 1.36z"></path>
        <path d="m406.86 265.88a1.35 1.35 0 1 0 -1.35-1.35 1.34 1.34 0 0 0 1.35 1.35z"></path>
        <path d="m393.36 265.88a1.35 1.35 0 1 0 -1.35-1.35 1.34 1.34 0 0 0 1.35 1.35z"></path>
        <path d="m379.86 265.88a1.35 1.35 0 1 0 -1.35-1.35 1.34 1.34 0 0 0 1.35 1.35z"></path>
      </g>
      <g clip-path="url(#u)">
        <path d="m406.86 319.88a1.35 1.35 0 1 0 -1.35-1.35 1.34 1.34 0 0 0 1.35 1.35z"></path>
        <path d="m393.36 319.88a1.35 1.35 0 1 0 -1.35-1.35 1.34 1.34 0 0 0 1.35 1.35z"></path>
        <path d="m406.86 306.39a1.36 1.36 0 1 0 -1.35-1.36 1.35 1.35 0 0 0 1.35 1.36z"></path>
        <path d="m393.36 306.39a1.36 1.36 0 1 0 -1.36-1.39 1.35 1.35 0 0 0 1.36 1.39z"></path>
        <path d="m386.61 313.13a1.35 1.35 0 1 0 0-2.7 1.35 1.35 0 1 0 0 2.7z"></path>
        <path d="m400.11 313.13a1.35 1.35 0 1 0 0-2.7 1.35 1.35 0 1 0 0 2.7z"></path>
        <path d="m386.61 299.63a1.35 1.35 0 1 0 0-2.7 1.35 1.35 0 1 0 0 2.7z"></path>
        <path d="m400.11 299.63a1.35 1.35 0 1 0 0-2.7 1.35 1.35 0 1 0 0 2.7z"></path>
        <path d="m379.86 319.88a1.35 1.35 0 1 0 -1.35-1.35 1.34 1.34 0 0 0 1.35 1.35z"></path>
        <path d="m379.86 306.39a1.36 1.36 0 1 0 -1.35-1.36 1.35 1.35 0 0 0 1.35 1.36z"></path>
        <path d="m406.86 292.88a1.35 1.35 0 1 0 -1.35-1.35 1.34 1.34 0 0 0 1.35 1.35z"></path>
        <path d="m393.36 292.88a1.35 1.35 0 1 0 -1.35-1.35 1.34 1.34 0 0 0 1.35 1.35z"></path>
        <path d="m379.86 292.88a1.35 1.35 0 1 0 -1.35-1.35 1.34 1.34 0 0 0 1.35 1.35z"></path>
      </g>
      <g clip-path="url(#v)">
        <path d="m406.86 346.89a1.35 1.35 0 1 0 -1.35-1.35 1.35 1.35 0 0 0 1.35 1.35z"></path>
        <path d="m393.36 346.89a1.35 1.35 0 1 0 -1.35-1.35 1.35 1.35 0 0 0 1.35 1.35z"></path>
        <path d="m406.86 333.39a1.35 1.35 0 1 0 -1.35-1.35 1.35 1.35 0 0 0 1.35 1.35z"></path>
        <path d="m393.36 333.39a1.35 1.35 0 1 0 -1.36-1.39 1.35 1.35 0 0 0 1.36 1.39z"></path>
        <path d="m386.61 340.14a1.36 1.36 0 1 0 -1.35-1.35 1.35 1.35 0 0 0 1.35 1.35z"></path>
        <path d="m400.11 340.14a1.36 1.36 0 1 0 -1.35-1.35 1.35 1.35 0 0 0 1.35 1.35z"></path>
        <path d="m386.61 326.64a1.36 1.36 0 1 0 -1.35-1.35 1.35 1.35 0 0 0 1.35 1.35z"></path>
        <path d="m400.11 326.64a1.36 1.36 0 1 0 -1.35-1.35 1.35 1.35 0 0 0 1.35 1.35z"></path>
        <path d="m379.86 346.89a1.35 1.35 0 1 0 -1.35-1.35 1.35 1.35 0 0 0 1.35 1.35z"></path>
        <path d="m379.86 333.39a1.35 1.35 0 1 0 -1.35-1.35 1.35 1.35 0 0 0 1.35 1.35z"></path>
        <path d="m406.86 319.88a1.35 1.35 0 1 0 -1.35-1.35 1.34 1.34 0 0 0 1.35 1.35z"></path>
        <path d="m393.36 319.88a1.35 1.35 0 1 0 -1.35-1.35 1.34 1.34 0 0 0 1.35 1.35z"></path>
        <path d="m379.86 319.88a1.35 1.35 0 1 0 -1.35-1.35 1.34 1.34 0 0 0 1.35 1.35z"></path>
      </g>
      <g clip-path="url(#w)">
        <path d="m406.86 373.89a1.35 1.35 0 1 0 -1.35-1.35 1.35 1.35 0 0 0 1.35 1.35z"></path>
        <path d="m393.36 373.89a1.35 1.35 0 1 0 -1.35-1.35 1.35 1.35 0 0 0 1.35 1.35z"></path>
        <path d="m406.86 360.39a1.35 1.35 0 1 0 -1.35-1.35 1.35 1.35 0 0 0 1.35 1.35z"></path>
        <path d="m393.36 360.39a1.35 1.35 0 1 0 -1.36-1.39 1.35 1.35 0 0 0 1.36 1.39z"></path>
        <path d="m386.61 367.14a1.35 1.35 0 1 0 -1.35-1.35 1.35 1.35 0 0 0 1.35 1.35z"></path>
        <path d="m400.11 367.14a1.35 1.35 0 1 0 -1.35-1.35 1.35 1.35 0 0 0 1.35 1.35z"></path>
        <path d="m386.61 353.64a1.35 1.35 0 1 0 -1.35-1.35 1.35 1.35 0 0 0 1.35 1.35z"></path>
        <path d="m400.11 353.64a1.35 1.35 0 1 0 -1.35-1.35 1.35 1.35 0 0 0 1.35 1.35z"></path>
        <path d="m379.86 373.89a1.35 1.35 0 1 0 -1.35-1.35 1.35 1.35 0 0 0 1.35 1.35z"></path>
        <path d="m379.86 360.39a1.35 1.35 0 1 0 -1.35-1.35 1.35 1.35 0 0 0 1.35 1.35z"></path>
        <path d="m406.86 346.89a1.35 1.35 0 1 0 -1.35-1.35 1.35 1.35 0 0 0 1.35 1.35z"></path>
        <path d="m393.36 346.89a1.35 1.35 0 1 0 -1.35-1.35 1.35 1.35 0 0 0 1.35 1.35z"></path>
        <path d="m379.86 346.89a1.35 1.35 0 1 0 -1.35-1.35 1.35 1.35 0 0 0 1.35 1.35z"></path>
      </g>
      <g clip-path="url(#x)">
        <path d="m406.86 400.89a1.35 1.35 0 1 0 -1.35-1.35 1.35 1.35 0 0 0 1.35 1.35z"></path>
        <path d="m393.36 400.89a1.35 1.35 0 1 0 -1.35-1.35 1.35 1.35 0 0 0 1.35 1.35z"></path>
        <path d="m406.86 387.39a1.35 1.35 0 1 0 -1.35-1.35 1.35 1.35 0 0 0 1.35 1.35z"></path>
        <path d="m393.36 387.39a1.35 1.35 0 1 0 -1.36-1.39 1.35 1.35 0 0 0 1.36 1.39z"></path>
        <path d="m386.61 394.14a1.35 1.35 0 1 0 -1.35-1.35 1.35 1.35 0 0 0 1.35 1.35z"></path>
        <path d="m400.11 394.14a1.35 1.35 0 1 0 -1.35-1.35 1.35 1.35 0 0 0 1.35 1.35z"></path>
        <path d="m386.61 380.64a1.35 1.35 0 1 0 -1.35-1.35 1.35 1.35 0 0 0 1.35 1.35z"></path>
        <path d="m400.11 380.64a1.35 1.35 0 1 0 -1.35-1.35 1.35 1.35 0 0 0 1.35 1.35z"></path>
        <path d="m379.86 400.89a1.35 1.35 0 1 0 -1.35-1.35 1.35 1.35 0 0 0 1.35 1.35z"></path>
        <path d="m379.86 387.39a1.35 1.35 0 1 0 -1.35-1.35 1.35 1.35 0 0 0 1.35 1.35z"></path>
        <path d="m406.86 373.89a1.35 1.35 0 1 0 -1.35-1.35 1.35 1.35 0 0 0 1.35 1.35z"></path>
        <path d="m393.36 373.89a1.35 1.35 0 1 0 -1.35-1.35 1.35 1.35 0 0 0 1.35 1.35z"></path>
        <path d="m379.86 373.89a1.35 1.35 0 1 0 -1.35-1.35 1.35 1.35 0 0 0 1.35 1.35z"></path>
      </g>
      <g clip-path="url(#y)">
        <path d="m379.86 292.88a1.35 1.35 0 1 0 -1.35-1.35 1.34 1.34 0 0 0 1.35 1.35z"></path>
        <path d="m366.36 292.88a1.35 1.35 0 1 0 -1.35-1.35 1.34 1.34 0 0 0 1.35 1.35z"></path>
        <path d="m379.86 279.39a1.36 1.36 0 1 0 -1.35-1.36 1.35 1.35 0 0 0 1.35 1.36z"></path>
        <path d="m366.36 279.39a1.36 1.36 0 1 0 -1.36-1.39 1.35 1.35 0 0 0 1.36 1.39z"></path>
        <path d="m359.61 286.13a1.35 1.35 0 1 0 -1.35-1.35 1.34 1.34 0 0 0 1.35 1.35z"></path>
        <path d="m373.11 286.13a1.35 1.35 0 1 0 -1.35-1.35 1.34 1.34 0 0 0 1.35 1.35z"></path>
        <path d="m359.61 272.63a1.35 1.35 0 1 0 -1.35-1.35 1.34 1.34 0 0 0 1.35 1.35z"></path>
        <path d="m373.11 272.63a1.35 1.35 0 1 0 -1.35-1.35 1.34 1.34 0 0 0 1.35 1.35z"></path>
        <path d="m352.86 292.88a1.35 1.35 0 1 0 -1.35-1.35 1.34 1.34 0 0 0 1.35 1.35z"></path>
        <path d="m352.86 279.39a1.36 1.36 0 1 0 -1.35-1.36 1.35 1.35 0 0 0 1.35 1.36z"></path>
        <path d="m379.86 265.88a1.35 1.35 0 1 0 -1.35-1.35 1.34 1.34 0 0 0 1.35 1.35z"></path>
        <path d="m366.36 265.88a1.35 1.35 0 1 0 -1.35-1.35 1.34 1.34 0 0 0 1.35 1.35z"></path>
        <path d="m352.86 265.88a1.35 1.35 0 1 0 -1.35-1.35 1.34 1.34 0 0 0 1.35 1.35z"></path>
      </g>
      <g clip-path="url(#z)">
        <path d="m379.86 319.88a1.35 1.35 0 1 0 -1.35-1.35 1.34 1.34 0 0 0 1.35 1.35z"></path>
        <path d="m366.36 319.88a1.35 1.35 0 1 0 -1.35-1.35 1.34 1.34 0 0 0 1.35 1.35z"></path>
        <path d="m379.86 306.39a1.36 1.36 0 1 0 -1.35-1.36 1.35 1.35 0 0 0 1.35 1.36z"></path>
        <path d="m366.36 306.39a1.36 1.36 0 1 0 -1.36-1.39 1.35 1.35 0 0 0 1.36 1.39z"></path>
        <path d="m359.61 313.13a1.35 1.35 0 1 0 0-2.7 1.35 1.35 0 1 0 0 2.7z"></path>
        <path d="m373.11 313.13a1.35 1.35 0 1 0 0-2.7 1.35 1.35 0 1 0 0 2.7z"></path>
        <path d="m359.61 299.63a1.35 1.35 0 1 0 0-2.7 1.35 1.35 0 1 0 0 2.7z"></path>
        <path d="m373.11 299.63a1.35 1.35 0 1 0 0-2.7 1.35 1.35 0 1 0 0 2.7z"></path>
        <path d="m352.86 319.88a1.35 1.35 0 1 0 -1.35-1.35 1.34 1.34 0 0 0 1.35 1.35z"></path>
        <path d="m352.86 306.39a1.36 1.36 0 1 0 -1.35-1.36 1.35 1.35 0 0 0 1.35 1.36z"></path>
        <path d="m379.86 292.88a1.35 1.35 0 1 0 -1.35-1.35 1.34 1.34 0 0 0 1.35 1.35z"></path>
        <path d="m366.36 292.88a1.35 1.35 0 1 0 -1.35-1.35 1.34 1.34 0 0 0 1.35 1.35z"></path>
        <path d="m352.86 292.88a1.35 1.35 0 1 0 -1.35-1.35 1.34 1.34 0 0 0 1.35 1.35z"></path>
      </g>
      <g clip-path="url(#A)">
        <path d="m379.86 346.89a1.35 1.35 0 1 0 -1.35-1.35 1.35 1.35 0 0 0 1.35 1.35z"></path>
        <path d="m366.36 346.89a1.35 1.35 0 1 0 -1.35-1.35 1.35 1.35 0 0 0 1.35 1.35z"></path>
        <path d="m379.86 333.39a1.35 1.35 0 1 0 -1.35-1.35 1.35 1.35 0 0 0 1.35 1.35z"></path>
        <path d="m366.36 333.39a1.35 1.35 0 1 0 -1.36-1.39 1.35 1.35 0 0 0 1.36 1.39z"></path>
        <path d="m359.61 340.14a1.36 1.36 0 1 0 -1.35-1.35 1.35 1.35 0 0 0 1.35 1.35z"></path>
        <path d="m373.11 340.14a1.36 1.36 0 1 0 -1.35-1.35 1.35 1.35 0 0 0 1.35 1.35z"></path>
        <path d="m359.61 326.64a1.36 1.36 0 1 0 -1.35-1.35 1.35 1.35 0 0 0 1.35 1.35z"></path>
        <path d="m373.11 326.64a1.36 1.36 0 1 0 -1.35-1.35 1.35 1.35 0 0 0 1.35 1.35z"></path>
        <path d="m352.86 346.89a1.35 1.35 0 1 0 -1.35-1.35 1.35 1.35 0 0 0 1.35 1.35z"></path>
        <path d="m352.86 333.39a1.35 1.35 0 1 0 -1.35-1.35 1.35 1.35 0 0 0 1.35 1.35z"></path>
        <path d="m379.86 319.88a1.35 1.35 0 1 0 -1.35-1.35 1.34 1.34 0 0 0 1.35 1.35z"></path>
        <path d="m366.36 319.88a1.35 1.35 0 1 0 -1.35-1.35 1.34 1.34 0 0 0 1.35 1.35z"></path>
        <path d="m352.86 319.88a1.35 1.35 0 1 0 -1.35-1.35 1.34 1.34 0 0 0 1.35 1.35z"></path>
      </g>
      <g clip-path="url(#B)">
        <path d="m379.86 373.89a1.35 1.35 0 1 0 -1.35-1.35 1.35 1.35 0 0 0 1.35 1.35z"></path>
        <path d="m366.36 373.89a1.35 1.35 0 1 0 -1.35-1.35 1.35 1.35 0 0 0 1.35 1.35z"></path>
        <path d="m379.86 360.39a1.35 1.35 0 1 0 -1.35-1.35 1.35 1.35 0 0 0 1.35 1.35z"></path>
        <path d="m366.36 360.39a1.35 1.35 0 1 0 -1.36-1.39 1.35 1.35 0 0 0 1.36 1.39z"></path>
        <path d="m359.61 367.14a1.35 1.35 0 1 0 -1.35-1.35 1.35 1.35 0 0 0 1.35 1.35z"></path>
        <path d="m373.11 367.14a1.35 1.35 0 1 0 -1.35-1.35 1.35 1.35 0 0 0 1.35 1.35z"></path>
        <path d="m359.61 353.64a1.35 1.35 0 1 0 -1.35-1.35 1.35 1.35 0 0 0 1.35 1.35z"></path>
        <path d="m373.11 353.64a1.35 1.35 0 1 0 -1.35-1.35 1.35 1.35 0 0 0 1.35 1.35z"></path>
        <path d="m352.86 373.89a1.35 1.35 0 1 0 -1.35-1.35 1.35 1.35 0 0 0 1.35 1.35z"></path>
        <path d="m352.86 360.39a1.35 1.35 0 1 0 -1.35-1.35 1.35 1.35 0 0 0 1.35 1.35z"></path>
        <path d="m379.86 346.89a1.35 1.35 0 1 0 -1.35-1.35 1.35 1.35 0 0 0 1.35 1.35z"></path>
        <path d="m366.36 346.89a1.35 1.35 0 1 0 -1.35-1.35 1.35 1.35 0 0 0 1.35 1.35z"></path>
        <path d="m352.86 346.89a1.35 1.35 0 1 0 -1.35-1.35 1.35 1.35 0 0 0 1.35 1.35z"></path>
      </g>
      <g clip-path="url(#C)">
        <path d="m379.86 400.89a1.35 1.35 0 1 0 -1.35-1.35 1.35 1.35 0 0 0 1.35 1.35z"></path>
        <path d="m366.36 400.89a1.35 1.35 0 1 0 -1.35-1.35 1.35 1.35 0 0 0 1.35 1.35z"></path>
        <path d="m379.86 387.39a1.35 1.35 0 1 0 -1.35-1.35 1.35 1.35 0 0 0 1.35 1.35z"></path>
        <path d="m366.36 387.39a1.35 1.35 0 1 0 -1.36-1.39 1.35 1.35 0 0 0 1.36 1.39z"></path>
        <path d="m359.61 394.14a1.35 1.35 0 1 0 -1.35-1.35 1.35 1.35 0 0 0 1.35 1.35z"></path>
        <path d="m373.11 394.14a1.35 1.35 0 1 0 -1.35-1.35 1.35 1.35 0 0 0 1.35 1.35z"></path>
        <path d="m359.61 380.64a1.35 1.35 0 1 0 -1.35-1.35 1.35 1.35 0 0 0 1.35 1.35z"></path>
        <path d="m373.11 380.64a1.35 1.35 0 1 0 -1.35-1.35 1.35 1.35 0 0 0 1.35 1.35z"></path>
        <path d="m352.86 400.89a1.35 1.35 0 1 0 -1.35-1.35 1.35 1.35 0 0 0 1.35 1.35z"></path>
        <path d="m352.86 387.39a1.35 1.35 0 1 0 -1.35-1.35 1.35 1.35 0 0 0 1.35 1.35z"></path>
        <path d="m379.86 373.89a1.35 1.35 0 1 0 -1.35-1.35 1.35 1.35 0 0 0 1.35 1.35z"></path>
        <path d="m366.36 373.89a1.35 1.35 0 1 0 -1.35-1.35 1.35 1.35 0 0 0 1.35 1.35z"></path>
        <path d="m352.86 373.89a1.35 1.35 0 1 0 -1.35-1.35 1.35 1.35 0 0 0 1.35 1.35z"></path>
      </g>
    </g>
    <g clip-path="url(#D)">
      <g clip-path="url(#E)">
        <path d="m386.62 292.88a1.35 1.35 0 1 0 -1.35-1.35 1.35 1.35 0 0 0 1.35 1.35z"></path>
        <path d="m373.12 292.88a1.35 1.35 0 1 0 -1.35-1.35 1.35 1.35 0 0 0 1.35 1.35z"></path>
        <path d="m386.62 279.39a1.36 1.36 0 1 0 -1.35-1.36 1.36 1.36 0 0 0 1.35 1.36z"></path>
        <path d="m373.12 279.39a1.36 1.36 0 1 0 -1.35-1.36 1.36 1.36 0 0 0 1.35 1.36z"></path>
        <path d="m366.37 286.13a1.35 1.35 0 1 0 -1.35-1.35 1.35 1.35 0 0 0 1.35 1.35z"></path>
        <path d="m379.87 286.13a1.35 1.35 0 1 0 -1.35-1.35 1.35 1.35 0 0 0 1.35 1.35z"></path>
        <path d="m366.37 272.63a1.35 1.35 0 1 0 -1.35-1.35 1.35 1.35 0 0 0 1.35 1.35z"></path>
        <path d="m379.87 272.63a1.35 1.35 0 1 0 -1.35-1.35 1.35 1.35 0 0 0 1.35 1.35z"></path>
        <path d="m359.62 292.88a1.35 1.35 0 1 0 -1.35-1.35 1.35 1.35 0 0 0 1.35 1.35z"></path>
        <path d="m359.62 279.39a1.36 1.36 0 1 0 -1.35-1.36 1.36 1.36 0 0 0 1.35 1.36z"></path>
        <path d="m386.62 265.88a1.35 1.35 0 1 0 -1.35-1.35 1.35 1.35 0 0 0 1.35 1.35z"></path>
        <path d="m373.12 265.88a1.35 1.35 0 1 0 -1.35-1.35 1.35 1.35 0 0 0 1.35 1.35z"></path>
        <path d="m359.62 265.88a1.35 1.35 0 1 0 -1.35-1.35 1.35 1.35 0 0 0 1.35 1.35z"></path>
      </g>
      <g clip-path="url(#F)">
        <path d="m386.62 319.88a1.35 1.35 0 1 0 -1.35-1.35 1.35 1.35 0 0 0 1.35 1.35z"></path>
        <path d="m373.12 319.88a1.35 1.35 0 1 0 -1.35-1.35 1.35 1.35 0 0 0 1.35 1.35z"></path>
        <path d="m386.62 306.39a1.36 1.36 0 1 0 -1.35-1.36 1.36 1.36 0 0 0 1.35 1.36z"></path>
        <path d="m373.12 306.39a1.36 1.36 0 1 0 -1.35-1.36 1.36 1.36 0 0 0 1.35 1.36z"></path>
        <path d="m366.37 313.13a1.35 1.35 0 1 0 -1.35-1.34 1.35 1.35 0 0 0 1.35 1.34z"></path>
        <path d="m379.87 313.13a1.35 1.35 0 1 0 -1.35-1.34 1.35 1.35 0 0 0 1.35 1.34z"></path>
        <path d="m366.37 299.63a1.35 1.35 0 1 0 -1.35-1.34 1.35 1.35 0 0 0 1.35 1.34z"></path>
        <path d="m379.87 299.63a1.35 1.35 0 1 0 -1.35-1.34 1.35 1.35 0 0 0 1.35 1.34z"></path>
        <path d="m359.62 319.88a1.35 1.35 0 1 0 -1.35-1.35 1.35 1.35 0 0 0 1.35 1.35z"></path>
        <path d="m359.62 306.39a1.36 1.36 0 1 0 -1.35-1.36 1.36 1.36 0 0 0 1.35 1.36z"></path>
        <path d="m386.62 292.88a1.35 1.35 0 1 0 -1.35-1.35 1.35 1.35 0 0 0 1.35 1.35z"></path>
        <path d="m373.12 292.88a1.35 1.35 0 1 0 -1.35-1.35 1.35 1.35 0 0 0 1.35 1.35z"></path>
        <path d="m359.62 292.88a1.35 1.35 0 1 0 -1.35-1.35 1.35 1.35 0 0 0 1.35 1.35z"></path>
      </g>
      <g clip-path="url(#G)">
        <path d="m386.62 346.89a1.35 1.35 0 1 0 -1.35-1.35 1.36 1.36 0 0 0 1.35 1.35z"></path>
        <path d="m373.12 346.89a1.35 1.35 0 1 0 -1.35-1.35 1.36 1.36 0 0 0 1.35 1.35z"></path>
        <path d="m386.62 333.39a1.35 1.35 0 1 0 -1.35-1.35 1.36 1.36 0 0 0 1.35 1.35z"></path>
        <path d="m373.12 333.39a1.35 1.35 0 1 0 -1.35-1.35 1.36 1.36 0 0 0 1.35 1.35z"></path>
        <path d="m366.37 340.14a1.36 1.36 0 1 0 -1.35-1.35 1.36 1.36 0 0 0 1.35 1.35z"></path>
        <path d="m379.87 340.14a1.36 1.36 0 1 0 -1.35-1.35 1.36 1.36 0 0 0 1.35 1.35z"></path>
        <path d="m366.37 326.64a1.36 1.36 0 1 0 -1.35-1.35 1.36 1.36 0 0 0 1.35 1.35z"></path>
        <path d="m379.87 326.64a1.36 1.36 0 1 0 -1.35-1.35 1.36 1.36 0 0 0 1.35 1.35z"></path>
        <path d="m359.62 346.89a1.35 1.35 0 1 0 -1.35-1.35 1.36 1.36 0 0 0 1.35 1.35z"></path>
        <path d="m359.62 333.39a1.35 1.35 0 1 0 -1.35-1.35 1.36 1.36 0 0 0 1.35 1.35z"></path>
        <path d="m386.62 319.88a1.35 1.35 0 1 0 -1.35-1.35 1.35 1.35 0 0 0 1.35 1.35z"></path>
        <path d="m373.12 319.88a1.35 1.35 0 1 0 -1.35-1.35 1.35 1.35 0 0 0 1.35 1.35z"></path>
        <path d="m359.62 319.88a1.35 1.35 0 1 0 -1.35-1.35 1.35 1.35 0 0 0 1.35 1.35z"></path>
      </g>
      <g clip-path="url(#H)">
        <path d="m386.62 373.89a1.35 1.35 0 1 0 -1.35-1.35 1.36 1.36 0 0 0 1.35 1.35z"></path>
        <path d="m373.12 373.89a1.35 1.35 0 1 0 -1.35-1.35 1.36 1.36 0 0 0 1.35 1.35z"></path>
        <path d="m386.62 360.39a1.35 1.35 0 1 0 -1.35-1.35 1.36 1.36 0 0 0 1.35 1.35z"></path>
        <path d="m373.12 360.39a1.35 1.35 0 1 0 -1.35-1.35 1.36 1.36 0 0 0 1.35 1.35z"></path>
        <path d="m366.37 367.14a1.35 1.35 0 1 0 -1.35-1.35 1.36 1.36 0 0 0 1.35 1.35z"></path>
        <path d="m379.87 367.14a1.35 1.35 0 1 0 -1.35-1.35 1.36 1.36 0 0 0 1.35 1.35z"></path>
        <path d="m366.37 353.64a1.35 1.35 0 1 0 -1.35-1.35 1.36 1.36 0 0 0 1.35 1.35z"></path>
        <path d="m379.87 353.64a1.35 1.35 0 1 0 -1.35-1.35 1.36 1.36 0 0 0 1.35 1.35z"></path>
        <path d="m359.62 373.89a1.35 1.35 0 1 0 -1.35-1.35 1.36 1.36 0 0 0 1.35 1.35z"></path>
        <path d="m359.62 360.39a1.35 1.35 0 1 0 -1.35-1.35 1.36 1.36 0 0 0 1.35 1.35z"></path>
        <path d="m386.62 346.89a1.35 1.35 0 1 0 -1.35-1.35 1.36 1.36 0 0 0 1.35 1.35z"></path>
        <path d="m373.12 346.89a1.35 1.35 0 1 0 -1.35-1.35 1.36 1.36 0 0 0 1.35 1.35z"></path>
        <path d="m359.62 346.89a1.35 1.35 0 1 0 -1.35-1.35 1.36 1.36 0 0 0 1.35 1.35z"></path>
      </g>
      <g clip-path="url(#I)">
        <path d="m386.62 400.89a1.35 1.35 0 1 0 -1.35-1.35 1.36 1.36 0 0 0 1.35 1.35z"></path>
        <path d="m373.12 400.89a1.35 1.35 0 1 0 -1.35-1.35 1.36 1.36 0 0 0 1.35 1.35z"></path>
        <path d="m386.62 387.39a1.35 1.35 0 1 0 -1.35-1.35 1.36 1.36 0 0 0 1.35 1.35z"></path>
        <path d="m373.12 387.39a1.35 1.35 0 1 0 -1.35-1.35 1.36 1.36 0 0 0 1.35 1.35z"></path>
        <path d="m366.37 394.14a1.35 1.35 0 1 0 -1.35-1.35 1.36 1.36 0 0 0 1.35 1.35z"></path>
        <path d="m379.87 394.14a1.35 1.35 0 1 0 -1.35-1.35 1.36 1.36 0 0 0 1.35 1.35z"></path>
        <path d="m366.37 380.64a1.35 1.35 0 1 0 -1.35-1.35 1.36 1.36 0 0 0 1.35 1.35z"></path>
        <path d="m379.87 380.64a1.35 1.35 0 1 0 -1.35-1.35 1.36 1.36 0 0 0 1.35 1.35z"></path>
        <path d="m359.62 400.89a1.35 1.35 0 1 0 -1.35-1.35 1.36 1.36 0 0 0 1.35 1.35z"></path>
        <path d="m359.62 387.39a1.35 1.35 0 1 0 -1.35-1.35 1.36 1.36 0 0 0 1.35 1.35z"></path>
        <path d="m386.62 373.89a1.35 1.35 0 1 0 -1.35-1.35 1.36 1.36 0 0 0 1.35 1.35z"></path>
        <path d="m373.12 373.89a1.35 1.35 0 1 0 -1.35-1.35 1.36 1.36 0 0 0 1.35 1.35z"></path>
        <path d="m359.62 373.89a1.35 1.35 0 1 0 -1.35-1.35 1.36 1.36 0 0 0 1.35 1.35z"></path>
      </g>
      <g clip-path="url(#J)">
        <path d="m359.62 292.88a1.35 1.35 0 1 0 -1.35-1.35 1.35 1.35 0 0 0 1.35 1.35z"></path>
        <path d="m346.12 292.88a1.35 1.35 0 1 0 -1.35-1.35 1.35 1.35 0 0 0 1.35 1.35z"></path>
        <path d="m359.62 279.39a1.36 1.36 0 1 0 -1.35-1.36 1.36 1.36 0 0 0 1.35 1.36z"></path>
        <path d="m346.12 279.39a1.36 1.36 0 1 0 -1.35-1.36 1.36 1.36 0 0 0 1.35 1.36z"></path>
        <path d="m339.37 286.13a1.35 1.35 0 1 0 -1.35-1.35 1.35 1.35 0 0 0 1.35 1.35z"></path>
        <path d="m352.87 286.13a1.35 1.35 0 1 0 -1.35-1.35 1.35 1.35 0 0 0 1.35 1.35z"></path>
        <path d="m339.37 272.63a1.35 1.35 0 1 0 -1.35-1.35 1.35 1.35 0 0 0 1.35 1.35z"></path>
        <path d="m352.87 272.63a1.35 1.35 0 1 0 -1.35-1.35 1.35 1.35 0 0 0 1.35 1.35z"></path>
        <path d="m332.62 292.88a1.35 1.35 0 1 0 -1.35-1.35 1.35 1.35 0 0 0 1.35 1.35z"></path>
        <path d="m332.62 279.39a1.36 1.36 0 1 0 -1.35-1.36 1.36 1.36 0 0 0 1.35 1.36z"></path>
        <path d="m359.62 265.88a1.35 1.35 0 1 0 -1.35-1.35 1.35 1.35 0 0 0 1.35 1.35z"></path>
        <path d="m346.12 265.88a1.35 1.35 0 1 0 -1.35-1.35 1.35 1.35 0 0 0 1.35 1.35z"></path>
        <path d="m332.62 265.88a1.35 1.35 0 1 0 -1.35-1.35 1.35 1.35 0 0 0 1.35 1.35z"></path>
      </g>
      <g clip-path="url(#K)">
        <path d="m359.62 319.88a1.35 1.35 0 1 0 -1.35-1.35 1.35 1.35 0 0 0 1.35 1.35z"></path>
        <path d="m346.12 319.88a1.35 1.35 0 1 0 -1.35-1.35 1.35 1.35 0 0 0 1.35 1.35z"></path>
        <path d="m359.62 306.39a1.36 1.36 0 1 0 -1.35-1.36 1.36 1.36 0 0 0 1.35 1.36z"></path>
        <path d="m346.12 306.39a1.36 1.36 0 1 0 -1.35-1.36 1.36 1.36 0 0 0 1.35 1.36z"></path>
        <path d="m339.37 313.13a1.35 1.35 0 1 0 -1.35-1.34 1.35 1.35 0 0 0 1.35 1.34z"></path>
        <path d="m352.87 313.13a1.35 1.35 0 1 0 -1.35-1.34 1.35 1.35 0 0 0 1.35 1.34z"></path>
        <path d="m339.37 299.63a1.35 1.35 0 1 0 -1.35-1.34 1.35 1.35 0 0 0 1.35 1.34z"></path>
        <path d="m352.87 299.63a1.35 1.35 0 1 0 -1.35-1.34 1.35 1.35 0 0 0 1.35 1.34z"></path>
        <path d="m332.62 319.88a1.35 1.35 0 1 0 -1.35-1.35 1.35 1.35 0 0 0 1.35 1.35z"></path>
        <path d="m332.62 306.39a1.36 1.36 0 1 0 -1.35-1.36 1.36 1.36 0 0 0 1.35 1.36z"></path>
        <path d="m359.62 292.88a1.35 1.35 0 1 0 -1.35-1.35 1.35 1.35 0 0 0 1.35 1.35z"></path>
        <path d="m346.12 292.88a1.35 1.35 0 1 0 -1.35-1.35 1.35 1.35 0 0 0 1.35 1.35z"></path>
        <path d="m332.62 292.88a1.35 1.35 0 1 0 -1.35-1.35 1.35 1.35 0 0 0 1.35 1.35z"></path>
      </g>
      <g clip-path="url(#L)">
        <path d="m359.62 346.89a1.35 1.35 0 1 0 -1.35-1.35 1.36 1.36 0 0 0 1.35 1.35z"></path>
        <path d="m346.12 346.89a1.35 1.35 0 1 0 -1.35-1.35 1.36 1.36 0 0 0 1.35 1.35z"></path>
        <path d="m359.62 333.39a1.35 1.35 0 1 0 -1.35-1.35 1.36 1.36 0 0 0 1.35 1.35z"></path>
        <path d="m346.12 333.39a1.35 1.35 0 1 0 -1.35-1.35 1.36 1.36 0 0 0 1.35 1.35z"></path>
        <path d="m339.37 340.14a1.36 1.36 0 1 0 -1.35-1.35 1.36 1.36 0 0 0 1.35 1.35z"></path>
        <path d="m352.87 340.14a1.36 1.36 0 1 0 -1.35-1.35 1.36 1.36 0 0 0 1.35 1.35z"></path>
        <path d="m339.37 326.64a1.36 1.36 0 1 0 -1.35-1.35 1.36 1.36 0 0 0 1.35 1.35z"></path>
        <path d="m352.87 326.64a1.36 1.36 0 1 0 -1.35-1.35 1.36 1.36 0 0 0 1.35 1.35z"></path>
        <path d="m332.62 346.89a1.35 1.35 0 1 0 -1.35-1.35 1.36 1.36 0 0 0 1.35 1.35z"></path>
        <path d="m332.62 333.39a1.35 1.35 0 1 0 -1.35-1.35 1.36 1.36 0 0 0 1.35 1.35z"></path>
        <path d="m359.62 319.88a1.35 1.35 0 1 0 -1.35-1.35 1.35 1.35 0 0 0 1.35 1.35z"></path>
        <path d="m346.12 319.88a1.35 1.35 0 1 0 -1.35-1.35 1.35 1.35 0 0 0 1.35 1.35z"></path>
        <path d="m332.62 319.88a1.35 1.35 0 1 0 -1.35-1.35 1.35 1.35 0 0 0 1.35 1.35z"></path>
      </g>
      <g clip-path="url(#M)">
        <path d="m359.62 373.89a1.35 1.35 0 1 0 -1.35-1.35 1.36 1.36 0 0 0 1.35 1.35z"></path>
        <path d="m346.12 373.89a1.35 1.35 0 1 0 -1.35-1.35 1.36 1.36 0 0 0 1.35 1.35z"></path>
        <path d="m359.62 360.39a1.35 1.35 0 1 0 -1.35-1.35 1.36 1.36 0 0 0 1.35 1.35z"></path>
        <path d="m346.12 360.39a1.35 1.35 0 1 0 -1.35-1.35 1.36 1.36 0 0 0 1.35 1.35z"></path>
        <path d="m339.37 367.14a1.35 1.35 0 1 0 -1.35-1.35 1.36 1.36 0 0 0 1.35 1.35z"></path>
        <path d="m352.87 367.14a1.35 1.35 0 1 0 -1.35-1.35 1.36 1.36 0 0 0 1.35 1.35z"></path>
        <path d="m339.37 353.64a1.35 1.35 0 1 0 -1.35-1.35 1.36 1.36 0 0 0 1.35 1.35z"></path>
        <path d="m352.87 353.64a1.35 1.35 0 1 0 -1.35-1.35 1.36 1.36 0 0 0 1.35 1.35z"></path>
        <path d="m332.62 373.89a1.35 1.35 0 1 0 -1.35-1.35 1.36 1.36 0 0 0 1.35 1.35z"></path>
        <path d="m332.62 360.39a1.35 1.35 0 1 0 -1.35-1.35 1.36 1.36 0 0 0 1.35 1.35z"></path>
        <path d="m359.62 346.89a1.35 1.35 0 1 0 -1.35-1.35 1.36 1.36 0 0 0 1.35 1.35z"></path>
        <path d="m346.12 346.89a1.35 1.35 0 1 0 -1.35-1.35 1.36 1.36 0 0 0 1.35 1.35z"></path>
        <path d="m332.62 346.89a1.35 1.35 0 1 0 -1.35-1.35 1.36 1.36 0 0 0 1.35 1.35z"></path>
      </g>
      <g clip-path="url(#N)">
        <path d="m359.62 400.89a1.35 1.35 0 1 0 -1.35-1.35 1.36 1.36 0 0 0 1.35 1.35z"></path>
        <path d="m346.12 400.89a1.35 1.35 0 1 0 -1.35-1.35 1.36 1.36 0 0 0 1.35 1.35z"></path>
        <path d="m359.62 387.39a1.35 1.35 0 1 0 -1.35-1.35 1.36 1.36 0 0 0 1.35 1.35z"></path>
        <path d="m346.12 387.39a1.35 1.35 0 1 0 -1.35-1.35 1.36 1.36 0 0 0 1.35 1.35z"></path>
        <path d="m339.37 394.14a1.35 1.35 0 1 0 -1.35-1.35 1.36 1.36 0 0 0 1.35 1.35z"></path>
        <path d="m352.87 394.14a1.35 1.35 0 1 0 -1.35-1.35 1.36 1.36 0 0 0 1.35 1.35z"></path>
        <path d="m339.37 380.64a1.35 1.35 0 1 0 -1.35-1.35 1.36 1.36 0 0 0 1.35 1.35z"></path>
        <path d="m352.87 380.64a1.35 1.35 0 1 0 -1.35-1.35 1.36 1.36 0 0 0 1.35 1.35z"></path>
        <path d="m332.62 400.89a1.35 1.35 0 1 0 -1.35-1.35 1.36 1.36 0 0 0 1.35 1.35z"></path>
        <path d="m332.62 387.39a1.35 1.35 0 1 0 -1.35-1.35 1.36 1.36 0 0 0 1.35 1.35z"></path>
        <path d="m359.62 373.89a1.35 1.35 0 1 0 -1.35-1.35 1.36 1.36 0 0 0 1.35 1.35z"></path>
        <path d="m346.12 373.89a1.35 1.35 0 1 0 -1.35-1.35 1.36 1.36 0 0 0 1.35 1.35z"></path>
        <path d="m332.62 373.89a1.35 1.35 0 1 0 -1.35-1.35 1.36 1.36 0 0 0 1.35 1.35z"></path>
      </g>
      <g clip-path="url(#O)">
        <path d="m332.62 292.88a1.35 1.35 0 1 0 -1.35-1.35 1.35 1.35 0 0 0 1.35 1.35z"></path>
        <path d="m319.12 292.88a1.35 1.35 0 1 0 -1.35-1.35 1.35 1.35 0 0 0 1.35 1.35z"></path>
        <path d="m332.62 279.39a1.36 1.36 0 1 0 -1.35-1.36 1.36 1.36 0 0 0 1.35 1.36z"></path>
        <path d="m319.12 279.39a1.36 1.36 0 1 0 -1.35-1.36 1.36 1.36 0 0 0 1.35 1.36z"></path>
        <path d="m312.37 286.13a1.35 1.35 0 1 0 -1.35-1.35 1.35 1.35 0 0 0 1.35 1.35z"></path>
        <path d="m325.87 286.13a1.35 1.35 0 1 0 -1.35-1.35 1.35 1.35 0 0 0 1.35 1.35z"></path>
        <path d="m312.37 272.63a1.35 1.35 0 1 0 -1.35-1.35 1.35 1.35 0 0 0 1.35 1.35z"></path>
        <path d="m325.87 272.63a1.35 1.35 0 1 0 -1.35-1.35 1.35 1.35 0 0 0 1.35 1.35z"></path>
        <path d="m305.62 292.88a1.35 1.35 0 1 0 -1.35-1.35 1.35 1.35 0 0 0 1.35 1.35z"></path>
        <path d="m305.62 279.39a1.36 1.36 0 1 0 -1.35-1.36 1.36 1.36 0 0 0 1.35 1.36z"></path>
        <path d="m332.62 265.88a1.35 1.35 0 1 0 -1.35-1.35 1.35 1.35 0 0 0 1.35 1.35z"></path>
        <path d="m319.12 265.88a1.35 1.35 0 1 0 -1.35-1.35 1.35 1.35 0 0 0 1.35 1.35z"></path>
        <path d="m305.62 265.88a1.35 1.35 0 1 0 -1.35-1.35 1.35 1.35 0 0 0 1.35 1.35z"></path>
      </g>
      <g clip-path="url(#P)">
        <path d="m332.62 319.88a1.35 1.35 0 1 0 -1.35-1.35 1.35 1.35 0 0 0 1.35 1.35z"></path>
        <path d="m319.12 319.88a1.35 1.35 0 1 0 -1.35-1.35 1.35 1.35 0 0 0 1.35 1.35z"></path>
        <path d="m332.62 306.39a1.36 1.36 0 1 0 -1.35-1.36 1.36 1.36 0 0 0 1.35 1.36z"></path>
        <path d="m319.12 306.39a1.36 1.36 0 1 0 -1.35-1.36 1.36 1.36 0 0 0 1.35 1.36z"></path>
        <path d="m312.37 313.13a1.35 1.35 0 1 0 -1.35-1.34 1.35 1.35 0 0 0 1.35 1.34z"></path>
        <path d="m325.87 313.13a1.35 1.35 0 1 0 -1.35-1.34 1.35 1.35 0 0 0 1.35 1.34z"></path>
        <path d="m312.37 299.63a1.35 1.35 0 1 0 -1.35-1.34 1.35 1.35 0 0 0 1.35 1.34z"></path>
        <path d="m325.87 299.63a1.35 1.35 0 1 0 -1.35-1.34 1.35 1.35 0 0 0 1.35 1.34z"></path>
        <path d="m305.62 319.88a1.35 1.35 0 1 0 -1.35-1.35 1.35 1.35 0 0 0 1.35 1.35z"></path>
        <path d="m305.62 306.39a1.36 1.36 0 1 0 -1.35-1.36 1.36 1.36 0 0 0 1.35 1.36z"></path>
        <path d="m332.62 292.88a1.35 1.35 0 1 0 -1.35-1.35 1.35 1.35 0 0 0 1.35 1.35z"></path>
        <path d="m319.12 292.88a1.35 1.35 0 1 0 -1.35-1.35 1.35 1.35 0 0 0 1.35 1.35z"></path>
        <path d="m305.62 292.88a1.35 1.35 0 1 0 -1.35-1.35 1.35 1.35 0 0 0 1.35 1.35z"></path>
      </g>
      <g clip-path="url(#Q)">
        <path d="m332.62 346.89a1.35 1.35 0 1 0 -1.35-1.35 1.36 1.36 0 0 0 1.35 1.35z"></path>
        <path d="m319.12 346.89a1.35 1.35 0 1 0 -1.35-1.35 1.36 1.36 0 0 0 1.35 1.35z"></path>
        <path d="m332.62 333.39a1.35 1.35 0 1 0 -1.35-1.35 1.36 1.36 0 0 0 1.35 1.35z"></path>
        <path d="m319.12 333.39a1.35 1.35 0 1 0 -1.35-1.35 1.36 1.36 0 0 0 1.35 1.35z"></path>
        <path d="m312.37 340.14a1.36 1.36 0 1 0 -1.35-1.35 1.36 1.36 0 0 0 1.35 1.35z"></path>
        <path d="m325.87 340.14a1.36 1.36 0 1 0 -1.35-1.35 1.36 1.36 0 0 0 1.35 1.35z"></path>
        <path d="m312.37 326.64a1.36 1.36 0 1 0 -1.35-1.35 1.36 1.36 0 0 0 1.35 1.35z"></path>
        <path d="m325.87 326.64a1.36 1.36 0 1 0 -1.35-1.35 1.36 1.36 0 0 0 1.35 1.35z"></path>
        <path d="m305.62 346.89a1.35 1.35 0 1 0 -1.35-1.35 1.36 1.36 0 0 0 1.35 1.35z"></path>
        <path d="m305.62 333.39a1.35 1.35 0 1 0 -1.35-1.35 1.36 1.36 0 0 0 1.35 1.35z"></path>
        <path d="m332.62 319.88a1.35 1.35 0 1 0 -1.35-1.35 1.35 1.35 0 0 0 1.35 1.35z"></path>
        <path d="m319.12 319.88a1.35 1.35 0 1 0 -1.35-1.35 1.35 1.35 0 0 0 1.35 1.35z"></path>
        <path d="m305.62 319.88a1.35 1.35 0 1 0 -1.35-1.35 1.35 1.35 0 0 0 1.35 1.35z"></path>
      </g>
      <g clip-path="url(#R)">
        <path d="m332.62 373.89a1.35 1.35 0 1 0 -1.35-1.35 1.36 1.36 0 0 0 1.35 1.35z"></path>
        <path d="m319.12 373.89a1.35 1.35 0 1 0 -1.35-1.35 1.36 1.36 0 0 0 1.35 1.35z"></path>
        <path d="m332.62 360.39a1.35 1.35 0 1 0 -1.35-1.35 1.36 1.36 0 0 0 1.35 1.35z"></path>
        <path d="m319.12 360.39a1.35 1.35 0 1 0 -1.35-1.35 1.36 1.36 0 0 0 1.35 1.35z"></path>
        <path d="m312.37 367.14a1.35 1.35 0 1 0 -1.35-1.35 1.36 1.36 0 0 0 1.35 1.35z"></path>
        <path d="m325.87 367.14a1.35 1.35 0 1 0 -1.35-1.35 1.36 1.36 0 0 0 1.35 1.35z"></path>
        <path d="m312.37 353.64a1.35 1.35 0 1 0 -1.35-1.35 1.36 1.36 0 0 0 1.35 1.35z"></path>
        <path d="m325.87 353.64a1.35 1.35 0 1 0 -1.35-1.35 1.36 1.36 0 0 0 1.35 1.35z"></path>
        <path d="m305.62 373.89a1.35 1.35 0 1 0 -1.35-1.35 1.36 1.36 0 0 0 1.35 1.35z"></path>
        <path d="m305.62 360.39a1.35 1.35 0 1 0 -1.35-1.35 1.36 1.36 0 0 0 1.35 1.35z"></path>
        <path d="m332.62 346.89a1.35 1.35 0 1 0 -1.35-1.35 1.36 1.36 0 0 0 1.35 1.35z"></path>
        <path d="m319.12 346.89a1.35 1.35 0 1 0 -1.35-1.35 1.36 1.36 0 0 0 1.35 1.35z"></path>
        <path d="m305.62 346.89a1.35 1.35 0 1 0 -1.35-1.35 1.36 1.36 0 0 0 1.35 1.35z"></path>
      </g>
      <g clip-path="url(#S)">
        <path d="m332.62 400.89a1.35 1.35 0 1 0 -1.35-1.35 1.36 1.36 0 0 0 1.35 1.35z"></path>
        <path d="m319.12 400.89a1.35 1.35 0 1 0 -1.35-1.35 1.36 1.36 0 0 0 1.35 1.35z"></path>
        <path d="m332.62 387.39a1.35 1.35 0 1 0 -1.35-1.35 1.36 1.36 0 0 0 1.35 1.35z"></path>
        <path d="m319.12 387.39a1.35 1.35 0 1 0 -1.35-1.35 1.36 1.36 0 0 0 1.35 1.35z"></path>
        <path d="m312.37 394.14a1.35 1.35 0 1 0 -1.35-1.35 1.36 1.36 0 0 0 1.35 1.35z"></path>
        <path d="m325.87 394.14a1.35 1.35 0 1 0 -1.35-1.35 1.36 1.36 0 0 0 1.35 1.35z"></path>
        <path d="m312.37 380.64a1.35 1.35 0 1 0 -1.35-1.35 1.36 1.36 0 0 0 1.35 1.35z"></path>
        <path d="m325.87 380.64a1.35 1.35 0 1 0 -1.35-1.35 1.36 1.36 0 0 0 1.35 1.35z"></path>
        <path d="m305.62 400.89a1.35 1.35 0 1 0 -1.35-1.35 1.36 1.36 0 0 0 1.35 1.35z"></path>
        <path d="m305.62 387.39a1.35 1.35 0 1 0 -1.35-1.35 1.36 1.36 0 0 0 1.35 1.35z"></path>
        <path d="m332.62 373.89a1.35 1.35 0 1 0 -1.35-1.35 1.36 1.36 0 0 0 1.35 1.35z"></path>
        <path d="m319.12 373.89a1.35 1.35 0 1 0 -1.35-1.35 1.36 1.36 0 0 0 1.35 1.35z"></path>
        <path d="m305.62 373.89a1.35 1.35 0 1 0 -1.35-1.35 1.36 1.36 0 0 0 1.35 1.35z"></path>
      </g>
    </g>
  </g>
</svg>
