<?xml version="1.0" encoding="UTF-8"?>
<svg xmlns="http://www.w3.org/2000/svg" id="Layer_1" data-name="Layer 1" viewBox="0 0 600 600">
  <defs>
    <style>.cls-1,.cls-13{fill:#fff;}.cls-10,.cls-2,.cls-7{fill:#ffde00;}.cls-10,.cls-11,.cls-12,.cls-13,.cls-2,.cls-3,.cls-4,.cls-5,.cls-6,.cls-7,.cls-8,.cls-9{stroke:#1c19a8;}.cls-2,.cls-3,.cls-4,.cls-5,.cls-7,.cls-9{stroke-linejoin:round;}.cls-2,.cls-3,.cls-4,.cls-5,.cls-6,.cls-7,.cls-8,.cls-9{stroke-width:2.82px;}.cls-2,.cls-3{fill-rule:evenodd;}.cls-11,.cls-3,.cls-5{fill:#fb715d;}.cls-12,.cls-4{fill:#00ab81;}.cls-6,.cls-9{fill:none;}.cls-10,.cls-11,.cls-12,.cls-13,.cls-6,.cls-8{stroke-miterlimit:10;}.cls-14,.cls-8{fill:#1c19a8;}.cls-10,.cls-11,.cls-12,.cls-13{stroke-width:2.81px;}</style>
  </defs>
  <rect class="cls-1" x="225.03" y="163.03" width="282.95" height="251.14"></rect>
  <path class="cls-2" d="M345.73,294a.44.44,0,0,0-.33.47v2.34a.42.42,0,0,0,.37.47h.1a1.77,1.77,0,0,1-.33.64,5.48,5.48,0,0,1-1,.87,5.36,5.36,0,0,0-1.16,1.09,3.41,3.41,0,0,0-.62,2h0v10.92a1.9,1.9,0,0,0,1.62,2.08H353a1.9,1.9,0,0,0,1.61-2.08v-10.9h0a3.4,3.4,0,0,0-.6-2,5.22,5.22,0,0,0-1.17-1.1,5.46,5.46,0,0,1-1-.88,1.72,1.72,0,0,1-.32-.65h.12a.43.43,0,0,0,.37-.47l0-2.33a.55.55,0,0,0-.11-.34.33.33,0,0,0-.26-.14h-5.93Z"></path>
  <path class="cls-2" d="M363,294a.44.44,0,0,0-.33.47v2.34a.42.42,0,0,0,.37.47h.1a1.77,1.77,0,0,1-.33.64,5.48,5.48,0,0,1-1,.87,5.14,5.14,0,0,0-1.16,1.09,3.41,3.41,0,0,0-.62,2h0v10.92a1.9,1.9,0,0,0,1.62,2.08h8.6a1.9,1.9,0,0,0,1.62-2.08v-10.9h0a3.4,3.4,0,0,0-.6-2,5.22,5.22,0,0,0-1.17-1.1,5.46,5.46,0,0,1-1-.88,1.72,1.72,0,0,1-.32-.65h.12a.43.43,0,0,0,.37-.47l0-2.33a.55.55,0,0,0-.11-.34.34.34,0,0,0-.26-.14H363Z"></path>
  <path class="cls-3" d="M358.45,188.58a.44.44,0,0,0-.33.48v2.34a.42.42,0,0,0,.37.47h.09a1.57,1.57,0,0,1-.33.64,5.2,5.2,0,0,1-1,.87,5.11,5.11,0,0,0-1.16,1.09,3.48,3.48,0,0,0-.61,2h0v10.92a1.89,1.89,0,0,0,1.61,2.07h8.61a1.89,1.89,0,0,0,1.61-2.07v-10.9h0a3.32,3.32,0,0,0-.6-1.95,5.18,5.18,0,0,0-1.16-1.1,5.49,5.49,0,0,1-1-.89,1.51,1.51,0,0,1-.33-.64h.13a.43.43,0,0,0,.37-.47v-2.34a.59.59,0,0,0-.1-.34.35.35,0,0,0-.27-.14h-5.92Z"></path>
  <path class="cls-4" d="M354.62,350h8.12l0-14-2.12-6.56v-5.37h-3.94v5.37L354.6,336Z"></path>
  <rect class="cls-5" x="379.63" y="192.15" width="22.21" height="17.28"></rect>
  <rect class="cls-4" x="380.54" y="328.39" width="21.3" height="17.28"></rect>
  <rect class="cls-4" x="349.79" y="268.15" width="22.21" height="17.28"></rect>
  <line class="cls-6" x1="406.7" y1="208.65" x2="406.7" y2="384.48"></line>
  <line class="cls-6" x1="337.49" y1="207.21" x2="337.49" y2="384.48"></line>
  <path class="cls-7" d="M348.45,250.81h8.11l0-14-2.12-6.56v-5.38h-4v5.38l-2.12,6.56Z"></path>
  <path class="cls-7" d="M363.06,250.81h8.11l0-14-2.12-6.56v-5.38h-3.95v5.38L363,236.82Z"></path>
  <rect class="cls-8" x="337.49" y="346.14" width="69.19" height="5.49"></rect>
  <rect class="cls-8" x="337.56" y="314.37" width="69.07" height="5.49"></rect>
  <rect class="cls-8" x="337.49" y="282.6" width="69.15" height="5.49"></rect>
  <rect class="cls-8" x="337.49" y="250.83" width="69.17" height="5.49"></rect>
  <rect class="cls-8" x="338.23" y="208.66" width="68.94" height="5.49"></rect>
  <polygon class="cls-7" points="280.43 343.77 278.83 348.75 259.88 348.75 258.4 343.77 251.22 343.77 251.22 389.94 287.72 389.94 287.72 343.77 280.43 343.77"></polygon>
  <line class="cls-7" x1="251.22" y1="355.45" x2="287.96" y2="355.45"></line>
  <line class="cls-7" x1="251.22" y1="360.89" x2="287.96" y2="360.89"></line>
  <line class="cls-7" x1="283.96" y1="325.25" x2="283.96" y2="343.77"></line>
  <polygon class="cls-7" points="289.19 327.71 285.69 327.71 278.73 327.71 278.73 322.88 289.19 322.88 289.19 327.71"></polygon>
  <polyline class="cls-9" points="283.96 333.55 295.3 333.55 298.42 336.67"></polyline>
  <rect class="cls-5" x="329.61" y="349.01" width="38.04" height="5.97"></rect>
  <polygon class="cls-3" points="365.99 349.01 331.28 349.01 334.9 343.04 362.37 343.04 365.99 349.01"></polygon>
  <polygon class="cls-3" points="355.5 354.98 355.5 359.75 341.76 359.75 341.76 354.98 331.28 354.98 336.71 389.94 360.56 389.94 365.99 354.98 355.5 354.98"></polygon>
  <rect class="cls-5" x="341.76" y="354.98" width="13.74" height="4.77"></rect>
  <rect class="cls-5" x="291.57" y="349.01" width="38.04" height="5.97"></rect>
  <polygon class="cls-3" points="327.94 349.01 293.24 349.01 296.86 343.04 324.32 343.04 327.94 349.01"></polygon>
  <polygon class="cls-3" points="317.46 354.98 317.46 359.75 303.72 359.75 303.72 354.98 293.24 354.98 298.67 389.94 322.51 389.94 327.94 354.98 317.46 354.98"></polygon>
  <rect class="cls-5" x="303.72" y="354.98" width="13.74" height="4.77"></rect>
  <rect class="cls-10" x="109.53" y="384.8" width="109.44" height="107.07"></rect>
  <rect class="cls-10" x="125.72" y="398.61" width="77.07" height="79.44" transform="translate(602.58 274.08) rotate(90)"></rect>
  <rect class="cls-11" x="75.95" y="163.3" width="23.96" height="328.56"></rect>
  <rect class="cls-12" x="75.95" y="64.87" width="448.11" height="98.44"></rect>
  <rect class="cls-12" x="259.52" y="-99.05" width="80.96" height="426.98" transform="translate(414.43 -185.57) rotate(90)"></rect>
  <polygon class="cls-11" points="500.09 163.3 500.09 396.28 220.6 396.28 220.6 491.86 500.09 491.86 524.05 491.86 524.05 396.28 524.05 163.3 500.09 163.3"></polygon>
  <rect class="cls-10" x="99.91" y="163.3" width="9.63" height="328.56"></rect>
  <rect class="cls-10" x="218.98" y="396.28" width="9.63" height="95.58"></rect>
  <rect class="cls-10" x="492.05" y="163.03" width="9.63" height="228.71"></rect>
  <rect class="cls-10" x="218.98" y="163.3" width="22.2" height="232.98"></rect>
  <rect class="cls-10" x="354.74" y="251.14" width="9.63" height="290.28" transform="translate(755.83 36.73) rotate(90)"></rect>
  <rect class="cls-10" x="363.26" y="262.71" width="6.67" height="250.84" transform="translate(754.73 21.54) rotate(90)"></rect>
  <rect class="cls-10" x="363.26" y="50.57" width="6.67" height="250.84" transform="translate(542.59 -190.61) rotate(90)"></rect>
  <rect class="cls-10" x="160.92" y="129.04" width="6.67" height="109.44" transform="translate(348.02 19.51) rotate(90)"></rect>
  <rect class="cls-10" x="361.77" y="42.44" width="9.63" height="250.81" transform="translate(534.42 -198.74) rotate(90)"></rect>
  <rect class="cls-10" x="109.53" y="163.3" width="109.44" height="17.13"></rect>
  <rect class="cls-10" x="109.53" y="361.35" width="109.44" height="23.44"></rect>
  <rect class="cls-10" x="109.53" y="187.1" width="109.44" height="174.25"></rect>
  <rect class="cls-13" x="87.13" y="229.51" width="154.25" height="89.44" transform="translate(-109.97 438.48) rotate(-90)"></rect>
  <rect class="cls-10" x="125.72" y="398.61" width="77.07" height="79.44" transform="translate(602.58 274.08) rotate(90)"></rect>
  <path class="cls-10" d="M185.79,466.43a8.18,8.18,0,0,1,8.19-8.19V418a8.18,8.18,0,0,1-8.19-8.18H142.72a8.18,8.18,0,0,1-8.19,8.18v40.7a8.18,8.18,0,0,1,8.19,8.18h43.09C185.8,466.72,185.79,466.57,185.79,466.43Z"></path>
  <rect class="cls-4" x="452.85" y="229.59" width="39.2" height="71.57"></rect>
  <polygon class="cls-4" points="492.05 271.71 431.5 309.78 431.5 384.8 492.05 384.8 492.05 271.71"></polygon>
  <path class="cls-14" d="M352.38,124c.6-.14.6-.52.72-.79a34.43,34.43,0,0,1,4.1-6.59,5,5,0,0,1,.93-.9,2.37,2.37,0,0,1,3.9,1c.77,1.9,1.39,3.86,2.1,5.78.29.8.71,1.61,1.68,1.61a2.26,2.26,0,0,0,1.91-1.39c.59-1,1.25-1.93,1.87-2.9.38-.6.75-1.15,1.62-1,.38.08.57-.25.74-.53a18.64,18.64,0,0,1,5.28-5.48,4.25,4.25,0,0,1,3.78-.75,2.48,2.48,0,0,1,2,2.86c-.19,2.54-3.17,5.42-5.72,5.55a2.78,2.78,0,0,1-1.83-.55c-.4-.29-.89-.38-1.11.12-.62,1.4-1.37,2.8-.92,4.44a2.71,2.71,0,0,0,2.77,2.26,16.12,16.12,0,0,0,7-1.33c5.07-1.92,9.7-4.73,14.45-7.3a8.63,8.63,0,0,0,1.72-1.46,15.23,15.23,0,0,1,1.95-1.7c1-.63,1.81-1.07,2.77-.07a.75.75,0,0,0,.4.15c1.75.39,1.79.39,1.74,2.21a52.8,52.8,0,0,0,.48,7.75,6.76,6.76,0,0,0,.88,2.53,1.63,1.63,0,0,0,2.65.49,20.2,20.2,0,0,0,4.3-5,29.11,29.11,0,0,0,2.13-3.62c.26-.62.79-1.11,1.55-.78s.59,1,.42,1.59a8.8,8.8,0,0,1-1.45,2.76,57,57,0,0,1-5.46,6.67,4.2,4.2,0,0,1-7-1.86,22.09,22.09,0,0,1-1.08-5c0-.34.08-.83-.36-.91s-.51.43-.68.72L399.42,128a1.79,1.79,0,0,1-1.92,1.1,2.21,2.21,0,0,1-1.74-1.73,8.18,8.18,0,0,1,.53-5.27c.14-.35.42-.67.26-1.15-3.12,1.69-6.17,3.46-9.33,5-3.43,1.68-6.92,3.3-10.89,3.17-2.95-.1-5.69-1.84-5.41-5.37,0-.34.19-.86-.17-1s-.63.38-.83.7a8,8,0,0,1-2.82,2.77,2.92,2.92,0,0,1-4-.72,10,10,0,0,1-1.86-3.73c-.3-.89-.58-1.78-.91-2.66-.18-.5-.34-1.09-1-1.12s-.93.51-1.2,1a54.39,54.39,0,0,0-3.28,6.68c-1.35,3.22-2.3,6.59-3.35,9.91-.2.64-.44,1.15-1.23,1.09s-1-.6-1.14-1.23c-.39-1.33.17-2.53.36-3.79.48-3.2.6-6.44.85-9.67.38-5,.78-10,1.31-14.93.41-3.9.58-7.82,1.14-11.7s.95-8.08,2.38-11.93a5.39,5.39,0,0,1,.93-1.57,1.11,1.11,0,0,1,1.56-.16c.57.32.51.81.3,1.32-2,4.85-2.61,10-3.26,15.13-.4,3.17-.64,6.36-1.06,9.54s-.6,6.66-.85,10C352.59,119.72,352.5,121.79,352.38,124Zm49.77-6.35a11.8,11.8,0,0,0-4.31,7.58c0,.17,0,.39.2.44s.35-.18.5-.33a15.56,15.56,0,0,0,2.92-4.86A5.12,5.12,0,0,0,402.15,117.61Zm-25,.46a5.64,5.64,0,0,0,3.21-2,1,1,0,0,0,.11-1.39c-.37-.42-.87-.23-1.31-.07a8.47,8.47,0,0,0-2.74,2.24c-.23.22-.49.48-.34.84S376.64,118.05,377.13,118.07Z"></path>
  <path class="cls-14" d="M170.57,107.21c1.1-1.5,2.17-3,3.31-4.49a91.57,91.57,0,0,1,8.29-9.1c2.06-2,4.09-4.05,6.2-6a37.25,37.25,0,0,1,3.6-2.94,1.2,1.2,0,0,1,1.82.11,1.28,1.28,0,0,1-.65,1.8A22.27,22.27,0,0,0,187.77,91c-1.75,1.75-3.59,3.41-5.33,5.17a48.1,48.1,0,0,0-4,4.09c-2.55,3.34-5.49,6.39-7.46,10.15a3.7,3.7,0,0,0,.51,4.48c3.57,4.28,8.05,6.72,13.71,6.6A25.17,25.17,0,0,0,197.78,118c1.28-.77,2.73-1.51,3.32-3.12a1.07,1.07,0,0,1,1.35-.63c.59.15.57.66.59,1.14.08,1.91-.13,3.81-.2,5.71,0,.4-.25,1,.2,1.18s.68-.45,1-.75c.66-.71,1.26-1.48,1.9-2.21a24.7,24.7,0,0,1,5.11-4.46c1-.62,1.74-.54,2.08.12s.07,1.54-.9,2c-4.14,1.89-6.63,5.44-9,9.05-.74,1.12-.61,2.64-.79,4,0,.25,0,.51,0,.76-.1.58-.4,1.06-1,1.07s-1-.5-1.09-1.12a3.24,3.24,0,0,1,0-.44,71.44,71.44,0,0,1,.37-10.13c.06-.41.23-.91-.19-1.2s-.66.16-1,.28c-2.35.9-4.44,2.4-6.91,3.06-5.25,1.4-10.44,1.6-15.59-.54a33.28,33.28,0,0,1-5.91-3.32c-.2-.13-.35-.42-.64-.27s-.22.43-.24.68a1.48,1.48,0,0,0,0,.21c0,7-.42,14-.18,21.06.07,2.16,0,4.4,1.48,6.3.52.7,0,1.34-.88,1.28s-1.23-.66-1.5-1.36A17.1,17.1,0,0,1,168,141c-.13-2.91-.3-5.82-.28-8.74,0-8.86-.06-17.72.05-26.58a132.39,132.39,0,0,1,1.5-19.89,6.82,6.82,0,0,1,.73-2.36,1.44,1.44,0,0,1,1.82-.76c.86.29.53,1,.43,1.56a113,113,0,0,0-1.91,21.79v1.06Z"></path>
  <path class="cls-14" d="M333.09,91.39c-2.16,1.57-4,3.14-4.9,5.61-.22.61-.34,1.35-1.27,1.11a1.32,1.32,0,0,1-1-1.76,5.61,5.61,0,0,1,1.39-2.65,24.14,24.14,0,0,1,5.49-4.84,2,2,0,0,0,.93-1.26,13.23,13.23,0,0,1,.72-2.26,1.39,1.39,0,0,1,1.76-.88c.79.25.7.89.58,1.52s.13,1,.88.76a14.41,14.41,0,0,1,3.18-.61c3.38-.37,5.79,1.93,6,5.69a12.27,12.27,0,0,1-1.79,7.12,76.23,76.23,0,0,1-9.88,12.49,9.63,9.63,0,0,1-1.72,1.47,3.6,3.6,0,0,0-1.65,2.77c-.2,1.49-.45,3-.72,4.47a5.65,5.65,0,0,0,1,3.78,42.84,42.84,0,0,0,9.52,11.38,23,23,0,0,0,5,3.53,6.1,6.1,0,0,0,4.93.25l2.25-.78a1.26,1.26,0,0,1,1.77.76c.3.8-.35,1.13-.89,1.37-3.69,1.69-7.32,1.77-10.8-.56a40,40,0,0,1-11.57-11.49c-.56-.87-1.09-1.77-1.65-2.68-.38.34-.23.73-.24,1.06-.11,3.84-.52,7.67-.81,11.51-.2,2.61-.52,5.22-.51,7.85,0,.48.13,1.11-.54,1.26s-1-.32-1.33-.87a4,4,0,0,1-.56-2.46c.45-5.05,1.2-10.07,1.53-15.13.13-2,.32-3.94.46-5.91a5.8,5.8,0,0,0-.43-3.07,7.58,7.58,0,0,1-.4-3.92,2.17,2.17,0,0,1,1-1.74,3.44,3.44,0,0,0,1.5-2.61c.92-6.59,1.9-13.17,2.85-19.76A2.32,2.32,0,0,0,333.09,91.39Zm7.31-2.7a14.23,14.23,0,0,0-2.14.3,2.67,2.67,0,0,0-2.32,2.34c-.42,3.17-1.06,6.31-1.59,9.47-.5,3-1,6-1.45,9,0,.27-.19.59.16.76.18.09.33-.08.45-.22.83-.9,1.68-1.78,2.48-2.71a65.65,65.65,0,0,0,6.28-8.36A10.52,10.52,0,0,0,344,91.43C343.66,89.56,342.61,88.68,340.4,88.69Z"></path>
  <path class="cls-14" d="M270,141.33a24.82,24.82,0,0,1,3.43-11.78c.82-1.51,1.32-2.88.45-4.55a36.75,36.75,0,0,1-1.62-4c-.29-.75-.7-.8-1.32-.38a20.57,20.57,0,0,1-9.87,3.82,1.21,1.21,0,0,0-1.29,1.28,6.14,6.14,0,0,1-.94,2.62,3.51,3.51,0,0,1-6.31-.34,11.78,11.78,0,0,1-.63-8.71,6.69,6.69,0,0,1,2.59-4.19,1,1,0,0,0,.27-1.43,1.93,1.93,0,0,1-.15-1.86,1.69,1.69,0,0,1,1.63-.87,1.43,1.43,0,0,1,1.41,1.13,47.74,47.74,0,0,1,1.95,7.61c.08.57.15,1.14.22,1.72.12,1.13.37,1.36,1.53,1.19a17.29,17.29,0,0,0,8.78-3.89,1.45,1.45,0,0,0,.54-1.8c-.35-.94-.62-1.92-.9-2.88a4.64,4.64,0,0,1,4.41-6.09c1.68-.06,3.33,0,4.56,1.45a3.38,3.38,0,0,1,.79,2.07,1,1,0,0,1-.65,1.13,1,1,0,0,1-1.22-.45,4.06,4.06,0,0,0-2.52-1.89,2.25,2.25,0,0,0-3,2.2,8.26,8.26,0,0,0,.63,3c1,2.92,2.18,5.79,3.26,8.69.31.84.64.3.9,0a35.88,35.88,0,0,1,4.27-3.81,20.65,20.65,0,0,1,3.54-2.08c.62-.28,1.4-.54,1.8.27s-.21,1.25-.86,1.62a41.28,41.28,0,0,0-5.36,3.43,22.74,22.74,0,0,0-1.93,1.87,3.3,3.3,0,0,0-.79,3.79,20.07,20.07,0,0,1,.3,10.87,10.7,10.7,0,0,1-2.66,4.88,3.36,3.36,0,0,1-3.41.85c-1-.26-1.44-1.19-1.68-2.19A11.09,11.09,0,0,1,270,141.33Zm6.08-4.18a18.24,18.24,0,0,0-.83-5.81c-.06-.21-.12-.45-.36-.5s-.35.2-.44.39a23.83,23.83,0,0,0-2.67,9.93c0,.86-.19,2,1,2.34.72.21,1.76-.61,2.27-1.69a2.85,2.85,0,0,0,.12-.31A11.25,11.25,0,0,0,276.06,137.15Zm-21.89-17c0,1.36,2.1,2.68,3.06,2.21a.57.57,0,0,0,.35-.61,12.32,12.32,0,0,0-1.32-4.63c-.18-.32-.54-.59-.82-.06A9.69,9.69,0,0,0,254.17,120.12Zm1.49,7.44c1,0,2.26-1.9,1.85-2.78a.8.8,0,0,0-.27-.31,7.86,7.86,0,0,0-3-.56c-.6.69,0,1.44-.06,2.16a.67.67,0,0,0,0,.31A1.66,1.66,0,0,0,255.66,127.56Z"></path>
  <path class="cls-14" d="M213.25,124.34a11.54,11.54,0,0,1,2.62-8.34c.84-.94,1.47-1.76,1.16-3.11a1.17,1.17,0,0,1,1.06-1.49,1.56,1.56,0,0,1,2,1.25c.37,3,1.39,5.81,1.85,8.77.22,1.41.38,1.54,1.74,1.25,2.9-.6,5.76-1.3,8.19-3.16.89-.68,1.49-1.33,1.32-2.48a3.25,3.25,0,0,1,0-.54.89.89,0,0,1,.9-1,.93.93,0,0,1,1.15.84,50.09,50.09,0,0,1,.55,5c.08,1.15.16,2.29.25,3.44,0,.25,0,.55.32.61s.33-.23.45-.39c.66-.85,1.32-1.71,2-2.56a9.06,9.06,0,0,1,.69-.82c1.71-1.69,3.37-1.16,4.46.81a58,58,0,0,1,2.69,5.76c.62,1.49,1.18,1.57,2.42.51a3.06,3.06,0,0,1,.77-.58.83.83,0,0,1,1.21.78c0,1.15-2.07,3.44-3.49,3.15a2.54,2.54,0,0,1-1.91-1.24c-1.2-2-1.88-4.27-3.19-6.24s-1.43-1.92-2.66-.06c-.94,1.41-1.8,2.86-2.73,4.28a4.81,4.81,0,0,1-.91,1.05,1.22,1.22,0,0,1-2.08-.67c-.24-1.63-.32-3.29-.43-4.94,0-.82,0-1.65,0-2.48s-.32-.94-1-.51a20.3,20.3,0,0,1-9.61,3.28,1.26,1.26,0,0,0-1.23,1,21.69,21.69,0,0,1-1.05,2.71c-.56,1.16-1.3,2.24-2.76,2.26a4,4,0,0,1-4.09-2.59A9.7,9.7,0,0,1,213.25,124.34Zm6.47-2.64a15.53,15.53,0,0,0-1.26-4.2c-.13-.37-.44-.55-.74-.21a4.8,4.8,0,0,0-1.37,3.63c.12,1.17,1.34,1.37,2.29,1.68C219.42,122.85,219.84,122.59,219.72,121.7Zm-3.91,3.72c.12.6-.1,1.53.64,2.17a1.38,1.38,0,0,0,1.79.17,3.08,3.08,0,0,0,1.16-2.54c.06-.72-.72-.64-1.19-.81-.3-.11-.63-.16-.93-.27C215.88,123.63,215.81,123.68,215.81,125.42Z"></path>
  <path class="cls-14" d="M299.55,115.26c-.54.06-1.15.15-1.76.2a1.62,1.62,0,0,1-1.69-.73,1.64,1.64,0,0,1,.08-2,17.27,17.27,0,0,1,8.68-5.76,2.28,2.28,0,0,1,1.39,0c.68.25,1.33.59,1.09,1.46s-.94,1.42-1.71,1.1c-1.52-.64-2.57.14-3.65.91-.85.6-1.62,1.31-2.42,2-.18.15-.45.31-.3.61s.41.25.66.28c.86.08,1.73.12,2.58.24.7.1,1.49.06,1.81.92s-.19,1.32-.64,1.83c-1,1.08-1.93,2.14-2.94,3.17a21.08,21.08,0,0,0-2.2,2.79,1.65,1.65,0,0,0-.19,1.93c.39.6,1.13.42,1.7.3a4.43,4.43,0,0,0,2.61-1.62c.64-.78,1.21-1.61,1.79-2.44a1.17,1.17,0,0,1,1.68-.44c.66.38.34.92.1,1.41a12.93,12.93,0,0,1-4.32,5,3.82,3.82,0,0,1-5.18-.58c-1.22-1.32-1.13-3.45.07-5.18a30.54,30.54,0,0,1,3.48-4c.31-.32.92-.61.72-1.1S300.09,115.39,299.55,115.26Z"></path>
  <path class="cls-14" d="M300.52,135.1l.24-4.63c0-.74.39-1.16,1.15-1.12s1,.52,1,1.17c0,1.3-.48,2.55-.42,3.86a17.19,17.19,0,0,0,.14,2.48c.13.69,0,1.34-.83,1.5s-1-.46-1.12-1.11A10.37,10.37,0,0,1,300.52,135.1Z"></path>
  <path class="cls-14" d="M299.87,103.45a9.8,9.8,0,0,1,.53-2.87,1,1,0,0,1,1-.79c.64.08.62.63.6,1.09-.07,1.46-.47,2.91.13,4.37.16.39-.19.74-.63.86a1,1,0,0,1-1.21-.5A4,4,0,0,1,299.87,103.45Z"></path>
  <path class="cls-14" d="M451,88.67l-.64-.33-.37,1.4,4.85.31-.65-1.13-3.56,5.35L448.85,97a18.94,18.94,0,0,0-1.55,2.44,2.08,2.08,0,0,0,1.76,3.13,4,4,0,0,0,2-.46c.73-.36,1.56-1.08,2.44-.9s1.35-1.25.4-1.45a3.37,3.37,0,0,0-2.12.28,17.12,17.12,0,0,1-1.87.93c-.36.11-1.06.26-1.34-.1-.4-.52.54-1.59.8-2l6.11-9.16a.76.76,0,0,0-.65-1.13L450,88.24a.75.75,0,0,0-.38,1.39l.63.33c.86.44,1.62-.85.76-1.29Z"></path>
  <path class="cls-14" d="M459.53,95.86c1.75-.34,3.73-1.07,3.88-3.13a2.1,2.1,0,0,0-1.32-2.15,2.78,2.78,0,0,0-2.57.37A8.89,8.89,0,0,0,457.58,93a8,8,0,0,0-1.35,2.51,3.4,3.4,0,0,0,2.12,4.33c2.11.84,4.26-.2,6.1-1.2.85-.46.1-1.76-.75-1.3a7.25,7.25,0,0,1-4,1.3,2.15,2.15,0,0,1-2.12-2c0-1.34,1-2.58,1.82-3.56a3.22,3.22,0,0,1,1.48-1.2c.39-.1.91,0,1,.41a1.33,1.33,0,0,1-.58,1.32,5.23,5.23,0,0,1-2.17.73.75.75,0,1,0,.39,1.45Z"></path>
  <path class="cls-14" d="M466.57,91.23,466,101.48l1.47-.2a15.8,15.8,0,0,1,.52-7A14.73,14.73,0,0,1,469.38,91a2.32,2.32,0,0,1,1-1c.4-.17.83-.09.93.37.19.9-.71,1.7-1.33,2.18a19.5,19.5,0,0,0-2.5,1.92c-1.37,1.47-1.85,3.87.06,5.13a9.21,9.21,0,0,0,3.41,1l4.42.89c.95.19,1.35-1.25.4-1.44l-4.3-.87c-1-.21-2.44-.29-3.28-1s-.32-1.94.29-2.63a23.32,23.32,0,0,1,2.78-2.17,4,4,0,0,0,1.55-2.68,2.1,2.1,0,0,0-1.44-2.26c-2.56-.73-3.93,2.78-4.59,4.6a17.47,17.47,0,0,0-.79,8.6c.14.88,1.43.6,1.48-.2l.61-10.25c.06-1-1.44-1-1.5,0Z"></path>
  <path class="cls-14" d="M479.38,91.61c-1.5,1.18-2.93,2.72-2.91,4.74a3.37,3.37,0,0,0,1,2.51,3.78,3.78,0,0,0,2.24.91,4.26,4.26,0,0,0,4.07-2.26,4,4,0,0,0-.45-4.71,3.68,3.68,0,0,0-4.9-.34.75.75,0,0,0,1.06,1.06l.29-.18c.13-.07.06,0,0,0l.21-.07.22,0h0a2.33,2.33,0,0,1,.53,0l.15,0c-.15,0,.1,0,.1,0l.38.11a1.71,1.71,0,0,1,.31.15l.14.08s.24.17.16.1a2.06,2.06,0,0,1,.77,1.3,3,3,0,0,1-.21,1.58,2.82,2.82,0,0,1-2.48,1.75,2.3,2.3,0,0,1-1.43-.37,1.71,1.71,0,0,1-.45-.44,2.06,2.06,0,0,1-.31-.92c-.13-1.68,1.26-2.93,2.47-3.88a.75.75,0,0,0,0-1.06.77.77,0,0,0-1.06,0Z"></path>
  <path class="cls-14" d="M442.55,109.07a20.11,20.11,0,0,0,0,9.93.75.75,0,0,0,1.25.33,10.83,10.83,0,0,0,4-8.79c0-1-1.54-1-1.5,0,.06,1.83.2,3.75,1.43,5.21a3.73,3.73,0,0,0,4.36,1,5.39,5.39,0,0,0,3-3.52,13.35,13.35,0,0,0-.14-5.93c-.17-1-1.62-.54-1.45.4.45,2.55,1,6.08-1.76,7.55a2.27,2.27,0,0,1-3-.57c-.93-1.15-1-2.75-1-4.15h-1.5a9.4,9.4,0,0,1-3.59,7.73l1.26.33a18.33,18.33,0,0,1,0-9.13.75.75,0,0,0-1.45-.4Z"></path>
  <path class="cls-14" d="M456.64,117.16a23.64,23.64,0,0,1,3.67-10.39l-1.37-.17a59.31,59.31,0,0,0,3.78,11.05c.3.65,1.49.35,1.4-.38-.28-2.1-.65-4.57-2.57-5.83a3.5,3.5,0,0,0-4.86.69c-.53.81.77,1.56,1.3.75.64-1,2.19-.66,3,0,1.24,1,1.46,2.94,1.66,4.42l1.39-.38a57.55,57.55,0,0,1-3.63-10.69A.76.76,0,0,0,459,106a25.28,25.28,0,0,0-3.87,11.14c-.1,1,1.4,1,1.5,0Z"></path>
  <path class="cls-14" d="M469.48,108.55a2,2,0,0,0-2.69-1.72c-1.42.44-1.81,2.11-1.52,3.4.35,1.5,1.56,2.54,2.29,3.83.38.67.68,2-.07,2.56-.49.37-1.15,0-1.44-.45a2.23,2.23,0,0,1,.16-2.2c.46-.85-.84-1.61-1.3-.76a3.56,3.56,0,0,0,.3,4.28,2.43,2.43,0,0,0,3.57,0,3.63,3.63,0,0,0,.36-3.55c-.56-1.39-1.89-2.37-2.35-3.8-.16-.52-.25-1.39.28-1.75.23-.16.89-.14.91.21,0,1,1.55,1,1.5,0Z"></path>
  <path class="cls-14" d="M475.26,107.81l1.23,11.93a.75.75,0,0,0,1.5,0l0-.65c.07-1-1.43-1-1.5,0l0,.65H478l-1.23-11.93c-.1-1-1.6-1-1.5,0Z"></path>
  <path class="cls-14" d="M469.37,109.58l15.36-1.45c1-.09,1-1.59,0-1.5l-15.36,1.45c-1,.09-1,1.59,0,1.5Z"></path>
  <path class="cls-14" d="M482.58,112.78a14,14,0,0,0,3.75-1.08,9.08,9.08,0,0,0,3.07-2,2.1,2.1,0,0,0,.13-3,3.11,3.11,0,0,0-2.91-.41,5.84,5.84,0,1,0,5.09,10.28.78.78,0,0,0,.27-1,.75.75,0,0,0-1-.27,4.51,4.51,0,0,1-4.63.56,4.43,4.43,0,0,1-2.46-3.78,4.35,4.35,0,0,1,2.13-3.86,3.22,3.22,0,0,1,2.06-.56c.82.13.6.74.13,1.21a8.88,8.88,0,0,1-2.73,1.63,12.78,12.78,0,0,1-3.27.89.75.75,0,0,0-.52.92.77.77,0,0,0,.92.52Z"></path>
  <path class="cls-14" d="M454.8,125.73A3.72,3.72,0,0,0,451,126a3.61,3.61,0,0,0-1.55,3.81c.36,1.79,1.8,3.09,2.28,4.82a2.08,2.08,0,0,1-.3,2,1.82,1.82,0,0,1-1.6.43c-1.76-.29-2.24-2.35-2-3.86.17-.94-1.28-1.34-1.45-.39a5.24,5.24,0,0,0,1.25,4.78,3.67,3.67,0,0,0,4.22.57c1.63-.92,1.72-3,1.1-4.53a18.54,18.54,0,0,0-1.36-2.52,4.12,4.12,0,0,1-.75-2.51A2.28,2.28,0,0,1,454,127c.85.46,1.61-.83.76-1.3Z"></path>
  <path class="cls-14" d="M459.43,128.46l0-.65a.76.76,0,0,0-1.48-.2l-1.28,8.6a.79.79,0,0,0,.53.93.76.76,0,0,0,.92-.53l1.28-8.6-1.47-.2,0,.65c0,1,1.54,1,1.5,0Z"></path>
  <path class="cls-14" d="M463.93,136.29a28,28,0,0,0,1.26-9.93c-.05-1-1.52-1-1.5,0a5.51,5.51,0,0,1-6.15,5.66.76.76,0,0,0-.75.75.77.77,0,0,0,.75.75,7,7,0,0,0,7.65-7.16h-1.5a27,27,0,0,1-1.2,9.53c-.29.92,1.15,1.32,1.44.4Z"></path>
  <path class="cls-14" d="M471,128.61a5.47,5.47,0,0,0-3.77,2.43,3.5,3.5,0,0,0,1,4.4c2.94,2.31,7.66-.64,7.12-4.27-.27-1.82-2.39-3.19-4.08-2.18a.75.75,0,0,0,.75,1.3,1.05,1.05,0,0,1,1.07,0,1.46,1.46,0,0,1,.78,1.06,3,3,0,0,1-1.48,2.87,2.81,2.81,0,0,1-3.08.15,2.05,2.05,0,0,1-.84-2.5,4,4,0,0,1,2.92-1.82.76.76,0,0,0,.53-.93.78.78,0,0,0-.93-.52Z"></path>
  <path class="cls-14" d="M476.75,130.11l-.92,11.08,1.47-.2a18.32,18.32,0,0,1,.29-7.41,17.93,17.93,0,0,1,1.2-3.41c.32-.67,1-2.34,2-2,1.22.38.74,2.16.45,3a6.83,6.83,0,0,1-1.62,2.68,3,3,0,0,1-2.47.91,2.06,2.06,0,0,1-1.81-1.43.75.75,0,0,0-1.44.4,3.78,3.78,0,0,0,4.46,2.47c2.24-.43,3.62-2.64,4.33-4.63a4.25,4.25,0,0,0-.06-3.67A2.39,2.39,0,0,0,480,126.7a4.07,4.07,0,0,0-2.26,2.29,19.44,19.44,0,0,0-1.42,3.62,20.18,20.18,0,0,0-.43,8.78c.15.88,1.41.58,1.47-.2l.92-11.08c.08-1-1.42-1-1.5,0Z"></path>
  <rect class="cls-10" x="67" y="476.86" width="466" height="15"></rect>
</svg>
