<?xml version="1.0" encoding="UTF-8"?>
<svg xmlns="http://www.w3.org/2000/svg" id="Layer_1" data-name="Layer 1" viewBox="0 0 600 600">
  <defs>
    <style>.cls-1,.cls-9{fill:#fff;}.cls-2,.cls-3,.cls-8{fill:#ffde00;}.cls-2,.cls-4{fill-rule:evenodd;}.cls-10,.cls-4,.cls-7{fill:#fb715d;}.cls-5{fill:#1c19a8;}.cls-11,.cls-6{fill:#00ab81;}.cls-12,.cls-6,.cls-7,.cls-8,.cls-9{stroke:#1c19a8;}.cls-6,.cls-7,.cls-8,.cls-9{stroke-linejoin:round;stroke-width:2.82px;}.cls-12{fill:none;stroke-miterlimit:10;stroke-width:2px;}</style>
  </defs>
  <title>Shop_</title>
  <rect class="cls-1" x="82.67" y="178.98" width="446.64" height="219.74"></rect>
  <path class="cls-2" d="M152.56,289.3a.45.45,0,0,0-.32.46v2.29a.41.41,0,0,0,.36.46h.1a1.59,1.59,0,0,1-.33.63,5.6,5.6,0,0,1-1,.85,5.12,5.12,0,0,0-1.14,1.06,3.45,3.45,0,0,0-.6,1.92h0v10.67a1.85,1.85,0,0,0,1.58,2h8.41a1.85,1.85,0,0,0,1.58-2V297h0a3.36,3.36,0,0,0-.59-1.91A5.23,5.23,0,0,0,159.5,294a5.58,5.58,0,0,1-1-.86,1.44,1.44,0,0,1-.31-.63h.12a.41.41,0,0,0,.36-.46v-2.28a.48.48,0,0,0-.1-.33.33.33,0,0,0-.26-.14h-5.79Z"></path>
  <rect class="cls-3" x="116.47" y="250.59" width="12.1" height="13.61"></rect>
  <rect class="cls-3" x="135.16" y="250.59" width="12.1" height="13.61"></rect>
  <rect class="cls-3" x="131.48" y="334.74" width="12.1" height="13.61"></rect>
  <rect class="cls-3" x="157.3" y="334.74" width="12.1" height="13.61"></rect>
  <path class="cls-2" d="M119.94,289.3a.44.44,0,0,0-.33.46v2.29a.42.42,0,0,0,.37.46h.09a1.57,1.57,0,0,1-.32.63,5.7,5.7,0,0,1-1,.85,5.08,5.08,0,0,0-1.13,1.06A3.37,3.37,0,0,0,117,297h0v10.67a1.85,1.85,0,0,0,1.57,2H127a1.85,1.85,0,0,0,1.57-2V297h0a3.28,3.28,0,0,0-.59-1.91,5.19,5.19,0,0,0-1.13-1.08,5.24,5.24,0,0,1-1-.86,1.57,1.57,0,0,1-.32-.63h.12a.41.41,0,0,0,.36-.46l0-2.28a.61.61,0,0,0-.1-.33.34.34,0,0,0-.26-.14h-5.79Z"></path>
  <path class="cls-4" d="M151.24,309.67a1.85,1.85,0,0,1-1.57-2V297h0a3.37,3.37,0,0,1,.59-1.92A5.34,5.34,0,0,1,151.4,294a6.11,6.11,0,0,0,1-.85,1.57,1.57,0,0,0,.32-.63h-.1a.41.41,0,0,1-.36-.46v-2.29a.45.45,0,0,1,.32-.46H157v-.16h0a6,6,0,0,0-1.07-3.48,9.3,9.3,0,0,0-2.07-2,9.61,9.61,0,0,1-1.77-1.57,2.85,2.85,0,0,1-.58-1.15h.22a.77.77,0,0,0,.66-.84l0-4.16a1,1,0,0,0-.19-.6.57.57,0,0,0-.47-.26H141.19a.82.82,0,0,0-.59.85v4.17a.77.77,0,0,0,.66.84h.18a2.83,2.83,0,0,1-.59,1.14,9.65,9.65,0,0,1-1.78,1.55,9.13,9.13,0,0,0-2.07,1.94,6.14,6.14,0,0,0-1.09,3.5h0v19.47c0,2,1.29,3.69,2.87,3.69h15.35a3.06,3.06,0,0,0,2.7-2.59Z"></path>
  <path class="cls-5" d="M159.65,310.77h-8.41a2.93,2.93,0,0,1-2.68-3.12V297a4.46,4.46,0,0,1,.81-2.57,6,6,0,0,1,1.37-1.3c.19-.14.37-.28.53-.42a1.5,1.5,0,0,1-.13-.64v-2.29a1.52,1.52,0,0,1,1.26-1.55h5.95a1.43,1.43,0,0,1,1.13.57,1.62,1.62,0,0,1,.33,1v2.29a1.58,1.58,0,0,1-.14.65c.16.15.33.28.51.42a6.1,6.1,0,0,1,1.36,1.31,4.4,4.4,0,0,1,.79,2.54v10.67A2.93,2.93,0,0,1,159.65,310.77Zm-6.31-19.11a1.37,1.37,0,0,1,.17.17,1.14,1.14,0,0,1,.25.95,2.51,2.51,0,0,1-.53,1,6.15,6.15,0,0,1-1.17,1.05,3.74,3.74,0,0,0-.9.83,2.22,2.22,0,0,0-.4,1.29v10.66c0,.56.32.92.48.92h8.41c.16,0,.47-.36.47-.92V297a2.2,2.2,0,0,0-.37-1.28,4.31,4.31,0,0,0-.91-.84,6.2,6.2,0,0,1-1.17-1.06,2.62,2.62,0,0,1-.52-1.06,1.11,1.11,0,0,1,.2-.93,1.34,1.34,0,0,1,.25-.23v-1.2h-4.27Zm4.26.38h0Zm-5-.63Z"></path>
  <path class="cls-5" d="M154.13,313.37H138.78c-2.19,0-4-2.15-4-4.8V289.1a7.23,7.23,0,0,1,1.3-4.15,9.81,9.81,0,0,1,2.3-2.17,9.58,9.58,0,0,0,1.57-1.35,2,2,0,0,1-.48-1.31V276A1.91,1.91,0,0,1,141,274h10.72a1.67,1.67,0,0,1,1.34.69,2,2,0,0,1,.42,1.28l0,4.16a2.09,2.09,0,0,1-.5,1.35,9.6,9.6,0,0,0,1.48,1.28,10.63,10.63,0,0,1,2.35,2.24,7.12,7.12,0,0,1,1.28,4.12,1.32,1.32,0,0,1-.32.87,1.16,1.16,0,0,1-.78.41h-3.66v1.26a1,1,0,0,1,.18.17,1.14,1.14,0,0,1,.25.95,2.78,2.78,0,0,1-.53,1,6.4,6.4,0,0,1-1.18,1.05,4,4,0,0,0-.9.83,2.13,2.13,0,0,0-.39,1.29v10.66c0,.56.31.92.47.92h5.58a1.1,1.1,0,0,1,1.07,1.37A4.11,4.11,0,0,1,154.13,313.37Zm-12.42-33.43a1.09,1.09,0,0,1,.51.35,1.14,1.14,0,0,1,.29.94,3.9,3.9,0,0,1-.8,1.55,10.83,10.83,0,0,1-2,1.76,8,8,0,0,0-1.84,1.7,5,5,0,0,0-.88,2.87v19.46c0,1.38.83,2.6,1.77,2.6h15.35a1.3,1.3,0,0,0,.88-.4h-3.77a2.93,2.93,0,0,1-2.67-3.12V297a4.43,4.43,0,0,1,.8-2.57,6,6,0,0,1,1.37-1.3c.18-.13.37-.28.53-.42a1.7,1.7,0,0,1-.13-.64v-2.29a1.53,1.53,0,0,1,1.27-1.55h3.39a4.54,4.54,0,0,0-.76-1.91,8.36,8.36,0,0,0-1.85-1.73,11.54,11.54,0,0,1-2-1.77,3.9,3.9,0,0,1-.78-1.58,1.08,1.08,0,0,1,.21-.93,1.1,1.1,0,0,1,.64-.39l0-3.69h-9.6Zm10.89,11.47h0Zm.74-1.66h0Z"></path>
  <rect class="cls-5" x="107.43" y="347.68" width="66.73" height="4.48"></rect>
  <path class="cls-5" d="M175.28,353.28h-69v-6.71h69Zm-66.73-2.23h64.5v-2.26h-64.5Z"></path>
  <rect class="cls-5" x="107.43" y="263.47" width="66.73" height="4.48"></rect>
  <path class="cls-5" d="M175.28,269.06h-69v-6.7h69Zm-66.73-2.22h64.5v-2.26h-64.5Z"></path>
  <rect class="cls-5" x="107.43" y="222.91" width="66.73" height="4.48"></rect>
  <path class="cls-5" d="M175.28,228.5h-69v-6.7h69Zm-66.73-2.22h64.5V224h-64.5Z"></path>
  <path class="cls-5" d="M129.68,265.31H115.36V249.48h14.32Zm-12.1-2.22h9.87V251.7h-9.87Z"></path>
  <path class="cls-5" d="M148.37,265.31H134V249.48h14.33Zm-12.1-2.22h9.88V251.7h-9.88Z"></path>
  <path class="cls-5" d="M144.7,349.47H130.37V333.63H144.7Zm-12.1-2.23h9.87V335.85H132.6Z"></path>
  <path class="cls-5" d="M170.52,349.47H156.19V333.63h14.33Zm-12.1-2.23h9.87V335.85h-9.87Z"></path>
  <path class="cls-5" d="M127,310.77h-8.41a2.93,2.93,0,0,1-2.68-3.12V297a4.51,4.51,0,0,1,.81-2.57,6,6,0,0,1,1.36-1.3c.18-.13.37-.28.53-.42a1.7,1.7,0,0,1-.13-.64v-2.29a1.54,1.54,0,0,1,1.27-1.55h6a1.43,1.43,0,0,1,1.13.57,1.63,1.63,0,0,1,.33,1l0,2.25a1.76,1.76,0,0,1-.13.66,4.22,4.22,0,0,0,.47.39,6.39,6.39,0,0,1,1.4,1.34,4.45,4.45,0,0,1,.79,2.54v10.67A2.93,2.93,0,0,1,127,310.77Zm-6.32-19.11a1,1,0,0,1,.18.17,1.14,1.14,0,0,1,.25.95,2.64,2.64,0,0,1-.53,1,6.39,6.39,0,0,1-1.18,1.05,4.21,4.21,0,0,0-.9.83,2.2,2.2,0,0,0-.39,1.29v10.66c0,.56.31.92.48.92H127c.16,0,.47-.36.47-.92V297a2.2,2.2,0,0,0-.38-1.28,4,4,0,0,0-.91-.84,6.66,6.66,0,0,1-1.17-1.06,2.66,2.66,0,0,1-.52-1.07,1.08,1.08,0,0,1,.22-.93,1.26,1.26,0,0,1,.24-.22v-1.2h-4.28ZM125,292h0Zm-5-.63Zm5-1.65v0Zm-4.28,0h0Z"></path>
  <rect class="cls-5" x="107.43" y="309.67" width="66.73" height="4.48"></rect>
  <path class="cls-5" d="M175.28,315.27h-69v-6.71h69Zm-66.73-2.22h64.5v-2.27h-64.5Z"></path>
  <line class="cls-6" x1="106.32" y1="389.18" x2="106.32" y2="221.8"></line>
  <line class="cls-6" x1="175.28" y1="389.18" x2="175.28" y2="221.8"></line>
  <path class="cls-2" d="M203,289.3a.43.43,0,0,1,.32.46v2.29a.41.41,0,0,1-.36.46h-.09a1.57,1.57,0,0,0,.32.63,5.7,5.7,0,0,0,1,.85,5.31,5.31,0,0,1,1.13,1.06,3.37,3.37,0,0,1,.6,1.92h0v10.67a1.85,1.85,0,0,1-1.58,2h-8.41a1.85,1.85,0,0,1-1.57-2V297h0a3.36,3.36,0,0,1,.58-1.91,5.47,5.47,0,0,1,1.14-1.08,5.58,5.58,0,0,0,1-.86,1.57,1.57,0,0,0,.32-.63h-.12a.41.41,0,0,1-.36-.46l0-2.28a.54.54,0,0,1,.1-.33.33.33,0,0,1,.26-.14H203Z"></path>
  <rect class="cls-3" x="227" y="250.59" width="12.1" height="13.61" transform="translate(466.11 514.79) rotate(-180)"></rect>
  <rect class="cls-3" x="208.32" y="250.59" width="12.1" height="13.61" transform="translate(428.73 514.79) rotate(-180)"></rect>
  <rect class="cls-3" x="211.99" y="334.74" width="12.1" height="13.61" transform="translate(436.08 683.09) rotate(-180)"></rect>
  <rect class="cls-3" x="186.17" y="334.74" width="12.1" height="13.61" transform="translate(384.44 683.09) rotate(-180)"></rect>
  <path class="cls-2" d="M235.64,289.3a.45.45,0,0,1,.32.46v2.29a.41.41,0,0,1-.36.46h-.1a1.57,1.57,0,0,0,.32.63,6.11,6.11,0,0,0,1,.85,5.08,5.08,0,0,1,1.13,1.06,3.3,3.3,0,0,1,.6,1.92h0v10.67a1.85,1.85,0,0,1-1.57,2h-8.41a1.85,1.85,0,0,1-1.58-2V297h0a3.28,3.28,0,0,1,.59-1.91,5.19,5.19,0,0,1,1.13-1.08,4.93,4.93,0,0,0,1-.86,1.45,1.45,0,0,0,.32-.63h-.12a.41.41,0,0,1-.36-.46l0-2.28a.55.55,0,0,1,.11-.33.31.31,0,0,1,.25-.14h5.8Z"></path>
  <path class="cls-4" d="M204.33,309.67a1.85,1.85,0,0,0,1.58-2V297h0a3.37,3.37,0,0,0-.6-1.92,5.12,5.12,0,0,0-1.14-1.06,5.6,5.6,0,0,1-1-.85,1.57,1.57,0,0,1-.32-.63H203a.41.41,0,0,0,.36-.46v-2.29a.44.44,0,0,0-.32-.46h-4.44v-.16h0a6,6,0,0,1,1.07-3.48,9.52,9.52,0,0,1,2.07-2,9.61,9.61,0,0,0,1.77-1.57,2.73,2.73,0,0,0,.58-1.15h-.22a.77.77,0,0,1-.65-.84l0-4.16a1,1,0,0,1,.19-.6.6.6,0,0,1,.47-.26h10.57a.81.81,0,0,1,.59.85v4.17a.77.77,0,0,1-.66.84h-.18a2.83,2.83,0,0,0,.59,1.14,10,10,0,0,0,1.78,1.55,9.13,9.13,0,0,1,2.07,1.94,6.06,6.06,0,0,1,1.09,3.5h0v19.47c0,2-1.29,3.69-2.87,3.69H201.45a3,3,0,0,1-2.7-2.59Z"></path>
  <path class="cls-5" d="M193.25,307.65V297a4.4,4.4,0,0,1,.79-2.54,6.1,6.1,0,0,1,1.36-1.31c.18-.14.35-.27.51-.42a1.57,1.57,0,0,1-.13-.65l0-2.29a1.69,1.69,0,0,1,.33-1,1.43,1.43,0,0,1,1.13-.57h5.95a1.52,1.52,0,0,1,1.26,1.55v2.29a1.5,1.5,0,0,1-.13.64c.16.14.35.28.53.42a6,6,0,0,1,1.37,1.3A4.46,4.46,0,0,1,207,297v10.67a2.93,2.93,0,0,1-2.68,3.12h-8.41A2.93,2.93,0,0,1,193.25,307.65Zm9-17.25H198v1.2a.92.92,0,0,1,.25.23,1.11,1.11,0,0,1,.21.93,2.65,2.65,0,0,1-.53,1.06,5.91,5.91,0,0,1-1.17,1.06,4,4,0,0,0-.9.84,2.13,2.13,0,0,0-.38,1.28v10.65c0,.56.31.92.47.92h8.41c.17,0,.48-.36.48-.92V297a2.22,2.22,0,0,0-.39-1.29,4,4,0,0,0-.91-.83,6.47,6.47,0,0,1-1.17-1.05,2.51,2.51,0,0,1-.53-1,1.14,1.14,0,0,1,.25-.95,1.37,1.37,0,0,1,.17-.17ZM198,292.05h0Zm5-.64Z"></path>
  <path class="cls-5" d="M197.68,309.94a1.1,1.1,0,0,1,1.07-1.37h5.58c.17,0,.48-.36.48-.92V297a2.27,2.27,0,0,0-.39-1.29,4.21,4.21,0,0,0-.9-.83,5.81,5.81,0,0,1-1.18-1.05,2.51,2.51,0,0,1-.53-1,1.14,1.14,0,0,1,.24-.95,1.45,1.45,0,0,1,.18-.17V290.4h-3.66a1.2,1.2,0,0,1-.78-.41,1.32,1.32,0,0,1-.32-.87,7.19,7.19,0,0,1,1.28-4.12,10.66,10.66,0,0,1,2.36-2.24,10,10,0,0,0,1.47-1.28,2.08,2.08,0,0,1-.49-1.35l0-4.16a2.11,2.11,0,0,1,.42-1.28,1.67,1.67,0,0,1,1.34-.69h10.72a1.91,1.91,0,0,1,1.54,1.94v4.17a2,2,0,0,1-.48,1.31,10,10,0,0,0,1.57,1.35,9.62,9.62,0,0,1,2.3,2.17,7.23,7.23,0,0,1,1.3,4.15v19.47c0,2.65-1.78,4.8-4,4.8H201.45A4.12,4.12,0,0,1,197.68,309.94Zm16.19-33.74h-9.61l0,3.69a1.09,1.09,0,0,1,.85,1.32,3.9,3.9,0,0,1-.78,1.58,10.82,10.82,0,0,1-2,1.77,8.36,8.36,0,0,0-1.85,1.73,4.68,4.68,0,0,0-.76,1.91h3.39a1.52,1.52,0,0,1,1.27,1.55v2.29a1.53,1.53,0,0,1-.13.64c.16.14.35.29.53.42a5.84,5.84,0,0,1,1.37,1.3A4.51,4.51,0,0,1,207,297v10.67a2.93,2.93,0,0,1-2.68,3.12h-3.77a1.32,1.32,0,0,0,.89.4h15.34c1,0,1.77-1.22,1.77-2.6V289.11a4.92,4.92,0,0,0-.88-2.87,8,8,0,0,0-1.84-1.7,10.83,10.83,0,0,1-2-1.76,3.88,3.88,0,0,1-.79-1.55,1.13,1.13,0,0,1,.28-.94,1.12,1.12,0,0,1,.52-.35ZM203,291.41Zm-.74-1.65h0Z"></path>
  <rect class="cls-5" x="181.41" y="347.68" width="66.73" height="4.48" transform="translate(429.55 699.85) rotate(-180)"></rect>
  <path class="cls-5" d="M180.3,346.57h68.95v6.71H180.3ZM247,348.79H182.52v2.26H247Z"></path>
  <rect class="cls-5" x="181.41" y="263.47" width="66.73" height="4.48" transform="translate(429.55 531.42) rotate(-180)"></rect>
  <path class="cls-5" d="M180.3,262.36h68.95v6.7H180.3ZM247,264.58H182.52v2.26H247Z"></path>
  <rect class="cls-5" x="181.41" y="222.91" width="66.73" height="4.48" transform="translate(429.55 450.3) rotate(-180)"></rect>
  <path class="cls-5" d="M180.3,221.8h68.95v6.7H180.3ZM247,224H182.52v2.26H247Z"></path>
  <path class="cls-5" d="M225.89,249.48h14.33v15.83H225.89ZM238,251.7h-9.87v11.39H238Z"></path>
  <path class="cls-5" d="M207.2,249.48h14.33v15.83H207.2Zm12.1,2.22h-9.87v11.39h9.87Z"></path>
  <path class="cls-5" d="M210.88,333.63H225.2v15.84H210.88Zm12.1,2.22H213.1v11.39H223Z"></path>
  <path class="cls-5" d="M185.06,333.63h14.32v15.84H185.06Zm12.1,2.22h-9.88v11.39h9.88Z"></path>
  <path class="cls-5" d="M225.87,307.65V297a4.46,4.46,0,0,1,.8-2.54,6.15,6.15,0,0,1,1.39-1.34,4.22,4.22,0,0,0,.47-.39,1.76,1.76,0,0,1-.13-.66l0-2.25a1.64,1.64,0,0,1,.34-1,1.43,1.43,0,0,1,1.12-.57h5.95a1.53,1.53,0,0,1,1.27,1.55v2.29a1.7,1.7,0,0,1-.13.64c.16.14.36.29.53.42a6.25,6.25,0,0,1,1.37,1.3,4.5,4.5,0,0,1,.8,2.57v10.67a2.93,2.93,0,0,1-2.67,3.12h-8.41A2.93,2.93,0,0,1,225.87,307.65Zm9-17.25h-4.27v1.2a1.26,1.26,0,0,1,.24.22,1.08,1.08,0,0,1,.21.93,2.66,2.66,0,0,1-.52,1.07,6.33,6.33,0,0,1-1.17,1.06,4.27,4.27,0,0,0-.91.84,2.28,2.28,0,0,0-.38,1.28v10.65c0,.56.31.92.48.92H237c.16,0,.47-.36.47-.92V297a2.2,2.2,0,0,0-.39-1.29,4,4,0,0,0-.9-.83,6.74,6.74,0,0,1-1.18-1.05,2.78,2.78,0,0,1-.53-1,1.14,1.14,0,0,1,.25-.95,1,1,0,0,1,.18-.17Zm-4.26,1.65h0Zm5-.64h0Zm-5-1.63v0Zm4.28,0h0Z"></path>
  <rect class="cls-5" x="181.41" y="309.67" width="66.73" height="4.48" transform="translate(429.55 623.83) rotate(-180)"></rect>
  <path class="cls-5" d="M180.3,308.56h68.95v6.71H180.3ZM247,310.78H182.52v2.27H247Z"></path>
  <line class="cls-6" x1="249.25" y1="389.18" x2="249.25" y2="221.8"></line>
  <line class="cls-6" x1="180.3" y1="389.18" x2="180.3" y2="221.8"></line>
  <path class="cls-5" d="M355.86,341.51v21.05a1.41,1.41,0,0,0,1.41,1.4h9.63l-5.72,29.28a1.41,1.41,0,0,0,1.38,1.67H370a1.41,1.41,0,0,0,1.39-1.13L377.16,364h22.39a1.41,1.41,0,0,0,1.41-1.4V341.51a1.41,1.41,0,0,0-1.41-1.41H381.82l3.57-18.23h13.46a1.41,1.41,0,0,0,1.4-1.41v-21a1.4,1.4,0,0,0-1.4-1.4h-8.79l8.73-44.8a1.41,1.41,0,0,0-.21-1.06,1.39,1.39,0,0,0-.9-.59l-7.11-1.39a1.41,1.41,0,0,0-1.66,1.11L379.8,298H366.66a1.41,1.41,0,0,0-1.41,1.4v21a1.41,1.41,0,0,0,1.41,1.41h8.47l-3.56,18.23h-14.3A1.41,1.41,0,0,0,355.86,341.51Z"></path>
  <rect class="cls-6" x="420.49" y="225.44" width="102.37" height="228.55"></rect>
  <rect class="cls-7" x="63.61" y="475.6" width="487.31" height="15.75"></rect>
  <rect class="cls-8" x="420.49" y="189.19" width="101.88" height="36.25"></rect>
  <rect class="cls-9" x="447.83" y="369.95" width="47.83" height="13.03"></rect>
  <rect class="cls-9" x="480.36" y="246.57" width="25.54" height="112.19"></rect>
  <rect class="cls-9" x="437.04" y="246.57" width="25.54" height="112.19"></rect>
  <rect class="cls-6" x="476.28" y="394.18" width="29.63" height="49.06"></rect>
  <rect class="cls-6" x="437.04" y="394.18" width="29.63" height="49.06"></rect>
  <rect class="cls-6" x="63.61" y="126.6" width="487.31" height="11.01"></rect>
  <rect class="cls-8" x="70.83" y="148.62" width="463.3" height="40.57"></rect>
  <rect class="cls-10" x="99.2" y="361.19" width="31.88" height="4.57" rx="0.61"></rect>
  <path class="cls-10" d="M131.08,397.31V371.2a5.44,5.44,0,0,0-5.44-5.44h-21a5.45,5.45,0,0,0-5.44,5.44v26.11Z"></path>
  <path class="cls-5" d="M128.8,367.17H101.48a3.7,3.7,0,0,1,0-7.39H128.8a3.7,3.7,0,0,1,0,7.39Zm-27.32-4.57a.88.88,0,0,0,0,1.75H128.8a.88.88,0,1,0,0-1.75Z"></path>
  <path class="cls-5" d="M131.08,398.72H99.2a1.41,1.41,0,0,1-1.41-1.41v-26.1a6.87,6.87,0,0,1,6.85-6.86h21a6.86,6.86,0,0,1,6.85,6.86v26.1A1.41,1.41,0,0,1,131.08,398.72Zm-30.47-2.81h29.07v-24.7a4,4,0,0,0-4-4h-21a4,4,0,0,0-4,4Z"></path>
  <rect class="cls-10" x="131.08" y="361.19" width="31.88" height="4.57" rx="0.61"></rect>
  <path class="cls-10" d="M163,397.31V371.2a5.45,5.45,0,0,0-5.45-5.44h-21a5.45,5.45,0,0,0-5.45,5.44v26.11Z"></path>
  <path class="cls-5" d="M160.68,367.17H133.37a3.7,3.7,0,0,1,0-7.39h27.31a3.7,3.7,0,0,1,0,7.39Zm-27.31-4.57a.88.88,0,1,0,0,1.75h27.31a.88.88,0,1,0,0-1.75Z"></path>
  <path class="cls-5" d="M163,398.72H131.08a1.41,1.41,0,0,1-1.4-1.41v-26.1a6.86,6.86,0,0,1,6.84-6.86h21a6.86,6.86,0,0,1,6.85,6.86v26.1A1.41,1.41,0,0,1,163,398.72Zm-30.47-2.81h29.07v-24.7a4,4,0,0,0-4-4h-21a4,4,0,0,0-4,4Z"></path>
  <rect class="cls-10" x="162.96" y="361.19" width="31.88" height="4.57" rx="0.61"></rect>
  <path class="cls-10" d="M194.85,397.31V371.2a5.45,5.45,0,0,0-5.45-5.44h-21A5.45,5.45,0,0,0,163,371.2v26.11Z"></path>
  <path class="cls-5" d="M192.56,367.17H165.25a3.7,3.7,0,0,1,0-7.39h27.31a3.7,3.7,0,0,1,0,7.39Zm-27.31-4.57a.88.88,0,1,0,0,1.75h27.31a.88.88,0,1,0,0-1.75Z"></path>
  <path class="cls-5" d="M194.85,398.72H163a1.41,1.41,0,0,1-1.4-1.41v-26.1a6.86,6.86,0,0,1,6.85-6.86h21a6.86,6.86,0,0,1,6.85,6.86v26.1A1.41,1.41,0,0,1,194.85,398.72Zm-30.48-2.81h29.07v-24.7a4,4,0,0,0-4-4h-21a4,4,0,0,0-4,4Z"></path>
  <rect class="cls-10" x="194.85" y="361.19" width="31.88" height="4.57" rx="0.61"></rect>
  <path class="cls-10" d="M226.73,397.31V371.2a5.45,5.45,0,0,0-5.44-5.44h-21a5.44,5.44,0,0,0-5.44,5.44v26.11Z"></path>
  <path class="cls-5" d="M224.44,367.17H197.13a3.7,3.7,0,0,1,0-7.39h27.31a3.7,3.7,0,1,1,0,7.39Zm-27.31-4.57a.88.88,0,1,0,0,1.75h27.31a.88.88,0,1,0,0-1.75Z"></path>
  <path class="cls-5" d="M226.73,398.72H194.85a1.41,1.41,0,0,1-1.41-1.41v-26.1a6.86,6.86,0,0,1,6.85-6.86h21a6.87,6.87,0,0,1,6.85,6.86v26.1A1.41,1.41,0,0,1,226.73,398.72Zm-30.48-2.81h29.07v-24.7a4,4,0,0,0-4-4h-21a4,4,0,0,0-4,4Z"></path>
  <rect class="cls-10" x="226.73" y="361.19" width="31.88" height="4.57" rx="0.61"></rect>
  <path class="cls-10" d="M258.61,397.31V371.2a5.44,5.44,0,0,0-5.44-5.44h-21a5.45,5.45,0,0,0-5.44,5.44v26.11Z"></path>
  <path class="cls-5" d="M256.33,367.17H229a3.7,3.7,0,0,1,0-7.39h27.32a3.7,3.7,0,0,1,0,7.39ZM229,362.6a.88.88,0,0,0,0,1.75h27.32a.88.88,0,1,0,0-1.75Z"></path>
  <path class="cls-5" d="M258.61,398.72H226.73a1.41,1.41,0,0,1-1.41-1.41v-26.1a6.87,6.87,0,0,1,6.85-6.86h21a6.86,6.86,0,0,1,6.85,6.86v26.1A1.41,1.41,0,0,1,258.61,398.72Zm-30.47-2.81h29.07v-24.7a4,4,0,0,0-4-4h-21a4,4,0,0,0-4,4Z"></path>
  <polygon class="cls-3" points="344.65 374.23 313.14 374.23 319.13 404.25 338.66 404.25 344.65 374.23"></polygon>
  <path class="cls-11" d="M340,372.36a12.2,12.2,0,0,0,1.13-1.52c.38-.61.81-1.2,1.24-1.78a21.68,21.68,0,0,0,2-3c2-4.12,1.35-8.9.78-12.74a1.07,1.07,0,0,0-.64-.85,1.1,1.1,0,0,0-.44-.07c.05-.36.09-.73.13-1.09a64.61,64.61,0,0,0,.16-11l-.15-1.89c-.38-4.55-.76-9.25,1.58-12.79a1.09,1.09,0,0,0-1.78-1.27,27.3,27.3,0,0,0-3.67,5.82c-1.32,3.15-1.42,6.55-1.53,9.83,0,.75-.05,1.5-.09,2.24a27.06,27.06,0,0,1-1-7.59,26.09,26.09,0,0,1,.62-3.37c.17-.77.34-1.54.47-2.31.83-4.75.17-9.55-.46-14.19a58.46,58.46,0,0,1-.81-10.55,1.09,1.09,0,0,0-.92-1.12,1.11,1.11,0,0,0-1.23.77c-1.19,4.08-1.19,8.34-1.19,12.46a56.76,56.76,0,0,1-.54,9.41c-.34,1.93-.91,3.9-1.45,5.81-.5,1.71-1,3.46-1.35,5.23-.2-.67-.42-1.33-.57-2a22.61,22.61,0,0,1,.73-12.2,1.09,1.09,0,0,0-.48-1.3,1.11,1.11,0,0,0-1.38.22c-4.63,5.28-5.09,12.64-4.67,17.89.08,1,.19,2,.3,3a31.14,31.14,0,0,1-5.61-20.91,1.1,1.1,0,0,0-.93-1.19,1.08,1.08,0,0,0-1.23.87c-2,10.59-1.77,19.2.84,26.34a64.79,64.79,0,0,0,3,6.6c.66,1.3,1.31,2.61,1.91,3.93l.29.67.41.9a17.23,17.23,0,0,0-3.6-1.58l-.66-.23a34.25,34.25,0,0,1-9.55-5.16,1.1,1.1,0,0,0-1.26,0,1.12,1.12,0,0,0-.47,1.17c.69,2.89,2.51,5.19,4.28,7.41a37.61,37.61,0,0,1,2.53,3.45,16.62,16.62,0,0,1,2.41,9h22.35Z"></path>
  <path class="cls-5" d="M343.51,369.91a21.85,21.85,0,0,0,2.08-3.23c2.25-4.52,1.51-9.55.92-13.59a2.5,2.5,0,0,0-.94-1.64v0a66.47,66.47,0,0,0,.15-11.29l-.14-1.9c-.36-4.3-.73-8.74,1.34-11.87a2.52,2.52,0,0,0-.64-3.48,2.56,2.56,0,0,0-3.51.53c-.8,1.05-1.6,2.11-2.33,3.26a57.31,57.31,0,0,0-.77-12.16,57.88,57.88,0,0,1-.8-10.28,2.55,2.55,0,0,0-2.14-2.62,2.59,2.59,0,0,0-2.86,1.8c-1.25,4.28-1.25,8.64-1.25,12.92a54.94,54.94,0,0,1-.52,9.11c-.24,1.36-.6,2.75-1,4.15a21.56,21.56,0,0,1,1.16-6.6,2.55,2.55,0,0,0-4.32-2.52c-4,4.56-5.11,10.49-5.16,15.52a29.21,29.21,0,0,1-2.28-14.48,2.55,2.55,0,0,0-5.05-.73c-2.09,10.84-1.79,19.71.91,27.11a64.36,64.36,0,0,0,3.13,6.87c.3.61.61,1.22.91,1.84l-.19-.07-.65-.22a33,33,0,0,1-9.15-4.95,2.55,2.55,0,0,0-4,2.61c.76,3.21,2.69,5.64,4.56,8a33.09,33.09,0,0,1,2.42,3.3,15.16,15.16,0,0,1,2.19,7.85h-2.42a1.1,1.1,0,0,0-1.07,1.31l6,30a1.08,1.08,0,0,0,1.07.87h19.52a1.09,1.09,0,0,0,1.08-.87l6-30a1.1,1.1,0,0,0-1.08-1.31h-3.43a12.48,12.48,0,0,0,1.13-1.52C342.69,371,343.08,370.5,343.51,369.91Zm-5.75,33.25H320l-2.12-10.65h22Zm2.56-12.84H317.46l-.56-2.81h24Zm1-5H316.47l-2-10h28.84Zm-2.24-31.7a49.61,49.61,0,0,0,1-11.13,1,1,0,0,0,0-.23c0-.75.07-1.5.1-2.27.09-3.15.2-6.41,1.41-9.31A16.87,16.87,0,0,1,343,328.1c-.91,3.24-.61,6.85-.32,10.37l.15,1.89a63.59,63.59,0,0,1-.15,10.78l-.12,1.06a1.28,1.28,0,0,0,0,.34c-1.54,1.75-3.19,3.4-4.75,5.12A33.21,33.21,0,0,0,339.08,353.62Zm4.81,1.79c.42,3.24.63,6.89-.91,10a20.66,20.66,0,0,1-1.85,2.85c-.44.6-.88,1.2-1.27,1.83a10.29,10.29,0,0,1-1,1.34,1.85,1.85,0,0,0-.19.27l-.17.34h-5.13a30.21,30.21,0,0,1,4.31-9.62A67.56,67.56,0,0,1,343.89,355.41ZM333.5,331.87A58.83,58.83,0,0,0,335,326a56.65,56.65,0,0,0,.56-9.66,58.33,58.33,0,0,1,.45-8.86c.12,2.52.47,5,.81,7.54.61,4.51,1.25,9.18.46,13.7-.12.75-.29,1.49-.46,2.24a30,30,0,0,0-.65,3.54,28,28,0,0,0,1,7.61c-.05,5.11-.33,10.11-2.18,15.08-.9,2.4-1.9,4.64-2.8,6.91a60.56,60.56,0,0,0-.58-7.05,1.45,1.45,0,0,0,.61-.3c6-4.87,2.77-13.87.11-20.11C332.6,335.06,333,333.56,333.5,331.87ZM329,323.94a24.29,24.29,0,0,0-.21,11.09c0,.17.1.34.14.51a1.54,1.54,0,0,0,.11.75l.28.63.07.24a1.42,1.42,0,0,0,.23.44c2.08,4.78,5,12,1.41,16.19a35.55,35.55,0,0,0-4.9-11.94l0-.18q-.13-1.23-.24-2.46C325.46,334.74,325.76,328.67,329,323.94Zm-9.84,23c-2.1-5.74-2.63-12.5-1.59-20.57a32.37,32.37,0,0,0,4.72,14.77,1.31,1.31,0,0,0,.25.56c5.57,7.58,6.8,16,6.76,24.9a15.13,15.13,0,0,0-4.82-8.2l-.46-1c-.59-1.31-1.23-2.6-1.93-4A63.82,63.82,0,0,1,319.11,346.9Zm-5.89,13.25a21.8,21.8,0,0,1-3.69-5.81,36,36,0,0,0,9.08,4.73l.67.23a15.73,15.73,0,0,1,3.29,1.43,1.17,1.17,0,0,0,.25.07c2.94,2.46,4.21,7.54,4.17,11.22h-8.53a18.16,18.16,0,0,0-2.61-8.27A36.82,36.82,0,0,0,313.22,360.15Z"></path>
  <rect class="cls-6" x="70.83" y="137.61" width="463.3" height="15.53"></rect>
  <rect class="cls-6" x="394.31" y="453.99" width="143.86" height="21.62"></rect>
  <rect class="cls-7" x="400.96" y="200.23" width="19.54" height="253.75"></rect>
  <rect class="cls-7" x="522.37" y="189.33" width="11.76" height="264.66"></rect>
  <rect class="cls-7" x="398.19" y="189.33" width="25.06" height="10.53"></rect>
  <rect class="cls-7" x="73.59" y="199.86" width="19.54" height="275.74"></rect>
  <rect class="cls-5" x="267.4" y="236.76" width="107.98" height="5.5"></rect>
  <rect class="cls-6" x="93.13" y="385.97" width="307.83" height="89.63"></rect>
  <rect class="cls-5" x="303.65" y="239.51" width="2.08" height="10.63" transform="translate(609.38 489.65) rotate(-180)"></rect>
  <polygon class="cls-6" points="309.66 262.48 316.92 253.74 307.3 249.28 303.45 253.91 309.66 262.48"></polygon>
  <rect class="cls-8" x="300.76" y="248.05" width="6.05" height="4.25" transform="translate(690.34 176.33) rotate(129.71)"></rect>
  <rect class="cls-5" x="278.48" y="239.51" width="2.08" height="10.63"></rect>
  <polygon class="cls-6" points="272.61 260.84 267.4 250.74 277.76 248.46 280.52 253.81 272.61 260.84"></polygon>
  <rect class="cls-8" x="277.97" y="247.97" width="6.05" height="4.25" transform="translate(374.6 -114.24) rotate(62.74)"></rect>
  <rect class="cls-5" x="360.22" y="239.51" width="2.08" height="10.63" transform="translate(722.52 489.65) rotate(-180)"></rect>
  <polygon class="cls-6" points="368.82 258.73 372.34 247.93 361.75 247.33 359.88 253.06 368.82 258.73"></polygon>
  <rect class="cls-8" x="355.79" y="247.34" width="6.05" height="4.25" transform="translate(707.13 -14.47) rotate(108.04)"></rect>
  <rect class="cls-5" x="338.05" y="239.51" width="2.08" height="10.63"></rect>
  <polygon class="cls-6" points="331.28 258.91 326.08 248.81 336.44 246.53 339.2 251.88 331.28 258.91"></polygon>
  <rect class="cls-8" x="336.65" y="246.04" width="6.05" height="4.25" transform="translate(404.69 -167.45) rotate(62.74)"></rect>
  <rect class="cls-7" x="70.83" y="189.33" width="25.06" height="10.53"></rect>
  <rect class="cls-8" x="93.13" y="404.66" width="307.83" height="7.83"></rect>
  <rect class="cls-8" x="96.75" y="189.19" width="302.31" height="6.23"></rect>
  <rect class="cls-8" x="192.12" y="195.42" width="5.43" height="190.56"></rect>
  <rect class="cls-8" x="296.54" y="195.42" width="5.43" height="190.56"></rect>
  <path class="cls-5" d="M242.32,177h-7.73v-11.4H237V175h5.37Z"></path>
  <path class="cls-5" d="M244.59,165.63H247V177h-2.36Z"></path>
  <path class="cls-5" d="M258.61,168.56a2.61,2.61,0,0,1-.49,1.63,3.13,3.13,0,0,1-1.49,1v0a3,3,0,0,1,1.71.9,2.68,2.68,0,0,1,.54,1.76,2.73,2.73,0,0,1-1.08,2.28,4.74,4.74,0,0,1-3,.84h-4.45v-11.4h4.1a5.06,5.06,0,0,1,3.1.79A2.53,2.53,0,0,1,258.61,168.56Zm-4.22,1.76a2.63,2.63,0,0,0,1.49-.33,1.23,1.23,0,0,0,.47-1.08,1.18,1.18,0,0,0-.44-1,2.36,2.36,0,0,0-1.41-.33h-1.78v2.77Zm.08,4.77a2.72,2.72,0,0,0,1.55-.34,1.24,1.24,0,0,0,.48-1.08,1.3,1.3,0,0,0-.49-1.14,2.87,2.87,0,0,0-1.61-.35h-1.68v2.91Z"></path>
  <path class="cls-5" d="M263.92,170.23h5.15v2h-5.15V175h5.67v2h-8v-11.4h7.87v2h-5.52Z"></path>
  <path class="cls-5" d="M280.85,168.85a2.89,2.89,0,0,1-.56,1.78,2.78,2.78,0,0,1-1.52,1v0a2,2,0,0,1,1,.68,5.66,5.66,0,0,1,.75,1.53l1.14,3.15h-2.56l-.91-2.71a2.93,2.93,0,0,0-.75-1.28,1.88,1.88,0,0,0-1.25-.36h-1.3V177H272.5v-11.4h4.19a5,5,0,0,1,3.14.83A2.91,2.91,0,0,1,280.85,168.85Zm-4.34,2c1.32,0,2-.56,2-1.68s-.7-1.58-2.09-1.58h-1.54v3.26Z"></path>
  <path class="cls-5" d="M288.31,177H286v-9.38h-3.58v-2h9.52v2h-3.58Z"></path>
  <path class="cls-5" d="M296.32,170.23h5.15v2h-5.15V175H302v2h-8v-11.4h7.87v2h-5.52Zm1.46-7.7h2.77l-2.24,2.33h-1.77Z"></path>
  <path class="cls-5" d="M318,167.39a4.47,4.47,0,0,1,.65,2.2h-2.37a2.4,2.4,0,0,0-.74-1.57,2.35,2.35,0,0,0-1.62-.56,2.38,2.38,0,0,0-2,1,5.85,5.85,0,0,0,0,5.68,2.31,2.31,0,0,0,2,1,2.37,2.37,0,0,0,1.64-.56,2.53,2.53,0,0,0,.76-1.61h2.41a4.37,4.37,0,0,1-1.44,3.13,4.92,4.92,0,0,1-3.37,1.12,5.16,5.16,0,0,1-2.76-.72,4.66,4.66,0,0,1-1.79-2.05,8.38,8.38,0,0,1,0-6.35,4.67,4.67,0,0,1,1.81-2.06,5.2,5.2,0,0,1,2.77-.72,5.35,5.35,0,0,1,2.44.52A4,4,0,0,1,318,167.39Z"></path>
  <path class="cls-5" d="M328.42,172.11h-4.68V177h-2.35v-11.4h2.35v4.47h4.68v-4.47h2.35V177h-2.35Z"></path>
  <path class="cls-5" d="M336.54,170.23h5.16v2h-5.16V175h5.67v2h-8v-11.4h7.88v2h-5.53Zm1.46-7.7h2.77l-2.24,2.33h-1.76Z"></path>
  <path class="cls-5" d="M353.47,168.85a2.82,2.82,0,0,1-.56,1.78,2.78,2.78,0,0,1-1.52,1v0a2,2,0,0,1,1,.68,5.94,5.94,0,0,1,.76,1.53l1.13,3.15h-2.56l-.91-2.71A2.75,2.75,0,0,0,350,173a1.88,1.88,0,0,0-1.25-.36h-1.3V177h-2.35v-11.4h4.19a5,5,0,0,1,3.14.83A2.91,2.91,0,0,1,353.47,168.85Zm-4.33,2c1.31,0,2-.56,2-1.68s-.69-1.58-2.09-1.58h-1.54v3.26Z"></path>
  <path class="cls-5" d="M356.57,165.63h2.36V177h-2.36Z"></path>
  <path class="cls-5" d="M364.7,170.23h5.16v2H364.7V175h5.67v2h-8v-11.4h7.88v2H364.7Z"></path>
  <path class="cls-5" d="M223.17,169.63V172h-11.4v-2.35Z"></path>
  <path class="cls-5" d="M393.16,169.63V172H381.77v-2.35Z"></path>
  <path class="cls-5" d="M474.76,253.16a3.13,3.13,0,0,1-.29,1.42,3.17,3.17,0,0,1-.81,1,8.18,8.18,0,0,1-1.31.9,12.82,12.82,0,0,0-1.33.85,2.75,2.75,0,0,0-.62.61,1.24,1.24,0,0,0-.18.6H475v1.68h-7.24a2.82,2.82,0,0,1,0-.32,5.64,5.64,0,0,1,.23-1.7,3.41,3.41,0,0,1,.82-1.34,7.44,7.44,0,0,1,1.71-1.28,13.5,13.5,0,0,0,1.22-.78,2.58,2.58,0,0,0,.67-.7,1.64,1.64,0,0,0,.22-.86,1.09,1.09,0,0,0-.32-.82,1.26,1.26,0,0,0-.91-.32c-.95,0-1.43.51-1.45,1.54h-2.06a3.23,3.23,0,0,1,1-2.4,3.71,3.71,0,0,1,2.55-.83,3.81,3.81,0,0,1,2.45.74A2.43,2.43,0,0,1,474.76,253.16Z"></path>
  <path class="cls-5" d="M467.59,270h2.07a1.41,1.41,0,0,0,.39.87,1.2,1.2,0,0,0,.85.29,1.58,1.58,0,0,0,1.34-.7,3.76,3.76,0,0,0,.56-2.17h0a2.71,2.71,0,0,1-2.19,1,3.27,3.27,0,0,1-1.64-.4,2.73,2.73,0,0,1-1.1-1.11,3.56,3.56,0,0,1,.07-3.37,3,3,0,0,1,1.27-1.18,4,4,0,0,1,1.87-.42,3.28,3.28,0,0,1,2.72,1.19,5.58,5.58,0,0,1,1,3.54,6.49,6.49,0,0,1-1,3.92,3.43,3.43,0,0,1-2.92,1.38,3.33,3.33,0,0,1-2.28-.75A2.86,2.86,0,0,1,467.59,270Zm4.89-4a1.64,1.64,0,0,0-.39-1.14,1.32,1.32,0,0,0-1-.42A1.38,1.38,0,0,0,470,265a1.69,1.69,0,0,0-.4,1.17,1.75,1.75,0,0,0,.39,1.2,1.44,1.44,0,0,0,2.1,0A1.86,1.86,0,0,0,472.48,266.09Z"></path>
  <path class="cls-5" d="M470.83,278.59h-2.32v-1.45a3.33,3.33,0,0,0,1.79-.38,1.7,1.7,0,0,0,.71-1.25h1.86v9.57h-2Z"></path>
  <polygon class="cls-3" points="169.72 246.09 152 246.09 155.36 262.98 166.35 262.98 169.72 246.09"></polygon>
  <path class="cls-11" d="M164,246.09l2.5-.71a8.5,8.5,0,0,1,.73-1.52c.56-.9,1.29-1.7,1.77-2.65,1-2.07.72-4.52.38-6.81l-4.86,3.31-.07.11a17,17,0,0,0-.39-7.13c-.67-2.26-1.77-4.39-2.27-6.7s-1.15-4.89-.36-7.19c-2.24,2.55-2.75,6.22-2.48,9.6.11,1.32.28,2.62.44,3.92l-.69-.9a18.24,18.24,0,0,1-4-13.12c-.93,4.8-2.81,9.1-1.13,13.69.74,2,1.86,5.49,2.74,7.47l.2.41c-.45-.19-.92-.34-1.38-.5a20.1,20.1,0,0,1-5.54-3c.54,2.29,2.52,3.92,3.75,5.93a10,10,0,0,1,1.45,5.43h-.07l9.24.36"></path>
  <path class="cls-5" d="M167.35,264.2h-13l-3.86-19.34h20.71Zm-11-2.45h9l2.88-14.44H153.49Z"></path>
  <rect class="cls-5" x="153.92" y="254.53" width="13.87" height="2.45"></rect>
  <path class="cls-5" d="M164,247.31h-.05l-9.24-.35a1.21,1.21,0,0,1-1.1-1.64,8.79,8.79,0,0,0-1.28-4.38,20.33,20.33,0,0,0-1.37-1.87,11.49,11.49,0,0,1-2.53-4.42,1.23,1.23,0,0,1,1.94-1.26,18.42,18.42,0,0,0,4,2.34c-.37-1-.75-2.11-1.11-3.13-.28-.8-.54-1.56-.77-2.19-1.43-3.89-.52-7.59.36-11.18.25-1,.51-2.09.72-3.17a1.19,1.19,0,0,1,1.38-1,1.23,1.23,0,0,1,1,1.33,16.91,16.91,0,0,0,1.72,9.18c-.12-3,.35-6.77,2.83-9.6a1.21,1.21,0,0,1,1.54-.25,1.23,1.23,0,0,1,.54,1.46c-.63,1.82-.16,4,.3,6.06l.1.47a25.73,25.73,0,0,0,1.22,3.73c.37.95.73,1.91,1,2.88a16.62,16.62,0,0,1,.65,5l2.81-1.91a1.24,1.24,0,0,1,1.18-.11,1.22,1.22,0,0,1,.72.94c.31,2.13.74,5.05-.5,7.53a11.6,11.6,0,0,1-1.15,1.79c-.23.32-.46.64-.67,1a7.34,7.34,0,0,0-.63,1.29,1.17,1.17,0,0,1-.81.75l-2.5.71A.91.91,0,0,1,164,247.31Zm-8-2.75,7.83.3,1.74-.5a9,9,0,0,1,.6-1.15c.24-.38.5-.75.77-1.11a10.47,10.47,0,0,0,.94-1.44,7.59,7.59,0,0,0,.51-4.12l-3.12,2.13a1.28,1.28,0,0,1-1.21.25,1.18,1.18,0,0,1-.84-1.26,15.76,15.76,0,0,0-.35-6.62c-.27-.92-.62-1.81-1-2.7a28,28,0,0,1-1.33-4.09l-.11-.47c-.08-.37-.16-.76-.24-1.15a16.91,16.91,0,0,0-.07,3.67c.08,1.13.22,2.23.36,3.34l.06.53a1.23,1.23,0,0,1-2.19.9l-.68-.9a19,19,0,0,1-3.39-6.33,11.3,11.3,0,0,0,.42,5.73c.23.64.5,1.41.78,2.23.63,1.8,1.34,3.84,1.93,5.16l.18.37a1.22,1.22,0,0,1-.21,1.37,1.19,1.19,0,0,1-1.35.3c-.36-.15-.73-.27-1.1-.4a19.47,19.47,0,0,1-1.86-.74,19.83,19.83,0,0,1,1.29,1.8A11.31,11.31,0,0,1,156,244.56Z"></path>
  <line class="cls-12" x1="290.73" y1="236.76" x2="290.73" y2="195.42"></line>
  <line class="cls-12" x1="355.61" y1="236.76" x2="355.61" y2="195.42"></line>
</svg>
