<?xml version="1.0" encoding="UTF-8"?>
<svg xmlns="http://www.w3.org/2000/svg" xmlns:xlink="http://www.w3.org/1999/xlink" viewBox="0 0 600 600">
  <clipPath id="a">
    <path d="m284.38 197.27h31.25v72h-31.25z" transform="matrix(0 1 -1 0 533.27 -66.73)"></path>
  </clipPath>
  <clipPath id="b">
    <path d="m333.89 213.84h27v27.12h-27z"></path>
  </clipPath>
  <clipPath id="c">
    <path d="m333.89 240.96h27v27.12h-27z"></path>
  </clipPath>
  <clipPath id="d">
    <path d="m306.89 213.84h27v27.12h-27z"></path>
  </clipPath>
  <clipPath id="e">
    <path d="m306.89 240.96h27v27.12h-27z"></path>
  </clipPath>
  <clipPath id="f">
    <path d="m279.89 213.84h27v27.12h-27z"></path>
  </clipPath>
  <clipPath id="g">
    <path d="m279.89 240.96h27v27.12h-27z"></path>
  </clipPath>
  <clipPath id="h">
    <path d="m252.89 213.84h27v27.12h-27z"></path>
  </clipPath>
  <clipPath id="i">
    <path d="m252.89 240.96h27v27.12h-27z"></path>
  </clipPath>
  <clipPath id="j">
    <path d="m334.58 450.28h-69.16v-181.22h69.16v84.32h-11.3v29.09h11.3z"></path>
  </clipPath>
  <clipPath id="k">
    <path d="m333.89 268.08h27v27.12h-27z"></path>
  </clipPath>
  <clipPath id="l">
    <path d="m333.89 295.21h27v27.12h-27z"></path>
  </clipPath>
  <clipPath id="m">
    <path d="m333.89 322.33h27v27.12h-27z"></path>
  </clipPath>
  <clipPath id="n">
    <path d="m333.89 349.46h27v27.12h-27z"></path>
  </clipPath>
  <clipPath id="o">
    <path d="m333.89 376.58h27v27.12h-27z"></path>
  </clipPath>
  <clipPath id="p">
    <path d="m333.89 403.71h27v27.12h-27z"></path>
  </clipPath>
  <clipPath id="q">
    <path d="m333.89 430.83h27v27.12h-27z"></path>
  </clipPath>
  <clipPath id="r">
    <path d="m306.89 268.08h27v27.12h-27z"></path>
  </clipPath>
  <clipPath id="s">
    <path d="m306.89 295.21h27v27.12h-27z"></path>
  </clipPath>
  <clipPath id="t">
    <path d="m306.89 322.33h27v27.12h-27z"></path>
  </clipPath>
  <clipPath id="u">
    <path d="m306.89 349.46h27v27.12h-27z"></path>
  </clipPath>
  <clipPath id="v">
    <path d="m306.89 376.58h27v27.12h-27z"></path>
  </clipPath>
  <clipPath id="w">
    <path d="m306.89 403.71h27v27.12h-27z"></path>
  </clipPath>
  <clipPath id="x">
    <path d="m306.89 430.83h27v27.12h-27z"></path>
  </clipPath>
  <clipPath id="y">
    <path d="m279.89 268.08h27v27.12h-27z"></path>
  </clipPath>
  <clipPath id="z">
    <path d="m279.89 295.21h27v27.12h-27z"></path>
  </clipPath>
  <clipPath id="A">
    <path d="m279.89 322.33h27v27.12h-27z"></path>
  </clipPath>
  <clipPath id="B">
    <path d="m279.89 349.46h27v27.12h-27z"></path>
  </clipPath>
  <clipPath id="C">
    <path d="m279.89 376.58h27v27.12h-27z"></path>
  </clipPath>
  <clipPath id="D">
    <path d="m279.89 403.71h27v27.12h-27z"></path>
  </clipPath>
  <clipPath id="E">
    <path d="m279.89 430.83h27v27.12h-27z"></path>
  </clipPath>
  <clipPath id="F">
    <path d="m252.89 268.08h27v27.12h-27z"></path>
  </clipPath>
  <clipPath id="G">
    <path d="m252.89 295.21h27v27.12h-27z"></path>
  </clipPath>
  <clipPath id="H">
    <path d="m252.89 322.33h27v27.12h-27z"></path>
  </clipPath>
  <clipPath id="I">
    <path d="m252.89 349.46h27v27.12h-27z"></path>
  </clipPath>
  <clipPath id="J">
    <path d="m252.89 376.58h27v27.12h-27z"></path>
  </clipPath>
  <clipPath id="K">
    <path d="m252.89 403.71h27v27.12h-27z"></path>
  </clipPath>
  <clipPath id="L">
    <path d="m252.89 430.83h27v27.12h-27z"></path>
  </clipPath>
  <path d="m98.94 199.02h398.21v293.17h-398.21z" fill="#fff"></path>
  <path d="m87.92 106.37h424.17v69.11h-424.17z" fill="#ffde00"></path>
  <path d="m400.13 354.05h8.23v-14.19l-2.14-6.65v-5.45h-4v5.45l-2.14 6.65z" fill="#ffde00"></path>
  <path d="m482.8 223.47a5.43 5.43 0 0 0 -10-2.91h-96.09a5.43 5.43 0 1 0 -7.49 7.49v203.4h5.78v-203.4a5.54 5.54 0 0 0 1.67-1.67h96.07a5.32 5.32 0 0 0 1.67 1.67v203.4h5.82v-203.4a5.42 5.42 0 0 0 2.57-4.58z" fill="#ffde00"></path>
  <path d="m254.63 208.27v50h90.75v-50zm81.37 40.62h-72v-31.25h72z" fill="#ffde00"></path>
  <path d="m159.53 371c1-1.13 2.77-3 3.73-4.18 1.58-1.85 3.26-4.36 2.13-6.51a4.13 4.13 0 0 0 -4.29-1.83 10.17 10.17 0 0 0 -4.4 2.2 49.14 49.14 0 0 0 -9.76 10.19z" fill="#ffde00"></path>
  <path d="m177.11 370.9 2.75-4.22c2.22-3.4 4.54-7.35 3.48-11.27a2.73 2.73 0 0 0 -.9-1.53 2.91 2.91 0 0 0 -1.56-.46 12.47 12.47 0 0 0 -7.93 2.1c-2.63 1.78-4.46 4.48-6.23 7.11s-4 5.69-5.74 8.27z" fill="#ffde00"></path>
  <path d="m357.49 431.45h134.52v13.74h-134.52z" fill="#ffde00"></path>
  <path d="m108 431.45h134.52v13.74h-134.52z" fill="#ffde00"></path>
  <path d="m454.35 364.16a.44.44 0 0 0 -.33.48v2.36c0 .27.16.48.37.48h.1a1.74 1.74 0 0 1 -.33.65 5.35 5.35 0 0 1 -1 .88 5.26 5.26 0 0 0 -1.17 1.11 3.46 3.46 0 0 0 -.63 2v11.08a1.92 1.92 0 0 0 1.64 2.1h8.73a1.92 1.92 0 0 0 1.63-2.1v-11.05a3.38 3.38 0 0 0 -.61-2 5.11 5.11 0 0 0 -1.17-1.12 5.71 5.71 0 0 1 -1-.89 1.64 1.64 0 0 1 -.33-.66h.12a.44.44 0 0 0 .38-.48v-2.36a.58.58 0 0 0 -.11-.35.35.35 0 0 0 -.27-.14h-6z" fill="#ffde00" fill-rule="evenodd"></path>
  <path d="m424.28 364.16a.46.46 0 0 0 -.34.48v2.36a.44.44 0 0 0 .38.48h.1a1.74 1.74 0 0 1 -.33.65 5.35 5.35 0 0 1 -1 .88 5.09 5.09 0 0 0 -1.18 1.11 3.46 3.46 0 0 0 -.62 2v11.08a1.92 1.92 0 0 0 1.64 2.1h8.73a1.92 1.92 0 0 0 1.63-2.1v-11.05a3.38 3.38 0 0 0 -.61-2 5.32 5.32 0 0 0 -1.17-1.12 5.71 5.71 0 0 1 -1-.89 1.64 1.64 0 0 1 -.33-.66h.12a.44.44 0 0 0 .38-.48v-2.36a.52.52 0 0 0 -.1-.35.35.35 0 0 0 -.27-.14h-6z" fill="#ffde00" fill-rule="evenodd"></path>
  <path d="m233.68 223.47a5.43 5.43 0 0 0 -10-2.91h-96.09a5.43 5.43 0 1 0 -7.49 7.49v203.4h5.82v-203.4a5.54 5.54 0 0 0 1.67-1.67h96.07a5.54 5.54 0 0 0 1.67 1.67v203.4h5.82v-203.4a5.42 5.42 0 0 0 2.53-4.58z" fill="#ffde00"></path>
  <path d="m388.58 354.05h8.23v-14.19l-2.14-6.65v-5.45h-4v5.45l-2.14 6.65z" fill="#00ab81"></path>
  <path d="m95.89 208.27h12.11v267.66h-12.11z" fill="#00ab81"></path>
  <path d="m77.99 475.93h434.1v14.53h-434.1z" fill="#00ab81"></path>
  <path d="m242.52 208.27h12.11v267.66h-12.11z" fill="#00ab81"></path>
  <path d="m345.38 208.27h12.11v267.66h-12.11z" fill="#00ab81"></path>
  <path d="m492 208.27h12.11v267.66h-12.11z" fill="#00ab81"></path>
  <path d="m77.99 175.49h444.03v32.78h-444.03z" fill="#00ab81"></path>
  <path d="m108 445.19h134.52v30.74h-134.52z" fill="#00ab81"></path>
  <path d="m183.66 370.82a71.66 71.66 0 0 1 .33-10.36c.14-1.32.42-2.8 1.52-3.54a4.77 4.77 0 0 1 2.54-.56c7.64-.24 8.83-.47 16.47-.71a1.91 1.91 0 0 1 1.62.46 1.81 1.81 0 0 1 .29.91c.3 2.28-.09 5.08-2.17 6.05-.71.33-1.58.42-2.11 1a3.13 3.13 0 0 0 -.61 1.82l-.58 5z" fill="#00ab81"></path>
  <path d="m357.49 445.19h134.52v30.74h-134.52z" fill="#00ab81"></path>
  <path d="m438.14 385.38h8.23v-14.19l-2.15-6.65v-5.45h-4v5.45l-2.15 6.65z" fill="#00ab81"></path>
  <path d="m254.63 258.27v217.66h90.75v-217.66zm79.95 124.09v67.92h-69.16v-181.22h69.16v84.32" fill="#fb715d"></path>
  <path d="m383.92 354.05h29.7v31.33h-29.7z" fill="#fb715d"></path>
  <path d="m139.52 371.03h72.2v14.35h-72.2z" fill="#fb715d"></path>
  <path d="m335.94 353.38h3.56v29.09h-16.22v-29.09z" fill="#fb715d"></path>
  <g fill="#1c19a8">
    <path d="m345.38 477.34h-90.75a1.41 1.41 0 0 1 -1.41-1.41v-217.66a1.41 1.41 0 0 1 1.41-1.41h90.75a1.41 1.41 0 0 1 1.4 1.41v217.66a1.41 1.41 0 0 1 -1.4 1.41zm-89.38-2.82h88v-214.85h-88zm78.55-22.83h-69.13a1.41 1.41 0 0 1 -1.41-1.41v-181.22a1.41 1.41 0 0 1 1.41-1.4h69.16a1.41 1.41 0 0 1 1.41 1.4v84.32h-2.81v-82.91h-66.36v178.41h66.36v-66.52h2.82v67.92a1.41 1.41 0 0 1 -1.42 1.41z"></path>
    <path d="m512.08 176.89h-424.16a1.41 1.41 0 0 1 -1.41-1.4v-69.12a1.41 1.41 0 0 1 1.41-1.4h424.16a1.41 1.41 0 0 1 1.41 1.4v69.12a1.41 1.41 0 0 1 -1.41 1.4zm-422.76-2.81h421.36v-66.3h-421.36z"></path>
    <path d="m396.81 355.46h-8.23a1.41 1.41 0 0 1 -1.41-1.41v-14.19a1.25 1.25 0 0 1 .07-.43l2.06-6.43v-5.23a1.45 1.45 0 0 1 .41-1 1.41 1.41 0 0 1 1-.41h4a1.41 1.41 0 0 1 1 .41 1.45 1.45 0 0 1 .41 1v5.23l2.08 6.44a1.25 1.25 0 0 1 .07.43v14.19a1.41 1.41 0 0 1 -1.46 1.4zm-6.81-2.81h5.43v-12.57l-2.08-6.44a1.25 1.25 0 0 1 -.07-.43v-4h-1.17v4a1.25 1.25 0 0 1 -.07.43l-2.04 6.44z"></path>
    <path d="m408.36 355.46h-8.23a1.41 1.41 0 0 1 -1.41-1.41v-14.19a1.25 1.25 0 0 1 .07-.43l2.08-6.44v-5.23a1.45 1.45 0 0 1 .41-1 1.41 1.41 0 0 1 1-.41h4a1.41 1.41 0 0 1 1 .41 1.45 1.45 0 0 1 .41 1v5.24l2.08 6.44a1.25 1.25 0 0 1 .07.43v14.19a1.41 1.41 0 0 1 -1.48 1.4zm-6.83-2.81h5.47v-12.57l-2.08-6.44a1.25 1.25 0 0 1 -.07-.43v-4h-1.18v4a1.25 1.25 0 0 1 -.07.43l-2.08 6.44z"></path>
    <path d="m413.62 386.79h-29.7a1.41 1.41 0 0 1 -1.4-1.41v-31.33a1.4 1.4 0 0 1 1.4-1.4h29.7a1.41 1.41 0 0 1 1.41 1.4v31.33a1.41 1.41 0 0 1 -1.41 1.41zm-28.29-2.79h26.89v-28.54h-26.89z"></path>
    <path d="m480.27 432.86h-5.82a1.41 1.41 0 0 1 -1.41-1.41v-202.68a7 7 0 0 1 -1-1h-94.61a7 7 0 0 1 -1 1v202.68a1.41 1.41 0 0 1 -1.41 1.41h-5.82a1.41 1.41 0 0 1 -1.41-1.41v-202.68a6.84 6.84 0 1 1 9.62-9.62h94.63a6.84 6.84 0 1 1 9.62 9.62v202.68a1.41 1.41 0 0 1 -1.39 1.41zm-4.42-2.86h3v-202a1.41 1.41 0 0 1 .66-1.19 4 4 0 1 0 -5.56-5.55 1.39 1.39 0 0 1 -1.18.65h-96.06a1.4 1.4 0 0 1 -1.19-.65 4 4 0 1 0 -5.55 5.55 1.4 1.4 0 0 1 .65 1.19v202h3v-202a1.41 1.41 0 0 1 .66-1.19 3.9 3.9 0 0 0 1.23-1.23 1.41 1.41 0 0 1 1.19-.66h96.07a1.38 1.38 0 0 1 1.18.66 4 4 0 0 0 1.24 1.23 1.4 1.4 0 0 1 .65 1.19z"></path>
    <path d="m108 477.34h-12.11a1.41 1.41 0 0 1 -1.4-1.41v-267.66a1.41 1.41 0 0 1 1.4-1.41h12.11a1.41 1.41 0 0 1 1.41 1.41v267.66a1.41 1.41 0 0 1 -1.41 1.41zm-10.7-2.82h9.29v-264.84h-9.29z"></path>
    <path d="m512.08 491.87h-434.08a1.41 1.41 0 0 1 -1.4-1.41v-14.53a1.41 1.41 0 0 1 1.4-1.41h434.1a1.41 1.41 0 0 1 1.41 1.41v14.53a1.41 1.41 0 0 1 -1.43 1.41zm-432.69-2.81h431.29v-11.72h-431.29z"></path>
    <path d="m254.63 477.34h-12.11a1.41 1.41 0 0 1 -1.41-1.41v-267.66a1.41 1.41 0 0 1 1.41-1.41h12.11a1.41 1.41 0 0 1 1.4 1.41v267.66a1.41 1.41 0 0 1 -1.4 1.41zm-10.71-2.82h9.3v-264.84h-9.3z"></path>
    <path d="m357.48 477.34h-12.1a1.41 1.41 0 0 1 -1.41-1.41v-267.66a1.41 1.41 0 0 1 1.41-1.41h12.1a1.41 1.41 0 0 1 1.41 1.41v267.66a1.41 1.41 0 0 1 -1.41 1.41zm-10.7-2.82h9.3v-264.84h-9.3z"></path>
    <path d="m504.11 477.34h-12.11a1.41 1.41 0 0 1 -1.41-1.41v-267.66a1.41 1.41 0 0 1 1.41-1.41h12.11a1.41 1.41 0 0 1 1.41 1.41v267.66a1.41 1.41 0 0 1 -1.41 1.41zm-10.7-2.82h9.3v-264.84h-9.3z"></path>
    <path d="m522 209.68h-444a1.41 1.41 0 0 1 -1.41-1.41v-32.78a1.41 1.41 0 0 1 1.41-1.41h444a1.41 1.41 0 0 1 1.4 1.41v32.78a1.41 1.41 0 0 1 -1.4 1.41zm-442.61-2.82h441.22v-30h-441.22z"></path>
    <path d="m345.38 477.34h-90.75a1.41 1.41 0 0 1 -1.41-1.41v-217.66a1.41 1.41 0 0 1 1.41-1.41h90.75a1.41 1.41 0 0 1 1.4 1.41v217.66a1.41 1.41 0 0 1 -1.4 1.41zm-89.38-2.82h88v-214.85h-88z"></path>
    <path d="m282.76 458.04h34.49v10.13h-34.49z"></path>
    <path d="m317.24 469.58h-34.48a1.41 1.41 0 0 1 -1.41-1.41v-10.17a1.41 1.41 0 0 1 1.41-1.41h34.48a1.41 1.41 0 0 1 1.41 1.41v10.13a1.41 1.41 0 0 1 -1.41 1.45zm-33.08-2.81h31.68v-7.32h-31.68z"></path>
    <path d="m345.38 259.67h-90.75a1.41 1.41 0 0 1 -1.41-1.4v-50a1.41 1.41 0 0 1 1.41-1.41h90.75a1.41 1.41 0 0 1 1.4 1.41v50a1.4 1.4 0 0 1 -1.4 1.4zm-89.38-2.81h88v-47.18h-88zm80-6.56h-72a1.41 1.41 0 0 1 -1.4-1.41v-31.25a1.4 1.4 0 0 1 1.4-1.4h72a1.41 1.41 0 0 1 1.41 1.4v31.25a1.41 1.41 0 0 1 -1.41 1.41zm-70.59-2.81h69.19v-28.44h-69.19z"></path>
    <path d="m242.52 477.34h-134.52a1.41 1.41 0 0 1 -1.41-1.41v-30.74a1.41 1.41 0 0 1 1.41-1.41h134.52a1.41 1.41 0 0 1 1.4 1.41v30.74a1.41 1.41 0 0 1 -1.4 1.41zm-133.11-2.82h131.7v-27.93h-131.7z"></path>
    <path d="m147.36 371.65a1.4 1.4 0 0 1 -1.14-2.22 45 45 0 0 1 9.64-9.85 11.36 11.36 0 0 1 5-2.46 5.5 5.5 0 0 1 5.74 2.56c1.75 3.35-1.3 6.91-2.3 8.09l-2.9 3.39a1.41 1.41 0 0 1 -1.07.49zm14.46-11.79a2.74 2.74 0 0 0 -.5 0 9 9 0 0 0 -3.78 1.93 42.62 42.62 0 0 0 -7.32 7h9.5l2.47-2.9c1.9-2.22 2.54-3.84 1.95-4.95a2.59 2.59 0 0 0 -2.32-1.08z"></path>
    <path d="m201 372.3-18.09-.08a1.4 1.4 0 0 1 -1.4-1.35 72.86 72.86 0 0 1 .33-10.55c.12-1.1.37-3.38 2.13-4.57a6.06 6.06 0 0 1 3.29-.8l17.26-.71a3.27 3.27 0 0 1 2.77 1 3.16 3.16 0 0 1 .59 1.6c.46 3.61-.65 6.41-3 7.5a7.82 7.82 0 0 1 -.89.34 2.42 2.42 0 0 0 -.78.34 2.47 2.47 0 0 0 -.24 1l-.59 5a1.4 1.4 0 0 1 -1.38 1.28zm-16.73-2.89 15.48.08.44-3.77a4.35 4.35 0 0 1 1-2.61 4.2 4.2 0 0 1 2-1.1 5 5 0 0 0 .58-.22c1.37-.64 1.6-2.87 1.38-4.59.07-.13-.06-.15-.48-.15l-17.26.72a3.66 3.66 0 0 0 -1.81.32c-.6.4-.79 1.5-.9 2.52a69.86 69.86 0 0 0 -.48 8.8z"></path>
    <path d="m177.11 372.3h-.05l-15.58-.52a1.43 1.43 0 0 1 -1.21-.77 1.39 1.39 0 0 1 .09-1.42l5.19-7.74c1.75-2.59 3.72-5.53 6.61-7.49a13.82 13.82 0 0 1 8.84-2.36 4.35 4.35 0 0 1 2.29.74 4 4 0 0 1 1.41 2.29c1.2 4.44-1.25 8.73-3.65 12.41l-2.75 4.21a1.4 1.4 0 0 1 -1.19.65zm-13-3.25 12.26.42 2.31-3.55c2.16-3.32 4.19-6.83 3.3-10.15-.15-.55-.31-.72-.38-.76a2 2 0 0 0 -.82-.19 11.1 11.1 0 0 0 -7 1.86c-2.44 1.66-4.17 4.24-5.85 6.74z"></path>
    <path d="m211.72 386.79h-72.2a1.41 1.41 0 0 1 -1.4-1.41v-14.38a1.41 1.41 0 0 1 1.4-1.41h72.2a1.41 1.41 0 0 1 1.41 1.41v14.35a1.41 1.41 0 0 1 -1.41 1.44zm-70.79-2.79h69.39v-11.56h-69.39z"></path>
    <path d="m134.32 399.6h6.3v31.85h-6.3z"></path>
    <path d="m140.61 432.86h-6.29a1.41 1.41 0 0 1 -1.41-1.41v-31.85a1.41 1.41 0 0 1 1.41-1.4h6.29a1.41 1.41 0 0 1 1.41 1.4v31.85a1.41 1.41 0 0 1 -1.41 1.41zm-4.89-2.86h3.49v-29h-3.49z"></path>
    <path d="m209.67 399.6h6.3v31.85h-6.3z"></path>
    <path d="m216 432.86h-6.3a1.41 1.41 0 0 1 -1.41-1.41v-31.85a1.41 1.41 0 0 1 1.41-1.4h6.3a1.41 1.41 0 0 1 1.41 1.4v31.85a1.41 1.41 0 0 1 -1.41 1.41zm-4.92-2.86h3.48v-29h-3.48z"></path>
    <path d="m127.33 385.38h96.59v14.22h-96.59z"></path>
    <path d="m224 401h-96.79a1.35 1.35 0 0 1 -1.29-1.41v-14.21a1.35 1.35 0 0 1 1.29-1.41h96.79a1.36 1.36 0 0 1 1.3 1.41v14.22a1.36 1.36 0 0 1 -1.3 1.4zm-95.52-2.81h94.23v-11.4h-94.2z"></path>
    <path d="m383.43 399.6h6.3v31.85h-6.3z"></path>
    <path d="m389.73 432.86h-6.3a1.41 1.41 0 0 1 -1.4-1.41v-31.85a1.4 1.4 0 0 1 1.4-1.4h6.3a1.41 1.41 0 0 1 1.41 1.4v31.85a1.41 1.41 0 0 1 -1.41 1.41zm-4.89-2.86h3.49v-29h-3.49z"></path>
    <path d="m458.79 399.6h6.3v31.85h-6.3z"></path>
    <path d="m465.09 432.86h-6.3a1.41 1.41 0 0 1 -1.41-1.41v-31.85a1.41 1.41 0 0 1 1.41-1.4h6.3a1.4 1.4 0 0 1 1.4 1.4v31.85a1.41 1.41 0 0 1 -1.4 1.41zm-4.89-2.86h3.48v-29h-3.48z"></path>
    <path d="m375.04 385.38h99.41v14.22h-99.41z"></path>
    <path d="m473.15 401h-96.81a1.36 1.36 0 0 1 -1.3-1.41v-14.21a1.36 1.36 0 0 1 1.3-1.41h96.81a1.36 1.36 0 0 1 1.3 1.41v14.22a1.36 1.36 0 0 1 -1.3 1.4zm-95.52-2.81h94.23v-11.4h-94.23z"></path>
    <path d="m492 477.34h-134.52a1.41 1.41 0 0 1 -1.4-1.41v-30.74a1.41 1.41 0 0 1 1.4-1.41h134.52a1.41 1.41 0 0 1 1.41 1.41v30.74a1.41 1.41 0 0 1 -1.41 1.41zm-133.11-2.82h131.7v-27.93h-131.7z"></path>
    <path d="m492 446.59h-134.52a1.4 1.4 0 0 1 -1.4-1.4v-13.74a1.41 1.41 0 0 1 1.4-1.41h134.52a1.41 1.41 0 0 1 1.41 1.41v13.74a1.41 1.41 0 0 1 -1.41 1.4zm-133.11-2.81h131.7v-10.92h-131.7z"></path>
    <path d="m242.52 446.59h-134.52a1.41 1.41 0 0 1 -1.41-1.4v-13.74a1.41 1.41 0 0 1 1.41-1.45h134.52a1.41 1.41 0 0 1 1.4 1.41v13.74a1.4 1.4 0 0 1 -1.4 1.44zm-133.11-2.81h131.7v-10.92h-131.7z"></path>
    <path d="m407.1 449.35h75.97v6.84h-75.97z" transform="matrix(.17 .99 -.99 .17 816.77 -61.96)"></path>
    <path d="m448.08 492.19a1.4 1.4 0 0 1 -1.38-1.19l-12.7-74.87a1.42 1.42 0 0 1 1.16-1.63l6.73-1.14a1.42 1.42 0 0 1 1.63 1.15l12.74 74.89a1.4 1.4 0 0 1 -1.15 1.62l-6.74 1.15zm-11.08-75.19 12.27 72.12 4-.67-12.27-72.12z"></path>
    <path d="m386.95 449.35h75.97v6.84h-75.97z" transform="matrix(-.16780119 .98582086 -.98582086 -.16780119 942.56 109.8)"></path>
    <path d="m421.93 492.19h-.23l-6.7-1.19a1.4 1.4 0 0 1 -1.15-1.62l12.74-74.89a1.38 1.38 0 0 1 1.62-1.15l6.74 1.14a1.42 1.42 0 0 1 .91.58 1.39 1.39 0 0 1 .24 1.05l-12.78 74.89a1.41 1.41 0 0 1 -1.39 1.19zm-5.11-3.7 4 .67 12.23-72.16-4-.67z"></path>
    <circle cx="435.01" cy="414.42" r="4.2"></circle>
    <path d="m435 420a5.61 5.61 0 1 1 5.6-5.61 5.62 5.62 0 0 1 -5.6 5.61zm0-8.4a2.8 2.8 0 1 0 2.79 2.79 2.8 2.8 0 0 0 -2.79-2.76z"></path>
    <path d="m461.71 386.71h-8.71a3.31 3.31 0 0 1 -3-3.51v-11.08a4.88 4.88 0 0 1 .89-2.82 6.41 6.41 0 0 1 1.46-1.39l.41-.32a1.81 1.81 0 0 1 -.09-.58v-2.37a1.85 1.85 0 0 1 1.54-1.87h6.21a2.15 2.15 0 0 1 1.39.7 2 2 0 0 1 .39 1.2v2.33a1.93 1.93 0 0 1 -.1.6l.36.28a7.11 7.11 0 0 1 1.49 1.44 4.83 4.83 0 0 1 .87 2.78v11.1a3.31 3.31 0 0 1 -3.11 3.51zm-6.29-20.22a1.59 1.59 0 0 1 .13.13 1.45 1.45 0 0 1 .31 1.21 3.08 3.08 0 0 1 -.6 1.18 6.8 6.8 0 0 1 -1.28 1.14 4 4 0 0 0 -.87.8 2 2 0 0 0 -.36 1.2v11.05a.84.84 0 0 0 .27.7h8.69a1 1 0 0 0 .23-.69v-11.06a2.08 2.08 0 0 0 -.35-1.17 4 4 0 0 0 -.87-.81 6.24 6.24 0 0 1 -1.28-1.17 2.91 2.91 0 0 1 -.59-1.19 1.41 1.41 0 0 1 .27-1.19 1 1 0 0 1 .2-.2v-.85h-3.9z"></path>
    <path d="m431.64 386.71h-8.73a3.31 3.31 0 0 1 -3-3.51v-11.08a4.94 4.94 0 0 1 .88-2.82 6.45 6.45 0 0 1 1.48-1.4l.4-.31a1.81 1.81 0 0 1 -.09-.58v-2.37a1.84 1.84 0 0 1 1.54-1.87h6.21a2.15 2.15 0 0 1 1.39.7 2 2 0 0 1 .39 1.24v2.33a2 2 0 0 1 -.09.6c.11.1.22.18.34.27a7 7 0 0 1 1.51 1.45 4.93 4.93 0 0 1 .87 2.78v11.06a3.31 3.31 0 0 1 -3.1 3.51zm-6.29-20.23.13.14a1.45 1.45 0 0 1 .31 1.21 3.08 3.08 0 0 1 -.6 1.18 7.16 7.16 0 0 1 -1.27 1.14 4.06 4.06 0 0 0 -.89.8 2.09 2.09 0 0 0 -.35 1.19v11.06a.84.84 0 0 0 .27.7h8.69a1 1 0 0 0 .23-.69v-11.06a2.05 2.05 0 0 0 -.35-1.17 4.13 4.13 0 0 0 -.89-.82 7.34 7.34 0 0 1 -1.26-1.15 3.05 3.05 0 0 1 -.59-1.18 1.42 1.42 0 0 1 .26-1.21l.2-.2v-.85h-3.9z"></path>
    <path d="m446.37 386.79h-8.24a1.41 1.41 0 0 1 -1.4-1.41v-14.19a1.29 1.29 0 0 1 .07-.43l2.07-6.44v-5.23a1.4 1.4 0 0 1 1.4-1.41h4a1.4 1.4 0 0 1 1.41 1.41v5.23l2.08 6.44a1.61 1.61 0 0 1 .07.43v14.19a1.41 1.41 0 0 1 -1.46 1.41zm-6.83-2.79h5.46v-12.56l-2.09-6.44a1.25 1.25 0 0 1 -.07-.43v-4h-1.18v4a1.55 1.55 0 0 1 -.07.43l-2.08 6.44z"></path>
    <path d="m210.71 141.68a22.32 22.32 0 0 1 -9.65 12.45c-1.92 1.19-4.35 2.58-6.66 2.43-5.15-.35-4.27-7.11-3.94-10.46a43.82 43.82 0 0 1 5.62-17.56c1.25-2.17 2.78-4.83 4.85-6.35a7.54 7.54 0 0 1 3.22-1.49c.48-.06 5.2.28 4.32 1.86-.63 1.13.29 5.49 1.12 4 3.18-5.72-1.48-13.32-8.25-9.54-3.64 2-5.92 6.48-7.73 10a49.63 49.63 0 0 0 -4.81 15.21c-.8 5.36-2.66 19.71 6.39 18.95 8.58-.73 15-9.73 17.33-17.2.48-1.48-.93-5.18-1.81-2.3z"></path>
    <path d="m237.62 145c.47-1.2-.62-5.55-1.51-3.26a8.16 8.16 0 0 1 -2.68 3.66c-.52.4-2.59 1.83-3.15 1.33-1.07-1 1.3-7.67 1.74-9.09.22-.69-.25-5.34-1.32-3.62-1.74 2.82-3.42 5.69-5.24 8.45-.56.86-1.66 2.84-2.83 2.86-2.4 0-.19-5.23.54-6.67.6-1.16-.38-5.48-1.51-3.25a19.7 19.7 0 0 0 -2.4 8.86c0 1.67.09 5 2.06 5.82 1.78.69 3.6-1.32 4.54-2.55a42.06 42.06 0 0 0 2.41-3.57c-.35 2-.82 4.64.22 6.41 2.51 4.21 8.22-3.02 9.13-5.38z"></path>
    <path d="m244.33 137.42c.12-.41.23-.83.36-1.24.45-1.49-.93-5.19-1.81-2.31a115 115 0 0 0 -4.78 27c-1.16-.52-2.32-1-3.48-1.54-1.42-.61-1.72 3.94-.43 4.49q2.3 1 4.57 2c.85.38 1.19-1.13 1.21-1.66a110.54 110.54 0 0 1 1.54-14.57 4.27 4.27 0 0 0 1.43 2.28c3.48 2.69 8.4-2.74 9.75-5.45 1.49-3 2.45-7.84.39-10.8-2.64-3.76-6.17-.62-8.75 1.8zm7.61 3.83a9 9 0 0 1 -3.14 4.75c-1.83 1.5-6.83 3-5-1.5a5 5 0 0 0 .31-1.8 26.79 26.79 0 0 1 3.44-3.22c1.93-1.32 5.02-1.23 4.39 1.77z"></path>
    <path d="m277.11 138.18-10.22 3.43c-.53-1.07-1.46-1.71-1.91-2.77-1.42-3.39 2.88-4.09 5.21-2.75 1.24.72 1.68-3.77.43-4.49-6.77-3.91-10.65 5.24-7.31 10.35l.47.71c-2.71.9-5.45 1.77-7 4.4-2 3.43-1.64 9.27 2.12 11.36 5.15 2.87 8.1-2.58 8.61-6.93a31.25 31.25 0 0 0 .2-5.84c3.36-1.07 6.86-1.94 10-3 1.29-.41.97-4.99-.6-4.47zm-11.43 8.6c.49 2.48-.33 7-3.24 7.68-1 .23-2.94.09-3.5-.78-1.35-2.07-.11-4.11 1.65-5.09a33.06 33.06 0 0 1 5-2.2c.03.13.06.26.09.39z"></path>
    <path d="m304.39 128.44a6.89 6.89 0 0 0 -1.77-.82 4.43 4.43 0 0 0 -.06-1c0-.21-.07-.42-.1-.63 0 0 0-.07 0-.11 0-.12 0-.25 0-.37s0-.28 0-.38a4.91 4.91 0 0 0 -.15-1.79 1.79 1.79 0 0 0 -.63-1.06c-.85-.45-1.16 1.19-1.21 1.66a14.82 14.82 0 0 0 .09 3.52 3.86 3.86 0 0 0 -3.32 3.22 8.54 8.54 0 0 0 .95 6 3.82 3.82 0 0 0 -2.43 1.34 9 9 0 0 0 -2 5.93 4.94 4.94 0 0 0 4.12 4.91c-.05 1.66-.05 3.32.06 5 0 .62.16 2.29 1.08 2.3s1-1.84.95-2.35a41.87 41.87 0 0 1 -.09-4.48 2.81 2.81 0 0 0 0-.3 9.37 9.37 0 0 0 3-.67c1.24-.49.85-5.06-.65-4.47s-5.57 1.33-5.88-.67c-.39-2.49 4.09-1.92 5.42-2.16s1.18-3.61.41-4.34-3.18-2.91-2.76-4c.66-1.71 3.55-.4 4.49.21 1.21.75 1.71-3.7.48-4.49z"></path>
    <path d="m349.88 125.13-.8.74c.08-2.06.13-4.13.17-6.19 0-.36-.38-2.91-1.34-2.21a13.47 13.47 0 0 1 -15.56.54c-1.17-.74-1.66 3.72-.43 4.5a14.45 14.45 0 0 0 15.23.34c0 1.67-.1 3.34-.2 5-5.91 5.45-12.16 10.88-17 17.23-2.91 3.83-5.65 12.4.6 14.76 7.13 2.69 12.94-8.23 15-13.39a53.87 53.87 0 0 0 3.23-15.19l1.77-1.67c1.04-1 .22-5.31-.67-4.46zm-4.58 14.13c-1.46 5.46-4.68 13-10.16 15.65-2.21 1.06-4.41 1.1-5.38-1.32-.83-2.09.13-2.88 1.33-4.51a57.81 57.81 0 0 1 6.09-6.72c3-3 6.13-5.93 9.24-8.87a49.38 49.38 0 0 1 -1.12 5.77z"></path>
    <path d="m374.47 136.91c-1.09 3.31-2.29 7-5.36 9a5.77 5.77 0 0 1 -2.52 1.13c-1.51-.1-1.91-.7-1.22-1.79a4 4 0 0 1 .24-1.36c.86-1.52 1.65-3 2.39-4.17s-.13-5.5-1.12-4c-.45.69-1.05 1.69-1.65 2.83v.07c.06-1-.14-2.19-.71-2.55-8-5.06-14.43 4.37-12.18 11.82.89 3 3.09 5 6.32 3.74a10.09 10.09 0 0 0 4.06-3.29 4.28 4.28 0 0 0 1.51 2.69c5.53 4.43 10.67-7.52 11.79-10.91.36-1.12-.79-5.51-1.55-3.21zm-15.47 9.79c-.54.33-2.1 1.05-2.8.72q-.71-2.64-1.4-5.3l1.5-1.59a6.75 6.75 0 0 1 7.79.08c-1.43 2.45-3.09 4.85-5.09 6.09z"></path>
    <path d="m394.79 135.63c1.12.28 1.44-4.26-.11-4.65-6.63-1.66-11 2.51-14 7.76.14-.55.27-1.1.42-1.65.41-1.49-1-5.2-1.81-2.3a77.43 77.43 0 0 0 -2.53 13.82c-.07.77 1 4.5 1.75 2.22 2.33-7.32 6.66-17.62 16.28-15.2z"></path>
    <path d="m410.42 135.62c-3.2 1.5-6.69 3-10.15 4.57a5 5 0 0 1 -.54-1c-1-.64-1-1.29-.1-2 .17-.84.61-1.16 1.33-1 1.36-.23 3.12.63 4.27 1.23 1.31.67 1.7-3.84.43-4.5-3.33-1.72-8-2.51-9.22 1.94-.66 2.53.2 4.58 1.15 6.57a45.66 45.66 0 0 0 -12.09 8.11c-3.05 3-4.23 9.36.74 11.38 6.38 2.59 13.24-5 15.07-10.32a13.83 13.83 0 0 0 .69-6.32c3-1.45 6.07-2.83 9.07-4.24 1.25-.54.77-5.04-.65-4.42zm-12.52 15.43c-1.7 2.51-5.37 5.57-8.62 5.6a2.15 2.15 0 0 1 -2.68-.9q-2.72-1.27.77-2.78a36.07 36.07 0 0 1 4-2.87c2.53-1.61 5.18-3 7.88-4.41a6.91 6.91 0 0 1 -1.35 5.36z"></path>
    <path d="m231.15 432.86h-5.82a1.41 1.41 0 0 1 -1.41-1.41v-202.68a7.56 7.56 0 0 1 -1-1h-94.61a8.25 8.25 0 0 1 -1 1v202.68a1.41 1.41 0 0 1 -1.41 1.41h-5.8a1.41 1.41 0 0 1 -1.41-1.41v-202.68a6.84 6.84 0 1 1 9.62-9.62h94.63a6.78 6.78 0 0 1 5.3-2.53 6.84 6.84 0 0 1 4.32 12.15v202.68a1.41 1.41 0 0 1 -1.41 1.41zm-4.42-2.86h3v-202a1.42 1.42 0 0 1 .64-1.19 4 4 0 1 0 -5.55-5.55 1.39 1.39 0 0 1 -1.18.65h-96.05a1.4 1.4 0 0 1 -1.19-.65 4 4 0 1 0 -5.55 5.55 1.4 1.4 0 0 1 .65 1.19v202h3v-202a1.42 1.42 0 0 1 .64-1.19 3.94 3.94 0 0 0 1.24-1.23 1.41 1.41 0 0 1 1.19-.66h96.07a1.38 1.38 0 0 1 1.18.66 4 4 0 0 0 1.24 1.23 1.4 1.4 0 0 1 .65 1.19z"></path>
    <path d="m339.5 383.87h-16.22a1.41 1.41 0 0 1 -1.41-1.4v-29.09a1.41 1.41 0 0 1 1.41-1.41h16.22a1.41 1.41 0 0 1 1.41 1.41v29.09a1.41 1.41 0 0 1 -1.41 1.4zm-14.82-2.81h13.41v-26.27h-13.41z"></path>
    <g clip-path="url(#a)">
      <g clip-path="url(#b)">
        <path d="m360.89 242.32a1.36 1.36 0 1 0 -1.35-1.36 1.35 1.35 0 0 0 1.35 1.36z"></path>
        <path d="m347.39 242.32a1.36 1.36 0 1 0 -1.39-1.32 1.35 1.35 0 0 0 1.39 1.32z"></path>
        <path d="m360.89 228.76a1.36 1.36 0 1 0 -1.35-1.36 1.35 1.35 0 0 0 1.35 1.36z"></path>
        <path d="m347.39 228.76a1.36 1.36 0 1 0 -1.39-1.36 1.35 1.35 0 0 0 1.39 1.36z"></path>
        <path d="m340.64 235.54a1.36 1.36 0 1 0 -1.35-1.36 1.36 1.36 0 0 0 1.35 1.36z"></path>
        <path d="m354.14 235.54a1.36 1.36 0 1 0 -1.35-1.36 1.35 1.35 0 0 0 1.35 1.36z"></path>
        <path d="m340.64 222a1.36 1.36 0 1 0 -1.35-1.35 1.35 1.35 0 0 0 1.35 1.35z"></path>
        <path d="m354.14 222a1.36 1.36 0 1 0 -1.35-1.35 1.34 1.34 0 0 0 1.35 1.35z"></path>
        <path d="m333.89 242.32a1.36 1.36 0 1 0 -1.35-1.36 1.35 1.35 0 0 0 1.35 1.36z"></path>
        <path d="m333.89 228.76a1.36 1.36 0 1 0 -1.35-1.36 1.35 1.35 0 0 0 1.35 1.36z"></path>
        <path d="m360.89 215.19a1.36 1.36 0 1 0 -1.35-1.35 1.35 1.35 0 0 0 1.35 1.35z"></path>
        <path d="m347.39 215.19a1.36 1.36 0 1 0 -1.35-1.35 1.35 1.35 0 0 0 1.35 1.35z"></path>
        <path d="m333.89 215.19a1.36 1.36 0 1 0 -1.35-1.35 1.35 1.35 0 0 0 1.35 1.35z"></path>
      </g>
      <g clip-path="url(#c)">
        <path d="m360.89 269.44a1.36 1.36 0 1 0 -1.35-1.36 1.35 1.35 0 0 0 1.35 1.36z"></path>
        <path d="m347.39 269.44a1.36 1.36 0 1 0 -1.35-1.36 1.35 1.35 0 0 0 1.35 1.36z"></path>
        <path d="m360.89 255.88a1.36 1.36 0 1 0 -1.35-1.36 1.35 1.35 0 0 0 1.35 1.36z"></path>
        <path d="m347.39 255.88a1.36 1.36 0 1 0 -1.35-1.36 1.35 1.35 0 0 0 1.35 1.36z"></path>
        <path d="m340.64 262.66a1.36 1.36 0 0 0 0-2.71 1.36 1.36 0 0 0 0 2.71z"></path>
        <path d="m354.14 262.66a1.36 1.36 0 1 0 -1.35-1.36 1.35 1.35 0 0 0 1.35 1.36z"></path>
        <path d="m340.64 249.1a1.36 1.36 0 1 0 -1.35-1.36 1.36 1.36 0 0 0 1.35 1.36z"></path>
        <path d="m354.14 249.1a1.36 1.36 0 1 0 -1.35-1.36 1.35 1.35 0 0 0 1.35 1.36z"></path>
        <path d="m333.89 269.44a1.36 1.36 0 1 0 -1.35-1.36 1.35 1.35 0 0 0 1.35 1.36z"></path>
        <path d="m333.89 255.88a1.36 1.36 0 1 0 -1.35-1.36 1.35 1.35 0 0 0 1.35 1.36z"></path>
        <path d="m360.89 242.32a1.36 1.36 0 1 0 -1.35-1.36 1.35 1.35 0 0 0 1.35 1.36z"></path>
        <path d="m347.39 242.32a1.36 1.36 0 1 0 -1.39-1.32 1.35 1.35 0 0 0 1.39 1.32z"></path>
        <path d="m333.89 242.32a1.36 1.36 0 1 0 -1.35-1.36 1.35 1.35 0 0 0 1.35 1.36z"></path>
      </g>
      <g clip-path="url(#d)">
        <path d="m333.89 242.32a1.36 1.36 0 1 0 -1.35-1.36 1.35 1.35 0 0 0 1.35 1.36z"></path>
        <path d="m320.39 242.32a1.36 1.36 0 1 0 -1.39-1.32 1.35 1.35 0 0 0 1.39 1.32z"></path>
        <path d="m333.89 228.76a1.36 1.36 0 1 0 -1.35-1.36 1.35 1.35 0 0 0 1.35 1.36z"></path>
        <path d="m320.39 228.76a1.36 1.36 0 1 0 -1.39-1.36 1.35 1.35 0 0 0 1.39 1.36z"></path>
        <path d="m313.64 235.54a1.36 1.36 0 1 0 -1.35-1.36 1.35 1.35 0 0 0 1.35 1.36z"></path>
        <path d="m327.14 235.54a1.36 1.36 0 1 0 -1.35-1.36 1.35 1.35 0 0 0 1.35 1.36z"></path>
        <path d="m313.64 222a1.36 1.36 0 1 0 -1.35-1.35 1.34 1.34 0 0 0 1.35 1.35z"></path>
        <path d="m327.14 222a1.36 1.36 0 1 0 -1.35-1.35 1.34 1.34 0 0 0 1.35 1.35z"></path>
        <path d="m306.89 242.32a1.36 1.36 0 1 0 -1.35-1.36 1.35 1.35 0 0 0 1.35 1.36z"></path>
        <path d="m306.89 228.76a1.36 1.36 0 1 0 -1.35-1.36 1.35 1.35 0 0 0 1.35 1.36z"></path>
        <path d="m333.89 215.19a1.36 1.36 0 1 0 -1.35-1.35 1.35 1.35 0 0 0 1.35 1.35z"></path>
        <path d="m320.39 215.19a1.36 1.36 0 1 0 -1.35-1.35 1.35 1.35 0 0 0 1.35 1.35z"></path>
        <path d="m306.89 215.19a1.36 1.36 0 1 0 -1.35-1.35 1.35 1.35 0 0 0 1.35 1.35z"></path>
      </g>
      <g clip-path="url(#e)">
        <path d="m333.89 269.44a1.36 1.36 0 1 0 -1.35-1.36 1.35 1.35 0 0 0 1.35 1.36z"></path>
        <path d="m320.39 269.44a1.36 1.36 0 1 0 -1.35-1.36 1.35 1.35 0 0 0 1.35 1.36z"></path>
        <path d="m333.89 255.88a1.36 1.36 0 1 0 -1.35-1.36 1.35 1.35 0 0 0 1.35 1.36z"></path>
        <path d="m320.39 255.88a1.36 1.36 0 1 0 -1.35-1.36 1.35 1.35 0 0 0 1.35 1.36z"></path>
        <path d="m313.64 262.66a1.36 1.36 0 1 0 -1.35-1.36 1.35 1.35 0 0 0 1.35 1.36z"></path>
        <path d="m327.14 262.66a1.36 1.36 0 1 0 -1.35-1.36 1.35 1.35 0 0 0 1.35 1.36z"></path>
        <path d="m313.64 249.1a1.36 1.36 0 1 0 -1.35-1.36 1.35 1.35 0 0 0 1.35 1.36z"></path>
        <path d="m327.14 249.1a1.36 1.36 0 1 0 -1.35-1.36 1.35 1.35 0 0 0 1.35 1.36z"></path>
        <path d="m306.89 269.44a1.36 1.36 0 1 0 -1.35-1.36 1.35 1.35 0 0 0 1.35 1.36z"></path>
        <path d="m306.89 255.88a1.36 1.36 0 1 0 -1.35-1.36 1.35 1.35 0 0 0 1.35 1.36z"></path>
        <path d="m333.89 242.32a1.36 1.36 0 1 0 -1.35-1.36 1.35 1.35 0 0 0 1.35 1.36z"></path>
        <path d="m320.39 242.32a1.36 1.36 0 1 0 -1.39-1.32 1.35 1.35 0 0 0 1.39 1.32z"></path>
        <path d="m306.89 242.32a1.36 1.36 0 1 0 -1.35-1.36 1.35 1.35 0 0 0 1.35 1.36z"></path>
      </g>
      <g clip-path="url(#f)">
        <path d="m306.89 242.32a1.36 1.36 0 1 0 -1.35-1.36 1.35 1.35 0 0 0 1.35 1.36z"></path>
        <path d="m293.39 242.32a1.36 1.36 0 1 0 -1.39-1.32 1.35 1.35 0 0 0 1.39 1.32z"></path>
        <path d="m306.89 228.76a1.36 1.36 0 1 0 -1.35-1.36 1.35 1.35 0 0 0 1.35 1.36z"></path>
        <path d="m293.39 228.76a1.36 1.36 0 1 0 -1.39-1.36 1.35 1.35 0 0 0 1.39 1.36z"></path>
        <path d="m286.64 235.54a1.36 1.36 0 1 0 -1.35-1.36 1.35 1.35 0 0 0 1.35 1.36z"></path>
        <path d="m300.14 235.54a1.36 1.36 0 1 0 -1.35-1.36 1.35 1.35 0 0 0 1.35 1.36z"></path>
        <path d="m286.64 222a1.36 1.36 0 1 0 -1.35-1.35 1.34 1.34 0 0 0 1.35 1.35z"></path>
        <path d="m300.14 222a1.36 1.36 0 1 0 -1.35-1.35 1.34 1.34 0 0 0 1.35 1.35z"></path>
        <path d="m279.89 242.32a1.36 1.36 0 1 0 -1.35-1.36 1.35 1.35 0 0 0 1.35 1.36z"></path>
        <path d="m279.89 228.76a1.36 1.36 0 1 0 -1.35-1.36 1.35 1.35 0 0 0 1.35 1.36z"></path>
        <path d="m306.89 215.19a1.36 1.36 0 1 0 -1.35-1.35 1.35 1.35 0 0 0 1.35 1.35z"></path>
        <path d="m293.39 215.19a1.36 1.36 0 1 0 -1.35-1.35 1.35 1.35 0 0 0 1.35 1.35z"></path>
        <path d="m279.89 215.19a1.36 1.36 0 1 0 -1.35-1.35 1.35 1.35 0 0 0 1.35 1.35z"></path>
      </g>
      <g clip-path="url(#g)">
        <path d="m306.89 269.44a1.36 1.36 0 1 0 -1.35-1.36 1.35 1.35 0 0 0 1.35 1.36z"></path>
        <path d="m293.39 269.44a1.36 1.36 0 1 0 -1.35-1.36 1.35 1.35 0 0 0 1.35 1.36z"></path>
        <path d="m306.89 255.88a1.36 1.36 0 1 0 -1.35-1.36 1.35 1.35 0 0 0 1.35 1.36z"></path>
        <path d="m293.39 255.88a1.36 1.36 0 1 0 -1.35-1.36 1.35 1.35 0 0 0 1.35 1.36z"></path>
        <path d="m286.64 262.66a1.36 1.36 0 1 0 -1.35-1.36 1.35 1.35 0 0 0 1.35 1.36z"></path>
        <path d="m300.14 262.66a1.36 1.36 0 1 0 -1.35-1.36 1.35 1.35 0 0 0 1.35 1.36z"></path>
        <path d="m286.64 249.1a1.36 1.36 0 1 0 -1.35-1.36 1.35 1.35 0 0 0 1.35 1.36z"></path>
        <path d="m300.14 249.1a1.36 1.36 0 1 0 -1.35-1.36 1.35 1.35 0 0 0 1.35 1.36z"></path>
        <path d="m279.89 269.44a1.36 1.36 0 1 0 -1.35-1.36 1.35 1.35 0 0 0 1.35 1.36z"></path>
        <path d="m279.89 255.88a1.36 1.36 0 1 0 -1.35-1.36 1.35 1.35 0 0 0 1.35 1.36z"></path>
        <path d="m306.89 242.32a1.36 1.36 0 1 0 -1.35-1.36 1.35 1.35 0 0 0 1.35 1.36z"></path>
        <path d="m293.39 242.32a1.36 1.36 0 1 0 -1.39-1.32 1.35 1.35 0 0 0 1.39 1.32z"></path>
        <path d="m279.89 242.32a1.36 1.36 0 1 0 -1.35-1.36 1.35 1.35 0 0 0 1.35 1.36z"></path>
      </g>
      <g clip-path="url(#h)">
        <path d="m279.89 242.32a1.36 1.36 0 1 0 -1.35-1.36 1.35 1.35 0 0 0 1.35 1.36z"></path>
        <path d="m266.39 242.32a1.36 1.36 0 1 0 -1.39-1.32 1.35 1.35 0 0 0 1.39 1.32z"></path>
        <path d="m279.89 228.76a1.36 1.36 0 1 0 -1.35-1.36 1.35 1.35 0 0 0 1.35 1.36z"></path>
        <path d="m266.39 228.76a1.36 1.36 0 1 0 -1.39-1.36 1.35 1.35 0 0 0 1.39 1.36z"></path>
        <path d="m259.64 235.54a1.36 1.36 0 1 0 -1.35-1.36 1.35 1.35 0 0 0 1.35 1.36z"></path>
        <path d="m273.14 235.54a1.36 1.36 0 1 0 -1.35-1.36 1.35 1.35 0 0 0 1.35 1.36z"></path>
        <path d="m259.64 222a1.36 1.36 0 1 0 -1.35-1.35 1.34 1.34 0 0 0 1.35 1.35z"></path>
        <path d="m273.14 222a1.36 1.36 0 1 0 -1.35-1.35 1.34 1.34 0 0 0 1.35 1.35z"></path>
        <path d="m252.89 242.32a1.36 1.36 0 1 0 -1.35-1.36 1.35 1.35 0 0 0 1.35 1.36z"></path>
        <path d="m252.89 228.76a1.36 1.36 0 1 0 -1.35-1.36 1.35 1.35 0 0 0 1.35 1.36z"></path>
        <path d="m279.89 215.19a1.36 1.36 0 1 0 -1.35-1.35 1.35 1.35 0 0 0 1.35 1.35z"></path>
        <path d="m266.39 215.19a1.36 1.36 0 1 0 -1.35-1.35 1.35 1.35 0 0 0 1.35 1.35z"></path>
        <path d="m252.89 215.19a1.36 1.36 0 1 0 -1.35-1.35 1.35 1.35 0 0 0 1.35 1.35z"></path>
      </g>
      <g clip-path="url(#i)">
        <path d="m279.89 269.44a1.36 1.36 0 1 0 -1.35-1.36 1.35 1.35 0 0 0 1.35 1.36z"></path>
        <path d="m266.39 269.44a1.36 1.36 0 1 0 -1.35-1.36 1.35 1.35 0 0 0 1.35 1.36z"></path>
        <path d="m279.89 255.88a1.36 1.36 0 1 0 -1.35-1.36 1.35 1.35 0 0 0 1.35 1.36z"></path>
        <path d="m266.39 255.88a1.36 1.36 0 1 0 -1.35-1.36 1.35 1.35 0 0 0 1.35 1.36z"></path>
        <path d="m259.64 262.66a1.36 1.36 0 1 0 -1.35-1.36 1.35 1.35 0 0 0 1.35 1.36z"></path>
        <path d="m273.14 262.66a1.36 1.36 0 1 0 -1.35-1.36 1.35 1.35 0 0 0 1.35 1.36z"></path>
        <path d="m259.64 249.1a1.36 1.36 0 1 0 -1.35-1.36 1.35 1.35 0 0 0 1.35 1.36z"></path>
        <path d="m273.14 249.1a1.36 1.36 0 1 0 -1.35-1.36 1.35 1.35 0 0 0 1.35 1.36z"></path>
        <path d="m252.89 269.44a1.36 1.36 0 1 0 -1.35-1.36 1.35 1.35 0 0 0 1.35 1.36z"></path>
        <path d="m252.89 255.88a1.36 1.36 0 1 0 -1.35-1.36 1.35 1.35 0 0 0 1.35 1.36z"></path>
        <path d="m279.89 242.32a1.36 1.36 0 1 0 -1.35-1.36 1.35 1.35 0 0 0 1.35 1.36z"></path>
        <path d="m266.39 242.32a1.36 1.36 0 1 0 -1.39-1.32 1.35 1.35 0 0 0 1.39 1.32z"></path>
        <path d="m252.89 242.32a1.36 1.36 0 1 0 -1.35-1.36 1.35 1.35 0 0 0 1.35 1.36z"></path>
      </g>
    </g>
    <g clip-path="url(#j)">
      <g clip-path="url(#k)">
        <path d="m360.89 296.56a1.36 1.36 0 1 0 -1.35-1.35 1.34 1.34 0 0 0 1.35 1.35z"></path>
        <path d="m347.39 296.56a1.36 1.36 0 1 0 -1.35-1.35 1.34 1.34 0 0 0 1.35 1.35z"></path>
        <path d="m360.89 283a1.36 1.36 0 1 0 -1.35-1.35 1.35 1.35 0 0 0 1.35 1.35z"></path>
        <path d="m347.39 283a1.36 1.36 0 1 0 -1.35-1.35 1.35 1.35 0 0 0 1.35 1.35z"></path>
        <path d="m340.64 289.78a1.36 1.36 0 1 0 -1.35-1.35 1.35 1.35 0 0 0 1.35 1.35z"></path>
        <path d="m354.14 289.78a1.36 1.36 0 1 0 -1.35-1.35 1.34 1.34 0 0 0 1.35 1.35z"></path>
        <path d="m340.64 276.22a1.36 1.36 0 1 0 -1.35-1.35 1.36 1.36 0 0 0 1.35 1.35z"></path>
        <path d="m354.14 276.22a1.36 1.36 0 1 0 -1.35-1.35 1.35 1.35 0 0 0 1.35 1.35z"></path>
        <path d="m333.89 296.56a1.36 1.36 0 1 0 -1.35-1.35 1.34 1.34 0 0 0 1.35 1.35z"></path>
        <path d="m333.89 283a1.36 1.36 0 1 0 -1.35-1.35 1.35 1.35 0 0 0 1.35 1.35z"></path>
        <path d="m360.89 269.44a1.36 1.36 0 1 0 -1.35-1.36 1.35 1.35 0 0 0 1.35 1.36z"></path>
        <path d="m347.39 269.44a1.36 1.36 0 1 0 -1.35-1.36 1.35 1.35 0 0 0 1.35 1.36z"></path>
        <path d="m333.89 269.44a1.36 1.36 0 1 0 -1.35-1.36 1.35 1.35 0 0 0 1.35 1.36z"></path>
      </g>
      <g clip-path="url(#l)">
        <path d="m360.89 323.69a1.36 1.36 0 1 0 -1.35-1.36 1.35 1.35 0 0 0 1.35 1.36z"></path>
        <path d="m347.39 323.69a1.36 1.36 0 1 0 -1.35-1.36 1.35 1.35 0 0 0 1.35 1.36z"></path>
        <path d="m360.89 310.13a1.36 1.36 0 1 0 -1.35-1.36 1.35 1.35 0 0 0 1.35 1.36z"></path>
        <path d="m347.39 310.13a1.36 1.36 0 1 0 -1.35-1.36 1.35 1.35 0 0 0 1.35 1.36z"></path>
        <path d="m340.64 316.91a1.36 1.36 0 0 0 0-2.71 1.36 1.36 0 0 0 0 2.71z"></path>
        <path d="m354.14 316.91a1.36 1.36 0 1 0 -1.35-1.36 1.35 1.35 0 0 0 1.35 1.36z"></path>
        <path d="m340.64 303.35a1.36 1.36 0 1 0 -1.35-1.36 1.36 1.36 0 0 0 1.35 1.36z"></path>
        <path d="m354.14 303.35a1.36 1.36 0 1 0 -1.35-1.36 1.35 1.35 0 0 0 1.35 1.36z"></path>
        <path d="m333.89 323.69a1.36 1.36 0 1 0 -1.35-1.36 1.35 1.35 0 0 0 1.35 1.36z"></path>
        <path d="m333.89 310.13a1.36 1.36 0 1 0 -1.35-1.36 1.35 1.35 0 0 0 1.35 1.36z"></path>
        <path d="m360.89 296.56a1.36 1.36 0 1 0 -1.35-1.35 1.34 1.34 0 0 0 1.35 1.35z"></path>
        <path d="m347.39 296.56a1.36 1.36 0 1 0 -1.35-1.35 1.34 1.34 0 0 0 1.35 1.35z"></path>
        <path d="m333.89 296.56a1.36 1.36 0 1 0 -1.35-1.35 1.34 1.34 0 0 0 1.35 1.35z"></path>
      </g>
      <g clip-path="url(#m)">
        <path d="m360.89 350.81a1.36 1.36 0 1 0 -1.35-1.35 1.34 1.34 0 0 0 1.35 1.35z"></path>
        <path d="m347.39 350.81a1.36 1.36 0 1 0 -1.35-1.35 1.34 1.34 0 0 0 1.35 1.35z"></path>
        <path d="m360.89 337.25a1.36 1.36 0 1 0 -1.35-1.35 1.35 1.35 0 0 0 1.35 1.35z"></path>
        <path d="m347.39 337.25a1.36 1.36 0 1 0 -1.39-1.35 1.35 1.35 0 0 0 1.39 1.35z"></path>
        <path d="m340.64 344a1.36 1.36 0 1 0 -1.35-1.35 1.35 1.35 0 0 0 1.35 1.35z"></path>
        <path d="m354.14 344a1.36 1.36 0 1 0 -1.35-1.35 1.34 1.34 0 0 0 1.35 1.35z"></path>
        <path d="m340.64 330.47a1.36 1.36 0 0 0 0-2.71 1.36 1.36 0 0 0 0 2.71z"></path>
        <path d="m354.14 330.47a1.36 1.36 0 1 0 -1.35-1.36 1.35 1.35 0 0 0 1.35 1.36z"></path>
        <path d="m333.89 350.81a1.36 1.36 0 1 0 -1.35-1.35 1.34 1.34 0 0 0 1.35 1.35z"></path>
        <path d="m333.89 337.25a1.36 1.36 0 1 0 -1.35-1.35 1.35 1.35 0 0 0 1.35 1.35z"></path>
        <path d="m360.89 323.69a1.36 1.36 0 1 0 -1.35-1.36 1.35 1.35 0 0 0 1.35 1.36z"></path>
        <path d="m347.39 323.69a1.36 1.36 0 1 0 -1.35-1.36 1.35 1.35 0 0 0 1.35 1.36z"></path>
        <path d="m333.89 323.69a1.36 1.36 0 1 0 -1.35-1.36 1.35 1.35 0 0 0 1.35 1.36z"></path>
      </g>
      <g clip-path="url(#n)">
        <path d="m360.89 377.94a1.36 1.36 0 1 0 -1.35-1.36 1.35 1.35 0 0 0 1.35 1.36z"></path>
        <path d="m347.39 377.94a1.36 1.36 0 1 0 -1.35-1.36 1.35 1.35 0 0 0 1.35 1.36z"></path>
        <path d="m360.89 364.38a1.36 1.36 0 1 0 -1.35-1.36 1.35 1.35 0 0 0 1.35 1.36z"></path>
        <path d="m347.39 364.38a1.36 1.36 0 1 0 -1.39-1.38 1.35 1.35 0 0 0 1.39 1.38z"></path>
        <path d="m340.64 371.16a1.36 1.36 0 1 0 -1.35-1.36 1.36 1.36 0 0 0 1.35 1.36z"></path>
        <path d="m354.14 371.16a1.36 1.36 0 1 0 -1.35-1.36 1.35 1.35 0 0 0 1.35 1.36z"></path>
        <path d="m340.64 357.59a1.36 1.36 0 1 0 -1.35-1.35 1.35 1.35 0 0 0 1.35 1.35z"></path>
        <path d="m354.14 357.59a1.36 1.36 0 1 0 -1.35-1.35 1.34 1.34 0 0 0 1.35 1.35z"></path>
        <path d="m333.89 377.94a1.36 1.36 0 1 0 -1.35-1.36 1.35 1.35 0 0 0 1.35 1.36z"></path>
        <path d="m333.89 364.38a1.36 1.36 0 1 0 -1.35-1.36 1.35 1.35 0 0 0 1.35 1.36z"></path>
        <path d="m360.89 350.81a1.36 1.36 0 1 0 -1.35-1.35 1.34 1.34 0 0 0 1.35 1.35z"></path>
        <path d="m347.39 350.81a1.36 1.36 0 1 0 -1.35-1.35 1.34 1.34 0 0 0 1.35 1.35z"></path>
        <path d="m333.89 350.81a1.36 1.36 0 1 0 -1.35-1.35 1.34 1.34 0 0 0 1.35 1.35z"></path>
      </g>
      <g clip-path="url(#o)">
        <path d="m360.89 405.06a1.36 1.36 0 1 0 -1.35-1.35 1.35 1.35 0 0 0 1.35 1.35z"></path>
        <path d="m347.39 405.06a1.36 1.36 0 1 0 -1.35-1.35 1.35 1.35 0 0 0 1.35 1.35z"></path>
        <path d="m360.89 391.5a1.36 1.36 0 1 0 -1.35-1.36 1.35 1.35 0 0 0 1.35 1.36z"></path>
        <path d="m347.39 391.5a1.36 1.36 0 1 0 -1.35-1.36 1.35 1.35 0 0 0 1.35 1.36z"></path>
        <path d="m340.64 398.28a1.36 1.36 0 1 0 -1.35-1.35 1.36 1.36 0 0 0 1.35 1.35z"></path>
        <path d="m354.14 398.28a1.36 1.36 0 1 0 -1.35-1.35 1.35 1.35 0 0 0 1.35 1.35z"></path>
        <path d="m340.64 384.72a1.36 1.36 0 0 0 0-2.71 1.36 1.36 0 0 0 0 2.71z"></path>
        <path d="m354.14 384.72a1.36 1.36 0 1 0 -1.35-1.36 1.35 1.35 0 0 0 1.35 1.36z"></path>
        <path d="m333.89 405.06a1.36 1.36 0 1 0 -1.35-1.35 1.35 1.35 0 0 0 1.35 1.35z"></path>
        <path d="m333.89 391.5a1.36 1.36 0 1 0 -1.35-1.36 1.35 1.35 0 0 0 1.35 1.36z"></path>
        <path d="m360.89 377.94a1.36 1.36 0 1 0 -1.35-1.36 1.35 1.35 0 0 0 1.35 1.36z"></path>
        <path d="m347.39 377.94a1.36 1.36 0 1 0 -1.35-1.36 1.35 1.35 0 0 0 1.35 1.36z"></path>
        <path d="m333.89 377.94a1.36 1.36 0 1 0 -1.35-1.36 1.35 1.35 0 0 0 1.35 1.36z"></path>
      </g>
      <g clip-path="url(#p)">
        <path d="m360.89 432.19a1.36 1.36 0 1 0 -1.35-1.36 1.35 1.35 0 0 0 1.35 1.36z"></path>
        <path d="m347.39 432.19a1.36 1.36 0 1 0 -1.35-1.36 1.35 1.35 0 0 0 1.35 1.36z"></path>
        <path d="m360.89 418.63a1.36 1.36 0 1 0 -1.35-1.36 1.35 1.35 0 0 0 1.35 1.36z"></path>
        <path d="m347.39 418.63a1.36 1.36 0 1 0 -1.35-1.36 1.35 1.35 0 0 0 1.35 1.36z"></path>
        <path d="m340.64 425.41a1.36 1.36 0 1 0 -1.35-1.36 1.36 1.36 0 0 0 1.35 1.36z"></path>
        <path d="m354.14 425.41a1.36 1.36 0 1 0 -1.35-1.36 1.35 1.35 0 0 0 1.35 1.36z"></path>
        <path d="m340.64 411.84a1.36 1.36 0 1 0 -1.35-1.35 1.35 1.35 0 0 0 1.35 1.35z"></path>
        <path d="m354.14 411.84a1.36 1.36 0 1 0 -1.35-1.35 1.34 1.34 0 0 0 1.35 1.35z"></path>
        <path d="m333.89 432.19a1.36 1.36 0 1 0 -1.35-1.36 1.35 1.35 0 0 0 1.35 1.36z"></path>
        <path d="m333.89 418.63a1.36 1.36 0 1 0 -1.35-1.36 1.35 1.35 0 0 0 1.35 1.36z"></path>
        <path d="m360.89 405.06a1.36 1.36 0 1 0 -1.35-1.35 1.35 1.35 0 0 0 1.35 1.35z"></path>
        <path d="m347.39 405.06a1.36 1.36 0 1 0 -1.35-1.35 1.35 1.35 0 0 0 1.35 1.35z"></path>
        <path d="m333.89 405.06a1.36 1.36 0 1 0 -1.35-1.35 1.35 1.35 0 0 0 1.35 1.35z"></path>
      </g>
      <g clip-path="url(#q)">
        <path d="m360.89 459.31a1.36 1.36 0 1 0 -1.35-1.36 1.35 1.35 0 0 0 1.35 1.36z"></path>
        <path d="m347.39 459.31a1.36 1.36 0 1 0 -1.39-1.31 1.35 1.35 0 0 0 1.39 1.31z"></path>
        <path d="m360.89 445.75a1.36 1.36 0 1 0 -1.35-1.36 1.35 1.35 0 0 0 1.35 1.36z"></path>
        <path d="m347.39 445.75a1.36 1.36 0 1 0 -1.35-1.36 1.35 1.35 0 0 0 1.35 1.36z"></path>
        <path d="m340.64 452.53a1.36 1.36 0 0 0 0-2.71 1.36 1.36 0 0 0 0 2.71z"></path>
        <path d="m354.14 452.53a1.36 1.36 0 1 0 -1.35-1.36 1.35 1.35 0 0 0 1.35 1.36z"></path>
        <path d="m340.64 439a1.36 1.36 0 1 0 -1.35-1.36 1.36 1.36 0 0 0 1.35 1.36z"></path>
        <path d="m354.14 439a1.36 1.36 0 1 0 -1.35-1.36 1.35 1.35 0 0 0 1.35 1.36z"></path>
        <path d="m333.89 459.31a1.36 1.36 0 1 0 -1.35-1.36 1.35 1.35 0 0 0 1.35 1.36z"></path>
        <path d="m333.89 445.75a1.36 1.36 0 1 0 -1.35-1.36 1.35 1.35 0 0 0 1.35 1.36z"></path>
        <path d="m360.89 432.19a1.36 1.36 0 1 0 -1.35-1.36 1.35 1.35 0 0 0 1.35 1.36z"></path>
        <path d="m347.39 432.19a1.36 1.36 0 1 0 -1.35-1.36 1.35 1.35 0 0 0 1.35 1.36z"></path>
        <path d="m333.89 432.19a1.36 1.36 0 1 0 -1.35-1.36 1.35 1.35 0 0 0 1.35 1.36z"></path>
      </g>
      <g clip-path="url(#r)">
        <path d="m333.89 296.56a1.36 1.36 0 1 0 -1.35-1.35 1.34 1.34 0 0 0 1.35 1.35z"></path>
        <path d="m320.39 296.56a1.36 1.36 0 1 0 -1.35-1.35 1.34 1.34 0 0 0 1.35 1.35z"></path>
        <path d="m333.89 283a1.36 1.36 0 1 0 -1.35-1.35 1.35 1.35 0 0 0 1.35 1.35z"></path>
        <path d="m320.39 283a1.36 1.36 0 1 0 -1.35-1.35 1.35 1.35 0 0 0 1.35 1.35z"></path>
        <path d="m313.64 289.78a1.36 1.36 0 1 0 -1.35-1.35 1.34 1.34 0 0 0 1.35 1.35z"></path>
        <path d="m327.14 289.78a1.36 1.36 0 1 0 -1.35-1.35 1.34 1.34 0 0 0 1.35 1.35z"></path>
        <path d="m313.64 276.22a1.36 1.36 0 1 0 -1.35-1.35 1.35 1.35 0 0 0 1.35 1.35z"></path>
        <path d="m327.14 276.22a1.36 1.36 0 1 0 -1.35-1.35 1.35 1.35 0 0 0 1.35 1.35z"></path>
        <path d="m306.89 296.56a1.36 1.36 0 1 0 -1.35-1.35 1.34 1.34 0 0 0 1.35 1.35z"></path>
        <path d="m306.89 283a1.36 1.36 0 1 0 -1.35-1.35 1.35 1.35 0 0 0 1.35 1.35z"></path>
        <path d="m333.89 269.44a1.36 1.36 0 1 0 -1.35-1.36 1.35 1.35 0 0 0 1.35 1.36z"></path>
        <path d="m320.39 269.44a1.36 1.36 0 1 0 -1.35-1.36 1.35 1.35 0 0 0 1.35 1.36z"></path>
        <path d="m306.89 269.44a1.36 1.36 0 1 0 -1.35-1.36 1.35 1.35 0 0 0 1.35 1.36z"></path>
      </g>
      <g clip-path="url(#s)">
        <path d="m333.89 323.69a1.36 1.36 0 1 0 -1.35-1.36 1.35 1.35 0 0 0 1.35 1.36z"></path>
        <path d="m320.39 323.69a1.36 1.36 0 1 0 -1.35-1.36 1.35 1.35 0 0 0 1.35 1.36z"></path>
        <path d="m333.89 310.13a1.36 1.36 0 1 0 -1.35-1.36 1.35 1.35 0 0 0 1.35 1.36z"></path>
        <path d="m320.39 310.13a1.36 1.36 0 1 0 -1.35-1.36 1.35 1.35 0 0 0 1.35 1.36z"></path>
        <path d="m313.64 316.91a1.36 1.36 0 1 0 -1.35-1.36 1.35 1.35 0 0 0 1.35 1.36z"></path>
        <path d="m327.14 316.91a1.36 1.36 0 1 0 -1.35-1.36 1.35 1.35 0 0 0 1.35 1.36z"></path>
        <path d="m313.64 303.35a1.36 1.36 0 1 0 -1.35-1.36 1.35 1.35 0 0 0 1.35 1.36z"></path>
        <path d="m327.14 303.35a1.36 1.36 0 1 0 -1.35-1.36 1.35 1.35 0 0 0 1.35 1.36z"></path>
        <path d="m306.89 323.69a1.36 1.36 0 1 0 -1.35-1.36 1.35 1.35 0 0 0 1.35 1.36z"></path>
        <path d="m306.89 310.13a1.36 1.36 0 1 0 -1.35-1.36 1.35 1.35 0 0 0 1.35 1.36z"></path>
        <path d="m333.89 296.56a1.36 1.36 0 1 0 -1.35-1.35 1.34 1.34 0 0 0 1.35 1.35z"></path>
        <path d="m320.39 296.56a1.36 1.36 0 1 0 -1.35-1.35 1.34 1.34 0 0 0 1.35 1.35z"></path>
        <path d="m306.89 296.56a1.36 1.36 0 1 0 -1.35-1.35 1.34 1.34 0 0 0 1.35 1.35z"></path>
      </g>
      <g clip-path="url(#t)">
        <path d="m333.89 350.81a1.36 1.36 0 1 0 -1.35-1.35 1.34 1.34 0 0 0 1.35 1.35z"></path>
        <path d="m320.39 350.81a1.36 1.36 0 1 0 -1.35-1.35 1.34 1.34 0 0 0 1.35 1.35z"></path>
        <path d="m333.89 337.25a1.36 1.36 0 1 0 -1.35-1.35 1.35 1.35 0 0 0 1.35 1.35z"></path>
        <path d="m320.39 337.25a1.36 1.36 0 1 0 -1.39-1.35 1.35 1.35 0 0 0 1.39 1.35z"></path>
        <path d="m313.64 344a1.36 1.36 0 1 0 -1.35-1.35 1.34 1.34 0 0 0 1.35 1.35z"></path>
        <path d="m327.14 344a1.36 1.36 0 1 0 -1.35-1.35 1.34 1.34 0 0 0 1.35 1.35z"></path>
        <path d="m313.64 330.47a1.36 1.36 0 1 0 -1.35-1.36 1.35 1.35 0 0 0 1.35 1.36z"></path>
        <path d="m327.14 330.47a1.36 1.36 0 1 0 -1.35-1.36 1.35 1.35 0 0 0 1.35 1.36z"></path>
        <path d="m306.89 350.81a1.36 1.36 0 1 0 -1.35-1.35 1.34 1.34 0 0 0 1.35 1.35z"></path>
        <path d="m306.89 337.25a1.36 1.36 0 1 0 -1.35-1.35 1.35 1.35 0 0 0 1.35 1.35z"></path>
        <path d="m333.89 323.69a1.36 1.36 0 1 0 -1.35-1.36 1.35 1.35 0 0 0 1.35 1.36z"></path>
        <path d="m320.39 323.69a1.36 1.36 0 1 0 -1.35-1.36 1.35 1.35 0 0 0 1.35 1.36z"></path>
        <path d="m306.89 323.69a1.36 1.36 0 1 0 -1.35-1.36 1.35 1.35 0 0 0 1.35 1.36z"></path>
      </g>
      <g clip-path="url(#u)">
        <path d="m333.89 377.94a1.36 1.36 0 1 0 -1.35-1.36 1.35 1.35 0 0 0 1.35 1.36z"></path>
        <path d="m320.39 377.94a1.36 1.36 0 1 0 -1.35-1.36 1.35 1.35 0 0 0 1.35 1.36z"></path>
        <path d="m333.89 364.38a1.36 1.36 0 1 0 -1.35-1.36 1.35 1.35 0 0 0 1.35 1.36z"></path>
        <path d="m320.39 364.38a1.36 1.36 0 1 0 -1.39-1.38 1.35 1.35 0 0 0 1.39 1.38z"></path>
        <path d="m313.64 371.16a1.36 1.36 0 1 0 -1.35-1.36 1.35 1.35 0 0 0 1.35 1.36z"></path>
        <path d="m327.14 371.16a1.36 1.36 0 1 0 -1.35-1.36 1.35 1.35 0 0 0 1.35 1.36z"></path>
        <path d="m313.64 357.59a1.36 1.36 0 1 0 -1.35-1.35 1.34 1.34 0 0 0 1.35 1.35z"></path>
        <path d="m327.14 357.59a1.36 1.36 0 1 0 -1.35-1.35 1.34 1.34 0 0 0 1.35 1.35z"></path>
        <path d="m306.89 377.94a1.36 1.36 0 1 0 -1.35-1.36 1.35 1.35 0 0 0 1.35 1.36z"></path>
        <path d="m306.89 364.38a1.36 1.36 0 1 0 -1.35-1.36 1.35 1.35 0 0 0 1.35 1.36z"></path>
        <path d="m333.89 350.81a1.36 1.36 0 1 0 -1.35-1.35 1.34 1.34 0 0 0 1.35 1.35z"></path>
        <path d="m320.39 350.81a1.36 1.36 0 1 0 -1.35-1.35 1.34 1.34 0 0 0 1.35 1.35z"></path>
        <path d="m306.89 350.81a1.36 1.36 0 1 0 -1.35-1.35 1.34 1.34 0 0 0 1.35 1.35z"></path>
      </g>
      <g clip-path="url(#v)">
        <path d="m333.89 405.06a1.36 1.36 0 1 0 -1.35-1.35 1.35 1.35 0 0 0 1.35 1.35z"></path>
        <path d="m320.39 405.06a1.36 1.36 0 1 0 -1.35-1.35 1.35 1.35 0 0 0 1.35 1.35z"></path>
        <path d="m333.89 391.5a1.36 1.36 0 1 0 -1.35-1.36 1.35 1.35 0 0 0 1.35 1.36z"></path>
        <path d="m320.39 391.5a1.36 1.36 0 1 0 -1.35-1.36 1.35 1.35 0 0 0 1.35 1.36z"></path>
        <path d="m313.64 398.28a1.36 1.36 0 1 0 -1.35-1.35 1.35 1.35 0 0 0 1.35 1.35z"></path>
        <path d="m327.14 398.28a1.36 1.36 0 1 0 -1.35-1.35 1.35 1.35 0 0 0 1.35 1.35z"></path>
        <path d="m313.64 384.72a1.36 1.36 0 1 0 -1.35-1.36 1.35 1.35 0 0 0 1.35 1.36z"></path>
        <path d="m327.14 384.72a1.36 1.36 0 1 0 -1.35-1.36 1.35 1.35 0 0 0 1.35 1.36z"></path>
        <path d="m306.89 405.06a1.36 1.36 0 1 0 -1.35-1.35 1.35 1.35 0 0 0 1.35 1.35z"></path>
        <path d="m306.89 391.5a1.36 1.36 0 1 0 -1.35-1.36 1.35 1.35 0 0 0 1.35 1.36z"></path>
        <path d="m333.89 377.94a1.36 1.36 0 1 0 -1.35-1.36 1.35 1.35 0 0 0 1.35 1.36z"></path>
        <path d="m320.39 377.94a1.36 1.36 0 1 0 -1.35-1.36 1.35 1.35 0 0 0 1.35 1.36z"></path>
        <path d="m306.89 377.94a1.36 1.36 0 1 0 -1.35-1.36 1.35 1.35 0 0 0 1.35 1.36z"></path>
      </g>
      <g clip-path="url(#w)">
        <path d="m333.89 432.19a1.36 1.36 0 1 0 -1.35-1.36 1.35 1.35 0 0 0 1.35 1.36z"></path>
        <path d="m320.39 432.19a1.36 1.36 0 1 0 -1.35-1.36 1.35 1.35 0 0 0 1.35 1.36z"></path>
        <path d="m333.89 418.63a1.36 1.36 0 1 0 -1.35-1.36 1.35 1.35 0 0 0 1.35 1.36z"></path>
        <path d="m320.39 418.63a1.36 1.36 0 1 0 -1.35-1.36 1.35 1.35 0 0 0 1.35 1.36z"></path>
        <path d="m313.64 425.41a1.36 1.36 0 1 0 -1.35-1.36 1.35 1.35 0 0 0 1.35 1.36z"></path>
        <path d="m327.14 425.41a1.36 1.36 0 1 0 -1.35-1.36 1.35 1.35 0 0 0 1.35 1.36z"></path>
        <path d="m313.64 411.84a1.36 1.36 0 1 0 -1.35-1.35 1.34 1.34 0 0 0 1.35 1.35z"></path>
        <path d="m327.14 411.84a1.36 1.36 0 1 0 -1.35-1.35 1.34 1.34 0 0 0 1.35 1.35z"></path>
        <path d="m306.89 432.19a1.36 1.36 0 1 0 -1.35-1.36 1.35 1.35 0 0 0 1.35 1.36z"></path>
        <path d="m306.89 418.63a1.36 1.36 0 1 0 -1.35-1.36 1.35 1.35 0 0 0 1.35 1.36z"></path>
        <path d="m333.89 405.06a1.36 1.36 0 1 0 -1.35-1.35 1.35 1.35 0 0 0 1.35 1.35z"></path>
        <path d="m320.39 405.06a1.36 1.36 0 1 0 -1.35-1.35 1.35 1.35 0 0 0 1.35 1.35z"></path>
        <path d="m306.89 405.06a1.36 1.36 0 1 0 -1.35-1.35 1.35 1.35 0 0 0 1.35 1.35z"></path>
      </g>
      <g clip-path="url(#x)">
        <path d="m333.89 459.31a1.36 1.36 0 1 0 -1.35-1.36 1.35 1.35 0 0 0 1.35 1.36z"></path>
        <path d="m320.39 459.31a1.36 1.36 0 1 0 -1.39-1.31 1.35 1.35 0 0 0 1.39 1.31z"></path>
        <path d="m333.89 445.75a1.36 1.36 0 1 0 -1.35-1.36 1.35 1.35 0 0 0 1.35 1.36z"></path>
        <path d="m320.39 445.75a1.36 1.36 0 1 0 -1.35-1.36 1.35 1.35 0 0 0 1.35 1.36z"></path>
        <path d="m313.64 452.53a1.36 1.36 0 1 0 -1.35-1.36 1.35 1.35 0 0 0 1.35 1.36z"></path>
        <path d="m327.14 452.53a1.36 1.36 0 1 0 -1.35-1.36 1.35 1.35 0 0 0 1.35 1.36z"></path>
        <path d="m313.64 439a1.36 1.36 0 1 0 -1.35-1.36 1.35 1.35 0 0 0 1.35 1.36z"></path>
        <path d="m327.14 439a1.36 1.36 0 1 0 -1.35-1.36 1.35 1.35 0 0 0 1.35 1.36z"></path>
        <path d="m306.89 459.31a1.36 1.36 0 1 0 -1.35-1.36 1.35 1.35 0 0 0 1.35 1.36z"></path>
        <path d="m306.89 445.75a1.36 1.36 0 1 0 -1.35-1.36 1.35 1.35 0 0 0 1.35 1.36z"></path>
        <path d="m333.89 432.19a1.36 1.36 0 1 0 -1.35-1.36 1.35 1.35 0 0 0 1.35 1.36z"></path>
        <path d="m320.39 432.19a1.36 1.36 0 1 0 -1.35-1.36 1.35 1.35 0 0 0 1.35 1.36z"></path>
        <path d="m306.89 432.19a1.36 1.36 0 1 0 -1.35-1.36 1.35 1.35 0 0 0 1.35 1.36z"></path>
      </g>
      <g clip-path="url(#y)">
        <path d="m306.89 296.56a1.36 1.36 0 1 0 -1.35-1.35 1.34 1.34 0 0 0 1.35 1.35z"></path>
        <path d="m293.39 296.56a1.36 1.36 0 1 0 -1.35-1.35 1.34 1.34 0 0 0 1.35 1.35z"></path>
        <path d="m306.89 283a1.36 1.36 0 1 0 -1.35-1.35 1.35 1.35 0 0 0 1.35 1.35z"></path>
        <path d="m293.39 283a1.36 1.36 0 1 0 -1.35-1.35 1.35 1.35 0 0 0 1.35 1.35z"></path>
        <path d="m286.64 289.78a1.36 1.36 0 1 0 -1.35-1.35 1.34 1.34 0 0 0 1.35 1.35z"></path>
        <path d="m300.14 289.78a1.36 1.36 0 1 0 -1.35-1.35 1.34 1.34 0 0 0 1.35 1.35z"></path>
        <path d="m286.64 276.22a1.36 1.36 0 1 0 -1.35-1.35 1.35 1.35 0 0 0 1.35 1.35z"></path>
        <path d="m300.14 276.22a1.36 1.36 0 1 0 -1.35-1.35 1.35 1.35 0 0 0 1.35 1.35z"></path>
        <path d="m279.89 296.56a1.36 1.36 0 1 0 -1.35-1.35 1.34 1.34 0 0 0 1.35 1.35z"></path>
        <path d="m279.89 283a1.36 1.36 0 1 0 -1.35-1.35 1.35 1.35 0 0 0 1.35 1.35z"></path>
        <path d="m306.89 269.44a1.36 1.36 0 1 0 -1.35-1.36 1.35 1.35 0 0 0 1.35 1.36z"></path>
        <path d="m293.39 269.44a1.36 1.36 0 1 0 -1.35-1.36 1.35 1.35 0 0 0 1.35 1.36z"></path>
        <path d="m279.89 269.44a1.36 1.36 0 1 0 -1.35-1.36 1.35 1.35 0 0 0 1.35 1.36z"></path>
      </g>
      <g clip-path="url(#z)">
        <path d="m306.89 323.69a1.36 1.36 0 1 0 -1.35-1.36 1.35 1.35 0 0 0 1.35 1.36z"></path>
        <path d="m293.39 323.69a1.36 1.36 0 1 0 -1.35-1.36 1.35 1.35 0 0 0 1.35 1.36z"></path>
        <path d="m306.89 310.13a1.36 1.36 0 1 0 -1.35-1.36 1.35 1.35 0 0 0 1.35 1.36z"></path>
        <path d="m293.39 310.13a1.36 1.36 0 1 0 -1.35-1.36 1.35 1.35 0 0 0 1.35 1.36z"></path>
        <path d="m286.64 316.91a1.36 1.36 0 1 0 -1.35-1.36 1.35 1.35 0 0 0 1.35 1.36z"></path>
        <path d="m300.14 316.91a1.36 1.36 0 1 0 -1.35-1.36 1.35 1.35 0 0 0 1.35 1.36z"></path>
        <path d="m286.64 303.35a1.36 1.36 0 1 0 -1.35-1.36 1.35 1.35 0 0 0 1.35 1.36z"></path>
        <path d="m300.14 303.35a1.36 1.36 0 1 0 -1.35-1.36 1.35 1.35 0 0 0 1.35 1.36z"></path>
        <path d="m279.89 323.69a1.36 1.36 0 1 0 -1.35-1.36 1.35 1.35 0 0 0 1.35 1.36z"></path>
        <path d="m279.89 310.13a1.36 1.36 0 1 0 -1.35-1.36 1.35 1.35 0 0 0 1.35 1.36z"></path>
        <path d="m306.89 296.56a1.36 1.36 0 1 0 -1.35-1.35 1.34 1.34 0 0 0 1.35 1.35z"></path>
        <path d="m293.39 296.56a1.36 1.36 0 1 0 -1.35-1.35 1.34 1.34 0 0 0 1.35 1.35z"></path>
        <path d="m279.89 296.56a1.36 1.36 0 1 0 -1.35-1.35 1.34 1.34 0 0 0 1.35 1.35z"></path>
      </g>
      <g clip-path="url(#A)">
        <path d="m306.89 350.81a1.36 1.36 0 1 0 -1.35-1.35 1.34 1.34 0 0 0 1.35 1.35z"></path>
        <path d="m293.39 350.81a1.36 1.36 0 1 0 -1.35-1.35 1.34 1.34 0 0 0 1.35 1.35z"></path>
        <path d="m306.89 337.25a1.36 1.36 0 1 0 -1.35-1.35 1.35 1.35 0 0 0 1.35 1.35z"></path>
        <path d="m293.39 337.25a1.36 1.36 0 1 0 -1.39-1.35 1.35 1.35 0 0 0 1.39 1.35z"></path>
        <path d="m286.64 344a1.36 1.36 0 1 0 -1.35-1.35 1.34 1.34 0 0 0 1.35 1.35z"></path>
        <path d="m300.14 344a1.36 1.36 0 1 0 -1.35-1.35 1.34 1.34 0 0 0 1.35 1.35z"></path>
        <path d="m286.64 330.47a1.36 1.36 0 1 0 -1.35-1.36 1.35 1.35 0 0 0 1.35 1.36z"></path>
        <path d="m300.14 330.47a1.36 1.36 0 1 0 -1.35-1.36 1.35 1.35 0 0 0 1.35 1.36z"></path>
        <path d="m279.89 350.81a1.36 1.36 0 1 0 -1.35-1.35 1.34 1.34 0 0 0 1.35 1.35z"></path>
        <path d="m279.89 337.25a1.36 1.36 0 1 0 -1.35-1.35 1.35 1.35 0 0 0 1.35 1.35z"></path>
        <path d="m306.89 323.69a1.36 1.36 0 1 0 -1.35-1.36 1.35 1.35 0 0 0 1.35 1.36z"></path>
        <path d="m293.39 323.69a1.36 1.36 0 1 0 -1.35-1.36 1.35 1.35 0 0 0 1.35 1.36z"></path>
        <path d="m279.89 323.69a1.36 1.36 0 1 0 -1.35-1.36 1.35 1.35 0 0 0 1.35 1.36z"></path>
      </g>
      <g clip-path="url(#B)">
        <path d="m306.89 377.94a1.36 1.36 0 1 0 -1.35-1.36 1.35 1.35 0 0 0 1.35 1.36z"></path>
        <path d="m293.39 377.94a1.36 1.36 0 1 0 -1.35-1.36 1.35 1.35 0 0 0 1.35 1.36z"></path>
        <path d="m306.89 364.38a1.36 1.36 0 1 0 -1.35-1.36 1.35 1.35 0 0 0 1.35 1.36z"></path>
        <path d="m293.39 364.38a1.36 1.36 0 1 0 -1.39-1.38 1.35 1.35 0 0 0 1.39 1.38z"></path>
        <path d="m286.64 371.16a1.36 1.36 0 1 0 -1.35-1.36 1.35 1.35 0 0 0 1.35 1.36z"></path>
        <path d="m300.14 371.16a1.36 1.36 0 1 0 -1.35-1.36 1.35 1.35 0 0 0 1.35 1.36z"></path>
        <path d="m286.64 357.59a1.36 1.36 0 1 0 -1.35-1.35 1.34 1.34 0 0 0 1.35 1.35z"></path>
        <path d="m300.14 357.59a1.36 1.36 0 1 0 -1.35-1.35 1.34 1.34 0 0 0 1.35 1.35z"></path>
        <path d="m279.89 377.94a1.36 1.36 0 1 0 -1.35-1.36 1.35 1.35 0 0 0 1.35 1.36z"></path>
        <path d="m279.89 364.38a1.36 1.36 0 1 0 -1.35-1.36 1.35 1.35 0 0 0 1.35 1.36z"></path>
        <path d="m306.89 350.81a1.36 1.36 0 1 0 -1.35-1.35 1.34 1.34 0 0 0 1.35 1.35z"></path>
        <path d="m293.39 350.81a1.36 1.36 0 1 0 -1.35-1.35 1.34 1.34 0 0 0 1.35 1.35z"></path>
        <path d="m279.89 350.81a1.36 1.36 0 1 0 -1.35-1.35 1.34 1.34 0 0 0 1.35 1.35z"></path>
      </g>
      <g clip-path="url(#C)">
        <path d="m306.89 405.06a1.36 1.36 0 1 0 -1.35-1.35 1.35 1.35 0 0 0 1.35 1.35z"></path>
        <path d="m293.39 405.06a1.36 1.36 0 1 0 -1.35-1.35 1.35 1.35 0 0 0 1.35 1.35z"></path>
        <path d="m306.89 391.5a1.36 1.36 0 1 0 -1.35-1.36 1.35 1.35 0 0 0 1.35 1.36z"></path>
        <path d="m293.39 391.5a1.36 1.36 0 1 0 -1.35-1.36 1.35 1.35 0 0 0 1.35 1.36z"></path>
        <path d="m286.64 398.28a1.36 1.36 0 1 0 -1.35-1.35 1.35 1.35 0 0 0 1.35 1.35z"></path>
        <path d="m300.14 398.28a1.36 1.36 0 1 0 -1.35-1.35 1.35 1.35 0 0 0 1.35 1.35z"></path>
        <path d="m286.64 384.72a1.36 1.36 0 1 0 -1.35-1.36 1.35 1.35 0 0 0 1.35 1.36z"></path>
        <path d="m300.14 384.72a1.36 1.36 0 1 0 -1.35-1.36 1.35 1.35 0 0 0 1.35 1.36z"></path>
        <path d="m279.89 405.06a1.36 1.36 0 1 0 -1.35-1.35 1.35 1.35 0 0 0 1.35 1.35z"></path>
        <path d="m279.89 391.5a1.36 1.36 0 1 0 -1.35-1.36 1.35 1.35 0 0 0 1.35 1.36z"></path>
        <path d="m306.89 377.94a1.36 1.36 0 1 0 -1.35-1.36 1.35 1.35 0 0 0 1.35 1.36z"></path>
        <path d="m293.39 377.94a1.36 1.36 0 1 0 -1.35-1.36 1.35 1.35 0 0 0 1.35 1.36z"></path>
        <path d="m279.89 377.94a1.36 1.36 0 1 0 -1.35-1.36 1.35 1.35 0 0 0 1.35 1.36z"></path>
      </g>
      <g clip-path="url(#D)">
        <path d="m306.89 432.19a1.36 1.36 0 1 0 -1.35-1.36 1.35 1.35 0 0 0 1.35 1.36z"></path>
        <path d="m293.39 432.19a1.36 1.36 0 1 0 -1.35-1.36 1.35 1.35 0 0 0 1.35 1.36z"></path>
        <path d="m306.89 418.63a1.36 1.36 0 1 0 -1.35-1.36 1.35 1.35 0 0 0 1.35 1.36z"></path>
        <path d="m293.39 418.63a1.36 1.36 0 1 0 -1.35-1.36 1.35 1.35 0 0 0 1.35 1.36z"></path>
        <path d="m286.64 425.41a1.36 1.36 0 1 0 -1.35-1.36 1.35 1.35 0 0 0 1.35 1.36z"></path>
        <path d="m300.14 425.41a1.36 1.36 0 1 0 -1.35-1.36 1.35 1.35 0 0 0 1.35 1.36z"></path>
        <path d="m286.64 411.84a1.36 1.36 0 1 0 -1.35-1.35 1.34 1.34 0 0 0 1.35 1.35z"></path>
        <path d="m300.14 411.84a1.36 1.36 0 1 0 -1.35-1.35 1.34 1.34 0 0 0 1.35 1.35z"></path>
        <path d="m279.89 432.19a1.36 1.36 0 1 0 -1.35-1.36 1.35 1.35 0 0 0 1.35 1.36z"></path>
        <path d="m279.89 418.63a1.36 1.36 0 1 0 -1.35-1.36 1.35 1.35 0 0 0 1.35 1.36z"></path>
        <path d="m306.89 405.06a1.36 1.36 0 1 0 -1.35-1.35 1.35 1.35 0 0 0 1.35 1.35z"></path>
        <path d="m293.39 405.06a1.36 1.36 0 1 0 -1.35-1.35 1.35 1.35 0 0 0 1.35 1.35z"></path>
        <path d="m279.89 405.06a1.36 1.36 0 1 0 -1.35-1.35 1.35 1.35 0 0 0 1.35 1.35z"></path>
      </g>
      <g clip-path="url(#E)">
        <path d="m306.89 459.31a1.36 1.36 0 1 0 -1.35-1.36 1.35 1.35 0 0 0 1.35 1.36z"></path>
        <path d="m293.39 459.31a1.36 1.36 0 1 0 -1.39-1.31 1.35 1.35 0 0 0 1.39 1.31z"></path>
        <path d="m306.89 445.75a1.36 1.36 0 1 0 -1.35-1.36 1.35 1.35 0 0 0 1.35 1.36z"></path>
        <path d="m293.39 445.75a1.36 1.36 0 1 0 -1.35-1.36 1.35 1.35 0 0 0 1.35 1.36z"></path>
        <path d="m286.64 452.53a1.36 1.36 0 1 0 -1.35-1.36 1.35 1.35 0 0 0 1.35 1.36z"></path>
        <path d="m300.14 452.53a1.36 1.36 0 1 0 -1.35-1.36 1.35 1.35 0 0 0 1.35 1.36z"></path>
        <path d="m286.64 439a1.36 1.36 0 1 0 -1.35-1.36 1.35 1.35 0 0 0 1.35 1.36z"></path>
        <path d="m300.14 439a1.36 1.36 0 1 0 -1.35-1.36 1.35 1.35 0 0 0 1.35 1.36z"></path>
        <path d="m279.89 459.31a1.36 1.36 0 1 0 -1.35-1.36 1.35 1.35 0 0 0 1.35 1.36z"></path>
        <path d="m279.89 445.75a1.36 1.36 0 1 0 -1.35-1.36 1.35 1.35 0 0 0 1.35 1.36z"></path>
        <path d="m306.89 432.19a1.36 1.36 0 1 0 -1.35-1.36 1.35 1.35 0 0 0 1.35 1.36z"></path>
        <path d="m293.39 432.19a1.36 1.36 0 1 0 -1.35-1.36 1.35 1.35 0 0 0 1.35 1.36z"></path>
        <path d="m279.89 432.19a1.36 1.36 0 1 0 -1.35-1.36 1.35 1.35 0 0 0 1.35 1.36z"></path>
      </g>
      <g clip-path="url(#F)">
        <path d="m279.89 296.56a1.36 1.36 0 1 0 -1.35-1.35 1.34 1.34 0 0 0 1.35 1.35z"></path>
        <path d="m266.39 296.56a1.36 1.36 0 1 0 -1.35-1.35 1.34 1.34 0 0 0 1.35 1.35z"></path>
        <path d="m279.89 283a1.36 1.36 0 1 0 -1.35-1.35 1.35 1.35 0 0 0 1.35 1.35z"></path>
        <path d="m266.39 283a1.36 1.36 0 1 0 -1.35-1.35 1.35 1.35 0 0 0 1.35 1.35z"></path>
        <path d="m259.64 289.78a1.36 1.36 0 1 0 -1.35-1.35 1.34 1.34 0 0 0 1.35 1.35z"></path>
        <path d="m273.14 289.78a1.36 1.36 0 1 0 -1.35-1.35 1.34 1.34 0 0 0 1.35 1.35z"></path>
        <path d="m259.64 276.22a1.36 1.36 0 1 0 -1.35-1.35 1.35 1.35 0 0 0 1.35 1.35z"></path>
        <path d="m273.14 276.22a1.36 1.36 0 1 0 -1.35-1.35 1.35 1.35 0 0 0 1.35 1.35z"></path>
        <path d="m252.89 296.56a1.36 1.36 0 1 0 -1.35-1.35 1.34 1.34 0 0 0 1.35 1.35z"></path>
        <path d="m252.89 283a1.36 1.36 0 1 0 -1.35-1.35 1.35 1.35 0 0 0 1.35 1.35z"></path>
        <path d="m279.89 269.44a1.36 1.36 0 1 0 -1.35-1.36 1.35 1.35 0 0 0 1.35 1.36z"></path>
        <path d="m266.39 269.44a1.36 1.36 0 1 0 -1.35-1.36 1.35 1.35 0 0 0 1.35 1.36z"></path>
        <path d="m252.89 269.44a1.36 1.36 0 1 0 -1.35-1.36 1.35 1.35 0 0 0 1.35 1.36z"></path>
      </g>
      <g clip-path="url(#G)">
        <path d="m279.89 323.69a1.36 1.36 0 1 0 -1.35-1.36 1.35 1.35 0 0 0 1.35 1.36z"></path>
        <path d="m266.39 323.69a1.36 1.36 0 1 0 -1.35-1.36 1.35 1.35 0 0 0 1.35 1.36z"></path>
        <path d="m279.89 310.13a1.36 1.36 0 1 0 -1.35-1.36 1.35 1.35 0 0 0 1.35 1.36z"></path>
        <path d="m266.39 310.13a1.36 1.36 0 1 0 -1.35-1.36 1.35 1.35 0 0 0 1.35 1.36z"></path>
        <path d="m259.64 316.91a1.36 1.36 0 1 0 -1.35-1.36 1.35 1.35 0 0 0 1.35 1.36z"></path>
        <path d="m273.14 316.91a1.36 1.36 0 1 0 -1.35-1.36 1.35 1.35 0 0 0 1.35 1.36z"></path>
        <path d="m259.64 303.35a1.36 1.36 0 1 0 -1.35-1.36 1.35 1.35 0 0 0 1.35 1.36z"></path>
        <path d="m273.14 303.35a1.36 1.36 0 1 0 -1.35-1.36 1.35 1.35 0 0 0 1.35 1.36z"></path>
        <path d="m252.89 323.69a1.36 1.36 0 1 0 -1.35-1.36 1.35 1.35 0 0 0 1.35 1.36z"></path>
        <path d="m252.89 310.13a1.36 1.36 0 1 0 -1.35-1.36 1.35 1.35 0 0 0 1.35 1.36z"></path>
        <path d="m279.89 296.56a1.36 1.36 0 1 0 -1.35-1.35 1.34 1.34 0 0 0 1.35 1.35z"></path>
        <path d="m266.39 296.56a1.36 1.36 0 1 0 -1.35-1.35 1.34 1.34 0 0 0 1.35 1.35z"></path>
        <path d="m252.89 296.56a1.36 1.36 0 1 0 -1.35-1.35 1.34 1.34 0 0 0 1.35 1.35z"></path>
      </g>
      <g clip-path="url(#H)">
        <path d="m279.89 350.81a1.36 1.36 0 1 0 -1.35-1.35 1.34 1.34 0 0 0 1.35 1.35z"></path>
        <path d="m266.39 350.81a1.36 1.36 0 1 0 -1.35-1.35 1.34 1.34 0 0 0 1.35 1.35z"></path>
        <path d="m279.89 337.25a1.36 1.36 0 1 0 -1.35-1.35 1.35 1.35 0 0 0 1.35 1.35z"></path>
        <path d="m266.39 337.25a1.36 1.36 0 1 0 -1.39-1.35 1.35 1.35 0 0 0 1.39 1.35z"></path>
        <path d="m259.64 344a1.36 1.36 0 1 0 -1.35-1.35 1.34 1.34 0 0 0 1.35 1.35z"></path>
        <path d="m273.14 344a1.36 1.36 0 1 0 -1.35-1.35 1.34 1.34 0 0 0 1.35 1.35z"></path>
        <path d="m259.64 330.47a1.36 1.36 0 1 0 -1.35-1.36 1.35 1.35 0 0 0 1.35 1.36z"></path>
        <path d="m273.14 330.47a1.36 1.36 0 1 0 -1.35-1.36 1.35 1.35 0 0 0 1.35 1.36z"></path>
        <path d="m252.89 350.81a1.36 1.36 0 1 0 -1.35-1.35 1.34 1.34 0 0 0 1.35 1.35z"></path>
        <path d="m252.89 337.25a1.36 1.36 0 1 0 -1.35-1.35 1.35 1.35 0 0 0 1.35 1.35z"></path>
        <path d="m279.89 323.69a1.36 1.36 0 1 0 -1.35-1.36 1.35 1.35 0 0 0 1.35 1.36z"></path>
        <path d="m266.39 323.69a1.36 1.36 0 1 0 -1.35-1.36 1.35 1.35 0 0 0 1.35 1.36z"></path>
        <path d="m252.89 323.69a1.36 1.36 0 1 0 -1.35-1.36 1.35 1.35 0 0 0 1.35 1.36z"></path>
      </g>
      <g clip-path="url(#I)">
        <path d="m279.89 377.94a1.36 1.36 0 1 0 -1.35-1.36 1.35 1.35 0 0 0 1.35 1.36z"></path>
        <path d="m266.39 377.94a1.36 1.36 0 1 0 -1.35-1.36 1.35 1.35 0 0 0 1.35 1.36z"></path>
        <path d="m279.89 364.38a1.36 1.36 0 1 0 -1.35-1.36 1.35 1.35 0 0 0 1.35 1.36z"></path>
        <path d="m266.39 364.38a1.36 1.36 0 1 0 -1.39-1.38 1.35 1.35 0 0 0 1.39 1.38z"></path>
        <path d="m259.64 371.16a1.36 1.36 0 1 0 -1.35-1.36 1.35 1.35 0 0 0 1.35 1.36z"></path>
        <path d="m273.14 371.16a1.36 1.36 0 1 0 -1.35-1.36 1.35 1.35 0 0 0 1.35 1.36z"></path>
        <path d="m259.64 357.59a1.36 1.36 0 1 0 -1.35-1.35 1.34 1.34 0 0 0 1.35 1.35z"></path>
        <path d="m273.14 357.59a1.36 1.36 0 1 0 -1.35-1.35 1.34 1.34 0 0 0 1.35 1.35z"></path>
        <path d="m252.89 377.94a1.36 1.36 0 1 0 -1.35-1.36 1.35 1.35 0 0 0 1.35 1.36z"></path>
        <path d="m252.89 364.38a1.36 1.36 0 1 0 -1.35-1.36 1.35 1.35 0 0 0 1.35 1.36z"></path>
        <path d="m279.89 350.81a1.36 1.36 0 1 0 -1.35-1.35 1.34 1.34 0 0 0 1.35 1.35z"></path>
        <path d="m266.39 350.81a1.36 1.36 0 1 0 -1.35-1.35 1.34 1.34 0 0 0 1.35 1.35z"></path>
        <path d="m252.89 350.81a1.36 1.36 0 1 0 -1.35-1.35 1.34 1.34 0 0 0 1.35 1.35z"></path>
      </g>
      <g clip-path="url(#J)">
        <path d="m279.89 405.06a1.36 1.36 0 1 0 -1.35-1.35 1.35 1.35 0 0 0 1.35 1.35z"></path>
        <path d="m266.39 405.06a1.36 1.36 0 1 0 -1.35-1.35 1.35 1.35 0 0 0 1.35 1.35z"></path>
        <path d="m279.89 391.5a1.36 1.36 0 1 0 -1.35-1.36 1.35 1.35 0 0 0 1.35 1.36z"></path>
        <path d="m266.39 391.5a1.36 1.36 0 1 0 -1.35-1.36 1.35 1.35 0 0 0 1.35 1.36z"></path>
        <path d="m259.64 398.28a1.36 1.36 0 1 0 -1.35-1.35 1.35 1.35 0 0 0 1.35 1.35z"></path>
        <path d="m273.14 398.28a1.36 1.36 0 1 0 -1.35-1.35 1.35 1.35 0 0 0 1.35 1.35z"></path>
        <path d="m259.64 384.72a1.36 1.36 0 1 0 -1.35-1.36 1.35 1.35 0 0 0 1.35 1.36z"></path>
        <path d="m273.14 384.72a1.36 1.36 0 1 0 -1.35-1.36 1.35 1.35 0 0 0 1.35 1.36z"></path>
        <path d="m252.89 405.06a1.36 1.36 0 1 0 -1.35-1.35 1.35 1.35 0 0 0 1.35 1.35z"></path>
        <path d="m252.89 391.5a1.36 1.36 0 1 0 -1.35-1.36 1.35 1.35 0 0 0 1.35 1.36z"></path>
        <path d="m279.89 377.94a1.36 1.36 0 1 0 -1.35-1.36 1.35 1.35 0 0 0 1.35 1.36z"></path>
        <path d="m266.39 377.94a1.36 1.36 0 1 0 -1.35-1.36 1.35 1.35 0 0 0 1.35 1.36z"></path>
        <path d="m252.89 377.94a1.36 1.36 0 1 0 -1.35-1.36 1.35 1.35 0 0 0 1.35 1.36z"></path>
      </g>
      <g clip-path="url(#K)">
        <path d="m279.89 432.19a1.36 1.36 0 1 0 -1.35-1.36 1.35 1.35 0 0 0 1.35 1.36z"></path>
        <path d="m266.39 432.19a1.36 1.36 0 1 0 -1.35-1.36 1.35 1.35 0 0 0 1.35 1.36z"></path>
        <path d="m279.89 418.63a1.36 1.36 0 1 0 -1.35-1.36 1.35 1.35 0 0 0 1.35 1.36z"></path>
        <path d="m266.39 418.63a1.36 1.36 0 1 0 -1.35-1.36 1.35 1.35 0 0 0 1.35 1.36z"></path>
        <path d="m259.64 425.41a1.36 1.36 0 1 0 -1.35-1.36 1.35 1.35 0 0 0 1.35 1.36z"></path>
        <path d="m273.14 425.41a1.36 1.36 0 1 0 -1.35-1.36 1.35 1.35 0 0 0 1.35 1.36z"></path>
        <path d="m259.64 411.84a1.36 1.36 0 1 0 -1.35-1.35 1.34 1.34 0 0 0 1.35 1.35z"></path>
        <path d="m273.14 411.84a1.36 1.36 0 1 0 -1.35-1.35 1.34 1.34 0 0 0 1.35 1.35z"></path>
        <path d="m252.89 432.19a1.36 1.36 0 1 0 -1.35-1.36 1.35 1.35 0 0 0 1.35 1.36z"></path>
        <path d="m252.89 418.63a1.36 1.36 0 1 0 -1.35-1.36 1.35 1.35 0 0 0 1.35 1.36z"></path>
        <path d="m279.89 405.06a1.36 1.36 0 1 0 -1.35-1.35 1.35 1.35 0 0 0 1.35 1.35z"></path>
        <path d="m266.39 405.06a1.36 1.36 0 1 0 -1.35-1.35 1.35 1.35 0 0 0 1.35 1.35z"></path>
        <path d="m252.89 405.06a1.36 1.36 0 1 0 -1.35-1.35 1.35 1.35 0 0 0 1.35 1.35z"></path>
      </g>
      <g clip-path="url(#L)">
        <path d="m279.89 459.31a1.36 1.36 0 1 0 -1.35-1.36 1.35 1.35 0 0 0 1.35 1.36z"></path>
        <path d="m266.39 459.31a1.36 1.36 0 1 0 -1.39-1.31 1.35 1.35 0 0 0 1.39 1.31z"></path>
        <path d="m279.89 445.75a1.36 1.36 0 1 0 -1.35-1.36 1.35 1.35 0 0 0 1.35 1.36z"></path>
        <path d="m266.39 445.75a1.36 1.36 0 1 0 -1.35-1.36 1.35 1.35 0 0 0 1.35 1.36z"></path>
        <path d="m259.64 452.53a1.36 1.36 0 1 0 -1.35-1.36 1.35 1.35 0 0 0 1.35 1.36z"></path>
        <path d="m273.14 452.53a1.36 1.36 0 1 0 -1.35-1.36 1.35 1.35 0 0 0 1.35 1.36z"></path>
        <path d="m259.64 439a1.36 1.36 0 1 0 -1.35-1.36 1.35 1.35 0 0 0 1.35 1.36z"></path>
        <path d="m273.14 439a1.36 1.36 0 1 0 -1.35-1.36 1.35 1.35 0 0 0 1.35 1.36z"></path>
        <path d="m252.89 459.31a1.36 1.36 0 1 0 -1.35-1.36 1.35 1.35 0 0 0 1.35 1.36z"></path>
        <path d="m252.89 445.75a1.36 1.36 0 1 0 -1.35-1.36 1.35 1.35 0 0 0 1.35 1.36z"></path>
        <path d="m279.89 432.19a1.36 1.36 0 1 0 -1.35-1.36 1.35 1.35 0 0 0 1.35 1.36z"></path>
        <path d="m266.39 432.19a1.36 1.36 0 1 0 -1.35-1.36 1.35 1.35 0 0 0 1.35 1.36z"></path>
        <path d="m252.89 432.19a1.36 1.36 0 1 0 -1.35-1.36 1.35 1.35 0 0 0 1.35 1.36z"></path>
      </g>
    </g>
  </g>
</svg>
