<?xml version="1.0" encoding="UTF-8"?>
<svg xmlns="http://www.w3.org/2000/svg" xmlns:xlink="http://www.w3.org/1999/xlink" id="Layer_1" data-name="Layer 1" viewBox="0 0 600 600">
  <defs>
    <style>.cls-1,.cls-13{fill:none;}.cls-10,.cls-11,.cls-2{fill:#1c19a8;}.cls-3,.cls-4{fill:#fff;}.cls-10,.cls-11,.cls-12,.cls-13,.cls-4,.cls-5,.cls-6,.cls-7,.cls-8,.cls-9{stroke:#1c19a8;}.cls-12,.cls-13,.cls-4,.cls-5,.cls-6,.cls-7,.cls-8,.cls-9{stroke-linejoin:round;}.cls-4,.cls-5,.cls-6{stroke-width:2.78px;}.cls-12,.cls-5,.cls-8{fill:#00ab81;}.cls-6,.cls-9{fill:#ffde00;}.cls-7{fill:#fb715d;}.cls-10,.cls-12,.cls-13,.cls-7,.cls-8,.cls-9{stroke-width:2.82px;}.cls-8{fill-rule:evenodd;}.cls-10,.cls-11{stroke-miterlimit:10;}.cls-11{stroke-width:2.81px;}.cls-13{stroke-linecap:round;}.cls-14{fill:url(#Blue_dots);}</style>
    <pattern id="Blue_dots" data-name="Blue dots" width="28.8" height="28.8" patternUnits="userSpaceOnUse" viewBox="0 0 28.8 28.8">
      <rect class="cls-1" width="28.8" height="28.8"></rect>
      <path class="cls-2" d="M28.8,30.24a1.44,1.44,0,1,0-1.44-1.44A1.44,1.44,0,0,0,28.8,30.24Z"></path>
      <path class="cls-2" d="M14.4,30.24A1.44,1.44,0,1,0,13,28.8,1.44,1.44,0,0,0,14.4,30.24Z"></path>
      <path class="cls-2" d="M28.8,15.84a1.44,1.44,0,1,0-1.44-1.44A1.44,1.44,0,0,0,28.8,15.84Z"></path>
      <path class="cls-2" d="M14.4,15.84A1.44,1.44,0,1,0,13,14.4,1.44,1.44,0,0,0,14.4,15.84Z"></path>
      <path class="cls-2" d="M7.2,23A1.44,1.44,0,1,0,5.76,21.6,1.44,1.44,0,0,0,7.2,23Z"></path>
      <path class="cls-2" d="M21.6,23a1.44,1.44,0,1,0-1.44-1.44A1.44,1.44,0,0,0,21.6,23Z"></path>
      <path class="cls-2" d="M7.2,8.64A1.44,1.44,0,1,0,5.76,7.2,1.44,1.44,0,0,0,7.2,8.64Z"></path>
      <path class="cls-2" d="M21.6,8.64A1.44,1.44,0,1,0,20.16,7.2,1.44,1.44,0,0,0,21.6,8.64Z"></path>
      <path class="cls-2" d="M0,30.24A1.44,1.44,0,0,0,1.44,28.8,1.45,1.45,0,0,0,0,27.36,1.44,1.44,0,0,0-1.44,28.8,1.43,1.43,0,0,0,0,30.24Z"></path>
      <path class="cls-2" d="M0,15.84A1.44,1.44,0,0,0,1.44,14.4,1.45,1.45,0,0,0,0,13,1.44,1.44,0,0,0-1.44,14.4,1.43,1.43,0,0,0,0,15.84Z"></path>
      <path class="cls-2" d="M28.8,1.44A1.45,1.45,0,0,0,30.24,0,1.45,1.45,0,0,0,28.8-1.44,1.44,1.44,0,0,0,27.36,0,1.44,1.44,0,0,0,28.8,1.44Z"></path>
      <path class="cls-2" d="M14.4,1.44A1.45,1.45,0,0,0,15.84,0,1.45,1.45,0,0,0,14.4-1.44,1.44,1.44,0,0,0,13,0,1.44,1.44,0,0,0,14.4,1.44Z"></path>
      <path class="cls-2" d="M0,1.44A1.45,1.45,0,0,0,1.44,0,1.45,1.45,0,0,0,0-1.44,1.44,1.44,0,0,0-1.44,0,1.44,1.44,0,0,0,0,1.44Z"></path>
    </pattern>
  </defs>
  <title>Shops_NEW_</title>
  <rect class="cls-3" x="85.75" y="264.17" width="425.08" height="219.12"></rect>
  <rect class="cls-4" x="230.6" y="280" width="67.61" height="195.34"></rect>
  <rect class="cls-4" x="298.36" y="280" width="67.78" height="195.34"></rect>
  <rect class="cls-4" x="93.95" y="239.88" width="136.65" height="235.46"></rect>
  <rect class="cls-4" x="366.15" y="239.88" width="141.42" height="235.46" transform="translate(873.73 715.21) rotate(-180)"></rect>
  <rect class="cls-5" x="230.6" y="475.33" width="67.8" height="15.9"></rect>
  <rect class="cls-5" x="298.36" y="475.33" width="67.8" height="15.9"></rect>
  <rect class="cls-5" x="506.05" y="224.41" width="9.56" height="266.83"></rect>
  <rect class="cls-5" x="84.39" y="224.41" width="9.56" height="266.83"></rect>
  <rect class="cls-5" x="84.39" y="475.33" width="146.21" height="15.9"></rect>
  <rect class="cls-5" x="366.14" y="475.33" width="149.47" height="15.9"></rect>
  <rect class="cls-5" x="75.16" y="199.75" width="450.77" height="54.38"></rect>
  <rect class="cls-6" x="69.29" y="250.28" width="462.51" height="9.05"></rect>
  <rect class="cls-5" x="75.16" y="259.33" width="450.77" height="20.67"></rect>
  <rect class="cls-7" x="450.47" y="408.97" width="55.72" height="66.37"></rect>
  <rect class="cls-7" x="442.84" y="403.72" width="63.35" height="12.19"></rect>
  <path class="cls-8" d="M497.81,297.46a.46.46,0,0,1,.35.49v2.46a.46.46,0,0,1-.39.5h-.1a1.7,1.7,0,0,0,.34.67,6.08,6.08,0,0,0,1.05.91,5.45,5.45,0,0,1,1.22,1.15,3.53,3.53,0,0,1,.64,2.06h0v11.47a2,2,0,0,1-1.69,2.18h-9a2,2,0,0,1-1.69-2.18V305.73h0a3.52,3.52,0,0,1,.63-2.05,5.29,5.29,0,0,1,1.22-1.16,5.69,5.69,0,0,0,1-.93,1.53,1.53,0,0,0,.34-.67h-.13c-.21,0-.38-.23-.38-.5l0-2.45a.64.64,0,0,1,.11-.36.35.35,0,0,1,.28-.14h6.22Z"></path>
  <path class="cls-8" d="M480.11,297.46a.46.46,0,0,1,.35.49v2.46a.46.46,0,0,1-.39.5H480a1.7,1.7,0,0,0,.34.67,6.08,6.08,0,0,0,1.05.91,5.25,5.25,0,0,1,1.22,1.15,3.6,3.6,0,0,1,.65,2.06h0v11.47a2,2,0,0,1-1.7,2.18h-9a2,2,0,0,1-1.69-2.18V305.73h0a3.52,3.52,0,0,1,.63-2.05,5.29,5.29,0,0,1,1.22-1.16,6.13,6.13,0,0,0,1.05-.93,1.77,1.77,0,0,0,.34-.67h-.13a.46.46,0,0,1-.39-.5l0-2.45a.64.64,0,0,1,.11-.36.38.38,0,0,1,.28-.14h6.22Z"></path>
  <path class="cls-8" d="M497.81,343.92a.47.47,0,0,1,.35.5v2.45a.46.46,0,0,1-.39.5h-.1a1.7,1.7,0,0,0,.34.67,5.68,5.68,0,0,0,1.05.91,5.45,5.45,0,0,1,1.22,1.15,3.55,3.55,0,0,1,.64,2.06h0v11.46a2,2,0,0,1-1.69,2.18h-9a2,2,0,0,1-1.69-2.18V352.19h0a3.54,3.54,0,0,1,.63-2.05,5.75,5.75,0,0,1,1.22-1.16,5.66,5.66,0,0,0,1-.92,1.62,1.62,0,0,0,.34-.68h-.13c-.21,0-.38-.22-.38-.5l0-2.45a.58.58,0,0,1,.11-.35.33.33,0,0,1,.28-.15h6.22Z"></path>
  <rect class="cls-9" x="457.97" y="365.81" width="48.22" height="9.76"></rect>
  <rect class="cls-9" x="457.97" y="319.35" width="48.22" height="9.76"></rect>
  <rect class="cls-10" x="462.7" y="375.57" width="6.5" height="28.15"></rect>
  <rect class="cls-10" x="462.7" y="329.11" width="6.5" height="36.7"></rect>
  <rect class="cls-11" x="184.28" y="199.75" width="51.67" height="6.96"></rect>
  <rect class="cls-11" x="365.14" y="199.75" width="51.67" height="6.96"></rect>
  <rect class="cls-6" x="422.12" y="424.43" width="73.6" height="50.91" transform="translate(917.85 899.76) rotate(-180)"></rect>
  <rect class="cls-6" x="422.12" y="424.43" width="73.6" height="12.28" transform="translate(917.85 861.13) rotate(-180)"></rect>
  <rect class="cls-6" x="391.94" y="414.53" width="41.7" height="60.8" transform="translate(825.59 889.87) rotate(-180)"></rect>
  <rect class="cls-6" x="400.54" y="422.52" width="24.5" height="44.83" transform="translate(825.59 889.87) rotate(-180)"></rect>
  <rect class="cls-7" x="93.95" y="408.97" width="55.72" height="66.37" transform="translate(243.62 884.3) rotate(-180)"></rect>
  <rect class="cls-7" x="93.95" y="403.72" width="63.35" height="12.19" transform="translate(251.25 819.63) rotate(-180)"></rect>
  <path class="cls-8" d="M102.33,297.46a.46.46,0,0,0-.34.49v2.46a.46.46,0,0,0,.39.5h.1a1.72,1.72,0,0,1-.35.67,5.41,5.41,0,0,1-1,.91,5.42,5.42,0,0,0-1.21,1.15,3.53,3.53,0,0,0-.65,2.06h0v11.47a2,2,0,0,0,1.69,2.18h9a2,2,0,0,0,1.7-2.18V305.73h0a3.59,3.59,0,0,0-.63-2.05,5.5,5.5,0,0,0-1.22-1.16,5.77,5.77,0,0,1-1-.93,1.64,1.64,0,0,1-.34-.67h.13a.46.46,0,0,0,.39-.5l0-2.45a.58.58,0,0,0-.12-.36.35.35,0,0,0-.27-.14h-6.23Z"></path>
  <path class="cls-8" d="M120,297.46a.45.45,0,0,0-.34.49v2.46c0,.27.17.5.38.5h.11a1.87,1.87,0,0,1-.35.67,5.73,5.73,0,0,1-1,.91,5.45,5.45,0,0,0-1.22,1.15,3.6,3.6,0,0,0-.64,2.06h0v11.47a2,2,0,0,0,1.69,2.18h9a2,2,0,0,0,1.69-2.18V305.73h0a3.52,3.52,0,0,0-.63-2.05,5.29,5.29,0,0,0-1.22-1.16,5.69,5.69,0,0,1-1-.93,1.64,1.64,0,0,1-.34-.67h.13a.46.46,0,0,0,.39-.5V298a.64.64,0,0,0-.11-.36.35.35,0,0,0-.27-.14H120Z"></path>
  <path class="cls-8" d="M102.33,343.92a.48.48,0,0,0-.34.5v2.45a.45.45,0,0,0,.39.5h.1a1.72,1.72,0,0,1-.35.67,5.09,5.09,0,0,1-1,.91,5.42,5.42,0,0,0-1.21,1.15,3.55,3.55,0,0,0-.65,2.06h0v11.46a2,2,0,0,0,1.69,2.18h9a2,2,0,0,0,1.7-2.18V352.19h0a3.62,3.62,0,0,0-.63-2.05A6,6,0,0,0,109.8,349a5.75,5.75,0,0,1-1-.92,1.74,1.74,0,0,1-.34-.68h.13a.46.46,0,0,0,.39-.5l0-2.45a.53.53,0,0,0-.12-.35.33.33,0,0,0-.27-.15h-6.23Z"></path>
  <rect class="cls-9" x="93.95" y="365.81" width="48.22" height="9.76" transform="translate(236.12 741.38) rotate(-180)"></rect>
  <rect class="cls-9" x="93.95" y="319.35" width="48.22" height="9.76" transform="translate(236.12 648.45) rotate(-180)"></rect>
  <rect class="cls-10" x="130.95" y="375.57" width="6.5" height="28.15" transform="translate(268.4 779.29) rotate(-180)"></rect>
  <rect class="cls-10" x="130.95" y="329.11" width="6.5" height="36.7" transform="translate(268.4 694.91) rotate(-180)"></rect>
  <path class="cls-2" d="M244.65,221.42c0-1.43,0-2.82,0-4.21,0-.88.25-1.05,1.05-1.07.5,0,.73-.21.74-.67,0-.64-.2-.9-.75-.9q-4.78,0-9.58,0a1,1,0,0,0-.71.33c-.42.49-.06,1.16.62,1.23.94.1,1.14.37.91,1.26-.18.67-.37,1.34-.57,2q-1,3.27-2,6.52c-.16.51-.34,1-.55,1.63-.12-.4-.19-.68-.28-1-1-3-2-6-3-9-.31-1-.19-1.19.79-1.44a1.07,1.07,0,0,0,.19-.07c.5-.12.66-.36.6-.91s-.36-.56-.7-.56h-5.66a.77.77,0,0,0-.82.71.71.71,0,0,0,.67.87,1.4,1.4,0,0,1,1.25,1.13c.16.67.48,1.3.68,2,.28.94.74,1.8.27,2.89-.79,1.82-1.38,3.73-2.07,5.61a1.09,1.09,0,0,1-.15-.18c-1.21-3.41-2.43-6.82-3.63-10.24-.31-.89-.11-1.18.82-1.28h.1a.8.8,0,0,0,.76-.78.79.79,0,0,0-.83-.69H217c-.47,0-.8.16-.84.67a.67.67,0,0,0,.68.81,1.61,1.61,0,0,1,1.41,1.2l1.47,4c1,2.65,2,5.3,3,7.94.38,1,.74,2,1.14,3,.31.76,1,.82,1.67.77a1.15,1.15,0,0,0,1-.88c.68-1.89,1.35-3.79,2-5.68.22-.61.46-1.21.72-1.9a2.28,2.28,0,0,1,.12.24c.78,2.33,1.55,4.67,2.34,7,.17.5.35,1,.92,1.19a1.46,1.46,0,0,0,2-1.07c.38-1.15.75-2.31,1.11-3.46l1.62-5.16c.64-2.09,1.27-4.18,1.93-6.26a1,1,0,0,1,1-.8c.48.06.51.59.51,1,0,4.25,0,8.5,0,12.75,0,.85-.12,1-1,1a.74.74,0,0,0-.79.55,1.12,1.12,0,0,0,.19.86,1.23,1.23,0,0,0,.8.27c1.8,0,3.6,0,5.4,0,.69,0,1-.31.94-.85a.79.79,0,0,0-.85-.83c-.33,0-.7.06-.83-.37a2.45,2.45,0,0,1-.11-.71c0-1.94.08-3.87.09-5.81,0-.54.27-.64.73-.63h3.86c.84,0,1.12-.09,1.14,1.15,0,1.71,0,3.42,0,5.13,0,1.08,0,1.06-1.08,1.27a1.17,1.17,0,0,0-.69.64.65.65,0,0,0,.41.9,2.44,2.44,0,0,0,.81.11c1.59,0,3.18,0,4.76,0a3.75,3.75,0,0,0,.82-.1c.48-.1.66-.38.56-.93a.72.72,0,0,0-.75-.65c-.92,0-1-.14-1-1.08V217.29c0-.89.23-1.14,1.11-1.14a.64.64,0,0,0,.69-.63c.1-.63-.21-1-.91-1h-5.55c-.69,0-.93.17-.94.7,0,.71.13.85.9.87.42,0,.79.12.8.63,0,1.54,0,3.08,0,4.65Zm17.86-8.25,0,.13a1.64,1.64,0,0,1-.25.21c-.87.53-1.77,1-2.63,1.59a9.07,9.07,0,0,0-3.92,4.9,12.45,12.45,0,0,0-.29,6,8.71,8.71,0,0,0,2.74,5.12,8,8,0,0,0,5.37,2,15.13,15.13,0,0,0,2.77-.2,7.68,7.68,0,0,0,6-4.32,11.14,11.14,0,0,0,.95-6.63,10.07,10.07,0,0,0-2.25-5.24,5.64,5.64,0,0,0-4.46-2.21c-.36,0-.75,0-.85.41a.92.92,0,0,0,.4,1.09,6.07,6.07,0,0,1,2.43,2.8,12.32,12.32,0,0,1,.62,2.67,14.21,14.21,0,0,1-.12,5.08,6,6,0,0,1-2.12,3.7,4.35,4.35,0,0,1-5.34-.31,8.06,8.06,0,0,1-2.35-5.63,21.68,21.68,0,0,1,.1-2.9,7.34,7.34,0,0,1,3.17-5.62c1.38-1,2.88-1.85,4.33-2.78a5.83,5.83,0,0,0,2-1.76c.37-.62.29-1.56-.2-1.81a3,3,0,0,0-1.13-.32,3.1,3.1,0,0,1-2.1-.92,38.23,38.23,0,0,0-3.13-2.69,5,5,0,0,0-3.77-.92,5.69,5.69,0,0,0-4,2.84,3.15,3.15,0,0,0-.7,2.68c.07.21.27.51.45.54a1,1,0,0,0,.69-.32c.21-.26.28-.63.49-.91a4.52,4.52,0,0,1,3.65-1.89,5.12,5.12,0,0,1,2.89.93c1.09.67,2.16,1.37,3.24,2.07a2.88,2.88,0,0,1,.33.28l0,.16a3.2,3.2,0,0,1-.93,0,15.21,15.21,0,0,1-1.67-.71,8.63,8.63,0,0,0-3-.92,4.92,4.92,0,0,0-3.79,1.43,5.73,5.73,0,0,0-1.06,1.71.66.66,0,0,0,.27.87.63.63,0,0,0,.84-.15c.13-.12.29-.2.41-.31a2.27,2.27,0,0,1,2.6-.52A6.27,6.27,0,0,0,262.51,213.17Zm29.33,8.27c0-1.29,0-2.51,0-3.72,0-.84.24-1.16,1-1.22a26.61,26.61,0,0,1,3.22,0,2.3,2.3,0,0,1,2,1.07c.11.19.25.45.43.5a1.56,1.56,0,0,0,1,.06c.33-.13.37-.49.22-.86a19.83,19.83,0,0,1-.75-2,.93.93,0,0,0-1-.71H287.25a2.16,2.16,0,0,0-.61.1c-.46.13-.42.53-.38.86s.18.66.58.6c1-.14,1.19.45,1.19,1.29,0,4.18,0,8.35,0,12.53,0,.78-.2,1-1,1a.74.74,0,0,0-.79.56,1.06,1.06,0,0,0,.19.85,1.41,1.41,0,0,0,.92.27c3.56,0,7.12,0,10.68,0,.4,0,1,.11,1.21-.49.34-.86.72-1.7,1.05-2.55.18-.47-.12-.79-.6-.86s-.83.26-1.08.66a2.49,2.49,0,0,1-2.35,1.26c-1,0-2,0-3,0-1.17,0-1.5-.31-1.51-1.47,0-1.6,0-3.21,0-4.81,0-.78.25-1,1-1s1.69,0,2.54,0c.61,0,1-.23,1-.93s-.38-1-1-1C294.23,221.46,293.07,221.44,291.84,221.44Zm80.31-7.15a17.5,17.5,0,0,0-1.86.18,4,4,0,0,0-3.14,2.33,4.59,4.59,0,0,0,1.37,5.58c.89.8,2,1.42,2.94,2.14a12.66,12.66,0,0,1,3.12,2.67,2.42,2.42,0,0,1,.47,2.11c-.48,1.65-2.15,2-3.79,1.68a5,5,0,0,1-3.14-2.25,1.5,1.5,0,0,0-.8-.6c-.77-.13-1.17.51-.94,1.42s.46,1.78.69,2.66c.28,1.09.78,1.26,1.71.59a.74.74,0,0,1,.53-.13,10,10,0,0,0,4.44.41,5.45,5.45,0,0,0,3.8-2.14,4.92,4.92,0,0,0,.8-4,5.75,5.75,0,0,0-.88-2.14,13.58,13.58,0,0,0-3.56-3.1,13.48,13.48,0,0,1-3.1-2.53,1.82,1.82,0,0,1-.21-1.83,1.66,1.66,0,0,1,1.53-1,4.06,4.06,0,0,1,3.64,1.65,3.34,3.34,0,0,0,.68.84,1.35,1.35,0,0,0,.91.18c.37-.06.46-.41.4-.74-.21-1.06-.42-2.11-.65-3.16-.15-.68-.47-1.06-1.42-.58a1.43,1.43,0,0,1-1,.14C373.75,214.49,372.83,214.39,372.15,214.29Zm-62.95,7.36c0-1.43,0-2.8,0-4.17,0-.56.33-.8.89-.81,1,0,2,0,3,0a2.09,2.09,0,0,1,1.88,1,1.46,1.46,0,0,0,.6.63.89.89,0,0,0,.78-.06.8.8,0,0,0,.24-.7c-.24-.78-.58-1.52-.85-2.29a.83.83,0,0,0-.87-.59c-3.44,0-6.88,0-10.31,0a1.15,1.15,0,0,0-.87.41.82.82,0,0,0,.8,1.26c.51-.09.76.14.81.64,0,.15,0,.31,0,.46,0,1.43,0,2.86,0,4.29,0,2.75,0,5.49,0,8.24,0,.89-.09,1-.93,1.08-.56.05-.85.33-.86.84s.2.82.84.83c2,0,3.95,0,5.92,0,.35,0,.74-.15.79-.55a1.1,1.1,0,0,0-.19-.85,1.53,1.53,0,0,0-.91-.27c-.63,0-.84-.16-.85-.79q0-3,0-6.08c0-.46.24-.68.73-.67.9,0,1.8,0,2.7,0,.68,0,1.12-.39,1.11-1s-.41-.94-1.12-.94Zm-34.91,2v6.46c0,.69-.17.86-.84.89s-.85.29-.86.87.16.79,1.08.8c3.56.05,7.12,0,10.68,0a1.1,1.1,0,0,0,1.17-.82,24.22,24.22,0,0,1,.93-2.31.66.66,0,0,0-.2-.92.73.73,0,0,0-1,0c-.26.27-.48.59-.72.89a2.41,2.41,0,0,1-1.76,1.11c-1.15,0-2.3,0-3.44,0-.84,0-1.15-.45-1.15-1.22,0-4.07,0-8.14,0-12.21,0-.91.16-1.07,1.07-1.07.6,0,.82-.2.83-.74s-.23-.79-.79-.83c-.35,0-.71,0-1.06,0h-4.92a.79.79,0,0,0-.84.87c0,.48.26.69.83.7.78,0,1,.19,1,1Z"></path>
  <path class="cls-2" d="M244.65,221.42h5.73c0-1.57,0-3.11,0-4.65,0-.51-.38-.61-.8-.63-.77,0-.91-.16-.9-.87,0-.53.25-.7.94-.7h5.55c.7,0,1,.32.91,1a.64.64,0,0,1-.69.63c-.88,0-1.1.25-1.11,1.14v12.59c0,.94.12,1.06,1,1.08a.72.72,0,0,1,.75.65c.1.55-.08.83-.56.93a3.75,3.75,0,0,1-.82.1c-1.58,0-3.17,0-4.76,0a2.44,2.44,0,0,1-.81-.11.65.65,0,0,1-.41-.9,1.17,1.17,0,0,1,.69-.64c1-.21,1.08-.19,1.08-1.27,0-1.71,0-3.42,0-5.13,0-1.24-.3-1.15-1.14-1.15h-3.86c-.46,0-.72.09-.73.63,0,1.94-.06,3.87-.09,5.81a2.45,2.45,0,0,0,.11.71c.13.43.5.37.83.37a.79.79,0,0,1,.85.83c0,.54-.25.84-.94.85-1.8,0-3.6,0-5.4,0a1.23,1.23,0,0,1-.8-.27,1.12,1.12,0,0,1-.19-.86.74.74,0,0,1,.79-.55c.83,0,1-.15,1-1,0-4.25,0-8.5,0-12.75,0-.43,0-1-.51-1a1,1,0,0,0-1,.8c-.66,2.08-1.29,4.17-1.93,6.26l-1.62,5.16c-.36,1.15-.73,2.31-1.11,3.46a1.46,1.46,0,0,1-2,1.07c-.57-.17-.75-.69-.92-1.19-.79-2.33-1.56-4.67-2.34-7a2.28,2.28,0,0,0-.12-.24c-.26.69-.5,1.29-.72,1.9-.67,1.89-1.34,3.79-2,5.68a1.15,1.15,0,0,1-1,.88c-.71.05-1.36,0-1.67-.77-.4-1-.76-2-1.14-3-1-2.64-2-5.29-3-7.94l-1.47-4a1.61,1.61,0,0,0-1.41-1.2.67.67,0,0,1-.68-.81c0-.51.37-.67.84-.67h5.82a.79.79,0,0,1,.83.69.8.8,0,0,1-.76.78h-.1c-.93.1-1.13.39-.82,1.28,1.2,3.42,2.42,6.83,3.63,10.24a1.09,1.09,0,0,0,.15.18c.69-1.88,1.28-3.79,2.07-5.61.47-1.09,0-1.95-.27-2.89-.2-.66-.52-1.29-.68-2a1.4,1.4,0,0,0-1.25-1.13.71.71,0,0,1-.67-.87.77.77,0,0,1,.82-.71h5.66c.34,0,.66.13.7.56s-.1.79-.6.91a1.07,1.07,0,0,1-.19.07c-1,.25-1.1.47-.79,1.44,1,3,2,6,3,9,.09.28.16.56.28,1,.21-.61.39-1.12.55-1.63q1-3.25,2-6.52c.2-.66.39-1.33.57-2,.23-.89,0-1.16-.91-1.26-.68-.07-1-.74-.62-1.23a1,1,0,0,1,.71-.33q4.8,0,9.58,0c.55,0,.76.26.75.9,0,.46-.24.66-.74.67-.8,0-1,.19-1.05,1.07C244.62,218.6,244.65,220,244.65,221.42Z"></path>
  <path class="cls-2" d="M332.85,220.58c1-3.17,2.91-5.35,6.28-6a10.29,10.29,0,0,1,6.45.63,7.8,7.8,0,0,1,4.42,5.73,12,12,0,0,1-.38,6.76,7.88,7.88,0,0,1-6.27,5.29,9.63,9.63,0,0,1-6.32-.76,7.85,7.85,0,0,1-4.14-5.29s0,0-.07-.09c-.28.65-.52,1.31-.84,1.92A7.85,7.85,0,0,1,326.1,233a10.23,10.23,0,0,1-4.86-.23,7.79,7.79,0,0,1-5.53-5.85,11.73,11.73,0,0,1,.24-7.06,7.73,7.73,0,0,1,6.62-5.38,10.69,10.69,0,0,1,5.11.42,7.59,7.59,0,0,1,4.1,3.39A25.17,25.17,0,0,1,332.85,220.58Zm-13.44,3.23c0,.58.11,1.15.15,1.72a8.78,8.78,0,0,0,.94,3.28,4.11,4.11,0,0,0,7.2.32,9,9,0,0,0,1.28-4.35,12.46,12.46,0,0,0-.42-4.46,5.4,5.4,0,0,0-2.4-3.46,4,4,0,0,0-5.65,1.84A11.39,11.39,0,0,0,319.41,223.81Zm26.8-.06c-.1-.87-.15-1.74-.3-2.6a6.59,6.59,0,0,0-1.82-3.73,4,4,0,0,0-6,.65,9.4,9.4,0,0,0-1.45,4.83,11.56,11.56,0,0,0,.62,4.94,4.59,4.59,0,0,0,2.16,2.77,4.08,4.08,0,0,0,5.67-1.85A10.73,10.73,0,0,0,346.21,223.75Z"></path>
  <path class="cls-2" d="M262.51,213.17a6.27,6.27,0,0,1-3.21-.76,2.27,2.27,0,0,0-2.6.52c-.12.11-.28.19-.41.31a.63.63,0,0,1-.84.15.66.66,0,0,1-.27-.87,5.73,5.73,0,0,1,1.06-1.71,4.92,4.92,0,0,1,3.79-1.43,8.63,8.63,0,0,1,3,.92,15.21,15.21,0,0,0,1.67.71,3.2,3.2,0,0,0,.93,0l0-.16a2.88,2.88,0,0,0-.33-.28c-1.08-.7-2.15-1.4-3.24-2.07a5.12,5.12,0,0,0-2.89-.93,4.52,4.52,0,0,0-3.65,1.89c-.21.28-.28.65-.49.91a1,1,0,0,1-.69.32c-.18,0-.38-.33-.45-.54a3.15,3.15,0,0,1,.7-2.68,5.69,5.69,0,0,1,4-2.84,5,5,0,0,1,3.77.92,38.23,38.23,0,0,1,3.13,2.69,3.1,3.1,0,0,0,2.1.92,3,3,0,0,1,1.13.32c.49.25.57,1.19.2,1.81a5.83,5.83,0,0,1-2,1.76c-1.45.93-2.95,1.78-4.33,2.78a7.34,7.34,0,0,0-3.17,5.62,21.68,21.68,0,0,0-.1,2.9,8.06,8.06,0,0,0,2.35,5.63,4.35,4.35,0,0,0,5.34.31,6,6,0,0,0,2.12-3.7,14.21,14.21,0,0,0,.12-5.08,12.32,12.32,0,0,0-.62-2.67,6.07,6.07,0,0,0-2.43-2.8.92.92,0,0,1-.4-1.09c.1-.45.49-.4.85-.41a5.64,5.64,0,0,1,4.46,2.21,10.07,10.07,0,0,1,2.25,5.24,11.14,11.14,0,0,1-.95,6.63,7.68,7.68,0,0,1-6,4.32,15.13,15.13,0,0,1-2.77.2,8,8,0,0,1-5.37-2,8.71,8.71,0,0,1-2.74-5.12,12.45,12.45,0,0,1,.29-6,9.07,9.07,0,0,1,3.92-4.9c.86-.56,1.76-1.06,2.63-1.59a1.64,1.64,0,0,0,.25-.21Z"></path>
  <path class="cls-2" d="M357.53,214.25c1,.14,2.32.25,3.62.55a6.82,6.82,0,0,1,4,2.72,9,9,0,0,1,1.65,4.42,13.16,13.16,0,0,1-.32,5.15,7.56,7.56,0,0,1-6.19,5.76,19.76,19.76,0,0,1-3.75.3,16,16,0,0,1-6-1.12.92.92,0,0,1-.65-1.05c.07-.48.45-.53.8-.62.79-.2.79-.19.79-1V218c0-.76,0-.74-.74-.92-.35-.09-.79-.12-.84-.63a.87.87,0,0,1,.66-1,27.48,27.48,0,0,1,3.05-.82C354.73,214.4,356,214.38,357.53,214.25Zm-2.2,9.51v5.92c0,.7.18,1,.86,1.17a7.52,7.52,0,0,0,2.11.2,3.88,3.88,0,0,0,2.76-1.5,7.84,7.84,0,0,0,1.59-4.33,12.6,12.6,0,0,0-.55-5.62,5.33,5.33,0,0,0-1.51-2.35,4.26,4.26,0,0,0-3.68-1c-1,.17-1.61.45-1.59,1.79C355.35,220,355.33,221.85,355.33,223.76Z"></path>
  <path class="cls-2" d="M291.84,221.44c1.23,0,2.39,0,3.55,0,.61,0,1,.26,1,1s-.37,1-1,.93c-.85,0-1.69,0-2.54,0s-1,.25-1,1c0,1.6,0,3.21,0,4.81,0,1.16.34,1.47,1.51,1.47,1,0,2,0,3,0a2.49,2.49,0,0,0,2.35-1.26c.25-.4.51-.74,1.08-.66s.78.39.6.86c-.33.85-.71,1.69-1.05,2.55-.24.6-.81.48-1.21.49-3.56,0-7.12,0-10.68,0a1.41,1.41,0,0,1-.92-.27,1.06,1.06,0,0,1-.19-.85.74.74,0,0,1,.79-.56c.75,0,1-.23,1-1,0-4.18,0-8.35,0-12.53,0-.84-.18-1.43-1.19-1.29-.4.06-.54-.29-.58-.6s-.08-.73.38-.86a2.16,2.16,0,0,1,.61-.1h10.69a.93.93,0,0,1,1,.71,19.83,19.83,0,0,0,.75,2c.15.37.11.73-.22.86a1.56,1.56,0,0,1-1-.06c-.18-.05-.32-.31-.43-.5a2.3,2.3,0,0,0-2-1.07,26.61,26.61,0,0,0-3.22,0c-.8.06-1,.38-1,1.22C291.82,218.93,291.84,220.15,291.84,221.44Z"></path>
  <path class="cls-2" d="M372.15,214.29c.68.1,1.6.2,2.5.4a1.43,1.43,0,0,0,1-.14c.95-.48,1.27-.1,1.42.58.23,1.05.44,2.1.65,3.16.06.33,0,.68-.4.74a1.35,1.35,0,0,1-.91-.18,3.34,3.34,0,0,1-.68-.84,4.06,4.06,0,0,0-3.64-1.65,1.66,1.66,0,0,0-1.53,1,1.82,1.82,0,0,0,.21,1.83,13.48,13.48,0,0,0,3.1,2.53,13.58,13.58,0,0,1,3.56,3.1,5.75,5.75,0,0,1,.88,2.14,4.92,4.92,0,0,1-.8,4,5.45,5.45,0,0,1-3.8,2.14,10,10,0,0,1-4.44-.41.74.74,0,0,0-.53.13c-.93.67-1.43.5-1.71-.59-.23-.88-.47-1.77-.69-2.66s.17-1.55.94-1.42a1.5,1.5,0,0,1,.8.6,5,5,0,0,0,3.14,2.25c1.64.34,3.31,0,3.79-1.68a2.42,2.42,0,0,0-.47-2.11,12.66,12.66,0,0,0-3.12-2.67c-1-.72-2-1.34-2.94-2.14a4.59,4.59,0,0,1-1.37-5.58,4,4,0,0,1,3.14-2.33A17.5,17.5,0,0,1,372.15,214.29Z"></path>
  <path class="cls-2" d="M309.2,221.65h3.42c.71,0,1.12.34,1.12.94s-.43,1-1.11,1c-.9,0-1.8,0-2.7,0-.49,0-.73.21-.73.67q0,3,0,6.08c0,.63.22.75.85.79a1.53,1.53,0,0,1,.91.27,1.1,1.1,0,0,1,.19.85c0,.4-.44.54-.79.55-2,0-3.95,0-5.92,0-.64,0-.86-.28-.84-.83s.3-.79.86-.84c.84-.08.93-.19.93-1.08,0-2.75,0-5.49,0-8.24,0-1.43,0-2.86,0-4.29,0-.15,0-.31,0-.46-.05-.5-.3-.73-.81-.64a.82.82,0,0,1-.8-1.26,1.15,1.15,0,0,1,.87-.41c3.43,0,6.87,0,10.31,0a.83.83,0,0,1,.87.59c.27.77.61,1.51.85,2.29a.8.8,0,0,1-.24.7.89.89,0,0,1-.78.06,1.46,1.46,0,0,1-.6-.63,2.09,2.09,0,0,0-1.88-1c-1,0-2,0-3,0-.56,0-.88.25-.89.81C309.18,218.85,309.2,220.22,309.2,221.65Z"></path>
  <path class="cls-2" d="M274.29,223.61v-6.5c0-.78-.19-1-1-1-.57,0-.82-.22-.83-.7a.79.79,0,0,1,.84-.87h4.92c.35,0,.71,0,1.06,0,.56,0,.81.3.79.83s-.23.74-.83.74c-.91,0-1.07.16-1.07,1.07,0,4.07,0,8.14,0,12.21,0,.77.31,1.19,1.15,1.22,1.14,0,2.29,0,3.44,0a2.41,2.41,0,0,0,1.76-1.11c.24-.3.46-.62.72-.89a.73.73,0,0,1,1,0,.66.66,0,0,1,.2.92,24.22,24.22,0,0,0-.93,2.31,1.1,1.1,0,0,1-1.17.82c-3.56,0-7.12,0-10.68,0-.92,0-1.09-.19-1.08-.8s.25-.84.86-.87.84-.2.84-.89Z"></path>
  <path class="cls-2" d="M377.4,237.23a4.47,4.47,0,0,0-4.4-2.56H223.45a6.12,6.12,0,0,0-1.35.13,4.38,4.38,0,0,0-3.44,5.26,4.31,4.31,0,0,0,4.28,3.49q37.63,0,75.28,0H373.6a2.44,2.44,0,0,0,.47,0A4.43,4.43,0,0,0,377.4,237.23Zm-137.58,3.92c0,.21.3.42.46.62a2.48,2.48,0,0,1-2.11-.05c.79-.23.54-.85.56-1.37a16.38,16.38,0,0,0-.11-2.4c-.21.33-.43.66-.63,1s-.42.68-.63,1-.35.28-.54,0a15.91,15.91,0,0,0-1.46-2c0,1.1,0,2.2,0,3.29a.17.17,0,0,0,.06.12,4,4,0,0,0,.43.33h0a1.27,1.27,0,0,1-.79.26,1.94,1.94,0,0,1-1-.25l.57-.28v-4.59l-.52-.26a1.17,1.17,0,0,1,1.56.07l1.54,2.29,1.46-2.27a1.21,1.21,0,0,1,1.61-.1l-.54.27C239.8,238.27,239.78,239.71,239.82,241.15Zm22.89.69c.07-.12.1-.22.14-.23.41-.05.56-.25.43-.67s-.21-.79-.78-.67a1.51,1.51,0,0,1-.52,0c-.54-.1-.73.19-.89.64s.22.61.51.79a1.62,1.62,0,0,1-1.78,0c.8-.2.81-.9,1-1.45.41-1.18.77-2.37,1.18-3.55a2.16,2.16,0,0,1,.39-.48c.16.14.38.25.45.42.37,1,.71,2.06,1.07,3.1a10.11,10.11,0,0,0,.45,1.27,5.43,5.43,0,0,0,.65.79A4.52,4.52,0,0,1,262.71,241.84Zm26.72.07a1.24,1.24,0,0,1-1.51-.44c-.47-.76-.91-1.54-1.39-2.35L287,239a1.25,1.25,0,0,0,.51-2,1,1,0,0,0-.78-.24c-.31,0-.47.28-.46.65,0,1.21.05,2.43,0,3.65,0,.48.41.44.6.78a3.49,3.49,0,0,1-2.3-.09l.55-.31c0-1.33,0-2.74,0-4.15,0-.16-.24-.32-.41-.53.11-.08.23-.22.37-.25a5.61,5.61,0,0,1,2.64-.14c.75.2,1.21.65,1.23,1.28,0,.81-.29,1.25-1.19,1.55.43.7.82,1.37,1.24,2,.1.15.31.22.47.32l.21.18C289.56,241.77,289.51,241.87,289.43,241.91Zm19.69-.12c1-.38.67-1.12.7-1.72,0-.91,0-1.83,0-2.75,0-.28,0-.53-.38-.57a.27.27,0,0,1-.13-.2c0-.06.11-.17.16-.17.61,0,1.22,0,1.83,0,0,0,.06.08.14.18-.86.28-.53,1-.55,1.56,0,.81,0,1.62,0,2.43,0,.45-.16,1,.56,1.16A3.46,3.46,0,0,1,309.12,241.79Zm3.75-.13c-.54-.76-1-1.55-1.55-2.33-.21-.31,0-.54.17-.78.43-.53.84-1.08,1.3-1.68a1.72,1.72,0,0,1-.48-.13.34.34,0,0,1,0-.32,2.49,2.49,0,0,1,1.74.2c-1,.23-1.24,1.15-1.81,1.78a.52.52,0,0,0,0,.47c.44.72.9,1.44,1.39,2.13a5.7,5.7,0,0,0,.8.74A1.09,1.09,0,0,1,312.87,241.66Zm24.8.3c-1.05,0-2.11,0-3.17,0a2.47,2.47,0,0,1-.59-.18l.66-.33v-4.59l-.65-.33a2.46,2.46,0,0,1,.57-.17c1,0,2,0,3,0a.75.75,0,0,1,.59,1.08c-.59-.88-1.45-.43-2.24-.55v1.7c.32,0,.67,0,1,0,.1,0,.2.13.31.2-.11.07-.2.2-.31.2-.33,0-.66,0-1.05,0,0,.74,0,1.42,0,2.1,0,.12.23.3.36.32a4.09,4.09,0,0,0,1.26,0,3.59,3.59,0,0,0,.89-.55C338.43,241.24,338.06,242,337.67,242Zm24.9-4.42a1.27,1.27,0,0,0-1.63-.56v.86c0,.91,0,1.83,0,2.75,0,.46-.19,1,.73,1-.69.5-2.14.46-2.46,0,.64,0,.56-.46.55-.87V237a1.31,1.31,0,0,0-1.63.58c-.22-.51.15-1.19.58-1.2H362C362.44,236.36,362.8,237.08,362.57,237.54Z"></path>
  <path class="cls-2" d="M262.88,239.71l-.68-2.16-.65,2.16Z"></path>
  <rect class="cls-6" x="103.2" y="424.43" width="73.6" height="50.91"></rect>
  <rect class="cls-6" x="103.2" y="424.43" width="73.6" height="12.28"></rect>
  <rect class="cls-6" x="165.28" y="414.53" width="41.7" height="60.8"></rect>
  <rect class="cls-6" x="173.88" y="422.52" width="24.5" height="44.83"></rect>
  <rect class="cls-9" x="190.18" y="327.8" width="8.2" height="9.8"></rect>
  <line class="cls-9" x1="194.28" y1="327.8" x2="194.28" y2="280"></line>
  <path class="cls-12" d="M182.5,337.6h23.56a7.85,7.85,0,0,1,7.85,7.85v0a0,0,0,0,1,0,0H174.64a0,0,0,0,1,0,0v0A7.85,7.85,0,0,1,182.5,337.6Z"></path>
  <rect class="cls-9" x="405.52" y="327.8" width="8.2" height="9.8"></rect>
  <line class="cls-9" x1="409.62" y1="327.8" x2="409.62" y2="280"></line>
  <path class="cls-12" d="M397.84,337.6H421.4a7.85,7.85,0,0,1,7.85,7.85v0a0,0,0,0,1,0,0H390a0,0,0,0,1,0,0v0A7.85,7.85,0,0,1,397.84,337.6Z"></path>
  <line class="cls-13" x1="287.62" y1="345.86" x2="287.62" y2="409.47"></line>
  <line class="cls-13" x1="309.12" y1="345.86" x2="309.12" y2="409.47"></line>
  <rect class="cls-14" x="230.6" y="280" width="67.61" height="195.34"></rect>
  <rect class="cls-14" x="298.36" y="280" width="67.78" height="195.34"></rect>
</svg>
