<?xml version="1.0" encoding="UTF-8"?>
<svg xmlns="http://www.w3.org/2000/svg" xmlns:xlink="http://www.w3.org/1999/xlink" viewBox="0 0 600 600">
  <clipPath id="a">
    <path d="m118.69 132.96h362.64v16.18h-362.64z"></path>
  </clipPath>
  <clipPath id="b">
    <path d="m453.2 115.31h29.22v27h-29.22z"></path>
  </clipPath>
  <clipPath id="c">
    <path d="m453.2 142.31h29.22v27h-29.22z"></path>
  </clipPath>
  <clipPath id="d">
    <path d="m423.98 115.31h29.22v27h-29.22z"></path>
  </clipPath>
  <clipPath id="e">
    <path d="m423.98 142.31h29.22v27h-29.22z"></path>
  </clipPath>
  <clipPath id="f">
    <path d="m394.76 115.31h29.22v27h-29.22z"></path>
  </clipPath>
  <clipPath id="g">
    <path d="m394.76 142.31h29.22v27h-29.22z"></path>
  </clipPath>
  <clipPath id="h">
    <path d="m365.53 115.31h29.22v27h-29.22z"></path>
  </clipPath>
  <clipPath id="i">
    <path d="m365.53 142.31h29.22v27h-29.22z"></path>
  </clipPath>
  <clipPath id="j">
    <path d="m336.31 115.31h29.22v27h-29.22z"></path>
  </clipPath>
  <clipPath id="k">
    <path d="m336.31 142.31h29.22v27h-29.22z"></path>
  </clipPath>
  <clipPath id="l">
    <path d="m307.09 115.31h29.22v27h-29.22z"></path>
  </clipPath>
  <clipPath id="m">
    <path d="m307.09 142.31h29.22v27h-29.22z"></path>
  </clipPath>
  <clipPath id="n">
    <path d="m277.87 115.31h29.22v27h-29.22z"></path>
  </clipPath>
  <clipPath id="o">
    <path d="m277.87 142.31h29.22v27h-29.22z"></path>
  </clipPath>
  <clipPath id="p">
    <path d="m248.64 115.31h29.22v27h-29.22z"></path>
  </clipPath>
  <clipPath id="q">
    <path d="m248.64 142.31h29.22v27h-29.22z"></path>
  </clipPath>
  <clipPath id="r">
    <path d="m219.42 115.31h29.22v27h-29.22z"></path>
  </clipPath>
  <clipPath id="s">
    <path d="m219.42 142.31h29.22v27h-29.22z"></path>
  </clipPath>
  <clipPath id="t">
    <path d="m190.2 115.31h29.22v27h-29.22z"></path>
  </clipPath>
  <clipPath id="u">
    <path d="m190.2 142.31h29.22v27h-29.22z"></path>
  </clipPath>
  <clipPath id="v">
    <path d="m160.98 115.31h29.22v27h-29.22z"></path>
  </clipPath>
  <clipPath id="w">
    <path d="m160.98 142.31h29.22v27h-29.22z"></path>
  </clipPath>
  <clipPath id="x">
    <path d="m131.75 115.31h29.22v27h-29.22z"></path>
  </clipPath>
  <clipPath id="y">
    <path d="m131.75 142.31h29.22v27h-29.22z"></path>
  </clipPath>
  <clipPath id="z">
    <path d="m102.53 115.31h29.22v27h-29.22z"></path>
  </clipPath>
  <clipPath id="A">
    <path d="m102.53 142.31h29.22v27h-29.22z"></path>
  </clipPath>
  <path d="m109.61 270.58h380.78v221.39h-380.78z" fill="#fff"></path>
  <path d="m127 366.83v75.85h71.15v-75.85zm22.06 61.17h-16.12v-20.82h16.12zm0-33.69h-16.12v-20.82h16.12zm22.13 33.69h-16.11v-20.82h16.11zm0-33.69h-16.11v-20.82h16.11zm22.14 33.69h-16.11v-20.82h16.11zm0-33.69h-16.11v-20.82h16.11z" fill="#ffde00"></path>
  <path d="m208.84 366.86v75.86h73.16v-75.86zm22.09 61.14h-16.11v-20.82h16.11zm0-33.69h-16.11v-20.82h16.11zm22.14 33.69h-16.07v-20.82h16.12zm0-33.69h-16.07v-20.82h16.12zm22.14 33.69h-16.12v-20.82h16.12zm0-33.69h-16.12v-20.82h16.12z" fill="#ffde00"></path>
  <path d="m118.68 157.95h362.65v106.69h-362.65z" fill="#ffde00"></path>
  <path d="m381.75 276.71v21.71h-74.35v-21.71h-8.4v213.85h91.15v-213.85zm0 204.06h-74.35v-66.14h74.35zm0-88.27h-74.35v-85.5h74.35z" fill="#ffde00"></path>
  <path d="m405.3 427.95h70.76v14.77h-70.76z" fill="#ffde00"></path>
  <path d="m405.3 398.59h70.76v14.77h-70.76z" fill="#ffde00"></path>
  <path d="m405.3 369.24h70.76v14.77h-70.76z" fill="#ffde00"></path>
  <path d="m155.08 407.18h16.11v20.77h-16.11z" fill="#00ab81"></path>
  <path d="m132.94 373.49h16.11v20.77h-16.11z" fill="#00ab81"></path>
  <path d="m177.22 373.49h16.11v20.77h-16.11z" fill="#00ab81"></path>
  <path d="m118.68 132.96h362.65v15.99h-362.65z" fill="#00ab81"></path>
  <path d="m481.32 116.97h18.13v54.21h-18.13z" fill="#00ab81"></path>
  <path d="m100.55 116.97h18.13v54.21h-18.13z" fill="#00ab81"></path>
  <path d="m289.26 276.71h9.75v166.29h-9.75z" fill="#00ab81"></path>
  <path d="m390.17 276.71h9.75v166.29h-9.75z" fill="#00ab81"></path>
  <path d="m199.04 276.71h9.75v166.29h-9.75z" fill="#00ab81"></path>
  <path d="m293.88 89.26h12.26v362.64h-12.26z" fill="#00ab81" transform="matrix(0 -1 1 0 29.43 570.59)"></path>
  <path d="m295.5-27.87h9.01v362.64h-9.01z" fill="#00ab81" transform="matrix(0 -1 1 0 146.55 453.46)"></path>
  <path d="m405.3 413.27h70.76v14.77h-70.76z" fill="#00ab81"></path>
  <path d="m405.3 383.92h70.76v14.77h-70.76z" fill="#00ab81"></path>
  <path d="m236.95 407.18h16.11v20.77h-16.11z" fill="#00ab81"></path>
  <path d="m214.82 373.49h16.11v20.77h-16.11z" fill="#00ab81"></path>
  <path d="m259.09 373.49h16.11v20.77h-16.11z" fill="#00ab81"></path>
  <path d="m118.69 116.97h362.64v16.08h-362.64z" fill="#fb715d"></path>
  <path d="m100.55 171.19h18.13v319.37h-18.13z" fill="#fb715d"></path>
  <path d="m481.32 171.19h18.13v319.37h-18.13z" fill="#fb715d"></path>
  <path d="m118.68 443h180.33v47.56h-180.33z" fill="#fb715d"></path>
  <path d="m390.15 443h91.17v47.56h-91.17z" fill="#fb715d"></path>
  <g fill="#1c19a8">
    <path d="m198.15 444.09h-71.15a1.41 1.41 0 0 1 -1.41-1.41v-75.85a1.41 1.41 0 0 1 1.41-1.41h71.15a1.41 1.41 0 0 1 1.41 1.41v75.85a1.41 1.41 0 0 1 -1.41 1.41zm-69.75-2.82h68.34v-73h-68.34zm64.93-11.91h-16.11a1.41 1.41 0 0 1 -1.41-1.41v-20.77a1.41 1.41 0 0 1 1.41-1.4h16.11a1.41 1.41 0 0 1 1.41 1.4v20.82a1.41 1.41 0 0 1 -1.41 1.36zm-14.71-2.81h13.31v-18h-13.31zm-7.43 2.81h-16.11a1.41 1.41 0 0 1 -1.41-1.41v-20.77a1.41 1.41 0 0 1 1.41-1.4h16.11a1.41 1.41 0 0 1 1.41 1.4v20.82a1.41 1.41 0 0 1 -1.41 1.36zm-14.7-2.81h13.3v-18h-13.3zm-7.43 2.81h-16.12a1.41 1.41 0 0 1 -1.4-1.41v-20.77a1.4 1.4 0 0 1 1.4-1.4h16.12a1.4 1.4 0 0 1 1.4 1.4v20.82a1.41 1.41 0 0 1 -1.4 1.36zm-14.71-2.81h13.3v-18h-13.3zm59-30.88h-16.13a1.41 1.41 0 0 1 -1.41-1.41v-20.77a1.41 1.41 0 0 1 1.41-1.4h16.11a1.41 1.41 0 0 1 1.41 1.4v20.77a1.41 1.41 0 0 1 -1.41 1.41zm-14.71-2.82h13.31v-18h-13.33zm-7.43 2.82h-16.13a1.41 1.41 0 0 1 -1.41-1.41v-20.77a1.41 1.41 0 0 1 1.41-1.4h16.11a1.41 1.41 0 0 1 1.41 1.4v20.77a1.41 1.41 0 0 1 -1.41 1.41zm-14.7-2.82h13.3v-18h-13.3zm-7.43 2.82h-16.14a1.41 1.41 0 0 1 -1.4-1.41v-20.77a1.4 1.4 0 0 1 1.4-1.4h16.12a1.4 1.4 0 0 1 1.4 1.4v20.77a1.41 1.41 0 0 1 -1.4 1.41zm-14.71-2.82h13.3v-18h-13.3z"></path>
    <path d="m282 444.13h-73.16a1.41 1.41 0 0 1 -1.41-1.41v-75.86a1.41 1.41 0 0 1 1.41-1.4h73.16a1.4 1.4 0 0 1 1.4 1.4v75.86a1.41 1.41 0 0 1 -1.4 1.41zm-71.75-2.82h70.34v-73h-70.34zm65-11.95h-16.16a1.41 1.41 0 0 1 -1.4-1.41v-20.77a1.4 1.4 0 0 1 1.4-1.4h16.12a1.4 1.4 0 0 1 1.4 1.4v20.82a1.41 1.41 0 0 1 -1.4 1.36zm-14.71-2.81h13.3v-18h-13.34zm-7.43 2.81h-16.11a1.41 1.41 0 0 1 -1.4-1.41v-20.77a1.4 1.4 0 0 1 1.4-1.4h16.12a1.4 1.4 0 0 1 1.4 1.4v20.82a1.41 1.41 0 0 1 -1.45 1.36zm-14.71-2.81h13.3v-18h-13.3zm-7.43 2.81h-16.15a1.41 1.41 0 0 1 -1.41-1.41v-20.77a1.41 1.41 0 0 1 1.41-1.4h16.11a1.41 1.41 0 0 1 1.41 1.4v20.82a1.41 1.41 0 0 1 -1.41 1.36zm-14.71-2.81h13.3v-18h-13.3zm59-30.88h-16.17a1.41 1.41 0 0 1 -1.4-1.41v-20.77a1.4 1.4 0 0 1 1.4-1.4h16.12a1.4 1.4 0 0 1 1.4 1.4v20.77a1.41 1.41 0 0 1 -1.4 1.41zm-14.71-2.82h13.3v-18h-13.35zm-7.43 2.82h-16.12a1.41 1.41 0 0 1 -1.4-1.41v-20.77a1.4 1.4 0 0 1 1.4-1.4h16.12a1.4 1.4 0 0 1 1.4 1.4v20.77a1.41 1.41 0 0 1 -1.45 1.41zm-14.71-2.82h13.3v-18h-13.3zm-7.43 2.82h-16.16a1.41 1.41 0 0 1 -1.41-1.41v-20.77a1.41 1.41 0 0 1 1.41-1.4h16.11a1.41 1.41 0 0 1 1.41 1.4v20.77a1.41 1.41 0 0 1 -1.41 1.41zm-14.71-2.82h13.3v-18h-13.3z"></path>
    <path d="m132.94 407.18h16.11v20.77h-16.11z"></path>
    <path d="m149.06 429.36h-16.12a1.41 1.41 0 0 1 -1.4-1.41v-20.77a1.4 1.4 0 0 1 1.4-1.4h16.12a1.4 1.4 0 0 1 1.4 1.4v20.82a1.41 1.41 0 0 1 -1.4 1.36zm-14.71-2.81h13.3v-18h-13.3z"></path>
    <path d="m171.19 429.36h-16.11a1.41 1.41 0 0 1 -1.41-1.41v-20.77a1.41 1.41 0 0 1 1.41-1.4h16.11a1.41 1.41 0 0 1 1.41 1.4v20.82a1.41 1.41 0 0 1 -1.41 1.36zm-14.7-2.81h13.3v-18h-13.3z"></path>
    <path d="m177.22 407.18h16.11v20.77h-16.11z"></path>
    <path d="m193.33 429.36h-16.11a1.41 1.41 0 0 1 -1.41-1.41v-20.77a1.41 1.41 0 0 1 1.41-1.4h16.11a1.41 1.41 0 0 1 1.41 1.4v20.82a1.41 1.41 0 0 1 -1.41 1.36zm-14.71-2.81h13.31v-18h-13.31z"></path>
    <path d="m149.06 395.67h-16.12a1.41 1.41 0 0 1 -1.4-1.41v-20.77a1.4 1.4 0 0 1 1.4-1.4h16.12a1.4 1.4 0 0 1 1.4 1.4v20.77a1.41 1.41 0 0 1 -1.4 1.41zm-14.71-2.82h13.3v-18h-13.3z"></path>
    <path d="m155.08 373.49h16.11v20.77h-16.11z"></path>
    <path d="m171.19 395.67h-16.11a1.41 1.41 0 0 1 -1.41-1.41v-20.77a1.41 1.41 0 0 1 1.41-1.4h16.11a1.41 1.41 0 0 1 1.41 1.4v20.77a1.41 1.41 0 0 1 -1.41 1.41zm-14.7-2.82h13.3v-18h-13.3z"></path>
    <path d="m193.33 395.67h-16.11a1.41 1.41 0 0 1 -1.41-1.41v-20.77a1.41 1.41 0 0 1 1.41-1.4h16.11a1.41 1.41 0 0 1 1.41 1.4v20.77a1.41 1.41 0 0 1 -1.41 1.41zm-14.71-2.82h13.31v-18h-13.31z"></path>
    <path d="m481.32 266.05h-362.64a1.41 1.41 0 0 1 -1.41-1.4v-106.65a1.41 1.41 0 0 1 1.41-1.4h362.64a1.41 1.41 0 0 1 1.41 1.4v106.7a1.41 1.41 0 0 1 -1.41 1.35zm-361.24-2.81h359.84v-103.88h-359.84z"></path>
    <path d="m390.15 492h-91.15a1.41 1.41 0 0 1 -1.4-1.41v-213.88a1.41 1.41 0 0 1 1.4-1.41h8.4a1.41 1.41 0 0 1 1.41 1.41v20.29h71.54v-20.29a1.41 1.41 0 0 1 1.4-1.41h8.4a1.41 1.41 0 0 1 1.41 1.41v213.85a1.41 1.41 0 0 1 -1.41 1.44zm-89.74-2.81h88.34v-211h-5.59v20.31a1.41 1.41 0 0 1 -1.41 1.41h-74.35a1.41 1.41 0 0 1 -1.41-1.41v-20.39h-5.58zm81.34-7h-74.35a1.41 1.41 0 0 1 -1.41-1.41v-66.15a1.41 1.41 0 0 1 1.41-1.41h74.35a1.41 1.41 0 0 1 1.41 1.41v66.14a1.41 1.41 0 0 1 -1.41 1.41zm-72.94-2.82h71.54v-63.37h-71.54zm72.94-85.45h-74.35a1.41 1.41 0 0 1 -1.4-1.42v-85.5a1.41 1.41 0 0 1 1.41-1.41h74.35a1.41 1.41 0 0 1 1.41 1.41v85.5a1.41 1.41 0 0 1 -1.42 1.41zm-72.94-2.81h71.54v-82.72h-71.54z"></path>
    <path d="m481.32 134.46h-362.63a1.41 1.41 0 0 1 -1.41-1.4v-16.06a1.41 1.41 0 0 1 1.41-1.41h362.63a1.41 1.41 0 0 1 1.41 1.41v16.08a1.41 1.41 0 0 1 -1.41 1.38zm-361.23-2.81h359.83v-13.27h-359.83z"></path>
    <path d="m481.32 150.35h-362.64a1.41 1.41 0 0 1 -1.41-1.4v-15.95a1.41 1.41 0 0 1 1.41-1.4h362.64a1.41 1.41 0 0 1 1.41 1.4v16a1.41 1.41 0 0 1 -1.41 1.35zm-361.24-2.81h359.84v-13.17h-359.84z"></path>
    <path d="m118.68 492h-18.13a1.41 1.41 0 0 1 -1.41-1.41v-319.4a1.41 1.41 0 0 1 1.41-1.41h18.13a1.41 1.41 0 0 1 1.4 1.41v319.37a1.41 1.41 0 0 1 -1.4 1.44zm-16.68-2.84h15.32v-316.56h-15.32z"></path>
    <path d="m499.45 492h-18.13a1.41 1.41 0 0 1 -1.4-1.41v-319.4a1.41 1.41 0 0 1 1.4-1.41h18.13a1.41 1.41 0 0 1 1.41 1.41v319.37a1.41 1.41 0 0 1 -1.41 1.44zm-16.72-2.81h15.32v-316.59h-15.32z"></path>
    <path d="m499.45 172.6h-18.13a1.41 1.41 0 0 1 -1.4-1.41v-54.19a1.41 1.41 0 0 1 1.4-1.41h18.13a1.41 1.41 0 0 1 1.41 1.41v54.21a1.41 1.41 0 0 1 -1.41 1.39zm-16.72-2.82h15.32v-51.4h-15.32z"></path>
    <path d="m118.68 172.6h-18.13a1.41 1.41 0 0 1 -1.41-1.41v-54.19a1.41 1.41 0 0 1 1.41-1.41h18.13a1.41 1.41 0 0 1 1.4 1.41v54.21a1.41 1.41 0 0 1 -1.4 1.39zm-16.68-2.82h15.32v-51.4h-15.32z"></path>
    <path d="m299 492h-180.32a1.41 1.41 0 0 1 -1.41-1.41v-47.59a1.41 1.41 0 0 1 1.41-1.41h180.32a1.41 1.41 0 0 1 1.41 1.41v47.56a1.41 1.41 0 0 1 -1.41 1.44zm-178.92-2.81h177.52v-44.78h-177.52z"></path>
    <path d="m481.32 492h-91.17a1.41 1.41 0 0 1 -1.4-1.41v-47.59a1.41 1.41 0 0 1 1.4-1.41h91.17a1.41 1.41 0 0 1 1.41 1.41v47.56a1.41 1.41 0 0 1 -1.41 1.44zm-89.76-2.81h88.36v-44.78h-88.36z"></path>
    <path d="m299 492h-180.32a1.41 1.41 0 0 1 -1.41-1.41v-47.59a1.41 1.41 0 0 1 1.41-1.41h180.32a1.41 1.41 0 0 1 1.41 1.41v47.56a1.41 1.41 0 0 1 -1.41 1.44zm-178.92-2.81h177.52v-44.78h-177.52z"></path>
    <path d="m481.32 492h-91.17a1.41 1.41 0 0 1 -1.4-1.41v-47.59a1.41 1.41 0 0 1 1.4-1.41h91.17a1.41 1.41 0 0 1 1.41 1.41v47.56a1.41 1.41 0 0 1 -1.41 1.44zm-89.76-2.81h88.36v-44.78h-88.36z"></path>
    <path d="m299 444.41h-9.75a1.41 1.41 0 0 1 -1.4-1.41v-166.29a1.41 1.41 0 0 1 1.4-1.41h9.75a1.41 1.41 0 0 1 1.41 1.41v166.29a1.41 1.41 0 0 1 -1.41 1.41zm-8.34-2.82h6.94v-163.48h-6.94z"></path>
    <path d="m399.92 444.41h-9.75a1.41 1.41 0 0 1 -1.4-1.41v-166.29a1.41 1.41 0 0 1 1.4-1.41h9.75a1.41 1.41 0 0 1 1.41 1.41v166.29a1.41 1.41 0 0 1 -1.41 1.41zm-8.34-2.82h6.93v-163.48h-6.93z"></path>
    <path d="m208.79 444.41h-9.79a1.41 1.41 0 0 1 -1.41-1.41v-166.29a1.41 1.41 0 0 1 1.41-1.41h9.75a1.41 1.41 0 0 1 1.4 1.41v166.29a1.41 1.41 0 0 1 -1.36 1.41zm-8.34-2.82h6.93v-163.48h-6.93z"></path>
    <path d="m481.32 278.11h-362.63a1.41 1.41 0 0 1 -1.41-1.4v-12.26a1.41 1.41 0 0 1 1.41-1.4h362.63a1.41 1.41 0 0 1 1.41 1.4v12.26a1.41 1.41 0 0 1 -1.41 1.4zm-361.23-2.81h359.83v-9.44h-359.83z"></path>
    <path d="m481.32 159.36h-362.63a1.41 1.41 0 0 1 -1.41-1.41v-9a1.41 1.41 0 0 1 1.41-1.41h362.63a1.41 1.41 0 0 1 1.41 1.41v9a1.41 1.41 0 0 1 -1.41 1.41zm-361.23-2.81h359.83v-6.2h-359.83z"></path>
    <path d="m312 408.59a4.77 4.77 0 1 1 4.77-4.77 4.77 4.77 0 0 1 -4.77 4.77zm0-6.72a2 2 0 1 0 2 1.95 2 2 0 0 0 -2-1.95z"></path>
    <path d="m127 433.01h72.04v2.81h-72.04z"></path>
    <path d="m208.79 433.01h72.02v2.81h-72.02z"></path>
    <path d="m127 399.31h72.04v2.81h-72.04z"></path>
    <path d="m208.79 399.31h72.02v2.81h-72.02z"></path>
    <path d="m476.06 444.13h-70.76a1.41 1.41 0 0 1 -1.4-1.41v-14.72a1.4 1.4 0 0 1 1.4-1.4h70.76a1.41 1.41 0 0 1 1.41 1.4v14.77a1.41 1.41 0 0 1 -1.41 1.36zm-69.35-2.82h68v-11.95h-68z"></path>
    <path d="m476.06 429.45h-70.76a1.41 1.41 0 0 1 -1.4-1.41v-14.77a1.4 1.4 0 0 1 1.4-1.4h70.76a1.41 1.41 0 0 1 1.41 1.4v14.73a1.41 1.41 0 0 1 -1.41 1.45zm-69.35-2.82h68v-11.95h-68z"></path>
    <path d="m476.06 414.77h-70.76a1.41 1.41 0 0 1 -1.4-1.41v-14.76a1.41 1.41 0 0 1 1.4-1.41h70.76a1.41 1.41 0 0 1 1.41 1.41v14.76a1.41 1.41 0 0 1 -1.41 1.41zm-69.35-2.77h68v-12h-68z"></path>
    <path d="m476.06 400.09h-70.76a1.41 1.41 0 0 1 -1.4-1.41v-14.76a1.41 1.41 0 0 1 1.4-1.41h70.76a1.41 1.41 0 0 1 1.41 1.41v14.76a1.41 1.41 0 0 1 -1.41 1.41zm-69.35-2.81h68v-12h-68z"></path>
    <path d="m476.06 385.41h-70.76a1.41 1.41 0 0 1 -1.4-1.41v-14.76a1.41 1.41 0 0 1 1.4-1.41h70.76a1.41 1.41 0 0 1 1.41 1.41v14.76a1.41 1.41 0 0 1 -1.41 1.41zm-69.35-2.81h68v-12h-68z"></path>
    <path d="m158.49 177.47h8.2q6.47 0 9.79 2.71a9.09 9.09 0 0 1 3.33 7.47q0 5.7-5.67 8.77 9.11 2 9.11 10a9.23 9.23 0 0 1 -3.57 7.63q-3.57 2.83-9.66 2.83h-11.53zm3 2.54v15.71h4.23q10.76 0 10.75-7.84t-10.82-7.88zm0 18.27v16.05h8.15c3.37 0 5.93-.73 7.67-2.17a7.17 7.17 0 0 0 2.63-5.81q0-8.07-11.62-8.07z"></path>
    <path d="m218.13 177.47h3v21.53q0 8.82-4.59 13.62a17.2 17.2 0 0 1 -23.77 0q-4.6-4.73-4.6-13v-22.15h3.07v22.08q0 7 3.74 11a13.74 13.74 0 0 0 19.37-.05q3.74-4 3.74-11.4z"></path>
    <path d="m247.4 195.77 15-18.3h3.08v39.39h-3.07v-34.93l-15 18.41-15-18.41v34.93h-3.05v-39.39h3.05z"></path>
    <path d="m274.55 177.47h8.21q6.45 0 9.78 2.71a9.09 9.09 0 0 1 3.33 7.47q0 5.7-5.67 8.77 9.1 2 9.11 10a9.23 9.23 0 0 1 -3.57 7.63q-3.57 2.83-9.66 2.83h-11.53zm3.05 2.53v15.71h4.23q10.74 0 10.74-7.84t-10.86-7.87zm0 18.27v16.05h8.15c3.36 0 5.92-.73 7.67-2.17a7.19 7.19 0 0 0 2.62-5.81q0-8.07-11.62-8.07z"></path>
    <path d="m308.19 177.47v36.86h19.49v2.53h-22.53v-39.39z"></path>
    <path d="m353.79 177.47v2.53h-18.44v15.76h18v2.57h-18v16h18.89v2.53h-21.94v-39.39z"></path>
    <path d="m360.61 177.47h8.21q6.45 0 9.78 2.71a9.09 9.09 0 0 1 3.33 7.47q0 5.7-5.67 8.77 9.11 2 9.11 10a9.23 9.23 0 0 1 -3.57 7.58q-3.57 2.83-9.66 2.83h-11.53zm3.05 2.54v15.71h4.23q10.74 0 10.74-7.84t-10.86-7.88zm0 18.27v16.05h8.15c3.36 0 5.92-.73 7.67-2.17a7.19 7.19 0 0 0 2.62-5.81q0-8.07-11.62-8.07z"></path>
    <path d="m412.75 177.47v2.53h-18.44v15.76h18v2.57h-18v16h18.89v2.53h-21.94v-39.39z"></path>
    <path d="m441.06 177.47v2.53h-18.44v15.76h18v2.57h-18v16h18.89v2.53h-21.94v-39.39z"></path>
    <path d="m229.29 233.51v2.25h.05a4.91 4.91 0 0 1 4.26-2.5 4.52 4.52 0 0 1 3.49 1.41 5.44 5.44 0 0 1 1.31 3.89v7.87h-1.4v-7.35q0-4.47-3.51-4.47-2.56 0-4.22 2.77v9.05h-1.38v-12.92z"></path>
    <path d="m252.33 244.19v1.15a5.44 5.44 0 0 1 -2.61 1.35.7.7 0 0 1 -.66-.32 3.69 3.69 0 0 1 -.27-1.28 6.59 6.59 0 0 1 -4 1.6 3.43 3.43 0 0 1 -2.47-1 3.07 3.07 0 0 1 -1-2.32 3.75 3.75 0 0 1 2-3.32 11.72 11.72 0 0 1 5.57-1.39v-1.65c0-1.76-.95-2.64-2.86-2.64a6.59 6.59 0 0 0 -4 1.65v-1.42a7.87 7.87 0 0 1 4.17-1.38 4.6 4.6 0 0 1 2.89.87 2.94 2.94 0 0 1 1.14 2.5v8.05c0 .44.1.66.31.66a5.12 5.12 0 0 0 1.79-1.11zm-3.54-.31v-4a7.87 7.87 0 0 0 -4.4.93 3 3 0 0 0 -1.75 2.63 1.91 1.91 0 0 0 .73 1.52 2.76 2.76 0 0 0 1.83.62 5.42 5.42 0 0 0 3.59-1.7z"></path>
    <path d="m263.39 246.43v-2.13h-.05a6.17 6.17 0 0 1 -1.85 1.84 4.8 4.8 0 0 1 -2.41.55 4.7 4.7 0 0 1 -3.44-1.35 5.17 5.17 0 0 1 -1.36-3.82v-8h1.38v8a3.92 3.92 0 0 0 1 2.82 3.38 3.38 0 0 0 2.56 1 4.13 4.13 0 0 0 2.29-.62 6.78 6.78 0 0 0 1.9-2.13v-9.08h1.38v12.92z"></path>
    <path d="m270.91 229.23v4.28h3.62v1.13h-3.62v7.68a6.25 6.25 0 0 0 .3 2.43c.2.39.74.59 1.62.59a5.75 5.75 0 0 0 2.36-.63v1.29a6.11 6.11 0 0 1 -2.67.66 3.2 3.2 0 0 1 -2.13-.73 2.54 2.54 0 0 1 -.86-2v-9.29h-3.48v-1.13h3.48v-3.07l.94-1.21z"></path>
    <path d="m286 234.79-.8 1.29a4.52 4.52 0 0 0 -2.6-1.47q-1.94 0-4.14 3.71v8.11h-1.38v-12.92h1.38v3.4h.06q2.31-3.65 4.52-3.65a4.81 4.81 0 0 1 2.96 1.53z"></path>
    <path d="m297.67 244.19v1.15a5.44 5.44 0 0 1 -2.61 1.35.7.7 0 0 1 -.66-.32 3.69 3.69 0 0 1 -.27-1.28 6.61 6.61 0 0 1 -4 1.6 3.43 3.43 0 0 1 -2.47-1 3.07 3.07 0 0 1 -1-2.32 3.73 3.73 0 0 1 2-3.32 11.72 11.72 0 0 1 5.57-1.39v-1.65c0-1.76-.95-2.64-2.86-2.64a6.59 6.59 0 0 0 -3.95 1.65v-1.42a7.87 7.87 0 0 1 4.17-1.38 4.62 4.62 0 0 1 2.89.87 2.94 2.94 0 0 1 1.14 2.5v8.05c0 .44.1.66.31.66a5.21 5.21 0 0 0 1.74-1.11zm-3.54-.31v-4a7.87 7.87 0 0 0 -4.4.93 3 3 0 0 0 -1.75 2.63 1.91 1.91 0 0 0 .73 1.52 2.76 2.76 0 0 0 1.83.62 5.42 5.42 0 0 0 3.59-1.7z"></path>
    <path d="m301.24 226.82v19.61h-1.4v-19.61z"></path>
    <path d="m320.78 227.11v1.29a7.47 7.47 0 0 0 -2.33-.49c-2.09 0-3.13 1.34-3.13 4v1.6h2.5v1.13h-2.5v11.79h-1.38v-11.79h-2.38v-1.13h2.38v-2.12a4.81 4.81 0 0 1 1.3-3.53 4.36 4.36 0 0 1 3.18-1.3 6.47 6.47 0 0 1 2.36.55z"></path>
    <path d="m325.65 233.26a6.25 6.25 0 0 1 4.69 1.93 7.07 7.07 0 0 1 0 9.58 6.69 6.69 0 0 1 -9.38 0 7 7 0 0 1 0-9.58 6.27 6.27 0 0 1 4.69-1.93zm0 12.08a4.82 4.82 0 0 0 3.64-1.53 5.74 5.74 0 0 0 0-7.66 5.08 5.08 0 0 0 -7.28 0 5.33 5.33 0 0 0 -1.47 3.85 5.27 5.27 0 0 0 1.47 3.82 4.83 4.83 0 0 0 3.64 1.52z"></path>
    <path d="m341.24 233.26a6.25 6.25 0 0 1 4.68 1.93 7 7 0 0 1 0 9.58 6.69 6.69 0 0 1 -9.38 0 7 7 0 0 1 0-9.58 6.31 6.31 0 0 1 4.7-1.93zm0 12.08a4.84 4.84 0 0 0 3.64-1.53 5.74 5.74 0 0 0 0-7.66 5.1 5.1 0 0 0 -7.29 0 5.33 5.33 0 0 0 -1.47 3.85 5.27 5.27 0 0 0 1.47 3.82 4.87 4.87 0 0 0 3.65 1.52z"></path>
    <path d="m362 226.82v19.61h-1.39v-1a6.46 6.46 0 0 1 -3.82 1.27 6.22 6.22 0 0 1 -4.64-1.95 7 7 0 0 1 0-9.57 6.27 6.27 0 0 1 4.67-1.91 8.49 8.49 0 0 1 3.82 1v-7.48zm-1.39 17.34v-8.34a6.8 6.8 0 0 0 -3.76-1.21 4.91 4.91 0 0 0 -3.68 1.48 5.18 5.18 0 0 0 -1.45 3.79 5.32 5.32 0 0 0 1.55 3.9 5.2 5.2 0 0 0 3.86 1.56 6 6 0 0 0 3.43-1.18z"></path>
    <path d="m372.58 234.36v1.49a6.55 6.55 0 0 0 -3.54-1.32 3.1 3.1 0 0 0 -2 .63 1.91 1.91 0 0 0 -.8 1.55 1.82 1.82 0 0 0 .49 1.21 8 8 0 0 0 2.68 1.4 6.54 6.54 0 0 1 2.87 1.76 3.36 3.36 0 0 1 .68 2 3.19 3.19 0 0 1 -1.22 2.53 4.54 4.54 0 0 1 -3 1 7.39 7.39 0 0 1 -3.88-1.18v-1.35a9.18 9.18 0 0 0 4.06 1.18 3 3 0 0 0 2-.63 2 2 0 0 0 .76-1.62 1.81 1.81 0 0 0 -.5-1.24 8.15 8.15 0 0 0 -2.69-1.44 6.81 6.81 0 0 1 -2.85-1.72 3 3 0 0 1 -.66-1.89 3.19 3.19 0 0 1 1.22-2.51 4.44 4.44 0 0 1 2.95-1 7 7 0 0 1 3.43 1.15z"></path>
    <path d="m214.82 407.18h16.11v20.77h-16.11z"></path>
    <path d="m230.93 429.36h-16.11a1.41 1.41 0 0 1 -1.41-1.41v-20.77a1.41 1.41 0 0 1 1.41-1.4h16.11a1.41 1.41 0 0 1 1.41 1.4v20.82a1.41 1.41 0 0 1 -1.41 1.36zm-14.71-2.81h13.3v-18h-13.3z"></path>
    <path d="m253.07 429.36h-16.07a1.41 1.41 0 0 1 -1.4-1.41v-20.77a1.4 1.4 0 0 1 1.4-1.4h16.12a1.4 1.4 0 0 1 1.4 1.4v20.82a1.41 1.41 0 0 1 -1.45 1.36zm-14.71-2.81h13.3v-18h-13.3z"></path>
    <path d="m259.09 407.18h16.11v20.77h-16.11z"></path>
    <path d="m275.21 429.36h-16.12a1.41 1.41 0 0 1 -1.4-1.41v-20.77a1.4 1.4 0 0 1 1.4-1.4h16.12a1.4 1.4 0 0 1 1.4 1.4v20.82a1.41 1.41 0 0 1 -1.4 1.36zm-14.71-2.81h13.3v-18h-13.3z"></path>
    <path d="m230.93 395.67h-16.11a1.41 1.41 0 0 1 -1.41-1.41v-20.77a1.41 1.41 0 0 1 1.41-1.4h16.11a1.41 1.41 0 0 1 1.41 1.4v20.77a1.41 1.41 0 0 1 -1.41 1.41zm-14.71-2.82h13.3v-18h-13.3z"></path>
    <path d="m236.95 373.49h16.11v20.77h-16.11z"></path>
    <path d="m253.07 395.67h-16.07a1.41 1.41 0 0 1 -1.4-1.41v-20.77a1.4 1.4 0 0 1 1.4-1.4h16.12a1.4 1.4 0 0 1 1.4 1.4v20.77a1.41 1.41 0 0 1 -1.45 1.41zm-14.71-2.82h13.3v-18h-13.3z"></path>
    <path d="m275.21 395.67h-16.12a1.41 1.41 0 0 1 -1.4-1.41v-20.77a1.4 1.4 0 0 1 1.4-1.4h16.12a1.4 1.4 0 0 1 1.4 1.4v20.77a1.41 1.41 0 0 1 -1.4 1.41zm-14.71-2.82h13.3v-18h-13.3z"></path>
    <g clip-path="url(#a)">
      <g clip-path="url(#b)">
        <path d="m482.42 143.66a1.35 1.35 0 1 0 -1.46-1.35 1.41 1.41 0 0 0 1.46 1.35z"></path>
        <path d="m467.81 143.66a1.35 1.35 0 1 0 -1.46-1.35 1.4 1.4 0 0 0 1.46 1.35z"></path>
        <path d="m482.42 130.16a1.35 1.35 0 1 0 -1.46-1.35 1.41 1.41 0 0 0 1.46 1.35z"></path>
        <path d="m467.81 130.16a1.35 1.35 0 1 0 -1.46-1.35 1.4 1.4 0 0 0 1.46 1.35z"></path>
        <path d="m460.51 136.91a1.35 1.35 0 1 0 -1.46-1.35 1.41 1.41 0 0 0 1.46 1.35z"></path>
        <path d="m475.12 136.91a1.35 1.35 0 1 0 -1.46-1.35 1.4 1.4 0 0 0 1.46 1.35z"></path>
        <path d="m460.51 123.41a1.35 1.35 0 1 0 -1.46-1.35 1.41 1.41 0 0 0 1.46 1.35z"></path>
        <path d="m475.12 123.41a1.35 1.35 0 1 0 -1.46-1.35 1.4 1.4 0 0 0 1.46 1.35z"></path>
        <path d="m453.2 143.66a1.35 1.35 0 1 0 -1.46-1.35 1.4 1.4 0 0 0 1.46 1.35z"></path>
        <path d="m453.2 130.16a1.35 1.35 0 1 0 -1.46-1.35 1.4 1.4 0 0 0 1.46 1.35z"></path>
        <path d="m482.42 116.66a1.35 1.35 0 1 0 -1.46-1.35 1.41 1.41 0 0 0 1.46 1.35z"></path>
        <path d="m467.81 116.66a1.35 1.35 0 1 0 -1.46-1.35 1.4 1.4 0 0 0 1.46 1.35z"></path>
        <path d="m453.2 116.66a1.35 1.35 0 1 0 -1.46-1.35 1.4 1.4 0 0 0 1.46 1.35z"></path>
      </g>
      <g clip-path="url(#c)">
        <path d="m482.42 170.66a1.35 1.35 0 1 0 -1.46-1.35 1.41 1.41 0 0 0 1.46 1.35z"></path>
        <path d="m467.81 170.66a1.35 1.35 0 1 0 -1.46-1.35 1.4 1.4 0 0 0 1.46 1.35z"></path>
        <path d="m482.42 157.16a1.35 1.35 0 1 0 -1.46-1.35 1.41 1.41 0 0 0 1.46 1.35z"></path>
        <path d="m467.81 157.16a1.35 1.35 0 1 0 -1.46-1.35 1.4 1.4 0 0 0 1.46 1.35z"></path>
        <path d="m460.51 163.91a1.35 1.35 0 1 0 -1.46-1.35 1.41 1.41 0 0 0 1.46 1.35z"></path>
        <path d="m475.12 163.91a1.35 1.35 0 1 0 -1.46-1.35 1.4 1.4 0 0 0 1.46 1.35z"></path>
        <path d="m460.51 150.41a1.35 1.35 0 1 0 -1.46-1.35 1.41 1.41 0 0 0 1.46 1.35z"></path>
        <path d="m475.12 150.41a1.35 1.35 0 1 0 -1.46-1.35 1.4 1.4 0 0 0 1.46 1.35z"></path>
        <path d="m453.2 170.66a1.35 1.35 0 1 0 -1.46-1.35 1.4 1.4 0 0 0 1.46 1.35z"></path>
        <path d="m453.2 157.16a1.35 1.35 0 1 0 -1.46-1.35 1.4 1.4 0 0 0 1.46 1.35z"></path>
        <path d="m482.42 143.66a1.35 1.35 0 1 0 -1.46-1.35 1.41 1.41 0 0 0 1.46 1.35z"></path>
        <path d="m467.81 143.66a1.35 1.35 0 1 0 -1.46-1.35 1.4 1.4 0 0 0 1.46 1.35z"></path>
        <path d="m453.2 143.66a1.35 1.35 0 1 0 -1.46-1.35 1.4 1.4 0 0 0 1.46 1.35z"></path>
      </g>
      <g clip-path="url(#d)">
        <path d="m453.2 143.66a1.35 1.35 0 1 0 -1.46-1.35 1.4 1.4 0 0 0 1.46 1.35z"></path>
        <path d="m438.59 143.66a1.35 1.35 0 1 0 -1.46-1.35 1.4 1.4 0 0 0 1.46 1.35z"></path>
        <path d="m453.2 130.16a1.35 1.35 0 1 0 -1.46-1.35 1.4 1.4 0 0 0 1.46 1.35z"></path>
        <path d="m438.59 130.16a1.35 1.35 0 1 0 -1.46-1.35 1.4 1.4 0 0 0 1.46 1.35z"></path>
        <path d="m431.28 136.91a1.35 1.35 0 1 0 -1.46-1.35 1.41 1.41 0 0 0 1.46 1.35z"></path>
        <path d="m445.9 136.91a1.35 1.35 0 1 0 -1.47-1.35 1.41 1.41 0 0 0 1.47 1.35z"></path>
        <path d="m431.28 123.41a1.35 1.35 0 1 0 -1.46-1.35 1.41 1.41 0 0 0 1.46 1.35z"></path>
        <path d="m445.9 123.41a1.35 1.35 0 1 0 -1.47-1.35 1.41 1.41 0 0 0 1.47 1.35z"></path>
        <path d="m424 143.66a1.35 1.35 0 1 0 -1.46-1.35 1.4 1.4 0 0 0 1.46 1.35z"></path>
        <path d="m424 130.16a1.35 1.35 0 1 0 -1.46-1.35 1.4 1.4 0 0 0 1.46 1.35z"></path>
        <path d="m453.2 116.66a1.35 1.35 0 1 0 -1.46-1.35 1.4 1.4 0 0 0 1.46 1.35z"></path>
        <path d="m438.59 116.66a1.35 1.35 0 1 0 -1.46-1.35 1.4 1.4 0 0 0 1.46 1.35z"></path>
        <path d="m424 116.66a1.35 1.35 0 1 0 -1.46-1.35 1.4 1.4 0 0 0 1.46 1.35z"></path>
      </g>
      <g clip-path="url(#e)">
        <path d="m453.2 170.66a1.35 1.35 0 1 0 -1.46-1.35 1.4 1.4 0 0 0 1.46 1.35z"></path>
        <path d="m438.59 170.66a1.35 1.35 0 1 0 -1.46-1.35 1.4 1.4 0 0 0 1.46 1.35z"></path>
        <path d="m453.2 157.16a1.35 1.35 0 1 0 -1.46-1.35 1.4 1.4 0 0 0 1.46 1.35z"></path>
        <path d="m438.59 157.16a1.35 1.35 0 1 0 -1.46-1.35 1.4 1.4 0 0 0 1.46 1.35z"></path>
        <path d="m431.28 163.91a1.35 1.35 0 1 0 -1.46-1.35 1.41 1.41 0 0 0 1.46 1.35z"></path>
        <path d="m445.9 163.91a1.35 1.35 0 1 0 -1.47-1.35 1.41 1.41 0 0 0 1.47 1.35z"></path>
        <path d="m431.28 150.41a1.35 1.35 0 1 0 -1.46-1.35 1.41 1.41 0 0 0 1.46 1.35z"></path>
        <path d="m445.9 150.41a1.35 1.35 0 1 0 -1.47-1.35 1.41 1.41 0 0 0 1.47 1.35z"></path>
        <path d="m424 170.66a1.35 1.35 0 1 0 -1.46-1.35 1.4 1.4 0 0 0 1.46 1.35z"></path>
        <path d="m424 157.16a1.35 1.35 0 1 0 -1.46-1.35 1.4 1.4 0 0 0 1.46 1.35z"></path>
        <path d="m453.2 143.66a1.35 1.35 0 1 0 -1.46-1.35 1.4 1.4 0 0 0 1.46 1.35z"></path>
        <path d="m438.59 143.66a1.35 1.35 0 1 0 -1.46-1.35 1.4 1.4 0 0 0 1.46 1.35z"></path>
        <path d="m424 143.66a1.35 1.35 0 1 0 -1.46-1.35 1.4 1.4 0 0 0 1.46 1.35z"></path>
      </g>
      <g clip-path="url(#f)">
        <path d="m424 143.66a1.35 1.35 0 1 0 -1.46-1.35 1.4 1.4 0 0 0 1.46 1.35z"></path>
        <path d="m409.37 143.66a1.35 1.35 0 1 0 -1.46-1.35 1.41 1.41 0 0 0 1.46 1.35z"></path>
        <path d="m424 130.16a1.35 1.35 0 1 0 -1.46-1.35 1.4 1.4 0 0 0 1.46 1.35z"></path>
        <path d="m409.37 130.16a1.35 1.35 0 1 0 -1.46-1.35 1.41 1.41 0 0 0 1.46 1.35z"></path>
        <path d="m402.06 136.91a1.35 1.35 0 1 0 -1.46-1.35 1.4 1.4 0 0 0 1.46 1.35z"></path>
        <path d="m416.67 136.91a1.35 1.35 0 1 0 -1.46-1.35 1.41 1.41 0 0 0 1.46 1.35z"></path>
        <path d="m402.06 123.41a1.35 1.35 0 1 0 -1.46-1.35 1.4 1.4 0 0 0 1.46 1.35z"></path>
        <path d="m416.67 123.41a1.35 1.35 0 1 0 -1.46-1.35 1.41 1.41 0 0 0 1.46 1.35z"></path>
        <path d="m394.76 143.66a1.35 1.35 0 1 0 -1.46-1.35 1.41 1.41 0 0 0 1.46 1.35z"></path>
        <path d="m394.76 130.16a1.35 1.35 0 1 0 -1.46-1.35 1.41 1.41 0 0 0 1.46 1.35z"></path>
        <path d="m424 116.66a1.35 1.35 0 1 0 -1.46-1.35 1.4 1.4 0 0 0 1.46 1.35z"></path>
        <path d="m409.37 116.66a1.35 1.35 0 1 0 -1.46-1.35 1.41 1.41 0 0 0 1.46 1.35z"></path>
        <path d="m394.76 116.66a1.35 1.35 0 1 0 -1.46-1.35 1.41 1.41 0 0 0 1.46 1.35z"></path>
      </g>
      <g clip-path="url(#g)">
        <path d="m424 170.66a1.35 1.35 0 1 0 -1.46-1.35 1.4 1.4 0 0 0 1.46 1.35z"></path>
        <path d="m409.37 170.66a1.35 1.35 0 1 0 -1.46-1.35 1.41 1.41 0 0 0 1.46 1.35z"></path>
        <path d="m424 157.16a1.35 1.35 0 1 0 -1.46-1.35 1.4 1.4 0 0 0 1.46 1.35z"></path>
        <path d="m409.37 157.16a1.35 1.35 0 1 0 -1.46-1.35 1.41 1.41 0 0 0 1.46 1.35z"></path>
        <path d="m402.06 163.91a1.35 1.35 0 1 0 -1.46-1.35 1.4 1.4 0 0 0 1.46 1.35z"></path>
        <path d="m416.67 163.91a1.35 1.35 0 1 0 -1.46-1.35 1.41 1.41 0 0 0 1.46 1.35z"></path>
        <path d="m402.06 150.41a1.35 1.35 0 1 0 -1.46-1.35 1.4 1.4 0 0 0 1.46 1.35z"></path>
        <path d="m416.67 150.41a1.35 1.35 0 1 0 -1.46-1.35 1.41 1.41 0 0 0 1.46 1.35z"></path>
        <path d="m394.76 170.66a1.35 1.35 0 1 0 -1.46-1.35 1.41 1.41 0 0 0 1.46 1.35z"></path>
        <path d="m394.76 157.16a1.35 1.35 0 1 0 -1.46-1.35 1.41 1.41 0 0 0 1.46 1.35z"></path>
        <path d="m424 143.66a1.35 1.35 0 1 0 -1.46-1.35 1.4 1.4 0 0 0 1.46 1.35z"></path>
        <path d="m409.37 143.66a1.35 1.35 0 1 0 -1.46-1.35 1.41 1.41 0 0 0 1.46 1.35z"></path>
        <path d="m394.76 143.66a1.35 1.35 0 1 0 -1.46-1.35 1.41 1.41 0 0 0 1.46 1.35z"></path>
      </g>
      <g clip-path="url(#h)">
        <path d="m394.76 143.66a1.35 1.35 0 1 0 -1.46-1.35 1.41 1.41 0 0 0 1.46 1.35z"></path>
        <path d="m380.14 143.66a1.35 1.35 0 1 0 -1.46-1.35 1.41 1.41 0 0 0 1.46 1.35z"></path>
        <path d="m394.76 130.16a1.35 1.35 0 1 0 -1.46-1.35 1.41 1.41 0 0 0 1.46 1.35z"></path>
        <path d="m380.14 130.16a1.35 1.35 0 1 0 -1.46-1.35 1.41 1.41 0 0 0 1.46 1.35z"></path>
        <path d="m372.84 136.91a1.35 1.35 0 1 0 -1.46-1.35 1.4 1.4 0 0 0 1.46 1.35z"></path>
        <path d="m387.45 136.91a1.35 1.35 0 1 0 -1.46-1.35 1.4 1.4 0 0 0 1.46 1.35z"></path>
        <path d="m372.84 123.41a1.35 1.35 0 1 0 -1.46-1.35 1.4 1.4 0 0 0 1.46 1.35z"></path>
        <path d="m387.45 123.41a1.35 1.35 0 1 0 -1.46-1.35 1.4 1.4 0 0 0 1.46 1.35z"></path>
        <path d="m365.53 143.66a1.35 1.35 0 1 0 -1.46-1.35 1.4 1.4 0 0 0 1.46 1.35z"></path>
        <path d="m365.53 130.16a1.35 1.35 0 1 0 -1.46-1.35 1.4 1.4 0 0 0 1.46 1.35z"></path>
        <path d="m394.76 116.66a1.35 1.35 0 1 0 -1.46-1.35 1.41 1.41 0 0 0 1.46 1.35z"></path>
        <path d="m380.14 116.66a1.35 1.35 0 1 0 -1.46-1.35 1.41 1.41 0 0 0 1.46 1.35z"></path>
        <path d="m365.53 116.66a1.35 1.35 0 1 0 -1.46-1.35 1.4 1.4 0 0 0 1.46 1.35z"></path>
      </g>
      <g clip-path="url(#i)">
        <path d="m394.76 170.66a1.35 1.35 0 1 0 -1.46-1.35 1.41 1.41 0 0 0 1.46 1.35z"></path>
        <path d="m380.14 170.66a1.35 1.35 0 1 0 -1.46-1.35 1.41 1.41 0 0 0 1.46 1.35z"></path>
        <path d="m394.76 157.16a1.35 1.35 0 1 0 -1.46-1.35 1.41 1.41 0 0 0 1.46 1.35z"></path>
        <path d="m380.14 157.16a1.35 1.35 0 1 0 -1.46-1.35 1.41 1.41 0 0 0 1.46 1.35z"></path>
        <path d="m372.84 163.91a1.35 1.35 0 1 0 -1.46-1.35 1.4 1.4 0 0 0 1.46 1.35z"></path>
        <path d="m387.45 163.91a1.35 1.35 0 1 0 -1.46-1.35 1.4 1.4 0 0 0 1.46 1.35z"></path>
        <path d="m372.84 150.41a1.35 1.35 0 1 0 -1.46-1.35 1.4 1.4 0 0 0 1.46 1.35z"></path>
        <path d="m387.45 150.41a1.35 1.35 0 1 0 -1.46-1.35 1.4 1.4 0 0 0 1.46 1.35z"></path>
        <path d="m365.53 170.66a1.35 1.35 0 1 0 -1.46-1.35 1.4 1.4 0 0 0 1.46 1.35z"></path>
        <path d="m365.53 157.16a1.35 1.35 0 1 0 -1.46-1.35 1.4 1.4 0 0 0 1.46 1.35z"></path>
        <path d="m394.76 143.66a1.35 1.35 0 1 0 -1.46-1.35 1.41 1.41 0 0 0 1.46 1.35z"></path>
        <path d="m380.14 143.66a1.35 1.35 0 1 0 -1.46-1.35 1.41 1.41 0 0 0 1.46 1.35z"></path>
        <path d="m365.53 143.66a1.35 1.35 0 1 0 -1.46-1.35 1.4 1.4 0 0 0 1.46 1.35z"></path>
      </g>
      <g clip-path="url(#j)">
        <path d="m365.53 143.66a1.35 1.35 0 1 0 -1.46-1.35 1.4 1.4 0 0 0 1.46 1.35z"></path>
        <path d="m350.92 143.66a1.35 1.35 0 1 0 -1.46-1.35 1.4 1.4 0 0 0 1.46 1.35z"></path>
        <path d="m365.53 130.16a1.35 1.35 0 1 0 -1.46-1.35 1.4 1.4 0 0 0 1.46 1.35z"></path>
        <path d="m350.92 130.16a1.35 1.35 0 1 0 -1.46-1.35 1.4 1.4 0 0 0 1.46 1.35z"></path>
        <path d="m343.62 136.91a1.35 1.35 0 1 0 -1.46-1.35 1.41 1.41 0 0 0 1.46 1.35z"></path>
        <path d="m358.23 136.91a1.35 1.35 0 1 0 -1.46-1.35 1.41 1.41 0 0 0 1.46 1.35z"></path>
        <path d="m343.62 123.41a1.35 1.35 0 1 0 -1.46-1.35 1.41 1.41 0 0 0 1.46 1.35z"></path>
        <path d="m358.23 123.41a1.35 1.35 0 1 0 -1.46-1.35 1.41 1.41 0 0 0 1.46 1.35z"></path>
        <path d="m336.31 143.66a1.35 1.35 0 1 0 -1.46-1.35 1.4 1.4 0 0 0 1.46 1.35z"></path>
        <path d="m336.31 130.16a1.35 1.35 0 1 0 -1.46-1.35 1.4 1.4 0 0 0 1.46 1.35z"></path>
        <path d="m365.53 116.66a1.35 1.35 0 1 0 -1.46-1.35 1.4 1.4 0 0 0 1.46 1.35z"></path>
        <path d="m350.92 116.66a1.35 1.35 0 1 0 -1.46-1.35 1.4 1.4 0 0 0 1.46 1.35z"></path>
        <path d="m336.31 116.66a1.35 1.35 0 1 0 -1.46-1.35 1.4 1.4 0 0 0 1.46 1.35z"></path>
      </g>
      <g clip-path="url(#k)">
        <path d="m365.53 170.66a1.35 1.35 0 1 0 -1.46-1.35 1.4 1.4 0 0 0 1.46 1.35z"></path>
        <path d="m350.92 170.66a1.35 1.35 0 1 0 -1.46-1.35 1.4 1.4 0 0 0 1.46 1.35z"></path>
        <path d="m365.53 157.16a1.35 1.35 0 1 0 -1.46-1.35 1.4 1.4 0 0 0 1.46 1.35z"></path>
        <path d="m350.92 157.16a1.35 1.35 0 1 0 -1.46-1.35 1.4 1.4 0 0 0 1.46 1.35z"></path>
        <path d="m343.62 163.91a1.35 1.35 0 1 0 -1.46-1.35 1.41 1.41 0 0 0 1.46 1.35z"></path>
        <path d="m358.23 163.91a1.35 1.35 0 1 0 -1.46-1.35 1.41 1.41 0 0 0 1.46 1.35z"></path>
        <path d="m343.62 150.41a1.35 1.35 0 1 0 -1.46-1.35 1.41 1.41 0 0 0 1.46 1.35z"></path>
        <path d="m358.23 150.41a1.35 1.35 0 1 0 -1.46-1.35 1.41 1.41 0 0 0 1.46 1.35z"></path>
        <path d="m336.31 170.66a1.35 1.35 0 1 0 -1.46-1.35 1.4 1.4 0 0 0 1.46 1.35z"></path>
        <path d="m336.31 157.16a1.35 1.35 0 1 0 -1.46-1.35 1.4 1.4 0 0 0 1.46 1.35z"></path>
        <path d="m365.53 143.66a1.35 1.35 0 1 0 -1.46-1.35 1.4 1.4 0 0 0 1.46 1.35z"></path>
        <path d="m350.92 143.66a1.35 1.35 0 1 0 -1.46-1.35 1.4 1.4 0 0 0 1.46 1.35z"></path>
        <path d="m336.31 143.66a1.35 1.35 0 1 0 -1.46-1.35 1.4 1.4 0 0 0 1.46 1.35z"></path>
      </g>
      <g clip-path="url(#l)">
        <path d="m336.31 143.66a1.35 1.35 0 1 0 -1.46-1.35 1.4 1.4 0 0 0 1.46 1.35z"></path>
        <path d="m321.7 143.66a1.35 1.35 0 1 0 -1.46-1.35 1.4 1.4 0 0 0 1.46 1.35z"></path>
        <path d="m336.31 130.16a1.35 1.35 0 1 0 -1.46-1.35 1.4 1.4 0 0 0 1.46 1.35z"></path>
        <path d="m321.7 130.16a1.35 1.35 0 1 0 -1.46-1.35 1.4 1.4 0 0 0 1.46 1.35z"></path>
        <path d="m314.39 136.91a1.35 1.35 0 1 0 -1.46-1.35 1.41 1.41 0 0 0 1.46 1.35z"></path>
        <path d="m329 136.91a1.35 1.35 0 1 0 -1.47-1.35 1.41 1.41 0 0 0 1.47 1.35z"></path>
        <path d="m314.39 123.41a1.35 1.35 0 1 0 -1.46-1.35 1.41 1.41 0 0 0 1.46 1.35z"></path>
        <path d="m329 123.41a1.35 1.35 0 1 0 -1.47-1.35 1.41 1.41 0 0 0 1.47 1.35z"></path>
        <path d="m307.09 143.66a1.35 1.35 0 1 0 -1.46-1.35 1.4 1.4 0 0 0 1.46 1.35z"></path>
        <path d="m307.09 130.16a1.35 1.35 0 1 0 -1.46-1.35 1.4 1.4 0 0 0 1.46 1.35z"></path>
        <path d="m336.31 116.66a1.35 1.35 0 1 0 -1.46-1.35 1.4 1.4 0 0 0 1.46 1.35z"></path>
        <path d="m321.7 116.66a1.35 1.35 0 1 0 -1.46-1.35 1.4 1.4 0 0 0 1.46 1.35z"></path>
        <path d="m307.09 116.66a1.35 1.35 0 1 0 -1.46-1.35 1.4 1.4 0 0 0 1.46 1.35z"></path>
      </g>
      <g clip-path="url(#m)">
        <path d="m336.31 170.66a1.35 1.35 0 1 0 -1.46-1.35 1.4 1.4 0 0 0 1.46 1.35z"></path>
        <path d="m321.7 170.66a1.35 1.35 0 1 0 -1.46-1.35 1.4 1.4 0 0 0 1.46 1.35z"></path>
        <path d="m336.31 157.16a1.35 1.35 0 1 0 -1.46-1.35 1.4 1.4 0 0 0 1.46 1.35z"></path>
        <path d="m321.7 157.16a1.35 1.35 0 1 0 -1.46-1.35 1.4 1.4 0 0 0 1.46 1.35z"></path>
        <path d="m314.39 163.91a1.35 1.35 0 1 0 -1.46-1.35 1.41 1.41 0 0 0 1.46 1.35z"></path>
        <path d="m329 163.91a1.35 1.35 0 1 0 -1.47-1.35 1.41 1.41 0 0 0 1.47 1.35z"></path>
        <path d="m314.39 150.41a1.35 1.35 0 1 0 -1.46-1.35 1.41 1.41 0 0 0 1.46 1.35z"></path>
        <path d="m329 150.41a1.35 1.35 0 1 0 -1.47-1.35 1.41 1.41 0 0 0 1.47 1.35z"></path>
        <path d="m307.09 170.66a1.35 1.35 0 1 0 -1.46-1.35 1.4 1.4 0 0 0 1.46 1.35z"></path>
        <path d="m307.09 157.16a1.35 1.35 0 1 0 -1.46-1.35 1.4 1.4 0 0 0 1.46 1.35z"></path>
        <path d="m336.31 143.66a1.35 1.35 0 1 0 -1.46-1.35 1.4 1.4 0 0 0 1.46 1.35z"></path>
        <path d="m321.7 143.66a1.35 1.35 0 1 0 -1.46-1.35 1.4 1.4 0 0 0 1.46 1.35z"></path>
        <path d="m307.09 143.66a1.35 1.35 0 1 0 -1.46-1.35 1.4 1.4 0 0 0 1.46 1.35z"></path>
      </g>
      <g clip-path="url(#n)">
        <path d="m307.09 143.66a1.35 1.35 0 1 0 -1.46-1.35 1.4 1.4 0 0 0 1.46 1.35z"></path>
        <path d="m292.48 143.66a1.35 1.35 0 1 0 -1.46-1.35 1.41 1.41 0 0 0 1.46 1.35z"></path>
        <path d="m307.09 130.16a1.35 1.35 0 1 0 -1.46-1.35 1.4 1.4 0 0 0 1.46 1.35z"></path>
        <path d="m292.48 130.16a1.35 1.35 0 1 0 -1.46-1.35 1.41 1.41 0 0 0 1.46 1.35z"></path>
        <path d="m285.17 136.91a1.35 1.35 0 1 0 -1.46-1.35 1.4 1.4 0 0 0 1.46 1.35z"></path>
        <path d="m299.78 136.91a1.35 1.35 0 1 0 -1.46-1.35 1.4 1.4 0 0 0 1.46 1.35z"></path>
        <path d="m285.17 123.41a1.35 1.35 0 1 0 -1.46-1.35 1.4 1.4 0 0 0 1.46 1.35z"></path>
        <path d="m299.78 123.41a1.35 1.35 0 1 0 -1.46-1.35 1.4 1.4 0 0 0 1.46 1.35z"></path>
        <path d="m277.87 143.66a1.35 1.35 0 1 0 -1.47-1.35 1.41 1.41 0 0 0 1.47 1.35z"></path>
        <path d="m277.87 130.16a1.35 1.35 0 1 0 -1.47-1.35 1.41 1.41 0 0 0 1.47 1.35z"></path>
        <path d="m307.09 116.66a1.35 1.35 0 1 0 -1.46-1.35 1.4 1.4 0 0 0 1.46 1.35z"></path>
        <path d="m292.48 116.66a1.35 1.35 0 1 0 -1.46-1.35 1.41 1.41 0 0 0 1.46 1.35z"></path>
        <path d="m277.87 116.66a1.35 1.35 0 1 0 -1.47-1.35 1.41 1.41 0 0 0 1.47 1.35z"></path>
      </g>
      <g clip-path="url(#o)">
        <path d="m307.09 170.66a1.35 1.35 0 1 0 -1.46-1.35 1.4 1.4 0 0 0 1.46 1.35z"></path>
        <path d="m292.48 170.66a1.35 1.35 0 1 0 -1.46-1.35 1.41 1.41 0 0 0 1.46 1.35z"></path>
        <path d="m307.09 157.16a1.35 1.35 0 1 0 -1.46-1.35 1.4 1.4 0 0 0 1.46 1.35z"></path>
        <path d="m292.48 157.16a1.35 1.35 0 1 0 -1.46-1.35 1.41 1.41 0 0 0 1.46 1.35z"></path>
        <path d="m285.17 163.91a1.35 1.35 0 1 0 -1.46-1.35 1.4 1.4 0 0 0 1.46 1.35z"></path>
        <path d="m299.78 163.91a1.35 1.35 0 1 0 -1.46-1.35 1.4 1.4 0 0 0 1.46 1.35z"></path>
        <path d="m285.17 150.41a1.35 1.35 0 1 0 -1.46-1.35 1.4 1.4 0 0 0 1.46 1.35z"></path>
        <path d="m299.78 150.41a1.35 1.35 0 1 0 -1.46-1.35 1.4 1.4 0 0 0 1.46 1.35z"></path>
        <path d="m277.87 170.66a1.35 1.35 0 1 0 -1.47-1.35 1.41 1.41 0 0 0 1.47 1.35z"></path>
        <path d="m277.87 157.16a1.35 1.35 0 1 0 -1.47-1.35 1.41 1.41 0 0 0 1.47 1.35z"></path>
        <path d="m307.09 143.66a1.35 1.35 0 1 0 -1.46-1.35 1.4 1.4 0 0 0 1.46 1.35z"></path>
        <path d="m292.48 143.66a1.35 1.35 0 1 0 -1.46-1.35 1.41 1.41 0 0 0 1.46 1.35z"></path>
        <path d="m277.87 143.66a1.35 1.35 0 1 0 -1.47-1.35 1.41 1.41 0 0 0 1.47 1.35z"></path>
      </g>
      <g clip-path="url(#p)">
        <path d="m277.87 143.66a1.35 1.35 0 1 0 -1.47-1.35 1.41 1.41 0 0 0 1.47 1.35z"></path>
        <path d="m263.25 143.66a1.35 1.35 0 1 0 -1.46-1.35 1.41 1.41 0 0 0 1.46 1.35z"></path>
        <path d="m277.87 130.16a1.35 1.35 0 1 0 -1.47-1.35 1.41 1.41 0 0 0 1.47 1.35z"></path>
        <path d="m263.25 130.16a1.35 1.35 0 1 0 -1.46-1.35 1.41 1.41 0 0 0 1.46 1.35z"></path>
        <path d="m256 136.91a1.35 1.35 0 1 0 -1.46-1.35 1.41 1.41 0 0 0 1.46 1.35z"></path>
        <path d="m270.56 136.91a1.35 1.35 0 1 0 -1.46-1.35 1.4 1.4 0 0 0 1.46 1.35z"></path>
        <path d="m256 123.41a1.35 1.35 0 1 0 -1.46-1.35 1.41 1.41 0 0 0 1.46 1.35z"></path>
        <path d="m270.56 123.41a1.35 1.35 0 1 0 -1.46-1.35 1.4 1.4 0 0 0 1.46 1.35z"></path>
        <path d="m248.64 143.66a1.35 1.35 0 1 0 -1.46-1.35 1.4 1.4 0 0 0 1.46 1.35z"></path>
        <path d="m248.64 130.16a1.35 1.35 0 1 0 -1.46-1.35 1.4 1.4 0 0 0 1.46 1.35z"></path>
        <path d="m277.87 116.66a1.35 1.35 0 1 0 -1.47-1.35 1.41 1.41 0 0 0 1.47 1.35z"></path>
        <path d="m263.25 116.66a1.35 1.35 0 1 0 -1.46-1.35 1.41 1.41 0 0 0 1.46 1.35z"></path>
        <path d="m248.64 116.66a1.35 1.35 0 1 0 -1.46-1.35 1.4 1.4 0 0 0 1.46 1.35z"></path>
      </g>
      <g clip-path="url(#q)">
        <path d="m277.87 170.66a1.35 1.35 0 1 0 -1.47-1.35 1.41 1.41 0 0 0 1.47 1.35z"></path>
        <path d="m263.25 170.66a1.35 1.35 0 1 0 -1.46-1.35 1.41 1.41 0 0 0 1.46 1.35z"></path>
        <path d="m277.87 157.16a1.35 1.35 0 1 0 -1.47-1.35 1.41 1.41 0 0 0 1.47 1.35z"></path>
        <path d="m263.25 157.16a1.35 1.35 0 1 0 -1.46-1.35 1.41 1.41 0 0 0 1.46 1.35z"></path>
        <path d="m256 163.91a1.35 1.35 0 1 0 -1.46-1.35 1.41 1.41 0 0 0 1.46 1.35z"></path>
        <path d="m270.56 163.91a1.35 1.35 0 1 0 -1.46-1.35 1.4 1.4 0 0 0 1.46 1.35z"></path>
        <path d="m256 150.41a1.35 1.35 0 1 0 -1.46-1.35 1.41 1.41 0 0 0 1.46 1.35z"></path>
        <path d="m270.56 150.41a1.35 1.35 0 1 0 -1.46-1.35 1.4 1.4 0 0 0 1.46 1.35z"></path>
        <path d="m248.64 170.66a1.35 1.35 0 1 0 -1.46-1.35 1.4 1.4 0 0 0 1.46 1.35z"></path>
        <path d="m248.64 157.16a1.35 1.35 0 1 0 -1.46-1.35 1.4 1.4 0 0 0 1.46 1.35z"></path>
        <path d="m277.87 143.66a1.35 1.35 0 1 0 -1.47-1.35 1.41 1.41 0 0 0 1.47 1.35z"></path>
        <path d="m263.25 143.66a1.35 1.35 0 1 0 -1.46-1.35 1.41 1.41 0 0 0 1.46 1.35z"></path>
        <path d="m248.64 143.66a1.35 1.35 0 1 0 -1.46-1.35 1.4 1.4 0 0 0 1.46 1.35z"></path>
      </g>
      <g clip-path="url(#r)">
        <path d="m248.64 143.66a1.35 1.35 0 1 0 -1.46-1.35 1.4 1.4 0 0 0 1.46 1.35z"></path>
        <path d="m234 143.66a1.35 1.35 0 1 0 -1.46-1.35 1.4 1.4 0 0 0 1.46 1.35z"></path>
        <path d="m248.64 130.16a1.35 1.35 0 1 0 -1.46-1.35 1.4 1.4 0 0 0 1.46 1.35z"></path>
        <path d="m234 130.16a1.35 1.35 0 1 0 -1.46-1.35 1.4 1.4 0 0 0 1.46 1.35z"></path>
        <path d="m226.73 136.91a1.35 1.35 0 1 0 -1.47-1.35 1.41 1.41 0 0 0 1.47 1.35z"></path>
        <path d="m241.34 136.91a1.35 1.35 0 1 0 -1.46-1.35 1.41 1.41 0 0 0 1.46 1.35z"></path>
        <path d="m226.73 123.41a1.35 1.35 0 1 0 -1.47-1.35 1.41 1.41 0 0 0 1.47 1.35z"></path>
        <path d="m241.34 123.41a1.35 1.35 0 1 0 -1.46-1.35 1.41 1.41 0 0 0 1.46 1.35z"></path>
        <path d="m219.42 143.66a1.35 1.35 0 1 0 -1.46-1.35 1.4 1.4 0 0 0 1.46 1.35z"></path>
        <path d="m219.42 130.16a1.35 1.35 0 1 0 -1.46-1.35 1.4 1.4 0 0 0 1.46 1.35z"></path>
        <path d="m248.64 116.66a1.35 1.35 0 1 0 -1.46-1.35 1.4 1.4 0 0 0 1.46 1.35z"></path>
        <path d="m234 116.66a1.35 1.35 0 1 0 -1.46-1.35 1.4 1.4 0 0 0 1.46 1.35z"></path>
        <path d="m219.42 116.66a1.35 1.35 0 1 0 -1.46-1.35 1.4 1.4 0 0 0 1.46 1.35z"></path>
      </g>
      <g clip-path="url(#s)">
        <path d="m248.64 170.66a1.35 1.35 0 1 0 -1.46-1.35 1.4 1.4 0 0 0 1.46 1.35z"></path>
        <path d="m234 170.66a1.35 1.35 0 1 0 -1.46-1.35 1.4 1.4 0 0 0 1.46 1.35z"></path>
        <path d="m248.64 157.16a1.35 1.35 0 1 0 -1.46-1.35 1.4 1.4 0 0 0 1.46 1.35z"></path>
        <path d="m234 157.16a1.35 1.35 0 1 0 -1.46-1.35 1.4 1.4 0 0 0 1.46 1.35z"></path>
        <path d="m226.73 163.91a1.35 1.35 0 1 0 -1.47-1.35 1.41 1.41 0 0 0 1.47 1.35z"></path>
        <path d="m241.34 163.91a1.35 1.35 0 1 0 -1.46-1.35 1.41 1.41 0 0 0 1.46 1.35z"></path>
        <path d="m226.73 150.41a1.35 1.35 0 1 0 -1.47-1.35 1.41 1.41 0 0 0 1.47 1.35z"></path>
        <path d="m241.34 150.41a1.35 1.35 0 1 0 -1.46-1.35 1.41 1.41 0 0 0 1.46 1.35z"></path>
        <path d="m219.42 170.66a1.35 1.35 0 1 0 -1.46-1.35 1.4 1.4 0 0 0 1.46 1.35z"></path>
        <path d="m219.42 157.16a1.35 1.35 0 1 0 -1.46-1.35 1.4 1.4 0 0 0 1.46 1.35z"></path>
        <path d="m248.64 143.66a1.35 1.35 0 1 0 -1.46-1.35 1.4 1.4 0 0 0 1.46 1.35z"></path>
        <path d="m234 143.66a1.35 1.35 0 1 0 -1.46-1.35 1.4 1.4 0 0 0 1.46 1.35z"></path>
        <path d="m219.42 143.66a1.35 1.35 0 1 0 -1.46-1.35 1.4 1.4 0 0 0 1.46 1.35z"></path>
      </g>
      <g clip-path="url(#t)">
        <path d="m219.42 143.66a1.35 1.35 0 1 0 -1.46-1.35 1.4 1.4 0 0 0 1.46 1.35z"></path>
        <path d="m204.81 143.66a1.35 1.35 0 1 0 -1.46-1.35 1.4 1.4 0 0 0 1.46 1.35z"></path>
        <path d="m219.42 130.16a1.35 1.35 0 1 0 -1.46-1.35 1.4 1.4 0 0 0 1.46 1.35z"></path>
        <path d="m204.81 130.16a1.35 1.35 0 1 0 -1.46-1.35 1.4 1.4 0 0 0 1.46 1.35z"></path>
        <path d="m197.5 136.91a1.35 1.35 0 1 0 -1.46-1.35 1.4 1.4 0 0 0 1.46 1.35z"></path>
        <path d="m212.11 136.91a1.35 1.35 0 1 0 -1.46-1.35 1.41 1.41 0 0 0 1.46 1.35z"></path>
        <path d="m197.5 123.41a1.35 1.35 0 1 0 -1.46-1.35 1.4 1.4 0 0 0 1.46 1.35z"></path>
        <path d="m212.11 123.41a1.35 1.35 0 1 0 -1.46-1.35 1.41 1.41 0 0 0 1.46 1.35z"></path>
        <path d="m190.2 143.66a1.35 1.35 0 1 0 -1.46-1.35 1.41 1.41 0 0 0 1.46 1.35z"></path>
        <path d="m190.2 130.16a1.35 1.35 0 1 0 -1.46-1.35 1.41 1.41 0 0 0 1.46 1.35z"></path>
        <path d="m219.42 116.66a1.35 1.35 0 1 0 -1.46-1.35 1.4 1.4 0 0 0 1.46 1.35z"></path>
        <path d="m204.81 116.66a1.35 1.35 0 1 0 -1.46-1.35 1.4 1.4 0 0 0 1.46 1.35z"></path>
        <path d="m190.2 116.66a1.35 1.35 0 1 0 -1.46-1.35 1.41 1.41 0 0 0 1.46 1.35z"></path>
      </g>
      <g clip-path="url(#u)">
        <path d="m219.42 170.66a1.35 1.35 0 1 0 -1.46-1.35 1.4 1.4 0 0 0 1.46 1.35z"></path>
        <path d="m204.81 170.66a1.35 1.35 0 1 0 -1.46-1.35 1.4 1.4 0 0 0 1.46 1.35z"></path>
        <path d="m219.42 157.16a1.35 1.35 0 1 0 -1.46-1.35 1.4 1.4 0 0 0 1.46 1.35z"></path>
        <path d="m204.81 157.16a1.35 1.35 0 1 0 -1.46-1.35 1.4 1.4 0 0 0 1.46 1.35z"></path>
        <path d="m197.5 163.91a1.35 1.35 0 1 0 -1.46-1.35 1.4 1.4 0 0 0 1.46 1.35z"></path>
        <path d="m212.11 163.91a1.35 1.35 0 1 0 -1.46-1.35 1.41 1.41 0 0 0 1.46 1.35z"></path>
        <path d="m197.5 150.41a1.35 1.35 0 1 0 -1.46-1.35 1.4 1.4 0 0 0 1.46 1.35z"></path>
        <path d="m212.11 150.41a1.35 1.35 0 1 0 -1.46-1.35 1.41 1.41 0 0 0 1.46 1.35z"></path>
        <path d="m190.2 170.66a1.35 1.35 0 1 0 -1.46-1.35 1.41 1.41 0 0 0 1.46 1.35z"></path>
        <path d="m190.2 157.16a1.35 1.35 0 1 0 -1.46-1.35 1.41 1.41 0 0 0 1.46 1.35z"></path>
        <path d="m219.42 143.66a1.35 1.35 0 1 0 -1.46-1.35 1.4 1.4 0 0 0 1.46 1.35z"></path>
        <path d="m204.81 143.66a1.35 1.35 0 1 0 -1.46-1.35 1.4 1.4 0 0 0 1.46 1.35z"></path>
        <path d="m190.2 143.66a1.35 1.35 0 1 0 -1.46-1.35 1.41 1.41 0 0 0 1.46 1.35z"></path>
      </g>
      <g clip-path="url(#v)">
        <path d="m190.2 143.66a1.35 1.35 0 1 0 -1.46-1.35 1.41 1.41 0 0 0 1.46 1.35z"></path>
        <path d="m175.59 143.66a1.35 1.35 0 1 0 -1.46-1.35 1.41 1.41 0 0 0 1.46 1.35z"></path>
        <path d="m190.2 130.16a1.35 1.35 0 1 0 -1.46-1.35 1.41 1.41 0 0 0 1.46 1.35z"></path>
        <path d="m175.59 130.16a1.35 1.35 0 1 0 -1.46-1.35 1.41 1.41 0 0 0 1.46 1.35z"></path>
        <path d="m168.28 136.91a1.35 1.35 0 1 0 -1.46-1.35 1.4 1.4 0 0 0 1.46 1.35z"></path>
        <path d="m182.89 136.91a1.35 1.35 0 1 0 -1.46-1.35 1.4 1.4 0 0 0 1.46 1.35z"></path>
        <path d="m168.28 123.41a1.35 1.35 0 1 0 -1.46-1.35 1.4 1.4 0 0 0 1.46 1.35z"></path>
        <path d="m182.89 123.41a1.35 1.35 0 1 0 -1.46-1.35 1.4 1.4 0 0 0 1.46 1.35z"></path>
        <path d="m161 143.66a1.35 1.35 0 1 0 -1.46-1.35 1.41 1.41 0 0 0 1.46 1.35z"></path>
        <path d="m161 130.16a1.35 1.35 0 1 0 -1.46-1.35 1.41 1.41 0 0 0 1.46 1.35z"></path>
        <path d="m190.2 116.66a1.35 1.35 0 1 0 -1.46-1.35 1.41 1.41 0 0 0 1.46 1.35z"></path>
        <path d="m175.59 116.66a1.35 1.35 0 1 0 -1.46-1.35 1.41 1.41 0 0 0 1.46 1.35z"></path>
        <path d="m161 116.66a1.35 1.35 0 1 0 -1.46-1.35 1.41 1.41 0 0 0 1.46 1.35z"></path>
      </g>
      <g clip-path="url(#w)">
        <path d="m190.2 170.66a1.35 1.35 0 1 0 -1.46-1.35 1.41 1.41 0 0 0 1.46 1.35z"></path>
        <path d="m175.59 170.66a1.35 1.35 0 1 0 -1.46-1.35 1.41 1.41 0 0 0 1.46 1.35z"></path>
        <path d="m190.2 157.16a1.35 1.35 0 1 0 -1.46-1.35 1.41 1.41 0 0 0 1.46 1.35z"></path>
        <path d="m175.59 157.16a1.35 1.35 0 1 0 -1.46-1.35 1.41 1.41 0 0 0 1.46 1.35z"></path>
        <path d="m168.28 163.91a1.35 1.35 0 1 0 -1.46-1.35 1.4 1.4 0 0 0 1.46 1.35z"></path>
        <path d="m182.89 163.91a1.35 1.35 0 1 0 -1.46-1.35 1.4 1.4 0 0 0 1.46 1.35z"></path>
        <path d="m168.28 150.41a1.35 1.35 0 1 0 -1.46-1.35 1.4 1.4 0 0 0 1.46 1.35z"></path>
        <path d="m182.89 150.41a1.35 1.35 0 1 0 -1.46-1.35 1.4 1.4 0 0 0 1.46 1.35z"></path>
        <path d="m161 170.66a1.35 1.35 0 1 0 -1.46-1.35 1.41 1.41 0 0 0 1.46 1.35z"></path>
        <path d="m161 157.16a1.35 1.35 0 1 0 -1.46-1.35 1.41 1.41 0 0 0 1.46 1.35z"></path>
        <path d="m190.2 143.66a1.35 1.35 0 1 0 -1.46-1.35 1.41 1.41 0 0 0 1.46 1.35z"></path>
        <path d="m175.59 143.66a1.35 1.35 0 1 0 -1.46-1.35 1.41 1.41 0 0 0 1.46 1.35z"></path>
        <path d="m161 143.66a1.35 1.35 0 1 0 -1.46-1.35 1.41 1.41 0 0 0 1.46 1.35z"></path>
      </g>
      <g clip-path="url(#x)">
        <path d="m161 143.66a1.35 1.35 0 1 0 -1.46-1.35 1.41 1.41 0 0 0 1.46 1.35z"></path>
        <path d="m146.36 143.66a1.35 1.35 0 1 0 -1.46-1.35 1.4 1.4 0 0 0 1.46 1.35z"></path>
        <path d="m161 130.16a1.35 1.35 0 1 0 -1.46-1.35 1.41 1.41 0 0 0 1.46 1.35z"></path>
        <path d="m146.36 130.16a1.35 1.35 0 1 0 -1.46-1.35 1.4 1.4 0 0 0 1.46 1.35z"></path>
        <path d="m139.06 136.91a1.35 1.35 0 1 0 -1.46-1.35 1.41 1.41 0 0 0 1.46 1.35z"></path>
        <path d="m153.67 136.91a1.35 1.35 0 1 0 -1.46-1.35 1.4 1.4 0 0 0 1.46 1.35z"></path>
        <path d="m139.06 123.41a1.35 1.35 0 1 0 -1.46-1.35 1.41 1.41 0 0 0 1.46 1.35z"></path>
        <path d="m153.67 123.41a1.35 1.35 0 1 0 -1.46-1.35 1.4 1.4 0 0 0 1.46 1.35z"></path>
        <path d="m131.75 143.66a1.35 1.35 0 1 0 -1.46-1.35 1.4 1.4 0 0 0 1.46 1.35z"></path>
        <path d="m131.75 130.16a1.35 1.35 0 1 0 -1.46-1.35 1.4 1.4 0 0 0 1.46 1.35z"></path>
        <path d="m161 116.66a1.35 1.35 0 1 0 -1.46-1.35 1.41 1.41 0 0 0 1.46 1.35z"></path>
        <path d="m146.36 116.66a1.35 1.35 0 1 0 -1.46-1.35 1.4 1.4 0 0 0 1.46 1.35z"></path>
        <path d="m131.75 116.66a1.35 1.35 0 1 0 -1.46-1.35 1.4 1.4 0 0 0 1.46 1.35z"></path>
      </g>
      <g clip-path="url(#y)">
        <path d="m161 170.66a1.35 1.35 0 1 0 -1.46-1.35 1.41 1.41 0 0 0 1.46 1.35z"></path>
        <path d="m146.36 170.66a1.35 1.35 0 1 0 -1.46-1.35 1.4 1.4 0 0 0 1.46 1.35z"></path>
        <path d="m161 157.16a1.35 1.35 0 1 0 -1.46-1.35 1.41 1.41 0 0 0 1.46 1.35z"></path>
        <path d="m146.36 157.16a1.35 1.35 0 1 0 -1.46-1.35 1.4 1.4 0 0 0 1.46 1.35z"></path>
        <path d="m139.06 163.91a1.35 1.35 0 1 0 -1.46-1.35 1.41 1.41 0 0 0 1.46 1.35z"></path>
        <path d="m153.67 163.91a1.35 1.35 0 1 0 -1.46-1.35 1.4 1.4 0 0 0 1.46 1.35z"></path>
        <path d="m139.06 150.41a1.35 1.35 0 1 0 -1.46-1.35 1.41 1.41 0 0 0 1.46 1.35z"></path>
        <path d="m153.67 150.41a1.35 1.35 0 1 0 -1.46-1.35 1.4 1.4 0 0 0 1.46 1.35z"></path>
        <path d="m131.75 170.66a1.35 1.35 0 1 0 -1.46-1.35 1.4 1.4 0 0 0 1.46 1.35z"></path>
        <path d="m131.75 157.16a1.35 1.35 0 1 0 -1.46-1.35 1.4 1.4 0 0 0 1.46 1.35z"></path>
        <path d="m161 143.66a1.35 1.35 0 1 0 -1.46-1.35 1.41 1.41 0 0 0 1.46 1.35z"></path>
        <path d="m146.36 143.66a1.35 1.35 0 1 0 -1.46-1.35 1.4 1.4 0 0 0 1.46 1.35z"></path>
        <path d="m131.75 143.66a1.35 1.35 0 1 0 -1.46-1.35 1.4 1.4 0 0 0 1.46 1.35z"></path>
      </g>
      <g clip-path="url(#z)">
        <path d="m131.75 143.66a1.35 1.35 0 1 0 -1.46-1.35 1.4 1.4 0 0 0 1.46 1.35z"></path>
        <path d="m117.14 143.66a1.35 1.35 0 1 0 -1.46-1.35 1.4 1.4 0 0 0 1.46 1.35z"></path>
        <path d="m131.75 130.16a1.35 1.35 0 1 0 -1.46-1.35 1.4 1.4 0 0 0 1.46 1.35z"></path>
        <path d="m117.14 130.16a1.35 1.35 0 1 0 -1.46-1.35 1.4 1.4 0 0 0 1.46 1.35z"></path>
        <path d="m109.83 136.91a1.35 1.35 0 1 0 -1.46-1.35 1.41 1.41 0 0 0 1.46 1.35z"></path>
        <path d="m124.45 136.91a1.35 1.35 0 1 0 -1.47-1.35 1.41 1.41 0 0 0 1.47 1.35z"></path>
        <path d="m109.83 123.41a1.35 1.35 0 1 0 -1.46-1.35 1.41 1.41 0 0 0 1.46 1.35z"></path>
        <path d="m124.45 123.41a1.35 1.35 0 1 0 -1.47-1.35 1.41 1.41 0 0 0 1.47 1.35z"></path>
        <path d="m102.53 143.66a1.35 1.35 0 1 0 -1.46-1.35 1.4 1.4 0 0 0 1.46 1.35z"></path>
        <path d="m102.53 130.16a1.35 1.35 0 1 0 -1.46-1.35 1.4 1.4 0 0 0 1.46 1.35z"></path>
        <path d="m131.75 116.66a1.35 1.35 0 1 0 -1.46-1.35 1.4 1.4 0 0 0 1.46 1.35z"></path>
        <path d="m117.14 116.66a1.35 1.35 0 1 0 -1.46-1.35 1.4 1.4 0 0 0 1.46 1.35z"></path>
        <path d="m102.53 116.66a1.35 1.35 0 1 0 -1.46-1.35 1.4 1.4 0 0 0 1.46 1.35z"></path>
      </g>
      <g clip-path="url(#A)">
        <path d="m131.75 170.66a1.35 1.35 0 1 0 -1.46-1.35 1.4 1.4 0 0 0 1.46 1.35z"></path>
        <path d="m117.14 170.66a1.35 1.35 0 1 0 -1.46-1.35 1.4 1.4 0 0 0 1.46 1.35z"></path>
        <path d="m131.75 157.16a1.35 1.35 0 1 0 -1.46-1.35 1.4 1.4 0 0 0 1.46 1.35z"></path>
        <path d="m117.14 157.16a1.35 1.35 0 1 0 -1.46-1.35 1.4 1.4 0 0 0 1.46 1.35z"></path>
        <path d="m109.83 163.91a1.35 1.35 0 1 0 -1.46-1.35 1.41 1.41 0 0 0 1.46 1.35z"></path>
        <path d="m124.45 163.91a1.35 1.35 0 1 0 -1.47-1.35 1.41 1.41 0 0 0 1.47 1.35z"></path>
        <path d="m109.83 150.41a1.35 1.35 0 1 0 -1.46-1.35 1.41 1.41 0 0 0 1.46 1.35z"></path>
        <path d="m124.45 150.41a1.35 1.35 0 1 0 -1.47-1.35 1.41 1.41 0 0 0 1.47 1.35z"></path>
        <path d="m102.53 170.66a1.35 1.35 0 1 0 -1.46-1.35 1.4 1.4 0 0 0 1.46 1.35z"></path>
        <path d="m102.53 157.16a1.35 1.35 0 1 0 -1.46-1.35 1.4 1.4 0 0 0 1.46 1.35z"></path>
        <path d="m131.75 143.66a1.35 1.35 0 1 0 -1.46-1.35 1.4 1.4 0 0 0 1.46 1.35z"></path>
        <path d="m117.14 143.66a1.35 1.35 0 1 0 -1.46-1.35 1.4 1.4 0 0 0 1.46 1.35z"></path>
        <path d="m102.53 143.66a1.35 1.35 0 1 0 -1.46-1.35 1.4 1.4 0 0 0 1.46 1.35z"></path>
      </g>
    </g>
  </g>
</svg>
