<?xml version="1.0" encoding="UTF-8"?>
<svg xmlns="http://www.w3.org/2000/svg" id="Layer_1" data-name="Layer 1" viewBox="0 0 600 600">
  <defs>
    <style>.cls-1,.cls-13{fill:#fff;}.cls-2,.cls-7{fill:#00ab81;}.cls-12,.cls-13,.cls-14,.cls-2,.cls-3,.cls-4,.cls-5,.cls-6,.cls-7,.cls-8,.cls-9{stroke:#1c19a8;stroke-width:2.82px;}.cls-12,.cls-13,.cls-14,.cls-2,.cls-3,.cls-4,.cls-7,.cls-8,.cls-9{stroke-linejoin:round;}.cls-12,.cls-2,.cls-9{fill-rule:evenodd;}.cls-10,.cls-12,.cls-3{fill:#ffde00;}.cls-4,.cls-9{fill:#fb715d;}.cls-11,.cls-5,.cls-8{fill:#1c19a8;}.cls-5,.cls-6{stroke-miterlimit:10;}.cls-14,.cls-6{fill:none;}</style>
  </defs>
  <title>Shops_NEW_</title>
  <rect class="cls-1" x="77.2" y="201.69" width="441.76" height="281.99"></rect>
  <path class="cls-2" d="M115.75,342.76a.42.42,0,0,1,.31.45v2.24c0,.25-.16.46-.35.46h-.1a1.56,1.56,0,0,0,.32.61,5.49,5.49,0,0,0,1,.84,4.88,4.88,0,0,1,1.11,1,3.31,3.31,0,0,1,.59,1.88h0v10.47a1.82,1.82,0,0,1-1.55,2h-8.25a1.82,1.82,0,0,1-1.55-2V350.31h0a3.22,3.22,0,0,1,.58-1.87,5.23,5.23,0,0,1,1.11-1.06,5.39,5.39,0,0,0,.95-.84,1.45,1.45,0,0,0,.31-.62h-.11a.42.42,0,0,1-.36-.46v-2.23a.54.54,0,0,1,.1-.33.33.33,0,0,1,.25-.13h5.69Z"></path>
  <path class="cls-2" d="M133.84,342.76a.42.42,0,0,1,.31.45v2.24c0,.25-.16.46-.35.46h-.1a1.56,1.56,0,0,0,.32.61,5.49,5.49,0,0,0,1,.84,4.88,4.88,0,0,1,1.11,1,3.31,3.31,0,0,1,.59,1.88h0v10.47a1.82,1.82,0,0,1-1.55,2h-8.25a1.82,1.82,0,0,1-1.55-2V350.31h0a3.22,3.22,0,0,1,.58-1.87,5.23,5.23,0,0,1,1.11-1.06,5.39,5.39,0,0,0,1-.84,1.45,1.45,0,0,0,.31-.62h-.11a.42.42,0,0,1-.36-.46v-2.23a.54.54,0,0,1,.1-.33.34.34,0,0,1,.25-.13h5.69Z"></path>
  <path class="cls-3" d="M161.55,396.48h-7.78l0-13.42,2-6.29v-5.15h3.78v5.15l2,6.29Z"></path>
  <path class="cls-3" d="M147.54,396.48h-7.78l0-13.42,2-6.29v-5.15h3.78v5.15l2,6.29Z"></path>
  <rect class="cls-4" x="137.37" y="315.28" width="21.29" height="16.57" transform="translate(296.04 647.13) rotate(-180)"></rect>
  <rect class="cls-5" x="101.99" y="393.64" width="65.48" height="4.4" transform="translate(269.45 791.68) rotate(-180)"></rect>
  <rect class="cls-5" x="101.99" y="362.75" width="65.48" height="4.4" transform="translate(269.45 729.89) rotate(-180)"></rect>
  <rect class="cls-5" x="101.99" y="331.85" width="65.48" height="4.4" transform="translate(269.45 668.1) rotate(-180)"></rect>
  <rect class="cls-5" x="101.99" y="300.96" width="65.48" height="4.4" transform="translate(269.45 606.32) rotate(-180)"></rect>
  <line class="cls-6" x1="167.46" y1="300.96" x2="167.46" y2="420.55"></line>
  <path class="cls-7" d="M136.85,301h-7.78l0-13.42,2-6.29V276.1h3.78v5.15l2,6.29Z"></path>
  <path class="cls-7" d="M122.84,301h-7.78l0-13.42,2-6.29V276.1h3.78v5.15l2,6.29Z"></path>
  <line class="cls-8" x1="349.49" y1="230.15" x2="349.49" y2="327.4"></line>
  <line class="cls-8" x1="247.48" y1="230.15" x2="247.48" y2="327.4"></line>
  <rect class="cls-8" x="347.13" y="325.04" width="4.73" height="4.73"></rect>
  <circle class="cls-3" cx="349.49" cy="336.4" r="7.97"></circle>
  <polygon class="cls-9" points="502.01 340.75 478.14 340.75 478.14 347.95 478.14 375.28 502.01 375.28 502.01 340.75"></polygon>
  <line class="cls-3" x1="477.46" y1="349.36" x2="502.01" y2="349.36"></line>
  <line class="cls-3" x1="477.46" y1="353.93" x2="502.01" y2="353.93"></line>
  <polygon class="cls-9" points="478.19 340.75 454.31 340.75 454.31 347.95 454.31 375.28 478.19 375.28 478.19 340.75"></polygon>
  <line class="cls-3" x1="453.63" y1="349.36" x2="478.19" y2="349.36"></line>
  <line class="cls-3" x1="453.63" y1="353.93" x2="478.19" y2="353.93"></line>
  <rect class="cls-7" x="449.14" y="254.79" width="55.22" height="17.22"></rect>
  <rect class="cls-10" x="445.98" y="284.9" width="15.3" height="17.22"></rect>
  <rect class="cls-10" x="469.62" y="284.9" width="15.3" height="17.22"></rect>
  <rect class="cls-11" x="434.55" y="301.19" width="84.4" height="5.67"></rect>
  <rect class="cls-11" x="434.55" y="271.44" width="84.4" height="5.67"></rect>
  <path class="cls-11" d="M462.69,303.52H444.57v-20h18.12Zm-15.31-2.81h12.5v-14.4h-12.5Z"></path>
  <path class="cls-11" d="M486.33,303.52H468.21v-20h18.12ZM471,300.71h12.5v-14.4H471Z"></path>
  <line class="cls-5" x1="518.96" y1="464.19" x2="518.96" y2="271.44"></line>
  <line class="cls-5" x1="434.55" y1="464.19" x2="434.55" y2="271.44"></line>
  <polygon class="cls-12" points="465.91 374.78 442.03 374.78 442.03 381.98 442.03 409.31 465.91 409.31 465.91 374.78"></polygon>
  <line class="cls-3" x1="441.35" y1="383.38" x2="465.91" y2="383.38"></line>
  <line class="cls-3" x1="441.35" y1="387.95" x2="465.91" y2="387.95"></line>
  <polygon class="cls-12" points="489.74 374.78 465.86 374.78 465.86 381.98 465.86 409.31 489.74 409.31 489.74 374.78"></polygon>
  <line class="cls-3" x1="465.18" y1="383.38" x2="489.74" y2="383.38"></line>
  <line class="cls-3" x1="465.18" y1="387.95" x2="489.74" y2="387.95"></line>
  <polygon class="cls-12" points="513.5 374.78 489.63 374.78 489.63 381.98 489.63 409.31 513.5 409.31 513.5 374.78"></polygon>
  <line class="cls-3" x1="488.94" y1="383.38" x2="513.5" y2="383.38"></line>
  <line class="cls-3" x1="488.94" y1="387.95" x2="513.5" y2="387.95"></line>
  <rect class="cls-3" x="73.34" y="85.82" width="453.32" height="19.86"></rect>
  <line class="cls-3" x1="73.34" y1="98.96" x2="526.66" y2="98.96"></line>
  <rect class="cls-7" x="195.47" y="290.34" width="104.02" height="188.99"></rect>
  <rect class="cls-13" x="180.59" y="335.22" width="133.77" height="74.02" transform="translate(619.71 124.75) rotate(90)"></rect>
  <rect class="cls-7" x="299.49" y="290.34" width="104.02" height="188.99"></rect>
  <rect class="cls-3" x="91.57" y="106.21" width="416.87" height="49.68"></rect>
  <rect class="cls-7" x="91.57" y="479.34" width="416.87" height="12.01"></rect>
  <rect class="cls-3" x="508.43" y="105.69" width="18.23" height="385.66"></rect>
  <rect class="cls-3" x="73.34" y="105.69" width="18.23" height="385.66"></rect>
  <rect class="cls-7" x="375.05" y="345.95" width="257.36" height="9.4" transform="translate(854.39 -153.08) rotate(90)"></rect>
  <rect class="cls-7" x="-32.42" y="345.95" width="257.36" height="9.4" transform="translate(446.92 254.39) rotate(90)"></rect>
  <rect class="cls-7" x="62.09" y="345.95" width="257.36" height="9.4" transform="translate(541.42 159.89) rotate(90)"></rect>
  <rect class="cls-7" x="280.03" y="345.95" width="257.36" height="9.4" transform="translate(759.37 -58.06) rotate(90)"></rect>
  <path class="cls-11" d="M246.71,126.88c0-1.42,0-2.81,0-4.2,0-.89.25-1.05,1.05-1.07.5,0,.73-.22.74-.67,0-.64-.2-.9-.75-.9q-4.78,0-9.57,0a1,1,0,0,0-.72.33c-.42.49-.06,1.16.62,1.23.94.1,1.15.37.91,1.26-.18.67-.37,1.34-.57,2q-1,3.27-2,6.52c-.16.51-.34,1-.55,1.63-.12-.4-.19-.68-.28-1q-1.47-4.53-3-9c-.31-1-.19-1.19.79-1.44a1.07,1.07,0,0,0,.19-.07c.5-.12.66-.36.6-.92s-.36-.55-.7-.55c-1.89,0-3.77,0-5.66,0a.77.77,0,0,0-.82.71.72.72,0,0,0,.67.87,1.4,1.4,0,0,1,1.25,1.13c.16.67.48,1.3.68,2,.28.94.74,1.8.27,2.89-.79,1.82-1.38,3.73-2.07,5.61a1.09,1.09,0,0,1-.15-.18c-1.21-3.42-2.43-6.83-3.63-10.24-.31-.89-.11-1.18.82-1.28a.34.34,0,0,1,.1,0,.74.74,0,1,0-.07-1.48c-1.94,0-3.88,0-5.82,0-.47,0-.8.16-.83.66a.67.67,0,0,0,.67.82,1.61,1.61,0,0,1,1.41,1.2l1.47,4c1,2.65,2,5.29,3,7.94.38,1,.74,2,1.14,3,.31.75,1,.82,1.67.77a1.15,1.15,0,0,0,1-.88q1-2.85,2-5.68c.22-.61.46-1.21.72-1.9a1.19,1.19,0,0,1,.12.24c.78,2.33,1.55,4.67,2.34,7,.17.5.35,1,.92,1.19a1.46,1.46,0,0,0,2-1.07c.38-1.15.75-2.31,1.11-3.47.54-1.71,1.09-3.43,1.62-5.15q1-3.14,1.93-6.26a1,1,0,0,1,1-.8c.48.06.51.58.51,1,0,4.25,0,8.5,0,12.75,0,.85-.12,1-.95,1a.74.74,0,0,0-.79.55,1.09,1.09,0,0,0,.19.85,1.18,1.18,0,0,0,.8.28c1.8,0,3.6,0,5.4,0,.69,0,1-.32.94-.85a.79.79,0,0,0-.85-.83c-.33,0-.7.06-.83-.37a2.45,2.45,0,0,1-.11-.71c0-1.94.08-3.87.09-5.81,0-.54.27-.64.73-.63h3.86c.84,0,1.12-.09,1.14,1.15,0,1.71,0,3.42,0,5.13,0,1.07,0,1.06-1.08,1.27a1.17,1.17,0,0,0-.69.64.66.66,0,0,0,.41.9,2.44,2.44,0,0,0,.81.11h4.76a4.38,4.38,0,0,0,.82-.1c.49-.1.66-.38.56-.94a.71.71,0,0,0-.75-.64c-.92,0-1-.14-1-1.08q0-6.3,0-12.59c0-.9.22-1.14,1.1-1.14a.64.64,0,0,0,.69-.63c.1-.63-.21-.95-.91-.95h-5.55c-.69,0-.92.18-.94.7,0,.72.13.86.9.88.42,0,.8.12.8.63,0,1.54,0,3.08,0,4.64Zm17.86-8.25,0,.14a2.52,2.52,0,0,1-.25.21c-.87.53-1.77,1-2.63,1.59a9,9,0,0,0-3.92,4.9,12.45,12.45,0,0,0-.29,6,8.71,8.71,0,0,0,2.74,5.11,8,8,0,0,0,5.37,2,16.07,16.07,0,0,0,2.77-.2,7.66,7.66,0,0,0,6-4.32,11.14,11.14,0,0,0,.95-6.63,10.07,10.07,0,0,0-2.25-5.24,5.61,5.61,0,0,0-4.46-2.21c-.36,0-.75,0-.85.41a.91.91,0,0,0,.4,1.08,6.14,6.14,0,0,1,2.43,2.81,13,13,0,0,1,.63,2.67,14.7,14.7,0,0,1-.12,5.08,6.07,6.07,0,0,1-2.13,3.7,4.36,4.36,0,0,1-5.34-.31,8.15,8.15,0,0,1-2.35-5.64,21.54,21.54,0,0,1,.1-2.89,7.34,7.34,0,0,1,3.17-5.62c1.38-1,2.88-1.85,4.33-2.78a5.93,5.93,0,0,0,2-1.76c.37-.62.29-1.56-.2-1.81a3,3,0,0,0-1.13-.32,3.16,3.16,0,0,1-2.1-.92A36.38,36.38,0,0,0,264.4,111a5,5,0,0,0-3.77-.92,5.69,5.69,0,0,0-4,2.84,3.14,3.14,0,0,0-.7,2.67c.07.22.28.52.45.55a1,1,0,0,0,.69-.32c.21-.26.28-.63.49-.91a4.52,4.52,0,0,1,3.66-1.89,5.18,5.18,0,0,1,2.88.92c1.09.67,2.16,1.38,3.24,2.07a3,3,0,0,1,.33.29l0,.16a3.2,3.2,0,0,1-.93,0,17.42,17.42,0,0,1-1.67-.71,8.63,8.63,0,0,0-3-.92,4.92,4.92,0,0,0-3.79,1.43,5.73,5.73,0,0,0-1.06,1.71.66.66,0,0,0,.27.87.63.63,0,0,0,.84-.15c.13-.12.29-.2.42-.32a2.27,2.27,0,0,1,2.59-.52A6.17,6.17,0,0,0,264.57,118.63Zm29.34,8.28c0-1.3,0-2.51,0-3.73,0-.83.24-1.15,1-1.21a26.61,26.61,0,0,1,3.22,0,2.29,2.29,0,0,1,2,1.07c.11.19.25.44.44.5a1.52,1.52,0,0,0,1,.06c.33-.13.37-.5.22-.86-.27-.66-.54-1.32-.75-2a.92.92,0,0,0-1-.71H289.31a2.16,2.16,0,0,0-.61.1c-.46.13-.42.53-.38.86s.18.66.59.6c1-.14,1.18.45,1.18,1.29,0,4.17,0,8.35,0,12.53,0,.78-.2,1-1,1a.73.73,0,0,0-.79.56,1.11,1.11,0,0,0,.19.85,1.47,1.47,0,0,0,.92.27c3.56,0,7.12,0,10.68,0,.4,0,1,.1,1.21-.49.34-.86.72-1.7,1.05-2.56.18-.46-.12-.78-.6-.85s-.83.26-1.07.66a2.5,2.5,0,0,1-2.35,1.26c-1,0-2,0-3,0-1.17,0-1.5-.31-1.51-1.47,0-1.6,0-3.21,0-4.81,0-.78.25-1,1-1s1.69,0,2.54,0c.61,0,1-.23,1-.93s-.38-1-1-1C296.29,126.93,295.13,126.91,293.91,126.91Zm80.3-7.16c-.79.08-1.34.08-1.86.19a4,4,0,0,0-3.14,2.33,4.58,4.58,0,0,0,1.37,5.57,34.48,34.48,0,0,0,2.94,2.14,12.92,12.92,0,0,1,3.12,2.68,2.42,2.42,0,0,1,.47,2.11c-.48,1.64-2.15,2-3.79,1.68a5,5,0,0,1-3.14-2.25,1.42,1.42,0,0,0-.8-.6c-.77-.13-1.17.51-.94,1.42l.69,2.66c.28,1.09.78,1.26,1.71.59a.7.7,0,0,1,.53-.13,9.84,9.84,0,0,0,4.44.4,5.4,5.4,0,0,0,3.8-2.13,4.93,4.93,0,0,0,.8-4,5.75,5.75,0,0,0-.88-2.14A13.8,13.8,0,0,0,376,127.2a13.39,13.39,0,0,1-3.1-2.52,1.83,1.83,0,0,1-.21-1.84,1.67,1.67,0,0,1,1.53-1,4.06,4.06,0,0,1,3.64,1.65,3.53,3.53,0,0,0,.68.84,1.4,1.4,0,0,0,.91.17c.37,0,.46-.4.4-.74-.21-1-.42-2.1-.65-3.15-.14-.68-.47-1.06-1.42-.58a1.43,1.43,0,0,1-1,.14C375.81,120,374.89,119.86,374.21,119.75Zm-62.95,7.37c0-1.43,0-2.8,0-4.17,0-.56.33-.8.89-.81,1,0,2,0,3,0a2.07,2.07,0,0,1,1.88,1,1.46,1.46,0,0,0,.6.63.89.89,0,0,0,.78-.06.8.8,0,0,0,.24-.7c-.24-.78-.58-1.53-.85-2.29a.82.82,0,0,0-.87-.59c-3.44,0-6.88,0-10.31,0a1.15,1.15,0,0,0-.87.41.81.81,0,0,0,.8,1.25c.51-.08.76.15.81.65,0,.15,0,.31,0,.46,0,1.43,0,2.86,0,4.28v8.25c0,.89-.1,1-.94,1.08-.56.05-.85.33-.86.84s.2.82.84.83c2,0,3.95,0,5.92,0,.35,0,.74-.14.79-.55a1.1,1.1,0,0,0-.19-.85,1.6,1.6,0,0,0-.91-.26c-.63,0-.84-.16-.85-.79q0-3,0-6.09c0-.45.24-.67.73-.66.9,0,1.8,0,2.7,0,.68,0,1.12-.39,1.11-1s-.4-.93-1.12-.93Zm-34.91,2v6.46c0,.69-.17.86-.84.89s-.85.28-.86.87.16.79,1.08.8c3.56.05,7.12,0,10.68,0a1.09,1.09,0,0,0,1.17-.83c.25-.78.6-1.54.93-2.3a.66.66,0,0,0-.2-.92.73.73,0,0,0-1,.05c-.26.27-.48.59-.72.89a2.42,2.42,0,0,1-1.76,1.11c-1.15,0-2.3,0-3.44,0-.84,0-1.15-.45-1.14-1.22,0-4.07,0-8.14,0-12.22,0-.9.16-1.06,1.07-1.06.6,0,.82-.2.83-.74s-.23-.8-.79-.83c-.35,0-.71,0-1.06,0h-4.92a.79.79,0,0,0-.84.86c0,.49.26.7.83.71.78,0,1,.19,1,1Z"></path>
  <path class="cls-11" d="M246.71,126.88h5.73c0-1.56,0-3.1,0-4.64,0-.51-.38-.61-.8-.63-.77,0-.91-.16-.9-.88,0-.52.25-.7.94-.7h5.55c.7,0,1,.32.91.95a.64.64,0,0,1-.69.63c-.88,0-1.1.24-1.1,1.14q0,6.29,0,12.59c0,.94.11,1.06,1,1.08a.71.71,0,0,1,.75.64c.1.56-.07.84-.56.94a4.38,4.38,0,0,1-.82.1H252a2.44,2.44,0,0,1-.81-.11.66.66,0,0,1-.41-.9,1.17,1.17,0,0,1,.69-.64c1-.21,1.08-.2,1.08-1.27,0-1.71,0-3.42,0-5.13,0-1.24-.3-1.16-1.14-1.15h-3.86c-.46,0-.72.09-.73.63,0,1.94-.06,3.87-.09,5.81a2.45,2.45,0,0,0,.11.71c.13.43.5.37.83.37a.79.79,0,0,1,.85.83c0,.53-.25.84-.94.85-1.8,0-3.6,0-5.4,0a1.18,1.18,0,0,1-.8-.28,1.09,1.09,0,0,1-.19-.85.74.74,0,0,1,.79-.55c.83,0,.95-.15.95-1,0-4.25,0-8.5,0-12.75,0-.44,0-1-.51-1a1,1,0,0,0-1,.8q-1,3.12-1.93,6.26c-.53,1.72-1.08,3.44-1.62,5.15-.36,1.16-.73,2.32-1.11,3.47a1.46,1.46,0,0,1-2,1.07c-.57-.17-.75-.69-.92-1.19-.79-2.33-1.56-4.67-2.34-7a1.19,1.19,0,0,0-.12-.24c-.26.69-.5,1.29-.72,1.9q-1,2.84-2,5.68a1.15,1.15,0,0,1-1,.88c-.71.05-1.36,0-1.67-.77-.4-1-.76-2-1.14-3-1-2.65-2-5.29-3-7.94l-1.47-4a1.61,1.61,0,0,0-1.41-1.2.67.67,0,0,1-.67-.82c0-.5.36-.66.83-.66,1.94,0,3.88,0,5.82,0a.74.74,0,1,1,.07,1.48.34.34,0,0,0-.1,0c-.93.1-1.13.39-.82,1.28,1.2,3.41,2.42,6.82,3.63,10.24a1.09,1.09,0,0,0,.15.18c.69-1.88,1.28-3.79,2.07-5.61.47-1.09,0-1.95-.27-2.89-.2-.66-.52-1.29-.68-2a1.4,1.4,0,0,0-1.25-1.13.72.72,0,0,1-.67-.87.77.77,0,0,1,.82-.71c1.89,0,3.77,0,5.66,0,.34,0,.66.13.7.55s-.1.8-.6.92a1.07,1.07,0,0,1-.19.07c-1,.25-1.1.47-.79,1.44q1.48,4.52,3,9c.09.28.16.56.28,1,.21-.61.39-1.12.55-1.63q1-3.25,2-6.52c.2-.66.39-1.33.57-2,.24-.89,0-1.16-.91-1.26-.68-.07-1-.74-.62-1.23a1,1,0,0,1,.72-.33q4.78,0,9.57,0c.55,0,.76.26.75.9,0,.45-.24.66-.74.67-.8,0-1,.18-1.05,1.07C246.68,124.07,246.71,125.46,246.71,126.88Z"></path>
  <path class="cls-11" d="M334.91,126.05c1-3.17,2.91-5.35,6.28-6a10.29,10.29,0,0,1,6.45.63,7.78,7.78,0,0,1,4.42,5.73,12.05,12.05,0,0,1-.37,6.75,7.9,7.9,0,0,1-6.28,5.3,9.63,9.63,0,0,1-6.32-.76,7.85,7.85,0,0,1-4.14-5.29s0,0-.07-.09c-.28.65-.52,1.31-.84,1.92a7.87,7.87,0,0,1-5.88,4.23,10.23,10.23,0,0,1-4.86-.23,7.79,7.79,0,0,1-5.53-5.86,11.7,11.7,0,0,1,.24-7.05,7.71,7.71,0,0,1,6.62-5.38,10.69,10.69,0,0,1,5.11.42,7.59,7.59,0,0,1,4.1,3.39A25.17,25.17,0,0,1,334.91,126.05Zm-13.44,3.23c0,.57.11,1.15.16,1.72a8.33,8.33,0,0,0,.94,3.27,4.1,4.1,0,0,0,7.19.33,9,9,0,0,0,1.28-4.35,12.22,12.22,0,0,0-.42-4.46,5.37,5.37,0,0,0-2.4-3.46,4,4,0,0,0-5.65,1.84A11.39,11.39,0,0,0,321.47,129.28Zm26.8-.06c-.1-.87-.15-1.74-.3-2.6a6.59,6.59,0,0,0-1.82-3.73,4,4,0,0,0-6,.65,9.4,9.4,0,0,0-1.45,4.83,11.56,11.56,0,0,0,.62,4.94,4.59,4.59,0,0,0,2.16,2.77,4.08,4.08,0,0,0,5.67-1.85A10.73,10.73,0,0,0,348.27,129.22Z"></path>
  <path class="cls-11" d="M264.57,118.63a6.17,6.17,0,0,1-3.21-.76,2.27,2.27,0,0,0-2.59.52c-.13.12-.29.2-.42.32a.63.63,0,0,1-.84.15.66.66,0,0,1-.27-.87,5.73,5.73,0,0,1,1.06-1.71,4.92,4.92,0,0,1,3.79-1.43,8.63,8.63,0,0,1,3,.92,17.42,17.42,0,0,0,1.67.71,3.2,3.2,0,0,0,.93,0l0-.16a3,3,0,0,0-.33-.29c-1.08-.69-2.15-1.4-3.24-2.07a5.18,5.18,0,0,0-2.88-.92,4.52,4.52,0,0,0-3.66,1.89c-.21.28-.28.65-.49.91a1,1,0,0,1-.69.32c-.17,0-.38-.33-.45-.55a3.14,3.14,0,0,1,.7-2.67,5.69,5.69,0,0,1,4-2.84,5,5,0,0,1,3.77.92,36.38,36.38,0,0,1,3.13,2.69,3.16,3.16,0,0,0,2.1.92,3,3,0,0,1,1.13.32c.49.25.57,1.19.2,1.81a5.93,5.93,0,0,1-2,1.76c-1.45.93-2.95,1.78-4.33,2.78a7.34,7.34,0,0,0-3.17,5.62,21.54,21.54,0,0,0-.1,2.89,8.15,8.15,0,0,0,2.35,5.64,4.36,4.36,0,0,0,5.34.31,6.07,6.07,0,0,0,2.13-3.7,14.7,14.7,0,0,0,.12-5.08,13,13,0,0,0-.63-2.67,6.14,6.14,0,0,0-2.43-2.81.91.91,0,0,1-.4-1.08c.1-.45.49-.4.85-.41a5.61,5.61,0,0,1,4.46,2.21,10.07,10.07,0,0,1,2.25,5.24,11.14,11.14,0,0,1-.95,6.63,7.66,7.66,0,0,1-6,4.32,16.07,16.07,0,0,1-2.77.2,8,8,0,0,1-5.37-2,8.71,8.71,0,0,1-2.74-5.11,12.45,12.45,0,0,1,.29-6,9,9,0,0,1,3.92-4.9c.86-.56,1.76-1.06,2.63-1.59a2.52,2.52,0,0,0,.25-.21Z"></path>
  <path class="cls-11" d="M359.59,119.72c1,.14,2.32.25,3.62.55a6.79,6.79,0,0,1,4,2.72,8.79,8.79,0,0,1,1.65,4.42,13.35,13.35,0,0,1-.31,5.15,7.58,7.58,0,0,1-6.2,5.76,19.76,19.76,0,0,1-3.75.3,16,16,0,0,1-6-1.12.92.92,0,0,1-.65-1.05c.07-.48.45-.53.8-.62.79-.2.79-.19.79-1V123.47c0-.76,0-.74-.74-.92-.35-.09-.79-.12-.84-.63a.87.87,0,0,1,.66-1,27.48,27.48,0,0,1,3.05-.82C356.79,119.86,358,119.85,359.59,119.72Zm-2.2,9.51v5.92c0,.7.18,1,.86,1.17a8,8,0,0,0,2.11.2,3.88,3.88,0,0,0,2.76-1.5,7.84,7.84,0,0,0,1.59-4.33,12.58,12.58,0,0,0-.55-5.62,5.25,5.25,0,0,0-1.51-2.35,4.26,4.26,0,0,0-3.68-1c-1,.17-1.61.45-1.59,1.78C357.41,125.42,357.39,127.32,357.39,129.23Z"></path>
  <path class="cls-11" d="M293.91,126.91c1.22,0,2.38,0,3.54,0,.61,0,1,.25,1,1s-.37,1-1,.93c-.85,0-1.69,0-2.54,0s-1,.25-1,1c0,1.6,0,3.21,0,4.81,0,1.16.34,1.46,1.51,1.47,1,0,2,0,3,0a2.5,2.5,0,0,0,2.35-1.26c.24-.4.5-.74,1.07-.66s.78.39.6.85c-.33.86-.71,1.7-1.05,2.56-.24.59-.81.48-1.21.49-3.56,0-7.12,0-10.68,0a1.47,1.47,0,0,1-.92-.27,1.11,1.11,0,0,1-.19-.85.73.73,0,0,1,.79-.56c.75,0,1-.23,1-1,0-4.18,0-8.36,0-12.53,0-.84-.18-1.43-1.18-1.29-.41.06-.55-.29-.59-.6s-.08-.73.38-.86a2.16,2.16,0,0,1,.61-.1H300a.92.92,0,0,1,1,.71c.21.67.48,1.33.75,2,.15.36.11.73-.22.86a1.52,1.52,0,0,1-1-.06c-.19-.06-.33-.31-.44-.5a2.29,2.29,0,0,0-2-1.07,26.61,26.61,0,0,0-3.22,0c-.8.06-1,.38-1,1.21C293.89,124.4,293.91,125.61,293.91,126.91Z"></path>
  <path class="cls-11" d="M374.21,119.75c.68.11,1.6.21,2.5.41a1.43,1.43,0,0,0,1-.14c.95-.48,1.28-.1,1.42.58.23,1.05.44,2.1.65,3.15.06.34,0,.69-.4.74a1.4,1.4,0,0,1-.91-.17,3.53,3.53,0,0,1-.68-.84,4.06,4.06,0,0,0-3.64-1.65,1.67,1.67,0,0,0-1.53,1,1.83,1.83,0,0,0,.21,1.84,13.39,13.39,0,0,0,3.1,2.52,13.8,13.8,0,0,1,3.56,3.11,5.75,5.75,0,0,1,.88,2.14,4.93,4.93,0,0,1-.8,4,5.4,5.4,0,0,1-3.8,2.13,9.84,9.84,0,0,1-4.44-.4.7.7,0,0,0-.53.13c-.93.67-1.43.5-1.71-.59l-.69-2.66c-.23-.91.17-1.55.94-1.42a1.42,1.42,0,0,1,.8.6,5,5,0,0,0,3.14,2.25c1.64.33,3.31,0,3.79-1.68a2.42,2.42,0,0,0-.47-2.11,12.92,12.92,0,0,0-3.12-2.68,34.48,34.48,0,0,1-2.94-2.14,4.58,4.58,0,0,1-1.37-5.57,4,4,0,0,1,3.14-2.33C372.87,119.83,373.42,119.83,374.21,119.75Z"></path>
  <path class="cls-11" d="M311.26,127.12h3.42c.72,0,1.12.34,1.12.93s-.43,1-1.11,1c-.9,0-1.8,0-2.7,0-.49,0-.73.21-.73.66q0,3,0,6.09c0,.63.22.75.85.79a1.6,1.6,0,0,1,.91.26,1.1,1.1,0,0,1,.19.85c0,.41-.44.55-.79.55-2,0-3.95,0-5.92,0-.64,0-.86-.28-.84-.83s.3-.79.86-.84c.84-.08.93-.19.94-1.08v-8.25c0-1.42,0-2.85,0-4.28,0-.15,0-.31,0-.46-.05-.5-.3-.73-.81-.65a.81.81,0,0,1-.8-1.25,1.15,1.15,0,0,1,.87-.41c3.43,0,6.87,0,10.31,0a.82.82,0,0,1,.87.59c.27.76.61,1.51.85,2.29a.8.8,0,0,1-.24.7.89.89,0,0,1-.78.06,1.46,1.46,0,0,1-.6-.63,2.07,2.07,0,0,0-1.88-1c-1,0-2,0-3,0-.56,0-.87.25-.89.81C311.24,124.32,311.26,125.69,311.26,127.12Z"></path>
  <path class="cls-11" d="M276.35,129.08v-6.5c0-.78-.19-1-1-1-.57,0-.82-.22-.83-.71a.79.79,0,0,1,.84-.86h4.92c.35,0,.71,0,1.06,0,.56,0,.81.3.79.83s-.23.74-.83.74c-.91,0-1.07.16-1.07,1.06,0,4.08,0,8.15,0,12.22,0,.77.3,1.19,1.14,1.22,1.14,0,2.29,0,3.44,0a2.42,2.42,0,0,0,1.76-1.11c.24-.3.46-.62.72-.89a.73.73,0,0,1,1-.05.66.66,0,0,1,.2.92c-.33.76-.68,1.52-.93,2.3a1.09,1.09,0,0,1-1.17.83c-3.56,0-7.12,0-10.68,0-.92,0-1.08-.19-1.08-.8s.25-.84.86-.87.84-.2.84-.89Z"></path>
  <path class="cls-11" d="M379.46,142.7a4.47,4.47,0,0,0-4.4-2.56H225.51a5.57,5.57,0,0,0-1.35.13,4.37,4.37,0,0,0-3.43,5.26A4.29,4.29,0,0,0,225,149q37.63,0,75.28,0h75.38a2.46,2.46,0,0,0,.47,0A4.43,4.43,0,0,0,379.46,142.7Zm-137.58,3.92c0,.21.3.42.46.62a2.45,2.45,0,0,1-2.11-.06c.79-.22.54-.84.56-1.36a16.53,16.53,0,0,0-.1-2.41c-.22.34-.43.66-.64,1s-.42.68-.63,1-.35.28-.54,0a15.56,15.56,0,0,0-1.46-2c0,1.1,0,2.19,0,3.29a.17.17,0,0,0,.06.12,4,4,0,0,0,.43.33h0a1.27,1.27,0,0,1-.79.26,1.94,1.94,0,0,1-1-.25l.57-.28v-4.59l-.52-.27a1.17,1.17,0,0,1,1.56.08l1.55,2.29c.5-.79,1-1.53,1.45-2.27a1.2,1.2,0,0,1,1.61-.1l-.54.27C241.86,143.73,241.84,145.18,241.88,146.62Zm22.89.69c.07-.12.1-.22.14-.23.42-.06.56-.26.43-.67s-.21-.79-.78-.67a1.51,1.51,0,0,1-.52,0c-.54-.1-.73.19-.88.64s.21.61.51.78a1.64,1.64,0,0,1-1.79,0c.8-.2.81-.9,1-1.45.41-1.18.78-2.37,1.18-3.55a2.47,2.47,0,0,1,.39-.49c.16.14.38.26.45.43.38,1,.72,2.06,1.07,3.09a9.1,9.1,0,0,0,.45,1.27,4.54,4.54,0,0,0,.65.79A4.52,4.52,0,0,1,264.77,147.31Zm26.72.07a1.27,1.27,0,0,1-1.51-.44c-.47-.76-.91-1.54-1.39-2.35l.44-.17a1.25,1.25,0,0,0,.51-2,1,1,0,0,0-.78-.24c-.31,0-.47.28-.46.65,0,1.21.05,2.43,0,3.64,0,.49.41.45.6.78a3.43,3.43,0,0,1-2.3-.08l.55-.31c0-1.33,0-2.74,0-4.15,0-.16-.23-.32-.41-.54.11-.07.23-.21.38-.24a5.45,5.45,0,0,1,2.63-.14c.75.2,1.21.65,1.23,1.28,0,.81-.29,1.25-1.19,1.55.43.7.82,1.37,1.24,2,.1.15.31.21.47.32l.21.18C291.62,147.24,291.57,147.34,291.49,147.38Zm19.69-.12c1-.38.67-1.12.7-1.72.05-.91,0-1.83,0-2.75,0-.28,0-.53-.38-.57a.27.27,0,0,1-.13-.2c0-.06.11-.17.16-.17.61,0,1.22,0,1.83,0,0,0,.06.08.14.18-.86.28-.53,1-.55,1.56,0,.81,0,1.62,0,2.43,0,.45-.16,1,.56,1.16A3.52,3.52,0,0,1,311.18,147.26Zm3.75-.13c-.54-.76-1-1.55-1.55-2.33-.21-.32,0-.54.17-.78.43-.53.84-1.08,1.3-1.68-.23-.06-.39-.06-.48-.14a.32.32,0,0,1,0-.31,2.53,2.53,0,0,1,1.74.19c-1,.23-1.24,1.16-1.81,1.79a.52.52,0,0,0,0,.47c.44.72.9,1.44,1.39,2.13a5.6,5.6,0,0,0,.8.73A1.09,1.09,0,0,1,314.93,147.13Zm24.8.3c-1.05,0-2.11,0-3.17,0a3.07,3.07,0,0,1-.59-.18l.66-.33v-4.59L336,142a2.46,2.46,0,0,1,.57-.17c1,0,2,0,3,0a.75.75,0,0,1,.59,1.08c-.59-.88-1.45-.43-2.24-.56V144c.32,0,.67,0,1,0,.1,0,.2.13.31.2-.11.08-.2.2-.31.21-.33,0-.66,0-1.05,0,0,.74,0,1.42,0,2.1a.5.5,0,0,0,.36.31,3.55,3.55,0,0,0,1.26,0,3.26,3.26,0,0,0,.89-.54C340.49,146.71,340.12,147.42,339.73,147.43Zm24.9-4.43a1.27,1.27,0,0,0-1.62-.55c0,.24,0,.55,0,.86,0,.91,0,1.83,0,2.75,0,.46-.19,1,.73,1-.69.49-2.14.45-2.46,0,.64,0,.56-.46.55-.87v-3.78a1.32,1.32,0,0,0-1.63.58c-.22-.5.15-1.18.58-1.19h3.28C364.5,141.83,364.86,142.54,364.63,143Z"></path>
  <path class="cls-11" d="M264.94,145.17l-.68-2.15-.65,2.15Z"></path>
  <circle class="cls-3" cx="217.69" cy="91.01" r="6.44"></circle>
  <rect class="cls-3" x="197.38" y="103.89" width="8.2" height="9.8"></rect>
  <path class="cls-14" d="M201.48,103.89V97.56A6.55,6.55,0,0,1,208,91h9.66"></path>
  <path class="cls-7" d="M195.7,113.69h11.56a13.85,13.85,0,0,1,13.85,13.85v0a0,0,0,0,1,0,0H181.85a0,0,0,0,1,0,0v0A13.85,13.85,0,0,1,195.7,113.69Z"></path>
  <circle class="cls-3" cx="314.7" cy="91.01" r="6.44"></circle>
  <rect class="cls-3" x="294.39" y="103.89" width="8.2" height="9.8"></rect>
  <path class="cls-14" d="M298.49,103.89V97.56A6.56,6.56,0,0,1,305,91h9.66"></path>
  <path class="cls-7" d="M292.71,113.69h11.56a13.85,13.85,0,0,1,13.85,13.85v0a0,0,0,0,1,0,0H278.86a0,0,0,0,1,0,0v0a13.85,13.85,0,0,1,13.85-13.85Z"></path>
  <circle class="cls-3" cx="411.71" cy="91.01" r="6.44"></circle>
  <rect class="cls-3" x="391.4" y="103.89" width="8.2" height="9.8"></rect>
  <path class="cls-14" d="M395.5,103.89V97.56A6.56,6.56,0,0,1,402.05,91h9.66"></path>
  <path class="cls-7" d="M389.72,113.69h11.56a13.85,13.85,0,0,1,13.85,13.85v0a0,0,0,0,1,0,0H375.87a0,0,0,0,1,0,0v0A13.85,13.85,0,0,1,389.72,113.69Z"></path>
  <rect class="cls-3" x="91.57" y="155.89" width="416.87" height="59.52"></rect>
  <rect class="cls-3" x="91.57" y="155.89" width="19.84" height="19.84"></rect>
  <rect class="cls-3" x="91.57" y="175.73" width="19.84" height="19.84"></rect>
  <rect class="cls-3" x="91.57" y="195.57" width="19.84" height="19.84"></rect>
  <rect class="cls-3" x="111.41" y="155.89" width="19.84" height="19.84"></rect>
  <rect class="cls-3" x="111.41" y="175.73" width="19.84" height="19.84"></rect>
  <rect class="cls-3" x="111.41" y="195.57" width="19.84" height="19.84"></rect>
  <rect class="cls-3" x="131.25" y="155.89" width="19.84" height="19.84"></rect>
  <rect class="cls-3" x="131.25" y="175.73" width="19.84" height="19.84"></rect>
  <rect class="cls-3" x="131.25" y="195.57" width="19.84" height="19.84"></rect>
  <rect class="cls-3" x="151.09" y="155.89" width="19.84" height="19.84"></rect>
  <rect class="cls-3" x="151.09" y="175.73" width="19.84" height="19.84"></rect>
  <rect class="cls-3" x="151.09" y="195.57" width="19.84" height="19.84"></rect>
  <rect class="cls-3" x="170.93" y="155.89" width="19.84" height="19.84"></rect>
  <rect class="cls-3" x="170.93" y="175.73" width="19.84" height="19.84"></rect>
  <rect class="cls-3" x="170.93" y="195.57" width="19.84" height="19.84"></rect>
  <rect class="cls-3" x="190.77" y="155.89" width="19.84" height="19.84"></rect>
  <rect class="cls-3" x="190.77" y="175.73" width="19.84" height="19.84"></rect>
  <rect class="cls-3" x="190.77" y="195.57" width="19.84" height="19.84"></rect>
  <rect class="cls-3" x="210.61" y="155.89" width="19.84" height="19.84"></rect>
  <rect class="cls-3" x="210.61" y="175.73" width="19.84" height="19.84"></rect>
  <rect class="cls-3" x="210.61" y="195.57" width="19.84" height="19.84"></rect>
  <rect class="cls-3" x="230.45" y="155.89" width="19.84" height="19.84"></rect>
  <rect class="cls-3" x="230.45" y="175.73" width="19.84" height="19.84"></rect>
  <rect class="cls-3" x="230.45" y="195.57" width="19.84" height="19.84"></rect>
  <rect class="cls-3" x="250.29" y="155.89" width="19.84" height="19.84"></rect>
  <rect class="cls-3" x="250.29" y="175.73" width="19.84" height="19.84"></rect>
  <rect class="cls-3" x="250.29" y="195.57" width="19.84" height="19.84"></rect>
  <rect class="cls-3" x="270.13" y="155.89" width="19.84" height="19.84"></rect>
  <rect class="cls-3" x="270.13" y="175.73" width="19.84" height="19.84"></rect>
  <rect class="cls-3" x="270.13" y="195.57" width="19.84" height="19.84"></rect>
  <rect class="cls-3" x="289.97" y="155.89" width="19.84" height="19.84"></rect>
  <rect class="cls-3" x="289.97" y="175.73" width="19.84" height="19.84"></rect>
  <rect class="cls-3" x="289.97" y="195.57" width="19.84" height="19.84"></rect>
  <rect class="cls-3" x="309.81" y="155.89" width="19.84" height="19.84"></rect>
  <rect class="cls-3" x="309.81" y="175.73" width="19.84" height="19.84"></rect>
  <rect class="cls-3" x="309.81" y="195.57" width="19.84" height="19.84"></rect>
  <rect class="cls-3" x="329.65" y="155.89" width="19.84" height="19.84"></rect>
  <rect class="cls-3" x="329.65" y="175.73" width="19.84" height="19.84"></rect>
  <rect class="cls-3" x="329.65" y="195.57" width="19.84" height="19.84"></rect>
  <rect class="cls-3" x="349.49" y="155.89" width="19.84" height="19.84"></rect>
  <rect class="cls-3" x="349.49" y="175.73" width="19.84" height="19.84"></rect>
  <rect class="cls-3" x="349.49" y="195.57" width="19.84" height="19.84"></rect>
  <rect class="cls-3" x="369.33" y="155.89" width="19.84" height="19.84"></rect>
  <rect class="cls-3" x="369.33" y="175.73" width="19.84" height="19.84"></rect>
  <rect class="cls-3" x="369.33" y="195.57" width="19.84" height="19.84"></rect>
  <rect class="cls-3" x="389.17" y="155.89" width="19.84" height="19.84"></rect>
  <rect class="cls-3" x="389.17" y="175.73" width="19.84" height="19.84"></rect>
  <rect class="cls-3" x="389.17" y="195.57" width="19.84" height="19.84"></rect>
  <rect class="cls-3" x="409.01" y="155.89" width="19.84" height="19.84"></rect>
  <rect class="cls-3" x="409.01" y="175.73" width="19.84" height="19.84"></rect>
  <rect class="cls-3" x="409.01" y="195.57" width="19.84" height="19.84"></rect>
  <rect class="cls-3" x="428.85" y="155.89" width="19.84" height="19.84"></rect>
  <rect class="cls-3" x="428.85" y="175.73" width="19.84" height="19.84"></rect>
  <rect class="cls-3" x="428.85" y="195.57" width="19.84" height="19.84"></rect>
  <rect class="cls-3" x="448.69" y="155.89" width="19.84" height="19.84"></rect>
  <rect class="cls-3" x="448.69" y="175.73" width="19.84" height="19.84"></rect>
  <rect class="cls-3" x="448.69" y="195.57" width="19.84" height="19.84"></rect>
  <rect class="cls-3" x="468.54" y="155.89" width="19.84" height="19.84"></rect>
  <rect class="cls-3" x="468.54" y="175.73" width="19.84" height="19.84"></rect>
  <rect class="cls-3" x="468.54" y="195.57" width="19.84" height="19.84"></rect>
  <rect class="cls-3" x="488.38" y="155.89" width="19.84" height="19.84"></rect>
  <rect class="cls-3" x="488.38" y="175.73" width="19.84" height="19.84"></rect>
  <rect class="cls-3" x="488.38" y="195.57" width="19.84" height="19.84"></rect>
  <rect class="cls-3" x="91.57" y="214.88" width="416.87" height="7.09"></rect>
  <rect class="cls-7" x="100.98" y="280.94" width="398.06" height="9.4" transform="translate(600.01 571.29) rotate(180)"></rect>
  <path class="cls-7" d="M490.6,222H413.41v59h85.36V222Zm0,50.8h-69V230.15h69Z"></path>
  <path class="cls-7" d="M395.32,222H195.47v59h208V222Zm0,50.8H203.65V230.15H395.32Z"></path>
  <path class="cls-7" d="M178.16,222H101v59h85.36V222Zm0,50.8h-69V230.15h69Z"></path>
  <rect class="cls-7" x="100.54" y="398.7" width="99.72" height="13.05"></rect>
  <rect class="cls-7" x="398.83" y="398.7" width="99.72" height="13.05"></rect>
  <rect class="cls-7" x="100.54" y="411.75" width="94.92" height="67.59"></rect>
  <rect class="cls-7" x="404.01" y="411.75" width="94.54" height="67.59"></rect>
  <rect class="cls-13" x="284.61" y="335.22" width="133.77" height="74.02" transform="translate(723.72 20.74) rotate(90)"></rect>
  <rect class="cls-7" x="275.86" y="375.82" width="14.11" height="35.93"></rect>
  <rect class="cls-7" x="307.43" y="375.82" width="14.11" height="35.93"></rect>
  <rect class="cls-7" x="219.97" y="453.14" width="55.02" height="13.06"></rect>
  <rect class="cls-7" x="323.98" y="453.14" width="55.02" height="13.06"></rect>
  <path class="cls-11" d="M423.27,488.67l-11.49-67.55a1.44,1.44,0,0,0-1.63-1.15l-1,.18a5.18,5.18,0,0,0-10.2,0l-1-.18a1.42,1.42,0,0,0-1.62,1.15l-11.5,67.55a1.41,1.41,0,0,0,1.15,1.62l6.08,1,.24,0a1.37,1.37,0,0,0,.81-.26,1.42,1.42,0,0,0,.58-.91L404,429l10.41,61.16a1.4,1.4,0,0,0,1.38,1.17l.24,0,6.08-1A1.4,1.4,0,0,0,423.27,488.67Z"></path>
  <rect class="cls-3" x="81.71" y="432.12" width="76.61" height="11.71"></rect>
  <rect class="cls-3" x="81.71" y="443.83" width="76.61" height="11.71"></rect>
  <rect class="cls-3" x="81.71" y="455.54" width="76.61" height="11.71"></rect>
  <rect class="cls-3" x="81.71" y="467.25" width="76.61" height="11.71"></rect>
  <rect class="cls-3" x="81.71" y="478.96" width="76.61" height="11.71"></rect>
  <rect class="cls-3" x="86.05" y="432.12" width="5.52" height="58.55"></rect>
  <rect class="cls-3" x="117.26" y="432.12" width="5.52" height="58.55"></rect>
  <rect class="cls-3" x="147.24" y="432.12" width="5.52" height="58.55"></rect>
  <path class="cls-7" d="M123.24,380.24h.46a8.85,8.85,0,0,1,8.85,8.85v0a0,0,0,0,1,0,0h-.46a8.85,8.85,0,0,1-8.85-8.85v0A0,0,0,0,1,123.24,380.24Z" transform="translate(199.63 -14.31) rotate(28.58)"></path>
  <path class="cls-3" d="M130.37,388.43a14.82,14.82,0,0,1,4.35-4.32"></path>
  <path class="cls-7" d="M148.6,381.47h.46a0,0,0,0,1,0,0v0a8.85,8.85,0,0,1-8.85,8.85h-.46a0,0,0,0,1,0,0v0A8.85,8.85,0,0,1,148.6,381.47Z" transform="translate(352.06 741.77) rotate(170.25)"></path>
  <path class="cls-3" d="M140.84,388.66a14.74,14.74,0,0,0-2.72-5.49"></path>
  <path class="cls-7" d="M149.26,389.38h.46a8.85,8.85,0,0,1,8.85,8.85v0a0,0,0,0,1,0,0h-.46a8.85,8.85,0,0,1-8.85-8.85v0A0,0,0,0,1,149.26,389.38Z" transform="translate(207.18 -25.64) rotate(28.58)"></path>
  <circle class="cls-3" cx="129.78" cy="394.07" r="5.85"></circle>
  <circle class="cls-3" cx="140.81" cy="394.65" r="5.85"></circle>
  <circle class="cls-3" cx="153.25" cy="402.02" r="5.85"></circle>
  <circle class="cls-3" cx="122.74" cy="402.78" r="5.85"></circle>
  <circle class="cls-3" cx="132.58" cy="403.13" r="5.85"></circle>
  <circle class="cls-3" cx="144.27" cy="403.13" r="5.85"></circle>
  <rect class="cls-4" x="118.09" y="410.98" width="38.88" height="17.17"></rect>
  <rect class="cls-4" x="113.37" y="427.28" width="47.05" height="4.84"></rect>
  <rect class="cls-4" x="113.37" y="406.14" width="47.05" height="4.84"></rect>
  <line class="cls-4" x1="147.06" y1="410.98" x2="147.06" y2="427.28"></line>
  <line class="cls-4" x1="136.9" y1="410.98" x2="136.9" y2="427.28"></line>
  <line class="cls-4" x1="126.73" y1="410.98" x2="126.73" y2="427.28"></line>
  <path class="cls-3" d="M156.4,397.57a14.72,14.72,0,0,1,4.35-4.31"></path>
  <rect class="cls-3" x="168.55" y="409.59" width="20.11" height="20.11" rx="10.05"></rect>
  <rect class="cls-3" x="192.79" y="402.64" width="20.11" height="20.11" rx="10.05"></rect>
  <rect class="cls-3" x="175.74" y="419.07" width="20.11" height="20.11" rx="10.05"></rect>
  <rect class="cls-3" x="199.98" y="412.12" width="20.11" height="20.11" rx="10.05"></rect>
  <rect class="cls-3" x="209.5" y="441.2" width="20.11" height="20.11" rx="10.05"></rect>
  <rect class="cls-3" x="193.53" y="424.56" width="20.11" height="20.11" rx="10.05"></rect>
  <rect class="cls-3" x="181.77" y="411.29" width="20.11" height="20.11" rx="10.05"></rect>
  <rect class="cls-3" x="194.24" y="439.38" width="20.11" height="20.11" rx="10.05"></rect>
  <rect class="cls-3" x="160.45" y="431.15" width="20.11" height="20.11" rx="10.05"></rect>
  <rect class="cls-3" x="164.58" y="444.67" width="20.11" height="20.11" rx="10.05"></rect>
  <rect class="cls-3" x="180.88" y="436.02" width="20.11" height="20.11" rx="10.05"></rect>
  <rect class="cls-3" x="179.53" y="447.48" width="20.11" height="20.11" rx="10.05"></rect>
  <rect class="cls-3" x="198.58" y="454.72" width="20.11" height="20.11" rx="10.05"></rect>
  <rect class="cls-3" x="208.63" y="466.25" width="20.11" height="20.11" rx="10.05"></rect>
  <rect class="cls-3" x="194.24" y="467.34" width="20.11" height="20.11" rx="10.05"></rect>
  <rect class="cls-3" x="178.47" y="467.34" width="20.11" height="20.11" rx="10.05"></rect>
  <rect class="cls-3" x="165.44" y="467.34" width="20.11" height="20.11" rx="10.05"></rect>
  <polygon class="cls-7" points="158.33 448.83 158.33 458.16 158.33 491.35 168.46 491.35 168.46 458.16 163.39 448.83 158.33 448.83"></polygon>
  <polygon class="cls-7" points="227.54 448.83 222.48 458.16 222.48 491.35 232.61 491.35 232.61 458.16 232.61 448.83 227.54 448.83"></polygon>
  <rect class="cls-7" x="158.33" y="478.32" width="74.29" height="13.03"></rect>
  <rect class="cls-7" x="158.33" y="463.43" width="74.29" height="10.12"></rect>
  <polygon class="cls-7" points="158.33 409.89 158.33 419.22 158.33 452.41 168.46 452.41 168.46 419.22 163.39 409.89 158.33 409.89"></polygon>
  <polygon class="cls-7" points="227.54 409.89 222.48 419.22 222.48 452.41 232.61 452.41 232.61 419.22 232.61 409.89 227.54 409.89"></polygon>
  <rect class="cls-7" x="158.33" y="439.38" width="74.29" height="13.03"></rect>
  <rect class="cls-7" x="158.33" y="424.49" width="74.29" height="10.12"></rect>
  <rect class="cls-7" x="84.48" y="410.89" width="38.88" height="17.17"></rect>
  <path class="cls-7" d="M107.26,382.43h.46a8.85,8.85,0,0,1,8.85,8.85v0a0,0,0,0,1,0,0h-.46a8.85,8.85,0,0,1-8.85-8.85v0A0,0,0,0,1,107.26,382.43Z" transform="matrix(0.3, 0.95, -0.95, 0.3, 447.02, 163.5)"></path>
  <path class="cls-3" d="M111.09,391.29a14.78,14.78,0,0,1,6.13-.1"></path>
  <path class="cls-3" d="M108,400l3.43-5.49a3,3,0,0,0-.46-3.71h0a3,3,0,0,0-3.81-.27l-5.41,3.93a4,4,0,0,0-2.22,2.88,4.56,4.56,0,0,0,1.17,4.35,4.49,4.49,0,0,0,6.33-.14A4.54,4.54,0,0,0,108,400Z"></path>
  <path class="cls-7" d="M119.59,387.78h.46a8.85,8.85,0,0,1,8.85,8.85v0a0,0,0,0,1,0,0h-.46a8.85,8.85,0,0,1-8.85-8.85v0a0,0,0,0,1,0,0Z" transform="translate(529.46 321.06) rotate(97.62)"></path>
  <path class="cls-3" d="M121.61,395.86a14.75,14.75,0,0,1,5.59,2.52"></path>
  <path class="cls-3" d="M115.13,402.47l5.44-3.51a3,3,0,0,0,1.17-3.56h0a3,3,0,0,0-3.34-1.86l-6.57,1.26a4,4,0,0,0-3.24,1.66,4.61,4.61,0,0,0-.79,4.43,4.51,4.51,0,0,0,5.8,2.57A4.44,4.44,0,0,0,115.13,402.47Z"></path>
  <path class="cls-7" d="M87.06,384.78h.46a8.85,8.85,0,0,1,8.85,8.85v0a0,0,0,0,1,0,0h-.46a8.85,8.85,0,0,1-8.85-8.85v0A0,0,0,0,1,87.06,384.78Z" transform="translate(230.51 14.19) rotate(33.57)"></path>
  <path class="cls-3" d="M93.86,393.18a14.71,14.71,0,0,1,4.71-3.93"></path>
  <path class="cls-3" d="M97,401.89l-.78-6.42a3,3,0,0,0-2.69-2.61h0A3,3,0,0,0,90.37,395l-1.75,6.46a4,4,0,0,0,.08,3.64,4.6,4.6,0,0,0,3.64,2.65,4.5,4.5,0,0,0,4.85-4.09A4.56,4.56,0,0,0,97,401.89Z"></path>
  <path class="cls-7" d="M122.25,398.25h.46a8.85,8.85,0,0,1,8.85,8.85v0a0,0,0,0,1,0,0h-.46a8.85,8.85,0,0,1-8.85-8.85v0a0,0,0,0,1,0,0Z" transform="translate(540.51 487.44) rotate(119.08)"></path>
  <path class="cls-3" d="M123.11,405.12a14.75,14.75,0,0,1,4.29,4.39"></path>
  <path class="cls-3" d="M114.67,408.9l6.34-1.28a3,3,0,0,0,2.39-2.89h0a3,3,0,0,0-2.42-2.94l-6.58-1.24a4,4,0,0,0-3.62.36,4.6,4.6,0,0,0-2.35,3.84,4.5,4.5,0,0,0,4.45,4.51A4.61,4.61,0,0,0,114.67,408.9Z"></path>
  <path class="cls-7" d="M72.54,390.95H73a8.85,8.85,0,0,1,8.85,8.85v0a0,0,0,0,1,0,0h-.46a8.85,8.85,0,0,1-8.85-8.85v0a0,0,0,0,1,0,0Z" transform="translate(-58.52 16.08) rotate(-8.64)"></path>
  <path class="cls-3" d="M81.45,396.88a14.76,14.76,0,0,1,.85-6.07"></path>
  <path class="cls-3" d="M89.6,401.24,84.71,397a3,3,0,0,0-3.74-.12h0a3,3,0,0,0-.85,3.71l3,6a4,4,0,0,0,2.51,2.64,4.55,4.55,0,0,0,4.47-.48,4.49,4.49,0,0,0-.54-7.48Z"></path>
  <path class="cls-7" d="M87,402.59h.46a8.85,8.85,0,0,1,8.85,8.85v0a0,0,0,0,1,0,0h-.46A8.85,8.85,0,0,1,87,402.59v0a0,0,0,0,1,0,0Z" transform="translate(-308.64 289.52) rotate(-60.95)"></path>
  <path class="cls-3" d="M95.48,404.57a14.79,14.79,0,0,1-4.29-4.38"></path>
  <path class="cls-3" d="M103.92,400.79l-6.35,1.28A3,3,0,0,0,95.19,405h0a3,3,0,0,0,2.42,2.94l6.58,1.24a4,4,0,0,0,3.62-.37,4.6,4.6,0,0,0,2.35-3.83,4.49,4.49,0,0,0-4.45-4.51A4.44,4.44,0,0,0,103.92,400.79Z"></path>
  <path class="cls-7" d="M97.33,386.14h.46a8.85,8.85,0,0,1,8.85,8.85v0a0,0,0,0,1,0,0h-.46a8.85,8.85,0,0,1-8.85-8.85v0A0,0,0,0,1,97.33,386.14Z" transform="translate(345.26 68.44) rotate(51.7)"></path>
  <path class="cls-3" d="M103,404.25l1.26-6.35a3,3,0,0,0-1.75-3.31h0a3,3,0,0,0-3.65,1.1l-3.67,5.6a4,4,0,0,0-1.06,3.48,4.58,4.58,0,0,0,2.64,3.64,4.48,4.48,0,0,0,6.23-4.16Z"></path>
  <rect class="cls-7" x="79.76" y="427.2" width="47.05" height="4.84"></rect>
  <rect class="cls-7" x="79.76" y="406.06" width="47.05" height="4.84"></rect>
  <line class="cls-4" x1="113.44" y1="410.89" x2="113.44" y2="427.2"></line>
  <line class="cls-4" x1="103.28" y1="410.89" x2="103.28" y2="427.2"></line>
  <line class="cls-4" x1="93.12" y1="410.89" x2="93.12" y2="427.2"></line>
  <line class="cls-8" x1="349.49" y1="305.34" x2="349.49" y2="327.4"></line>
  <rect class="cls-8" x="347.13" y="325.04" width="4.73" height="4.73"></rect>
  <circle class="cls-3" cx="349.49" cy="336.4" r="7.97"></circle>
  <line class="cls-8" x1="247.48" y1="305.34" x2="247.48" y2="327.4"></line>
  <rect class="cls-8" x="245.11" y="325.04" width="4.73" height="4.73"></rect>
  <circle class="cls-3" cx="247.48" cy="336.4" r="7.97"></circle>
</svg>
