<?xml version="1.0" encoding="UTF-8"?>
<svg xmlns="http://www.w3.org/2000/svg" xmlns:xlink="http://www.w3.org/1999/xlink" id="Layer_1" data-name="Layer 1" viewBox="0 0 600 600">
  <defs>
    <style>.cls-1,.cls-9{fill:none;}.cls-2{fill:#1c19a8;}.cls-3,.cls-8{fill:#fff;}.cls-4{fill:#00ab81;}.cls-4,.cls-5,.cls-6,.cls-7,.cls-8,.cls-9{stroke:#1c19a8;stroke-miterlimit:10;stroke-width:2.81px;}.cls-5{fill:url(#New_Blue_Dots);}.cls-6{fill:#ffde00;}.cls-7{fill:#fb715d;}</style>
    <pattern id="New_Blue_Dots" data-name="New Blue Dots" width="28.8" height="28.8" patternUnits="userSpaceOnUse" viewBox="0 0 28.8 28.8">
      <rect class="cls-1" width="28.8" height="28.8"></rect>
      <path class="cls-2" d="M28.8,30.24a1.44,1.44,0,1,0-1.44-1.44A1.44,1.44,0,0,0,28.8,30.24Z"></path>
      <path class="cls-2" d="M14.4,30.24A1.44,1.44,0,1,0,13,28.8,1.44,1.44,0,0,0,14.4,30.24Z"></path>
      <path class="cls-2" d="M28.8,15.84a1.44,1.44,0,1,0-1.44-1.44A1.44,1.44,0,0,0,28.8,15.84Z"></path>
      <path class="cls-2" d="M14.4,15.84A1.44,1.44,0,1,0,13,14.4,1.44,1.44,0,0,0,14.4,15.84Z"></path>
      <path class="cls-2" d="M7.2,23A1.44,1.44,0,1,0,5.76,21.6,1.44,1.44,0,0,0,7.2,23Z"></path>
      <path class="cls-2" d="M21.6,23a1.44,1.44,0,1,0-1.44-1.44A1.44,1.44,0,0,0,21.6,23Z"></path>
      <path class="cls-2" d="M7.2,8.64A1.44,1.44,0,1,0,5.76,7.2,1.44,1.44,0,0,0,7.2,8.64Z"></path>
      <path class="cls-2" d="M21.6,8.64A1.44,1.44,0,1,0,20.16,7.2,1.44,1.44,0,0,0,21.6,8.64Z"></path>
      <path class="cls-2" d="M0,30.24A1.44,1.44,0,0,0,1.44,28.8,1.45,1.45,0,0,0,0,27.36,1.44,1.44,0,0,0-1.44,28.8,1.43,1.43,0,0,0,0,30.24Z"></path>
      <path class="cls-2" d="M0,15.84A1.44,1.44,0,0,0,1.44,14.4,1.45,1.45,0,0,0,0,13,1.44,1.44,0,0,0-1.44,14.4,1.43,1.43,0,0,0,0,15.84Z"></path>
      <path class="cls-2" d="M28.8,1.44A1.45,1.45,0,0,0,30.24,0,1.45,1.45,0,0,0,28.8-1.44,1.44,1.44,0,0,0,27.36,0,1.44,1.44,0,0,0,28.8,1.44Z"></path>
      <path class="cls-2" d="M14.4,1.44A1.45,1.45,0,0,0,15.84,0,1.45,1.45,0,0,0,14.4-1.44,1.44,1.44,0,0,0,13,0,1.44,1.44,0,0,0,14.4,1.44Z"></path>
      <path class="cls-2" d="M0,1.44A1.45,1.45,0,0,0,1.44,0,1.45,1.45,0,0,0,0-1.44,1.44,1.44,0,0,0-1.44,0,1.44,1.44,0,0,0,0,1.44Z"></path>
    </pattern>
  </defs>
  <title>Shops_NEW_</title>
  <rect class="cls-3" x="79.49" y="259.27" width="423.29" height="222.19"></rect>
  <rect class="cls-4" x="307" y="274.11" width="5.5" height="217.12"></rect>
  <rect class="cls-4" x="366.42" y="274.11" width="5.5" height="217.12"></rect>
  <rect class="cls-4" x="425.84" y="274.11" width="5.5" height="217.12"></rect>
  <rect class="cls-5" x="253.08" y="283.15" width="53.92" height="169.99"></rect>
  <rect class="cls-5" x="312.51" y="283.15" width="53.92" height="169.99"></rect>
  <rect class="cls-5" x="371.93" y="283.15" width="53.92" height="169.99"></rect>
  <rect class="cls-5" x="431.35" y="283.15" width="53.92" height="169.99"></rect>
  <rect class="cls-6" x="85.56" y="187.66" width="412.42" height="55.5"></rect>
  <rect class="cls-6" x="110.97" y="274.35" width="129.31" height="216.89"></rect>
  <rect class="cls-4" x="97.99" y="274.11" width="12.81" height="217.12"></rect>
  <rect class="cls-4" x="81.9" y="463.62" width="28.9" height="27.61"></rect>
  <rect class="cls-4" x="485.26" y="274.09" width="32.76" height="217.14"></rect>
  <rect class="cls-4" x="485.26" y="264.77" width="32.76" height="9.32"></rect>
  <rect class="cls-4" x="481.36" y="236.1" width="40.56" height="7.16"></rect>
  <rect class="cls-4" x="481.36" y="198.11" width="40.56" height="7.16"></rect>
  <rect class="cls-4" x="485.26" y="243.26" width="32.76" height="21.51"></rect>
  <rect class="cls-4" x="485.26" y="205.22" width="32.76" height="30.88"></rect>
  <polygon class="cls-4" points="521.92 176.34 501.64 167.28 481.36 176.34 481.36 198.16 521.92 198.16 521.92 176.34"></polygon>
  <rect class="cls-4" x="65.52" y="274.09" width="32.76" height="217.14"></rect>
  <rect class="cls-4" x="65.52" y="264.77" width="32.76" height="9.32"></rect>
  <rect class="cls-4" x="61.62" y="236.1" width="40.56" height="7.16"></rect>
  <rect class="cls-4" x="61.62" y="198.11" width="40.56" height="7.16"></rect>
  <rect class="cls-4" x="65.52" y="243.26" width="32.76" height="21.51"></rect>
  <rect class="cls-4" x="65.52" y="205.22" width="32.76" height="30.88"></rect>
  <polygon class="cls-4" points="102.17 176.34 81.9 167.28 61.62 176.34 61.62 198.16 102.17 198.16 102.17 176.34"></polygon>
  <rect class="cls-4" x="480.19" y="349.67" width="42.9" height="9.64"></rect>
  <rect class="cls-4" x="480.19" y="453.14" width="42.9" height="38.1"></rect>
  <rect class="cls-4" x="65.52" y="453.14" width="51.9" height="10.49"></rect>
  <rect class="cls-4" x="60.45" y="349.67" width="42.9" height="9.64"></rect>
  <rect class="cls-4" x="60.45" y="453.14" width="38.1" height="38.1"></rect>
  <rect class="cls-4" x="240.28" y="274.11" width="12.81" height="217.12"></rect>
  <rect class="cls-4" x="98.27" y="264.77" width="386.99" height="9.32"></rect>
  <rect class="cls-4" x="235.35" y="453.14" width="244.84" height="10.49"></rect>
  <rect class="cls-4" x="240.28" y="463.62" width="239.91" height="27.61"></rect>
  <rect class="cls-7" x="60.45" y="269.11" width="462.65" height="14.04"></rect>
  <polygon class="cls-7" points="523.09 269.11 60.45 269.11 66.92 243.16 517.22 243.16 523.09 269.11"></polygon>
  <rect class="cls-4" x="102.18" y="176.58" width="379.19" height="11.07"></rect>
  <rect class="cls-8" x="120.54" y="295.7" width="46.28" height="162.68"></rect>
  <rect class="cls-8" x="183.77" y="295.7" width="46.54" height="162.68"></rect>
  <line class="cls-9" x1="175.62" y1="283.15" x2="175.62" y2="491.23"></line>
  <rect class="cls-8" x="120.54" y="295.7" width="46.28" height="162.68"></rect>
  <rect class="cls-8" x="183.77" y="295.7" width="46.54" height="162.68"></rect>
  <rect class="cls-6" x="156.98" y="375.22" width="11.72" height="35.64"></rect>
  <rect class="cls-6" x="180.65" y="375.22" width="11.72" height="35.64"></rect>
  <rect class="cls-6" x="128.78" y="471.27" width="29.79" height="9.22"></rect>
  <rect class="cls-6" x="192.15" y="471.27" width="29.79" height="9.22"></rect>
  <path class="cls-2" d="M236.27,211.06c0-1.42,0-2.81,0-4.2,0-.89.25-1.06,1.05-1.07.5,0,.73-.22.73-.68,0-.63-.19-.9-.74-.9-3.19,0-6.38,0-9.58,0a1.1,1.1,0,0,0-.72.33.77.77,0,0,0,.63,1.24c.94.1,1.14.37.91,1.26-.18.67-.37,1.33-.58,2q-1,3.25-2,6.51c-.16.52-.35,1-.55,1.63-.12-.39-.19-.68-.28-1-1-3-2-6-3-9-.31-1-.19-1.19.79-1.43l.19-.08c.5-.12.66-.36.6-.91s-.36-.55-.7-.55c-1.89,0-3.78,0-5.66,0a.79.79,0,0,0-.82.71.72.72,0,0,0,.67.88,1.4,1.4,0,0,1,1.25,1.12c.16.67.48,1.3.68,2,.28.93.74,1.8.27,2.89-.79,1.82-1.39,3.72-2.07,5.61-.06-.08-.13-.13-.15-.19-1.21-3.41-2.43-6.82-3.63-10.24-.31-.89-.11-1.17.82-1.28h.1a.74.74,0,1,0-.07-1.47h-5.82c-.47,0-.8.16-.84.67a.67.67,0,0,0,.67.81,1.62,1.62,0,0,1,1.42,1.21l1.47,4c1,2.64,2,5.29,3,7.94.38,1,.74,2,1.14,3,.31.76,1,.83,1.67.77a1.15,1.15,0,0,0,1-.88c.68-1.89,1.34-3.79,2-5.68.22-.6.46-1.2.72-1.89a1.73,1.73,0,0,1,.12.23c.78,2.34,1.55,4.68,2.34,7,.17.49.35,1,.92,1.19a1.46,1.46,0,0,0,2-1.08c.38-1.15.75-2.3,1.11-3.46l1.62-5.16c.64-2.08,1.27-4.17,1.93-6.26a1,1,0,0,1,1-.8c.48.07.5.59.5,1V219.6c0,.85-.11,1-.94,1a.73.73,0,0,0-.79.56,1.14,1.14,0,0,0,.18.85,1.17,1.17,0,0,0,.81.27c1.8,0,3.6,0,5.39,0,.7,0,1-.32.95-.85a.78.78,0,0,0-.85-.83c-.33,0-.71.06-.83-.37a2.51,2.51,0,0,1-.11-.72c0-1.93.08-3.87.09-5.8,0-.54.26-.64.73-.64,1.28,0,2.57,0,3.86,0,.84,0,1.12-.1,1.14,1.14,0,1.71,0,3.43,0,5.14,0,1.07,0,1.06-1.08,1.27a1.14,1.14,0,0,0-.69.64.64.64,0,0,0,.41.89,2.45,2.45,0,0,0,.81.12c1.59,0,3.18,0,4.76,0a3.76,3.76,0,0,0,.82-.11c.48-.1.66-.37.56-.93a.71.71,0,0,0-.75-.64c-.92,0-1-.15-1-1.09V206.93c0-.89.22-1.14,1.11-1.13a.63.63,0,0,0,.68-.63c.11-.63-.2-1-.9-1-1.85,0-3.7,0-5.55,0-.69,0-.93.18-.94.7,0,.72.13.86.9.88.42,0,.79.11.8.62,0,1.54,0,3.08,0,4.65Zm17.86-8.25,0,.14a2.52,2.52,0,0,1-.25.21c-.87.53-1.77,1-2.63,1.59a9.06,9.06,0,0,0-3.93,4.9,12.53,12.53,0,0,0-.28,6,8.75,8.75,0,0,0,2.73,5.12,8.08,8.08,0,0,0,5.38,2.05,16.08,16.08,0,0,0,2.77-.21,7.68,7.68,0,0,0,6-4.32,11.12,11.12,0,0,0,.95-6.63,10,10,0,0,0-2.25-5.23,5.61,5.61,0,0,0-4.46-2.21c-.36,0-.75-.05-.85.41a.91.91,0,0,0,.4,1.08,6.09,6.09,0,0,1,2.43,2.81,13.29,13.29,0,0,1,.62,2.67,14.16,14.16,0,0,1-.12,5.07,6,6,0,0,1-2.12,3.7,4.35,4.35,0,0,1-5.35-.31,8.09,8.09,0,0,1-2.34-5.63,21.48,21.48,0,0,1,.1-2.89,7.34,7.34,0,0,1,3.17-5.63c1.38-1,2.88-1.85,4.33-2.77a5.81,5.81,0,0,0,2-1.76c.38-.62.3-1.57-.19-1.81a2.87,2.87,0,0,0-1.13-.32,3.19,3.19,0,0,1-2.1-.92,34.7,34.7,0,0,0-3.13-2.69,5,5,0,0,0-3.77-.92,5.63,5.63,0,0,0-4,2.83,3.16,3.16,0,0,0-.7,2.68c.07.22.27.52.45.54a.9.9,0,0,0,.68-.32c.22-.25.29-.63.49-.9a4.56,4.56,0,0,1,3.66-1.9,5.2,5.2,0,0,1,2.89.93c1.09.67,2.16,1.38,3.24,2.07.12.08.22.19.33.28l0,.16a3.21,3.21,0,0,1-.93,0,15.28,15.28,0,0,1-1.67-.72,8.61,8.61,0,0,0-3-.91,4.87,4.87,0,0,0-3.79,1.43,5.56,5.56,0,0,0-1.06,1.7.66.66,0,0,0,.27.87c.32.21.58.09.84-.15s.29-.19.41-.31a2.27,2.27,0,0,1,2.6-.52A6.17,6.17,0,0,0,254.13,202.81Zm29.33,8.28c0-1.3,0-2.52,0-3.73,0-.83.24-1.15,1-1.22a24.71,24.71,0,0,1,3.22,0,2.28,2.28,0,0,1,2,1.07c.11.19.25.44.43.5a1.55,1.55,0,0,0,1,0c.33-.13.37-.49.22-.86a19.83,19.83,0,0,1-.75-2,.93.93,0,0,0-1-.71H278.87a2.59,2.59,0,0,0-.61.1c-.46.13-.42.54-.38.87s.18.66.58.6c1-.15,1.19.45,1.19,1.28,0,4.18,0,8.36,0,12.53,0,.78-.2,1-1,1a.75.75,0,0,0-.79.57,1.07,1.07,0,0,0,.19.85,1.47,1.47,0,0,0,.92.26c3.56,0,7.12,0,10.68,0,.4,0,1,.11,1.21-.49.34-.85.72-1.69,1.05-2.55.18-.46-.12-.79-.61-.86s-.82.27-1.07.66a2.49,2.49,0,0,1-2.35,1.27c-1,0-2,0-3,0-1.18,0-1.51-.31-1.51-1.47,0-1.6,0-3.2,0-4.81,0-.77.24-1,1-1s1.69,0,2.54,0a.83.83,0,0,0,1-.93.84.84,0,0,0-1-1C285.85,211.11,284.69,211.09,283.46,211.09Zm80.31-7.16c-.79.07-1.34.08-1.86.18a4,4,0,0,0-3.14,2.33,4.59,4.59,0,0,0,1.37,5.58,33,33,0,0,0,2.94,2.14,12.27,12.27,0,0,1,3.11,2.68,2.34,2.34,0,0,1,.47,2.1c-.47,1.65-2.14,2-3.78,1.68a5,5,0,0,1-3.15-2.25,1.43,1.43,0,0,0-.79-.59c-.77-.13-1.17.51-.94,1.42s.46,1.77.69,2.66c.28,1.09.78,1.25,1.71.58a.69.69,0,0,1,.53-.12,10,10,0,0,0,4.44.4,5.4,5.4,0,0,0,3.8-2.14,4.91,4.91,0,0,0,.8-4,5.94,5.94,0,0,0-.88-2.13,13.78,13.78,0,0,0-3.56-3.11,13.22,13.22,0,0,1-3.1-2.53,1.79,1.79,0,0,1-.21-1.83,1.65,1.65,0,0,1,1.53-1,4,4,0,0,1,3.64,1.64,3.58,3.58,0,0,0,.68.85,1.39,1.39,0,0,0,.9.17c.38,0,.47-.4.4-.74-.2-1.05-.41-2.11-.64-3.15-.15-.68-.47-1.07-1.43-.59a1.4,1.4,0,0,1-1,.15C365.37,204.13,364.45,204,363.77,203.93Zm-62.95,7.37c0-1.44,0-2.81,0-4.18,0-.56.33-.8.89-.8,1,0,2,0,3,0a2.09,2.09,0,0,1,1.88,1,1.53,1.53,0,0,0,.59.64,1,1,0,0,0,.79-.06.81.81,0,0,0,.24-.71c-.24-.78-.58-1.52-.85-2.29a.82.82,0,0,0-.88-.58c-3.43,0-6.87,0-10.31,0a1.18,1.18,0,0,0-.87.42.82.82,0,0,0,.81,1.25c.51-.09.76.14.8.64a3.75,3.75,0,0,1,.05.47c0,1.42,0,2.85,0,4.28,0,2.75,0,5.5,0,8.25,0,.89-.09,1-.93,1.07-.56.06-.85.34-.86.85s.2.82.84.83c2,0,3.95,0,5.92,0a.71.71,0,0,0,.79-.55,1.1,1.1,0,0,0-.2-.85,1.54,1.54,0,0,0-.9-.26c-.64,0-.84-.17-.85-.8,0-2,0-4.05,0-6.08,0-.46.24-.68.73-.66.9,0,1.8,0,2.7,0,.67,0,1.12-.38,1.11-1s-.41-.93-1.12-.93C303.13,211.29,302,211.3,300.82,211.3Zm-34.91,2v6.45c0,.7-.17.87-.85.9s-.84.28-.85.87.16.78,1.07.79c3.57,0,7.13,0,10.69,0a1.11,1.11,0,0,0,1.17-.83,24.22,24.22,0,0,1,.93-2.31.65.65,0,0,0-.2-.91.71.71,0,0,0-1,0c-.26.27-.48.59-.72.88a2.41,2.41,0,0,1-1.76,1.11c-1.15,0-2.3,0-3.44,0-.85,0-1.15-.44-1.15-1.21,0-4.07,0-8.15,0-12.22,0-.91.16-1.06,1.06-1.07.6,0,.83-.19.84-.74s-.23-.79-.79-.82c-.35,0-.71,0-1.06,0-1.64,0-3.28,0-4.92,0a.8.8,0,0,0-.84.87c0,.49.26.7.83.7.78,0,1,.2,1,1Z"></path>
  <path class="cls-2" d="M236.27,211.06H242c0-1.57,0-3.11,0-4.65,0-.51-.38-.61-.8-.62-.77,0-.91-.16-.9-.88,0-.52.25-.7.94-.7,1.85,0,3.7,0,5.55,0,.7,0,1,.33.9,1a.63.63,0,0,1-.68.63c-.89,0-1.11.24-1.11,1.13v12.59c0,.94.12,1.07,1,1.09a.71.71,0,0,1,.75.64c.1.56-.08.83-.56.93a3.76,3.76,0,0,1-.82.11c-1.58,0-3.17,0-4.76,0a2.45,2.45,0,0,1-.81-.12.64.64,0,0,1-.41-.89,1.14,1.14,0,0,1,.69-.64c1-.21,1.08-.2,1.08-1.27,0-1.71,0-3.43,0-5.14,0-1.24-.3-1.15-1.14-1.14-1.29,0-2.58,0-3.86,0-.47,0-.73.1-.73.64,0,1.93-.06,3.87-.09,5.8a2.51,2.51,0,0,0,.11.72c.12.43.5.36.83.37a.78.78,0,0,1,.85.83c0,.53-.25.83-.95.85-1.79,0-3.59,0-5.39,0a1.17,1.17,0,0,1-.81-.27,1.14,1.14,0,0,1-.18-.85.73.73,0,0,1,.79-.56c.83,0,.95-.15.94-1V206.86c0-.44,0-1-.5-1a1,1,0,0,0-1,.8c-.66,2.09-1.29,4.18-1.93,6.26l-1.62,5.16c-.36,1.16-.73,2.31-1.11,3.46a1.46,1.46,0,0,1-2,1.08c-.57-.18-.75-.7-.92-1.19-.79-2.33-1.56-4.67-2.34-7a1.73,1.73,0,0,0-.12-.23c-.26.69-.5,1.29-.72,1.89-.68,1.89-1.34,3.79-2,5.68a1.15,1.15,0,0,1-1,.88c-.71.06-1.36,0-1.67-.77-.4-1-.76-2-1.14-3-1-2.65-2-5.3-3-7.94l-1.47-4a1.62,1.62,0,0,0-1.42-1.21.67.67,0,0,1-.67-.81c0-.51.37-.67.84-.67h5.82a.74.74,0,1,1,.07,1.47h-.1c-.93.11-1.13.39-.82,1.28,1.2,3.42,2.42,6.83,3.63,10.24,0,.06.09.11.15.19.68-1.89,1.28-3.79,2.07-5.61.47-1.09,0-2-.27-2.89-.2-.67-.52-1.3-.68-2a1.4,1.4,0,0,0-1.25-1.12.72.72,0,0,1-.67-.88.79.79,0,0,1,.82-.71c1.88,0,3.77,0,5.66,0,.34,0,.66.13.7.55s-.1.79-.6.91l-.19.08c-1,.24-1.1.46-.79,1.43,1,3,2,6,3,9,.09.28.16.57.28,1,.2-.61.39-1.11.55-1.63q1-3.26,2-6.51c.21-.67.4-1.33.58-2,.23-.89,0-1.16-.91-1.26a.77.77,0,0,1-.63-1.24,1.1,1.1,0,0,1,.72-.33c3.2,0,6.39,0,9.58,0,.55,0,.75.27.74.9,0,.46-.23.67-.73.68-.8,0-1,.18-1.05,1.07C236.24,208.25,236.27,209.64,236.27,211.06Z"></path>
  <path class="cls-2" d="M324.47,210.22c1-3.17,2.91-5.34,6.28-6a10.15,10.15,0,0,1,6.45.63,7.79,7.79,0,0,1,4.42,5.72,12,12,0,0,1-.38,6.76,7.84,7.84,0,0,1-6.27,5.29,9.63,9.63,0,0,1-6.32-.76,7.85,7.85,0,0,1-4.14-5.29l-.07-.08c-.29.65-.52,1.3-.85,1.92a7.82,7.82,0,0,1-5.87,4.22,10,10,0,0,1-4.87-.23,7.77,7.77,0,0,1-5.52-5.85,11.66,11.66,0,0,1,.24-7.06,7.71,7.71,0,0,1,6.62-5.38,10.69,10.69,0,0,1,5.11.43,7.49,7.49,0,0,1,4.09,3.39A25.12,25.12,0,0,1,324.47,210.22ZM311,213.45c.05.58.11,1.15.15,1.73a8.73,8.73,0,0,0,.94,3.27,4.11,4.11,0,0,0,7.2.33,9,9,0,0,0,1.28-4.35,12.51,12.51,0,0,0-.42-4.47,5.4,5.4,0,0,0-2.4-3.46,4,4,0,0,0-5.65,1.84A11.42,11.42,0,0,0,311,213.45Zm26.8-.06c-.1-.86-.15-1.74-.3-2.59a6.56,6.56,0,0,0-1.82-3.73,4,4,0,0,0-6,.64,9.31,9.31,0,0,0-1.45,4.83,11.59,11.59,0,0,0,.62,5,4.6,4.6,0,0,0,2.16,2.76,4.08,4.08,0,0,0,5.67-1.85A10.71,10.71,0,0,0,337.83,213.39Z"></path>
  <path class="cls-2" d="M254.13,202.81a6.17,6.17,0,0,1-3.21-.76,2.27,2.27,0,0,0-2.6.52c-.12.12-.29.2-.41.31s-.52.36-.84.15a.66.66,0,0,1-.27-.87,5.56,5.56,0,0,1,1.06-1.7,4.87,4.87,0,0,1,3.79-1.43,8.61,8.61,0,0,1,3,.91,15.28,15.28,0,0,0,1.67.72,3.21,3.21,0,0,0,.93,0l0-.16c-.11-.09-.21-.2-.33-.28-1.08-.69-2.15-1.4-3.24-2.07a5.2,5.2,0,0,0-2.89-.93,4.56,4.56,0,0,0-3.66,1.9c-.2.27-.27.65-.49.9a.9.9,0,0,1-.68.32c-.18,0-.38-.32-.45-.54a3.16,3.16,0,0,1,.7-2.68,5.63,5.63,0,0,1,4-2.83,5,5,0,0,1,3.77.92,34.7,34.7,0,0,1,3.13,2.69,3.19,3.19,0,0,0,2.1.92,2.87,2.87,0,0,1,1.13.32c.49.24.57,1.19.19,1.81a5.81,5.81,0,0,1-2,1.76c-1.45.92-3,1.77-4.33,2.77a7.34,7.34,0,0,0-3.17,5.63,21.48,21.48,0,0,0-.1,2.89,8.09,8.09,0,0,0,2.34,5.63,4.35,4.35,0,0,0,5.35.31,6,6,0,0,0,2.12-3.7,14.16,14.16,0,0,0,.12-5.07,13.29,13.29,0,0,0-.62-2.67,6.09,6.09,0,0,0-2.43-2.81.91.91,0,0,1-.4-1.08c.1-.46.49-.41.85-.41a5.61,5.61,0,0,1,4.46,2.21,10,10,0,0,1,2.25,5.23,11.12,11.12,0,0,1-.95,6.63,7.68,7.68,0,0,1-6,4.32,16.08,16.08,0,0,1-2.77.21,8.08,8.08,0,0,1-5.38-2.05,8.75,8.75,0,0,1-2.73-5.12,12.53,12.53,0,0,1,.28-6,9.06,9.06,0,0,1,3.93-4.9c.86-.56,1.76-1.06,2.63-1.59a2.52,2.52,0,0,0,.25-.21Z"></path>
  <path class="cls-2" d="M349.15,203.9c1,.14,2.32.25,3.62.54a6.86,6.86,0,0,1,4,2.72,8.9,8.9,0,0,1,1.64,4.43,12.92,12.92,0,0,1-.31,5.14,7.53,7.53,0,0,1-6.19,5.76,19.8,19.8,0,0,1-3.76.3,15.75,15.75,0,0,1-6-1.12.91.91,0,0,1-.65-1c.07-.47.45-.53.8-.61.79-.2.79-.2.79-1V207.65c0-.76,0-.75-.74-.93-.35-.08-.79-.12-.84-.63a.86.86,0,0,1,.66-1,26.91,26.91,0,0,1,3.05-.82C346.35,204,347.57,204,349.15,203.9Zm-2.2,9.5c0,2,0,3.95,0,5.92,0,.7.18,1,.85,1.17a7.27,7.27,0,0,0,2.12.2,3.83,3.83,0,0,0,2.75-1.49,7.81,7.81,0,0,0,1.6-4.34,12.54,12.54,0,0,0-.55-5.61,5.37,5.37,0,0,0-1.51-2.36,4.29,4.29,0,0,0-3.68-1c-1,.18-1.61.45-1.59,1.79C347,209.59,347,211.5,347,213.4Z"></path>
  <path class="cls-2" d="M283.46,211.09c1.23,0,2.39,0,3.55,0a.84.84,0,0,1,1,1,.83.83,0,0,1-1,.93c-.85,0-1.7,0-2.54,0s-1,.26-1,1c0,1.61,0,3.21,0,4.81,0,1.16.33,1.47,1.51,1.47,1,0,2,0,3,0a2.49,2.49,0,0,0,2.35-1.27c.25-.39.51-.73,1.07-.66s.79.4.61.86c-.33.86-.71,1.7-1.05,2.55-.24.6-.81.49-1.21.49-3.56,0-7.12,0-10.68,0a1.47,1.47,0,0,1-.92-.26,1.07,1.07,0,0,1-.19-.85.75.75,0,0,1,.79-.57c.75,0,1-.23,1-1,0-4.17,0-8.35,0-12.53,0-.83-.18-1.43-1.19-1.28-.4.06-.55-.3-.58-.6s-.08-.74.38-.87a2.59,2.59,0,0,1,.61-.1h10.68a.93.93,0,0,1,1,.71,19.83,19.83,0,0,0,.75,2c.15.37.11.73-.22.86a1.55,1.55,0,0,1-1,0c-.18-.06-.32-.31-.43-.5a2.28,2.28,0,0,0-2-1.07,24.71,24.71,0,0,0-3.22,0c-.8.07-1,.39-1,1.22C283.44,208.57,283.46,209.79,283.46,211.09Z"></path>
  <path class="cls-2" d="M363.77,203.93c.68.11,1.6.2,2.5.41a1.4,1.4,0,0,0,1-.15c1-.48,1.28-.09,1.43.59.23,1,.44,2.1.64,3.15.07.34,0,.69-.4.74a1.39,1.39,0,0,1-.9-.17,3.58,3.58,0,0,1-.68-.85,4,4,0,0,0-3.64-1.64,1.65,1.65,0,0,0-1.53,1,1.79,1.79,0,0,0,.21,1.83,13.22,13.22,0,0,0,3.1,2.53,13.78,13.78,0,0,1,3.56,3.11,5.94,5.94,0,0,1,.88,2.13,4.91,4.91,0,0,1-.8,4,5.4,5.4,0,0,1-3.8,2.14,10,10,0,0,1-4.44-.4.69.69,0,0,0-.53.12c-.93.67-1.43.51-1.71-.58-.23-.89-.47-1.78-.69-2.66s.17-1.55.94-1.42a1.43,1.43,0,0,1,.79.59,5,5,0,0,0,3.15,2.25c1.64.34,3.31,0,3.78-1.68a2.34,2.34,0,0,0-.47-2.1,12.27,12.27,0,0,0-3.11-2.68,33,33,0,0,1-2.94-2.14,4.59,4.59,0,0,1-1.37-5.58,4,4,0,0,1,3.14-2.33C362.43,204,363,204,363.77,203.93Z"></path>
  <path class="cls-2" d="M300.82,211.3c1.2,0,2.31,0,3.42,0,.71,0,1.11.33,1.12.93s-.44,1-1.11,1c-.9,0-1.8,0-2.7,0-.49,0-.73.2-.73.66,0,2,0,4.05,0,6.08,0,.63.21.76.85.8a1.54,1.54,0,0,1,.9.26,1.1,1.1,0,0,1,.2.85.71.71,0,0,1-.79.55c-2,0-4,0-5.92,0-.64,0-.86-.28-.84-.83s.3-.79.86-.85c.84-.08.93-.18.93-1.07,0-2.75,0-5.5,0-8.25,0-1.43,0-2.86,0-4.28a3.75,3.75,0,0,0-.05-.47c0-.5-.29-.73-.8-.64a.82.82,0,0,1-.81-1.25,1.18,1.18,0,0,1,.87-.42c3.44,0,6.88,0,10.31,0a.82.82,0,0,1,.88.58c.27.77.61,1.51.85,2.29a.81.81,0,0,1-.24.71,1,1,0,0,1-.79.06,1.53,1.53,0,0,1-.59-.64,2.09,2.09,0,0,0-1.88-1c-1,0-2,0-3,0-.56,0-.88.24-.89.8C300.8,208.49,300.82,209.86,300.82,211.3Z"></path>
  <path class="cls-2" d="M265.91,213.26v-6.51c0-.77-.19-.95-1-1-.57,0-.82-.21-.83-.7a.8.8,0,0,1,.84-.87c1.64,0,3.28,0,4.92,0,.35,0,.71,0,1.06,0,.56,0,.81.3.79.82s-.24.74-.84.74c-.9,0-1.06.16-1.06,1.07,0,4.07,0,8.15,0,12.22,0,.77.3,1.18,1.15,1.21,1.14,0,2.29,0,3.44,0a2.41,2.41,0,0,0,1.76-1.11c.24-.29.46-.61.72-.88a.71.71,0,0,1,1,0,.65.65,0,0,1,.2.91,24.22,24.22,0,0,0-.93,2.31,1.11,1.11,0,0,1-1.17.83c-3.56,0-7.12,0-10.69,0-.91,0-1.08-.18-1.07-.79s.25-.85.85-.87.85-.2.85-.9Z"></path>
  <path class="cls-2" d="M369,226.88a4.49,4.49,0,0,0-4.4-2.57H215.07a6.11,6.11,0,0,0-1.35.12,4.38,4.38,0,0,0-3.44,5.26,4.3,4.3,0,0,0,4.28,3.49H365.22a3.68,3.68,0,0,0,.47,0A4.43,4.43,0,0,0,369,226.88ZM231.44,230.8c0,.21.3.41.46.62a2.48,2.48,0,0,1-2.11-.06c.79-.22.54-.85.56-1.36a16.45,16.45,0,0,0-.11-2.41l-.64,1-.62,1c-.19.3-.35.27-.54,0a17.56,17.56,0,0,0-1.46-2c0,1.1,0,2.2,0,3.3a.21.21,0,0,0,.05.11c.1.11.31.22.44.33h0a1.16,1.16,0,0,1-.79.26,1.75,1.75,0,0,1-1-.25l.57-.28V226.5l-.52-.26a1.16,1.16,0,0,1,1.55.07c.51.74,1,1.49,1.55,2.29.51-.79,1-1.53,1.46-2.26a1.19,1.19,0,0,1,1.61-.1l-.54.27C231.42,227.91,231.4,229.35,231.44,230.8Zm22.89.69c.07-.13.1-.23.14-.23.41-.06.56-.26.43-.68s-.21-.79-.78-.67a1.14,1.14,0,0,1-.52,0c-.54-.1-.73.19-.89.65s.21.6.51.78a1.64,1.64,0,0,1-1.78,0c.8-.21.81-.9,1-1.46.41-1.17.77-2.37,1.18-3.54a2,2,0,0,1,.39-.49c.15.14.38.25.45.43.37,1,.71,2.06,1.07,3.09a9.58,9.58,0,0,0,.45,1.27,5,5,0,0,0,.65.79A4.63,4.63,0,0,1,254.33,231.49Zm26.71.06a1.24,1.24,0,0,1-1.5-.43c-.47-.77-.91-1.54-1.39-2.35l.44-.17a1.26,1.26,0,0,0,.51-2,1.12,1.12,0,0,0-.78-.24c-.31,0-.47.29-.46.65,0,1.22.05,2.44,0,3.65,0,.48.41.45.6.78a3.43,3.43,0,0,1-2.3-.09l.55-.3c0-1.34,0-2.75,0-4.15,0-.16-.24-.32-.41-.54a1.6,1.6,0,0,1,.37-.25,5.75,5.75,0,0,1,2.64-.14,1.43,1.43,0,0,1,1.23,1.28c0,.82-.29,1.25-1.19,1.55.43.7.82,1.38,1.24,2,.1.14.31.21.47.32s.14.12.21.18S281.13,231.51,281,231.55Zm19.7-.11c1-.38.67-1.13.7-1.73,0-.91,0-1.83,0-2.74,0-.29,0-.54-.37-.58-.05,0-.13-.13-.13-.19s.1-.18.16-.18l1.83,0s.06.07.14.17c-.86.29-.53,1-.55,1.56,0,.81,0,1.63,0,2.44,0,.44-.16,1,.56,1.15A3.46,3.46,0,0,1,300.74,231.44Zm3.75-.13c-.54-.76-1-1.55-1.56-2.33-.2-.32,0-.54.18-.78.43-.53.84-1.08,1.3-1.69-.23-.06-.39,0-.48-.13a.32.32,0,0,1,0-.31,2.53,2.53,0,0,1,1.74.19c-1,.23-1.24,1.16-1.81,1.78a.49.49,0,0,0,0,.47c.44.73.9,1.44,1.39,2.13a5.16,5.16,0,0,0,.8.74A1.1,1.1,0,0,1,304.49,231.31Zm24.8.29c-1.06,0-2.11,0-3.17,0a3.34,3.34,0,0,1-.59-.19l.66-.33V226.5l-.65-.32a3.36,3.36,0,0,1,.57-.18h3a.73.73,0,0,1,.58,1.07c-.58-.88-1.44-.43-2.23-.55v1.7c.32,0,.66,0,1,0,.1,0,.2.13.31.2-.11.07-.2.2-.31.21-.33,0-.66,0-1.05,0,0,.73,0,1.41,0,2.09,0,.12.23.31.36.32a4.09,4.09,0,0,0,1.26,0,3.47,3.47,0,0,0,.89-.55C330.05,230.88,329.68,231.6,329.29,231.6Zm24.9-4.42a1.28,1.28,0,0,0-1.63-.56v.86c0,.92,0,1.84,0,2.75,0,.46-.19,1,.72,1-.68.5-2.13.46-2.45,0,.64,0,.56-.46.55-.88v-3.77a1.31,1.31,0,0,0-1.63.58c-.22-.5.15-1.19.58-1.19h3.28C354.06,226,354.42,226.72,354.19,227.18Z"></path>
  <path class="cls-2" d="M254.5,229.35l-.68-2.16-.65,2.16Z"></path>
</svg>
