<?xml version="1.0" encoding="UTF-8"?>
<svg xmlns="http://www.w3.org/2000/svg" xmlns:xlink="http://www.w3.org/1999/xlink" id="Layer_1" data-name="Layer 1" viewBox="0 0 600 600">
  <defs>
    <style>.cls-1,.cls-12{fill:none;}.cls-2{fill:#1c19a8;}.cls-3{fill:#fff;}.cls-11,.cls-4,.cls-6,.cls-7{fill:#ffde00;}.cls-10,.cls-11,.cls-12,.cls-4,.cls-5{stroke:#1c19a8;stroke-linejoin:round;stroke-width:2.82px;}.cls-13,.cls-5{fill:#00ab81;}.cls-6,.cls-8{fill-rule:evenodd;}.cls-10,.cls-14,.cls-8{fill:#fb715d;}.cls-9{fill:url(#New_Blue_Dots);}.cls-10,.cls-11,.cls-12{stroke-linecap:round;}</style>
    <pattern id="New_Blue_Dots" data-name="New Blue Dots" width="28.8" height="28.8" patternTransform="translate(190.56 9.95)" patternUnits="userSpaceOnUse" viewBox="0 0 28.8 28.8">
      <rect class="cls-1" width="28.8" height="28.8"></rect>
      <path class="cls-2" d="M28.8,30.24a1.44,1.44,0,1,0-1.44-1.44A1.44,1.44,0,0,0,28.8,30.24Z"></path>
      <path class="cls-2" d="M14.4,30.24A1.44,1.44,0,1,0,13,28.8,1.44,1.44,0,0,0,14.4,30.24Z"></path>
      <path class="cls-2" d="M28.8,15.84a1.44,1.44,0,1,0-1.44-1.44A1.44,1.44,0,0,0,28.8,15.84Z"></path>
      <path class="cls-2" d="M14.4,15.84A1.44,1.44,0,1,0,13,14.4,1.44,1.44,0,0,0,14.4,15.84Z"></path>
      <path class="cls-2" d="M7.2,23A1.44,1.44,0,1,0,5.76,21.6,1.44,1.44,0,0,0,7.2,23Z"></path>
      <path class="cls-2" d="M21.6,23a1.44,1.44,0,1,0-1.44-1.44A1.44,1.44,0,0,0,21.6,23Z"></path>
      <path class="cls-2" d="M7.2,8.64A1.44,1.44,0,1,0,5.76,7.2,1.44,1.44,0,0,0,7.2,8.64Z"></path>
      <path class="cls-2" d="M21.6,8.64A1.44,1.44,0,1,0,20.16,7.2,1.44,1.44,0,0,0,21.6,8.64Z"></path>
      <path class="cls-2" d="M0,30.24A1.44,1.44,0,0,0,1.44,28.8,1.45,1.45,0,0,0,0,27.36,1.44,1.44,0,0,0-1.44,28.8,1.43,1.43,0,0,0,0,30.24Z"></path>
      <path class="cls-2" d="M0,15.84A1.44,1.44,0,0,0,1.44,14.4,1.45,1.45,0,0,0,0,13,1.44,1.44,0,0,0-1.44,14.4,1.43,1.43,0,0,0,0,15.84Z"></path>
      <path class="cls-2" d="M28.8,1.44A1.45,1.45,0,0,0,30.24,0,1.45,1.45,0,0,0,28.8-1.44,1.44,1.44,0,0,0,27.36,0,1.44,1.44,0,0,0,28.8,1.44Z"></path>
      <path class="cls-2" d="M14.4,1.44A1.45,1.45,0,0,0,15.84,0,1.45,1.45,0,0,0,14.4-1.44,1.44,1.44,0,0,0,13,0,1.44,1.44,0,0,0,14.4,1.44Z"></path>
      <path class="cls-2" d="M0,1.44A1.45,1.45,0,0,0,1.44,0,1.45,1.45,0,0,0,0-1.44,1.44,1.44,0,0,0-1.44,0,1.44,1.44,0,0,0,0,1.44Z"></path>
    </pattern>
  </defs>
  <title>Shops_NEW</title>
  <rect class="cls-3" x="80.86" y="207.02" width="422.87" height="280.29"></rect>
  <line class="cls-4" x1="311.57" y1="237.9" x2="311.57" y2="314.91"></line>
  <rect class="cls-4" x="307.64" y="314.91" width="7.86" height="7.86"></rect>
  <circle class="cls-5" cx="311.57" cy="336.49" r="13.72"></circle>
  <path class="cls-6" d="M206.11,379.46a.43.43,0,0,0-.33.46v2.29a.42.42,0,0,0,.36.46h.1a1.6,1.6,0,0,1-.32.62,5.32,5.32,0,0,1-1,.86,4.65,4.65,0,0,0-1.13,1.06,3.37,3.37,0,0,0-.6,1.92h0V397.8a1.85,1.85,0,0,0,1.57,2h8.42a1.86,1.86,0,0,0,1.57-2V387.16h0a3.26,3.26,0,0,0-.59-1.91,5,5,0,0,0-1.13-1.08,5.24,5.24,0,0,1-1-.86,1.64,1.64,0,0,1-.32-.63h.12a.42.42,0,0,0,.36-.46l0-2.28a.59.59,0,0,0-.1-.33.34.34,0,0,0-.26-.14h-5.79Z"></path>
  <rect class="cls-7" x="170.01" y="340.75" width="12.1" height="13.61"></rect>
  <rect class="cls-7" x="188.7" y="340.75" width="12.1" height="13.61"></rect>
  <rect class="cls-7" x="185.03" y="424.9" width="12.1" height="13.61"></rect>
  <rect class="cls-7" x="210.85" y="424.9" width="12.1" height="13.61"></rect>
  <path class="cls-6" d="M173.48,379.46a.43.43,0,0,0-.32.46v2.29a.42.42,0,0,0,.36.46h.1a1.49,1.49,0,0,1-.33.62,5.24,5.24,0,0,1-1,.86,4.69,4.69,0,0,0-1.14,1.06,3.45,3.45,0,0,0-.6,1.92h0V397.8a1.86,1.86,0,0,0,1.58,2h8.41a1.86,1.86,0,0,0,1.58-2V387.16h0a3.26,3.26,0,0,0-.59-1.91,5,5,0,0,0-1.14-1.08,5.58,5.58,0,0,1-1-.86,1.49,1.49,0,0,1-.31-.63h.12a.42.42,0,0,0,.36-.46v-2.28a.47.47,0,0,0-.1-.33.33.33,0,0,0-.26-.14h-5.79Z"></path>
  <path class="cls-8" d="M204.79,399.83a1.85,1.85,0,0,1-1.58-2V387.13h0a3.37,3.37,0,0,1,.6-1.92,4.84,4.84,0,0,1,1.13-1.06,5.32,5.32,0,0,0,1-.86,1.6,1.6,0,0,0,.32-.62h-.09a.42.42,0,0,1-.36-.46v-2.29a.41.41,0,0,1,.32-.46h4.44v-.16h0a6,6,0,0,0-1.08-3.49,9.25,9.25,0,0,0-2.07-2,10.36,10.36,0,0,1-1.77-1.57,3,3,0,0,1-.57-1.15h.21a.77.77,0,0,0,.66-.85l0-4.15a.91.91,0,0,0-.19-.61.59.59,0,0,0-.47-.25H194.74a.8.8,0,0,0-.59.84v4.17a.78.78,0,0,0,.66.85H195a2.9,2.9,0,0,1-.58,1.13,9.72,9.72,0,0,1-1.79,1.56,9.08,9.08,0,0,0-2.06,1.94,6.07,6.07,0,0,0-1.1,3.5h0v19.47c0,2,1.3,3.69,2.88,3.69h15.34a3.05,3.05,0,0,0,2.7-2.59Z"></path>
  <path class="cls-2" d="M213.19,400.93h-8.41a2.93,2.93,0,0,1-2.67-3.12V387.13a4.51,4.51,0,0,1,.81-2.57,6,6,0,0,1,1.37-1.3l.53-.41a1.57,1.57,0,0,1-.14-.64v-2.29a1.52,1.52,0,0,1,1.27-1.55h6a1.39,1.39,0,0,1,1.12.56,1.66,1.66,0,0,1,.34,1l0,2.28a1.76,1.76,0,0,1-.13.66,5.08,5.08,0,0,0,.51.41,6.57,6.57,0,0,1,1.36,1.31,4.41,4.41,0,0,1,.79,2.55v10.67A2.93,2.93,0,0,1,213.19,400.93Zm-6.31-19.11a1,1,0,0,1,.18.17,1.14,1.14,0,0,1,.25.95,2.78,2.78,0,0,1-.53,1,6.57,6.57,0,0,1-1.18,1,4.13,4.13,0,0,0-.9.82,2.25,2.25,0,0,0-.39,1.3v10.66c0,.56.31.92.47.92h8.41c.17,0,.48-.36.48-.92V387.16a2.28,2.28,0,0,0-.38-1.28,4.37,4.37,0,0,0-.91-.85,6.47,6.47,0,0,1-1.17-1,2.76,2.76,0,0,1-.52-1.06,1.1,1.1,0,0,1,.21-.93.92.92,0,0,1,.25-.23v-1.2h-4.27Zm4.26.38h0Zm-5-.63Z"></path>
  <path class="cls-2" d="M207.67,403.52H192.33c-2.19,0-4-2.15-4-4.79V379.26a7.31,7.31,0,0,1,1.3-4.15,10.11,10.11,0,0,1,2.31-2.18,9,9,0,0,0,1.56-1.35,2,2,0,0,1-.47-1.31v-4.16a1.88,1.88,0,0,1,1.54-1.94h10.72a1.71,1.71,0,0,1,1.34.68,2.09,2.09,0,0,1,.41,1.29l0,4.15a2,2,0,0,1-.5,1.35,9.54,9.54,0,0,0,1.48,1.29,10.89,10.89,0,0,1,2.36,2.24,7.24,7.24,0,0,1,1.28,4.11,1.28,1.28,0,0,1-.32.87,1.17,1.17,0,0,1-.78.42h-3.66v1.26l.17.17a1.14,1.14,0,0,1,.25.95,2.64,2.64,0,0,1-.53,1,6.13,6.13,0,0,1-1.18,1,3.93,3.93,0,0,0-.9.82,2.26,2.26,0,0,0-.39,1.3v10.66c0,.56.31.92.47.92h5.59a1.09,1.09,0,0,1,.86.42,1.12,1.12,0,0,1,.21,1A4.11,4.11,0,0,1,207.67,403.52ZM195.25,370.1a1.15,1.15,0,0,1,.51.34,1.17,1.17,0,0,1,.29.95,3.88,3.88,0,0,1-.79,1.55,11.12,11.12,0,0,1-2,1.75,8,8,0,0,0-1.84,1.71,5,5,0,0,0-.89,2.87v19.46c0,1.38.83,2.59,1.78,2.59h15.34a1.33,1.33,0,0,0,.89-.39h-3.78a2.93,2.93,0,0,1-2.67-3.12V387.13a4.46,4.46,0,0,1,.81-2.56,6,6,0,0,1,1.36-1.3c.19-.14.38-.28.54-.42a1.56,1.56,0,0,1-.13-.64v-2.29a1.52,1.52,0,0,1,1.26-1.55h3.4a4.5,4.5,0,0,0-.77-1.91,8.38,8.38,0,0,0-1.84-1.74,10.14,10.14,0,0,1-2-1.77,3.86,3.86,0,0,1-.78-1.57,1.1,1.1,0,0,1,.84-1.33l0-3.68h-9.61Zm10.9,11.47Zm.74-1.66h0Z"></path>
  <rect class="cls-2" x="160.98" y="437.84" width="66.73" height="4.48"></rect>
  <path class="cls-2" d="M228.82,443.43H159.87v-6.71h68.95Zm-66.73-2.22H226.6V439H162.09Z"></path>
  <rect class="cls-2" x="160.98" y="353.62" width="66.73" height="4.48"></rect>
  <path class="cls-2" d="M228.82,359.22H159.87v-6.71h68.95ZM162.09,357H226.6v-2.26H162.09Z"></path>
  <rect class="cls-2" x="160.98" y="313.06" width="66.73" height="4.48"></rect>
  <path class="cls-2" d="M228.82,318.66H159.87V312h68.95Zm-66.73-2.22H226.6v-2.26H162.09Z"></path>
  <path class="cls-2" d="M183.22,355.47H168.9V339.64h14.32Zm-12.1-2.22H181V341.86h-9.88Z"></path>
  <path class="cls-2" d="M201.92,355.47H187.59V339.64h14.33Zm-12.11-2.22h9.88V341.86h-9.88Z"></path>
  <path class="cls-2" d="M198.24,439.62H183.92V423.79h14.32Zm-12.1-2.22H196V426h-9.88Z"></path>
  <path class="cls-2" d="M224.06,439.62H209.74V423.79h14.32ZM212,437.4h9.88V426H212Z"></path>
  <path class="cls-2" d="M180.57,400.93h-8.41a2.93,2.93,0,0,1-2.67-3.12V387.13a4.38,4.38,0,0,1,.8-2.56,5.84,5.84,0,0,1,1.37-1.3c.17-.13.37-.28.53-.42a1.74,1.74,0,0,1-.13-.64v-2.29a1.53,1.53,0,0,1,1.27-1.55h5.94a1.42,1.42,0,0,1,1.13.56,1.59,1.59,0,0,1,.33,1v2.26a1.59,1.59,0,0,1-.14.66,4.54,4.54,0,0,0,.48.39,6.54,6.54,0,0,1,1.39,1.33,4.48,4.48,0,0,1,.8,2.54v10.68A2.93,2.93,0,0,1,180.57,400.93Zm-6.31-19.11a1.45,1.45,0,0,1,.18.17,1.18,1.18,0,0,1,.25.95,2.93,2.93,0,0,1-.53,1,6.47,6.47,0,0,1-1.19,1,4.15,4.15,0,0,0-.9.82,2.27,2.27,0,0,0-.38,1.3v10.66c0,.56.31.92.47.92h8.41c.16,0,.48-.36.48-.92V387.16a2.21,2.21,0,0,0-.39-1.28,3.78,3.78,0,0,0-.9-.84,6,6,0,0,1-1.17-1.07,2.6,2.6,0,0,1-.53-1.06,1.11,1.11,0,0,1,.22-.93,1,1,0,0,1,.24-.22v-1.2h-4.27Zm4.26.38h0Zm-5-.63Zm5-1.65v0Zm-4.27,0h0Z"></path>
  <rect class="cls-2" x="160.98" y="399.83" width="66.73" height="4.48"></rect>
  <path class="cls-2" d="M228.82,405.43H159.87v-6.71h68.95Zm-66.73-2.23H226.6v-2.26H162.09Z"></path>
  <line class="cls-5" x1="159.87" y1="479.34" x2="159.87" y2="311.95"></line>
  <line class="cls-5" x1="228.82" y1="479.34" x2="228.82" y2="311.95"></line>
  <rect class="cls-9" x="412.64" y="239.86" width="86.39" height="53.79"></rect>
  <rect class="cls-4" x="288.2" y="354.9" width="239.48" height="9.4" transform="translate(767.54 -48.34) rotate(90)"></rect>
  <rect class="cls-4" x="135.98" y="354.9" width="239.48" height="9.4" transform="translate(615.31 103.88) rotate(90)"></rect>
  <rect class="cls-4" x="260.42" y="420.6" width="37.38" height="58.14"></rect>
  <rect class="cls-10" x="91.57" y="173.31" width="416.87" height="66.55"></rect>
  <path class="cls-2" d="M450.27,207.46c0-.81-.21-1.6-.18-2.42,0-1,0-2.1,0-3.15s0-2.23,0-3.34a13.92,13.92,0,0,0,0-2.5c-.2-1.18-.79-1.8-1.84-1.87a4.86,4.86,0,0,0-.54,0l-3.07,0c-.88,0-1.76,0-2.64,0s-1.59.07-2.39,0a33.17,33.17,0,0,0-4.11-.08c-.31,0-.61,0-.92,0-1,0-2,0-3.07,0-.56,0-1.12.1-1.69.1-1.13,0-2.25-.06-3.38-.06-.68,0-1.37.06-2,.06-1,0-2,0-3-.05a1.73,1.73,0,0,0-1.77,1.15,4.11,4.11,0,0,0-.27,2,42.57,42.57,0,0,1,.1,4.52c0,1,0,2-.05,3l0,1.5c0,.17-.05.34-.05.51v3.68c0,.68,0,1.35,0,2s.07,1.16,0,1.74c-.06,1.47,0,2.95,0,4.42a36.11,36.11,0,0,1,.1,4.16,1.78,1.78,0,0,0,1.64,2.1A16.34,16.34,0,0,0,423,225h4.1a8.46,8.46,0,0,1,.86.12h2.53a.44.44,0,0,1,.15,0c.84,0,1.68-.06,2.52-.05s1.83,0,2.74,0c.32,0,.64,0,1,0l2,.05a.44.44,0,0,1,.15,0h2.69a1.51,1.51,0,0,1,.28,0c.76,0,1.51-.05,2.26-.05h2.65a11,11,0,0,0,1.41,0,1.89,1.89,0,0,0,1.59-1.1,2.67,2.67,0,0,0,.12-1.19c0-.84,0-1.67,0-2.51s.14-1.62.14-2.43c0-1.33-.07-2.65-.08-4,0-.44.08-.89.09-1.33,0-1.35,0-2.71.06-4.06C450.28,208.05,450.29,207.75,450.27,207.46Zm-3.87,4.06a23.55,23.55,0,0,1-1.69,1.77,9.18,9.18,0,0,1-3.54,2c-.39.11-.78.19-1.2.3a.77.77,0,0,0,.08.19,5.26,5.26,0,0,1,.65,1.76.84.84,0,0,1-.71,1.11,12.77,12.77,0,0,1-2.95.39,8.64,8.64,0,0,1-3.05-.54,7.73,7.73,0,0,1-3.06-2.23,10.43,10.43,0,0,1-.68-1c-.09.09-.18.17-.26.26-1.41,1.35-2.81,2.71-4.24,4a15.87,15.87,0,0,1-1.72,1.34.58.58,0,0,1-1-.31c-.06-.32.14-.51.37-.69.68-.53,1.37-1,2-1.61.89-.79,1.74-1.64,2.61-2.45l1-.85.22-.2c.2-.23.17-.42-.1-.53s-.48-.13-.72-.21a3.22,3.22,0,0,1-.55-.18,9.19,9.19,0,0,1-2.48-1.79,7.59,7.59,0,0,1-.62-.84,4.65,4.65,0,0,1-.92-3,4.18,4.18,0,0,1,.21-1,.61.61,0,0,1,.65-.4c.54,0,1.08.09,1.63.13.13,0,.31,0,.37,0s0-.25,0-.37a1.77,1.77,0,0,0-.25-.54,1.75,1.75,0,0,1-.27-1.07,9.11,9.11,0,0,1,1.07-4.28c.06-.11.11-.23.17-.34a1,1,0,0,1,1.26-.67,7.33,7.33,0,0,1,3.65,1.53c.27.21.5.46.72.66a13.28,13.28,0,0,1,.92-1.6,5.58,5.58,0,0,1,1.15-1.07,5.06,5.06,0,0,1,2.34-.95,14.84,14.84,0,0,1,2.58-.15c.79,0,1.58.18,2.37.28a1.06,1.06,0,0,1,1,.93,21.51,21.51,0,0,1,.56,4.23,8.89,8.89,0,0,1-.44,2.75,5.92,5.92,0,0,1-.87,1.74l-.17.24c.45.14.86.29,1.29.41a4.74,4.74,0,0,1,1.87,1.08,4.82,4.82,0,0,1,.9,1.23A.61.61,0,0,1,446.4,211.52Z"></path>
  <path class="cls-2" d="M241.66,204.88l2.22-.1h0c1.41,0,1.77.39,1.74,1.67s0,2.59,0,3.89c0,.78,0,1.56,0,2.34,0,.62-.06,1.24-.07,1.87,0,.43,0,.87,0,1.31q0,1.48,0,3a3,3,0,0,1-.09.72.85.85,0,0,1-.87.74c-.23,0-.46,0-.69,0-1.2,0-2.39,0-3.59,0a.57.57,0,0,1-.6-.47c-.16-.51-.28-.56-.71-.22a4.57,4.57,0,0,1-3,.91,14.26,14.26,0,0,1-2.91-.48.72.72,0,0,1-.2-.09,5.45,5.45,0,0,1-2.83-4.88c0-1.47.07-2.95.08-4.42,0-.66-.06-1.32-.08-2,0-.34,0-.68,0-1,0-.58,0-1.16,0-1.75,0-.84.27-1.13,1.11-1.12l4,.05c.68,0,1,.37,1,1.19,0,.48-.05.95-.07,1.43s0,.9,0,1.35c0,.65-.06,1.31,0,2,0,1,.13,1.95.26,2.91a1.08,1.08,0,0,0,.88,1,1.36,1.36,0,0,0,1.48-.58,2.87,2.87,0,0,0,.5-1.57c0-.94.14-1.88.16-2.82s-.05-1.8-.07-2.7c0-.34,0-.69,0-1a1.12,1.12,0,0,1,1.15-1.12h1.17Z"></path>
  <path class="cls-2" d="M191.54,220.27c-1.06,0-2.12,0-3.18,0a1.07,1.07,0,0,1-1.17-1.24c0-.78.06-1.56.06-2.34q0-3.66,0-7.33v-3.18a3.51,3.51,0,0,1,.09-.65.91.91,0,0,1,.85-.74h.48c1.25,0,2.51,0,3.76,0a.58.58,0,0,1,.67.46c.16.54.28.57.72.21a4,4,0,0,1,3-.88c.68.06,1.35.16,2,.24a4.3,4.3,0,0,1,2.49,1.44,4.63,4.63,0,0,1,1.41,3.71c-.06,1.21,0,2.42,0,3.62s0,2.56-.06,3.84c0,.66,0,1.32,0,2a.81.81,0,0,1-.92.89c-.75,0-1.49,0-2.24,0h-1.57a3.92,3.92,0,0,1-.59-.05c-.48-.09-.7-.3-.71-.78,0-.67,0-1.34,0-2,0-.11,0-.22,0-.33,0-.94,0-1.88,0-2.82a8.68,8.68,0,0,0-.36-3,1.18,1.18,0,0,0-.91-.86,1.36,1.36,0,0,0-1.36.61,3.72,3.72,0,0,0-.55,2,51.52,51.52,0,0,0,0,6,2,2,0,0,1-.17.73,1,1,0,0,1-.91.57Z"></path>
  <path class="cls-2" d="M170.51,220.68c-1-.11-1.92-.17-2.86-.35a5.55,5.55,0,0,1-1.47-.62,1.09,1.09,0,0,1-.56-1.15c0-.71,0-1.44.07-2.16a2.23,2.23,0,0,1,.14-.67.84.84,0,0,1,.82-.62c.44,0,.87.08,1.3.12.81.09,1.62.19,2.43.25a.74.74,0,0,0,.77-.47.92.92,0,0,0-.35-1,20.21,20.21,0,0,0-1.94-.92,4.33,4.33,0,0,1-2.66-2.36,5.15,5.15,0,0,1-.2-3.06,4.1,4.1,0,0,1,3.56-3.13,12.47,12.47,0,0,1,5.5.27l.15,0c.95.31,1,.44,1,1.44,0,.68,0,1.37,0,2.05a.88.88,0,0,1-1,1,17,17,0,0,1-1.71-.3,2,2,0,0,0-.76,0,.86.86,0,0,0-.49.41c-.12.23.07.43.27.53.65.34,1.32.64,1.95,1a6.19,6.19,0,0,1,2.32,2,2.06,2.06,0,0,1,.32.69,6.44,6.44,0,0,1-.2,3.91,4.58,4.58,0,0,1-2.76,2.57A12.14,12.14,0,0,1,170.51,220.68Z"></path>
  <path class="cls-2" d="M220.81,213.35v-2.93c0-.16,0-.32,0-.48a.58.58,0,0,0-.58-.59c-.4,0-.53-.26-.54-.6,0-.69,0-1.39,0-2.08,0-.37,0-.74,0-1.1a.74.74,0,0,1,.7-.8c.29-.07.47-.22.48-.51a13.22,13.22,0,0,0,0-1.89,1,1,0,0,1,1-1.26c.41,0,.83-.06,1.24-.07.92,0,1.85,0,2.77,0,.68,0,1.07.19,1.11,1.17,0,.67,0,1.34,0,2,0,.49.2.62.7.59a4.64,4.64,0,0,1,1.11.1.49.49,0,0,1,.28.33c0,1.16.08,2.31.08,3.47,0,.52-.3.77-.83.78-.37,0-.84-.16-1,.23a3,3,0,0,0-.31,1.29c0,.94,0,1.89,0,2.84,0,.36,0,.71,0,1.06.06.56.31.76.87.78s.74.15.75.79c0,.79,0,1.59.07,2.38a1.33,1.33,0,0,1-1.48,1.41c-1.45,0-2.9,0-4.34-.16a2,2,0,0,1-1.7-1.62,9.9,9.9,0,0,1-.34-3v-2.16Z"></path>
  <path class="cls-2" d="M249.32,204.75c1.1,0,2.19,0,3.29,0,.64,0,.92.23,1,.86a.68.68,0,0,0,.23.51c.23.14.46,0,.62-.23a3.07,3.07,0,0,1,3.26-1.13c.58.11.78.49.76,1.07s0,1.4,0,2.1c0,.31,0,.61,0,.92,0,.5,0,1-.1,1.51,0,.35-.3.48-.61.52a1.36,1.36,0,0,1-.4,0,3.45,3.45,0,0,0-2.24.5,2.34,2.34,0,0,0-1,1.35c-.6,1.65-.17,3.34-.26,5,0,.43,0,.87,0,1.31a1.1,1.1,0,0,1-1.09,1.14c-1.4,0-2.8,0-4.21,0-.51,0-.73-.21-.89-.71a5.39,5.39,0,0,1,0-1.92c.05-.91,0-1.81,0-2.71s0-1.78,0-2.67c0-.39,0-.78,0-1.17s.05-.83,0-1.24-.05-.75-.06-1.13c0-.84,0-1.68,0-2.53,0-1,.45-1.47,1.49-1.39l.21,0Z"></path>
  <path class="cls-2" d="M164.51,216.58c0-1.18,0-2.36,0-3.55,0-.92,0-1.85,0-2.77a17.54,17.54,0,0,0-.06-1.78,3.06,3.06,0,0,0-.26-1,4.75,4.75,0,0,0-2.88-2.46,14.27,14.27,0,0,0-6.2-.38,16.75,16.75,0,0,0-2.39.61,6,6,0,0,0-1.1.39,1.21,1.21,0,0,0-.73,1.13c0,1-.12,1.92-.18,2.88a.55.55,0,0,0,.38.63,1.56,1.56,0,0,0,.77.06c.49-.12,1-.36,1.45-.49a15,15,0,0,1,4-.56,2.92,2.92,0,0,1,1.69.36.57.57,0,0,1,.25.76c-.13.29-.39.28-.66.24-.62-.07-1.25-.17-1.88-.19s-1,.12-1.46.13a6.81,6.81,0,0,0-2.9.77,4.28,4.28,0,0,0-1,.69,4.73,4.73,0,0,0-1.6,2.6s0,0-.05,0v1.25a4.44,4.44,0,0,0,.1.62,5.28,5.28,0,0,0,2.29,3.1,8.32,8.32,0,0,0,4.57.92,4.22,4.22,0,0,0,2.43-.77c.39-.28.53-.27.7.17a.55.55,0,0,0,.62.39c.88,0,1.76,0,2.63-.06a2.5,2.5,0,0,0,1-.24.8.8,0,0,0,.42-.58C164.54,218.49,164.52,217.53,164.51,216.58Zm-6.06-.46a2.59,2.59,0,0,1-1.58.59,1.42,1.42,0,0,1-1.37-1.52,1,1,0,0,1,.79-.83,5.81,5.81,0,0,1,.85-.16,2,2,0,0,1,1.42.75A.85.85,0,0,1,158.45,216.12Z"></path>
  <path class="cls-2" d="M218.6,216.31V211.7c0-1,0-2.09,0-3.14a3,3,0,0,0-.29-1.15,4.75,4.75,0,0,0-3.09-2.51,13.9,13.9,0,0,0-6-.3,22.42,22.42,0,0,0-3.17.83,1.4,1.4,0,0,0-1.1,1.49,12.1,12.1,0,0,1-.14,2.62.58.58,0,0,0,.52.75,1.68,1.68,0,0,0,.74,0c.46-.13.89-.34,1.35-.47a15,15,0,0,1,3.89-.54,3,3,0,0,1,1.77.34.58.58,0,0,1,.26.76c-.13.32-.4.29-.69.25a8.88,8.88,0,0,0-1.44-.19,13.08,13.08,0,0,0-3.93.53,5.35,5.35,0,0,0-3,2.52,4,4,0,0,0-.4,2.56,4.81,4.81,0,0,0,2.61,3.74,8.33,8.33,0,0,0,4.27.77,4.19,4.19,0,0,0,2.43-.76c.41-.29.54-.29.73.19a.54.54,0,0,0,.62.36h1.77c.6,0,1-.06,1.45-.13a.92.92,0,0,0,.87-1.06C218.64,218.19,218.61,217.25,218.6,216.31Zm-6-.19a2.7,2.7,0,0,1-1.55.59,1.55,1.55,0,0,1-1.37-1,1,1,0,0,1,.72-1.3,8.57,8.57,0,0,1,.88-.18,2,2,0,0,1,1.43.74A.86.86,0,0,1,212.56,216.12Z"></path>
  <path class="cls-2" d="M265.1,214a4.47,4.47,0,0,1,.52,0h4.21V214c1,0,2,0,3,0,.73,0,1-.32,1.06-1.05a9.21,9.21,0,0,0-1-5.14,5.58,5.58,0,0,0-3.92-3.05,18.42,18.42,0,0,0-2.69-.2,6.08,6.08,0,0,0-3.59.92,7.74,7.74,0,0,0-3.74,5.78,9.83,9.83,0,0,0,.63,5c.93,2.33,2.94,3.39,5.18,4a12.48,12.48,0,0,0,3.12.31,20.35,20.35,0,0,0,2.8-.24,5.39,5.39,0,0,0,2.8-1.18.81.81,0,0,0,.32-.73c0-.86-.06-1.73-.07-2.59,0-.42-.19-.7-.61-.7a2.07,2.07,0,0,0-.86.12,11.41,11.41,0,0,1-4.66.74,8.64,8.64,0,0,1-1.75-.29,1.71,1.71,0,0,1-1.14-.86C264.48,214.4,264.64,214.09,265.1,214Zm-.11-4.8a2.71,2.71,0,0,1,1.87-.68,3.19,3.19,0,0,1,1.63.7,1.22,1.22,0,0,1,.28.57c.08.37,0,.53-.42.57s-1,.09-1.56.1a7.93,7.93,0,0,1-1.38,0,1.05,1.05,0,0,1-.71-.39C264.52,209.77,264.75,209.47,265,209.24Z"></path>
  <path class="cls-2" d="M341.58,220.23c-.73,0-1.46.09-2.19.1a5.86,5.86,0,0,1-1.19-.1,1,1,0,0,1-.76-1c0-.25,0-.51,0-.76,0-2.19,0-4.37,0-6.56,0-1.85,0-3.71.07-5.56a8.16,8.16,0,0,1,.08-1.31.87.87,0,0,1,1-.74c.28,0,.56,0,.84,0,1.11,0,2.22,0,3.32,0,.57,0,.64,0,.83.54s.3.5.65.21a4.33,4.33,0,0,1,3.39-1c.51.06,1,.07,1.55.16a5.4,5.4,0,0,1,3.95,3.12,4.25,4.25,0,0,1,.37,2c0,1,0,1.92,0,2.88s0,2.17,0,3.26c0,1.34,0,2.68,0,4,0,.46-.36.76-.94.76l-2.34,0h-1.54a2.68,2.68,0,0,1-.4,0c-.78-.08-1-.27-1-1.05s0-1.46.06-2.19c0-1.15.09-2.3,0-3.45a15.86,15.86,0,0,0-.38-2.55,1.09,1.09,0,0,0-.94-.91,1.41,1.41,0,0,0-1.41.65,2.74,2.74,0,0,0-.5,1.43,20.31,20.31,0,0,0-.13,4.05c.05.9.07,1.81.07,2.71a1.21,1.21,0,0,1-1.35,1.33h-1Z"></path>
  <path class="cls-2" d="M297.57,220.32c-1.08,0-2.17,0-3.25,0-.88,0-1.26-.44-1.25-1.32,0-.67.09-1.34.09-2,0-1.36-.07-2.71-.07-4.07,0-2.11.05-4.22.07-6.33a12.91,12.91,0,0,1,0-1.39.92.92,0,0,1,1-.86l3.76,0a1.2,1.2,0,0,0,.19,0c.75,0,.75,0,1,.65.14.31.29.35.59.09a3.92,3.92,0,0,1,2.33-1,7.24,7.24,0,0,1,3.83.53,5.15,5.15,0,0,1,3.1,5.18c-.09,1.06,0,2.12,0,3.19,0,.65,0,1.31,0,2l0,4.39c0,.66-.3,1-1,1l-2.23,0h-1.69a3.34,3.34,0,0,1-.62-.06c-.47-.08-.71-.29-.72-.77,0-.7,0-1.41,0-2.12a.66.66,0,0,0,0-.14,38.61,38.61,0,0,0-.13-5.27,4.24,4.24,0,0,0-.37-1.21,1.27,1.27,0,0,0-2.19,0,3.82,3.82,0,0,0-.57,2,40.34,40.34,0,0,0,0,5.92,2.76,2.76,0,0,1-.06.76,1.12,1.12,0,0,1-1.16.91Z"></path>
  <path class="cls-2" d="M311.32,213.21c0-1.15,0-2.3,0-3.45,0-.5-.16-.66-.64-.72a.53.53,0,0,1-.52-.59q0-1.66,0-3.33a.73.73,0,0,1,.67-.79.64.64,0,0,0,.57-.68,14.61,14.61,0,0,0-.05-1.75c-.11-.85.21-1.33,1.07-1.37s1.84,0,2.75,0l1.46,0a.86.86,0,0,1,1,.91c0,.76,0,1.53.06,2.3,0,.57.18.7.75.66a5.41,5.41,0,0,1,.9,0c.41,0,.54.3.55.68,0,.89.05,1.78.07,2.67a2.64,2.64,0,0,1,0,.29c0,.86-.32,1.21-1.19,1.16-.65,0-.95.14-1,.77-.07.83-.07,1.67-.08,2.5s0,1.47,0,2.2.3.92.95,1,.72.13.75.73c0,.94.05,1.88.05,2.82a1,1,0,0,1-.73,1,3.55,3.55,0,0,1-1.24.24c-1.27,0-2.54-.07-3.8-.16a2.17,2.17,0,0,1-2-1.69,11.55,11.55,0,0,1-.35-3.51c0-.59,0-1.18,0-1.76Z"></path>
  <path class="cls-2" d="M288.74,220.23c-.73,0-1.46.09-2.19.1a5.06,5.06,0,0,1-1.16-.1,1,1,0,0,1-.78-1c0-.24,0-.48,0-.73,0-2.22,0-4.44,0-6.66,0-1.83,0-3.66.05-5.49a6.85,6.85,0,0,1,.05-1.2.91.91,0,0,1,1-.84c.25,0,.49,0,.73,0,1.08,0,2.15,0,3.22-.07.84,0,1.33.3,1.38,1.14s0,1.67,0,2.51c0,.62,0,1.24,0,1.86,0,1.59-.06,3.17,0,4.76,0,1.36.1,2.73.13,4.09a2.8,2.8,0,0,1-.08.87,1.08,1.08,0,0,1-1.13.81h-1.17Z"></path>
  <path class="cls-2" d="M288.7,203.31l-2.38.13a3.11,3.11,0,0,1-.43,0c-1-.13-1.3-.58-1.18-1.58a10.6,10.6,0,0,0,0-1.49c0-.17,0-.35,0-.52a.83.83,0,0,1,.77-.9,3.54,3.54,0,0,1,.73-.07c1.23,0,2.46,0,3.69.05.85,0,1.15.34,1.16,1.19,0,.7,0,1.39,0,2.09a1,1,0,0,1-1.14,1.16H288.7Z"></path>
  <path class="cls-2" d="M407.85,213.55c0-1.4,0-2.81,0-4.21,0-.44,0-.87,0-1.31,0-.71,0-1.42,0-2.12,0-1.15-.06-2.3-.06-3.45,0-.79.06-1.58.09-2.37s-.25-1.38-1-1.32-1.8.09-2.7.13v-.05h-1.95c-.58,0-.83.26-.82.84,0,.35.05.7.08,1.06a18.61,18.61,0,0,1,0,3.58c-.05.52-.33.63-.79.38a5.23,5.23,0,0,0-1-.46,7.49,7.49,0,0,0-4,.08,8.81,8.81,0,0,0-3,1.7,5.82,5.82,0,0,0-1.5,2.09,10,10,0,0,0-.92,5.66c.06.61.35,1.19.47,1.79a6.86,6.86,0,0,0,1.9,3.19,2.13,2.13,0,0,0,.7.53c.74.34,1.48.67,2.25.94a6.6,6.6,0,0,0,1.18.19,6.08,6.08,0,0,0,4.5-.78c.34-.22.53-.14.67.24s.26.51.78.49c1.06,0,2.12,0,3.18-.06.36,0,.73,0,1.1,0a.76.76,0,0,0,.85-.72,5.44,5.44,0,0,0,.1-1.06C407.92,216.88,407.87,215.22,407.85,213.55Zm-7.2,1.27a2.73,2.73,0,0,1-3.73-.19,3.26,3.26,0,0,1-.63-2.25,3.65,3.65,0,0,1,.79-2.3,2.34,2.34,0,0,1,2.32-.65,2.24,2.24,0,0,1,2,2.37,5.18,5.18,0,0,0,.11.79A3.09,3.09,0,0,1,400.65,214.82Z"></path>
  <path class="cls-2" d="M335.19,207.9a6,6,0,0,0-4.3-3.64,14.19,14.19,0,0,0-2.62-.19,8.71,8.71,0,0,0-1.69.15,7.36,7.36,0,0,0-5.18,4,8.56,8.56,0,0,0-.87,3.18,9.56,9.56,0,0,0,.66,4.62,6,6,0,0,0,3.34,3.42,9.89,9.89,0,0,0,2,.8,14.57,14.57,0,0,0,2.87.31,27.42,27.42,0,0,0,3.13-.21,5.72,5.72,0,0,0,3-1.22.85.85,0,0,0,.35-.78c0-.91,0-1.83-.05-2.74a.57.57,0,0,0-.53-.63,4.89,4.89,0,0,0-1.25.17,11.85,11.85,0,0,1-1.7.52,26.44,26.44,0,0,1-3.21.16,3.4,3.4,0,0,1-2.37-.83.75.75,0,0,1-.3-.87c.14-.33.48-.3.77-.3h3.7v0c1.24,0,2.49,0,3.74,0,.95,0,1.28-.36,1.33-1.32v-.15A10.2,10.2,0,0,0,335.19,207.9Zm-4.84,2.23c-.38.06-.77.1-1.16.14v0c-.6,0-1.19,0-1.79,0-.34,0-.76-.05-.9-.43s.12-.72.43-1a2.67,2.67,0,0,1,3.48.1,1.34,1.34,0,0,1,.34.73C330.81,209.94,330.6,210.09,330.35,210.13Z"></path>
  <path class="cls-2" d="M380.53,213.86h3.7v0c1.27,0,2.54,0,3.81,0,.92,0,1.24-.34,1.31-1.26a1.61,1.61,0,0,0,0-.22,10.46,10.46,0,0,0-.79-4.39,6,6,0,0,0-3.91-3.59,13.87,13.87,0,0,0-2.75-.3,6.43,6.43,0,0,0-4.08.91,8,8,0,0,0-3.9,5.93,10.44,10.44,0,0,0,.53,4.93,6.11,6.11,0,0,0,3.41,3.63,9.45,9.45,0,0,0,2,.81,14.79,14.79,0,0,0,2.9.31,28.6,28.6,0,0,0,3.06-.21,5.65,5.65,0,0,0,3.11-1.25.79.79,0,0,0,.31-.7c0-.94,0-1.87-.05-2.81a.55.55,0,0,0-.52-.61,2.74,2.74,0,0,0-1,.1,13.62,13.62,0,0,1-2.9.69,15.4,15.4,0,0,1-3,0,2.93,2.93,0,0,1-1.72-.82.73.73,0,0,1-.24-.8C379.93,213.86,380.24,213.86,380.53,213.86Zm-.27-5a2.68,2.68,0,0,1,3.51.1,1.23,1.23,0,0,1,.32.71c.07.27-.12.43-.38.47s-.8.1-1.19.15v0c-.58,0-1.16,0-1.74,0-.36,0-.79-.05-.93-.45S380,209.07,380.26,208.84Z"></path>
  <path class="cls-2" d="M372.45,214.49c0-1.53,0-3.05-.05-4.57,0-.77,0-1.54,0-2.31,0-.56,0-1.12,0-1.68,0-1.27-.05-2.54-.05-3.81,0-.76.07-1.53.07-2.3s-.38-1.07-1-1l-2.71.12v-.05h-1.87c-.67,0-.91.25-.89.92,0,.3.06.61.07.91,0,1.17.07,2.34.05,3.51,0,.68-.31.81-.89.46a4.16,4.16,0,0,0-.83-.38,7,7,0,0,0-4.29.13,13.9,13.9,0,0,0-2.24,1.21,4.32,4.32,0,0,0-1.62,1.61,10,10,0,0,0-1.47,5.21,11.85,11.85,0,0,0,.52,3.12,7.85,7.85,0,0,0,1.84,3.11,2.6,2.6,0,0,0,.83.64,20.93,20.93,0,0,0,2.18.92,6.39,6.39,0,0,0,1.32.22,6,6,0,0,0,4.36-.79c.36-.23.59-.16.7.27s.35.47.71.46c1.3,0,2.61-.07,3.91,0,1,0,1.27-.17,1.38-1.16,0-.1,0-.2,0-.29Zm-7.67.63a2.7,2.7,0,0,1-3.29-.46,3.37,3.37,0,0,1-.66-2.52,7.43,7.43,0,0,1,.27-1.13,2.11,2.11,0,0,1,2.12-1.63,2.39,2.39,0,0,1,2.64,1.67,12.59,12.59,0,0,1,.2,1.37A2.85,2.85,0,0,1,364.78,215.12Z"></path>
  <rect class="cls-4" x="412.64" y="479.34" width="86.39" height="6.01"></rect>
  <rect class="cls-4" x="412.64" y="485.34" width="86.39" height="6.01"></rect>
  <rect class="cls-10" x="508.43" y="183.64" width="29.98" height="307.71"></rect>
  <rect class="cls-4" x="384" y="354.9" width="239.48" height="9.4" transform="translate(863.33 -144.14) rotate(90)"></rect>
  <rect class="cls-4" x="412.64" y="293.64" width="86.39" height="7.05"></rect>
  <rect class="cls-4" x="91.57" y="293.64" width="311.68" height="7.05"></rect>
  <rect class="cls-9" x="91.57" y="239.86" width="159.45" height="53.79"></rect>
  <rect class="cls-9" x="260.42" y="239.86" width="142.82" height="53.79"></rect>
  <path class="cls-6" d="M126.54,379.46a.43.43,0,0,0-.32.46v2.29a.42.42,0,0,0,.36.46h.1a1.6,1.6,0,0,1-.32.62,5.68,5.68,0,0,1-1,.86,4.87,4.87,0,0,0-1.14,1.06,3.37,3.37,0,0,0-.59,1.92h0V397.8a1.85,1.85,0,0,0,1.57,2h8.41a1.86,1.86,0,0,0,1.58-2V387.16h0a3.26,3.26,0,0,0-.59-1.91,5,5,0,0,0-1.13-1.08,4.93,4.93,0,0,1-1-.86,1.51,1.51,0,0,1-.32-.63h.12a.42.42,0,0,0,.36-.46l0-2.28a.52.52,0,0,0-.11-.33.33.33,0,0,0-.26-.14h-5.79Z"></path>
  <rect class="cls-7" x="90.45" y="340.75" width="12.1" height="13.61"></rect>
  <rect class="cls-7" x="109.14" y="340.75" width="12.1" height="13.61"></rect>
  <rect class="cls-7" x="105.47" y="424.9" width="12.1" height="13.61"></rect>
  <rect class="cls-7" x="131.29" y="424.9" width="12.1" height="13.61"></rect>
  <path class="cls-6" d="M93.92,379.46a.41.41,0,0,0-.32.46v2.29a.42.42,0,0,0,.36.46h.09a1.6,1.6,0,0,1-.32.62,5.32,5.32,0,0,1-1,.86,4.84,4.84,0,0,0-1.13,1.06,3.37,3.37,0,0,0-.6,1.92h0V397.8a1.85,1.85,0,0,0,1.58,2H101a1.86,1.86,0,0,0,1.57-2V387.16h0a3.33,3.33,0,0,0-.58-1.91,5.22,5.22,0,0,0-1.14-1.08,5.58,5.58,0,0,1-1-.86,1.64,1.64,0,0,1-.32-.63h.12a.42.42,0,0,0,.36-.46l0-2.28a.52.52,0,0,0-.1-.33.33.33,0,0,0-.26-.14H93.92Z"></path>
  <path class="cls-8" d="M125.22,399.83a1.85,1.85,0,0,1-1.57-2V387.13h0a3.3,3.3,0,0,1,.6-1.92,4.65,4.65,0,0,1,1.13-1.06,5.68,5.68,0,0,0,1-.86,1.6,1.6,0,0,0,.32-.62h-.1a.42.42,0,0,1-.36-.46v-2.29a.43.43,0,0,1,.32-.46H131v-.16h0a6.08,6.08,0,0,0-1.07-3.49,9.25,9.25,0,0,0-2.07-2,10,10,0,0,1-1.77-1.57,3,3,0,0,1-.58-1.15h.22a.78.78,0,0,0,.66-.85l0-4.15a1,1,0,0,0-.19-.61.59.59,0,0,0-.47-.25H115.17a.79.79,0,0,0-.58.84v4.17a.77.77,0,0,0,.66.85h.17a2.79,2.79,0,0,1-.59,1.13,9.32,9.32,0,0,1-1.78,1.56,9.12,9.12,0,0,0-2.07,1.94,6.14,6.14,0,0,0-1.09,3.5h0v19.47c0,2,1.3,3.69,2.87,3.69h15.35a3.07,3.07,0,0,0,2.7-2.59Z"></path>
  <path class="cls-2" d="M133.63,400.93h-8.41a2.93,2.93,0,0,1-2.67-3.12V387.13a4.37,4.37,0,0,1,.81-2.57,6,6,0,0,1,1.36-1.3,6.11,6.11,0,0,0,.53-.41,1.74,1.74,0,0,1-.13-.64v-2.29a1.51,1.51,0,0,1,1.27-1.55h5.94a1.42,1.42,0,0,1,1.13.56,1.66,1.66,0,0,1,.34,1l0,2.28a1.59,1.59,0,0,1-.14.66c.17.15.34.28.51.41a6.12,6.12,0,0,1,1.36,1.31,4.41,4.41,0,0,1,.8,2.55v10.67A2.93,2.93,0,0,1,133.63,400.93Zm-6.31-19.11a1.45,1.45,0,0,1,.18.17,1.14,1.14,0,0,1,.25.95,2.93,2.93,0,0,1-.53,1,6.57,6.57,0,0,1-1.18,1,3.91,3.91,0,0,0-.9.82,2.25,2.25,0,0,0-.39,1.3v10.66c0,.56.31.92.47.92h8.41c.16,0,.48-.36.48-.92V387.16a2.28,2.28,0,0,0-.38-1.28,4.37,4.37,0,0,0-.91-.85,6.47,6.47,0,0,1-1.17-1,2.62,2.62,0,0,1-.52-1.06,1.07,1.07,0,0,1,.21-.93,1,1,0,0,1,.24-.23v-1.2h-4.27Zm4.26.38h0Zm-5-.63Z"></path>
  <path class="cls-2" d="M128.11,403.52H112.76c-2.19,0-4-2.15-4-4.79V379.26a7.23,7.23,0,0,1,1.3-4.15,9.91,9.91,0,0,1,2.31-2.18,9.42,9.42,0,0,0,1.56-1.35,2,2,0,0,1-.47-1.31v-4.16a1.88,1.88,0,0,1,1.53-1.94h10.72a1.69,1.69,0,0,1,1.34.68,2,2,0,0,1,.42,1.29l0,4.15a2,2,0,0,1-.5,1.35,9.09,9.09,0,0,0,1.48,1.29,10.63,10.63,0,0,1,2.35,2.24,7.09,7.09,0,0,1,1.28,4.11,1.23,1.23,0,0,1-.32.87,1.13,1.13,0,0,1-.78.42h-3.66v1.26a1,1,0,0,1,.18.17,1.14,1.14,0,0,1,.25.95,2.78,2.78,0,0,1-.53,1,6.44,6.44,0,0,1-1.18,1,3.73,3.73,0,0,0-.9.82,2.26,2.26,0,0,0-.39,1.3v10.66c0,.56.31.92.47.92h5.59a1.12,1.12,0,0,1,.86.42,1.08,1.08,0,0,1,.2,1A4.1,4.1,0,0,1,128.11,403.52ZM115.69,370.1a1.15,1.15,0,0,1,.51.34,1.17,1.17,0,0,1,.29.95,3.9,3.9,0,0,1-.8,1.55,10.78,10.78,0,0,1-2,1.75,8.23,8.23,0,0,0-1.84,1.71,5,5,0,0,0-.88,2.87v19.46c0,1.38.83,2.59,1.77,2.59h15.35a1.29,1.29,0,0,0,.88-.39h-3.77a2.93,2.93,0,0,1-2.67-3.12V387.13a4.45,4.45,0,0,1,.8-2.56,6.25,6.25,0,0,1,1.37-1.3c.18-.14.38-.28.54-.42a1.57,1.57,0,0,1-.14-.64v-2.29a1.53,1.53,0,0,1,1.27-1.55h3.4a4.5,4.5,0,0,0-.77-1.91,8.85,8.85,0,0,0-1.84-1.74,10.52,10.52,0,0,1-2-1.77,4.13,4.13,0,0,1-.78-1.57,1.1,1.1,0,0,1,.21-.93,1.07,1.07,0,0,1,.64-.4l0-3.68h-9.61Zm10.89,11.47h0Zm.74-1.66h0Z"></path>
  <rect class="cls-2" x="81.42" y="437.84" width="66.73" height="4.48"></rect>
  <path class="cls-2" d="M149.26,443.43h-69v-6.71h69Zm-66.73-2.22H147V439H82.53Z"></path>
  <rect class="cls-2" x="81.42" y="353.62" width="66.73" height="4.48"></rect>
  <path class="cls-2" d="M149.26,359.22h-69v-6.71h69ZM82.53,357H147v-2.26H82.53Z"></path>
  <rect class="cls-2" x="81.42" y="313.06" width="66.73" height="4.48"></rect>
  <path class="cls-2" d="M149.26,318.66h-69V312h69Zm-66.73-2.22H147v-2.26H82.53Z"></path>
  <path class="cls-2" d="M103.66,355.47H89.34V339.64h14.32Zm-12.1-2.22h9.88V341.86H91.56Z"></path>
  <path class="cls-2" d="M122.35,355.47H108V339.64h14.32Zm-12.1-2.22h9.88V341.86h-9.88Z"></path>
  <path class="cls-2" d="M118.68,439.62H104.36V423.79h14.32Zm-12.1-2.22h9.87V426h-9.87Z"></path>
  <path class="cls-2" d="M144.5,439.62H130.17V423.79H144.5Zm-12.1-2.22h9.87V426H132.4Z"></path>
  <path class="cls-2" d="M101,400.93H92.6a2.93,2.93,0,0,1-2.68-3.12V387.13a4.46,4.46,0,0,1,.81-2.56,6,6,0,0,1,1.36-1.3l.54-.42a1.56,1.56,0,0,1-.13-.64v-2.29a1.52,1.52,0,0,1,1.26-1.55h5.95a1.42,1.42,0,0,1,1.13.56,1.65,1.65,0,0,1,.33,1v2.26a1.59,1.59,0,0,1-.14.66,5.71,5.71,0,0,0,.47.39,6.56,6.56,0,0,1,1.4,1.33,4.47,4.47,0,0,1,.79,2.54v10.68A2.93,2.93,0,0,1,101,400.93ZM94.7,381.82l.17.17a1.14,1.14,0,0,1,.25.95,2.64,2.64,0,0,1-.53,1,6.39,6.39,0,0,1-1.18,1,3.93,3.93,0,0,0-.9.82,2.26,2.26,0,0,0-.39,1.3v10.66c0,.56.32.92.48.92H101c.16,0,.47-.36.47-.92V387.16a2.2,2.2,0,0,0-.38-1.28,3.83,3.83,0,0,0-.91-.84A6.34,6.34,0,0,1,99,384a2.6,2.6,0,0,1-.52-1.06,1.11,1.11,0,0,1,.22-.93,1,1,0,0,1,.24-.22v-1.2H94.7Zm4.26.38h0Zm-5-.63Zm5-1.65v0Zm-4.27,0h0Z"></path>
  <rect class="cls-2" x="81.42" y="399.83" width="66.73" height="4.48"></rect>
  <path class="cls-2" d="M149.26,405.43h-69v-6.71h69ZM82.53,403.2H147v-2.26H82.53Z"></path>
  <line class="cls-5" x1="80.3" y1="479.34" x2="80.3" y2="311.95"></line>
  <line class="cls-5" x1="149.26" y1="479.34" x2="149.26" y2="311.95"></line>
  <polygon class="cls-4" points="287.31 397.41 260.42 376.43 260.42 420.6 287.31 420.6 287.31 397.41"></polygon>
  <line class="cls-11" x1="515.68" y1="310.45" x2="515.68" y2="328.1"></line>
  <line class="cls-11" x1="523.57" y1="310.45" x2="523.57" y2="328.1"></line>
  <line class="cls-11" x1="531.46" y1="310.45" x2="531.46" y2="328.1"></line>
  <line class="cls-11" x1="515.68" y1="249.87" x2="515.68" y2="286.13"></line>
  <line class="cls-11" x1="523.57" y1="249.87" x2="523.57" y2="286.13"></line>
  <line class="cls-11" x1="531.46" y1="249.87" x2="531.46" y2="286.13"></line>
  <rect class="cls-10" x="515.68" y="291.67" width="15.78" height="13.63"></rect>
  <rect class="cls-11" x="508.43" y="237.9" width="29.98" height="7.69"></rect>
  <rect class="cls-10" x="508.43" y="200.02" width="29.98" height="7.69"></rect>
  <path class="cls-10" d="M544.17,173.53a20.75,20.75,0,1,0-41.49,0Z"></path>
  <rect class="cls-10" x="55.88" y="173.53" width="488.28" height="9.69"></rect>
  <circle class="cls-12" cx="515.93" cy="222.81" r="7.49"></circle>
  <circle class="cls-10" cx="523.42" cy="215.31" r="7.49"></circle>
  <circle class="cls-10" cx="530.92" cy="222.81" r="7.49"></circle>
  <circle class="cls-10" cx="523.42" cy="230.3" r="7.49"></circle>
  <rect class="cls-10" x="61.64" y="183.64" width="29.98" height="307.71"></rect>
  <line class="cls-11" x1="68.89" y1="310.45" x2="68.89" y2="328.1"></line>
  <line class="cls-11" x1="76.78" y1="310.45" x2="76.78" y2="328.1"></line>
  <line class="cls-11" x1="84.67" y1="310.45" x2="84.67" y2="328.1"></line>
  <line class="cls-11" x1="68.89" y1="249.87" x2="68.89" y2="286.13"></line>
  <line class="cls-11" x1="76.78" y1="249.87" x2="76.78" y2="286.13"></line>
  <line class="cls-11" x1="84.67" y1="249.87" x2="84.67" y2="286.13"></line>
  <rect class="cls-10" x="68.89" y="291.67" width="15.78" height="13.63"></rect>
  <rect class="cls-10" x="61.64" y="237.9" width="29.98" height="7.69"></rect>
  <rect class="cls-10" x="61.64" y="200.02" width="29.98" height="7.69"></rect>
  <path class="cls-10" d="M97.37,173.53a20.75,20.75,0,1,0-41.49,0Z"></path>
  <circle class="cls-12" cx="69.13" cy="222.81" r="7.49"></circle>
  <circle class="cls-10" cx="76.63" cy="215.31" r="7.49"></circle>
  <circle class="cls-10" cx="84.12" cy="222.81" r="7.49"></circle>
  <circle class="cls-10" cx="76.63" cy="230.3" r="7.49"></circle>
  <line class="cls-11" x1="97.37" y1="183.22" x2="97.37" y2="173.53"></line>
  <line class="cls-11" x1="502.68" y1="183.22" x2="502.68" y2="173.53"></line>
  <path class="cls-4" d="M483.4,300.69H412.64V479.34H499V300.69Zm0,160.17H428.28V311.61H483.4Z"></path>
  <line class="cls-12" x1="428.39" y1="395.78" x2="428.39" y2="400.76"></line>
  <line class="cls-12" x1="428.39" y1="379.27" x2="428.39" y2="384.25"></line>
  <path class="cls-12" d="M428.39,384.25a5.77,5.77,0,0,1,0,11.53"></path>
  <rect class="cls-4" x="441.12" y="466.77" width="29.44" height="6.71"></rect>
  <rect class="cls-5" x="499.03" y="478.74" width="39.38" height="12.61"></rect>
  <rect class="cls-5" x="61.64" y="478.74" width="351.56" height="12.61"></rect>
  <rect class="cls-7" x="371.12" y="390.11" width="6.26" height="48.99"></rect>
  <path class="cls-7" d="M358,382v57.75h6.26V383.3A22.52,22.52,0,0,0,358,382Z"></path>
  <path class="cls-7" d="M364.22,376.94v-5.55H358v6.8A22.17,22.17,0,0,1,364.22,376.94Z"></path>
  <path class="cls-13" d="M358,390.85a17.4,17.4,0,0,0-4.62-4,12.63,12.63,0,0,0-11.66-.86,16.75,16.75,0,0,1,9,9.75,26.24,26.24,0,0,0-23.43-1.91,24.8,24.8,0,0,1,18.22,5.81,27.25,27.25,0,0,0-16.12,9.68c5.66-1,11.36-2.1,17.1-1.8A27.32,27.32,0,0,1,358,410.65Z"></path>
  <path class="cls-13" d="M377.38,408.14a9.86,9.86,0,0,1,2.66-2.29,7.29,7.29,0,0,1,6.72-.5A9.66,9.66,0,0,0,381.6,411a15.11,15.11,0,0,1,13.5-1.1,14.29,14.29,0,0,0-10.5,3.35,15.72,15.72,0,0,1,9.29,5.57,42,42,0,0,0-9.85-1,15.81,15.81,0,0,0-6.66,1.79Z"></path>
  <path class="cls-13" d="M383.4,377.68c-.39,0-.78,0-1.17,0l1.32-.9,9.14-6c-2.08-1.06-4.54-.94-6.88-.79a13.29,13.29,0,0,0-4.39.77,9,9,0,0,0-4.21,4.17c-.19.35-.3.73-.46,1.1l0-.48c-1-3.55-4.06-6.23-7.49-7.55a21.13,21.13,0,0,0-5-1.18,13.24,13.24,0,0,1,2.8-2.89,21.34,21.34,0,0,1,7.6-3.46,36.9,36.9,0,0,1,14.42-.87c-3.43-4.49-9.48-6.11-15.13-6.34-.55,0-1.11,0-1.67,0,.63-.44,1.26-.87,1.9-1.29l13.12-8.65c-3-1.53-6.53-1.36-9.88-1.15a19.16,19.16,0,0,0-6.3,1.12,12.81,12.81,0,0,0-6.05,6c-.25.47-.46.94-.67,1.42l0-.53c-1.38-5.1-5.82-8.95-10.76-10.84s-10.33-2.13-15.61-2.1a17.47,17.47,0,0,1,11.76,3.73c3.24,2.69,6.06,8.75,5.56,12.93a10.2,10.2,0,0,0-2.88-1.38,16.36,16.36,0,0,0-4.94-.38c-6.81.27-14.11,2.23-18.25,7.65a44.4,44.4,0,0,1,17.4,1,25.89,25.89,0,0,1,9.17,4.17c2.69,2.05,4.46,3.12,5.13,6.43h1.55v-.65a10.09,10.09,0,0,1,1.33-3.24,10.35,10.35,0,0,1,2.79,1.61c2.25,1.87,4.18,6,3.84,8.94l0,.06a7,7,0,0,0-2-1,11.67,11.67,0,0,0-3.44-.27c-4.74.19-9.83,1.56-12.71,5.33a31,31,0,0,1,12.12.73,18.12,18.12,0,0,1,6.38,2.9,10.89,10.89,0,0,1,2.63,2.62v2.28h2.2v-1.4a8.37,8.37,0,0,1,3-4.24,15.1,15.1,0,0,1,5.3-2.41,25.75,25.75,0,0,1,10-.6C391.54,379,387.33,377.83,383.4,377.68Z"></path>
  <polygon class="cls-14" points="388.64 439.7 347.7 439.7 355.48 478.72 380.86 478.72 388.64 439.7"></polygon>
  <path class="cls-2" d="M380.86,480.13H355.48A1.4,1.4,0,0,1,354.1,479l-7.78-39a1.39,1.39,0,0,1,.29-1.16,1.41,1.41,0,0,1,1.09-.52h40.94a1.41,1.41,0,0,1,1.09.52A1.39,1.39,0,0,1,390,440l-7.78,39A1.4,1.4,0,0,1,380.86,480.13Zm-24.23-2.81h23.08l7.22-36.21H349.41Z"></path>
  <path class="cls-2" d="M395.22,407.81c-.13,0-.25,0-.37-.05h0a39.52,39.52,0,0,0-7.91-.53l-1.33,0a15.65,15.65,0,0,1,1.82-1.45,1.42,1.42,0,0,0-.71-2.62,15.43,15.43,0,0,0-7,.81V389a1.41,1.41,0,0,0-1.41-1.41h-.08a16.43,16.43,0,0,1,4.09-3.85c3.42-1.92,8.11-1.6,11.92-1.73.84,0,1.49-1.18.75-1.8a20.33,20.33,0,0,0-9.79-4.64,74.1,74.1,0,0,1,8.8-4.34c1.06-.45.39-1.89-.53-2-4.7-.38-12-.83-15.52,3-1.69-4.19-6.37-5.8-10.85-7.17,6.81-4.86,14.94-4.93,23.17-4.74a1.06,1.06,0,0,0,.53-2A37.37,37.37,0,0,0,374,352.77c4.73-3.07,9.55-6,14.55-8.58a1.07,1.07,0,0,0-.26-1.93c-7.16-1.8-20.05-3.2-23.84,4.32-1-3.23-2.08-5.84-5.8-7.63-6.12-2.94-14.14-3.26-20.76-3a1.06,1.06,0,0,0,0,2.11c8.5.13,13.58,5.91,16.08,13.24-9.75-2.67-19.69-.87-25.85,7.88-.58.84.38,1.69,1.19,1.55,6.56-1.09,15.28-.45,21.32,2.19,3.43,1.49,5.24,4.06,7.65,6.32h-.54a1.54,1.54,0,0,0-1.55,1.55v6.71a16.88,16.88,0,0,0-5.84,3.66,1.07,1.07,0,0,0,.75,1.8c1.5-.05,3.16-.08,4.87-.06V387c-4.56-3.11-9.25-5.31-15-3a1.06,1.06,0,0,0,0,2,12.26,12.26,0,0,1,6.92,6.08c-6.83-3.14-15.5-3.34-22,.66a1.06,1.06,0,0,0,.53,2c5.85.39,11.1,1.46,16.1,4.22-5.64,1.46-10.07,5-14.52,8.9-.82.73.05,2,1,1.77,8.49-2.13,18.61-2.68,27,.42v29.21a1.54,1.54,0,0,0,1.55,1.55h7.87a1.54,1.54,0,0,0,1.55-1.55V384.63a13.2,13.2,0,0,1,4.63,3H370.4A1.41,1.41,0,0,0,369,389v50.23a1.41,1.41,0,0,0,1.41,1.41h7.87a1.41,1.41,0,0,0,1.41-1.41V419.14a35,35,0,0,1,14.07,1,1.42,1.42,0,0,0,1.37-2.35,21.66,21.66,0,0,0-7.05-5.78,15.59,15.59,0,0,1,6.78-1.46C396.39,410.58,396.82,408.11,395.22,407.81ZM330.42,393a23.07,23.07,0,0,1,18.9,2.26c1.55,1.32,3,2.76,4.43,4.19-.64-.13-1.28-.24-1.92-.35-2.14-.36-4.29-.65-6.44-.9A34.91,34.91,0,0,0,330.42,393ZM356,407.82c-7.41-2.52-15.64-2.53-23.39-1.11,3.74-3.06,7.68-5.56,12.79-6.2a1.09,1.09,0,0,0,.4-.16c3.25.29,7.43.55,10.2,2.15Zm0-9.13c-1.56-1.56-3.13-3.1-4.8-4.55-1.57-3.76-3.59-6.81-6.84-8.79,4.36-.56,8.05,1.69,11.64,4.25Zm33.13-27.55a51.52,51.52,0,0,0-7.37,4.14,5.15,5.15,0,0,0-3.11,1.72,14.31,14.31,0,0,0-.09-1.86C380.3,371.6,385,371,389.11,371.14Zm-12.77,3.34s0,0,0,.07c.46,2,0,4.29,0,6.29,0,.07.05.09.05.15-.52,1.43-.93,2.92-1.31,4.24-.34-3.34-1.32-6.54-4.11-8.61A37.62,37.62,0,0,0,366,367C370.1,368.17,375.64,369.78,376.34,374.48ZM366,370.73a34,34,0,0,1,2.57,5.41c-.86-.06-1.71-.09-2.56-.11v-5.3Zm-1.82-2.79c.37.5.74,1,1.08,1.52a1.48,1.48,0,0,0-.8-.25h-.95A8.54,8.54,0,0,1,364.15,367.94ZM385,343.74c-5,2.7-9.79,5.57-14.48,8.73a9.49,9.49,0,0,0-4.85,2.4c0-.89,0-1.79,0-2.69a11.56,11.56,0,0,0-.13-2.14C366.87,342.36,378.36,342.62,385,343.74Zm-14.51,10.79c.09,0,.16.09.27.09A34.93,34.93,0,0,1,386,358.23c-8,0-15.57,1-22,6.51a.93.93,0,0,0-.31.51c-.11,0-.25,0-.33.13a13.14,13.14,0,0,0-.75,1.14C363.14,361.44,365.61,355.58,370.53,354.53Zm-7.65,17.78v3.79a26.53,26.53,0,0,0-3.58.45v-4.24Zm-16.25-34a50.28,50.28,0,0,1,5.48.87c5.9,1.34,9.33,5.6,11.34,11a13.93,13.93,0,0,1,.06,3.17c-.08,1.32.11,2.63.09,4a16.78,16.78,0,0,0-1.44,2.68c-.88-3.46-2.65-6.94-5.71-8C354.73,346.13,351.46,341.12,346.63,338.32ZM355.37,363a20.93,20.93,0,0,0-7.22-3.21,48.91,48.91,0,0,0-16.64-1.4c6.11-6.82,15.18-7.46,23.81-4.57,3.88.88,5.29,7.42,5.44,10.77,0,0,0,0,0,.08a20.54,20.54,0,0,0-.32,3.62C358.67,366.68,357.36,364.45,355.37,363Zm8.48,74.71h-4.77V383a34.23,34.23,0,0,1,4.77.67Zm-9.58-56.95c4.55-2.87,10.06-2.88,15.47-2.43,2.44,1.83,3.11,4.78,3.3,7.74C368.48,381.42,360.85,380.72,354.27,380.76Zm22.59,57.1h-5.05V390.43h5.05Zm5.26-60.53h0a17.83,17.83,0,0,1,8.95,2.68,26,26,0,0,0-8.16,1.18,15.23,15.23,0,0,0-5.82,4.56C378,382.56,379.21,377.74,382.12,377.33Zm7.6,39.15a38.75,38.75,0,0,0-10-.12v-9.31l.08,0a7.76,7.76,0,0,1,3-1,19,19,0,0,0-2.34,2.9c-.72,1.13.78,2.78,1.93,1.93a7.52,7.52,0,0,1,4-1.09,19.47,19.47,0,0,0-1.94,1.08,1.42,1.42,0,0,0,0,2.43A28.79,28.79,0,0,1,389.72,416.48Z"></path>
  <path class="cls-2" d="M362.41,488.89l-11.49-67.55a1.43,1.43,0,0,0-1.62-1.15l-1.05.18a5.18,5.18,0,0,0-10.2,0l-1-.18a1.42,1.42,0,0,0-1.62,1.15L323.9,488.89a1.4,1.4,0,0,0,1.15,1.62l6.07,1,.24,0a1.43,1.43,0,0,0,.82-.26,1.45,1.45,0,0,0,.57-.91l10.4-61.16,10.41,61.16a1.41,1.41,0,0,0,.57.91,1.43,1.43,0,0,0,.82.26l.23,0,6.08-1A1.4,1.4,0,0,0,362.41,488.89Z"></path>
</svg>
