<?xml version="1.0" encoding="UTF-8"?>
<svg xmlns="http://www.w3.org/2000/svg" xmlns:xlink="http://www.w3.org/1999/xlink" id="Layer_1" data-name="Layer 1" viewBox="0 0 600 600">
  <defs>
    <style>.cls-1,.cls-15,.cls-7{fill:none;}.cls-17,.cls-2{fill:#1c19a8;}.cls-3{fill:#fff;}.cls-12,.cls-14,.cls-4,.cls-8{fill:#fb715d;}.cls-10,.cls-11,.cls-12,.cls-13,.cls-14,.cls-15,.cls-16,.cls-17,.cls-4,.cls-5,.cls-6,.cls-7,.cls-8,.cls-9{stroke:#1c19a8;}.cls-15,.cls-17,.cls-4,.cls-5,.cls-6,.cls-7{stroke-miterlimit:10;}.cls-10,.cls-4,.cls-5,.cls-6,.cls-7,.cls-8,.cls-9{stroke-width:2.81px;}.cls-10,.cls-11,.cls-16,.cls-5{fill:#ffde00;}.cls-13,.cls-6,.cls-9{fill:#00ab81;}.cls-10,.cls-11,.cls-12,.cls-13,.cls-14,.cls-16,.cls-8,.cls-9{stroke-linejoin:round;}.cls-11,.cls-12,.cls-13,.cls-14,.cls-15,.cls-16,.cls-17{stroke-width:2.82px;}.cls-11,.cls-12{fill-rule:evenodd;}.cls-18{fill:url(#Blue_dots);}</style>
    <pattern id="Blue_dots" data-name="Blue dots" width="28.8" height="28.8" patternTransform="translate(370.81)" patternUnits="userSpaceOnUse" viewBox="0 0 28.8 28.8">
      <rect class="cls-1" width="28.8" height="28.8"></rect>
      <path class="cls-2" d="M28.8,30.24a1.44,1.44,0,1,0-1.44-1.44A1.44,1.44,0,0,0,28.8,30.24Z"></path>
      <path class="cls-2" d="M14.4,30.24A1.44,1.44,0,1,0,13,28.8,1.44,1.44,0,0,0,14.4,30.24Z"></path>
      <path class="cls-2" d="M28.8,15.84a1.44,1.44,0,1,0-1.44-1.44A1.44,1.44,0,0,0,28.8,15.84Z"></path>
      <path class="cls-2" d="M14.4,15.84A1.44,1.44,0,1,0,13,14.4,1.44,1.44,0,0,0,14.4,15.84Z"></path>
      <path class="cls-2" d="M7.2,23A1.44,1.44,0,1,0,5.76,21.6,1.44,1.44,0,0,0,7.2,23Z"></path>
      <path class="cls-2" d="M21.6,23a1.44,1.44,0,1,0-1.44-1.44A1.44,1.44,0,0,0,21.6,23Z"></path>
      <path class="cls-2" d="M7.2,8.64A1.44,1.44,0,1,0,5.76,7.2,1.44,1.44,0,0,0,7.2,8.64Z"></path>
      <path class="cls-2" d="M21.6,8.64A1.44,1.44,0,1,0,20.16,7.2,1.44,1.44,0,0,0,21.6,8.64Z"></path>
      <path class="cls-2" d="M0,30.24A1.44,1.44,0,0,0,1.44,28.8,1.45,1.45,0,0,0,0,27.36,1.44,1.44,0,0,0-1.44,28.8,1.43,1.43,0,0,0,0,30.24Z"></path>
      <path class="cls-2" d="M0,15.84A1.44,1.44,0,0,0,1.44,14.4,1.45,1.45,0,0,0,0,13,1.44,1.44,0,0,0-1.44,14.4,1.43,1.43,0,0,0,0,15.84Z"></path>
      <path class="cls-2" d="M28.8,1.44A1.45,1.45,0,0,0,30.24,0,1.45,1.45,0,0,0,28.8-1.44,1.44,1.44,0,0,0,27.36,0,1.44,1.44,0,0,0,28.8,1.44Z"></path>
      <path class="cls-2" d="M14.4,1.44A1.45,1.45,0,0,0,15.84,0,1.45,1.45,0,0,0,14.4-1.44,1.44,1.44,0,0,0,13,0,1.44,1.44,0,0,0,14.4,1.44Z"></path>
      <path class="cls-2" d="M0,1.44A1.45,1.45,0,0,0,1.44,0,1.45,1.45,0,0,0,0-1.44,1.44,1.44,0,0,0-1.44,0,1.44,1.44,0,0,0,0,1.44Z"></path>
    </pattern>
  </defs>
  <rect class="cls-3" x="81.9" y="223.13" width="420.45" height="258.33"></rect>
  <rect class="cls-4" x="93.55" y="103.3" width="396.11" height="94.79"></rect>
  <rect class="cls-5" x="254.21" y="-37.36" width="74.79" height="376.11" transform="translate(442.3 -140.91) rotate(90)"></rect>
  <rect class="cls-5" x="93.55" y="222.67" width="396.11" height="32.73"></rect>
  <rect class="cls-5" x="341.45" y="477.33" width="136.23" height="14.53"></rect>
  <rect class="cls-5" x="105.73" y="477.33" width="136.23" height="14.53"></rect>
  <rect class="cls-6" x="489.66" y="103.3" width="23.96" height="388.56"></rect>
  <rect class="cls-5" x="477.68" y="255.46" width="11.98" height="236.4"></rect>
  <rect class="cls-5" x="93.55" y="255.46" width="11.98" height="236.4"></rect>
  <path class="cls-5" d="M241.77,255.46v236.4h99.68V255.46Zm14.06,211.88V269.52h71.56v82.54h0v43.21h0v72.07Z"></path>
  <rect class="cls-6" x="69.59" y="103.3" width="23.96" height="388.56"></rect>
  <path class="cls-4" d="M446.85,338.89a17.82,17.82,0,0,0-35.64,0h-7.73v11.89h51.11V338.89Z"></path>
  <rect class="cls-4" x="407.34" y="454.07" width="43.38" height="11.12"></rect>
  <rect class="cls-4" x="407.34" y="417.61" width="43.38" height="11.12"></rect>
  <polygon class="cls-5" points="439.93 398.21 419.58 398.21 423.45 417.61 436.07 417.61 439.93 398.21"></polygon>
  <line class="cls-7" x1="421.8" y1="409.32" x2="437.72" y2="409.32"></line>
  <polygon class="cls-4" points="407.34 465.19 407.34 454.07 411.21 454.07 411.21 428.73 407.34 428.73 407.34 417.61 411.21 417.61 411.21 390.01 407.34 390.01 407.34 378.89 411.21 378.89 411.21 350.78 403.48 350.78 403.48 477.33 411.21 477.33 411.21 465.19 407.34 465.19"></polygon>
  <polygon class="cls-4" points="446.85 350.78 446.85 378.89 450.72 378.89 450.72 390.01 446.85 390.01 446.85 417.61 450.72 417.61 450.72 428.73 446.85 428.73 446.85 454.07 450.72 454.07 450.72 465.19 446.85 465.19 446.85 477.33 454.59 477.33 454.59 350.78 446.85 350.78"></polygon>
  <path class="cls-8" d="M432.85,378.89c.19.54.39,1.09.55,1.65a19.27,19.27,0,0,1,.45,8.18l.08-.13,5.58-3.79a20.28,20.28,0,0,1,.25,5.21h11V378.89Z"></path>
  <path class="cls-8" d="M416.83,384.76a23.06,23.06,0,0,0,6.36,3.44c.53.19,1.07.37,1.59.58l-.23-.47c-1-2.27-2.29-6.24-3.15-8.58-.1-.28-.15-.56-.23-.84H407.34V390H420C418.74,388.35,417.3,386.78,416.83,384.76Z"></path>
  <path class="cls-9" d="M433.33,398.21l2.87-.81a10.06,10.06,0,0,1,.84-1.75,35.71,35.71,0,0,0,2-3c1.18-2.37.83-5.19.44-7.81l-5.58,3.79-.08.13a19.27,19.27,0,0,0-.45-8.18c-.77-2.6-2-5.05-2.6-7.7s-1.33-5.62-.41-8.26c-2.58,2.94-3.16,7.14-2.85,11,.12,1.52.31,3,.5,4.5l-.79-1A21,21,0,0,1,422.7,364c-1.06,5.51-3.23,10.45-1.3,15.72.86,2.34,2.13,6.31,3.15,8.58l.23.47c-.52-.21-1.06-.39-1.59-.58a23.06,23.06,0,0,1-6.36-3.44c.62,2.63,2.89,4.5,4.31,6.81a11.42,11.42,0,0,1,1.66,6.24h-.08l10.61.4"></path>
  <path class="cls-10" d="M244.71,206.19H93.55C86.37,223.49,75,239.78,60,254.33l-4.28,4.15H527.55l-4.29-4.15c-15-14.55-26.41-30.84-33.6-48.14H244.71Z"></path>
  <rect class="cls-8" x="55.67" y="258.48" width="471.88" height="12.83"></rect>
  <rect class="cls-5" x="255.83" y="370.56" width="71.56" height="19.14"></rect>
  <rect class="cls-8" x="89.47" y="198.09" width="403.65" height="8.1"></rect>
  <rect class="cls-5" x="246.73" y="358.52" width="18.19" height="43.21"></rect>
  <path class="cls-11" d="M137.74,396.25a.41.41,0,0,0-.29.43v2.09a.39.39,0,0,0,.33.43h.09a1.56,1.56,0,0,1-.3.57,4.68,4.68,0,0,1-.89.78,4.52,4.52,0,0,0-1,1,3,3,0,0,0-.55,1.75h0v9.79a1.7,1.7,0,0,0,1.44,1.86h7.72a1.7,1.7,0,0,0,1.44-1.86v-9.77h0a3,3,0,0,0-.54-1.75,4.39,4.39,0,0,0-1-1,4.67,4.67,0,0,1-.89-.79,1.47,1.47,0,0,1-.29-.57H143a.39.39,0,0,0,.33-.43l0-2.09a.45.45,0,0,0-.1-.3.29.29,0,0,0-.23-.13h-5.32Z"></path>
  <path class="cls-12" d="M121.89,396.25a.41.41,0,0,0-.3.43v2.09a.39.39,0,0,0,.33.43H122a1.71,1.71,0,0,1-.29.57,5.1,5.1,0,0,1-.9.78,4.52,4.52,0,0,0-1,1,3,3,0,0,0-.55,1.75h0v9.79a1.7,1.7,0,0,0,1.44,1.86h7.72a1.7,1.7,0,0,0,1.44-1.86v-9.77h0a3.11,3.11,0,0,0-.53-1.75,4.81,4.81,0,0,0-1-1,4.46,4.46,0,0,1-.9-.79,1.62,1.62,0,0,1-.29-.57h.11c.19,0,.33-.19.33-.43l0-2.09a.51.51,0,0,0-.09-.3.33.33,0,0,0-.24-.13h-5.31Z"></path>
  <path class="cls-11" d="M153.22,396.25a.39.39,0,0,0-.29.43v2.09c0,.24.14.43.33.43h.09a1.56,1.56,0,0,1-.3.57,4.76,4.76,0,0,1-.9.78,4.52,4.52,0,0,0-1,1,3.06,3.06,0,0,0-.55,1.75h0v9.79a1.71,1.71,0,0,0,1.45,1.86h7.71a1.7,1.7,0,0,0,1.45-1.86v-9.77h0a3,3,0,0,0-.54-1.75,4.81,4.81,0,0,0-1-1,4.67,4.67,0,0,1-.89-.79,1.34,1.34,0,0,1-.29-.57h.11a.39.39,0,0,0,.33-.43l0-2.09a.51.51,0,0,0-.1-.3.31.31,0,0,0-.24-.13h-5.31Z"></path>
  <path class="cls-12" d="M149.14,301.81a.38.38,0,0,0-.29.42v2.1a.38.38,0,0,0,.33.42h.09a1.49,1.49,0,0,1-.3.57,4.76,4.76,0,0,1-.9.78,4.75,4.75,0,0,0-1,1,3.09,3.09,0,0,0-.54,1.76h0v9.78a1.7,1.7,0,0,0,1.44,1.86h7.72a1.7,1.7,0,0,0,1.44-1.86v-9.76h0a3,3,0,0,0-.54-1.75,4.81,4.81,0,0,0-1-1,5.47,5.47,0,0,1-.89-.79,1.38,1.38,0,0,1-.29-.58h.11a.39.39,0,0,0,.33-.42l0-2.09a.52.52,0,0,0-.1-.31.3.3,0,0,0-.24-.12h-5.31Z"></path>
  <path class="cls-13" d="M145.71,446.46H153l0-12.54-1.9-5.87v-4.82h-3.54v4.82l-1.9,5.87Z"></path>
  <rect class="cls-14" x="168.13" y="305" width="19.9" height="15.49"></rect>
  <rect class="cls-13" x="168.94" y="427.1" width="19.09" height="15.49"></rect>
  <rect class="cls-13" x="141.38" y="373.12" width="19.9" height="15.49"></rect>
  <line class="cls-15" x1="192.39" y1="319.79" x2="192.39" y2="477.37"></line>
  <path class="cls-16" d="M140.18,357.58h7.27l0-12.55-1.89-5.87v-4.82h-3.53v4.82l-1.9,5.87Z"></path>
  <path class="cls-16" d="M153.27,357.58h7.28l0-12.55-1.9-5.87v-4.82h-3.53v4.82l-1.9,5.87Z"></path>
  <path class="cls-16" d="M113.63,357.58h7.27l0-12.55L119,339.16v-4.82H115.5v4.82L113.61,345Z"></path>
  <path class="cls-16" d="M126.72,357.58H134L134,345l-1.9-5.87v-4.82h-3.54v4.82L126.7,345Z"></path>
  <rect class="cls-17" x="105.59" y="443.01" width="86.78" height="4.92"></rect>
  <rect class="cls-17" x="105.66" y="414.54" width="86.67" height="4.92"></rect>
  <rect class="cls-17" x="105.59" y="386.06" width="86.75" height="4.92"></rect>
  <rect class="cls-17" x="105.59" y="357.59" width="86.76" height="4.92"></rect>
  <rect class="cls-17" x="106.25" y="319.8" width="86.55" height="4.92"></rect>
  <path class="cls-4" d="M212.92,374.55a18.4,18.4,0,1,0-36.8,0h-8v12.28h52.78V374.55Z"></path>
  <polygon class="cls-4" points="172.12 467.34 172.12 455.85 176.12 455.85 176.12 427.35 172.12 427.35 172.12 415.86 176.12 415.86 176.12 386.83 168.13 386.83 168.13 477.33 176.12 477.33 176.12 467.34 172.12 467.34"></polygon>
  <polygon class="cls-4" points="212.92 386.83 212.92 415.86 216.92 415.86 216.92 427.35 212.92 427.35 212.92 455.85 216.92 455.85 216.92 467.34 212.92 467.34 212.92 477.33 220.91 477.33 220.91 386.83 212.92 386.83"></polygon>
  <path class="cls-9" d="M200.73,436.56a3.91,3.91,0,0,0,3.7-3.21,9.69,9.69,0,0,0-.8-5.36,9.68,9.68,0,0,1-.88-3.08,19,19,0,0,1,.46-3.25,7.85,7.85,0,0,0-.39-3.66c-.56-1.58-1.63-3-2-4.6a29.7,29.7,0,0,1-.2-4.53,2.41,2.41,0,0,0-.36-1.27,2.13,2.13,0,0,0-.95-.66,4.49,4.49,0,0,0-3.78.38,6.6,6.6,0,0,0-2.58,2.88c-.67,1.37-1,2.95-2,4.09s-2.38,1.65-3,2.9a5,5,0,0,0-.39,2.3c0,2.23.46,4.56-.44,6.6-.58,1.32-1.92,2.25-2.34,3.63l-.06.19a5.29,5.29,0,0,0,5.34,6.68Z"></path>
  <rect class="cls-4" x="172.12" y="455.85" width="44.8" height="11.49"></rect>
  <path class="cls-4" d="M187.08,426.09c.9-2,.47-4.37.44-6.6a5,5,0,0,1,.39-2.3,4.28,4.28,0,0,1,1.18-1.33h-17v11.49h14.15A6.28,6.28,0,0,0,187.08,426.09Z"></path>
  <path class="cls-4" d="M201.82,415.86a17.32,17.32,0,0,1,1,2.14,7.73,7.73,0,0,1,.39,3.66,19,19,0,0,0-.46,3.25,7.47,7.47,0,0,0,.64,2.44h13.53V415.86Z"></path>
  <path class="cls-7" d="M194.84,436.85s-1.61-13.54,1.16-21.74"></path>
  <polygon class="cls-5" points="204.68 436.57 184.45 436.57 188.29 455.85 200.83 455.85 204.68 436.57"></polygon>
  <rect class="cls-18" x="341.45" y="271.31" width="136.23" height="207.6"></rect>
  <path class="cls-2" d="M120.25,170.37a3.15,3.15,0,0,1,1.35,1.1,2.81,2.81,0,0,1,.47,1.6,3.39,3.39,0,0,1-.49,1.83,3.34,3.34,0,0,1-1.4,1.22,5,5,0,0,1-2.11.43,6.59,6.59,0,0,1-2-.33,6.74,6.74,0,0,1-1.85-.88l.77-1.54a5.5,5.5,0,0,0,1.41.8,4.08,4.08,0,0,0,1.48.28,2.38,2.38,0,0,0,1.53-.44,1.48,1.48,0,0,0,.56-1.22,1.33,1.33,0,0,0-.55-1.15,2.72,2.72,0,0,0-1.65-.41l-1.39,0c-.57,0-1,.05-1.33.08v-5.53h6.57V168h-4.76v2h1.36A4.93,4.93,0,0,1,120.25,170.37Z"></path>
  <path class="cls-2" d="M122.67,166.24h4.1v10.22h-2V168h-2.15Z"></path>
  <path class="cls-2" d="M135.35,166.88a2.34,2.34,0,0,1,.93,2,2.26,2.26,0,0,1-.38,1.27,2.49,2.49,0,0,1-1.05.89,3,3,0,0,1,1.42,1,2.52,2.52,0,0,1,.52,1.58,2.62,2.62,0,0,1-.48,1.56,3,3,0,0,1-1.38,1,6.28,6.28,0,0,1-4.19,0,3.05,3.05,0,0,1-1.38-1,2.67,2.67,0,0,1,.06-3.14,3.13,3.13,0,0,1,1.49-1,2.87,2.87,0,0,1-1.12-.93,2.24,2.24,0,0,1-.4-1.3,2.27,2.27,0,0,1,.93-1.91,4,4,0,0,1,2.5-.71A4,4,0,0,1,135.35,166.88Zm-4.08,5.37a1.36,1.36,0,0,0-.55,1.16,1.4,1.4,0,0,0,.55,1.18,3.14,3.14,0,0,0,3.12,0,1.5,1.5,0,0,0,0-2.34,2.66,2.66,0,0,0-1.57-.41A2.6,2.6,0,0,0,131.27,172.25Zm.24-4.33a1.34,1.34,0,0,0,0,2,2.09,2.09,0,0,0,1.32.37,2.05,2.05,0,0,0,1.32-.37,1.36,1.36,0,0,0,0-2,2.12,2.12,0,0,0-1.32-.37A2.16,2.16,0,0,0,131.51,167.92Z"></path>
  <path class="cls-2" d="M389.86,170.52h1.49L392.8,175l1.41-4.48h1.45L397.1,175l1.42-4.48H400l-2.15,5.94h-1.48l-1.42-4.19-1.41,4.19H392Z"></path>
  <path class="cls-2" d="M405.22,171.28a3.34,3.34,0,0,1,.71,2.27c0,.19,0,.34,0,.43h-4.38a1.67,1.67,0,0,0,.59,1,1.72,1.72,0,0,0,1.11.36,2.36,2.36,0,0,0,.87-.17,2.12,2.12,0,0,0,.72-.5l.78.81a3.07,3.07,0,0,1-1.08.76,3.82,3.82,0,0,1-1.42.26,3.31,3.31,0,0,1-1.6-.37,2.73,2.73,0,0,1-1.07-1.06,3.45,3.45,0,0,1,0-3.15,2.71,2.71,0,0,1,1.08-1.07,3.09,3.09,0,0,1,1.56-.39A2.71,2.71,0,0,1,405.22,171.28Zm-.61,1.74a1.44,1.44,0,0,0-.43-1.05,1.55,1.55,0,0,0-1.09-.38A1.52,1.52,0,0,0,402,172a1.71,1.71,0,0,0-.53,1.05Z"></path>
  <path class="cls-2" d="M410.68,176.45v-.72a1.93,1.93,0,0,1-.8.59,3,3,0,0,1-1.12.19,2.36,2.36,0,0,1-1.09-.23,1.8,1.8,0,0,1-.73-.66,1.82,1.82,0,0,1-.25-1,1.55,1.55,0,0,1,.59-1.3,2.61,2.61,0,0,1,1.66-.49h1.73v-.15a1,1,0,0,0-.34-.81,1.53,1.53,0,0,0-1-.29,3.48,3.48,0,0,0-1.77.56l-.52-1a6.34,6.34,0,0,1,1.27-.56,4.48,4.48,0,0,1,1.34-.18,2.63,2.63,0,0,1,1.79.56,1.94,1.94,0,0,1,.65,1.55v3.89Zm-.51-1.34a1,1,0,0,0,.5-.73v-.53h-1.5a1.72,1.72,0,0,0-.85.17.62.62,0,0,0-.27.56.72.72,0,0,0,.29.6,1.18,1.18,0,0,0,.77.22A1.83,1.83,0,0,0,410.17,175.11Z"></path>
  <path class="cls-2" d="M416,170.77a2.5,2.5,0,0,1,1.21-.32v1.4a2,2,0,0,0-1.47.43,1.64,1.64,0,0,0-.55,1.3v2.87h-1.44v-5.94h1.44v1.14A2.16,2.16,0,0,1,416,170.77Z"></path>
  <path class="cls-2" d="M422.81,171.28a3.29,3.29,0,0,1,.72,2.27c0,.19,0,.34,0,.43h-4.39a1.73,1.73,0,0,0,.6,1,1.67,1.67,0,0,0,1.1.36,2.36,2.36,0,0,0,.87-.17,2.16,2.16,0,0,0,.73-.5l.78.81a3,3,0,0,1-1.09.76,3.73,3.73,0,0,1-1.41.26,3.36,3.36,0,0,1-1.61-.37,2.73,2.73,0,0,1-1.07-1.06,3.23,3.23,0,0,1-.38-1.57,3.14,3.14,0,0,1,.39-1.58,2.63,2.63,0,0,1,1.07-1.07,3.11,3.11,0,0,1,1.56-.39A2.71,2.71,0,0,1,422.81,171.28Zm-.6,1.74a1.45,1.45,0,0,0-.44-1.05,1.53,1.53,0,0,0-1.08-.38,1.48,1.48,0,0,0-1.06.38,1.61,1.61,0,0,0-.53,1.05Z"></path>
  <path class="cls-2" d="M428.79,176.45l-1.61-2.6-.91,1v1.64h-1.44v-8.24h1.44V173l2.44-2.46h1.67l-2.2,2.29,2.33,3.64Z"></path>
  <path class="cls-2" d="M432.79,168.2a.88.88,0,0,1,.23.62.85.85,0,0,1-.23.61.78.78,0,0,1-.59.25.75.75,0,0,1-.59-.25.81.81,0,0,1-.23-.61.84.84,0,0,1,.23-.62.78.78,0,0,1,.59-.24A.81.81,0,0,1,432.79,168.2Zm-1.3,2.31h1.44v5.94h-1.44Z"></path>
  <path class="cls-2" d="M434.77,168.21h1.45v8.24h-1.45Z"></path>
  <path class="cls-2" d="M442.29,170.84a2.74,2.74,0,0,1,1.1,1.06,3.13,3.13,0,0,1,.4,1.57,3.18,3.18,0,0,1-.4,1.59,2.76,2.76,0,0,1-1.1,1.07,3.4,3.4,0,0,1-1.62.37,3.49,3.49,0,0,1-1.65-.37,2.76,2.76,0,0,1-1.1-1.07,3.18,3.18,0,0,1-.4-1.59,3.13,3.13,0,0,1,.4-1.57,2.74,2.74,0,0,1,1.1-1.06,3.49,3.49,0,0,1,1.65-.38A3.4,3.4,0,0,1,442.29,170.84Zm-2.84,1.36a2,2,0,0,0,0,2.59,1.71,1.71,0,0,0,2.42,0,2.05,2.05,0,0,0,0-2.59,1.71,1.71,0,0,0-2.42,0Z"></path>
  <path class="cls-2" d="M445.93,175.17a.77.77,0,0,1,.22.57.79.79,0,0,1-.22.58.72.72,0,0,1-.55.23.7.7,0,0,1-.53-.23.81.81,0,0,1-.22-.58.77.77,0,0,1,.22-.57.69.69,0,0,1,.53-.22A.71.71,0,0,1,445.93,175.17Z"></path>
  <path class="cls-2" d="M450.07,171.73a1.5,1.5,0,0,0-1.17.49,1.78,1.78,0,0,0-.45,1.26,1.81,1.81,0,0,0,.45,1.29,1.5,1.5,0,0,0,1.17.49,1.88,1.88,0,0,0,1.6-.7l.9.74a2.55,2.55,0,0,1-1.06.89,3.44,3.44,0,0,1-1.52.31,3.21,3.21,0,0,1-1.56-.37,2.77,2.77,0,0,1-1.06-1.06,3.23,3.23,0,0,1-.38-1.57,3.18,3.18,0,0,1,.39-1.59,2.66,2.66,0,0,1,1.06-1.07,3.23,3.23,0,0,1,1.57-.38,3.51,3.51,0,0,1,1.45.29,2.6,2.6,0,0,1,1,.8l-.88.84A2,2,0,0,0,450.07,171.73Z"></path>
  <path class="cls-2" d="M457.81,170.84a2.74,2.74,0,0,1,1.1,1.06,3.13,3.13,0,0,1,.39,1.57,3.18,3.18,0,0,1-.39,1.59,2.76,2.76,0,0,1-1.1,1.07,3.4,3.4,0,0,1-1.62.37,3.49,3.49,0,0,1-1.65-.37,2.76,2.76,0,0,1-1.1-1.07,3.08,3.08,0,0,1-.4-1.59,3,3,0,0,1,.4-1.57,2.74,2.74,0,0,1,1.1-1.06,3.49,3.49,0,0,1,1.65-.38A3.4,3.4,0,0,1,457.81,170.84ZM455,172.2a2.05,2.05,0,0,0,0,2.59,1.58,1.58,0,0,0,1.23.5,1.54,1.54,0,0,0,1.19-.5,2,2,0,0,0,0-2.59,1.54,1.54,0,0,0-1.19-.5A1.58,1.58,0,0,0,455,172.2Z"></path>
  <path class="cls-2" d="M469.93,171.07a2.37,2.37,0,0,1,.57,1.67v3.71h-1.45v-3.29a1.37,1.37,0,0,0-.35-1,1.26,1.26,0,0,0-.95-.36,1.39,1.39,0,0,0-1.09.5,1.81,1.81,0,0,0-.41,1.21v2.93H464.8v-3.29a1.41,1.41,0,0,0-.34-1,1.26,1.26,0,0,0-.95-.36,1.42,1.42,0,0,0-1.1.5,1.81,1.81,0,0,0-.41,1.21v2.93h-1.44v-5.94H462v1.1a2.45,2.45,0,0,1,3.39-.78,1.91,1.91,0,0,1,.74,1,2.22,2.22,0,0,1,2.21-1.42A2.09,2.09,0,0,1,469.93,171.07Z"></path>
  <path class="cls-2" d="M260.7,174H246.48l-11.94-17.66-5.72,6.36V174H216.94V128.43h11.88v19.74l17.08-19.74h13.76l-16.88,18.76Z"></path>
  <path class="cls-2" d="M265.57,128.43h11.89V174H265.57Z"></path>
  <path class="cls-2" d="M286.29,128.43h11.88v35.39h19.28V174H286.29Z"></path>
  <path class="cls-2" d="M365.92,139.14a22.8,22.8,0,0,0-8.83-8.37,27.41,27.41,0,0,0-25.13,0,22.6,22.6,0,0,0-12,20.32,23.31,23.31,0,0,0,3.21,12.11,22.86,22.86,0,0,0,8.83,8.51,25.75,25.75,0,0,0,12.57,3.08,25.41,25.41,0,0,0,12.56-3.12,23,23,0,0,0,12.05-20.58A22.72,22.72,0,0,0,365.92,139.14Zm-34.8,12.05a13.41,13.41,0,0,1,26.82,0Z"></path>
</svg>
