<?xml version="1.0" encoding="UTF-8"?>
<svg xmlns="http://www.w3.org/2000/svg" xmlns:xlink="http://www.w3.org/1999/xlink" viewBox="0 0 600 600">
  <clipPath id="a">
    <path d="m188.9 317.94h57.67v153.23h-57.67z"></path>
  </clipPath>
  <clipPath id="b">
    <path d="m244.97 299.86h26.3v26.3h-26.3z"></path>
  </clipPath>
  <clipPath id="c">
    <path d="m244.97 326.16h26.3v26.3h-26.3z"></path>
  </clipPath>
  <clipPath id="d">
    <path d="m244.97 352.46h26.3v26.3h-26.3z"></path>
  </clipPath>
  <clipPath id="e">
    <path d="m244.97 378.76h26.3v26.3h-26.3z"></path>
  </clipPath>
  <clipPath id="f">
    <path d="m244.97 405.06h26.3v26.3h-26.3z"></path>
  </clipPath>
  <clipPath id="g">
    <path d="m244.97 431.36h26.3v26.3h-26.3z"></path>
  </clipPath>
  <clipPath id="h">
    <path d="m244.97 457.66h26.3v26.3h-26.3z"></path>
  </clipPath>
  <clipPath id="i">
    <path d="m218.67 299.86h26.3v26.3h-26.3z"></path>
  </clipPath>
  <clipPath id="j">
    <path d="m218.67 326.16h26.3v26.3h-26.3z"></path>
  </clipPath>
  <clipPath id="k">
    <path d="m218.67 352.46h26.3v26.3h-26.3z"></path>
  </clipPath>
  <clipPath id="l">
    <path d="m218.67 378.76h26.3v26.3h-26.3z"></path>
  </clipPath>
  <clipPath id="m">
    <path d="m218.67 405.06h26.3v26.3h-26.3z"></path>
  </clipPath>
  <clipPath id="n">
    <path d="m218.67 431.36h26.3v26.3h-26.3z"></path>
  </clipPath>
  <clipPath id="o">
    <path d="m218.67 457.66h26.3v26.3h-26.3z"></path>
  </clipPath>
  <clipPath id="p">
    <path d="m192.37 299.86h26.3v26.3h-26.3z"></path>
  </clipPath>
  <clipPath id="q">
    <path d="m192.37 326.16h26.3v26.3h-26.3z"></path>
  </clipPath>
  <clipPath id="r">
    <path d="m192.37 352.46h26.3v26.3h-26.3z"></path>
  </clipPath>
  <clipPath id="s">
    <path d="m192.37 378.76h26.3v26.3h-26.3z"></path>
  </clipPath>
  <clipPath id="t">
    <path d="m192.37 405.06h26.3v26.3h-26.3z"></path>
  </clipPath>
  <clipPath id="u">
    <path d="m192.37 431.36h26.3v26.3h-26.3z"></path>
  </clipPath>
  <clipPath id="v">
    <path d="m192.37 457.66h26.3v26.3h-26.3z"></path>
  </clipPath>
  <clipPath id="w">
    <path d="m166.07 299.86h26.3v26.3h-26.3z"></path>
  </clipPath>
  <clipPath id="x">
    <path d="m166.07 326.16h26.3v26.3h-26.3z"></path>
  </clipPath>
  <clipPath id="y">
    <path d="m166.07 352.46h26.3v26.3h-26.3z"></path>
  </clipPath>
  <clipPath id="z">
    <path d="m166.07 378.76h26.3v26.3h-26.3z"></path>
  </clipPath>
  <clipPath id="A">
    <path d="m166.07 405.06h26.3v26.3h-26.3z"></path>
  </clipPath>
  <clipPath id="B">
    <path d="m166.07 431.36h26.3v26.3h-26.3z"></path>
  </clipPath>
  <clipPath id="C">
    <path d="m166.07 457.66h26.3v26.3h-26.3z"></path>
  </clipPath>
  <clipPath id="D">
    <path d="m351.58 317.5h61.06v153.66h-61.06z"></path>
  </clipPath>
  <clipPath id="E">
    <path d="m410.95 295.29h27.85v27h-27.85z"></path>
  </clipPath>
  <clipPath id="F">
    <path d="m410.95 322.29h27.85v27h-27.85z"></path>
  </clipPath>
  <clipPath id="G">
    <path d="m410.95 349.29h27.85v27h-27.85z"></path>
  </clipPath>
  <clipPath id="H">
    <path d="m410.95 376.29h27.85v27h-27.85z"></path>
  </clipPath>
  <clipPath id="I">
    <path d="m410.95 403.3h27.85v27h-27.85z"></path>
  </clipPath>
  <clipPath id="J">
    <path d="m410.95 430.3h27.85v27h-27.85z"></path>
  </clipPath>
  <clipPath id="K">
    <path d="m410.95 457.3h27.85v27h-27.85z"></path>
  </clipPath>
  <clipPath id="L">
    <path d="m383.1 295.29h27.85v27h-27.85z"></path>
  </clipPath>
  <clipPath id="M">
    <path d="m383.1 322.29h27.85v27h-27.85z"></path>
  </clipPath>
  <clipPath id="N">
    <path d="m383.1 349.29h27.85v27h-27.85z"></path>
  </clipPath>
  <clipPath id="O">
    <path d="m383.1 376.29h27.85v27h-27.85z"></path>
  </clipPath>
  <clipPath id="P">
    <path d="m383.1 403.3h27.85v27h-27.85z"></path>
  </clipPath>
  <clipPath id="Q">
    <path d="m383.1 430.3h27.85v27h-27.85z"></path>
  </clipPath>
  <clipPath id="R">
    <path d="m383.1 457.3h27.85v27h-27.85z"></path>
  </clipPath>
  <clipPath id="S">
    <path d="m355.26 295.29h27.85v27h-27.85z"></path>
  </clipPath>
  <clipPath id="T">
    <path d="m355.26 322.29h27.85v27h-27.85z"></path>
  </clipPath>
  <clipPath id="U">
    <path d="m355.26 349.29h27.85v27h-27.85z"></path>
  </clipPath>
  <clipPath id="V">
    <path d="m355.26 376.29h27.85v27h-27.85z"></path>
  </clipPath>
  <clipPath id="W">
    <path d="m355.26 403.3h27.85v27h-27.85z"></path>
  </clipPath>
  <clipPath id="X">
    <path d="m355.26 430.3h27.85v27h-27.85z"></path>
  </clipPath>
  <clipPath id="Y">
    <path d="m355.26 457.3h27.85v27h-27.85z"></path>
  </clipPath>
  <clipPath id="Z">
    <path d="m327.41 295.29h27.85v27h-27.85z"></path>
  </clipPath>
  <clipPath id="aa">
    <path d="m327.41 322.29h27.85v27h-27.85z"></path>
  </clipPath>
  <clipPath id="ab">
    <path d="m327.41 349.29h27.85v27h-27.85z"></path>
  </clipPath>
  <clipPath id="ac">
    <path d="m327.41 376.29h27.85v27h-27.85z"></path>
  </clipPath>
  <clipPath id="ad">
    <path d="m327.41 403.3h27.85v27h-27.85z"></path>
  </clipPath>
  <clipPath id="ae">
    <path d="m327.41 430.3h27.85v27h-27.85z"></path>
  </clipPath>
  <clipPath id="af">
    <path d="m327.41 457.3h27.85v27h-27.85z"></path>
  </clipPath>
  <path d="m178.62 240.24h239.24v251.95h-239.24z" fill="#fff"></path>
  <path d="m84.39 130.84h431.22v22.97h-431.22z" fill="#ffde00"></path>
  <path d="m175.24 223.32v.05 15.03 220.71h13.66v-220.71h223.83v220.71h13.66v-220.71-15.03-.05z" fill="#ffde00"></path>
  <path d="m351.01 471.16h61.63v19.62h-61.63z" fill="#ffde00"></path>
  <path d="m175.24 153.77h251.15v69.56h-251.15z" fill="#ffde00"></path>
  <path d="m188.9 471.16h57.67v19.62h-57.67z" fill="#ffde00"></path>
  <path d="m84.39 459.11h104.51v31.67h-104.51z" fill="#ffde00"></path>
  <path d="m412.64 459.11h102.97v31.67h-102.97z" fill="#ffde00"></path>
  <path d="m84.39 153.81h9.56v40.23h-9.56z" fill="#ffde00"></path>
  <path d="m506.05 153.81h9.56v40.23h-9.56z" fill="#ffde00"></path>
  <path d="m118.35 179.19h32.5v18.7h-32.5z" fill="#ffde00"></path>
  <path d="m449.97 179.19h32.5v18.7h-32.5z" fill="#ffde00"></path>
  <path d="m246.57 479.42h104.44v11.37h-104.44z" fill="#00ab81"></path>
  <path d="m84.39 194.05h9.56v265.06h-9.56z" fill="#00ab81"></path>
  <path d="m506.05 194.05h9.56v265.06h-9.56z" fill="#00ab81"></path>
  <path d="m426.39 153.81v305.3h79.66v-305.3zm56.08 44.09h-32.47v-18.71h32.5z" fill="#00ab81"></path>
  <path d="m94 153.81v305.3h81.29v-305.3zm56.89 44.09h-32.54v-18.71h32.49z" fill="#00ab81"></path>
  <path d="m187.58 423.01h59.65v36.66h-59.65z" fill="#fb715d" transform="matrix(0 1 -1 0 658.74 223.93)"></path>
  <path d="m351.36 423.01h59.65v36.66h-59.65z" fill="#fb715d" transform="matrix(0 1 -1 0 822.52 60.15)"></path>
  <path d="m188.9 294.83h223.74v23.11h-223.74z" fill="#fb715d"></path>
  <g fill="#1c19a8">
    <path d="m237.14 472.57h-39.47v-62.47h39.47zm-36.66-2.81h33.85v-56.84h-33.85z"></path>
    <path d="m400.92 472.57h-39.47v-62.47h39.47zm-36.66-2.81h33.85v-56.84h-33.85z"></path>
    <path d="m414.05 319.34h-226.56v-25.92h226.56zm-223.75-2.81h220.93v-20.3h-220.93z"></path>
    <path d="m515.61 155.22h-431.22a1.41 1.41 0 0 1 -1.4-1.41v-23a1.41 1.41 0 0 1 1.4-1.41h431.22a1.41 1.41 0 0 1 1.4 1.41v23a1.41 1.41 0 0 1 -1.4 1.41zm-429.81-2.81h428.4v-20.16h-428.4z"></path>
    <path d="m351 492.19h-104.44a1.41 1.41 0 0 1 -1.4-1.41v-11.37a1.4 1.4 0 0 1 1.4-1.4h104.44a1.4 1.4 0 0 1 1.4 1.4v11.37a1.41 1.41 0 0 1 -1.4 1.41zm-103-2.81h101.6v-8.56h-101.6z"></path>
    <path d="m94 460.51h-9.61a1.4 1.4 0 0 1 -1.4-1.4v-265.06a1.41 1.41 0 0 1 1.4-1.41h9.61a1.41 1.41 0 0 1 1.41 1.41v265.06a1.41 1.41 0 0 1 -1.41 1.4zm-8.2-2.81h6.74v-262.25h-6.74z"></path>
    <path d="m515.61 460.51h-9.56a1.41 1.41 0 0 1 -1.41-1.4v-265.06a1.41 1.41 0 0 1 1.41-1.41h9.56a1.41 1.41 0 0 1 1.4 1.41v265.06a1.4 1.4 0 0 1 -1.4 1.4zm-8.15-2.81h6.74v-262.25h-6.74z"></path>
    <path d="m426.39 460.51h-13.66a1.41 1.41 0 0 1 -1.41-1.4v-219.3h-221v219.3a1.4 1.4 0 0 1 -1.4 1.4h-13.68a1.41 1.41 0 0 1 -1.41-1.4v-235.74a1.44 1.44 0 0 1 1.41-1.45h251.15a1.41 1.41 0 0 1 1.4 1.41v235.78a1.4 1.4 0 0 1 -1.4 1.4zm-12.25-2.81h10.86v-233h-248.35v233h10.84v-219.3a1.41 1.41 0 0 1 1.41-1.4h223.83a1.41 1.41 0 0 1 1.41 1.41z"></path>
    <path d="m412.64 492.19h-61.64a1.41 1.41 0 0 1 -1.41-1.41v-19.62a1.41 1.41 0 0 1 1.41-1.4h61.63a1.41 1.41 0 0 1 1.41 1.4v19.62a1.41 1.41 0 0 1 -1.4 1.41zm-60.23-2.81h58.82v-16.81h-58.82z"></path>
    <path d="m426.39 224.73h-251.15a1.41 1.41 0 0 1 -1.41-1.4v-69.56a1.41 1.41 0 0 1 1.41-1.41h251.15a1.41 1.41 0 0 1 1.4 1.41v69.56a1.4 1.4 0 0 1 -1.4 1.4zm-249.74-2.81h248.35v-66.75h-248.35z"></path>
    <path d="m246.56 492.19h-57.66a1.41 1.41 0 0 1 -1.41-1.41v-19.62a1.41 1.41 0 0 1 1.41-1.4h57.66a1.41 1.41 0 0 1 1.41 1.4v19.62a1.41 1.41 0 0 1 -1.41 1.41zm-56.26-2.81h54.86v-16.81h-54.86z"></path>
    <path d="m188.9 492.19h-104.51a1.41 1.41 0 0 1 -1.4-1.41v-31.67a1.41 1.41 0 0 1 1.4-1.41h104.51a1.41 1.41 0 0 1 1.4 1.41v31.67a1.41 1.41 0 0 1 -1.4 1.41zm-103.1-2.81h101.69v-28.87h-101.69z"></path>
    <path d="m515.61 492.19h-103a1.41 1.41 0 0 1 -1.41-1.41v-31.67a1.41 1.41 0 0 1 1.41-1.41h103a1.41 1.41 0 0 1 1.4 1.41v31.67a1.41 1.41 0 0 1 -1.4 1.41zm-101.56-2.81h100.15v-28.87h-100.15z"></path>
    <path d="m351 480.82h-104.44a1.41 1.41 0 0 1 -1.4-1.41v-241a1.41 1.41 0 0 1 1.4-1.41h104.44a1.41 1.41 0 0 1 1.4 1.41v241a1.41 1.41 0 0 1 -1.4 1.41zm-103-2.82h101.6v-238.19h-101.6z"></path>
    <path d="m297.38 317.94h2.81v160.28h-2.81z"></path>
    <path d="m292 416.2a1.41 1.41 0 0 1 -1.4-1.41v-33.43a1.41 1.41 0 1 1 2.81 0v33.43a1.41 1.41 0 0 1 -1.41 1.41z"></path>
    <path d="m305.59 416.2a1.41 1.41 0 0 1 -1.41-1.41v-33.43a1.41 1.41 0 1 1 2.82 0v33.43a1.41 1.41 0 0 1 -1.41 1.41z"></path>
    <path d="m506.05 460.51h-79.66a1.41 1.41 0 0 1 -1.41-1.4v-305.3a1.41 1.41 0 0 1 1.41-1.4h79.66a1.41 1.41 0 0 1 1.41 1.4v305.3a1.41 1.41 0 0 1 -1.41 1.4zm-78.26-2.81h76.85v-302.48h-76.85zm54.68-258.39h-32.47a1.41 1.41 0 0 1 -1.4-1.41v-18.71a1.4 1.4 0 0 1 1.4-1.4h32.5a1.4 1.4 0 0 1 1.4 1.4v18.71a1.41 1.41 0 0 1 -1.43 1.41zm-31.09-2.82h29.68v-15.89h-29.68z"></path>
    <path d="m175.24 460.51h-81.24a1.41 1.41 0 0 1 -1.41-1.4v-305.3a1.41 1.41 0 0 1 1.41-1.4h81.29a1.41 1.41 0 0 1 1.41 1.4v305.3a1.41 1.41 0 0 1 -1.46 1.4zm-79.88-2.81h78.47v-302.48h-78.47zm55.48-258.39h-32.49a1.41 1.41 0 0 1 -1.41-1.41v-18.71a1.41 1.41 0 0 1 1.41-1.4h32.49a1.41 1.41 0 0 1 1.41 1.4v18.71a1.41 1.41 0 0 1 -1.41 1.41zm-31.09-2.82h29.69v-15.89h-29.69z"></path>
    <path d="m334.43 179.39v4.2h-8v12.64a5.47 5.47 0 0 0 .31 2 2.38 2.38 0 0 0 4.2.5 11.36 11.36 0 0 0 1.17-2.81c.07-.22.14-.44.19-.67s.08-.18.22-.14l2.89.83c.06 0 .15.13.14.18a14.25 14.25 0 0 1 -2.15 5.59 6.94 6.94 0 0 1 -5 2.89 11.83 11.83 0 0 1 -4.74-.26 6.38 6.38 0 0 1 -4.77-5.14 12.53 12.53 0 0 1 -.31-2.86v-12.74h-4.41v-4.2h4.56v-5.89l7.66-.91v6.79z"></path>
    <path d="m350.14 179.49v-6.88h2.39c0 .21.06.43.08.65l.15 1.38c0 .07.07.13.1.2a.84.84 0 0 0 .15-.18c.17-.35.29-.72.48-1a2.3 2.3 0 0 1 3.23-.88 6.65 6.65 0 0 1 1.49 1.26 10.48 10.48 0 0 0 1.07.93 1.21 1.21 0 0 0 1.13.18 1.84 1.84 0 0 1 -.25-1.44 1.73 1.73 0 0 1 1.79-1.33 2 2 0 0 1 1.95 2.62 4.82 4.82 0 0 1 -1.17 1.86 16.17 16.17 0 0 0 -3.56 5.78 28.89 28.89 0 0 0 -1.17 5.36 6.74 6.74 0 0 1 -.2.89 2.31 2.31 0 0 1 -4.51-.72 7.34 7.34 0 0 1 .28-1.61 10 10 0 0 1 1.66-3.12 50.59 50.59 0 0 1 4.21-4.92c.58-.61 1.16-1.23 1.75-1.84-.06-.2-.17-.14-.29-.06a4.83 4.83 0 0 1 -2.84.84 6.42 6.42 0 0 1 -2.07-.51 12 12 0 0 0 -1.32-.44 1.26 1.26 0 0 0 -1.65.84c-.24.63-.37 1.29-.55 1.94 0 .08 0 .16-.05.25z"></path>
    <path d="m346.41 187.76h3.59v2.24h-11.46v-2.24h3.63v-11c-.41.05-.81.12-1.21.15a7.08 7.08 0 0 1 -2.38-.26c-.08 0-.19-.1-.19-.15 0-.6 0-1.19 0-1.79.47 0 .9 0 1.34-.07a6.53 6.53 0 0 0 2.76-.84 4.18 4.18 0 0 0 1.25-1.12c0-.07.13-.15.2-.15h2.48z"></path>
    <path d="m313.69 197.8a12.13 12.13 0 0 1 -.42 1.16 4.26 4.26 0 0 1 -.63 1 1.14 1.14 0 0 1 -1.26.19.93.93 0 0 1 -.65-.84 5.21 5.21 0 0 1 -.05-.69c0-3.77 0-7.54 0-11.3a13.42 13.42 0 0 0 -.2-2.28 6.91 6.91 0 0 0 -4.36-5.46 12.18 12.18 0 0 0 -3.86-.88 22.38 22.38 0 0 0 -6.26.3 12.91 12.91 0 0 0 -4.67 1.75 5.41 5.41 0 0 0 -2.78 4.45 3.52 3.52 0 0 0 2.29 3.63 4.9 4.9 0 0 0 3 .14 3.28 3.28 0 0 0 2.53-3.63 3.16 3.16 0 0 0 -1.24-2.25l.23-.1a8.51 8.51 0 0 1 4.33-.44 3.91 3.91 0 0 1 1.9.74 3.4 3.4 0 0 1 1.25 2.53c.07 1 .05 2 .06 3 0 .57-.08.72-.65.84s-1.31.24-2 .35c-1.76.3-3.52.56-5.27.91a13.22 13.22 0 0 0 -4.2 1.55 6.32 6.32 0 0 0 -2.87 7.82 6.23 6.23 0 0 0 4.09 3.82 10.32 10.32 0 0 0 4.55.42 8 8 0 0 0 6.82-5c.08-.17.15-.27.35-.18 0 .26.08.52.14.77a5.27 5.27 0 0 0 2.73 3.83 6.4 6.4 0 0 0 3.36.65 10 10 0 0 0 1.88-.3 4.85 4.85 0 0 0 2.54-1.67 9.89 9.89 0 0 0 1.83-4zm-11.76-1.8a9.18 9.18 0 0 1 -.2 1.65 4.67 4.67 0 0 1 -1.72 2.86 3.65 3.65 0 0 1 -3.91.3 2.56 2.56 0 0 1 -1.44-2 3.85 3.85 0 0 1 .64-3.17 4.15 4.15 0 0 1 1.95-1.28 19.19 19.19 0 0 1 3.19-.74l1.5-.25c0 .84.06 1.73-.01 2.63z"></path>
    <path d="m284.67 185.79a10.26 10.26 0 0 0 -6.35-6.47 13.77 13.77 0 0 0 -7.55-.5 12.36 12.36 0 0 0 -9.15 7.22 14.1 14.1 0 0 0 -.89 9.12 11.21 11.21 0 0 0 7.49 8.63 16.55 16.55 0 0 0 9.87.4 9.12 9.12 0 0 0 6.56-5.75 11.53 11.53 0 0 0 .67-2.38h-.09-3.93a.29.29 0 0 0 -.21.15c-.18.37-.32.77-.51 1.13a5.22 5.22 0 0 1 -3.7 2.94 9.37 9.37 0 0 1 -3.17.06 5.15 5.15 0 0 1 -4.15-3 11.24 11.24 0 0 1 -1-3.91c0-.25 0-.5-.06-.77h17c0-.06 0-.08 0-.11 0-.23 0-.46 0-.69a17 17 0 0 0 -.83-6.07zm-6.78 3.49h-9.3c0-.23 0-.46.05-.69a12.5 12.5 0 0 1 .8-3.72 3.88 3.88 0 0 1 2.29-2.39 4.33 4.33 0 0 1 3.94.35 4 4 0 0 1 1.52 2.13 14.26 14.26 0 0 1 .73 4.25z"></path>
    <path d="m95.36 195.45h-12.36v-43h12.36zm-9.56-2.81h6.74v-37.42h-6.74z"></path>
    <path d="m517 195.45h-12.36v-43h12.36zm-9.55-2.81h6.74v-37.42h-6.74z"></path>
    <path d="m150.84 199.31h-32.49a1.41 1.41 0 0 1 -1.41-1.41v-18.71a1.41 1.41 0 0 1 1.41-1.4h32.49a1.41 1.41 0 0 1 1.41 1.4v18.71a1.41 1.41 0 0 1 -1.41 1.41zm-31.09-2.82h29.69v-15.89h-29.69z"></path>
    <path d="m482.47 199.31h-32.47a1.41 1.41 0 0 1 -1.4-1.41v-18.71a1.4 1.4 0 0 1 1.4-1.4h32.5a1.41 1.41 0 0 1 1.41 1.4v18.71a1.41 1.41 0 0 1 -1.44 1.41zm-31.09-2.82h29.68v-15.89h-29.68z"></path>
    <g clip-path="url(#a)">
      <g clip-path="url(#b)">
        <path d="m271.27 327.48a1.32 1.32 0 1 0 -1.32-1.32 1.32 1.32 0 0 0 1.32 1.32z"></path>
        <path d="m258.12 327.48a1.32 1.32 0 1 0 -1.32-1.32 1.32 1.32 0 0 0 1.32 1.32z"></path>
        <path d="m271.27 314.33a1.32 1.32 0 1 0 -1.27-1.33 1.32 1.32 0 0 0 1.27 1.33z"></path>
        <path d="m258.12 314.33a1.32 1.32 0 1 0 -1.32-1.33 1.32 1.32 0 0 0 1.32 1.33z"></path>
        <path d="m251.54 320.9a1.32 1.32 0 1 0 -1.31-1.31 1.32 1.32 0 0 0 1.31 1.31z"></path>
        <path d="m264.69 320.9a1.32 1.32 0 1 0 -1.31-1.31 1.32 1.32 0 0 0 1.31 1.31z"></path>
        <path d="m251.54 307.75a1.32 1.32 0 1 0 -1.31-1.31 1.32 1.32 0 0 0 1.31 1.31z"></path>
        <path d="m264.69 307.75a1.32 1.32 0 1 0 -1.31-1.31 1.32 1.32 0 0 0 1.31 1.31z"></path>
        <path d="m245 327.48a1.32 1.32 0 1 0 -1.32-1.32 1.32 1.32 0 0 0 1.32 1.32z"></path>
        <path d="m245 314.33a1.32 1.32 0 1 0 -1.32-1.32 1.32 1.32 0 0 0 1.32 1.32z"></path>
        <path d="m271.27 301.18a1.32 1.32 0 1 0 -1.32-1.32 1.32 1.32 0 0 0 1.32 1.32z"></path>
        <path d="m258.12 301.18a1.32 1.32 0 1 0 -1.32-1.32 1.32 1.32 0 0 0 1.32 1.32z"></path>
        <path d="m245 301.18a1.32 1.32 0 1 0 -1.32-1.32 1.32 1.32 0 0 0 1.32 1.32z"></path>
      </g>
      <g clip-path="url(#c)">
        <path d="m271.27 353.78a1.32 1.32 0 1 0 -1.32-1.32 1.32 1.32 0 0 0 1.32 1.32z"></path>
        <path d="m258.12 353.78a1.32 1.32 0 1 0 -1.32-1.32 1.32 1.32 0 0 0 1.32 1.32z"></path>
        <path d="m271.27 340.63a1.32 1.32 0 1 0 -1.32-1.32 1.32 1.32 0 0 0 1.32 1.32z"></path>
        <path d="m258.12 340.63a1.32 1.32 0 1 0 -1.32-1.32 1.32 1.32 0 0 0 1.32 1.32z"></path>
        <path d="m251.54 347.2a1.32 1.32 0 1 0 -1.31-1.31 1.32 1.32 0 0 0 1.31 1.31z"></path>
        <path d="m264.69 347.2a1.32 1.32 0 1 0 -1.31-1.31 1.32 1.32 0 0 0 1.31 1.31z"></path>
        <path d="m251.54 334.05a1.32 1.32 0 1 0 -1.31-1.31 1.32 1.32 0 0 0 1.31 1.31z"></path>
        <path d="m264.69 334.05a1.32 1.32 0 1 0 -1.31-1.31 1.32 1.32 0 0 0 1.31 1.31z"></path>
        <path d="m245 353.78a1.32 1.32 0 1 0 -1.32-1.32 1.32 1.32 0 0 0 1.32 1.32z"></path>
        <path d="m245 340.63a1.32 1.32 0 1 0 -1.32-1.32 1.32 1.32 0 0 0 1.32 1.32z"></path>
        <path d="m271.27 327.48a1.32 1.32 0 1 0 -1.32-1.32 1.32 1.32 0 0 0 1.32 1.32z"></path>
        <path d="m258.12 327.48a1.32 1.32 0 1 0 -1.32-1.32 1.32 1.32 0 0 0 1.32 1.32z"></path>
        <path d="m245 327.48a1.32 1.32 0 1 0 -1.32-1.32 1.32 1.32 0 0 0 1.32 1.32z"></path>
      </g>
      <g clip-path="url(#d)">
        <path d="m271.27 380.07a1.31 1.31 0 1 0 -1.32-1.31 1.31 1.31 0 0 0 1.32 1.31z"></path>
        <path d="m258.12 380.07a1.31 1.31 0 1 0 -1.32-1.31 1.31 1.31 0 0 0 1.32 1.31z"></path>
        <path d="m271.27 366.93a1.32 1.32 0 1 0 -1.32-1.32 1.32 1.32 0 0 0 1.32 1.32z"></path>
        <path d="m258.12 366.93a1.32 1.32 0 1 0 -1.32-1.32 1.32 1.32 0 0 0 1.32 1.32z"></path>
        <path d="m251.54 373.5a1.32 1.32 0 1 0 -1.31-1.31 1.32 1.32 0 0 0 1.31 1.31z"></path>
        <path d="m264.69 373.5a1.32 1.32 0 1 0 -1.31-1.31 1.32 1.32 0 0 0 1.31 1.31z"></path>
        <path d="m251.54 360.35a1.32 1.32 0 1 0 -1.31-1.31 1.32 1.32 0 0 0 1.31 1.31z"></path>
        <path d="m264.69 360.35a1.32 1.32 0 1 0 -1.31-1.31 1.32 1.32 0 0 0 1.31 1.31z"></path>
        <path d="m245 380.07a1.31 1.31 0 1 0 -1.32-1.31 1.31 1.31 0 0 0 1.32 1.31z"></path>
        <path d="m245 366.93a1.32 1.32 0 1 0 -1.32-1.32 1.32 1.32 0 0 0 1.32 1.32z"></path>
        <path d="m271.27 353.78a1.32 1.32 0 1 0 -1.32-1.32 1.32 1.32 0 0 0 1.32 1.32z"></path>
        <path d="m258.12 353.78a1.32 1.32 0 1 0 -1.32-1.32 1.32 1.32 0 0 0 1.32 1.32z"></path>
        <path d="m245 353.78a1.32 1.32 0 1 0 -1.32-1.32 1.32 1.32 0 0 0 1.32 1.32z"></path>
      </g>
      <g clip-path="url(#e)">
        <path d="m271.27 406.37a1.32 1.32 0 1 0 -1.32-1.31 1.31 1.31 0 0 0 1.32 1.31z"></path>
        <path d="m258.12 406.37a1.32 1.32 0 1 0 -1.32-1.31 1.31 1.31 0 0 0 1.32 1.31z"></path>
        <path d="m271.27 393.23a1.32 1.32 0 1 0 -1.32-1.32 1.32 1.32 0 0 0 1.32 1.32z"></path>
        <path d="m258.12 393.23a1.32 1.32 0 1 0 -1.32-1.32 1.32 1.32 0 0 0 1.32 1.32z"></path>
        <path d="m251.54 399.8a1.32 1.32 0 1 0 -1.31-1.31 1.32 1.32 0 0 0 1.31 1.31z"></path>
        <path d="m264.69 399.8a1.32 1.32 0 1 0 -1.31-1.31 1.32 1.32 0 0 0 1.31 1.31z"></path>
        <path d="m251.54 386.65a1.32 1.32 0 1 0 -1.31-1.31 1.32 1.32 0 0 0 1.31 1.31z"></path>
        <path d="m264.69 386.65a1.32 1.32 0 1 0 -1.31-1.31 1.32 1.32 0 0 0 1.31 1.31z"></path>
        <path d="m245 406.37a1.32 1.32 0 1 0 -1.32-1.31 1.31 1.31 0 0 0 1.32 1.31z"></path>
        <path d="m245 393.23a1.32 1.32 0 1 0 -1.32-1.32 1.32 1.32 0 0 0 1.32 1.32z"></path>
        <path d="m271.27 380.07a1.31 1.31 0 1 0 -1.32-1.31 1.31 1.31 0 0 0 1.32 1.31z"></path>
        <path d="m258.12 380.07a1.31 1.31 0 1 0 -1.32-1.31 1.31 1.31 0 0 0 1.32 1.31z"></path>
        <path d="m245 380.07a1.31 1.31 0 1 0 -1.32-1.31 1.31 1.31 0 0 0 1.32 1.31z"></path>
      </g>
      <g clip-path="url(#f)">
        <path d="m271.27 432.67a1.32 1.32 0 1 0 -1.32-1.31 1.31 1.31 0 0 0 1.32 1.31z"></path>
        <path d="m258.12 432.67a1.32 1.32 0 1 0 -1.32-1.31 1.31 1.31 0 0 0 1.32 1.31z"></path>
        <path d="m271.27 419.52a1.32 1.32 0 1 0 -1.32-1.31 1.31 1.31 0 0 0 1.32 1.31z"></path>
        <path d="m258.12 419.52a1.32 1.32 0 1 0 -1.32-1.31 1.31 1.31 0 0 0 1.32 1.31z"></path>
        <path d="m251.54 426.1a1.32 1.32 0 1 0 -1.31-1.32 1.32 1.32 0 0 0 1.31 1.32z"></path>
        <path d="m264.69 426.1a1.32 1.32 0 1 0 -1.31-1.32 1.32 1.32 0 0 0 1.31 1.32z"></path>
        <path d="m251.54 413a1.32 1.32 0 1 0 -1.31-1.32 1.32 1.32 0 0 0 1.31 1.32z"></path>
        <path d="m264.69 413a1.32 1.32 0 1 0 -1.31-1.32 1.32 1.32 0 0 0 1.31 1.32z"></path>
        <path d="m245 432.67a1.32 1.32 0 1 0 -1.32-1.31 1.31 1.31 0 0 0 1.32 1.31z"></path>
        <path d="m245 419.52a1.32 1.32 0 1 0 -1.32-1.31 1.31 1.31 0 0 0 1.32 1.31z"></path>
        <path d="m271.27 406.37a1.32 1.32 0 1 0 -1.32-1.31 1.31 1.31 0 0 0 1.32 1.31z"></path>
        <path d="m258.12 406.37a1.32 1.32 0 1 0 -1.32-1.31 1.31 1.31 0 0 0 1.32 1.31z"></path>
        <path d="m245 406.37a1.32 1.32 0 1 0 -1.32-1.31 1.31 1.31 0 0 0 1.32 1.31z"></path>
      </g>
      <g clip-path="url(#g)">
        <path d="m271.27 459a1.32 1.32 0 1 0 -1.32-1.31 1.31 1.31 0 0 0 1.32 1.31z"></path>
        <path d="m258.12 459a1.32 1.32 0 1 0 -1.32-1.31 1.31 1.31 0 0 0 1.32 1.31z"></path>
        <path d="m271.27 445.82a1.32 1.32 0 1 0 -1.32-1.31 1.31 1.31 0 0 0 1.32 1.31z"></path>
        <path d="m258.12 445.82a1.32 1.32 0 1 0 -1.32-1.31 1.31 1.31 0 0 0 1.32 1.31z"></path>
        <path d="m251.54 452.4a1.32 1.32 0 1 0 -1.31-1.32 1.32 1.32 0 0 0 1.31 1.32z"></path>
        <path d="m264.69 452.4a1.32 1.32 0 1 0 -1.31-1.32 1.32 1.32 0 0 0 1.31 1.32z"></path>
        <path d="m251.54 439.25a1.32 1.32 0 1 0 -1.31-1.32 1.32 1.32 0 0 0 1.31 1.32z"></path>
        <path d="m264.69 439.25a1.32 1.32 0 1 0 -1.31-1.32 1.32 1.32 0 0 0 1.31 1.32z"></path>
        <path d="m245 459a1.32 1.32 0 1 0 -1.32-1.31 1.31 1.31 0 0 0 1.32 1.31z"></path>
        <path d="m245 445.82a1.32 1.32 0 1 0 -1.32-1.31 1.31 1.31 0 0 0 1.32 1.31z"></path>
        <path d="m271.27 432.67a1.32 1.32 0 1 0 -1.32-1.31 1.31 1.31 0 0 0 1.32 1.31z"></path>
        <path d="m258.12 432.67a1.32 1.32 0 1 0 -1.32-1.31 1.31 1.31 0 0 0 1.32 1.31z"></path>
        <path d="m245 432.67a1.32 1.32 0 1 0 -1.32-1.31 1.31 1.31 0 0 0 1.32 1.31z"></path>
      </g>
      <g clip-path="url(#h)">
        <path d="m271.27 485.27a1.32 1.32 0 1 0 -1.27-1.27 1.31 1.31 0 0 0 1.27 1.27z"></path>
        <path d="m258.12 485.27a1.32 1.32 0 1 0 -1.32-1.27 1.31 1.31 0 0 0 1.32 1.27z"></path>
        <path d="m271.27 472.12a1.32 1.32 0 1 0 -1.32-1.31 1.31 1.31 0 0 0 1.32 1.31z"></path>
        <path d="m258.12 472.12a1.32 1.32 0 1 0 -1.32-1.31 1.31 1.31 0 0 0 1.32 1.31z"></path>
        <path d="m251.54 478.7a1.32 1.32 0 1 0 0-2.63 1.32 1.32 0 0 0 0 2.63z"></path>
        <path d="m264.69 478.7a1.32 1.32 0 1 0 0-2.63 1.32 1.32 0 0 0 0 2.63z"></path>
        <path d="m251.54 465.55a1.32 1.32 0 1 0 -1.31-1.32 1.32 1.32 0 0 0 1.31 1.32z"></path>
        <path d="m264.69 465.55a1.32 1.32 0 1 0 -1.31-1.32 1.32 1.32 0 0 0 1.31 1.32z"></path>
        <path d="m245 485.27a1.32 1.32 0 1 0 -1.32-1.31 1.31 1.31 0 0 0 1.32 1.31z"></path>
        <path d="m245 472.12a1.32 1.32 0 1 0 -1.32-1.31 1.31 1.31 0 0 0 1.32 1.31z"></path>
        <path d="m271.27 459a1.32 1.32 0 1 0 -1.32-1.31 1.31 1.31 0 0 0 1.32 1.31z"></path>
        <path d="m258.12 459a1.32 1.32 0 1 0 -1.32-1.31 1.31 1.31 0 0 0 1.32 1.31z"></path>
        <path d="m245 459a1.32 1.32 0 1 0 -1.32-1.31 1.31 1.31 0 0 0 1.32 1.31z"></path>
      </g>
      <g clip-path="url(#i)">
        <path d="m245 327.48a1.32 1.32 0 1 0 -1.32-1.32 1.32 1.32 0 0 0 1.32 1.32z"></path>
        <path d="m231.82 327.48a1.32 1.32 0 1 0 -1.32-1.32 1.32 1.32 0 0 0 1.32 1.32z"></path>
        <path d="m245 314.33a1.32 1.32 0 1 0 -1.32-1.32 1.32 1.32 0 0 0 1.32 1.32z"></path>
        <path d="m231.82 314.33a1.32 1.32 0 1 0 -1.32-1.33 1.32 1.32 0 0 0 1.32 1.33z"></path>
        <path d="m225.24 320.9a1.32 1.32 0 1 0 -1.31-1.31 1.32 1.32 0 0 0 1.31 1.31z"></path>
        <path d="m238.39 320.9a1.32 1.32 0 1 0 -1.31-1.31 1.32 1.32 0 0 0 1.31 1.31z"></path>
        <path d="m225.24 307.75a1.32 1.32 0 1 0 -1.31-1.31 1.32 1.32 0 0 0 1.31 1.31z"></path>
        <path d="m238.39 307.75a1.32 1.32 0 1 0 -1.31-1.31 1.32 1.32 0 0 0 1.31 1.31z"></path>
        <path d="m218.67 327.48a1.32 1.32 0 1 0 -1.32-1.32 1.32 1.32 0 0 0 1.32 1.32z"></path>
        <path d="m218.67 314.33a1.32 1.32 0 1 0 -1.32-1.32 1.32 1.32 0 0 0 1.32 1.32z"></path>
        <path d="m245 301.18a1.32 1.32 0 1 0 -1.32-1.32 1.32 1.32 0 0 0 1.32 1.32z"></path>
        <path d="m231.82 301.18a1.32 1.32 0 1 0 -1.32-1.32 1.32 1.32 0 0 0 1.32 1.32z"></path>
        <path d="m218.67 301.18a1.32 1.32 0 1 0 -1.32-1.32 1.32 1.32 0 0 0 1.32 1.32z"></path>
      </g>
      <g clip-path="url(#j)">
        <path d="m245 353.78a1.32 1.32 0 1 0 -1.32-1.32 1.32 1.32 0 0 0 1.32 1.32z"></path>
        <path d="m231.82 353.78a1.32 1.32 0 1 0 -1.32-1.32 1.32 1.32 0 0 0 1.32 1.32z"></path>
        <path d="m245 340.63a1.32 1.32 0 1 0 -1.32-1.32 1.32 1.32 0 0 0 1.32 1.32z"></path>
        <path d="m231.82 340.63a1.32 1.32 0 1 0 -1.32-1.32 1.32 1.32 0 0 0 1.32 1.32z"></path>
        <path d="m225.24 347.2a1.32 1.32 0 1 0 -1.31-1.31 1.32 1.32 0 0 0 1.31 1.31z"></path>
        <path d="m238.39 347.2a1.32 1.32 0 1 0 -1.31-1.31 1.32 1.32 0 0 0 1.31 1.31z"></path>
        <path d="m225.24 334.05a1.32 1.32 0 1 0 -1.31-1.31 1.32 1.32 0 0 0 1.31 1.31z"></path>
        <path d="m238.39 334.05a1.32 1.32 0 1 0 -1.31-1.31 1.32 1.32 0 0 0 1.31 1.31z"></path>
        <path d="m218.67 353.78a1.32 1.32 0 1 0 -1.32-1.32 1.32 1.32 0 0 0 1.32 1.32z"></path>
        <path d="m218.67 340.63a1.32 1.32 0 1 0 -1.32-1.32 1.32 1.32 0 0 0 1.32 1.32z"></path>
        <path d="m245 327.48a1.32 1.32 0 1 0 -1.32-1.32 1.32 1.32 0 0 0 1.32 1.32z"></path>
        <path d="m231.82 327.48a1.32 1.32 0 1 0 -1.32-1.32 1.32 1.32 0 0 0 1.32 1.32z"></path>
        <path d="m218.67 327.48a1.32 1.32 0 1 0 -1.32-1.32 1.32 1.32 0 0 0 1.32 1.32z"></path>
      </g>
      <g clip-path="url(#k)">
        <path d="m245 380.07a1.31 1.31 0 1 0 -1.32-1.31 1.31 1.31 0 0 0 1.32 1.31z"></path>
        <path d="m231.82 380.07a1.31 1.31 0 1 0 -1.32-1.31 1.31 1.31 0 0 0 1.32 1.31z"></path>
        <path d="m245 366.93a1.32 1.32 0 1 0 -1.32-1.32 1.32 1.32 0 0 0 1.32 1.32z"></path>
        <path d="m231.82 366.93a1.32 1.32 0 1 0 -1.32-1.32 1.32 1.32 0 0 0 1.32 1.32z"></path>
        <path d="m225.24 373.5a1.32 1.32 0 1 0 -1.31-1.31 1.32 1.32 0 0 0 1.31 1.31z"></path>
        <path d="m238.39 373.5a1.32 1.32 0 1 0 -1.31-1.31 1.32 1.32 0 0 0 1.31 1.31z"></path>
        <path d="m225.24 360.35a1.32 1.32 0 1 0 -1.31-1.31 1.32 1.32 0 0 0 1.31 1.31z"></path>
        <path d="m238.39 360.35a1.32 1.32 0 1 0 -1.31-1.31 1.32 1.32 0 0 0 1.31 1.31z"></path>
        <path d="m218.67 380.07a1.31 1.31 0 1 0 -1.32-1.31 1.31 1.31 0 0 0 1.32 1.31z"></path>
        <path d="m218.67 366.93a1.32 1.32 0 1 0 -1.32-1.32 1.32 1.32 0 0 0 1.32 1.32z"></path>
        <path d="m245 353.78a1.32 1.32 0 1 0 -1.32-1.32 1.32 1.32 0 0 0 1.32 1.32z"></path>
        <path d="m231.82 353.78a1.32 1.32 0 1 0 -1.32-1.32 1.32 1.32 0 0 0 1.32 1.32z"></path>
        <path d="m218.67 353.78a1.32 1.32 0 1 0 -1.32-1.32 1.32 1.32 0 0 0 1.32 1.32z"></path>
      </g>
      <g clip-path="url(#l)">
        <path d="m245 406.37a1.32 1.32 0 1 0 -1.32-1.31 1.31 1.31 0 0 0 1.32 1.31z"></path>
        <path d="m231.82 406.37a1.32 1.32 0 1 0 -1.32-1.31 1.31 1.31 0 0 0 1.32 1.31z"></path>
        <path d="m245 393.23a1.32 1.32 0 1 0 -1.32-1.32 1.32 1.32 0 0 0 1.32 1.32z"></path>
        <path d="m231.82 393.23a1.32 1.32 0 1 0 -1.32-1.32 1.32 1.32 0 0 0 1.32 1.32z"></path>
        <path d="m225.24 399.8a1.32 1.32 0 1 0 -1.31-1.31 1.32 1.32 0 0 0 1.31 1.31z"></path>
        <path d="m238.39 399.8a1.32 1.32 0 1 0 -1.31-1.31 1.32 1.32 0 0 0 1.31 1.31z"></path>
        <path d="m225.24 386.65a1.32 1.32 0 1 0 -1.31-1.31 1.32 1.32 0 0 0 1.31 1.31z"></path>
        <path d="m238.39 386.65a1.32 1.32 0 1 0 -1.31-1.31 1.32 1.32 0 0 0 1.31 1.31z"></path>
        <path d="m218.67 406.37a1.32 1.32 0 1 0 -1.32-1.31 1.31 1.31 0 0 0 1.32 1.31z"></path>
        <path d="m218.67 393.23a1.32 1.32 0 1 0 -1.32-1.32 1.32 1.32 0 0 0 1.32 1.32z"></path>
        <path d="m245 380.07a1.31 1.31 0 1 0 -1.32-1.31 1.31 1.31 0 0 0 1.32 1.31z"></path>
        <path d="m231.82 380.07a1.31 1.31 0 1 0 -1.32-1.31 1.31 1.31 0 0 0 1.32 1.31z"></path>
        <path d="m218.67 380.07a1.31 1.31 0 1 0 -1.32-1.31 1.31 1.31 0 0 0 1.32 1.31z"></path>
      </g>
      <g clip-path="url(#m)">
        <path d="m245 432.67a1.32 1.32 0 1 0 -1.32-1.31 1.31 1.31 0 0 0 1.32 1.31z"></path>
        <path d="m231.82 432.67a1.32 1.32 0 1 0 -1.32-1.31 1.31 1.31 0 0 0 1.32 1.31z"></path>
        <path d="m245 419.52a1.32 1.32 0 1 0 -1.32-1.31 1.31 1.31 0 0 0 1.32 1.31z"></path>
        <path d="m231.82 419.52a1.32 1.32 0 1 0 -1.32-1.31 1.31 1.31 0 0 0 1.32 1.31z"></path>
        <path d="m225.24 426.1a1.32 1.32 0 1 0 -1.31-1.32 1.32 1.32 0 0 0 1.31 1.32z"></path>
        <path d="m238.39 426.1a1.32 1.32 0 1 0 -1.31-1.32 1.32 1.32 0 0 0 1.31 1.32z"></path>
        <path d="m225.24 413a1.32 1.32 0 1 0 -1.31-1.32 1.32 1.32 0 0 0 1.31 1.32z"></path>
        <path d="m238.39 413a1.32 1.32 0 1 0 -1.31-1.32 1.32 1.32 0 0 0 1.31 1.32z"></path>
        <path d="m218.67 432.67a1.32 1.32 0 1 0 -1.32-1.31 1.31 1.31 0 0 0 1.32 1.31z"></path>
        <path d="m218.67 419.52a1.32 1.32 0 1 0 -1.32-1.31 1.31 1.31 0 0 0 1.32 1.31z"></path>
        <path d="m245 406.37a1.32 1.32 0 1 0 -1.32-1.31 1.31 1.31 0 0 0 1.32 1.31z"></path>
        <path d="m231.82 406.37a1.32 1.32 0 1 0 -1.32-1.31 1.31 1.31 0 0 0 1.32 1.31z"></path>
        <path d="m218.67 406.37a1.32 1.32 0 1 0 -1.32-1.31 1.31 1.31 0 0 0 1.32 1.31z"></path>
      </g>
      <g clip-path="url(#n)">
        <path d="m245 459a1.32 1.32 0 1 0 -1.32-1.31 1.31 1.31 0 0 0 1.32 1.31z"></path>
        <path d="m231.82 459a1.32 1.32 0 1 0 -1.32-1.31 1.31 1.31 0 0 0 1.32 1.31z"></path>
        <path d="m245 445.82a1.32 1.32 0 1 0 -1.32-1.31 1.31 1.31 0 0 0 1.32 1.31z"></path>
        <path d="m231.82 445.82a1.32 1.32 0 1 0 -1.32-1.31 1.31 1.31 0 0 0 1.32 1.31z"></path>
        <path d="m225.24 452.4a1.32 1.32 0 1 0 -1.31-1.32 1.32 1.32 0 0 0 1.31 1.32z"></path>
        <path d="m238.39 452.4a1.32 1.32 0 1 0 -1.31-1.32 1.32 1.32 0 0 0 1.31 1.32z"></path>
        <path d="m225.24 439.25a1.32 1.32 0 1 0 -1.31-1.32 1.32 1.32 0 0 0 1.31 1.32z"></path>
        <path d="m238.39 439.25a1.32 1.32 0 1 0 -1.31-1.32 1.32 1.32 0 0 0 1.31 1.32z"></path>
        <path d="m218.67 459a1.32 1.32 0 1 0 -1.32-1.31 1.31 1.31 0 0 0 1.32 1.31z"></path>
        <path d="m218.67 445.82a1.32 1.32 0 1 0 -1.32-1.31 1.31 1.31 0 0 0 1.32 1.31z"></path>
        <path d="m245 432.67a1.32 1.32 0 1 0 -1.32-1.31 1.31 1.31 0 0 0 1.32 1.31z"></path>
        <path d="m231.82 432.67a1.32 1.32 0 1 0 -1.32-1.31 1.31 1.31 0 0 0 1.32 1.31z"></path>
        <path d="m218.67 432.67a1.32 1.32 0 1 0 -1.32-1.31 1.31 1.31 0 0 0 1.32 1.31z"></path>
      </g>
      <g clip-path="url(#o)">
        <path d="m245 485.27a1.32 1.32 0 1 0 -1.32-1.31 1.31 1.31 0 0 0 1.32 1.31z"></path>
        <path d="m231.82 485.27a1.32 1.32 0 1 0 -1.32-1.27 1.31 1.31 0 0 0 1.32 1.27z"></path>
        <path d="m245 472.12a1.32 1.32 0 1 0 -1.32-1.31 1.31 1.31 0 0 0 1.32 1.31z"></path>
        <path d="m231.82 472.12a1.32 1.32 0 1 0 -1.32-1.31 1.31 1.31 0 0 0 1.32 1.31z"></path>
        <path d="m225.24 478.7a1.32 1.32 0 1 0 -1.31-1.32 1.32 1.32 0 0 0 1.31 1.32z"></path>
        <path d="m238.39 478.7a1.32 1.32 0 1 0 -1.31-1.32 1.32 1.32 0 0 0 1.31 1.32z"></path>
        <path d="m225.24 465.55a1.32 1.32 0 1 0 -1.31-1.32 1.32 1.32 0 0 0 1.31 1.32z"></path>
        <path d="m238.39 465.55a1.32 1.32 0 1 0 -1.31-1.32 1.32 1.32 0 0 0 1.31 1.32z"></path>
        <path d="m218.67 485.27a1.32 1.32 0 1 0 -1.32-1.31 1.31 1.31 0 0 0 1.32 1.31z"></path>
        <path d="m218.67 472.12a1.32 1.32 0 1 0 -1.32-1.31 1.31 1.31 0 0 0 1.32 1.31z"></path>
        <path d="m245 459a1.32 1.32 0 1 0 -1.32-1.31 1.31 1.31 0 0 0 1.32 1.31z"></path>
        <path d="m231.82 459a1.32 1.32 0 1 0 -1.32-1.31 1.31 1.31 0 0 0 1.32 1.31z"></path>
        <path d="m218.67 459a1.32 1.32 0 1 0 -1.32-1.31 1.31 1.31 0 0 0 1.32 1.31z"></path>
      </g>
      <g clip-path="url(#p)">
        <path d="m218.67 327.48a1.32 1.32 0 1 0 -1.32-1.32 1.32 1.32 0 0 0 1.32 1.32z"></path>
        <path d="m205.52 327.48a1.32 1.32 0 1 0 -1.32-1.32 1.31 1.31 0 0 0 1.32 1.32z"></path>
        <path d="m218.67 314.33a1.32 1.32 0 1 0 -1.32-1.32 1.32 1.32 0 0 0 1.32 1.32z"></path>
        <path d="m205.52 314.33a1.32 1.32 0 1 0 -1.32-1.33 1.31 1.31 0 0 0 1.32 1.33z"></path>
        <path d="m198.94 320.9a1.32 1.32 0 1 0 -1.31-1.31 1.32 1.32 0 0 0 1.31 1.31z"></path>
        <path d="m212.09 320.9a1.32 1.32 0 1 0 -1.31-1.31 1.32 1.32 0 0 0 1.31 1.31z"></path>
        <path d="m198.94 307.75a1.32 1.32 0 1 0 -1.31-1.31 1.32 1.32 0 0 0 1.31 1.31z"></path>
        <path d="m212.09 307.75a1.32 1.32 0 1 0 -1.31-1.31 1.32 1.32 0 0 0 1.31 1.31z"></path>
        <path d="m192.37 327.48a1.32 1.32 0 1 0 -1.31-1.32 1.32 1.32 0 0 0 1.31 1.32z"></path>
        <path d="m192.37 314.33a1.32 1.32 0 1 0 -1.31-1.32 1.32 1.32 0 0 0 1.31 1.32z"></path>
        <path d="m218.67 301.18a1.32 1.32 0 1 0 -1.32-1.32 1.32 1.32 0 0 0 1.32 1.32z"></path>
        <path d="m205.52 301.18a1.32 1.32 0 1 0 -1.32-1.32 1.31 1.31 0 0 0 1.32 1.32z"></path>
        <path d="m192.37 301.18a1.32 1.32 0 1 0 -1.31-1.32 1.32 1.32 0 0 0 1.31 1.32z"></path>
      </g>
      <g clip-path="url(#q)">
        <path d="m218.67 353.78a1.32 1.32 0 1 0 -1.32-1.32 1.32 1.32 0 0 0 1.32 1.32z"></path>
        <path d="m205.52 353.78a1.32 1.32 0 1 0 -1.32-1.32 1.31 1.31 0 0 0 1.32 1.32z"></path>
        <path d="m218.67 340.63a1.32 1.32 0 1 0 -1.32-1.32 1.32 1.32 0 0 0 1.32 1.32z"></path>
        <path d="m205.52 340.63a1.32 1.32 0 1 0 -1.32-1.32 1.31 1.31 0 0 0 1.32 1.32z"></path>
        <path d="m198.94 347.2a1.32 1.32 0 1 0 -1.31-1.31 1.32 1.32 0 0 0 1.31 1.31z"></path>
        <path d="m212.09 347.2a1.32 1.32 0 1 0 -1.31-1.31 1.32 1.32 0 0 0 1.31 1.31z"></path>
        <path d="m198.94 334.05a1.32 1.32 0 1 0 -1.31-1.31 1.32 1.32 0 0 0 1.31 1.31z"></path>
        <path d="m212.09 334.05a1.32 1.32 0 1 0 -1.31-1.31 1.32 1.32 0 0 0 1.31 1.31z"></path>
        <path d="m192.37 353.78a1.32 1.32 0 1 0 0-2.63 1.32 1.32 0 0 0 0 2.63z"></path>
        <path d="m192.37 340.63a1.32 1.32 0 1 0 -1.31-1.32 1.32 1.32 0 0 0 1.31 1.32z"></path>
        <path d="m218.67 327.48a1.32 1.32 0 1 0 -1.32-1.32 1.32 1.32 0 0 0 1.32 1.32z"></path>
        <path d="m205.52 327.48a1.32 1.32 0 1 0 -1.32-1.32 1.31 1.31 0 0 0 1.32 1.32z"></path>
        <path d="m192.37 327.48a1.32 1.32 0 1 0 -1.31-1.32 1.32 1.32 0 0 0 1.31 1.32z"></path>
      </g>
      <g clip-path="url(#r)">
        <path d="m218.67 380.07a1.31 1.31 0 1 0 -1.32-1.31 1.31 1.31 0 0 0 1.32 1.31z"></path>
        <path d="m205.52 380.07a1.31 1.31 0 1 0 -1.32-1.31 1.3 1.3 0 0 0 1.32 1.31z"></path>
        <path d="m218.67 366.93a1.32 1.32 0 1 0 -1.32-1.32 1.32 1.32 0 0 0 1.32 1.32z"></path>
        <path d="m205.52 366.93a1.32 1.32 0 1 0 -1.32-1.32 1.31 1.31 0 0 0 1.32 1.32z"></path>
        <path d="m198.94 373.5a1.32 1.32 0 1 0 -1.31-1.31 1.32 1.32 0 0 0 1.31 1.31z"></path>
        <path d="m212.09 373.5a1.32 1.32 0 1 0 -1.31-1.31 1.32 1.32 0 0 0 1.31 1.31z"></path>
        <path d="m198.94 360.35a1.32 1.32 0 1 0 -1.31-1.31 1.32 1.32 0 0 0 1.31 1.31z"></path>
        <path d="m212.09 360.35a1.32 1.32 0 1 0 -1.31-1.31 1.32 1.32 0 0 0 1.31 1.31z"></path>
        <path d="m192.37 380.07a1.31 1.31 0 1 0 -1.31-1.31 1.31 1.31 0 0 0 1.31 1.31z"></path>
        <path d="m192.37 366.93a1.32 1.32 0 1 0 0-2.63 1.32 1.32 0 0 0 0 2.63z"></path>
        <path d="m218.67 353.78a1.32 1.32 0 1 0 -1.32-1.32 1.32 1.32 0 0 0 1.32 1.32z"></path>
        <path d="m205.52 353.78a1.32 1.32 0 1 0 -1.32-1.32 1.31 1.31 0 0 0 1.32 1.32z"></path>
        <path d="m192.37 353.78a1.32 1.32 0 1 0 0-2.63 1.32 1.32 0 0 0 0 2.63z"></path>
      </g>
      <g clip-path="url(#s)">
        <path d="m218.67 406.37a1.32 1.32 0 1 0 -1.32-1.31 1.31 1.31 0 0 0 1.32 1.31z"></path>
        <path d="m205.52 406.37a1.32 1.32 0 1 0 -1.32-1.31 1.31 1.31 0 0 0 1.32 1.31z"></path>
        <path d="m218.67 393.23a1.32 1.32 0 1 0 -1.32-1.32 1.32 1.32 0 0 0 1.32 1.32z"></path>
        <path d="m205.52 393.23a1.32 1.32 0 1 0 -1.32-1.32 1.31 1.31 0 0 0 1.32 1.32z"></path>
        <path d="m198.94 399.8a1.32 1.32 0 1 0 -1.31-1.31 1.32 1.32 0 0 0 1.31 1.31z"></path>
        <path d="m212.09 399.8a1.32 1.32 0 1 0 -1.31-1.31 1.32 1.32 0 0 0 1.31 1.31z"></path>
        <path d="m198.94 386.65a1.32 1.32 0 1 0 -1.31-1.31 1.32 1.32 0 0 0 1.31 1.31z"></path>
        <path d="m212.09 386.65a1.32 1.32 0 1 0 -1.31-1.31 1.32 1.32 0 0 0 1.31 1.31z"></path>
        <path d="m192.37 406.37a1.32 1.32 0 1 0 -1.31-1.31 1.32 1.32 0 0 0 1.31 1.31z"></path>
        <path d="m192.37 393.23a1.32 1.32 0 1 0 -1.31-1.32 1.32 1.32 0 0 0 1.31 1.32z"></path>
        <path d="m218.67 380.07a1.31 1.31 0 1 0 -1.32-1.31 1.31 1.31 0 0 0 1.32 1.31z"></path>
        <path d="m205.52 380.07a1.31 1.31 0 1 0 -1.32-1.31 1.3 1.3 0 0 0 1.32 1.31z"></path>
        <path d="m192.37 380.07a1.31 1.31 0 1 0 -1.31-1.31 1.31 1.31 0 0 0 1.31 1.31z"></path>
      </g>
      <g clip-path="url(#t)">
        <path d="m218.67 432.67a1.32 1.32 0 1 0 -1.32-1.31 1.31 1.31 0 0 0 1.32 1.31z"></path>
        <path d="m205.52 432.67a1.32 1.32 0 1 0 -1.32-1.31 1.31 1.31 0 0 0 1.32 1.31z"></path>
        <path d="m218.67 419.52a1.32 1.32 0 1 0 -1.32-1.31 1.31 1.31 0 0 0 1.32 1.31z"></path>
        <path d="m205.52 419.52a1.32 1.32 0 1 0 -1.32-1.31 1.31 1.31 0 0 0 1.32 1.31z"></path>
        <path d="m198.94 426.1a1.32 1.32 0 1 0 -1.31-1.32 1.32 1.32 0 0 0 1.31 1.32z"></path>
        <path d="m212.09 426.1a1.32 1.32 0 1 0 -1.31-1.32 1.32 1.32 0 0 0 1.31 1.32z"></path>
        <path d="m198.94 413a1.32 1.32 0 1 0 -1.31-1.32 1.32 1.32 0 0 0 1.31 1.32z"></path>
        <path d="m212.09 413a1.32 1.32 0 1 0 -1.31-1.32 1.32 1.32 0 0 0 1.31 1.32z"></path>
        <path d="m192.37 432.67a1.32 1.32 0 1 0 -1.31-1.31 1.32 1.32 0 0 0 1.31 1.31z"></path>
        <path d="m192.37 419.52a1.32 1.32 0 1 0 -1.31-1.31 1.32 1.32 0 0 0 1.31 1.31z"></path>
        <path d="m218.67 406.37a1.32 1.32 0 1 0 -1.32-1.31 1.31 1.31 0 0 0 1.32 1.31z"></path>
        <path d="m205.52 406.37a1.32 1.32 0 1 0 -1.32-1.31 1.31 1.31 0 0 0 1.32 1.31z"></path>
        <path d="m192.37 406.37a1.32 1.32 0 1 0 -1.31-1.31 1.32 1.32 0 0 0 1.31 1.31z"></path>
      </g>
      <g clip-path="url(#u)">
        <path d="m218.67 459a1.32 1.32 0 1 0 -1.32-1.31 1.31 1.31 0 0 0 1.32 1.31z"></path>
        <path d="m205.52 459a1.32 1.32 0 1 0 -1.32-1.31 1.31 1.31 0 0 0 1.32 1.31z"></path>
        <path d="m218.67 445.82a1.32 1.32 0 1 0 -1.32-1.31 1.31 1.31 0 0 0 1.32 1.31z"></path>
        <path d="m205.52 445.82a1.32 1.32 0 1 0 -1.32-1.31 1.31 1.31 0 0 0 1.32 1.31z"></path>
        <path d="m198.94 452.4a1.32 1.32 0 1 0 -1.31-1.32 1.32 1.32 0 0 0 1.31 1.32z"></path>
        <path d="m212.09 452.4a1.32 1.32 0 1 0 -1.31-1.32 1.32 1.32 0 0 0 1.31 1.32z"></path>
        <path d="m198.94 439.25a1.32 1.32 0 1 0 -1.31-1.32 1.32 1.32 0 0 0 1.31 1.32z"></path>
        <path d="m212.09 439.25a1.32 1.32 0 1 0 -1.31-1.32 1.32 1.32 0 0 0 1.31 1.32z"></path>
        <path d="m192.37 459a1.32 1.32 0 1 0 -1.31-1.31 1.32 1.32 0 0 0 1.31 1.31z"></path>
        <path d="m192.37 445.82a1.32 1.32 0 1 0 -1.31-1.31 1.32 1.32 0 0 0 1.31 1.31z"></path>
        <path d="m218.67 432.67a1.32 1.32 0 1 0 -1.32-1.31 1.31 1.31 0 0 0 1.32 1.31z"></path>
        <path d="m205.52 432.67a1.32 1.32 0 1 0 -1.32-1.31 1.31 1.31 0 0 0 1.32 1.31z"></path>
        <path d="m192.37 432.67a1.32 1.32 0 1 0 -1.31-1.31 1.32 1.32 0 0 0 1.31 1.31z"></path>
      </g>
      <g clip-path="url(#v)">
        <path d="m218.67 485.27a1.32 1.32 0 1 0 -1.32-1.31 1.31 1.31 0 0 0 1.32 1.31z"></path>
        <path d="m205.52 485.27a1.32 1.32 0 1 0 -1.32-1.27 1.31 1.31 0 0 0 1.32 1.27z"></path>
        <path d="m218.67 472.12a1.32 1.32 0 1 0 -1.32-1.31 1.31 1.31 0 0 0 1.32 1.31z"></path>
        <path d="m205.52 472.12a1.32 1.32 0 1 0 -1.32-1.31 1.31 1.31 0 0 0 1.32 1.31z"></path>
        <path d="m198.94 478.7a1.32 1.32 0 1 0 -1.31-1.32 1.32 1.32 0 0 0 1.31 1.32z"></path>
        <path d="m212.09 478.7a1.32 1.32 0 1 0 -1.31-1.32 1.32 1.32 0 0 0 1.31 1.32z"></path>
        <path d="m198.94 465.55a1.32 1.32 0 1 0 -1.31-1.32 1.32 1.32 0 0 0 1.31 1.32z"></path>
        <path d="m212.09 465.55a1.32 1.32 0 1 0 -1.31-1.32 1.32 1.32 0 0 0 1.31 1.32z"></path>
        <path d="m192.37 485.27a1.32 1.32 0 1 0 -1.31-1.31 1.32 1.32 0 0 0 1.31 1.31z"></path>
        <path d="m192.37 472.12a1.32 1.32 0 1 0 -1.31-1.31 1.32 1.32 0 0 0 1.31 1.31z"></path>
        <path d="m218.67 459a1.32 1.32 0 1 0 -1.32-1.31 1.31 1.31 0 0 0 1.32 1.31z"></path>
        <path d="m205.52 459a1.32 1.32 0 1 0 -1.32-1.31 1.31 1.31 0 0 0 1.32 1.31z"></path>
        <path d="m192.37 459a1.32 1.32 0 1 0 -1.31-1.31 1.32 1.32 0 0 0 1.31 1.31z"></path>
      </g>
      <g clip-path="url(#w)">
        <path d="m192.37 327.48a1.32 1.32 0 1 0 -1.31-1.32 1.32 1.32 0 0 0 1.31 1.32z"></path>
        <path d="m179.22 327.48a1.32 1.32 0 1 0 -1.31-1.32 1.32 1.32 0 0 0 1.31 1.32z"></path>
        <path d="m192.37 314.33a1.32 1.32 0 1 0 -1.31-1.32 1.32 1.32 0 0 0 1.31 1.32z"></path>
        <path d="m179.22 314.33a1.32 1.32 0 1 0 -1.31-1.32 1.32 1.32 0 0 0 1.31 1.32z"></path>
        <path d="m172.65 320.9a1.32 1.32 0 1 0 -1.32-1.31 1.31 1.31 0 0 0 1.32 1.31z"></path>
        <path d="m185.8 320.9a1.32 1.32 0 1 0 -1.32-1.31 1.31 1.31 0 0 0 1.32 1.31z"></path>
        <path d="m172.65 307.75a1.32 1.32 0 1 0 -1.32-1.31 1.31 1.31 0 0 0 1.32 1.31z"></path>
        <path d="m185.8 307.75a1.32 1.32 0 1 0 -1.32-1.31 1.31 1.31 0 0 0 1.32 1.31z"></path>
        <path d="m166.07 327.48a1.32 1.32 0 1 0 -1.31-1.32 1.32 1.32 0 0 0 1.31 1.32z"></path>
        <path d="m166.07 314.33a1.32 1.32 0 1 0 -1.31-1.32 1.32 1.32 0 0 0 1.31 1.32z"></path>
        <path d="m192.37 301.18a1.32 1.32 0 1 0 -1.31-1.32 1.32 1.32 0 0 0 1.31 1.32z"></path>
        <path d="m179.22 301.18a1.32 1.32 0 1 0 -1.31-1.32 1.32 1.32 0 0 0 1.31 1.32z"></path>
        <path d="m166.07 301.18a1.32 1.32 0 1 0 -1.31-1.32 1.32 1.32 0 0 0 1.31 1.32z"></path>
      </g>
      <g clip-path="url(#x)">
        <path d="m192.37 353.78a1.32 1.32 0 1 0 0-2.63 1.32 1.32 0 0 0 0 2.63z"></path>
        <path d="m179.22 353.78a1.32 1.32 0 1 0 0-2.63 1.32 1.32 0 0 0 0 2.63z"></path>
        <path d="m192.37 340.63a1.32 1.32 0 1 0 -1.31-1.32 1.32 1.32 0 0 0 1.31 1.32z"></path>
        <path d="m179.22 340.63a1.32 1.32 0 1 0 -1.31-1.32 1.32 1.32 0 0 0 1.31 1.32z"></path>
        <path d="m172.65 347.2a1.32 1.32 0 1 0 -1.32-1.31 1.31 1.31 0 0 0 1.32 1.31z"></path>
        <path d="m185.8 347.2a1.32 1.32 0 1 0 -1.32-1.31 1.31 1.31 0 0 0 1.32 1.31z"></path>
        <path d="m172.65 334.05a1.32 1.32 0 1 0 -1.32-1.31 1.31 1.31 0 0 0 1.32 1.31z"></path>
        <path d="m185.8 334.05a1.32 1.32 0 1 0 -1.32-1.31 1.31 1.31 0 0 0 1.32 1.31z"></path>
        <path d="m166.07 353.78a1.32 1.32 0 1 0 -1.31-1.32 1.32 1.32 0 0 0 1.31 1.32z"></path>
        <path d="m166.07 340.63a1.32 1.32 0 1 0 -1.31-1.32 1.32 1.32 0 0 0 1.31 1.32z"></path>
        <path d="m192.37 327.48a1.32 1.32 0 1 0 -1.31-1.32 1.32 1.32 0 0 0 1.31 1.32z"></path>
        <path d="m179.22 327.48a1.32 1.32 0 1 0 -1.31-1.32 1.32 1.32 0 0 0 1.31 1.32z"></path>
        <path d="m166.07 327.48a1.32 1.32 0 1 0 -1.31-1.32 1.32 1.32 0 0 0 1.31 1.32z"></path>
      </g>
      <g clip-path="url(#y)">
        <path d="m192.37 380.07a1.31 1.31 0 1 0 -1.31-1.31 1.31 1.31 0 0 0 1.31 1.31z"></path>
        <path d="m179.22 380.07a1.31 1.31 0 1 0 -1.31-1.31 1.31 1.31 0 0 0 1.31 1.31z"></path>
        <path d="m192.37 366.93a1.32 1.32 0 1 0 0-2.63 1.32 1.32 0 0 0 0 2.63z"></path>
        <path d="m179.22 366.93a1.32 1.32 0 1 0 0-2.63 1.32 1.32 0 0 0 0 2.63z"></path>
        <path d="m172.65 373.5a1.32 1.32 0 1 0 -1.32-1.31 1.31 1.31 0 0 0 1.32 1.31z"></path>
        <path d="m185.8 373.5a1.32 1.32 0 1 0 -1.32-1.31 1.31 1.31 0 0 0 1.32 1.31z"></path>
        <path d="m172.65 360.35a1.32 1.32 0 1 0 -1.32-1.31 1.31 1.31 0 0 0 1.32 1.31z"></path>
        <path d="m185.8 360.35a1.32 1.32 0 1 0 -1.32-1.31 1.31 1.31 0 0 0 1.32 1.31z"></path>
        <path d="m166.07 380.07a1.31 1.31 0 1 0 -1.31-1.31 1.31 1.31 0 0 0 1.31 1.31z"></path>
        <path d="m166.07 366.93a1.32 1.32 0 1 0 -1.31-1.32 1.32 1.32 0 0 0 1.31 1.32z"></path>
        <path d="m192.37 353.78a1.32 1.32 0 1 0 0-2.63 1.32 1.32 0 0 0 0 2.63z"></path>
        <path d="m179.22 353.78a1.32 1.32 0 1 0 0-2.63 1.32 1.32 0 0 0 0 2.63z"></path>
        <path d="m166.07 353.78a1.32 1.32 0 1 0 -1.31-1.32 1.32 1.32 0 0 0 1.31 1.32z"></path>
      </g>
      <g clip-path="url(#z)">
        <path d="m192.37 406.37a1.32 1.32 0 1 0 -1.31-1.31 1.32 1.32 0 0 0 1.31 1.31z"></path>
        <path d="m179.22 406.37a1.32 1.32 0 1 0 -1.31-1.31 1.32 1.32 0 0 0 1.31 1.31z"></path>
        <path d="m192.37 393.23a1.32 1.32 0 1 0 -1.31-1.32 1.32 1.32 0 0 0 1.31 1.32z"></path>
        <path d="m179.22 393.23a1.32 1.32 0 1 0 -1.31-1.32 1.32 1.32 0 0 0 1.31 1.32z"></path>
        <path d="m172.65 399.8a1.32 1.32 0 1 0 -1.32-1.31 1.31 1.31 0 0 0 1.32 1.31z"></path>
        <path d="m185.8 399.8a1.32 1.32 0 1 0 -1.32-1.31 1.31 1.31 0 0 0 1.32 1.31z"></path>
        <path d="m172.65 386.65a1.32 1.32 0 1 0 -1.32-1.31 1.31 1.31 0 0 0 1.32 1.31z"></path>
        <path d="m185.8 386.65a1.32 1.32 0 1 0 -1.32-1.31 1.31 1.31 0 0 0 1.32 1.31z"></path>
        <path d="m166.07 406.37a1.32 1.32 0 1 0 -1.31-1.31 1.32 1.32 0 0 0 1.31 1.31z"></path>
        <path d="m166.07 393.23a1.32 1.32 0 1 0 -1.31-1.32 1.32 1.32 0 0 0 1.31 1.32z"></path>
        <path d="m192.37 380.07a1.31 1.31 0 1 0 -1.31-1.31 1.31 1.31 0 0 0 1.31 1.31z"></path>
        <path d="m179.22 380.07a1.31 1.31 0 1 0 -1.31-1.31 1.31 1.31 0 0 0 1.31 1.31z"></path>
        <path d="m166.07 380.07a1.31 1.31 0 1 0 -1.31-1.31 1.31 1.31 0 0 0 1.31 1.31z"></path>
      </g>
      <g clip-path="url(#A)">
        <path d="m192.37 432.67a1.32 1.32 0 1 0 -1.31-1.31 1.32 1.32 0 0 0 1.31 1.31z"></path>
        <path d="m179.22 432.67a1.32 1.32 0 1 0 -1.31-1.31 1.32 1.32 0 0 0 1.31 1.31z"></path>
        <path d="m192.37 419.52a1.32 1.32 0 1 0 -1.31-1.31 1.32 1.32 0 0 0 1.31 1.31z"></path>
        <path d="m179.22 419.52a1.32 1.32 0 1 0 -1.31-1.31 1.32 1.32 0 0 0 1.31 1.31z"></path>
        <path d="m172.65 426.1a1.32 1.32 0 1 0 -1.32-1.32 1.32 1.32 0 0 0 1.32 1.32z"></path>
        <path d="m185.8 426.1a1.32 1.32 0 1 0 -1.32-1.32 1.32 1.32 0 0 0 1.32 1.32z"></path>
        <path d="m172.65 413a1.32 1.32 0 1 0 -1.32-1.32 1.32 1.32 0 0 0 1.32 1.32z"></path>
        <path d="m185.8 413a1.32 1.32 0 1 0 -1.32-1.32 1.32 1.32 0 0 0 1.32 1.32z"></path>
        <path d="m166.07 432.67a1.32 1.32 0 1 0 -1.31-1.31 1.32 1.32 0 0 0 1.31 1.31z"></path>
        <path d="m166.07 419.52a1.32 1.32 0 1 0 -1.31-1.31 1.32 1.32 0 0 0 1.31 1.31z"></path>
        <path d="m192.37 406.37a1.32 1.32 0 1 0 -1.31-1.31 1.32 1.32 0 0 0 1.31 1.31z"></path>
        <path d="m179.22 406.37a1.32 1.32 0 1 0 -1.31-1.31 1.32 1.32 0 0 0 1.31 1.31z"></path>
        <path d="m166.07 406.37a1.32 1.32 0 1 0 -1.31-1.31 1.32 1.32 0 0 0 1.31 1.31z"></path>
      </g>
      <g clip-path="url(#B)">
        <path d="m192.37 459a1.32 1.32 0 1 0 -1.31-1.31 1.32 1.32 0 0 0 1.31 1.31z"></path>
        <path d="m179.22 459a1.32 1.32 0 1 0 -1.31-1.31 1.32 1.32 0 0 0 1.31 1.31z"></path>
        <path d="m192.37 445.82a1.32 1.32 0 1 0 -1.31-1.31 1.32 1.32 0 0 0 1.31 1.31z"></path>
        <path d="m179.22 445.82a1.32 1.32 0 1 0 -1.31-1.31 1.32 1.32 0 0 0 1.31 1.31z"></path>
        <path d="m172.65 452.4a1.32 1.32 0 1 0 -1.32-1.32 1.32 1.32 0 0 0 1.32 1.32z"></path>
        <path d="m185.8 452.4a1.32 1.32 0 1 0 -1.32-1.32 1.32 1.32 0 0 0 1.32 1.32z"></path>
        <path d="m172.65 439.25a1.32 1.32 0 1 0 -1.32-1.32 1.32 1.32 0 0 0 1.32 1.32z"></path>
        <path d="m185.8 439.25a1.32 1.32 0 1 0 -1.32-1.32 1.32 1.32 0 0 0 1.32 1.32z"></path>
        <path d="m166.07 459a1.32 1.32 0 1 0 -1.31-1.31 1.32 1.32 0 0 0 1.31 1.31z"></path>
        <path d="m166.07 445.82a1.32 1.32 0 1 0 -1.31-1.31 1.32 1.32 0 0 0 1.31 1.31z"></path>
        <path d="m192.37 432.67a1.32 1.32 0 1 0 -1.31-1.31 1.32 1.32 0 0 0 1.31 1.31z"></path>
        <path d="m179.22 432.67a1.32 1.32 0 1 0 -1.31-1.31 1.32 1.32 0 0 0 1.31 1.31z"></path>
        <path d="m166.07 432.67a1.32 1.32 0 1 0 -1.31-1.31 1.32 1.32 0 0 0 1.31 1.31z"></path>
      </g>
      <g clip-path="url(#C)">
        <path d="m192.37 485.27a1.32 1.32 0 1 0 -1.31-1.31 1.32 1.32 0 0 0 1.31 1.31z"></path>
        <path d="m179.22 485.27a1.32 1.32 0 1 0 -1.31-1.31 1.32 1.32 0 0 0 1.31 1.31z"></path>
        <path d="m192.37 472.12a1.32 1.32 0 1 0 -1.31-1.31 1.32 1.32 0 0 0 1.31 1.31z"></path>
        <path d="m179.22 472.12a1.32 1.32 0 1 0 -1.31-1.31 1.32 1.32 0 0 0 1.31 1.31z"></path>
        <path d="m172.65 478.7a1.32 1.32 0 1 0 -1.32-1.32 1.32 1.32 0 0 0 1.32 1.32z"></path>
        <path d="m185.8 478.7a1.32 1.32 0 1 0 -1.32-1.32 1.32 1.32 0 0 0 1.32 1.32z"></path>
        <path d="m172.65 465.55a1.32 1.32 0 1 0 -1.32-1.32 1.32 1.32 0 0 0 1.32 1.32z"></path>
        <path d="m185.8 465.55a1.32 1.32 0 1 0 -1.32-1.32 1.32 1.32 0 0 0 1.32 1.32z"></path>
        <path d="m166.07 485.27a1.32 1.32 0 1 0 -1.31-1.31 1.32 1.32 0 0 0 1.31 1.31z"></path>
        <path d="m166.07 472.12a1.32 1.32 0 1 0 -1.31-1.31 1.32 1.32 0 0 0 1.31 1.31z"></path>
        <path d="m192.37 459a1.32 1.32 0 1 0 -1.31-1.31 1.32 1.32 0 0 0 1.31 1.31z"></path>
        <path d="m179.22 459a1.32 1.32 0 1 0 -1.31-1.31 1.32 1.32 0 0 0 1.31 1.31z"></path>
        <path d="m166.07 459a1.32 1.32 0 1 0 -1.31-1.31 1.32 1.32 0 0 0 1.31 1.31z"></path>
      </g>
    </g>
    <g clip-path="url(#D)">
      <g clip-path="url(#E)">
        <path d="m438.79 323.64a1.35 1.35 0 1 0 -1.39-1.35 1.37 1.37 0 0 0 1.39 1.35z"></path>
        <path d="m424.87 323.64a1.35 1.35 0 1 0 -1.39-1.35 1.37 1.37 0 0 0 1.39 1.35z"></path>
        <path d="m438.79 310.14a1.35 1.35 0 1 0 -1.39-1.35 1.37 1.37 0 0 0 1.39 1.35z"></path>
        <path d="m424.87 310.14a1.35 1.35 0 1 0 -1.39-1.35 1.37 1.37 0 0 0 1.39 1.35z"></path>
        <path d="m417.91 316.89a1.35 1.35 0 1 0 -1.39-1.35 1.37 1.37 0 0 0 1.39 1.35z"></path>
        <path d="m431.83 316.89a1.35 1.35 0 1 0 -1.39-1.35 1.37 1.37 0 0 0 1.39 1.35z"></path>
        <path d="m417.91 303.39a1.35 1.35 0 1 0 -1.39-1.35 1.37 1.37 0 0 0 1.39 1.35z"></path>
        <path d="m431.83 303.39a1.35 1.35 0 1 0 -1.39-1.35 1.37 1.37 0 0 0 1.39 1.35z"></path>
        <path d="m411 323.64a1.35 1.35 0 1 0 -1.39-1.35 1.37 1.37 0 0 0 1.39 1.35z"></path>
        <path d="m411 310.14a1.35 1.35 0 1 0 -1.39-1.35 1.37 1.37 0 0 0 1.39 1.35z"></path>
        <path d="m438.79 296.64a1.35 1.35 0 1 0 -1.39-1.35 1.37 1.37 0 0 0 1.39 1.35z"></path>
        <path d="m424.87 296.64a1.35 1.35 0 1 0 -1.39-1.35 1.37 1.37 0 0 0 1.39 1.35z"></path>
        <path d="m411 296.64a1.35 1.35 0 1 0 -1.39-1.35 1.37 1.37 0 0 0 1.39 1.35z"></path>
      </g>
      <g clip-path="url(#F)">
        <path d="m438.79 350.64a1.35 1.35 0 1 0 -1.39-1.35 1.37 1.37 0 0 0 1.39 1.35z"></path>
        <path d="m424.87 350.64a1.35 1.35 0 1 0 -1.39-1.35 1.37 1.37 0 0 0 1.39 1.35z"></path>
        <path d="m438.79 337.14a1.35 1.35 0 1 0 -1.39-1.35 1.37 1.37 0 0 0 1.39 1.35z"></path>
        <path d="m424.87 337.14a1.35 1.35 0 1 0 -1.39-1.35 1.37 1.37 0 0 0 1.39 1.35z"></path>
        <path d="m417.91 343.89a1.35 1.35 0 1 0 -1.39-1.35 1.37 1.37 0 0 0 1.39 1.35z"></path>
        <path d="m431.83 343.89a1.35 1.35 0 1 0 -1.39-1.35 1.37 1.37 0 0 0 1.39 1.35z"></path>
        <path d="m417.91 330.39a1.35 1.35 0 1 0 -1.39-1.35 1.37 1.37 0 0 0 1.39 1.35z"></path>
        <path d="m431.83 330.39a1.35 1.35 0 1 0 -1.39-1.35 1.37 1.37 0 0 0 1.39 1.35z"></path>
        <path d="m411 350.64a1.35 1.35 0 1 0 -1.39-1.35 1.37 1.37 0 0 0 1.39 1.35z"></path>
        <path d="m411 337.14a1.35 1.35 0 1 0 -1.39-1.35 1.37 1.37 0 0 0 1.39 1.35z"></path>
        <path d="m438.79 323.64a1.35 1.35 0 1 0 -1.39-1.35 1.37 1.37 0 0 0 1.39 1.35z"></path>
        <path d="m424.87 323.64a1.35 1.35 0 1 0 -1.39-1.35 1.37 1.37 0 0 0 1.39 1.35z"></path>
        <path d="m411 323.64a1.35 1.35 0 1 0 -1.39-1.35 1.37 1.37 0 0 0 1.39 1.35z"></path>
      </g>
      <g clip-path="url(#G)">
        <path d="m438.79 377.64a1.35 1.35 0 1 0 -1.39-1.35 1.37 1.37 0 0 0 1.39 1.35z"></path>
        <path d="m424.87 377.64a1.35 1.35 0 1 0 -1.39-1.35 1.37 1.37 0 0 0 1.39 1.35z"></path>
        <path d="m438.79 364.15a1.36 1.36 0 1 0 -1.39-1.36 1.38 1.38 0 0 0 1.39 1.36z"></path>
        <path d="m424.87 364.15a1.36 1.36 0 1 0 -1.39-1.36 1.37 1.37 0 0 0 1.39 1.36z"></path>
        <path d="m417.91 370.89a1.35 1.35 0 1 0 -1.39-1.34 1.36 1.36 0 0 0 1.39 1.34z"></path>
        <path d="m431.83 370.89a1.35 1.35 0 1 0 -1.39-1.34 1.37 1.37 0 0 0 1.39 1.34z"></path>
        <path d="m417.91 357.39a1.35 1.35 0 1 0 -1.39-1.35 1.37 1.37 0 0 0 1.39 1.35z"></path>
        <path d="m431.83 357.39a1.35 1.35 0 1 0 -1.39-1.35 1.37 1.37 0 0 0 1.39 1.35z"></path>
        <path d="m411 377.64a1.35 1.35 0 1 0 -1.39-1.35 1.37 1.37 0 0 0 1.39 1.35z"></path>
        <path d="m411 364.15a1.36 1.36 0 1 0 -1.39-1.36 1.37 1.37 0 0 0 1.39 1.36z"></path>
        <path d="m438.79 350.64a1.35 1.35 0 1 0 -1.39-1.35 1.37 1.37 0 0 0 1.39 1.35z"></path>
        <path d="m424.87 350.64a1.35 1.35 0 1 0 -1.39-1.35 1.37 1.37 0 0 0 1.39 1.35z"></path>
        <path d="m411 350.64a1.35 1.35 0 1 0 -1.39-1.35 1.37 1.37 0 0 0 1.39 1.35z"></path>
      </g>
      <g clip-path="url(#H)">
        <path d="m438.79 404.64a1.35 1.35 0 1 0 -1.39-1.34 1.37 1.37 0 0 0 1.39 1.34z"></path>
        <path d="m424.87 404.64a1.35 1.35 0 1 0 -1.39-1.34 1.36 1.36 0 0 0 1.39 1.34z"></path>
        <path d="m438.79 391.15a1.35 1.35 0 1 0 -1.39-1.36 1.38 1.38 0 0 0 1.39 1.36z"></path>
        <path d="m424.87 391.15a1.35 1.35 0 1 0 -1.39-1.36 1.37 1.37 0 0 0 1.39 1.36z"></path>
        <path d="m417.91 397.9a1.36 1.36 0 1 0 -1.39-1.35 1.37 1.37 0 0 0 1.39 1.35z"></path>
        <path d="m431.83 397.9a1.36 1.36 0 1 0 -1.39-1.35 1.38 1.38 0 0 0 1.39 1.35z"></path>
        <path d="m417.91 384.4a1.36 1.36 0 1 0 -1.39-1.35 1.37 1.37 0 0 0 1.39 1.35z"></path>
        <path d="m431.83 384.4a1.36 1.36 0 1 0 -1.39-1.35 1.38 1.38 0 0 0 1.39 1.35z"></path>
        <path d="m411 404.64a1.35 1.35 0 1 0 -1.39-1.34 1.36 1.36 0 0 0 1.39 1.34z"></path>
        <path d="m411 391.15a1.35 1.35 0 1 0 -1.39-1.36 1.37 1.37 0 0 0 1.39 1.36z"></path>
        <path d="m438.79 377.64a1.35 1.35 0 1 0 -1.39-1.35 1.37 1.37 0 0 0 1.39 1.35z"></path>
        <path d="m424.87 377.64a1.35 1.35 0 1 0 -1.39-1.35 1.37 1.37 0 0 0 1.39 1.35z"></path>
        <path d="m411 377.64a1.35 1.35 0 1 0 -1.39-1.35 1.37 1.37 0 0 0 1.39 1.35z"></path>
      </g>
      <g clip-path="url(#I)">
        <path d="m438.79 431.65a1.35 1.35 0 1 0 -1.39-1.35 1.38 1.38 0 0 0 1.39 1.35z"></path>
        <path d="m424.87 431.65a1.35 1.35 0 1 0 -1.39-1.35 1.37 1.37 0 0 0 1.39 1.35z"></path>
        <path d="m438.79 418.15a1.35 1.35 0 1 0 -1.39-1.35 1.38 1.38 0 0 0 1.39 1.35z"></path>
        <path d="m424.87 418.15a1.35 1.35 0 1 0 -1.39-1.35 1.37 1.37 0 0 0 1.39 1.35z"></path>
        <path d="m417.91 424.9a1.35 1.35 0 1 0 -1.39-1.35 1.37 1.37 0 0 0 1.39 1.35z"></path>
        <path d="m431.83 424.9a1.35 1.35 0 1 0 0-2.7 1.35 1.35 0 1 0 0 2.7z"></path>
        <path d="m417.91 411.4a1.36 1.36 0 1 0 -1.39-1.35 1.37 1.37 0 0 0 1.39 1.35z"></path>
        <path d="m431.83 411.4a1.36 1.36 0 1 0 -1.39-1.35 1.38 1.38 0 0 0 1.39 1.35z"></path>
        <path d="m411 431.65a1.35 1.35 0 1 0 -1.39-1.35 1.37 1.37 0 0 0 1.39 1.35z"></path>
        <path d="m411 418.15a1.35 1.35 0 1 0 -1.39-1.35 1.37 1.37 0 0 0 1.39 1.35z"></path>
        <path d="m438.79 404.64a1.35 1.35 0 1 0 -1.39-1.34 1.37 1.37 0 0 0 1.39 1.34z"></path>
        <path d="m424.87 404.64a1.35 1.35 0 1 0 -1.39-1.34 1.36 1.36 0 0 0 1.39 1.34z"></path>
        <path d="m411 404.64a1.35 1.35 0 1 0 -1.39-1.34 1.36 1.36 0 0 0 1.39 1.34z"></path>
      </g>
      <g clip-path="url(#J)">
        <path d="m438.79 458.65a1.35 1.35 0 1 0 -1.39-1.35 1.38 1.38 0 0 0 1.39 1.35z"></path>
        <path d="m424.87 458.65a1.35 1.35 0 1 0 -1.39-1.35 1.37 1.37 0 0 0 1.39 1.35z"></path>
        <path d="m438.79 445.15a1.35 1.35 0 1 0 -1.39-1.35 1.38 1.38 0 0 0 1.39 1.35z"></path>
        <path d="m424.87 445.15a1.35 1.35 0 1 0 -1.39-1.35 1.37 1.37 0 0 0 1.39 1.35z"></path>
        <path d="m417.91 451.9a1.35 1.35 0 1 0 -1.39-1.35 1.37 1.37 0 0 0 1.39 1.35z"></path>
        <path d="m431.83 451.9a1.35 1.35 0 1 0 0-2.7 1.35 1.35 0 1 0 0 2.7z"></path>
        <path d="m417.91 438.4a1.35 1.35 0 1 0 -1.39-1.35 1.37 1.37 0 0 0 1.39 1.35z"></path>
        <path d="m431.83 438.4a1.35 1.35 0 1 0 0-2.7 1.35 1.35 0 1 0 0 2.7z"></path>
        <path d="m411 458.65a1.35 1.35 0 1 0 -1.39-1.35 1.37 1.37 0 0 0 1.39 1.35z"></path>
        <path d="m411 445.15a1.35 1.35 0 1 0 -1.39-1.35 1.37 1.37 0 0 0 1.39 1.35z"></path>
        <path d="m438.79 431.65a1.35 1.35 0 1 0 -1.39-1.35 1.38 1.38 0 0 0 1.39 1.35z"></path>
        <path d="m424.87 431.65a1.35 1.35 0 1 0 -1.39-1.35 1.37 1.37 0 0 0 1.39 1.35z"></path>
        <path d="m411 431.65a1.35 1.35 0 1 0 -1.39-1.35 1.37 1.37 0 0 0 1.39 1.35z"></path>
      </g>
      <g clip-path="url(#K)">
        <path d="m438.79 485.65a1.35 1.35 0 1 0 -1.39-1.35 1.38 1.38 0 0 0 1.39 1.35z"></path>
        <path d="m424.87 485.65a1.35 1.35 0 1 0 -1.39-1.35 1.37 1.37 0 0 0 1.39 1.35z"></path>
        <path d="m438.79 472.15a1.35 1.35 0 1 0 -1.39-1.35 1.38 1.38 0 0 0 1.39 1.35z"></path>
        <path d="m424.87 472.15a1.35 1.35 0 1 0 -1.39-1.35 1.37 1.37 0 0 0 1.39 1.35z"></path>
        <path d="m417.91 478.9a1.35 1.35 0 1 0 -1.39-1.35 1.37 1.37 0 0 0 1.39 1.35z"></path>
        <path d="m431.83 478.9a1.35 1.35 0 1 0 0-2.7 1.35 1.35 0 1 0 0 2.7z"></path>
        <path d="m417.91 465.4a1.35 1.35 0 1 0 -1.39-1.35 1.37 1.37 0 0 0 1.39 1.35z"></path>
        <path d="m431.83 465.4a1.35 1.35 0 1 0 0-2.7 1.35 1.35 0 1 0 0 2.7z"></path>
        <path d="m411 485.65a1.35 1.35 0 1 0 -1.39-1.35 1.37 1.37 0 0 0 1.39 1.35z"></path>
        <path d="m411 472.15a1.35 1.35 0 1 0 -1.39-1.35 1.37 1.37 0 0 0 1.39 1.35z"></path>
        <path d="m438.79 458.65a1.35 1.35 0 1 0 -1.39-1.35 1.38 1.38 0 0 0 1.39 1.35z"></path>
        <path d="m424.87 458.65a1.35 1.35 0 1 0 -1.39-1.35 1.37 1.37 0 0 0 1.39 1.35z"></path>
        <path d="m411 458.65a1.35 1.35 0 1 0 -1.39-1.35 1.37 1.37 0 0 0 1.39 1.35z"></path>
      </g>
      <g clip-path="url(#L)">
        <path d="m411 323.64a1.35 1.35 0 1 0 -1.39-1.35 1.37 1.37 0 0 0 1.39 1.35z"></path>
        <path d="m397 323.64a1.35 1.35 0 1 0 -1.4-1.35 1.37 1.37 0 0 0 1.4 1.35z"></path>
        <path d="m411 310.14a1.35 1.35 0 1 0 -1.39-1.35 1.37 1.37 0 0 0 1.39 1.35z"></path>
        <path d="m397 310.14a1.35 1.35 0 1 0 -1.4-1.35 1.37 1.37 0 0 0 1.4 1.35z"></path>
        <path d="m390.06 316.89a1.35 1.35 0 1 0 -1.39-1.35 1.37 1.37 0 0 0 1.39 1.35z"></path>
        <path d="m404 316.89a1.35 1.35 0 1 0 -1.39-1.35 1.37 1.37 0 0 0 1.39 1.35z"></path>
        <path d="m390.06 303.39a1.35 1.35 0 1 0 -1.39-1.35 1.37 1.37 0 0 0 1.39 1.35z"></path>
        <path d="m404 303.39a1.35 1.35 0 1 0 -1.4-1.39 1.37 1.37 0 0 0 1.4 1.39z"></path>
        <path d="m383.1 323.64a1.35 1.35 0 1 0 -1.39-1.35 1.37 1.37 0 0 0 1.39 1.35z"></path>
        <path d="m383.1 310.14a1.35 1.35 0 1 0 -1.39-1.35 1.37 1.37 0 0 0 1.39 1.35z"></path>
        <path d="m411 296.64a1.35 1.35 0 1 0 -1.39-1.35 1.37 1.37 0 0 0 1.39 1.35z"></path>
        <path d="m397 296.64a1.35 1.35 0 1 0 -1.4-1.35 1.37 1.37 0 0 0 1.4 1.35z"></path>
        <path d="m383.1 296.64a1.35 1.35 0 1 0 -1.39-1.35 1.37 1.37 0 0 0 1.39 1.35z"></path>
      </g>
      <g clip-path="url(#M)">
        <path d="m411 350.64a1.35 1.35 0 1 0 -1.39-1.35 1.37 1.37 0 0 0 1.39 1.35z"></path>
        <path d="m397 350.64a1.35 1.35 0 1 0 -1.4-1.35 1.37 1.37 0 0 0 1.4 1.35z"></path>
        <path d="m411 337.14a1.35 1.35 0 1 0 -1.39-1.35 1.37 1.37 0 0 0 1.39 1.35z"></path>
        <path d="m397 337.14a1.35 1.35 0 1 0 -1.4-1.35 1.37 1.37 0 0 0 1.4 1.35z"></path>
        <path d="m390.06 343.89a1.35 1.35 0 1 0 -1.39-1.35 1.37 1.37 0 0 0 1.39 1.35z"></path>
        <path d="m404 343.89a1.35 1.35 0 1 0 -1.39-1.35 1.37 1.37 0 0 0 1.39 1.35z"></path>
        <path d="m390.06 330.39a1.35 1.35 0 1 0 -1.39-1.35 1.37 1.37 0 0 0 1.39 1.35z"></path>
        <path d="m404 330.39a1.35 1.35 0 1 0 -1.4-1.39 1.37 1.37 0 0 0 1.4 1.39z"></path>
        <path d="m383.1 350.64a1.35 1.35 0 1 0 -1.39-1.35 1.37 1.37 0 0 0 1.39 1.35z"></path>
        <path d="m383.1 337.14a1.35 1.35 0 1 0 -1.39-1.35 1.37 1.37 0 0 0 1.39 1.35z"></path>
        <path d="m411 323.64a1.35 1.35 0 1 0 -1.39-1.35 1.37 1.37 0 0 0 1.39 1.35z"></path>
        <path d="m397 323.64a1.35 1.35 0 1 0 -1.4-1.35 1.37 1.37 0 0 0 1.4 1.35z"></path>
        <path d="m383.1 323.64a1.35 1.35 0 1 0 -1.39-1.35 1.37 1.37 0 0 0 1.39 1.35z"></path>
      </g>
      <g clip-path="url(#N)">
        <path d="m411 377.64a1.35 1.35 0 1 0 -1.39-1.35 1.37 1.37 0 0 0 1.39 1.35z"></path>
        <path d="m397 377.64a1.35 1.35 0 1 0 -1.4-1.35 1.37 1.37 0 0 0 1.4 1.35z"></path>
        <path d="m411 364.15a1.36 1.36 0 1 0 -1.39-1.36 1.37 1.37 0 0 0 1.39 1.36z"></path>
        <path d="m397 364.15a1.36 1.36 0 1 0 -1.4-1.36 1.38 1.38 0 0 0 1.4 1.36z"></path>
        <path d="m390.06 370.89a1.35 1.35 0 1 0 -1.39-1.34 1.37 1.37 0 0 0 1.39 1.34z"></path>
        <path d="m404 370.89a1.35 1.35 0 1 0 -1.39-1.34 1.36 1.36 0 0 0 1.39 1.34z"></path>
        <path d="m390.06 357.39a1.35 1.35 0 1 0 -1.39-1.35 1.37 1.37 0 0 0 1.39 1.35z"></path>
        <path d="m404 357.39a1.35 1.35 0 1 0 -1.4-1.39 1.37 1.37 0 0 0 1.4 1.39z"></path>
        <path d="m383.1 377.64a1.35 1.35 0 1 0 -1.39-1.35 1.37 1.37 0 0 0 1.39 1.35z"></path>
        <path d="m383.1 364.15a1.36 1.36 0 1 0 -1.39-1.36 1.38 1.38 0 0 0 1.39 1.36z"></path>
        <path d="m411 350.64a1.35 1.35 0 1 0 -1.39-1.35 1.37 1.37 0 0 0 1.39 1.35z"></path>
        <path d="m397 350.64a1.35 1.35 0 1 0 -1.4-1.35 1.37 1.37 0 0 0 1.4 1.35z"></path>
        <path d="m383.1 350.64a1.35 1.35 0 1 0 -1.39-1.35 1.37 1.37 0 0 0 1.39 1.35z"></path>
      </g>
      <g clip-path="url(#O)">
        <path d="m411 404.64a1.35 1.35 0 1 0 -1.39-1.34 1.36 1.36 0 0 0 1.39 1.34z"></path>
        <path d="m397 404.64a1.35 1.35 0 1 0 -1.4-1.34 1.37 1.37 0 0 0 1.4 1.34z"></path>
        <path d="m411 391.15a1.35 1.35 0 1 0 -1.39-1.36 1.37 1.37 0 0 0 1.39 1.36z"></path>
        <path d="m397 391.15a1.35 1.35 0 1 0 -1.4-1.36 1.38 1.38 0 0 0 1.4 1.36z"></path>
        <path d="m390.06 397.9a1.36 1.36 0 1 0 -1.39-1.35 1.38 1.38 0 0 0 1.39 1.35z"></path>
        <path d="m404 397.9a1.36 1.36 0 1 0 -1.39-1.35 1.37 1.37 0 0 0 1.39 1.35z"></path>
        <path d="m390.06 384.4a1.36 1.36 0 1 0 -1.39-1.35 1.38 1.38 0 0 0 1.39 1.35z"></path>
        <path d="m404 384.4a1.36 1.36 0 1 0 -1.39-1.35 1.37 1.37 0 0 0 1.39 1.35z"></path>
        <path d="m383.1 404.64a1.35 1.35 0 1 0 -1.39-1.34 1.37 1.37 0 0 0 1.39 1.34z"></path>
        <path d="m383.1 391.15a1.35 1.35 0 1 0 0-2.7 1.35 1.35 0 1 0 0 2.7z"></path>
        <path d="m411 377.64a1.35 1.35 0 1 0 -1.39-1.35 1.37 1.37 0 0 0 1.39 1.35z"></path>
        <path d="m397 377.64a1.35 1.35 0 1 0 -1.4-1.35 1.37 1.37 0 0 0 1.4 1.35z"></path>
        <path d="m383.1 377.64a1.35 1.35 0 1 0 -1.39-1.35 1.37 1.37 0 0 0 1.39 1.35z"></path>
      </g>
      <g clip-path="url(#P)">
        <path d="m411 431.65a1.35 1.35 0 1 0 -1.39-1.35 1.37 1.37 0 0 0 1.39 1.35z"></path>
        <path d="m397 431.65a1.35 1.35 0 1 0 -1.4-1.35 1.38 1.38 0 0 0 1.4 1.35z"></path>
        <path d="m411 418.15a1.35 1.35 0 1 0 -1.39-1.35 1.37 1.37 0 0 0 1.39 1.35z"></path>
        <path d="m397 418.15a1.35 1.35 0 1 0 -1.4-1.35 1.38 1.38 0 0 0 1.4 1.35z"></path>
        <path d="m390.06 424.9a1.35 1.35 0 1 0 -1.39-1.35 1.38 1.38 0 0 0 1.39 1.35z"></path>
        <path d="m404 424.9a1.35 1.35 0 1 0 -1.39-1.35 1.37 1.37 0 0 0 1.39 1.35z"></path>
        <path d="m390.06 411.4a1.36 1.36 0 1 0 -1.39-1.35 1.38 1.38 0 0 0 1.39 1.35z"></path>
        <path d="m404 411.4a1.36 1.36 0 1 0 -1.39-1.35 1.37 1.37 0 0 0 1.39 1.35z"></path>
        <path d="m383.1 431.65a1.35 1.35 0 1 0 0-2.7 1.35 1.35 0 1 0 0 2.7z"></path>
        <path d="m383.1 418.15a1.35 1.35 0 1 0 0-2.7 1.35 1.35 0 1 0 0 2.7z"></path>
        <path d="m411 404.64a1.35 1.35 0 1 0 -1.39-1.34 1.36 1.36 0 0 0 1.39 1.34z"></path>
        <path d="m397 404.64a1.35 1.35 0 1 0 -1.4-1.34 1.37 1.37 0 0 0 1.4 1.34z"></path>
        <path d="m383.1 404.64a1.35 1.35 0 1 0 -1.39-1.34 1.37 1.37 0 0 0 1.39 1.34z"></path>
      </g>
      <g clip-path="url(#Q)">
        <path d="m411 458.65a1.35 1.35 0 1 0 -1.39-1.35 1.37 1.37 0 0 0 1.39 1.35z"></path>
        <path d="m397 458.65a1.35 1.35 0 1 0 -1.4-1.35 1.38 1.38 0 0 0 1.4 1.35z"></path>
        <path d="m411 445.15a1.35 1.35 0 1 0 -1.39-1.35 1.37 1.37 0 0 0 1.39 1.35z"></path>
        <path d="m397 445.15a1.35 1.35 0 1 0 -1.4-1.35 1.38 1.38 0 0 0 1.4 1.35z"></path>
        <path d="m390.06 451.9a1.35 1.35 0 1 0 -1.39-1.35 1.38 1.38 0 0 0 1.39 1.35z"></path>
        <path d="m404 451.9a1.35 1.35 0 1 0 -1.39-1.35 1.37 1.37 0 0 0 1.39 1.35z"></path>
        <path d="m390.06 438.4a1.35 1.35 0 1 0 -1.39-1.35 1.38 1.38 0 0 0 1.39 1.35z"></path>
        <path d="m404 438.4a1.35 1.35 0 1 0 -1.39-1.35 1.37 1.37 0 0 0 1.39 1.35z"></path>
        <path d="m383.1 458.65a1.35 1.35 0 1 0 0-2.7 1.35 1.35 0 1 0 0 2.7z"></path>
        <path d="m383.1 445.15a1.35 1.35 0 1 0 0-2.7 1.35 1.35 0 1 0 0 2.7z"></path>
        <path d="m411 431.65a1.35 1.35 0 1 0 -1.39-1.35 1.37 1.37 0 0 0 1.39 1.35z"></path>
        <path d="m397 431.65a1.35 1.35 0 1 0 -1.4-1.35 1.38 1.38 0 0 0 1.4 1.35z"></path>
        <path d="m383.1 431.65a1.35 1.35 0 1 0 0-2.7 1.35 1.35 0 1 0 0 2.7z"></path>
      </g>
      <g clip-path="url(#R)">
        <path d="m411 485.65a1.35 1.35 0 1 0 -1.39-1.35 1.37 1.37 0 0 0 1.39 1.35z"></path>
        <path d="m397 485.65a1.35 1.35 0 1 0 -1.4-1.35 1.38 1.38 0 0 0 1.4 1.35z"></path>
        <path d="m411 472.15a1.35 1.35 0 1 0 -1.39-1.35 1.37 1.37 0 0 0 1.39 1.35z"></path>
        <path d="m397 472.15a1.35 1.35 0 1 0 -1.4-1.35 1.38 1.38 0 0 0 1.4 1.35z"></path>
        <path d="m390.06 478.9a1.35 1.35 0 1 0 -1.39-1.35 1.38 1.38 0 0 0 1.39 1.35z"></path>
        <path d="m404 478.9a1.35 1.35 0 1 0 -1.39-1.35 1.37 1.37 0 0 0 1.39 1.35z"></path>
        <path d="m390.06 465.4a1.35 1.35 0 1 0 -1.39-1.35 1.38 1.38 0 0 0 1.39 1.35z"></path>
        <path d="m404 465.4a1.35 1.35 0 1 0 -1.39-1.35 1.37 1.37 0 0 0 1.39 1.35z"></path>
        <path d="m383.1 485.65a1.35 1.35 0 1 0 0-2.7 1.35 1.35 0 1 0 0 2.7z"></path>
        <path d="m383.1 472.15a1.35 1.35 0 1 0 0-2.7 1.35 1.35 0 1 0 0 2.7z"></path>
        <path d="m411 458.65a1.35 1.35 0 1 0 -1.39-1.35 1.37 1.37 0 0 0 1.39 1.35z"></path>
        <path d="m397 458.65a1.35 1.35 0 1 0 -1.4-1.35 1.38 1.38 0 0 0 1.4 1.35z"></path>
        <path d="m383.1 458.65a1.35 1.35 0 1 0 0-2.7 1.35 1.35 0 1 0 0 2.7z"></path>
      </g>
      <g clip-path="url(#S)">
        <path d="m383.1 323.64a1.35 1.35 0 1 0 -1.39-1.35 1.37 1.37 0 0 0 1.39 1.35z"></path>
        <path d="m369.18 323.64a1.35 1.35 0 1 0 -1.39-1.35 1.37 1.37 0 0 0 1.39 1.35z"></path>
        <path d="m383.1 310.14a1.35 1.35 0 1 0 -1.39-1.35 1.37 1.37 0 0 0 1.39 1.35z"></path>
        <path d="m369.18 310.14a1.35 1.35 0 1 0 -1.39-1.35 1.37 1.37 0 0 0 1.39 1.35z"></path>
        <path d="m362.22 316.89a1.35 1.35 0 1 0 -1.39-1.35 1.37 1.37 0 0 0 1.39 1.35z"></path>
        <path d="m376.14 316.89a1.35 1.35 0 1 0 -1.39-1.35 1.37 1.37 0 0 0 1.39 1.35z"></path>
        <path d="m362.22 303.39a1.35 1.35 0 1 0 -1.39-1.35 1.37 1.37 0 0 0 1.39 1.35z"></path>
        <path d="m376.14 303.39a1.35 1.35 0 1 0 -1.39-1.35 1.37 1.37 0 0 0 1.39 1.35z"></path>
        <path d="m355.26 323.64a1.35 1.35 0 1 0 -1.39-1.35 1.37 1.37 0 0 0 1.39 1.35z"></path>
        <path d="m355.26 310.14a1.35 1.35 0 1 0 -1.39-1.35 1.37 1.37 0 0 0 1.39 1.35z"></path>
        <path d="m383.1 296.64a1.35 1.35 0 1 0 -1.39-1.35 1.37 1.37 0 0 0 1.39 1.35z"></path>
        <path d="m369.18 296.64a1.35 1.35 0 1 0 -1.39-1.35 1.37 1.37 0 0 0 1.39 1.35z"></path>
        <path d="m355.26 296.64a1.35 1.35 0 1 0 -1.39-1.35 1.37 1.37 0 0 0 1.39 1.35z"></path>
      </g>
      <g clip-path="url(#T)">
        <path d="m383.1 350.64a1.35 1.35 0 1 0 -1.39-1.35 1.37 1.37 0 0 0 1.39 1.35z"></path>
        <path d="m369.18 350.64a1.35 1.35 0 1 0 -1.39-1.35 1.37 1.37 0 0 0 1.39 1.35z"></path>
        <path d="m383.1 337.14a1.35 1.35 0 1 0 -1.39-1.35 1.37 1.37 0 0 0 1.39 1.35z"></path>
        <path d="m369.18 337.14a1.35 1.35 0 1 0 -1.39-1.35 1.37 1.37 0 0 0 1.39 1.35z"></path>
        <path d="m362.22 343.89a1.35 1.35 0 1 0 -1.39-1.35 1.37 1.37 0 0 0 1.39 1.35z"></path>
        <path d="m376.14 343.89a1.35 1.35 0 1 0 -1.39-1.35 1.37 1.37 0 0 0 1.39 1.35z"></path>
        <path d="m362.22 330.39a1.35 1.35 0 1 0 -1.39-1.35 1.37 1.37 0 0 0 1.39 1.35z"></path>
        <path d="m376.14 330.39a1.35 1.35 0 1 0 -1.39-1.35 1.37 1.37 0 0 0 1.39 1.35z"></path>
        <path d="m355.26 350.64a1.35 1.35 0 1 0 -1.39-1.35 1.37 1.37 0 0 0 1.39 1.35z"></path>
        <path d="m355.26 337.14a1.35 1.35 0 1 0 -1.39-1.35 1.37 1.37 0 0 0 1.39 1.35z"></path>
        <path d="m383.1 323.64a1.35 1.35 0 1 0 -1.39-1.35 1.37 1.37 0 0 0 1.39 1.35z"></path>
        <path d="m369.18 323.64a1.35 1.35 0 1 0 -1.39-1.35 1.37 1.37 0 0 0 1.39 1.35z"></path>
        <path d="m355.26 323.64a1.35 1.35 0 1 0 -1.39-1.35 1.37 1.37 0 0 0 1.39 1.35z"></path>
      </g>
      <g clip-path="url(#U)">
        <path d="m383.1 377.64a1.35 1.35 0 1 0 -1.39-1.35 1.37 1.37 0 0 0 1.39 1.35z"></path>
        <path d="m369.18 377.64a1.35 1.35 0 1 0 -1.39-1.35 1.37 1.37 0 0 0 1.39 1.35z"></path>
        <path d="m383.1 364.15a1.36 1.36 0 1 0 -1.39-1.36 1.38 1.38 0 0 0 1.39 1.36z"></path>
        <path d="m369.18 364.15a1.36 1.36 0 1 0 -1.39-1.36 1.37 1.37 0 0 0 1.39 1.36z"></path>
        <path d="m362.22 370.89a1.35 1.35 0 1 0 -1.39-1.34 1.36 1.36 0 0 0 1.39 1.34z"></path>
        <path d="m376.14 370.89a1.35 1.35 0 1 0 -1.39-1.34 1.37 1.37 0 0 0 1.39 1.34z"></path>
        <path d="m362.22 357.39a1.35 1.35 0 1 0 -1.39-1.35 1.37 1.37 0 0 0 1.39 1.35z"></path>
        <path d="m376.14 357.39a1.35 1.35 0 1 0 -1.39-1.35 1.37 1.37 0 0 0 1.39 1.35z"></path>
        <path d="m355.26 377.64a1.35 1.35 0 1 0 -1.39-1.35 1.37 1.37 0 0 0 1.39 1.35z"></path>
        <path d="m355.26 364.15a1.36 1.36 0 1 0 -1.39-1.36 1.37 1.37 0 0 0 1.39 1.36z"></path>
        <path d="m383.1 350.64a1.35 1.35 0 1 0 -1.39-1.35 1.37 1.37 0 0 0 1.39 1.35z"></path>
        <path d="m369.18 350.64a1.35 1.35 0 1 0 -1.39-1.35 1.37 1.37 0 0 0 1.39 1.35z"></path>
        <path d="m355.26 350.64a1.35 1.35 0 1 0 -1.39-1.35 1.37 1.37 0 0 0 1.39 1.35z"></path>
      </g>
      <g clip-path="url(#V)">
        <path d="m383.1 404.64a1.35 1.35 0 1 0 -1.39-1.34 1.37 1.37 0 0 0 1.39 1.34z"></path>
        <path d="m369.18 404.64a1.35 1.35 0 1 0 -1.39-1.34 1.36 1.36 0 0 0 1.39 1.34z"></path>
        <path d="m383.1 391.15a1.35 1.35 0 1 0 0-2.7 1.35 1.35 0 1 0 0 2.7z"></path>
        <path d="m369.18 391.15a1.35 1.35 0 1 0 -1.39-1.36 1.37 1.37 0 0 0 1.39 1.36z"></path>
        <path d="m362.22 397.9a1.36 1.36 0 1 0 -1.39-1.35 1.37 1.37 0 0 0 1.39 1.35z"></path>
        <path d="m376.14 397.9a1.36 1.36 0 1 0 -1.39-1.35 1.38 1.38 0 0 0 1.39 1.35z"></path>
        <path d="m362.22 384.4a1.36 1.36 0 1 0 -1.39-1.35 1.37 1.37 0 0 0 1.39 1.35z"></path>
        <path d="m376.14 384.4a1.36 1.36 0 1 0 -1.39-1.35 1.38 1.38 0 0 0 1.39 1.35z"></path>
        <path d="m355.26 404.64a1.35 1.35 0 1 0 -1.39-1.34 1.36 1.36 0 0 0 1.39 1.34z"></path>
        <path d="m355.26 391.15a1.35 1.35 0 1 0 -1.39-1.36 1.37 1.37 0 0 0 1.39 1.36z"></path>
        <path d="m383.1 377.64a1.35 1.35 0 1 0 -1.39-1.35 1.37 1.37 0 0 0 1.39 1.35z"></path>
        <path d="m369.18 377.64a1.35 1.35 0 1 0 -1.39-1.35 1.37 1.37 0 0 0 1.39 1.35z"></path>
        <path d="m355.26 377.64a1.35 1.35 0 1 0 -1.39-1.35 1.37 1.37 0 0 0 1.39 1.35z"></path>
      </g>
      <g clip-path="url(#W)">
        <path d="m383.1 431.65a1.35 1.35 0 1 0 0-2.7 1.35 1.35 0 1 0 0 2.7z"></path>
        <path d="m369.18 431.65a1.35 1.35 0 1 0 -1.39-1.35 1.37 1.37 0 0 0 1.39 1.35z"></path>
        <path d="m383.1 418.15a1.35 1.35 0 1 0 0-2.7 1.35 1.35 0 1 0 0 2.7z"></path>
        <path d="m369.18 418.15a1.35 1.35 0 1 0 -1.39-1.35 1.37 1.37 0 0 0 1.39 1.35z"></path>
        <path d="m362.22 424.9a1.35 1.35 0 1 0 -1.39-1.35 1.37 1.37 0 0 0 1.39 1.35z"></path>
        <path d="m376.14 424.9a1.35 1.35 0 1 0 0-2.7 1.35 1.35 0 1 0 0 2.7z"></path>
        <path d="m362.22 411.4a1.36 1.36 0 1 0 -1.39-1.35 1.37 1.37 0 0 0 1.39 1.35z"></path>
        <path d="m376.14 411.4a1.36 1.36 0 1 0 -1.39-1.35 1.38 1.38 0 0 0 1.39 1.35z"></path>
        <path d="m355.26 431.65a1.35 1.35 0 1 0 -1.39-1.35 1.37 1.37 0 0 0 1.39 1.35z"></path>
        <path d="m355.26 418.15a1.35 1.35 0 1 0 -1.39-1.35 1.37 1.37 0 0 0 1.39 1.35z"></path>
        <path d="m383.1 404.64a1.35 1.35 0 1 0 -1.39-1.34 1.37 1.37 0 0 0 1.39 1.34z"></path>
        <path d="m369.18 404.64a1.35 1.35 0 1 0 -1.39-1.34 1.36 1.36 0 0 0 1.39 1.34z"></path>
        <path d="m355.26 404.64a1.35 1.35 0 1 0 -1.39-1.34 1.36 1.36 0 0 0 1.39 1.34z"></path>
      </g>
      <g clip-path="url(#X)">
        <path d="m383.1 458.65a1.35 1.35 0 1 0 0-2.7 1.35 1.35 0 1 0 0 2.7z"></path>
        <path d="m369.18 458.65a1.35 1.35 0 1 0 -1.39-1.35 1.37 1.37 0 0 0 1.39 1.35z"></path>
        <path d="m383.1 445.15a1.35 1.35 0 1 0 0-2.7 1.35 1.35 0 1 0 0 2.7z"></path>
        <path d="m369.18 445.15a1.35 1.35 0 1 0 -1.39-1.35 1.37 1.37 0 0 0 1.39 1.35z"></path>
        <path d="m362.22 451.9a1.35 1.35 0 1 0 -1.39-1.35 1.37 1.37 0 0 0 1.39 1.35z"></path>
        <path d="m376.14 451.9a1.35 1.35 0 1 0 0-2.7 1.35 1.35 0 1 0 0 2.7z"></path>
        <path d="m362.22 438.4a1.35 1.35 0 1 0 -1.39-1.35 1.37 1.37 0 0 0 1.39 1.35z"></path>
        <path d="m376.14 438.4a1.35 1.35 0 1 0 0-2.7 1.35 1.35 0 1 0 0 2.7z"></path>
        <path d="m355.26 458.65a1.35 1.35 0 1 0 -1.39-1.35 1.37 1.37 0 0 0 1.39 1.35z"></path>
        <path d="m355.26 445.15a1.35 1.35 0 1 0 -1.39-1.35 1.37 1.37 0 0 0 1.39 1.35z"></path>
        <path d="m383.1 431.65a1.35 1.35 0 1 0 0-2.7 1.35 1.35 0 1 0 0 2.7z"></path>
        <path d="m369.18 431.65a1.35 1.35 0 1 0 -1.39-1.35 1.37 1.37 0 0 0 1.39 1.35z"></path>
        <path d="m355.26 431.65a1.35 1.35 0 1 0 -1.39-1.35 1.37 1.37 0 0 0 1.39 1.35z"></path>
      </g>
      <g clip-path="url(#Y)">
        <path d="m383.1 485.65a1.35 1.35 0 1 0 0-2.7 1.35 1.35 0 1 0 0 2.7z"></path>
        <path d="m369.18 485.65a1.35 1.35 0 1 0 -1.39-1.35 1.37 1.37 0 0 0 1.39 1.35z"></path>
        <path d="m383.1 472.15a1.35 1.35 0 1 0 0-2.7 1.35 1.35 0 1 0 0 2.7z"></path>
        <path d="m369.18 472.15a1.35 1.35 0 1 0 -1.39-1.35 1.37 1.37 0 0 0 1.39 1.35z"></path>
        <path d="m362.22 478.9a1.35 1.35 0 1 0 -1.39-1.35 1.37 1.37 0 0 0 1.39 1.35z"></path>
        <path d="m376.14 478.9a1.35 1.35 0 1 0 0-2.7 1.35 1.35 0 1 0 0 2.7z"></path>
        <path d="m362.22 465.4a1.35 1.35 0 1 0 -1.39-1.35 1.37 1.37 0 0 0 1.39 1.35z"></path>
        <path d="m376.14 465.4a1.35 1.35 0 1 0 0-2.7 1.35 1.35 0 1 0 0 2.7z"></path>
        <path d="m355.26 485.65a1.35 1.35 0 1 0 -1.39-1.35 1.37 1.37 0 0 0 1.39 1.35z"></path>
        <path d="m355.26 472.15a1.35 1.35 0 1 0 -1.39-1.35 1.37 1.37 0 0 0 1.39 1.35z"></path>
        <path d="m383.1 458.65a1.35 1.35 0 1 0 0-2.7 1.35 1.35 0 1 0 0 2.7z"></path>
        <path d="m369.18 458.65a1.35 1.35 0 1 0 -1.39-1.35 1.37 1.37 0 0 0 1.39 1.35z"></path>
        <path d="m355.26 458.65a1.35 1.35 0 1 0 -1.39-1.35 1.37 1.37 0 0 0 1.39 1.35z"></path>
      </g>
      <g clip-path="url(#Z)">
        <path d="m355.26 323.64a1.35 1.35 0 1 0 -1.39-1.35 1.37 1.37 0 0 0 1.39 1.35z"></path>
        <path d="m341.34 323.64a1.35 1.35 0 1 0 -1.4-1.35 1.37 1.37 0 0 0 1.4 1.35z"></path>
        <path d="m355.26 310.14a1.35 1.35 0 1 0 -1.39-1.35 1.37 1.37 0 0 0 1.39 1.35z"></path>
        <path d="m341.34 310.14a1.35 1.35 0 1 0 -1.4-1.35 1.37 1.37 0 0 0 1.4 1.35z"></path>
        <path d="m334.37 316.89a1.35 1.35 0 1 0 -1.39-1.35 1.37 1.37 0 0 0 1.39 1.35z"></path>
        <path d="m348.3 316.89a1.35 1.35 0 1 0 0-2.7 1.35 1.35 0 1 0 0 2.7z"></path>
        <path d="m334.37 303.39a1.35 1.35 0 1 0 -1.37-1.39 1.37 1.37 0 0 0 1.37 1.39z"></path>
        <path d="m348.3 303.39a1.35 1.35 0 1 0 0-2.7 1.35 1.35 0 1 0 0 2.7z"></path>
        <path d="m327.41 323.64a1.35 1.35 0 1 0 -1.39-1.35 1.37 1.37 0 0 0 1.39 1.35z"></path>
        <path d="m327.41 310.14a1.35 1.35 0 1 0 -1.39-1.35 1.37 1.37 0 0 0 1.39 1.35z"></path>
        <path d="m355.26 296.64a1.35 1.35 0 1 0 -1.39-1.35 1.37 1.37 0 0 0 1.39 1.35z"></path>
        <path d="m341.34 296.64a1.35 1.35 0 1 0 -1.4-1.35 1.37 1.37 0 0 0 1.4 1.35z"></path>
        <path d="m327.41 296.64a1.35 1.35 0 1 0 -1.39-1.35 1.37 1.37 0 0 0 1.39 1.35z"></path>
      </g>
      <g clip-path="url(#aa)">
        <path d="m355.26 350.64a1.35 1.35 0 1 0 -1.39-1.35 1.37 1.37 0 0 0 1.39 1.35z"></path>
        <path d="m341.34 350.64a1.35 1.35 0 1 0 -1.4-1.35 1.37 1.37 0 0 0 1.4 1.35z"></path>
        <path d="m355.26 337.14a1.35 1.35 0 1 0 -1.39-1.35 1.37 1.37 0 0 0 1.39 1.35z"></path>
        <path d="m341.34 337.14a1.35 1.35 0 1 0 -1.4-1.35 1.37 1.37 0 0 0 1.4 1.35z"></path>
        <path d="m334.37 343.89a1.35 1.35 0 1 0 -1.39-1.35 1.37 1.37 0 0 0 1.39 1.35z"></path>
        <path d="m348.3 343.89a1.35 1.35 0 1 0 0-2.7 1.35 1.35 0 1 0 0 2.7z"></path>
        <path d="m334.37 330.39a1.35 1.35 0 1 0 -1.37-1.39 1.37 1.37 0 0 0 1.37 1.39z"></path>
        <path d="m348.3 330.39a1.35 1.35 0 1 0 0-2.7 1.35 1.35 0 1 0 0 2.7z"></path>
        <path d="m327.41 350.64a1.35 1.35 0 1 0 -1.39-1.35 1.37 1.37 0 0 0 1.39 1.35z"></path>
        <path d="m327.41 337.14a1.35 1.35 0 1 0 -1.39-1.35 1.37 1.37 0 0 0 1.39 1.35z"></path>
        <path d="m355.26 323.64a1.35 1.35 0 1 0 -1.39-1.35 1.37 1.37 0 0 0 1.39 1.35z"></path>
        <path d="m341.34 323.64a1.35 1.35 0 1 0 -1.4-1.35 1.37 1.37 0 0 0 1.4 1.35z"></path>
        <path d="m327.41 323.64a1.35 1.35 0 1 0 -1.39-1.35 1.37 1.37 0 0 0 1.39 1.35z"></path>
      </g>
      <g clip-path="url(#ab)">
        <path d="m355.26 377.64a1.35 1.35 0 1 0 -1.39-1.35 1.37 1.37 0 0 0 1.39 1.35z"></path>
        <path d="m341.34 377.64a1.35 1.35 0 1 0 -1.4-1.35 1.37 1.37 0 0 0 1.4 1.35z"></path>
        <path d="m355.26 364.15a1.36 1.36 0 1 0 -1.39-1.36 1.37 1.37 0 0 0 1.39 1.36z"></path>
        <path d="m341.34 364.15a1.36 1.36 0 1 0 -1.4-1.36 1.38 1.38 0 0 0 1.4 1.36z"></path>
        <path d="m334.37 370.89a1.35 1.35 0 1 0 -1.39-1.34 1.37 1.37 0 0 0 1.39 1.34z"></path>
        <path d="m348.3 370.89a1.35 1.35 0 1 0 0-2.7 1.35 1.35 0 1 0 0 2.7z"></path>
        <path d="m334.37 357.39a1.35 1.35 0 1 0 -1.37-1.39 1.37 1.37 0 0 0 1.37 1.39z"></path>
        <path d="m348.3 357.39a1.35 1.35 0 1 0 0-2.7 1.35 1.35 0 1 0 0 2.7z"></path>
        <path d="m327.41 377.64a1.35 1.35 0 1 0 -1.39-1.35 1.37 1.37 0 0 0 1.39 1.35z"></path>
        <path d="m327.41 364.15a1.36 1.36 0 1 0 -1.39-1.36 1.37 1.37 0 0 0 1.39 1.36z"></path>
        <path d="m355.26 350.64a1.35 1.35 0 1 0 -1.39-1.35 1.37 1.37 0 0 0 1.39 1.35z"></path>
        <path d="m341.34 350.64a1.35 1.35 0 1 0 -1.4-1.35 1.37 1.37 0 0 0 1.4 1.35z"></path>
        <path d="m327.41 350.64a1.35 1.35 0 1 0 -1.39-1.35 1.37 1.37 0 0 0 1.39 1.35z"></path>
      </g>
      <g clip-path="url(#ac)">
        <path d="m355.26 404.64a1.35 1.35 0 1 0 -1.39-1.34 1.36 1.36 0 0 0 1.39 1.34z"></path>
        <path d="m341.34 404.64a1.35 1.35 0 1 0 -1.4-1.34 1.37 1.37 0 0 0 1.4 1.34z"></path>
        <path d="m355.26 391.15a1.35 1.35 0 1 0 -1.39-1.36 1.37 1.37 0 0 0 1.39 1.36z"></path>
        <path d="m341.34 391.15a1.35 1.35 0 1 0 -1.4-1.36 1.38 1.38 0 0 0 1.4 1.36z"></path>
        <path d="m334.37 397.9a1.36 1.36 0 1 0 -1.39-1.35 1.38 1.38 0 0 0 1.39 1.35z"></path>
        <path d="m348.3 397.9a1.36 1.36 0 1 0 -1.4-1.35 1.37 1.37 0 0 0 1.4 1.35z"></path>
        <path d="m334.37 384.4a1.36 1.36 0 1 0 -1.39-1.35 1.38 1.38 0 0 0 1.39 1.35z"></path>
        <path d="m348.3 384.4a1.36 1.36 0 1 0 -1.4-1.35 1.37 1.37 0 0 0 1.4 1.35z"></path>
        <path d="m327.41 404.64a1.35 1.35 0 1 0 -1.41-1.34 1.36 1.36 0 0 0 1.41 1.34z"></path>
        <path d="m327.41 391.15a1.35 1.35 0 1 0 -1.39-1.36 1.37 1.37 0 0 0 1.39 1.36z"></path>
        <path d="m355.26 377.64a1.35 1.35 0 1 0 -1.39-1.35 1.37 1.37 0 0 0 1.39 1.35z"></path>
        <path d="m341.34 377.64a1.35 1.35 0 1 0 -1.4-1.35 1.37 1.37 0 0 0 1.4 1.35z"></path>
        <path d="m327.41 377.64a1.35 1.35 0 1 0 -1.39-1.35 1.37 1.37 0 0 0 1.39 1.35z"></path>
      </g>
      <g clip-path="url(#ad)">
        <path d="m355.26 431.65a1.35 1.35 0 1 0 -1.39-1.35 1.37 1.37 0 0 0 1.39 1.35z"></path>
        <path d="m341.34 431.65a1.35 1.35 0 1 0 -1.4-1.35 1.38 1.38 0 0 0 1.4 1.35z"></path>
        <path d="m355.26 418.15a1.35 1.35 0 1 0 -1.39-1.35 1.37 1.37 0 0 0 1.39 1.35z"></path>
        <path d="m341.34 418.15a1.35 1.35 0 1 0 -1.4-1.35 1.38 1.38 0 0 0 1.4 1.35z"></path>
        <path d="m334.37 424.9a1.35 1.35 0 1 0 0-2.7 1.35 1.35 0 1 0 0 2.7z"></path>
        <path d="m348.3 424.9a1.35 1.35 0 1 0 -1.4-1.35 1.37 1.37 0 0 0 1.4 1.35z"></path>
        <path d="m334.37 411.4a1.36 1.36 0 1 0 -1.39-1.35 1.38 1.38 0 0 0 1.39 1.35z"></path>
        <path d="m348.3 411.4a1.36 1.36 0 1 0 -1.4-1.35 1.37 1.37 0 0 0 1.4 1.35z"></path>
        <path d="m327.41 431.65a1.35 1.35 0 1 0 -1.41-1.35 1.37 1.37 0 0 0 1.41 1.35z"></path>
        <path d="m327.41 418.15a1.35 1.35 0 1 0 -1.41-1.35 1.37 1.37 0 0 0 1.41 1.35z"></path>
        <path d="m355.26 404.64a1.35 1.35 0 1 0 -1.39-1.34 1.36 1.36 0 0 0 1.39 1.34z"></path>
        <path d="m341.34 404.64a1.35 1.35 0 1 0 -1.4-1.34 1.37 1.37 0 0 0 1.4 1.34z"></path>
        <path d="m327.41 404.64a1.35 1.35 0 1 0 -1.41-1.34 1.36 1.36 0 0 0 1.41 1.34z"></path>
      </g>
      <g clip-path="url(#ae)">
        <path d="m355.26 458.65a1.35 1.35 0 1 0 -1.39-1.35 1.37 1.37 0 0 0 1.39 1.35z"></path>
        <path d="m341.34 458.65a1.35 1.35 0 1 0 -1.4-1.35 1.38 1.38 0 0 0 1.4 1.35z"></path>
        <path d="m355.26 445.15a1.35 1.35 0 1 0 -1.39-1.35 1.37 1.37 0 0 0 1.39 1.35z"></path>
        <path d="m341.34 445.15a1.35 1.35 0 1 0 -1.4-1.35 1.38 1.38 0 0 0 1.4 1.35z"></path>
        <path d="m334.37 451.9a1.35 1.35 0 1 0 0-2.7 1.35 1.35 0 1 0 0 2.7z"></path>
        <path d="m348.3 451.9a1.35 1.35 0 1 0 -1.4-1.35 1.37 1.37 0 0 0 1.4 1.35z"></path>
        <path d="m334.37 438.4a1.35 1.35 0 1 0 0-2.7 1.35 1.35 0 1 0 0 2.7z"></path>
        <path d="m348.3 438.4a1.35 1.35 0 1 0 -1.4-1.35 1.37 1.37 0 0 0 1.4 1.35z"></path>
        <path d="m327.41 458.65a1.35 1.35 0 1 0 -1.41-1.35 1.37 1.37 0 0 0 1.41 1.35z"></path>
        <path d="m327.41 445.15a1.35 1.35 0 1 0 -1.41-1.35 1.37 1.37 0 0 0 1.41 1.35z"></path>
        <path d="m355.26 431.65a1.35 1.35 0 1 0 -1.39-1.35 1.37 1.37 0 0 0 1.39 1.35z"></path>
        <path d="m341.34 431.65a1.35 1.35 0 1 0 -1.4-1.35 1.38 1.38 0 0 0 1.4 1.35z"></path>
        <path d="m327.41 431.65a1.35 1.35 0 1 0 -1.41-1.35 1.37 1.37 0 0 0 1.41 1.35z"></path>
      </g>
      <g clip-path="url(#af)">
        <path d="m355.26 485.65a1.35 1.35 0 1 0 -1.39-1.35 1.37 1.37 0 0 0 1.39 1.35z"></path>
        <path d="m341.34 485.65a1.35 1.35 0 1 0 -1.4-1.35 1.38 1.38 0 0 0 1.4 1.35z"></path>
        <path d="m355.26 472.15a1.35 1.35 0 1 0 -1.39-1.35 1.37 1.37 0 0 0 1.39 1.35z"></path>
        <path d="m341.34 472.15a1.35 1.35 0 1 0 -1.4-1.35 1.38 1.38 0 0 0 1.4 1.35z"></path>
        <path d="m334.37 478.9a1.35 1.35 0 1 0 0-2.7 1.35 1.35 0 1 0 0 2.7z"></path>
        <path d="m348.3 478.9a1.35 1.35 0 1 0 -1.4-1.35 1.37 1.37 0 0 0 1.4 1.35z"></path>
        <path d="m334.37 465.4a1.35 1.35 0 1 0 0-2.7 1.35 1.35 0 1 0 0 2.7z"></path>
        <path d="m348.3 465.4a1.35 1.35 0 1 0 -1.4-1.35 1.37 1.37 0 0 0 1.4 1.35z"></path>
        <path d="m327.41 485.65a1.35 1.35 0 1 0 -1.41-1.35 1.37 1.37 0 0 0 1.41 1.35z"></path>
        <path d="m327.41 472.15a1.35 1.35 0 1 0 -1.41-1.35 1.37 1.37 0 0 0 1.41 1.35z"></path>
        <path d="m355.26 458.65a1.35 1.35 0 1 0 -1.39-1.35 1.37 1.37 0 0 0 1.39 1.35z"></path>
        <path d="m341.34 458.65a1.35 1.35 0 1 0 -1.4-1.35 1.38 1.38 0 0 0 1.4 1.35z"></path>
        <path d="m327.41 458.65a1.35 1.35 0 1 0 -1.41-1.35 1.37 1.37 0 0 0 1.41 1.35z"></path>
      </g>
    </g>
  </g>
</svg>
