<?xml version="1.0" encoding="UTF-8"?>
<svg xmlns="http://www.w3.org/2000/svg" xmlns:xlink="http://www.w3.org/1999/xlink" viewBox="0 0 600 600">
  <clipPath id="a">
    <path d="m141.93 250.02h381.3v24.8h-381.3z"></path>
  </clipPath>
  <clipPath id="b">
    <path d="m512.28 240.27h27v27h-27z"></path>
  </clipPath>
  <clipPath id="c">
    <path d="m512.28 267.27h27v27h-27z"></path>
  </clipPath>
  <clipPath id="d">
    <path d="m485.28 240.27h27v27h-27z"></path>
  </clipPath>
  <clipPath id="e">
    <path d="m485.28 267.27h27v27h-27z"></path>
  </clipPath>
  <clipPath id="f">
    <path d="m458.28 240.27h27v27h-27z"></path>
  </clipPath>
  <clipPath id="g">
    <path d="m458.28 267.27h27v27h-27z"></path>
  </clipPath>
  <clipPath id="h">
    <path d="m431.28 240.27h27v27h-27z"></path>
  </clipPath>
  <clipPath id="i">
    <path d="m431.28 267.27h27v27h-27z"></path>
  </clipPath>
  <clipPath id="j">
    <path d="m404.28 240.27h27v27h-27z"></path>
  </clipPath>
  <clipPath id="k">
    <path d="m404.28 267.27h27v27h-27z"></path>
  </clipPath>
  <clipPath id="l">
    <path d="m377.28 240.27h27v27h-27z"></path>
  </clipPath>
  <clipPath id="m">
    <path d="m377.28 267.27h27v27h-27z"></path>
  </clipPath>
  <clipPath id="n">
    <path d="m350.28 240.27h27v27h-27z"></path>
  </clipPath>
  <clipPath id="o">
    <path d="m350.28 267.27h27v27h-27z"></path>
  </clipPath>
  <clipPath id="p">
    <path d="m323.28 240.27h27v27h-27z"></path>
  </clipPath>
  <clipPath id="q">
    <path d="m323.28 267.27h27v27h-27z"></path>
  </clipPath>
  <clipPath id="r">
    <path d="m296.28 240.27h27v27h-27z"></path>
  </clipPath>
  <clipPath id="s">
    <path d="m296.28 267.27h27v27h-27z"></path>
  </clipPath>
  <clipPath id="t">
    <path d="m269.28 240.27h27v27h-27z"></path>
  </clipPath>
  <clipPath id="u">
    <path d="m269.28 267.27h27v27h-27z"></path>
  </clipPath>
  <clipPath id="v">
    <path d="m242.28 240.27h27v27h-27z"></path>
  </clipPath>
  <clipPath id="w">
    <path d="m242.28 267.27h27v27h-27z"></path>
  </clipPath>
  <clipPath id="x">
    <path d="m215.28 240.27h27v27h-27z"></path>
  </clipPath>
  <clipPath id="y">
    <path d="m215.28 267.27h27v27h-27z"></path>
  </clipPath>
  <clipPath id="z">
    <path d="m188.28 240.27h27v27h-27z"></path>
  </clipPath>
  <clipPath id="A">
    <path d="m188.28 267.27h27v27h-27z"></path>
  </clipPath>
  <clipPath id="B">
    <path d="m161.28 240.27h27v27h-27z"></path>
  </clipPath>
  <clipPath id="C">
    <path d="m161.28 267.27h27v27h-27z"></path>
  </clipPath>
  <clipPath id="D">
    <path d="m134.28 240.27h27v27h-27z"></path>
  </clipPath>
  <clipPath id="E">
    <path d="m134.28 267.27h27v27h-27z"></path>
  </clipPath>
  <path d="m117.19 478.17h10.72v13.1h-10.72z" fill="#ffde00"></path>
  <path d="m133.29 271.1h384.86v220.16h-384.86z" fill="#fff"></path>
  <path d="m141.93 165.89h381.3v84.13h-381.3z" fill="#ffde00"></path>
  <path d="m111.89 240.39h21.4v9.63h-21.4z" fill="#ffde00"></path>
  <path d="m111.89 191.63h21.4v39.36h-21.4z" fill="#ffde00"></path>
  <path d="m294.69 313.42h141.78v9.81h-141.78z" fill="#ffde00"></path>
  <path d="m142.24 313.42h141.78v9.81h-141.78z" fill="#ffde00"></path>
  <path d="m124.68 451.12h-40.55l7.71 38.65h25.13z" fill="#ffde00"></path>
  <path d="m441.88 451.12h-40.54l7.7 38.65h25.14z" fill="#ffde00"></path>
  <path d="m103.24 116.39h419.99v24.73h-419.99z" fill="#00ab81"></path>
  <path d="m513.06 274.82h10.17v214.94h-10.17z" fill="#00ab81"></path>
  <path d="m284.33 274.82h10.17v203.67h-10.17z" fill="#00ab81"></path>
  <path d="m103.24 141.12h419.99v24.77h-419.99z" fill="#00ab81"></path>
  <path d="m103.24 259.65v128.35a20.49 20.49 0 0 1 2.57-3.78 30.79 30.79 0 0 0 -1 16.45 62.08 62.08 0 0 0 2.93 9c-.28-7 3-13.71 4.17-20.65 1.61-9.25-.44-19 2.2-28-.48 10.59 3.47 21.21 1.66 31.66-.43 2.48-1.17 4.9-1.43 7.41-.39 3.88 1.59 12.14 3.31 16.25a31.82 31.82 0 0 0 .82-5.71c.31-5.27 0-10.75 2-15.62a33.75 33.75 0 0 1 4.53-7.21c-3.73 5.64-2.56 13-2.08 19.78a81.35 81.35 0 0 1 -.2 14 31.56 31.56 0 0 1 -.67 4.23l1.9-1.3c.77 5.23 1.48 10.84-.87 15.57-1.09 2.18-2.75 4-4 6.07a20.19 20.19 0 0 0 -1.7 3.46l2.11 1.64h5.35l-7.69 38.55h24.78v-230.15z" fill="#00ab81"></path>
  <path d="m436.67 274.82v121c.1-.29.19-.59.31-.88a33.75 33.75 0 0 1 4.55-7.18c-3.73 5.64-2.56 13-2.08 19.78a81.35 81.35 0 0 1 -.2 14 31.56 31.56 0 0 1 -.67 4.23l1.9-1.3c.77 5.23 1.48 10.84-.87 15.57a33.57 33.57 0 0 1 -2.94 4.45v6.72h4.66l-4.66 23.38v15.17h10.17v-214.94z" fill="#00ab81"></path>
  <path d="m118.66 448.71a14.39 14.39 0 0 0 1.46-1.95c.49-.79 1-1.54 1.59-2.3a26.89 26.89 0 0 0 2.51-3.88c2.64-5.3 1.74-11.46 1-16.4a1.38 1.38 0 0 0 -.83-1.08 1.21 1.21 0 0 0 -.56-.1c.06-.47.12-.94.16-1.4a83.26 83.26 0 0 0 .21-14.21l-.2-2.39c-.49-5.85-1-11.9 2-16.47a1.41 1.41 0 0 0 -2.3-1.62 35 35 0 0 0 -4.72 7.48c-1.7 4.06-1.84 8.43-2 12.67q0 1.44-.12 2.88c-.92-3.66-1.56-7.6-1.34-9.78a34.63 34.63 0 0 1 .8-4.34c.22-1 .44-2 .61-3 1.06-6.12.21-12.29-.6-18.26a76.64 76.64 0 0 1 -1-13.58 1.41 1.41 0 0 0 -2.76-.46c-1.54 5.25-1.54 10.74-1.54 16a73.07 73.07 0 0 1 -.69 12.12 75.51 75.51 0 0 1 -1.87 7.47c-.64 2.21-1.28 4.46-1.73 6.74-.26-.86-.55-1.72-.74-2.6a29.12 29.12 0 0 1 .94-15.7 1.41 1.41 0 0 0 -2.39-1.39c-6 6.79-6.56 16.26-6 23 .11 1.27.25 2.54.38 3.81a40.18 40.18 0 0 1 -7.22-26.92 1.39 1.39 0 0 0 -1.19-1.52 1.37 1.37 0 0 0 -1.52 1.16c-2.63 13.62-2.28 24.71 1.08 33.9a82 82 0 0 0 3.87 8.5c.84 1.67 1.68 3.35 2.44 5.06l.39.85.52 1.17a21.65 21.65 0 0 0 -4.63-2l-.85-.29a44.22 44.22 0 0 1 -12.29-6.65 1.41 1.41 0 0 0 -2.23 1.44c.88 3.73 3.23 6.68 5.5 9.54a47.32 47.32 0 0 1 3.2 4.41 21.36 21.36 0 0 1 3.11 11.53h28.79z" fill="#00ab81"></path>
  <path d="m435.86 448.71a14.39 14.39 0 0 0 1.46-1.95c.49-.79 1.05-1.54 1.6-2.3a26.84 26.84 0 0 0 2.5-3.88c2.64-5.3 1.74-11.46 1-16.4a1.37 1.37 0 0 0 -.82-1.08 1.21 1.21 0 0 0 -.56-.1c.05-.47.11-.94.16-1.4a83.26 83.26 0 0 0 .2-14.21l-.19-2.44c-.48-5.85-1-11.9 2-16.47a1.4 1.4 0 0 0 -2.29-1.62 34.61 34.61 0 0 0 -4.73 7.48c-1.7 4.06-1.83 8.43-2 12.67 0 1-.07 1.92-.12 2.88-.92-3.66-1.57-7.6-1.35-9.78a36.54 36.54 0 0 1 .8-4.34c.22-1 .44-2 .61-3 1.06-6.12.22-12.29-.6-18.26a76.64 76.64 0 0 1 -1-13.58 1.41 1.41 0 0 0 -2.76-.46c-1.53 5.25-1.54 10.74-1.54 16a71 71 0 0 1 -.69 12.12 75.51 75.51 0 0 1 -1.87 7.47c-.64 2.21-1.27 4.46-1.73 6.74-.26-.86-.55-1.72-.74-2.6a29.22 29.22 0 0 1 .94-15.7 1.41 1.41 0 0 0 -2.39-1.39c-6 6.79-6.56 16.26-6 23 .1 1.27.24 2.54.38 3.81a40.12 40.12 0 0 1 -7.13-26.83 1.4 1.4 0 0 0 -1.2-1.52 1.38 1.38 0 0 0 -1.58 1.12c-2.63 13.62-2.27 24.71 1.09 33.9a81.89 81.89 0 0 0 3.86 8.5c.84 1.67 1.68 3.35 2.45 5.06l.38.85.52 1.17a21.43 21.43 0 0 0 -4.63-2l-.85-.29a44.36 44.36 0 0 1 -12.29-6.65 1.41 1.41 0 0 0 -2.22 1.44c.88 3.73 3.23 6.68 5.5 9.54a47.21 47.21 0 0 1 3.25 4.45 21.36 21.36 0 0 1 3.11 11.53h28.77z" fill="#00ab81"></path>
  <path d="m111.89 165.89v26h21.4v-26zm16.11 19.54h-10.81v-13.1h10.81z" fill="#fb715d"></path>
  <path d="m111.89 230.76h21.4v9.63h-21.4z" fill="#fb715d"></path>
  <path d="m103.24 250.02h38.69v9.63h-38.69z" fill="#fb715d"></path>
  <path d="m141.93 250.02h381.3v24.8h-381.3z" fill="#fb715d"></path>
  <path d="m408.49 489.86h-266.25v-11.37h264.29z" fill="#fb715d"></path>
  <path d="m446.84 478.4h66.22v11.37h-66.22z" fill="#fb715d"></path>
  <path d="m447.26 313.42h65.91v16.88h-65.91z" fill="#fb715d"></path>
  <path d="m447.26 395.95h65.91v16.88h-65.91z" fill="#fb715d"></path>
  <path d="m103.24 165.89h8.65v84.13h-8.65z" fill="#fb715d"></path>
  <path d="m133.29 165.89h8.65v84.13h-8.65z" fill="#fb715d"></path>
  <g fill="#1c19a8">
    <path d="m523.24 142.53h-420a1.41 1.41 0 0 1 -1.4-1.41v-24.73a1.41 1.41 0 0 1 1.4-1.41h420a1.41 1.41 0 0 1 1.4 1.41v24.73a1.41 1.41 0 0 1 -1.4 1.41zm-418.59-2.82h417.18v-21.92h-417.18z"></path>
    <path d="m523.24 251.43h-381.31a1.41 1.41 0 0 1 -1.4-1.41v-84.13a1.41 1.41 0 0 1 1.4-1.41h381.31a1.41 1.41 0 0 1 1.4 1.41v84.11a1.41 1.41 0 0 1 -1.4 1.43zm-379.9-2.82h378.49v-81.32h-378.49z"></path>
    <path d="m133.29 193.27h-21.4a1.41 1.41 0 0 1 -1.41-1.4v-26a1.41 1.41 0 0 1 1.41-1.41h21.4a1.41 1.41 0 0 1 1.4 1.41v26a1.4 1.4 0 0 1 -1.4 1.4zm-20-2.81h18.58v-23.17h-18.57zm14.71-3.63h-10.81a1.4 1.4 0 0 1 -1.4-1.4v-13.11a1.4 1.4 0 0 1 1.4-1.4h10.81a1.41 1.41 0 0 1 1.41 1.4v13.11a1.41 1.41 0 0 1 -1.41 1.4zm-9.4-2.83h8v-10.27h-8z"></path>
    <path d="m133.29 241.79h-21.4a1.41 1.41 0 0 1 -1.41-1.4v-9.63a1.41 1.41 0 0 1 1.41-1.41h21.4a1.41 1.41 0 0 1 1.4 1.41v9.63a1.4 1.4 0 0 1 -1.4 1.4zm-20-2.81h18.58v-6.81h-18.57z"></path>
    <path d="m133.29 251.43h-21.4a1.41 1.41 0 0 1 -1.41-1.41v-9.63a1.41 1.41 0 0 1 1.41-1.41h21.4a1.41 1.41 0 0 1 1.4 1.41v9.61a1.41 1.41 0 0 1 -1.4 1.43zm-20-2.82h18.58v-6.82h-18.57z"></path>
    <path d="m141.93 261.05h-38.69a1.4 1.4 0 0 1 -1.4-1.4v-9.65a1.41 1.41 0 0 1 1.4-1.41h38.69a1.41 1.41 0 0 1 1.41 1.41v9.63a1.41 1.41 0 0 1 -1.41 1.42zm-37.28-2.81h35.88v-6.81h-35.88z"></path>
    <path d="m133.29 232.4h-21.4a1.41 1.41 0 0 1 -1.41-1.41v-39.36a1.41 1.41 0 0 1 1.41-1.41h21.4a1.41 1.41 0 0 1 1.4 1.41v39.37a1.41 1.41 0 0 1 -1.4 1.4zm-20-2.81h18.58v-36.59h-18.57z"></path>
    <path d="m523.24 276.23h-381.31a1.41 1.41 0 0 1 -1.4-1.41v-24.82a1.41 1.41 0 0 1 1.4-1.41h381.31a1.41 1.41 0 0 1 1.4 1.41v24.8a1.41 1.41 0 0 1 -1.4 1.43zm-379.9-2.81h378.49v-22h-378.49z"></path>
    <path d="m523.24 491.17h-10.18a1.41 1.41 0 0 1 -1.4-1.41v-214.94a1.4 1.4 0 0 1 1.4-1.4h10.18a1.4 1.4 0 0 1 1.4 1.4v214.94a1.41 1.41 0 0 1 -1.4 1.41zm-8.77-2.81h7.36v-212.13h-7.36z"></path>
    <path d="m294.5 479.9h-10.17a1.41 1.41 0 0 1 -1.41-1.41v-203.67a1.41 1.41 0 0 1 1.41-1.4h10.17a1.41 1.41 0 0 1 1.41 1.4v203.67a1.41 1.41 0 0 1 -1.41 1.41zm-8.76-2.81h7.36v-200.86h-7.36z"></path>
    <path d="m408.49 491.26h-266.25a1.41 1.41 0 0 1 -1.41-1.4v-11.37a1.4 1.4 0 0 1 1.41-1.4h264.29a1.41 1.41 0 0 1 1.39 1.16l1.95 11.37a1.4 1.4 0 0 1 -1.38 1.64zm-264.84-2.81h263.17l-1.48-8.55h-261.69z"></path>
    <path d="m513.06 491.17h-66.22a1.41 1.41 0 0 1 -1.41-1.41v-11.36a1.41 1.41 0 0 1 1.41-1.41h66.22a1.41 1.41 0 0 1 1.41 1.41v11.36a1.41 1.41 0 0 1 -1.41 1.41zm-64.82-2.81h63.42v-8.56h-63.42z"></path>
    <path d="m159.88 179a3.47 3.47 0 0 0 5.77-2.22 3.42 3.42 0 0 0 -.24-1.71 3.45 3.45 0 0 0 -1-1.31 1.31 1.31 0 0 1 -.48-1v-1.46a1.12 1.12 0 0 0 -1.12-1.12h-1.25a1.12 1.12 0 0 0 -1.11 1.12v1.39a1.35 1.35 0 0 1 -.45 1 3.49 3.49 0 0 0 -.13 5.29z"></path>
    <path d="m162.17 181.26a4.81 4.81 0 0 1 -3.17-1.26 4.89 4.89 0 0 1 .17-7.42l-.06-1.3a2.53 2.53 0 0 1 2.52-2.53h1.25a2.54 2.54 0 0 1 2.53 2.54v1.39a4.36 4.36 0 0 1 1.35 1.8 4.74 4.74 0 0 1 .35 2.39 4.89 4.89 0 0 1 -4.29 4.33 3.81 3.81 0 0 1 -.65.06zm-1.35-3.33a2.11 2.11 0 0 0 1.62.5 2.05 2.05 0 0 0 1.81-1.82 2.09 2.09 0 0 0 -.14-1 2 2 0 0 0 -.58-.77 2.72 2.72 0 0 1 -1-2.07v-1.16h-.68v1.11a2.74 2.74 0 0 1 -.93 2.05 2.12 2.12 0 0 0 -.8 1.64 2.09 2.09 0 0 0 .69 1.55z"></path>
    <path d="m161.31 168.65h1.78v1.78h-1.78z"></path>
    <path d="m159.91 167.25h4.58v4.59h-4.58z"></path>
    <path d="m161.85 166.54h.69v2.12h-.69z"></path>
    <path d="m160.44 165.13h3.51v4.93h-3.51z"></path>
    <path d="m190.86 179a3.47 3.47 0 0 0 5.77-2.22 3.42 3.42 0 0 0 -.24-1.71 3.45 3.45 0 0 0 -1-1.31 1.31 1.31 0 0 1 -.48-1v-1.46a1.12 1.12 0 0 0 -1.12-1.12h-1.25a1.12 1.12 0 0 0 -1.12 1.12v1.39a1.33 1.33 0 0 1 -.46 1 3.48 3.48 0 0 0 -.12 5.29z"></path>
    <path d="m193.15 181.26a4.86 4.86 0 0 1 -3.23-1.23 4.89 4.89 0 0 1 .17-7.42l-.06-1.3a2.53 2.53 0 0 1 2.52-2.53h1.25a2.54 2.54 0 0 1 2.53 2.54v1.39a4.4 4.4 0 0 1 1.35 1.8 4.83 4.83 0 0 1 .35 2.41 4.89 4.89 0 0 1 -4.29 4.31 3.81 3.81 0 0 1 -.59.03zm-1.35-3.34a2.07 2.07 0 0 0 3.43-1.31 2.1 2.1 0 0 0 -.14-1 2 2 0 0 0 -.58-.76 2.74 2.74 0 0 1 -1-2.08v-1.16h-.67v1.1a2.75 2.75 0 0 1 -.93 2.06 2.12 2.12 0 0 0 -.8 1.64 2.05 2.05 0 0 0 .69 1.54z"></path>
    <path d="m192.29 168.65h1.78v1.78h-1.78z"></path>
    <path d="m190.88 167.25h4.59v4.59h-4.59z"></path>
    <path d="m192.83 166.54h.69v2.12h-.69z"></path>
    <path d="m191.43 165.13h3.5v4.93h-3.5z"></path>
    <path d="m221.84 179a3.47 3.47 0 0 0 5.52-3.93 3.33 3.33 0 0 0 -1-1.31 1.31 1.31 0 0 1 -.48-1v-1.46a1.12 1.12 0 0 0 -1.12-1.12h-1.25a1.12 1.12 0 0 0 -1.12 1.12v1.39a1.33 1.33 0 0 1 -.46 1 3.48 3.48 0 0 0 -.12 5.29z"></path>
    <path d="m224.13 181.26a4.86 4.86 0 0 1 -3.23-1.26 4.89 4.89 0 0 1 .17-7.42l-.06-1.3a2.53 2.53 0 0 1 2.52-2.53h1.25a2.53 2.53 0 0 1 2.52 2.54v1.39a4.3 4.3 0 0 1 1.36 1.79 4.79 4.79 0 0 1 .35 2.4 4.9 4.9 0 0 1 -4.29 4.33 3.9 3.9 0 0 1 -.59.06zm-1.35-3.33a2.08 2.08 0 0 0 3.29-2.35 2 2 0 0 0 -.58-.76 2.74 2.74 0 0 1 -1-2.08v-1.16h-.67v1.1a2.75 2.75 0 0 1 -.93 2.06 2.12 2.12 0 0 0 -.8 1.64 2.08 2.08 0 0 0 .69 1.55z"></path>
    <path d="m223.27 168.65h1.78v1.78h-1.78z"></path>
    <path d="m221.86 167.25h4.59v4.59h-4.59z"></path>
    <path d="m223.81 166.54h.69v2.12h-.69z"></path>
    <path d="m222.4 165.13h3.5v4.93h-3.5z"></path>
    <path d="m252.82 179a3.47 3.47 0 0 0 5.52-3.93 3.33 3.33 0 0 0 -1-1.31 1.31 1.31 0 0 1 -.48-1v-1.46a1.12 1.12 0 0 0 -1.12-1.12h-1.25a1.12 1.12 0 0 0 -1.12 1.12v1.39a1.35 1.35 0 0 1 -.45 1 3.51 3.51 0 0 0 -1.28 2.7 3.45 3.45 0 0 0 1.16 2.59z"></path>
    <path d="m255.11 181.26a4.86 4.86 0 0 1 -3.23-1.23 4.87 4.87 0 0 1 .17-7.42l-.06-1.3a2.53 2.53 0 0 1 2.52-2.53h1.25a2.54 2.54 0 0 1 2.53 2.54v1.39a4.53 4.53 0 0 1 1.35 1.8 4.74 4.74 0 0 1 .35 2.39 4.89 4.89 0 0 1 -4.29 4.33 4 4 0 0 1 -.59.03zm-1.35-3.33a2.09 2.09 0 0 0 1.62.5 2.06 2.06 0 0 0 1.81-1.82 2.09 2.09 0 0 0 -.14-1 2 2 0 0 0 -.58-.77 2.73 2.73 0 0 1 -1-2.07v-1.16h-.67v1.11a2.74 2.74 0 0 1 -.93 2.05 2.12 2.12 0 0 0 -.8 1.64 2.09 2.09 0 0 0 .69 1.55z"></path>
    <path d="m254.25 168.65h1.78v1.78h-1.78z"></path>
    <path d="m252.84 167.25h4.58v4.59h-4.58z"></path>
    <path d="m254.79 166.54h.69v2.12h-.69z"></path>
    <path d="m253.38 165.13h3.51v4.93h-3.51z"></path>
    <path d="m283.8 179a3.47 3.47 0 0 0 5.52-3.93 3.33 3.33 0 0 0 -1-1.31 1.31 1.31 0 0 1 -.48-1v-1.46a1.12 1.12 0 0 0 -1.12-1.12h-1.25a1.12 1.12 0 0 0 -1.12 1.12v1.39a1.35 1.35 0 0 1 -.45 1 3.51 3.51 0 0 0 -1.28 2.7 3.45 3.45 0 0 0 1.18 2.61z"></path>
    <path d="m286.09 181.26a4.84 4.84 0 0 1 -3.23-1.23 4.9 4.9 0 0 1 .16-7.42l-.06-1.3a2.54 2.54 0 0 1 2.53-2.53h1.25a2.53 2.53 0 0 1 2.52 2.54v1.39a4.33 4.33 0 0 1 1.36 1.8 4.83 4.83 0 0 1 .35 2.41 4.89 4.89 0 0 1 -4.29 4.31 3.9 3.9 0 0 1 -.59.03zm-1.35-3.34a2 2 0 0 0 1.62.51 2.07 2.07 0 0 0 1.81-1.82 2.1 2.1 0 0 0 -.14-1 2.06 2.06 0 0 0 -.58-.76 2.75 2.75 0 0 1 -1-2.08v-1.16h-.67v1.1a2.72 2.72 0 0 1 -.94 2.06 2.14 2.14 0 0 0 -.79 1.64 2.05 2.05 0 0 0 .69 1.54z"></path>
    <path d="m285.23 168.65h1.78v1.78h-1.78z"></path>
    <path d="m283.82 167.25h4.59v4.59h-4.59z"></path>
    <path d="m285.77 166.54h.69v2.12h-.69z"></path>
    <path d="m284.36 165.13h3.5v4.93h-3.5z"></path>
    <path d="m314.78 179a3.47 3.47 0 0 0 5.52-4 3.33 3.33 0 0 0 -1-1.31 1.31 1.31 0 0 1 -.48-1v-1.39a1.13 1.13 0 0 0 -1.12-1.12h-1.25a1.12 1.12 0 0 0 -1.12 1.12v1.39a1.35 1.35 0 0 1 -.45 1 3.51 3.51 0 0 0 -1.28 2.7 3.45 3.45 0 0 0 1.16 2.59z"></path>
    <path d="m317.07 181.26a4.82 4.82 0 0 1 -3.23-1.23 4.88 4.88 0 0 1 .16-7.42l-.05-1.3a2.53 2.53 0 0 1 2.52-2.53h1.25a2.53 2.53 0 0 1 2.52 2.54v1.39a4.47 4.47 0 0 1 1.36 1.79 4.88 4.88 0 0 1 -3.94 6.73 4 4 0 0 1 -.59.03zm-1.36-3.33a2.12 2.12 0 0 0 1.63.5 2 2 0 0 0 1.09-3.61 2.72 2.72 0 0 1 -1-2.08v-1.16h-.67v1.11a2.72 2.72 0 0 1 -.94 2.05 2.14 2.14 0 0 0 -.79 1.64 2.1 2.1 0 0 0 .68 1.55z"></path>
    <path d="m316.21 168.65h1.78v1.78h-1.78z"></path>
    <path d="m314.8 167.25h4.59v4.59h-4.59z"></path>
    <path d="m316.75 166.54h.69v2.12h-.69z"></path>
    <path d="m315.34 165.13h3.5v4.93h-3.5z"></path>
    <path d="m345.76 179a3.44 3.44 0 0 0 2.72.86 3.5 3.5 0 0 0 3-3.08 3.54 3.54 0 0 0 -.25-1.71 3.33 3.33 0 0 0 -1-1.31 1.31 1.31 0 0 1 -.48-1v-1.46a1.13 1.13 0 0 0 -1.12-1.12h-1.25a1.12 1.12 0 0 0 -1.12 1.12v1.39a1.35 1.35 0 0 1 -.45 1 3.51 3.51 0 0 0 -1.28 2.7 3.45 3.45 0 0 0 1.16 2.59z"></path>
    <path d="m348.05 181.26a4.84 4.84 0 0 1 -3.23-1.23 4.88 4.88 0 0 1 .16-7.42l-.06-1.3a2.54 2.54 0 0 1 2.53-2.53h1.25a2.53 2.53 0 0 1 2.52 2.54v1.39a4.46 4.46 0 0 1 1.36 1.8 4.83 4.83 0 0 1 .35 2.41 4.89 4.89 0 0 1 -4.29 4.31 4 4 0 0 1 -.59.03zm-1.35-3.34a2.07 2.07 0 0 0 3.43-1.31 2 2 0 0 0 -.15-1 2 2 0 0 0 -.58-.77 2.75 2.75 0 0 1 -1-2.07v-1.16h-.67v1.11a2.72 2.72 0 0 1 -.94 2.05 2.15 2.15 0 0 0 -.8 1.64 2.06 2.06 0 0 0 .7 1.54z"></path>
    <path d="m347.19 168.65h1.78v1.78h-1.78z"></path>
    <path d="m345.78 167.25h4.58v4.59h-4.58z"></path>
    <path d="m347.73 166.54h.69v2.12h-.69z"></path>
    <path d="m346.32 165.13h3.51v4.93h-3.51z"></path>
    <path d="m376.74 179a3.44 3.44 0 0 0 2.72.86 3.5 3.5 0 0 0 3.05-3.08 3.54 3.54 0 0 0 -.25-1.71 3.36 3.36 0 0 0 -1-1.31 1.33 1.33 0 0 1 -.47-1s0 0 0 0v-1.4a1.12 1.12 0 0 0 -1.11-1.12h-1.25a1.12 1.12 0 0 0 -1.12 1.12v1.39a1.35 1.35 0 0 1 -.45 1 3.51 3.51 0 0 0 -1.28 2.7 3.45 3.45 0 0 0 1.16 2.59z"></path>
    <path d="m379 181.26a4.82 4.82 0 0 1 -3.2-1.26 4.88 4.88 0 0 1 .16-7.42l-.06-1.3a2.54 2.54 0 0 1 2.53-2.53h1.25a2.53 2.53 0 0 1 2.52 2.54v1.39a4.33 4.33 0 0 1 1.36 1.8 4.94 4.94 0 0 1 .34 2.41 4.88 4.88 0 0 1 -4.28 4.31 4 4 0 0 1 -.62.06zm-1.36-3.34a2.07 2.07 0 0 0 3.44-1.31 2.11 2.11 0 0 0 -.15-1 1.93 1.93 0 0 0 -.57-.76 2.72 2.72 0 0 1 -1-2.08v-1.16h-.68v1.1a2.72 2.72 0 0 1 -.94 2.06 2.14 2.14 0 0 0 -.79 1.64 2 2 0 0 0 .68 1.54z"></path>
    <path d="m378.16 168.65h1.78v1.78h-1.78z"></path>
    <path d="m376.76 167.25h4.59v4.59h-4.59z"></path>
    <path d="m378.71 166.54h.69v2.12h-.69z"></path>
    <path d="m377.3 165.13h3.5v4.93h-3.5z"></path>
    <path d="m407.71 179a3.47 3.47 0 0 0 5.77-2.22 3.42 3.42 0 0 0 -.24-1.71 3.36 3.36 0 0 0 -1-1.31 1.33 1.33 0 0 1 -.47-1s0 0 0 0v-1.4a1.12 1.12 0 0 0 -1.12-1.12h-1.24a1.12 1.12 0 0 0 -1.12 1.12v1.39a1.35 1.35 0 0 1 -.45 1 3.48 3.48 0 0 0 -.12 5.29z"></path>
    <path d="m410 181.26a4.82 4.82 0 0 1 -3.23-1.23 4.88 4.88 0 0 1 .16-7.42l-.06-1.3a2.53 2.53 0 0 1 2.53-2.53h1.24a2.54 2.54 0 0 1 2.53 2.54v1.39a4.37 4.37 0 0 1 1.35 1.79 4.79 4.79 0 0 1 .35 2.4 4.89 4.89 0 0 1 -4.28 4.33 4 4 0 0 1 -.59.03zm-1.36-3.33a2.1 2.1 0 0 0 1.62.5 2.06 2.06 0 0 0 1.67-2.85 1.93 1.93 0 0 0 -.57-.76 2.72 2.72 0 0 1 -1-2.08v-1.16h-.67v1.11a2.75 2.75 0 0 1 -.94 2.05 2.15 2.15 0 0 0 -.8 1.64 2.11 2.11 0 0 0 .69 1.55z"></path>
    <path d="m409.14 168.65h1.78v1.78h-1.78z"></path>
    <path d="m407.74 167.25h4.59v4.59h-4.59z"></path>
    <path d="m409.68 166.54h.69v2.12h-.69z"></path>
    <path d="m408.28 165.13h3.5v4.93h-3.5z"></path>
    <path d="m438.69 179a3.47 3.47 0 0 0 5.77-2.22 3.42 3.42 0 0 0 -.24-1.71 3.45 3.45 0 0 0 -1-1.31 1.31 1.31 0 0 1 -.48-1v-1.46a1.12 1.12 0 0 0 -1.12-1.12h-1.24a1.12 1.12 0 0 0 -1.12 1.12v1.39a1.35 1.35 0 0 1 -.45 1 3.49 3.49 0 0 0 -.13 5.29z"></path>
    <path d="m441 181.26a4.81 4.81 0 0 1 -3.22-1.23 4.88 4.88 0 0 1 .16-7.42l-.06-1.3a2.53 2.53 0 0 1 2.52-2.53h1.25a2.54 2.54 0 0 1 2.53 2.54v1.39a4.36 4.36 0 0 1 1.35 1.8 4.87 4.87 0 0 1 -3.94 6.72 3.81 3.81 0 0 1 -.59.03zm-1.35-3.34a2.09 2.09 0 0 0 1.62.51 2.05 2.05 0 0 0 1.81-1.82 2.1 2.1 0 0 0 -.14-1 2 2 0 0 0 -.58-.77 2.72 2.72 0 0 1 -1-2.07v-1.16h-.68v1.11a2.74 2.74 0 0 1 -.93 2.05 2.12 2.12 0 0 0 -.8 1.64 2.05 2.05 0 0 0 .69 1.54z"></path>
    <path d="m440.12 168.65h1.78v1.78h-1.78z"></path>
    <path d="m438.72 167.25h4.58v4.59h-4.58z"></path>
    <path d="m440.66 166.54h.69v2.12h-.69z"></path>
    <path d="m439.26 165.13h3.51v4.93h-3.51z"></path>
    <path d="m469.67 179a3.47 3.47 0 0 0 5.77-2.22 3.42 3.42 0 0 0 -.24-1.71 3.45 3.45 0 0 0 -1-1.31 1.31 1.31 0 0 1 -.48-1v-1.46a1.12 1.12 0 0 0 -1.12-1.12h-1.25a1.12 1.12 0 0 0 -1.11 1.12v1.39a1.35 1.35 0 0 1 -.45 1 3.49 3.49 0 0 0 -.13 5.29z"></path>
    <path d="m472 181.26a4.82 4.82 0 0 1 -3.23-1.23 4.88 4.88 0 0 1 .16-7.42l-.06-1.3a2.53 2.53 0 0 1 2.53-2.53h1.24a2.54 2.54 0 0 1 2.53 2.54v1.39a4.31 4.31 0 0 1 1.35 1.8 4.83 4.83 0 0 1 .35 2.41 4.89 4.89 0 0 1 -4.28 4.31 4 4 0 0 1 -.59.03zm-1.36-3.34a2.07 2.07 0 0 0 3.43-1.31 2.1 2.1 0 0 0 -.14-1 1.87 1.87 0 0 0 -.58-.76 2.74 2.74 0 0 1 -1-2.08v-1.16h-.67v1.1a2.75 2.75 0 0 1 -.93 2.06 2.12 2.12 0 0 0 -.8 1.64 2.05 2.05 0 0 0 .69 1.54z"></path>
    <path d="m471.1 168.65h1.78v1.78h-1.78z"></path>
    <path d="m469.7 167.25h4.59v4.59h-4.59z"></path>
    <path d="m471.64 166.54h.69v2.12h-.69z"></path>
    <path d="m470.24 165.13h3.5v4.93h-3.5z"></path>
    <path d="m500.65 179a3.47 3.47 0 0 0 5.77-2.22 3.42 3.42 0 0 0 -.24-1.71 3.45 3.45 0 0 0 -1-1.31 1.31 1.31 0 0 1 -.48-1v-1.46a1.12 1.12 0 0 0 -1.12-1.12h-1.25a1.12 1.12 0 0 0 -1.12 1.12v1.39a1.33 1.33 0 0 1 -.46 1 3.48 3.48 0 0 0 -.12 5.29z"></path>
    <path d="m502.94 181.26a4.81 4.81 0 0 1 -3.22-1.23 4.89 4.89 0 0 1 .17-7.42l-.06-1.3a2.53 2.53 0 0 1 2.52-2.53h1.25a2.54 2.54 0 0 1 2.53 2.54v1.39a4.37 4.37 0 0 1 1.35 1.79 4.79 4.79 0 0 1 .35 2.4 4.89 4.89 0 0 1 -4.29 4.33 3.81 3.81 0 0 1 -.6.03zm-1.35-3.34a2.08 2.08 0 0 0 1.62.51 2.05 2.05 0 0 0 1.81-1.82 2.09 2.09 0 0 0 -.14-1 1.87 1.87 0 0 0 -.58-.76 2.74 2.74 0 0 1 -1-2.08v-1.16h-.67v1.11a2.74 2.74 0 0 1 -.93 2.05 2.12 2.12 0 0 0 -.8 1.64 2.05 2.05 0 0 0 .69 1.51z"></path>
    <path d="m502.08 168.65h1.78v1.78h-1.78z"></path>
    <path d="m500.67 167.25h4.59v4.59h-4.59z"></path>
    <path d="m502.62 166.54h.69v2.12h-.69z"></path>
    <path d="m501.22 165.13h3.5v4.93h-3.5z"></path>
    <path d="m455.74 230.14a13.38 13.38 0 1 1 1.26-26.67c5 .42 8.51 2.95 11.08 7.06.42.66.3 1.07-.41 1.36-1.52.61-3.05 1.19-4.56 1.81a1.22 1.22 0 0 1 -1.66-.57 6.61 6.61 0 0 0 -12.16 2.51 6.66 6.66 0 0 0 12.08 5c.76-1 .89-1.06 2.07-.6 1.38.55 2.76 1.08 4.14 1.64.83.33.94.69.47 1.44-2.82 4.54-6.85 7.03-12.31 7.02z"></path>
    <path d="m380.91 216.82v12c0 1.08-.24 1.33-1.33 1.33h-4.58c-1 0-1.29-.26-1.29-1.31v-24.1c0-1.1.23-1.31 1.34-1.31h4.69c.94 0 1.19.25 1.19 1.21z"></path>
    <path d="m438.6 211.25a13.81 13.81 0 1 1 -13.86-13.85 13.85 13.85 0 0 1 13.86 13.85zm-13.33-4.85-.43-.48a2.71 2.71 0 0 0 -4.67.81 3.81 3.81 0 0 0 0 2.8 1 1 0 0 1 -.3 1.2 5.76 5.76 0 0 0 -1.19 1.8 4.34 4.34 0 0 0 2 5.19c1.74 1 3.47.55 4.94-1.16a1.12 1.12 0 0 1 .81-.17 8.76 8.76 0 0 0 2.05.25 3.42 3.42 0 0 0 2.31-4.91 1.37 1.37 0 0 1 0-1.2 3.84 3.84 0 0 0 -.79-4.33 2.57 2.57 0 0 0 -2.78-.92 9.65 9.65 0 0 0 -1.95 1.12z"></path>
    <path d="m495.13 230.16h-2.8a1.71 1.71 0 0 1 -1.77-1.15c-.22-.56-.5-1.1-.74-1.65a1.53 1.53 0 0 0 -1.53-1c-2.44 0-4.89 0-7.33 0a1.48 1.48 0 0 0 -1.48 1c-.28.62-.59 1.23-.86 1.85a1.54 1.54 0 0 1 -1.54 1c-1.94 0-3.88 0-5.82 0-1 0-1.28-.48-.88-1.42q5.16-12.07 10.33-24.14a1.66 1.66 0 0 1 1.73-1.16h4.46a1.59 1.59 0 0 1 1.64 1.07q5.19 12.15 10.4 24.28c.39.89.12 1.34-.87 1.37s-1.96-.05-2.94-.05zm-10.49-9.31h2.11s.85-.34.62-.91q-1.14-2.82-2.33-5.64c-.07-.16-.3-.41-.38-.38a.78.78 0 0 0 -.46.41q-1.18 2.77-2.31 5.56c-.23.58 0 .94.64 1s1.41-.04 2.11-.04z"></path>
    <path d="m385.11 216.77v-12c0-1.11.21-1.31 1.33-1.31h10.66a10 10 0 0 1 8.84 14.6c-1.4 2.88-4 4.29-7.05 4.72a48.57 48.57 0 0 1 -5.27.2c-1 0-1.3.27-1.31 1.3v4.77c0 .89-.28 1.16-1.19 1.16h-4.84c-.9 0-1.17-.28-1.17-1.17zm10.28-.59a14.39 14.39 0 0 0 2.18 0 2.65 2.65 0 0 0 1.44-.7 3 3 0 0 0 .53-3.38 2.79 2.79 0 0 0 -2.62-1.84c-1.2 0-2.41 0-3.62 0a.86.86 0 0 0 -1 .92v4.15a.87.87 0 0 0 1 .94z"></path>
    <path d="m348.07 204.18a1.27 1.27 0 0 1 1.32-.76h10.89a9.86 9.86 0 0 1 9.77 9.71c.09 6.1-4 9.42-9.39 9.78-1.33.09-2.67 0-4 0-1 0-1.31.28-1.32 1.29v4.77c0 .88-.28 1.16-1.17 1.17-1.59 0-3.18 0-4.76 0a1.29 1.29 0 0 1 -1.34-.76zm10.32 12v-.05a13.08 13.08 0 0 0 2.26 0 2.61 2.61 0 0 0 1.47-.78 3 3 0 0 0 .45-3.33 2.81 2.81 0 0 0 -2.65-1.81c-1.18 0-2.37 0-3.55 0a.92.92 0 0 0 -1 1v3.93c0 .74.32 1 1.08 1.05s1.29 0 1.94 0z"></path>
    <path d="m523.24 167.29h-420a1.4 1.4 0 0 1 -1.4-1.4v-24.77a1.41 1.41 0 0 1 1.4-1.41h420a1.41 1.41 0 0 1 1.4 1.41v24.77a1.4 1.4 0 0 1 -1.4 1.4zm-418.59-2.81h417.18v-21.95h-417.18z"></path>
    <path d="m436.48 324.64h-141.79a1.41 1.41 0 0 1 -1.4-1.41v-9.81a1.4 1.4 0 0 1 1.4-1.4h141.79a1.4 1.4 0 0 1 1.4 1.4v9.81a1.41 1.41 0 0 1 -1.4 1.41zm-140.38-2.81h139v-7h-139z"></path>
    <path d="m284 324.64h-141.76a1.41 1.41 0 0 1 -1.41-1.41v-9.81a1.41 1.41 0 0 1 1.41-1.4h141.76a1.41 1.41 0 0 1 1.41 1.4v9.81a1.41 1.41 0 0 1 -1.41 1.41zm-140.37-2.81h139v-7h-139z"></path>
    <path d="m513.16 331.71h-65.9a1.41 1.41 0 0 1 -1.41-1.41v-16.88a1.41 1.41 0 0 1 1.41-1.4h65.9a1.41 1.41 0 0 1 1.41 1.4v16.88a1.41 1.41 0 0 1 -1.41 1.41zm-64.5-2.82h63.1v-14.06h-63.1z"></path>
    <path d="m513.16 414.24h-65.9a1.41 1.41 0 0 1 -1.41-1.41v-16.83a1.41 1.41 0 0 1 1.41-1.4h65.9a1.41 1.41 0 0 1 1.41 1.4v16.88a1.41 1.41 0 0 1 -1.41 1.36zm-64.5-2.81h63.1v-14.07h-63.1z"></path>
    <path d="m111.89 251.43h-8.65a1.41 1.41 0 0 1 -1.4-1.41v-84.13a1.41 1.41 0 0 1 1.4-1.41h8.65a1.41 1.41 0 0 1 1.41 1.41v84.11a1.41 1.41 0 0 1 -1.41 1.43zm-7.24-2.82h5.83v-81.32h-5.83z"></path>
    <path d="m141.93 251.43h-8.64a1.41 1.41 0 0 1 -1.41-1.41v-84.13a1.41 1.41 0 0 1 1.41-1.41h8.64a1.41 1.41 0 0 1 1.41 1.41v84.11a1.41 1.41 0 0 1 -1.41 1.43zm-7.24-2.82h5.84v-81.32h-5.84z"></path>
    <path d="m141.93 491.17h-24.78a1.43 1.43 0 0 1 -1.09-.51 1.42 1.42 0 0 1 -.29-1.17l7.35-36.88h-3.63a1.44 1.44 0 0 1 -.87-.29l-2.1-1.64a1.39 1.39 0 0 1 -.45-1.6 21 21 0 0 1 1.81-3.72c.53-.84 1.12-1.65 1.71-2.45a24.22 24.22 0 0 0 2.27-3.5c1.8-3.6 1.66-7.81 1-12.5a1.42 1.42 0 0 1 -1.59 0 1.4 1.4 0 0 1 -.57-1.49 29.63 29.63 0 0 0 .64-4 80.59 80.59 0 0 0 .2-13.72l-.19-2.39c-.2-2.46-.41-5-.38-7.39a43.33 43.33 0 0 0 -1 9.29c0 1.17-.07 2.33-.14 3.49a33.26 33.26 0 0 1 -.85 6 1.39 1.39 0 0 1 -1.26 1.06 1.35 1.35 0 0 1 -1.4-.86c-1.69-4-3.85-12.61-3.41-16.93a38.71 38.71 0 0 1 .85-4.68c.21-.94.42-1.89.59-2.83.87-5.08.35-10.16-.36-15.48a72.75 72.75 0 0 1 -.74 12.3 77.7 77.7 0 0 1 -1.85 7.72c-1.24 4.34-2.4 8.43-2.23 12.64a1.41 1.41 0 0 1 -2.72.55 62.8 62.8 0 0 1 -3-9.19 32 32 0 0 1 -.37-11.57h-.19a1.4 1.4 0 0 1 -1.06-1.36v-128.42a1.41 1.41 0 0 1 1.4-1.41h38.69a1.41 1.41 0 0 1 1.41 1.41v230.11a1.41 1.41 0 0 1 -1.4 1.41zm-23.07-2.81h21.67v-227.31h-35.88v122.34l.1-.12a1.41 1.41 0 0 1 2.39 1.38 29.25 29.25 0 0 0 -.94 15.71c.21.93.45 1.86.73 2.77.45-2.36 1.11-4.67 1.77-6.94a75.47 75.47 0 0 0 1.84-7.44 71 71 0 0 0 .69-12.12c0-5.3 0-10.79 1.55-16a1.45 1.45 0 0 1 1.58-1 1.41 1.41 0 0 1 1.17 1.45 76.68 76.68 0 0 0 1 13.59c.82 6 1.66 12.14.61 18.25-.17 1-.39 2-.62 3a38.68 38.68 0 0 0 -.8 4.34c-.21 2.15.42 6.11 1.35 9.78 0-1 .08-1.92.11-2.88.14-4.23.28-8.61 2-12.67a35.14 35.14 0 0 1 4.73-7.48 1.41 1.41 0 0 1 2.29 1.63c-3 4.57-2.53 10.62-2 16.48l.19 2.42a83.13 83.13 0 0 1 -.2 14.2c0 .49-.1.95-.16 1.39a1.55 1.55 0 0 1 .56.11 1.42 1.42 0 0 1 .82 1.09c.9 6.07 1.44 11.5-1 16.4a27.72 27.72 0 0 1 -2.52 3.9c-.55.75-1.1 1.5-1.59 2.28a18.5 18.5 0 0 0 -1.18 2.26l.88.69h4.86a1.42 1.42 0 0 1 1.39 1.68z"></path>
    <path d="m446.84 491.17h-10.17a1.41 1.41 0 0 1 -1.41-1.41v-15.17l4.35-22h-2.94a1.41 1.41 0 0 1 -1.41-1.4v-6.72a1.43 1.43 0 0 1 .26-.82l.57-.78a24 24 0 0 0 2.26-3.48c1.8-3.6 1.66-7.81 1-12.5a1.4 1.4 0 0 1 -2.16-1.49 28.88 28.88 0 0 0 .64-4 80.59 80.59 0 0 0 .2-13.72l-.19-2.39a68.73 68.73 0 0 1 -.35-8.46 1.42 1.42 0 0 1 -1 .29 1.33 1.33 0 0 1 -1.23-1.26v-121a1.41 1.41 0 0 1 1.41-1.4h10.17a1.4 1.4 0 0 1 1.4 1.4v214.9a1.41 1.41 0 0 1 -1.4 1.41zm-8.77-2.81h7.36v-212.13h-7.36v113.91c.75-1.1 1.55-2.15 2.34-3.19a1.41 1.41 0 0 1 2.29 1.63c-3 4.57-2.52 10.62-2 16.48l.19 2.42a83.13 83.13 0 0 1 -.2 14.2c0 .49-.1.95-.16 1.39a1.55 1.55 0 0 1 .56.11 1.42 1.42 0 0 1 .82 1.09c.9 6.07 1.44 11.5-1 16.4a28.31 28.31 0 0 1 -2.5 3.88l-.3.4v4.85h3.26a1.41 1.41 0 0 1 1.38 1.68l-4.66 23.38z"></path>
    <g clip-path="url(#a)">
      <g clip-path="url(#b)">
        <path d="m539.28 268.62a1.35 1.35 0 1 0 -1.35-1.35 1.35 1.35 0 0 0 1.35 1.35z"></path>
        <path d="m525.78 268.62a1.35 1.35 0 1 0 -1.35-1.35 1.35 1.35 0 0 0 1.35 1.35z"></path>
        <path d="m539.28 255.12a1.35 1.35 0 1 0 -1.35-1.35 1.35 1.35 0 0 0 1.35 1.35z"></path>
        <path d="m525.78 255.12a1.35 1.35 0 1 0 -1.35-1.35 1.35 1.35 0 0 0 1.35 1.35z"></path>
        <path d="m519 261.87a1.35 1.35 0 1 0 -1.35-1.35 1.35 1.35 0 0 0 1.35 1.35z"></path>
        <path d="m532.53 261.87a1.35 1.35 0 1 0 -1.35-1.35 1.35 1.35 0 0 0 1.35 1.35z"></path>
        <path d="m519 248.37a1.35 1.35 0 1 0 -1.35-1.35 1.35 1.35 0 0 0 1.35 1.35z"></path>
        <path d="m532.53 248.37a1.35 1.35 0 1 0 -1.35-1.35 1.35 1.35 0 0 0 1.35 1.35z"></path>
        <path d="m512.28 268.62a1.35 1.35 0 1 0 -1.35-1.35 1.35 1.35 0 0 0 1.35 1.35z"></path>
        <path d="m512.28 255.12a1.35 1.35 0 1 0 -1.35-1.35 1.35 1.35 0 0 0 1.35 1.35z"></path>
        <path d="m539.28 241.62a1.35 1.35 0 1 0 -1.35-1.35 1.35 1.35 0 0 0 1.35 1.35z"></path>
        <path d="m525.78 241.62a1.35 1.35 0 1 0 -1.35-1.35 1.35 1.35 0 0 0 1.35 1.35z"></path>
        <path d="m512.28 241.62a1.35 1.35 0 1 0 -1.35-1.35 1.35 1.35 0 0 0 1.35 1.35z"></path>
      </g>
      <g clip-path="url(#c)">
        <path d="m539.28 295.62a1.35 1.35 0 1 0 -1.35-1.35 1.35 1.35 0 0 0 1.35 1.35z"></path>
        <path d="m525.78 295.62a1.35 1.35 0 1 0 -1.35-1.35 1.35 1.35 0 0 0 1.35 1.35z"></path>
        <path d="m539.28 282.12a1.35 1.35 0 1 0 -1.35-1.35 1.35 1.35 0 0 0 1.35 1.35z"></path>
        <path d="m525.78 282.12a1.35 1.35 0 1 0 -1.35-1.35 1.35 1.35 0 0 0 1.35 1.35z"></path>
        <path d="m519 288.87a1.35 1.35 0 1 0 -1.35-1.35 1.35 1.35 0 0 0 1.35 1.35z"></path>
        <path d="m532.53 288.87a1.35 1.35 0 1 0 -1.35-1.35 1.35 1.35 0 0 0 1.35 1.35z"></path>
        <path d="m519 275.37a1.35 1.35 0 1 0 -1.35-1.35 1.35 1.35 0 0 0 1.35 1.35z"></path>
        <path d="m532.53 275.37a1.35 1.35 0 1 0 -1.35-1.35 1.35 1.35 0 0 0 1.35 1.35z"></path>
        <path d="m512.28 295.62a1.35 1.35 0 1 0 -1.35-1.35 1.35 1.35 0 0 0 1.35 1.35z"></path>
        <path d="m512.28 282.12a1.35 1.35 0 1 0 -1.35-1.35 1.35 1.35 0 0 0 1.35 1.35z"></path>
        <path d="m539.28 268.62a1.35 1.35 0 1 0 -1.35-1.35 1.35 1.35 0 0 0 1.35 1.35z"></path>
        <path d="m525.78 268.62a1.35 1.35 0 1 0 -1.35-1.35 1.35 1.35 0 0 0 1.35 1.35z"></path>
        <path d="m512.28 268.62a1.35 1.35 0 1 0 -1.35-1.35 1.35 1.35 0 0 0 1.35 1.35z"></path>
      </g>
      <g clip-path="url(#d)">
        <path d="m512.28 268.62a1.35 1.35 0 1 0 -1.35-1.35 1.35 1.35 0 0 0 1.35 1.35z"></path>
        <path d="m498.78 268.62a1.35 1.35 0 1 0 -1.35-1.35 1.35 1.35 0 0 0 1.35 1.35z"></path>
        <path d="m512.28 255.12a1.35 1.35 0 1 0 -1.35-1.35 1.35 1.35 0 0 0 1.35 1.35z"></path>
        <path d="m498.78 255.12a1.35 1.35 0 1 0 -1.35-1.35 1.35 1.35 0 0 0 1.35 1.35z"></path>
        <path d="m492 261.87a1.35 1.35 0 1 0 -1.35-1.35 1.35 1.35 0 0 0 1.35 1.35z"></path>
        <path d="m505.53 261.87a1.35 1.35 0 1 0 -1.35-1.35 1.35 1.35 0 0 0 1.35 1.35z"></path>
        <path d="m492 248.37a1.35 1.35 0 1 0 -1.35-1.35 1.35 1.35 0 0 0 1.35 1.35z"></path>
        <path d="m505.53 248.37a1.35 1.35 0 1 0 -1.35-1.35 1.35 1.35 0 0 0 1.35 1.35z"></path>
        <path d="m485.28 268.62a1.35 1.35 0 1 0 -1.35-1.35 1.35 1.35 0 0 0 1.35 1.35z"></path>
        <path d="m485.28 255.12a1.35 1.35 0 1 0 -1.35-1.35 1.35 1.35 0 0 0 1.35 1.35z"></path>
        <path d="m512.28 241.62a1.35 1.35 0 1 0 -1.35-1.35 1.35 1.35 0 0 0 1.35 1.35z"></path>
        <path d="m498.78 241.62a1.35 1.35 0 1 0 -1.35-1.35 1.35 1.35 0 0 0 1.35 1.35z"></path>
        <path d="m485.28 241.62a1.35 1.35 0 1 0 -1.35-1.35 1.35 1.35 0 0 0 1.35 1.35z"></path>
      </g>
      <g clip-path="url(#e)">
        <path d="m512.28 295.62a1.35 1.35 0 1 0 -1.35-1.35 1.35 1.35 0 0 0 1.35 1.35z"></path>
        <path d="m498.78 295.62a1.35 1.35 0 1 0 -1.35-1.35 1.35 1.35 0 0 0 1.35 1.35z"></path>
        <path d="m512.28 282.12a1.35 1.35 0 1 0 -1.35-1.35 1.35 1.35 0 0 0 1.35 1.35z"></path>
        <path d="m498.78 282.12a1.35 1.35 0 1 0 -1.35-1.35 1.35 1.35 0 0 0 1.35 1.35z"></path>
        <path d="m492 288.87a1.35 1.35 0 1 0 -1.35-1.35 1.35 1.35 0 0 0 1.35 1.35z"></path>
        <path d="m505.53 288.87a1.35 1.35 0 1 0 -1.35-1.35 1.35 1.35 0 0 0 1.35 1.35z"></path>
        <path d="m492 275.37a1.35 1.35 0 1 0 -1.35-1.35 1.35 1.35 0 0 0 1.35 1.35z"></path>
        <path d="m505.53 275.37a1.35 1.35 0 1 0 -1.35-1.35 1.35 1.35 0 0 0 1.35 1.35z"></path>
        <path d="m485.28 295.62a1.35 1.35 0 1 0 -1.35-1.35 1.35 1.35 0 0 0 1.35 1.35z"></path>
        <path d="m485.28 282.12a1.35 1.35 0 1 0 -1.35-1.35 1.35 1.35 0 0 0 1.35 1.35z"></path>
        <path d="m512.28 268.62a1.35 1.35 0 1 0 -1.35-1.35 1.35 1.35 0 0 0 1.35 1.35z"></path>
        <path d="m498.78 268.62a1.35 1.35 0 1 0 -1.35-1.35 1.35 1.35 0 0 0 1.35 1.35z"></path>
        <path d="m485.28 268.62a1.35 1.35 0 1 0 -1.35-1.35 1.35 1.35 0 0 0 1.35 1.35z"></path>
      </g>
      <g clip-path="url(#f)">
        <path d="m485.28 268.62a1.35 1.35 0 1 0 -1.35-1.35 1.35 1.35 0 0 0 1.35 1.35z"></path>
        <path d="m471.78 268.62a1.35 1.35 0 1 0 -1.35-1.35 1.35 1.35 0 0 0 1.35 1.35z"></path>
        <path d="m485.28 255.12a1.35 1.35 0 1 0 -1.35-1.35 1.35 1.35 0 0 0 1.35 1.35z"></path>
        <path d="m471.78 255.12a1.35 1.35 0 1 0 -1.35-1.35 1.35 1.35 0 0 0 1.35 1.35z"></path>
        <path d="m465 261.87a1.35 1.35 0 1 0 -1.35-1.35 1.35 1.35 0 0 0 1.35 1.35z"></path>
        <path d="m478.53 261.87a1.35 1.35 0 1 0 -1.35-1.35 1.35 1.35 0 0 0 1.35 1.35z"></path>
        <path d="m465 248.37a1.35 1.35 0 1 0 -1.35-1.35 1.35 1.35 0 0 0 1.35 1.35z"></path>
        <path d="m478.53 248.37a1.35 1.35 0 1 0 -1.35-1.35 1.35 1.35 0 0 0 1.35 1.35z"></path>
        <path d="m458.28 268.62a1.35 1.35 0 1 0 -1.35-1.35 1.35 1.35 0 0 0 1.35 1.35z"></path>
        <path d="m458.28 255.12a1.35 1.35 0 1 0 -1.35-1.35 1.35 1.35 0 0 0 1.35 1.35z"></path>
        <path d="m485.28 241.62a1.35 1.35 0 1 0 -1.35-1.35 1.35 1.35 0 0 0 1.35 1.35z"></path>
        <path d="m471.78 241.62a1.35 1.35 0 1 0 -1.35-1.35 1.35 1.35 0 0 0 1.35 1.35z"></path>
        <path d="m458.28 241.62a1.35 1.35 0 1 0 -1.35-1.35 1.35 1.35 0 0 0 1.35 1.35z"></path>
      </g>
      <g clip-path="url(#g)">
        <path d="m485.28 295.62a1.35 1.35 0 1 0 -1.35-1.35 1.35 1.35 0 0 0 1.35 1.35z"></path>
        <path d="m471.78 295.62a1.35 1.35 0 1 0 -1.35-1.35 1.35 1.35 0 0 0 1.35 1.35z"></path>
        <path d="m485.28 282.12a1.35 1.35 0 1 0 -1.35-1.35 1.35 1.35 0 0 0 1.35 1.35z"></path>
        <path d="m471.78 282.12a1.35 1.35 0 1 0 -1.35-1.35 1.35 1.35 0 0 0 1.35 1.35z"></path>
        <path d="m465 288.87a1.35 1.35 0 1 0 -1.35-1.35 1.35 1.35 0 0 0 1.35 1.35z"></path>
        <path d="m478.53 288.87a1.35 1.35 0 1 0 -1.35-1.35 1.35 1.35 0 0 0 1.35 1.35z"></path>
        <path d="m465 275.37a1.35 1.35 0 1 0 -1.35-1.35 1.35 1.35 0 0 0 1.35 1.35z"></path>
        <path d="m478.53 275.37a1.35 1.35 0 1 0 -1.35-1.35 1.35 1.35 0 0 0 1.35 1.35z"></path>
        <path d="m458.28 295.62a1.35 1.35 0 1 0 -1.35-1.35 1.35 1.35 0 0 0 1.35 1.35z"></path>
        <path d="m458.28 282.12a1.35 1.35 0 1 0 -1.35-1.35 1.35 1.35 0 0 0 1.35 1.35z"></path>
        <path d="m485.28 268.62a1.35 1.35 0 1 0 -1.35-1.35 1.35 1.35 0 0 0 1.35 1.35z"></path>
        <path d="m471.78 268.62a1.35 1.35 0 1 0 -1.35-1.35 1.35 1.35 0 0 0 1.35 1.35z"></path>
        <path d="m458.28 268.62a1.35 1.35 0 1 0 -1.35-1.35 1.35 1.35 0 0 0 1.35 1.35z"></path>
      </g>
      <g clip-path="url(#h)">
        <path d="m458.28 268.62a1.35 1.35 0 1 0 -1.35-1.35 1.35 1.35 0 0 0 1.35 1.35z"></path>
        <path d="m444.78 268.62a1.35 1.35 0 1 0 -1.35-1.35 1.35 1.35 0 0 0 1.35 1.35z"></path>
        <path d="m458.28 255.12a1.35 1.35 0 1 0 -1.35-1.35 1.35 1.35 0 0 0 1.35 1.35z"></path>
        <path d="m444.78 255.12a1.35 1.35 0 1 0 -1.35-1.35 1.35 1.35 0 0 0 1.35 1.35z"></path>
        <path d="m438 261.87a1.35 1.35 0 1 0 -1.35-1.35 1.35 1.35 0 0 0 1.35 1.35z"></path>
        <path d="m451.53 261.87a1.35 1.35 0 1 0 -1.35-1.35 1.35 1.35 0 0 0 1.35 1.35z"></path>
        <path d="m438 248.37a1.35 1.35 0 1 0 -1.35-1.35 1.35 1.35 0 0 0 1.35 1.35z"></path>
        <path d="m451.53 248.37a1.35 1.35 0 1 0 -1.35-1.35 1.35 1.35 0 0 0 1.35 1.35z"></path>
        <path d="m431.28 268.62a1.35 1.35 0 1 0 -1.35-1.35 1.35 1.35 0 0 0 1.35 1.35z"></path>
        <path d="m431.28 255.12a1.35 1.35 0 1 0 -1.35-1.35 1.35 1.35 0 0 0 1.35 1.35z"></path>
        <path d="m458.28 241.62a1.35 1.35 0 1 0 -1.35-1.35 1.35 1.35 0 0 0 1.35 1.35z"></path>
        <path d="m444.78 241.62a1.35 1.35 0 1 0 -1.35-1.35 1.35 1.35 0 0 0 1.35 1.35z"></path>
        <path d="m431.28 241.62a1.35 1.35 0 1 0 -1.35-1.35 1.35 1.35 0 0 0 1.35 1.35z"></path>
      </g>
      <g clip-path="url(#i)">
        <path d="m458.28 295.62a1.35 1.35 0 1 0 -1.35-1.35 1.35 1.35 0 0 0 1.35 1.35z"></path>
        <path d="m444.78 295.62a1.35 1.35 0 1 0 -1.35-1.35 1.35 1.35 0 0 0 1.35 1.35z"></path>
        <path d="m458.28 282.12a1.35 1.35 0 1 0 -1.35-1.35 1.35 1.35 0 0 0 1.35 1.35z"></path>
        <path d="m444.78 282.12a1.35 1.35 0 1 0 -1.35-1.35 1.35 1.35 0 0 0 1.35 1.35z"></path>
        <path d="m438 288.87a1.35 1.35 0 1 0 -1.35-1.35 1.35 1.35 0 0 0 1.35 1.35z"></path>
        <path d="m451.53 288.87a1.35 1.35 0 1 0 -1.35-1.35 1.35 1.35 0 0 0 1.35 1.35z"></path>
        <path d="m438 275.37a1.35 1.35 0 1 0 -1.35-1.35 1.35 1.35 0 0 0 1.35 1.35z"></path>
        <path d="m451.53 275.37a1.35 1.35 0 1 0 -1.35-1.35 1.35 1.35 0 0 0 1.35 1.35z"></path>
        <path d="m431.28 295.62a1.35 1.35 0 1 0 -1.35-1.35 1.35 1.35 0 0 0 1.35 1.35z"></path>
        <path d="m431.28 282.12a1.35 1.35 0 1 0 -1.35-1.35 1.35 1.35 0 0 0 1.35 1.35z"></path>
        <path d="m458.28 268.62a1.35 1.35 0 1 0 -1.35-1.35 1.35 1.35 0 0 0 1.35 1.35z"></path>
        <path d="m444.78 268.62a1.35 1.35 0 1 0 -1.35-1.35 1.35 1.35 0 0 0 1.35 1.35z"></path>
        <path d="m431.28 268.62a1.35 1.35 0 1 0 -1.35-1.35 1.35 1.35 0 0 0 1.35 1.35z"></path>
      </g>
      <g clip-path="url(#j)">
        <path d="m431.28 268.62a1.35 1.35 0 1 0 -1.35-1.35 1.35 1.35 0 0 0 1.35 1.35z"></path>
        <path d="m417.78 268.62a1.35 1.35 0 1 0 -1.35-1.35 1.35 1.35 0 0 0 1.35 1.35z"></path>
        <path d="m431.28 255.12a1.35 1.35 0 1 0 -1.35-1.35 1.35 1.35 0 0 0 1.35 1.35z"></path>
        <path d="m417.78 255.12a1.35 1.35 0 1 0 -1.35-1.35 1.35 1.35 0 0 0 1.35 1.35z"></path>
        <path d="m411 261.87a1.35 1.35 0 1 0 -1.35-1.35 1.35 1.35 0 0 0 1.35 1.35z"></path>
        <path d="m424.53 261.87a1.35 1.35 0 1 0 -1.35-1.35 1.35 1.35 0 0 0 1.35 1.35z"></path>
        <path d="m411 248.37a1.35 1.35 0 1 0 -1.35-1.35 1.35 1.35 0 0 0 1.35 1.35z"></path>
        <path d="m424.53 248.37a1.35 1.35 0 1 0 -1.35-1.35 1.35 1.35 0 0 0 1.35 1.35z"></path>
        <path d="m404.28 268.62a1.35 1.35 0 1 0 -1.35-1.35 1.35 1.35 0 0 0 1.35 1.35z"></path>
        <path d="m404.28 255.12a1.35 1.35 0 1 0 -1.35-1.35 1.35 1.35 0 0 0 1.35 1.35z"></path>
        <path d="m431.28 241.62a1.35 1.35 0 1 0 -1.35-1.35 1.35 1.35 0 0 0 1.35 1.35z"></path>
        <path d="m417.78 241.62a1.35 1.35 0 1 0 -1.35-1.35 1.35 1.35 0 0 0 1.35 1.35z"></path>
        <path d="m404.28 241.62a1.35 1.35 0 1 0 -1.35-1.35 1.35 1.35 0 0 0 1.35 1.35z"></path>
      </g>
      <g clip-path="url(#k)">
        <path d="m431.28 295.62a1.35 1.35 0 1 0 -1.35-1.35 1.35 1.35 0 0 0 1.35 1.35z"></path>
        <path d="m417.78 295.62a1.35 1.35 0 1 0 -1.35-1.35 1.35 1.35 0 0 0 1.35 1.35z"></path>
        <path d="m431.28 282.12a1.35 1.35 0 1 0 -1.35-1.35 1.35 1.35 0 0 0 1.35 1.35z"></path>
        <path d="m417.78 282.12a1.35 1.35 0 1 0 -1.35-1.35 1.35 1.35 0 0 0 1.35 1.35z"></path>
        <path d="m411 288.87a1.35 1.35 0 1 0 -1.35-1.35 1.35 1.35 0 0 0 1.35 1.35z"></path>
        <path d="m424.53 288.87a1.35 1.35 0 1 0 -1.35-1.35 1.35 1.35 0 0 0 1.35 1.35z"></path>
        <path d="m411 275.37a1.35 1.35 0 1 0 -1.35-1.35 1.35 1.35 0 0 0 1.35 1.35z"></path>
        <path d="m424.53 275.37a1.35 1.35 0 1 0 -1.35-1.35 1.35 1.35 0 0 0 1.35 1.35z"></path>
        <path d="m404.28 295.62a1.35 1.35 0 1 0 -1.35-1.35 1.35 1.35 0 0 0 1.35 1.35z"></path>
        <path d="m404.28 282.12a1.35 1.35 0 1 0 -1.35-1.35 1.35 1.35 0 0 0 1.35 1.35z"></path>
        <path d="m431.28 268.62a1.35 1.35 0 1 0 -1.35-1.35 1.35 1.35 0 0 0 1.35 1.35z"></path>
        <path d="m417.78 268.62a1.35 1.35 0 1 0 -1.35-1.35 1.35 1.35 0 0 0 1.35 1.35z"></path>
        <path d="m404.28 268.62a1.35 1.35 0 1 0 -1.35-1.35 1.35 1.35 0 0 0 1.35 1.35z"></path>
      </g>
      <g clip-path="url(#l)">
        <path d="m404.28 268.62a1.35 1.35 0 1 0 -1.35-1.35 1.35 1.35 0 0 0 1.35 1.35z"></path>
        <path d="m390.78 268.62a1.35 1.35 0 1 0 -1.35-1.35 1.35 1.35 0 0 0 1.35 1.35z"></path>
        <path d="m404.28 255.12a1.35 1.35 0 1 0 -1.35-1.35 1.35 1.35 0 0 0 1.35 1.35z"></path>
        <path d="m390.78 255.12a1.35 1.35 0 1 0 -1.35-1.35 1.35 1.35 0 0 0 1.35 1.35z"></path>
        <path d="m384 261.87a1.35 1.35 0 1 0 -1.35-1.35 1.35 1.35 0 0 0 1.35 1.35z"></path>
        <path d="m397.53 261.87a1.35 1.35 0 1 0 -1.35-1.35 1.35 1.35 0 0 0 1.35 1.35z"></path>
        <path d="m384 248.37a1.35 1.35 0 1 0 -1.35-1.35 1.35 1.35 0 0 0 1.35 1.35z"></path>
        <path d="m397.53 248.37a1.35 1.35 0 1 0 -1.35-1.35 1.35 1.35 0 0 0 1.35 1.35z"></path>
        <path d="m377.28 268.62a1.35 1.35 0 1 0 -1.35-1.35 1.35 1.35 0 0 0 1.35 1.35z"></path>
        <path d="m377.28 255.12a1.35 1.35 0 1 0 -1.35-1.35 1.35 1.35 0 0 0 1.35 1.35z"></path>
        <path d="m404.28 241.62a1.35 1.35 0 1 0 -1.35-1.35 1.35 1.35 0 0 0 1.35 1.35z"></path>
        <path d="m390.78 241.62a1.35 1.35 0 1 0 -1.35-1.35 1.35 1.35 0 0 0 1.35 1.35z"></path>
        <path d="m377.28 241.62a1.35 1.35 0 1 0 -1.35-1.35 1.35 1.35 0 0 0 1.35 1.35z"></path>
      </g>
      <g clip-path="url(#m)">
        <path d="m404.28 295.62a1.35 1.35 0 1 0 -1.35-1.35 1.35 1.35 0 0 0 1.35 1.35z"></path>
        <path d="m390.78 295.62a1.35 1.35 0 1 0 -1.35-1.35 1.35 1.35 0 0 0 1.35 1.35z"></path>
        <path d="m404.28 282.12a1.35 1.35 0 1 0 -1.35-1.35 1.35 1.35 0 0 0 1.35 1.35z"></path>
        <path d="m390.78 282.12a1.35 1.35 0 1 0 -1.35-1.35 1.35 1.35 0 0 0 1.35 1.35z"></path>
        <path d="m384 288.87a1.35 1.35 0 1 0 -1.35-1.35 1.35 1.35 0 0 0 1.35 1.35z"></path>
        <path d="m397.53 288.87a1.35 1.35 0 1 0 -1.35-1.35 1.35 1.35 0 0 0 1.35 1.35z"></path>
        <path d="m384 275.37a1.35 1.35 0 1 0 -1.35-1.35 1.35 1.35 0 0 0 1.35 1.35z"></path>
        <path d="m397.53 275.37a1.35 1.35 0 1 0 -1.35-1.35 1.35 1.35 0 0 0 1.35 1.35z"></path>
        <path d="m377.28 295.62a1.35 1.35 0 1 0 -1.35-1.35 1.35 1.35 0 0 0 1.35 1.35z"></path>
        <path d="m377.28 282.12a1.35 1.35 0 1 0 -1.35-1.35 1.35 1.35 0 0 0 1.35 1.35z"></path>
        <path d="m404.28 268.62a1.35 1.35 0 1 0 -1.35-1.35 1.35 1.35 0 0 0 1.35 1.35z"></path>
        <path d="m390.78 268.62a1.35 1.35 0 1 0 -1.35-1.35 1.35 1.35 0 0 0 1.35 1.35z"></path>
        <path d="m377.28 268.62a1.35 1.35 0 1 0 -1.35-1.35 1.35 1.35 0 0 0 1.35 1.35z"></path>
      </g>
      <g clip-path="url(#n)">
        <path d="m377.28 268.62a1.35 1.35 0 1 0 -1.35-1.35 1.35 1.35 0 0 0 1.35 1.35z"></path>
        <path d="m363.78 268.62a1.35 1.35 0 1 0 -1.35-1.35 1.35 1.35 0 0 0 1.35 1.35z"></path>
        <path d="m377.28 255.12a1.35 1.35 0 1 0 -1.35-1.35 1.35 1.35 0 0 0 1.35 1.35z"></path>
        <path d="m363.78 255.12a1.35 1.35 0 1 0 -1.35-1.35 1.35 1.35 0 0 0 1.35 1.35z"></path>
        <path d="m357 261.87a1.35 1.35 0 1 0 -1.35-1.35 1.35 1.35 0 0 0 1.35 1.35z"></path>
        <path d="m370.53 261.87a1.35 1.35 0 1 0 -1.35-1.35 1.35 1.35 0 0 0 1.35 1.35z"></path>
        <path d="m357 248.37a1.35 1.35 0 1 0 -1.35-1.35 1.35 1.35 0 0 0 1.35 1.35z"></path>
        <path d="m370.53 248.37a1.35 1.35 0 1 0 -1.35-1.35 1.35 1.35 0 0 0 1.35 1.35z"></path>
        <path d="m350.28 268.62a1.35 1.35 0 1 0 -1.35-1.35 1.34 1.34 0 0 0 1.35 1.35z"></path>
        <path d="m350.28 255.12a1.35 1.35 0 1 0 -1.35-1.35 1.34 1.34 0 0 0 1.35 1.35z"></path>
        <path d="m377.28 241.62a1.35 1.35 0 1 0 -1.35-1.35 1.35 1.35 0 0 0 1.35 1.35z"></path>
        <path d="m363.78 241.62a1.35 1.35 0 1 0 -1.35-1.35 1.35 1.35 0 0 0 1.35 1.35z"></path>
        <path d="m350.28 241.62a1.35 1.35 0 1 0 -1.35-1.35 1.34 1.34 0 0 0 1.35 1.35z"></path>
      </g>
      <g clip-path="url(#o)">
        <path d="m377.28 295.62a1.35 1.35 0 1 0 -1.35-1.35 1.35 1.35 0 0 0 1.35 1.35z"></path>
        <path d="m363.78 295.62a1.35 1.35 0 1 0 -1.35-1.35 1.35 1.35 0 0 0 1.35 1.35z"></path>
        <path d="m377.28 282.12a1.35 1.35 0 1 0 -1.35-1.35 1.35 1.35 0 0 0 1.35 1.35z"></path>
        <path d="m363.78 282.12a1.35 1.35 0 1 0 -1.35-1.35 1.35 1.35 0 0 0 1.35 1.35z"></path>
        <path d="m357 288.87a1.35 1.35 0 1 0 -1.35-1.35 1.35 1.35 0 0 0 1.35 1.35z"></path>
        <path d="m370.53 288.87a1.35 1.35 0 1 0 -1.35-1.35 1.35 1.35 0 0 0 1.35 1.35z"></path>
        <path d="m357 275.37a1.35 1.35 0 1 0 -1.35-1.35 1.35 1.35 0 0 0 1.35 1.35z"></path>
        <path d="m370.53 275.37a1.35 1.35 0 1 0 -1.35-1.35 1.35 1.35 0 0 0 1.35 1.35z"></path>
        <path d="m350.28 295.62a1.35 1.35 0 1 0 -1.35-1.35 1.34 1.34 0 0 0 1.35 1.35z"></path>
        <path d="m350.28 282.12a1.35 1.35 0 1 0 -1.35-1.35 1.34 1.34 0 0 0 1.35 1.35z"></path>
        <path d="m377.28 268.62a1.35 1.35 0 1 0 -1.35-1.35 1.35 1.35 0 0 0 1.35 1.35z"></path>
        <path d="m363.78 268.62a1.35 1.35 0 1 0 -1.35-1.35 1.35 1.35 0 0 0 1.35 1.35z"></path>
        <path d="m350.28 268.62a1.35 1.35 0 1 0 -1.35-1.35 1.34 1.34 0 0 0 1.35 1.35z"></path>
      </g>
      <g clip-path="url(#p)">
        <path d="m350.28 268.62a1.35 1.35 0 1 0 -1.35-1.35 1.34 1.34 0 0 0 1.35 1.35z"></path>
        <path d="m336.78 268.62a1.35 1.35 0 1 0 -1.35-1.35 1.35 1.35 0 0 0 1.35 1.35z"></path>
        <path d="m350.28 255.12a1.35 1.35 0 1 0 -1.35-1.35 1.34 1.34 0 0 0 1.35 1.35z"></path>
        <path d="m336.78 255.12a1.35 1.35 0 1 0 -1.35-1.35 1.35 1.35 0 0 0 1.35 1.35z"></path>
        <path d="m330 261.87a1.35 1.35 0 1 0 -1.35-1.35 1.35 1.35 0 0 0 1.35 1.35z"></path>
        <path d="m343.53 261.87a1.35 1.35 0 1 0 -1.35-1.35 1.35 1.35 0 0 0 1.35 1.35z"></path>
        <path d="m330 248.37a1.35 1.35 0 1 0 -1.35-1.35 1.35 1.35 0 0 0 1.35 1.35z"></path>
        <path d="m343.53 248.37a1.35 1.35 0 1 0 -1.35-1.35 1.35 1.35 0 0 0 1.35 1.35z"></path>
        <path d="m323.28 268.62a1.35 1.35 0 1 0 -1.35-1.35 1.34 1.34 0 0 0 1.35 1.35z"></path>
        <path d="m323.28 255.12a1.35 1.35 0 1 0 -1.35-1.35 1.34 1.34 0 0 0 1.35 1.35z"></path>
        <path d="m350.28 241.62a1.35 1.35 0 1 0 -1.35-1.35 1.34 1.34 0 0 0 1.35 1.35z"></path>
        <path d="m336.78 241.62a1.35 1.35 0 1 0 -1.35-1.35 1.35 1.35 0 0 0 1.35 1.35z"></path>
        <path d="m323.28 241.62a1.35 1.35 0 1 0 -1.35-1.35 1.34 1.34 0 0 0 1.35 1.35z"></path>
      </g>
      <g clip-path="url(#q)">
        <path d="m350.28 295.62a1.35 1.35 0 1 0 -1.35-1.35 1.34 1.34 0 0 0 1.35 1.35z"></path>
        <path d="m336.78 295.62a1.35 1.35 0 1 0 -1.35-1.35 1.35 1.35 0 0 0 1.35 1.35z"></path>
        <path d="m350.28 282.12a1.35 1.35 0 1 0 -1.35-1.35 1.34 1.34 0 0 0 1.35 1.35z"></path>
        <path d="m336.78 282.12a1.35 1.35 0 1 0 -1.35-1.35 1.35 1.35 0 0 0 1.35 1.35z"></path>
        <path d="m330 288.87a1.35 1.35 0 1 0 -1.35-1.35 1.35 1.35 0 0 0 1.35 1.35z"></path>
        <path d="m343.53 288.87a1.35 1.35 0 1 0 -1.35-1.35 1.35 1.35 0 0 0 1.35 1.35z"></path>
        <path d="m330 275.37a1.35 1.35 0 1 0 -1.35-1.35 1.35 1.35 0 0 0 1.35 1.35z"></path>
        <path d="m343.53 275.37a1.35 1.35 0 1 0 -1.35-1.35 1.35 1.35 0 0 0 1.35 1.35z"></path>
        <path d="m323.28 295.62a1.35 1.35 0 1 0 -1.35-1.35 1.34 1.34 0 0 0 1.35 1.35z"></path>
        <path d="m323.28 282.12a1.35 1.35 0 1 0 -1.35-1.35 1.34 1.34 0 0 0 1.35 1.35z"></path>
        <path d="m350.28 268.62a1.35 1.35 0 1 0 -1.35-1.35 1.34 1.34 0 0 0 1.35 1.35z"></path>
        <path d="m336.78 268.62a1.35 1.35 0 1 0 -1.35-1.35 1.35 1.35 0 0 0 1.35 1.35z"></path>
        <path d="m323.28 268.62a1.35 1.35 0 1 0 -1.35-1.35 1.34 1.34 0 0 0 1.35 1.35z"></path>
      </g>
      <g clip-path="url(#r)">
        <path d="m323.28 268.62a1.35 1.35 0 1 0 -1.35-1.35 1.34 1.34 0 0 0 1.35 1.35z"></path>
        <path d="m309.78 268.62a1.35 1.35 0 1 0 -1.35-1.35 1.35 1.35 0 0 0 1.35 1.35z"></path>
        <path d="m323.28 255.12a1.35 1.35 0 1 0 -1.35-1.35 1.34 1.34 0 0 0 1.35 1.35z"></path>
        <path d="m309.78 255.12a1.35 1.35 0 1 0 -1.35-1.35 1.35 1.35 0 0 0 1.35 1.35z"></path>
        <path d="m303 261.87a1.35 1.35 0 1 0 -1.35-1.35 1.35 1.35 0 0 0 1.35 1.35z"></path>
        <path d="m316.53 261.87a1.35 1.35 0 1 0 -1.35-1.35 1.34 1.34 0 0 0 1.35 1.35z"></path>
        <path d="m303 248.37a1.35 1.35 0 1 0 -1.35-1.35 1.35 1.35 0 0 0 1.35 1.35z"></path>
        <path d="m316.53 248.37a1.35 1.35 0 1 0 -1.35-1.35 1.34 1.34 0 0 0 1.35 1.35z"></path>
        <path d="m296.28 268.62a1.35 1.35 0 1 0 -1.35-1.35 1.34 1.34 0 0 0 1.35 1.35z"></path>
        <path d="m296.28 255.12a1.35 1.35 0 1 0 -1.35-1.35 1.34 1.34 0 0 0 1.35 1.35z"></path>
        <path d="m323.28 241.62a1.35 1.35 0 1 0 -1.35-1.35 1.34 1.34 0 0 0 1.35 1.35z"></path>
        <path d="m309.78 241.62a1.35 1.35 0 1 0 -1.35-1.35 1.35 1.35 0 0 0 1.35 1.35z"></path>
        <path d="m296.28 241.62a1.35 1.35 0 1 0 -1.35-1.35 1.34 1.34 0 0 0 1.35 1.35z"></path>
      </g>
      <g clip-path="url(#s)">
        <path d="m323.28 295.62a1.35 1.35 0 1 0 -1.35-1.35 1.34 1.34 0 0 0 1.35 1.35z"></path>
        <path d="m309.78 295.62a1.35 1.35 0 1 0 -1.35-1.35 1.35 1.35 0 0 0 1.35 1.35z"></path>
        <path d="m323.28 282.12a1.35 1.35 0 1 0 -1.35-1.35 1.34 1.34 0 0 0 1.35 1.35z"></path>
        <path d="m309.78 282.12a1.35 1.35 0 1 0 -1.35-1.35 1.35 1.35 0 0 0 1.35 1.35z"></path>
        <path d="m303 288.87a1.35 1.35 0 1 0 -1.35-1.35 1.35 1.35 0 0 0 1.35 1.35z"></path>
        <path d="m316.53 288.87a1.35 1.35 0 1 0 -1.35-1.35 1.34 1.34 0 0 0 1.35 1.35z"></path>
        <path d="m303 275.37a1.35 1.35 0 1 0 -1.35-1.35 1.35 1.35 0 0 0 1.35 1.35z"></path>
        <path d="m316.53 275.37a1.35 1.35 0 1 0 -1.35-1.35 1.34 1.34 0 0 0 1.35 1.35z"></path>
        <path d="m296.28 295.62a1.35 1.35 0 1 0 -1.35-1.35 1.34 1.34 0 0 0 1.35 1.35z"></path>
        <path d="m296.28 282.12a1.35 1.35 0 1 0 -1.35-1.35 1.34 1.34 0 0 0 1.35 1.35z"></path>
        <path d="m323.28 268.62a1.35 1.35 0 1 0 -1.35-1.35 1.34 1.34 0 0 0 1.35 1.35z"></path>
        <path d="m309.78 268.62a1.35 1.35 0 1 0 -1.35-1.35 1.35 1.35 0 0 0 1.35 1.35z"></path>
        <path d="m296.28 268.62a1.35 1.35 0 1 0 -1.35-1.35 1.34 1.34 0 0 0 1.35 1.35z"></path>
      </g>
      <g clip-path="url(#t)">
        <path d="m296.28 268.62a1.35 1.35 0 1 0 -1.35-1.35 1.34 1.34 0 0 0 1.35 1.35z"></path>
        <path d="m282.78 268.62a1.35 1.35 0 1 0 -1.35-1.35 1.34 1.34 0 0 0 1.35 1.35z"></path>
        <path d="m296.28 255.12a1.35 1.35 0 1 0 -1.35-1.35 1.34 1.34 0 0 0 1.35 1.35z"></path>
        <path d="m282.78 255.12a1.35 1.35 0 1 0 -1.35-1.35 1.34 1.34 0 0 0 1.35 1.35z"></path>
        <path d="m276 261.87a1.35 1.35 0 1 0 -1.35-1.35 1.35 1.35 0 0 0 1.35 1.35z"></path>
        <path d="m289.53 261.87a1.35 1.35 0 1 0 -1.35-1.35 1.34 1.34 0 0 0 1.35 1.35z"></path>
        <path d="m276 248.37a1.35 1.35 0 1 0 -1.35-1.35 1.35 1.35 0 0 0 1.35 1.35z"></path>
        <path d="m289.53 248.37a1.35 1.35 0 1 0 -1.35-1.35 1.34 1.34 0 0 0 1.35 1.35z"></path>
        <path d="m269.28 268.62a1.35 1.35 0 1 0 -1.35-1.35 1.34 1.34 0 0 0 1.35 1.35z"></path>
        <path d="m269.28 255.12a1.35 1.35 0 1 0 -1.35-1.35 1.34 1.34 0 0 0 1.35 1.35z"></path>
        <path d="m296.28 241.62a1.35 1.35 0 1 0 -1.35-1.35 1.34 1.34 0 0 0 1.35 1.35z"></path>
        <path d="m282.78 241.62a1.35 1.35 0 1 0 -1.35-1.35 1.34 1.34 0 0 0 1.35 1.35z"></path>
        <path d="m269.28 241.62a1.35 1.35 0 1 0 -1.35-1.35 1.34 1.34 0 0 0 1.35 1.35z"></path>
      </g>
      <g clip-path="url(#u)">
        <path d="m296.28 295.62a1.35 1.35 0 1 0 -1.35-1.35 1.34 1.34 0 0 0 1.35 1.35z"></path>
        <path d="m282.78 295.62a1.35 1.35 0 1 0 -1.35-1.35 1.34 1.34 0 0 0 1.35 1.35z"></path>
        <path d="m296.28 282.12a1.35 1.35 0 1 0 -1.35-1.35 1.34 1.34 0 0 0 1.35 1.35z"></path>
        <path d="m282.78 282.12a1.35 1.35 0 1 0 -1.35-1.35 1.34 1.34 0 0 0 1.35 1.35z"></path>
        <path d="m276 288.87a1.35 1.35 0 1 0 -1.35-1.35 1.35 1.35 0 0 0 1.35 1.35z"></path>
        <path d="m289.53 288.87a1.35 1.35 0 1 0 -1.35-1.35 1.34 1.34 0 0 0 1.35 1.35z"></path>
        <path d="m276 275.37a1.35 1.35 0 1 0 -1.35-1.35 1.35 1.35 0 0 0 1.35 1.35z"></path>
        <path d="m289.53 275.37a1.35 1.35 0 1 0 -1.35-1.35 1.34 1.34 0 0 0 1.35 1.35z"></path>
        <path d="m269.28 295.62a1.35 1.35 0 1 0 -1.35-1.35 1.34 1.34 0 0 0 1.35 1.35z"></path>
        <path d="m269.28 282.12a1.35 1.35 0 1 0 -1.35-1.35 1.34 1.34 0 0 0 1.35 1.35z"></path>
        <path d="m296.28 268.62a1.35 1.35 0 1 0 -1.35-1.35 1.34 1.34 0 0 0 1.35 1.35z"></path>
        <path d="m282.78 268.62a1.35 1.35 0 1 0 -1.35-1.35 1.34 1.34 0 0 0 1.35 1.35z"></path>
        <path d="m269.28 268.62a1.35 1.35 0 1 0 -1.35-1.35 1.34 1.34 0 0 0 1.35 1.35z"></path>
      </g>
      <g clip-path="url(#v)">
        <path d="m269.28 268.62a1.35 1.35 0 1 0 -1.35-1.35 1.34 1.34 0 0 0 1.35 1.35z"></path>
        <path d="m255.78 268.62a1.35 1.35 0 1 0 -1.35-1.35 1.34 1.34 0 0 0 1.35 1.35z"></path>
        <path d="m269.28 255.12a1.35 1.35 0 1 0 -1.35-1.35 1.34 1.34 0 0 0 1.35 1.35z"></path>
        <path d="m255.78 255.12a1.35 1.35 0 1 0 -1.35-1.35 1.34 1.34 0 0 0 1.35 1.35z"></path>
        <path d="m249 261.87a1.35 1.35 0 1 0 -1.35-1.35 1.34 1.34 0 0 0 1.35 1.35z"></path>
        <path d="m262.53 261.87a1.35 1.35 0 1 0 -1.35-1.35 1.34 1.34 0 0 0 1.35 1.35z"></path>
        <path d="m249 248.37a1.35 1.35 0 1 0 -1.35-1.35 1.34 1.34 0 0 0 1.35 1.35z"></path>
        <path d="m262.53 248.37a1.35 1.35 0 1 0 -1.35-1.35 1.34 1.34 0 0 0 1.35 1.35z"></path>
        <path d="m242.28 268.62a1.35 1.35 0 1 0 -1.35-1.35 1.34 1.34 0 0 0 1.35 1.35z"></path>
        <path d="m242.28 255.12a1.35 1.35 0 1 0 -1.35-1.35 1.34 1.34 0 0 0 1.35 1.35z"></path>
        <path d="m269.28 241.62a1.35 1.35 0 1 0 -1.35-1.35 1.34 1.34 0 0 0 1.35 1.35z"></path>
        <path d="m255.78 241.62a1.35 1.35 0 1 0 -1.35-1.35 1.34 1.34 0 0 0 1.35 1.35z"></path>
        <path d="m242.28 241.62a1.35 1.35 0 1 0 -1.35-1.35 1.34 1.34 0 0 0 1.35 1.35z"></path>
      </g>
      <g clip-path="url(#w)">
        <path d="m269.28 295.62a1.35 1.35 0 1 0 -1.35-1.35 1.34 1.34 0 0 0 1.35 1.35z"></path>
        <path d="m255.78 295.62a1.35 1.35 0 1 0 -1.35-1.35 1.34 1.34 0 0 0 1.35 1.35z"></path>
        <path d="m269.28 282.12a1.35 1.35 0 1 0 -1.35-1.35 1.34 1.34 0 0 0 1.35 1.35z"></path>
        <path d="m255.78 282.12a1.35 1.35 0 1 0 -1.35-1.35 1.34 1.34 0 0 0 1.35 1.35z"></path>
        <path d="m249 288.87a1.35 1.35 0 1 0 -1.35-1.35 1.34 1.34 0 0 0 1.35 1.35z"></path>
        <path d="m262.53 288.87a1.35 1.35 0 1 0 -1.35-1.35 1.34 1.34 0 0 0 1.35 1.35z"></path>
        <path d="m249 275.37a1.35 1.35 0 1 0 -1.35-1.35 1.34 1.34 0 0 0 1.35 1.35z"></path>
        <path d="m262.53 275.37a1.35 1.35 0 1 0 -1.35-1.35 1.34 1.34 0 0 0 1.35 1.35z"></path>
        <path d="m242.28 295.62a1.35 1.35 0 1 0 -1.35-1.35 1.34 1.34 0 0 0 1.35 1.35z"></path>
        <path d="m242.28 282.12a1.35 1.35 0 1 0 -1.35-1.35 1.34 1.34 0 0 0 1.35 1.35z"></path>
        <path d="m269.28 268.62a1.35 1.35 0 1 0 -1.35-1.35 1.34 1.34 0 0 0 1.35 1.35z"></path>
        <path d="m255.78 268.62a1.35 1.35 0 1 0 -1.35-1.35 1.34 1.34 0 0 0 1.35 1.35z"></path>
        <path d="m242.28 268.62a1.35 1.35 0 1 0 -1.35-1.35 1.34 1.34 0 0 0 1.35 1.35z"></path>
      </g>
      <g clip-path="url(#x)">
        <path d="m242.28 268.62a1.35 1.35 0 1 0 -1.35-1.35 1.34 1.34 0 0 0 1.35 1.35z"></path>
        <path d="m228.78 268.62a1.35 1.35 0 1 0 -1.35-1.35 1.34 1.34 0 0 0 1.35 1.35z"></path>
        <path d="m242.28 255.12a1.35 1.35 0 1 0 -1.35-1.35 1.34 1.34 0 0 0 1.35 1.35z"></path>
        <path d="m228.78 255.12a1.35 1.35 0 1 0 -1.35-1.35 1.34 1.34 0 0 0 1.35 1.35z"></path>
        <path d="m222 261.87a1.35 1.35 0 1 0 -1.35-1.35 1.34 1.34 0 0 0 1.35 1.35z"></path>
        <path d="m235.53 261.87a1.35 1.35 0 1 0 -1.35-1.35 1.34 1.34 0 0 0 1.35 1.35z"></path>
        <path d="m222 248.37a1.35 1.35 0 1 0 -1.35-1.35 1.34 1.34 0 0 0 1.35 1.35z"></path>
        <path d="m235.53 248.37a1.35 1.35 0 1 0 -1.35-1.35 1.34 1.34 0 0 0 1.35 1.35z"></path>
        <path d="m215.28 268.62a1.35 1.35 0 1 0 -1.35-1.35 1.34 1.34 0 0 0 1.35 1.35z"></path>
        <path d="m215.28 255.12a1.35 1.35 0 1 0 -1.35-1.35 1.34 1.34 0 0 0 1.35 1.35z"></path>
        <path d="m242.28 241.62a1.35 1.35 0 1 0 -1.35-1.35 1.34 1.34 0 0 0 1.35 1.35z"></path>
        <path d="m228.78 241.62a1.35 1.35 0 1 0 -1.35-1.35 1.34 1.34 0 0 0 1.35 1.35z"></path>
        <path d="m215.28 241.62a1.35 1.35 0 1 0 -1.35-1.35 1.34 1.34 0 0 0 1.35 1.35z"></path>
      </g>
      <g clip-path="url(#y)">
        <path d="m242.28 295.62a1.35 1.35 0 1 0 -1.35-1.35 1.34 1.34 0 0 0 1.35 1.35z"></path>
        <path d="m228.78 295.62a1.35 1.35 0 1 0 -1.35-1.35 1.34 1.34 0 0 0 1.35 1.35z"></path>
        <path d="m242.28 282.12a1.35 1.35 0 1 0 -1.35-1.35 1.34 1.34 0 0 0 1.35 1.35z"></path>
        <path d="m228.78 282.12a1.35 1.35 0 1 0 -1.35-1.35 1.34 1.34 0 0 0 1.35 1.35z"></path>
        <path d="m222 288.87a1.35 1.35 0 1 0 -1.35-1.35 1.34 1.34 0 0 0 1.35 1.35z"></path>
        <path d="m235.53 288.87a1.35 1.35 0 1 0 -1.35-1.35 1.34 1.34 0 0 0 1.35 1.35z"></path>
        <path d="m222 275.37a1.35 1.35 0 1 0 -1.35-1.35 1.34 1.34 0 0 0 1.35 1.35z"></path>
        <path d="m235.53 275.37a1.35 1.35 0 1 0 -1.35-1.35 1.34 1.34 0 0 0 1.35 1.35z"></path>
        <path d="m215.28 295.62a1.35 1.35 0 1 0 -1.35-1.35 1.34 1.34 0 0 0 1.35 1.35z"></path>
        <path d="m215.28 282.12a1.35 1.35 0 1 0 -1.35-1.35 1.34 1.34 0 0 0 1.35 1.35z"></path>
        <path d="m242.28 268.62a1.35 1.35 0 1 0 -1.35-1.35 1.34 1.34 0 0 0 1.35 1.35z"></path>
        <path d="m228.78 268.62a1.35 1.35 0 1 0 -1.35-1.35 1.34 1.34 0 0 0 1.35 1.35z"></path>
        <path d="m215.28 268.62a1.35 1.35 0 1 0 -1.35-1.35 1.34 1.34 0 0 0 1.35 1.35z"></path>
      </g>
      <g clip-path="url(#z)">
        <path d="m215.28 268.62a1.35 1.35 0 1 0 -1.35-1.35 1.34 1.34 0 0 0 1.35 1.35z"></path>
        <path d="m201.78 268.62a1.35 1.35 0 1 0 -1.35-1.35 1.34 1.34 0 0 0 1.35 1.35z"></path>
        <path d="m215.28 255.12a1.35 1.35 0 1 0 -1.35-1.35 1.34 1.34 0 0 0 1.35 1.35z"></path>
        <path d="m201.78 255.12a1.35 1.35 0 1 0 -1.35-1.35 1.34 1.34 0 0 0 1.35 1.35z"></path>
        <path d="m195 261.87a1.35 1.35 0 1 0 -1.35-1.35 1.34 1.34 0 0 0 1.35 1.35z"></path>
        <path d="m208.53 261.87a1.35 1.35 0 1 0 -1.35-1.35 1.34 1.34 0 0 0 1.35 1.35z"></path>
        <path d="m195 248.37a1.35 1.35 0 1 0 -1.35-1.35 1.34 1.34 0 0 0 1.35 1.35z"></path>
        <path d="m208.53 248.37a1.35 1.35 0 1 0 -1.35-1.35 1.34 1.34 0 0 0 1.35 1.35z"></path>
        <path d="m188.28 268.62a1.35 1.35 0 1 0 -1.35-1.35 1.34 1.34 0 0 0 1.35 1.35z"></path>
        <path d="m188.28 255.12a1.35 1.35 0 1 0 -1.35-1.35 1.34 1.34 0 0 0 1.35 1.35z"></path>
        <path d="m215.28 241.62a1.35 1.35 0 1 0 -1.35-1.35 1.34 1.34 0 0 0 1.35 1.35z"></path>
        <path d="m201.78 241.62a1.35 1.35 0 1 0 -1.35-1.35 1.34 1.34 0 0 0 1.35 1.35z"></path>
        <path d="m188.28 241.62a1.35 1.35 0 1 0 -1.35-1.35 1.34 1.34 0 0 0 1.35 1.35z"></path>
      </g>
      <g clip-path="url(#A)">
        <path d="m215.28 295.62a1.35 1.35 0 1 0 -1.35-1.35 1.34 1.34 0 0 0 1.35 1.35z"></path>
        <path d="m201.78 295.62a1.35 1.35 0 1 0 -1.35-1.35 1.34 1.34 0 0 0 1.35 1.35z"></path>
        <path d="m215.28 282.12a1.35 1.35 0 1 0 -1.35-1.35 1.34 1.34 0 0 0 1.35 1.35z"></path>
        <path d="m201.78 282.12a1.35 1.35 0 1 0 -1.35-1.35 1.34 1.34 0 0 0 1.35 1.35z"></path>
        <path d="m195 288.87a1.35 1.35 0 1 0 -1.35-1.35 1.34 1.34 0 0 0 1.35 1.35z"></path>
        <path d="m208.53 288.87a1.35 1.35 0 1 0 -1.35-1.35 1.34 1.34 0 0 0 1.35 1.35z"></path>
        <path d="m195 275.37a1.35 1.35 0 1 0 -1.35-1.35 1.34 1.34 0 0 0 1.35 1.35z"></path>
        <path d="m208.53 275.37a1.35 1.35 0 1 0 -1.35-1.35 1.34 1.34 0 0 0 1.35 1.35z"></path>
        <path d="m188.28 295.62a1.35 1.35 0 1 0 -1.35-1.35 1.34 1.34 0 0 0 1.35 1.35z"></path>
        <path d="m188.28 282.12a1.35 1.35 0 1 0 -1.35-1.35 1.34 1.34 0 0 0 1.35 1.35z"></path>
        <path d="m215.28 268.62a1.35 1.35 0 1 0 -1.35-1.35 1.34 1.34 0 0 0 1.35 1.35z"></path>
        <path d="m201.78 268.62a1.35 1.35 0 1 0 -1.35-1.35 1.34 1.34 0 0 0 1.35 1.35z"></path>
        <path d="m188.28 268.62a1.35 1.35 0 1 0 -1.35-1.35 1.34 1.34 0 0 0 1.35 1.35z"></path>
      </g>
      <g clip-path="url(#B)">
        <path d="m188.28 268.62a1.35 1.35 0 1 0 -1.35-1.35 1.34 1.34 0 0 0 1.35 1.35z"></path>
        <path d="m174.78 268.62a1.35 1.35 0 1 0 -1.35-1.35 1.34 1.34 0 0 0 1.35 1.35z"></path>
        <path d="m188.28 255.12a1.35 1.35 0 1 0 -1.35-1.35 1.34 1.34 0 0 0 1.35 1.35z"></path>
        <path d="m174.78 255.12a1.35 1.35 0 1 0 -1.35-1.35 1.34 1.34 0 0 0 1.35 1.35z"></path>
        <path d="m168 261.87a1.35 1.35 0 1 0 -1.35-1.35 1.34 1.34 0 0 0 1.35 1.35z"></path>
        <path d="m181.53 261.87a1.35 1.35 0 1 0 -1.35-1.35 1.34 1.34 0 0 0 1.35 1.35z"></path>
        <path d="m168 248.37a1.35 1.35 0 1 0 -1.35-1.35 1.34 1.34 0 0 0 1.35 1.35z"></path>
        <path d="m181.53 248.37a1.35 1.35 0 1 0 -1.35-1.35 1.34 1.34 0 0 0 1.35 1.35z"></path>
        <path d="m161.28 268.62a1.35 1.35 0 1 0 -1.35-1.35 1.34 1.34 0 0 0 1.35 1.35z"></path>
        <path d="m161.28 255.12a1.35 1.35 0 1 0 -1.35-1.35 1.34 1.34 0 0 0 1.35 1.35z"></path>
        <path d="m188.28 241.62a1.35 1.35 0 1 0 -1.35-1.35 1.34 1.34 0 0 0 1.35 1.35z"></path>
        <path d="m174.78 241.62a1.35 1.35 0 1 0 -1.35-1.35 1.34 1.34 0 0 0 1.35 1.35z"></path>
        <path d="m161.28 241.62a1.35 1.35 0 1 0 -1.35-1.35 1.34 1.34 0 0 0 1.35 1.35z"></path>
      </g>
      <g clip-path="url(#C)">
        <path d="m188.28 295.62a1.35 1.35 0 1 0 -1.35-1.35 1.34 1.34 0 0 0 1.35 1.35z"></path>
        <path d="m174.78 295.62a1.35 1.35 0 1 0 -1.35-1.35 1.34 1.34 0 0 0 1.35 1.35z"></path>
        <path d="m188.28 282.12a1.35 1.35 0 1 0 -1.35-1.35 1.34 1.34 0 0 0 1.35 1.35z"></path>
        <path d="m174.78 282.12a1.35 1.35 0 1 0 -1.35-1.35 1.34 1.34 0 0 0 1.35 1.35z"></path>
        <path d="m168 288.87a1.35 1.35 0 1 0 -1.35-1.35 1.34 1.34 0 0 0 1.35 1.35z"></path>
        <path d="m181.53 288.87a1.35 1.35 0 1 0 -1.35-1.35 1.34 1.34 0 0 0 1.35 1.35z"></path>
        <path d="m168 275.37a1.35 1.35 0 1 0 -1.35-1.35 1.34 1.34 0 0 0 1.35 1.35z"></path>
        <path d="m181.53 275.37a1.35 1.35 0 1 0 -1.35-1.35 1.34 1.34 0 0 0 1.35 1.35z"></path>
        <path d="m161.28 295.62a1.35 1.35 0 1 0 -1.35-1.35 1.34 1.34 0 0 0 1.35 1.35z"></path>
        <path d="m161.28 282.12a1.35 1.35 0 1 0 -1.35-1.35 1.34 1.34 0 0 0 1.35 1.35z"></path>
        <path d="m188.28 268.62a1.35 1.35 0 1 0 -1.35-1.35 1.34 1.34 0 0 0 1.35 1.35z"></path>
        <path d="m174.78 268.62a1.35 1.35 0 1 0 -1.35-1.35 1.34 1.34 0 0 0 1.35 1.35z"></path>
        <path d="m161.28 268.62a1.35 1.35 0 1 0 -1.35-1.35 1.34 1.34 0 0 0 1.35 1.35z"></path>
      </g>
      <g clip-path="url(#D)">
        <path d="m161.28 268.62a1.35 1.35 0 1 0 -1.35-1.35 1.34 1.34 0 0 0 1.35 1.35z"></path>
        <path d="m147.78 268.62a1.35 1.35 0 1 0 -1.35-1.35 1.34 1.34 0 0 0 1.35 1.35z"></path>
        <path d="m161.28 255.12a1.35 1.35 0 1 0 -1.35-1.35 1.34 1.34 0 0 0 1.35 1.35z"></path>
        <path d="m147.78 255.12a1.35 1.35 0 1 0 -1.35-1.35 1.34 1.34 0 0 0 1.35 1.35z"></path>
        <path d="m141 261.87a1.35 1.35 0 1 0 -1.35-1.35 1.34 1.34 0 0 0 1.35 1.35z"></path>
        <path d="m154.53 261.87a1.35 1.35 0 1 0 -1.35-1.35 1.34 1.34 0 0 0 1.35 1.35z"></path>
        <path d="m141 248.37a1.35 1.35 0 1 0 -1.35-1.35 1.34 1.34 0 0 0 1.35 1.35z"></path>
        <path d="m154.53 248.37a1.35 1.35 0 1 0 -1.35-1.35 1.34 1.34 0 0 0 1.35 1.35z"></path>
        <path d="m134.28 268.62a1.35 1.35 0 1 0 -1.35-1.35 1.34 1.34 0 0 0 1.35 1.35z"></path>
        <path d="m134.28 255.12a1.35 1.35 0 1 0 -1.35-1.35 1.34 1.34 0 0 0 1.35 1.35z"></path>
        <path d="m161.28 241.62a1.35 1.35 0 1 0 -1.35-1.35 1.34 1.34 0 0 0 1.35 1.35z"></path>
        <path d="m147.78 241.62a1.35 1.35 0 1 0 -1.35-1.35 1.34 1.34 0 0 0 1.35 1.35z"></path>
        <path d="m134.28 241.62a1.35 1.35 0 1 0 -1.35-1.35 1.34 1.34 0 0 0 1.35 1.35z"></path>
      </g>
      <g clip-path="url(#E)">
        <path d="m161.28 295.62a1.35 1.35 0 1 0 -1.35-1.35 1.34 1.34 0 0 0 1.35 1.35z"></path>
        <path d="m147.78 295.62a1.35 1.35 0 1 0 -1.35-1.35 1.34 1.34 0 0 0 1.35 1.35z"></path>
        <path d="m161.28 282.12a1.35 1.35 0 1 0 -1.35-1.35 1.34 1.34 0 0 0 1.35 1.35z"></path>
        <path d="m147.78 282.12a1.35 1.35 0 1 0 -1.35-1.35 1.34 1.34 0 0 0 1.35 1.35z"></path>
        <path d="m141 288.87a1.35 1.35 0 1 0 -1.35-1.35 1.34 1.34 0 0 0 1.35 1.35z"></path>
        <path d="m154.53 288.87a1.35 1.35 0 1 0 -1.35-1.35 1.34 1.34 0 0 0 1.35 1.35z"></path>
        <path d="m141 275.37a1.35 1.35 0 1 0 -1.35-1.35 1.34 1.34 0 0 0 1.35 1.35z"></path>
        <path d="m154.53 275.37a1.35 1.35 0 1 0 -1.35-1.35 1.34 1.34 0 0 0 1.35 1.35z"></path>
        <path d="m134.28 295.62a1.35 1.35 0 1 0 -1.35-1.35 1.34 1.34 0 0 0 1.35 1.35z"></path>
        <path d="m134.28 282.12a1.35 1.35 0 1 0 -1.35-1.35 1.34 1.34 0 0 0 1.35 1.35z"></path>
        <path d="m161.28 268.62a1.35 1.35 0 1 0 -1.35-1.35 1.34 1.34 0 0 0 1.35 1.35z"></path>
        <path d="m147.78 268.62a1.35 1.35 0 1 0 -1.35-1.35 1.34 1.34 0 0 0 1.35 1.35z"></path>
        <path d="m134.28 268.62a1.35 1.35 0 1 0 -1.35-1.35 1.34 1.34 0 0 0 1.35 1.35z"></path>
      </g>
    </g>
    <path d="m123.22 445.57a28.53 28.53 0 0 0 2.67-4.16c2.9-5.82 2-12.3 1.19-17.5a3.2 3.2 0 0 0 -1.22-2.11 84 84 0 0 0 .21-14.54l-.19-2.44c-.46-5.53-.93-11.25 1.73-15.28a3.26 3.26 0 0 0 -.82-4.48 3.3 3.3 0 0 0 -4.53.69c-1 1.34-2.06 2.71-3 4.19.42-5.29-.29-10.52-1-15.65a74.3 74.3 0 0 1 -1-13.23 3.28 3.28 0 0 0 -6.43-1.06c-1.61 5.5-1.62 11.12-1.62 16.62a71.06 71.06 0 0 1 -.66 11.73c-.31 1.75-.78 3.55-1.28 5.35a27.2 27.2 0 0 1 1.5-8.5 3.28 3.28 0 0 0 -5.57-3.24c-5.16 5.87-6.58 13.5-6.64 20a37.74 37.74 0 0 1 -2.94-18.63 3.28 3.28 0 0 0 -6.49-.94c-2.7 14-2.31 25.37 1.17 34.89a83.73 83.73 0 0 0 4 8.84l1.18 2.37-.24-.08-.84-.29a42.28 42.28 0 0 1 -11.78-6.37 3.29 3.29 0 0 0 -5.19 3.36c1 4.13 3.46 7.26 5.87 10.29a46.12 46.12 0 0 1 3.12 4.25 19.53 19.53 0 0 1 2.81 10.11h-3.1a1.41 1.41 0 0 0 -1.38 1.68l7.71 38.56a1.4 1.4 0 0 0 1.38 1.13h25.16a1.4 1.4 0 0 0 1.38-1.13l7.71-38.65a1.41 1.41 0 0 0 -1.38-1.68h-4.42a14.89 14.89 0 0 0 1.45-2c.42-.67.93-1.35 1.48-2.1zm-7.4 42.79h-22.82l-2.73-13.71h28.29zm3.29-16.52h-29.42l-.69-3.63h30.86zm1.29-6.44h-32l-2.57-12.87h37.17zm-2.89-40.81a63.81 63.81 0 0 0 1.25-14.32 1.5 1.5 0 0 0 .06-.29c.05-1 .09-1.94.12-2.92.13-4.06.26-8.26 1.82-12a22.23 22.23 0 0 1 1.79-3.33c-1.17 4.18-.78 8.83-.41 13.36l.19 2.42a82.43 82.43 0 0 1 -.19 13.88l-.16 1.37a3.05 3.05 0 0 0 0 .43c-2 2.26-4.1 4.38-6.11 6.6a40.36 40.36 0 0 0 1.64-5.2zm6.2 2.31c.54 4.17.8 8.87-1.17 12.84a26.85 26.85 0 0 1 -2.39 3.68c-.56.77-1.13 1.54-1.63 2.35a13.33 13.33 0 0 1 -1.29 1.72 2.71 2.71 0 0 0 -.24.35l-.23.44h-6.59a38.89 38.89 0 0 1 5.54-12.38c2.29-3.33 5.29-6.05 8-9zm-13.38-30.3a75.07 75.07 0 0 0 1.9-7.62 73.77 73.77 0 0 0 .72-12.44 76.33 76.33 0 0 1 .57-11.4c.16 3.25.61 6.5 1 9.7.79 5.82 1.6 11.83.6 17.64-.17 1-.38 1.92-.6 2.88a38.33 38.33 0 0 0 -.83 4.56c-.3 2.92.73 7.68 1.24 9.79-.07 6.58-.43 13-2.81 19.42-1.15 3.09-2.44 6-3.6 8.89a79.61 79.61 0 0 0 -.74-9.07 2 2 0 0 0 .78-.39c7.72-6.27 3.56-17.85.14-25.89.47-1.96 1-3.9 1.63-6.07zm-5.85-10.2a31.09 31.09 0 0 0 -.27 14.26c.05.23.12.44.18.67a2 2 0 0 0 .14.95l.36.83.09.3a2.19 2.19 0 0 0 .29.57c2.68 6.15 6.46 15.44 1.82 20.83a45.68 45.68 0 0 0 -6.31-15.36v-.24c-.12-1-.23-2.11-.31-3.16-.47-5.75-.09-13.56 4.01-19.65zm-12.67 29.54c-2.7-7.39-3.38-16.09-2-26.47a41.79 41.79 0 0 0 6.08 19 1.76 1.76 0 0 0 .32.72c7.17 9.75 8.75 20.56 8.71 32.05-1.06-4.15-3.13-8.14-6.21-10.55l-.59-1.32c-.76-1.68-1.58-3.34-2.48-5.13a81.14 81.14 0 0 1 -3.83-8.3zm-7.57 17.06a27.45 27.45 0 0 1 -4.75-7.48 46.08 46.08 0 0 0 11.68 6.09l.86.3a19.89 19.89 0 0 1 4.23 1.84c.1.07.22 0 .33.09 3.79 3.16 5.41 9.7 5.36 14.44h-10.95a23.31 23.31 0 0 0 -3.35-10.64 49 49 0 0 0 -3.41-4.64z"></path>
    <path d="m440.43 445.57a29.39 29.39 0 0 0 2.67-4.16c2.9-5.82 1.95-12.3 1.19-17.5a3.28 3.28 0 0 0 -1.22-2.11 85 85 0 0 0 .2-14.54l-.19-2.44c-.46-5.53-.93-11.25 1.73-15.28a3.25 3.25 0 0 0 -.81-4.54 3.29 3.29 0 0 0 -4.52.69c-1 1.34-2.06 2.71-3 4.19.42-5.29-.29-10.52-1-15.65a75.26 75.26 0 0 1 -1-13.23 3.28 3.28 0 0 0 -6.48-1c-1.61 5.5-1.61 11.12-1.62 16.62a70 70 0 0 1 -.66 11.73c-.31 1.75-.77 3.55-1.28 5.35a27.49 27.49 0 0 1 1.5-8.5 3.28 3.28 0 0 0 -5.57-3.24c-5.15 5.87-6.58 13.5-6.64 20a37.74 37.74 0 0 1 -2.94-18.63 3.28 3.28 0 0 0 -6.49-.94c-2.69 14-2.31 25.37 1.17 34.89a85.81 85.81 0 0 0 4 8.84c.4.79.79 1.58 1.18 2.37l-.24-.08-.84-.29a42.42 42.42 0 0 1 -11.78-6.37 3.28 3.28 0 0 0 -5.18 3.36c1 4.13 3.46 7.26 5.86 10.29a42.7 42.7 0 0 1 3.12 4.25 19.54 19.54 0 0 1 2.82 10.11h-3.12a1.37 1.37 0 0 0 -1.08.52 1.39 1.39 0 0 0 -.3 1.16l7.75 38.56a1.4 1.4 0 0 0 1.38 1.13h25.13a1.4 1.4 0 0 0 1.38-1.13l7.71-38.65a1.39 1.39 0 0 0 -.29-1.16 1.41 1.41 0 0 0 -1.09-.52h-4.41a15.93 15.93 0 0 0 1.44-2c.46-.67.96-1.35 1.52-2.1zm-7.43 42.79h-22.81l-2.73-13.71h28.29zm3.3-16.52h-29.4l-.72-3.63h30.82zm1.28-6.44h-32l-2.57-12.87h37.12zm-2.89-40.81a63.23 63.23 0 0 0 1.31-14.32c0-.1.06-.19.07-.29.05-1 .08-1.94.12-2.92.12-4.06.25-8.26 1.82-12a21.3 21.3 0 0 1 1.78-3.33c-1.16 4.18-.78 8.83-.4 13.36l.18 2.42a81.39 81.39 0 0 1 -.19 13.88l-.16 1.37a2 2 0 0 0 0 .43c-2 2.26-4.1 4.38-6.11 6.6a42 42 0 0 0 1.6-5.2zm6.21 2.31c.54 4.17.8 8.87-1.18 12.84a25.86 25.86 0 0 1 -2.38 3.68c-.57.77-1.13 1.54-1.63 2.35a12.41 12.41 0 0 1 -1.3 1.72 1.92 1.92 0 0 0 -.23.35l-.23.44h-6.6a38.89 38.89 0 0 1 5.54-12.38c2.34-3.33 5.29-6.05 8.03-9zm-13.39-30.3a54.54 54.54 0 0 0 2.62-20.06 77.69 77.69 0 0 1 .58-11.4c.15 3.25.6 6.5 1 9.7.79 5.82 1.61 11.83.6 17.64-.16 1-.38 1.92-.59 2.88a36.42 36.42 0 0 0 -.84 4.56c-.29 2.92.73 7.68 1.24 9.79-.06 6.58-.42 13-2.81 19.42-1.14 3.09-2.44 6-3.6 8.89a79.61 79.61 0 0 0 -.71-9.02 1.91 1.91 0 0 0 .78-.39c7.72-6.27 3.57-17.85.15-25.89.45-2.01.98-3.95 1.6-6.12zm-5.85-10.2a31.09 31.09 0 0 0 -.27 14.26c0 .23.13.44.18.67a1.92 1.92 0 0 0 .15.95c.11.27.23.55.36.83l.09.3a1.71 1.71 0 0 0 .29.57c2.68 6.15 6.45 15.44 1.81 20.83a45.45 45.45 0 0 0 -6.3-15.36v-.24c-.11-1-.22-2.11-.31-3.16-.47-5.75-.08-13.56 4.02-19.65zm-12.66 29.54c-2.69-7.39-3.38-16.09-2-26.47a41.78 41.78 0 0 0 6.07 19 1.79 1.79 0 0 0 .33.72c7.16 9.75 8.74 20.56 8.7 32.05-1.06-4.15-3.13-8.14-6.21-10.55l-.59-1.32c-.75-1.68-1.58-3.34-2.48-5.13a83.35 83.35 0 0 1 -3.82-8.3zm-7.56 17.06a27.69 27.69 0 0 1 -4.75-7.48 46 46 0 0 0 11.69 6.09l.85.3a20 20 0 0 1 4.24 1.84c.1.07.22 0 .33.09 3.78 3.16 5.41 9.7 5.35 14.44h-11a23.21 23.21 0 0 0 -3.36-10.64 49 49 0 0 0 -3.35-4.64z"></path>
    <path d="m432.63 489.06h6.51v2.11h-6.51z"></path>
  </g>
</svg>
