<?xml version="1.0" encoding="UTF-8"?>
<svg xmlns="http://www.w3.org/2000/svg" viewBox="0 0 600 600">
  <path d="m104.1 200.54h396.11v291.32h-396.11z" fill="#fff"></path>
  <path d="m298.76 258.26v168.27h4.86v11.78h-4.86v37.61h90.75v-37.62h-4.81v-11.8h4.81v-168.24zm10.8 192v-181.2h69.16v83.49h-11.24v29.09h11.24v68.64z" fill="#ffde00"></path>
  <path d="m98.05 208.26h12.11v267.66h-12.11z" fill="#ffde00"></path>
  <path d="m80.14 475.92h434.1v14.53h-434.1z" fill="#ffde00"></path>
  <path d="m196.08 314.29h8.64v112.24h-8.64z" fill="#ffde00"></path>
  <path d="m494.16 208.26h12.11v267.66h-12.11z" fill="#ffde00"></path>
  <path d="m389.51 438.31h104.65v37.61h-104.65z" fill="#ffde00"></path>
  <path d="m110.16 438.31h188.42v37.61h-188.42z" fill="#ffde00" transform="matrix(-1 0 0 -1 408.73 914.24)"></path>
  <path d="m367.48 352.55h16.22v29.09h-16.22z" fill="#ffde00"></path>
  <path d="m465.94 347.11a.52.52 0 0 0 -.38.54v2.68a.49.49 0 0 0 .43.54h.11a1.83 1.83 0 0 1 -.38.73 6.41 6.41 0 0 1 -1.14 1 5.69 5.69 0 0 0 -1.33 1.24 3.91 3.91 0 0 0 -.7 2.25v12.5a2.17 2.17 0 0 0 1.84 2.38h9.86a2.18 2.18 0 0 0 1.85-2.38v-12.47a4 4 0 0 0 -.69-2.24 5.8 5.8 0 0 0 -1.33-1.26 6.85 6.85 0 0 1 -1.14-1 1.85 1.85 0 0 1 -.37-.74h.14a.49.49 0 0 0 .42-.54v-2.67a.62.62 0 0 0 -.12-.39.37.37 0 0 0 -.3-.16h-6.79z" fill="#ffde00" fill-rule="evenodd"></path>
  <path d="m444.34 347.11a.51.51 0 0 0 -.38.54v2.68a.49.49 0 0 0 .42.54h.12a1.83 1.83 0 0 1 -.38.73 6.5 6.5 0 0 1 -1.15 1 5.86 5.86 0 0 0 -1.32 1.24 3.91 3.91 0 0 0 -.71 2.25v12.5a2.18 2.18 0 0 0 1.85 2.38h9.86a2.18 2.18 0 0 0 1.84-2.38v-12.47a3.8 3.8 0 0 0 -.69-2.24 6 6 0 0 0 -1.32-1.26 6.47 6.47 0 0 1 -1.14-1 1.73 1.73 0 0 1 -.37-.74h.14a.49.49 0 0 0 .42-.54v-2.67a.62.62 0 0 0 -.12-.39.37.37 0 0 0 -.3-.16h-6.79z" fill="#ffde00" fill-rule="evenodd"></path>
  <path d="m432.35 226.44a.52.52 0 0 0 -.38.54v2.68a.49.49 0 0 0 .43.54h.11a1.76 1.76 0 0 1 -.38.73 6 6 0 0 1 -1.14 1 5.75 5.75 0 0 0 -1.33 1.25 3.91 3.91 0 0 0 -.7 2.25v12.51a2.17 2.17 0 0 0 1.84 2.37h9.86a2.17 2.17 0 0 0 1.85-2.37v-12.48a4 4 0 0 0 -.69-2.24 6.25 6.25 0 0 0 -1.33-1.26 6.43 6.43 0 0 1 -1.14-1 1.78 1.78 0 0 1 -.37-.74h.14a.49.49 0 0 0 .42-.54v-2.67a.67.67 0 0 0 -.12-.39.39.39 0 0 0 -.3-.16h-6.79z" fill="#ffde00" fill-rule="evenodd"></path>
  <path d="m412.73 226.44a.51.51 0 0 0 -.38.54v2.68a.49.49 0 0 0 .43.54h.11a1.76 1.76 0 0 1 -.38.73 6 6 0 0 1 -1.14 1 5.75 5.75 0 0 0 -1.33 1.25 3.91 3.91 0 0 0 -.7 2.25v12.51a2.17 2.17 0 0 0 1.84 2.37h9.82a2.17 2.17 0 0 0 1.85-2.37v-12.48a4 4 0 0 0 -.69-2.24 6.25 6.25 0 0 0 -1.33-1.26 6.43 6.43 0 0 1 -1.14-1 1.78 1.78 0 0 1 -.37-.74h.14a.49.49 0 0 0 .42-.54v-2.67a.67.67 0 0 0 -.12-.39.39.39 0 0 0 -.3-.16h-6.79z" fill="#ffde00" fill-rule="evenodd"></path>
  <path d="m389.51 208.26h8.64v218.26h-8.64z" fill="#ffde00"></path>
  <path d="m290.12 208.26h8.64v218.26h-8.64z" fill="#ffde00"></path>
  <path d="m462.43 106.37v13.32h-43.75v-13.32h-49.22v13.32h-43.74v-13.32h-47.12v13.32h-43.75v-13.32h-49.22v13.32h-43.74v-13.32h-51.82v69.11h424.17v-69.11z" fill="#ffde00"></path>
  <path d="m117.3 208.26h165.4v103.62h-165.4z" fill="#00ab81"></path>
  <path d="m212.27 375.22h33.33v50.87h-33.33z" fill="#00ab81"></path>
  <path d="m251.38 375.22h33.33v50.87h-33.33z" fill="#00ab81"></path>
  <path d="m116.09 375.22h33.33v50.87h-33.33z" fill="#00ab81"></path>
  <path d="m155.2 375.22h33.33v50.87h-33.33z" fill="#00ab81"></path>
  <path d="m411.24 411.26h9.29v-16l-2.42-7.5v-6.16h-4.52v6.16l-2.42 7.5z" fill="#00ab81"></path>
  <path d="m428 411.26h9.3v-16l-2.42-7.5v-6.16h-4.52v6.16l-2.42 7.5z" fill="#00ab81"></path>
  <path d="m449.87 297.19h9.29v-16l-2.42-7.5v-6.19h-4.51v6.16l-2.43 7.5z" fill="#00ab81"></path>
  <path d="m466.6 297.19h9.29v-16l-2.42-7.5v-6.19h-4.47v6.16l-2.43 7.5z" fill="#00ab81"></path>
  <path d="m90.07 175.48h424.17v32.78h-424.17z" fill="#fb715d"></path>
  <path d="m84.45 97.42v8.95h57.44v-1.86h43.74v1.86h49.22v-1.86h43.75v1.86h47.12v-1.86h43.74v1.86h49.22v-1.86h43.75v1.86h57.43v-8.95z" fill="#fb715d"></path>
  <path d="m141.89 104.51h43.75v15.19h-43.75z" fill="#fb715d"></path>
  <path d="m234.85 104.51h43.75v15.19h-43.75z" fill="#fb715d"></path>
  <path d="m325.72 104.51h43.75v15.19h-43.75z" fill="#fb715d"></path>
  <path d="m418.68 104.51h43.75v15.19h-43.75z" fill="#fb715d"></path>
  <path d="m298.76 208.26v50h90.75v-50zm81.38 40.63h-72v-31.25h72z" fill="#fb715d"></path>
  <path d="m414.69 314.29h25.43v19.79h-25.43z" fill="#fb715d"></path>
  <path d="m456.61 230.52h25.43v19.79h-25.43z" fill="#fb715d"></path>
  <path d="m478.74 426.53h-94.04v11.78h109.46v-11.78h-6.03" fill="#fb715d"></path>
  <path d="m110.16 426.53v11.78h193.46v-11.78zm80.28 11.27h-66v-5.38h66z" fill="#fb715d"></path>
  <g fill="#1c19a8">
    <path d="m389.51 477.33h-90.75a1.4 1.4 0 0 1 -1.4-1.4v-37.62a1.4 1.4 0 0 1 1.4-1.4h3.45v-9h-3.45a1.4 1.4 0 0 1 -1.4-1.4v-168.25a1.4 1.4 0 0 1 1.4-1.4h90.75a1.41 1.41 0 0 1 1.41 1.4v168.27a1.41 1.41 0 0 1 -1.41 1.4h-3.41v9h3.4a1.56 1.56 0 0 1 1 .41 1.43 1.43 0 0 1 .41 1v37.63a1.41 1.41 0 0 1 -1.4 1.36zm-89.34-2.81h87.94v-34.8h-3.4a1.4 1.4 0 0 1 -1.41-1.41v-11.8a1.41 1.41 0 0 1 1.41-1.41h3.41v-165.43h-87.95v165.45h3.45a1.41 1.41 0 0 1 1.4 1.41v11.78a1.41 1.41 0 0 1 -1.4 1.41h-3.45zm78.55-22.84h-69.17a1.4 1.4 0 0 1 -1.4-1.4v-181.22a1.41 1.41 0 0 1 1.4-1.41h69.17a1.41 1.41 0 0 1 1.4 1.41v83.49a1.41 1.41 0 0 1 -1.4 1.41h-9.84v26.27h9.84a1.41 1.41 0 0 1 1.4 1.41v68.64a1.4 1.4 0 0 1 -1.4 1.4zm-67.72-2.81h66.35v-65.87h-9.84a1.4 1.4 0 0 1 -1.4-1.4v-29.05a1.41 1.41 0 0 1 1.4-1.41h9.84v-80.68h-66.35z"></path>
    <path d="m474.25 372.37h-9.86a3.54 3.54 0 0 1 -3.24-3.77v-12.5a5.46 5.46 0 0 1 1-3.07 7.21 7.21 0 0 1 1.62-1.55c.2-.14.4-.29.57-.43a1.92 1.92 0 0 1 -.14-.72v-2.68a1.89 1.89 0 0 1 1.56-1.92h.21 6.79a2.28 2.28 0 0 1 1.4.69 2.09 2.09 0 0 1 .41 1.29v2.65a2.15 2.15 0 0 1 -.14.73 5.71 5.71 0 0 0 .47.39 7.65 7.65 0 0 1 1.68 1.61 5.32 5.32 0 0 1 .95 3v12.5a3.54 3.54 0 0 1 -3.28 3.78zm-7.25-22.55.18.19a1.44 1.44 0 0 1 .31 1.19 3.26 3.26 0 0 1 -.63 1.26 7.65 7.65 0 0 1 -1.41 1.25 4.46 4.46 0 0 0 -1 1 2.53 2.53 0 0 0 -.44 1.46v12.43c0 .63.34 1 .45 1h9.86c.11 0 .45-.36.45-1v-12.48a2.41 2.41 0 0 0 -.42-1.42 4.77 4.77 0 0 0 -1-1 7.6 7.6 0 0 1 -1.41-1.27 3.37 3.37 0 0 1 -.62-1.26 1.41 1.41 0 0 1 .25-1.19 1.69 1.69 0 0 1 .28-.26v-1.22h-4.85z"></path>
    <path d="m452.65 372.37h-9.86a3.54 3.54 0 0 1 -3.24-3.77v-12.5a5.31 5.31 0 0 1 1-3.07 7.13 7.13 0 0 1 1.61-1.54c.19-.14.4-.29.57-.44a2.14 2.14 0 0 1 -.13-.72v-2.68a1.9 1.9 0 0 1 1.56-1.92h.21 6.78a2.26 2.26 0 0 1 1.4.69 2.07 2.07 0 0 1 .42 1.26v2.68a1.94 1.94 0 0 1 -.14.73c.16.15.34.29.52.43a7.23 7.23 0 0 1 1.64 1.57 5.32 5.32 0 0 1 .95 3v12.5a3.54 3.54 0 0 1 -3.29 3.78zm-7.3-22.54a.77.77 0 0 1 .18.18 1.41 1.41 0 0 1 .32 1.19 3.14 3.14 0 0 1 -.65 1.27 7.34 7.34 0 0 1 -1.39 1.24 4.49 4.49 0 0 0 -1 1 2.53 2.53 0 0 0 -.44 1.46v12.43c0 .63.34 1 .45 1h9.86c.11 0 .45-.36.45-1v-12.48a2.48 2.48 0 0 0 -.42-1.42 4.61 4.61 0 0 0 -1-1 7.73 7.73 0 0 1 -1.4-1.27 3.23 3.23 0 0 1 -.63-1.28 1.43 1.43 0 0 1 .27-1.18 1.54 1.54 0 0 1 .26-.25v-1.22h-4.8z"></path>
    <path d="m440.66 251.7h-9.86a3.53 3.53 0 0 1 -3.23-3.76v-12.5a5.31 5.31 0 0 1 1-3.07 7 7 0 0 1 1.63-1.55l.56-.44a1.89 1.89 0 0 1 -.14-.72v-2.66a1.9 1.9 0 0 1 1.57-1.92h7a2.22 2.22 0 0 1 1.4.7 2 2 0 0 1 .41 1.22v2.68a2 2 0 0 1 -.14.74c.16.14.33.27.5.4a7.9 7.9 0 0 1 1.64 1.58 5.37 5.37 0 0 1 .95 3v12.51a3.53 3.53 0 0 1 -3.29 3.79zm-7.29-22.54.18.19a1.42 1.42 0 0 1 .31 1.18 3.12 3.12 0 0 1 -.65 1.28 7.17 7.17 0 0 1 -1.39 1.24 4.73 4.73 0 0 0 -1 .95 2.48 2.48 0 0 0 -.43 1.45v12.49c0 .63.34 1 .45 1h9.86c.11 0 .46-.36.46-1v-12.48a2.55 2.55 0 0 0 -.43-1.44 4.81 4.81 0 0 0 -1-1 7.43 7.43 0 0 1 -1.4-1.26 3.11 3.11 0 0 1 -.62-1.28 1.38 1.38 0 0 1 .26-1.18 1.52 1.52 0 0 1 .26-.25v-1.26h-4.79z"></path>
    <path d="m421 251.7h-9.86a3.54 3.54 0 0 1 -3.24-3.76v-12.5a5.45 5.45 0 0 1 1-3.08 7.37 7.37 0 0 1 1.62-1.54c.2-.15.4-.3.56-.44a2.09 2.09 0 0 1 -.13-.72v-2.66a1.9 1.9 0 0 1 1.57-1.92h7a2.22 2.22 0 0 1 1.4.7 2 2 0 0 1 .41 1.24v2.68a2.26 2.26 0 0 1 -.13.74c.16.15.33.28.51.42a7.26 7.26 0 0 1 1.64 1.58 5.29 5.29 0 0 1 .95 3v12.5a3.54 3.54 0 0 1 -3.3 3.76zm-7.29-22.54a1.66 1.66 0 0 1 .18.19 1.42 1.42 0 0 1 .31 1.18 3.12 3.12 0 0 1 -.65 1.28 7.17 7.17 0 0 1 -1.39 1.24 4.44 4.44 0 0 0 -1 .94 2.46 2.46 0 0 0 -.44 1.46v12.49c0 .62.34 1 .45 1h9.83c.11 0 .45-.36.45-1v-12.48a2.42 2.42 0 0 0 -.42-1.43 4.81 4.81 0 0 0 -1-1 7.3 7.3 0 0 1 -1.39-1.26 3.23 3.23 0 0 1 -.64-1.28 1.42 1.42 0 0 1 .27-1.18 1.66 1.66 0 0 1 .27-.26v-1.25h-4.8z"></path>
    <path d="m420.53 412.65h-9.29a1.39 1.39 0 0 1 -1.39-1.39v-16a1.31 1.31 0 0 1 .07-.44l2.36-7.29v-5.94a1.39 1.39 0 0 1 .41-1 1.34 1.34 0 0 1 1-.41h4.52a1.34 1.34 0 0 1 1 .41 1.39 1.39 0 0 1 .41 1v5.94l2.36 7.29a1.61 1.61 0 0 1 .06.44v16a1.4 1.4 0 0 1 -1.51 1.39zm-7.9-2.78h6.52v-14.42l-2.36-7.29a1.59 1.59 0 0 1 -.06-.43v-4.73h-1.73v4.77a1.29 1.29 0 0 1 -.07.43l-2.35 7.29z"></path>
    <path d="m437.27 412.65h-9.27a1.39 1.39 0 0 1 -1.39-1.39v-16a1.61 1.61 0 0 1 .06-.44l2.36-7.29v-5.94a1.38 1.38 0 0 1 1.39-1.39h4.52a1.34 1.34 0 0 1 1 .41 1.39 1.39 0 0 1 .41 1v5.94l2.35 7.29a1.31 1.31 0 0 1 .07.44v16a1.39 1.39 0 0 1 -1.5 1.37zm-7.91-2.78h6.52v-14.42l-2.35-7.29a1.29 1.29 0 0 1 -.07-.43v-4.73h-1.73v4.77a1.29 1.29 0 0 1 -.07.43l-2.35 7.29z"></path>
    <path d="m440.12 335.47h-25.43a1.4 1.4 0 0 1 -1.4-1.39v-19.79a1.4 1.4 0 0 1 1.4-1.39h25.43a1.39 1.39 0 0 1 1.39 1.39v19.79a1.39 1.39 0 0 1 -1.39 1.39zm-24-2.78h22.64v-17h-22.68z"></path>
    <path d="m482 251.7h-25.39a1.4 1.4 0 0 1 -1.4-1.39v-19.79a1.4 1.4 0 0 1 1.4-1.39h25.39a1.39 1.39 0 0 1 1.39 1.39v19.79a1.39 1.39 0 0 1 -1.39 1.39zm-24-2.78h22.64v-17h-22.64z"></path>
    <path d="m486.73 250.31h2.81v175.78h-2.81z"></path>
    <path d="m404.18 407.87h83.96v5.25h-83.96z"></path>
    <path d="m489.54 414.53h-86.77v-8.06h86.77zm-84-2.81h81.14v-2.44h-81.09z"></path>
    <path d="m404.18 370.98h83.96v5.25h-83.96z"></path>
    <path d="m489.54 377.64h-86.77v-8.07h86.77zm-84-2.81h81.14v-2.45h-81.09z"></path>
    <path d="m404.18 334.08h83.96v5.25h-83.96z"></path>
    <path d="m489.54 340.74h-86.77v-8.06h86.77zm-84-2.81h81.14v-2.44h-81.09z"></path>
    <path d="m404.18 297.19h83.96v5.25h-83.96z"></path>
    <path d="m489.54 303.85h-86.77v-8.07h86.77zm-84-2.81h81.14v-2.45h-81.09z"></path>
    <path d="m404.18 250.31h83.96v5.25h-83.96z"></path>
    <path d="m489.54 257h-86.77v-8.06h86.77zm-84-2.81h81.14v-2.44h-81.09z"></path>
    <path d="m402.77 250.31h2.81v176.22h-2.81z"></path>
    <path d="m376.21 360.45h149.29v2.82h-149.29z" transform="matrix(.49954648 -.86628708 .86628708 .49954648 -87.83 571.69)"></path>
    <path d="m440.05 287.21h2.82v149.29h-2.82z" transform="matrix(.86637426 -.49939528 .49939528 .86637426 -121.72 268.82)"></path>
    <path d="m459.16 298.58h-9.29a1.39 1.39 0 0 1 -1.39-1.39v-16a1.2 1.2 0 0 1 .07-.42l2.36-7.3v-5.97a1.42 1.42 0 0 1 .4-1 1.4 1.4 0 0 1 1-.4h4.51a1.4 1.4 0 0 1 1 .4 1.43 1.43 0 0 1 .41 1v5.94l2.35 7.3a1.2 1.2 0 0 1 .07.42v16a1.39 1.39 0 0 1 -1.49 1.42zm-7.9-2.78h6.51v-14.42l-2.36-7.3a1.54 1.54 0 0 1 -.06-.43v-4.76h-1.73v4.76a1.25 1.25 0 0 1 -.07.43l-2.36 7.3z"></path>
    <path d="m475.89 298.58h-9.29a1.39 1.39 0 0 1 -1.39-1.39v-16a1.54 1.54 0 0 1 .07-.42l2.35-7.3v-5.97a1.43 1.43 0 0 1 .41-1 1.38 1.38 0 0 1 1-.4h4.51a1.4 1.4 0 0 1 1 .4 1.43 1.43 0 0 1 .41 1v5.94l2.35 7.3a1.2 1.2 0 0 1 .07.42v16a1.4 1.4 0 0 1 -1.49 1.42zm-7.89-2.78h6.52v-14.42l-2.36-7.3a1.55 1.55 0 0 1 -.07-.43v-4.76h-1.73v4.77a1.54 1.54 0 0 1 -.07.42l-2.35 7.3z"></path>
    <path d="m282.69 313.29h-165.39a1.41 1.41 0 0 1 -1.41-1.4v-103.63a1.41 1.41 0 0 1 1.41-1.4h165.39a1.41 1.41 0 0 1 1.41 1.4v103.63a1.41 1.41 0 0 1 -1.41 1.4zm-164-2.81h162.6v-100.81h-162.59z"></path>
    <path d="m282.8 316.16h-164.8a4.27 4.27 0 1 1 0-8.54h164.8a4.27 4.27 0 1 1 0 8.54zm-164.8-5.73a1.46 1.46 0 0 0 0 2.92h164.8a1.46 1.46 0 0 0 0-2.92z"></path>
    <path d="m245.6 427.5h-33.33a1.41 1.41 0 0 1 -1.41-1.41v-50.87a1.41 1.41 0 0 1 1.41-1.41h33.33a1.41 1.41 0 0 1 1.4 1.41v50.87a1.41 1.41 0 0 1 -1.4 1.41zm-31.93-2.81h30.52v-48.07h-30.52z"></path>
    <path d="m284.71 427.5h-33.33a1.41 1.41 0 0 1 -1.4-1.41v-50.87a1.41 1.41 0 0 1 1.4-1.41h33.33a1.41 1.41 0 0 1 1.4 1.41v50.87a1.41 1.41 0 0 1 -1.4 1.41zm-31.92-2.81h30.51v-48.07h-30.51z"></path>
    <path d="m149.42 427.5h-33.33a1.41 1.41 0 0 1 -1.4-1.41v-50.87a1.41 1.41 0 0 1 1.4-1.41h33.33a1.41 1.41 0 0 1 1.4 1.41v50.87a1.41 1.41 0 0 1 -1.4 1.41zm-31.92-2.81h30.5v-48.07h-30.5z"></path>
    <path d="m188.53 427.5h-33.33a1.41 1.41 0 0 1 -1.4-1.41v-50.87a1.41 1.41 0 0 1 1.4-1.41h33.33a1.41 1.41 0 0 1 1.41 1.41v50.87a1.41 1.41 0 0 1 -1.41 1.41zm-31.92-2.81h30.51v-48.07h-30.51z"></path>
    <path d="m326.89 458.03h34.49v10.13h-34.49z"></path>
    <path d="m361.38 469.57h-34.49a1.41 1.41 0 0 1 -1.41-1.4v-10.17a1.41 1.41 0 0 1 1.41-1.4h34.49a1.41 1.41 0 0 1 1.41 1.4v10.14a1.41 1.41 0 0 1 -1.41 1.43zm-33.08-2.81h31.7v-7.32h-31.7z"></path>
    <path d="m380.14 250.29h-72a1.41 1.41 0 0 1 -1.41-1.4v-31.25a1.41 1.41 0 0 1 1.41-1.41h72a1.41 1.41 0 0 1 1.4 1.41v31.25a1.4 1.4 0 0 1 -1.4 1.4zm-70.6-2.81h69.19v-28.43h-69.19z"></path>
    <path d="m389.51 259.67h-90.75a1.41 1.41 0 0 1 -1.4-1.41v-50a1.4 1.4 0 0 1 1.4-1.4h90.75a1.41 1.41 0 0 1 1.41 1.4v50a1.41 1.41 0 0 1 -1.41 1.41zm-89.34-2.81h87.94v-47.19h-87.94zm80-6.57h-72a1.41 1.41 0 0 1 -1.41-1.4v-31.25a1.41 1.41 0 0 1 1.41-1.41h72a1.41 1.41 0 0 1 1.4 1.41v31.25a1.4 1.4 0 0 1 -1.43 1.4zm-70.6-2.81h69.19v-28.43h-69.22z"></path>
    <path d="m110.16 477.33h-12.11a1.41 1.41 0 0 1 -1.41-1.4v-267.67a1.41 1.41 0 0 1 1.41-1.4h12.11a1.4 1.4 0 0 1 1.4 1.4v267.67a1.4 1.4 0 0 1 -1.4 1.4zm-10.7-2.81h9.29v-264.85h-9.29z"></path>
    <path d="m514.24 491.86h-434.1a1.4 1.4 0 0 1 -1.4-1.4v-14.53a1.41 1.41 0 0 1 1.4-1.41h434.1a1.41 1.41 0 0 1 1.41 1.41v14.53a1.41 1.41 0 0 1 -1.41 1.4zm-432.69-2.81h431.28v-11.72h-431.28z"></path>
    <path d="m398.16 427.93h-8.65a1.4 1.4 0 0 1 -1.4-1.4v-218.27a1.4 1.4 0 0 1 1.4-1.4h8.65a1.4 1.4 0 0 1 1.4 1.4v218.27a1.4 1.4 0 0 1 -1.4 1.4zm-7.24-2.81h5.83v-215.45h-5.83z"></path>
    <path d="m298.76 427.93h-8.64a1.41 1.41 0 0 1 -1.41-1.4v-218.27a1.41 1.41 0 0 1 1.41-1.4h8.64a1.41 1.41 0 0 1 1.41 1.4v218.27a1.41 1.41 0 0 1 -1.41 1.4zm-7.23-2.81h5.83v-215.45h-5.83z"></path>
    <path d="m204.72 427.93h-8.64a1.41 1.41 0 0 1 -1.41-1.4v-112.24a1.41 1.41 0 0 1 1.41-1.4h8.64a1.41 1.41 0 0 1 1.41 1.4v112.24a1.41 1.41 0 0 1 -1.41 1.4zm-7.24-2.81h5.84v-109.42h-5.84z"></path>
    <path d="m506.27 477.33h-12.11a1.41 1.41 0 0 1 -1.41-1.4v-267.67a1.41 1.41 0 0 1 1.41-1.4h12.11a1.4 1.4 0 0 1 1.4 1.4v267.67a1.4 1.4 0 0 1 -1.4 1.4zm-10.71-2.81h9.3v-264.85h-9.3z"></path>
    <path d="m514.24 209.67h-424.17a1.41 1.41 0 0 1 -1.4-1.41v-32.78a1.41 1.41 0 0 1 1.4-1.41h424.17a1.41 1.41 0 0 1 1.41 1.41v32.78a1.41 1.41 0 0 1 -1.41 1.41zm-422.76-2.81h421.35v-30h-421.35z"></path>
    <path d="m494.16 477.33h-104.65a1.4 1.4 0 0 1 -1.4-1.4v-37.62a1.4 1.4 0 0 1 1.4-1.4h104.65a1.4 1.4 0 0 1 1.4 1.4v37.62a1.4 1.4 0 0 1 -1.4 1.4zm-103.24-2.81h101.83v-34.8h-101.83z"></path>
    <path d="m478.74 425.12h9.4v2.81h-9.4z"></path>
    <path d="m494.16 439.72h-109.46a1.41 1.41 0 0 1 -1.41-1.41v-11.78a1.41 1.41 0 0 1 1.41-1.41h94v2.81h-92.6v9h106.65v-9h-4.62v-2.81h6a1.41 1.41 0 0 1 1.4 1.41v11.78a1.41 1.41 0 0 1 -1.37 1.41z"></path>
    <path d="m298.58 477.33h-188.42a1.41 1.41 0 0 1 -1.41-1.4v-37.62a1.41 1.41 0 0 1 1.41-1.4h188.42a1.4 1.4 0 0 1 1.4 1.4v37.62a1.4 1.4 0 0 1 -1.4 1.4zm-187-2.81h185.59v-34.8h-185.61z"></path>
    <path d="m303.62 439.72h-193.46a1.41 1.41 0 0 1 -1.41-1.41v-11.78a1.41 1.41 0 0 1 1.41-1.41h193.46a1.41 1.41 0 0 1 1.4 1.41v11.78a1.41 1.41 0 0 1 -1.4 1.41zm-111.77-2.81h110.36v-9h-190.65v9h11.49v-4.49a1.41 1.41 0 0 1 1.41-1.41h66a1.41 1.41 0 0 1 1.41 1.41zm-66-.52h63.15v-2.56h-63.13z"></path>
    <path d="m514.24 176.89h-424.17a1.41 1.41 0 0 1 -1.4-1.41v-69.11a1.41 1.41 0 0 1 1.4-1.41h51.82a1.41 1.41 0 0 1 1.4 1.41v11.92h40.94v-11.92a1.41 1.41 0 0 1 1.4-1.41h49.22a1.41 1.41 0 0 1 1.41 1.41v11.92h40.93v-11.92a1.41 1.41 0 0 1 1.4-1.41h47.13a1.41 1.41 0 0 1 1.41 1.41v11.92h40.93v-11.92a1.41 1.41 0 0 1 1.4-1.41h49.22a1.41 1.41 0 0 1 1.41 1.41v11.92h40.91v-11.92a1.41 1.41 0 0 1 1.41-1.41h51.81a1.41 1.41 0 0 1 1.41 1.41v69.11a1.41 1.41 0 0 1 -1.39 1.41zm-422.76-2.82h421.35v-66.3h-49v11.92a1.41 1.41 0 0 1 -1.4 1.41h-43.75a1.41 1.41 0 0 1 -1.4-1.41v-11.92h-46.41v11.92a1.41 1.41 0 0 1 -1.41 1.41h-43.74a1.41 1.41 0 0 1 -1.41-1.41v-11.92h-44.31v11.92a1.41 1.41 0 0 1 -1.41 1.41h-43.74a1.41 1.41 0 0 1 -1.41-1.41v-11.92h-46.44v11.92a1.41 1.41 0 0 1 -1.41 1.41h-43.7a1.41 1.41 0 0 1 -1.41-1.41v-11.92h-49z"></path>
    <path d="m150.85 139.63a6.71 6.71 0 0 0 -.15-1.6 1.81 1.81 0 0 0 -.51-.9 2 2 0 0 0 -.93-.44 11.14 11.14 0 0 0 -1.46-.18.39.39 0 0 1 -.33-.19.82.82 0 0 1 -.11-.39.67.67 0 0 1 .11-.37.37.37 0 0 1 .33-.17h2.34 1.62c.55 0 1.05 0 1.51.06a11.19 11.19 0 0 1 1.13.14c.31.06.48.13.53.22l6.9 16.2c0 .07.08.1.13.1a.19.19 0 0 0 .17-.1l6.79-16.2c0-.09.31-.16.87-.22s1.2-.1 1.93-.14l2.25-.08h1.81a.28.28 0 0 1 .29.17.75.75 0 0 1 .09.37.7.7 0 0 1 -.11.37.38.38 0 0 1 -.27.21c-.77.13-1.37.26-1.8.37a1.55 1.55 0 0 0 -.95.63 2.78 2.78 0 0 0 -.37 1.34c0 .59-.07 1.43-.07 2.51v12.56a8.67 8.67 0 0 0 .14 1.74 1.79 1.79 0 0 0 .49 1 2.09 2.09 0 0 0 1 .49 12.16 12.16 0 0 0 1.66.26.44.44 0 0 1 .33.22.69.69 0 0 1 .12.39.61.61 0 0 1 -.12.37.4.4 0 0 1 -.36.17 24.07 24.07 0 0 1 -2.6-.13 22.54 22.54 0 0 0 -2.46-.14c-.86 0-1.75 0-2.67.14s-1.75.13-2.49.13a.33.33 0 0 1 -.31-.17.66.66 0 0 1 -.1-.37.76.76 0 0 1 .1-.39.39.39 0 0 1 .31-.22 11.55 11.55 0 0 0 1.68-.26 2 2 0 0 0 1-.49 1.72 1.72 0 0 0 .48-1 9.8 9.8 0 0 0 .12-1.74v-12.61c0-.15-.09-.23-.27-.22s-.3.09-.34.22l-4.89 11.52c-.34.79-.68 1.66-1 2.6s-.66 1.88-1 2.83a.27.27 0 0 1 -.19.15.87.87 0 0 1 -.32.06.92.92 0 0 1 -.33-.06.24.24 0 0 1 -.18-.15l-7.47-17.11a.34.34 0 0 0 -.29-.21c-.15 0-.22.06-.22.24v12.63a6.87 6.87 0 0 0 .2 1.91 2 2 0 0 0 .6 1 2.05 2.05 0 0 0 1 .46c.39.08.84.15 1.36.22a.33.33 0 0 1 .25.21.81.81 0 0 1 0 .74.28.28 0 0 1 -.28.17 11.14 11.14 0 0 1 -1.65-.13 14.46 14.46 0 0 0 -2.12-.14 17.41 17.41 0 0 0 -2.3.14 12.64 12.64 0 0 1 -1.68.13.3.3 0 0 1 -.27-.17.9.9 0 0 1 -.12-.37.59.59 0 0 1 .09-.37.43.43 0 0 1 .3-.21c.59-.07 1.08-.14 1.48-.22a1.85 1.85 0 0 0 .95-.46 1.89 1.89 0 0 0 .51-1 9.41 9.41 0 0 0 .15-1.91z"></path>
    <path d="m175.85 159.92a26.91 26.91 0 0 1 -2.75-.14 22.37 22.37 0 0 0 -4.84 0c-1 .09-1.85.14-2.63.14h-.81l-.71-.86a2.12 2.12 0 0 1 -.3-1.09 2.19 2.19 0 0 1 .29-1.08 1.77 1.77 0 0 1 1.3-.92 12.07 12.07 0 0 0 1.58-.23.89.89 0 0 0 .35-.15 7.14 7.14 0 0 0 .15-1.69v-7.15l-2.8 6.61c-.33.77-.65 1.6-1 2.51s-.64 1.88-1 2.82l-.23.67-.86.37a2.31 2.31 0 0 1 -.75.12l-.78-.12a1.65 1.65 0 0 1 -1.07-1l-5.24-12v7.1a5.21 5.21 0 0 0 .15 1.5 1 1 0 0 0 .16.35.77.77 0 0 0 .34.16c.35.07.77.13 1.25.2l.75.1.59.87a2.23 2.23 0 0 1 .23 1 2.11 2.11 0 0 1 -.25 1l-.39.76-1.14.17a12.88 12.88 0 0 1 -1.86-.15 16.89 16.89 0 0 0 -4 0 14.32 14.32 0 0 1 -1.87.15h-.71l-.68-.86a2.32 2.32 0 0 1 -.31-.94 2.12 2.12 0 0 1 .28-1.25 1.8 1.8 0 0 1 1.27-.86c.63-.08 1.08-.14 1.45-.22l.36-.41a7.9 7.9 0 0 0 .12-1.59v-14.18a4.9 4.9 0 0 0 -.11-1.23l-.11-1.6-.26 1.27a10.55 10.55 0 0 0 -1.28-.16 1.48 1.48 0 0 1 -1.4-.83 2.16 2.16 0 0 1 -.34-1.15 2 2 0 0 1 .36-1.16 1.8 1.8 0 0 1 1.49-.79l4 .05c.59 0 1.12 0 1.59.07a10.75 10.75 0 0 1 1.29.16 2 2 0 0 1 1.52 1l5.8 13.62 5.65-13.51c.19-.89 1.38-1 2-1.08s1.25-.1 2-.14 1.5-.06 2.26-.09h1.86.88l.68 1a2.39 2.39 0 0 1 .22 1 2.16 2.16 0 0 1 -.31 1.11l-.32.53-.88.32c-.74.13-1.31.24-1.71.35-.14 0-.24.21-.28.71s-.07 1.37-.07 2.41v12.41a6.83 6.83 0 0 0 .11 1.44.51.51 0 0 0 .45.4 11.42 11.42 0 0 0 1.42.26 1.94 1.94 0 0 1 1.37.86 2.15 2.15 0 0 1 .34 1.15 2 2 0 0 1 -.38 1.19 1.83 1.83 0 0 1 -1.48.72zm-15.76-2.14a0 0 0 0 0 0 0 0 0 0 0 1 0 0zm9-18.15.66.48a1.57 1.57 0 0 1 .51 1.18v12.61a11.28 11.28 0 0 1 -.15 2 3.36 3.36 0 0 1 -.32.94h1.84a3.56 3.56 0 0 1 -.32-.92 10 10 0 0 1 -.17-2v-12.56c0-1.13 0-2 .07-2.61a4.35 4.35 0 0 1 .5-1.84c-.69 0-1.29.08-1.82.13l-1.09 2.61zm-16.87-.15.59.05a1.75 1.75 0 0 1 1.37 1.05l6.59 15.08.25-.72c.16-.47.33-.93.5-1.37h-.36l-.55-.74-6.73-15.83-.72-.07c-.43 0-.91-.06-1.43-.07a3.87 3.87 0 0 1 .33.84 7.28 7.28 0 0 1 .2 1.78zm17.35 2.25-.07.18a.67.67 0 0 0 .11-.18z"></path>
    <path d="m193.31 158.65c-3.56 0-6.34-1-8.36-3s-3-5-3-9a12.86 12.86 0 0 1 .85-4.75 11 11 0 0 1 2.36-3.74 10.59 10.59 0 0 1 3.62-2.43 12.22 12.22 0 0 1 4.65-.86 12 12 0 0 1 4.55.83 10.26 10.26 0 0 1 3.57 2.36 10.73 10.73 0 0 1 2.32 3.69 13.11 13.11 0 0 1 .84 4.8 14 14 0 0 1 -.9 5.21 11.12 11.12 0 0 1 -2.45 3.81 10.27 10.27 0 0 1 -3.62 2.34 12.2 12.2 0 0 1 -4.43.74zm.13-1.43a5 5 0 0 0 2.94-.88 7.57 7.57 0 0 0 2.16-2.33 11.38 11.38 0 0 0 1.34-3.32 16.39 16.39 0 0 0 .46-3.93 20.8 20.8 0 0 0 -.36-3.87 11.15 11.15 0 0 0 -1.17-3.38 6.72 6.72 0 0 0 -2.17-2.38 5.92 5.92 0 0 0 -3.33-.9 5.53 5.53 0 0 0 -3.18.92 7.24 7.24 0 0 0 -2.19 2.4 12 12 0 0 0 -1.26 3.36 18.08 18.08 0 0 0 -.4 3.82 22 22 0 0 0 .34 3.94 10.61 10.61 0 0 0 1.15 3.34 6.53 6.53 0 0 0 2.19 2.33 6.33 6.33 0 0 0 3.48.88z"></path>
    <path d="m193.31 160.05c-3.92 0-7.07-1.15-9.35-3.43s-3.44-5.65-3.44-10a14.39 14.39 0 0 1 .95-5.27 12.59 12.59 0 0 1 2.66-4.2 12 12 0 0 1 4.09-2.75 14.4 14.4 0 0 1 10.26 0 11.72 11.72 0 0 1 4.05 2.69 12.05 12.05 0 0 1 2.63 4.16 14.58 14.58 0 0 1 .93 5.31 15.39 15.39 0 0 1 -1 5.74 12.47 12.47 0 0 1 -2.75 4.27 11.7 11.7 0 0 1 -4.11 2.66 13.68 13.68 0 0 1 -4.92.82zm0-22.41a4.09 4.09 0 0 0 -2.38.67 5.7 5.7 0 0 0 -1.77 1.94 10.17 10.17 0 0 0 -1.1 3 16.57 16.57 0 0 0 -.38 3.52 21.11 21.11 0 0 0 .32 3.69 9 9 0 0 0 1 2.9 5.07 5.07 0 0 0 1.72 1.84 4.8 4.8 0 0 0 4.86 0 6.33 6.33 0 0 0 1.76-1.9 10.2 10.2 0 0 0 1.17-2.93 15 15 0 0 0 .42-3.59 19.63 19.63 0 0 0 -.33-3.61 10.12 10.12 0 0 0 -1-3 5.2 5.2 0 0 0 -1.72-1.88 4.48 4.48 0 0 0 -2.57-.65zm-6.19.58a8 8 0 0 0 -1 .86 9.54 9.54 0 0 0 -2.06 3.27 11.59 11.59 0 0 0 -.75 4.24c0 3.6.88 6.31 2.61 8a8.84 8.84 0 0 0 1.2 1 7.39 7.39 0 0 1 -.6-.93 12.07 12.07 0 0 1 -1.32-3.78 24 24 0 0 1 -.36-4.19 19.68 19.68 0 0 1 .44-4.12 13 13 0 0 1 1.41-3.76 6.73 6.73 0 0 1 .43-.59zm12.55 0c.13.2.26.4.37.61a12.64 12.64 0 0 1 1.32 3.8 22.58 22.58 0 0 1 .38 4.13 17.94 17.94 0 0 1 -.5 4.26 13 13 0 0 1 -1.5 3.73 7.66 7.66 0 0 1 -.45.66 7.55 7.55 0 0 0 1.05-.9 9.7 9.7 0 0 0 2.14-3.33 12.69 12.69 0 0 0 .8-4.69 11.93 11.93 0 0 0 -.74-4.3 9.34 9.34 0 0 0 -2-3.21 8.85 8.85 0 0 0 -.87-.76z"></path>
    <path d="m222.21 153.9a11.28 11.28 0 0 0 .1 1.74 1.64 1.64 0 0 0 .46 1 2.09 2.09 0 0 0 1 .49 12.12 12.12 0 0 0 1.74.26.44.44 0 0 1 .32.22.69.69 0 0 1 .12.39.61.61 0 0 1 -.12.37.4.4 0 0 1 -.36.17 24.2 24.2 0 0 1 -2.6-.13 22.54 22.54 0 0 0 -2.46-.14c-.86 0-1.75 0-2.66.14s-1.75.13-2.5.13a.33.33 0 0 1 -.31-.17.76.76 0 0 1 -.1-.37.87.87 0 0 1 .1-.39.39.39 0 0 1 .31-.22 11.55 11.55 0 0 0 1.68-.26 2 2 0 0 0 1-.49 1.72 1.72 0 0 0 .48-1 9.8 9.8 0 0 0 .12-1.74v-15.09c0-.83-.21-1.36-.63-1.57a4.92 4.92 0 0 0 -2.12-.33 9.73 9.73 0 0 0 -2.07.19 2.93 2.93 0 0 0 -1.35.68 3.42 3.42 0 0 0 -.84 1.34 13.57 13.57 0 0 0 -.6 2.21.33.33 0 0 1 -.22.27.81.81 0 0 1 -.37.05.66.66 0 0 1 -.34-.12.29.29 0 0 1 -.16-.24 23.77 23.77 0 0 0 .16-2.56 17.37 17.37 0 0 0 -.16-2.6q0-.37.48-.51a3.87 3.87 0 0 1 1.05-.13h18.17a4 4 0 0 1 1.07.12.5.5 0 0 1 .43.49 9.83 9.83 0 0 0 -.12 1v1.31s0 1 0 1.46.07 1 .12 1.42a.33.33 0 0 1 -.17.26.88.88 0 0 1 -.38.14.89.89 0 0 1 -.39-.06.33.33 0 0 1 -.22-.27 10.6 10.6 0 0 0 -.54-2.22 3.52 3.52 0 0 0 -.9-1.36 3.09 3.09 0 0 0 -1.38-.68 9 9 0 0 0 -1.93-.19 5.4 5.4 0 0 0 -2.21.33c-.45.21-.68.74-.68 1.57z"></path>
    <path d="m225.47 159.92a24.14 24.14 0 0 1 -2.75-.15 24.47 24.47 0 0 0 -4.84 0c-1 .09-1.84.14-2.63.14h-.78l-.72-.83a2.11 2.11 0 0 1 -.31-1.12 2.15 2.15 0 0 1 .26-1.05 1.85 1.85 0 0 1 1.3-.91 12.07 12.07 0 0 0 1.58-.23 1 1 0 0 0 .35-.15 7.65 7.65 0 0 0 .15-1.69v-15.12a1.79 1.79 0 0 0 0-.43c-.11 0-.48-.06-1.3-.06a8.27 8.27 0 0 0 -1.76.15 1.48 1.48 0 0 0 -.7.34 2.12 2.12 0 0 0 -.49.81 12 12 0 0 0 -.53 2l-.15.78-1 .54a2.31 2.31 0 0 1 -1 .13 2.17 2.17 0 0 1 -1-.34l-.63-.42-.15-1c.09-.94.14-1.75.15-2.58a17.33 17.33 0 0 0 -.14-2.39 2 2 0 0 1 1.49-2 5.38 5.38 0 0 1 1.43-.19h18.17a5.2 5.2 0 0 1 1.46.18 1.86 1.86 0 0 1 1.44 1.84c-.06.47-.09.76-.12 1.12a11.12 11.12 0 0 0 0 1.19v1.35s.07 1 .11 1.4l.09.81-.84.73a2.15 2.15 0 0 1 -1.07.39 2.23 2.23 0 0 1 -1-.14l-.76-.28-.36-1.08a9.09 9.09 0 0 0 -.46-1.94 2.14 2.14 0 0 0 -.52-.81 1.55 1.55 0 0 0 -.76-.37 7.44 7.44 0 0 0 -1.62-.15 5.42 5.42 0 0 0 -1.48.14s0 .17 0 .35v15.02a10 10 0 0 0 .08 1.51c0 .19.13.26.4.33a11.71 11.71 0 0 0 1.54.22 1.92 1.92 0 0 1 1.37.86 2.13 2.13 0 0 1 .34 1.15 2 2 0 0 1 -.36 1.16 1.84 1.84 0 0 1 -1.48.79zm-6-23a3.78 3.78 0 0 1 .44 1.92v15.06a11.4 11.4 0 0 1 -.14 2 3.78 3.78 0 0 1 -.31.95h1.77a3.38 3.38 0 0 1 -.31-1 13.54 13.54 0 0 1 -.12-2v-15.04a3.66 3.66 0 0 1 .46-1.92z"></path>
    <path d="m253.9 145.88a1 1 0 0 0 .59-.14.65.65 0 0 0 .19-.54v-4.62a11.59 11.59 0 0 0 -.12-1.8 2.81 2.81 0 0 0 -.46-1.22 2.14 2.14 0 0 0 -1-.73 5.38 5.38 0 0 0 -1.68-.32.34.34 0 0 1 -.31-.19.94.94 0 0 1 -.1-.39.76.76 0 0 1 .1-.37.33.33 0 0 1 .31-.17c.72 0 1.55 0 2.48.1s1.8.1 2.62.1h1.34l1.22-.07 1.2-.07h1.33a.29.29 0 0 1 .29.17.74.74 0 0 1 .07.37 1.46 1.46 0 0 1 -.12.39.32.32 0 0 1 -.28.19 6.8 6.8 0 0 0 -1.69.28 2.07 2.07 0 0 0 -1 .68 2.71 2.71 0 0 0 -.44 1.21 14.21 14.21 0 0 0 -.1 1.9v13.26a8.67 8.67 0 0 0 .14 1.74 1.86 1.86 0 0 0 .49 1 2 2 0 0 0 1 .51 14.22 14.22 0 0 0 1.66.25.49.49 0 0 1 .33.21.63.63 0 0 1 0 .74.4.4 0 0 1 -.36.17 24.07 24.07 0 0 1 -2.6-.13 22.54 22.54 0 0 0 -2.46-.14c-.86 0-1.75 0-2.67.14s-1.75.13-2.49.13a.33.33 0 0 1 -.31-.17.73.73 0 0 1 0-.74.43.43 0 0 1 .31-.21 13.38 13.38 0 0 0 1.68-.25 2 2 0 0 0 1-.51 1.85 1.85 0 0 0 .48-1 9.8 9.8 0 0 0 .12-1.74v-5.64c0-.59-.25-.89-.75-.89h-10.13c-.5 0-.75.23-.75.68v5.85a8 8 0 0 0 .14 1.74 1.86 1.86 0 0 0 .49 1 2 2 0 0 0 1 .51 13.89 13.89 0 0 0 1.66.25.45.45 0 0 1 .32.21.63.63 0 0 1 0 .74.37.37 0 0 1 -.35.17 24.07 24.07 0 0 1 -2.6-.13 22.83 22.83 0 0 0 -2.46-.14c-.86 0-1.75 0-2.67.14s-1.75.13-2.5.13a.32.32 0 0 1 -.3-.17.73.73 0 0 1 0-.74.43.43 0 0 1 .3-.21 13.3 13.3 0 0 0 1.69-.25 2 2 0 0 0 1-.51 1.85 1.85 0 0 0 .48-1 9.8 9.8 0 0 0 .12-1.74v-13.32a11.59 11.59 0 0 0 -.12-1.8 2.81 2.81 0 0 0 -.46-1.22 2.14 2.14 0 0 0 -1-.73 5.38 5.38 0 0 0 -1.68-.32.35.35 0 0 1 -.31-.19.94.94 0 0 1 -.1-.39.76.76 0 0 1 .1-.37.34.34 0 0 1 .31-.17c.72 0 1.55 0 2.48.1s1.8.1 2.61.1q.72 0 1.35 0l1.22-.07 1.2-.07h1.33a.3.3 0 0 1 .29.17.65.65 0 0 1 .06.37 1.15 1.15 0 0 1 -.11.39.32.32 0 0 1 -.27.19 6.8 6.8 0 0 0 -1.7.28 2 2 0 0 0 -1 .68 2.59 2.59 0 0 0 -.44 1.21 14.21 14.21 0 0 0 -.1 1.9v4.62c0 .45.25.68.75.68z"></path>
    <path d="m261.64 159.92a26.76 26.76 0 0 1 -2.75-.14 22.37 22.37 0 0 0 -4.84 0c-1 .09-1.85.14-2.64.14h-.8l-.71-.86a2.12 2.12 0 0 1 -.3-1.09 2 2 0 0 1 .31-1.1 1.78 1.78 0 0 1 1.26-.86 13.19 13.19 0 0 0 1.59-.24l.32-.14a5.93 5.93 0 0 0 .19-1.73v-5.12h-8.84v5.12a6.68 6.68 0 0 0 .11 1.44c.14.32.24.38.44.43a11.91 11.91 0 0 0 1.48.22 2 2 0 0 1 1.34.81 2 2 0 0 1 0 2.36 1.79 1.79 0 0 1 -1.5.76 26.76 26.76 0 0 1 -2.75-.14 22.37 22.37 0 0 0 -4.84 0c-1 .09-1.85.14-2.64.14h-.8l-.71-.86a2.15 2.15 0 0 1 0-2.19 1.82 1.82 0 0 1 1.27-.86 13.19 13.19 0 0 0 1.59-.24l.32-.14a6.29 6.29 0 0 0 .19-1.73v-13.32a10.09 10.09 0 0 0 -.1-1.57 1.46 1.46 0 0 0 -.22-.63.64.64 0 0 0 -.35-.25 4.25 4.25 0 0 0 -1.24-.22 1.69 1.69 0 0 1 -1.43-.9 2.22 2.22 0 0 1 -.29-1.08 2.17 2.17 0 0 1 .3-1.08c.75-1.23 2.33-.89 4.1-.77a29 29 0 0 0 3.78.07l2.43-.13h1.4.85l.69.93a2.24 2.24 0 0 1 .22 1.13 2.62 2.62 0 0 1 -.28.94l-.4.75-1.12.18a5.05 5.05 0 0 0 -1.24.22.63.63 0 0 0 -.31.18 1.27 1.27 0 0 0 -.18.56 13.24 13.24 0 0 0 -.09 1.71v3.89h8.84v-3.89a10.09 10.09 0 0 0 -.1-1.57 1.6 1.6 0 0 0 -.21-.63.75.75 0 0 0 -.36-.25 4.25 4.25 0 0 0 -1.24-.22 1.69 1.69 0 0 1 -1.43-.9 2.2 2.2 0 0 1 -.28-1.08 2.16 2.16 0 0 1 .29-1.08c.75-1.23 2.32-.9 4.1-.77a30.8 30.8 0 0 0 3.78.07l2.43-.13h1.4.86l.68.93a2.14 2.14 0 0 1 .22 1.13 2.43 2.43 0 0 1 -.28.94l-.4.75-1.12.18a5.05 5.05 0 0 0 -1.24.22.63.63 0 0 0 -.31.18 1.42 1.42 0 0 0 -.18.56 13.24 13.24 0 0 0 -.09 1.71v13.24a6.83 6.83 0 0 0 .11 1.44c.14.32.24.38.45.43a11.71 11.71 0 0 0 1.47.22 2 2 0 0 1 1.32.78 2.07 2.07 0 0 1 .39 1.2 2 2 0 0 1 -.38 1.19 1.84 1.84 0 0 1 -1.53.76zm-6.08-13.25a2.37 2.37 0 0 1 .52 1.59v5.64a11.45 11.45 0 0 1 -.14 2 3.84 3.84 0 0 1 -.31.94h1.83a3.22 3.22 0 0 1 -.32-.92 10 10 0 0 1 -.17-2v-13.34a17 17 0 0 1 .11-2.09 4.26 4.26 0 0 1 .49-1.51c-.67 0-1.41 0-2.17 0a4.46 4.46 0 0 1 .54 1.59 11.76 11.76 0 0 1 .14 2v4.62a2.07 2.07 0 0 1 -.52 1.48zm-15.56-9.67a4.21 4.21 0 0 1 .55 1.6 12.64 12.64 0 0 1 .14 2v13.3a11.45 11.45 0 0 1 -.14 2 3.84 3.84 0 0 1 -.31.94h1.83a3.22 3.22 0 0 1 -.32-.92 9.77 9.77 0 0 1 -.17-2v-5.85a2.07 2.07 0 0 1 .53-1.42 2.1 2.1 0 0 1 -.53-1.43v-4.62a17 17 0 0 1 .11-2.09 4.26 4.26 0 0 1 .49-1.51c-.63 0-1.36 0-2.18 0zm13.85 7.54v1.37l.07-1.41z"></path>
    <path d="m284 135.49a1.88 1.88 0 0 1 .53.07c.17 0 .23.22.19.54a4.36 4.36 0 0 0 -.07.85v1c0 1 0 2 .1 2.85a.25.25 0 0 1 -.15.22.84.84 0 0 1 -.36.1.74.74 0 0 1 -.39 0 .3.3 0 0 1 -.22-.27 17.25 17.25 0 0 0 -.48-2.07 2.51 2.51 0 0 0 -.66-1.14 2.1 2.1 0 0 0 -1.15-.49c-.49-.07-1.13-.11-1.92-.14h-2c-.59 0-1.06 0-1.41 0a1.51 1.51 0 0 0 -.83.25 1.14 1.14 0 0 0 -.41.7 6.54 6.54 0 0 0 -.1 1.32v5.95c0 .31.05.51.17.59a.56.56 0 0 0 .34.12 17.33 17.33 0 0 0 2.46-.14 2.92 2.92 0 0 0 1.36-.49 1.74 1.74 0 0 0 .61-.93 10.1 10.1 0 0 0 .25-1.5.44.44 0 0 1 .21-.3.69.69 0 0 1 .37-.1.72.72 0 0 1 .38.1.33.33 0 0 1 .17.3v1s-.05.57-.07.85 0 .58-.06.88 0 .66 0 1.07a17.06 17.06 0 0 0 .1 1.85 16.45 16.45 0 0 1 .11 2 .28.28 0 0 1 -.17.26.7.7 0 0 1 -.38.07 1.13 1.13 0 0 1 -.37-.1.42.42 0 0 1 -.21-.29 11.07 11.07 0 0 0 -.25-1.6 1.54 1.54 0 0 0 -.61-.93 3.05 3.05 0 0 0 -1.36-.45 22.18 22.18 0 0 0 -2.46-.11.62.62 0 0 0 -.34.11c-.12.08-.17.25-.17.5v4.45a9.8 9.8 0 0 0 .15 1.85 3.51 3.51 0 0 0 .46 1.25 2.47 2.47 0 0 0 .75.79 3.12 3.12 0 0 0 1.05.42 7.66 7.66 0 0 0 1.07.15h1.24s1.05 0 1.53-.06a4.88 4.88 0 0 0 1.08-.21 7.86 7.86 0 0 0 1.18-.51 2.83 2.83 0 0 0 .83-.71 4 4 0 0 0 .56-1.1 10.21 10.21 0 0 0 .36-1.69.33.33 0 0 1 .23-.27 1.62 1.62 0 0 1 .44-.07.89.89 0 0 1 .43.11.24.24 0 0 1 .15.27c-.11 1-.21 1.84-.3 2.66a17.67 17.67 0 0 0 -.1 2.53.57.57 0 0 1 -.14.29c-.09.13-.31.19-.65.19h-12.42c-.87 0-1.71 0-2.54.07l-2.22.13a.53.53 0 0 1 -.41-.15.79.79 0 0 1 -.17-.37.51.51 0 0 1 .11-.41.54.54 0 0 1 .44-.22 8.42 8.42 0 0 0 1.39-.29 2.52 2.52 0 0 0 .95-.54 2.3 2.3 0 0 0 .56-.9 4.55 4.55 0 0 0 .19-1.4v-13.09c0-.5 0-1-.06-1.46a6.06 6.06 0 0 0 -.22-1.33 2.87 2.87 0 0 0 -.52-1.05 1.85 1.85 0 0 0 -1-.61c-.25-.07-.51-.12-.78-.17a7.58 7.58 0 0 0 -.78-.1.34.34 0 0 1 -.31-.17.7.7 0 0 1 -.1-.38.69.69 0 0 1 .1-.37.34.34 0 0 1 .31-.17c.77 0 1.46 0 2.07.07s1.33.07 2.14.07z"></path>
    <path d="m268 159.92a2 2 0 0 1 -1.53-.61 2.19 2.19 0 0 1 -.52-1.11 1.92 1.92 0 0 1 .36-1.45 2 2 0 0 1 1.42-.79 6.3 6.3 0 0 0 1.12-.23 1.22 1.22 0 0 0 .41-.22.85.85 0 0 0 .2-.34 3 3 0 0 0 .11-.94v-13.07c0-.46 0-.91-.05-1.35a4.8 4.8 0 0 0 -.17-1.06 1.49 1.49 0 0 0 -.27-.55 3.16 3.16 0 0 0 -.88-.27l-.69-.09-.72-.07-.66-.8a2 2 0 0 1 -.3-1.08 2.12 2.12 0 0 1 .31-1.1l.41-.68 1.1-.16c.81 0 1.53 0 2.17.07s1.26.06 2 .06h12.18a3.3 3.3 0 0 1 .89.12 1.75 1.75 0 0 1 1.22 2.09 3.06 3.06 0 0 0 -.06.66v1c0 1 0 1.89.1 2.74l.07.9-.94.66a2.4 2.4 0 0 1 -1.92.14l-.77-.28-.35-1.08a14.66 14.66 0 0 0 -.43-1.88 1.22 1.22 0 0 0 -.27-.52.87.87 0 0 0 -.4-.14 17.15 17.15 0 0 0 -1.76-.12h-2q-.82 0-1.32 0s0 .32 0 .87v5.24a11.14 11.14 0 0 0 1.36-.11 1.84 1.84 0 0 0 .71-.21 5.37 5.37 0 0 0 .32-1.47 1.84 1.84 0 0 1 .89-1.36 2.2 2.2 0 0 1 2.19 0l.68.41.17 1.1v1.08l-.13 1.72v1a14.5 14.5 0 0 0 .09 1.69 18.87 18.87 0 0 1 .11 2.18v.87l-.94.65a2 2 0 0 1 -1.12.21 2.46 2.46 0 0 1 -.89-.25 1.76 1.76 0 0 1 -1-1.32 13.33 13.33 0 0 0 -.23-1.49c-.07-.12-.25-.24-.8-.31-.37 0-.82-.08-1.38-.1v3.65a7.88 7.88 0 0 0 .13 1.57 2.67 2.67 0 0 0 .27.79 1 1 0 0 0 .33.35 1.81 1.81 0 0 0 .59.23 8.18 8.18 0 0 0 .88.12 15 15 0 0 0 2.51 0 3.3 3.3 0 0 0 .75-.13 5.49 5.49 0 0 0 1-.42 1.06 1.06 0 0 0 .39-.33 2.35 2.35 0 0 0 .36-.71 8.4 8.4 0 0 0 .29-1.41 1.75 1.75 0 0 1 1.2-1.43 2.6 2.6 0 0 1 2 .14l.91.49v1.29l-.28 2.54a16.61 16.61 0 0 0 -.1 2.35v.46l-.4.67a2.08 2.08 0 0 1 -1.8.79h-12.48c-.83 0-1.65 0-2.45.06l-2.2.14zm3.59-23.03a4.68 4.68 0 0 1 .41 1.11 8.08 8.08 0 0 1 .27 1.61c0 .5.05 1 .05 1.56v13.07a5.58 5.58 0 0 1 -.26 1.85 4.25 4.25 0 0 1 -.4.83h2.91a4 4 0 0 1 -.54-.68 5.27 5.27 0 0 1 -.64-1.72 10.85 10.85 0 0 1 -.18-2.13v-4.45a2 2 0 0 1 .42-1.32 2.27 2.27 0 0 1 -.42-1.43v-5.95a7.09 7.09 0 0 1 .14-1.62 2.69 2.69 0 0 1 .25-.71h-2.07z"></path>
    <path d="m294.72 141.19c0-.49 0-1-.05-1.46a7.42 7.42 0 0 0 -.22-1.32 2.89 2.89 0 0 0 -.53-1 1.86 1.86 0 0 0 -1-.62l-.78-.17c-.27 0-.53-.08-.78-.1a.33.33 0 0 1 -.31-.17.69.69 0 0 1 -.1-.37.66.66 0 0 1 .1-.37.33.33 0 0 1 .31-.17q1.16 0 2.07.06c.61.05 1.33.07 2.14.07 1.36 0 2.49-.05 3.38-.08s1.75-.05 2.56-.05a11.12 11.12 0 0 1 2.69.32 7.09 7.09 0 0 1 2.36 1 5.36 5.36 0 0 1 1.66 1.87 5.75 5.75 0 0 1 .63 2.79 5.9 5.9 0 0 1 -.39 2.24 5.07 5.07 0 0 1 -1.07 1.63 5.41 5.41 0 0 1 -1.61 1.1 9.29 9.29 0 0 1 -2 .66c-.15.05-.23.13-.23.24s.08.18.23.27a8.19 8.19 0 0 1 2.47 1.74 7.47 7.47 0 0 1 1.32 2 8.68 8.68 0 0 1 .66 2.08c.14.72.29 1.41.45 2.09a2.11 2.11 0 0 0 .56 1.14 1.17 1.17 0 0 0 .8.36 1.19 1.19 0 0 0 .78-.34 2.26 2.26 0 0 0 .57-1 .52.52 0 0 1 .27-.36.62.62 0 0 1 .4 0 .72.72 0 0 1 .33.2.32.32 0 0 1 .12.33 3.43 3.43 0 0 1 -2.56 3 4.61 4.61 0 0 1 -1.31.19 4.18 4.18 0 0 1 -2-.47 2.43 2.43 0 0 1 -1.19-1.36q-.19-.59-.39-1.26c-.12-.45-.24-.91-.35-1.37l-.34-1.36c-.12-.44-.22-.84-.31-1.18a6.92 6.92 0 0 0 -1.58-3.12 3.69 3.69 0 0 0 -2.7-1 1.9 1.9 0 0 0 -1 .24 1 1 0 0 0 -.41.95v4.58a5.8 5.8 0 0 0 .24 1.85 2.24 2.24 0 0 0 .71 1.09 2.9 2.9 0 0 0 1.17.56 9.65 9.65 0 0 0 1.61.24.37.37 0 0 1 .33.19.74.74 0 0 1 .12.42.61.61 0 0 1 -.12.37.4.4 0 0 1 -.36.17 29.26 29.26 0 0 1 -3-.13 24.2 24.2 0 0 0 -2.51-.14 23.92 23.92 0 0 0 -2.55.14 22.83 22.83 0 0 1 -2.44.13.33.33 0 0 1 -.31-.17.77.77 0 0 1 -.12-.37.66.66 0 0 1 .09-.39.4.4 0 0 1 .34-.22 10.77 10.77 0 0 0 1.56-.27 2 2 0 0 0 .95-.55 1.91 1.91 0 0 0 .46-1 8.83 8.83 0 0 0 .12-1.63zm3.7 4c0 .59.16.94.49 1a5.44 5.44 0 0 0 1.48.15 8.23 8.23 0 0 0 2.22-.25 3 3 0 0 0 1.45-.85 3.45 3.45 0 0 0 .76-1.53 10 10 0 0 0 .22-2.29 9.14 9.14 0 0 0 -.23-2.19 3.45 3.45 0 0 0 -.77-1.46 2.87 2.87 0 0 0 -1.38-.8 7.64 7.64 0 0 0 -2.07-.24 3 3 0 0 0 -1.75.34 1.76 1.76 0 0 0 -.42 1.39z"></path>
    <path d="m308.64 160.33a5.49 5.49 0 0 1 -2.64-.65 3.83 3.83 0 0 1 -1.85-2.13c-.14-.41-.28-.86-.41-1.35s-.25-.93-.37-1.41l-.64-2.5a5.6 5.6 0 0 0 -1.2-2.49 2.36 2.36 0 0 0 -1.7-.54v4.36a4.26 4.26 0 0 0 .17 1.38 1 1 0 0 0 .27.45 1.56 1.56 0 0 0 .62.29 9.49 9.49 0 0 0 1.38.2 1.73 1.73 0 0 1 1.4.85 2.13 2.13 0 0 1 .33 1.21 2 2 0 0 1 -.38 1.19 1.79 1.79 0 0 1 -1.5.76c-1.19 0-2.23 0-3.13-.14a21.72 21.72 0 0 0 -4.77 0 25.77 25.77 0 0 1 -2.6.14h-.8l-.71-.86a2.26 2.26 0 0 1 -.31-1 2.08 2.08 0 0 1 .26-1.19 1.81 1.81 0 0 1 1.37-.92 9.12 9.12 0 0 0 1.38-.24l1.79-.17-1.38-.26a8.27 8.27 0 0 0 .09-1.37v-12.75c0-.46 0-.91-.05-1.35a4.61 4.61 0 0 0 -.17-1.05 1.35 1.35 0 0 0 -.27-.55 3.19 3.19 0 0 0 -.88-.28l-.68-.09-.72-.06-.67-.8a2.09 2.09 0 0 1 0-2.19l.41-.67 1.09-.17c.81 0 1.53 0 2.17.07s1.27.06 2 .06c1.32 0 2.44-.05 3.33-.08a20.08 20.08 0 0 1 5.63.31 8.83 8.83 0 0 1 2.83 1.24 6.9 6.9 0 0 1 2.09 2.36 7.08 7.08 0 0 1 .81 3.46 7.28 7.28 0 0 1 -.5 2.77 6.48 6.48 0 0 1 -1.37 2.09 6.75 6.75 0 0 1 -1.91 1.33 9.17 9.17 0 0 1 .78.74 9 9 0 0 1 1.56 2.34 10.31 10.31 0 0 1 .76 2.4c.13.7.28 1.37.44 2a1.83 1.83 0 0 1 1.07-1.22 2 2 0 0 1 1.29-.1 2.12 2.12 0 0 1 1 .59l.51.52v1a4.77 4.77 0 0 1 -.66 1.93 4.85 4.85 0 0 1 -1.26 1.4 5 5 0 0 1 -1.64.8 6.16 6.16 0 0 1 -1.66.34zm-6.64-1.58h.14zm2.86-8.86a15 15 0 0 1 .58 1.65l.65 2.58c.11.45.22.9.35 1.34s.23.8.36 1.16a1 1 0 0 0 .53.59 2.79 2.79 0 0 0 .83.27 3.52 3.52 0 0 1 -.87-1.76c-.16-.68-.31-1.39-.45-2.12a7.92 7.92 0 0 0 -.56-1.77 6.19 6.19 0 0 0 -1.09-1.61q-.14-.16-.32-.33zm-8.25 7h1.15a4.31 4.31 0 0 1 -.45-.94 7.14 7.14 0 0 1 -.31-2.3v-4.65a2.42 2.42 0 0 1 .72-1.87 2.51 2.51 0 0 1 -.72-1.94v-6.69a3.86 3.86 0 0 1 .31-1.65h-1.7a.71.71 0 0 0 -.29 0 4.58 4.58 0 0 1 .47 1.11 8.1 8.1 0 0 1 .27 1.6c0 .5.05 1 .05 1.56v12.74a10.42 10.42 0 0 1 -.14 1.89 3.76 3.76 0 0 1 -.36 1c.39.09.68.09 1.01.09zm16.14-1a.64.64 0 0 0 0 .07.25.25 0 0 0 .01-.07zm-12.93-10.89a8.51 8.51 0 0 0 2.41-.19 1.55 1.55 0 0 0 .79-.44 2 2 0 0 0 .43-.9 9 9 0 0 0 .19-2 7.88 7.88 0 0 0 -.19-1.84 2 2 0 0 0 -.44-.85 1.56 1.56 0 0 0 -.73-.41 8.49 8.49 0 0 0 -2.45-.13v.27zm5.94-7.12a5 5 0 0 1 .4 1.06 10.25 10.25 0 0 1 .29 2.56 11.68 11.68 0 0 1 -.26 2.61c0 .17-.09.33-.14.49a3 3 0 0 0 .38-.33 3.53 3.53 0 0 0 .76-1.17 4.48 4.48 0 0 0 .28-1.7 4.4 4.4 0 0 0 -.46-2.12 3.8 3.8 0 0 0 -1.22-1.38z"></path>
    <path d="m346.28 135.49a1.86 1.86 0 0 1 .52.07c.17 0 .23.22.19.54a4.36 4.36 0 0 0 -.07.85v1c0 1 0 2 .1 2.85a.25.25 0 0 1 -.15.22.8.8 0 0 1 -.36.1.76.76 0 0 1 -.39 0 .31.31 0 0 1 -.22-.27 19.86 19.86 0 0 0 -.47-2.07 2.52 2.52 0 0 0 -.67-1.14 2.06 2.06 0 0 0 -1.15-.49c-.49-.07-1.13-.11-1.92-.14h-2c-.59 0-1.06 0-1.41 0a1.51 1.51 0 0 0 -.83.25 1.14 1.14 0 0 0 -.41.7 6.54 6.54 0 0 0 -.1 1.32v5.95c0 .31.06.51.17.59a.59.59 0 0 0 .34.12 17.33 17.33 0 0 0 2.46-.14 2.87 2.87 0 0 0 1.36-.49 1.68 1.68 0 0 0 .61-.93 11.4 11.4 0 0 0 .26-1.5.4.4 0 0 1 .2-.3.72.72 0 0 1 .38-.1.69.69 0 0 1 .37.1.33.33 0 0 1 .17.3 9.29 9.29 0 0 1 0 1l-.06.85c0 .28-.05.58-.07.88s0 .66 0 1.07a14.73 14.73 0 0 0 .11 1.85 19 19 0 0 1 .1 2 .28.28 0 0 1 -.17.26.67.67 0 0 1 -.37.07 1.18 1.18 0 0 1 -.38-.1.38.38 0 0 1 -.2-.29 12.42 12.42 0 0 0 -.26-1.6 1.5 1.5 0 0 0 -.61-.93 3 3 0 0 0 -1.36-.45 22.18 22.18 0 0 0 -2.46-.11.65.65 0 0 0 -.34.11.6.6 0 0 0 -.17.5v4.45a9.8 9.8 0 0 0 .15 1.85 3.94 3.94 0 0 0 .46 1.25 2.71 2.71 0 0 0 .75.79 3.12 3.12 0 0 0 1.05.42 7.66 7.66 0 0 0 1.07.15h1.24s1.06 0 1.53-.06a5 5 0 0 0 1.09-.21 8.18 8.18 0 0 0 1.17-.51 2.59 2.59 0 0 0 .83-.71 3.78 3.78 0 0 0 .56-1.1 9.28 9.28 0 0 0 .36-1.69.33.33 0 0 1 .24-.27 1.5 1.5 0 0 1 .44-.07.82.82 0 0 1 .42.11.23.23 0 0 1 .15.27c-.11 1-.21 1.84-.3 2.66a19.25 19.25 0 0 0 -.1 2.53.57.57 0 0 1 -.14.29c-.09.13-.31.19-.65.19h-12.44c-.86 0-1.71 0-2.53.07l-2.23.13a.54.54 0 0 1 -.41-.15.78.78 0 0 1 -.16-.37.5.5 0 0 1 .1-.41.57.57 0 0 1 .44-.22 8.42 8.42 0 0 0 1.39-.29 2.44 2.44 0 0 0 .95-.54 2.19 2.19 0 0 0 .56-.9 4.26 4.26 0 0 0 .19-1.4v-13.09c0-.5 0-1-.05-1.46a7.53 7.53 0 0 0 -.22-1.33 3.06 3.06 0 0 0 -.53-1.05 1.85 1.85 0 0 0 -1-.61c-.25-.07-.51-.12-.78-.17a7.58 7.58 0 0 0 -.78-.1.32.32 0 0 1 -.3-.17.7.7 0 0 1 -.11-.38.7.7 0 0 1 .11-.37.32.32 0 0 1 .3-.17c.77 0 1.46 0 2.07.07s1.33.07 2.14.07z"></path>
    <path d="m330.22 159.92a2 2 0 0 1 -1.53-.61 2.19 2.19 0 0 1 -.52-1.11 2 2 0 0 1 1.83-2.2 6.12 6.12 0 0 0 1.12-.23 1.13 1.13 0 0 0 .41-.22.85.85 0 0 0 .2-.34 3 3 0 0 0 .11-.94v-13.11c0-.46 0-.91-.05-1.35a4.8 4.8 0 0 0 -.17-1.06 1.49 1.49 0 0 0 -.27-.55 3.07 3.07 0 0 0 -.88-.27l-.69-.09-.72-.07-.66-.8a2.09 2.09 0 0 1 -.29-1.08 2 2 0 0 1 .31-1.1l.41-.68 1.09-.16c.81 0 1.53 0 2.18.07s1.26.06 2 .06h12.19a3.3 3.3 0 0 1 .89.12 1.74 1.74 0 0 1 1.22 2.09 3.81 3.81 0 0 0 -.05.66v1c0 1 0 1.89.09 2.74l.07.9-.94.66a2.39 2.39 0 0 1 -1.92.14l-.77-.28-.35-1.08a14.66 14.66 0 0 0 -.43-1.88 1.22 1.22 0 0 0 -.27-.52.82.82 0 0 0 -.4-.14 17.15 17.15 0 0 0 -1.76-.12h-2q-.82 0-1.32 0s0 .32 0 .87v5.24a11.13 11.13 0 0 0 1.35-.11 1.84 1.84 0 0 0 .71-.21 5.39 5.39 0 0 0 .33-1.47 1.86 1.86 0 0 1 .88-1.36 2.2 2.2 0 0 1 2.19 0l.68.41.17 1.1v1.08l-.14 1.72v1a14.5 14.5 0 0 0 .09 1.69 16.86 16.86 0 0 1 .11 2.18v.87l-.94.65a2 2 0 0 1 -1.12.21 2.52 2.52 0 0 1 -.89-.25 1.76 1.76 0 0 1 -1-1.32 11.33 11.33 0 0 0 -.23-1.49c-.07-.12-.25-.24-.79-.31-.37 0-.83-.08-1.38-.1v3.65a8.8 8.8 0 0 0 .12 1.57 2.67 2.67 0 0 0 .27.79 1.12 1.12 0 0 0 .33.35 1.81 1.81 0 0 0 .59.23 8.56 8.56 0 0 0 .88.12 15.12 15.12 0 0 0 2.52 0 3.28 3.28 0 0 0 .74-.13 5.49 5.49 0 0 0 1-.42 1.18 1.18 0 0 0 .4-.33 2.61 2.61 0 0 0 .35-.71 8.4 8.4 0 0 0 .29-1.41 1.76 1.76 0 0 1 1.14-1.48 2.6 2.6 0 0 1 2 .14l.91.49v1.29l-.28 2.54a16.61 16.61 0 0 0 -.1 2.35v.46l-.4.67a2.08 2.08 0 0 1 -1.8.79h-12.43q-1.26 0-2.46.06l-2.2.14zm3.59-23.03a4.68 4.68 0 0 1 .47 1.1 8.08 8.08 0 0 1 .27 1.61c0 .5.05 1 .05 1.56v13.07a5.58 5.58 0 0 1 -.26 1.85 3.35 3.35 0 0 1 -.4.83h2.91a3.54 3.54 0 0 1 -.53-.68 4.86 4.86 0 0 1 -.64-1.72 10.78 10.78 0 0 1 -.19-2.13v-4.45a2 2 0 0 1 .42-1.32 2.27 2.27 0 0 1 -.42-1.43v-5.95a7.71 7.71 0 0 1 .14-1.62 3.1 3.1 0 0 1 .25-.71h-2.07z"></path>
    <path d="m360.4 150.3a1.1 1.1 0 0 0 -.68.15 1.29 1.29 0 0 0 -.37.52l-1.53 4a2.5 2.5 0 0 0 -.17.78 1.13 1.13 0 0 0 .22.73 1.43 1.43 0 0 0 .59.46 4.71 4.71 0 0 0 .85.27 6.38 6.38 0 0 0 1 .14.35.35 0 0 1 .34.19.87.87 0 0 1 .1.39.94.94 0 0 1 -.1.39.36.36 0 0 1 -.34.18 14.83 14.83 0 0 1 -1.87-.13 15.79 15.79 0 0 0 -2-.14 10.35 10.35 0 0 0 -1.7.14 10.82 10.82 0 0 1 -1.77.13.34.34 0 0 1 -.29-.17.69.69 0 0 1 -.13-.37.74.74 0 0 1 .07-.39.36.36 0 0 1 .32-.22l.51-.07a6.94 6.94 0 0 0 .93-.25 2.36 2.36 0 0 0 .78-.5 4.08 4.08 0 0 0 .7-.9 8.94 8.94 0 0 0 .68-1.44l7.68-19.32c.06-.19.24-.28.54-.28a1 1 0 0 1 .74.28c.57 1.44 1.18 3 1.82 4.65s1.31 3.33 2 5l2 5.1 1.93 4.77a7.84 7.84 0 0 0 .8 1.53 3.37 3.37 0 0 0 .78.81 2.31 2.31 0 0 0 .8.37l.88.21a.35.35 0 0 1 .29.22.86.86 0 0 1 .09.39.75.75 0 0 1 -.09.37.27.27 0 0 1 -.26.17 15.48 15.48 0 0 1 -2.08-.13 17 17 0 0 0 -2.26-.14 25 25 0 0 0 -2.68.14 22.74 22.74 0 0 1 -2.42.13.4.4 0 0 1 -.35-.18.8.8 0 0 1 -.12-.43.6.6 0 0 1 .1-.35.43.43 0 0 1 .34-.19 5.44 5.44 0 0 0 1.7-.41 1.12 1.12 0 0 0 .54-1.12 3.74 3.74 0 0 0 -.05-.54 5.83 5.83 0 0 0 -.22-.83c-.11-.36-.27-.81-.47-1.36s-.48-1.26-.82-2.13a1 1 0 0 0 -.46-.56 2.65 2.65 0 0 0 -.93-.11zm5.84-1.33a1 1 0 0 0 .65-.15c.11-.1.11-.29 0-.56l-3-7.95a.3.3 0 0 0 -.54 0l-3.09 7.95c-.12.29-.13.48 0 .57a.68.68 0 0 0 .51.14z"></path>
    <path d="m376.56 159.92a16.54 16.54 0 0 1 -2.27-.15 20.23 20.23 0 0 0 -4.6 0c-1.6.17-3.36.51-4.12-.71a2.19 2.19 0 0 1 -.33-1.17 2 2 0 0 1 .33-1.12 1.83 1.83 0 0 1 1.33-.81 4.18 4.18 0 0 0 1.26-.28.59.59 0 0 0 -.25.27l1.37-.67-1.39.22a3.52 3.52 0 0 0 -.17-.62c-.11-.34-.26-.77-.45-1.31s-.43-1.12-.73-1.88h-6l-1.45 3.78a1.77 1.77 0 0 0 -.07.31 1.15 1.15 0 0 1 .55.06 6.27 6.27 0 0 0 .79.11 1.71 1.71 0 0 1 1.46.9 2.15 2.15 0 0 1 0 2.12c-.62 1.13-2 1-3.63.79a11.38 11.38 0 0 0 -3.3 0 12.3 12.3 0 0 1 -2 .15h-.72l-.71-.75a2.26 2.26 0 0 1 -.4-1.09 2.11 2.11 0 0 1 .21-1.1 1.7 1.7 0 0 1 1.4-1l.51-.07a6.25 6.25 0 0 0 .65-.19 2.68 2.68 0 0 0 .75-.8 8.4 8.4 0 0 0 .57-1.22l7.68-19.33a1.86 1.86 0 0 1 1.85-1.16 2.39 2.39 0 0 1 1.73.68l.32.48 1.82 4.66c.64 1.65 1.3 3.32 2 5l4 9.86a6.07 6.07 0 0 0 .64 1.23 1.75 1.75 0 0 0 .44.48 1 1 0 0 0 .34.17l.83.19a1.75 1.75 0 0 1 1.27 1 2.34 2.34 0 0 1 0 2l-.39.79zm-.38-1.16h.12zm-8-9.4a2.42 2.42 0 0 1 .85 1.15c.34.86.61 1.58.82 2.14s.38 1 .5 1.41a7.69 7.69 0 0 1 .27 1 4.57 4.57 0 0 1 .07.77 3 3 0 0 1 -.17 1c.78 0 1.63-.06 2.4 0v-.06a9.31 9.31 0 0 1 -1-1.81l-4-9.89q-1-2.57-2-5.05l-1.16-3-.68 1.72a1.65 1.65 0 0 1 1.08 1l3 8a1.89 1.89 0 0 1 .07 1.58zm-7.89 1.79.06.07v-.83zm5.9-2.22.09-1.33h-.09zm-4.16-1.33h3.05l-1.49-4z"></path>
    <path d="m385.3 141.19c0-.49 0-1-.06-1.46a6 6 0 0 0 -.22-1.32 2.87 2.87 0 0 0 -.52-1 1.86 1.86 0 0 0 -1-.62l-.78-.17c-.27 0-.53-.08-.78-.1a.33.33 0 0 1 -.31-.17.69.69 0 0 1 -.1-.37.66.66 0 0 1 .1-.37.33.33 0 0 1 .31-.17q1.15 0 2.07.06c.61.05 1.32.07 2.14.07 1.36 0 2.48-.05 3.38-.08s1.75-.05 2.56-.05a11.12 11.12 0 0 1 2.69.32 7.09 7.09 0 0 1 2.36 1 5.36 5.36 0 0 1 1.66 1.87 5.75 5.75 0 0 1 .63 2.79 5.9 5.9 0 0 1 -.39 2.24 5.07 5.07 0 0 1 -1.07 1.63 5.33 5.33 0 0 1 -1.62 1.1 9 9 0 0 1 -2 .66c-.15.05-.23.13-.23.24s.08.18.23.27a8.19 8.19 0 0 1 2.47 1.74 7.47 7.47 0 0 1 1.32 2 8.68 8.68 0 0 1 .66 2.08c.14.72.29 1.41.45 2.09a2.11 2.11 0 0 0 .56 1.14 1.16 1.16 0 0 0 .79.36 1.19 1.19 0 0 0 .78-.34 2.18 2.18 0 0 0 .58-1 .52.52 0 0 1 .27-.36.62.62 0 0 1 .4 0 .72.72 0 0 1 .33.2.34.34 0 0 1 .12.33 3.5 3.5 0 0 1 -1.37 2.46 3.64 3.64 0 0 1 -1.19.57 4.61 4.61 0 0 1 -1.31.19 4.18 4.18 0 0 1 -2-.47 2.43 2.43 0 0 1 -1.19-1.36c-.13-.39-.27-.81-.39-1.26l-.36-1.37c-.11-.47-.22-.92-.34-1.36s-.21-.84-.3-1.18a7 7 0 0 0 -1.58-3.12 3.7 3.7 0 0 0 -2.7-1 1.94 1.94 0 0 0 -1 .24 1 1 0 0 0 -.4.95v4.58a5.8 5.8 0 0 0 .24 1.85 2.24 2.24 0 0 0 .71 1.09 2.84 2.84 0 0 0 1.17.56 9.65 9.65 0 0 0 1.61.24.37.37 0 0 1 .33.19.74.74 0 0 1 .12.42.61.61 0 0 1 -.12.37.4.4 0 0 1 -.36.17 29.26 29.26 0 0 1 -3-.13 24.2 24.2 0 0 0 -2.51-.14 23.92 23.92 0 0 0 -2.55.14 22.88 22.88 0 0 1 -2.45.13.32.32 0 0 1 -.3-.17.77.77 0 0 1 -.12-.37.66.66 0 0 1 .09-.39.4.4 0 0 1 .33-.22 10.69 10.69 0 0 0 1.57-.27 2.06 2.06 0 0 0 1-.55 2 2 0 0 0 .46-1 9.81 9.81 0 0 0 .12-1.63zm3.7 4c0 .59.16.94.49 1a5.44 5.44 0 0 0 1.48.15 8.28 8.28 0 0 0 2.22-.25 3 3 0 0 0 1.45-.85 3.45 3.45 0 0 0 .76-1.53 10 10 0 0 0 .22-2.29 8.61 8.61 0 0 0 -.24-2.19 3.33 3.33 0 0 0 -.76-1.46 2.87 2.87 0 0 0 -1.38-.8 7.64 7.64 0 0 0 -2.07-.24 3 3 0 0 0 -1.75.34 1.76 1.76 0 0 0 -.42 1.39z"></path>
    <path d="m399.22 160.33a5.49 5.49 0 0 1 -2.64-.65 3.83 3.83 0 0 1 -1.85-2.13q-.21-.62-.42-1.35c-.12-.46-.25-.93-.36-1.41l-.64-2.5a5.71 5.71 0 0 0 -1.2-2.49 2.36 2.36 0 0 0 -1.7-.54v4.36a4.26 4.26 0 0 0 .17 1.4 1 1 0 0 0 .27.45 1.58 1.58 0 0 0 .61.29 9.64 9.64 0 0 0 1.39.2 1.68 1.68 0 0 1 1.41.85 2.13 2.13 0 0 1 .33 1.16 2 2 0 0 1 -.38 1.19 1.79 1.79 0 0 1 -1.5.76c-1.19 0-2.23 0-3.14-.14a21.64 21.64 0 0 0 -4.76 0 25.77 25.77 0 0 1 -2.6.14h-.8l-.71-.86a2.26 2.26 0 0 1 -.31-1 2 2 0 0 1 .26-1.19 1.81 1.81 0 0 1 1.35-.87 9.12 9.12 0 0 0 1.38-.24l1.79-.17-1.38-.26a8.27 8.27 0 0 0 .09-1.37v-12.77c0-.46 0-.91-.05-1.35a5.24 5.24 0 0 0 -.17-1.05 1.35 1.35 0 0 0 -.27-.55 3.22 3.22 0 0 0 -.89-.28c-.22 0-.45-.07-.67-.09l-.72-.06-.67-.8a2.06 2.06 0 0 1 -.3-1.08 2.16 2.16 0 0 1 .31-1.11l.41-.67 1.14-.15c.8 0 1.53 0 2.17.07s1.26.06 2 .06c1.32 0 2.44-.05 3.33-.08a20.08 20.08 0 0 1 5.63.31 8.83 8.83 0 0 1 2.83 1.24 6.9 6.9 0 0 1 2.09 2.36 7.08 7.08 0 0 1 .81 3.46 7.28 7.28 0 0 1 -.5 2.77 6.48 6.48 0 0 1 -1.37 2.09 6.75 6.75 0 0 1 -1.91 1.33 9.17 9.17 0 0 1 .78.74 9 9 0 0 1 1.56 2.34 10.31 10.31 0 0 1 .76 2.4c.13.7.28 1.37.43 2a1.83 1.83 0 0 1 1.07-1.22 2 2 0 0 1 1.29-.1 2.17 2.17 0 0 1 1 .59l.51.52v1a4.77 4.77 0 0 1 -.66 1.93 4.85 4.85 0 0 1 -1.26 1.4 5.11 5.11 0 0 1 -1.64.8 6.16 6.16 0 0 1 -1.7.32zm-6.63-1.58h.14zm2.86-8.86a13.18 13.18 0 0 1 .57 1.65l.66 2.58c.11.45.22.9.34 1.34s.24.8.37 1.16a1 1 0 0 0 .53.59 2.7 2.7 0 0 0 .83.27 3.52 3.52 0 0 1 -.87-1.76c-.16-.68-.31-1.39-.45-2.12a7.92 7.92 0 0 0 -.56-1.77 6.45 6.45 0 0 0 -1.09-1.61q-.15-.16-.33-.33zm-8.25 7h1.15a4.31 4.31 0 0 1 -.45-.94 7.14 7.14 0 0 1 -.31-2.3v-4.65a2.46 2.46 0 0 1 .71-1.87 2.55 2.55 0 0 1 -.71-1.94v-6.69a4 4 0 0 1 .3-1.65h-1.69a.72.72 0 0 0 -.29 0 4.58 4.58 0 0 1 .47 1.11 8.1 8.1 0 0 1 .27 1.6c0 .5.05 1 .05 1.56v12.74a10.42 10.42 0 0 1 -.14 1.89 4.11 4.11 0 0 1 -.36 1c.33.09.67.09 1 .09zm16.14-1a.64.64 0 0 0 0 .07.64.64 0 0 1 0-.07zm-12.94-10.89a8.51 8.51 0 0 0 2.41-.19 1.55 1.55 0 0 0 .79-.44 2.1 2.1 0 0 0 .43-.9 9 9 0 0 0 .19-2 7.33 7.33 0 0 0 -.2-1.84 1.89 1.89 0 0 0 -.43-.85 1.56 1.56 0 0 0 -.73-.41 8.51 8.51 0 0 0 -2.45-.13v.27zm5.94-7.12a5.55 5.55 0 0 1 .4 1.06 10.25 10.25 0 0 1 .29 2.56 11.68 11.68 0 0 1 -.26 2.61c0 .17-.09.33-.14.49a3.9 3.9 0 0 0 .38-.33 3.53 3.53 0 0 0 .76-1.17 4.48 4.48 0 0 0 .28-1.7 4.4 4.4 0 0 0 -.46-2.12 3.8 3.8 0 0 0 -1.22-1.38z"></path>
    <path d="m417.09 153.9a11.28 11.28 0 0 0 .1 1.74 1.59 1.59 0 0 0 .46 1 2 2 0 0 0 1 .49 12.18 12.18 0 0 0 1.73.26.43.43 0 0 1 .32.22.69.69 0 0 1 .12.39.61.61 0 0 1 -.12.37.38.38 0 0 1 -.35.17 23.94 23.94 0 0 1 -2.6-.13 22.83 22.83 0 0 0 -2.46-.14c-.87 0-1.75 0-2.67.14s-1.75.13-2.5.13a.32.32 0 0 1 -.3-.17.66.66 0 0 1 -.1-.37.76.76 0 0 1 .1-.39.39.39 0 0 1 .3-.22 12 12 0 0 0 1.69-.26 2.11 2.11 0 0 0 1-.49 1.72 1.72 0 0 0 .48-1 11.06 11.06 0 0 0 .11-1.74v-15.09c0-.83-.21-1.36-.62-1.57a4.94 4.94 0 0 0 -2.13-.33 9.79 9.79 0 0 0 -2.07.19 2.89 2.89 0 0 0 -1.34.68 3.55 3.55 0 0 0 -.85 1.34 13.68 13.68 0 0 0 -.59 2.21.33.33 0 0 1 -.22.27.83.83 0 0 1 -.38.05.73.73 0 0 1 -.34-.12.28.28 0 0 1 -.15-.24c.09-.83.14-1.69.15-2.56a18.8 18.8 0 0 0 -.15-2.6q0-.37.48-.51a3.77 3.77 0 0 1 1.05-.13h18.17a4 4 0 0 1 1.07.12.49.49 0 0 1 .42.49c0 .27-.08.61-.11 1s-.06.83-.06 1.31 0 1 .06 1.46.07 1 .11 1.42a.31.31 0 0 1 -.17.26.79.79 0 0 1 -.37.14.84.84 0 0 1 -.39-.06.3.3 0 0 1 -.22-.27 10.55 10.55 0 0 0 -.55-2.22 3.39 3.39 0 0 0 -.89-1.36 3.2 3.2 0 0 0 -1.38-.68 9 9 0 0 0 -1.94-.19 5.35 5.35 0 0 0 -2.2.33c-.46.21-.68.74-.68 1.57z"></path>
    <path d="m420.34 159.92a24.4 24.4 0 0 1 -2.75-.15 24.37 24.37 0 0 0 -4.83 0c-1 .09-1.85.14-2.64.14h-.78l-.72-.83a2.2 2.2 0 0 1 -.31-1.12 2.27 2.27 0 0 1 .26-1.05 1.85 1.85 0 0 1 1.33-.95 12.34 12.34 0 0 0 1.58-.23.75.75 0 0 0 .34-.15 7.08 7.08 0 0 0 .16-1.69v-15.08a2.56 2.56 0 0 0 0-.43c-.1 0-.48-.06-1.31-.06a8.27 8.27 0 0 0 -1.76.15 1.45 1.45 0 0 0 -.69.34 2.12 2.12 0 0 0 -.5.81 13.15 13.15 0 0 0 -.52 2l-.16.78-1 .54a2.33 2.33 0 0 1 -1 .13 2.17 2.17 0 0 1 -1-.34l-.63-.42-.16-1c.1-.94.15-1.75.16-2.58a15.9 15.9 0 0 0 -.15-2.39 2 2 0 0 1 1.49-2 5.45 5.45 0 0 1 1.44-.19h18.17a5.13 5.13 0 0 1 1.45.18 1.87 1.87 0 0 1 1.45 1.84c-.06.47-.09.76-.12 1.12a11.12 11.12 0 0 0 -.05 1.19c0 .44 0 .89.05 1.35s.07 1 .11 1.4l.08.81-.83.73a2.23 2.23 0 0 1 -2.07.25l-.77-.28-.35-1.08a9 9 0 0 0 -.47-1.94 2 2 0 0 0 -.51-.81 1.63 1.63 0 0 0 -.77-.37 7.38 7.38 0 0 0 -1.62-.15 5.48 5.48 0 0 0 -1.48.14 1.89 1.89 0 0 1 0 .35v15.02a8.67 8.67 0 0 0 .09 1.51c0 .19.12.26.39.33a12 12 0 0 0 1.54.22 1.9 1.9 0 0 1 1.37.86 2.06 2.06 0 0 1 .35 1.15 2.09 2.09 0 0 1 -.36 1.16 1.86 1.86 0 0 1 -1.5.79zm-6-23a3.78 3.78 0 0 1 .44 1.92v15.06a11.4 11.4 0 0 1 -.14 2 3.79 3.79 0 0 1 -.32.95h1.77a3.37 3.37 0 0 1 -.3-1 12.24 12.24 0 0 1 -.12-2v-15.04a3.66 3.66 0 0 1 .46-1.92z"></path>
    <path d="m448.77 145.88a1.06 1.06 0 0 0 .6-.14.65.65 0 0 0 .18-.54v-4.62a11.59 11.59 0 0 0 -.12-1.8 2.93 2.93 0 0 0 -.45-1.22 2.14 2.14 0 0 0 -1-.73 5.38 5.38 0 0 0 -1.68-.32.34.34 0 0 1 -.31-.19.81.81 0 0 1 -.1-.39.66.66 0 0 1 .1-.37.33.33 0 0 1 .31-.17c.72 0 1.55 0 2.48.1s1.8.1 2.61.1h1.34l1.23-.07 1.2-.07h1.33a.3.3 0 0 1 .29.17.74.74 0 0 1 .06.37 1 1 0 0 1 -.12.39.32.32 0 0 1 -.27.19 6.89 6.89 0 0 0 -1.7.28 2 2 0 0 0 -1 .68 2.59 2.59 0 0 0 -.44 1.21 14 14 0 0 0 -.11 1.9v13.26a8.67 8.67 0 0 0 .14 1.74 1.93 1.93 0 0 0 .49 1 2 2 0 0 0 1 .51 13.57 13.57 0 0 0 1.66.25.49.49 0 0 1 .32.21.63.63 0 0 1 0 .74.39.39 0 0 1 -.35.17 23.94 23.94 0 0 1 -2.6-.13 22.87 22.87 0 0 0 -2.47-.14c-.86 0-1.75 0-2.66.14s-1.75.13-2.5.13a.31.31 0 0 1 -.3-.17.68.68 0 0 1 0-.74.41.41 0 0 1 .3-.21 13.38 13.38 0 0 0 1.68-.25 2 2 0 0 0 1-.51 1.84 1.84 0 0 0 .47-1 9.8 9.8 0 0 0 .12-1.74v-5.64c0-.59-.25-.89-.74-.89h-10.11c-.5 0-.74.23-.74.68v5.85a8.8 8.8 0 0 0 .13 1.74 1.93 1.93 0 0 0 .49 1 2 2 0 0 0 1 .51 14.1 14.1 0 0 0 1.67.25.49.49 0 0 1 .32.21.63.63 0 0 1 0 .74.4.4 0 0 1 -.36.17 24.2 24.2 0 0 1 -2.6-.13 22.54 22.54 0 0 0 -2.46-.14c-.86 0-1.75 0-2.66.14s-1.75.13-2.5.13a.3.3 0 0 1 -.3-.17.68.68 0 0 1 0-.74.4.4 0 0 1 .3-.21 13.38 13.38 0 0 0 1.68-.25 2 2 0 0 0 1-.51 1.91 1.91 0 0 0 .47-1 9.8 9.8 0 0 0 .12-1.74v-13.32a11.59 11.59 0 0 0 -.12-1.8 2.81 2.81 0 0 0 -.46-1.22 2.11 2.11 0 0 0 -1-.73 5.38 5.38 0 0 0 -1.68-.32.34.34 0 0 1 -.31-.19.81.81 0 0 1 -.1-.39.66.66 0 0 1 .1-.37.33.33 0 0 1 .31-.17c.72 0 1.55 0 2.48.1s1.79.1 2.61.1h1.34l1.22-.07 1.21-.07q.62 0 1.32 0a.28.28 0 0 1 .29.17.65.65 0 0 1 .07.37 1 1 0 0 1 -.12.39.32.32 0 0 1 -.27.19 6.89 6.89 0 0 0 -1.7.28 2 2 0 0 0 -1 .68 2.6 2.6 0 0 0 -.45 1.21 16.42 16.42 0 0 0 -.09 1.9v4.62c0 .45.24.68.74.68z"></path>
    <path d="m456.51 159.92a27.06 27.06 0 0 1 -2.75-.14 22.37 22.37 0 0 0 -4.84 0c-1 .09-1.84.14-2.63.14h-.8l-.72-.86a2.18 2.18 0 0 1 0-2.19 1.78 1.78 0 0 1 1.27-.86 13 13 0 0 0 1.58-.24l.33-.14a6.29 6.29 0 0 0 .19-1.73v-5.12h-8.84v5.12a7.82 7.82 0 0 0 .1 1.44c.14.32.24.38.45.43a11.62 11.62 0 0 0 1.48.22 2 2 0 0 1 1.34.81 2 2 0 0 1 0 2.36 1.76 1.76 0 0 1 -1.5.76 27.06 27.06 0 0 1 -2.75-.14 22.37 22.37 0 0 0 -4.84 0c-1 .09-1.84.14-2.63.14h-.8l-.72-.86a2.18 2.18 0 0 1 0-2.19 1.78 1.78 0 0 1 1.27-.86 13 13 0 0 0 1.58-.24l.33-.14a6.29 6.29 0 0 0 .19-1.73v-13.32a10 10 0 0 0 -.11-1.57 1.37 1.37 0 0 0 -.21-.63.75.75 0 0 0 -.35-.25 4.34 4.34 0 0 0 -1.25-.22 1.91 1.91 0 0 1 -1.72-2 2.16 2.16 0 0 1 .29-1.08c.76-1.23 2.33-.89 4.11-.77a28.93 28.93 0 0 0 3.78.07l2.42-.13h1.4.84l.68.93a2.14 2.14 0 0 1 .22 1.13 2.27 2.27 0 0 1 -.28.94l-.39.75-1.12.18a4.86 4.86 0 0 0 -1.24.22.67.67 0 0 0 -.32.18 1.42 1.42 0 0 0 -.18.56 15.68 15.68 0 0 0 -.08 1.71v3.89h8.84v-3.89a10 10 0 0 0 -.13-1.6 1.32 1.32 0 0 0 -.21-.63.64.64 0 0 0 -.35-.25 4.25 4.25 0 0 0 -1.24-.22 1.72 1.72 0 0 1 -1.44-.9 2.32 2.32 0 0 1 -.28-1.08 2.16 2.16 0 0 1 .29-1.08c.76-1.23 2.33-.9 4.11-.77a30.77 30.77 0 0 0 3.78.07l2.42-.13h1.4.86l.68.93a2.05 2.05 0 0 1 .22 1.13 2.27 2.27 0 0 1 -.28.94l-.39.75-1.12.18a5 5 0 0 0 -1.24.22.59.59 0 0 0 -.31.18 1.14 1.14 0 0 0 -.18.56 13.24 13.24 0 0 0 -.09 1.71v13.29a8 8 0 0 0 .1 1.44c.14.32.25.38.45.43a11.91 11.91 0 0 0 1.48.22 2 2 0 0 1 1.32.78 2.07 2.07 0 0 1 .39 1.2 2 2 0 0 1 -.38 1.19 1.86 1.86 0 0 1 -1.48.76zm-6.08-13.25a2.37 2.37 0 0 1 .53 1.59v5.64a11.28 11.28 0 0 1 -.15 2 3.46 3.46 0 0 1 -.31.94h1.83a3.56 3.56 0 0 1 -.32-.92 10.15 10.15 0 0 1 -.16-2v-13.34a17 17 0 0 1 .11-2.09 4.07 4.07 0 0 1 .49-1.51c-.67 0-1.41 0-2.18 0a4.46 4.46 0 0 1 .55 1.59 12.86 12.86 0 0 1 .14 2v4.62a2 2 0 0 1 -.53 1.48zm-15.51-9.67a4.39 4.39 0 0 1 .55 1.6 12.64 12.64 0 0 1 .14 2v13.3a11.28 11.28 0 0 1 -.15 2 3.15 3.15 0 0 1 -.31.94h1.83a3.56 3.56 0 0 1 -.32-.92 9.88 9.88 0 0 1 -.16-2v-5.85a2 2 0 0 1 .53-1.42 2 2 0 0 1 -.53-1.43v-4.62a17 17 0 0 1 .11-2.09 4.26 4.26 0 0 1 .48-1.51c-.66 0-1.4 0-2.17 0zm13.85 7.54v1.37l.06-1.41z"></path>
    <path d="m383.7 383h-16.23a1.4 1.4 0 0 1 -1.4-1.4v-29.05a1.41 1.41 0 0 1 1.4-1.41h16.23a1.41 1.41 0 0 1 1.4 1.41v29.09a1.4 1.4 0 0 1 -1.4 1.36zm-14.82-2.81h13.41v-26.19h-13.41z"></path>
    <path d="m519.86 107.77h-57.43a1.41 1.41 0 0 1 -1.41-1.4v-.46h-40.93v.46a1.41 1.41 0 0 1 -1.41 1.4h-49.22a1.4 1.4 0 0 1 -1.4-1.4v-.46h-40.93v.46a1.41 1.41 0 0 1 -1.41 1.4h-47.13a1.4 1.4 0 0 1 -1.4-1.4v-.46h-40.93v.46a1.41 1.41 0 0 1 -1.41 1.4h-49.22a1.4 1.4 0 0 1 -1.4-1.4v-.46h-40.94v.46a1.4 1.4 0 0 1 -1.4 1.4h-57.43a1.41 1.41 0 0 1 -1.41-1.4v-9a1.41 1.41 0 0 1 1.41-1.37h435.4a1.4 1.4 0 0 1 1.4 1.4v9a1.4 1.4 0 0 1 -1.4 1.37zm-56-2.81h54.62v-6.13h-432.62v6.17h54.62v-.45a1.41 1.41 0 0 1 1.41-1.41h43.74a1.41 1.41 0 0 1 1.41 1.41v.45h46.4v-.45a1.41 1.41 0 0 1 1.41-1.41h43.74a1.41 1.41 0 0 1 1.41 1.41v.45h44.31v-.45a1.41 1.41 0 0 1 1.41-1.41h43.74a1.41 1.41 0 0 1 1.41 1.41v.45h46.41v-.45a1.41 1.41 0 0 1 1.4-1.41h43.75a1.41 1.41 0 0 1 1.4 1.41z"></path>
    <path d="m185.63 121.08h-43.74a1.39 1.39 0 0 1 -1.39-1.39v-15.18a1.39 1.39 0 0 1 1.39-1.39h43.74a1.39 1.39 0 0 1 1.39 1.39v15.18a1.39 1.39 0 0 1 -1.39 1.39zm-42.35-2.78h41v-12.4h-41z"></path>
    <path d="m278.59 121.08h-43.74a1.39 1.39 0 0 1 -1.39-1.39v-15.18a1.39 1.39 0 0 1 1.39-1.39h43.74a1.4 1.4 0 0 1 1.4 1.39v15.18a1.4 1.4 0 0 1 -1.4 1.39zm-42.35-2.78h41v-12.4h-41z"></path>
    <path d="m369.46 121.08h-43.74a1.39 1.39 0 0 1 -1.39-1.39v-15.18a1.39 1.39 0 0 1 1.39-1.39h43.74a1.39 1.39 0 0 1 1.39 1.39v15.18a1.39 1.39 0 0 1 -1.39 1.39zm-42.35-2.78h41v-12.4h-41z"></path>
    <path d="m462.43 121.08h-43.75a1.39 1.39 0 0 1 -1.39-1.39v-15.18a1.39 1.39 0 0 1 1.39-1.39h43.75a1.39 1.39 0 0 1 1.39 1.39v15.18a1.39 1.39 0 0 1 -1.39 1.39zm-42.36-2.78h41v-12.4h-41z"></path>
    <path d="m124.46 432.42h65.98v5.38h-65.98z"></path>
    <path d="m191.85 439.21h-68.8v-8.21h68.8zm-66-2.82h63.15v-2.56h-63.13z"></path>
    <path d="m137.55 435.11 39.81 55.35"></path>
    <path d="m156.04 428.69h2.81v68.18h-2.81z" transform="matrix(.81177787 -.58396634 .58396634 .81177787 -240.6 179.03)"></path>
    <path d="m177.36 435.11-39.81 55.35"></path>
    <path d="m123.36 461.38h68.18v2.81h-68.18z" transform="matrix(.58325771 -.81228717 .81228717 .58325771 -310.31 320.79)"></path>
    <path d="m143.19 481.2h28.52v2.81h-28.52z"></path>
  </g>
</svg>
