<?xml version="1.0" encoding="UTF-8"?>
<svg xmlns="http://www.w3.org/2000/svg" xmlns:xlink="http://www.w3.org/1999/xlink" viewBox="0 0 600 600">
  <defs>
    <style>.cls-1,.cls-12{fill:none;}.cls-2{fill:#0a2a7d;}.cls-3,.cls-7{fill:#fff;}.cls-10,.cls-11,.cls-12,.cls-13,.cls-14,.cls-16,.cls-17,.cls-4,.cls-5,.cls-6,.cls-7,.cls-8,.cls-9{stroke:#1c19a8;}.cls-10,.cls-11,.cls-17,.cls-4,.cls-5,.cls-6,.cls-7,.cls-8,.cls-9{stroke-linejoin:round;}.cls-10,.cls-11,.cls-12,.cls-13,.cls-17,.cls-4,.cls-5,.cls-6,.cls-7,.cls-8,.cls-9{stroke-width:2.82px;}.cls-4{fill:url(#Blue_dots_2);}.cls-5{fill:url(#Blue_dots_2-3);}.cls-14,.cls-6,.cls-8{fill:#ffde00;}.cls-8,.cls-9{fill-rule:evenodd;}.cls-11,.cls-16,.cls-9{fill:#fb715d;}.cls-10{fill:#00ab81;}.cls-12,.cls-13,.cls-14,.cls-16{stroke-miterlimit:10;}.cls-13,.cls-15,.cls-17{fill:#1c19a8;}.cls-14,.cls-16{stroke-width:2.81px;}</style>
    <pattern id="Blue_dots_2" data-name="Blue dots 2" width="28.8" height="28.8" patternUnits="userSpaceOnUse" viewBox="0 0 28.8 28.8">
      <rect class="cls-1" width="28.8" height="28.8"></rect>
      <path class="cls-2" d="M28.8,30.24a1.44,1.44,0,1,0-1.44-1.44A1.44,1.44,0,0,0,28.8,30.24Z"></path>
      <path class="cls-2" d="M14.4,30.24A1.44,1.44,0,1,0,13,28.8,1.44,1.44,0,0,0,14.4,30.24Z"></path>
      <path class="cls-2" d="M28.8,15.84a1.44,1.44,0,1,0-1.44-1.44A1.44,1.44,0,0,0,28.8,15.84Z"></path>
      <path class="cls-2" d="M14.4,15.84A1.44,1.44,0,1,0,13,14.4,1.44,1.44,0,0,0,14.4,15.84Z"></path>
      <path class="cls-2" d="M7.2,23A1.44,1.44,0,1,0,5.76,21.6,1.44,1.44,0,0,0,7.2,23Z"></path>
      <path class="cls-2" d="M21.6,23a1.44,1.44,0,1,0-1.44-1.44A1.44,1.44,0,0,0,21.6,23Z"></path>
      <path class="cls-2" d="M7.2,8.64A1.44,1.44,0,1,0,5.76,7.2,1.44,1.44,0,0,0,7.2,8.64Z"></path>
      <path class="cls-2" d="M21.6,8.64A1.44,1.44,0,1,0,20.16,7.2,1.44,1.44,0,0,0,21.6,8.64Z"></path>
      <path class="cls-2" d="M0,30.24A1.44,1.44,0,0,0,1.44,28.8,1.45,1.45,0,0,0,0,27.36,1.44,1.44,0,0,0-1.44,28.8,1.43,1.43,0,0,0,0,30.24Z"></path>
      <path class="cls-2" d="M0,15.84A1.44,1.44,0,0,0,1.44,14.4,1.45,1.45,0,0,0,0,13,1.44,1.44,0,0,0-1.44,14.4,1.43,1.43,0,0,0,0,15.84Z"></path>
      <path class="cls-2" d="M28.8,1.44A1.45,1.45,0,0,0,30.24,0,1.45,1.45,0,0,0,28.8-1.44,1.44,1.44,0,0,0,27.36,0,1.44,1.44,0,0,0,28.8,1.44Z"></path>
      <path class="cls-2" d="M14.4,1.44A1.45,1.45,0,0,0,15.84,0,1.45,1.45,0,0,0,14.4-1.44,1.44,1.44,0,0,0,13,0,1.44,1.44,0,0,0,14.4,1.44Z"></path>
      <path class="cls-2" d="M0,1.44A1.45,1.45,0,0,0,1.44,0,1.45,1.45,0,0,0,0-1.44,1.44,1.44,0,0,0-1.44,0,1.44,1.44,0,0,0,0,1.44Z"></path>
    </pattern>
    <pattern id="Blue_dots_2-3" data-name="Blue dots 2" width="28.8" height="28.8" patternTransform="translate(-26.44) scale(1.02 1)" patternUnits="userSpaceOnUse" viewBox="0 0 28.8 28.8">
      <rect class="cls-1" width="28.8" height="28.8"></rect>
      <path class="cls-2" d="M28.8,30.24a1.44,1.44,0,1,0-1.44-1.44A1.44,1.44,0,0,0,28.8,30.24Z"></path>
      <path class="cls-2" d="M14.4,30.24A1.44,1.44,0,1,0,13,28.8,1.44,1.44,0,0,0,14.4,30.24Z"></path>
      <path class="cls-2" d="M28.8,15.84a1.44,1.44,0,1,0-1.44-1.44A1.44,1.44,0,0,0,28.8,15.84Z"></path>
      <path class="cls-2" d="M14.4,15.84A1.44,1.44,0,1,0,13,14.4,1.44,1.44,0,0,0,14.4,15.84Z"></path>
      <path class="cls-2" d="M7.2,23A1.44,1.44,0,1,0,5.76,21.6,1.44,1.44,0,0,0,7.2,23Z"></path>
      <path class="cls-2" d="M21.6,23a1.44,1.44,0,1,0-1.44-1.44A1.44,1.44,0,0,0,21.6,23Z"></path>
      <path class="cls-2" d="M7.2,8.64A1.44,1.44,0,1,0,5.76,7.2,1.44,1.44,0,0,0,7.2,8.64Z"></path>
      <path class="cls-2" d="M21.6,8.64A1.44,1.44,0,1,0,20.16,7.2,1.44,1.44,0,0,0,21.6,8.64Z"></path>
      <path class="cls-2" d="M0,30.24A1.44,1.44,0,0,0,1.44,28.8,1.45,1.45,0,0,0,0,27.36,1.44,1.44,0,0,0-1.44,28.8,1.43,1.43,0,0,0,0,30.24Z"></path>
      <path class="cls-2" d="M0,15.84A1.44,1.44,0,0,0,1.44,14.4,1.45,1.45,0,0,0,0,13,1.44,1.44,0,0,0-1.44,14.4,1.43,1.43,0,0,0,0,15.84Z"></path>
      <path class="cls-2" d="M28.8,1.44A1.45,1.45,0,0,0,30.24,0,1.45,1.45,0,0,0,28.8-1.44,1.44,1.44,0,0,0,27.36,0,1.44,1.44,0,0,0,28.8,1.44Z"></path>
      <path class="cls-2" d="M14.4,1.44A1.45,1.45,0,0,0,15.84,0,1.45,1.45,0,0,0,14.4-1.44,1.44,1.44,0,0,0,13,0,1.44,1.44,0,0,0,14.4,1.44Z"></path>
      <path class="cls-2" d="M0,1.44A1.45,1.45,0,0,0,1.44,0,1.45,1.45,0,0,0,0-1.44,1.44,1.44,0,0,0-1.44,0,1.44,1.44,0,0,0,0,1.44Z"></path>
    </pattern>
  </defs>
  <title>Shops_NEW_</title>
  <g id="Layer_1" data-name="Layer 1">
    <rect class="cls-3" x="72.51" y="259.27" width="459.46" height="212.91"></rect>
    <rect class="cls-4" x="156.28" y="309.72" width="50.52" height="141.43"></rect>
    <rect class="cls-5" x="300.33" y="309.72" width="51.5" height="141.43"></rect>
    <rect class="cls-6" x="441.59" y="292.42" width="75.11" height="194.99"></rect>
    <rect class="cls-7" x="461.43" y="393.51" width="35.09" height="9.52"></rect>
    <rect class="cls-7" x="453.73" y="305.92" width="50.53" height="27.94"></rect>
    <rect class="cls-6" x="453.73" y="415.87" width="20.3" height="49.31"></rect>
    <rect class="cls-6" x="483.96" y="415.87" width="20.3" height="49.31"></rect>
    <rect class="cls-6" x="453.73" y="342.9" width="20.3" height="39.79"></rect>
    <rect class="cls-6" x="483.96" y="342.9" width="20.3" height="39.79"></rect>
    <path class="cls-8" d="M92.59,380.58a.46.46,0,0,0-.34.49v2.45a.45.45,0,0,0,.39.49h.1a1.66,1.66,0,0,1-.35.67,5.29,5.29,0,0,1-1,.91,5.4,5.4,0,0,0-1.22,1.14,3.59,3.59,0,0,0-.64,2h0v11.42a2,2,0,0,0,1.69,2.17h9a2,2,0,0,0,1.69-2.17v-11.4h0a3.52,3.52,0,0,0-.63-2.05,5.45,5.45,0,0,0-1.22-1.15,5.58,5.58,0,0,1-1-.92,1.56,1.56,0,0,1-.34-.68h.12a.45.45,0,0,0,.39-.49l0-2.44a.64.64,0,0,0-.11-.36.35.35,0,0,0-.28-.14h-6.2Z"></path>
    <path class="cls-8" d="M110.65,380.58a.45.45,0,0,0-.34.49v2.45a.45.45,0,0,0,.38.49h.11a1.79,1.79,0,0,1-.35.67,5.29,5.29,0,0,1-1,.91,5.4,5.4,0,0,0-1.22,1.14,3.59,3.59,0,0,0-.64,2h0v11.42a2,2,0,0,0,1.69,2.17h9a2,2,0,0,0,1.68-2.17v-11.4h0a3.52,3.52,0,0,0-.62-2.05,5.45,5.45,0,0,0-1.22-1.15,6,6,0,0,1-1-.92,1.81,1.81,0,0,1-.34-.68h.13a.45.45,0,0,0,.39-.49l0-2.44a.64.64,0,0,0-.11-.36.38.38,0,0,0-.28-.14h-6.2Z"></path>
    <path class="cls-9" d="M105.89,270.38a.47.47,0,0,0-.34.5v2.45a.45.45,0,0,0,.38.49H106a1.87,1.87,0,0,1-.35.67,5.64,5.64,0,0,1-1,.91,5.4,5.4,0,0,0-1.22,1.14,3.59,3.59,0,0,0-.64,2h0V290a2,2,0,0,0,1.69,2.16h9a2,2,0,0,0,1.68-2.16v-11.4h0a3.51,3.51,0,0,0-.62-2,5.45,5.45,0,0,0-1.22-1.15,6,6,0,0,1-1-.93,1.77,1.77,0,0,1-.34-.67h.13a.45.45,0,0,0,.39-.49l0-2.44a.61.61,0,0,0-.11-.36.39.39,0,0,0-.28-.15h-6.2Z"></path>
    <path class="cls-10" d="M101.89,439.16h8.49l0-14.63-2.21-6.86v-5.62h-4.13v5.62l-2.21,6.86Z"></path>
    <rect class="cls-11" x="128.04" y="274.11" width="23.22" height="18.07"></rect>
    <rect class="cls-10" x="129" y="416.57" width="22.27" height="18.07"></rect>
    <rect class="cls-10" x="96.84" y="353.58" width="23.22" height="18.07"></rect>
    <line class="cls-12" x1="156.35" y1="291.37" x2="156.35" y2="475.22"></line>
    <path class="cls-6" d="M95.44,335.46h8.48l0-14.64L101.73,314v-5.62H97.62V314l-2.21,6.86Z"></path>
    <path class="cls-6" d="M110.71,335.46h8.49l0-14.64L117,314v-5.62H112.9V314l-2.21,6.86Z"></path>
    <rect class="cls-13" x="83.98" y="435.13" width="72.35" height="5.74"></rect>
    <rect class="cls-13" x="84.06" y="401.91" width="72.22" height="5.74"></rect>
    <rect class="cls-13" x="83.98" y="368.69" width="72.31" height="5.74"></rect>
    <rect class="cls-13" x="83.98" y="335.47" width="72.33" height="5.74"></rect>
    <rect class="cls-13" x="84.75" y="291.37" width="72.08" height="5.74"></rect>
    <path class="cls-8" d="M415.58,380.58a.46.46,0,0,1,.35.49v2.45a.45.45,0,0,1-.39.49h-.1a1.64,1.64,0,0,0,.34.67,5.68,5.68,0,0,0,1.05.91,5.36,5.36,0,0,1,1.21,1.14,3.59,3.59,0,0,1,.64,2h0v11.42a2,2,0,0,1-1.68,2.17h-9a2,2,0,0,1-1.68-2.17v-11.4h0a3.52,3.52,0,0,1,.63-2.05,5.42,5.42,0,0,1,1.21-1.15,5.66,5.66,0,0,0,1-.92,1.68,1.68,0,0,0,.34-.68h-.13a.45.45,0,0,1-.39-.49v-2.44a.64.64,0,0,1,.11-.36.35.35,0,0,1,.27-.14h6.2Z"></path>
    <path class="cls-8" d="M397.52,380.58a.46.46,0,0,1,.35.49v2.45a.45.45,0,0,1-.39.49h-.1a1.64,1.64,0,0,0,.34.67,5.68,5.68,0,0,0,1,.91,5.36,5.36,0,0,1,1.21,1.14,3.52,3.52,0,0,1,.64,2h0v11.42a2,2,0,0,1-1.68,2.17h-9a2,2,0,0,1-1.69-2.17v-11.4h0a3.52,3.52,0,0,1,.63-2.05,5.42,5.42,0,0,1,1.21-1.15,5.66,5.66,0,0,0,1-.92,1.56,1.56,0,0,0,.34-.68h-.13a.45.45,0,0,1-.38-.49l0-2.44a.64.64,0,0,1,.11-.36.35.35,0,0,1,.28-.14h6.19Z"></path>
    <path class="cls-9" d="M402.28,270.38a.48.48,0,0,1,.35.5v2.45a.45.45,0,0,1-.39.49h-.1a1.7,1.7,0,0,0,.34.67,6.08,6.08,0,0,0,1,.91,5.36,5.36,0,0,1,1.21,1.14,3.52,3.52,0,0,1,.64,2h0V290a2,2,0,0,1-1.68,2.16h-9A2,2,0,0,1,393,290v-11.4h0a3.51,3.51,0,0,1,.63-2,5.42,5.42,0,0,1,1.21-1.15,5.69,5.69,0,0,0,1-.93,1.64,1.64,0,0,0,.34-.67h-.13a.45.45,0,0,1-.38-.49l0-2.44a.61.61,0,0,1,.11-.36.36.36,0,0,1,.28-.15h6.19Z"></path>
    <path class="cls-10" d="M406.28,439.16H397.8l0-14.63,2.22-6.86v-5.62h4.12v5.62l2.21,6.86Z"></path>
    <rect class="cls-11" x="356.91" y="274.11" width="23.22" height="18.07" transform="translate(737.04 566.3) rotate(-180)"></rect>
    <rect class="cls-10" x="356.91" y="416.57" width="22.27" height="18.07" transform="translate(736.09 851.21) rotate(-180)"></rect>
    <rect class="cls-10" x="388.12" y="353.58" width="23.22" height="18.07" transform="translate(799.46 725.24) rotate(-180)"></rect>
    <line class="cls-12" x1="351.83" y1="291.37" x2="351.83" y2="475.22"></line>
    <path class="cls-6" d="M412.74,335.46h-8.49l0-14.64,2.21-6.86v-5.62h4.13V314l2.21,6.86Z"></path>
    <path class="cls-6" d="M397.46,335.46H389l0-14.64,2.21-6.86v-5.62h4.12V314l2.22,6.86Z"></path>
    <rect class="cls-13" x="351.85" y="435.13" width="72.35" height="5.74" transform="translate(776.05 876) rotate(-180)"></rect>
    <rect class="cls-13" x="351.9" y="401.91" width="72.22" height="5.74" transform="translate(776.02 809.56) rotate(-180)"></rect>
    <rect class="cls-13" x="351.89" y="368.69" width="72.31" height="5.74" transform="translate(776.09 743.12) rotate(-180)"></rect>
    <rect class="cls-13" x="351.87" y="335.47" width="72.33" height="5.74" transform="translate(776.07 676.68) rotate(-180)"></rect>
    <rect class="cls-13" x="351.34" y="291.37" width="72.08" height="5.74" transform="translate(774.77 588.49) rotate(-180)"></rect>
    <path class="cls-14" d="M219.49,309.72V479.14h68.14V309.72ZM229.11,467V409.9h6.21V380.36h-6.21v-61H278V467Z"></path>
    <rect class="cls-14" x="225.1" y="380.41" width="12.43" height="29.54" transform="translate(462.63 790.36) rotate(-180)"></rect>
  </g>
  <g id="Layer_2" data-name="Layer 2">
    <rect class="cls-6" x="206.8" y="309.72" width="12.7" height="177.1"></rect>
    <rect class="cls-6" x="424.2" y="309.72" width="17.39" height="177.1"></rect>
    <rect class="cls-6" x="83.96" y="459.63" width="135.54" height="19.51"></rect>
    <rect class="cls-6" x="287.63" y="309.72" width="12.7" height="177.1"></rect>
    <rect class="cls-6" x="83.96" y="451.15" width="141.14" height="8.48"></rect>
    <rect class="cls-6" x="287.66" y="459.63" width="135.54" height="19.51" transform="translate(710.86 938.77) rotate(-180)"></rect>
    <rect class="cls-6" x="282.06" y="451.15" width="141.14" height="8.48" transform="translate(705.26 910.78) rotate(-180)"></rect>
    <rect class="cls-10" x="62.65" y="479.18" width="474.7" height="12.05"></rect>
    <rect class="cls-6" x="62.65" y="254.37" width="21.31" height="236.87"></rect>
    <rect class="cls-6" x="516.7" y="254.37" width="21.31" height="236.87"></rect>
    <rect class="cls-6" x="266.97" y="-16.67" width="66.71" height="475.35" transform="translate(521.34 -79.32) rotate(90)"></rect>
    <path class="cls-15" d="M455,488.67l-11.49-67.55a1.44,1.44,0,0,0-1.63-1.15l-1,.18a5.18,5.18,0,0,0-10.2,0l-1-.18a1.42,1.42,0,0,0-1.62,1.15l-11.5,67.55a1.41,1.41,0,0,0,1.15,1.62l6.08,1,.24,0a1.37,1.37,0,0,0,.81-.26,1.42,1.42,0,0,0,.58-.91L435.69,429l10.41,61.16a1.4,1.4,0,0,0,1.38,1.17l.24,0,6.08-1A1.4,1.4,0,0,0,455,488.67Z"></path>
    <rect class="cls-16" x="76.53" y="290.28" width="446.94" height="19.44"></rect>
    <polygon class="cls-16" points="523.47 290.28 76.53 290.28 83 254.37 517.6 254.37 523.47 290.28"></polygon>
    <rect class="cls-6" x="512.23" y="467.04" width="30.18" height="24.19"></rect>
    <rect class="cls-6" x="512.23" y="460.21" width="30.18" height="6.84"></rect>
    <rect class="cls-6" x="58.21" y="467.04" width="30.18" height="24.19"></rect>
    <rect class="cls-6" x="58.21" y="460.21" width="30.18" height="6.84"></rect>
    <rect class="cls-6" x="58.21" y="173.56" width="484.19" height="14.1"></rect>
    <rect class="cls-17" x="76.53" y="187.66" width="29.87" height="6.43"></rect>
    <rect class="cls-17" x="180.8" y="187.66" width="29.87" height="6.43"></rect>
    <rect class="cls-17" x="285.07" y="187.66" width="29.87" height="6.43"></rect>
    <rect class="cls-17" x="389.33" y="187.66" width="29.87" height="6.43"></rect>
    <rect class="cls-17" x="493.6" y="187.66" width="29.87" height="6.43"></rect>
    <path class="cls-15" d="M106.29,220.66l-1.13,1.3v4.65H103V208.17h2.13v11l4-5.58h2.55L107.62,219l4.67,7.57h-2.47Z"></path>
    <path class="cls-15" d="M120.79,226.61a4.7,4.7,0,0,1-.28-1.42,3.38,3.38,0,0,1-2.88,1.66,3.71,3.71,0,0,1-2.75-1,3.77,3.77,0,0,1-1-2.79,4,4,0,0,1,1.34-3.15,5.56,5.56,0,0,1,3.69-1.19h1.56v-1.38a1.82,1.82,0,0,0-2.09-2.15,2.17,2.17,0,0,0-1.56.57,1.91,1.91,0,0,0-.6,1.45H114.1a3.43,3.43,0,0,1,.59-1.9,4.12,4.12,0,0,1,1.58-1.43,4.85,4.85,0,0,1,2.23-.51,4.25,4.25,0,0,1,3,1,3.89,3.89,0,0,1,1.06,2.88v6.56a7.86,7.86,0,0,0,.41,2.61v.19ZM118,224.92a2.77,2.77,0,0,0,1.48-.44,2.68,2.68,0,0,0,1-1.08v-3.1h-1.2a4.08,4.08,0,0,0-2.39.68,2.15,2.15,0,0,0-.88,1.83,2.44,2.44,0,0,0,.44,1.61A2,2,0,0,0,118,224.92Z"></path>
    <path class="cls-15" d="M131.25,215.61a4.91,4.91,0,0,0-1-.08,2.34,2.34,0,0,0-2.29,1.78v9.3h-2.12v-13h2.06l0,1.32a2.64,2.64,0,0,1,2.41-1.56,1.88,1.88,0,0,1,.84.16Z"></path>
    <path class="cls-15" d="M139.57,226.61a4.7,4.7,0,0,1-.28-1.42,3.38,3.38,0,0,1-2.88,1.66,3.73,3.73,0,0,1-2.76-1,3.77,3.77,0,0,1-1-2.79,4,4,0,0,1,1.35-3.15,5.51,5.51,0,0,1,3.68-1.19h1.56v-1.38a1.81,1.81,0,0,0-2.08-2.15,2.18,2.18,0,0,0-1.57.57,1.91,1.91,0,0,0-.6,1.45h-2.12a3.43,3.43,0,0,1,.59-1.9,4.12,4.12,0,0,1,1.58-1.43,4.83,4.83,0,0,1,2.22-.51,4.22,4.22,0,0,1,3,1,3.85,3.85,0,0,1,1.07,2.88v6.56a7.86,7.86,0,0,0,.41,2.61v.19Zm-2.84-1.69a2.81,2.81,0,0,0,1.49-.44,2.66,2.66,0,0,0,1-1.08v-3.1h-1.2a4.11,4.11,0,0,0-2.39.68,2.17,2.17,0,0,0-.87,1.83,2.44,2.44,0,0,0,.44,1.61A2,2,0,0,0,136.73,224.92Z"></path>
    <path class="cls-15" d="M148.16,223.38l2.46-9.76h2.17l-3.86,13h-1.58l-3.9-13h2.16Z"></path>
    <path class="cls-15" d="M161.5,226.61a4.46,4.46,0,0,1-.27-1.42,3.41,3.41,0,0,1-2.89,1.66,3.72,3.72,0,0,1-2.75-1,3.77,3.77,0,0,1-1-2.79,4,4,0,0,1,1.34-3.15,5.56,5.56,0,0,1,3.69-1.19h1.56v-1.38a2.2,2.2,0,0,0-.52-1.66,2.24,2.24,0,0,0-1.57-.49,2.17,2.17,0,0,0-1.56.57,1.91,1.91,0,0,0-.6,1.45h-2.13a3.43,3.43,0,0,1,.59-1.9,4.08,4.08,0,0,1,1.59-1.43,4.78,4.78,0,0,1,2.22-.51,4.22,4.22,0,0,1,3,1,3.85,3.85,0,0,1,1.06,2.88v6.56a8.12,8.12,0,0,0,.41,2.61v.19Zm-2.83-1.69a2.83,2.83,0,0,0,1.49-.44,2.72,2.72,0,0,0,1-1.08v-3.1H160a4.08,4.08,0,0,0-2.39.68,2.18,2.18,0,0,0-.88,1.83,2.38,2.38,0,0,0,.45,1.61A1.92,1.92,0,0,0,158.67,224.92Z"></path>
    <path class="cls-15" d="M168.6,213.62l.06,1.4a3.76,3.76,0,0,1,3.15-1.64q3.45,0,3.5,4.6v8.63H173.2v-8.54a3.54,3.54,0,0,0-.52-2.17,1.86,1.86,0,0,0-1.53-.64,2.18,2.18,0,0,0-1.42.53,3.7,3.7,0,0,0-1,1.38v9.44h-2.13v-13Z"></path>
    <path class="cls-15" d="M188.77,226.85A4.74,4.74,0,0,1,185,225.4a6.29,6.29,0,0,1-1.32-4.24v-1.58A7.34,7.34,0,0,1,185,215a4.21,4.21,0,0,1,3.54-1.65,4.05,4.05,0,0,1,3.41,1.45,7.53,7.53,0,0,1,1.15,4.53v1.39h-7.25v.3a4.8,4.8,0,0,0,.78,3,2.79,2.79,0,0,0,2.27.94,3.64,3.64,0,0,0,1.65-.35,4.28,4.28,0,0,0,1.34-1.12l1.1,1.34A4.81,4.81,0,0,1,188.77,226.85Zm-.24-11.65a2.22,2.22,0,0,0-2,.91,5.43,5.43,0,0,0-.72,2.81H191v-.28a4.92,4.92,0,0,0-.66-2.65A2.08,2.08,0,0,0,188.53,215.2Z"></path>
    <path class="cls-15" d="M200.15,225a2.23,2.23,0,0,0,1.69-.65,2.76,2.76,0,0,0,.7-1.87h2a4.42,4.42,0,0,1-1.32,3.11,4.22,4.22,0,0,1-3.07,1.23,4.52,4.52,0,0,1-3.68-1.52,6.88,6.88,0,0,1-1.27-4.52v-1.43a6.88,6.88,0,0,1,1.26-4.47,4.5,4.5,0,0,1,3.68-1.53,4.1,4.1,0,0,1,3.16,1.26,5.08,5.08,0,0,1,1.24,3.44h-2a3.55,3.55,0,0,0-.69-2.16,2.13,2.13,0,0,0-1.71-.72,2.42,2.42,0,0,0-2.1.93,5.3,5.3,0,0,0-.71,3.06v1.65a5.76,5.76,0,0,0,.68,3.25A2.44,2.44,0,0,0,200.15,225Z"></path>
    <path class="cls-15" d="M206.55,219.51a6.81,6.81,0,0,1,1.37-4.48,4.87,4.87,0,0,1,7.27,0,6.72,6.72,0,0,1,1.41,4.38v1.37a6.75,6.75,0,0,1-1.37,4.46,4.88,4.88,0,0,1-7.27.05,6.59,6.59,0,0,1-1.41-4.32Zm2.12,1.23a5.48,5.48,0,0,0,.79,3.15,2.44,2.44,0,0,0,2.12,1.14c1.87,0,2.84-1.35,2.89-4.05v-1.47a5.48,5.48,0,0,0-.79-3.15,2.47,2.47,0,0,0-2.13-1.16,2.42,2.42,0,0,0-2.09,1.16,5.47,5.47,0,0,0-.79,3.14Z"></path>
    <path class="cls-15" d="M230.22,234.28a3.74,3.74,0,0,1,3.1-1.57q3.45,0,3.49,4.6v8.63H234.7V237.4a3.53,3.53,0,0,0-.51-2.16,1.83,1.83,0,0,0-1.53-.65,2.16,2.16,0,0,0-1.42.53,4,4,0,0,0-1,1.38v9.44H228.1V227.5h2.12Z"></path>
    <path class="cls-15" d="M239.53,238.84a6.83,6.83,0,0,1,1.37-4.48,4.51,4.51,0,0,1,3.64-1.65,4.56,4.56,0,0,1,3.63,1.61,6.72,6.72,0,0,1,1.41,4.38v1.37a6.8,6.8,0,0,1-1.37,4.47,4.89,4.89,0,0,1-7.27,0,6.59,6.59,0,0,1-1.41-4.32Zm2.12,1.23a5.51,5.51,0,0,0,.79,3.15,2.43,2.43,0,0,0,2.12,1.15c1.87,0,2.84-1.36,2.89-4.06v-1.47a5.52,5.52,0,0,0-.79-3.15,2.46,2.46,0,0,0-2.12-1.15,2.41,2.41,0,0,0-2.1,1.15,5.57,5.57,0,0,0-.79,3.14Z"></path>
    <path class="cls-15" d="M254.32,233l.05,1.2a3.85,3.85,0,0,1,3.13-1.44,3.08,3.08,0,0,1,3,1.88,3.85,3.85,0,0,1,3.41-1.88c2.39,0,3.62,1.49,3.67,4.48v8.75h-2.11v-8.55a3.53,3.53,0,0,0-.51-2.1,2,2,0,0,0-1.7-.7,1.9,1.9,0,0,0-1.56.75,3.46,3.46,0,0,0-.7,1.9v8.7h-2.13V237.3c0-1.8-.76-2.71-2.2-2.71a2.32,2.32,0,0,0-2.27,1.61v9.74h-2.11V233Z"></path>
    <path class="cls-15" d="M275.46,246.18a4.71,4.71,0,0,1-3.72-1.45,6.23,6.23,0,0,1-1.32-4.24v-1.57a7.29,7.29,0,0,1,1.27-4.56,4.19,4.19,0,0,1,3.53-1.65,4,4,0,0,1,3.41,1.45,7.46,7.46,0,0,1,1.15,4.53v1.39h-7.25v.3a4.71,4.71,0,0,0,.79,3,2.77,2.77,0,0,0,2.26,1,3.58,3.58,0,0,0,1.65-.36,4,4,0,0,0,1.34-1.12l1.11,1.35A4.85,4.85,0,0,1,275.46,246.18Zm-.24-11.64a2.25,2.25,0,0,0-2,.9,5.47,5.47,0,0,0-.72,2.82h5.12V238a5,5,0,0,0-.67-2.64A2.05,2.05,0,0,0,275.22,234.54Z"></path>
  </g>
</svg>
