<?xml version="1.0" encoding="UTF-8"?>
<svg xmlns="http://www.w3.org/2000/svg" viewBox="0 0 600 600">
  <path d="m117.02 186.45h383.32v305.41h-383.32z" fill="#fff"></path>
  <path d="m272.56 318.3a.54.54 0 0 0 -.41.58v2.9a.53.53 0 0 0 .46.58h.12a2.06 2.06 0 0 1 -.41.79 7.22 7.22 0 0 1 -1.24 1.08 6.16 6.16 0 0 0 -1.43 1.34 4.2 4.2 0 0 0 -.76 2.43v13.5a2.35 2.35 0 0 0 2 2.57h10.64a2.35 2.35 0 0 0 2-2.57v-13.5a4.19 4.19 0 0 0 -.75-2.42 6.49 6.49 0 0 0 -1.43-1.36 6.74 6.74 0 0 1 -1.23-1.09 2 2 0 0 1 -.4-.8h.15a.53.53 0 0 0 .46-.58v-2.89a.77.77 0 0 0 -.13-.42.43.43 0 0 0 -.33-.17h-7.32z" fill="#ffde00" fill-rule="evenodd"></path>
  <path d="m105.23 185.64h25.96v10.49h-25.96z" fill="#ffde00"></path>
  <path d="m487.36 185.64h25.96v10.49h-25.96z" fill="#ffde00"></path>
  <path d="m480.7 364.09h8.94v25.39h-8.94z" fill="#ffde00" transform="matrix(-1 0 0 -1 970.34 753.57)"></path>
  <path d="m480.7 325.42h8.94v31.06h-8.94z" fill="#ffde00" transform="matrix(-1 0 0 -1 970.34 681.89)"></path>
  <path d="m480.7 286.75h8.94v31.06h-8.94z" fill="#ffde00" transform="matrix(-1 0 0 -1 970.34 604.55)"></path>
  <path d="m480.7 248.08h8.94v31.06h-8.94z" fill="#ffde00" transform="matrix(-1 0 0 -1 970.34 527.21)"></path>
  <path d="m443.32 364.09h8.94v25.39h-8.94z" fill="#ffde00" transform="matrix(-1 0 0 -1 895.58 753.57)"></path>
  <path d="m443.32 325.42h8.94v31.06h-8.94z" fill="#ffde00" transform="matrix(-1 0 0 -1 895.58 681.89)"></path>
  <path d="m443.32 286.75h8.94v31.06h-8.94z" fill="#ffde00" transform="matrix(-1 0 0 -1 895.58 604.55)"></path>
  <path d="m443.32 248.08h8.94v31.06h-8.94z" fill="#ffde00" transform="matrix(-1 0 0 -1 895.58 527.21)"></path>
  <path d="m226.9 269.33h15.3v17.22h-15.3z" fill="#ffde00"></path>
  <path d="m250.54 269.33h15.3v17.22h-15.3z" fill="#ffde00"></path>
  <path d="m245.9 407.48h15.3v17.22h-15.3z" fill="#ffde00"></path>
  <path d="m227.29 447.83h61.39v30.4h-61.39z" fill="#ffde00"></path>
  <path d="m278.56 407.48h15.3v17.22h-15.3z" fill="#ffde00"></path>
  <path d="m369.65 318.3a.55.55 0 0 0 -.41.58v2.9a.53.53 0 0 0 .46.58h.12a1.91 1.91 0 0 1 -.4.79 7.22 7.22 0 0 1 -1.24 1.08 6.16 6.16 0 0 0 -1.43 1.34 4.2 4.2 0 0 0 -.75 2.43v13.5a2.35 2.35 0 0 0 2 2.57h10.64a2.34 2.34 0 0 0 2-2.57v-13.5a4.12 4.12 0 0 0 -.74-2.42 6.49 6.49 0 0 0 -1.43-1.36 6.42 6.42 0 0 1 -1.23-1.09 1.89 1.89 0 0 1 -.4-.8h.16a.53.53 0 0 0 .45-.58v-2.89a.71.71 0 0 0 -.14-.42.4.4 0 0 0 -.32-.17h-7.33z" fill="#ffde00" fill-rule="evenodd"></path>
  <path d="m231.29 318.3a.55.55 0 0 0 -.41.58v2.9a.53.53 0 0 0 .46.58h.12a1.93 1.93 0 0 1 -.41.79 7.51 7.51 0 0 1 -1.23 1.08 6.19 6.19 0 0 0 -1.44 1.34 4.27 4.27 0 0 0 -.75 2.43v13.5a2.34 2.34 0 0 0 2 2.57h10.64a2.35 2.35 0 0 0 2-2.57v-13.5a4.19 4.19 0 0 0 -.74-2.42 6.53 6.53 0 0 0 -1.44-1.36 7.1 7.1 0 0 1 -1.23-1.09 2.15 2.15 0 0 1 -.4-.8h.15a.53.53 0 0 0 .46-.58v-2.89a.7.7 0 0 0 -.13-.42.4.4 0 0 0 -.32-.17h-7.33z" fill="#ffde00" fill-rule="evenodd"></path>
  <path d="m324 269.33h15.3v17.22h-15.3z" fill="#ffde00"></path>
  <path d="m347.64 269.33h15.3v17.22h-15.3z" fill="#ffde00"></path>
  <path d="m328.39 318.3a.54.54 0 0 0 -.41.58v2.9a.53.53 0 0 0 .46.58h.12a2.06 2.06 0 0 1 -.41.79 7.22 7.22 0 0 1 -1.24 1.08 6.16 6.16 0 0 0 -1.43 1.34 4.2 4.2 0 0 0 -.76 2.43v13.5a2.35 2.35 0 0 0 2 2.57h10.64a2.35 2.35 0 0 0 2-2.57v-13.5a4.19 4.19 0 0 0 -.75-2.42 6.49 6.49 0 0 0 -1.43-1.36 6.74 6.74 0 0 1 -1.23-1.09 2 2 0 0 1 -.4-.8h.15a.53.53 0 0 0 .46-.58v-2.89a.77.77 0 0 0 -.13-.42.43.43 0 0 0 -.33-.17h-7.32z" fill="#ffde00" fill-rule="evenodd"></path>
  <path d="m84.47 248.08h103.18v69.73h-103.18z" fill="#ffde00"></path>
  <path d="m123.67 356.47h48.61v7.61h-48.61z" fill="#00ab81"></path>
  <path d="m123.67 389.48h71.25v9.82h-71.25z" fill="#00ab81"></path>
  <path d="m123.67 317.81h48.61v7.61h-48.61z" fill="#00ab81"></path>
  <path d="m123.67 240.47h48.61v7.61h-48.61z" fill="#00ab81" transform="matrix(-1 0 0 -1 295.94 488.55)"></path>
  <path d="m123.67 216.16h48.61v7.61h-48.61z" fill="#00ab81" transform="matrix(-1 0 0 -1 295.94 439.94)"></path>
  <path d="m441.03 356.47h48.61v7.61h-48.61z" fill="#00ab81" transform="matrix(-1 0 0 -1 930.67 720.56)"></path>
  <path d="m418.39 389.48h71.25v9.82h-71.25z" fill="#00ab81" transform="matrix(-1 0 0 -1 908.03 788.78)"></path>
  <path d="m441.03 317.81h48.61v7.61h-48.61z" fill="#00ab81" transform="matrix(-1 0 0 -1 930.67 643.22)"></path>
  <path d="m441.03 279.14h48.61v7.61h-48.61z" fill="#00ab81" transform="matrix(-1 0 0 -1 930.67 565.88)"></path>
  <path d="m441.03 240.47h48.61v7.61h-48.61z" fill="#00ab81"></path>
  <path d="m425.65 399.3h63.98v79.05h-63.98z" fill="#00ab81" transform="matrix(-1 0 0 -1 915.29 877.65)"></path>
  <path d="m123.67 399.3v22.64h2.29l4.98-8.21h37.74l4.98 8.21h2.29v8.2h-2.29l-7.47 48.05h-32.77l-7.46-48.05h-2.29v48.21h63.98v-79.05z" fill="#00ab81"></path>
  <path d="m270.89 344.07a2.35 2.35 0 0 1 -2-2.57v-13.5a4.2 4.2 0 0 1 .76-2.43 6.19 6.19 0 0 1 1.44-1.34 7.51 7.51 0 0 0 1.23-1.08 2.06 2.06 0 0 0 .41-.79h-.12a.53.53 0 0 1 -.46-.58v-2.9a.54.54 0 0 1 .41-.58h5.61v-.22a7.59 7.59 0 0 0 -1.35-4.4 11.94 11.94 0 0 0 -2.62-2.49 12.43 12.43 0 0 1 -2.24-2 3.55 3.55 0 0 1 -.73-1.45h.27a1 1 0 0 0 .84-1.07v-5.26a1.3 1.3 0 0 0 -.24-.76.75.75 0 0 0 -.6-.32h-13.32a1 1 0 0 0 -.75 1.07v5.27a1 1 0 0 0 .84 1.07h.22a3.66 3.66 0 0 1 -.74 1.44 13 13 0 0 1 -2.26 2 11.48 11.48 0 0 0 -2.62 2.45 7.76 7.76 0 0 0 -1.38 4.42v24.64c0 2.56 1.64 4.67 3.64 4.67h19.41c1.61 0 2.94-1.4 3.41-3.27z" fill="#fb715d" fill-rule="evenodd"></path>
  <path d="m489.64 205.1h18.44v273.25h-18.44z" fill="#fb715d"></path>
  <path d="m107.43 478.19h408.08v12.26h-408.08z" fill="#fb715d"></path>
  <path d="m513.31 185.65v-17.81h-408.08v18.63h25.95v9.67h-25.95v8.96h408.08v-8.96h-25.95v-10.49z" fill="#fb715d"></path>
  <path d="m142.9 331.93a.53.53 0 0 0 -.39.55v2.74a.5.5 0 0 0 .43.55h.12a1.8 1.8 0 0 1 -.39.75 6.64 6.64 0 0 1 -1.16 1 5.75 5.75 0 0 0 -1.36 1.27 4 4 0 0 0 -.72 2.29v12.77a2.21 2.21 0 0 0 1.89 2.42h10.06a2.21 2.21 0 0 0 1.89-2.42v-12.71a3.94 3.94 0 0 0 -.71-2.28 6.26 6.26 0 0 0 -1.35-1.29 6.76 6.76 0 0 1 -1.17-1 1.8 1.8 0 0 1 -.37-.76h.14a.5.5 0 0 0 .43-.55v-2.73a.62.62 0 0 0 -.12-.39.41.41 0 0 0 -.31-.17h-6.91z" fill="#fb715d" fill-rule="evenodd"></path>
  <path d="m457 303.85h9.96v14.13h-9.96z" fill="#fb715d" transform="matrix(-1 0 0 -1 923.96 621.82)"></path>
  <path d="m466.9 303.85h9.96v14.13h-9.96z" fill="#fb715d" transform="matrix(-1 0 0 -1 943.76 621.82)"></path>
  <path d="m458.29 266.85h8.66v12.29h-8.66z" fill="#fb715d" transform="matrix(-1 0 0 -1 925.24 545.98)"></path>
  <path d="m466.9 266.85h8.66v12.29h-8.66z" fill="#fb715d" transform="matrix(-1 0 0 -1 942.47 545.98)"></path>
  <path d="m462.62 254.56h8.66v12.29h-8.66z" fill="#fb715d" transform="matrix(-1 0 0 -1 933.91 521.41)"></path>
  <path d="m470.41 331.93a.51.51 0 0 1 .38.55v2.74a.5.5 0 0 1 -.43.55h-.11a1.9 1.9 0 0 0 .38.75 6.73 6.73 0 0 0 1.17 1 5.75 5.75 0 0 1 1.36 1.27 4 4 0 0 1 .72 2.29v12.77a2.22 2.22 0 0 1 -1.88 2.45h-10.07a2.21 2.21 0 0 1 -1.89-2.42v-12.74a3.93 3.93 0 0 1 .7-2.28 6.29 6.29 0 0 1 1.36-1.29 6.32 6.32 0 0 0 1.16-1 2 2 0 0 0 .38-.76h-.14a.5.5 0 0 1 -.43-.55v-2.73a.62.62 0 0 1 .12-.39.38.38 0 0 1 .31-.17h6.93z" fill="#fb715d" fill-rule="evenodd"></path>
  <path d="m368 344.07a2.35 2.35 0 0 1 -2-2.57v-13.5a4.2 4.2 0 0 1 .76-2.43 6.16 6.16 0 0 1 1.43-1.34 7.22 7.22 0 0 0 1.24-1.08 2.06 2.06 0 0 0 .41-.79h-.12a.53.53 0 0 1 -.46-.58v-2.9a.53.53 0 0 1 .4-.58h5.62v-.22a7.59 7.59 0 0 0 -1.36-4.4 11.69 11.69 0 0 0 -2.61-2.49 12.1 12.1 0 0 1 -2.24-2 3.55 3.55 0 0 1 -.73-1.45h.27a1 1 0 0 0 .83-1.07v-5.26a1.17 1.17 0 0 0 -.24-.76.73.73 0 0 0 -.59-.32h-13.34a1 1 0 0 0 -.74 1.07v5.27a1 1 0 0 0 .83 1.07h.22a3.66 3.66 0 0 1 -.74 1.44 13.25 13.25 0 0 1 -2.25 2 11.28 11.28 0 0 0 -2.62 2.45 7.69 7.69 0 0 0 -1.38 4.42v24.64c0 2.56 1.64 4.67 3.63 4.67h19.41c1.62 0 2.94-1.4 3.42-3.27z" fill="#fb715d" fill-rule="evenodd"></path>
  <path d="m317.58 421.94h52.28v8.21h-52.28z" fill="#fb715d"></path>
  <path d="m367.56 421.94h-47.69l4.97-8.21h37.75z" fill="#fb715d" fill-rule="evenodd"></path>
  <path d="m353.15 430.14v6.55h-18.87v-6.55h-14.41l7.46 48.05h32.77l7.46-48.05z" fill="#fb715d" fill-rule="evenodd"></path>
  <path d="m334.28 430.14h18.88v6.55h-18.88z" fill="#fb715d"></path>
  <path d="m369.86 421.94h52.28v8.21h-52.28z" fill="#fb715d"></path>
  <path d="m419.84 421.94h-47.69l4.97-8.21h37.75z" fill="#fb715d" fill-rule="evenodd"></path>
  <path d="m405.43 430.14v6.55h-18.87v-6.55h-14.41l7.46 48.05h32.77l7.46-48.05z" fill="#fb715d" fill-rule="evenodd"></path>
  <path d="m386.56 430.14h18.88v6.55h-18.88z" fill="#fb715d"></path>
  <path d="m123.67 421.94h52.28v8.21h-52.28z" fill="#fb715d"></path>
  <path d="m173.66 421.94h-47.7l4.98-8.21h37.74z" fill="#fb715d" fill-rule="evenodd"></path>
  <path d="m159.25 430.14v6.55h-18.88v-6.55h-14.41l7.46 48.05h32.77l7.47-48.05z" fill="#fb715d" fill-rule="evenodd"></path>
  <path d="m140.37 430.14h18.88v6.55h-18.88z" fill="#fb715d"></path>
  <path d="m110.46 205.1h13.21v42.98h-13.21z" fill="#fb715d"></path>
  <path d="m110.46 317.8h13.21v160.54h-13.21z" fill="#fb715d"></path>
  <g fill="#1c19a8">
    <path d="m281.52 345.46h-10.64a3.71 3.71 0 0 1 -3.38-3.95v-13.51a5.62 5.62 0 0 1 1-3.26 7.79 7.79 0 0 1 1.72-1.64 7.82 7.82 0 0 0 .67-.52 2 2 0 0 1 -.16-.82v-2.89a1.92 1.92 0 0 1 1.6-2h7.52a1.8 1.8 0 0 1 1.43.71 2.13 2.13 0 0 1 .42 1.27v2.89a2.05 2.05 0 0 1 -.17.83 8.18 8.18 0 0 0 .64.53 7.71 7.71 0 0 1 1.72 1.65 5.62 5.62 0 0 1 1 3.22v13.5a3.71 3.71 0 0 1 -3.37 3.99zm-8-24.18a1.52 1.52 0 0 1 .22.22 1.43 1.43 0 0 1 .32 1.2 3.41 3.41 0 0 1 -.67 1.31 7.84 7.84 0 0 1 -1.49 1.33 5.16 5.16 0 0 0 -1.14 1.05 2.77 2.77 0 0 0 -.5 1.63v13.49c0 .71.4 1.16.6 1.16h10.64c.21 0 .6-.45.6-1.16v-13.51a2.75 2.75 0 0 0 -.48-1.62 5.3 5.3 0 0 0 -1.14-1.07 7.82 7.82 0 0 1 -1.48-1.31 3.36 3.36 0 0 1 -.66-1.34 1.38 1.38 0 0 1 .26-1.18 1.22 1.22 0 0 1 .31-.29v-1.52h-5.4z"></path>
    <path d="m274.54 348.74h-19.41c-2.77 0-5-2.72-5-6.07v-24.62a9.18 9.18 0 0 1 1.65-5.26 13 13 0 0 1 2.91-2.75 12.07 12.07 0 0 0 2-1.7 2.52 2.52 0 0 1 -.6-1.66v-5.27a2.39 2.39 0 0 1 1.91-2.41 2 2 0 0 1 .43 0h13.12a2.13 2.13 0 0 1 1.7.86 2.65 2.65 0 0 1 .53 1.63v5.25a2.64 2.64 0 0 1 -.63 1.71 11.9 11.9 0 0 0 1.85 1.55 13.23 13.23 0 0 1 3 2.83 9 9 0 0 1 1.62 5.2 1.67 1.67 0 0 1 -.4 1.11 1.51 1.51 0 0 1 -1 .52h-4.63v1.59a1.61 1.61 0 0 1 .23.22 1.46 1.46 0 0 1 .31 1.2 3.27 3.27 0 0 1 -.67 1.31 7.41 7.41 0 0 1 -1.49 1.33 5.22 5.22 0 0 0 -1.14 1.05 2.72 2.72 0 0 0 -.49 1.63v13.49c0 .71.39 1.16.59 1.16h7.07a1.41 1.41 0 0 1 1.35 1.73c-.7 2.63-2.61 4.37-4.81 4.37zm-15.71-42.28a1.52 1.52 0 0 1 1 1.63 4.91 4.91 0 0 1 -1 2 13.73 13.73 0 0 1 -2.5 2.22 10.49 10.49 0 0 0 -2.33 2.15 6.29 6.29 0 0 0 -1.11 3.64v24.61c0 1.75 1 3.28 2.24 3.28h19.41a1.65 1.65 0 0 0 1.12-.49h-4.78a3.71 3.71 0 0 1 -3.38-3.95v-13.55a5.75 5.75 0 0 1 1-3.25 7.93 7.93 0 0 1 1.73-1.65c.23-.16.48-.35.68-.52a2 2 0 0 1 -.17-.82v-2.89a1.93 1.93 0 0 1 1.6-2h4.3a5.79 5.79 0 0 0 -1-2.42 10.66 10.66 0 0 0 -2.33-2.19 13.92 13.92 0 0 1 -2.5-2.24 5.1 5.1 0 0 1 -1-2 1.39 1.39 0 0 1 .27-1.18 1.34 1.34 0 0 1 .81-.5v-4.66h-12.06z"></path>
    <path d="m508.08 479.75h-18.44a1.41 1.41 0 0 1 -1.41-1.4v-273.25a1.41 1.41 0 0 1 1.41-1.41h18.44a1.41 1.41 0 0 1 1.41 1.41v273.25a1.41 1.41 0 0 1 -1.41 1.4zm-17-2.81h15.62v-270.44h-15.65z"></path>
    <path d="m515.51 491.86h-408.08a1.41 1.41 0 0 1 -1.41-1.4v-12.27a1.41 1.41 0 0 1 1.41-1.4h408.08a1.41 1.41 0 0 1 1.41 1.4v12.27a1.41 1.41 0 0 1 -1.41 1.4zm-406.67-2.81h405.27v-9.45h-405.27z"></path>
    <path d="m131.18 197.54h-25.95a1.41 1.41 0 0 1 -1.41-1.4v-10.49a1.41 1.41 0 0 1 1.41-1.41h26a1.41 1.41 0 0 1 1.41 1.41v10.49a1.41 1.41 0 0 1 -1.46 1.4zm-24.54-2.81h23.14v-7.68h-23.14z"></path>
    <path d="m513.31 197.54h-25.95a1.41 1.41 0 0 1 -1.41-1.4v-10.49a1.41 1.41 0 0 1 1.41-1.41h25.95a1.41 1.41 0 0 1 1.41 1.41v10.49a1.41 1.41 0 0 1 -1.41 1.4zm-24.54-2.81h23.14v-7.68h-23.14z"></path>
    <path d="m513.31 206.5h-408.08a1.41 1.41 0 0 1 -1.41-1.4v-9a1.41 1.41 0 0 1 1.41-1.41h24.55v-6.86h-24.55a1.41 1.41 0 0 1 -1.41-1.4v-18.59a1.41 1.41 0 0 1 1.41-1.41h408.08a1.41 1.41 0 0 1 1.41 1.41v17.81a1.41 1.41 0 0 1 -1.41 1.4h-24.54v7.68h24.54a1.41 1.41 0 0 1 1.41 1.41v9a1.41 1.41 0 0 1 -1.41 1.36zm-406.67-2.81h405.27v-6.15h-24.55a1.41 1.41 0 0 1 -1.41-1.4v-10.49a1.41 1.41 0 0 1 1.41-1.41h24.55v-15h-405.27v15.82h24.54a1.41 1.41 0 0 1 1.41 1.41v9.67a1.41 1.41 0 0 1 -1.41 1.4h-24.54z"></path>
    <path d="m123.67 364.09h8.94v25.39h-8.94z"></path>
    <path d="m132.61 390.88h-8.94a1.4 1.4 0 0 1 -1.41-1.4v-25.39a1.41 1.41 0 0 1 1.41-1.41h8.94a1.41 1.41 0 0 1 1.4 1.41v25.39a1.4 1.4 0 0 1 -1.4 1.4zm-7.54-2.81h6.13v-22.57h-6.13z"></path>
    <path d="m123.67 325.42h8.94v31.06h-8.94z"></path>
    <path d="m132.61 357.88h-8.94a1.41 1.41 0 0 1 -1.41-1.4v-31.06a1.41 1.41 0 0 1 1.41-1.41h8.94a1.41 1.41 0 0 1 1.4 1.41v31.06a1.4 1.4 0 0 1 -1.4 1.4zm-7.54-2.81h6.13v-28.25h-6.13z"></path>
    <path d="m123.67 223.78h8.94v16.69h-8.94z"></path>
    <path d="m132.61 241.87h-8.94a1.41 1.41 0 0 1 -1.41-1.4v-16.69a1.41 1.41 0 0 1 1.41-1.41h8.94a1.41 1.41 0 0 1 1.4 1.41v16.69a1.4 1.4 0 0 1 -1.4 1.4zm-7.54-2.81h6.13v-13.88h-6.13z"></path>
    <path d="m161.05 364.09h8.94v25.39h-8.94z"></path>
    <path d="m170 390.88h-8.94a1.4 1.4 0 0 1 -1.41-1.4v-25.39a1.41 1.41 0 0 1 1.41-1.41h8.94a1.41 1.41 0 0 1 1.41 1.41v25.39a1.4 1.4 0 0 1 -1.41 1.4zm-7.53-2.81h6.12v-22.57h-6.12z"></path>
    <path d="m161.05 325.42h8.94v31.06h-8.94z"></path>
    <path d="m170 357.88h-8.94a1.41 1.41 0 0 1 -1.41-1.4v-31.06a1.41 1.41 0 0 1 1.41-1.41h8.94a1.41 1.41 0 0 1 1.41 1.41v31.06a1.41 1.41 0 0 1 -1.41 1.4zm-7.53-2.81h6.12v-28.25h-6.12z"></path>
    <path d="m161.05 223.78h8.94v16.69h-8.94z"></path>
    <path d="m170 241.87h-8.94a1.41 1.41 0 0 1 -1.41-1.4v-16.69a1.41 1.41 0 0 1 1.41-1.41h8.94a1.41 1.41 0 0 1 1.41 1.41v16.69a1.41 1.41 0 0 1 -1.41 1.4zm-7.53-2.81h6.12v-13.88h-6.12z"></path>
    <path d="m172.27 365.5h-48.6a1.41 1.41 0 0 1 -1.41-1.41v-7.61a1.41 1.41 0 0 1 1.41-1.41h48.6a1.41 1.41 0 0 1 1.41 1.41v7.61a1.41 1.41 0 0 1 -1.41 1.41zm-47.2-2.82h45.8v-4.8h-45.8z"></path>
    <path d="m194.91 400.71h-71.24a1.41 1.41 0 0 1 -1.41-1.41v-9.82a1.41 1.41 0 0 1 1.41-1.41h71.24a1.41 1.41 0 0 1 1.41 1.41v9.82a1.41 1.41 0 0 1 -1.41 1.41zm-69.84-2.82h68.44v-7h-68.44z"></path>
    <path d="m172.27 326.82h-48.6a1.41 1.41 0 0 1 -1.41-1.4v-7.62a1.41 1.41 0 0 1 1.41-1.4h48.6a1.41 1.41 0 0 1 1.41 1.4v7.62a1.41 1.41 0 0 1 -1.41 1.4zm-47.2-2.82h45.8v-4.8h-45.8z"></path>
    <path d="m172.27 249.49h-48.6a1.41 1.41 0 0 1 -1.41-1.41v-7.61a1.41 1.41 0 0 1 1.41-1.41h48.6a1.41 1.41 0 0 1 1.41 1.41v7.61a1.41 1.41 0 0 1 -1.41 1.41zm-47.2-2.82h45.8v-4.8h-45.8z"></path>
    <path d="m172.27 225.18h-48.6a1.41 1.41 0 0 1 -1.41-1.4v-7.62a1.41 1.41 0 0 1 1.41-1.4h48.6a1.41 1.41 0 0 1 1.41 1.4v7.62a1.41 1.41 0 0 1 -1.41 1.4zm-47.2-2.81h45.8v-4.8h-45.8z"></path>
    <path d="m151.38 357.7h-10.06a3.59 3.59 0 0 1 -3.28-3.82v-12.77a5.38 5.38 0 0 1 1-3.11 7.31 7.31 0 0 1 1.63-1.56l.61-.48a2 2 0 0 1 -.14-.74v-2.73a1.92 1.92 0 0 1 1.57-1.94h7.14a1.8 1.8 0 0 1 1.4.69 2 2 0 0 1 .42 1.3v2.7a1.91 1.91 0 0 1 -.15.76c.18.16.36.3.55.45a7 7 0 0 1 1.66 1.6 5.34 5.34 0 0 1 1 3.08v12.76a3.59 3.59 0 0 1 -3.35 3.81zm-7.48-23a1.26 1.26 0 0 1 .2.2 1.45 1.45 0 0 1 .31 1.19 3.31 3.31 0 0 1 -.65 1.28 7.64 7.64 0 0 1 -1.42 1.26 4.78 4.78 0 0 0 -1.06 1 2.64 2.64 0 0 0 -.46 1.5v12.75c0 .67.37 1 .5 1h10.06c.12 0 .49-.36.49-1v-12.74a2.47 2.47 0 0 0 -.44-1.48 4.65 4.65 0 0 0 -1.07-1 7.55 7.55 0 0 1 -1.42-1.28 3.33 3.33 0 0 1 -.63-1.28 1.41 1.41 0 0 1 .26-1.19 1.37 1.37 0 0 1 .28-.26v-1.33h-5z"></path>
    <path d="m489.64 390.88h-8.94a1.4 1.4 0 0 1 -1.41-1.4v-25.39a1.41 1.41 0 0 1 1.41-1.41h8.94a1.41 1.41 0 0 1 1.41 1.41v25.39a1.4 1.4 0 0 1 -1.41 1.4zm-7.54-2.81h6.13v-22.57h-6.13z"></path>
    <path d="m489.64 357.88h-8.94a1.41 1.41 0 0 1 -1.41-1.4v-31.06a1.41 1.41 0 0 1 1.41-1.42h8.94a1.41 1.41 0 0 1 1.41 1.41v31.06a1.41 1.41 0 0 1 -1.41 1.41zm-7.54-2.81h6.13v-28.25h-6.13z"></path>
    <path d="m489.64 319.21h-8.94a1.41 1.41 0 0 1 -1.41-1.41v-31.05a1.41 1.41 0 0 1 1.41-1.41h8.94a1.41 1.41 0 0 1 1.41 1.41v31.05a1.41 1.41 0 0 1 -1.41 1.41zm-7.54-2.81h6.13v-28.24h-6.13z"></path>
    <path d="m489.64 280.54h-8.94a1.41 1.41 0 0 1 -1.41-1.4v-31.06a1.41 1.41 0 0 1 1.41-1.41h8.94a1.41 1.41 0 0 1 1.41 1.41v31.06a1.41 1.41 0 0 1 -1.41 1.4zm-7.54-2.81h6.13v-28.24h-6.13z"></path>
    <path d="m452.26 390.88h-8.94a1.4 1.4 0 0 1 -1.41-1.4v-25.39a1.41 1.41 0 0 1 1.41-1.41h8.94a1.41 1.41 0 0 1 1.4 1.41v25.39a1.4 1.4 0 0 1 -1.4 1.4zm-7.54-2.81h6.13v-22.57h-6.13z"></path>
    <path d="m452.26 357.88h-8.94a1.41 1.41 0 0 1 -1.41-1.4v-31.06a1.41 1.41 0 0 1 1.41-1.41h8.94a1.41 1.41 0 0 1 1.4 1.41v31.06a1.4 1.4 0 0 1 -1.4 1.4zm-7.54-2.81h6.13v-28.25h-6.13z"></path>
    <path d="m452.26 319.21h-8.94a1.41 1.41 0 0 1 -1.41-1.41v-31.05a1.41 1.41 0 0 1 1.41-1.41h8.94a1.41 1.41 0 0 1 1.4 1.41v31.05a1.41 1.41 0 0 1 -1.4 1.41zm-7.54-2.81h6.13v-28.24h-6.13z"></path>
    <path d="m452.26 280.54h-8.94a1.41 1.41 0 0 1 -1.41-1.4v-31.06a1.41 1.41 0 0 1 1.41-1.41h8.94a1.41 1.41 0 0 1 1.4 1.41v31.06a1.4 1.4 0 0 1 -1.4 1.4zm-7.54-2.81h6.13v-28.24h-6.13z"></path>
    <path d="m489.64 365.5h-48.64a1.41 1.41 0 0 1 -1.4-1.41v-7.61a1.41 1.41 0 0 1 1.4-1.41h48.61a1.41 1.41 0 0 1 1.41 1.41v7.61a1.41 1.41 0 0 1 -1.38 1.41zm-47.2-2.82h45.79v-4.8h-45.79z"></path>
    <path d="m489.64 400.71h-71.25a1.41 1.41 0 0 1 -1.39-1.41v-9.82a1.41 1.41 0 0 1 1.41-1.41h71.25a1.41 1.41 0 0 1 1.41 1.41v9.82a1.41 1.41 0 0 1 -1.43 1.41zm-69.84-2.82h68.43v-7h-68.43z"></path>
    <path d="m489.64 326.82h-48.64a1.4 1.4 0 0 1 -1.4-1.4v-7.62a1.4 1.4 0 0 1 1.4-1.4h48.61a1.41 1.41 0 0 1 1.41 1.4v7.62a1.41 1.41 0 0 1 -1.38 1.4zm-47.2-2.82h45.79v-4.8h-45.79z"></path>
    <path d="m489.64 288.16h-48.64a1.41 1.41 0 0 1 -1.4-1.41v-7.61a1.41 1.41 0 0 1 1.4-1.41h48.61a1.41 1.41 0 0 1 1.41 1.41v7.61a1.41 1.41 0 0 1 -1.38 1.41zm-47.2-2.82h45.79v-4.8h-45.79z"></path>
    <path d="m489.64 249.49h-48.64a1.41 1.41 0 0 1 -1.4-1.41v-7.61a1.41 1.41 0 0 1 1.4-1.41h48.61a1.41 1.41 0 0 1 1.41 1.41v7.61a1.41 1.41 0 0 1 -1.38 1.41zm-47.2-2.82h45.79v-4.8h-45.79z"></path>
    <path d="m489.64 479.75h-64a1.41 1.41 0 0 1 -1.41-1.4v-79.05a1.41 1.41 0 0 1 1.41-1.41h64a1.41 1.41 0 0 1 1.41 1.41v79.05a1.41 1.41 0 0 1 -1.41 1.4zm-62.58-2.81h61.17v-76.23h-61.17z"></path>
    <path d="m468.36 319.38h-12.77v-16.94h12.77zm-10-2.81h7.15v-11.32h-7.11z"></path>
    <path d="m478.27 319.38h-12.78v-16.94h12.78zm-10-2.81h7.14v-11.32h-7.14z"></path>
    <path d="m468.36 280.54h-11.48v-15.1h11.48zm-8.66-2.81h5.85v-9.48h-5.85z"></path>
    <path d="m477 280.54h-11.5v-15.1h11.5zm-8.66-2.81h5.85v-9.48h-5.85z"></path>
    <path d="m472.69 268.25h-11.47v-15.1h11.47zm-8.69-2.81h5.85v-9.44h-5.85z"></path>
    <path d="m472 357.7h-10.07a3.59 3.59 0 0 1 -3.28-3.82v-12.74a5.46 5.46 0 0 1 1-3.11 7.48 7.48 0 0 1 1.65-1.58c.21-.16.41-.31.57-.45a2 2 0 0 1 -.15-.78v-2.72a2.1 2.1 0 0 1 .41-1.25 1.8 1.8 0 0 1 1.42-.71h7.14a1.9 1.9 0 0 1 1.57 1.94v2.73a1.94 1.94 0 0 1 -.14.73 6.52 6.52 0 0 0 .59.48 7.58 7.58 0 0 1 1.65 1.56 5.59 5.59 0 0 1 1 3.09v12.8a3.6 3.6 0 0 1 -3.36 3.83zm-7.53-23a1.89 1.89 0 0 1 .2.2 1.46 1.46 0 0 1 .34 1.19 3.42 3.42 0 0 1 -.65 1.29 7.29 7.29 0 0 1 -1.36 1.24 5.08 5.08 0 0 0 -1.12 1 2.6 2.6 0 0 0 -.44 1.49v12.73c0 .67.37 1 .5 1h10.06c.12 0 .49-.36.49-1v-12.73a2.63 2.63 0 0 0 -.45-1.49 4.68 4.68 0 0 0 -1.06-1 7.93 7.93 0 0 1 -1.43-1.28 3.25 3.25 0 0 1 -.64-1.27 1.35 1.35 0 0 1 .25-1.19 1.18 1.18 0 0 1 .25-.25v-1.35h-4.95z"></path>
    <path d="m215.48 423.85h84.4v5.67h-84.4z"></path>
    <path d="m301.29 430.93h-87.22v-8.49h87.22zm-84.41-2.82h81.59v-2.86h-81.59z"></path>
    <path d="m215.48 285.62h84.4v5.67h-84.4z"></path>
    <path d="m301.29 292.7h-87.22v-8.49h87.22zm-84.41-2.81h81.59v-2.89h-81.59z"></path>
    <path d="m215.48 234.32h84.4v5.67h-84.4z"></path>
    <path d="m301.29 241.4h-87.22v-8.49h87.22zm-84.41-2.81h81.59v-2.87h-81.59z"></path>
    <path d="m214.07 232.91h2.81v245.29h-2.81z"></path>
    <path d="m300.43 232.91h2.81v245.29h-2.81z"></path>
    <path d="m243.61 288h-18.11v-20h18.11zm-15.3-2.81h12.49v-14.45h-12.49z"></path>
    <path d="m267.26 288h-18.12v-20h18.12zm-15.26-2.85h12.49v-14.41h-12.49z"></path>
    <path d="m262.61 426.11h-18.12v-20h18.12zm-15.31-2.82h12.5v-14.4h-12.5z"></path>
    <path d="m290.08 479.63h-64.2v-33.21h64.2zm-61.39-2.81h58.58v-27.59h-58.58z"></path>
    <path d="m295.27 426.11h-18.12v-20h18.12zm-15.27-2.82h12.49v-14.4h-12.49z"></path>
    <path d="m378.62 345.46h-10.62a3.71 3.71 0 0 1 -3.38-3.95v-13.51a5.61 5.61 0 0 1 1-3.25 7.89 7.89 0 0 1 1.72-1.65 7.58 7.58 0 0 0 .68-.52 2 2 0 0 1 -.17-.82v-2.89a1.93 1.93 0 0 1 1.61-2h7.54a1.8 1.8 0 0 1 1.42.71 2.07 2.07 0 0 1 .43 1.27v2.89a2.06 2.06 0 0 1 -.18.83c.21.19.43.36.65.53a7.91 7.91 0 0 1 1.72 1.65 5.64 5.64 0 0 1 1 3.22v13.5a3.71 3.71 0 0 1 -3.42 3.99zm-8-24.18.22.22a1.42 1.42 0 0 1 .31 1.2 3.27 3.27 0 0 1 -.67 1.31 7.41 7.41 0 0 1 -1.49 1.33 5.41 5.41 0 0 0 -1.14 1.05 2.87 2.87 0 0 0 -.49 1.63v13.49c0 .71.4 1.16.6 1.16h10.64c.21 0 .6-.45.6-1.16v-13.51a2.82 2.82 0 0 0 -.48-1.62 5.34 5.34 0 0 0 -1.15-1.07 8.08 8.08 0 0 1 -1.47-1.33 3.38 3.38 0 0 1 -.67-1.34 1.39 1.39 0 0 1 .27-1.18 1.22 1.22 0 0 1 .31-.29v-1.52h-5.4z"></path>
    <path d="m240.26 345.46h-10.64a3.71 3.71 0 0 1 -3.38-3.95v-13.51a5.67 5.67 0 0 1 1-3.25 7.93 7.93 0 0 1 1.73-1.65c.22-.16.47-.34.68-.52a2 2 0 0 1 -.17-.82v-2.89a1.93 1.93 0 0 1 1.61-2h7.52a1.8 1.8 0 0 1 1.42.71 2 2 0 0 1 .42 1.3v2.86a2.05 2.05 0 0 1 -.17.83 5.68 5.68 0 0 0 .6.5 8 8 0 0 1 1.76 1.68 5.6 5.6 0 0 1 1 3.22v13.5a3.71 3.71 0 0 1 -3.38 3.99zm-8-24.18a1.61 1.61 0 0 1 .23.22 1.42 1.42 0 0 1 .31 1.2 3.27 3.27 0 0 1 -.67 1.31 7.75 7.75 0 0 1 -1.49 1.33 5.22 5.22 0 0 0 -1.14 1.05 2.72 2.72 0 0 0 -.5 1.61v13.49c0 .71.39 1.16.6 1.16h10.64c.2 0 .6-.45.6-1.16v-13.49a2.9 2.9 0 0 0 -.48-1.62 5.26 5.26 0 0 0 -1.15-1.06 8 8 0 0 1 -1.48-1.35 3.32 3.32 0 0 1 -.66-1.35 1.36 1.36 0 0 1 .58-1.45v-1.52h-5.41z"></path>
    <path d="m215.48 344.07h84.4v5.67h-84.4z"></path>
    <path d="m301.29 351.14h-87.22v-8.48h87.22zm-84.41-2.81h81.59v-2.86h-81.59z"></path>
    <path d="m312.57 285.62h84.4v5.67h-84.4z"></path>
    <path d="m398.38 292.7h-87.21v-8.49h87.21zm-84.38-2.81h81.59v-2.89h-81.59z"></path>
    <path d="m312.57 234.32h84.4v5.67h-84.4z"></path>
    <path d="m398.38 241.4h-87.21v-8.49h87.21zm-84.38-2.81h81.59v-2.87h-81.59z"></path>
    <path d="m311.17 232.91h2.81v245.29h-2.81z"></path>
    <path d="m397.53 232.91h2.81v180.83h-2.81z"></path>
    <path d="m340.71 288h-18.12v-20h18.12zm-15.3-2.81h12.49v-14.45h-12.49z"></path>
    <path d="m364.35 288h-18.12v-20h18.12zm-15.35-2.85h12.5v-14.41h-12.5z"></path>
    <path d="m371.63 348.74h-19.41c-2.77 0-5-2.72-5-6.07v-24.62a9.25 9.25 0 0 1 1.64-5.26 12.9 12.9 0 0 1 2.92-2.75 12.07 12.07 0 0 0 2-1.7 2.52 2.52 0 0 1 -.6-1.66v-5.27a2.39 2.39 0 0 1 1.94-2.45 1.69 1.69 0 0 1 .45 0h13.11a2.13 2.13 0 0 1 1.7.86 2.64 2.64 0 0 1 .52 1.63v5.25a2.59 2.59 0 0 1 -.63 1.71 12.61 12.61 0 0 0 1.73 1.59 13.27 13.27 0 0 1 3 2.85 9.07 9.07 0 0 1 1.62 5.2 1.72 1.72 0 0 1 -.4 1.11 1.53 1.53 0 0 1 -1 .52h-4.63v1.59l.23.23a1.42 1.42 0 0 1 .3 1.2 3.21 3.21 0 0 1 -.68 1.32 7.7 7.7 0 0 1 -1.47 1.31 5.22 5.22 0 0 0 -1.14 1.05 2.78 2.78 0 0 0 -.5 1.63v13.49c0 .71.4 1.16.6 1.16h7.07a1.38 1.38 0 0 1 1.09.54 1.36 1.36 0 0 1 .25 1.2c-.6 2.6-2.51 4.34-4.71 4.34zm-15.71-42.28a1.43 1.43 0 0 1 .65.43 1.5 1.5 0 0 1 .37 1.2 4.91 4.91 0 0 1 -1 2 13.47 13.47 0 0 1 -2.51 2.22 10.2 10.2 0 0 0 -2.32 2.15 6.36 6.36 0 0 0 -1.12 3.64v24.61c0 1.75 1 3.28 2.24 3.28h19.41a1.63 1.63 0 0 0 1.12-.49h-4.76a3.71 3.71 0 0 1 -3.38-3.95v-13.55a5.61 5.61 0 0 1 1-3.25 7.72 7.72 0 0 1 1.73-1.65c.23-.17.47-.35.67-.52a2 2 0 0 1 -.17-.82v-2.89a1.93 1.93 0 0 1 1.61-2h4.3a5.79 5.79 0 0 0 -1-2.42 10.7 10.7 0 0 0 -2.34-2.19 13.56 13.56 0 0 1 -2.49-2.25 4.86 4.86 0 0 1 -1-2 1.42 1.42 0 0 1 .26-1.18 1.4 1.4 0 0 1 .81-.5v-4.66h-12.08z"></path>
    <path d="m337.36 345.46h-10.65a3.71 3.71 0 0 1 -3.38-3.95v-13.51a5.73 5.73 0 0 1 1-3.25 7.93 7.93 0 0 1 1.73-1.65c.23-.17.48-.35.67-.52a2 2 0 0 1 -.16-.82v-2.89a1.92 1.92 0 0 1 1.6-2h7.52a1.77 1.77 0 0 1 1.44.74 1.94 1.94 0 0 1 .41 1.27v2.86a2.05 2.05 0 0 1 -.17.83 7.22 7.22 0 0 0 .6.5 7.84 7.84 0 0 1 1.76 1.68 5.67 5.67 0 0 1 1 3.22v13.5a3.71 3.71 0 0 1 -3.37 3.99zm-8-24.18a1.52 1.52 0 0 1 .22.22 1.43 1.43 0 0 1 .32 1.2 3.44 3.44 0 0 1 -.68 1.33 8.07 8.07 0 0 1 -1.48 1.31 5.22 5.22 0 0 0 -1.14 1.05 2.82 2.82 0 0 0 -.5 1.64v13.48c0 .71.4 1.16.6 1.16h10.65c.2 0 .6-.45.6-1.16v-13.51a2.83 2.83 0 0 0 -.49-1.62 5.3 5.3 0 0 0 -1.14-1.07 7.73 7.73 0 0 1 -1.49-1.34 3.39 3.39 0 0 1 -.66-1.33 1.39 1.39 0 0 1 .27-1.18 1.22 1.22 0 0 1 .31-.29v-1.52h-5.4z"></path>
    <path d="m312.57 344.07h84.4v5.67h-84.4z"></path>
    <path d="m398.38 351.14h-87.21v-8.48h87.21zm-84.38-2.81h81.59v-2.86h-81.59z"></path>
    <path d="m258.05 462.53a46.23 46.23 0 0 1 -13.17-1.92l-17.65-5.23.8-2.7 17.65 5.24a43.52 43.52 0 0 0 24.62 0l18-5.27.79 2.7-18 5.27a46.31 46.31 0 0 1 -13.04 1.91z"></path>
    <path d="m369.86 431.53h-52.28a1.4 1.4 0 0 1 -1.4-1.39v-8.2a1.4 1.4 0 0 1 1.4-1.4h52.28a1.4 1.4 0 0 1 1.39 1.4v8.2a1.39 1.39 0 0 1 -1.39 1.39zm-50.86-2.78h49.49v-5.42h-49.49z"></path>
    <path d="m367.56 423.33h-47.69a1.4 1.4 0 0 1 -1.22-.71 1.42 1.42 0 0 1 0-1.41l5-8.2a1.38 1.38 0 0 1 1.19-.67h37.75a1.4 1.4 0 0 1 1.19.67l5 8.2a1.42 1.42 0 0 1 0 1.41 1.4 1.4 0 0 1 -1.22.71zm-45.22-2.79h42.75l-3.29-5.42h-36.17z"></path>
    <path d="m360.1 479.58h-32.77a1.38 1.38 0 0 1 -1.37-1.17l-7.47-48.05a1.4 1.4 0 0 1 1.38-1.61h14.41a1.39 1.39 0 0 1 1.39 1.39v5.16h16.09v-5.16a1.39 1.39 0 0 1 1.39-1.39h14.41a1.4 1.4 0 0 1 1.38 1.61l-7.47 48.05a1.38 1.38 0 0 1 -1.37 1.17zm-31.58-2.78h30.39l7-45.27h-11.36v5.16a1.4 1.4 0 0 1 -1.4 1.4h-18.87a1.4 1.4 0 0 1 -1.4-1.4v-5.16h-11.39z"></path>
    <path d="m353.15 438.09h-18.87a1.4 1.4 0 0 1 -1.4-1.4v-6.55a1.4 1.4 0 0 1 1.4-1.39h18.87a1.4 1.4 0 0 1 1.4 1.39v6.55a1.4 1.4 0 0 1 -1.4 1.4zm-17.48-2.79h16.09v-3.77h-16.09z"></path>
    <path d="m422.14 431.53h-52.28a1.4 1.4 0 0 1 -1.4-1.39v-8.2a1.4 1.4 0 0 1 1.4-1.4h52.28a1.4 1.4 0 0 1 1.39 1.4v8.2a1.39 1.39 0 0 1 -1.39 1.39zm-50.89-2.78h49.5v-5.42h-49.5z"></path>
    <path d="m419.84 423.33h-47.69a1.4 1.4 0 0 1 -1.22-.71 1.42 1.42 0 0 1 0-1.41l5-8.2a1.39 1.39 0 0 1 1.19-.67h37.75a1.39 1.39 0 0 1 1.19.67l5 8.2a1.42 1.42 0 0 1 0 1.41 1.4 1.4 0 0 1 -1.22.71zm-45.22-2.79h42.75l-3.29-5.42h-36.17z"></path>
    <path d="m412.38 479.58h-32.77a1.38 1.38 0 0 1 -1.37-1.17l-7.47-48.05a1.4 1.4 0 0 1 1.38-1.61h14.41a1.39 1.39 0 0 1 1.39 1.39v5.16h16.05v-5.16a1.39 1.39 0 0 1 1.39-1.39h14.41a1.4 1.4 0 0 1 1.38 1.61l-7.47 48.05a1.38 1.38 0 0 1 -1.33 1.17zm-31.58-2.78h30.39l7-45.27h-11.36v5.16a1.4 1.4 0 0 1 -1.4 1.4h-18.87a1.4 1.4 0 0 1 -1.4-1.4v-5.16h-11.39z"></path>
    <path d="m405.43 438.09h-18.87a1.4 1.4 0 0 1 -1.4-1.4v-6.55a1.4 1.4 0 0 1 1.4-1.39h18.87a1.4 1.4 0 0 1 1.4 1.39v6.55a1.4 1.4 0 0 1 -1.4 1.4zm-17.43-2.79h16v-3.77h-16z"></path>
    <path d="m187.65 479.75h-64a1.41 1.41 0 0 1 -1.41-1.4v-48.21a1.41 1.41 0 0 1 1.41-1.4h2.35a1.41 1.41 0 0 1 1.39 1.19l7.28 46.86h30.33l7.28-46.86a1.39 1.39 0 0 1 1.39-1.19h.88v-5.4h-.88a1.4 1.4 0 0 1 -1.21-.68l-4.56-7.52h-36.17l-4.57 7.52a1.38 1.38 0 0 1 -1.2.68h-2.29a1.41 1.41 0 0 1 -1.41-1.4v-22.64a1.41 1.41 0 0 1 1.41-1.41h64a1.41 1.41 0 0 1 1.41 1.41v79.05a1.41 1.41 0 0 1 -1.43 1.4zm-19.84-2.81h18.44v-76.23h-61.18l.1 19.82 4.57-7.53a1.39 1.39 0 0 1 1.2-.67h37.74a1.39 1.39 0 0 1 1.2.67l4.57 7.53h1.55a1.41 1.41 0 0 1 1.4 1.41v8.2a1.41 1.41 0 0 1 -1.4 1.41h-1.09zm-42.74 0h6.73l-6.73-43.34z"></path>
    <path d="m176 431.53h-52.33a1.39 1.39 0 0 1 -1.39-1.39v-8.2a1.4 1.4 0 0 1 1.39-1.4h52.33a1.4 1.4 0 0 1 1.39 1.4v8.2a1.39 1.39 0 0 1 -1.39 1.39zm-50.89-2.78h49.5v-5.42h-49.5z"></path>
    <path d="m173.66 423.33h-47.66a1.38 1.38 0 0 1 -1.21-.71 1.4 1.4 0 0 1 0-1.41l5-8.2a1.4 1.4 0 0 1 1.19-.67h37.75a1.38 1.38 0 0 1 1.19.67l5 8.2a1.42 1.42 0 0 1 0 1.41 1.39 1.39 0 0 1 -1.26.71zm-45.23-2.79h42.75l-3.28-5.42h-36.18z"></path>
    <path d="m166.19 479.58h-32.77a1.39 1.39 0 0 1 -1.37-1.17l-7.46-48.05a1.4 1.4 0 0 1 1.37-1.61h14.41a1.39 1.39 0 0 1 1.39 1.39v5.16h16.09v-5.16a1.39 1.39 0 0 1 1.39-1.39h14.42a1.4 1.4 0 0 1 1.37 1.61l-7.46 48.05a1.4 1.4 0 0 1 -1.38 1.17zm-31.58-2.78h30.39l7-45.27h-11.36v5.16a1.4 1.4 0 0 1 -1.4 1.4h-18.87a1.4 1.4 0 0 1 -1.39-1.4v-5.16h-11.4z"></path>
    <path d="m159.24 438.09h-18.87a1.4 1.4 0 0 1 -1.39-1.4v-6.55a1.39 1.39 0 0 1 1.39-1.39h18.87a1.4 1.4 0 0 1 1.4 1.39v6.55a1.4 1.4 0 0 1 -1.4 1.4zm-17.48-2.79h16.09v-3.77h-16.09z"></path>
    <path d="m123.67 249.49h-13.21a1.41 1.41 0 0 1 -1.41-1.41v-43a1.41 1.41 0 0 1 1.41-1.41h13.21a1.41 1.41 0 0 1 1.4 1.41v43a1.41 1.41 0 0 1 -1.4 1.41zm-11.81-2.82h10.4v-40.17h-10.4z"></path>
    <path d="m123.67 479.75h-13.21a1.41 1.41 0 0 1 -1.41-1.4v-160.55a1.41 1.41 0 0 1 1.41-1.4h13.21a1.4 1.4 0 0 1 1.4 1.4v160.55a1.4 1.4 0 0 1 -1.4 1.4zm-11.81-2.81h10.4v-157.73h-10.4z"></path>
    <path d="m187.65 319.2h-103.18a1.4 1.4 0 0 1 -1.39-1.4v-69.72a1.39 1.39 0 0 1 1.39-1.39h103.18a1.39 1.39 0 0 1 1.39 1.39v69.72a1.4 1.4 0 0 1 -1.39 1.4zm-101.79-2.79h100.4v-66.94h-100.4z"></path>
    <path d="m93.15 313.49a3.74 3.74 0 1 1 3.75-3.74 3.74 3.74 0 0 1 -3.75 3.74z"></path>
    <path d="m93.15 260.41a3.74 3.74 0 1 1 3.75-3.74 3.75 3.75 0 0 1 -3.75 3.74z"></path>
    <path d="m179.31 313.49a3.74 3.74 0 1 1 3.74-3.74 3.73 3.73 0 0 1 -3.74 3.74z"></path>
    <path d="m179.31 260.41a3.74 3.74 0 1 1 3.74-3.74 3.74 3.74 0 0 1 -3.74 3.74z"></path>
    <path d="m93.26 267.67h1.67v.76h-1.68v2.85c0 .63.21 1 .85 1a1.75 1.75 0 0 0 .75-.2l.27.74a2.7 2.7 0 0 1 -1.05.26c-1.16 0-1.7-.65-1.7-1.84v-2.85h-1.08v-.76h1.08v-1.48l.89-.1z"></path>
    <path d="m97.19 268.55a2.16 2.16 0 0 1 1.87-1c1.51 0 2.25 1 2.25 2.49v2.18h.9v.79h-2.51v-.79h.73v-2.12c0-1.08-.55-1.67-1.52-1.67a1.69 1.69 0 0 0 -1.71 1.76v2.07h.86v.79h-2.67v-.79h.92v-6.07h-.89v-.79h1.77z"></path>
    <path d="m107.75 272.18a3.07 3.07 0 0 1 -2.32 1 2.8 2.8 0 1 1 -.05-5.6c1.65 0 2.91 1 2.7 3.16h-4.58a1.83 1.83 0 0 0 2 1.62 2.34 2.34 0 0 0 1.71-.68l.6.54zm-.52-2.22a1.63 1.63 0 0 0 -1.82-1.61 1.83 1.83 0 0 0 -1.91 1.6h3.73z"></path>
    <path d="m121.31 266.91v2.53h-1.4l-.07-1.84a6 6 0 0 0 -3-.75c-1.6 0-3.26.64-3.26 2.17s1.51 1.82 3.35 2.12c2.58.4 5.16 1 5.16 3.75 0 3-2.83 3.8-5.27 3.8a6.74 6.74 0 0 1 -4.82-1.69v-2.53h1.44l.07 1.79a6.05 6.05 0 0 0 3.31 1c1.56 0 3.67-.44 3.67-2.33s-2.44-2.09-3.76-2.29c-2.44-.38-4.73-1-4.73-3.62s2.58-3.53 4.78-3.53a6.7 6.7 0 0 1 4.53 1.42z"></path>
    <path d="m125.93 269.47h2.78v1.28h-2.8v4.74c0 1.05.35 1.73 1.42 1.73a2.91 2.91 0 0 0 1.25-.33l.44 1.23a4.35 4.35 0 0 1 -1.75.44c-1.92 0-2.83-1.09-2.83-3.07v-4.74h-1.8v-1.28h1.8v-2.47l1.49-.16z"></path>
    <path d="m134.35 269.25a4.68 4.68 0 1 1 -4.66 4.71 4.49 4.49 0 0 1 4.66-4.71zm0 1.37a3.13 3.13 0 0 0 -3.19 3.34 3.19 3.19 0 1 0 6.37 0 3.14 3.14 0 0 0 -3.16-3.34z"></path>
    <path d="m142.94 269.44.16 1.21a3.13 3.13 0 0 1 2.8-1.38 3.77 3.77 0 0 1 2.13.67l-.68 1.28a2.77 2.77 0 0 0 -1.56-.49 2.43 2.43 0 0 0 -2.65 2.69v3.7h1.45v1.31h-4.45v-1.31h1.5v-6.36h-1.47v-1.32z"></path>
    <path d="m156.84 277a5.19 5.19 0 0 1 -3.87 1.6 4.68 4.68 0 1 1 -.07-9.35c2.74 0 4.83 1.69 4.49 5.28h-7.63a3 3 0 0 0 3.25 2.69 3.91 3.91 0 0 0 2.85-1.13l1 .91zm-.87-3.71a2.71 2.71 0 0 0 -3-2.69 3.05 3.05 0 0 0 -3.18 2.67h6.21z"></path>
    <path d="m98.71 296.39c-4.49 0-6.62-3.09-6.64-6.47a6.31 6.31 0 0 1 6.64-6.63 6.65 6.65 0 0 1 4.14 1.47v2.69h-1.45l-.06-2a5.12 5.12 0 0 0 -7.69 4.41 4.76 4.76 0 0 0 5.06 5 5.2 5.2 0 0 0 3.58-1.46l1.12 1.07a6.6 6.6 0 0 1 -4.7 1.92z"></path>
    <path d="m112.52 296.21-.25-1.43a3.75 3.75 0 0 1 -3.13 1.56c-2.65 0-3.92-1.62-3.92-4.16v-3.66h-1.42v-1.31h2.91v5c0 1.83.83 2.78 2.72 2.78a2.77 2.77 0 0 0 2.79-2.91v-3.51h-1.51v-1.31h3v7.66h1.51v1.34z"></path>
    <path d="m117.26 288.54h-1.47v-1.33h2.9l.06 1.79a4 4 0 0 1 3.43-1.89 4.32 4.32 0 0 1 4.49 4.63 4.37 4.37 0 0 1 -4.56 4.67 3.87 3.87 0 0 1 -3.4-1.78v4.51h1.53v1.34h-4.24v-1.34h1.31zm7.92 3.24a2.94 2.94 0 0 0 -3.16-3.22 3.07 3.07 0 0 0 -3.13 3.24 3.11 3.11 0 0 0 3.13 3.25 3.07 3.07 0 0 0 3.16-3.27z"></path>
    <path d="m130.57 288.85a3.74 3.74 0 0 1 3.35-1.78 4.65 4.65 0 0 1 0 9.29 3.71 3.71 0 0 1 -3.33-1.71l-.09 1.56h-2.91v-1.34h1.51v-10.07h-1.49v-1.31h3zm.07 2.85a3.1 3.1 0 0 0 3.17 3.26 3.26 3.26 0 0 0 0-6.51 3.12 3.12 0 0 0 -3.17 3.25z"></path>
    <path d="m144.35 287a4.68 4.68 0 1 1 -4.65 4.71 4.48 4.48 0 0 1 4.65-4.71zm0 1.37a3.13 3.13 0 0 0 -3.18 3.34 3.18 3.18 0 1 0 6.36 0 3.14 3.14 0 0 0 -3.16-3.31z"></path>
    <path d="m161.16 294.89v1.32h-2.82l-.17-1.45a3.67 3.67 0 0 1 -3.3 1.67 4.68 4.68 0 0 1 0-9.36 3.73 3.73 0 0 1 3.33 1.74v-1.6h2.89v1.37h-1.45v6.31zm-2.89-3a3.28 3.28 0 1 0 -3.33 3.2 3.21 3.21 0 0 0 3.33-3.22z"></path>
    <path d="m165 287.21.16 1.22a3.14 3.14 0 0 1 2.8-1.38 3.77 3.77 0 0 1 2.13.67l-.69 1.28a2.8 2.8 0 0 0 -1.57-.49 2.44 2.44 0 0 0 -2.65 2.69v3.7h1.45v1.31h-4.45v-1.31h1.51v-6.36h-1.47v-1.33z"></path>
    <path d="m179.69 283.49v11.38h1.49v1.34h-2.78l-.18-1.65a3.81 3.81 0 0 1 -3.37 1.8 4.65 4.65 0 0 1 0-9.29 3.75 3.75 0 0 1 3.36 1.78v-4.05h-1.47v-1.31zm-4.69 4.94a3.26 3.26 0 0 0 0 6.51 3.26 3.26 0 0 0 0-6.51z"></path>
  </g>
</svg>
