<?xml version="1.0" encoding="UTF-8"?>
<svg xmlns="http://www.w3.org/2000/svg" xmlns:xlink="http://www.w3.org/1999/xlink" id="Layer_1" data-name="Layer 1" viewBox="0 0 600 600">
  <defs>
    <style>.cls-1{fill:none;}.cls-2,.cls-9{fill:#1c19a8;}.cls-3,.cls-4{fill:#fff;}.cls-4,.cls-5,.cls-6,.cls-8{stroke:#1c19a8;stroke-linejoin:round;stroke-width:2.82px;}.cls-5{fill:#fb715d;}.cls-6{fill:#ffde00;}.cls-7{fill:url(#New_Blue_Dots);}.cls-8{fill:#00ab81;}.cls-9{font-size:10px;font-family:Soleil-SemiBold, Soleil;font-weight:600;}.cls-10{letter-spacing:-0.03em;}.cls-11{letter-spacing:0.01em;}.cls-12{letter-spacing:0em;}</style>
    <pattern id="New_Blue_Dots" data-name="New Blue Dots" width="28.8" height="28.8" patternUnits="userSpaceOnUse" viewBox="0 0 28.8 28.8">
      <rect class="cls-1" width="28.8" height="28.8"></rect>
      <path class="cls-2" d="M28.8,30.24a1.44,1.44,0,1,0-1.44-1.44A1.44,1.44,0,0,0,28.8,30.24Z"></path>
      <path class="cls-2" d="M14.4,30.24A1.44,1.44,0,1,0,13,28.8,1.44,1.44,0,0,0,14.4,30.24Z"></path>
      <path class="cls-2" d="M28.8,15.84a1.44,1.44,0,1,0-1.44-1.44A1.44,1.44,0,0,0,28.8,15.84Z"></path>
      <path class="cls-2" d="M14.4,15.84A1.44,1.44,0,1,0,13,14.4,1.44,1.44,0,0,0,14.4,15.84Z"></path>
      <path class="cls-2" d="M7.2,23A1.44,1.44,0,1,0,5.76,21.6,1.44,1.44,0,0,0,7.2,23Z"></path>
      <path class="cls-2" d="M21.6,23a1.44,1.44,0,1,0-1.44-1.44A1.44,1.44,0,0,0,21.6,23Z"></path>
      <path class="cls-2" d="M7.2,8.64A1.44,1.44,0,1,0,5.76,7.2,1.44,1.44,0,0,0,7.2,8.64Z"></path>
      <path class="cls-2" d="M21.6,8.64A1.44,1.44,0,1,0,20.16,7.2,1.44,1.44,0,0,0,21.6,8.64Z"></path>
      <path class="cls-2" d="M0,30.24A1.44,1.44,0,0,0,1.44,28.8,1.45,1.45,0,0,0,0,27.36,1.44,1.44,0,0,0-1.44,28.8,1.43,1.43,0,0,0,0,30.24Z"></path>
      <path class="cls-2" d="M0,15.84A1.44,1.44,0,0,0,1.44,14.4,1.45,1.45,0,0,0,0,13,1.44,1.44,0,0,0-1.44,14.4,1.43,1.43,0,0,0,0,15.84Z"></path>
      <path class="cls-2" d="M28.8,1.44A1.45,1.45,0,0,0,30.24,0,1.45,1.45,0,0,0,28.8-1.44,1.44,1.44,0,0,0,27.36,0,1.44,1.44,0,0,0,28.8,1.44Z"></path>
      <path class="cls-2" d="M14.4,1.44A1.45,1.45,0,0,0,15.84,0,1.45,1.45,0,0,0,14.4-1.44,1.44,1.44,0,0,0,13,0,1.44,1.44,0,0,0,14.4,1.44Z"></path>
      <path class="cls-2" d="M0,1.44A1.45,1.45,0,0,0,1.44,0,1.45,1.45,0,0,0,0-1.44,1.44,1.44,0,0,0-1.44,0,1.44,1.44,0,0,0,0,1.44Z"></path>
    </pattern>
  </defs>
  <title>Shops_NEW</title>
  <rect class="cls-3" x="102.7" y="164.46" width="396.29" height="316.81" transform="translate(601.68 645.73) rotate(-180)"></rect>
  <line class="cls-4" x1="460.8" y1="248.76" x2="460.8" y2="287.99"></line>
  <rect class="cls-5" x="458.37" y="280.74" width="5.33" height="6.63" transform="translate(922.06 568.1) rotate(-180)"></rect>
  <circle class="cls-6" cx="461.03" cy="295.69" r="8.32"></circle>
  <line class="cls-4" x1="412.42" y1="248.76" x2="412.42" y2="287.99"></line>
  <rect class="cls-5" x="409.98" y="280.74" width="5.33" height="6.63" transform="translate(825.29 568.1) rotate(-180)"></rect>
  <circle class="cls-6" cx="412.64" cy="295.69" r="8.32"></circle>
  <line class="cls-4" x1="364.26" y1="248.76" x2="364.26" y2="287.99"></line>
  <rect class="cls-5" x="361.6" y="280.74" width="5.33" height="6.63" transform="translate(728.52 568.1) rotate(-180)"></rect>
  <circle class="cls-6" cx="364.26" cy="295.69" r="8.32"></circle>
  <rect class="cls-7" x="330.4" y="248.76" width="161.23" height="180.79"></rect>
  <rect class="cls-6" x="113.55" y="300" width="32.13" height="79.73"></rect>
  <polygon class="cls-6" points="166.44 444.5 114 444.5 114 333.16 166.44 387.12 166.44 444.5"></polygon>
  <rect class="cls-5" x="113.55" y="138.21" width="378.09" height="52.5" transform="translate(605.18 328.92) rotate(-180)"></rect>
  <rect class="cls-8" x="101.24" y="138.21" width="12.3" height="333.79" transform="translate(214.79 610.21) rotate(-180)"></rect>
  <rect class="cls-5" x="92.45" y="472.1" width="420.29" height="19.25" transform="translate(605.18 963.44) rotate(-180)"></rect>
  <rect class="cls-5" x="113.55" y="190.71" width="378.09" height="57.9" transform="translate(605.18 439.32) rotate(-180)"></rect>
  <rect class="cls-4" x="329.85" y="201.37" width="151.31" height="36.57" transform="translate(811.02 439.32) rotate(-180)"></rect>
  <rect class="cls-4" x="226" y="201.37" width="93.99" height="36.57" transform="translate(545.99 439.32) rotate(-180)"></rect>
  <rect class="cls-4" x="126.52" y="201.37" width="89" height="36.57" transform="translate(342.04 439.32) rotate(-180)"></rect>
  <rect class="cls-6" x="215.52" y="248.76" width="9.86" height="223.33"></rect>
  <rect class="cls-6" x="320.55" y="248.76" width="9.86" height="223.33"></rect>
  <path class="cls-5" d="M225.38,248.76V472.1h95.17V248.76Zm86.38,209H234.17V263.08h77.59Z"></path>
  <rect class="cls-5" x="254.48" y="461.93" width="36.97" height="5.47"></rect>
  <rect class="cls-5" x="108.53" y="437.52" width="106.99" height="34.58"></rect>
  <rect class="cls-5" x="330.4" y="437.52" width="165.42" height="34.58"></rect>
  <rect class="cls-5" x="300.84" y="353.29" width="15.96" height="28.57"></rect>
  <rect class="cls-5" x="108.53" y="429.55" width="106.99" height="7.97"></rect>
  <rect class="cls-5" x="330.4" y="429.55" width="161.23" height="7.97"></rect>
  <rect class="cls-8" x="491.64" y="138.21" width="12.3" height="333.79" transform="translate(995.57 610.21) rotate(-180)"></rect>
  <rect class="cls-6" x="351.6" y="393.85" width="122.08" height="90.51"></rect>
  <rect class="cls-6" x="343.33" y="393.85" width="135.6" height="9.27"></rect>
  <line class="cls-6" x1="371.95" y1="403.12" x2="371.95" y2="484.36"></line>
  <line class="cls-6" x1="392.3" y1="403.12" x2="392.3" y2="484.36"></line>
  <line class="cls-6" x1="412.64" y1="403.12" x2="412.64" y2="484.36"></line>
  <line class="cls-6" x1="432.99" y1="403.12" x2="432.99" y2="484.36"></line>
  <line class="cls-6" x1="453.34" y1="403.12" x2="453.34" y2="485.88"></line>
  <rect class="cls-6" x="351.6" y="403.12" width="9.49" height="88.23"></rect>
  <rect class="cls-6" x="464.2" y="403.12" width="9.49" height="88.23"></rect>
  <path class="cls-6" d="M361.09,393.85S361,379.8,356.35,373"></path>
  <path class="cls-8" d="M362.13,380.82h0a8.62,8.62,0,0,1,8.62,8.62v0a0,0,0,0,1,0,0h0a8.62,8.62,0,0,1-8.62-8.62v0A0,0,0,0,1,362.13,380.82Z" transform="translate(838.96 141.56) rotate(106.31)"></path>
  <path class="cls-8" d="M350,379.69h0a8.62,8.62,0,0,1,8.62,8.62v0a0,0,0,0,1,0,0h0a8.62,8.62,0,0,1-8.62-8.62v0A0,0,0,0,1,350,379.69Z" transform="translate(864.96 494.35) rotate(144.89)"></path>
  <path class="cls-8" d="M359.79,371.73h0a8.62,8.62,0,0,1,8.62,8.62v0a0,0,0,0,1,0,0h0a8.62,8.62,0,0,1-8.62-8.62v0A0,0,0,0,1,359.79,371.73Z" transform="matrix(-0.05, 1, -1, -0.05, 758.48, 31.89)"></path>
  <path class="cls-8" d="M347.29,371.08h0a8.62,8.62,0,0,1,8.62,8.62v0a0,0,0,0,1,0,0h0a8.62,8.62,0,0,1-8.62-8.62v0A0,0,0,0,1,347.29,371.08Z" transform="translate(855.14 480.24) rotate(144.89)"></path>
  <path class="cls-8" d="M350.78,364.24h0a8.62,8.62,0,0,1,8.62,8.62v0a0,0,0,0,1,0,0h0a8.62,8.62,0,0,1-8.62-8.62v0A0,0,0,0,1,350.78,364.24Z" transform="translate(550.01 841.76) rotate(-158.45)"></path>
  <path class="cls-6" d="M447.78,393.85s.12-14.05,4.74-20.85"></path>
  <path class="cls-8" d="M446.74,380.82h0a0,0,0,0,1,0,0v0a8.62,8.62,0,0,1-8.62,8.62h0a0,0,0,0,1,0,0v0A8.62,8.62,0,0,1,446.74,380.82Z" transform="translate(687.85 -147.63) rotate(73.69)"></path>
  <path class="cls-8" d="M458.9,379.69h0a0,0,0,0,1,0,0v0a8.62,8.62,0,0,1-8.62,8.62h0a0,0,0,0,1,0,0v0A8.62,8.62,0,0,1,458.9,379.69Z" transform="translate(303.59 -191.59) rotate(35.11)"></path>
  <path class="cls-8" d="M449.08,371.73h0a0,0,0,0,1,0,0v0a8.62,8.62,0,0,1-8.62,8.62h0a0,0,0,0,1,0,0v0A8.62,8.62,0,0,1,449.08,371.73Z" transform="translate(797.29 -87.6) rotate(87.03)"></path>
  <path class="cls-8" d="M461.58,371.08h0a0,0,0,0,1,0,0v0A8.62,8.62,0,0,1,453,379.7h0a0,0,0,0,1,0,0v0A8.62,8.62,0,0,1,461.58,371.08Z" transform="translate(299.12 -194.7) rotate(35.11)"></path>
  <path class="cls-8" d="M458.09,364.24h0a0,0,0,0,1,0,0v0a8.62,8.62,0,0,1-8.62,8.62h0a0,0,0,0,1,0,0v0A8.62,8.62,0,0,1,458.09,364.24Z" transform="translate(-103.65 192.42) rotate(-21.55)"></path>
  <path class="cls-6" d="M465.28,393.85S465.41,379.8,470,373"></path>
  <path class="cls-8" d="M464.25,380.82h0a0,0,0,0,1,0,0v0a8.62,8.62,0,0,1-8.62,8.62h0a0,0,0,0,1,0,0v0A8.62,8.62,0,0,1,464.25,380.82Z" transform="translate(700.45 -164.43) rotate(73.69)"></path>
  <path class="cls-8" d="M476.41,379.69h0a0,0,0,0,1,0,0v0a8.62,8.62,0,0,1-8.62,8.62h0a0,0,0,0,1,0,0v0A8.62,8.62,0,0,1,476.41,379.69Z" transform="translate(306.77 -201.66) rotate(35.11)"></path>
  <path class="cls-8" d="M466.59,371.73h0a0,0,0,0,1,0,0v0a8.62,8.62,0,0,1-8.62,8.62h0a0,0,0,0,1,0,0v0A8.62,8.62,0,0,1,466.59,371.73Z" transform="translate(813.89 -105.08) rotate(87.03)"></path>
  <path class="cls-8" d="M479.08,371.08h0a0,0,0,0,1,0,0v0a8.62,8.62,0,0,1-8.62,8.62h0a0,0,0,0,1,0,0v0A8.62,8.62,0,0,1,479.08,371.08Z" transform="translate(302.31 -204.77) rotate(35.11)"></path>
  <path class="cls-8" d="M475.59,364.24h0a0,0,0,0,1,0,0v0a8.62,8.62,0,0,1-8.62,8.62h0a0,0,0,0,1,0,0v0A8.62,8.62,0,0,1,475.59,364.24Z" transform="translate(-102.42 198.85) rotate(-21.55)"></path>
  <path class="cls-6" d="M382.88,393.16s.12-18.76,4.74-25.56"></path>
  <path class="cls-8" d="M381.84,375.42h0a0,0,0,0,1,0,0v0a8.62,8.62,0,0,1-8.62,8.62h0a0,0,0,0,1,0,0v0A8.62,8.62,0,0,1,381.84,375.42Z" transform="matrix(0.28, 0.96, -0.96, 0.28, 635.99, -89.23)"></path>
  <path class="cls-8" d="M394,374.28h0a0,0,0,0,1,0,0v0a8.62,8.62,0,0,1-8.62,8.62h0a0,0,0,0,1,0,0v0A8.62,8.62,0,0,1,394,374.28Z" transform="translate(288.67 -155.25) rotate(35.11)"></path>
  <path class="cls-8" d="M393.56,382.81h0a0,0,0,0,1,0,0v0a8.62,8.62,0,0,1-8.62,8.62h0a0,0,0,0,1,0,0v0A8.62,8.62,0,0,1,393.56,382.81Z" transform="translate(461.12 -157.14) rotate(52.68)"></path>
  <path class="cls-8" d="M384.18,366.32h0a0,0,0,0,1,0,0v0a8.62,8.62,0,0,1-8.62,8.62h0a0,0,0,0,1,0,0v0A8.62,8.62,0,0,1,384.18,366.32Z" transform="translate(730.35 -27.91) rotate(87.03)"></path>
  <path class="cls-8" d="M396.68,365.68h0a0,0,0,0,1,0,0v0a8.62,8.62,0,0,1-8.62,8.62h0a0,0,0,0,1,0,0v0A8.62,8.62,0,0,1,396.68,365.68Z" transform="translate(284.2 -158.35) rotate(35.11)"></path>
  <path class="cls-8" d="M393.19,358.84h0a0,0,0,0,1,0,0v0a8.62,8.62,0,0,1-8.62,8.62h0a0,0,0,0,1,0,0v0A8.62,8.62,0,0,1,393.19,358.84Z" transform="translate(-106.2 168.2) rotate(-21.55)"></path>
  <path class="cls-6" d="M413.19,393.85s-.12-14.05-4.74-20.85"></path>
  <path class="cls-8" d="M414.23,380.82h0a8.62,8.62,0,0,1,8.62,8.62v0a0,0,0,0,1,0,0h0a8.62,8.62,0,0,1-8.62-8.62v0A0,0,0,0,1,414.23,380.82Z" transform="translate(905.69 91.55) rotate(106.31)"></path>
  <path class="cls-8" d="M402.07,379.69h0a8.62,8.62,0,0,1,8.62,8.62v0a0,0,0,0,1,0,0h0a8.62,8.62,0,0,1-8.62-8.62v0A0,0,0,0,1,402.07,379.69Z" transform="translate(959.68 464.38) rotate(144.89)"></path>
  <path class="cls-8" d="M411.89,371.73h0a8.62,8.62,0,0,1,8.62,8.62v0a0,0,0,0,1,0,0h0a8.62,8.62,0,0,1-8.62-8.62v0A0,0,0,0,1,411.89,371.73Z" transform="translate(813.27 -20.14) rotate(92.97)"></path>
  <path class="cls-8" d="M399.39,371.08h0A8.62,8.62,0,0,1,408,379.7v0a0,0,0,0,1,0,0h0a8.62,8.62,0,0,1-8.62-8.62v0A0,0,0,0,1,399.39,371.08Z" transform="translate(949.86 450.27) rotate(144.89)"></path>
  <path class="cls-8" d="M402.88,364.24h0a8.62,8.62,0,0,1,8.62,8.62v0a0,0,0,0,1,0,0h0a8.62,8.62,0,0,1-8.62-8.62v0A0,0,0,0,1,402.88,364.24Z" transform="translate(650.57 860.89) rotate(-158.45)"></path>
  <path class="cls-6" d="M423.34,393.16s.12-18.76,4.74-25.56"></path>
  <path class="cls-8" d="M422.3,375.42h0a0,0,0,0,1,0,0v0a8.62,8.62,0,0,1-8.62,8.62h0a0,0,0,0,1,0,0v0A8.62,8.62,0,0,1,422.3,375.42Z" transform="translate(665.09 -128.06) rotate(73.69)"></path>
  <path class="cls-8" d="M434.46,374.28h0a0,0,0,0,1,0,0v0a8.62,8.62,0,0,1-8.62,8.62h0a0,0,0,0,1,0,0v0A8.62,8.62,0,0,1,434.46,374.28Z" transform="translate(296.03 -178.52) rotate(35.11)"></path>
  <path class="cls-8" d="M434,382.81h0a0,0,0,0,1,0,0v0a8.62,8.62,0,0,1-8.62,8.62h0a0,0,0,0,1,0,0v0A8.62,8.62,0,0,1,434,382.81Z" transform="translate(477.05 -189.31) rotate(52.68)"></path>
  <path class="cls-8" d="M424.64,366.32h0a0,0,0,0,1,0,0v0a8.62,8.62,0,0,1-8.62,8.62h0a0,0,0,0,1,0,0v0A8.62,8.62,0,0,1,424.64,366.32Z" transform="translate(768.72 -68.32) rotate(87.03)"></path>
  <path class="cls-8" d="M437.14,365.68h0a0,0,0,0,1,0,0v0a8.62,8.62,0,0,1-8.62,8.62h0a0,0,0,0,1,0,0v0A8.62,8.62,0,0,1,437.14,365.68Z" transform="translate(291.57 -181.63) rotate(35.11)"></path>
  <path class="cls-8" d="M433.65,358.84h0a0,0,0,0,1,0,0v0a8.62,8.62,0,0,1-8.62,8.62h0a0,0,0,0,1,0,0v0A8.62,8.62,0,0,1,433.65,358.84Z" transform="translate(-103.37 183.06) rotate(-21.55)"></path>
  <text class="cls-9" transform="translate(455.67 177.82)">No. 7</text>
  <path class="cls-2" d="M254.8,161.88v5.26h-3.09V153.8h7.65v2.55H254.8v3h4.56v2.56Z"></path>
  <path class="cls-2" d="M267.9,167.37a6.9,6.9,0,1,1,7-6.9A6.91,6.91,0,0,1,267.9,167.37Zm0-11.13c-2.17,0-3.75,1.86-3.75,4.23a3.78,3.78,0,1,0,3.75-4.23Z"></path>
  <path class="cls-2" d="M283.69,162.35a6.9,6.9,0,1,1,7-6.9A6.91,6.91,0,0,1,283.69,162.35Zm0-11.13a4.26,4.26,0,1,0,3.76,4.23A3.93,3.93,0,0,0,283.69,151.22Z"></path>
  <path class="cls-2" d="M292.94,153.8h4c3.47,0,7.38,1.79,7.38,6.61s-3.85,6.73-7.55,6.73h-3.84ZM296,164.59h.17c2.86,0,4.85-1.09,4.85-4,0-2.76-1.62-4.23-4.41-4.23H296Z"></path>
  <path class="cls-2" d="M311.31,167.14V153.8h3.09v10.79h5.34v2.55Z"></path>
  <path class="cls-2" d="M327.14,167.37a6.9,6.9,0,1,1,7-6.9A6.91,6.91,0,0,1,327.14,167.37Zm0-11.13a4.26,4.26,0,1,0,3.75,4.23C330.89,158.1,329.31,156.24,327.14,156.24Z"></path>
  <path class="cls-2" d="M342.93,162.35a6.9,6.9,0,1,1,7-6.9A6.91,6.91,0,0,1,342.93,162.35Zm0-11.13a4.26,4.26,0,1,0,3.75,4.23A3.93,3.93,0,0,0,342.93,151.22Z"></path>
  <path class="cls-2" d="M356.11,156.16c-.71,0-1.45.38-1.45,1.14,0,1,1.2,1.2,2.06,1.51,1.88.65,4.19,1.53,4.19,4.44s-2.74,4.12-5.19,4.12a7,7,0,0,1-5.2-2.32l2-2c1,.95,1.81,1.7,3.24,1.7.94,0,1.87-.44,1.87-1.47s-1.24-1.47-2.44-1.91c-1.77-.66-3.62-1.5-3.62-4.08s2.27-3.73,4.5-3.73a7.13,7.13,0,0,1,4.54,1.64l-1.74,2.17A4.52,4.52,0,0,0,356.11,156.16Z"></path>
  <path class="cls-2" d="M363,167.14V153.8h8.77v2.55h-5.68V159h5.68v2.56h-5.68v3h5.68v2.55Z"></path>
  <path class="cls-2" d="M277.66,171.7c1.38,0,3,.69,3,2.54s-1.62,2.57-3,2.57h-1.27v3.32H275.1V171.7Zm-1.27,4h1c1.11,0,1.94-.36,1.94-1.39s-.7-1.45-1.71-1.45h-1.21Z"></path>
  <path class="cls-2" d="M286.16,178.4H282.7l-.62,1.73h-1.42L284,171.7h1.1l3.21,8.43h-1.49Zm-3-1.14h2.62l-1.3-3.6h0Z"></path>
  <path class="cls-2" d="M295.35,180.13l-4.44-6v6h-1.29V171.7h1.13l4.46,6.05V171.7h1.29v8.43Z"></path>
  <path class="cls-2" d="M301.18,172.83v7.3h-1.29v-7.3H297.8V171.7h5.48v1.13Z"></path>
  <path class="cls-2" d="M307.12,171.7c1.31,0,2.93.69,2.93,2.44a2.39,2.39,0,0,1-2,2.38l2.65,3.61h-1.62l-2.48-3.52h-.73v3.52h-1.29V171.7Zm-1.25,3.78h1c1.06,0,1.84-.38,1.84-1.3s-.65-1.35-1.61-1.35h-1.19Z"></path>
  <path class="cls-2" d="M313.49,180.13v-3.64l-2.68-4.79h1.6l1.78,3.42h0L316,171.7h1.51l-2.75,4.85v3.58Z"></path>
  <path class="cls-2" d="M328.26,180.37l-1.48-1.31a3.15,3.15,0,0,1-2.61,1.22,2.82,2.82,0,0,1-2.84-2.64,2.57,2.57,0,0,1,1.4-2.26,2.51,2.51,0,0,1-.78-1.73,2.31,2.31,0,0,1,2.42-2.1,2.2,2.2,0,0,1,2.23,1.59l-1.15.33a1.17,1.17,0,0,0-2.27.23c0,.61.48,1.08,1.28,1.81l-.72.84-.23-.21a1.63,1.63,0,0,0-.94,1.47,1.65,1.65,0,0,0,1.71,1.56,2,2,0,0,0,1.67-.85l-1-.85.74-.84,3.26,2.91Z"></path>
  <path class="cls-2" d="M337.05,179.13a3.1,3.1,0,0,0,1.84-.63l.7,1a4.36,4.36,0,0,1-2.56.82,4.29,4.29,0,0,1-4.51-4.37,4.41,4.41,0,0,1,4.53-4.36,4.34,4.34,0,0,1,2.34.7l-.62,1a3.21,3.21,0,0,0-1.72-.54,3.08,3.08,0,0,0-3.15,3.21A3,3,0,0,0,337.05,179.13Z"></path>
  <path class="cls-2" d="M344.46,180.28a4.37,4.37,0,1,1,4.36-4.37A4.33,4.33,0,0,1,344.46,180.28Zm0-7.58a3.22,3.22,0,1,0,3,3.21A3,3,0,0,0,344.46,172.7Z"></path>
  <text class="cls-9" transform="translate(125.02 157.82)">
    <tspan class="cls-10">R</tspan>
    <tspan x="5.9" y="0">efill</tspan>
    <tspan class="cls-10" x="0" y="10">R</tspan>
    <tspan x="5.9" y="10">euse</tspan>
    <tspan class="cls-10" x="0" y="20">R</tspan>
    <tspan x="5.9" y="20">e</tspan>
    <tspan class="cls-11" x="11.66" y="20">c</tspan>
    <tspan class="cls-12" x="16.77" y="20">ycle</tspan>
  </text>
</svg>
