<?xml version="1.0" encoding="UTF-8"?>
<svg xmlns="http://www.w3.org/2000/svg" xmlns:xlink="http://www.w3.org/1999/xlink" viewBox="0 0 600 600">
  <clipPath id="a">
    <path d="m270.52 353.91h98.72v98.72h-98.72z" transform="matrix(0 1 -1 0 723.15 83.39)"></path>
  </clipPath>
  <clipPath id="b">
    <path d="m348.1 345.42h27v27h-27z"></path>
  </clipPath>
  <clipPath id="c">
    <path d="m348.1 372.42h27v27h-27z"></path>
  </clipPath>
  <clipPath id="d">
    <path d="m348.1 399.42h27v27h-27z"></path>
  </clipPath>
  <clipPath id="e">
    <path d="m348.1 426.42h27v27h-27z"></path>
  </clipPath>
  <clipPath id="f">
    <path d="m321.1 345.42h27v27h-27z"></path>
  </clipPath>
  <clipPath id="g">
    <path d="m321.1 372.42h27v27h-27z"></path>
  </clipPath>
  <clipPath id="h">
    <path d="m321.1 399.42h27v27h-27z"></path>
  </clipPath>
  <clipPath id="i">
    <path d="m321.1 426.42h27v27h-27z"></path>
  </clipPath>
  <clipPath id="j">
    <path d="m294.1 345.42h27v27h-27z"></path>
  </clipPath>
  <clipPath id="k">
    <path d="m294.1 372.42h27v27h-27z"></path>
  </clipPath>
  <clipPath id="l">
    <path d="m294.1 399.42h27v27h-27z"></path>
  </clipPath>
  <clipPath id="m">
    <path d="m294.1 426.42h27v27h-27z"></path>
  </clipPath>
  <clipPath id="n">
    <path d="m267.1 345.42h27v27h-27z"></path>
  </clipPath>
  <clipPath id="o">
    <path d="m267.1 372.42h27v27h-27z"></path>
  </clipPath>
  <clipPath id="p">
    <path d="m267.1 399.42h27v27h-27z"></path>
  </clipPath>
  <clipPath id="q">
    <path d="m267.1 426.42h27v27h-27z"></path>
  </clipPath>
  <path d="m79.87 159.07h440.76v332.8h-440.76z" fill="#fff"></path>
  <path d="m146.55 164.43v7.57c-7.77-2.74-11.4-.79-11.4-.79a26.45 26.45 0 0 0 -2.63.83h-62.74v-7.62z" fill="#ffde00"></path>
  <path d="m453.48 164.45h76.74v7.58h-76.74z" fill="#ffde00"></path>
  <path d="m300 164.43v7.62h-152.44a1 1 0 0 1 -1-1v-6.6z" fill="#ffde00"></path>
  <path d="m300 164.45h153.47v7.58h-153.47z" fill="#ffde00"></path>
  <path d="m132.52 172.05a20.73 20.73 0 0 0 -10.5 7.57h-52.24v-7.57z" fill="#ffde00"></path>
  <path d="m223.27 172.05v7.57h-63.15a54.06 54.06 0 0 0 -13.5-7.57z" fill="#ffde00"></path>
  <path d="m223.27 172.03h153.47v7.58h-153.47z" fill="#ffde00"></path>
  <path d="m376.74 172.03h153.47v7.58h-153.47z" fill="#ffde00"></path>
  <path d="m122 179.62a24.61 24.61 0 0 0 -3.49 7.58h-48.73v-7.58z" fill="#ffde00"></path>
  <path d="m453.48 179.61h76.74v7.58h-76.74z" fill="#ffde00"></path>
  <path d="m300 179.62v7.58h-80.78c-7.95-5-19.54-1-19.54-1s-1.31.45-3.48 1h-24a23.89 23.89 0 0 1 -7.84-4.28c-1.46-1.2-2.89-2.32-4.24-3.3z" fill="#ffde00"></path>
  <path d="m300 179.61h153.47v7.58h-153.47z" fill="#ffde00"></path>
  <path d="m69.78 187.2h48.75a36.87 36.87 0 0 0 -1.42 7.57h-47.33z" fill="#ffde00"></path>
  <path d="m172.2 187.2h24c-5.14 1.23-15.12 2.92-24 0z" fill="#ffde00"></path>
  <path d="m223.27 187.2v3.93a12.5 12.5 0 0 0 -4.05-3.93z" fill="#ffde00"></path>
  <path d="m225.07 194.77h74.93 76.72v-7.57h-76.72-76.73v3.93" fill="#ffde00"></path>
  <path d="m376.74 187.2h153.47v7.58h-153.47z" fill="#ffde00"></path>
  <path d="m117.11 194.77a58.64 58.64 0 0 0 -.26 7.58h-47.07v-7.58z" fill="#ffde00"></path>
  <path d="m453.48 194.78h76.74v7.58h-76.74z" fill="#ffde00"></path>
  <path d="m300 194.77v7.58h-73a44.58 44.58 0 0 0 -1.8-7.2 1.08 1.08 0 0 0 -.15-.38z" fill="#ffde00"></path>
  <path d="m300 194.78h153.47v7.58h-153.47z" fill="#ffde00"></path>
  <path d="m117.3 210h-47.52v-7.61h47.07c.03 2.32.15 4.83.45 7.61z" fill="#ffde00"></path>
  <path d="m376.72 202.35v7.65h-149.14a44.84 44.84 0 0 0 -.56-7.61z" fill="#ffde00"></path>
  <path d="m376.74 202.36h153.47v7.58h-153.47z" fill="#ffde00"></path>
  <path d="m118.53 217.53h-48.75v-7.53h47.52l.22 2.14a43.05 43.05 0 0 0 1.01 5.39z" fill="#ffde00"></path>
  <path d="m453.48 209.96h76.72v7.58h-76.72z" fill="#ffde00"></path>
  <path d="m300 210v7.57h-73.24a40.47 40.47 0 0 0 .82-7.57z" fill="#ffde00"></path>
  <path d="m300 209.96h153.49v7.58h-153.49z" fill="#ffde00"></path>
  <path d="m121.2 225.11h-51.42v-7.58h48.75a40.07 40.07 0 0 0 2.67 7.58z" fill="#ffde00"></path>
  <path d="m376.72 217.53v7.58h-152.4a36.91 36.91 0 0 0 2.44-7.58z" fill="#ffde00"></path>
  <path d="m376.72 217.53h9.68v7.57h-9.68z" fill="#ffde00"></path>
  <path d="m461.4 217.53h68.81v7.57h-68.81z" fill="#ffde00"></path>
  <path d="m125.73 232.68h-55.95v-7.57h51.42a42.72 42.72 0 0 0 4.53 7.57z" fill="#ffde00"></path>
  <path d="m461.4 225.11h68.81v7.58h-68.81z" fill="#ffde00"></path>
  <path d="m300 225.11v7.57h-80.14a35.5 35.5 0 0 0 4.46-7.57z" fill="#ffde00"></path>
  <path d="m300 225.11h86.4v7.58h-86.4z" fill="#ffde00"></path>
  <path d="m132.78 240.26h-63v-7.58h56a46.66 46.66 0 0 0 7 7.58z" fill="#ffde00"></path>
  <path d="m223.27 232.68v7.58h-10.8a43.43 43.43 0 0 0 7.39-7.58z" fill="#ffde00"></path>
  <path d="m223.27 232.68h153.47v7.58h-153.47z" fill="#ffde00"></path>
  <path d="m376.72 232.68h9.68v7.58h-9.68z" fill="#ffde00"></path>
  <path d="m461.4 232.68h68.81v7.58h-68.81z" fill="#ffde00"></path>
  <path d="m144.19 247.83h-74.41v-7.57h63a52.88 52.88 0 0 0 11.41 7.57z" fill="#ffde00"></path>
  <path d="m461.4 240.26h68.81v7.57h-68.81z" fill="#ffde00"></path>
  <path d="m300 240.26v7.57h-99.79a59.52 59.52 0 0 0 12.26-7.57z" fill="#ffde00"></path>
  <path d="m300 240.26h86.4v7.57h-86.4z" fill="#ffde00"></path>
  <path d="m223.27 247.83v7.62h-153.49v-7.62h74.41a63.54 63.54 0 0 0 50.81 2.22c1.84-.72 3.6-1.47 5.25-2.22z" fill="#ffde00"></path>
  <path d="m376.72 247.83v7.62h-30.34v-7.58h-83.36v7.58h-39.75v-7.62z" fill="#ffde00"></path>
  <path d="m376.72 247.83h9.68v7.61h-9.68z" fill="#ffde00"></path>
  <path d="m461.4 247.83h68.81v7.61h-68.81z" fill="#ffde00"></path>
  <path d="m69.79 255.43h76.74v7.58h-76.74z" fill="#ffde00"></path>
  <path d="m461.4 255.45h68.81v7.57h-68.81z" fill="#ffde00"></path>
  <path d="m146.55 255.45h116.47v7.57h-116.47z" fill="#ffde00"></path>
  <path d="m346.38 255.45h40.01v7.57h-40.01z" fill="#ffde00"></path>
  <path d="m69.78 263.02v7.58h41.22v-6.45-1.14z" fill="#ffde00"></path>
  <path d="m233.25 263.02h29.77v7.58h-29.77v-6.45z" fill="#ffde00"></path>
  <path d="m346.38 263.02h30.34v7.58h-30.34z" fill="#ffde00"></path>
  <path d="m376.72 263.02h9.68v7.58h-9.68z" fill="#ffde00"></path>
  <path d="m461.4 263.02h68.81v7.58h-68.81z" fill="#ffde00"></path>
  <path d="m69.78 270.6h41.21v7.58h-41.21z" fill="#ffde00"></path>
  <path d="m461.4 270.6h68.81v7.58h-68.81z" fill="#ffde00"></path>
  <path d="m233.25 270.6h29.77v7.58h-29.77z" fill="#ffde00"></path>
  <path d="m346.38 270.6h40.01v7.58h-40.01z" fill="#ffde00"></path>
  <path d="m69.78 278.17h41.21v7.58h-41.21z" fill="#ffde00"></path>
  <path d="m233.25 278.17h29.77v7.58h-29.77z" fill="#ffde00"></path>
  <path d="m346.38 278.17h30.34v7.58h-30.34z" fill="#ffde00"></path>
  <path d="m376.72 278.17h9.68v7.58h-9.68z" fill="#ffde00"></path>
  <path d="m461.4 278.17h68.81v7.58h-68.81z" fill="#ffde00"></path>
  <path d="m69.78 285.75h41.21v7.57h-41.21z" fill="#ffde00"></path>
  <path d="m530.21 285.75v7.57h-76.73v-.79h7.92v-6.78z" fill="#ffde00"></path>
  <path d="m233.25 285.75h29.77v7.57h-29.77z" fill="#ffde00"></path>
  <path d="m453.48 292.53v.79h-107.1v-7.57h40.02v6.78z" fill="#ffde00"></path>
  <path d="m69.78 293.32h41.21v7.61h-41.21z" fill="#ffde00"></path>
  <path d="m233.25 293.32h29.77v7.61h-29.77z" fill="#ffde00"></path>
  <path d="m346.38 293.32h30.34v7.61h-30.34z" fill="#ffde00"></path>
  <path d="m376.74 293.34h153.47v7.58h-153.47z" fill="#ffde00"></path>
  <path d="m69.78 300.93h41.21v7.57h-41.21z" fill="#ffde00"></path>
  <path d="m453.48 305.51v-4.58h76.73v7.58h-19.16v-3z" fill="#ffde00"></path>
  <path d="m233.25 300.93h29.77v7.57h-29.77z" fill="#ffde00"></path>
  <path d="m453.48 305.51h-44.06l.08 3h-63.12v-7.58h107.1z" fill="#ffde00"></path>
  <path d="m69.78 308.51h41.21v7.58h-41.21z" fill="#ffde00"></path>
  <path d="m233.25 308.51h29.77v7.58h-29.77z" fill="#ffde00"></path>
  <path d="m346.38 308.51h30.34v7.58h-30.34z" fill="#ffde00"></path>
  <path d="m376.72 308.51h32.78v7.58h-32.78z" fill="#ffde00"></path>
  <path d="m511.05 308.51h19.16v7.58h-19.16z" fill="#ffde00"></path>
  <path d="m69.78 316.08h41.21v7.58h-41.21z" fill="#ffde00"></path>
  <path d="m511.05 316.08h19.16v7.58h-19.16z" fill="#ffde00"></path>
  <path d="m233.25 316.08h29.77v7.58h-29.77z" fill="#ffde00"></path>
  <path d="m346.38 316.08h63.11v7.58h-63.11z" fill="#ffde00"></path>
  <path d="m69.78 323.66h41.21v7.57h-41.21z" fill="#ffde00"></path>
  <path d="m233.25 323.66h29.77v7.57h-29.77z" fill="#ffde00"></path>
  <path d="m346.38 323.66h30.34v7.57h-30.34z" fill="#ffde00"></path>
  <path d="m376.72 323.66h32.78v7.57h-32.78z" fill="#ffde00"></path>
  <path d="m511.05 323.66h19.16v7.57h-19.16z" fill="#ffde00"></path>
  <path d="m69.78 331.23h41.21v7.58h-41.21z" fill="#ffde00"></path>
  <path d="m511.05 331.23h19.16v7.58h-19.16z" fill="#ffde00"></path>
  <path d="m233.25 331.23h66.75v7.58h-66.75z" fill="#ffde00"></path>
  <path d="m300 331.23h109.5v7.58h-109.5z" fill="#ffde00"></path>
  <path d="m69.78 338.81h41.21v7.61h-41.21z" fill="#ffde00"></path>
  <path d="m233.25 338.81h143.47v7.61h-143.47z" fill="#ffde00"></path>
  <path d="m376.72 338.81h32.78v7.61h-32.78z" fill="#ffde00"></path>
  <path d="m511.05 338.81h19.16v7.61h-19.16z" fill="#ffde00"></path>
  <path d="m69.78 346.42h41.21v7.57h-41.21z" fill="#ffde00"></path>
  <path d="m511.05 346.42h19.16v7.57h-19.16z" fill="#ffde00"></path>
  <path d="m233.25 346.42h29.77v7.57h-29.77z" fill="#ffde00"></path>
  <path d="m376.76 346.42h32.74v7.57h-32.74z" fill="#ffde00"></path>
  <path d="m69.78 354h41.21v7.58h-41.21z" fill="#ffde00"></path>
  <path d="m233.25 354h29.77v7.58h-29.77z" fill="#ffde00"></path>
  <path d="m376.72 354h32.78v7.58h-32.78z" fill="#ffde00"></path>
  <path d="m511.05 354h19.16v7.58h-19.16z" fill="#ffde00"></path>
  <path d="m69.78 361.57h41.21v7.58h-41.21z" fill="#ffde00"></path>
  <path d="m511.05 361.57h19.16v7.58h-19.16z" fill="#ffde00"></path>
  <path d="m233.25 361.57h29.77v7.58h-29.77z" fill="#ffde00"></path>
  <path d="m376.76 361.57h32.74v7.58h-32.74z" fill="#ffde00"></path>
  <path d="m69.78 369.15h41.21v7.57h-41.21z" fill="#ffde00"></path>
  <path d="m233.25 369.15h29.77v7.57h-29.77z" fill="#ffde00"></path>
  <path d="m376.72 369.15h32.78v7.57h-32.78z" fill="#ffde00"></path>
  <path d="m511.05 369.15h19.16v7.57h-19.16z" fill="#ffde00"></path>
  <path d="m69.78 376.72h41.21v7.58h-41.21z" fill="#ffde00"></path>
  <path d="m511.05 376.72h19.16v7.58h-19.16z" fill="#ffde00"></path>
  <path d="m233.25 376.72h29.77v7.58h-29.77z" fill="#ffde00"></path>
  <path d="m376.76 376.72h32.74v7.58h-32.74z" fill="#ffde00"></path>
  <path d="m69.78 384.3h41.21v7.61h-41.21z" fill="#ffde00"></path>
  <path d="m233.25 384.3h29.77v7.61h-29.77z" fill="#ffde00"></path>
  <path d="m376.72 384.3h32.78v7.61h-32.78z" fill="#ffde00"></path>
  <path d="m511.05 384.3h19.16v7.61h-19.16z" fill="#ffde00"></path>
  <path d="m69.78 391.91h41.21v7.57h-41.21z" fill="#ffde00"></path>
  <path d="m511.05 391.91h19.16v7.57h-19.16z" fill="#ffde00"></path>
  <path d="m233.25 391.91h29.77v7.57h-29.77z" fill="#ffde00"></path>
  <path d="m376.76 391.91h32.74v7.57h-32.74z" fill="#ffde00"></path>
  <path d="m69.78 399.48h41.21v7.58h-41.21z" fill="#ffde00"></path>
  <path d="m233.25 399.48h29.77v7.58h-29.77z" fill="#ffde00"></path>
  <path d="m376.72 399.48h32.78v7.58h-32.78z" fill="#ffde00"></path>
  <path d="m511.05 399.48h19.16v7.58h-19.16z" fill="#ffde00"></path>
  <path d="m69.78 407.06h41.21v7.58h-41.21z" fill="#ffde00"></path>
  <path d="m453.48 407.06h76.74v7.58h-76.74z" fill="#ffde00"></path>
  <path d="m233.25 407.06h29.77v7.58h-29.77z" fill="#ffde00"></path>
  <path d="m376.76 407.06h76.72v7.58h-76.72z" fill="#ffde00"></path>
  <path d="m69.78 414.63h41.21v7.57h-41.21z" fill="#ffde00"></path>
  <path d="m233.25 414.63h29.77v7.57h-29.77z" fill="#ffde00"></path>
  <path d="m376.72 414.63h153.49v7.57h-153.49z" fill="#ffde00"></path>
  <path d="m69.78 422.21h41.21v7.61h-41.21z" fill="#ffde00"></path>
  <path d="m453.48 422.22h76.74v7.58h-76.74z" fill="#ffde00"></path>
  <path d="m233.25 422.21h29.77v7.61h-29.77z" fill="#ffde00"></path>
  <path d="m376.76 422.21h76.72v7.61h-76.72z" fill="#ffde00"></path>
  <path d="m69.78 429.82h41.21v7.57h-41.21z" fill="#ffde00"></path>
  <path d="m233.25 429.82h29.77v7.57h-29.77z" fill="#ffde00"></path>
  <path d="m376.72 429.82h153.49v7.57h-153.49z" fill="#ffde00"></path>
  <path d="m69.78 437.4h41.21v7.58h-41.21z" fill="#ffde00"></path>
  <path d="m453.48 437.38h76.74v7.58h-76.74z" fill="#ffde00"></path>
  <path d="m233.25 437.4h29.77v7.58h-29.77z" fill="#ffde00"></path>
  <path d="m376.76 437.4h76.72v7.58h-76.72z" fill="#ffde00"></path>
  <path d="m69.78 444.97h41.21v7.58h-41.21z" fill="#ffde00"></path>
  <path d="m233.25 444.97h29.77v7.58h-29.77z" fill="#ffde00"></path>
  <path d="m376.72 444.97h153.49v7.58h-153.49z" fill="#ffde00"></path>
  <path d="m69.78 452.55h41.21v7.58h-41.21z" fill="#ffde00"></path>
  <path d="m453.48 452.55h76.74v7.58h-76.74z" fill="#ffde00"></path>
  <path d="m233.25 452.55h29.77v7.58h-29.77z" fill="#ffde00"></path>
  <path d="m376.76 452.55h76.72v7.58h-76.72z" fill="#ffde00"></path>
  <path d="m69.78 460.12h41.21v7.57h-41.21z" fill="#ffde00"></path>
  <path d="m233.25 460.12h143.47v7.57h-143.47z" fill="#ffde00"></path>
  <path d="m376.72 460.12h153.49v7.57h-153.49z" fill="#ffde00"></path>
  <path d="m69.78 467.7h41.21v7.61h-41.21z" fill="#ffde00"></path>
  <path d="m453.48 467.71h76.74v7.58h-76.74z" fill="#ffde00"></path>
  <path d="m233.25 467.7h66.75v7.61h-66.75z" fill="#ffde00"></path>
  <path d="m300 467.71h153.47v7.58h-153.47z" fill="#ffde00"></path>
  <path d="m69.78 475.31h41.21v7.57h-41.21z" fill="#ffde00"></path>
  <path d="m233.25 475.31h143.47v7.57h-143.47z" fill="#ffde00"></path>
  <path d="m376.74 475.29h153.47v7.58h-153.47z" fill="#ffde00"></path>
  <path d="m111 482.88v1.13h-9.38v6.45h-31.84v-7.58z" fill="#ffde00"></path>
  <path d="m453.48 482.87h76.74v7.58h-76.74z" fill="#ffde00"></path>
  <path d="m300 482.88v7.58h-57.23v-6.45h-9.52v-1.13z" fill="#ffde00"></path>
  <path d="m300 482.87h153.47v7.58h-153.47z" fill="#ffde00"></path>
  <path d="m376.72 354h.04v7.58h-.04z" fill="#ffde00"></path>
  <path d="m376.72 369.15h.04v7.57h-.04z" fill="#ffde00"></path>
  <path d="m376.72 384.3h.04v7.61h-.04z" fill="#ffde00"></path>
  <path d="m376.72 399.48h.04v7.58h-.04z" fill="#ffde00"></path>
  <path d="m376.72 414.63h.04v7.57h-.04z" fill="#ffde00"></path>
  <path d="m376.72 429.82h.04v7.57h-.04z" fill="#ffde00"></path>
  <path d="m376.72 444.97h.04v7.58h-.04z" fill="#ffde00"></path>
  <path d="m418.03 269.04h-17.17l3.26 16.37h10.64z" fill="#ffde00"></path>
  <path d="m119 271.05v215.61h107.27v-215.61zm42.65 29.75a11 11 0 1 1 21.95 0v14.93h-21.92zm-29.75 0a11 11 0 1 1 21.95 0v14.93h-21.92zm0 25.44h34v73h-34zm21.95 146.51h-21.92v-44.63h21.95zm29.75 0h-21.92v-44.63h21.95zm29.75 0h-21.92v-44.63h21.95zm0-73.54h-34v-73h34zm0-83.48h-21.92v-14.93a11 11 0 1 1 21.95 0z" fill="#00ab81"></path>
  <path d="m69.78 138.23h153.47v26.22h-153.47z" fill="#00ab81"></path>
  <path d="m223.26 138.23h153.47v26.22h-153.47z" fill="#00ab81"></path>
  <path d="m376.73 138.23h153.47v26.22h-153.47z" fill="#00ab81"></path>
  <path d="m263 346.41v113.72h113.74v-113.72zm106.24 106.22h-98.72v-98.72h98.72z" fill="#00ab81"></path>
  <path d="m386.4 217.85v75h75v-75zm67.51 67.51h-60v-60h60z" fill="#00ab81"></path>
  <path d="m414.57 269.65a3.55 3.55 0 0 0 3.15-3 8.18 8.18 0 0 0 -.69-4.55 8.64 8.64 0 0 1 -.74-2.61 15.29 15.29 0 0 1 .39-2.76 6.58 6.58 0 0 0 -.33-3.11c-.48-1.34-1.39-2.51-1.71-3.9a24.65 24.65 0 0 1 -.16-3.85 2 2 0 0 0 -.32-1.07 1.71 1.71 0 0 0 -.8-.57 3.86 3.86 0 0 0 -3.21.33 5.63 5.63 0 0 0 -2.15 2.44c-.57 1.17-.85 2.51-1.71 3.48s-2 1.39-2.56 2.46a4.15 4.15 0 0 0 -.33 2c0 1.89.39 3.87-.37 5.6-.49 1.12-1.64 1.91-2 3.09 0 .05 0 .1-.05.16a4.68 4.68 0 0 0 4.54 5.9z" fill="#00ab81"></path>
  <path d="m409.58 269.66s-1.37-11.49 1-18.45" fill="#00ab81"></path>
  <path d="m102.17 482.87h141.13v7.58h-141.13z" fill="#00ab81"></path>
  <path d="m409.4 305.5v101.56h101.6v-101.56zm94.06 94.06h-86.56v-86.56h86.56z" fill="#fb715d"></path>
  <path d="m263 247.85v83.36h83.36v-83.36zm75.86 75.86h-68.34v-68.36h68.36z" fill="#fb715d"></path>
  <path d="m111 278.17v-15.17h122.25s.76 15.16 0 15.16h-7v-7.12h-107.25v7.12z" fill="#fb715d"></path>
  <path d="m119.03 482.87-8.03.15v-204.85l8.03-.21z" fill="#fb715d"></path>
  <path d="m234.31 482.87-8.03.15v-204.85l8.03-.21z" fill="#fb715d"></path>
  <g fill="#1c19a8">
    <path d="m132.52 173.45h-62.74l-1.4-1.4v-7.62l1.4-1.4h76.77l1.4 1.4v7.57l-1.87 1.32c-6.94-2.44-10.25-.88-10.29-.86-1.11.33-1.92.57-2.77.89zm-61.33-2.81h61.08c.86-.31 1.69-.56 2.52-.78.11-.1 3.49-1.74 10.35.22v-4.24h-73.95z"></path>
    <path d="m530.22 173.44h-76.74a1.41 1.41 0 0 1 -1.41-1.41v-7.58a1.41 1.41 0 0 1 1.41-1.41h76.74a1.41 1.41 0 0 1 1.4 1.41v7.55a1.41 1.41 0 0 1 -1.4 1.44zm-75.33-2.81h73.92v-4.77h-73.92z"></path>
    <path d="m300 173.45h-152.44a2.42 2.42 0 0 1 -2.42-2.42v-6.6l1.41-1.4h153.45l1.4 1.4v7.62zm-152-2.81h150.59v-4.8h-150.59z"></path>
    <path d="m453.48 173.44h-153.48a1.41 1.41 0 0 1 -1.4-1.41v-7.58a1.41 1.41 0 0 1 1.4-1.45h153.48a1.41 1.41 0 0 1 1.4 1.41v7.59a1.41 1.41 0 0 1 -1.4 1.44zm-152.07-2.81h150.66v-4.77h-150.66z"></path>
    <path d="m122 181h-52.22a1.41 1.41 0 0 1 -1.4-1.41v-7.57a1.41 1.41 0 0 1 1.4-1.41h62.74a1.4 1.4 0 0 1 .47 2.73 19.2 19.2 0 0 0 -9.82 7.07 1.42 1.42 0 0 1 -1.17.59zm-50.83-2.82h50.13a20.73 20.73 0 0 1 5.12-4.76h-55.23z"></path>
    <path d="m223.27 181h-63.15a1.41 1.41 0 0 1 -.83-.28 53.61 53.61 0 0 0 -13.14-7.38 1.41 1.41 0 0 1 .47-2.73h76.65a1.41 1.41 0 0 1 1.41 1.41v7.57a1.41 1.41 0 0 1 -1.41 1.41zm-62.69-2.82h61.29v-4.76h-68.76a71 71 0 0 1 7.47 4.79z"></path>
    <path d="m376.74 181h-153.47a1.41 1.41 0 0 1 -1.41-1.41v-7.59a1.41 1.41 0 0 1 1.41-1.4h153.47a1.4 1.4 0 0 1 1.4 1.4v7.58a1.41 1.41 0 0 1 -1.4 1.42zm-152.07-2.81h150.66v-4.77h-150.66z"></path>
    <path d="m530.21 181h-153.47a1.41 1.41 0 0 1 -1.41-1.41v-7.59a1.41 1.41 0 0 1 1.41-1.4h153.47a1.41 1.41 0 0 1 1.41 1.4v7.58a1.41 1.41 0 0 1 -1.41 1.42zm-152.07-2.81h150.66v-4.77h-150.66z"></path>
    <path d="m118.53 188.6h-48.75a1.41 1.41 0 0 1 -1.4-1.41v-7.57a1.41 1.41 0 0 1 1.4-1.41h52.22a1.4 1.4 0 0 1 1.25.76 1.42 1.42 0 0 1 -.09 1.46 23.29 23.29 0 0 0 -3.29 7.14 1.41 1.41 0 0 1 -1.34 1.03zm-47.34-2.81h46.3a26.37 26.37 0 0 1 2-4.76h-48.3z"></path>
    <path d="m530.22 188.6h-76.74a1.41 1.41 0 0 1 -1.41-1.41v-7.58a1.41 1.41 0 0 1 1.41-1.4h76.74a1.4 1.4 0 0 1 1.4 1.4v7.58a1.41 1.41 0 0 1 -1.4 1.41zm-75.33-2.81h73.92v-4.79h-73.92z"></path>
    <path d="m300 188.6h-80.78a1.36 1.36 0 0 1 -.75-.22c-7.26-4.59-18.21-.87-18.32-.83s-1.37.47-3.62 1h-24.33a1.33 1.33 0 0 1 -.45-.07 25.4 25.4 0 0 1 -8.29-4.53c-1.43-1.17-2.83-2.28-4.16-3.24a1.41 1.41 0 0 1 .82-2.55h139.88a1.41 1.41 0 0 1 1.4 1.41v7.57a1.41 1.41 0 0 1 -1.4 1.46zm-80.38-2.81h79v-4.79h-134.36l1 .8a22.08 22.08 0 0 0 7.18 4h23.76c1.74-.46 3-.89 3-.9.51-.18 12.02-4.11 20.42.89z"></path>
    <path d="m453.47 188.6h-153.47a1.41 1.41 0 0 1 -1.4-1.41v-7.58a1.4 1.4 0 0 1 1.4-1.4h153.47a1.41 1.41 0 0 1 1.41 1.4v7.58a1.41 1.41 0 0 1 -1.41 1.41zm-152.06-2.81h150.66v-4.79h-150.66z"></path>
    <path d="m117.11 196.18h-47.33a1.41 1.41 0 0 1 -1.4-1.41v-7.58a1.4 1.4 0 0 1 1.4-1.4h48.75a1.41 1.41 0 0 1 1.35 1.82 35.42 35.42 0 0 0 -1.37 7.29 1.41 1.41 0 0 1 -1.4 1.28zm-45.92-2.82h44.65a40.46 40.46 0 0 1 .85-4.76h-45.5z"></path>
    <path d="m183.23 190.21a36.9 36.9 0 0 1 -11.47-1.68 1.4 1.4 0 0 1 .44-2.74h24a1.41 1.41 0 0 1 .33 2.77 57.88 57.88 0 0 1 -13.3 1.65z"></path>
    <path d="m223.27 192.54a1.39 1.39 0 0 1 -1.17-.64 11.38 11.38 0 0 0 -3.61-3.5 1.41 1.41 0 0 1 .73-2.61h4.05a1.41 1.41 0 0 1 1.41 1.4v3.94a1.41 1.41 0 0 1 -1 1.35 1.45 1.45 0 0 1 -.41.06z"></path>
    <path d="m376.72 196.18h-151.65v-2.82h150.25v-4.76h-150.64v2.53h-2.81v-3.94a1.4 1.4 0 0 1 1.4-1.4h153.45a1.41 1.41 0 0 1 1.41 1.4v7.58a1.41 1.41 0 0 1 -1.41 1.41z"></path>
    <path d="m530.21 196.18h-153.47a1.41 1.41 0 0 1 -1.41-1.4v-7.59a1.41 1.41 0 0 1 1.41-1.4h153.47a1.41 1.41 0 0 1 1.41 1.4v7.59a1.41 1.41 0 0 1 -1.41 1.4zm-152.07-2.81h150.66v-4.77h-150.66z"></path>
    <path d="m116.85 203.75h-47.07a1.41 1.41 0 0 1 -1.4-1.41v-7.57a1.41 1.41 0 0 1 1.4-1.41h47.33a1.41 1.41 0 0 1 1.4 1.55 58.66 58.66 0 0 0 -.25 7.4 1.42 1.42 0 0 1 -1.41 1.44zm-45.66-2.81h44.23c0-1.6 0-3.18.16-4.76h-44.39z"></path>
    <path d="m530.22 203.76h-76.74a1.41 1.41 0 0 1 -1.41-1.4v-7.58a1.41 1.41 0 0 1 1.41-1.41h76.74a1.41 1.41 0 0 1 1.4 1.41v7.58a1.4 1.4 0 0 1 -1.4 1.4zm-75.33-2.76h73.92v-4.77h-73.92z"></path>
    <path d="m300 203.75h-73a1.4 1.4 0 0 1 -1.38-1.18 43.62 43.62 0 0 0 -1.75-7 1.46 1.46 0 0 1 -.07-1.47 1.44 1.44 0 0 1 1.25-.77h74.95a1.41 1.41 0 0 1 1.4 1.41v7.57a1.41 1.41 0 0 1 -1.4 1.44zm-71.8-2.81h70.39v-4.76h-71.59a44.67 44.67 0 0 1 1.2 4.76z"></path>
    <path d="m453.48 203.76h-153.48a1.4 1.4 0 0 1 -1.4-1.4v-7.58a1.41 1.41 0 0 1 1.4-1.41h153.48a1.41 1.41 0 0 1 1.4 1.41v7.58a1.4 1.4 0 0 1 -1.4 1.4zm-152.07-2.76h150.66v-4.77h-150.66z"></path>
    <path d="m117.3 211.36h-47.52a1.4 1.4 0 0 1 -1.4-1.4v-7.62a1.4 1.4 0 0 1 1.4-1.4h47.07a1.42 1.42 0 0 1 1.41 1.38c0 2.3.17 4.76.43 7.5a1.44 1.44 0 0 1 -.35 1.09 1.42 1.42 0 0 1 -1.04.45zm-46.11-2.81h44.57c-.14-1.69-.23-3.28-.28-4.8h-44.29z"></path>
    <path d="m376.72 211.36h-149.14a1.45 1.45 0 0 1 -1-.41 1.42 1.42 0 0 1 -.4-1 44.78 44.78 0 0 0 -.55-7.38 1.4 1.4 0 0 1 .33-1.13 1.38 1.38 0 0 1 1.06-.49h149.7a1.41 1.41 0 0 1 1.41 1.4v7.65a1.41 1.41 0 0 1 -1.41 1.36zm-147.72-2.81h146.32v-4.8h-146.68a47.81 47.81 0 0 1 .36 4.8z"></path>
    <path d="m530.21 211.35h-153.47a1.41 1.41 0 0 1 -1.41-1.41v-7.58a1.41 1.41 0 0 1 1.41-1.41h153.47a1.41 1.41 0 0 1 1.41 1.41v7.58a1.41 1.41 0 0 1 -1.41 1.41zm-152.07-2.82h150.66v-4.77h-150.66z"></path>
    <path d="m118.53 218.94h-48.75a1.41 1.41 0 0 1 -1.4-1.41v-7.53a1.41 1.41 0 0 1 1.4-1.41h47.52a1.4 1.4 0 0 1 1.39 1.26l.23 2.14a38.41 38.41 0 0 0 1 5.24 1.43 1.43 0 0 1 -.26 1.21 1.39 1.39 0 0 1 -1.13.5zm-47.34-2.81h45.57c-.27-1.27-.48-2.55-.63-3.87l-.1-.9h-44.84z"></path>
    <path d="m530.21 218.94h-76.73a1.41 1.41 0 0 1 -1.4-1.41v-7.53a1.41 1.41 0 0 1 1.4-1.41h76.73a1.41 1.41 0 0 1 1.41 1.41v7.57a1.41 1.41 0 0 1 -1.41 1.37zm-75.32-2.81h73.91v-4.77h-73.91z"></path>
    <path d="m300 218.94h-73.24a1.41 1.41 0 0 1 -1.38-1.69 39.71 39.71 0 0 0 .8-7.31 1.4 1.4 0 0 1 1.4-1.39h72.42a1.41 1.41 0 0 1 1.4 1.41v7.57a1.41 1.41 0 0 1 -1.4 1.41zm-71.55-2.81h70.14v-4.77h-69.59a44.83 44.83 0 0 1 -.55 4.77z"></path>
    <path d="m453.48 218.94h-153.48a1.41 1.41 0 0 1 -1.41-1.41v-7.53a1.41 1.41 0 0 1 1.41-1.41h153.48a1.41 1.41 0 0 1 1.41 1.41v7.57a1.41 1.41 0 0 1 -1.41 1.37zm-152.08-2.81h150.68v-4.77h-150.68z"></path>
    <path d="m121.2 226.51h-51.42a1.4 1.4 0 0 1 -1.4-1.4v-7.58a1.4 1.4 0 0 1 1.4-1.4h48.75a1.4 1.4 0 0 1 1.37 1.07 38.89 38.89 0 0 0 2.57 7.31 1.41 1.41 0 0 1 -.09 1.35 1.38 1.38 0 0 1 -1.18.65zm-50-2.81h47.86a41.62 41.62 0 0 1 -1.61-4.76h-46.26z"></path>
    <path d="m376.72 226.51h-152.4a1.4 1.4 0 0 1 -1.28-2 35.59 35.59 0 0 0 2.34-7.28 1.4 1.4 0 0 1 1.38-1.12h150a1.41 1.41 0 0 1 1.41 1.4v7.58a1.41 1.41 0 0 1 -1.45 1.42zm-150.3-2.81h148.9v-4.76h-147.43a37.54 37.54 0 0 1 -1.47 4.76z"></path>
    <path d="m386.4 226.51h-9.68a1.4 1.4 0 0 1 -1.4-1.4v-7.58a1.4 1.4 0 0 1 1.4-1.4h9.68a1.4 1.4 0 0 1 1.4 1.4v7.58a1.4 1.4 0 0 1 -1.4 1.4zm-8.27-2.81h6.87v-4.76h-6.86z"></path>
    <path d="m530.21 226.51h-68.81a1.41 1.41 0 0 1 -1.41-1.4v-7.58a1.41 1.41 0 0 1 1.41-1.4h68.81a1.41 1.41 0 0 1 1.41 1.4v7.58a1.41 1.41 0 0 1 -1.41 1.4zm-67.41-2.81h66v-4.76h-66z"></path>
    <path d="m125.73 234.09h-55.95a1.41 1.41 0 0 1 -1.4-1.41v-7.57a1.41 1.41 0 0 1 1.4-1.41h51.42a1.41 1.41 0 0 1 1.27.82 42 42 0 0 0 4.39 7.32 1.41 1.41 0 0 1 -1.13 2.25zm-54.54-2.81h51.81a45.3 45.3 0 0 1 -2.72-4.77h-49.09z"></path>
    <path d="m530.21 234.09h-68.81a1.41 1.41 0 0 1 -1.41-1.41v-7.57a1.41 1.41 0 0 1 1.41-1.41h68.81a1.41 1.41 0 0 1 1.41 1.41v7.57a1.41 1.41 0 0 1 -1.41 1.41zm-67.41-2.81h66v-4.77h-66z"></path>
    <path d="m300 234.09h-80.14a1.4 1.4 0 0 1 -1.11-2.26 34.71 34.71 0 0 0 4.28-7.28 1.41 1.41 0 0 1 1.29-.85h75.68a1.41 1.41 0 0 1 1.4 1.41v7.57a1.41 1.41 0 0 1 -1.4 1.41zm-77.42-2.81h76v-4.77h-73.35a36.94 36.94 0 0 1 -2.65 4.77z"></path>
    <path d="m386.4 234.09h-86.4a1.41 1.41 0 0 1 -1.41-1.41v-7.57a1.41 1.41 0 0 1 1.41-1.41h86.4a1.41 1.41 0 0 1 1.4 1.41v7.57a1.41 1.41 0 0 1 -1.4 1.41zm-85-2.81h83.6v-4.77h-83.6z"></path>
    <path d="m132.79 241.66h-63a1.4 1.4 0 0 1 -1.4-1.4v-7.58a1.4 1.4 0 0 1 1.4-1.4h56a1.39 1.39 0 0 1 1.13.57 45.19 45.19 0 0 0 6.84 7.34 1.4 1.4 0 0 1 .4 1.56 1.38 1.38 0 0 1 -1.37.91zm-61.6-2.81h58a48.16 48.16 0 0 1 -4.17-4.76h-53.83z"></path>
    <path d="m223.27 241.66h-10.8a1.4 1.4 0 0 1 -.88-2.49 42.66 42.66 0 0 0 7.15-7.34 1.41 1.41 0 0 1 1.12-.55h3.41a1.41 1.41 0 0 1 1.41 1.4v7.58a1.4 1.4 0 0 1 -1.41 1.4zm-7.06-2.81h5.66v-4.76h-1.32a45.06 45.06 0 0 1 -4.34 4.76z"></path>
    <path d="m376.74 241.67h-153.47a1.41 1.41 0 0 1 -1.41-1.4v-7.59a1.41 1.41 0 0 1 1.41-1.4h153.47a1.4 1.4 0 0 1 1.4 1.4v7.59a1.4 1.4 0 0 1 -1.4 1.4zm-152.07-2.81h150.66v-4.77h-150.66z"></path>
    <path d="m386.4 241.66h-9.68a1.4 1.4 0 0 1 -1.4-1.4v-7.58a1.4 1.4 0 0 1 1.4-1.4h9.68a1.4 1.4 0 0 1 1.4 1.4v7.58a1.4 1.4 0 0 1 -1.4 1.4zm-8.27-2.81h6.87v-4.76h-6.86z"></path>
    <path d="m530.21 241.66h-68.81a1.4 1.4 0 0 1 -1.41-1.4v-7.58a1.41 1.41 0 0 1 1.41-1.4h68.81a1.41 1.41 0 0 1 1.41 1.4v7.58a1.4 1.4 0 0 1 -1.41 1.4zm-67.41-2.81h66v-4.76h-66z"></path>
    <path d="m144.19 249.24h-74.41a1.41 1.41 0 0 1 -1.4-1.41v-7.57a1.41 1.41 0 0 1 1.4-1.41h63a1.4 1.4 0 0 1 .92.35 51.39 51.39 0 0 0 11.1 7.37 1.41 1.41 0 0 1 -.62 2.67zm-73-2.81h67.58a52.39 52.39 0 0 1 -6.51-4.77h-61.07z"></path>
    <path d="m530.21 249.24h-68.81a1.41 1.41 0 0 1 -1.41-1.41v-7.57a1.41 1.41 0 0 1 1.41-1.41h68.81a1.41 1.41 0 0 1 1.41 1.41v7.57a1.41 1.41 0 0 1 -1.41 1.41zm-67.41-2.81h66v-4.77h-66z"></path>
    <path d="m300 249.24h-99.79a1.41 1.41 0 0 1 -.6-2.68 59.4 59.4 0 0 0 12-7.39 1.36 1.36 0 0 1 .88-.32h87.51a1.41 1.41 0 0 1 1.4 1.41v7.57a1.41 1.41 0 0 1 -1.4 1.41zm-94.07-2.81h92.66v-4.77h-85.59a57.76 57.76 0 0 1 -7.07 4.77z"></path>
    <path d="m386.4 249.24h-86.4a1.41 1.41 0 0 1 -1.41-1.41v-7.57a1.41 1.41 0 0 1 1.41-1.41h86.4a1.41 1.41 0 0 1 1.4 1.41v7.57a1.41 1.41 0 0 1 -1.4 1.41zm-85-2.81h83.6v-4.77h-83.6z"></path>
    <path d="m223.27 256.85h-153.49a1.4 1.4 0 0 1 -1.4-1.4v-7.62a1.4 1.4 0 0 1 1.4-1.4h74.41a1.39 1.39 0 0 1 .63.15 61.77 61.77 0 0 0 49.63 2.15c1.81-.7 3.55-1.44 5.18-2.18a1.43 1.43 0 0 1 .58-.12h23.06a1.41 1.41 0 0 1 1.41 1.4v7.62a1.41 1.41 0 0 1 -1.41 1.4zm-36.57-2.85h35.17v-4.8h-21.36c-1.59.72-3.28 1.43-5 2.12a67.55 67.55 0 0 1 -8.81 2.68zm-115.51 0h86.07a62.33 62.33 0 0 1 -13.4-4.8h-72.67z"></path>
    <path d="m376.72 256.85h-30.33a1.41 1.41 0 0 1 -1.41-1.4v-6.17h-80.55v6.17a1.41 1.41 0 0 1 -1.41 1.4h-39.75a1.4 1.4 0 0 1 -1.4-1.4v-7.62a1.4 1.4 0 0 1 1.4-1.4h153.45a1.41 1.41 0 0 1 1.41 1.4v7.62a1.41 1.41 0 0 1 -1.41 1.4zm-28.93-2.85h27.53v-4.8h-27.53zm-123.11 0h36.94v-4.8h-36.94z"></path>
    <path d="m386.4 256.85h-9.68a1.4 1.4 0 0 1 -1.4-1.4v-7.62a1.4 1.4 0 0 1 1.4-1.4h9.68a1.4 1.4 0 0 1 1.4 1.4v7.62a1.4 1.4 0 0 1 -1.4 1.4zm-8.27-2.85h6.87v-4.8h-6.86z"></path>
    <path d="m530.21 256.85h-68.81a1.41 1.41 0 0 1 -1.41-1.4v-7.62a1.41 1.41 0 0 1 1.41-1.4h68.81a1.41 1.41 0 0 1 1.41 1.4v7.62a1.41 1.41 0 0 1 -1.41 1.4zm-67.41-2.85h66v-4.8h-66z"></path>
    <path d="m146.53 264.42h-76.74a1.41 1.41 0 0 1 -1.4-1.41v-7.58a1.41 1.41 0 0 1 1.4-1.41h76.74a1.41 1.41 0 0 1 1.41 1.41v7.57a1.41 1.41 0 0 1 -1.41 1.42zm-75.33-2.82h73.92v-4.76h-73.92z"></path>
    <path d="m530.21 264.43h-68.81a1.41 1.41 0 0 1 -1.4-1.43v-7.57a1.41 1.41 0 0 1 1.4-1.43h68.81a1.41 1.41 0 0 1 1.41 1.41v7.59a1.41 1.41 0 0 1 -1.41 1.43zm-67.41-2.82h66v-4.76h-66z"></path>
    <path d="m263 264.43h-116.45a1.41 1.41 0 0 1 -1.41-1.41v-7.57a1.41 1.41 0 0 1 1.41-1.41h116.45a1.41 1.41 0 0 1 1.41 1.41v7.55a1.41 1.41 0 0 1 -1.41 1.43zm-115-2.82h113.62v-4.76h-113.62z"></path>
    <path d="m386.4 264.43h-40a1.41 1.41 0 0 1 -1.4-1.43v-7.57a1.41 1.41 0 0 1 1.41-1.41h40a1.41 1.41 0 0 1 1.4 1.41v7.57a1.41 1.41 0 0 1 -1.41 1.43zm-38.61-2.82h37.21v-4.76h-37.2z"></path>
    <path d="m111 272h-41.22a1.4 1.4 0 0 1 -1.4-1.4v-7.6a1.41 1.41 0 0 1 1.4-1.41h41.22a1.42 1.42 0 0 1 1.4 1.41v7.59a1.4 1.4 0 0 1 -1.4 1.41zm-39.81-2.81h38.4v-4.77h-38.4z"></path>
    <path d="m263 272h-29.75a1.41 1.41 0 0 1 -1.41-1.4v-7.6a1.41 1.41 0 0 1 1.41-1.41h29.75a1.41 1.41 0 0 1 1.41 1.41v7.58a1.41 1.41 0 0 1 -1.41 1.42zm-28.36-2.81h27v-4.76h-27z"></path>
    <path d="m376.72 272h-30.33a1.41 1.41 0 0 1 -1.41-1.4v-7.6a1.41 1.41 0 0 1 1.41-1.41h30.33a1.41 1.41 0 0 1 1.41 1.41v7.58a1.41 1.41 0 0 1 -1.41 1.42zm-28.93-2.81h27.53v-4.76h-27.53z"></path>
    <path d="m386.4 272h-9.68a1.4 1.4 0 0 1 -1.4-1.4v-7.6a1.41 1.41 0 0 1 1.4-1.41h9.68a1.41 1.41 0 0 1 1.4 1.41v7.58a1.4 1.4 0 0 1 -1.4 1.42zm-8.27-2.81h6.87v-4.76h-6.86z"></path>
    <path d="m530.21 272h-68.81a1.41 1.41 0 0 1 -1.41-1.4v-7.6a1.41 1.41 0 0 1 1.41-1.41h68.81a1.41 1.41 0 0 1 1.41 1.41v7.58a1.41 1.41 0 0 1 -1.41 1.42zm-67.41-2.81h66v-4.76h-66z"></path>
    <path d="m111 279.58h-41.22a1.41 1.41 0 0 1 -1.4-1.41v-7.57a1.41 1.41 0 0 1 1.4-1.41h41.22a1.41 1.41 0 0 1 1.4 1.41v7.57a1.41 1.41 0 0 1 -1.4 1.41zm-39.81-2.82h38.4v-4.76h-38.4z"></path>
    <path d="m530.21 279.58h-68.81a1.41 1.41 0 0 1 -1.41-1.41v-7.57a1.41 1.41 0 0 1 1.41-1.41h68.81a1.41 1.41 0 0 1 1.41 1.41v7.57a1.41 1.41 0 0 1 -1.41 1.41zm-67.41-2.82h66v-4.76h-66z"></path>
    <path d="m263 279.58h-29.75a1.41 1.41 0 0 1 -1.41-1.41v-7.57a1.41 1.41 0 0 1 1.41-1.41h29.75a1.41 1.41 0 0 1 1.41 1.41v7.57a1.41 1.41 0 0 1 -1.41 1.41zm-28.36-2.82h27v-4.76h-27z"></path>
    <path d="m386.4 279.58h-40a1.41 1.41 0 0 1 -1.41-1.41v-7.57a1.41 1.41 0 0 1 1.41-1.41h40a1.41 1.41 0 0 1 1.4 1.41v7.57a1.41 1.41 0 0 1 -1.4 1.41zm-38.61-2.82h37.21v-4.76h-37.2z"></path>
    <path d="m111 287.15h-41.22a1.4 1.4 0 0 1 -1.4-1.4v-7.58a1.41 1.41 0 0 1 1.4-1.41h41.22a1.41 1.41 0 0 1 1.4 1.41v7.58a1.4 1.4 0 0 1 -1.4 1.4zm-39.81-2.81h38.4v-4.76h-38.4z"></path>
    <path d="m263 287.15h-29.75a1.41 1.41 0 0 1 -1.41-1.4v-7.58a1.41 1.41 0 0 1 1.41-1.41h29.75a1.41 1.41 0 0 1 1.41 1.41v7.58a1.41 1.41 0 0 1 -1.41 1.4zm-28.36-2.81h27v-4.76h-27z"></path>
    <path d="m376.72 287.15h-30.33a1.41 1.41 0 0 1 -1.41-1.4v-7.58a1.41 1.41 0 0 1 1.41-1.41h30.33a1.41 1.41 0 0 1 1.41 1.41v7.58a1.41 1.41 0 0 1 -1.41 1.4zm-28.93-2.81h27.53v-4.76h-27.53z"></path>
    <path d="m386.4 287.15h-9.68a1.4 1.4 0 0 1 -1.4-1.4v-7.58a1.41 1.41 0 0 1 1.4-1.41h9.68a1.41 1.41 0 0 1 1.4 1.41v7.58a1.4 1.4 0 0 1 -1.4 1.4zm-8.27-2.81h6.87v-4.76h-6.86z"></path>
    <path d="m530.21 287.15h-68.81a1.41 1.41 0 0 1 -1.41-1.4v-7.58a1.41 1.41 0 0 1 1.41-1.41h68.81a1.41 1.41 0 0 1 1.41 1.41v7.58a1.41 1.41 0 0 1 -1.41 1.4zm-67.41-2.81h66v-4.76h-66z"></path>
    <path d="m111 294.73h-41.22a1.41 1.41 0 0 1 -1.4-1.41v-7.57a1.41 1.41 0 0 1 1.4-1.41h41.22a1.41 1.41 0 0 1 1.4 1.41v7.57a1.41 1.41 0 0 1 -1.4 1.41zm-39.81-2.82h38.4v-4.76h-38.4z"></path>
    <path d="m530.21 294.73h-76.73a1.41 1.41 0 0 1 -1.4-1.41v-.79a1.4 1.4 0 0 1 1.4-1.4h6.52v-5.38a1.41 1.41 0 0 1 1.41-1.41h68.81a1.41 1.41 0 0 1 1.41 1.41v7.57a1.41 1.41 0 0 1 -1.42 1.41zm-67.41-2.82h66v-4.76h-66z"></path>
    <path d="m263 294.73h-29.75a1.41 1.41 0 0 1 -1.41-1.41v-7.57a1.41 1.41 0 0 1 1.41-1.41h29.75a1.41 1.41 0 0 1 1.41 1.41v7.57a1.41 1.41 0 0 1 -1.41 1.41zm-28.36-2.82h27v-4.76h-27z"></path>
    <path d="m453.48 294.73h-107.09a1.41 1.41 0 0 1 -1.41-1.41v-7.57a1.41 1.41 0 0 1 1.41-1.41h40a1.41 1.41 0 0 1 1.4 1.41v5.38h65.68a1.41 1.41 0 0 1 1.41 1.4v.79a1.41 1.41 0 0 1 -1.4 1.41zm-105.69-2.82h37.21v-4.76h-37.2z"></path>
    <path d="m111 302.34h-41.22a1.41 1.41 0 0 1 -1.4-1.41v-7.61a1.41 1.41 0 0 1 1.4-1.41h41.22a1.41 1.41 0 0 1 1.4 1.41v7.61a1.41 1.41 0 0 1 -1.4 1.41zm-39.81-2.81h38.4v-4.8h-38.4z"></path>
    <path d="m263 302.34h-29.75a1.41 1.41 0 0 1 -1.41-1.41v-7.61a1.41 1.41 0 0 1 1.41-1.41h29.75a1.41 1.41 0 0 1 1.41 1.41v7.61a1.41 1.41 0 0 1 -1.41 1.41zm-28.36-2.81h27v-4.8h-27z"></path>
    <path d="m376.72 302.34h-30.33a1.41 1.41 0 0 1 -1.41-1.41v-7.61a1.41 1.41 0 0 1 1.41-1.41h30.33a1.41 1.41 0 0 1 1.41 1.41v7.61a1.41 1.41 0 0 1 -1.41 1.41zm-28.93-2.81h27.53v-4.8h-27.53z"></path>
    <path d="m530.21 302.32h-153.47a1.41 1.41 0 0 1 -1.41-1.4v-7.58a1.41 1.41 0 0 1 1.41-1.41h153.47a1.41 1.41 0 0 1 1.41 1.41v7.58a1.41 1.41 0 0 1 -1.41 1.4zm-152.07-2.81h150.67v-4.77h-150.67z"></path>
    <path d="m111 309.91h-41.22a1.4 1.4 0 0 1 -1.4-1.4v-7.58a1.4 1.4 0 0 1 1.4-1.4h41.22a1.4 1.4 0 0 1 1.4 1.4v7.58a1.4 1.4 0 0 1 -1.4 1.4zm-39.81-2.81h38.4v-4.76h-38.4z"></path>
    <path d="m530.21 309.91h-19.16a1.41 1.41 0 0 1 -1.41-1.4v-1.6h-56.16a1.4 1.4 0 0 1 -1.4-1.4v-4.58a1.4 1.4 0 0 1 1.4-1.4h76.73a1.41 1.41 0 0 1 1.41 1.4v7.58a1.41 1.41 0 0 1 -1.41 1.4zm-17.76-2.81h16.35v-4.76h-73.91v1.76h56.16a1.41 1.41 0 0 1 1.4 1.41z"></path>
    <path d="m263 309.91h-29.75a1.41 1.41 0 0 1 -1.41-1.4v-7.58a1.41 1.41 0 0 1 1.41-1.4h29.75a1.41 1.41 0 0 1 1.41 1.4v7.58a1.41 1.41 0 0 1 -1.41 1.4zm-28.36-2.81h27v-4.76h-27z"></path>
    <path d="m409.5 309.91h-63.11a1.41 1.41 0 0 1 -1.41-1.4v-7.58a1.41 1.41 0 0 1 1.41-1.4h107.09a1.41 1.41 0 0 1 1.41 1.4v4.58a1.41 1.41 0 0 1 -1.41 1.4h-42.62l.05 1.56a1.4 1.4 0 0 1 -1.41 1.44zm-61.71-2.81h60.27v-1.56a1.37 1.37 0 0 1 .39-1 1.43 1.43 0 0 1 1-.43h42.66v-1.76h-104.32z"></path>
    <path d="m111 317.49h-41.22a1.41 1.41 0 0 1 -1.4-1.41v-7.57a1.41 1.41 0 0 1 1.4-1.41h41.22a1.41 1.41 0 0 1 1.4 1.41v7.57a1.41 1.41 0 0 1 -1.4 1.41zm-39.81-2.81h38.4v-4.77h-38.4z"></path>
    <path d="m263 317.49h-29.75a1.41 1.41 0 0 1 -1.41-1.41v-7.57a1.41 1.41 0 0 1 1.41-1.41h29.75a1.41 1.41 0 0 1 1.41 1.41v7.57a1.41 1.41 0 0 1 -1.41 1.41zm-28.36-2.81h27v-4.77h-27z"></path>
    <path d="m376.72 317.49h-30.33a1.41 1.41 0 0 1 -1.41-1.41v-7.57a1.41 1.41 0 0 1 1.41-1.41h30.33a1.41 1.41 0 0 1 1.41 1.41v7.57a1.41 1.41 0 0 1 -1.41 1.41zm-28.93-2.81h27.53v-4.77h-27.53z"></path>
    <path d="m409.5 317.49h-32.78a1.41 1.41 0 0 1 -1.4-1.41v-7.57a1.41 1.41 0 0 1 1.4-1.41h32.78a1.41 1.41 0 0 1 1.41 1.41v7.57a1.41 1.41 0 0 1 -1.41 1.41zm-31.37-2.81h30v-4.77h-30z"></path>
    <path d="m530.21 317.49h-19.16a1.41 1.41 0 0 1 -1.41-1.41v-7.57a1.41 1.41 0 0 1 1.41-1.41h19.16a1.41 1.41 0 0 1 1.41 1.41v7.57a1.41 1.41 0 0 1 -1.41 1.41zm-17.76-2.81h16.35v-4.77h-16.35z"></path>
    <path d="m111 325.06h-41.22a1.4 1.4 0 0 1 -1.4-1.4v-7.58a1.4 1.4 0 0 1 1.4-1.4h41.22a1.4 1.4 0 0 1 1.4 1.4v7.58a1.4 1.4 0 0 1 -1.4 1.4zm-39.81-2.81h38.4v-4.76h-38.4z"></path>
    <path d="m530.21 325.06h-19.16a1.41 1.41 0 0 1 -1.41-1.4v-7.58a1.41 1.41 0 0 1 1.41-1.4h19.16a1.41 1.41 0 0 1 1.41 1.4v7.58a1.41 1.41 0 0 1 -1.41 1.4zm-17.76-2.81h16.35v-4.76h-16.35z"></path>
    <path d="m263 325.06h-29.75a1.41 1.41 0 0 1 -1.41-1.4v-7.58a1.41 1.41 0 0 1 1.41-1.4h29.75a1.41 1.41 0 0 1 1.41 1.4v7.58a1.41 1.41 0 0 1 -1.41 1.4zm-28.36-2.81h27v-4.76h-27z"></path>
    <path d="m409.5 325.06h-63.11a1.41 1.41 0 0 1 -1.41-1.4v-7.58a1.41 1.41 0 0 1 1.41-1.4h63.11a1.41 1.41 0 0 1 1.41 1.4v7.58a1.41 1.41 0 0 1 -1.41 1.4zm-61.71-2.81h60.3v-4.76h-60.3z"></path>
    <path d="m111 332.64h-41.22a1.41 1.41 0 0 1 -1.4-1.41v-7.57a1.41 1.41 0 0 1 1.4-1.41h41.22a1.41 1.41 0 0 1 1.4 1.41v7.57a1.41 1.41 0 0 1 -1.4 1.41zm-39.81-2.81h38.4v-4.77h-38.4z"></path>
    <path d="m263 332.64h-29.75a1.41 1.41 0 0 1 -1.41-1.41v-7.57a1.41 1.41 0 0 1 1.41-1.41h29.75a1.41 1.41 0 0 1 1.41 1.41v7.57a1.41 1.41 0 0 1 -1.41 1.41zm-28.36-2.81h27v-4.77h-27z"></path>
    <path d="m376.72 332.64h-30.33a1.41 1.41 0 0 1 -1.41-1.41v-7.57a1.41 1.41 0 0 1 1.41-1.41h30.33a1.41 1.41 0 0 1 1.41 1.41v7.57a1.41 1.41 0 0 1 -1.41 1.41zm-28.93-2.81h27.53v-4.77h-27.53z"></path>
    <path d="m409.5 332.64h-32.78a1.41 1.41 0 0 1 -1.4-1.41v-7.57a1.41 1.41 0 0 1 1.4-1.41h32.78a1.41 1.41 0 0 1 1.41 1.41v7.57a1.41 1.41 0 0 1 -1.41 1.41zm-31.37-2.81h30v-4.77h-30z"></path>
    <path d="m530.21 332.64h-19.16a1.41 1.41 0 0 1 -1.41-1.41v-7.57a1.41 1.41 0 0 1 1.41-1.41h19.16a1.41 1.41 0 0 1 1.41 1.41v7.57a1.41 1.41 0 0 1 -1.41 1.41zm-17.76-2.81h16.35v-4.77h-16.35z"></path>
    <path d="m111 340.21h-41.22a1.4 1.4 0 0 1 -1.4-1.4v-7.58a1.4 1.4 0 0 1 1.4-1.4h41.22a1.4 1.4 0 0 1 1.4 1.4v7.58a1.4 1.4 0 0 1 -1.4 1.4zm-39.81-2.81h38.4v-4.76h-38.4z"></path>
    <path d="m530.21 340.21h-19.16a1.41 1.41 0 0 1 -1.41-1.4v-7.58a1.41 1.41 0 0 1 1.41-1.4h19.16a1.41 1.41 0 0 1 1.41 1.4v7.58a1.41 1.41 0 0 1 -1.41 1.4zm-17.76-2.81h16.35v-4.76h-16.35z"></path>
    <path d="m300 340.21h-66.75a1.41 1.41 0 0 1 -1.41-1.4v-7.58a1.41 1.41 0 0 1 1.41-1.4h66.75a1.4 1.4 0 0 1 1.4 1.4v7.58a1.4 1.4 0 0 1 -1.4 1.4zm-65.34-2.81h63.93v-4.76h-63.93z"></path>
    <path d="m409.5 340.21h-109.5a1.41 1.41 0 0 1 -1.41-1.4v-7.58a1.41 1.41 0 0 1 1.41-1.4h109.5a1.41 1.41 0 0 1 1.41 1.4v7.58a1.41 1.41 0 0 1 -1.41 1.4zm-108.1-2.81h106.69v-4.76h-106.69z"></path>
    <path d="m111 347.83h-41.22a1.41 1.41 0 0 1 -1.4-1.41v-7.61a1.41 1.41 0 0 1 1.4-1.41h41.22a1.41 1.41 0 0 1 1.4 1.41v7.61a1.41 1.41 0 0 1 -1.4 1.41zm-39.81-2.83h38.4v-4.81h-38.4z"></path>
    <path d="m376.72 347.83h-143.47a1.41 1.41 0 0 1 -1.41-1.41v-7.61a1.41 1.41 0 0 1 1.41-1.41h143.47a1.41 1.41 0 0 1 1.41 1.41v7.61a1.41 1.41 0 0 1 -1.41 1.41zm-142.06-2.83h140.66v-4.81h-140.66z"></path>
    <path d="m409.5 347.83h-32.78a1.41 1.41 0 0 1 -1.4-1.41v-7.61a1.41 1.41 0 0 1 1.4-1.41h32.78a1.41 1.41 0 0 1 1.41 1.41v7.61a1.41 1.41 0 0 1 -1.41 1.41zm-31.37-2.83h30v-4.81h-30z"></path>
    <path d="m530.21 347.83h-19.16a1.41 1.41 0 0 1 -1.41-1.41v-7.61a1.41 1.41 0 0 1 1.41-1.41h19.16a1.41 1.41 0 0 1 1.41 1.41v7.61a1.41 1.41 0 0 1 -1.41 1.41zm-17.76-2.83h16.35v-4.81h-16.35z"></path>
    <path d="m111 355.4h-41.22a1.41 1.41 0 0 1 -1.4-1.41v-7.57a1.4 1.4 0 0 1 1.4-1.4h41.22a1.4 1.4 0 0 1 1.4 1.4v7.58a1.41 1.41 0 0 1 -1.4 1.4zm-39.81-2.81h38.4v-4.76h-38.4z"></path>
    <path d="m530.21 355.4h-19.16a1.41 1.41 0 0 1 -1.41-1.41v-7.57a1.41 1.41 0 0 1 1.41-1.4h19.16a1.41 1.41 0 0 1 1.41 1.4v7.58a1.41 1.41 0 0 1 -1.41 1.4zm-17.76-2.81h16.35v-4.76h-16.35z"></path>
    <path d="m263 355.4h-29.75a1.41 1.41 0 0 1 -1.41-1.41v-7.57a1.41 1.41 0 0 1 1.41-1.4h29.75a1.41 1.41 0 0 1 1.41 1.4v7.58a1.41 1.41 0 0 1 -1.41 1.4zm-28.36-2.81h27v-4.76h-27z"></path>
    <path d="m409.5 355.4h-32.74a1.41 1.41 0 0 1 -1.41-1.41v-7.57a1.41 1.41 0 0 1 1.41-1.4h32.74a1.41 1.41 0 0 1 1.41 1.4v7.58a1.41 1.41 0 0 1 -1.41 1.4zm-31.33-2.81h29.92v-4.76h-29.92z"></path>
    <path d="m111 363h-41.22a1.41 1.41 0 0 1 -1.4-1.41v-7.59a1.4 1.4 0 0 1 1.4-1.4h41.22a1.4 1.4 0 0 1 1.4 1.4v7.58a1.41 1.41 0 0 1 -1.4 1.42zm-39.81-2.82h38.4v-4.78h-38.4z"></path>
    <path d="m263 363h-29.75a1.41 1.41 0 0 1 -1.41-1.41v-7.59a1.41 1.41 0 0 1 1.41-1.4h29.75a1.41 1.41 0 0 1 1.41 1.4v7.58a1.41 1.41 0 0 1 -1.41 1.42zm-28.36-2.82h27v-4.78h-27z"></path>
    <path d="m409.5 363h-32.78a1.41 1.41 0 0 1 -1.4-1.41v-7.59a1.4 1.4 0 0 1 1.4-1.4h32.78a1.41 1.41 0 0 1 1.41 1.4v7.58a1.41 1.41 0 0 1 -1.41 1.42zm-31.37-2.82h30v-4.78h-30z"></path>
    <path d="m530.21 363h-19.16a1.41 1.41 0 0 1 -1.41-1.41v-7.59a1.41 1.41 0 0 1 1.41-1.4h19.16a1.41 1.41 0 0 1 1.41 1.4v7.58a1.41 1.41 0 0 1 -1.41 1.42zm-17.76-2.82h16.35v-4.78h-16.35z"></path>
    <path d="m111 370.55h-41.22a1.41 1.41 0 0 1 -1.4-1.41v-7.57a1.41 1.41 0 0 1 1.4-1.41h41.22a1.41 1.41 0 0 1 1.4 1.41v7.57a1.41 1.41 0 0 1 -1.4 1.41zm-39.81-2.81h38.4v-4.74h-38.4z"></path>
    <path d="m530.21 370.55h-19.16a1.41 1.41 0 0 1 -1.41-1.41v-7.57a1.41 1.41 0 0 1 1.41-1.41h19.16a1.41 1.41 0 0 1 1.41 1.41v7.57a1.41 1.41 0 0 1 -1.41 1.41zm-17.76-2.81h16.35v-4.74h-16.35z"></path>
    <path d="m263 370.55h-29.75a1.41 1.41 0 0 1 -1.41-1.41v-7.57a1.41 1.41 0 0 1 1.41-1.41h29.75a1.41 1.41 0 0 1 1.41 1.41v7.57a1.41 1.41 0 0 1 -1.41 1.41zm-28.36-2.81h27v-4.74h-27z"></path>
    <path d="m409.5 370.55h-32.74a1.41 1.41 0 0 1 -1.41-1.41v-7.57a1.41 1.41 0 0 1 1.41-1.41h32.74a1.41 1.41 0 0 1 1.41 1.41v7.57a1.41 1.41 0 0 1 -1.41 1.41zm-31.33-2.81h29.92v-4.74h-29.92z"></path>
    <path d="m111 378.13h-41.22a1.41 1.41 0 0 1 -1.4-1.41v-7.58a1.4 1.4 0 0 1 1.4-1.4h41.22a1.4 1.4 0 0 1 1.4 1.4v7.58a1.41 1.41 0 0 1 -1.4 1.41zm-39.81-2.82h38.4v-4.76h-38.4z"></path>
    <path d="m263 378.13h-29.75a1.41 1.41 0 0 1 -1.41-1.41v-7.58a1.41 1.41 0 0 1 1.41-1.4h29.75a1.41 1.41 0 0 1 1.41 1.4v7.58a1.41 1.41 0 0 1 -1.41 1.41zm-28.36-2.82h27v-4.76h-27z"></path>
    <path d="m409.5 378.13h-32.78a1.41 1.41 0 0 1 -1.4-1.41v-7.58a1.4 1.4 0 0 1 1.4-1.4h32.78a1.41 1.41 0 0 1 1.41 1.4v7.58a1.41 1.41 0 0 1 -1.41 1.41zm-31.37-2.82h30v-4.76h-30z"></path>
    <path d="m530.21 378.13h-19.16a1.41 1.41 0 0 1 -1.41-1.41v-7.58a1.41 1.41 0 0 1 1.41-1.4h19.16a1.41 1.41 0 0 1 1.41 1.4v7.58a1.41 1.41 0 0 1 -1.41 1.41zm-17.76-2.82h16.35v-4.76h-16.35z"></path>
    <path d="m111 385.7h-41.22a1.41 1.41 0 0 1 -1.4-1.41v-7.57a1.41 1.41 0 0 1 1.4-1.41h41.22a1.41 1.41 0 0 1 1.4 1.41v7.57a1.41 1.41 0 0 1 -1.4 1.41zm-39.81-2.81h38.4v-4.76h-38.4z"></path>
    <path d="m530.21 385.7h-19.16a1.41 1.41 0 0 1 -1.41-1.41v-7.57a1.41 1.41 0 0 1 1.41-1.41h19.16a1.41 1.41 0 0 1 1.41 1.41v7.57a1.41 1.41 0 0 1 -1.41 1.41zm-17.76-2.81h16.35v-4.76h-16.35z"></path>
    <path d="m263 385.7h-29.75a1.41 1.41 0 0 1 -1.41-1.41v-7.57a1.41 1.41 0 0 1 1.41-1.41h29.75a1.41 1.41 0 0 1 1.41 1.41v7.57a1.41 1.41 0 0 1 -1.41 1.41zm-28.36-2.81h27v-4.76h-27z"></path>
    <path d="m409.5 385.7h-32.74a1.41 1.41 0 0 1 -1.41-1.41v-7.57a1.41 1.41 0 0 1 1.41-1.41h32.74a1.41 1.41 0 0 1 1.41 1.41v7.57a1.41 1.41 0 0 1 -1.41 1.41zm-31.33-2.81h29.92v-4.76h-29.92z"></path>
    <path d="m111 393.31h-41.22a1.4 1.4 0 0 1 -1.4-1.4v-7.62a1.4 1.4 0 0 1 1.4-1.4h41.22a1.4 1.4 0 0 1 1.4 1.4v7.62a1.4 1.4 0 0 1 -1.4 1.4zm-39.81-2.81h38.4v-4.8h-38.4z"></path>
    <path d="m263 393.31h-29.75a1.41 1.41 0 0 1 -1.41-1.4v-7.62a1.41 1.41 0 0 1 1.41-1.4h29.75a1.41 1.41 0 0 1 1.41 1.4v7.62a1.41 1.41 0 0 1 -1.41 1.4zm-28.36-2.81h27v-4.8h-27z"></path>
    <path d="m409.5 393.31h-32.78a1.4 1.4 0 0 1 -1.4-1.4v-7.62a1.4 1.4 0 0 1 1.4-1.4h32.78a1.41 1.41 0 0 1 1.41 1.4v7.62a1.41 1.41 0 0 1 -1.41 1.4zm-31.37-2.81h30v-4.8h-30z"></path>
    <path d="m530.21 393.31h-19.16a1.41 1.41 0 0 1 -1.41-1.4v-7.62a1.41 1.41 0 0 1 1.41-1.4h19.16a1.41 1.41 0 0 1 1.41 1.4v7.62a1.41 1.41 0 0 1 -1.41 1.4zm-17.76-2.81h16.35v-4.8h-16.35z"></path>
    <path d="m111 400.89h-41.22a1.41 1.41 0 0 1 -1.4-1.41v-7.57a1.41 1.41 0 0 1 1.4-1.41h41.22a1.41 1.41 0 0 1 1.4 1.41v7.57a1.41 1.41 0 0 1 -1.4 1.41zm-39.81-2.81h38.4v-4.77h-38.4z"></path>
    <path d="m530.21 400.89h-19.16a1.41 1.41 0 0 1 -1.41-1.41v-7.57a1.41 1.41 0 0 1 1.41-1.41h19.16a1.41 1.41 0 0 1 1.41 1.41v7.57a1.41 1.41 0 0 1 -1.41 1.41zm-17.76-2.81h16.35v-4.77h-16.35z"></path>
    <path d="m263 400.89h-29.75a1.41 1.41 0 0 1 -1.41-1.41v-7.57a1.41 1.41 0 0 1 1.41-1.41h29.75a1.41 1.41 0 0 1 1.41 1.41v7.57a1.41 1.41 0 0 1 -1.41 1.41zm-28.36-2.81h27v-4.77h-27z"></path>
    <path d="m409.5 400.89h-32.74a1.41 1.41 0 0 1 -1.41-1.41v-7.57a1.41 1.41 0 0 1 1.41-1.41h32.74a1.41 1.41 0 0 1 1.41 1.41v7.57a1.41 1.41 0 0 1 -1.41 1.41zm-31.33-2.81h29.92v-4.77h-29.92z"></path>
    <path d="m111 408.46h-41.22a1.4 1.4 0 0 1 -1.4-1.4v-7.58a1.4 1.4 0 0 1 1.4-1.4h41.22a1.4 1.4 0 0 1 1.4 1.4v7.58a1.4 1.4 0 0 1 -1.4 1.4zm-39.81-2.81h38.4v-4.76h-38.4z"></path>
    <path d="m263 408.46h-29.75a1.41 1.41 0 0 1 -1.41-1.4v-7.58a1.41 1.41 0 0 1 1.41-1.4h29.75a1.41 1.41 0 0 1 1.41 1.4v7.58a1.41 1.41 0 0 1 -1.41 1.4zm-28.36-2.81h27v-4.76h-27z"></path>
    <path d="m409.5 408.46h-32.78a1.4 1.4 0 0 1 -1.4-1.4v-7.58a1.4 1.4 0 0 1 1.4-1.4h32.78a1.41 1.41 0 0 1 1.41 1.4v7.58a1.41 1.41 0 0 1 -1.41 1.4zm-31.37-2.81h30v-4.76h-30z"></path>
    <path d="m530.21 408.46h-19.16a1.41 1.41 0 0 1 -1.41-1.4v-7.58a1.41 1.41 0 0 1 1.41-1.4h19.16a1.41 1.41 0 0 1 1.41 1.4v7.58a1.41 1.41 0 0 1 -1.41 1.4zm-17.76-2.81h16.35v-4.76h-16.35z"></path>
    <path d="m111 416h-41.22a1.41 1.41 0 0 1 -1.4-1.41v-7.57a1.41 1.41 0 0 1 1.4-1.41h41.22a1.41 1.41 0 0 1 1.4 1.41v7.57a1.41 1.41 0 0 1 -1.4 1.41zm-39.81-2.81h38.4v-4.77h-38.4z"></path>
    <path d="m530.22 416.05h-76.74a1.41 1.41 0 0 1 -1.41-1.41v-7.58a1.41 1.41 0 0 1 1.41-1.41h76.74a1.41 1.41 0 0 1 1.4 1.41v7.58a1.41 1.41 0 0 1 -1.4 1.41zm-75.33-2.82h73.92v-4.77h-73.92z"></path>
    <path d="m263 416h-29.75a1.41 1.41 0 0 1 -1.41-1.41v-7.57a1.41 1.41 0 0 1 1.41-1.41h29.75a1.41 1.41 0 0 1 1.41 1.41v7.57a1.41 1.41 0 0 1 -1.41 1.41zm-28.36-2.81h27v-4.77h-27z"></path>
    <path d="m453.48 416h-76.72a1.41 1.41 0 0 1 -1.41-1.41v-7.57a1.41 1.41 0 0 1 1.41-1.41h76.72a1.41 1.41 0 0 1 1.41 1.41v7.57a1.41 1.41 0 0 1 -1.41 1.41zm-75.31-2.81h73.91v-4.77h-73.91z"></path>
    <path d="m111 423.62h-41.22a1.41 1.41 0 0 1 -1.4-1.41v-7.58a1.4 1.4 0 0 1 1.4-1.4h41.22a1.4 1.4 0 0 1 1.4 1.4v7.58a1.41 1.41 0 0 1 -1.4 1.41zm-39.81-2.82h38.4v-4.8h-38.4z"></path>
    <path d="m263 423.62h-29.75a1.41 1.41 0 0 1 -1.41-1.41v-7.58a1.41 1.41 0 0 1 1.41-1.4h29.75a1.41 1.41 0 0 1 1.41 1.4v7.58a1.41 1.41 0 0 1 -1.41 1.41zm-28.36-2.82h27v-4.8h-27z"></path>
    <path d="m530.21 423.62h-153.49a1.41 1.41 0 0 1 -1.4-1.41v-7.58a1.4 1.4 0 0 1 1.4-1.4h153.49a1.41 1.41 0 0 1 1.41 1.4v7.58a1.41 1.41 0 0 1 -1.41 1.41zm-152.08-2.82h150.67v-4.8h-150.67z"></path>
    <path d="m111 431.23h-41.22a1.41 1.41 0 0 1 -1.4-1.41v-7.61a1.41 1.41 0 0 1 1.4-1.41h41.22a1.41 1.41 0 0 1 1.4 1.41v7.61a1.41 1.41 0 0 1 -1.4 1.41zm-39.81-2.82h38.4v-4.79h-38.4z"></path>
    <path d="m530.22 431.21h-76.74a1.41 1.41 0 0 1 -1.41-1.41v-7.58a1.41 1.41 0 0 1 1.41-1.4h76.74a1.4 1.4 0 0 1 1.4 1.4v7.58a1.41 1.41 0 0 1 -1.4 1.41zm-75.33-2.81h73.92v-4.77h-73.92z"></path>
    <path d="m263 431.23h-29.75a1.41 1.41 0 0 1 -1.41-1.41v-7.61a1.41 1.41 0 0 1 1.41-1.41h29.75a1.41 1.41 0 0 1 1.41 1.41v7.61a1.41 1.41 0 0 1 -1.41 1.41zm-28.36-2.82h27v-4.79h-27z"></path>
    <path d="m453.48 431.23h-76.72a1.41 1.41 0 0 1 -1.41-1.41v-7.61a1.41 1.41 0 0 1 1.41-1.41h76.72a1.41 1.41 0 0 1 1.41 1.41v7.61a1.41 1.41 0 0 1 -1.41 1.41zm-75.31-2.82h73.91v-4.79h-73.91z"></path>
    <path d="m111 438.8h-41.22a1.4 1.4 0 0 1 -1.4-1.4v-7.58a1.41 1.41 0 0 1 1.4-1.41h41.22a1.41 1.41 0 0 1 1.4 1.41v7.58a1.4 1.4 0 0 1 -1.4 1.4zm-39.81-2.8h38.4v-4.76h-38.4z"></path>
    <path d="m263 438.8h-29.75a1.41 1.41 0 0 1 -1.41-1.4v-7.58a1.41 1.41 0 0 1 1.41-1.41h29.75a1.41 1.41 0 0 1 1.41 1.41v7.58a1.41 1.41 0 0 1 -1.41 1.4zm-28.34-2.8h27v-4.76h-27z"></path>
    <path d="m530.21 438.8h-153.49a1.4 1.4 0 0 1 -1.4-1.4v-7.58a1.41 1.41 0 0 1 1.4-1.41h153.49a1.41 1.41 0 0 1 1.41 1.41v7.58a1.41 1.41 0 0 1 -1.41 1.4zm-152.08-2.8h150.67v-4.76h-150.67z"></path>
    <path d="m111 446.38h-41.22a1.41 1.41 0 0 1 -1.4-1.41v-7.57a1.41 1.41 0 0 1 1.4-1.41h41.22a1.41 1.41 0 0 1 1.4 1.41v7.6a1.41 1.41 0 0 1 -1.4 1.38zm-39.81-2.82h38.4v-4.76h-38.4z"></path>
    <path d="m530.22 446.37h-76.74a1.41 1.41 0 0 1 -1.41-1.4v-7.59a1.41 1.41 0 0 1 1.41-1.4h76.74a1.4 1.4 0 0 1 1.4 1.4v7.62a1.4 1.4 0 0 1 -1.4 1.37zm-75.33-2.81h73.92v-4.77h-73.92z"></path>
    <path d="m263 446.38h-29.75a1.41 1.41 0 0 1 -1.41-1.41v-7.57a1.41 1.41 0 0 1 1.41-1.41h29.75a1.41 1.41 0 0 1 1.41 1.41v7.6a1.41 1.41 0 0 1 -1.41 1.38zm-28.36-2.82h27v-4.76h-27z"></path>
    <path d="m453.48 446.38h-76.72a1.41 1.41 0 0 1 -1.41-1.41v-7.57a1.41 1.41 0 0 1 1.41-1.41h76.72a1.41 1.41 0 0 1 1.41 1.41v7.6a1.41 1.41 0 0 1 -1.41 1.38zm-75.31-2.82h73.91v-4.76h-73.91z"></path>
    <path d="m111 454h-41.22a1.4 1.4 0 0 1 -1.4-1.4v-7.6a1.41 1.41 0 0 1 1.4-1.41h41.22a1.41 1.41 0 0 1 1.4 1.41v7.58a1.4 1.4 0 0 1 -1.4 1.42zm-39.81-2.81h38.4v-4.76h-38.4z"></path>
    <path d="m263 454h-29.75a1.41 1.41 0 0 1 -1.41-1.4v-7.6a1.41 1.41 0 0 1 1.41-1.41h29.75a1.41 1.41 0 0 1 1.41 1.41v7.58a1.41 1.41 0 0 1 -1.41 1.42zm-28.36-2.81h27v-4.76h-27z"></path>
    <path d="m530.21 454h-153.49a1.4 1.4 0 0 1 -1.4-1.4v-7.6a1.41 1.41 0 0 1 1.4-1.41h153.49a1.41 1.41 0 0 1 1.41 1.41v7.58a1.41 1.41 0 0 1 -1.41 1.42zm-152.08-2.81h150.67v-4.76h-150.67z"></path>
    <path d="m111 461.53h-41.22a1.41 1.41 0 0 1 -1.4-1.41v-7.57a1.41 1.41 0 0 1 1.4-1.41h41.22a1.41 1.41 0 0 1 1.4 1.41v7.57a1.41 1.41 0 0 1 -1.4 1.41zm-39.81-2.82h38.4v-4.71h-38.4z"></path>
    <path d="m530.22 461.53h-76.74a1.41 1.41 0 0 1 -1.41-1.4v-7.58a1.41 1.41 0 0 1 1.41-1.41h76.74a1.41 1.41 0 0 1 1.4 1.41v7.58a1.4 1.4 0 0 1 -1.4 1.4zm-75.33-2.81h73.92v-4.72h-73.92z"></path>
    <path d="m263 461.53h-29.75a1.41 1.41 0 0 1 -1.41-1.41v-7.57a1.41 1.41 0 0 1 1.41-1.41h29.75a1.41 1.41 0 0 1 1.41 1.41v7.57a1.41 1.41 0 0 1 -1.41 1.41zm-28.36-2.82h27v-4.71h-27z"></path>
    <path d="m453.48 461.53h-76.72a1.41 1.41 0 0 1 -1.41-1.41v-7.57a1.41 1.41 0 0 1 1.41-1.41h76.72a1.41 1.41 0 0 1 1.41 1.41v7.57a1.41 1.41 0 0 1 -1.41 1.41zm-75.31-2.82h73.91v-4.71h-73.91z"></path>
    <path d="m111 469.1h-41.22a1.4 1.4 0 0 1 -1.4-1.4v-7.58a1.41 1.41 0 0 1 1.4-1.41h41.22a1.41 1.41 0 0 1 1.4 1.41v7.58a1.4 1.4 0 0 1 -1.4 1.4zm-39.81-2.81h38.4v-4.76h-38.4z"></path>
    <path d="m376.72 469.1h-143.47a1.41 1.41 0 0 1 -1.41-1.4v-7.58a1.41 1.41 0 0 1 1.41-1.41h143.47a1.41 1.41 0 0 1 1.41 1.41v7.58a1.41 1.41 0 0 1 -1.41 1.4zm-142.06-2.81h140.66v-4.76h-140.66z"></path>
    <path d="m530.21 469.1h-153.49a1.4 1.4 0 0 1 -1.4-1.4v-7.58a1.41 1.41 0 0 1 1.4-1.41h153.49a1.41 1.41 0 0 1 1.41 1.41v7.58a1.41 1.41 0 0 1 -1.41 1.4zm-152.08-2.81h150.67v-4.76h-150.67z"></path>
    <path d="m111 476.71h-41.22a1.4 1.4 0 0 1 -1.4-1.4v-7.61a1.41 1.41 0 0 1 1.4-1.41h41.22a1.41 1.41 0 0 1 1.4 1.41v7.61a1.4 1.4 0 0 1 -1.4 1.4zm-39.81-2.81h38.4v-4.8h-38.4z"></path>
    <path d="m530.22 476.7h-76.74a1.41 1.41 0 0 1 -1.41-1.41v-7.58a1.41 1.41 0 0 1 1.41-1.41h76.74a1.41 1.41 0 0 1 1.4 1.41v7.58a1.41 1.41 0 0 1 -1.4 1.41zm-75.33-2.82h73.92v-4.76h-73.92z"></path>
    <path d="m300 476.71h-66.75a1.41 1.41 0 0 1 -1.41-1.4v-7.61a1.41 1.41 0 0 1 1.41-1.41h66.75a1.41 1.41 0 0 1 1.4 1.41v7.61a1.4 1.4 0 0 1 -1.4 1.4zm-65.34-2.81h63.93v-4.8h-63.93z"></path>
    <path d="m453.47 476.7h-153.47a1.41 1.41 0 0 1 -1.4-1.41v-7.58a1.41 1.41 0 0 1 1.4-1.41h153.47a1.41 1.41 0 0 1 1.41 1.41v7.58a1.41 1.41 0 0 1 -1.41 1.41zm-152.06-2.82h150.66v-4.76h-150.66z"></path>
    <path d="m111 484.29h-41.22a1.41 1.41 0 0 1 -1.4-1.41v-7.57a1.41 1.41 0 0 1 1.4-1.41h41.22a1.41 1.41 0 0 1 1.4 1.41v7.57a1.41 1.41 0 0 1 -1.4 1.41zm-39.81-2.81h38.4v-4.77h-38.4z"></path>
    <path d="m376.72 484.29h-143.47a1.41 1.41 0 0 1 -1.41-1.41v-7.57a1.41 1.41 0 0 1 1.41-1.41h143.47a1.41 1.41 0 0 1 1.41 1.41v7.57a1.41 1.41 0 0 1 -1.41 1.41zm-142.06-2.81h140.66v-4.77h-140.66z"></path>
    <path d="m530.21 484.28h-153.47a1.41 1.41 0 0 1 -1.41-1.41v-7.58a1.41 1.41 0 0 1 1.41-1.41h153.47a1.41 1.41 0 0 1 1.41 1.41v7.58a1.41 1.41 0 0 1 -1.41 1.41zm-152.07-2.81h150.66v-4.77h-150.66z"></path>
    <path d="m101.62 491.86h-31.84a1.4 1.4 0 0 1 -1.4-1.4v-7.58a1.4 1.4 0 0 1 1.4-1.4h41.22a1.4 1.4 0 0 1 1.4 1.4v1.12a1.4 1.4 0 0 1 -1.4 1.4h-8v5a1.41 1.41 0 0 1 -1.38 1.46zm-30.43-2.81h29v-4.76h-29z"></path>
    <path d="m530.22 491.86h-76.74a1.41 1.41 0 0 1 -1.41-1.41v-7.58a1.41 1.41 0 0 1 1.41-1.4h76.74a1.4 1.4 0 0 1 1.4 1.4v7.58a1.41 1.41 0 0 1 -1.4 1.41zm-75.33-2.81h73.92v-4.77h-73.92z"></path>
    <path d="m300 491.86h-57.23a1.41 1.41 0 0 1 -1.41-1.4v-5h-8.11a1.4 1.4 0 0 1 -1.41-1.4v-1.13a1.41 1.41 0 0 1 1.41-1.4h66.75a1.4 1.4 0 0 1 1.4 1.4v7.58a1.4 1.4 0 0 1 -1.4 1.35zm-55.82-2.81h54.41v-4.76h-54.41z"></path>
    <path d="m453.47 491.86h-153.47a1.41 1.41 0 0 1 -1.4-1.41v-7.58a1.4 1.4 0 0 1 1.4-1.4h153.47a1.41 1.41 0 0 1 1.41 1.4v7.58a1.41 1.41 0 0 1 -1.41 1.41zm-152.06-2.81h150.66v-4.77h-150.66z"></path>
    <path d="m376.76 363a1.43 1.43 0 0 1 -1.44-1.41v-7.59a1.4 1.4 0 0 1 1.4-1.4 1.44 1.44 0 0 1 1.45 1.4v7.58a1.41 1.41 0 0 1 -1.41 1.42z"></path>
    <path d="m376.76 378.13a1.43 1.43 0 0 1 -1.44-1.41v-7.58a1.4 1.4 0 0 1 1.4-1.4 1.41 1.41 0 0 1 1.41 1.4v7.58a1.41 1.41 0 0 1 -1.37 1.41z"></path>
    <path d="m376.76 393.31a1.43 1.43 0 0 1 -1.44-1.4v-7.62a1.4 1.4 0 0 1 1.4-1.4 1.41 1.41 0 0 1 1.41 1.4v7.62a1.41 1.41 0 0 1 -1.37 1.4z"></path>
    <path d="m376.76 408.46a1.43 1.43 0 0 1 -1.44-1.4v-7.58a1.4 1.4 0 0 1 1.4-1.4 1.41 1.41 0 0 1 1.41 1.4v7.58a1.41 1.41 0 0 1 -1.37 1.4z"></path>
    <path d="m376.76 423.62a1.43 1.43 0 0 1 -1.44-1.41v-7.58a1.4 1.4 0 0 1 1.4-1.4 1.41 1.41 0 0 1 1.41 1.4v7.58a1.41 1.41 0 0 1 -1.37 1.41z"></path>
    <path d="m376.76 438.8a1.43 1.43 0 0 1 -1.44-1.4v-7.58a1.41 1.41 0 0 1 1.4-1.41 1.41 1.41 0 0 1 1.41 1.41v7.58a1.41 1.41 0 0 1 -1.37 1.4z"></path>
    <path d="m376.76 454a1.43 1.43 0 0 1 -1.44-1.4v-7.6a1.41 1.41 0 0 1 1.4-1.41 1.41 1.41 0 0 1 1.41 1.41v7.58a1.41 1.41 0 0 1 -1.37 1.42z"></path>
    <path d="m226.28 488.07h-107.28a1.41 1.41 0 0 1 -1.4-1.41v-215.61a1.41 1.41 0 0 1 1.4-1.41h107.28a1.41 1.41 0 0 1 1.4 1.41v215.61a1.41 1.41 0 0 1 -1.4 1.41zm-105.84-2.81h104.43v-212.81h-104.43zm92.94-11.11h-21.95a1.41 1.41 0 0 1 -1.41-1.4v-44.63a1.41 1.41 0 0 1 1.41-1.4h21.95a1.41 1.41 0 0 1 1.41 1.4v44.63a1.41 1.41 0 0 1 -1.41 1.4zm-20.55-2.81h19.17v-41.81h-19.17zm-9.2 2.81h-21.95a1.41 1.41 0 0 1 -1.41-1.4v-44.63a1.41 1.41 0 0 1 1.41-1.4h21.95a1.41 1.41 0 0 1 1.41 1.4v44.63a1.41 1.41 0 0 1 -1.41 1.4zm-20.55-2.81h19.14v-41.81h-19.14zm-9.2 2.81h-21.95a1.41 1.41 0 0 1 -1.41-1.4v-44.63a1.41 1.41 0 0 1 1.41-1.4h21.95a1.41 1.41 0 0 1 1.41 1.4v44.63a1.41 1.41 0 0 1 -1.41 1.4zm-20.55-2.81h19.14v-41.81h-19.14zm80-70.73h-34a1.41 1.41 0 0 1 -1.41-1.4v-73a1.41 1.41 0 0 1 1.41-1.41h34a1.41 1.41 0 0 1 1.41 1.41v73a1.41 1.41 0 0 1 -1.36 1.4zm-32.59-2.81h31.26v-70.16h-31.21zm-14.87 2.81h-34a1.41 1.41 0 0 1 -1.41-1.4v-73a1.41 1.41 0 0 1 1.41-1.41h34a1.41 1.41 0 0 1 1.41 1.41v73a1.41 1.41 0 0 1 -1.36 1.4zm-32.59-2.81h31.18v-70.16h-31.13zm80-80.66h-21.85a1.41 1.41 0 0 1 -1.41-1.41v-14.93a12.39 12.39 0 1 1 24.77 0v14.93a1.41 1.41 0 0 1 -1.41 1.41zm-20.55-2.81h19.27v-13.53a9.58 9.58 0 0 0 -19.15 0zm-9.2 2.81h-21.85a1.41 1.41 0 0 1 -1.41-1.41v-14.93a12.39 12.39 0 1 1 24.77 0v14.93a1.41 1.41 0 0 1 -1.41 1.41zm-20.55-2.81h19.14v-13.53a9.57 9.57 0 1 0 -19.14 0zm-9.2 2.81h-21.85a1.41 1.41 0 0 1 -1.41-1.41v-14.93a12.39 12.39 0 1 1 24.77 0v14.93a1.41 1.41 0 0 1 -1.41 1.41zm-20.55-2.81h19.14v-13.53a9.57 9.57 0 1 0 -19.14 0z"></path>
    <path d="m449.96 452.36h68.52v6.17h-68.52z" transform="matrix(.16780119 .98582086 -.98582086 .16780119 851.99 -98.32)"></path>
    <path d="m486.93 491.14a1.42 1.42 0 0 1 -1.39-1.17l-11.49-67.55a1.34 1.34 0 0 1 .24-1 1.39 1.39 0 0 1 .91-.58l6.08-1a1.41 1.41 0 0 1 1.05.24 1.39 1.39 0 0 1 .57.91l11.49 67.55a1.4 1.4 0 0 1 -1.15 1.62l-6.08 1a.86.86 0 0 1 -.23-.02zm-9.87-67.8 11 64.77 3.3-.56-11-64.77z"></path>
    <path d="m431.79 452.36h68.52v6.17h-68.52z" transform="matrix(-.16780119 .98582086 -.98582086 -.16780119 993.22 72.4)"></path>
    <path d="m463.34 491.14a.93.93 0 0 1 -.23 0l-6.08-1a1.36 1.36 0 0 1 -.91-.58 1.34 1.34 0 0 1 -.24-1l11.49-67.55a1.39 1.39 0 0 1 1.62-1.15l6.08 1a1.36 1.36 0 0 1 .91.58 1.39 1.39 0 0 1 .25 1l-11.5 67.56a1.4 1.4 0 0 1 -1.39 1.14zm-4.45-3.59 3.3.56 11-64.77-3.31-.56z"></path>
    <circle cx="475.14" cy="420.86" r="3.79"></circle>
    <path d="m475.13 426.06a5.2 5.2 0 1 1 5.2-5.2 5.2 5.2 0 0 1 -5.2 5.2zm0-7.58a2.39 2.39 0 1 0 2.39 2.38 2.39 2.39 0 0 0 -2.39-2.38z"></path>
    <path d="m223.26 165.86h-153.48a1.41 1.41 0 0 1 -1.4-1.41v-26.22a1.4 1.4 0 0 1 1.4-1.4h153.48a1.4 1.4 0 0 1 1.4 1.4v26.22a1.4 1.4 0 0 1 -1.4 1.41zm-152.07-2.86h150.66v-23.4h-150.66z"></path>
    <path d="m376.73 165.86h-153.47a1.41 1.41 0 0 1 -1.41-1.41v-26.22a1.41 1.41 0 0 1 1.41-1.4h153.47a1.41 1.41 0 0 1 1.41 1.4v26.22a1.41 1.41 0 0 1 -1.41 1.41zm-152.07-2.86h150.67v-23.4h-150.67z"></path>
    <path d="m530.21 165.86h-153.48a1.41 1.41 0 0 1 -1.4-1.41v-26.22a1.4 1.4 0 0 1 1.4-1.4h153.48a1.41 1.41 0 0 1 1.41 1.4v26.22a1.41 1.41 0 0 1 -1.41 1.41zm-152.07-2.86h150.66v-23.4h-150.66z"></path>
    <circle cx="216.43" cy="146.13" r="1.58"></circle>
    <path d="m216.44 149.11a3 3 0 1 1 3-3 3 3 0 0 1 -3 3zm0-3.16.17.18a.18.18 0 0 0 -.17-.13z"></path>
    <circle cx="216.43" cy="156.08" r="1.58"></circle>
    <path d="m216.44 159.07a3 3 0 1 1 3-3 3 3 0 0 1 -3 3zm0-3.17.17.18a.18.18 0 0 0 -.17-.18z"></path>
    <path d="m229.55 149.11a3 3 0 1 1 3-3 3 3 0 0 1 -3 3zm0-3.16.18.18a.18.18 0 0 0 -.18-.13z"></path>
    <path d="m229.55 159.07a3 3 0 1 1 3-3 3 3 0 0 1 -3 3zm0-3.17.18.18a.18.18 0 0 0 -.18-.18z"></path>
    <path d="m370.18 149.11a3 3 0 1 1 3-3 3 3 0 0 1 -3 3zm0-3.16.18.18a.18.18 0 0 0 -.18-.13z"></path>
    <path d="m370.18 159.07a3 3 0 1 1 3-3 3 3 0 0 1 -3 3zm0-3.17.18.18a.18.18 0 0 0 -.18-.18z"></path>
    <circle cx="383.3" cy="146.13" r="1.58"></circle>
    <path d="m383.3 149.11a3 3 0 1 1 3-3 3 3 0 0 1 -3 3zm0-3.16.17.18a.17.17 0 0 0 -.17-.13z"></path>
    <circle cx="383.3" cy="156.08" r="1.58"></circle>
    <path d="m383.3 159.07a3 3 0 1 1 3-3 3 3 0 0 1 -3 3zm0-3.17.17.18a.17.17 0 0 0 -.17-.18z"></path>
    <path d="m157.68 409.63h29.95v8.8h-29.95z"></path>
    <path d="m187.63 419.84h-29.95a1.41 1.41 0 0 1 -1.41-1.41v-8.8a1.41 1.41 0 0 1 1.41-1.41h29.95a1.41 1.41 0 0 1 1.41 1.41v8.8a1.41 1.41 0 0 1 -1.41 1.41zm-28.55-2.84h27.14v-6h-27.14z"></path>
    <path d="m376.74 461.54h-113.74a1.41 1.41 0 0 1 -1.41-1.41v-113.72a1.41 1.41 0 0 1 1.41-1.41h113.74a1.41 1.41 0 0 1 1.41 1.41v113.72a1.41 1.41 0 0 1 -1.41 1.41zm-112.32-2.81h110.92v-110.91h-110.92zm104.82-4.73h-98.72a1.41 1.41 0 0 1 -1.41-1.41v-98.68a1.41 1.41 0 0 1 1.41-1.41h98.72a1.41 1.41 0 0 1 1.41 1.41v98.72a1.41 1.41 0 0 1 -1.41 1.37zm-97.32-2.81h95.92v-95.88h-95.92z"></path>
    <path d="m511 408.46h-101.6a1.4 1.4 0 0 1 -1.4-1.4v-101.56a1.4 1.4 0 0 1 1.4-1.4h101.6a1.4 1.4 0 0 1 1.4 1.4v101.56a1.4 1.4 0 0 1 -1.4 1.4zm-100.15-2.81h98.74v-98.74h-98.78zm92.61-4.65h-86.56a1.4 1.4 0 0 1 -1.4-1.4v-86.6a1.4 1.4 0 0 1 1.4-1.4h86.56a1.4 1.4 0 0 1 1.4 1.4v86.56a1.4 1.4 0 0 1 -1.4 1.44zm-85.15-2.81h83.74v-83.78h-83.74z"></path>
    <path d="m461.41 294.26h-75a1.4 1.4 0 0 1 -1.4-1.4v-75a1.4 1.4 0 0 1 1.4-1.4h75a1.4 1.4 0 0 1 1.4 1.4v75a1.4 1.4 0 0 1 -1.4 1.4zm-73.6-2.81h72.19v-72.19h-72.19zm66.1-4.69h-60a1.4 1.4 0 0 1 -1.4-1.4v-60a1.41 1.41 0 0 1 1.4-1.41h60a1.41 1.41 0 0 1 1.4 1.41v60a1.4 1.4 0 0 1 -1.4 1.4zm-58.6-2.76h57.19v-57.24h-57.19z"></path>
    <path d="m503.46 401h-86.56a1.4 1.4 0 0 1 -1.4-1.4v-86.6a1.4 1.4 0 0 1 1.4-1.4h86.56a1.4 1.4 0 0 1 1.4 1.4v86.56a1.4 1.4 0 0 1 -1.4 1.44zm-85.15-2.81h83.74v-83.78h-83.74z"></path>
    <path d="m346.38 332.62h-83.38a1.41 1.41 0 0 1 -1.41-1.41v-83.36a1.41 1.41 0 0 1 1.41-1.4h83.36a1.41 1.41 0 0 1 1.41 1.4v83.36a1.41 1.41 0 0 1 -1.39 1.41zm-82-2.81h80.62v-80.55h-80.58zm74.46-4.69h-68.32a1.41 1.41 0 0 1 -1.41-1.41v-68.36a1.41 1.41 0 0 1 1.41-1.4h68.36a1.41 1.41 0 0 1 1.41 1.4v68.36a1.41 1.41 0 0 1 -1.41 1.41zm-67-2.81h65.55v-65.55h-65.47z"></path>
    <path d="m405.47 271.08a6.08 6.08 0 0 1 -4.86-2.41 6 6 0 0 1 -1-5.27 6.52 6.52 0 0 1 1.39-2.4 5.3 5.3 0 0 0 .75-1.08 8.35 8.35 0 0 0 .3-3.63c0-.46-.05-.92-.06-1.38a5.47 5.47 0 0 1 .49-2.61 6 6 0 0 1 1.87-2 5.48 5.48 0 0 0 .89-.76 5.94 5.94 0 0 0 .94-1.85c.18-.44.35-.88.55-1.3a7 7 0 0 1 2.76-3.05 5.26 5.26 0 0 1 4.41-.42 3 3 0 0 1 1.44 1 3.36 3.36 0 0 1 .58 1.79v1.61a5.9 5.9 0 0 0 .94 4 13.56 13.56 0 0 1 .83 1.82 8.14 8.14 0 0 1 .41 3.76c-.05.36-.12.72-.2 1.07a6.72 6.72 0 0 0 -.19 1.45 6.09 6.09 0 0 0 .53 1.85 10 10 0 0 1 .87 5.66 4.91 4.91 0 0 1 -4.51 4.07h-9.08zm6.65-25.6a2.57 2.57 0 0 0 -1.27.34 4.25 4.25 0 0 0 -1.63 1.85 11.64 11.64 0 0 0 -.45 1.08 8.63 8.63 0 0 1 -1.46 2.7 9.32 9.32 0 0 1 -1.29 1.13 3.65 3.65 0 0 0 -1.07 1 2.86 2.86 0 0 0 -.18 1.3c0 .42 0 .84.05 1.26a10.58 10.58 0 0 1 -.54 4.93 7.6 7.6 0 0 1 -1.14 1.71 4.13 4.13 0 0 0 -.79 1.21 3.24 3.24 0 0 0 .5 2.94 3.14 3.14 0 0 0 2.64 1.31h9.08c.86 0 1.59-.95 1.77-1.83a7 7 0 0 0 -.62-3.76 9.7 9.7 0 0 1 -.84-3.06 8.85 8.85 0 0 1 .25-2.14c.06-.29.12-.58.16-.87a5.18 5.18 0 0 0 -.26-2.44 11.56 11.56 0 0 0 -.69-1.47 11.25 11.25 0 0 1 -1.07-2.6 10.51 10.51 0 0 1 -.18-2.71 12 12 0 0 0 0-1.34 1.21 1.21 0 0 0 -.06-.38 2.58 2.58 0 0 0 -.91-.16z"></path>
    <path d="m409.58 271.07a1.41 1.41 0 0 1 -1.4-1.24c-.06-.49-1.38-11.89 1-19.07a1.41 1.41 0 0 1 2.67.9c-2.22 6.57-.93 17.72-.92 17.84a1.41 1.41 0 0 1 -1.23 1.56z"></path>
    <path d="m414.76 286.82h-10.64a1.41 1.41 0 0 1 -1.38-1.14l-3.26-16.36a1.42 1.42 0 0 1 .29-1.17 1.43 1.43 0 0 1 1.09-.51h17.14a1.42 1.42 0 0 1 1.09.51 1.38 1.38 0 0 1 .29 1.17l-3.26 16.36a1.41 1.41 0 0 1 -1.36 1.14zm-9.49-2.82h8.34l2.7-13.55h-13.74z"></path>
    <path d="m233.25 279.58h-7a1.41 1.41 0 0 1 -1.41-1.41v-5.72h-104.4v5.72a1.41 1.41 0 0 1 -1.41 1.41h-8a1.41 1.41 0 0 1 -1.41-1.41v-15.17a1.41 1.41 0 0 1 1.38-1.4h122.25a1.42 1.42 0 0 1 1.41 1.34c.75 15 .12 15.69-.34 16.17a1.57 1.57 0 0 1 -1.07.47zm-5.57-2.82h4.45c.13-2.08 0-7.32-.22-12.34h-119.51v12.34h5.23v-5.71a1.41 1.41 0 0 1 1.4-1.41h107.25a1.41 1.41 0 0 1 1.4 1.41z"></path>
    <path d="m111 484.43a1.43 1.43 0 0 1 -1-.41 1.38 1.38 0 0 1 -.42-1v-204.85a1.41 1.41 0 0 1 1.37-1.41l8-.21a1.58 1.58 0 0 1 1 .4 1.41 1.41 0 0 1 .43 1v204.92a1.41 1.41 0 0 1 -1.38 1.41zm1.4-204.89v202l5.23-.1v-202.04z"></path>
    <path d="m226.28 484.43a1.41 1.41 0 0 1 -1-.41 1.38 1.38 0 0 1 -.42-1v-204.85a1.41 1.41 0 0 1 1.37-1.41l8-.21a1.54 1.54 0 0 1 1 .4 1.41 1.41 0 0 1 .43 1v204.92a1.41 1.41 0 0 1 -1.38 1.41zm1.4-204.89v202l5.22-.1v-202.04z"></path>
    <path d="m243.31 491.86h-141.14a1.41 1.41 0 0 1 -1.4-1.41v-7.58a1.4 1.4 0 0 1 1.4-1.4h141.14a1.4 1.4 0 0 1 1.4 1.4v7.58a1.41 1.41 0 0 1 -1.4 1.41zm-139.73-2.81h138.32v-4.77h-138.32z"></path>
    <path d="m146.62 173.45h-.07v-2.81z"></path>
    <path d="m223.81 195.39-1.8-3.63 2.43-1.42a18.05 18.05 0 0 1 2 4z"></path>
    <path d="m172 256.5a62.69 62.69 0 0 1 -32.49-8.91c-13.36-8.09-21.63-20.37-23.27-34.57-3.65-31.56 7.31-39.15 18.55-42.37 1.43-.63 11.25-4 30.61 12 12.47 10.29 33.74 3.12 33.95 3 .44-.16 11-3.76 19.28.28a15.65 15.65 0 0 1 8 9.51c6.47 19.15 1.71 44.09-31.1 56.68a66 66 0 0 1 -23.53 4.38zm-33-83.76a8.33 8.33 0 0 0 -3.16.48l-.25.1c-6.66 1.89-20.52 5.82-16.64 39.38 1.55 13.32 9.34 24.86 21.94 32.49 15.74 9.53 35.78 11.15 53.6 4.31 30.95-11.87 35.5-35.23 29.44-53.14a13 13 0 0 0 -6.61-7.89c-7.21-3.53-17-.19-17.13-.15-.93.32-23 7.76-36.66-3.53-12.41-10.28-20.44-12.05-24.53-12.05z"></path>
    <path d="m138 193.78s-1.73-8.65-4.32-9-7.05 4.08-7.91 7.78-2.35 27.44 10.88 28.68 7.16-13.72 7.16-13.72-3.33-7.66-4.57-7.66-7.17 1.85-5.19 4.69 3.58 2.1 4.57 3.09 1.24 4.43-.24 5.24-3 2.79-5.32-2.64-3.34-15.95-1.48-15.95 1.11 2 2.84 2 3.99-.91 3.58-2.51z"></path>
    <path d="m147.46 190.33s4.39 2.19 6.2-.76-1.06-5.29-3.1-6.12-7.25-3.25-9.14-3.25-4.16 2.34-3.4 4.54 4.76 7.93 6.5 14.65 7.33 19.57 12.09 18.74 8-3.63 7.85-6.12-1.36-7.18-5.51-4.91-3.48 3.85-4.69 1.74-3.09-5.59-1.51-6.42 3.55-2.8 2.34-4.76-2.18-1.82-3.92-1.51-2-.31-3.33-2.8-1.36-3.41-.38-3.02z"></path>
    <path d="m157.21 189.87s1.36-2.34 2.57-1.88 4.91 3.85 8.46 5.13 8.61 2.65 9 3.55 1.44 5.14-2 4.46-5.07-.76-4.84.08 2.27 4.15 3 5.66-.83 4.61-3.4 4.69-4.38-7-4.91-8.55-1.21-4.22-3.77-5.88-7.21-4.76-4.11-7.26z"></path>
    <path d="m144.44 221.29s3.85.62 3.63 5.3-1.66 7.33.83 8.16 5.89-.45 6.72 1.59 1.51 8-2 7.18a58.08 58.08 0 0 1 -11.62-4.91c-1.29-.91-1.29-3.18-1.29-5.14v-9.47s1.54-2.5 3.73-2.71z"></path>
    <path d="m170.51 223.19c-2.19-2.19-1.65-3-6-3.47 0 0-5.07.38-6 6.57s-1.28 15.34 3.56 18.44 12.08 1.88 12.16-4.23-1.53-15.12-3.72-17.31zm-4.44 17.38c-1.86.08-2.66-.6-3.12-7.1s2.5-7.1 2.5-7.1c3.62.75 3.7 1.73 4 7.1s-1.51 7.03-3.38 7.1z"></path>
    <path d="m192.87 231.43c-1.21-3.85-4.83-21.91-14.35-19.87 0 0-5.44 1.78-4.31 9.73s1 21.92 9.9 23 9.97-9.01 8.76-12.86zm-7.87 4.91c-2.87.23-3.17-1.36-4.91-7.71s.91-8.91.91-8.91c3.63-1.36 4.83 4.68 5.67 7.48s1.21 8.91-1.67 9.14z"></path>
    <path d="m194.76 206.19s1.06 4.46 4.31 2.27.53-5.89 0-6.5-4.61-8.29-9.6-2.22-4.38 16.15 4.38 19.37c0 0 8.54.76 9.82 4.39s.23 10.27-4.07 3.7-5.9 3.16-4.76 5.24 3.09 7.11 10 3.92 7.48-9.92 3.18-16-7.73-5.51-12.09-6.12c-5.85-.79-5.17-10.77-1.17-8.05z"></path>
    <path d="m206.32 194.79s-9.29-1.57-5.74 5 9.37 17.86 10.57 20.43 5.22 5.21 7.33-1.43 2.35-8.69 0-8.54-3.85 4.53-5 3.25-2.27-4.08.53-5.59.52-3.48-.08-4-1.53.3-3.14.76-3.43-3.7-2.15-3.7a34.87 34.87 0 0 0 4-.46s1.28-4.76-.53-4.91-5.79-.81-5.79-.81z"></path>
    <g clip-path="url(#a)">
      <g clip-path="url(#b)">
        <path d="m375.1 373.77a1.35 1.35 0 1 0 -1.35-1.35 1.36 1.36 0 0 0 1.35 1.35z"></path>
        <path d="m361.6 373.77a1.35 1.35 0 1 0 -1.35-1.35 1.36 1.36 0 0 0 1.35 1.35z"></path>
        <path d="m375.1 360.27a1.35 1.35 0 1 0 -1.35-1.35 1.36 1.36 0 0 0 1.35 1.35z"></path>
        <path d="m361.6 360.27a1.35 1.35 0 1 0 -1.35-1.35 1.36 1.36 0 0 0 1.35 1.35z"></path>
        <path d="m354.85 367a1.35 1.35 0 1 0 -1.35-1.35 1.36 1.36 0 0 0 1.35 1.35z"></path>
        <path d="m368.35 367a1.35 1.35 0 1 0 -1.35-1.35 1.36 1.36 0 0 0 1.35 1.35z"></path>
        <path d="m354.85 353.52a1.35 1.35 0 1 0 -1.35-1.35 1.36 1.36 0 0 0 1.35 1.35z"></path>
        <path d="m368.35 353.52a1.35 1.35 0 1 0 -1.35-1.35 1.36 1.36 0 0 0 1.35 1.35z"></path>
        <path d="m348.1 373.77a1.35 1.35 0 1 0 -1.35-1.35 1.36 1.36 0 0 0 1.35 1.35z"></path>
        <path d="m348.1 360.27a1.35 1.35 0 1 0 -1.35-1.35 1.36 1.36 0 0 0 1.35 1.35z"></path>
        <path d="m375.1 346.77a1.35 1.35 0 1 0 -1.35-1.35 1.36 1.36 0 0 0 1.35 1.35z"></path>
        <path d="m361.6 346.77a1.35 1.35 0 1 0 -1.35-1.35 1.36 1.36 0 0 0 1.35 1.35z"></path>
        <path d="m348.1 346.77a1.35 1.35 0 1 0 -1.35-1.35 1.36 1.36 0 0 0 1.35 1.35z"></path>
      </g>
      <g clip-path="url(#c)">
        <path d="m375.1 400.77a1.35 1.35 0 1 0 -1.35-1.35 1.36 1.36 0 0 0 1.35 1.35z"></path>
        <path d="m361.6 400.77a1.35 1.35 0 1 0 -1.35-1.35 1.36 1.36 0 0 0 1.35 1.35z"></path>
        <path d="m375.1 387.27a1.35 1.35 0 1 0 -1.35-1.35 1.36 1.36 0 0 0 1.35 1.35z"></path>
        <path d="m361.6 387.27a1.35 1.35 0 1 0 -1.35-1.35 1.36 1.36 0 0 0 1.35 1.35z"></path>
        <path d="m354.85 394a1.35 1.35 0 1 0 -1.35-1.35 1.35 1.35 0 0 0 1.35 1.35z"></path>
        <path d="m368.35 394a1.35 1.35 0 1 0 -1.35-1.35 1.35 1.35 0 0 0 1.35 1.35z"></path>
        <path d="m354.85 380.52a1.35 1.35 0 1 0 -1.35-1.35 1.35 1.35 0 0 0 1.35 1.35z"></path>
        <path d="m368.35 380.52a1.35 1.35 0 1 0 -1.35-1.35 1.35 1.35 0 0 0 1.35 1.35z"></path>
        <path d="m348.1 400.77a1.35 1.35 0 1 0 -1.35-1.35 1.36 1.36 0 0 0 1.35 1.35z"></path>
        <path d="m348.1 387.27a1.35 1.35 0 1 0 -1.35-1.35 1.36 1.36 0 0 0 1.35 1.35z"></path>
        <path d="m375.1 373.77a1.35 1.35 0 1 0 -1.35-1.35 1.36 1.36 0 0 0 1.35 1.35z"></path>
        <path d="m361.6 373.77a1.35 1.35 0 1 0 -1.35-1.35 1.36 1.36 0 0 0 1.35 1.35z"></path>
        <path d="m348.1 373.77a1.35 1.35 0 1 0 -1.35-1.35 1.36 1.36 0 0 0 1.35 1.35z"></path>
      </g>
      <g clip-path="url(#d)">
        <path d="m375.1 427.77a1.35 1.35 0 1 0 -1.35-1.35 1.35 1.35 0 0 0 1.35 1.35z"></path>
        <path d="m361.6 427.77a1.35 1.35 0 1 0 -1.35-1.35 1.35 1.35 0 0 0 1.35 1.35z"></path>
        <path d="m375.1 414.27a1.35 1.35 0 1 0 -1.35-1.35 1.35 1.35 0 0 0 1.35 1.35z"></path>
        <path d="m361.6 414.27a1.35 1.35 0 1 0 -1.35-1.35 1.35 1.35 0 0 0 1.35 1.35z"></path>
        <path d="m354.85 421a1.35 1.35 0 1 0 -1.35-1.35 1.35 1.35 0 0 0 1.35 1.35z"></path>
        <path d="m368.35 421a1.35 1.35 0 1 0 -1.35-1.35 1.35 1.35 0 0 0 1.35 1.35z"></path>
        <path d="m354.85 407.52a1.35 1.35 0 1 0 -1.35-1.35 1.35 1.35 0 0 0 1.35 1.35z"></path>
        <path d="m368.35 407.52a1.35 1.35 0 1 0 -1.35-1.35 1.35 1.35 0 0 0 1.35 1.35z"></path>
        <path d="m348.1 427.77a1.35 1.35 0 1 0 -1.35-1.35 1.35 1.35 0 0 0 1.35 1.35z"></path>
        <path d="m348.1 414.27a1.35 1.35 0 1 0 -1.35-1.35 1.35 1.35 0 0 0 1.35 1.35z"></path>
        <path d="m375.1 400.77a1.35 1.35 0 1 0 -1.35-1.35 1.36 1.36 0 0 0 1.35 1.35z"></path>
        <path d="m361.6 400.77a1.35 1.35 0 1 0 -1.35-1.35 1.36 1.36 0 0 0 1.35 1.35z"></path>
        <path d="m348.1 400.77a1.35 1.35 0 1 0 -1.35-1.35 1.36 1.36 0 0 0 1.35 1.35z"></path>
      </g>
      <g clip-path="url(#e)">
        <path d="m375.1 454.77a1.35 1.35 0 1 0 -1.35-1.35 1.35 1.35 0 0 0 1.35 1.35z"></path>
        <path d="m361.6 454.77a1.35 1.35 0 1 0 -1.35-1.35 1.35 1.35 0 0 0 1.35 1.35z"></path>
        <path d="m375.1 441.27a1.35 1.35 0 1 0 -1.35-1.35 1.35 1.35 0 0 0 1.35 1.35z"></path>
        <path d="m361.6 441.27a1.35 1.35 0 1 0 -1.35-1.35 1.35 1.35 0 0 0 1.35 1.35z"></path>
        <path d="m354.85 448a1.35 1.35 0 1 0 -1.35-1.35 1.35 1.35 0 0 0 1.35 1.35z"></path>
        <path d="m368.35 448a1.35 1.35 0 1 0 -1.35-1.35 1.35 1.35 0 0 0 1.35 1.35z"></path>
        <path d="m354.85 434.52a1.35 1.35 0 1 0 -1.35-1.35 1.35 1.35 0 0 0 1.35 1.35z"></path>
        <path d="m368.35 434.52a1.35 1.35 0 1 0 -1.35-1.35 1.35 1.35 0 0 0 1.35 1.35z"></path>
        <path d="m348.1 454.77a1.35 1.35 0 1 0 -1.35-1.35 1.35 1.35 0 0 0 1.35 1.35z"></path>
        <path d="m348.1 441.27a1.35 1.35 0 1 0 -1.35-1.35 1.35 1.35 0 0 0 1.35 1.35z"></path>
        <path d="m375.1 427.77a1.35 1.35 0 1 0 -1.35-1.35 1.35 1.35 0 0 0 1.35 1.35z"></path>
        <path d="m361.6 427.77a1.35 1.35 0 1 0 -1.35-1.35 1.35 1.35 0 0 0 1.35 1.35z"></path>
        <path d="m348.1 427.77a1.35 1.35 0 1 0 -1.35-1.35 1.35 1.35 0 0 0 1.35 1.35z"></path>
      </g>
      <g clip-path="url(#f)">
        <path d="m348.1 373.77a1.35 1.35 0 1 0 -1.35-1.35 1.36 1.36 0 0 0 1.35 1.35z"></path>
        <path d="m334.6 373.77a1.35 1.35 0 1 0 -1.35-1.35 1.36 1.36 0 0 0 1.35 1.35z"></path>
        <path d="m348.1 360.27a1.35 1.35 0 1 0 -1.35-1.35 1.36 1.36 0 0 0 1.35 1.35z"></path>
        <path d="m334.6 360.27a1.35 1.35 0 1 0 -1.35-1.35 1.36 1.36 0 0 0 1.35 1.35z"></path>
        <path d="m327.85 367a1.35 1.35 0 1 0 -1.35-1.35 1.36 1.36 0 0 0 1.35 1.35z"></path>
        <path d="m341.35 367a1.35 1.35 0 1 0 -1.35-1.35 1.36 1.36 0 0 0 1.35 1.35z"></path>
        <path d="m327.85 353.52a1.35 1.35 0 1 0 -1.35-1.35 1.36 1.36 0 0 0 1.35 1.35z"></path>
        <path d="m341.35 353.52a1.35 1.35 0 1 0 -1.35-1.35 1.36 1.36 0 0 0 1.35 1.35z"></path>
        <path d="m321.1 373.77a1.35 1.35 0 1 0 -1.35-1.35 1.36 1.36 0 0 0 1.35 1.35z"></path>
        <path d="m321.1 360.27a1.35 1.35 0 1 0 -1.35-1.35 1.36 1.36 0 0 0 1.35 1.35z"></path>
        <path d="m348.1 346.77a1.35 1.35 0 1 0 -1.35-1.35 1.36 1.36 0 0 0 1.35 1.35z"></path>
        <path d="m334.6 346.77a1.35 1.35 0 1 0 -1.35-1.35 1.36 1.36 0 0 0 1.35 1.35z"></path>
        <path d="m321.1 346.77a1.35 1.35 0 1 0 -1.35-1.35 1.36 1.36 0 0 0 1.35 1.35z"></path>
      </g>
      <g clip-path="url(#g)">
        <path d="m348.1 400.77a1.35 1.35 0 1 0 -1.35-1.35 1.36 1.36 0 0 0 1.35 1.35z"></path>
        <path d="m334.6 400.77a1.35 1.35 0 1 0 -1.35-1.35 1.36 1.36 0 0 0 1.35 1.35z"></path>
        <path d="m348.1 387.27a1.35 1.35 0 1 0 -1.35-1.35 1.36 1.36 0 0 0 1.35 1.35z"></path>
        <path d="m334.6 387.27a1.35 1.35 0 1 0 -1.35-1.35 1.36 1.36 0 0 0 1.35 1.35z"></path>
        <path d="m327.85 394a1.35 1.35 0 1 0 -1.35-1.35 1.35 1.35 0 0 0 1.35 1.35z"></path>
        <path d="m341.35 394a1.35 1.35 0 1 0 -1.35-1.35 1.35 1.35 0 0 0 1.35 1.35z"></path>
        <path d="m327.85 380.52a1.35 1.35 0 1 0 -1.35-1.35 1.35 1.35 0 0 0 1.35 1.35z"></path>
        <path d="m341.35 380.52a1.35 1.35 0 1 0 -1.35-1.35 1.35 1.35 0 0 0 1.35 1.35z"></path>
        <path d="m321.1 400.77a1.35 1.35 0 1 0 -1.35-1.35 1.36 1.36 0 0 0 1.35 1.35z"></path>
        <path d="m321.1 387.27a1.35 1.35 0 1 0 -1.35-1.35 1.36 1.36 0 0 0 1.35 1.35z"></path>
        <path d="m348.1 373.77a1.35 1.35 0 1 0 -1.35-1.35 1.36 1.36 0 0 0 1.35 1.35z"></path>
        <path d="m334.6 373.77a1.35 1.35 0 1 0 -1.35-1.35 1.36 1.36 0 0 0 1.35 1.35z"></path>
        <path d="m321.1 373.77a1.35 1.35 0 1 0 -1.35-1.35 1.36 1.36 0 0 0 1.35 1.35z"></path>
      </g>
      <g clip-path="url(#h)">
        <path d="m348.1 427.77a1.35 1.35 0 1 0 -1.35-1.35 1.35 1.35 0 0 0 1.35 1.35z"></path>
        <path d="m334.6 427.77a1.35 1.35 0 1 0 -1.35-1.35 1.35 1.35 0 0 0 1.35 1.35z"></path>
        <path d="m348.1 414.27a1.35 1.35 0 1 0 -1.35-1.35 1.35 1.35 0 0 0 1.35 1.35z"></path>
        <path d="m334.6 414.27a1.35 1.35 0 1 0 -1.35-1.35 1.35 1.35 0 0 0 1.35 1.35z"></path>
        <path d="m327.85 421a1.35 1.35 0 1 0 -1.35-1.35 1.35 1.35 0 0 0 1.35 1.35z"></path>
        <path d="m341.35 421a1.35 1.35 0 1 0 -1.35-1.35 1.35 1.35 0 0 0 1.35 1.35z"></path>
        <path d="m327.85 407.52a1.35 1.35 0 1 0 -1.35-1.35 1.35 1.35 0 0 0 1.35 1.35z"></path>
        <path d="m341.35 407.52a1.35 1.35 0 1 0 -1.35-1.35 1.35 1.35 0 0 0 1.35 1.35z"></path>
        <path d="m321.1 427.77a1.35 1.35 0 1 0 -1.35-1.35 1.35 1.35 0 0 0 1.35 1.35z"></path>
        <path d="m321.1 414.27a1.35 1.35 0 1 0 -1.35-1.35 1.35 1.35 0 0 0 1.35 1.35z"></path>
        <path d="m348.1 400.77a1.35 1.35 0 1 0 -1.35-1.35 1.36 1.36 0 0 0 1.35 1.35z"></path>
        <path d="m334.6 400.77a1.35 1.35 0 1 0 -1.35-1.35 1.36 1.36 0 0 0 1.35 1.35z"></path>
        <path d="m321.1 400.77a1.35 1.35 0 1 0 -1.35-1.35 1.36 1.36 0 0 0 1.35 1.35z"></path>
      </g>
      <g clip-path="url(#i)">
        <path d="m348.1 454.77a1.35 1.35 0 1 0 -1.35-1.35 1.35 1.35 0 0 0 1.35 1.35z"></path>
        <path d="m334.6 454.77a1.35 1.35 0 1 0 -1.35-1.35 1.35 1.35 0 0 0 1.35 1.35z"></path>
        <path d="m348.1 441.27a1.35 1.35 0 1 0 -1.35-1.35 1.35 1.35 0 0 0 1.35 1.35z"></path>
        <path d="m334.6 441.27a1.35 1.35 0 1 0 -1.35-1.35 1.35 1.35 0 0 0 1.35 1.35z"></path>
        <path d="m327.85 448a1.35 1.35 0 1 0 -1.35-1.35 1.35 1.35 0 0 0 1.35 1.35z"></path>
        <path d="m341.35 448a1.35 1.35 0 1 0 -1.35-1.35 1.35 1.35 0 0 0 1.35 1.35z"></path>
        <path d="m327.85 434.52a1.35 1.35 0 1 0 -1.35-1.35 1.35 1.35 0 0 0 1.35 1.35z"></path>
        <path d="m341.35 434.52a1.35 1.35 0 1 0 -1.35-1.35 1.35 1.35 0 0 0 1.35 1.35z"></path>
        <path d="m321.1 454.77a1.35 1.35 0 1 0 -1.35-1.35 1.35 1.35 0 0 0 1.35 1.35z"></path>
        <path d="m321.1 441.27a1.35 1.35 0 1 0 -1.35-1.35 1.35 1.35 0 0 0 1.35 1.35z"></path>
        <path d="m348.1 427.77a1.35 1.35 0 1 0 -1.35-1.35 1.35 1.35 0 0 0 1.35 1.35z"></path>
        <path d="m334.6 427.77a1.35 1.35 0 1 0 -1.35-1.35 1.35 1.35 0 0 0 1.35 1.35z"></path>
        <path d="m321.1 427.77a1.35 1.35 0 1 0 -1.35-1.35 1.35 1.35 0 0 0 1.35 1.35z"></path>
      </g>
      <g clip-path="url(#j)">
        <path d="m321.1 373.77a1.35 1.35 0 1 0 -1.35-1.35 1.36 1.36 0 0 0 1.35 1.35z"></path>
        <path d="m307.6 373.77a1.35 1.35 0 1 0 -1.35-1.35 1.36 1.36 0 0 0 1.35 1.35z"></path>
        <path d="m321.1 360.27a1.35 1.35 0 1 0 -1.35-1.35 1.36 1.36 0 0 0 1.35 1.35z"></path>
        <path d="m307.6 360.27a1.35 1.35 0 1 0 -1.35-1.35 1.36 1.36 0 0 0 1.35 1.35z"></path>
        <path d="m300.85 367a1.35 1.35 0 1 0 -1.35-1.35 1.36 1.36 0 0 0 1.35 1.35z"></path>
        <path d="m314.35 367a1.35 1.35 0 1 0 -1.35-1.35 1.36 1.36 0 0 0 1.35 1.35z"></path>
        <path d="m300.85 353.52a1.35 1.35 0 1 0 -1.35-1.35 1.36 1.36 0 0 0 1.35 1.35z"></path>
        <path d="m314.35 353.52a1.35 1.35 0 1 0 -1.35-1.35 1.36 1.36 0 0 0 1.35 1.35z"></path>
        <path d="m294.1 373.77a1.35 1.35 0 1 0 -1.35-1.35 1.36 1.36 0 0 0 1.35 1.35z"></path>
        <path d="m294.1 360.27a1.35 1.35 0 1 0 -1.35-1.35 1.36 1.36 0 0 0 1.35 1.35z"></path>
        <path d="m321.1 346.77a1.35 1.35 0 1 0 -1.35-1.35 1.36 1.36 0 0 0 1.35 1.35z"></path>
        <path d="m307.6 346.77a1.35 1.35 0 1 0 -1.35-1.35 1.36 1.36 0 0 0 1.35 1.35z"></path>
        <path d="m294.1 346.77a1.35 1.35 0 1 0 -1.35-1.35 1.36 1.36 0 0 0 1.35 1.35z"></path>
      </g>
      <g clip-path="url(#k)">
        <path d="m321.1 400.77a1.35 1.35 0 1 0 -1.35-1.35 1.36 1.36 0 0 0 1.35 1.35z"></path>
        <path d="m307.6 400.77a1.35 1.35 0 1 0 -1.35-1.35 1.36 1.36 0 0 0 1.35 1.35z"></path>
        <path d="m321.1 387.27a1.35 1.35 0 1 0 -1.35-1.35 1.36 1.36 0 0 0 1.35 1.35z"></path>
        <path d="m307.6 387.27a1.35 1.35 0 1 0 -1.35-1.35 1.36 1.36 0 0 0 1.35 1.35z"></path>
        <path d="m300.85 394a1.35 1.35 0 1 0 -1.35-1.35 1.35 1.35 0 0 0 1.35 1.35z"></path>
        <path d="m314.35 394a1.35 1.35 0 1 0 -1.35-1.35 1.35 1.35 0 0 0 1.35 1.35z"></path>
        <path d="m300.85 380.52a1.35 1.35 0 1 0 -1.35-1.35 1.35 1.35 0 0 0 1.35 1.35z"></path>
        <path d="m314.35 380.52a1.35 1.35 0 1 0 -1.35-1.35 1.35 1.35 0 0 0 1.35 1.35z"></path>
        <path d="m294.1 400.77a1.35 1.35 0 1 0 -1.35-1.35 1.36 1.36 0 0 0 1.35 1.35z"></path>
        <path d="m294.1 387.27a1.35 1.35 0 1 0 -1.35-1.35 1.36 1.36 0 0 0 1.35 1.35z"></path>
        <path d="m321.1 373.77a1.35 1.35 0 1 0 -1.35-1.35 1.36 1.36 0 0 0 1.35 1.35z"></path>
        <path d="m307.6 373.77a1.35 1.35 0 1 0 -1.35-1.35 1.36 1.36 0 0 0 1.35 1.35z"></path>
        <path d="m294.1 373.77a1.35 1.35 0 1 0 -1.35-1.35 1.36 1.36 0 0 0 1.35 1.35z"></path>
      </g>
      <g clip-path="url(#l)">
        <path d="m321.1 427.77a1.35 1.35 0 1 0 -1.35-1.35 1.35 1.35 0 0 0 1.35 1.35z"></path>
        <path d="m307.6 427.77a1.35 1.35 0 1 0 -1.35-1.35 1.35 1.35 0 0 0 1.35 1.35z"></path>
        <path d="m321.1 414.27a1.35 1.35 0 1 0 -1.35-1.35 1.35 1.35 0 0 0 1.35 1.35z"></path>
        <path d="m307.6 414.27a1.35 1.35 0 1 0 -1.35-1.35 1.35 1.35 0 0 0 1.35 1.35z"></path>
        <path d="m300.85 421a1.35 1.35 0 1 0 -1.35-1.35 1.35 1.35 0 0 0 1.35 1.35z"></path>
        <path d="m314.35 421a1.35 1.35 0 1 0 -1.35-1.35 1.35 1.35 0 0 0 1.35 1.35z"></path>
        <path d="m300.85 407.52a1.35 1.35 0 1 0 -1.35-1.35 1.35 1.35 0 0 0 1.35 1.35z"></path>
        <path d="m314.35 407.52a1.35 1.35 0 1 0 -1.35-1.35 1.35 1.35 0 0 0 1.35 1.35z"></path>
        <path d="m294.1 427.77a1.35 1.35 0 1 0 -1.35-1.35 1.35 1.35 0 0 0 1.35 1.35z"></path>
        <path d="m294.1 414.27a1.35 1.35 0 1 0 -1.35-1.35 1.35 1.35 0 0 0 1.35 1.35z"></path>
        <path d="m321.1 400.77a1.35 1.35 0 1 0 -1.35-1.35 1.36 1.36 0 0 0 1.35 1.35z"></path>
        <path d="m307.6 400.77a1.35 1.35 0 1 0 -1.35-1.35 1.36 1.36 0 0 0 1.35 1.35z"></path>
        <path d="m294.1 400.77a1.35 1.35 0 1 0 -1.35-1.35 1.36 1.36 0 0 0 1.35 1.35z"></path>
      </g>
      <g clip-path="url(#m)">
        <path d="m321.1 454.77a1.35 1.35 0 1 0 -1.35-1.35 1.35 1.35 0 0 0 1.35 1.35z"></path>
        <path d="m307.6 454.77a1.35 1.35 0 1 0 -1.35-1.35 1.35 1.35 0 0 0 1.35 1.35z"></path>
        <path d="m321.1 441.27a1.35 1.35 0 1 0 -1.35-1.35 1.35 1.35 0 0 0 1.35 1.35z"></path>
        <path d="m307.6 441.27a1.35 1.35 0 1 0 -1.35-1.35 1.35 1.35 0 0 0 1.35 1.35z"></path>
        <path d="m300.85 448a1.35 1.35 0 1 0 -1.35-1.35 1.35 1.35 0 0 0 1.35 1.35z"></path>
        <path d="m314.35 448a1.35 1.35 0 1 0 -1.35-1.35 1.35 1.35 0 0 0 1.35 1.35z"></path>
        <path d="m300.85 434.52a1.35 1.35 0 1 0 -1.35-1.35 1.35 1.35 0 0 0 1.35 1.35z"></path>
        <path d="m314.35 434.52a1.35 1.35 0 1 0 -1.35-1.35 1.35 1.35 0 0 0 1.35 1.35z"></path>
        <path d="m294.1 454.77a1.35 1.35 0 1 0 -1.35-1.35 1.35 1.35 0 0 0 1.35 1.35z"></path>
        <path d="m294.1 441.27a1.35 1.35 0 1 0 -1.35-1.35 1.35 1.35 0 0 0 1.35 1.35z"></path>
        <path d="m321.1 427.77a1.35 1.35 0 1 0 -1.35-1.35 1.35 1.35 0 0 0 1.35 1.35z"></path>
        <path d="m307.6 427.77a1.35 1.35 0 1 0 -1.35-1.35 1.35 1.35 0 0 0 1.35 1.35z"></path>
        <path d="m294.1 427.77a1.35 1.35 0 1 0 -1.35-1.35 1.35 1.35 0 0 0 1.35 1.35z"></path>
      </g>
      <g clip-path="url(#n)">
        <path d="m294.1 373.77a1.35 1.35 0 1 0 -1.35-1.35 1.36 1.36 0 0 0 1.35 1.35z"></path>
        <path d="m280.6 373.77a1.35 1.35 0 1 0 -1.35-1.35 1.36 1.36 0 0 0 1.35 1.35z"></path>
        <path d="m294.1 360.27a1.35 1.35 0 1 0 -1.35-1.35 1.36 1.36 0 0 0 1.35 1.35z"></path>
        <path d="m280.6 360.27a1.35 1.35 0 1 0 -1.35-1.35 1.36 1.36 0 0 0 1.35 1.35z"></path>
        <path d="m273.85 367a1.35 1.35 0 1 0 -1.35-1.35 1.36 1.36 0 0 0 1.35 1.35z"></path>
        <path d="m287.35 367a1.35 1.35 0 1 0 -1.35-1.35 1.36 1.36 0 0 0 1.35 1.35z"></path>
        <path d="m273.85 353.52a1.35 1.35 0 1 0 -1.35-1.35 1.36 1.36 0 0 0 1.35 1.35z"></path>
        <path d="m287.35 353.52a1.35 1.35 0 1 0 -1.35-1.35 1.36 1.36 0 0 0 1.35 1.35z"></path>
        <path d="m267.1 373.77a1.35 1.35 0 1 0 -1.35-1.35 1.36 1.36 0 0 0 1.35 1.35z"></path>
        <path d="m267.1 360.27a1.35 1.35 0 1 0 -1.35-1.35 1.36 1.36 0 0 0 1.35 1.35z"></path>
        <path d="m294.1 346.77a1.35 1.35 0 1 0 -1.35-1.35 1.36 1.36 0 0 0 1.35 1.35z"></path>
        <path d="m280.6 346.77a1.35 1.35 0 1 0 -1.35-1.35 1.36 1.36 0 0 0 1.35 1.35z"></path>
        <path d="m267.1 346.77a1.35 1.35 0 1 0 -1.35-1.35 1.36 1.36 0 0 0 1.35 1.35z"></path>
      </g>
      <g clip-path="url(#o)">
        <path d="m294.1 400.77a1.35 1.35 0 1 0 -1.35-1.35 1.36 1.36 0 0 0 1.35 1.35z"></path>
        <path d="m280.6 400.77a1.35 1.35 0 1 0 -1.35-1.35 1.36 1.36 0 0 0 1.35 1.35z"></path>
        <path d="m294.1 387.27a1.35 1.35 0 1 0 -1.35-1.35 1.36 1.36 0 0 0 1.35 1.35z"></path>
        <path d="m280.6 387.27a1.35 1.35 0 1 0 -1.35-1.35 1.36 1.36 0 0 0 1.35 1.35z"></path>
        <path d="m273.85 394a1.35 1.35 0 1 0 -1.35-1.35 1.35 1.35 0 0 0 1.35 1.35z"></path>
        <path d="m287.35 394a1.35 1.35 0 1 0 -1.35-1.35 1.35 1.35 0 0 0 1.35 1.35z"></path>
        <path d="m273.85 380.52a1.35 1.35 0 1 0 -1.35-1.35 1.35 1.35 0 0 0 1.35 1.35z"></path>
        <path d="m287.35 380.52a1.35 1.35 0 1 0 -1.35-1.35 1.35 1.35 0 0 0 1.35 1.35z"></path>
        <path d="m267.1 400.77a1.35 1.35 0 1 0 -1.35-1.35 1.36 1.36 0 0 0 1.35 1.35z"></path>
        <path d="m267.1 387.27a1.35 1.35 0 1 0 -1.35-1.35 1.36 1.36 0 0 0 1.35 1.35z"></path>
        <path d="m294.1 373.77a1.35 1.35 0 1 0 -1.35-1.35 1.36 1.36 0 0 0 1.35 1.35z"></path>
        <path d="m280.6 373.77a1.35 1.35 0 1 0 -1.35-1.35 1.36 1.36 0 0 0 1.35 1.35z"></path>
        <path d="m267.1 373.77a1.35 1.35 0 1 0 -1.35-1.35 1.36 1.36 0 0 0 1.35 1.35z"></path>
      </g>
      <g clip-path="url(#p)">
        <path d="m294.1 427.77a1.35 1.35 0 1 0 -1.35-1.35 1.35 1.35 0 0 0 1.35 1.35z"></path>
        <path d="m280.6 427.77a1.35 1.35 0 1 0 -1.35-1.35 1.35 1.35 0 0 0 1.35 1.35z"></path>
        <path d="m294.1 414.27a1.35 1.35 0 1 0 -1.35-1.35 1.35 1.35 0 0 0 1.35 1.35z"></path>
        <path d="m280.6 414.27a1.35 1.35 0 1 0 -1.35-1.35 1.35 1.35 0 0 0 1.35 1.35z"></path>
        <path d="m273.85 421a1.35 1.35 0 1 0 -1.35-1.35 1.35 1.35 0 0 0 1.35 1.35z"></path>
        <path d="m287.35 421a1.35 1.35 0 1 0 -1.35-1.35 1.35 1.35 0 0 0 1.35 1.35z"></path>
        <path d="m273.85 407.52a1.35 1.35 0 1 0 -1.35-1.35 1.35 1.35 0 0 0 1.35 1.35z"></path>
        <path d="m287.35 407.52a1.35 1.35 0 1 0 -1.35-1.35 1.35 1.35 0 0 0 1.35 1.35z"></path>
        <path d="m267.1 427.77a1.35 1.35 0 1 0 -1.35-1.35 1.35 1.35 0 0 0 1.35 1.35z"></path>
        <path d="m267.1 414.27a1.35 1.35 0 1 0 -1.35-1.35 1.35 1.35 0 0 0 1.35 1.35z"></path>
        <path d="m294.1 400.77a1.35 1.35 0 1 0 -1.35-1.35 1.36 1.36 0 0 0 1.35 1.35z"></path>
        <path d="m280.6 400.77a1.35 1.35 0 1 0 -1.35-1.35 1.36 1.36 0 0 0 1.35 1.35z"></path>
        <path d="m267.1 400.77a1.35 1.35 0 1 0 -1.35-1.35 1.36 1.36 0 0 0 1.35 1.35z"></path>
      </g>
      <g clip-path="url(#q)">
        <path d="m294.1 454.77a1.35 1.35 0 1 0 -1.35-1.35 1.35 1.35 0 0 0 1.35 1.35z"></path>
        <path d="m280.6 454.77a1.35 1.35 0 1 0 -1.35-1.35 1.35 1.35 0 0 0 1.35 1.35z"></path>
        <path d="m294.1 441.27a1.35 1.35 0 1 0 -1.35-1.35 1.35 1.35 0 0 0 1.35 1.35z"></path>
        <path d="m280.6 441.27a1.35 1.35 0 1 0 -1.35-1.35 1.35 1.35 0 0 0 1.35 1.35z"></path>
        <path d="m273.85 448a1.35 1.35 0 1 0 -1.35-1.35 1.35 1.35 0 0 0 1.35 1.35z"></path>
        <path d="m287.35 448a1.35 1.35 0 1 0 -1.35-1.35 1.35 1.35 0 0 0 1.35 1.35z"></path>
        <path d="m273.85 434.52a1.35 1.35 0 1 0 -1.35-1.35 1.35 1.35 0 0 0 1.35 1.35z"></path>
        <path d="m287.35 434.52a1.35 1.35 0 1 0 -1.35-1.35 1.35 1.35 0 0 0 1.35 1.35z"></path>
        <path d="m267.1 454.77a1.35 1.35 0 1 0 -1.35-1.35 1.35 1.35 0 0 0 1.35 1.35z"></path>
        <path d="m267.1 441.27a1.35 1.35 0 1 0 -1.35-1.35 1.35 1.35 0 0 0 1.35 1.35z"></path>
        <path d="m294.1 427.77a1.35 1.35 0 1 0 -1.35-1.35 1.35 1.35 0 0 0 1.35 1.35z"></path>
        <path d="m280.6 427.77a1.35 1.35 0 1 0 -1.35-1.35 1.35 1.35 0 0 0 1.35 1.35z"></path>
        <path d="m267.1 427.77a1.35 1.35 0 1 0 -1.35-1.35 1.35 1.35 0 0 0 1.35 1.35z"></path>
      </g>
    </g>
  </g>
</svg>
