<?xml version="1.0" encoding="UTF-8"?>
<svg xmlns="http://www.w3.org/2000/svg" id="Layer_1" data-name="Layer 1" viewBox="0 0 600 600">
  <defs>
    <style>.cls-1,.cls-6{fill:#fff;}.cls-2{fill:#ffde00;}.cls-2,.cls-3,.cls-6,.cls-7,.cls-8,.cls-9{stroke:#1c19a8;stroke-linejoin:round;stroke-width:2.82px;}.cls-3,.cls-5{fill:#fb715d;}.cls-4,.cls-9{fill:#1c19a8;}.cls-5{fill-rule:evenodd;}.cls-7{fill:#00ab81;}.cls-8{fill:none;}</style>
  </defs>
  <title>Shop_</title>
  <rect class="cls-1" x="107.96" y="207.02" width="416.42" height="280.29"></rect>
  <rect class="cls-2" x="427.68" y="289.37" width="8.2" height="9.8"></rect>
  <line class="cls-2" x1="431.78" y1="289.37" x2="431.78" y2="233.58"></line>
  <path class="cls-3" d="M420,299.17h23.56a7.85,7.85,0,0,1,7.85,7.85v0a0,0,0,0,1,0,0H412.15a0,0,0,0,1,0,0v0a7.85,7.85,0,0,1,7.85-7.85Z"></path>
  <rect class="cls-2" x="249.39" y="289.37" width="8.2" height="9.8"></rect>
  <line class="cls-2" x1="253.49" y1="289.37" x2="253.49" y2="233.58"></line>
  <path class="cls-3" d="M241.71,299.17h23.56a7.85,7.85,0,0,1,7.85,7.85v0a0,0,0,0,1,0,0H233.86a0,0,0,0,1,0,0v0A7.85,7.85,0,0,1,241.71,299.17Z"></path>
  <rect class="cls-2" x="148.33" y="289.37" width="8.2" height="9.8"></rect>
  <line class="cls-2" x1="152.43" y1="289.37" x2="152.43" y2="233.58"></line>
  <path class="cls-3" d="M140.65,299.17h23.56a7.85,7.85,0,0,1,7.85,7.85v0a0,0,0,0,1,0,0H132.8a0,0,0,0,1,0,0v0A7.85,7.85,0,0,1,140.65,299.17Z"></path>
  <path class="cls-4" d="M469.24,361.81v21.05a1.41,1.41,0,0,0,1.4,1.41h9.63l-5.71,29.27a1.41,1.41,0,0,0,1.38,1.68h7.39a1.41,1.41,0,0,0,1.38-1.14l5.82-29.81h22.39a1.41,1.41,0,0,0,1.41-1.41V361.81a1.41,1.41,0,0,0-1.41-1.41H495.2l3.56-18.23h13.46a1.41,1.41,0,0,0,1.41-1.41V319.71a1.41,1.41,0,0,0-1.41-1.4h-8.79l8.74-44.8a1.41,1.41,0,0,0-1.11-1.65l-7.12-1.39a1.41,1.41,0,0,0-1.65,1.11l-9.12,46.73H480a1.41,1.41,0,0,0-1.41,1.4v21.05a1.41,1.41,0,0,0,1.41,1.41h8.47l-3.56,18.23h-14.3A1.41,1.41,0,0,0,469.24,361.81Z"></path>
  <path class="cls-5" d="M357.34,394.84a.43.43,0,0,0-.32.47v2.28a.43.43,0,0,0,.36.47h.09a1.6,1.6,0,0,1-.32.62,5,5,0,0,1-1,.85A5.12,5.12,0,0,0,355,400.6a3.31,3.31,0,0,0-.6,1.91h0v10.67a1.86,1.86,0,0,0,1.58,2h8.41a1.86,1.86,0,0,0,1.57-2V402.54h0a3.36,3.36,0,0,0-.58-1.91,5.4,5.4,0,0,0-1.14-1.07,6,6,0,0,1-1-.86,1.71,1.71,0,0,1-.32-.63h.12a.43.43,0,0,0,.36-.47l0-2.28a.54.54,0,0,0-.1-.33.33.33,0,0,0-.26-.14h-5.79Z"></path>
  <path class="cls-4" d="M364.43,416.32H356a2.94,2.94,0,0,1-2.68-3.13V402.52a4.51,4.51,0,0,1,.81-2.57,6,6,0,0,1,1.36-1.3c.18-.13.37-.27.54-.42a1.5,1.5,0,0,1-.13-.64v-2.28a1.51,1.51,0,0,1,1.26-1.55l.16,0h5.79a1.43,1.43,0,0,1,1.13.57,1.65,1.65,0,0,1,.33,1v2.26a1.58,1.58,0,0,1-.14.65,5.85,5.85,0,0,0,.47.4,6.32,6.32,0,0,1,1.4,1.33,4.45,4.45,0,0,1,.79,2.54v10.67A2.94,2.94,0,0,1,364.43,416.32Zm-6.31-19.12a1.45,1.45,0,0,1,.17.18,1.11,1.11,0,0,1,.25.94,2.51,2.51,0,0,1-.53,1,6.05,6.05,0,0,1-1.18,1.05,4.21,4.21,0,0,0-.9.83,2.2,2.2,0,0,0-.39,1.29v10.66c0,.57.32.92.48.92h8.41c.16,0,.47-.35.47-.92V402.54a2.23,2.23,0,0,0-.38-1.28,4,4,0,0,0-.91-.84,6.3,6.3,0,0,1-1.17-1.06,2.67,2.67,0,0,1-.52-1.06,1.11,1.11,0,0,1,.22-.93,1.31,1.31,0,0,1,.24-.23v-1.2h-4.27Zm4.26.39Zm-5-.64Zm5-1.64h0Zm-4.27,0v0Z"></path>
  <path class="cls-5" d="M368.47,394.84a.45.45,0,0,0-.32.47v2.28a.43.43,0,0,0,.36.47h.09a1.6,1.6,0,0,1-.32.62,4.87,4.87,0,0,1-1,.85,5,5,0,0,0-1.14,1.07,3.31,3.31,0,0,0-.6,1.91h0v10.67a1.86,1.86,0,0,0,1.58,2h8.41a1.86,1.86,0,0,0,1.58-2V402.54h0a3.44,3.44,0,0,0-.59-1.91,5.17,5.17,0,0,0-1.14-1.07,6,6,0,0,1-1-.86,1.55,1.55,0,0,1-.31-.63h.11a.43.43,0,0,0,.37-.47v-2.28a.54.54,0,0,0-.1-.33.33.33,0,0,0-.26-.14h-5.79Z"></path>
  <path class="cls-4" d="M375.56,416.32h-8.41a2.94,2.94,0,0,1-2.68-3.13V402.52a4.51,4.51,0,0,1,.81-2.57,5.84,5.84,0,0,1,1.37-1.3c.17-.13.37-.27.53-.42a1.5,1.5,0,0,1-.13-.64v-2.28a1.51,1.51,0,0,1,1.27-1.55l.15,0h5.79a1.43,1.43,0,0,1,1.13.57,1.59,1.59,0,0,1,.33,1v2.26a1.58,1.58,0,0,1-.14.65,4.63,4.63,0,0,0,.48.4,6.3,6.3,0,0,1,1.39,1.33,4.46,4.46,0,0,1,.8,2.54v10.67A2.94,2.94,0,0,1,375.56,416.32Zm-6.31-19.12.18.18a1.11,1.11,0,0,1,.24.94,2.51,2.51,0,0,1-.53,1,5.77,5.77,0,0,1-1.18,1.05,4.21,4.21,0,0,0-.9.83,2.27,2.27,0,0,0-.39,1.29v10.66c0,.57.32.92.48.92h8.41c.16,0,.47-.35.47-.92V402.54a2.15,2.15,0,0,0-.38-1.28,4.22,4.22,0,0,0-.9-.84,6.36,6.36,0,0,1-1.18-1.06,2.81,2.81,0,0,1-.52-1.06,1.11,1.11,0,0,1,.22-.93,1.31,1.31,0,0,1,.24-.23v-1.2h-4.27Zm4.26.39Zm-5-.64Zm5-1.64h0Zm-4.27,0v0Z"></path>
  <path class="cls-5" d="M379.6,394.84a.45.45,0,0,0-.32.47v2.28a.43.43,0,0,0,.36.47h.1a1.6,1.6,0,0,1-.32.62,5.26,5.26,0,0,1-1,.85,5.16,5.16,0,0,0-1.14,1.07,3.31,3.31,0,0,0-.59,1.91h0v10.67a1.86,1.86,0,0,0,1.57,2h8.41a1.86,1.86,0,0,0,1.58-2V402.54h0a3.28,3.28,0,0,0-.59-1.91,5.37,5.37,0,0,0-1.13-1.07,5.72,5.72,0,0,1-1-.86,1.69,1.69,0,0,1-.31-.63h.12a.43.43,0,0,0,.36-.47l0-2.28a.55.55,0,0,0-.11-.33.33.33,0,0,0-.26-.14H379.6Z"></path>
  <path class="cls-4" d="M386.69,416.32h-8.41a2.94,2.94,0,0,1-2.67-3.13V402.52a4.43,4.43,0,0,1,.8-2.57,6,6,0,0,1,1.37-1.3c.17-.13.37-.27.53-.42a1.66,1.66,0,0,1-.13-.64v-2.28a1.52,1.52,0,0,1,1.27-1.55l.15,0h5.8a1.43,1.43,0,0,1,1.12.57,1.59,1.59,0,0,1,.33,1v2.26a1.58,1.58,0,0,1-.14.65,4.63,4.63,0,0,0,.48.4,6.3,6.3,0,0,1,1.39,1.33,4.46,4.46,0,0,1,.8,2.54v10.67A2.94,2.94,0,0,1,386.69,416.32Zm-6.31-19.12a1,1,0,0,1,.18.18,1.11,1.11,0,0,1,.25.94,2.78,2.78,0,0,1-.53,1,6.36,6.36,0,0,1-1.18,1.05,4.27,4.27,0,0,0-.91.83,2.21,2.21,0,0,0-.38,1.29v10.66c0,.57.31.92.47.92h8.41c.16,0,.48-.35.48-.92V402.54a2.23,2.23,0,0,0-.39-1.28,4,4,0,0,0-.9-.84,6,6,0,0,1-1.17-1.06,2.81,2.81,0,0,1-.53-1.06,1.11,1.11,0,0,1,.22-.93,1.31,1.31,0,0,1,.24-.23v-1.2h-4.27Zm4.26.39Zm-5-.64h0Zm5-1.64h0Zm-4.27,0v0Z"></path>
  <path class="cls-5" d="M403.12,394.84a.45.45,0,0,0-.32.47v2.28a.43.43,0,0,0,.36.47h.1a1.6,1.6,0,0,1-.32.62,5.26,5.26,0,0,1-1,.85,5.16,5.16,0,0,0-1.14,1.07,3.31,3.31,0,0,0-.59,1.91h0v10.67a1.86,1.86,0,0,0,1.57,2h8.41a1.86,1.86,0,0,0,1.58-2V402.54h0a3.28,3.28,0,0,0-.59-1.91,5.37,5.37,0,0,0-1.13-1.07,5.72,5.72,0,0,1-1-.86,1.69,1.69,0,0,1-.31-.63h.12a.43.43,0,0,0,.36-.47l0-2.28a.55.55,0,0,0-.11-.33.33.33,0,0,0-.26-.14h-5.79Z"></path>
  <path class="cls-4" d="M410.21,416.32H401.8a2.94,2.94,0,0,1-2.67-3.13V402.52a4.43,4.43,0,0,1,.8-2.57,6,6,0,0,1,1.37-1.3c.17-.13.37-.27.53-.42a1.66,1.66,0,0,1-.13-.64v-2.28a1.52,1.52,0,0,1,1.27-1.55l.15,0h5.8a1.43,1.43,0,0,1,1.12.57,1.59,1.59,0,0,1,.33,1v2.26a1.58,1.58,0,0,1-.14.65,4.63,4.63,0,0,0,.48.4,6.3,6.3,0,0,1,1.39,1.33,4.46,4.46,0,0,1,.8,2.54v10.67A2.94,2.94,0,0,1,410.21,416.32ZM403.9,397.2a1,1,0,0,1,.18.18,1.11,1.11,0,0,1,.25.94,2.78,2.78,0,0,1-.53,1,6.36,6.36,0,0,1-1.18,1.05,4.27,4.27,0,0,0-.91.83,2.21,2.21,0,0,0-.38,1.29v10.66c0,.57.31.92.47.92h8.41c.16,0,.48-.35.48-.92V402.54a2.3,2.3,0,0,0-.38-1.28,4.27,4.27,0,0,0-.91-.84,6,6,0,0,1-1.17-1.06,2.67,2.67,0,0,1-.52-1.06,1.07,1.07,0,0,1,.21-.93,1.31,1.31,0,0,1,.24-.23v-1.2H403.9Zm4.26.39Zm-5-.64h0Zm5-1.64h0Zm-4.27,0v0Z"></path>
  <path class="cls-5" d="M426.73,394.84a.45.45,0,0,0-.33.47v2.28a.43.43,0,0,0,.37.47h.09a1.6,1.6,0,0,1-.32.62,5,5,0,0,1-1,.85,5.12,5.12,0,0,0-1.13,1.07,3.31,3.31,0,0,0-.6,1.91h0v10.67a1.86,1.86,0,0,0,1.58,2h8.41a1.86,1.86,0,0,0,1.57-2V402.54h0a3.36,3.36,0,0,0-.58-1.91,5.4,5.4,0,0,0-1.14-1.07,6,6,0,0,1-1-.86,1.71,1.71,0,0,1-.32-.63h.12a.43.43,0,0,0,.36-.47l0-2.28a.61.61,0,0,0-.1-.33.33.33,0,0,0-.26-.14h-5.79Z"></path>
  <path class="cls-4" d="M433.82,416.32h-8.41a2.94,2.94,0,0,1-2.68-3.13V402.52a4.51,4.51,0,0,1,.81-2.57,6,6,0,0,1,1.36-1.3c.18-.13.37-.27.54-.42a1.5,1.5,0,0,1-.13-.64v-2.28a1.51,1.51,0,0,1,1.26-1.55l.16,0h5.79a1.43,1.43,0,0,1,1.13.57,1.65,1.65,0,0,1,.33,1v2.26a1.58,1.58,0,0,1-.14.65,5.85,5.85,0,0,0,.47.4,6.32,6.32,0,0,1,1.4,1.33,4.45,4.45,0,0,1,.79,2.54v10.67A2.94,2.94,0,0,1,433.82,416.32Zm-6.31-19.12a1.45,1.45,0,0,1,.17.18,1.11,1.11,0,0,1,.25.94,2.51,2.51,0,0,1-.53,1,6.05,6.05,0,0,1-1.18,1.05,4.21,4.21,0,0,0-.9.83,2.2,2.2,0,0,0-.39,1.29v10.66c0,.57.31.92.48.92h8.41c.16,0,.47-.35.47-.92V402.54a2.23,2.23,0,0,0-.38-1.28,4,4,0,0,0-.91-.84,6.3,6.3,0,0,1-1.17-1.06,2.67,2.67,0,0,1-.52-1.06,1.11,1.11,0,0,1,.22-.93,1.31,1.31,0,0,1,.24-.23v-1.2h-4.27Zm4.25.39Zm-5-.64Zm5-1.64h0Zm-4.27,0v0Z"></path>
  <path class="cls-5" d="M477.34,394.84a.45.45,0,0,0-.33.47v2.28a.43.43,0,0,0,.37.47h.09a1.6,1.6,0,0,1-.32.62,5,5,0,0,1-1,.85A5.12,5.12,0,0,0,475,400.6a3.31,3.31,0,0,0-.6,1.91h0v10.67a1.86,1.86,0,0,0,1.58,2h8.41a1.86,1.86,0,0,0,1.57-2V402.54h0a3.36,3.36,0,0,0-.58-1.91,5.4,5.4,0,0,0-1.14-1.07,6,6,0,0,1-1-.86,1.71,1.71,0,0,1-.32-.63h.12a.43.43,0,0,0,.36-.47l0-2.28a.61.61,0,0,0-.1-.33.33.33,0,0,0-.26-.14h-5.79Z"></path>
  <path class="cls-4" d="M484.43,416.32H476a2.94,2.94,0,0,1-2.68-3.13V402.52a4.51,4.51,0,0,1,.81-2.57,6,6,0,0,1,1.36-1.3c.18-.13.37-.27.54-.42a1.5,1.5,0,0,1-.13-.64v-2.28a1.51,1.51,0,0,1,1.26-1.55l.16,0h5.79a1.43,1.43,0,0,1,1.13.57,1.65,1.65,0,0,1,.33,1l0,2.26a1.57,1.57,0,0,1-.13.65,5.85,5.85,0,0,0,.47.4,6.32,6.32,0,0,1,1.4,1.33,4.45,4.45,0,0,1,.79,2.54v10.67A2.94,2.94,0,0,1,484.43,416.32Zm-6.31-19.12a1.45,1.45,0,0,1,.17.18,1.11,1.11,0,0,1,.25.94,2.51,2.51,0,0,1-.53,1,6.05,6.05,0,0,1-1.18,1.05,4.21,4.21,0,0,0-.9.83,2.2,2.2,0,0,0-.39,1.29v10.66c0,.57.31.92.48.92h8.41c.16,0,.47-.35.47-.92V402.54a2.23,2.23,0,0,0-.38-1.28,4,4,0,0,0-.91-.84,6.3,6.3,0,0,1-1.17-1.06,2.67,2.67,0,0,1-.52-1.06,1.11,1.11,0,0,1,.22-.93,1.31,1.31,0,0,1,.24-.23v-1.2h-4.27Zm4.25.39Zm-5-.64Zm5-1.64h0Zm-4.27,0v0Z"></path>
  <path class="cls-5" d="M488.9,394.84a.43.43,0,0,0-.32.47v2.28a.43.43,0,0,0,.36.47H489a1.6,1.6,0,0,1-.32.62,5,5,0,0,1-1,.85,5.12,5.12,0,0,0-1.13,1.07,3.31,3.31,0,0,0-.6,1.91h0v10.67a1.86,1.86,0,0,0,1.58,2H496a1.86,1.86,0,0,0,1.57-2V402.54h0a3.36,3.36,0,0,0-.58-1.91,5.4,5.4,0,0,0-1.14-1.07,6,6,0,0,1-1-.86,1.71,1.71,0,0,1-.32-.63h.12a.43.43,0,0,0,.36-.47l0-2.28a.61.61,0,0,0-.1-.33.33.33,0,0,0-.26-.14H488.9Z"></path>
  <path class="cls-4" d="M496,416.32h-8.41a2.94,2.94,0,0,1-2.68-3.13V402.52a4.51,4.51,0,0,1,.81-2.57,6,6,0,0,1,1.36-1.3c.18-.13.37-.27.54-.42a1.5,1.5,0,0,1-.13-.64v-2.28a1.51,1.51,0,0,1,1.26-1.55l.16,0h5.79a1.43,1.43,0,0,1,1.13.57,1.65,1.65,0,0,1,.33,1v2.26a1.58,1.58,0,0,1-.14.65,5.85,5.85,0,0,0,.47.4,6.32,6.32,0,0,1,1.4,1.33,4.45,4.45,0,0,1,.79,2.54v10.67A2.94,2.94,0,0,1,496,416.32Zm-6.31-19.12a1.45,1.45,0,0,1,.17.18,1.11,1.11,0,0,1,.25.94,2.51,2.51,0,0,1-.53,1,6.05,6.05,0,0,1-1.18,1.05,4.21,4.21,0,0,0-.9.83,2.2,2.2,0,0,0-.39,1.29v10.66c0,.57.32.92.48.92H496c.16,0,.47-.35.47-.92V402.54a2.23,2.23,0,0,0-.38-1.28,4,4,0,0,0-.91-.84,6.3,6.3,0,0,1-1.17-1.06,2.67,2.67,0,0,1-.52-1.06,1.11,1.11,0,0,1,.22-.93,1.31,1.31,0,0,1,.24-.23v-1.2h-4.27Zm4.26.39Zm-5-.64Zm5-1.64h0Zm-4.27,0v0Z"></path>
  <rect class="cls-3" x="165.1" y="319.43" width="75.98" height="159.91"></rect>
  <rect class="cls-2" x="514.3" y="233.58" width="10" height="245.14"></rect>
  <rect class="cls-6" x="128.13" y="366.39" width="149.91" height="65.98" transform="translate(602.47 196.3) rotate(90)"></rect>
  <rect class="cls-7" x="288.39" y="479.34" width="57.09" height="12.01"></rect>
  <rect class="cls-7" x="64.1" y="479.34" width="57.09" height="12.01"></rect>
  <rect class="cls-7" x="345.49" y="479.34" width="189.91" height="12.01"></rect>
  <rect class="cls-7" x="121.2" y="479.34" width="167.2" height="12.01"></rect>
  <rect class="cls-2" x="295.85" y="233.58" width="43.75" height="181.4"></rect>
  <rect class="cls-7" x="57.66" y="189.33" width="484.68" height="44.25"></rect>
  <rect class="cls-2" x="295.85" y="244.02" width="10.3" height="17.1"></rect>
  <rect class="cls-2" x="329.3" y="244.02" width="10.3" height="17.1"></rect>
  <rect class="cls-2" x="306.15" y="244.02" width="23.15" height="17.1"></rect>
  <rect class="cls-2" x="295.85" y="261.12" width="21.87" height="17.1"></rect>
  <rect class="cls-2" x="317.72" y="261.12" width="21.87" height="17.1"></rect>
  <rect class="cls-2" x="295.85" y="278.21" width="10.3" height="17.1"></rect>
  <rect class="cls-2" x="329.3" y="278.21" width="10.3" height="17.1"></rect>
  <rect class="cls-2" x="306.15" y="278.21" width="23.15" height="17.1"></rect>
  <rect class="cls-2" x="295.85" y="295.31" width="21.87" height="17.1"></rect>
  <rect class="cls-2" x="317.72" y="295.31" width="21.87" height="17.1"></rect>
  <rect class="cls-2" x="295.85" y="312.4" width="10.3" height="17.1"></rect>
  <rect class="cls-2" x="329.3" y="312.4" width="10.3" height="17.1"></rect>
  <rect class="cls-2" x="306.15" y="312.4" width="23.15" height="17.1"></rect>
  <rect class="cls-2" x="295.85" y="329.5" width="21.87" height="17.1"></rect>
  <rect class="cls-2" x="317.72" y="329.5" width="21.87" height="17.1"></rect>
  <rect class="cls-2" x="295.85" y="346.59" width="10.3" height="17.1"></rect>
  <rect class="cls-2" x="329.3" y="346.59" width="10.3" height="17.1"></rect>
  <rect class="cls-2" x="306.15" y="346.59" width="23.15" height="17.1"></rect>
  <rect class="cls-2" x="295.85" y="363.69" width="21.87" height="17.1"></rect>
  <rect class="cls-2" x="317.72" y="363.69" width="21.87" height="17.1"></rect>
  <rect class="cls-2" x="295.85" y="380.79" width="10.3" height="17.1"></rect>
  <rect class="cls-2" x="329.3" y="380.79" width="10.3" height="17.1"></rect>
  <rect class="cls-2" x="306.15" y="380.79" width="23.15" height="17.1"></rect>
  <rect class="cls-2" x="295.85" y="397.88" width="21.87" height="17.1"></rect>
  <rect class="cls-2" x="317.72" y="397.88" width="21.87" height="17.1"></rect>
  <rect class="cls-2" x="295.85" y="414.98" width="10.3" height="17.1"></rect>
  <rect class="cls-2" x="329.3" y="414.98" width="10.3" height="17.1"></rect>
  <rect class="cls-2" x="306.15" y="414.98" width="23.15" height="17.1"></rect>
  <rect class="cls-2" x="295.85" y="432.07" width="21.87" height="17.1"></rect>
  <rect class="cls-2" x="317.72" y="432.07" width="21.87" height="17.1"></rect>
  <rect class="cls-2" x="295.85" y="449.17" width="10.3" height="17.1"></rect>
  <rect class="cls-2" x="329.3" y="449.17" width="10.3" height="17.1"></rect>
  <rect class="cls-2" x="306.15" y="449.17" width="23.15" height="17.1"></rect>
  <rect class="cls-2" x="295.85" y="466.26" width="43.92" height="12.48"></rect>
  <rect class="cls-2" x="347.05" y="444.53" width="21.87" height="17.1"></rect>
  <rect class="cls-2" x="368.93" y="444.53" width="21.87" height="17.1"></rect>
  <rect class="cls-2" x="390.8" y="444.53" width="21.87" height="17.1"></rect>
  <rect class="cls-2" x="412.68" y="444.53" width="21.87" height="17.1"></rect>
  <rect class="cls-2" x="434.55" y="444.53" width="21.87" height="17.1"></rect>
  <rect class="cls-2" x="456.43" y="444.53" width="21.87" height="17.1"></rect>
  <rect class="cls-2" x="478.3" y="444.53" width="21.87" height="17.1"></rect>
  <rect class="cls-2" x="500.18" y="444.53" width="24.42" height="17.1"></rect>
  <rect class="cls-2" x="347.05" y="461.63" width="10.3" height="17.1"></rect>
  <rect class="cls-2" x="380.5" y="461.63" width="10.3" height="17.1"></rect>
  <rect class="cls-2" x="357.36" y="461.63" width="23.15" height="17.1"></rect>
  <rect class="cls-2" x="413.95" y="461.63" width="10.3" height="17.1"></rect>
  <rect class="cls-2" x="390.8" y="461.63" width="23.15" height="17.1"></rect>
  <rect class="cls-2" x="447.4" y="461.63" width="10.3" height="17.1"></rect>
  <rect class="cls-2" x="424.25" y="461.63" width="23.15" height="17.1"></rect>
  <rect class="cls-2" x="480.85" y="461.63" width="10.3" height="17.1"></rect>
  <rect class="cls-2" x="457.7" y="461.63" width="23.15" height="17.1"></rect>
  <rect class="cls-2" x="514.3" y="461.63" width="10.3" height="17.1"></rect>
  <rect class="cls-2" x="491.15" y="461.63" width="23.15" height="17.1"></rect>
  <rect class="cls-2" x="347.05" y="427.44" width="10.3" height="17.1"></rect>
  <rect class="cls-2" x="380.5" y="427.44" width="10.3" height="17.1"></rect>
  <rect class="cls-2" x="357.36" y="427.44" width="23.15" height="17.1"></rect>
  <rect class="cls-2" x="413.95" y="427.44" width="10.3" height="17.1"></rect>
  <rect class="cls-2" x="390.8" y="427.44" width="23.15" height="17.1"></rect>
  <rect class="cls-2" x="447.4" y="427.44" width="10.3" height="17.1"></rect>
  <rect class="cls-2" x="424.25" y="427.44" width="23.15" height="17.1"></rect>
  <rect class="cls-2" x="480.85" y="427.44" width="10.3" height="17.1"></rect>
  <rect class="cls-2" x="457.7" y="427.44" width="23.15" height="17.1"></rect>
  <rect class="cls-2" x="514.3" y="427.44" width="10.3" height="17.1"></rect>
  <rect class="cls-2" x="491.15" y="427.44" width="23.15" height="17.1"></rect>
  <rect class="cls-2" x="70.69" y="233.58" width="43.75" height="181.4"></rect>
  <rect class="cls-2" x="70.69" y="244.02" width="10.3" height="17.1"></rect>
  <rect class="cls-2" x="104.14" y="244.02" width="10.3" height="17.1"></rect>
  <rect class="cls-2" x="80.99" y="244.02" width="23.15" height="17.1"></rect>
  <rect class="cls-2" x="70.69" y="261.12" width="21.87" height="17.1"></rect>
  <rect class="cls-2" x="92.56" y="261.12" width="21.87" height="17.1"></rect>
  <rect class="cls-2" x="70.69" y="278.21" width="10.3" height="17.1"></rect>
  <rect class="cls-2" x="104.14" y="278.21" width="10.3" height="17.1"></rect>
  <rect class="cls-2" x="80.99" y="278.21" width="23.15" height="17.1"></rect>
  <rect class="cls-2" x="70.69" y="295.31" width="21.87" height="17.1"></rect>
  <rect class="cls-2" x="92.56" y="295.31" width="21.87" height="17.1"></rect>
  <rect class="cls-2" x="70.69" y="312.4" width="10.3" height="17.1"></rect>
  <rect class="cls-2" x="104.14" y="312.4" width="10.3" height="17.1"></rect>
  <rect class="cls-2" x="80.99" y="312.4" width="23.15" height="17.1"></rect>
  <rect class="cls-2" x="70.69" y="329.5" width="21.87" height="17.1"></rect>
  <rect class="cls-2" x="92.56" y="329.5" width="21.87" height="17.1"></rect>
  <rect class="cls-2" x="70.69" y="346.59" width="10.3" height="17.1"></rect>
  <rect class="cls-2" x="104.14" y="346.59" width="10.3" height="17.1"></rect>
  <rect class="cls-2" x="80.99" y="346.59" width="23.15" height="17.1"></rect>
  <rect class="cls-2" x="70.69" y="363.69" width="21.87" height="17.1"></rect>
  <rect class="cls-2" x="92.56" y="363.69" width="21.87" height="17.1"></rect>
  <rect class="cls-2" x="70.69" y="380.79" width="10.3" height="17.1"></rect>
  <rect class="cls-2" x="104.14" y="380.79" width="10.3" height="17.1"></rect>
  <rect class="cls-2" x="80.99" y="380.79" width="23.15" height="17.1"></rect>
  <rect class="cls-2" x="70.69" y="397.88" width="21.87" height="17.1"></rect>
  <rect class="cls-2" x="92.56" y="397.88" width="21.87" height="17.1"></rect>
  <rect class="cls-2" x="70.69" y="414.98" width="10.3" height="17.1"></rect>
  <rect class="cls-2" x="104.14" y="414.98" width="10.3" height="17.1"></rect>
  <rect class="cls-2" x="80.99" y="414.98" width="23.15" height="17.1"></rect>
  <rect class="cls-2" x="70.69" y="432.07" width="21.87" height="17.1"></rect>
  <rect class="cls-2" x="92.56" y="432.07" width="21.87" height="17.1"></rect>
  <rect class="cls-2" x="70.69" y="449.17" width="10.34" height="17.1"></rect>
  <rect class="cls-2" x="104.27" y="449.17" width="10.34" height="17.1"></rect>
  <rect class="cls-2" x="81.03" y="449.17" width="23.24" height="17.1"></rect>
  <rect class="cls-2" x="70.69" y="466.26" width="43.92" height="12.48"></rect>
  <rect class="cls-2" x="288.39" y="233.58" width="7.46" height="245.63"></rect>
  <rect class="cls-2" x="339.6" y="233.58" width="7.46" height="245.63"></rect>
  <rect class="cls-2" x="347.05" y="414.98" width="182.92" height="15.34"></rect>
  <line class="cls-8" x1="347.05" y1="233.58" x2="347.05" y2="414.98"></line>
  <line class="cls-8" x1="371.35" y1="233.58" x2="371.35" y2="414.98"></line>
  <line class="cls-8" x1="395.65" y1="233.58" x2="395.65" y2="414.98"></line>
  <line class="cls-8" x1="419.96" y1="233.58" x2="419.96" y2="414.98"></line>
  <line class="cls-8" x1="444.26" y1="233.58" x2="444.26" y2="414.98"></line>
  <line class="cls-8" x1="468.56" y1="233.58" x2="468.56" y2="414.98"></line>
  <line class="cls-8" x1="492.86" y1="233.58" x2="492.86" y2="414.98"></line>
  <line class="cls-8" x1="514.3" y1="383.13" x2="347.05" y2="383.13"></line>
  <line class="cls-8" x1="514.3" y1="351.28" x2="347.05" y2="351.28"></line>
  <line class="cls-8" x1="514.3" y1="319.43" x2="347.05" y2="319.43"></line>
  <line class="cls-8" x1="514.3" y1="287.58" x2="347.05" y2="287.58"></line>
  <line class="cls-8" x1="514.3" y1="255.73" x2="347.05" y2="255.73"></line>
  <line class="cls-8" x1="139.77" y1="233.58" x2="139.77" y2="459.34"></line>
  <line class="cls-8" x1="165.1" y1="233.58" x2="165.1" y2="319.43"></line>
  <line class="cls-8" x1="190.43" y1="233.58" x2="190.43" y2="459.34"></line>
  <line class="cls-8" x1="215.75" y1="233.58" x2="215.75" y2="459.34"></line>
  <line class="cls-8" x1="241.08" y1="233.58" x2="241.08" y2="319.43"></line>
  <line class="cls-8" x1="266.41" y1="233.58" x2="266.41" y2="459.34"></line>
  <line class="cls-8" x1="288.77" y1="383.13" x2="114.44" y2="383.13"></line>
  <line class="cls-8" x1="288.77" y1="408.75" x2="114.44" y2="408.75"></line>
  <line class="cls-8" x1="288.77" y1="434.37" x2="114.44" y2="434.37"></line>
  <line class="cls-8" x1="288.77" y1="351.28" x2="114.44" y2="351.28"></line>
  <line class="cls-8" x1="288.77" y1="319.43" x2="114.44" y2="319.43"></line>
  <line class="cls-8" x1="288.77" y1="287.58" x2="114.44" y2="287.58"></line>
  <line class="cls-8" x1="288.77" y1="255.73" x2="114.44" y2="255.73"></line>
  <rect class="cls-8" x="165.1" y="319.43" width="75.98" height="159.91"></rect>
  <rect class="cls-2" x="241.07" y="459.34" width="47.32" height="19.99"></rect>
  <rect class="cls-2" x="114.61" y="459.34" width="48.8" height="19.99"></rect>
  <rect class="cls-3" x="163.41" y="459.34" width="77.67" height="19.99"></rect>
  <rect class="cls-9" x="182.39" y="466.22" width="39.7" height="6.24"></rect>
  <rect class="cls-3" x="165.1" y="389.33" width="9.76" height="28.89"></rect>
  <rect class="cls-4" x="291.78" y="452.8" width="70.63" height="6.35" transform="translate(721.73 57.03) rotate(80.34)"></rect>
  <path class="cls-4" d="M329.88,492.77a1.43,1.43,0,0,1-.84-.27,1.48,1.48,0,0,1-.59-.94L316.6,421.94a1.47,1.47,0,0,1,.25-1.08,1.4,1.4,0,0,1,.94-.59l6.27-1.07a1.45,1.45,0,0,1,1.08.25,1.48,1.48,0,0,1,.59.93L337.58,490a1.45,1.45,0,0,1-1.19,1.67l-6.27,1.07Zm-10.17-69.89,11.36,66.77,3.4-.58L323.11,422.3Z"></path>
  <rect class="cls-4" x="273.05" y="452.8" width="70.63" height="6.35" transform="translate(809.6 228.47) rotate(99.66)"></rect>
  <path class="cls-4" d="M305.57,492.77l-.24,0-6.27-1.07a1.4,1.4,0,0,1-.94-.59,1.47,1.47,0,0,1-.25-1.08l11.85-69.63a1.44,1.44,0,0,1,1.67-1.18l6.27,1.07a1.4,1.4,0,0,1,.94.59,1.47,1.47,0,0,1,.25,1.08L307,491.56A1.46,1.46,0,0,1,305.57,492.77Zm-4.59-3.7,3.4.58,11.37-66.77-3.41-.58Z"></path>
  <circle class="cls-4" cx="317.73" cy="420.33" r="3.9"></circle>
  <path class="cls-4" d="M317.72,425.68a5.35,5.35,0,1,1,5.36-5.35A5.36,5.36,0,0,1,317.72,425.68Zm0-7.81a2.46,2.46,0,1,0,2.46,2.46A2.46,2.46,0,0,0,317.72,417.87Z"></path>
  <path class="cls-4" d="M322.21,211.52c1.65.54,2.06,1.07,2.06,2.68,0,2.66,0,5.32,0,8,0,1,.1,2,.16,3.14-.6,0-1.29,0-2,0-.16,0-.39-.34-.42-.55a18.6,18.6,0,0,1-.16-2.24c0-2.9,0-5.8,0-8.7,0-1-.34-1.27-1.43-1.21v12.69h-2.28V198.84c1.47.09,2.91.1,4.33.3a2.06,2.06,0,0,1,1.69,1.86,6.56,6.56,0,0,1,.09,1.08c0,1.91,0,3.83,0,5.74C324.32,209.46,324.2,211,322.21,211.52Zm-1.78-10.68c0,3.14,0,6.23,0,9.32,0,.15.18.42.26.41a1.74,1.74,0,0,0,.92-.27,1.19,1.19,0,0,0,.24-.8c0-2.56,0-5.12,0-7.68C321.87,200.87,321.49,200.61,320.43,200.84Z"></path>
  <path class="cls-4" d="M313.81,214.19h2.31c0,.25,0,.47,0,.68V223a2.29,2.29,0,0,1-2.08,2.6,5.44,5.44,0,0,1-1.8.07,2.4,2.4,0,0,1-2.34-2.7q0-11,0-21.91a2.23,2.23,0,0,1,2.17-2.44,5.87,5.87,0,0,1,1.51,0c1.82.19,2.54,1,2.54,2.85V213h-.87l-2.94.11c0,1-.07,2-.08,3,0,2.32,0,4.64,0,7a1.13,1.13,0,0,0,.43.87c.59.34,1.08,0,1.08-.82,0-2.64,0-5.27,0-7.91Zm0-2.84v-9c0-.48,0-1,0-1.44a.63.63,0,0,0-.71-.66.69.69,0,0,0-.8.65,2.17,2.17,0,0,0,0,.36v9.49a5.07,5.07,0,0,0,.06.65Z"></path>
  <path class="cls-4" d="M332.27,212.17c0,3.43,0,6.87,0,10.3,0,2.71-2.29,4.12-4.75,2.91a2.3,2.3,0,0,1-1.29-1.82,7.2,7.2,0,0,1-.09-1.23q0-10.19,0-20.38v-.15c0-2.49,1.27-3.57,3.74-3.22,1.59.22,2.38,1.17,2.39,2.93C332.28,205.06,332.27,208.62,332.27,212.17Zm-3.78-.13c0,3.46,0,6.91,0,10.37,0,.55-.17,1.32.71,1.31s.72-.77.72-1.32q0-10.34,0-20.68a1.49,1.49,0,0,0-.06-.71c-.15-.25-.44-.58-.67-.58s-.51.34-.66.59a1.53,1.53,0,0,0-.05.72Z"></path>
  <path class="cls-4" d="M305.9,223.34h2.67v1.93h-5.4c.95-8.1,1.9-16.15,2.86-24.29h-2.67v-2h5.08a16.82,16.82,0,0,1,0,2.13c-.82,7.17-1.68,14.35-2.52,21.52C305.88,222.82,305.9,223,305.9,223.34Z"></path>
  <path class="cls-4" d="M315.43,193.84c-.48,1.21-.9,2.3-1.36,3.38a.59.59,0,0,1-.44.28c-.47,0-.95,0-1.54,0,.25-1.2.47-2.3.72-3.4a.49.49,0,0,1,.35-.27C313.87,193.83,314.59,193.84,315.43,193.84Z"></path>
  <path class="cls-4" d="M143.83,218.24l7.1-8.71h-7v-.91h8.17v.8l-7,8.72h7v.91h-8.28Z"></path>
  <path class="cls-4" d="M156.76,219.2a3.68,3.68,0,0,1-1.53-.32A3.64,3.64,0,0,1,154,218a3.8,3.8,0,0,1-.8-1.27,4,4,0,0,1-.29-1.54,4.06,4.06,0,0,1,1.08-2.77,3.82,3.82,0,0,1,4.28-.85,3.53,3.53,0,0,1,1.19.86,3.77,3.77,0,0,1,.78,1.25,4,4,0,0,1,.28,1.49v.24a.62.62,0,0,1,0,.16H154a3.3,3.3,0,0,0,.29,1.14,3.07,3.07,0,0,0,.62.9,2.75,2.75,0,0,0,.88.6,2.66,2.66,0,0,0,1.05.21,2.62,2.62,0,0,0,.73-.1,2.94,2.94,0,0,0,.68-.28,2.61,2.61,0,0,0,.56-.43,2,2,0,0,0,.38-.57l.87.24a2.75,2.75,0,0,1-.5.77,3.66,3.66,0,0,1-.75.6,4.16,4.16,0,0,1-.94.4A4.26,4.26,0,0,1,156.76,219.2Zm2.83-4.38a3.19,3.19,0,0,0-.29-1.13,3.05,3.05,0,0,0-.62-.87,2.58,2.58,0,0,0-.86-.57,2.76,2.76,0,0,0-2.11,0,2.48,2.48,0,0,0-.88.57,2.75,2.75,0,0,0-.6.88,3.41,3.41,0,0,0-.27,1.12Z"></path>
  <path class="cls-4" d="M165.91,212.28a3.1,3.1,0,0,0-1.77.55,2.87,2.87,0,0,0-1.06,1.46v4.76h-1v-7.66H163v1.84a3.5,3.5,0,0,1,1.15-1.38,2.69,2.69,0,0,1,1.54-.5h.2Z"></path>
  <path class="cls-4" d="M170.12,219.2a3.63,3.63,0,0,1-1.52-.32,3.82,3.82,0,0,1-1.2-.86,3.9,3.9,0,0,1-.79-1.26,4.31,4.31,0,0,1-.28-1.52,4.11,4.11,0,0,1,.29-1.52,3.94,3.94,0,0,1,.79-1.27,4,4,0,0,1,1.2-.87,3.62,3.62,0,0,1,1.51-.32,3.71,3.71,0,0,1,1.53.32,4,4,0,0,1,1.2.87,3.94,3.94,0,0,1,.79,1.27,4.2,4.2,0,0,1,0,3,3.87,3.87,0,0,1-.78,1.26,3.73,3.73,0,0,1-2.75,1.18Zm-2.77-3.94a3.16,3.16,0,0,0,.22,1.2,3.19,3.19,0,0,0,.59,1,2.8,2.8,0,0,0,.88.65,2.51,2.51,0,0,0,1.08.24,2.45,2.45,0,0,0,1.08-.25,2.76,2.76,0,0,0,.89-.66,3.06,3.06,0,0,0,.61-1,3.37,3.37,0,0,0,.22-1.2,3.45,3.45,0,0,0-.22-1.2,3.06,3.06,0,0,0-.61-1,2.76,2.76,0,0,0-.89-.66,2.44,2.44,0,0,0-2.15,0,2.83,2.83,0,0,0-.88.66,3.07,3.07,0,0,0-.6,1A3.21,3.21,0,0,0,167.35,215.26Z"></path>
  <path class="cls-4" d="M183,208.69h1l1.47,3.7,1.49-3.7h1l-1.82,4.45,2,4.72,3.77-9.24H193l-4.42,10.43h-.91l-2.19-5.16-2.21,5.16h-.89l-4.41-10.43H179l3.79,9.24,2-4.72Z"></path>
  <path class="cls-4" d="M195.42,219.2a2.71,2.71,0,0,1-1.82-.69,2.22,2.22,0,0,1-.53-.76,2.25,2.25,0,0,1-.2-.93,1.84,1.84,0,0,1,.24-.93,2.29,2.29,0,0,1,.66-.73,3.05,3.05,0,0,1,1-.48,4.87,4.87,0,0,1,1.3-.17,6.91,6.91,0,0,1,1.19.1,5,5,0,0,1,1.07.3v-.69a2.21,2.21,0,0,0-.57-1.61,2.09,2.09,0,0,0-1.59-.6,3.29,3.29,0,0,0-1.2.24,5.45,5.45,0,0,0-1.25.67l-.36-.66a5.14,5.14,0,0,1,2.88-1,3.11,3.11,0,0,1,2.27.81,3,3,0,0,1,.82,2.23v3.46c0,.27.12.41.37.41v.88a2.31,2.31,0,0,1-.38,0,.85.85,0,0,1-.6-.19.71.71,0,0,1-.23-.53l0-.6a3.46,3.46,0,0,1-1.33,1.06A4.15,4.15,0,0,1,195.42,219.2Zm.23-.77a3.36,3.36,0,0,0,1.43-.29,2.43,2.43,0,0,0,1-.78.91.91,0,0,0,.19-.29.64.64,0,0,0,.07-.28v-1.25a5.93,5.93,0,0,0-1-.3,6.5,6.5,0,0,0-1.09-.1,3.07,3.07,0,0,0-1.72.44,1.35,1.35,0,0,0-.66,1.16,1.66,1.66,0,0,0,.52,1.2,1.89,1.89,0,0,0,.58.36A2,2,0,0,0,195.65,218.43Z"></path>
  <path class="cls-4" d="M204,219.2a5.24,5.24,0,0,1-1.75-.3,4.2,4.2,0,0,1-1.47-.85l.46-.68a5,5,0,0,0,1.31.8,4,4,0,0,0,1.44.26,2.56,2.56,0,0,0,1.47-.37,1.22,1.22,0,0,0,.56-1.07.9.9,0,0,0-.15-.53,1.24,1.24,0,0,0-.43-.38,4,4,0,0,0-.73-.29l-1-.25c-.44-.11-.83-.22-1.15-.33a3.53,3.53,0,0,1-.8-.36,1.34,1.34,0,0,1-.47-.51,1.69,1.69,0,0,1-.15-.76,2.05,2.05,0,0,1,.84-1.74,2.84,2.84,0,0,1,.91-.43,4,4,0,0,1,1.11-.15,4.3,4.3,0,0,1,1.6.29,3.15,3.15,0,0,1,1.16.75l-.48.59a2.73,2.73,0,0,0-1-.66A3.61,3.61,0,0,0,204,212a3.33,3.33,0,0,0-.73.08,1.82,1.82,0,0,0-.6.26,1.33,1.33,0,0,0-.4.45,1.29,1.29,0,0,0-.15.64,1.2,1.2,0,0,0,.1.5,1.08,1.08,0,0,0,.34.33,3.51,3.51,0,0,0,.6.25c.24.07.53.15.87.22.49.12.92.24,1.3.36a3.66,3.66,0,0,1,.93.41,1.53,1.53,0,0,1,.56.57,1.63,1.63,0,0,1,.2.82,2,2,0,0,1-.81,1.68A3.53,3.53,0,0,1,204,219.2Z"></path>
  <path class="cls-4" d="M212.33,218.68l-.26.12-.39.15a4.29,4.29,0,0,1-.49.13,2.88,2.88,0,0,1-.59.06,2.11,2.11,0,0,1-.62-.09,1.38,1.38,0,0,1-.51-.27,1.37,1.37,0,0,1-.36-.46,1.51,1.51,0,0,1-.13-.65v-5.48h-1.06v-.8H209v-2.58h1v2.58h1.76v.8H210v5.2a.79.79,0,0,0,.3.62,1,1,0,0,0,.63.2,1.79,1.79,0,0,0,.75-.14,3.11,3.11,0,0,0,.41-.2Z"></path>
  <path class="cls-4" d="M216.7,219.2a3.72,3.72,0,0,1-1.54-.32A3.64,3.64,0,0,1,214,218a3.8,3.8,0,0,1-.8-1.27,4,4,0,0,1-.29-1.54,4.06,4.06,0,0,1,1.08-2.77,3.82,3.82,0,0,1,4.28-.85,3.53,3.53,0,0,1,1.19.86,3.77,3.77,0,0,1,.78,1.25,4,4,0,0,1,.28,1.49v.24a.62.62,0,0,1,0,.16H213.9a3.3,3.3,0,0,0,.29,1.14,3.07,3.07,0,0,0,.62.9,2.75,2.75,0,0,0,.88.6,2.66,2.66,0,0,0,1.05.21,2.62,2.62,0,0,0,.73-.1,2.94,2.94,0,0,0,.68-.28,2.61,2.61,0,0,0,.56-.43,1.78,1.78,0,0,0,.38-.57l.87.24a2.75,2.75,0,0,1-.5.77,3.66,3.66,0,0,1-.75.6,3.87,3.87,0,0,1-2,.54Zm2.82-4.38a3.19,3.19,0,0,0-.29-1.13,3.05,3.05,0,0,0-.62-.87,2.58,2.58,0,0,0-.86-.57,2.76,2.76,0,0,0-2.11,0,2.48,2.48,0,0,0-.88.57,2.75,2.75,0,0,0-.6.88,3.41,3.41,0,0,0-.27,1.12Z"></path>
  <path class="cls-4" d="M232.07,210.57a3.34,3.34,0,0,0-1.18-.81,4.4,4.4,0,0,0-1.67-.31,3.15,3.15,0,0,0-2,.53,1.73,1.73,0,0,0-.63,1.41,1.57,1.57,0,0,0,.17.77,1.46,1.46,0,0,0,.52.53,4.15,4.15,0,0,0,.91.38c.36.11.8.21,1.3.32a14,14,0,0,1,1.5.4,4.32,4.32,0,0,1,1.14.55,2.28,2.28,0,0,1,.72.8,2.46,2.46,0,0,1,.25,1.18,2.62,2.62,0,0,1-.28,1.25,2.43,2.43,0,0,1-.78.88,3.49,3.49,0,0,1-1.19.52,6.46,6.46,0,0,1-1.51.17,6.23,6.23,0,0,1-4.19-1.52l.52-.83a3.7,3.7,0,0,0,.66.55,4.51,4.51,0,0,0,.87.47,6.38,6.38,0,0,0,1,.31,6.15,6.15,0,0,0,1.15.11,3.61,3.61,0,0,0,2-.45,1.51,1.51,0,0,0,.69-1.36,1.61,1.61,0,0,0-.19-.82,1.74,1.74,0,0,0-.6-.57,4.3,4.3,0,0,0-1-.42c-.4-.12-.85-.23-1.37-.35s-1-.26-1.44-.4a3.74,3.74,0,0,1-1-.51,2,2,0,0,1-.64-.74,2.32,2.32,0,0,1-.22-1.07,3,3,0,0,1,.27-1.29,2.63,2.63,0,0,1,.78-.94,3.55,3.55,0,0,1,1.17-.57,5.39,5.39,0,0,1,1.5-.2,4.9,4.9,0,0,1,3.34,1.21Z"></path>
  <path class="cls-4" d="M241.12,219.05h-1v-4.28a3.43,3.43,0,0,0-.45-2,1.49,1.49,0,0,0-1.31-.65,2.3,2.3,0,0,0-.85.17,3.13,3.13,0,0,0-1.42,1.16,3,3,0,0,0-.41.86v4.69h-1V208.32h1v4.81a3.5,3.5,0,0,1,1.27-1.37,3.29,3.29,0,0,1,1.75-.5,2.34,2.34,0,0,1,1.11.24,2,2,0,0,1,.75.68,3,3,0,0,1,.43,1,6.31,6.31,0,0,1,.13,1.35Z"></path>
  <path class="cls-4" d="M246.51,219.2a3.6,3.6,0,0,1-1.52-.32,3.82,3.82,0,0,1-1.2-.86,3.9,3.9,0,0,1-.79-1.26,4.31,4.31,0,0,1-.28-1.52,4.11,4.11,0,0,1,.29-1.52,3.94,3.94,0,0,1,.79-1.27,4,4,0,0,1,1.2-.87,3.58,3.58,0,0,1,1.51-.32,3.63,3.63,0,0,1,1.52.32,3.84,3.84,0,0,1,2,2.14,4.2,4.2,0,0,1,0,3,3.9,3.9,0,0,1-.79,1.26,3.68,3.68,0,0,1-2.74,1.18Zm-2.77-3.94a3.16,3.16,0,0,0,.22,1.2,3.19,3.19,0,0,0,.59,1,2.8,2.8,0,0,0,.88.65,2.51,2.51,0,0,0,1.08.24,2.45,2.45,0,0,0,1.08-.25,2.76,2.76,0,0,0,.89-.66,3.06,3.06,0,0,0,.61-1,3.37,3.37,0,0,0,.22-1.2,3.45,3.45,0,0,0-.22-1.2,3.06,3.06,0,0,0-.61-1,2.76,2.76,0,0,0-.89-.66,2.44,2.44,0,0,0-2.15,0,2.83,2.83,0,0,0-.88.66,3.07,3.07,0,0,0-.6,1A3.21,3.21,0,0,0,243.74,215.26Z"></path>
  <path class="cls-4" d="M255.9,219.2a3,3,0,0,1-1.71-.5,4,4,0,0,1-1.2-1.24v4.72h-1V211.39h.89v1.49a3.79,3.79,0,0,1,1.22-1.17,3.1,3.1,0,0,1,1.63-.45,3.23,3.23,0,0,1,1.46.33,3.79,3.79,0,0,1,1.14.88,4,4,0,0,1,.76,1.27,4.26,4.26,0,0,1,.27,1.49,4.55,4.55,0,0,1-.25,1.53,3.71,3.71,0,0,1-.71,1.26,3.53,3.53,0,0,1-1.1.86A3.17,3.17,0,0,1,255.9,219.2Zm-.27-.88a2.35,2.35,0,0,0,1.12-.27,2.83,2.83,0,0,0,.87-.7,3.14,3.14,0,0,0,.55-1,3.68,3.68,0,0,0,.19-1.14,3.24,3.24,0,0,0-.82-2.16,2.9,2.9,0,0,0-.91-.68,2.66,2.66,0,0,0-1.12-.25,2.15,2.15,0,0,0-.8.16,3.23,3.23,0,0,0-.78.41,2.72,2.72,0,0,0-.62.6,1.64,1.64,0,0,0-.32.73v2.35a3.62,3.62,0,0,0,.45.76,3,3,0,0,0,.62.61,2.84,2.84,0,0,0,.74.41A2.34,2.34,0,0,0,255.63,218.32Z"></path>
  <path class="cls-4" d="M412.31,213.61h.7L410.67,219h-.58l-1.17-2.77L407.77,219h-.59l-2.33-5.42h.69l2,4.69,1-2.48-.93-2.2h.6l.7,1.77.71-1.77h.61l-.93,2.2,1,2.48Z"></path>
  <path class="cls-4" d="M420.78,213.61h.7L419.14,219h-.58l-1.17-2.77L416.24,219h-.59l-2.33-5.42H414l2,4.69,1-2.48-.93-2.2h.6l.7,1.77.71-1.77h.61l-.93,2.2,1,2.48Z"></path>
  <path class="cls-4" d="M429.25,213.61h.7L427.61,219H427l-1.17-2.77L424.71,219h-.59l-2.33-5.42h.69l2,4.69,1-2.48-.93-2.2h.59l.71,1.77.71-1.77h.61l-.93,2.2,1,2.48Z"></path>
  <path class="cls-4" d="M430.28,219v-1h.62v1Z"></path>
  <path class="cls-4" d="M435,218.77l-.18.09-.28.1a1.62,1.62,0,0,1-.35.09,2,2,0,0,1-.42,0,1.31,1.31,0,0,1-.44-.07.89.89,0,0,1-.36-.19.83.83,0,0,1-.25-.33,1,1,0,0,1-.1-.46v-3.88h-.75v-.56h.75v-1.84h.71v1.84h1.25v.56h-1.25v3.69a.56.56,0,0,0,.21.44.77.77,0,0,0,.45.14,1.25,1.25,0,0,0,.53-.1,2.72,2.72,0,0,0,.29-.14Z"></path>
  <path class="cls-4" d="M440.41,219h-.71v-3a2.42,2.42,0,0,0-.32-1.38,1,1,0,0,0-.93-.46,1.61,1.61,0,0,0-.6.12,2.29,2.29,0,0,0-.56.33,2.12,2.12,0,0,0-.45.49,1.91,1.91,0,0,0-.29.61V219h-.71v-7.6h.71v3.41a2.48,2.48,0,0,1,.9-1,2.27,2.27,0,0,1,1.24-.36,1.74,1.74,0,0,1,.79.17,1.62,1.62,0,0,1,.53.48,2.06,2.06,0,0,1,.3.74,4.1,4.1,0,0,1,.1,1Z"></path>
  <path class="cls-4" d="M444.26,219.14a2.63,2.63,0,0,1-1.09-.23,2.75,2.75,0,0,1-.86-.61,2.79,2.79,0,0,1-.56-.9,2.87,2.87,0,0,1-.21-1.1,2.72,2.72,0,0,1,.21-1.07,2.64,2.64,0,0,1,1.42-1.49,2.64,2.64,0,0,1,3,.61,2.67,2.67,0,0,1,.55.88,2.89,2.89,0,0,1,.2,1.06v.17a.28.28,0,0,1,0,.11h-4.65a2.11,2.11,0,0,0,.21.81,2.08,2.08,0,0,0,.44.64,2,2,0,0,0,.62.42,1.7,1.7,0,0,0,.74.16,1.82,1.82,0,0,0,.52-.08,1.72,1.72,0,0,0,.48-.19,2,2,0,0,0,.4-.31,1.28,1.28,0,0,0,.27-.4l.61.16a1.77,1.77,0,0,1-.35.55,2.49,2.49,0,0,1-.53.43,2.7,2.7,0,0,1-.67.28A3.1,3.1,0,0,1,444.26,219.14Zm2-3.11a2.24,2.24,0,0,0-.2-.79,2.17,2.17,0,0,0-.44-.62,1.93,1.93,0,0,0-.61-.41,1.9,1.9,0,0,0-.75-.15,1.93,1.93,0,0,0-.75.15,2,2,0,0,0-1.05,1,2.54,2.54,0,0,0-.19.79Z"></path>
  <path class="cls-4" d="M447.48,218.55l3.67-4.41h-3.59v-.53h4.36v.48l-3.66,4.41h3.65V219h-4.43Z"></path>
  <path class="cls-4" d="M455.26,219.14a2.63,2.63,0,0,1-1.09-.23,2.75,2.75,0,0,1-.86-.61,2.79,2.79,0,0,1-.56-.9,2.87,2.87,0,0,1-.21-1.1,2.72,2.72,0,0,1,.21-1.07,2.64,2.64,0,0,1,.56-.89,2.77,2.77,0,0,1,.86-.6,2.64,2.64,0,0,1,3,.61,2.67,2.67,0,0,1,.55.88,2.89,2.89,0,0,1,.2,1.06v.17a.28.28,0,0,1,0,.11h-4.65a2.11,2.11,0,0,0,.21.81,2.08,2.08,0,0,0,.44.64,2,2,0,0,0,.62.42,1.7,1.7,0,0,0,.74.16,2,2,0,0,0,.53-.08,1.78,1.78,0,0,0,.47-.19,2,2,0,0,0,.4-.31,1.28,1.28,0,0,0,.27-.4l.62.16a2,2,0,0,1-.36.55,2.49,2.49,0,0,1-.53.43,2.7,2.7,0,0,1-.67.28A3.1,3.1,0,0,1,455.26,219.14Zm2-3.11a2.24,2.24,0,0,0-.2-.79,2.17,2.17,0,0,0-.44-.62,1.93,1.93,0,0,0-.61-.41,1.86,1.86,0,0,0-.75-.15,1.93,1.93,0,0,0-.75.15,2,2,0,0,0-.62.41,1.94,1.94,0,0,0-.42.62,2.3,2.3,0,0,0-.2.79Z"></path>
  <path class="cls-4" d="M461.74,214.23a2.21,2.21,0,0,0-1.25.4,2,2,0,0,0-.75,1V219H459v-5.42h.67v1.3a2.46,2.46,0,0,1,.81-1,1.88,1.88,0,0,1,1.1-.36l.13,0Z"></path>
  <path class="cls-4" d="M464.73,219.14a2.62,2.62,0,0,1-1.93-.84,2.64,2.64,0,0,1-.56-.89,3,3,0,0,1-.2-1.07,2.82,2.82,0,0,1,.21-1.09,2.79,2.79,0,0,1,1.41-1.51,2.54,2.54,0,0,1,1.07-.23,2.58,2.58,0,0,1,1.08.23,2.52,2.52,0,0,1,.85.62,2.83,2.83,0,0,1,.57.89,3,3,0,0,1,0,2.16,2.78,2.78,0,0,1-.55.89,2.64,2.64,0,0,1-.86.61A2.59,2.59,0,0,1,464.73,219.14Zm-2-2.79a2.32,2.32,0,0,0,.16.84,2.09,2.09,0,0,0,1.05,1.16,1.79,1.79,0,0,0,.76.16,1.7,1.7,0,0,0,.77-.17,1.93,1.93,0,0,0,.63-.47,2.43,2.43,0,0,0,.43-.69,2.39,2.39,0,0,0,.15-.86,2.25,2.25,0,0,0-.58-1.54,1.93,1.93,0,0,0-.63-.47,1.7,1.7,0,0,0-.77-.17,1.66,1.66,0,0,0-.76.17,2,2,0,0,0-.62.47,2.21,2.21,0,0,0-.43.71A2.39,2.39,0,0,0,462.76,216.35Z"></path>
  <path class="cls-4" d="M470.42,219.14a3.76,3.76,0,0,1-1.24-.21,3.05,3.05,0,0,1-1-.6l.32-.48a3.7,3.7,0,0,0,.94.56,2.79,2.79,0,0,0,1,.19,1.82,1.82,0,0,0,1-.27.87.87,0,0,0,.39-.76.68.68,0,0,0-.11-.38,1,1,0,0,0-.3-.26,2.47,2.47,0,0,0-.51-.2l-.72-.19a7.48,7.48,0,0,1-.81-.23,2.16,2.16,0,0,1-.57-.26.82.82,0,0,1-.33-.36,1.19,1.19,0,0,1-.11-.53,1.53,1.53,0,0,1,.16-.72,1.48,1.48,0,0,1,.44-.52,2.1,2.1,0,0,1,.64-.3,2.9,2.9,0,0,1,.79-.11,3,3,0,0,1,1.14.21,2.2,2.2,0,0,1,.82.53l-.34.42a1.91,1.91,0,0,0-.74-.47,2.75,2.75,0,0,0-.9-.16,2.12,2.12,0,0,0-.52.06,1.33,1.33,0,0,0-.42.18,1,1,0,0,0-.29.32.93.93,0,0,0-.1.45.74.74,0,0,0,.07.36.59.59,0,0,0,.24.23,1.65,1.65,0,0,0,.42.18c.17.05.38.11.62.16s.65.17.92.25a2.9,2.9,0,0,1,.66.29,1.12,1.12,0,0,1,.4.41,1.16,1.16,0,0,1,.14.58,1.4,1.4,0,0,1-.58,1.19A2.47,2.47,0,0,1,470.42,219.14Z"></path>
  <path class="cls-4" d="M478.26,219h-.71v-3a2.42,2.42,0,0,0-.32-1.38,1,1,0,0,0-.93-.46,1.61,1.61,0,0,0-.6.12,2.23,2.23,0,0,0-1,.82,1.91,1.91,0,0,0-.29.61V219h-.71v-7.6h.71v3.41a2.41,2.41,0,0,1,.9-1,2.27,2.27,0,0,1,1.24-.36,1.74,1.74,0,0,1,.79.17,1.62,1.62,0,0,1,.53.48,2.06,2.06,0,0,1,.3.74,4.72,4.72,0,0,1,.1,1Z"></path>
  <path class="cls-4" d="M482.08,219.14a2.59,2.59,0,0,1-1.09-.23,2.67,2.67,0,0,1-.84-.61,2.64,2.64,0,0,1-.56-.89,3,3,0,0,1,0-2.16,2.83,2.83,0,0,1,.57-.89,2.63,2.63,0,0,1,.85-.62,2.5,2.5,0,0,1,1.07-.23,2.58,2.58,0,0,1,1.08.23,2.79,2.79,0,0,1,1.41,1.51,2.82,2.82,0,0,1,.21,1.09,3,3,0,0,1-.2,1.07,2.64,2.64,0,0,1-.56.89,2.6,2.6,0,0,1-.85.61A2.63,2.63,0,0,1,482.08,219.14Zm-2-2.79a2.13,2.13,0,0,0,.16.84,2.1,2.1,0,0,0,.42.69,1.92,1.92,0,0,0,.62.47,1.83,1.83,0,0,0,.77.16,1.66,1.66,0,0,0,.76-.17,1.93,1.93,0,0,0,.63-.47,2.23,2.23,0,0,0,.43-.69,2.2,2.2,0,0,0,.16-.86,2.32,2.32,0,0,0-.59-1.54,1.93,1.93,0,0,0-.63-.47,1.66,1.66,0,0,0-.76-.17,1.63,1.63,0,0,0-.76.17,1.93,1.93,0,0,0-.63.47,2.44,2.44,0,0,0-.58,1.57Z"></path>
  <path class="cls-4" d="M488.74,219.14a2.18,2.18,0,0,1-1.22-.35,2.85,2.85,0,0,1-.85-.88v3.34H486v-7.64h.64v1a2.62,2.62,0,0,1,.86-.83,2.25,2.25,0,0,1,1.16-.32,2.2,2.2,0,0,1,1,.24,2.51,2.51,0,0,1,.82.62,3.1,3.1,0,0,1,.53.9,2.91,2.91,0,0,1,.19,1,3.23,3.23,0,0,1-.17,1.09,2.69,2.69,0,0,1-.51.89,2.43,2.43,0,0,1-.78.61A2.19,2.19,0,0,1,488.74,219.14Zm-.2-.63a1.7,1.7,0,0,0,.79-.18,2,2,0,0,0,.62-.5,2.18,2.18,0,0,0,.39-.7,2.46,2.46,0,0,0,.14-.81,2.35,2.35,0,0,0-.16-.83,2.28,2.28,0,0,0-.43-.7,2,2,0,0,0-.64-.48,1.94,1.94,0,0,0-.8-.17,1.43,1.43,0,0,0-.56.11,2.29,2.29,0,0,0-.56.29,1.76,1.76,0,0,0-.43.43,1.17,1.17,0,0,0-.23.51v1.67a3,3,0,0,0,.32.54,2.29,2.29,0,0,0,1,.72A1.7,1.7,0,0,0,488.54,218.51Z"></path>
  <path class="cls-4" d="M492.29,219v-1h.61v1Z"></path>
  <path class="cls-4" d="M494,216.3a3,3,0,0,1,.19-1.08,2.8,2.8,0,0,1,.56-.89,2.77,2.77,0,0,1,.86-.6,2.8,2.8,0,0,1,1.1-.22,2.56,2.56,0,0,1,1.35.35,2.23,2.23,0,0,1,.86.94l-.68.22a1.74,1.74,0,0,0-.64-.65,1.9,1.9,0,0,0-.92-.23,1.83,1.83,0,0,0-.77.16,2,2,0,0,0-1,1.14,2.39,2.39,0,0,0-.16.86,2.49,2.49,0,0,0,.16.87,2.35,2.35,0,0,0,.43.7,1.93,1.93,0,0,0,.63.47,1.66,1.66,0,0,0,.76.17,1.81,1.81,0,0,0,.52-.07,2.22,2.22,0,0,0,.47-.2,1.94,1.94,0,0,0,.38-.3,1,1,0,0,0,.22-.35l.7.2a1.7,1.7,0,0,1-.34.54,2.15,2.15,0,0,1-.51.43,2.79,2.79,0,0,1-.66.28,3.07,3.07,0,0,1-.74.1,2.71,2.71,0,0,1-2.53-1.74A2.87,2.87,0,0,1,494,216.3Z"></path>
  <path class="cls-4" d="M502.34,219.14a2.55,2.55,0,0,1-1.08-.23,2.6,2.6,0,0,1-.85-.61,2.64,2.64,0,0,1-.56-.89,3,3,0,0,1-.2-1.07,2.82,2.82,0,0,1,.21-1.09,2.79,2.79,0,0,1,1.41-1.51,2.54,2.54,0,0,1,1.07-.23,2.58,2.58,0,0,1,1.08.23,2.63,2.63,0,0,1,.85.62,2.83,2.83,0,0,1,.57.89,3,3,0,0,1,0,2.16,2.64,2.64,0,0,1-.56.89,2.5,2.5,0,0,1-.85.61A2.59,2.59,0,0,1,502.34,219.14Zm-2-2.79a2.13,2.13,0,0,0,.16.84,2.09,2.09,0,0,0,1.05,1.16,1.79,1.79,0,0,0,.76.16,1.7,1.7,0,0,0,.77-.17,1.93,1.93,0,0,0,.63-.47,2.33,2.33,0,0,0,.58-1.55,2.17,2.17,0,0,0-.16-.84,2.14,2.14,0,0,0-.42-.7,1.93,1.93,0,0,0-.63-.47,1.7,1.7,0,0,0-.77-.17,1.66,1.66,0,0,0-.76.17,2,2,0,0,0-.62.47,2.38,2.38,0,0,0-.59,1.57Z"></path>
  <path class="cls-4" d="M514.3,219h-.71v-3a2.52,2.52,0,0,0-.3-1.39,1,1,0,0,0-.89-.45,1.63,1.63,0,0,0-.59.11,1.72,1.72,0,0,0-.51.33,2,2,0,0,0-.42.49,3,3,0,0,0-.27.63V219h-.71v-3a2.54,2.54,0,0,0-.29-1.4,1,1,0,0,0-.89-.44,1.59,1.59,0,0,0-1.1.43,2.24,2.24,0,0,0-.68,1.12V219h-.71v-5.42h.64v1.23a2.62,2.62,0,0,1,.88-1,2.19,2.19,0,0,1,1.2-.35,1.56,1.56,0,0,1,1.1.39,1.65,1.65,0,0,1,.5,1,2.33,2.33,0,0,1,2.1-1.4,1.65,1.65,0,0,1,.77.17,1.35,1.35,0,0,1,.51.47,2.24,2.24,0,0,1,.28.74,4.78,4.78,0,0,1,.09,1Z"></path>
</svg>
