<?xml version="1.0" encoding="UTF-8"?>
<!-- Generator: Adobe Illustrator 24.0.1, SVG Export Plug-In . SVG Version: 6.00 Build 0)  -->
<svg xmlns="http://www.w3.org/2000/svg" xmlns:xlink="http://www.w3.org/1999/xlink" x="0px" y="0px" viewBox="0 0 600 600" style="enable-background:new 0 0 600 600;" xml:space="preserve">
<style type="text/css">
	.st0{fill:#FFFFFF;}
	
		.st1{fill-rule:evenodd;clip-rule:evenodd;fill:#FFDE00;stroke:#1C19A8;stroke-width:2.82;stroke-linejoin:round;stroke-miterlimit:10;}
	
		.st2{fill-rule:evenodd;clip-rule:evenodd;fill:#FB715D;stroke:#1C19A8;stroke-width:2.82;stroke-linejoin:round;stroke-miterlimit:10;}
	.st3{fill:#00AB81;stroke:#1C19A8;stroke-width:2.82;stroke-linejoin:round;stroke-miterlimit:10;}
	.st4{fill:#FB715D;stroke:#1C19A8;stroke-width:2.82;stroke-linejoin:round;stroke-miterlimit:10;}
	.st5{fill:none;stroke:#1C19A8;stroke-width:2.82;stroke-miterlimit:10;}
	.st6{fill:#FFDE00;stroke:#1C19A8;stroke-width:2.82;stroke-linejoin:round;stroke-miterlimit:10;}
	.st7{fill-rule:evenodd;clip-rule:evenodd;fill:#1C19A8;stroke:#1C19A8;stroke-width:2.82;stroke-miterlimit:10;}
	.st8{fill:#FFFFFF;stroke:#1C19A8;stroke-width:2.82;stroke-linejoin:round;stroke-miterlimit:10;}
	.st9{fill:url(#);}
	
		.st10{fill-rule:evenodd;clip-rule:evenodd;fill:#00AB81;stroke:#1C19A8;stroke-width:2.82;stroke-linejoin:round;stroke-miterlimit:10;}
	.st11{fill:#1C19A8;stroke:#1C19A8;stroke-width:2.82;stroke-miterlimit:10;}
	.st12{fill:#1C19A8;stroke:#1C19A8;stroke-width:2.82;stroke-linejoin:round;stroke-miterlimit:10;}
	.st13{fill:#1C19A8;}
	.st14{fill:none;stroke:#1C19A8;stroke-width:2.82;stroke-linejoin:round;stroke-miterlimit:10;}
	.st15{fill:#FFDE00;}
	.st16{fill:#00AB81;}
	.st17{fill:#FB715D;}
	.st18{fill:#9D9D9C;stroke:#1C19A8;stroke-width:2.82;stroke-linejoin:round;stroke-miterlimit:10;}
	.st19{fill-rule:evenodd;clip-rule:evenodd;fill:#1C19A8;stroke:#1C19A8;stroke-miterlimit:10;}
	.st20{fill-rule:evenodd;clip-rule:evenodd;fill:#1C19A8;stroke:#1C19A8;stroke-width:1.0222;stroke-miterlimit:10;}
	.st21{fill:#EDEDED;stroke:#1C19A8;stroke-width:2.82;stroke-linejoin:round;stroke-miterlimit:10;}
	.st22{fill:#EDEDED;stroke:#1C19A8;stroke-width:2.82;stroke-linecap:round;stroke-linejoin:round;stroke-miterlimit:10;}
	.st23{fill-rule:evenodd;clip-rule:evenodd;fill:#00AB81;}
	.st24{fill-rule:evenodd;clip-rule:evenodd;fill:#FB715D;}
	.st25{fill:none;stroke:#1C19A8;stroke-width:2.82;stroke-linecap:round;stroke-linejoin:round;stroke-miterlimit:10;}
	.st26{fill-rule:evenodd;clip-rule:evenodd;fill:#FFDE00;}
	.st27{fill:#FB715D;stroke:#1C19A8;stroke-width:2.82;stroke-linecap:round;stroke-linejoin:round;stroke-miterlimit:10;}
	.st28{fill:#FFFFFF;stroke:#1C19A8;stroke-width:2.82;stroke-linecap:round;stroke-linejoin:round;stroke-miterlimit:10;}
	.st29{fill:none;stroke:#1C19A8;stroke-width:2;stroke-miterlimit:10;}
	.st30{fill:#00AB81;stroke:#1C19A8;stroke-width:2.4933;stroke-linejoin:round;stroke-miterlimit:10;}
	.st31{fill:#FFDE00;stroke:#1C19A8;stroke-width:2.82;stroke-miterlimit:10;}
	.st32{fill:#FB715D;stroke:#1C19A8;stroke-width:2.82;stroke-miterlimit:10;}
	.st33{fill:#00AB81;stroke:#1C19A8;stroke-width:2.82;stroke-miterlimit:10;}
	.st34{fill:#FFFFFF;stroke:#1C19A8;stroke-width:2.82;stroke-miterlimit:10;}
	.st35{fill:url(#);stroke:#1C19A8;stroke-width:2.82;stroke-linejoin:round;stroke-miterlimit:10;}
	.st36{fill:#1C19A8;stroke:#1C19A8;stroke-miterlimit:10;}
	.st37{fill:none;stroke:#1C19A8;stroke-miterlimit:10;}
	.st38{fill:#FFDE00;stroke:#1C19A8;stroke-width:2.82;stroke-linecap:round;stroke-linejoin:round;stroke-miterlimit:10;}
	.st39{clip-path:url(#XMLID_4_);}
	.st40{clip-path:url(#XMLID_5_);}
	.st41{clip-path:url(#XMLID_5_);fill:#00AB81;stroke:#1C19A8;stroke-width:2.82;stroke-linejoin:round;stroke-miterlimit:10;}
	.st42{clip-path:url(#XMLID_5_);fill:#FFDE00;stroke:#1C19A8;stroke-width:2.82;stroke-linejoin:round;stroke-miterlimit:10;}
	.st43{fill:url(#);stroke:#1C19A8;stroke-width:2.82;stroke-miterlimit:10;}
	.st44{clip-path:url(#SVGID_2_);}
	.st45{clip-path:url(#SVGID_4_);}
	.st46{fill:#FB715D;stroke:#1D1D1B;stroke-width:2.8125;stroke-linejoin:round;stroke-miterlimit:10;}
	
		.st47{fill-rule:evenodd;clip-rule:evenodd;fill:#00AB81;stroke:#1C19A8;stroke-width:2.8125;stroke-linejoin:round;stroke-miterlimit:10;}
	.st48{fill:#1C19A8;stroke:#1C19A8;stroke-width:2.8125;stroke-miterlimit:10;}
	.st49{fill:none;stroke:#1C19A8;stroke-width:2.8125;stroke-miterlimit:10;}
	.st50{fill:#FB715D;stroke:#1C19A8;stroke-width:2.8125;stroke-linejoin:round;stroke-miterlimit:10;}
	.st51{fill:#00AB81;stroke:#1C19A8;stroke-width:2.8125;stroke-linejoin:round;stroke-miterlimit:10;}
	
		.st52{fill-rule:evenodd;clip-rule:evenodd;fill:#FB715D;stroke:#1C19A8;stroke-width:2.8125;stroke-linejoin:round;stroke-miterlimit:10;}
	.st53{fill:#FFDE00;stroke:#1C19A8;stroke-width:2.8125;stroke-miterlimit:10;}
	.st54{fill:#FFDE00;stroke:#1C19A8;stroke-width:2.8125;stroke-linejoin:round;stroke-miterlimit:10;}
	.st55{fill:#1C19A8;stroke:#1C19A8;stroke-width:2.8125;stroke-linejoin:round;stroke-miterlimit:10;}
	
		.st56{fill-rule:evenodd;clip-rule:evenodd;fill:#FFDE00;stroke:#1C19A8;stroke-width:2.8125;stroke-linejoin:round;stroke-miterlimit:10;}
	.st57{fill:#00AB81;stroke:#1C19A8;stroke-width:2.8125;stroke-miterlimit:10;}
	.st58{fill:#1C19A8;stroke:#1C19A8;stroke-width:0.1875;stroke-miterlimit:10;}
	.st59{fill:#1C19A8;stroke:#1C19A8;stroke-width:0.75;stroke-linecap:round;stroke-linejoin:round;stroke-miterlimit:10;}
	.st60{fill:none;stroke:#1C19A8;stroke-width:2.8125;stroke-linejoin:round;stroke-miterlimit:10;}
	.st61{fill:#FB715D;stroke:#1C19A8;stroke-width:2.8125;stroke-miterlimit:10;}
	.st62{fill:#F6F6F6;stroke:#1C19A8;stroke-width:2.8125;stroke-linejoin:round;stroke-miterlimit:10;}
	.st63{fill:#FFFFFF;stroke:#1C19A8;stroke-width:2.8125;stroke-miterlimit:10;}
	.st64{fill:none;stroke:#1C19A8;stroke-width:2.8125;stroke-linecap:round;stroke-linejoin:round;stroke-miterlimit:10;}
	.st65{fill:url(#);stroke:#1C19A8;stroke-width:2.8125;stroke-miterlimit:10;}
	.st66{fill:#FFFFFF;stroke:#1C19A8;stroke-width:2.8125;stroke-linecap:round;stroke-linejoin:round;stroke-miterlimit:10;}
	.st67{fill:#FFFFFF;stroke:#1C19A8;stroke-width:2.8125;stroke-linejoin:round;stroke-miterlimit:10;}
	.st68{fill:none;stroke:#1C19A8;stroke-width:8.4375;stroke-linejoin:round;stroke-miterlimit:10;}
	.st69{fill:#00AB81;stroke:#1C19A8;stroke-width:2.8125;stroke-linecap:round;stroke-linejoin:round;stroke-miterlimit:10;}
	.st70{fill:#FFDE00;stroke:#1C19A8;stroke-width:2.8125;stroke-linejoin:bevel;stroke-miterlimit:10;}
	.st71{fill:#1D1D1B;stroke:#1C19A8;stroke-width:2.8125;stroke-linejoin:round;stroke-miterlimit:10;}
	.st72{fill:#00AB81;stroke:#1C19A8;stroke-width:2.7823;stroke-linejoin:round;stroke-miterlimit:10;}
	.st73{fill:url(#);stroke:#1C19A8;stroke-width:3.75;stroke-miterlimit:10;}
	.st74{fill:none;stroke:#1C19A8;stroke-width:2.8152;stroke-linejoin:round;stroke-miterlimit:10;}
	.st75{fill:none;stroke:#1C19A8;stroke-width:2.9816;stroke-linejoin:round;stroke-miterlimit:10;}
	.st76{fill:#FB715D;stroke:#1C19A8;stroke-width:2.4615;stroke-linejoin:round;stroke-miterlimit:10;}
	.st77{fill:#FB715D;stroke:#1C19A8;stroke-width:2.8108;stroke-linejoin:round;stroke-miterlimit:10;}
	.st78{fill-rule:evenodd;clip-rule:evenodd;fill:#1C19A8;stroke:#1C19A8;stroke-width:2.8125;stroke-miterlimit:10;}
	.st79{fill:#1C19A8;stroke:#1C19A8;stroke-width:1.875;stroke-miterlimit:10;}
	
		.st80{fill-rule:evenodd;clip-rule:evenodd;fill:#FFDE00;stroke:#1C19A8;stroke-width:2.7823;stroke-linejoin:round;stroke-miterlimit:10;}
	.st81{fill:#FB715D;stroke:#1C19A8;stroke-width:2.7823;stroke-linejoin:round;stroke-miterlimit:10;}
	.st82{fill:#1D1D1B;stroke:#1C19A8;stroke-width:2.8125;stroke-miterlimit:10;}
	.st83{fill:#1D1D1B;stroke:#1C19A8;stroke-width:2.8125;stroke-linecap:round;stroke-linejoin:round;stroke-miterlimit:10;}
	.st84{fill:#FFDE00;stroke:#1C19A8;stroke-width:2.8125;stroke-linecap:round;stroke-linejoin:round;stroke-miterlimit:10;}
	.st85{fill:#1C19A8;stroke:#1D1D1B;stroke-width:2.8125;stroke-miterlimit:10;}
	.st86{fill:#FFDE00;stroke:#1C19A8;stroke-width:2.7823;stroke-linejoin:round;stroke-miterlimit:10;}
	.st87{fill:none;stroke:#1C19A8;stroke-width:2.7823;stroke-linejoin:round;stroke-miterlimit:10;}
	.st88{fill:none;stroke:#1C19A8;stroke-width:2.7825;stroke-linecap:round;stroke-linejoin:round;stroke-miterlimit:10;}
	.st89{fill:none;stroke:#1C19A8;stroke-width:3.75;stroke-miterlimit:10;}
	
		.st90{fill-rule:evenodd;clip-rule:evenodd;fill:#00AB81;stroke:#1C19A8;stroke-width:2.7823;stroke-linejoin:round;stroke-miterlimit:10;}
	.st91{fill:#1C19A8;stroke:#1C19A8;stroke-width:3.75;stroke-miterlimit:10;}
	.st92{fill:#1C19A8;stroke:#1C19A8;stroke-width:2.8125;stroke-linecap:round;stroke-linejoin:round;stroke-miterlimit:10;}
	.st93{fill:#1C19A8;stroke:#1C19A8;stroke-width:0.9375;stroke-miterlimit:10;}
	.st94{fill:#1D1D1B;stroke:#1C19A8;stroke-width:3.75;stroke-miterlimit:10;}
	
		.st95{fill-rule:evenodd;clip-rule:evenodd;fill:#FB715D;stroke:#1C19A8;stroke-width:2.7823;stroke-linejoin:round;stroke-miterlimit:10;}
	.st96{fill:#1C19A8;stroke:#1C19A8;stroke-width:2.8108;stroke-linejoin:round;stroke-miterlimit:10;}
	.st97{fill:#FFDE00;stroke:#1C19A8;stroke-width:2.8108;stroke-linejoin:round;stroke-miterlimit:10;}
	.st98{fill-rule:evenodd;clip-rule:evenodd;fill:none;stroke:#1C19A8;stroke-width:3.75;stroke-miterlimit:10;}
	.st99{fill:#FFFFFF;stroke:#1D1D1B;stroke-width:2.82;stroke-miterlimit:10;}
</style>
<g id="Layer_1">
	<rect x="76.7" y="263.3" class="st0" width="443.4" height="207.8"></rect>
	<circle class="st6" cx="171.6" cy="377.2" r="65.5"></circle>
	<g>
		<path class="st13" d="M165.1,357.2c-0.5-2.2-0.9-4.5-1.4-6.7c1.3-0.3,2.6-0.5,3.9-0.8c1.7,8.2,3.5,16.4,5.2,24.7    c-1.3,0.3-2.5,0.5-3.9,0.8c-0.1-0.2-0.1-0.5-0.1-0.7c-0.6-2.7-1.1-5.3-1.7-8c-0.1-0.4-0.2-1.1-0.2-1.1l0-0.1l-3.2-2.7l0.2,0.9    c0.8,3.9,1.6,7.7,2.4,11.6c0.1,0.3,0.1,0.7,0.1,0.7s-0.4,0.1-0.7,0.1c-1.1,0.2-2.1,0.4-3.2,0.7c-1.7-8.3-3.6-17.1-5.3-25.3    c0.5,0.4,0.8,0.6,1,0.9c2.2,2.2,4.4,4.3,6.7,6.5c0.2,0.2,0.5,0.5,0.8,0.7"></path>
		<path class="st13" d="M180.3,368.7c-0.3,0.1-0.5,0.1-0.7,0.2c0-0.1,0-0.2-0.1-0.3c-0.6-3-1.3-6-1.9-9c0-0.2-0.1-0.5-0.1-0.5    s0.4-0.1,0.6-0.1c1-0.2,2-0.4,3-0.6c-0.3-1.3-0.5-2.6-0.8-3.9c-0.8,0.2-1.6,0.3-2.4,0.5l-0.4,0.1c-0.3,0.1-0.5,0.1-0.7,0.1    c-0.2-1.1-0.4-2.1-0.7-3.2c1.5-0.3,3-0.6,4.4-0.9c-0.3-1.3-0.5-2.6-0.8-3.9c-2.8,0.6-5.6,1.2-8.3,1.8c1.7,8.3,3.5,16.5,5.2,24.7    c2.8-0.6,5.6-1.2,8.3-1.8c-0.3-1.3-0.5-2.6-0.8-3.9c-1.1,0.2-2.3,0.5-3.4,0.7"></path>
		<path class="st13" d="M186.7,351.6c1.3,6.1,2.6,12.2,3.8,18.3c0,0.2,0.1,0.5,0.2,0.8c1.1-0.2,2.2-0.5,3.2-0.7    c0.6-0.1,0.7-0.3,0.6-0.9c-1.4-6.4-2.7-12.9-4.1-19.3c-0.1-0.2-0.1-0.5-0.2-0.8c1.1-0.2,2.1-0.4,3.1-0.6c-0.3-1.4-0.6-2.7-0.8-3.9    c-3.4,0.7-6.7,1.4-10,2.1c0.3,1.3,0.6,2.6,0.8,4c1-0.2,2-0.4,3-0.6c0.1,0.3,0.1,0.5,0.2,0.8L186.7,351.6z"></path>
		<path class="st13" d="M140.6,377.1c0.9-0.2,1.6-0.3,2.5-0.5c0.2,1,0.4,1.9,0.6,2.7c0.1,0.6,0.3,1.2,0.3,1.2s-0.6,0.1-1.2,0.3    c-1.9,0.4-3.7,0.8-5.6,1.2c-0.3,0.1-0.7,0.1-0.7,0.1s-0.1-0.4-0.1-0.7c-1.6-7.8-3.3-15.7-4.9-23.5c-0.1-0.3-0.1-0.7-0.1-0.7    s0.4-0.1,0.6-0.1c1.1-0.2,2.1-0.5,3.3-0.7c1.5,7,2.9,13.9,4.4,20.8c0.3,0,0.5-0.1,0.8-0.1L140.6,377.1z"></path>
		<path class="st13" d="M147.7,353.2c0,0-0.1,0-0.1,0c-0.5,8.9-1.1,17.8-1.6,26.8c1.3-0.3,2.4-0.5,3.6-0.8c0.1,0,0.3-0.1,0.3-0.1    s0-0.3,0-0.4c0.1-0.6,0.1-1.1,0.1-1.7c0-0.2,0-0.5,0-0.5s0.4-0.1,0.5-0.1c1.3-0.2,2.5-0.5,3.8-0.8c0.3-0.1,0.7-0.2,0.7-0.2    s0.2,0.4,0.3,0.7l0.6,1.2c0.1,0.2,0.3,0.5,0.3,0.5s0.2,0,0.4-0.1c1.1-0.3,2.3-0.5,3.6-0.8C156,369.1,151.9,361.1,147.7,353.2z     M150.4,372.6l0.2-5.4l2.6,4.8L150.4,372.6z"></path>
		<path class="st13" d="M129.3,361.9c-1.4-2.5-3.6-3.4-6.4-2.8c-1.5,0.3-3.1,0.7-4.6,1c-0.3,0.1-0.8,0.2-0.8,0.2s0.1,0.5,0.2,0.8    c1.6,7.7,3.3,15.4,4.9,23.2c0,0.2,0.1,0.4,0.1,0.6c0,0.1,0.1,0.3,0.1,0.3s0.2,0,0.3-0.1c1.2-0.2,2.4-0.5,3.7-0.8    c-0.8-3.8-1.6-7.5-2.4-11.3c0.6-0.1,1-0.2,1.5-0.3c2.4-0.5,4.1-1.8,4.6-4.3C130.8,366,130.4,363.9,129.3,361.9z M126.5,366.1    c0.2,1.1-0.5,2.3-1.6,2.5l-1.3,0.3l-1.2-5.7l1.3-0.3c1.1-0.2,2.3,0.5,2.5,1.6L126.5,366.1z"></path>
	</g>
	<g>
		<path class="st13" d="M157.6,409.7c-1-2.2-2.1-4.3-3.1-6.5c-0.9-1.8-1.7-3.7-3.2-5.1c0.3-0.3,0.6-0.6,0.8-1    c1.2-1.8,1.3-3.8,0.7-5.8c-0.7-2.5-2.9-4.4-5.5-4.3c-2.3,0.2-4.5,0.8-6.8,1.2c0,0,0,0.1-0.1,0.1c1.7,8.1,3.4,16.2,5.1,24.3    c1.3-0.3,2.6-0.5,3.9-0.8c-0.8-3.8-1.6-7.5-2.4-11.2c1-0.3,1.5-0.2,2,0.5c0.3,0.4,0.6,0.9,0.8,1.4c1.2,2.7,2.4,5.3,3.6,8    c0.1,0.2,0.4,0.4,0.5,0.4c1.2-0.2,2.5-0.5,3.7-0.8C157.7,409.9,157.6,409.8,157.6,409.7z M149.2,394.5c-0.3,0.9-1,1.3-2,1.6    l-1,0.2c-0.4-1.8-0.7-3.5-1.1-5.3c1.2-0.3,2.4-0.8,3.5,0.3C149.4,392.2,149.6,393.3,149.2,394.5z"></path>
		<path class="st13" d="M126.9,405c-0.8-4.2-1.2-7.3-0.4-10.5c0.2-0.9,0.6-1.9,1.1-2.7c1.5-2.3,4.4-2.7,6.5-1    c1.7,1.4,2.8,3.2,3.6,5.1c1.7,4,2.5,8.2,2.2,12.5c-0.1,1.6-0.4,3.1-1.3,4.5c-1.4,2.4-4.2,3-6.5,1.4c-1.6-1.1-2.7-2.7-3.4-4.4    C127.9,408,127.3,406,126.9,405z M135.8,410c0.3-0.9,0.5-1.8,0.5-2.7c0-3.6-0.7-7.1-2.2-10.5c-0.4-0.8-0.9-1.6-1.5-2.2    c-0.8-0.9-1.8-0.7-2.3,0.4c-0.2,0.6-0.4,1.2-0.4,1.8c-0.3,3.9,0.5,7.5,2,11.1c0.4,0.9,1,1.7,1.5,2.4c0.5,0.6,0.9,0.6,1.3,0.5    C134.7,410.8,135.4,410.7,135.8,410z"></path>
		<path class="st13" d="M166.7,398.6c0-0.2,0-0.4,0-0.7l-1.9,0.4l-0.8-3.8l5.6-1.2c0.2,0.8,0.3,1.5,0.5,2.3c0.5,2.8,0.7,5.6,0.1,8.3    c-0.2,0.7-0.4,1.4-0.7,2.1c-1.5,3.3-4.9,3.9-7.5,1.4c-1.6-1.5-2.6-3.4-3.4-5.5c-1.4-3.6-2.1-7.4-1.9-11.2c0.1-1.6,0.3-3.1,1-4.5    c1.4-3,4.6-3.7,7.1-1.6c0.8,0.7,1.5,1.6,2.3,2.4c-1.1,0.8-2.1,1.4-3.2,2.1c-0.3-0.3-0.5-0.6-0.8-0.8c-0.9-0.9-2-0.7-2.4,0.5    c-0.3,0.9-0.4,1.9-0.4,2.9c0,3.6,0.8,7.1,2.4,10.4c0.3,0.6,0.8,1.2,1.2,1.8c0.1,0.1,0.2,0.2,0.3,0.3c0.5,0.4,1.2,0.3,1.5-0.3    C166.2,403.2,167,401.7,166.7,398.6z"></path>
		<path class="st13" d="M215.6,391.4c-1.7-3.2-2.4-6.7-2.6-10.4c-0.1-1.2,0-2.4,0.5-3.5c0.5-1,1.3-1.2,2.2-0.6    c0.4,0.3,0.6,0.6,1,0.9c1-0.7,2-1.4,3.1-2.1c-0.8-1.2-1.7-2.3-2.9-3c-2.1-1.2-4.8-0.6-6.1,1.4c-0.8,1.2-1.2,2.5-1.3,3.9    c-0.6,4.7,0.3,9.2,2.1,13.5c0.8,1.9,1.9,3.8,3.6,5.1c1.9,1.4,4.2,1.4,5.9-0.1c1.4-1.2,1.9-2.9,2.1-4.7c-1.3-0.2-2.5-0.4-3.6-0.6    c-0.3,0.6-0.5,1.1-0.7,1.5c0,0-0.5,1.3-1.3,0.7C216.5,392.8,216.3,392.5,215.6,391.4z"></path>
		<path class="st13" d="M199.9,375.4c1.3-0.3,2.6-0.5,3.9-0.8c1.7,8.2,3.4,16.4,5.2,24.7c-1.3,0.3-2.6,0.5-3.9,0.8    C203.4,391.9,201.6,383.7,199.9,375.4z"></path>
		<path class="st13" d="M175.3,380.1c0,0-0.1,0-0.1,0c-0.5,8.9-1.1,17.8-1.6,26.8c1.3-0.3,2.4-0.5,3.6-0.8c0.1,0,0.3-0.1,0.3-0.1    s0-0.3,0-0.4c0.1-0.6,0.1-1.1,0.1-1.7c0-0.2,0-0.5,0-0.5s0.4-0.1,0.5-0.1c1.3-0.2,2.5-0.5,3.8-0.8c0.3-0.1,0.7-0.2,0.7-0.2    s0.2,0.4,0.3,0.7l0.6,1.2c0.1,0.2,0.3,0.5,0.3,0.5s0.2,0,0.4-0.1c1.1-0.3,2.3-0.5,3.6-0.8C183.6,396,179.5,388.1,175.3,380.1z     M178,399.5l0.2-5.4l2.6,4.8L178,399.5z"></path>
		<path class="st13" d="M193.3,383.8c-0.5-2.2-0.9-4.5-1.4-6.7c1.3-0.3,2.6-0.5,3.9-0.8c1.7,8.2,3.5,16.4,5.2,24.7    c-1.3,0.3-2.5,0.5-3.9,0.8c-0.1-0.2-0.1-0.5-0.1-0.7c-0.6-2.7-1.1-5.3-1.7-8c-0.1-0.4-0.2-1.1-0.2-1.1l0-0.1l-3.2-2.7l0.2,0.9    c0.8,3.9,1.6,7.7,2.4,11.6c0.1,0.3,0.1,0.7,0.1,0.7s-0.4,0.1-0.7,0.1c-1.1,0.2-2.1,0.4-3.2,0.7c-1.7-8.3-3.6-17.1-5.3-25.3    c0.5,0.4,0.8,0.6,1,0.9c2.2,2.2,4.4,4.3,6.7,6.5c0.2,0.2,0.5,0.5,0.8,0.7"></path>
	</g>
	<rect x="62.7" y="479.2" class="st3" width="474.7" height="12.1"></rect>
	<rect x="283.5" y="254.4" class="st6" width="32.9" height="224.8"></rect>
	<rect x="504.4" y="254.4" class="st6" width="32.9" height="224.8"></rect>
	<rect x="62.7" y="254.4" class="st6" width="32.9" height="224.8"></rect>
	
		<rect x="274.5" y="-8.5" transform="matrix(-1.836970e-16 1 -1 -1.836970e-16 528.827 -71.173)" class="st6" width="51.1" height="474.7"></rect>
	
		<rect x="284.5" y="1.5" transform="matrix(-1.836970e-16 1 -1 -1.836970e-16 528.8268 -71.1731)" class="st6" width="31.1" height="454.7"></rect>
	<g>
		<polygon class="st3" points="283.5,254.4 95.6,254.4 85.9,309.3 289.4,309.3   "></polygon>
		<rect x="85.9" y="309.3" class="st3" width="203.5" height="11.8"></rect>
	</g>
	<g>
		<polygon class="st3" points="504.6,254.4 316.7,254.4 307,309.3 510.5,309.3   "></polygon>
		<rect x="307" y="309.3" class="st3" width="203.5" height="11.8"></rect>
	</g>
	<line class="st6" x1="95.6" y1="434.8" x2="283.5" y2="434.8"></line>
	<line class="st6" x1="95.6" y1="393.4" x2="283.5" y2="393.4"></line>
	<line class="st6" x1="95.6" y1="352" x2="283.5" y2="352"></line>
	<rect x="95.6" y="453.6" class="st6" width="187.9" height="25.4"></rect>
	<rect x="316.4" y="453.6" class="st6" width="187.9" height="25.4"></rect>
	<line class="st6" x1="158.2" y1="480.4" x2="158.2" y2="321.1"></line>
	<line class="st6" x1="220.9" y1="480.4" x2="220.9" y2="321.1"></line>
	<line class="st6" x1="317.7" y1="434.8" x2="505.6" y2="434.8"></line>
	<line class="st6" x1="317.7" y1="393.4" x2="505.6" y2="393.4"></line>
	<line class="st6" x1="317.7" y1="352" x2="505.6" y2="352"></line>
	<line class="st6" x1="380.4" y1="480.4" x2="380.4" y2="321.1"></line>
	<line class="st6" x1="443" y1="480.4" x2="443" y2="321.1"></line>
	<rect x="103.2" y="461" class="st6" width="47.8" height="10.6"></rect>
	<rect x="165.7" y="461" class="st6" width="47.8" height="10.6"></rect>
	<rect x="228.3" y="461" class="st6" width="47.8" height="10.6"></rect>
	<path class="st13" d="M319.3,488.7l-11.5-67.5c-0.1-0.8-0.9-1.3-1.6-1.2l-1,0.2c-0.4-2.4-2.6-4.3-5.1-4.3s-4.7,1.9-5.1,4.3l-1-0.2   c-0.7-0.1-1.5,0.4-1.6,1.2l-11.5,67.5c-0.1,0.8,0.4,1.5,1.1,1.6l6.1,1c0.1,0,0.2,0,0.2,0c0.3,0,0.6-0.1,0.8-0.3   c0.3-0.2,0.5-0.5,0.6-0.9L300,429l10.4,61.2c0.1,0.4,0.3,0.7,0.6,0.9c0.2,0.2,0.5,0.3,0.8,0.3c0.1,0,0.2,0,0.2,0l6.1-1   C318.9,490.2,319.4,489.4,319.3,488.7z"></path>
	<g>
		<g>
			<path class="st13" d="M270.3,225.4c0-1.4,0-2.9,0-4.3c0.9,0,1.7,0,2.5,0c0,5.3,0,10.6,0,15.9c-0.8,0-1.6,0-2.5,0     c0-0.2,0-0.3,0-0.4c0-1.7,0-3.4,0-5.1c0-0.2,0-0.7,0-0.7l0-0.1l-1.7-2.1v0.6c0,2.5,0,5,0,7.4c0,0.2,0,0.4,0,0.4s-0.3,0-0.4,0     c-0.7,0-1.4,0-2.1,0c0-5.3,0-11,0-16.3c0.2,0.3,0.4,0.5,0.5,0.7c1.1,1.6,2.2,3.2,3.3,4.9c0.1,0.1,0.2,0.3,0.4,0.6"></path>
			<path class="st13" d="M278.2,234.5c-0.2,0-0.3,0-0.5,0c0-0.1,0-0.1,0-0.2c0-1.9,0-3.9,0-5.8c0-0.1,0-0.3,0-0.3s0.2,0,0.4,0     c0.6,0,1.3,0,1.9,0c0-0.9,0-1.7,0-2.5c-0.5,0-1,0-1.6,0l-0.2,0c-0.2,0-0.3,0-0.5,0c0-0.7,0-1.3,0-2.1c1,0,1.9,0,2.8,0     c0-0.9,0-1.7,0-2.5c-1.8,0-3.6,0-5.4,0c0,5.3,0,10.6,0,15.9c1.8,0,3.6,0,5.4,0c0-0.8,0-1.7,0-2.5c-0.7,0-1.5,0-2.2,0"></path>
			<path class="st13" d="M284.3,224.8c0,3.9,0,7.8,0,11.8c0,0.1,0,0.3,0,0.5c0.7,0,1.4,0,2.1,0c0.4,0,0.5-0.1,0.5-0.5     c0-4.1,0-8.3,0-12.4c0-0.2,0-0.3,0-0.5c0.7,0,1.3,0,2,0c0-0.9,0-1.7,0-2.5c-2.2,0-4.3,0-6.4,0c0,0.9,0,1.7,0,2.6     c0.6,0,1.3,0,1.9,0c0,0.2,0,0.3,0,0.5L284.3,224.8z"></path>
			<path class="st13" d="M252.7,234.5c0.6,0,1.1,0,1.6,0c0,0.6,0,1.2,0,1.8c0,0.4,0,0.8,0,0.8s-0.4,0-0.8,0c-1.2,0-2.4,0-3.6,0     c-0.2,0-0.4,0-0.4,0s0-0.3,0-0.4c0-5,0-10.1,0-15.1c0-0.2,0-0.4,0-0.4s0.3,0,0.4,0c0.7,0,1.4,0,2.1,0c0,4.5,0,8.9,0,13.4     c0.2,0,0.3,0,0.5,0L252.7,234.5z"></path>
			<path class="st13" d="M260.1,220.7C260.1,220.7,260.1,220.7,260.1,220.7c-1.6,5.4-3,10.9-4.5,16.3c0.8,0,1.6,0,2.3,0     c0.1,0,0.2,0,0.2,0s0.1-0.2,0.1-0.2c0.1-0.3,0.2-0.7,0.3-1c0-0.1,0.1-0.3,0.1-0.3s0.2,0,0.4,0c0.8,0,1.6,0,2.4,0     c0.2,0,0.4,0,0.4,0s0.1,0.3,0.1,0.5l0.2,0.8c0,0.1,0.1,0.4,0.1,0.4s0.1,0,0.2,0c0.7,0,1.5,0,2.3,0     C263.2,231.5,261.7,226.1,260.1,220.7z M259.3,233l0.8-3.3l1,3.3H259.3z"></path>
			<path class="st13" d="M247.6,223.6c-0.6-1.7-1.8-2.6-3.6-2.6c-1,0-2,0-3,0c-0.2,0-0.5,0-0.5,0s0,0.3,0,0.5c0,5,0,9.9,0,14.9     c0,0.1,0,0.2,0,0.4c0,0.1,0,0.2,0,0.2s0.1,0,0.2,0c0.8,0,1.6,0,2.4,0c0-2.5,0-4.9,0-7.3c0.4,0,0.7,0,1,0c1.5,0,2.7-0.6,3.4-2     C248.1,226.4,248.1,225,247.6,223.6z M245.4,225.9c0,0.7-0.6,1.3-1.3,1.3h-0.9v-3.7h0.9c0.7,0,1.3,0.6,1.3,1.3V225.9z"></path>
		</g>
		<g>
			<path class="st13" d="M316.6,236.6c-0.4-1.5-0.7-2.9-1.1-4.4c-0.3-1.2-0.5-2.5-1.3-3.6c0.2-0.2,0.4-0.3,0.6-0.5     c1-1,1.3-2.2,1.2-3.5c-0.1-1.7-1.2-3.1-2.8-3.3c-1.4-0.2-2.9-0.1-4.3-0.2c0,0,0,0-0.1,0c0,5.2,0,10.4,0,15.6c0.8,0,1.7,0,2.5,0     c0-2.4,0-4.8,0-7.2c0.6-0.1,0.9,0.1,1.2,0.6c0.1,0.3,0.3,0.6,0.3,0.9c0.4,1.8,0.8,3.6,1.2,5.4c0,0.1,0.2,0.3,0.3,0.3     c0.8,0,1.6,0,2.4,0C316.7,236.7,316.7,236.7,316.6,236.6z M313.5,226.2c-0.3,0.5-0.8,0.7-1.4,0.7l-0.7,0c0-1.2,0-2.3,0-3.4     c0.8,0,1.6-0.2,2.1,0.6C313.9,224.7,313.8,225.5,313.5,226.2z"></path>
			<path class="st13" d="M298.3,229.7c0-2.7,0.2-4.7,1.1-6.5c0.3-0.5,0.6-1.1,1-1.5c1.2-1.2,3-1.1,4.2,0.3c0.9,1.1,1.3,2.3,1.6,3.6     c0.5,2.7,0.5,5.4-0.3,8c-0.3,1-0.7,1.8-1.4,2.6c-1.2,1.3-3,1.3-4.2,0c-0.8-0.9-1.3-2-1.5-3.2     C298.6,231.7,298.4,230.4,298.3,229.7z M303.1,233.9c0.3-0.5,0.5-1,0.7-1.6c0.5-2.2,0.5-4.5,0-6.7c-0.1-0.5-0.4-1.1-0.6-1.6     c-0.4-0.6-1-0.6-1.4,0c-0.2,0.3-0.4,0.7-0.5,1c-0.7,2.3-0.7,4.7-0.2,7.1c0.1,0.6,0.4,1.1,0.6,1.7c0.2,0.4,0.5,0.5,0.7,0.5     C302.4,234.3,302.9,234.3,303.1,233.9z"></path>
			<path class="st13" d="M323.7,230.9c0-0.1,0.1-0.3,0.1-0.5h-1.2V228h3.6c0,0.5,0,1,0,1.5c-0.1,1.8-0.3,3.5-1,5.2     c-0.2,0.4-0.4,0.8-0.7,1.2c-1.3,1.8-3.5,1.8-4.8-0.1c-0.8-1.1-1.2-2.5-1.4-3.8c-0.4-2.4-0.3-4.8,0.3-7.2c0.3-1,0.6-1.9,1.2-2.7     c1.3-1.7,3.3-1.7,4.6-0.1c0.4,0.5,0.7,1.2,1.1,1.8c-0.8,0.3-1.5,0.6-2.2,0.9c-0.1-0.2-0.2-0.4-0.4-0.6c-0.5-0.7-1.2-0.7-1.5,0     c-0.3,0.5-0.5,1.1-0.6,1.7c-0.5,2.2-0.4,4.5,0.1,6.7c0.1,0.4,0.3,0.9,0.5,1.3c0,0.1,0.1,0.1,0.1,0.2c0.2,0.3,0.7,0.3,1,0     C322.8,233.7,323.5,232.9,323.7,230.9z"></path>
			<path class="st13" d="M354.8,232.8c-0.6-2.2-0.6-4.5-0.3-6.7c0.1-0.7,0.3-1.5,0.8-2.1c0.4-0.5,1-0.6,1.4-0.1     c0.2,0.2,0.3,0.5,0.5,0.7c0.7-0.3,1.4-0.6,2.2-0.9c-0.3-0.9-0.7-1.6-1.4-2.2c-1.2-1-2.9-1-4,0.1c-0.6,0.6-1,1.4-1.3,2.2     c-0.9,2.8-1,5.7-0.4,8.6c0.3,1.3,0.7,2.6,1.6,3.6c1,1.1,2.4,1.4,3.6,0.7c1-0.6,1.5-1.5,1.9-2.6c-0.8-0.3-1.5-0.6-2.1-0.9     c-0.2,0.3-0.4,0.6-0.6,0.8c0,0-0.5,0.7-0.9,0.3C355.1,233.8,355,233.6,354.8,232.8z"></path>
			<path class="st13" d="M347.2,221c0.8,0,1.6,0,2.5,0c0,5.3,0,10.6,0,15.9c-0.8,0-1.6,0-2.5,0C347.2,231.5,347.2,226.3,347.2,221z"></path>
			<path class="st13" d="M331.4,220.7C331.4,220.7,331.4,220.7,331.4,220.7c-1.6,5.4-3,10.9-4.5,16.3c0.8,0,1.6,0,2.3,0     c0.1,0,0.2,0,0.2,0s0.1-0.2,0.1-0.2c0.1-0.3,0.2-0.7,0.3-1c0-0.1,0.1-0.3,0.1-0.3s0.2,0,0.4,0c0.8,0,1.6,0,2.4,0     c0.2,0,0.4,0,0.4,0s0.1,0.3,0.1,0.5l0.2,0.8c0,0.1,0.1,0.4,0.1,0.4s0.1,0,0.2,0c0.7,0,1.5,0,2.3,0     C334.5,231.5,332.9,226.1,331.4,220.7z M330.5,233l0.8-3.3l1,3.3H330.5z"></path>
			<path class="st13" d="M342,225.2c0-1.4,0-2.9,0-4.3c0.9,0,1.7,0,2.5,0c0,5.3,0,10.6,0,15.9c-0.8,0-1.6,0-2.5,0c0-0.2,0-0.3,0-0.4     c0-1.7,0-3.4,0-5.1c0-0.2,0-0.7,0-0.7l0-0.1l-1.7-2.1v0.6c0,2.5,0,5,0,7.4c0,0.2,0,0.4,0,0.4s-0.3,0-0.4,0c-0.7,0-1.4,0-2.1,0     c0-5.3,0-11,0-16.3c0.2,0.3,0.4,0.5,0.5,0.7c1.1,1.6,2.2,3.2,3.3,4.9c0.1,0.1,0.2,0.3,0.4,0.6"></path>
		</g>
	</g>
	<g>
		<path class="st13" d="M428.2,233.1h-1.4v-0.9c0.5,0,0.8-0.1,1.1-0.2c0.2-0.2,0.4-0.4,0.4-0.8h1.1v5.8h-1.2V233.1z"></path>
		<path class="st13" d="M435.6,232.8c0,0.3-0.1,0.6-0.2,0.9c-0.1,0.2-0.3,0.4-0.5,0.6c-0.2,0.2-0.5,0.4-0.8,0.5    c-0.4,0.2-0.6,0.4-0.8,0.5c-0.2,0.1-0.3,0.3-0.4,0.4c-0.1,0.1-0.1,0.2-0.1,0.4h2.9v1h-4.3c0,0,0-0.1,0-0.2c0-0.4,0-0.7,0.1-1    c0.1-0.3,0.3-0.6,0.5-0.8c0.2-0.3,0.6-0.5,1-0.8c0.3-0.2,0.6-0.3,0.7-0.5c0.2-0.1,0.3-0.3,0.4-0.4c0.1-0.2,0.1-0.3,0.1-0.5    c0-0.2-0.1-0.4-0.2-0.5c-0.1-0.1-0.3-0.2-0.5-0.2c-0.6,0-0.9,0.3-0.9,0.9h-1.2c0-0.6,0.2-1.1,0.6-1.4c0.4-0.3,0.9-0.5,1.5-0.5    c0.6,0,1.1,0.1,1.5,0.4C435.5,231.8,435.6,232.2,435.6,232.8z"></path>
		<path class="st13" d="M438.4,233.1H437v-0.9c0.5,0,0.8-0.1,1.1-0.2c0.2-0.2,0.4-0.4,0.4-0.8h1.1v5.8h-1.2V233.1z"></path>
		<path class="st13" d="M448.2,232.8h-1.3c0-0.3-0.1-0.6-0.3-0.7c-0.2-0.2-0.4-0.3-0.8-0.3c-0.3,0-0.5,0.1-0.7,0.2    c-0.2,0.1-0.3,0.3-0.3,0.5c0,0.2,0,0.3,0.1,0.4c0.1,0.1,0.2,0.2,0.4,0.3c0.2,0.1,0.4,0.1,0.8,0.2c0.5,0.1,0.9,0.2,1.1,0.4    c0.3,0.1,0.5,0.3,0.7,0.6c0.2,0.2,0.3,0.6,0.3,1c0,0.4-0.1,0.7-0.3,1c-0.2,0.3-0.5,0.5-0.8,0.7c-0.4,0.2-0.8,0.2-1.2,0.2    c-0.8,0-1.4-0.2-1.8-0.6c-0.4-0.4-0.7-0.9-0.7-1.6h1.3c0,0.4,0.1,0.6,0.3,0.8c0.2,0.2,0.5,0.3,0.9,0.3c0.3,0,0.6-0.1,0.8-0.2    c0.2-0.1,0.3-0.3,0.3-0.6c0-0.2,0-0.3-0.1-0.4c-0.1-0.1-0.2-0.2-0.4-0.2s-0.4-0.1-0.8-0.2c-0.5-0.1-0.9-0.2-1.2-0.4    c-0.3-0.1-0.5-0.3-0.7-0.5c-0.2-0.2-0.3-0.6-0.3-1c0-0.4,0.1-0.7,0.3-0.9c0.2-0.3,0.5-0.5,0.8-0.6c0.3-0.2,0.7-0.2,1.2-0.2    c0.8,0,1.3,0.2,1.7,0.5C448,231.6,448.2,232.1,448.2,232.8z"></path>
		<path class="st13" d="M449.9,237h-1.3l2.1-6.1h1.7l2.1,6.1h-1.3l-0.5-1.5h-2.3L449.9,237z M451.5,231.7L451.5,231.7    c-0.2,0.8-0.5,1.6-0.7,2.4l-0.1,0.4h1.6l-0.1-0.4C451.9,233.1,451.7,232.4,451.5,231.7z"></path>
		<path class="st13" d="M459.1,237H455v-6.1h1.3v5h2.9V237z"></path>
		<path class="st13" d="M462,237.1c-0.8,0-1.4-0.2-1.8-0.6c-0.4-0.4-0.6-1-0.6-1.8v-3.8h1.3v3.7c0,0.4,0.1,0.8,0.3,1    c0.2,0.2,0.5,0.4,0.9,0.4c0.4,0,0.7-0.1,0.9-0.4c0.2-0.2,0.3-0.6,0.3-1v-3.7h1.3v3.8c0,0.8-0.2,1.4-0.6,1.8    C463.4,236.9,462.8,237.1,462,237.1z"></path>
		<path class="st13" d="M469.9,232.8h-1.3c0-0.3-0.1-0.6-0.3-0.7c-0.2-0.2-0.4-0.3-0.8-0.3c-0.3,0-0.5,0.1-0.7,0.2    c-0.2,0.1-0.3,0.3-0.3,0.5c0,0.2,0,0.3,0.1,0.4c0.1,0.1,0.2,0.2,0.4,0.3c0.2,0.1,0.4,0.1,0.8,0.2c0.5,0.1,0.9,0.2,1.1,0.4    c0.3,0.1,0.5,0.3,0.7,0.6c0.2,0.2,0.3,0.6,0.3,1c0,0.4-0.1,0.7-0.3,1c-0.2,0.3-0.5,0.5-0.8,0.7c-0.4,0.2-0.8,0.2-1.2,0.2    c-0.8,0-1.4-0.2-1.8-0.6c-0.4-0.4-0.7-0.9-0.7-1.6h1.3c0,0.4,0.1,0.6,0.3,0.8c0.2,0.2,0.5,0.3,0.9,0.3c0.3,0,0.6-0.1,0.8-0.2    c0.2-0.1,0.3-0.3,0.3-0.6c0-0.2,0-0.3-0.1-0.4c-0.1-0.1-0.2-0.2-0.4-0.2s-0.4-0.1-0.8-0.2c-0.5-0.1-0.9-0.2-1.2-0.4    c-0.3-0.1-0.5-0.3-0.7-0.5c-0.2-0.2-0.3-0.6-0.3-1c0-0.4,0.1-0.7,0.3-0.9c0.2-0.3,0.5-0.5,0.8-0.6c0.3-0.2,0.7-0.2,1.2-0.2    c0.8,0,1.3,0.2,1.7,0.5C469.7,231.6,469.9,232.1,469.9,232.8z"></path>
		<path class="st13" d="M475.5,232.5c0,0.3-0.1,0.6-0.3,0.9c-0.2,0.2-0.4,0.4-0.8,0.5v0c0.4,0.1,0.7,0.3,0.9,0.5    c0.2,0.2,0.3,0.5,0.3,0.9c0,0.5-0.2,0.9-0.6,1.2c-0.4,0.3-0.9,0.4-1.6,0.4h-2.4v-6.1h2.2c0.7,0,1.3,0.1,1.7,0.4    C475.3,231.6,475.5,232,475.5,232.5z M473.3,233.4c0.4,0,0.6-0.1,0.8-0.2c0.2-0.1,0.3-0.3,0.3-0.6c0-0.3-0.1-0.4-0.2-0.6    c-0.2-0.1-0.4-0.2-0.8-0.2h-0.9v1.5H473.3z M473.3,236c0.4,0,0.7-0.1,0.8-0.2c0.2-0.1,0.3-0.3,0.3-0.6c0-0.3-0.1-0.5-0.3-0.6    c-0.2-0.1-0.5-0.2-0.9-0.2h-0.9v1.6H473.3z"></path>
		<path class="st13" d="M479,237.1c-0.8,0-1.4-0.2-1.8-0.6c-0.4-0.4-0.6-1-0.6-1.8v-3.8h1.3v3.7c0,0.4,0.1,0.8,0.3,1    c0.2,0.2,0.5,0.4,0.9,0.4c0.4,0,0.7-0.1,0.9-0.4c0.2-0.2,0.3-0.6,0.3-1v-3.7h1.3v3.8c0,0.8-0.2,1.4-0.6,1.8    C480.4,236.9,479.8,237.1,479,237.1z"></path>
		<path class="st13" d="M487.2,232.6c0,0.4-0.1,0.7-0.3,0.9c-0.2,0.3-0.5,0.4-0.8,0.5v0c0.2,0.1,0.4,0.2,0.5,0.4    c0.1,0.2,0.3,0.4,0.4,0.8l0.6,1.7h-1.4l-0.5-1.4c-0.1-0.3-0.2-0.6-0.4-0.7c-0.2-0.1-0.4-0.2-0.7-0.2H484v2.3h-1.3v-6.1h2.2    c0.8,0,1.3,0.1,1.7,0.4C487,231.7,487.2,232.1,487.2,232.6z M484.9,233.7c0.7,0,1.1-0.3,1.1-0.9c0-0.6-0.4-0.8-1.1-0.8H484v1.7    H484.9z"></path>
		<path class="st13" d="M489.4,237v-2.4l-2.1-3.7h1.4l0.6,1.1c0.3,0.5,0.5,1,0.7,1.5h0c0.2-0.5,0.5-1,0.7-1.5l0.6-1.1h1.4l-2.1,3.7    v2.4H489.4z"></path>
		<path class="st13" d="M499.9,232.6c0,0.4-0.1,0.7-0.3,0.9c-0.2,0.3-0.5,0.4-0.8,0.5v0c0.2,0.1,0.4,0.2,0.5,0.4    c0.1,0.2,0.3,0.4,0.4,0.8l0.6,1.7H499l-0.5-1.4c-0.1-0.3-0.2-0.6-0.4-0.7c-0.2-0.1-0.4-0.2-0.7-0.2h-0.7v2.3h-1.3v-6.1h2.2    c0.8,0,1.3,0.1,1.7,0.4C499.7,231.7,499.9,232.1,499.9,232.6z M497.6,233.7c0.7,0,1.1-0.3,1.1-0.9c0-0.6-0.4-0.8-1.1-0.8h-0.8v1.7    H497.6z"></path>
		<path class="st13" d="M506.1,232.3c0.2,0.5,0.3,1,0.3,1.7c0,0.7-0.1,1.2-0.3,1.7c-0.2,0.5-0.6,0.8-1,1.1c-0.4,0.3-0.9,0.4-1.5,0.4    s-1.1-0.1-1.5-0.4c-0.4-0.3-0.8-0.6-1-1.1c-0.2-0.5-0.3-1-0.3-1.7c0-0.7,0.1-1.2,0.3-1.7c0.2-0.5,0.6-0.8,1-1.1    c0.4-0.3,0.9-0.4,1.5-0.4s1.1,0.1,1.5,0.4C505.5,231.4,505.9,231.8,506.1,232.3z M502,234c0,0.6,0.1,1.1,0.4,1.5    c0.3,0.4,0.7,0.6,1.2,0.6c0.5,0,0.9-0.2,1.2-0.6c0.3-0.4,0.4-0.9,0.4-1.5s-0.1-1.1-0.4-1.5c-0.3-0.4-0.7-0.6-1.2-0.6    c-0.5,0-0.9,0.2-1.2,0.6C502.1,232.8,502,233.3,502,234z"></path>
		<path class="st13" d="M507.9,237h-1.3l2.1-6.1h1.7l2.1,6.1h-1.3l-0.5-1.5h-2.3L507.9,237z M509.5,231.7L509.5,231.7    c-0.2,0.8-0.5,1.6-0.7,2.4l-0.1,0.4h1.6l-0.1-0.4C509.9,233.1,509.7,232.4,509.5,231.7z"></path>
		<path class="st13" d="M518.3,234c0,1-0.3,1.7-0.8,2.3c-0.6,0.5-1.4,0.8-2.4,0.8h-2v-6.1h2c1,0,1.8,0.3,2.4,0.8    C518,232.2,518.3,233,518.3,234z M515,235.9c0.7,0,1.1-0.2,1.5-0.5c0.3-0.3,0.5-0.8,0.5-1.5c0-0.7-0.2-1.2-0.5-1.5    c-0.3-0.3-0.8-0.5-1.5-0.5h-0.8v3.9H515z"></path>
	</g>
</g>
<g id="Layer_2">
	<g>
		<g>
			<polygon class="st31" points="407.8,357.8 398.9,357.8 396.6,344.6 410,344.6    "></polygon>
			<path class="st31" d="M397.6,350c0,0.2,11,0,11,0"></path>
		</g>
		<g>
			<polygon class="st31" points="407.8,366.8 398.9,366.8 396.6,353.7 410,353.7    "></polygon>
			<path class="st31" d="M397.6,359.1c0,0.2,11,0,11,0"></path>
		</g>
		<g>
			<polygon class="st31" points="407.8,376.7 398.9,376.7 396.6,363.5 410,363.5    "></polygon>
			<path class="st31" d="M397.6,369c0,0.2,11,0,11,0"></path>
		</g>
		<g>
			<polygon class="st32" points="399,357.8 390.1,357.8 387.8,344.6 401.2,344.6    "></polygon>
			<path class="st32" d="M388.7,350c0,0.2,11,0,11,0"></path>
		</g>
		<g>
			<polygon class="st32" points="399,366.8 390.1,366.8 387.8,353.7 401.2,353.7    "></polygon>
			<path class="st32" d="M388.7,359.1c0,0.2,11,0,11,0"></path>
		</g>
		<g>
			<polygon class="st32" points="399,376.7 390.1,376.7 387.8,363.5 401.2,363.5    "></polygon>
			<path class="st32" d="M388.7,369c0,0.2,11,0,11,0"></path>
		</g>
		<g>
			<polygon class="st33" points="389.6,357.8 380.7,357.8 378.4,344.6 391.8,344.6    "></polygon>
			<path class="st33" d="M379.3,350c0,0.2,11,0,11,0"></path>
		</g>
		<g>
			<polygon class="st33" points="389.6,366.8 380.7,366.8 378.4,353.7 391.8,353.7    "></polygon>
			<path class="st33" d="M379.3,359.1c0,0.2,11,0,11,0"></path>
		</g>
		<rect x="527.3" y="417.3" class="st31" width="32.1" height="5.8"></rect>
		<path class="st11" d="M481.9,456.7L481.9,456.7c0.7,0.6,1.2,1.4,1.4,2.2l0,0l12.9-7.8l0.9-0.5l-1.7-6.5l-2,0.5l1.1,4.4    L481.9,456.7z"></path>
		<path class="st11" d="M538.1,461.4l-54.1,8.3c-6.4,0-11.7-5.2-11.7-11.7c0-6.4,5.2-11.7,11.7-11.7l54.1,8.3"></path>
		<path class="st31" d="M537.8,456.5l-52.4-8c-2.3-0.4-4.8,0-6.8,1.3c-2.8,1.8-4.6,4.9-4.6,8.4s1.9,6.6,4.6,8.4    c2,1.3,4.4,1.6,6.8,1.3l52.4-8"></path>
		<rect x="369.2" y="393.9" class="st31" width="79.5" height="61.8"></rect>
		<path class="st32" d="M445.3,395.3l-0.1,58.5l-68.3-0.1l-5.8,0.1v-20.7c0-1.2-1-2.3-2.3-2.3l0,0c-1.4,0-2.5,1.1-2.5,2.5v22.2    c0,1.4,1.1,2.5,2.5,2.5h2.3h6.5l65.9,0l1.1,0h39.4l18.6-44l34.3,45.4l3.2-3.5l-35-46.4l-0.3-0.3l2.7-6.3h2.9    c1.3,0,2.8-2.2,2.8-3.5h-9.9l-22.9,54.4h-29.6l-0.1-58.6l5.1-12c0.2-0.4-0.1-0.9-0.6-0.9h-4.8L445.3,395.3z"></path>
		<path class="st11" d="M493.5,393.6l10.2-0.5c0,0,4,0.3,9.9-1.6c1.1-0.3,2-0.5,2.8-0.5c3.6,0.1,5.1,4.8,2.2,7.1    c-1,0.7-2.2,1.4-3.9,1.5c-5.2,0.5-10.4-1.6-13.4-1.8c-2.2-0.2-6-0.8-8-1.1c-0.7-0.1-1.3-0.7-1.3-1.5l0,0    C492,394.4,492.7,393.7,493.5,393.6z"></path>
		<path class="st11" d="M482.9,459.1L482.9,459.1c-0.7-0.6-1.2-1.4-1.4-2.2l0,0l-12.9,7.8l-0.9,0.5l1.7,6.5l2-0.5l-1.1-4.4    L482.9,459.1z"></path>
		<path class="st11" d="M538.1,430.3c-15.4,0-27.8,12.5-27.8,27.8c0,15.4,12.5,27.8,27.8,27.8c15.4,0,27.8-12.5,27.8-27.8    C565.9,442.7,553.4,430.3,538.1,430.3z M538.1,485.9c-15.4,0-27.8-12.5-27.8-27.8c0-15.4,12.5-27.8,27.8-27.8    c15.4,0,27.8,12.5,27.8,27.8C565.9,473.5,553.4,485.9,538.1,485.9z"></path>
		<circle class="st33" cx="538.1" cy="458.1" r="3.3"></circle>
		<path class="st33" d="M538.1,424.9c-18.3,0-33.1,14.8-33.1,33.1c0,18.3,14.8,33.1,33.1,33.1c18.3,0,33.1-14.8,33.1-33.1    C571.2,439.8,556.4,424.9,538.1,424.9z M538.1,486.8c-15.9,0-28.8-12.9-28.8-28.8s12.9-28.8,28.8-28.8c15.9,0,28.8,12.9,28.8,28.8    S553.9,486.8,538.1,486.8z"></path>
		<line class="st5" x1="559.4" y1="429.1" x2="540" y2="455.4"></line>
		<path class="st5" d="M560.2,429.1h-0.8v-6.2h0.8c1.7,0,3.1,1.4,3.1,3.1l0,0C563.3,427.7,561.9,429.1,560.2,429.1z"></path>
		<path class="st5" d="M559.4,422.9h-30.2c-1.7,0-3.4,0.4-4.9,1.1l-10.2,4.6"></path>
		<line class="st5" x1="527.3" y1="423.1" x2="537.2" y2="455.4"></line>
		<line class="st5" x1="532.4" y1="439.8" x2="551.5" y2="439.8"></line>
		<line class="st5" x1="538.1" y1="461.4" x2="538.1" y2="484.9"></line>
		<line class="st5" x1="540.4" y1="460.5" x2="557" y2="477"></line>
		<line class="st5" x1="541.4" y1="458.1" x2="564.9" y2="458.1"></line>
		<line class="st5" x1="540.4" y1="455.7" x2="557" y2="439.1"></line>
		<line class="st5" x1="538.1" y1="454.7" x2="538.1" y2="431.3"></line>
		<line class="st5" x1="535.7" y1="455.7" x2="519.1" y2="439.1"></line>
		<line class="st5" x1="534.7" y1="458.1" x2="511.3" y2="458.1"></line>
		<line class="st5" x1="535.7" y1="460.5" x2="519.1" y2="477"></line>
		<circle class="st32" cx="482.9" cy="457.3" r="3.5"></circle>
		<g>
			<g>
				<path class="st33" d="M415.8,438.7c-14.5,0-26.2,11.7-26.2,26.2c0,14.5,11.7,26.2,26.2,26.2c14.5,0,26.2-11.7,26.2-26.2      C442.1,450.5,430.3,438.7,415.8,438.7z M415.8,486.8c-12.1,0-21.9-9.8-21.9-21.9s9.8-21.9,21.9-21.9s21.9,9.8,21.9,21.9      S427.9,486.8,415.8,486.8z"></path>
			</g>
			<line class="st33" x1="417.7" y1="463.1" x2="430.6" y2="450.2"></line>
			<line class="st33" x1="415.8" y1="462.3" x2="415.8" y2="444.1"></line>
			<circle class="st33" cx="415.8" cy="464.9" r="2.6"></circle>
			<line class="st33" x1="415.8" y1="467.6" x2="415.8" y2="485.8"></line>
			<line class="st33" x1="417.7" y1="466.8" x2="430.6" y2="479.7"></line>
			<line class="st33" x1="418.4" y1="464.9" x2="436.7" y2="464.9"></line>
			<line class="st33" x1="414" y1="463.1" x2="401.1" y2="450.2"></line>
			<line class="st33" x1="413.2" y1="464.9" x2="395" y2="464.9"></line>
			<line class="st33" x1="414" y1="466.8" x2="401.1" y2="479.7"></line>
		</g>
		<path class="st11" d="M455.7,382.5h-5.4v-11.8c0-1.5,1.2-2.7,2.7-2.7l0,0c1.5,0,2.7,1.2,2.7,2.7V382.5z"></path>
		<polygon class="st32" points="540.9,417.3 530.5,417.3 530.5,412.7 530.5,398.2 540.9,398.2   "></polygon>
		<path class="st31" d="M555.9,417.3h-10.4v-13.9c0-2.9,2.3-5.2,5.2-5.2l0,0c2.9,0,5.2,2.3,5.2,5.2V417.3z"></path>
		<line class="st31" x1="545.5" y1="406.7" x2="555.9" y2="406.7"></line>
		<line class="st5" x1="530.5" y1="412.7" x2="540.9" y2="412.7"></line>
		<line class="st5" x1="530.5" y1="407.7" x2="540.9" y2="407.7"></line>
		<line class="st5" x1="530.5" y1="402.8" x2="540.9" y2="402.8"></line>
		<rect x="377.4" y="376.7" class="st33" width="41" height="17.2"></rect>
		<g>
			<polygon class="st33" points="389.6,376.7 380.7,376.7 378.4,363.5 391.8,363.5    "></polygon>
			<path class="st33" d="M379.3,369c0,0.2,11,0,11,0"></path>
		</g>
		<polygon class="st31" points="436.7,393.9 424.1,393.9 426.1,359.2 434.3,359.2   "></polygon>
		<g>
			<path class="st13" d="M397.1,404.9c0-1,0-2.1,0-3.1c0.6,0,1.2,0,1.8,0c0,3.8,0,7.6,0,11.4c-0.6,0-1.2,0-1.8,0c0-0.1,0-0.2,0-0.3     c0-1.2,0-2.5,0-3.7c0-0.2,0-0.5,0-0.5l0-0.1l-1.2-1.5v0.4c0,1.8,0,3.6,0,5.3c0,0.1,0,0.3,0,0.3s-0.2,0-0.3,0c-0.5,0-1,0-1.5,0     c0-3.8,0-7.9,0-11.7c0.2,0.2,0.3,0.3,0.4,0.5c0.8,1.2,1.6,2.3,2.3,3.5c0.1,0.1,0.2,0.2,0.3,0.4"></path>
			<path class="st13" d="M402.7,411.4c-0.1,0-0.2,0-0.3,0c0-0.1,0-0.1,0-0.1c0-1.4,0-2.8,0-4.2c0-0.1,0-0.2,0-0.2s0.2,0,0.3,0     c0.5,0,0.9,0,1.4,0c0-0.6,0-1.2,0-1.8c-0.4,0-0.8,0-1.1,0l-0.2,0c-0.1,0-0.2,0-0.3,0c0-0.5,0-1,0-1.5c0.7,0,1.4,0,2,0     c0-0.6,0-1.2,0-1.8c-1.3,0-2.6,0-3.9,0c0,3.8,0,7.6,0,11.4c1.3,0,2.6,0,3.9,0c0-0.6,0-1.2,0-1.8c-0.5,0-1,0-1.6,0"></path>
			<path class="st13" d="M407.1,404.4c0,2.8,0,5.6,0,8.4c0,0.1,0,0.2,0,0.4c0.5,0,1,0,1.5,0c0.3,0,0.3-0.1,0.3-0.3c0-3,0-5.9,0-8.9     c0-0.1,0-0.2,0-0.4c0.5,0,0.9,0,1.4,0c0-0.6,0-1.2,0-1.8c-1.6,0-3.1,0-4.6,0c0,0.6,0,1.2,0,1.8c0.5,0,0.9,0,1.4,0     c0,0.1,0,0.2,0,0.4L407.1,404.4z"></path>
			<path class="st13" d="M384.4,411.4c0.4,0,0.8,0,1.2,0c0,0.4,0,0.9,0,1.3c0,0.3,0,0.6,0,0.6s-0.3,0-0.5,0c-0.9,0-1.7,0-2.6,0     c-0.1,0-0.3,0-0.3,0s0-0.2,0-0.3c0-3.6,0-7.2,0-10.9c0-0.1,0-0.3,0-0.3s0.2,0,0.3,0c0.5,0,1,0,1.5,0c0,3.2,0,6.4,0,9.6     C384.1,411.4,384.2,411.4,384.4,411.4L384.4,411.4z"></path>
			<path class="st13" d="M389.8,401.5C389.7,401.5,389.7,401.5,389.8,401.5c-1.1,3.9-2.2,7.8-3.3,11.7c0.6,0,1.1,0,1.7,0     c0,0,0.1,0,0.1,0s0-0.1,0.1-0.2c0.1-0.2,0.2-0.5,0.2-0.8c0-0.1,0-0.2,0-0.2s0.2,0,0.3,0c0.6,0,1.2,0,1.7,0c0.1,0,0.3,0,0.3,0     s0,0.2,0.1,0.3l0.1,0.6c0,0.1,0.1,0.3,0.1,0.3s0.1,0,0.2,0c0.5,0,1.1,0,1.7,0C391.9,409.3,390.9,405.4,389.8,401.5z M389.1,410.3     l0.6-2.4l0.7,2.4H389.1z"></path>
			<path class="st13" d="M380.8,403.6c-0.4-1.2-1.3-1.8-2.6-1.8c-0.7,0-1.4,0-2.1,0c-0.1,0-0.4,0-0.4,0s0,0.2,0,0.4     c0,3.6,0,7.1,0,10.7c0,0.1,0,0.2,0,0.3c0,0,0,0.1,0,0.1s0.1,0,0.1,0c0.6,0,1.1,0,1.7,0c0-1.8,0-3.5,0-5.2c0.3,0,0.5,0,0.7,0     c1.1,0,2-0.4,2.4-1.5C381.1,405.6,381.1,404.6,380.8,403.6z M379.1,405.2c0,0.5-0.4,1-1,1h-0.6v-2.6h0.6c0.5,0,1,0.4,1,1V405.2z"></path>
		</g>
		<g>
			<path class="st13" d="M388.9,427.4c-0.3-1.1-0.5-2.1-0.8-3.2c-0.2-0.9-0.4-1.8-0.9-2.6c0.2-0.1,0.3-0.2,0.4-0.4     c0.7-0.7,0.9-1.5,0.9-2.5c-0.1-1.2-0.9-2.2-2-2.4c-1-0.1-2.1-0.1-3.1-0.1c0,0,0,0,0,0c0,3.7,0,7.5,0,11.2c0.6,0,1.2,0,1.8,0     c0-1.7,0-3.5,0-5.2c0.5,0,0.7,0.1,0.8,0.4c0.1,0.2,0.2,0.4,0.2,0.7c0.3,1.3,0.6,2.6,0.9,3.9c0,0.1,0.1,0.2,0.2,0.2     c0.6,0,1.1,0,1.7,0C388.9,427.5,388.9,427.5,388.9,427.4z M386.6,419.9c-0.2,0.4-0.6,0.5-1,0.5l-0.5,0c0-0.8,0-1.6,0-2.5     c0.6,0,1.1-0.1,1.5,0.4C386.9,418.9,386.9,419.4,386.6,419.9z"></path>
			<path class="st13" d="M375.7,422.4c0-1.9,0.2-3.4,0.8-4.7c0.2-0.4,0.4-0.8,0.7-1.1c0.9-0.9,2.2-0.8,3,0.2     c0.6,0.8,0.9,1.7,1.1,2.6c0.4,1.9,0.3,3.8-0.2,5.7c-0.2,0.7-0.5,1.3-1,1.9c-0.9,0.9-2.1,1-3,0c-0.6-0.6-0.9-1.4-1.1-2.3     C375.9,423.9,375.8,422.9,375.7,422.4z M379.2,425.5c0.2-0.4,0.4-0.7,0.5-1.1c0.4-1.6,0.4-3.2,0-4.8c-0.1-0.4-0.3-0.8-0.5-1.1     c-0.3-0.5-0.7-0.5-1,0c-0.2,0.2-0.3,0.5-0.4,0.8c-0.5,1.7-0.5,3.4-0.1,5.1c0.1,0.4,0.3,0.8,0.5,1.2c0.1,0.3,0.3,0.4,0.5,0.3     C378.6,425.8,379,425.8,379.2,425.5z"></path>
			<path class="st13" d="M393.9,423.3c0-0.1,0-0.2,0.1-0.3h-0.9v-1.8h2.6c0,0.3,0,0.7,0,1c0,1.3-0.2,2.5-0.7,3.7     c-0.1,0.3-0.3,0.6-0.5,0.9c-1,1.3-2.5,1.3-3.5-0.1c-0.6-0.8-0.8-1.8-1-2.7c-0.3-1.7-0.2-3.5,0.2-5.2c0.2-0.7,0.4-1.3,0.9-1.9     c0.9-1.2,2.4-1.2,3.3,0c0.3,0.4,0.5,0.8,0.8,1.3c-0.6,0.2-1.1,0.4-1.6,0.6c-0.1-0.2-0.2-0.3-0.3-0.4c-0.3-0.5-0.8-0.5-1.1,0     c-0.2,0.4-0.4,0.8-0.5,1.2c-0.3,1.6-0.3,3.2,0.1,4.8c0.1,0.3,0.2,0.6,0.4,0.9c0,0.1,0.1,0.1,0.1,0.1c0.2,0.2,0.5,0.2,0.7,0     C393.3,425.3,393.8,424.7,393.9,423.3z"></path>
			<path class="st13" d="M416.3,424.7c-0.5-1.6-0.4-3.2-0.2-4.8c0.1-0.5,0.2-1.1,0.6-1.5c0.3-0.4,0.7-0.4,1,0     c0.1,0.1,0.2,0.3,0.4,0.5c0.5-0.2,1-0.4,1.6-0.6c-0.2-0.6-0.5-1.2-1-1.6c-0.8-0.7-2-0.7-2.8,0.1c-0.5,0.5-0.7,1-1,1.6     c-0.7,2-0.7,4.1-0.3,6.2c0.2,0.9,0.5,1.8,1.1,2.6c0.7,0.8,1.7,1,2.6,0.5c0.7-0.4,1.1-1.1,1.4-1.9c-0.5-0.2-1.1-0.4-1.5-0.6     c-0.2,0.2-0.3,0.4-0.5,0.6c0,0-0.3,0.5-0.6,0.2C416.5,425.4,416.4,425.2,416.3,424.7z"></path>
			<path class="st13" d="M410.8,416.2c0.6,0,1.2,0,1.8,0c0,3.8,0,7.6,0,11.4c-0.6,0-1.2,0-1.8,0C410.8,423.8,410.8,420,410.8,416.2z     "></path>
			<path class="st13" d="M399.5,416C399.4,416,399.4,416,399.5,416c-1.1,3.9-2.2,7.8-3.3,11.7c0.6,0,1.1,0,1.7,0c0,0,0.1,0,0.1,0     s0-0.1,0.1-0.2c0.1-0.2,0.2-0.5,0.2-0.8c0-0.1,0-0.2,0-0.2s0.2,0,0.3,0c0.6,0,1.2,0,1.7,0c0.1,0,0.3,0,0.3,0s0,0.2,0.1,0.3     l0.1,0.6c0,0.1,0.1,0.3,0.1,0.3s0.1,0,0.2,0c0.5,0,1.1,0,1.7,0C401.6,423.8,400.6,419.9,399.5,416z M398.8,424.8l0.6-2.4l0.7,2.4     H398.8z"></path>
			<path class="st13" d="M407.1,419.2c0-1,0-2.1,0-3.1c0.6,0,1.2,0,1.8,0c0,3.8,0,7.6,0,11.4c-0.6,0-1.2,0-1.8,0c0-0.1,0-0.2,0-0.3     c0-1.2,0-2.5,0-3.7c0-0.2,0-0.5,0-0.5l0-0.1l-1.2-1.5v0.4c0,1.8,0,3.6,0,5.3c0,0.1,0,0.3,0,0.3s-0.2,0-0.3,0c-0.5,0-1,0-1.5,0     c0-3.8,0-7.9,0-11.7c0.2,0.2,0.3,0.3,0.4,0.5c0.8,1.2,1.6,2.3,2.3,3.5c0.1,0.1,0.2,0.2,0.3,0.4"></path>
		</g>
	</g>
</g>
</svg>
