<?xml version="1.0" encoding="UTF-8"?>
<svg xmlns="http://www.w3.org/2000/svg" viewBox="0 0 600 600">
  <path d="m98.64 245.37h407.26v246.49h-407.26z" fill="#fff"></path>
  <path d="m134.7 297.52h20.8v16.19h-20.8z" fill="#ffde00"></path>
  <path d="m374.3 426.21v53h36.46v-53zm29.85 28.87h-23.24v-15.83h23.24z" fill="#ffde00"></path>
  <path d="m337.83 426.21v53h36.47v-53zm29.85 28.87h-23.23v-15.83h23.23z" fill="#ffde00"></path>
  <path d="m106.74 196.12h386.51v56.43h-386.51z" fill="#ffde00"></path>
  <path d="m510.43 330.81c-6.13 0-6.13-5.5-12.26-5.5s-6.12 5.5-12.25 5.5-6.12-5.5-12.25-5.5-6.12 5.5-12.25 5.5-6.12-5.5-12.25-5.5-6.12 5.5-12.24 5.5-6.13-5.5-12.25-5.5-6.13 5.5-12.25 5.5-6.12-5.5-12.25-5.5-6.12 5.5-12.24 5.5-6.13-5.5-12.25-5.5-6.13 5.5-12.25 5.5-6.12-5.5-12.25-5.5-6.12 5.5-12.25 5.5-6.12-5.5-12.24-5.5-6.13 5.5-12.25 5.5-6.13-5.5-12.25-5.5-6.12 5.5-12.25 5.5-6.12-5.5-12.24-5.5-6.13 5.5-12.25 5.5-6.12-5.5-12.25-5.5-6.12 5.5-12.24 5.5-6.13-5.5-12.25-5.5-6.12 5.5-12.25 5.5v-14.57h294z" fill="#ffde00"></path>
  <path d="m222.77 252.55h282.1a5.56 5.56 0 0 1 5.56 5.56v58.13a0 0 0 0 1 0 0h-294a0 0 0 0 1 0 0v-57.39a6.29 6.29 0 0 1 6.34-6.3z" fill="#ffde00"></path>
  <path d="m485.92 330.81a8.22 8.22 0 0 1 -1.73-.2v136.39h-58.06v-55.1h-3.74v-29.9h3.74v-56.5a8 8 0 0 0 -1.45-.17c-4 0-5.41 2.34-7.61 4v150.14h76.19v-152.47c-2.06 1.64-3.49 3.81-7.34 3.81z" fill="#ffde00"></path>
  <path d="m422.39 381.98h13.97v29.91h-13.97z" fill="#ffde00"></path>
  <path d="m123.94 441.74h6.06v-10.5l-1.59-4.92v-4h-3v4l-1.59 4.92z" fill="#ffde00"></path>
  <path d="m106.74 479.47h386.51v10.99h-386.51z" fill="#00ab81"></path>
  <path d="m81.86 179.88h436.7v8.12h-436.7z" fill="#00ab81"></path>
  <path d="m94.09 196.12v-8.12h-12.65v302.46h25.3v-294.34z" fill="#00ab81"></path>
  <path d="m94.09 188h412.23v8.12h-412.23z" fill="#00ab81"></path>
  <path d="m505.91 188v8.12h-12.65v56.78a20.85 20.85 0 0 1 17.17 20.51v57.4c-6.13 0-6.13-5.5-12.26-5.5a7.35 7.35 0 0 0 -4.91 1.72v163.43h25.3v-302.46z" fill="#00ab81"></path>
  <path d="m228.72 325.31c-6.12 0-6.12 5.5-12.25 5.5v-54.65c0-11 7.51-21 17.65-23.61h-48.67v226.6h49.84v-150.71c-1.69-1.44-3.22-3.13-6.57-3.13z" fill="#00ab81"></path>
  <path d="m326.7 325.31a7.47 7.47 0 0 0 -4.9 1.68v152.21h9.73v-152.2a7.45 7.45 0 0 0 -4.83-1.69z" fill="#00ab81"></path>
  <path d="m114.85 294.18a.42.42 0 0 0 -.3.45v2.19a.4.4 0 0 0 .34.44h.11a1.48 1.48 0 0 1 -.3.6 5.63 5.63 0 0 1 -.94.82 4.51 4.51 0 0 0 -1.09 1 3.16 3.16 0 0 0 -.57 1.83v10.23a1.78 1.78 0 0 0 1.51 1.94h8.06a1.78 1.78 0 0 0 1.51-1.94v-10.18a3.18 3.18 0 0 0 -.56-1.83 4.77 4.77 0 0 0 -1.09-1 5.15 5.15 0 0 1 -.93-.83 1.31 1.31 0 0 1 -.3-.6h.11a.41.41 0 0 0 .35-.44v-2.19a.46.46 0 0 0 -.1-.31.29.29 0 0 0 -.24-.14h-5.56z" fill="#00ab81" fill-rule="evenodd"></path>
  <path d="m142.33 392.88a.42.42 0 0 0 -.31.44v2.2a.41.41 0 0 0 .35.44h.09a1.56 1.56 0 0 1 -.31.6 5.46 5.46 0 0 1 -.93.81 4.94 4.94 0 0 0 -1.09 1 3.19 3.19 0 0 0 -.58 1.84v10.23a1.78 1.78 0 0 0 1.51 1.94h8.07a1.78 1.78 0 0 0 1.51-1.94v-10.18a3.11 3.11 0 0 0 -.57-1.83 5 5 0 0 0 -1.08-1 4.83 4.83 0 0 1 -.93-.83 1.5 1.5 0 0 1 -.31-.6h.12a.4.4 0 0 0 .34-.44v-2.19a.58.58 0 0 0 -.1-.32.34.34 0 0 0 -.25-.13h-5.55z" fill="#fb715d" fill-rule="evenodd"></path>
  <path d="m124.66 392.88a.42.42 0 0 0 -.31.44v2.2a.41.41 0 0 0 .35.44h.09a1.56 1.56 0 0 1 -.31.6 5.19 5.19 0 0 1 -.94.81 5.13 5.13 0 0 0 -1.08 1 3.19 3.19 0 0 0 -.58 1.84v10.23a1.78 1.78 0 0 0 1.51 1.94h8.07a1.78 1.78 0 0 0 1.51-1.94v-10.18a3.18 3.18 0 0 0 -.57-1.83 5 5 0 0 0 -1.08-1 5.23 5.23 0 0 1 -.94-.83 1.61 1.61 0 0 1 -.3-.6h.11a.4.4 0 0 0 .35-.44v-2.19a.58.58 0 0 0 -.1-.32.34.34 0 0 0 -.25-.13h-5.55z" fill="#fb715d" fill-rule="evenodd"></path>
  <path d="m115.07 365.85h20.8v16.19h-20.8z" fill="#fb715d"></path>
  <path d="m129.18 352.05h7.61v-13.11l-2-6.14v-5h-3.69v5l-2 6.14z" fill="#fb715d"></path>
  <path d="m142.87 352.05h7.6v-13.11l-2-6.14v-5h-3.7v5l-2 6.14z" fill="#fb715d"></path>
  <g fill="#1c19a8">
    <path d="m410.76 480.61h-36.46a1.41 1.41 0 0 1 -1.41-1.41v-53a1.41 1.41 0 0 1 1.41-1.41h36.46a1.41 1.41 0 0 1 1.41 1.41v53a1.41 1.41 0 0 1 -1.41 1.41zm-35.06-2.81h33.66v-50.18h-33.66zm28.45-21.31h-23.24a1.41 1.41 0 0 1 -1.4-1.41v-15.83a1.41 1.41 0 0 1 1.4-1.41h23.24a1.41 1.41 0 0 1 1.4 1.41v15.83a1.41 1.41 0 0 1 -1.4 1.41zm-21.83-2.81h20.42v-13h-20.42z"></path>
    <path d="m374.3 471.58h36.46v2.81h-36.46z"></path>
    <path d="m374.3 430.78h36.46v2.81h-36.46z"></path>
    <path d="m374.3 480.61h-36.46a1.41 1.41 0 0 1 -1.41-1.41v-53a1.41 1.41 0 0 1 1.41-1.41h36.46a1.4 1.4 0 0 1 1.4 1.41v53a1.4 1.4 0 0 1 -1.4 1.41zm-35.06-2.81h33.65v-50.18h-33.65zm28.44-21.31h-23.23a1.41 1.41 0 0 1 -1.41-1.41v-15.83a1.41 1.41 0 0 1 1.41-1.41h23.23a1.41 1.41 0 0 1 1.41 1.41v15.83a1.41 1.41 0 0 1 -1.41 1.41zm-21.82-2.81h20.42v-13h-20.42z"></path>
    <path d="m337.84 471.58h36.46v2.81h-36.46z"></path>
    <path d="m337.84 430.78h36.46v2.81h-36.46z"></path>
    <path d="m149.13 413.81h-8.07a3.15 3.15 0 0 1 -2.91-3.34v-10.23a4.66 4.66 0 0 1 .84-2.67 5.75 5.75 0 0 1 1.39-1.32l.3-.23a2.16 2.16 0 0 1 -.06-.51v-2.19a1.81 1.81 0 0 1 1.51-1.83h.2 5.55a2.11 2.11 0 0 1 1.36.67 2 2 0 0 1 .4 1.19v2.19a2.18 2.18 0 0 1 -.07.52l.28.23a6.28 6.28 0 0 1 1.39 1.33 4.62 4.62 0 0 1 .82 2.64v10.23a3.16 3.16 0 0 1 -2.93 3.32zm-5.7-18.81.09.11a1.41 1.41 0 0 1 .3 1.21 2.77 2.77 0 0 1 -.58 1.13 6.08 6.08 0 0 1 -1.18 1.06 3.45 3.45 0 0 0 -.79.72 1.75 1.75 0 0 0 -.31 1v10.21a.72.72 0 0 0 .19.55h8s.1-.2.1-.53v-10.2a1.68 1.68 0 0 0 -.29-1 3.78 3.78 0 0 0 -.8-.74 5.82 5.82 0 0 1 -1.19-1.08 2.89 2.89 0 0 1 -.57-1.15 1.37 1.37 0 0 1 .27-1.19 1.29 1.29 0 0 1 .16-.17v-.63h-3.39z"></path>
    <path d="m131.46 413.81h-8.07a3.16 3.16 0 0 1 -2.91-3.34v-10.23a4.63 4.63 0 0 1 .84-2.67 5.69 5.69 0 0 1 1.37-1.31l.31-.26a2 2 0 0 1 -.06-.5v-2.19a1.81 1.81 0 0 1 1.51-1.83h.2 5.55a2.07 2.07 0 0 1 1.38.71 1.87 1.87 0 0 1 .37 1.2v2.14a1.77 1.77 0 0 1 -.08.52l.28.21a6.17 6.17 0 0 1 1.39 1.35 4.52 4.52 0 0 1 .83 2.63v10.24a3.16 3.16 0 0 1 -2.91 3.33zm-5.7-18.81.09.11a1.41 1.41 0 0 1 .3 1.21 2.9 2.9 0 0 1 -.58 1.13 6.16 6.16 0 0 1 -1.19 1.06 3.71 3.71 0 0 0 -.79.72 1.8 1.8 0 0 0 -.3 1v10.21a.72.72 0 0 0 .19.55h8s.1-.2.1-.53v-10.2a1.74 1.74 0 0 0 -.3-1 3.34 3.34 0 0 0 -.79-.74 6.49 6.49 0 0 1 -1.19-1.08 2.83 2.83 0 0 1 -.57-1.15 1.37 1.37 0 0 1 .27-1.19.87.87 0 0 1 .16-.17v-.63h-3.38z"></path>
    <path d="m121.65 315.12h-8.06a3.17 3.17 0 0 1 -2.92-3.35v-10.23a4.71 4.71 0 0 1 .84-2.67 6.31 6.31 0 0 1 1.37-1.31l.32-.24a2.07 2.07 0 0 1 -.06-.5v-2.19a1.82 1.82 0 0 1 1.52-1.84 1.7 1.7 0 0 1 .39 0h5.34a2.06 2.06 0 0 1 1.35.67 1.93 1.93 0 0 1 .4 1.18v2.2a1.81 1.81 0 0 1 -.07.52l.26.2a6.11 6.11 0 0 1 1.41 1.35 4.64 4.64 0 0 1 .83 2.63v10.24a3.17 3.17 0 0 1 -2.92 3.34zm-5.65-18.83.1.11a1.47 1.47 0 0 1 .3 1.21 3 3 0 0 1 -.56 1.11 6.58 6.58 0 0 1 -1.21 1.08 3.73 3.73 0 0 0 -.79.72 1.83 1.83 0 0 0 -.31 1.05v10.2a.71.71 0 0 0 .2.55h8s.11-.2.11-.53v-10.23a1.83 1.83 0 0 0 -.3-1 3.71 3.71 0 0 0 -.79-.72 6.32 6.32 0 0 1 -1.2-1.09 2.93 2.93 0 0 1 -.56-1.15 1.4 1.4 0 0 1 .26-1.19c.06-.06.11-.12.17-.17v-.63h-3.42z"></path>
    <path d="m130 443.15h-6.1a1.4 1.4 0 0 1 -1.4-1.4v-10.51a1.49 1.49 0 0 1 .07-.43l1.52-4.71v-3.82a1.42 1.42 0 0 1 1.4-1.41h3a1.38 1.38 0 0 1 1 .42 1.41 1.41 0 0 1 .41 1v3.82l1.52 4.71a1.21 1.21 0 0 1 .07.43v10.51a1.4 1.4 0 0 1 -1.49 1.39zm-4.69-2.81h3.29v-8.88l-1.52-4.71a1.31 1.31 0 0 1 -.07-.44v-2.62h-.15v2.62a1.62 1.62 0 0 1 -.07.44l-1.52 4.71z"></path>
    <path d="m155.49 315.12h-20.8a1.41 1.41 0 0 1 -1.4-1.41v-16.19a1.4 1.4 0 0 1 1.4-1.4h20.8a1.4 1.4 0 0 1 1.41 1.4v16.19a1.41 1.41 0 0 1 -1.41 1.41zm-19.39-2.82h18v-13.37h-18z"></path>
    <path d="m135.87 383.45h-20.8a1.41 1.41 0 0 1 -1.4-1.41v-16.19a1.4 1.4 0 0 1 1.4-1.4h20.8a1.41 1.41 0 0 1 1.41 1.4v16.15a1.41 1.41 0 0 1 -1.41 1.45zm-19.39-2.82h18v-13.37h-18z"></path>
    <path d="m159.08 313.71h2.81v165.76h-2.81z"></path>
    <path d="m108.34 445.34-2.43-1.41 53.36-92.58 2.44 1.39z"></path>
    <path d="m132.4 371.46h2.82v106.87h-2.82z" transform="matrix(.86637426 -.49939528 .49939528 .86637426 -194.29 123.58)"></path>
    <path d="m136.79 353.46h-7.61a1.4 1.4 0 0 1 -1.4-1.4v-13.12a1.29 1.29 0 0 1 .07-.43l1.91-5.93v-4.81a1.4 1.4 0 0 1 1.41-1.41h3.69a1.41 1.41 0 0 1 1 .41 1.43 1.43 0 0 1 .41 1v4.81l1.91 5.93a1.29 1.29 0 0 1 .07.43v13.12a1.4 1.4 0 0 1 -1.46 1.4zm-6.2-2.81h4.79v-11.49l-1.91-5.93a1.25 1.25 0 0 1 -.07-.43v-3.63h-.87v3.63a1.25 1.25 0 0 1 -.07.43l-1.91 5.93z"></path>
    <path d="m150.47 353.46h-7.6a1.41 1.41 0 0 1 -1.41-1.4v-13.12a1.29 1.29 0 0 1 .07-.43l1.91-5.93v-4.81a1.39 1.39 0 0 1 .41-1 1.41 1.41 0 0 1 1-.41h3.7a1.41 1.41 0 0 1 1 .41 1.43 1.43 0 0 1 .41 1v4.81l1.91 5.93a1.29 1.29 0 0 1 .07.43v13.12a1.41 1.41 0 0 1 -1.47 1.4zm-6.2-2.81h4.8v-11.49l-1.92-5.93a1.54 1.54 0 0 1 -.06-.43v-3.63h-.88v3.63a1.25 1.25 0 0 1 -.07.43l-1.92 5.93z"></path>
    <path d="m106.74 441.74h53.74v5.14h-53.74z"></path>
    <path d="m161.89 448.29h-56.55v-8h56.55zm-53.74-2.81h50.93v-2.33h-50.93z"></path>
    <path d="m106.74 411.99h53.74v5.14h-53.74z"></path>
    <path d="m161.89 418.53h-56.55v-7.95h56.55zm-53.74-2.81h50.93v-2.32h-50.93z"></path>
    <path d="m106.74 382.23h53.74v5.14h-53.74z"></path>
    <path d="m161.89 388.78h-56.55v-7.95h56.55zm-53.74-2.78h50.93v-2.33h-50.93z"></path>
    <path d="m106.74 352.48h53.74v5.14h-53.74z"></path>
    <path d="m161.89 359h-56.55v-7.95h56.55zm-53.74-2.81h50.93v-2.32h-50.93z"></path>
    <path d="m106.74 312.98h53.74v5.14h-53.74z"></path>
    <path d="m161.89 319.53h-56.55v-7.95h56.55zm-53.74-2.81h50.93v-2.33h-50.93z"></path>
    <path d="m493.26 254h-386.52a1.41 1.41 0 0 1 -1.4-1.41v-56.47a1.41 1.41 0 0 1 1.4-1.41h386.52a1.4 1.4 0 0 1 1.4 1.41v56.43a1.4 1.4 0 0 1 -1.4 1.45zm-385.11-2.81h383.7v-53.67h-383.7z"></path>
    <path d="m493.26 491.86h-386.52a1.4 1.4 0 0 1 -1.4-1.4v-11a1.41 1.41 0 0 1 1.4-1.41h386.52a1.4 1.4 0 0 1 1.4 1.41v11a1.4 1.4 0 0 1 -1.4 1.4zm-385.11-2.81h383.7v-8.18h-383.7z"></path>
    <path d="m518.56 189.41h-436.7a1.41 1.41 0 0 1 -1.41-1.41v-8.12a1.41 1.41 0 0 1 1.41-1.4h436.7a1.4 1.4 0 0 1 1.4 1.4v8.12a1.41 1.41 0 0 1 -1.4 1.41zm-435.3-2.82h433.89v-5.3h-433.89z"></path>
    <path d="m106.74 491.86h-25.3a1.4 1.4 0 0 1 -1.4-1.4v-302.46a1.41 1.41 0 0 1 1.4-1.41h12.65a1.41 1.41 0 0 1 1.41 1.41v6.71h11.24a1.41 1.41 0 0 1 1.41 1.41v294.34a1.41 1.41 0 0 1 -1.41 1.4zm-23.89-2.81h22.49v-291.53h-11.25a1.4 1.4 0 0 1 -1.4-1.4v-6.71h-9.84z"></path>
    <path d="m510.43 332.22c-3.61 0-5.45-1.66-7.07-3.11s-2.66-2.39-5.19-2.39-3.69 1-5.18 2.39-3.46 3.11-7.07 3.11-5.44-1.66-7.06-3.11-2.66-2.39-5.19-2.39-3.7 1-5.19 2.39-3.46 3.11-7.06 3.11-5.44-1.66-7.06-3.11-2.66-2.39-5.19-2.39-3.69 1-5.18 2.39-3.46 3.11-7.07 3.11-5.43-1.66-7.06-3.11-2.66-2.39-5.18-2.39-3.7 1-5.18 2.39-3.47 3.11-7.07 3.11-5.44-1.66-7.07-3.11-2.65-2.39-5.18-2.39-3.7 1-5.18 2.39-3.46 3.11-7.06 3.11-5.44-1.66-7.06-3.11-2.67-2.39-5.19-2.39-3.7 1-5.19 2.39-3.46 3.11-7.06 3.11-5.44-1.66-7.06-3.11-2.66-2.39-5.19-2.39-3.7 1-5.18 2.39-3.47 3.11-7.07 3.11-5.43-1.66-7.06-3.11-2.66-2.39-5.19-2.39-3.69 1-5.18 2.39-3.46 3.11-7.06 3.11-5.44-1.66-7.06-3.11-2.66-2.39-5.19-2.39-3.7 1-5.18 2.39-3.47 3.11-7.07 3.11-5.44-1.66-7.06-3.11-2.66-2.39-5.18-2.39-3.7 1-5.18 2.39-3.47 3.11-7.07 3.11-5.44-1.66-7.06-3.11-2.66-2.39-5.19-2.39-3.7 1-5.18 2.39c-1.63 1.45-3.47 3.11-7.07 3.11s-5.43-1.66-7.06-3.11-2.66-2.39-5.18-2.39-3.7 1-5.18 2.39-3.47 3.11-7.07 3.11a1.41 1.41 0 0 1 -1.4-1.41v-14.57a1.4 1.4 0 0 1 1.4-1.4h294a1.4 1.4 0 0 1 1.4 1.4v14.57a1.41 1.41 0 0 1 -1.44 1.41zm-36.76-8.31c3.6 0 5.44 1.65 7.06 3.1s2.67 2.39 5.19 2.39 3.7-1 5.19-2.39 3.46-3.1 7.06-3.1 5.45 1.65 7.07 3.1a7.69 7.69 0 0 0 3.78 2.27v-11.63h-291.14v11.63a7.79 7.79 0 0 0 3.77-2.26c1.63-1.46 3.47-3.11 7.07-3.11s5.44 1.65 7.06 3.11 2.66 2.38 5.18 2.38 3.7-1 5.19-2.38 3.46-3.11 7.06-3.11 5.44 1.65 7.07 3.11 2.66 2.38 5.18 2.38 3.7-1 5.18-2.38c1.63-1.46 3.47-3.11 7.07-3.11s5.44 1.65 7.06 3.11 2.66 2.38 5.18 2.38 3.7-1 5.18-2.38 3.47-3.11 7.07-3.11 5.44 1.65 7.07 3.11 2.66 2.38 5.18 2.38 3.7-1 5.18-2.38 3.47-3.11 7.06-3.11 5.45 1.65 7.07 3.11 2.66 2.38 5.18 2.38 3.7-1 5.19-2.38 3.46-3.11 7.06-3.11 5.44 1.65 7.07 3.11 2.66 2.38 5.18 2.38 3.7-1 5.18-2.38 3.47-3.11 7.07-3.11 5.44 1.65 7.06 3.11 2.66 2.38 5.19 2.38 3.7-1 5.18-2.38 3.46-3.11 7.06-3.11 5.44 1.65 7.06 3.1 2.67 2.39 5.19 2.39 3.7-1 5.18-2.38 3.47-3.11 7.07-3.11 5.44 1.65 7.06 3.11 2.66 2.38 5.18 2.38 3.7-1 5.19-2.39 3.46-3.1 7.06-3.1 5.44 1.65 7.06 3.1 2.67 2.39 5.19 2.39 3.7-1 5.19-2.38 3.46-3.11 7.06-3.11z"></path>
    <path d="m510.43 317.65h-294a1.41 1.41 0 0 1 -1.4-1.41v-40.08a25 25 0 0 1 25-25h249.54a22.28 22.28 0 0 1 22.26 22.26v42.83a1.41 1.41 0 0 1 -1.4 1.4zm-292.55-2.81h291.12v-41.43a19.47 19.47 0 0 0 -19.43-19.41h-249.49a22.23 22.23 0 0 0 -22.2 22.2z"></path>
    <path d="m216.47 296.07h293.95v2.81h-293.95z"></path>
    <path d="m216.47 271.19h293.95v2.81h-293.95z"></path>
    <path d="m148.7 217.41a6.63 6.63 0 0 0 -.16-1.6 1.81 1.81 0 0 0 -.51-.9 2 2 0 0 0 -.93-.44 12.89 12.89 0 0 0 -1.46-.19.36.36 0 0 1 -.32-.18.74.74 0 0 1 -.12-.39.66.66 0 0 1 .12-.38.37.37 0 0 1 .32-.17h.92 1.42 1.62c.55 0 1.05 0 1.51.07a11.19 11.19 0 0 1 1.13.14c.31.05.48.13.53.22l6.9 16.2a.17.17 0 0 0 .13.1.19.19 0 0 0 .17-.1l6.79-16.2c0-.09.32-.17.87-.22s1.2-.1 1.94-.14l2.24-.08h1.81a.29.29 0 0 1 .29.17.82.82 0 0 1 .09.38.7.7 0 0 1 -.11.37.37.37 0 0 1 -.27.2c-.77.14-1.37.26-1.79.38a1.58 1.58 0 0 0 -1 .62 2.86 2.86 0 0 0 -.37 1.35c0 .59-.07 1.42-.07 2.51v12.53a8.71 8.71 0 0 0 .14 1.75 1.83 1.83 0 0 0 .49 1 2.09 2.09 0 0 0 1 .49 13.83 13.83 0 0 0 1.67.26.44.44 0 0 1 .32.22.69.69 0 0 1 .12.39.63.63 0 0 1 -.12.37.42.42 0 0 1 -.36.17 24.07 24.07 0 0 1 -2.6-.13 22.54 22.54 0 0 0 -2.46-.14c-.86 0-1.75 0-2.66.14s-1.75.13-2.5.13a.34.34 0 0 1 -.31-.17.69.69 0 0 1 -.1-.37.76.76 0 0 1 .1-.39.39.39 0 0 1 .31-.22 13.12 13.12 0 0 0 1.68-.26 2 2 0 0 0 1-.49 1.75 1.75 0 0 0 .48-1 9.85 9.85 0 0 0 .12-1.75v-12.6c0-.16-.09-.23-.27-.22a.34.34 0 0 0 -.34.22l-4.89 11.52c-.34.79-.68 1.65-1 2.59s-.65 1.89-1 2.84a.25.25 0 0 1 -.19.15.86.86 0 0 1 -.32.05.83.83 0 0 1 -.32-.05c-.11 0-.17-.08-.19-.15l-7.47-17.12a.34.34 0 0 0 -.29-.2c-.15 0-.22.05-.22.24v12.63a7.13 7.13 0 0 0 .2 1.9 2 2 0 0 0 .6 1 2.05 2.05 0 0 0 1 .46c.39.08.84.15 1.36.22a.35.35 0 0 1 .26.2 1 1 0 0 1 .08.38.91.91 0 0 1 -.08.37.3.3 0 0 1 -.29.17 11.14 11.14 0 0 1 -1.65-.13 14.46 14.46 0 0 0 -2.12-.14 17.15 17.15 0 0 0 -2.29.14 12.9 12.9 0 0 1 -1.69.13.32.32 0 0 1 -.27-.17 1 1 0 0 1 -.12-.37.63.63 0 0 1 .09-.38.42.42 0 0 1 .3-.2c.59-.07 1.09-.14 1.48-.22a1.85 1.85 0 0 0 .95-.46 1.89 1.89 0 0 0 .51-1 9.11 9.11 0 0 0 .16-1.9z"></path>
    <path d="m173.69 237.23a25.92 25.92 0 0 1 -2.7-.14 23.21 23.21 0 0 0 -4.93 0c-.95.09-1.82.14-2.59.14a1.25 1.25 0 0 1 -1.11-.63 1.56 1.56 0 0 1 -.24-.85 1.69 1.69 0 0 1 .23-.85 1.3 1.3 0 0 1 1-.69 12.93 12.93 0 0 0 1.61-.24 1.27 1.27 0 0 0 .56-.26 1 1 0 0 0 .2-.47 8.81 8.81 0 0 0 .1-1.57v-9.44l-3.7 8.72c-.34.78-.66 1.62-1 2.54s-.65 1.88-1 2.83a1.17 1.17 0 0 1 -.8.74 2 2 0 0 1 -1.23 0 1.19 1.19 0 0 1 -.78-.75l-6.14-14.08v9.34a5.69 5.69 0 0 0 .16 1.63 1.28 1.28 0 0 0 .3.58 1.2 1.2 0 0 0 .56.25c.36.08.79.15 1.28.21a1.36 1.36 0 0 1 1 .72 1.73 1.73 0 0 1 .18.79 1.81 1.81 0 0 1 -.19.8c-.43.88-1.66.72-2.91.53a18 18 0 0 0 -4.15 0c-1.38.19-2.39.35-2.88-.48a1.8 1.8 0 0 1 -.25-.75 1.57 1.57 0 0 1 .22-1 1.35 1.35 0 0 1 .94-.64c.62-.08 1.08-.14 1.46-.22a.93.93 0 0 0 .48-.22 1.13 1.13 0 0 0 .25-.54 8.09 8.09 0 0 0 .13-1.7v-14.12a5.93 5.93 0 0 0 -.12-1.36 1 1 0 0 0 -.24-.44 1 1 0 0 0 -.5-.22 10.69 10.69 0 0 0 -1.34-.17 1.29 1.29 0 0 1 -1-.61 1.71 1.71 0 0 1 -.27-.9 1.55 1.55 0 0 1 .28-.9 1.32 1.32 0 0 1 1.1-.58h2.34 1.61c.57 0 1.1 0 1.57.07a8.76 8.76 0 0 1 1.24.15 1.52 1.52 0 0 1 1.18.71l6.22 14.6 6.08-14.53c.14-.64 1-.73 1.63-.79s1.24-.11 2-.14 1.5-.07 2.26-.09c1.59 0 2.57-.18 3 .66a1.79 1.79 0 0 1 .18.79 1.62 1.62 0 0 1 -.24.86 1.29 1.29 0 0 1 -.89.63c-.75.14-1.32.26-1.73.36a.64.64 0 0 0 -.42.25 2 2 0 0 0 -.22.89c0 .57-.06 1.38-.06 2.44v12.53a8 8 0 0 0 .11 1.55 1 1 0 0 0 .23.49 1.21 1.21 0 0 0 .57.26 14.11 14.11 0 0 0 1.54.24 1.39 1.39 0 0 1 1 .64 1.65 1.65 0 0 1 .28.9 1.57 1.57 0 0 1 -.3.91 1.33 1.33 0 0 1 -1.15.62zm-14.63-1.66v.07a.25.25 0 0 0 0-.07zm9.57-.49c.63 0 1.25 0 1.88.08l-.1-.09a2.74 2.74 0 0 1 -.76-1.46 9.06 9.06 0 0 1 -.16-1.94v-12.53c0-1.12 0-2 .07-2.58a3.83 3.83 0 0 1 .53-1.8 2.46 2.46 0 0 1 .57-.59l-1 .05c-.72 0-1.35.07-1.89.13h-.26l-1.58 3.65a1.4 1.4 0 0 1 .47-.1h.4l.52.34a1.15 1.15 0 0 1 .35.84v12.6a10.75 10.75 0 0 1 -.14 1.93 2.69 2.69 0 0 1 -.75 1.47l-.09.08c.66-.05 1.31-.08 1.94-.08zm-19.14-1.59v.19a2.94 2.94 0 0 1 -.71 1.42h1.58a3.1 3.1 0 0 1 -.77-1.36c-.05-.08-.08-.16-.1-.25zm.94-15.73h.19a1.29 1.29 0 0 1 1 .77l7.07 16.19c.21-.62.42-1.24.64-1.86s.51-1.39.77-2h-.31a1.09 1.09 0 0 1 -.92-.53l-6.83-16a8.86 8.86 0 0 0 -1-.12c-.43 0-.92-.06-1.45-.07h-1l.1.08a2.72 2.72 0 0 1 .79 1.37 7.44 7.44 0 0 1 .18 1.83v.71l.08-.1a1.1 1.1 0 0 1 .69-.27zm16.58 1.6v.1a1 1 0 0 0 -.01-.1z"></path>
    <path d="m191.15 236.43c-3.56 0-6.34-1-8.36-3s-3-5-3-9a12.86 12.86 0 0 1 .85-4.75 11.14 11.14 0 0 1 2.36-3.74 10.68 10.68 0 0 1 3.62-2.43 12.94 12.94 0 0 1 9.2 0 10.26 10.26 0 0 1 3.57 2.36 10.78 10.78 0 0 1 2.32 3.68 13.16 13.16 0 0 1 .84 4.81 14 14 0 0 1 -.9 5.21 11.12 11.12 0 0 1 -2.45 3.81 10.27 10.27 0 0 1 -3.62 2.34 12.2 12.2 0 0 1 -4.43.71zm.14-1.43a5 5 0 0 0 2.93-.88 7.69 7.69 0 0 0 2.16-2.33 11.33 11.33 0 0 0 1.34-3.33 16.25 16.25 0 0 0 .46-3.92 20.8 20.8 0 0 0 -.36-3.87 11.15 11.15 0 0 0 -1.17-3.38 6.64 6.64 0 0 0 -2.17-2.38 5.92 5.92 0 0 0 -3.33-.9 5.48 5.48 0 0 0 -3.17.92 7.22 7.22 0 0 0 -2.2 2.39 11.88 11.88 0 0 0 -1.25 3.36 17.62 17.62 0 0 0 -.41 3.83 22.13 22.13 0 0 0 .34 3.94 10.7 10.7 0 0 0 1.15 3.34 6.71 6.71 0 0 0 2.19 2.33 6.34 6.34 0 0 0 3.49.88z"></path>
    <path d="m191.15 237.36c-3.79 0-6.83-1.1-9-3.29s-3.3-5.45-3.3-9.7a13.89 13.89 0 0 1 .92-5.1 11.9 11.9 0 0 1 2.56-4 11.56 11.56 0 0 1 3.93-2.65 13.93 13.93 0 0 1 9.91 0 11.24 11.24 0 0 1 3.89 2.57 11.81 11.81 0 0 1 2.53 4 14.25 14.25 0 0 1 .89 5.14 15 15 0 0 1 -1 5.56 12.25 12.25 0 0 1 -2.66 4.12 11.47 11.47 0 0 1 -3.94 2.56 13.38 13.38 0 0 1 -4.73.79zm-3.63-23.25a5.37 5.37 0 0 0 -.56.21 9.67 9.67 0 0 0 -3.31 2.21 10.2 10.2 0 0 0 -2.15 3.47 11.85 11.85 0 0 0 -.79 4.41c0 3.73.92 6.55 2.75 8.37a8.85 8.85 0 0 0 4.08 2.31l-.24-.14a7.42 7.42 0 0 1 -2.5-2.66 11.19 11.19 0 0 1 -1.26-3.64 23 23 0 0 1 -.36-4.1 18.67 18.67 0 0 1 .43-4 12.54 12.54 0 0 1 1.36-3.63 8.06 8.06 0 0 1 2.48-2.7.18.18 0 0 1 .07-.11zm7.44 0a7.44 7.44 0 0 1 2.48 2.71 12.2 12.2 0 0 1 1.27 3.65 21.79 21.79 0 0 1 .37 4 17.6 17.6 0 0 1 -.48 4.15 12.28 12.28 0 0 1 -1.45 3.59 8.81 8.81 0 0 1 -2.42 2.61l-.1.07c.19-.07.38-.13.57-.21a9.39 9.39 0 0 0 3.29-2.13 10.28 10.28 0 0 0 2.24-3.49 13.16 13.16 0 0 0 .83-4.86 12.4 12.4 0 0 0 -.77-4.47 9.87 9.87 0 0 0 -2.12-3.37 9.39 9.39 0 0 0 -3.25-2.14zm-3.81.85a4.54 4.54 0 0 0 -2.64.75 6.33 6.33 0 0 0 -1.92 2.09 10.89 10.89 0 0 0 -1.15 3.09 17 17 0 0 0 -.38 3.63 22.13 22.13 0 0 0 .32 3.77 9.71 9.71 0 0 0 1.05 3.05 5.63 5.63 0 0 0 1.88 2 5.42 5.42 0 0 0 3 .73 4.1 4.1 0 0 0 2.41-.71 6.8 6.8 0 0 0 1.89-2 10.43 10.43 0 0 0 1.23-3.06 15.89 15.89 0 0 0 .43-3.7 19.66 19.66 0 0 0 -.34-3.7 10.39 10.39 0 0 0 -1.07-3.1 6 6 0 0 0 -1.87-2.05 5 5 0 0 0 -2.84-.75z"></path>
    <path d="m220.05 231.67a11.34 11.34 0 0 0 .1 1.75 1.67 1.67 0 0 0 .46 1 2.08 2.08 0 0 0 1 .49 13.26 13.26 0 0 0 1.73.26.44.44 0 0 1 .32.22.69.69 0 0 1 .12.39.63.63 0 0 1 -.12.37.42.42 0 0 1 -.36.17 24.2 24.2 0 0 1 -2.6-.13 22.54 22.54 0 0 0 -2.46-.14c-.86 0-1.75 0-2.66.14s-1.75.13-2.5.13a.34.34 0 0 1 -.31-.17.79.79 0 0 1 -.1-.37.87.87 0 0 1 .1-.39.39.39 0 0 1 .31-.22 13.12 13.12 0 0 0 1.68-.26 2.1 2.1 0 0 0 1-.49 1.81 1.81 0 0 0 .47-1 9.85 9.85 0 0 0 .12-1.75v-15.08c0-.83-.21-1.36-.63-1.58a5.08 5.08 0 0 0 -2.12-.32 9.11 9.11 0 0 0 -2.07.19 2.76 2.76 0 0 0 -1.34.68 3.33 3.33 0 0 0 -.85 1.34 13.57 13.57 0 0 0 -.6 2.21.34.34 0 0 1 -.22.27 1 1 0 0 1 -.37.05.66.66 0 0 1 -.34-.12.3.3 0 0 1 -.15-.24c.09-.84.14-1.69.15-2.56a18.8 18.8 0 0 0 -.15-2.6c0-.25.15-.42.47-.51a3.87 3.87 0 0 1 1.05-.13h18.17a4 4 0 0 1 1.07.11.5.5 0 0 1 .43.5 9.49 9.49 0 0 0 -.12 1v1.31s0 1 0 1.46.07 1 .12 1.42a.34.34 0 0 1 -.17.26.72.72 0 0 1 -.37.13.9.9 0 0 1 -.4-.05.33.33 0 0 1 -.22-.27 9.74 9.74 0 0 0 -.54-2.22 3.41 3.41 0 0 0 -.9-1.36 3 3 0 0 0 -1.38-.68 8.4 8.4 0 0 0 -1.93-.19 5.61 5.61 0 0 0 -2.21.32c-.45.22-.68.75-.68 1.58z"></path>
    <path d="m223.31 237.23a25.92 25.92 0 0 1 -2.7-.14 23.21 23.21 0 0 0 -4.93 0c-1 .09-1.82.14-2.59.14a1.26 1.26 0 0 1 -1.1-.61 1.67 1.67 0 0 1 -.25-.87 1.73 1.73 0 0 1 .21-.83 1.36 1.36 0 0 1 1-.71 12.93 12.93 0 0 0 1.61-.24 1.27 1.27 0 0 0 .56-.26 1 1 0 0 0 .2-.47 8.55 8.55 0 0 0 .1-1.57v-15.08c0-.6-.13-.75-.13-.75a4.12 4.12 0 0 0 -1.68-.21 8.72 8.72 0 0 0 -1.87.16 2 2 0 0 0 -.9.45 2.63 2.63 0 0 0 -.62 1 14.35 14.35 0 0 0 -.55 2.06 1.26 1.26 0 0 1 -.82 1 1.69 1.69 0 0 1 -.79.1 1.59 1.59 0 0 1 -.76-.27 1.22 1.22 0 0 1 -.57-1c.09-.91.14-1.73.15-2.57a17 17 0 0 0 -.15-2.47 1.48 1.48 0 0 1 1.16-1.53 4.45 4.45 0 0 1 1.3-.17h18.17a5 5 0 0 1 1.33.15 1.43 1.43 0 0 1 1.1 1.4c-.05.4-.09.71-.12 1.08s0 .78 0 1.23 0 .91 0 1.39.08 1 .12 1.4a1.26 1.26 0 0 1 -.56 1.11 1.76 1.76 0 0 1 -.84.31 1.87 1.87 0 0 1 -.79-.11 1.23 1.23 0 0 1 -.82-1 9.9 9.9 0 0 0 -.49-2 2.63 2.63 0 0 0 -.65-1 2.2 2.2 0 0 0 -1-.47 7.74 7.74 0 0 0 -1.72-.16 4.54 4.54 0 0 0 -1.81.23s-.14.18-.14.73v15.08a9.7 9.7 0 0 0 .09 1.6.76.76 0 0 0 .18.44 1.21 1.21 0 0 0 .57.26 12.61 12.61 0 0 0 1.6.23 1.47 1.47 0 0 1 1 .65 1.67 1.67 0 0 1 .26.9 1.61 1.61 0 0 1 -.27.9 1.38 1.38 0 0 1 -1.09.49zm-7.12-23a2.49 2.49 0 0 1 1.1 2.39v15.08a10.79 10.79 0 0 1 -.14 1.92 2.68 2.68 0 0 1 -.75 1.48l-.09.08a26.07 26.07 0 0 1 3.75 0l-.09-.08a2.52 2.52 0 0 1 -.74-1.5 11.49 11.49 0 0 1 -.12-1.9v-15.11a2.44 2.44 0 0 1 1.15-2.39zm9.63 0a4.14 4.14 0 0 1 1 .65 4 4 0 0 1 .87 1.12 10.82 10.82 0 0 1 .06-1.18c0-.2 0-.39 0-.56a3.34 3.34 0 0 0 -.5 0zm-17.19.05c.06.52.09 1.1.11 1.69a4.19 4.19 0 0 1 .79-1.07 3.64 3.64 0 0 1 1-.67h-1.4a3 3 0 0 0 -.49.02z"></path>
    <path d="m251.74 223.66a1 1 0 0 0 .59-.14.65.65 0 0 0 .19-.54v-4.62a11.59 11.59 0 0 0 -.12-1.8 2.76 2.76 0 0 0 -.46-1.22 2.14 2.14 0 0 0 -1-.73 5.65 5.65 0 0 0 -1.68-.33.32.32 0 0 1 -.3-.18.82.82 0 0 1 -.11-.39.73.73 0 0 1 .11-.38.33.33 0 0 1 .3-.17c.73 0 1.55 0 2.48.11s1.8.1 2.62.1h1.34l1.22-.06 1.21-.07h1.32a.3.3 0 0 1 .29.17.7.7 0 0 1 .07.38 1 1 0 0 1 -.12.39.31.31 0 0 1 -.27.18 7.33 7.33 0 0 0 -1.7.29 2.07 2.07 0 0 0 -1 .68 2.71 2.71 0 0 0 -.44 1.21 16 16 0 0 0 -.1 1.9v13.31a8.71 8.71 0 0 0 .14 1.75 1.93 1.93 0 0 0 .49 1 2.2 2.2 0 0 0 1 .51 14.22 14.22 0 0 0 1.66.25.48.48 0 0 1 .33.2.66.66 0 0 1 .12.38.63.63 0 0 1 -.12.37.42.42 0 0 1 -.36.17 24.07 24.07 0 0 1 -2.6-.13 22.54 22.54 0 0 0 -2.46-.14c-.86 0-1.75 0-2.67.14s-1.75.13-2.49.13a.34.34 0 0 1 -.31-.17.69.69 0 0 1 -.1-.37.72.72 0 0 1 .1-.38.42.42 0 0 1 .31-.2 13.38 13.38 0 0 0 1.68-.25 2.12 2.12 0 0 0 1-.51 1.85 1.85 0 0 0 .48-1 9.85 9.85 0 0 0 .12-1.75v-5.75c0-.59-.25-.89-.75-.89h-10.13c-.5 0-.75.23-.75.68v5.84a8 8 0 0 0 .14 1.75 1.86 1.86 0 0 0 .49 1 2.2 2.2 0 0 0 1 .51 14.22 14.22 0 0 0 1.66.25.48.48 0 0 1 .33.2.66.66 0 0 1 .12.38.63.63 0 0 1 -.12.37.42.42 0 0 1 -.36.17 24.2 24.2 0 0 1 -2.6-.13 22.54 22.54 0 0 0 -2.46-.14c-.86 0-1.75 0-2.67.14s-1.75.13-2.49.13a.34.34 0 0 1 -.31-.17.69.69 0 0 1 -.1-.37.72.72 0 0 1 .1-.38.42.42 0 0 1 .31-.2 13.38 13.38 0 0 0 1.68-.25 2.12 2.12 0 0 0 1-.51 1.85 1.85 0 0 0 .48-1 9.85 9.85 0 0 0 .12-1.75v-13.27a11.59 11.59 0 0 0 -.12-1.8 2.76 2.76 0 0 0 -.46-1.22 2.14 2.14 0 0 0 -1-.73 5.65 5.65 0 0 0 -1.68-.33.34.34 0 0 1 -.31-.18.94.94 0 0 1 -.1-.39.83.83 0 0 1 .1-.38.36.36 0 0 1 .31-.17c.72 0 1.55 0 2.48.11s1.8.1 2.62.1h1.34l1.22-.06 1.2-.07h1.33a.3.3 0 0 1 .29.17.81.81 0 0 1 .07.38 1.46 1.46 0 0 1 -.12.39.31.31 0 0 1 -.27.18 7.23 7.23 0 0 0 -1.7.29 2.07 2.07 0 0 0 -1 .68 2.71 2.71 0 0 0 -.44 1.21 14.11 14.11 0 0 0 -.1 1.9v4.56c0 .45.25.68.75.68z"></path>
    <path d="m259.48 237.23a25.92 25.92 0 0 1 -2.7-.14 23.21 23.21 0 0 0 -4.93 0c-.95.09-1.82.14-2.59.14a1.25 1.25 0 0 1 -1.11-.63 1.56 1.56 0 0 1 -.24-.85 1.62 1.62 0 0 1 .24-.86 1.35 1.35 0 0 1 .94-.64 14.63 14.63 0 0 0 1.62-.24 1.09 1.09 0 0 0 .55-.27 1 1 0 0 0 .22-.5 9.88 9.88 0 0 0 .1-1.57v-5.58h-9.77v5.58a7.57 7.57 0 0 0 .11 1.55 1 1 0 0 0 .24.52 1.08 1.08 0 0 0 .56.26 12.12 12.12 0 0 0 1.53.24 1.49 1.49 0 0 1 1 .6 1.63 1.63 0 0 1 .28.91 1.56 1.56 0 0 1 -.29.91 1.34 1.34 0 0 1 -1.12.57 25.92 25.92 0 0 1 -2.7-.14 23.3 23.3 0 0 0 -4.94 0c-.94.09-1.81.14-2.59.14a1.28 1.28 0 0 1 -1.11-.63 1.64 1.64 0 0 1 -.23-.85 1.62 1.62 0 0 1 .24-.86 1.35 1.35 0 0 1 .94-.64 14.63 14.63 0 0 0 1.62-.24 1.09 1.09 0 0 0 .54-.26.93.93 0 0 0 .22-.5 8.82 8.82 0 0 0 .11-1.58v-13.31a11.09 11.09 0 0 0 -.11-1.65 1.88 1.88 0 0 0 -.29-.83 1.36 1.36 0 0 0 -.56-.41 4.82 4.82 0 0 0 -1.39-.25 1.21 1.21 0 0 1 -1.06-.67 1.67 1.67 0 0 1 -.23-.84 1.69 1.69 0 0 1 .23-.85 1.28 1.28 0 0 1 1.12-.63c.74 0 1.59 0 2.55.1a34 34 0 0 0 3.84.07l2.42-.14c.84 0 2.06-.22 2.5.64a1.71 1.71 0 0 1 .17.88 1.91 1.91 0 0 1 -.23.76 1.23 1.23 0 0 1 -1.09.68 5.84 5.84 0 0 0 -1.4.24 1 1 0 0 0 -.53.35 1.56 1.56 0 0 0 -.27.78 14.16 14.16 0 0 0 -.09 1.77v4.36h9.77v-4.36a11.09 11.09 0 0 0 -.11-1.65 2 2 0 0 0 -.29-.83 1.36 1.36 0 0 0 -.56-.41 4.75 4.75 0 0 0 -1.39-.25 1.21 1.21 0 0 1 -1.06-.67 1.67 1.67 0 0 1 -.23-.84 1.61 1.61 0 0 1 .24-.85 1.25 1.25 0 0 1 1.11-.63c.74 0 1.6 0 2.55.1a34 34 0 0 0 3.84.07l2.42-.14c.84 0 2.06-.22 2.5.64a1.62 1.62 0 0 1 .17.88 2.07 2.07 0 0 1 -.22.76 1.25 1.25 0 0 1 -1.11.68 5.84 5.84 0 0 0 -1.39.24 1 1 0 0 0 -.53.35 1.66 1.66 0 0 0 -.27.78 14.16 14.16 0 0 0 -.09 1.77v13.31a8 8 0 0 0 .11 1.55 1 1 0 0 0 .24.52 1.08 1.08 0 0 0 .56.26 12.32 12.32 0 0 0 1.54.24 1.46 1.46 0 0 1 1 .58 1.6 1.6 0 0 1 .29.93 1.56 1.56 0 0 1 -.29.91 1.33 1.33 0 0 1 -1.12.57zm-20.41-2.15c.61 0 1.24 0 1.85.08l-.09-.09a2.79 2.79 0 0 1 -.74-1.46 8.93 8.93 0 0 1 -.16-1.94v-5.84a1.52 1.52 0 0 1 .83-1.43 1.52 1.52 0 0 1 -.83-1.42v-4.62a15.93 15.93 0 0 1 .11-2 3.5 3.5 0 0 1 .62-1.64 2.73 2.73 0 0 1 .44-.46h-.68a31.5 31.5 0 0 1 -3.6 0 3.12 3.12 0 0 1 .53.56 3.71 3.71 0 0 1 .62 1.63 11.91 11.91 0 0 1 .13 1.94v13.31a10.91 10.91 0 0 1 -.13 1.93 2.75 2.75 0 0 1 -.74 1.47l-.08.08c.65-.07 1.29-.1 1.92-.1zm15.35 0c.61 0 1.24 0 1.86.08l-.1-.09a2.86 2.86 0 0 1 -.74-1.46 9.06 9.06 0 0 1 -.16-1.94v-13.31a15.93 15.93 0 0 1 .11-2 3.5 3.5 0 0 1 .62-1.64 2.73 2.73 0 0 1 .44-.46h-.68a31.48 31.48 0 0 1 -3.6 0 2.8 2.8 0 0 1 .53.56 3.69 3.69 0 0 1 .62 1.62 12 12 0 0 1 .14 2v4.56a1.5 1.5 0 0 1 -.57 1.29 1.28 1.28 0 0 1 -.25.15 1.76 1.76 0 0 1 .82 1.62v5.63a10.75 10.75 0 0 1 -.14 1.93 2.82 2.82 0 0 1 -.74 1.47l-.08.08c.65-.06 1.29-.09 1.92-.09z"></path>
    <path d="m281.86 213.27a2.33 2.33 0 0 1 .53.06c.17 0 .23.23.19.55a4.32 4.32 0 0 0 -.07.84v1c0 1 0 2 .1 2.85a.25.25 0 0 1 -.15.22.8.8 0 0 1 -.36.1.88.88 0 0 1 -.39 0 .33.33 0 0 1 -.22-.27 16.79 16.79 0 0 0 -.48-2.07 2.51 2.51 0 0 0 -.66-1.14 2 2 0 0 0 -1.15-.49 17 17 0 0 0 -1.92-.14h-2q-.89 0-1.41 0a1.6 1.6 0 0 0 -.83.26 1.14 1.14 0 0 0 -.41.7 6.41 6.41 0 0 0 -.1 1.32v5.94c0 .32.05.52.17.6a.56.56 0 0 0 .34.12 17.33 17.33 0 0 0 2.46-.14 2.92 2.92 0 0 0 1.36-.49 1.67 1.67 0 0 0 .61-.94 10.92 10.92 0 0 0 .26-1.49.42.42 0 0 1 .2-.31.79.79 0 0 1 .37-.1.83.83 0 0 1 .38.1.34.34 0 0 1 .17.31 9.41 9.41 0 0 1 0 1c0 .28 0 .56-.07.85s0 .58-.06.88 0 .66 0 1.07a17.06 17.06 0 0 0 .1 1.85 16.45 16.45 0 0 1 .11 2 .29.29 0 0 1 -.17.26.81.81 0 0 1 -.38.07 1.14 1.14 0 0 1 -.37-.11.35.35 0 0 1 -.2-.29 12.53 12.53 0 0 0 -.26-1.59 1.55 1.55 0 0 0 -.61-.94 3.19 3.19 0 0 0 -1.36-.44 19.62 19.62 0 0 0 -2.46-.12.51.51 0 0 0 -.51.61v4.45a9.84 9.84 0 0 0 .15 1.86 4.14 4.14 0 0 0 .46 1.25 2.55 2.55 0 0 0 .75.78 2.94 2.94 0 0 0 1 .43 7.66 7.66 0 0 0 1.07.15h1.24a14.71 14.71 0 0 0 1.53-.07 4.34 4.34 0 0 0 1.08-.2 7.86 7.86 0 0 0 1.18-.51 2.7 2.7 0 0 0 .83-.71 4.11 4.11 0 0 0 .56-1.11 9 9 0 0 0 .36-1.68.32.32 0 0 1 .24-.27 1.49 1.49 0 0 1 .43-.07 1 1 0 0 1 .43.1c.12.07.18.16.15.27q-.17 1.44-.3 2.67a17.67 17.67 0 0 0 -.1 2.53.57.57 0 0 1 -.14.29c-.09.13-.31.19-.65.19h-12.39c-.86 0-1.71 0-2.53.07l-2.23.13a.53.53 0 0 1 -.41-.15.79.79 0 0 1 -.17-.37.55.55 0 0 1 .11-.41.54.54 0 0 1 .44-.22 8.42 8.42 0 0 0 1.39-.29 2.46 2.46 0 0 0 1-.55 2.09 2.09 0 0 0 .56-.89 4.55 4.55 0 0 0 .19-1.4v-13.09c0-.5 0-1-.05-1.46a7.53 7.53 0 0 0 -.22-1.33 2.89 2.89 0 0 0 -.53-1.05 1.85 1.85 0 0 0 -1-.61 6.33 6.33 0 0 0 -.78-.17 7.58 7.58 0 0 0 -.78-.1.34.34 0 0 1 -.31-.17.72.72 0 0 1 -.1-.38.69.69 0 0 1 .1-.37.34.34 0 0 1 .31-.17c.77 0 1.46 0 2.07.07s1.33.07 2.14.07z"></path>
    <path d="m265.79 237.23a1.47 1.47 0 0 1 -1.16-.46 1.66 1.66 0 0 1 -.4-.87 1.46 1.46 0 0 1 1.36-1.69 6.68 6.68 0 0 0 1.21-.26 1.39 1.39 0 0 0 .59-.32 1.28 1.28 0 0 0 .32-.53 3.18 3.18 0 0 0 .14-1.09v-13.07c0-.48 0-.94-.05-1.39a5.63 5.63 0 0 0 -.19-1.15 2.05 2.05 0 0 0 -.35-.71.93.93 0 0 0 -.49-.3 5.92 5.92 0 0 0 -.69-.15l-.71-.09a1.15 1.15 0 0 1 -1-.63 1.68 1.68 0 0 1 -.23-.85 1.62 1.62 0 0 1 .24-.86 1.26 1.26 0 0 1 1.11-.62c.8 0 1.51 0 2.14.07s1.28.07 2.07.07h12.19a2.8 2.8 0 0 1 .77.1 1.29 1.29 0 0 1 .88 1.58 3.35 3.35 0 0 0 -.06.71v1c0 1 0 1.91.09 2.78a1.19 1.19 0 0 1 -.63 1.11 1.83 1.83 0 0 1 -.73.22 1.87 1.87 0 0 1 -.79-.11 1.26 1.26 0 0 1 -.83-1 14.9 14.9 0 0 0 -.44-1.94 1.77 1.77 0 0 0 -.41-.73 1.12 1.12 0 0 0 -.64-.25 15.53 15.53 0 0 0 -1.82-.13h-2q-.86 0-1.35 0a1 1 0 0 0 -.35.08 5.3 5.3 0 0 0 -.11 1.26v5.75c.72 0 1.4-.08 1.89-.16a2 2 0 0 0 .93-.3.78.78 0 0 0 .28-.44 9.48 9.48 0 0 0 .22-1.35 1.38 1.38 0 0 1 .66-1 1.69 1.69 0 0 1 1.71 0 1.25 1.25 0 0 1 .62 1.11v1l-.14 1.73v1a15.28 15.28 0 0 0 .09 1.74 16.14 16.14 0 0 1 .11 2.13 1.21 1.21 0 0 1 -.69 1.1 1.53 1.53 0 0 1 -.86.16 1.93 1.93 0 0 1 -.72-.2 1.32 1.32 0 0 1 -.71-1 11.93 11.93 0 0 0 -.24-1.52.62.62 0 0 0 -.24-.39 2.23 2.23 0 0 0 -.94-.28 17.76 17.76 0 0 0 -1.91-.11v4.12a8.77 8.77 0 0 0 .13 1.67 3.08 3.08 0 0 0 .33.94 1.62 1.62 0 0 0 .47.5 2.14 2.14 0 0 0 .75.29 7 7 0 0 0 .94.14 15 15 0 0 0 2.6 0 4.41 4.41 0 0 0 .86-.15 6.33 6.33 0 0 0 1-.45 1.61 1.61 0 0 0 .54-.46 2.86 2.86 0 0 0 .42-.84 8.49 8.49 0 0 0 .32-1.5 1.27 1.27 0 0 1 .87-1 2.24 2.24 0 0 1 .73-.12 1.88 1.88 0 0 1 .88.22 1.18 1.18 0 0 1 .62 1.28c-.1.87-.2 1.76-.29 2.58a17.4 17.4 0 0 0 -.1 2.41 1.5 1.5 0 0 1 -.3.85 1.69 1.69 0 0 1 -1.42.59h-12.39c-.85 0-1.67 0-2.48.06l-2.21.14zm2.61-23a2.5 2.5 0 0 1 .32.33 3.8 3.8 0 0 1 .7 1.39 7.93 7.93 0 0 1 .25 1.51c0 .49.05 1 .05 1.53v13.01a5.25 5.25 0 0 1 -.23 1.7 3.2 3.2 0 0 1 -.8 1.27 1.64 1.64 0 0 1 -.25.21h2.05 3.51a4 4 0 0 1 -.65-.33 3.37 3.37 0 0 1 -1-1.07 4.59 4.59 0 0 1 -.59-1.57 10.88 10.88 0 0 1 -.17-2v-4.45a1.44 1.44 0 0 1 .58-1.26l.09-.06-.11-.08a1.56 1.56 0 0 1 -.56-1.35v-6.01a6.85 6.85 0 0 1 .13-1.52 2 2 0 0 1 .76-1.26h-2.8c-.46-.02-.89-.02-1.28-.04zm12.07 21h2.18c0-.54 0-1.08.06-1.61a1.43 1.43 0 0 1 -.14.2 3.51 3.51 0 0 1 -1.13 1 6.32 6.32 0 0 1 -.97.33zm2.6-4.85a.22.22 0 0 0 0 .08zm-7-5.94a3.57 3.57 0 0 1 1.28.51c.11.09.22.18.32.28 0-.25 0-.51 0-.78s0-.6 0-.86a2.33 2.33 0 0 1 -.28.26 3.42 3.42 0 0 1 -1.31.51zm4.28-10.14a3 3 0 0 1 .63.43 3.12 3.12 0 0 1 .58.75v-.66c0-.18 0-.35 0-.52z"></path>
    <path d="m292.56 219c0-.5 0-1-.05-1.46a7.42 7.42 0 0 0 -.22-1.32 3 3 0 0 0 -.53-1.06 1.85 1.85 0 0 0 -1-.61c-.25-.07-.51-.12-.78-.17s-.53-.08-.78-.1a.32.32 0 0 1 -.3-.17.7.7 0 0 1 -.11-.37.73.73 0 0 1 .11-.38.32.32 0 0 1 .3-.17c.77 0 1.46 0 2.07.07s1.33.07 2.14.07c1.36 0 2.49-.05 3.38-.09s1.75-.05 2.56-.05a11.07 11.07 0 0 1 2.69.33 7.09 7.09 0 0 1 2.36 1 5.36 5.36 0 0 1 1.66 1.87 5.74 5.74 0 0 1 .63 2.78 6 6 0 0 1 -.39 2.25 5.07 5.07 0 0 1 -1.07 1.63 5.41 5.41 0 0 1 -1.61 1.1 10.62 10.62 0 0 1 -2 .66q-.24.08-.24.24t.24.27a8.25 8.25 0 0 1 2.46 1.73 7.64 7.64 0 0 1 1.32 2 8.9 8.9 0 0 1 .66 2.09c.14.71.29 1.41.45 2.09a2.11 2.11 0 0 0 .56 1.14 1.07 1.07 0 0 0 1.58 0 2.27 2.27 0 0 0 .58-1 .47.47 0 0 1 .27-.36.53.53 0 0 1 .39 0 .67.67 0 0 1 .33.2.34.34 0 0 1 .13.32 3.45 3.45 0 0 1 -2.57 3 4.61 4.61 0 0 1 -1.31.19 4.07 4.07 0 0 1 -2-.48 2.44 2.44 0 0 1 -1.19-1.36c-.13-.38-.26-.8-.39-1.25s-.24-.91-.35-1.38-.23-.91-.34-1.36-.22-.83-.31-1.17a6.86 6.86 0 0 0 -1.58-3.12 3.69 3.69 0 0 0 -2.7-1 2 2 0 0 0 -1 .23 1 1 0 0 0 -.41 1v4.58a5.8 5.8 0 0 0 .24 1.85 2.31 2.31 0 0 0 .71 1.09 2.9 2.9 0 0 0 1.17.56 11 11 0 0 0 1.62.24.37.37 0 0 1 .32.18.8.8 0 0 1 .12.43.63.63 0 0 1 -.12.37.42.42 0 0 1 -.36.17 29.26 29.26 0 0 1 -3-.13 22.93 22.93 0 0 0 -5.06 0 22.83 22.83 0 0 1 -2.44.13.34.34 0 0 1 -.31-.17.81.81 0 0 1 -.12-.37.66.66 0 0 1 .09-.39.41.41 0 0 1 .34-.22 9.43 9.43 0 0 0 1.56-.28 1.88 1.88 0 0 0 1-.54 2 2 0 0 0 .46-1 8.83 8.83 0 0 0 .12-1.63zm3.7 4c0 .59.17.94.49 1a5.44 5.44 0 0 0 1.48.15 8.23 8.23 0 0 0 2.22-.25 3.08 3.08 0 0 0 1.45-.85 3.35 3.35 0 0 0 .76-1.53 10 10 0 0 0 .22-2.29 9.29 9.29 0 0 0 -.23-2.2 3.36 3.36 0 0 0 -.77-1.45 2.87 2.87 0 0 0 -1.38-.8 7.62 7.62 0 0 0 -2.06-.24 3 3 0 0 0 -1.75.34 1.71 1.71 0 0 0 -.43 1.39z"></path>
    <path d="m306.48 237.64a5 5 0 0 1 -2.41-.59 3.3 3.3 0 0 1 -1.63-1.88c-.14-.4-.28-.84-.41-1.31s-.25-.93-.37-1.4l-.66-2.46a6.25 6.25 0 0 0 -1.33-2.7 2.79 2.79 0 0 0 -2.05-.69 1 1 0 0 0 -.52.12l.07 4.72a5.22 5.22 0 0 0 .18 1.55 1.42 1.42 0 0 0 .42.66 2 2 0 0 0 .81.38 9 9 0 0 0 1.45.21 1.28 1.28 0 0 1 1.05.63 1.77 1.77 0 0 1 .26.92 1.57 1.57 0 0 1 -.3.91 1.32 1.32 0 0 1 -1.12.57c-1.15 0-2.19 0-3.09-.14a22.55 22.55 0 0 0 -4.86 0 24.77 24.77 0 0 1 -2.54.14 1.25 1.25 0 0 1 -1.11-.63 1.71 1.71 0 0 1 -.25-.78 1.57 1.57 0 0 1 .2-.92 1.35 1.35 0 0 1 1-.69 10.21 10.21 0 0 0 1.44-.25 1 1 0 0 0 .51-.27 1.24 1.24 0 0 0 .23-.54 7.86 7.86 0 0 0 .1-1.44v-12.76c0-.47 0-.94-.05-1.39a5.42 5.42 0 0 0 -.19-1.14 1.94 1.94 0 0 0 -.35-.72 1 1 0 0 0 -.49-.3c-.21 0-.44-.1-.69-.14s-.48-.08-.71-.1a1.23 1.23 0 0 1 -1-.63 1.58 1.58 0 0 1 -.23-.84 1.55 1.55 0 0 1 .25-.87 1.25 1.25 0 0 1 1.1-.61c.8 0 1.51 0 2.14.06s1.28.07 2.07.07c1.34 0 2.46-.05 3.35-.08a19.9 19.9 0 0 1 5.5.29 8.18 8.18 0 0 1 2.67 1.18 6.28 6.28 0 0 1 2 2.19 7.49 7.49 0 0 1 .28 5.83 6.1 6.1 0 0 1 -1.27 1.94 6.32 6.32 0 0 1 -1.93 1.26c-.2.1-.41.18-.62.26a7.27 7.27 0 0 1 1.37 1.16 8.56 8.56 0 0 1 1.49 2.22 10.43 10.43 0 0 1 .73 2.3c.13.7.27 1.38.43 2.05a1.33 1.33 0 0 0 .28.66h.32a1.34 1.34 0 0 0 .31-.59 1.37 1.37 0 0 1 .8-.95 1.51 1.51 0 0 1 1-.08 1.64 1.64 0 0 1 .77.46 1.24 1.24 0 0 1 .36 1.15 4.27 4.27 0 0 1 -.59 1.77 4.4 4.4 0 0 1 -1.15 1.27 4.65 4.65 0 0 1 -1.48.73 6.13 6.13 0 0 1 -1.54.23zm-5.2-11.45a8.61 8.61 0 0 1 1.55 3.26l.66 2.56c.11.45.22.91.35 1.35s.24.83.37 1.19a1.51 1.51 0 0 0 .75.85 3.51 3.51 0 0 0 2.58.21 2.1 2.1 0 0 1 -1.11-.57 3.09 3.09 0 0 1 -.84-1.63c-.16-.68-.31-1.39-.45-2.11a8.37 8.37 0 0 0 -.59-1.88 6.61 6.61 0 0 0 -1.17-1.73 7.15 7.15 0 0 0 -2.1-1.5zm-6.82 8.89c.76 0 1.53 0 2.33.11l-.18-.13a3.19 3.19 0 0 1 -1-1.51 6.81 6.81 0 0 1 -.29-2.15v-4.58a1.86 1.86 0 0 1 .87-1.76l.25-.13c-.44-.15-1.12-.59-1.12-1.92v-6.69a2.51 2.51 0 0 1 .78-2.12l-2.68.06h-1.28a1.94 1.94 0 0 1 .32.32 4 4 0 0 1 .7 1.39 7.93 7.93 0 0 1 .25 1.51c0 .5.05 1 .05 1.53v12.74a10 10 0 0 1 -.13 1.8 2.93 2.93 0 0 1 -.68 1.44 2.18 2.18 0 0 1 -.22.21c.69-.09 1.36-.12 2.03-.12zm15.69-1.52s0 0 0 0-.01 0 0 0zm-10.46-8.51a4 4 0 0 1 .88.49 1.05 1.05 0 0 1 -.12-.49c0-.05 0-.09 0-.14a5.57 5.57 0 0 1 -.76.14zm2.15-10.65a3.39 3.39 0 0 1 .72.58 4.21 4.21 0 0 1 1 1.86 9.72 9.72 0 0 1 .27 2.44 10.77 10.77 0 0 1 -.25 2.5 4.41 4.41 0 0 1 -.78 1.71l.47-.19a4.9 4.9 0 0 0 1.34-.92 4 4 0 0 0 .86-1.32 5.08 5.08 0 0 0 .32-1.89 4.86 4.86 0 0 0 -.51-2.33 4.31 4.31 0 0 0 -1.38-1.55 6 6 0 0 0 -2.05-.89zm-4.63 8.79a5.19 5.19 0 0 0 1 .07 7.23 7.23 0 0 0 2-.22 2.09 2.09 0 0 0 1-.58 2.46 2.46 0 0 0 .54-1.11 9.29 9.29 0 0 0 .2-2.07 7.84 7.84 0 0 0 -.21-2 2.42 2.42 0 0 0 -.54-1 2 2 0 0 0 -.95-.54 6.68 6.68 0 0 0 -1.82-.2 2.73 2.73 0 0 0 -1.16.14 2.52 2.52 0 0 0 -.07.65v6.67a.87.87 0 0 0 .01.19z"></path>
    <path d="m344.12 213.27a2.24 2.24 0 0 1 .52.06c.17 0 .23.23.19.55a4.32 4.32 0 0 0 -.07.84v1c0 1 0 2 .1 2.85a.25.25 0 0 1 -.15.22.8.8 0 0 1 -.36.1.88.88 0 0 1 -.39 0 .34.34 0 0 1 -.22-.27 19.26 19.26 0 0 0 -.47-2.07 2.52 2.52 0 0 0 -.67-1.14 2 2 0 0 0 -1.15-.49 17 17 0 0 0 -1.92-.14h-2q-.89 0-1.41 0a1.63 1.63 0 0 0 -.83.26 1.14 1.14 0 0 0 -.41.7 6.41 6.41 0 0 0 -.1 1.32v5.94c0 .32.06.52.17.6a.59.59 0 0 0 .34.12 17.59 17.59 0 0 0 2.47-.14 2.87 2.87 0 0 0 1.35-.49 1.74 1.74 0 0 0 .62-.94 13 13 0 0 0 .25-1.49.42.42 0 0 1 .2-.31.83.83 0 0 1 .38-.1.79.79 0 0 1 .37.1.34.34 0 0 1 .17.31v1s0 .56-.07.85 0 .58-.07.88 0 .66 0 1.07a14.73 14.73 0 0 0 .11 1.85 16.67 16.67 0 0 1 .1 2 .29.29 0 0 1 -.17.26.77.77 0 0 1 -.37.07 1.19 1.19 0 0 1 -.38-.11.35.35 0 0 1 -.2-.29 15 15 0 0 0 -.25-1.59 1.61 1.61 0 0 0 -.62-.94 3.14 3.14 0 0 0 -1.35-.44 19.91 19.91 0 0 0 -2.47-.12.51.51 0 0 0 -.51.61v4.45a9 9 0 0 0 .16 1.86 3.89 3.89 0 0 0 .45 1.25 2.55 2.55 0 0 0 .75.78 2.94 2.94 0 0 0 1 .43 7.88 7.88 0 0 0 1.07.15h1.24a14.58 14.58 0 0 0 1.53-.07 4.43 4.43 0 0 0 1.09-.2 8.18 8.18 0 0 0 1.17-.51 2.59 2.59 0 0 0 .83-.71 3.85 3.85 0 0 0 .56-1.11 9 9 0 0 0 .36-1.68.32.32 0 0 1 .24-.27 1.5 1.5 0 0 1 .44-.07.93.93 0 0 1 .42.1.25.25 0 0 1 .16.27c-.12 1-.22 1.85-.31 2.67a19.25 19.25 0 0 0 -.1 2.53.57.57 0 0 1 -.14.29c-.09.13-.3.19-.64.19h-12.39c-.86 0-1.7 0-2.53.07l-2.22.13a.55.55 0 0 1 -.42-.15.78.78 0 0 1 -.16-.37.5.5 0 0 1 .1-.41.57.57 0 0 1 .44-.22 8.2 8.2 0 0 0 1.39-.29 2.46 2.46 0 0 0 1-.55 2.09 2.09 0 0 0 .56-.89 4.26 4.26 0 0 0 .1-1.43v-13.06c0-.5 0-1-.05-1.46a6.72 6.72 0 0 0 -.22-1.33 2.89 2.89 0 0 0 -.53-1.05 1.85 1.85 0 0 0 -1-.61 5.62 5.62 0 0 0 -.78-.17 7.58 7.58 0 0 0 -.78-.1.32.32 0 0 1 -.3-.17.73.73 0 0 1 -.11-.38.7.7 0 0 1 .11-.37.32.32 0 0 1 .3-.17c.77 0 1.46 0 2.07.07s1.33.07 2.14.07z"></path>
    <path d="m328 237.23a1.47 1.47 0 0 1 -1.16-.46 1.74 1.74 0 0 1 -.4-.87 1.49 1.49 0 0 1 .27-1.1 1.45 1.45 0 0 1 1.09-.59 6.81 6.81 0 0 0 1.22-.26 1.35 1.35 0 0 0 .58-.32 1.29 1.29 0 0 0 .33-.53 3.56 3.56 0 0 0 .13-1.09v-13.07c0-.48 0-.94-.05-1.39a5.63 5.63 0 0 0 -.19-1.15 1.89 1.89 0 0 0 -.35-.71.9.9 0 0 0 -.49-.3 6.22 6.22 0 0 0 -.68-.15l-.72-.09a1.17 1.17 0 0 1 -1-.63 1.59 1.59 0 0 1 -.23-.85 1.62 1.62 0 0 1 .24-.86 1.24 1.24 0 0 1 1.1-.62c.8 0 1.51 0 2.14.07s1.28.07 2.07.07h12.2a2.73 2.73 0 0 1 .76.1 1.29 1.29 0 0 1 .88 1.58 3.35 3.35 0 0 0 -.06.71v1c0 1 0 1.91.1 2.78a1.22 1.22 0 0 1 -.64 1.11 1.83 1.83 0 0 1 -.73.22 1.87 1.87 0 0 1 -.79-.11 1.23 1.23 0 0 1 -.82-1 16.46 16.46 0 0 0 -.45-1.94 1.66 1.66 0 0 0 -.4-.73 1.18 1.18 0 0 0 -.65-.25 15.51 15.51 0 0 0 -1.81-.13h-2q-.84 0-1.35 0a.78.78 0 0 0 -.34.08 4.71 4.71 0 0 0 -.12 1.26v5.75c.72 0 1.4-.08 1.89-.16a1.93 1.93 0 0 0 .93-.3.78.78 0 0 0 .28-.44 9.48 9.48 0 0 0 .22-1.35 1.4 1.4 0 0 1 .66-1 1.69 1.69 0 0 1 1.71 0 1.26 1.26 0 0 1 .63 1.11v1l-.14 1.73v1a13.17 13.17 0 0 0 .1 1.74 18.07 18.07 0 0 1 .11 2.13 1.22 1.22 0 0 1 -.69 1.1 1.58 1.58 0 0 1 -.87.16 2 2 0 0 1 -.72-.2 1.32 1.32 0 0 1 -.71-1 11.93 11.93 0 0 0 -.24-1.52.62.62 0 0 0 -.24-.39 2.11 2.11 0 0 0 -.94-.28 17.76 17.76 0 0 0 -1.91-.11v4.12a8.77 8.77 0 0 0 .13 1.67 2.82 2.82 0 0 0 .34.94 1.49 1.49 0 0 0 .46.5 2.14 2.14 0 0 0 .75.29 7 7 0 0 0 .94.14 15 15 0 0 0 2.6 0 4.23 4.23 0 0 0 .86-.15 6.33 6.33 0 0 0 1-.45 1.61 1.61 0 0 0 .54-.46 2.87 2.87 0 0 0 .43-.84 9.66 9.66 0 0 0 .31-1.5 1.27 1.27 0 0 1 .88-1 2.15 2.15 0 0 1 .73-.12 1.87 1.87 0 0 1 .87.22 1.17 1.17 0 0 1 .62 1.28c-.1.87-.2 1.76-.29 2.58a17.42 17.42 0 0 0 -.09 2.41 1.5 1.5 0 0 1 -.31.85 1.69 1.69 0 0 1 -1.42.59h-12.36c-.84 0-1.67 0-2.48.06l-2.21.14zm2.61-23a2.5 2.5 0 0 1 .32.33 3.8 3.8 0 0 1 .7 1.39 7.93 7.93 0 0 1 .25 1.51q.06.74.06 1.53v13.01a5.23 5.23 0 0 1 -.24 1.7 3.1 3.1 0 0 1 -.8 1.27 1.64 1.64 0 0 1 -.25.21h2.05 3.49a3.49 3.49 0 0 1 -.64-.33 3.4 3.4 0 0 1 -1-1.07 4.4 4.4 0 0 1 -.58-1.57 10 10 0 0 1 -.18-2v-4.45a1.44 1.44 0 0 1 .58-1.26l.09-.06-.11-.08a1.56 1.56 0 0 1 -.56-1.35v-6.01a6.85 6.85 0 0 1 .13-1.52 2 2 0 0 1 .76-1.26h-2.81c-.4-.02-.82-.02-1.22-.04zm12.07 21h2.18c0-.54 0-1.08.07-1.61l-.15.2a3.51 3.51 0 0 1 -1.13 1 6.32 6.32 0 0 1 -.93.33zm2.6-4.85a.22.22 0 0 1 0 .08zm-7-5.94a3.57 3.57 0 0 1 1.28.51c.11.09.22.18.32.28 0-.25 0-.51 0-.78s0-.6 0-.86l-.29.26a3.42 3.42 0 0 1 -1.26.51zm4.28-10.14a3 3 0 0 1 .63.43 3.12 3.12 0 0 1 .58.75v-.66c0-.18 0-.35 0-.52z"></path>
    <path d="m358.24 228.07a1.18 1.18 0 0 0 -.68.15 1.33 1.33 0 0 0 -.37.53l-1.53 4a2.83 2.83 0 0 0 -.17.78 1.13 1.13 0 0 0 .22.73 1.6 1.6 0 0 0 .59.46 4.71 4.71 0 0 0 .85.27 7.87 7.87 0 0 0 1 .14.36.36 0 0 1 .34.18.81.81 0 0 1 .1.39.76.76 0 0 1 -.1.39.35.35 0 0 1 -.34.19 14.83 14.83 0 0 1 -1.87-.13 15.79 15.79 0 0 0 -2-.14 10.35 10.35 0 0 0 -1.7.14 10.82 10.82 0 0 1 -1.77.13.36.36 0 0 1 -.29-.17.72.72 0 0 1 -.13-.37.74.74 0 0 1 .07-.39.36.36 0 0 1 .32-.22l.51-.07a5.69 5.69 0 0 0 .93-.26 2 2 0 0 0 .78-.49 4.08 4.08 0 0 0 .7-.9 8.94 8.94 0 0 0 .68-1.44l7.68-19.33c.06-.18.25-.27.54-.27a1 1 0 0 1 .75.27c.56 1.45 1.17 3 1.81 4.66s1.31 3.33 2 5 1.36 3.41 2 5.09 1.32 3.28 1.93 4.78a7.71 7.71 0 0 0 .8 1.52 3.26 3.26 0 0 0 .78.82 2.51 2.51 0 0 0 .8.37l.88.21a.35.35 0 0 1 .29.22.86.86 0 0 1 .09.39.78.78 0 0 1 -.09.37.28.28 0 0 1 -.25.17 15.64 15.64 0 0 1 -2.09-.13 17 17 0 0 0 -2.26-.14 25 25 0 0 0 -2.68.14 22.69 22.69 0 0 1 -2.41.13.39.39 0 0 1 -.36-.19.74.74 0 0 1 -.12-.42.69.69 0 0 1 .1-.36.46.46 0 0 1 .34-.18 5.44 5.44 0 0 0 1.7-.41 1.13 1.13 0 0 0 .54-1.12 4 4 0 0 0 -.05-.55 5 5 0 0 0 -.22-.83c-.11-.35-.27-.8-.47-1.36s-.48-1.26-.82-2.12a.89.89 0 0 0 -.46-.56 2.6 2.6 0 0 0 -.93-.12zm5.84-1.32a1 1 0 0 0 .65-.15c.11-.11.11-.29 0-.56l-3-7.95a.25.25 0 0 0 -.27-.17.25.25 0 0 0 -.27.17l-3.05 7.91c-.11.29-.13.48 0 .57a.69.69 0 0 0 .5.14z"></path>
    <path d="m374.4 237.23a15.87 15.87 0 0 1 -2.21-.15 21.82 21.82 0 0 0 -4.71 0 24.7 24.7 0 0 1 -2.52.14 1.33 1.33 0 0 1 -1.15-.63 1.7 1.7 0 0 1 -.26-.92 1.58 1.58 0 0 1 .26-.87 1.4 1.4 0 0 1 1-.6 4.57 4.57 0 0 0 1.41-.32s0-.08 0-.28a2 2 0 0 0 0-.4 4.75 4.75 0 0 0 -.18-.69c-.11-.34-.27-.78-.46-1.32l-.81-2.1s-.09-.09-.52-.09h-6a.75.75 0 0 0 -.21 0l-1.5 4.06a1.78 1.78 0 0 0 -.1.45c.08.23.16.29.26.34a3 3 0 0 0 .66.2 6 6 0 0 0 .85.12 1.28 1.28 0 0 1 1.09.67 1.76 1.76 0 0 1 .22.84 1.73 1.73 0 0 1 -.21.83c-.53 1-1.76.72-3.16.55a11.94 11.94 0 0 0 -3.43 0 11.59 11.59 0 0 1 -1.92.15 1.29 1.29 0 0 1 -1.05-.56 1.72 1.72 0 0 1 -.31-.85 1.7 1.7 0 0 1 .16-.86 1.28 1.28 0 0 1 1-.75l.51-.07a6.11 6.11 0 0 0 .75-.21 1.33 1.33 0 0 0 .45-.29 3.51 3.51 0 0 0 .54-.71 7.94 7.94 0 0 0 .6-1.29l7.68-19.33a1.41 1.41 0 0 1 1.42-.87 1.93 1.93 0 0 1 1.4.55l.22.32 1.83 4.71q1 2.47 2 5t2 5.1l1.93 4.76a7.07 7.07 0 0 0 .69 1.34 2.71 2.71 0 0 0 .55.59 1.71 1.71 0 0 0 .5.23c.26.07.54.14.85.2a1.27 1.27 0 0 1 .94.74 1.91 1.91 0 0 1 .17.79 1.75 1.75 0 0 1 -.18.78 1.21 1.21 0 0 1 -1.05.7zm-9.03-9.94.15.06a1.79 1.79 0 0 1 1 1.09c.34.86.62 1.57.82 2.13s.38 1 .49 1.4a6.21 6.21 0 0 1 .26 1 4.83 4.83 0 0 1 .06.7 2.19 2.19 0 0 1 -.56 1.59 23.88 23.88 0 0 1 4.39 0 5 5 0 0 1 -.79-.88 9.39 9.39 0 0 1 -.91-1.71l-1.93-4.78-2-5.1c-.68-1.71-1.35-3.4-2-5l-1.59-4.08-1.43 3.29a1.25 1.25 0 0 1 1.32.76l3 8a1.3 1.3 0 0 1 -.28 1.51zm-11.1 7.81h.94a2.16 2.16 0 0 1 -.25-.27 2.1 2.1 0 0 1 -.4-1.06.54.54 0 0 1 -.07.13 5 5 0 0 1 -.85 1.09l-.12.11c.25-.01.48-.02.75-.02zm3-8-.09.22.2-.09a.47.47 0 0 1 -.07-.11zm1.92-1.31h4.41l-2.16-5.8z"></path>
    <path d="m383.14 219c0-.5 0-1-.05-1.46a7.42 7.42 0 0 0 -.22-1.32 3 3 0 0 0 -.53-1.06 1.85 1.85 0 0 0 -1-.61c-.25-.07-.51-.12-.78-.17s-.53-.08-.78-.1a.34.34 0 0 1 -.31-.17.69.69 0 0 1 -.1-.37.72.72 0 0 1 .1-.38.34.34 0 0 1 .31-.17c.77 0 1.46 0 2.07.07s1.33.07 2.14.07c1.36 0 2.49-.05 3.38-.09s1.75-.05 2.56-.05a11.13 11.13 0 0 1 2.69.33 7.09 7.09 0 0 1 2.36 1 5.36 5.36 0 0 1 1.66 1.87 5.74 5.74 0 0 1 .63 2.78 6 6 0 0 1 -.39 2.25 5.07 5.07 0 0 1 -1.07 1.63 5.41 5.41 0 0 1 -1.61 1.1 10.49 10.49 0 0 1 -2 .66c-.15.05-.23.13-.23.24s.08.18.23.27a8.18 8.18 0 0 1 2.47 1.73 7.64 7.64 0 0 1 1.32 2 8.9 8.9 0 0 1 .66 2.09c.14.71.29 1.41.45 2.09a2.11 2.11 0 0 0 .56 1.14 1.17 1.17 0 0 0 .8.36 1.19 1.19 0 0 0 .78-.34 2.26 2.26 0 0 0 .57-1 .52.52 0 0 1 .27-.36.56.56 0 0 1 .4 0 .72.72 0 0 1 .33.2.31.31 0 0 1 .12.32 3.43 3.43 0 0 1 -2.56 3 4.61 4.61 0 0 1 -1.31.19 4.07 4.07 0 0 1 -2-.48 2.4 2.4 0 0 1 -1.19-1.36c-.13-.38-.26-.8-.39-1.25s-.24-.91-.35-1.38-.23-.91-.34-1.36-.22-.83-.31-1.17a7 7 0 0 0 -1.58-3.12 3.7 3.7 0 0 0 -2.7-1 2 2 0 0 0 -1 .23 1 1 0 0 0 -.41 1v4.58a5.8 5.8 0 0 0 .24 1.85 2.24 2.24 0 0 0 .71 1.09 2.9 2.9 0 0 0 1.17.56 10.81 10.81 0 0 0 1.61.24.38.38 0 0 1 .33.18.8.8 0 0 1 .12.43.63.63 0 0 1 -.12.37.42.42 0 0 1 -.36.17 29.26 29.26 0 0 1 -3-.13 24.2 24.2 0 0 0 -2.49-.19 23.92 23.92 0 0 0 -2.55.14 22.83 22.83 0 0 1 -2.44.13.34.34 0 0 1 -.31-.17.81.81 0 0 1 -.12-.37.66.66 0 0 1 .09-.39.4.4 0 0 1 .34-.22 9.43 9.43 0 0 0 1.56-.28 1.92 1.92 0 0 0 .95-.54 2.08 2.08 0 0 0 .46-1 8.83 8.83 0 0 0 .12-1.63zm3.7 4c0 .59.16.94.49 1a5.44 5.44 0 0 0 1.48.15 8.23 8.23 0 0 0 2.19-.15 3.08 3.08 0 0 0 1.45-.85 3.45 3.45 0 0 0 .76-1.53 10 10 0 0 0 .22-2.29 9.29 9.29 0 0 0 -.23-2.2 3.47 3.47 0 0 0 -.77-1.45 2.87 2.87 0 0 0 -1.38-.8 7.64 7.64 0 0 0 -2.07-.24 3 3 0 0 0 -1.75.34 1.74 1.74 0 0 0 -.42 1.39z"></path>
    <path d="m397.06 237.64a5 5 0 0 1 -2.41-.59 3.3 3.3 0 0 1 -1.63-1.88c-.14-.4-.28-.84-.41-1.31s-.25-.93-.37-1.4l-.63-2.51a6.25 6.25 0 0 0 -1.33-2.7 2.82 2.82 0 0 0 -2-.69 1 1 0 0 0 -.52.12l.07 4.72a5.22 5.22 0 0 0 .17 1.6 1.35 1.35 0 0 0 .42.66 2 2 0 0 0 .81.38 9 9 0 0 0 1.45.21 1.26 1.26 0 0 1 1 .63 1.68 1.68 0 0 1 .26.92 1.56 1.56 0 0 1 -.29.91 1.32 1.32 0 0 1 -1.12.57c-1.15 0-2.19 0-3.09-.14a22.55 22.55 0 0 0 -4.86 0 24.81 24.81 0 0 1 -2.55.14 1.28 1.28 0 0 1 -1.11-.63 1.83 1.83 0 0 1 -.24-.78 1.57 1.57 0 0 1 .2-.92 1.33 1.33 0 0 1 1-.69 10.21 10.21 0 0 0 1.44-.25 1 1 0 0 0 .51-.27 1.24 1.24 0 0 0 .23-.54 8.87 8.87 0 0 0 .1-1.44v-12.76c0-.47 0-.94-.05-1.39a5.42 5.42 0 0 0 -.19-1.14 1.94 1.94 0 0 0 -.35-.72 1 1 0 0 0 -.49-.3l-.69-.14c-.24 0-.48-.08-.71-.1a1.22 1.22 0 0 1 -1-.63 1.58 1.58 0 0 1 -.23-.84 1.63 1.63 0 0 1 .24-.87 1.26 1.26 0 0 1 1.11-.61c.79 0 1.51 0 2.14.06s1.28.07 2.07.07c1.33 0 2.46-.05 3.35-.08a19.9 19.9 0 0 1 5.5.29 8.18 8.18 0 0 1 2.67 1.18 6.35 6.35 0 0 1 1.95 2.19 6.64 6.64 0 0 1 .75 3.23 7 7 0 0 1 -.46 2.6 6.27 6.27 0 0 1 -1.27 1.94 6.45 6.45 0 0 1 -1.9 1.29c-.2.1-.41.18-.62.26a7.6 7.6 0 0 1 1.37 1.16 8.56 8.56 0 0 1 1.49 2.22 11 11 0 0 1 .73 2.3c.13.7.27 1.38.43 2.05a1.33 1.33 0 0 0 .28.66h.31a1.31 1.31 0 0 0 .32-.59 1.34 1.34 0 0 1 .8-.95 1.5 1.5 0 0 1 1-.08 1.69 1.69 0 0 1 .77.46 1.26 1.26 0 0 1 .36 1.15 4.42 4.42 0 0 1 -.59 1.77 4.54 4.54 0 0 1 -1.15 1.27 4.65 4.65 0 0 1 -1.48.73 6.13 6.13 0 0 1 -1.56.2zm-5.21-11.45a8.47 8.47 0 0 1 1.56 3.26l.66 2.56c.11.45.22.91.34 1.35s.25.83.37 1.19a1.53 1.53 0 0 0 .76.85 3.51 3.51 0 0 0 2.58.21 2.1 2.1 0 0 1 -1.12-.61 3 3 0 0 1 -.84-1.63c-.16-.68-.31-1.39-.45-2.11a8.37 8.37 0 0 0 -.59-1.88 6.86 6.86 0 0 0 -1.17-1.73 7.08 7.08 0 0 0 -2.1-1.46zm-6.85 8.89c.75 0 1.53 0 2.33.11l-.18-.13a3.19 3.19 0 0 1 -1-1.51 6.81 6.81 0 0 1 -.29-2.15v-4.58a1.86 1.86 0 0 1 .87-1.76l.25-.13c-.44-.15-1.12-.59-1.12-1.92v-6.69a2.51 2.51 0 0 1 .78-2.12s0 0 0 0l-2.68.06h-1.28a2.42 2.42 0 0 1 .32.32 4.14 4.14 0 0 1 .7 1.39 7.93 7.93 0 0 1 .25 1.51c0 .5.05 1 .05 1.53v12.74a10 10 0 0 1 -.13 1.8 3 3 0 0 1 -.68 1.44 2.18 2.18 0 0 1 -.22.21c.73-.09 1.4-.12 2.03-.12zm5.23-10.03a4 4 0 0 1 .88.49 1.05 1.05 0 0 1 -.12-.49.66.66 0 0 1 0-.14 5.86 5.86 0 0 1 -.72.14zm2.15-10.65a3.39 3.39 0 0 1 .72.58 4.32 4.32 0 0 1 1 1.86 9.72 9.72 0 0 1 .27 2.44 10.77 10.77 0 0 1 -.25 2.5 4.41 4.41 0 0 1 -.78 1.71l.47-.19a4.9 4.9 0 0 0 1.34-.92 4 4 0 0 0 .86-1.32 5.08 5.08 0 0 0 .32-1.89 4.86 4.86 0 0 0 -.51-2.33 4.5 4.5 0 0 0 -1.38-1.55 6 6 0 0 0 -2.05-.89zm-4.63 8.79a5.19 5.19 0 0 0 1 .07 7.11 7.11 0 0 0 2-.22 2.08 2.08 0 0 0 1-.58 2.56 2.56 0 0 0 .54-1.11 9.29 9.29 0 0 0 .2-2.07 7.84 7.84 0 0 0 -.21-2 2.42 2.42 0 0 0 -.54-1 2 2 0 0 0 -.95-.54 6.73 6.73 0 0 0 -1.82-.2 2.86 2.86 0 0 0 -1.17.14 4.33 4.33 0 0 0 -.06.65v6.67a.87.87 0 0 0 .05.19z"></path>
    <path d="m414.93 231.67a11.34 11.34 0 0 0 .1 1.75 1.67 1.67 0 0 0 .46 1 2.09 2.09 0 0 0 1 .49 13.83 13.83 0 0 0 1.73.26.46.46 0 0 1 .33.22.77.77 0 0 1 .11.39.7.7 0 0 1 -.11.37.43.43 0 0 1 -.36.17 23.94 23.94 0 0 1 -2.6-.13 22.83 22.83 0 0 0 -2.46-.14c-.87 0-1.75 0-2.67.14s-1.75.13-2.49.13a.34.34 0 0 1 -.31-.17.69.69 0 0 1 -.1-.37.76.76 0 0 1 .1-.39.39.39 0 0 1 .31-.22 13.41 13.41 0 0 0 1.68-.26 2.11 2.11 0 0 0 1-.49 1.75 1.75 0 0 0 .48-1 11.12 11.12 0 0 0 .11-1.75v-15.08c0-.83-.2-1.36-.62-1.58a5.13 5.13 0 0 0 -2.13-.32 9.23 9.23 0 0 0 -2.07.19 2.8 2.8 0 0 0 -1.34.68 3.55 3.55 0 0 0 -.85 1.34 14.8 14.8 0 0 0 -.59 2.21.34.34 0 0 1 -.22.27 1 1 0 0 1 -.38.05.73.73 0 0 1 -.34-.12.3.3 0 0 1 -.15-.24c.09-.84.14-1.69.15-2.56a17.37 17.37 0 0 0 -.15-2.6q0-.37.48-.51a3.77 3.77 0 0 1 1.05-.13h18.17a4 4 0 0 1 1.07.11.5.5 0 0 1 .42.5c0 .27-.08.6-.11 1s-.05.83-.05 1.31 0 1 .05 1.46.07 1 .11 1.42a.33.33 0 0 1 -.16.26.75.75 0 0 1 -.38.13.86.86 0 0 1 -.39-.05.31.31 0 0 1 -.22-.27 10.24 10.24 0 0 0 -.55-2.22 3.39 3.39 0 0 0 -.89-1.36 3.09 3.09 0 0 0 -1.38-.68 8.43 8.43 0 0 0 -1.94-.19 5.56 5.56 0 0 0 -2.2.32c-.46.22-.68.75-.68 1.58z"></path>
    <path d="m418.19 237.23a25.63 25.63 0 0 1 -2.7-.14 23.3 23.3 0 0 0 -4.94 0c-.95.09-1.81.14-2.59.14a1.27 1.27 0 0 1 -1.1-.61 1.76 1.76 0 0 1 -.24-.87 1.73 1.73 0 0 1 .21-.83 1.34 1.34 0 0 1 1-.71 13.14 13.14 0 0 0 1.62-.24 1.33 1.33 0 0 0 .56-.26 1 1 0 0 0 .2-.47 9.63 9.63 0 0 0 .1-1.57v-15.08c0-.6-.14-.75-.14-.75a4.08 4.08 0 0 0 -1.68-.21 8.62 8.62 0 0 0 -1.86.16 2 2 0 0 0 -.91.45 2.62 2.62 0 0 0 -.61 1 13.14 13.14 0 0 0 -.55 2.06 1.26 1.26 0 0 1 -.82 1 1.71 1.71 0 0 1 -.79.1 1.52 1.52 0 0 1 -.76-.27 1.21 1.21 0 0 1 -.58-1c.1-.91.15-1.73.16-2.57a17 17 0 0 0 -.15-2.47 1.46 1.46 0 0 1 1.15-1.53 4.56 4.56 0 0 1 1.31-.17h18.17a5 5 0 0 1 1.32.15 1.43 1.43 0 0 1 1.11 1.4c-.05.4-.09.71-.12 1.08s-.05.78-.05 1.23 0 .91.05 1.39.07 1 .12 1.4a1.26 1.26 0 0 1 -.56 1.11 1.76 1.76 0 0 1 -.84.31 1.87 1.87 0 0 1 -.79-.11 1.26 1.26 0 0 1 -.83-1 9.29 9.29 0 0 0 -.49-2 2.62 2.62 0 0 0 -.64-1 2.26 2.26 0 0 0 -1-.47 7.77 7.77 0 0 0 -1.73-.16 4.47 4.47 0 0 0 -1.8.23s-.15.18-.15.73v15.08a9.5 9.5 0 0 0 .1 1.6.75.75 0 0 0 .17.44 1.26 1.26 0 0 0 .58.26 12.34 12.34 0 0 0 1.6.23 1.43 1.43 0 0 1 1 .65 1.68 1.68 0 0 1 .27.9 1.62 1.62 0 0 1 -.28.9 1.35 1.35 0 0 1 -1.1.49zm-7.12-23a2.49 2.49 0 0 1 1.09 2.39v15.08a10.94 10.94 0 0 1 -.13 1.92 2.68 2.68 0 0 1 -.75 1.48.39.39 0 0 1 -.1.08 26.07 26.07 0 0 1 3.75 0l-.09-.08a2.58 2.58 0 0 1 -.74-1.5 13 13 0 0 1 -.11-1.9v-15.11a2.45 2.45 0 0 1 1.14-2.39zm-8.37 4.72a.06.06 0 0 0 0 0s0-.02 0-.03zm18-4.72a3.81 3.81 0 0 1 1 .65 4.16 4.16 0 0 1 .88 1.12c0-.42 0-.82.05-1.18 0-.2 0-.39.06-.56a3.43 3.43 0 0 0 -.5 0zm-17.19.05c.06.52.1 1.1.11 1.69a4 4 0 0 1 .8-1.07 3.51 3.51 0 0 1 1-.67h-1.4a3.12 3.12 0 0 0 -.51.02z"></path>
    <path d="m446.61 223.66a1.06 1.06 0 0 0 .6-.14.65.65 0 0 0 .19-.54v-4.62a10.37 10.37 0 0 0 -.13-1.8 2.88 2.88 0 0 0 -.45-1.22 2.14 2.14 0 0 0 -1-.73 5.65 5.65 0 0 0 -1.68-.33.33.33 0 0 1 -.31-.18.94.94 0 0 1 -.1-.39.83.83 0 0 1 .1-.38.34.34 0 0 1 .31-.17c.72 0 1.55 0 2.48.11s1.8.1 2.61.1h1.34l1.23-.06 1.2-.07h1.33a.31.31 0 0 1 .29.17.8.8 0 0 1 .06.38 1.15 1.15 0 0 1 -.11.39.32.32 0 0 1 -.28.18 7.33 7.33 0 0 0 -1.7.29 2 2 0 0 0 -1 .68 2.59 2.59 0 0 0 -.44 1.21 13.88 13.88 0 0 0 -.11 1.9v13.31a8.71 8.71 0 0 0 .14 1.75 2 2 0 0 0 .49 1 2.24 2.24 0 0 0 1 .51 13.89 13.89 0 0 0 1.66.25.46.46 0 0 1 .32.2.66.66 0 0 1 .12.38.63.63 0 0 1 -.12.37.41.41 0 0 1 -.35.17 23.94 23.94 0 0 1 -2.6-.13 22.83 22.83 0 0 0 -2.46-.14c-.86 0-1.75 0-2.67.14s-1.75.13-2.5.13a.33.33 0 0 1 -.3-.17.69.69 0 0 1 -.1-.37.72.72 0 0 1 .1-.38.4.4 0 0 1 .3-.2 12.82 12.82 0 0 0 1.68-.25 2.21 2.21 0 0 0 1-.51 1.84 1.84 0 0 0 .47-1 8.84 8.84 0 0 0 .13-1.75v-5.75c0-.59-.26-.89-.75-.89h-10.11c-.49 0-.74.23-.74.68v5.84a8.84 8.84 0 0 0 .13 1.75 1.93 1.93 0 0 0 .49 1 2.19 2.19 0 0 0 1 .51 13.57 13.57 0 0 0 1.66.25.48.48 0 0 1 .32.2.66.66 0 0 1 .12.38.63.63 0 0 1 -.12.37.41.41 0 0 1 -.35.17 23.94 23.94 0 0 1 -2.6-.13 22.87 22.87 0 0 0 -2.47-.14c-.86 0-1.75 0-2.66.14s-1.75.13-2.5.13a.33.33 0 0 1 -.3-.17.7.7 0 0 1 -.11-.37.73.73 0 0 1 .11-.38.4.4 0 0 1 .3-.2 13.38 13.38 0 0 0 1.68-.25 2.21 2.21 0 0 0 1-.51 1.77 1.77 0 0 0 .47-1 9.85 9.85 0 0 0 .12-1.75v-13.27a11.59 11.59 0 0 0 -.12-1.8 2.75 2.75 0 0 0 -.45-1.22 2.14 2.14 0 0 0 -1-.73 5.65 5.65 0 0 0 -1.68-.33.33.33 0 0 1 -.31-.18.81.81 0 0 1 -.1-.39.72.72 0 0 1 .1-.38.34.34 0 0 1 .31-.17c.72 0 1.55 0 2.48.11s1.79.1 2.61.1h1.34l1.23-.06 1.2-.07h1.33a.29.29 0 0 1 .28.17.7.7 0 0 1 .07.38 1 1 0 0 1 -.12.39.31.31 0 0 1 -.27.18 7.33 7.33 0 0 0 -1.7.29 2 2 0 0 0 -1 .68 2.49 2.49 0 0 0 -.44 1.21 14.11 14.11 0 0 0 -.1 1.9v4.56c0 .45.25.68.74.68z"></path>
    <path d="m454.36 237.23a26 26 0 0 1 -2.71-.14 23.21 23.21 0 0 0 -4.93 0c-1 .09-1.82.14-2.59.14a1.26 1.26 0 0 1 -1.11-.63 1.64 1.64 0 0 1 -.23-.85 1.62 1.62 0 0 1 .24-.86 1.33 1.33 0 0 1 .94-.64 15 15 0 0 0 1.62-.24 1.05 1.05 0 0 0 .54-.27.93.93 0 0 0 .22-.5 8.62 8.62 0 0 0 .11-1.57v-5.58h-9.78v5.58a7.42 7.42 0 0 0 .12 1.55 1.05 1.05 0 0 0 .23.52 1.08 1.08 0 0 0 .56.26 12.32 12.32 0 0 0 1.54.24 1.49 1.49 0 0 1 1 .6 1.57 1.57 0 0 1 0 1.82 1.35 1.35 0 0 1 -1.13.57 25.92 25.92 0 0 1 -2.7-.14 23.21 23.21 0 0 0 -4.93 0c-.95.09-1.82.14-2.59.14a1.25 1.25 0 0 1 -1.11-.63 1.64 1.64 0 0 1 -.23-.85 1.7 1.7 0 0 1 .23-.86 1.37 1.37 0 0 1 .95-.64 15 15 0 0 0 1.62-.24 1.13 1.13 0 0 0 .54-.26.93.93 0 0 0 .22-.5 8.82 8.82 0 0 0 .11-1.58v-13.31a11.09 11.09 0 0 0 -.11-1.65 2 2 0 0 0 -.3-.83 1.3 1.3 0 0 0 -.56-.41 4.75 4.75 0 0 0 -1.39-.25 1.22 1.22 0 0 1 -1.06-.67 1.76 1.76 0 0 1 -.22-.84 1.69 1.69 0 0 1 .23-.85 1.28 1.28 0 0 1 1.12-.63c.74 0 1.59 0 2.55.1a33.79 33.79 0 0 0 3.83.07l2.43-.14c.83 0 2.06-.22 2.5.64a1.61 1.61 0 0 1 .16.88 1.9 1.9 0 0 1 -.22.76 1.24 1.24 0 0 1 -1.1.68 5.66 5.66 0 0 0 -1.39.24 1 1 0 0 0 -.54.35 1.78 1.78 0 0 0 -.27.78 14.16 14.16 0 0 0 -.09 1.77v4.36h9.77v-4.36a11.09 11.09 0 0 0 -.11-1.65 2 2 0 0 0 -.3-.83 1.24 1.24 0 0 0 -.56-.41 4.74 4.74 0 0 0 -1.38-.25 1.22 1.22 0 0 1 -1.06-.67 1.76 1.76 0 0 1 -.22-.84 1.69 1.69 0 0 1 .23-.85 1.28 1.28 0 0 1 1.12-.63c.74 0 1.59 0 2.55.1a33.79 33.79 0 0 0 3.83.07l2.43-.14c.83 0 2.06-.22 2.5.64a1.71 1.71 0 0 1 .17.88 2.09 2.09 0 0 1 -.23.76 1.23 1.23 0 0 1 -1.1.68 5.84 5.84 0 0 0 -1.39.24 1 1 0 0 0 -.54.35 1.66 1.66 0 0 0 -.26.78 12.26 12.26 0 0 0 -.1 1.77v13.31a7 7 0 0 0 .12 1.55 1 1 0 0 0 .24.52 1.09 1.09 0 0 0 .55.26 12.32 12.32 0 0 0 1.54.24 1.41 1.41 0 0 1 1 .58 1.61 1.61 0 0 1 .3.93 1.56 1.56 0 0 1 -.29.91 1.34 1.34 0 0 1 -1.13.57zm-20.42-2.15c.62 0 1.24 0 1.86.08l-.09-.09a2.87 2.87 0 0 1 -.75-1.46 9.75 9.75 0 0 1 -.15-1.94v-5.84a1.52 1.52 0 0 1 .83-1.43 1.52 1.52 0 0 1 -.83-1.42v-4.62a16.19 16.19 0 0 1 .1-2 3.61 3.61 0 0 1 .62-1.64 3.19 3.19 0 0 1 .44-.46h-.67a31.46 31.46 0 0 1 -3.6 0 3.12 3.12 0 0 1 .53.56 3.83 3.83 0 0 1 .62 1.63 11.91 11.91 0 0 1 .13 1.94v13.31a9.9 9.9 0 0 1 -.14 1.93 2.74 2.74 0 0 1 -.73 1.47l-.09.08c.66-.07 1.3-.1 1.92-.1zm15.36 0c.61 0 1.23 0 1.85.08l-.09-.09a2.87 2.87 0 0 1 -.75-1.46 9.88 9.88 0 0 1 -.15-1.94v-13.31a15.93 15.93 0 0 1 .11-2 3.61 3.61 0 0 1 .61-1.64 3.19 3.19 0 0 1 .44-.46h-.67a31.46 31.46 0 0 1 -3.6 0 3.12 3.12 0 0 1 .53.56 3.82 3.82 0 0 1 .62 1.62 12.13 12.13 0 0 1 .13 2v4.56a1.52 1.52 0 0 1 -.56 1.29 1.35 1.35 0 0 1 -.26.15 1.74 1.74 0 0 1 .82 1.62v5.63a9.9 9.9 0 0 1 -.14 1.93 2.74 2.74 0 0 1 -.73 1.47l-.09.08c.63-.06 1.3-.09 1.93-.09z"></path>
    <path d="m493.26 480.87h-76.19a1.4 1.4 0 0 1 -1.4-1.4v-150.19a1.41 1.41 0 0 1 .56-1.13 16.58 16.58 0 0 0 1.35-1.14c1.64-1.45 3.49-3.1 7.1-3.1a8.5 8.5 0 0 1 1.58.17 1.54 1.54 0 0 1 1.28 1.4v56.52a1.41 1.41 0 0 1 -1.41 1.41h-2.33v27.1h2.33a1.41 1.41 0 0 1 1.41 1.41v53.69h55.25v-135a1.41 1.41 0 0 1 .52-1.09 1.37 1.37 0 0 1 1.17-.29 6.77 6.77 0 0 0 1.44.17c2.53 0 3.71-1 5.19-2.38.42-.38.84-.75 1.28-1.1a1.4 1.4 0 0 1 2.27 1.11v152.44a1.4 1.4 0 0 1 -1.4 1.4zm-74.78-2.81h73.37v-148a8.9 8.9 0 0 1 -6.25 2.12v134.82a1.41 1.41 0 0 1 -.41 1 1.37 1.37 0 0 1 -1 .41h-58.06a1.4 1.4 0 0 1 -1.4-1.4v-53.71h-2.34a1.4 1.4 0 0 1 -1.4-1.4v-29.9a1.4 1.4 0 0 1 1.4-1.4h2.34v-53.88h-.05c-2.54 0-3.72 1.06-5.22 2.39-.33.29-.65.58-1 .85z"></path>
    <path d="m433.12 331.24a1.34 1.34 0 0 1 -.69-.18 15.69 15.69 0 0 1 -2.56-1.92 7.8 7.8 0 0 0 -4-2.27 1.4 1.4 0 0 1 -1.16-1.38 2 2 0 0 1 0-.25 1.4 1.4 0 0 1 1.63-1.14 10.55 10.55 0 0 1 5.33 2.92 13.77 13.77 0 0 0 2.07 1.59 1.4 1.4 0 0 1 -.7 2.62z"></path>
    <path d="m434.55 331.85a1.23 1.23 0 0 1 -.42-.07c-.29-.09-.57-.18-.85-.29s-.4-.17-.59-.27a1.42 1.42 0 0 1 -.6-1.9 1.43 1.43 0 0 1 1.9-.6 3.76 3.76 0 0 0 .57.24l.41.14a1.41 1.41 0 0 1 -.42 2.75z"></path>
    <path d="m436.93 332.22a9.68 9.68 0 0 1 -2.31-.27 1.41 1.41 0 0 1 .67-2.74 6.76 6.76 0 0 0 1.64.19 1.41 1.41 0 0 1 0 2.82z"></path>
    <path d="m482.76 331.55a1.26 1.26 0 0 1 -.33-.05 1 1 0 0 1 -.23-.08l1.05-2.6h.1l.11.06a1.45 1.45 0 0 1 .54 1.72 1.4 1.4 0 0 1 -1.24.95z"></path>
    <path d="m476.07 327.1a1.44 1.44 0 0 1 -.4-.06l-.25-.09a1.47 1.47 0 0 1 -1.1-1.72 1.36 1.36 0 0 1 1.63-1.06l.17.06.29.09a1.51 1.51 0 0 1 .92 1.81 1.37 1.37 0 0 1 -1.26.97z"></path>
    <path d="m478.63 328.47a1.38 1.38 0 0 1 -1-.41l2-2a1.47 1.47 0 0 1 .41 1 1.38 1.38 0 0 1 -.4 1 1.41 1.41 0 0 1 -1.01.41z"></path>
    <path d="m477.53 327.75a1.31 1.31 0 0 1 -.67-.19l-.14-.08a1.54 1.54 0 0 1 -.61-2 1.28 1.28 0 0 1 1.69-.66h.07l.11.06.22.13a1.43 1.43 0 0 1 -.41 2.64 1.07 1.07 0 0 1 -.26.1z"></path>
    <path d="m518.56 491.86h-25.3a1.41 1.41 0 0 1 -1.41-1.4v-163.46a1.42 1.42 0 0 1 .54-1.11 8.84 8.84 0 0 1 5.78-2c3.61 0 5.45 1.65 7.07 3.1a7.69 7.69 0 0 0 3.78 2.27v-55.85a19.42 19.42 0 0 0 -16-19.13 1.4 1.4 0 0 1 -1.16-1.38v-56.78a1.41 1.41 0 0 1 1.41-1.41h11.23v-6.71a1.41 1.41 0 0 1 1.41-1.41h12.65a1.41 1.41 0 0 1 1.44 1.41v302.46a1.4 1.4 0 0 1 -1.44 1.4zm-23.9-2.81h22.49v-299.64h-9.84v6.71a1.4 1.4 0 0 1 -1.4 1.4h-11.25v54.23a22.22 22.22 0 0 1 17.17 21.66v57.4a1.41 1.41 0 0 1 -1.4 1.41c-3.61 0-5.45-1.66-7.07-3.11s-2.66-2.39-5.19-2.39a5.93 5.93 0 0 0 -3.51 1z"></path>
    <path d="m235.29 480.56h-49.84a1.41 1.41 0 0 1 -1.41-1.41v-226.6a1.41 1.41 0 0 1 1.41-1.4h48.67a1.4 1.4 0 0 1 .36 2.76c-9.62 2.51-16.6 11.86-16.6 22.25v53.12a7.73 7.73 0 0 0 3.77-2.27c1.63-1.45 3.47-3.1 7.07-3.1s5.46 1.65 7.09 3.12l.41.36a1.39 1.39 0 0 1 .47 1.05v150.71a1.41 1.41 0 0 1 -1.4 1.41zm-48.43-2.81h47v-148.68c-1.47-1.32-2.65-2.35-5.16-2.35s-3.7 1-5.18 2.39-3.47 3.11-7.07 3.11a1.41 1.41 0 0 1 -1.4-1.41v-54.65a26.3 26.3 0 0 1 12.27-22.16h-40.46z"></path>
    <path d="m321.8 480.56h-86.51a1.41 1.41 0 0 1 -1.41-1.41v-150.71a1.41 1.41 0 0 1 2.34-1.05 6.4 6.4 0 0 0 4.74 2c2.53 0 3.7-1 5.19-2.38s3.46-3.11 7.06-3.11 5.44 1.65 7.07 3.1 2.66 2.39 5.18 2.39 3.7-1 5.18-2.39c1.63-1.45 3.47-3.1 7.07-3.1s5.44 1.65 7.06 3.1 2.66 2.39 5.18 2.39 3.7-1 5.19-2.39 3.46-3.1 7.06-3.1 5.44 1.65 7.07 3.1 2.66 2.39 5.18 2.39 3.7-1 5.19-2.39c.42-.37.84-.75 1.29-1.11a1.41 1.41 0 0 1 1.49-.15 1.4 1.4 0 0 1 .79 1.26v152.15a1.41 1.41 0 0 1 -1.41 1.41zm-85.11-2.81h83.71v-147.67a8.84 8.84 0 0 1 -5.95 2.14c-3.6 0-5.44-1.66-7.07-3.11s-2.65-2.39-5.18-2.39-3.69 1-5.18 2.39-3.46 3.11-7.07 3.11-5.44-1.66-7.06-3.11-2.66-2.39-5.18-2.39-3.7 1-5.18 2.39-3.47 3.11-7.07 3.11-5.44-1.66-7.06-3.11-2.66-2.39-5.19-2.39-3.69 1-5.18 2.39-3.47 3.11-7.07 3.11a8.79 8.79 0 0 1 -4.27-1z"></path>
    <path d="m331.53 480.61h-9.73a1.41 1.41 0 0 1 -1.4-1.41v-152.2a1.39 1.39 0 0 1 .54-1.11 9.38 9.38 0 0 1 11.44-.05 1.41 1.41 0 0 1 .55 1.12v152.24a1.41 1.41 0 0 1 -1.4 1.41zm-8.32-2.81h6.91v-150.13a6.64 6.64 0 0 0 -6.91 0z"></path>
    <path d="m436.36 413.3h-14a1.4 1.4 0 0 1 -1.4-1.4v-29.9a1.4 1.4 0 0 1 1.4-1.4h14a1.41 1.41 0 0 1 1.41 1.4v29.9a1.41 1.41 0 0 1 -1.41 1.4zm-12.56-2.81h11.2v-27.1h-11.2z"></path>
  </g>
</svg>
