<?xml version="1.0" encoding="UTF-8"?>
<svg xmlns="http://www.w3.org/2000/svg" id="Layer_1" data-name="Layer 1" viewBox="0 0 600 600">
  <defs>
    <style>.cls-1,.cls-11{fill:#fff;}.cls-2,.cls-6,.cls-9{fill:#ffde00;}.cls-3,.cls-8{fill:#00ab81;}.cls-10,.cls-4,.cls-7{fill:#fb715d;}.cls-5{fill:#1c19a8;}.cls-6,.cls-7{fill-rule:evenodd;}.cls-10,.cls-11,.cls-8,.cls-9{stroke:#1c19a8;stroke-linejoin:round;stroke-width:2.82px;}</style>
  </defs>
  <title>Shops_Gather</title>
  <rect class="cls-1" x="76.72" y="203.66" width="453.06" height="195.06"></rect>
  <rect class="cls-2" x="418.76" y="352.9" width="6.26" height="31.8"></rect>
  <path class="cls-2" d="M411.86,339.1v-5.55H405.6v6.81A22.19,22.19,0,0,1,411.86,339.1Z"></path>
  <path class="cls-2" d="M405.6,344.14V384.7h6.26V345.07A30.83,30.83,0,0,0,405.6,344.14Z"></path>
  <path class="cls-3" d="M405.6,353a17.47,17.47,0,0,0-4.61-4,12.62,12.62,0,0,0-11.67-.86,16.77,16.77,0,0,1,9,9.75A26.27,26.27,0,0,0,374.85,356a24.83,24.83,0,0,1,18.22,5.82A27.28,27.28,0,0,0,377,371.5c5.66-1.05,11.36-2.1,17.1-1.8a27.47,27.47,0,0,1,11.55,3.11Z"></path>
  <path class="cls-3" d="M425,370.31a10.24,10.24,0,0,1,2.66-2.3,7.29,7.29,0,0,1,6.72-.49,9.6,9.6,0,0,0-5.16,5.62A15.14,15.14,0,0,1,442.75,372a14.36,14.36,0,0,0-10.51,3.35,15.79,15.79,0,0,1,9.3,5.58,42.7,42.7,0,0,0-9.86-1,15.68,15.68,0,0,0-6.66,1.8Z"></path>
  <path class="cls-3" d="M431,339.84h-1.17c.44-.3.88-.6,1.33-.89l9.14-6c-2.09-1.06-4.55-.94-6.89-.8a13.46,13.46,0,0,0-4.38.78,8.94,8.94,0,0,0-4.22,4.17c-.19.35-.3.73-.46,1.09l0-.47c-1-3.56-4.05-6.23-7.49-7.55a20.68,20.68,0,0,0-5-1.19,13.46,13.46,0,0,1,2.8-2.89,21.32,21.32,0,0,1,7.6-3.45,36.72,36.72,0,0,1,14.42-.87c-3.43-4.49-9.48-6.12-15.12-6.34q-.84,0-1.68,0c.63-.43,1.26-.87,1.9-1.29l13.13-8.65c-3-1.53-6.53-1.35-9.89-1.14a19.2,19.2,0,0,0-6.3,1.11,12.87,12.87,0,0,0-6.05,6c-.25.46-.45.94-.66,1.42l0-.53c-1.37-5.11-5.82-8.95-10.75-10.85s-10.34-2.12-15.62-2.09a17.51,17.51,0,0,1,11.77,3.72c3.23,2.69,6.05,8.76,5.55,12.94a9.69,9.69,0,0,0-2.88-1.38,16.36,16.36,0,0,0-4.94-.39c-6.81.27-14.11,2.23-18.25,7.65a44.58,44.58,0,0,1,17.4,1,25.81,25.81,0,0,1,9.17,4.17c2.69,2,4.46,3.11,5.13,6.42h1.56v-.65a10.41,10.41,0,0,1,1.33-3.24,10.91,10.91,0,0,1,2.79,1.61c2.25,1.87,4.19,6,3.84,9l0,.06a7.1,7.1,0,0,0-2-1,11.4,11.4,0,0,0-3.45-.27c-4.74.19-9.83,1.55-12.71,5.33a31,31,0,0,1,12.12.73,18.07,18.07,0,0,1,6.39,2.9,10.83,10.83,0,0,1,2.62,2.62v2.27h2.2v-1.39a8.33,8.33,0,0,1,3-4.24,15,15,0,0,1,5.29-2.41,25.56,25.56,0,0,1,10-.6C439.18,341.13,435,340,431,339.84Z"></path>
  <polygon class="cls-4" points="431.56 392.1 433.22 383.75 392.6 383.75 394.27 392.1 431.56 392.1"></polygon>
  <path class="cls-5" d="M431.56,393.51H394.27a1.4,1.4,0,0,1-1.38-1.13L391.22,384a1.45,1.45,0,0,1,.29-1.17,1.43,1.43,0,0,1,1.09-.51h40.62a1.43,1.43,0,0,1,1.09.51,1.42,1.42,0,0,1,.29,1.17l-1.66,8.35A1.4,1.4,0,0,1,431.56,393.51Zm-36.14-2.81h35l1.11-5.54H394.32Z"></path>
  <path class="cls-5" d="M442.86,370.61c-.12,0-.25,0-.37-.05h0a38.69,38.69,0,0,0-7.9-.53l-1.34,0a14.48,14.48,0,0,1,1.82-1.45,1.42,1.42,0,0,0-.71-2.62,15.59,15.59,0,0,0-7,.8V351.83a1.41,1.41,0,0,0-1.41-1.41h-.08a16.25,16.25,0,0,1,4.09-3.85c3.42-1.93,8.11-1.6,11.92-1.73.84,0,1.49-1.18.75-1.8a20.44,20.44,0,0,0-9.79-4.65,75,75,0,0,1,8.81-4.33c1.05-.45.38-1.89-.54-2-4.7-.37-12-.82-15.51,3-1.69-4.18-6.37-5.79-10.86-7.16,6.81-4.86,14.95-4.93,23.17-4.74a1.07,1.07,0,0,0,.53-2,37.48,37.48,0,0,0-16.74-5.63c4.72-3.07,9.54-6,14.54-8.59a1.06,1.06,0,0,0-.25-1.92c-7.17-1.8-20.06-3.2-23.85,4.31-1.05-3.23-2.08-5.83-5.8-7.62-6.12-2.94-14.14-3.26-20.76-3a1.06,1.06,0,0,0,0,2.11c8.5.13,13.58,5.9,16.09,13.24-9.76-2.68-19.7-.88-25.86,7.88-.58.84.38,1.69,1.2,1.55,6.55-1.09,15.27-.45,21.31,2.19,3.43,1.49,5.24,4.06,7.66,6.31h-.55a1.56,1.56,0,0,0-1.55,1.55v6.72a16.72,16.72,0,0,0-5.83,3.65,1.06,1.06,0,0,0,.74,1.8c1.5,0,3.17-.07,4.87-.05v4.17c-4.56-3.11-9.25-5.31-15-3a1.07,1.07,0,0,0,0,2,12.26,12.26,0,0,1,6.92,6.08c-6.83-3.15-15.49-3.34-22,.66a1.06,1.06,0,0,0,.54,2c5.85.39,11.09,1.45,16.09,4.22-5.64,1.46-10.07,4.95-14.52,8.9a1.06,1.06,0,0,0,1,1.76c8.49-2.12,18.62-2.67,26.95.43v10.46a1.55,1.55,0,0,0,1.55,1.55H413a1.54,1.54,0,0,0,1.55-1.55V347.43a13.33,13.33,0,0,1,4.64,3H418a1.4,1.4,0,0,0-1.4,1.41v31.48a1.4,1.4,0,0,0,1.4,1.41h7.87a1.41,1.41,0,0,0,1.41-1.41v-1.37a34.82,34.82,0,0,1,14.07,1,1.42,1.42,0,0,0,1.37-2.35,21.56,21.56,0,0,0-7.05-5.78,15.59,15.59,0,0,1,6.78-1.46C444,373.37,444.46,370.91,442.86,370.61Zm-64.8-14.78a23.07,23.07,0,0,1,18.9,2.25c1.55,1.33,3,2.77,4.43,4.2-.63-.13-1.28-.24-1.92-.35-2.14-.37-4.29-.65-6.44-.91A34.89,34.89,0,0,0,378.06,355.83Zm25.56,14.79c-7.41-2.53-15.64-2.53-23.39-1.11,3.74-3.07,7.68-5.56,12.79-6.2a1.1,1.1,0,0,0,.4-.17c3.26.3,7.43.56,10.2,2.16Zm0-9.13c-1.55-1.56-3.13-3.11-4.8-4.55-1.57-3.77-3.59-6.81-6.84-8.79,4.36-.57,8.06,1.69,11.64,4.25Zm33.14-27.55a50.46,50.46,0,0,0-7.37,4.14,5.18,5.18,0,0,0-3.12,1.71,14.39,14.39,0,0,0-.09-1.86C427.94,334.4,432.62,333.84,436.76,333.94ZM424,337.28a.16.16,0,0,0,0,.07c.46,2,0,4.29,0,6.29,0,.07,0,.09.06.15-.53,1.43-.94,2.91-1.32,4.24-.34-3.34-1.32-6.54-4.11-8.61a37.53,37.53,0,0,0-4.93-9.64C417.74,331,423.28,332.58,424,337.28Zm-10.38-3.76a34.51,34.51,0,0,1,2.57,5.42c-.86-.06-1.71-.09-2.56-.11v-5.31Zm-1.81-2.78c.36.5.74,1,1.07,1.52a1.49,1.49,0,0,0-.8-.26h-.95A8.49,8.49,0,0,1,411.8,330.74Zm20.88-24.2c-4.95,2.7-9.78,5.57-14.47,8.72a9.57,9.57,0,0,0-4.86,2.41c0-.9,0-1.79,0-2.69a11.56,11.56,0,0,0-.13-2.14C414.51,305.16,426,305.42,432.68,306.54Zm-14.51,10.78c.09,0,.16.1.27.1a35.06,35.06,0,0,1,15.21,3.6c-8,.05-15.57,1.06-22,6.52a1,1,0,0,0-.31.51c-.11,0-.25,0-.32.13a11.17,11.17,0,0,0-.76,1.13C410.78,324.24,413.25,318.38,418.17,317.32Zm-7.65,17.79v3.78a26.54,26.54,0,0,0-3.58.46v-4.24Zm-16.25-34a48,48,0,0,1,5.48.87c5.9,1.33,9.33,5.6,11.34,11a13.47,13.47,0,0,1,.06,3.18c-.08,1.32.12,2.63.09,3.95a17.73,17.73,0,0,0-1.44,2.69c-.88-3.46-2.65-6.95-5.71-8C402.37,308.93,399.1,303.92,394.27,301.12ZM403,325.79a21.23,21.23,0,0,0-7.22-3.21,48.91,48.91,0,0,0-16.64-1.39c6.11-6.82,15.18-7.46,23.81-4.57,3.88.88,5.29,7.42,5.45,10.77,0,0,0,0,0,.07a21.62,21.62,0,0,0-.32,3.62C406.31,329.48,405,327.25,403,325.79Zm8.48,56h-4.77v-36a34,34,0,0,1,4.77.67Zm-9.58-38.21c4.55-2.86,10.06-2.87,15.47-2.42,2.44,1.82,3.11,4.78,3.31,7.74C416.12,344.22,408.5,343.52,401.91,343.55ZM424.5,381.9h-5.05V353.23h5.05Zm5.26-41.77h0a17.73,17.73,0,0,1,9,2.67,26.08,26.08,0,0,0-8.16,1.19,15.3,15.3,0,0,0-5.82,4.55C425.61,345.36,426.85,340.54,429.76,340.13Zm7.61,39.15a38.83,38.83,0,0,0-10.05-.12v-9.31l.08,0a7.76,7.76,0,0,1,3-1,18,18,0,0,0-2.33,2.9c-.73,1.13.78,2.78,1.92,1.93a7.54,7.54,0,0,1,4-1.1,19.56,19.56,0,0,0-1.94,1.09,1.42,1.42,0,0,0,0,2.43A29.22,29.22,0,0,1,437.37,379.28Z"></path>
  <path class="cls-6" d="M222.56,320.8a.45.45,0,0,0-.32.47v2.28a.43.43,0,0,0,.36.47h.1a1.49,1.49,0,0,1-.33.62,4.87,4.87,0,0,1-1,.85,5,5,0,0,0-1.14,1.07,3.38,3.38,0,0,0-.6,1.91h0v10.67a1.86,1.86,0,0,0,1.58,2h8.41a1.86,1.86,0,0,0,1.58-2V328.5h0a3.28,3.28,0,0,0-.59-1.91,5.17,5.17,0,0,0-1.14-1.07,6,6,0,0,1-1-.86,1.55,1.55,0,0,1-.31-.63h.12a.43.43,0,0,0,.36-.47v-2.27a.49.49,0,0,0-.1-.34.33.33,0,0,0-.26-.14h-5.79Z"></path>
  <rect class="cls-2" x="186.47" y="282.1" width="12.1" height="13.61"></rect>
  <rect class="cls-2" x="205.16" y="282.1" width="12.1" height="13.61"></rect>
  <rect class="cls-2" x="201.48" y="366.24" width="12.1" height="13.61"></rect>
  <rect class="cls-2" x="227.3" y="366.24" width="12.1" height="13.61"></rect>
  <path class="cls-6" d="M189.94,320.8a.45.45,0,0,0-.33.47v2.28a.43.43,0,0,0,.37.47h.09a1.6,1.6,0,0,1-.32.62,5,5,0,0,1-1,.85,4.91,4.91,0,0,0-1.13,1.07,3.31,3.31,0,0,0-.6,1.91h0v10.67a1.86,1.86,0,0,0,1.57,2H197a1.86,1.86,0,0,0,1.57-2V328.5h0a3.28,3.28,0,0,0-.59-1.91,5.14,5.14,0,0,0-1.13-1.07,5.62,5.62,0,0,1-1-.86,1.71,1.71,0,0,1-.32-.63h.12a.43.43,0,0,0,.36-.47l0-2.27a.62.62,0,0,0-.1-.34.34.34,0,0,0-.26-.14h-5.79Z"></path>
  <path class="cls-7" d="M221.24,341.18a1.86,1.86,0,0,1-1.57-2V328.48h0a3.31,3.31,0,0,1,.59-1.91,5.16,5.16,0,0,1,1.14-1.07,5.26,5.26,0,0,0,1-.85,1.6,1.6,0,0,0,.32-.62h-.1a.43.43,0,0,1-.36-.47v-2.28a.45.45,0,0,1,.32-.47H227v-.17a6,6,0,0,0-1.07-3.48,9.54,9.54,0,0,0-2.07-2,9.61,9.61,0,0,1-1.77-1.57,2.87,2.87,0,0,1-.58-1.14h.22a.78.78,0,0,0,.66-.85l0-4.16a1,1,0,0,0-.19-.6.59.59,0,0,0-.47-.25H211.19a.78.78,0,0,0-.58.84v4.17a.77.77,0,0,0,.65.85h.18a2.85,2.85,0,0,1-.59,1.13,10.06,10.06,0,0,1-1.78,1.56A8.91,8.91,0,0,0,207,317.1a6.13,6.13,0,0,0-1.09,3.49v19.48c0,2,1.3,3.7,2.87,3.7h15.35a3.07,3.07,0,0,0,2.7-2.59Z"></path>
  <path class="cls-5" d="M229.65,342.28h-8.41a2.94,2.94,0,0,1-2.68-3.13V328.48a4.46,4.46,0,0,1,.81-2.57,6,6,0,0,1,1.37-1.3l.53-.41a1.57,1.57,0,0,1-.13-.65v-2.28a1.51,1.51,0,0,1,1.26-1.55l.16,0h5.79a1.43,1.43,0,0,1,1.13.57,1.63,1.63,0,0,1,.34,1l0,2.29a1.58,1.58,0,0,1-.14.65,4.06,4.06,0,0,0,.51.42,6.1,6.1,0,0,1,1.36,1.31,4.48,4.48,0,0,1,.8,2.54v10.67A2.94,2.94,0,0,1,229.65,342.28Zm-6.31-19.12.18.18a1.11,1.11,0,0,1,.24.94,2.51,2.51,0,0,1-.53,1,5.83,5.83,0,0,1-1.17,1.05,4,4,0,0,0-.9.83,2.25,2.25,0,0,0-.4,1.29v10.66c0,.57.32.93.48.93h8.41c.16,0,.47-.36.47-.93V328.5a2.22,2.22,0,0,0-.37-1.28,4.31,4.31,0,0,0-.91-.84,6.15,6.15,0,0,1-1.17-1.05,2.69,2.69,0,0,1-.52-1.06,1.13,1.13,0,0,1,.2-.94,1.79,1.79,0,0,1,.25-.23v-1.19h-4.27Zm4.26.38h0Zm-5-.62Z"></path>
  <path class="cls-5" d="M224.13,344.87H208.78c-2.19,0-4-2.15-4-4.8V320.61a7.26,7.26,0,0,1,1.3-4.16,10,10,0,0,1,2.3-2.17,9.58,9.58,0,0,0,1.57-1.35,2,2,0,0,1-.47-1.31v-4.17a1.87,1.87,0,0,1,1.53-1.93,1.36,1.36,0,0,1,.35,0h10.37a1.69,1.69,0,0,1,1.34.68,2.08,2.08,0,0,1,.42,1.29l0,4.15A2,2,0,0,1,223,313a9.09,9.09,0,0,0,1.48,1.28,10.7,10.7,0,0,1,2.35,2.25,7.09,7.09,0,0,1,1.28,4.11,1.32,1.32,0,0,1-.32.87,1.17,1.17,0,0,1-.78.42h-3.66v1.25a1,1,0,0,1,.18.18,1.11,1.11,0,0,1,.25.94,2.78,2.78,0,0,1-.53,1,6.86,6.86,0,0,1-1.18,1.06,3.73,3.73,0,0,0-.9.82,2.13,2.13,0,0,0-.39,1.29v10.66c0,.57.31.93.47.93h5.58a1.09,1.09,0,0,1,1.07,1.36A4.11,4.11,0,0,1,224.13,344.87Zm-12.42-33.43a1.17,1.17,0,0,1,.51.35,1.15,1.15,0,0,1,.29.94,3.94,3.94,0,0,1-.8,1.56,11.17,11.17,0,0,1-2,1.75,8.42,8.42,0,0,0-1.84,1.7,5,5,0,0,0-.88,2.87v19.46c0,1.39.83,2.6,1.77,2.6h15.35a1.29,1.29,0,0,0,.88-.39h-3.77a2.94,2.94,0,0,1-2.67-3.13V328.48a4.43,4.43,0,0,1,.8-2.57,6,6,0,0,1,1.37-1.3l.53-.41a1.75,1.75,0,0,1-.13-.65v-2.28a1.52,1.52,0,0,1,1.27-1.55h3.4a4.67,4.67,0,0,0-.77-1.92,8.36,8.36,0,0,0-1.85-1.73,11.13,11.13,0,0,1-2-1.77,3.86,3.86,0,0,1-.78-1.57,1.13,1.13,0,0,1,.21-.94,1.1,1.1,0,0,1,.64-.39l0-3.68h-9.6Zm10.89,11.48h0Zm.74-1.67v0Z"></path>
  <rect class="cls-5" x="158.16" y="379.18" width="86" height="4.48"></rect>
  <path class="cls-5" d="M245.28,384.78H157v-6.71h88.24Zm-85.4-2.22h82.55v-2.27H159.88Z"></path>
  <rect class="cls-5" x="158.16" y="294.97" width="86" height="4.48"></rect>
  <path class="cls-5" d="M245.28,300.57H157v-6.71h88.24Zm-85.4-2.23h82.55v-2.26H159.88Z"></path>
  <rect class="cls-5" x="158.16" y="254.41" width="86" height="4.48"></rect>
  <path class="cls-5" d="M245.28,260H157V253.3h88.24Zm-85.4-2.23h82.55v-2.26H159.88Z"></path>
  <path class="cls-5" d="M199.68,296.82H185.36V281h14.32Zm-12.1-2.23h9.88V283.21h-9.88Z"></path>
  <rect class="cls-4" x="166.82" y="282.1" width="12.1" height="13.61"></rect>
  <path class="cls-5" d="M180,296.82H165.7V281H180Zm-12.1-2.23h9.87V283.21h-9.87Z"></path>
  <path class="cls-5" d="M218.37,296.82H204V281h14.33Zm-12.1-2.23h9.88V283.21h-9.88Z"></path>
  <path class="cls-5" d="M214.7,381H200.37V365.13H214.7Zm-12.1-2.22h9.87V367.36H202.6Z"></path>
  <path class="cls-5" d="M240.52,381H226.19V365.13h14.33Zm-12.1-2.22h9.87V367.36h-9.87Z"></path>
  <path class="cls-5" d="M197,342.28h-8.41a2.94,2.94,0,0,1-2.68-3.13V328.48a4.51,4.51,0,0,1,.81-2.57,6,6,0,0,1,1.36-1.3c.18-.13.37-.27.53-.41a1.75,1.75,0,0,1-.13-.65v-2.28a1.53,1.53,0,0,1,1.27-1.55l.16,0h5.79a1.43,1.43,0,0,1,1.13.57,1.65,1.65,0,0,1,.33,1l0,2.26a1.62,1.62,0,0,1-.13.66c.15.14.31.26.47.39a6.32,6.32,0,0,1,1.4,1.33,4.45,4.45,0,0,1,.79,2.54v10.67A2.94,2.94,0,0,1,197,342.28Zm-6.31-19.12a1.45,1.45,0,0,1,.17.18,1.11,1.11,0,0,1,.25.94,2.51,2.51,0,0,1-.53,1,6.43,6.43,0,0,1-1.18,1.06,3.93,3.93,0,0,0-.9.82,2.2,2.2,0,0,0-.39,1.29v10.66c0,.57.31.93.48.93H197c.16,0,.47-.36.47-.93V328.5a2.23,2.23,0,0,0-.38-1.28,4,4,0,0,0-.91-.84,6,6,0,0,1-1.17-1.06,2.67,2.67,0,0,1-.52-1.06,1.11,1.11,0,0,1,.22-.93,1.31,1.31,0,0,1,.24-.23v-1.19h-4.27Zm4.25.39Zm-5-.63Zm5-1.65h0Zm-4.27,0v0Z"></path>
  <path class="cls-7" d="M165.3,358.82a.43.43,0,0,0-.32.47v2.28a.43.43,0,0,0,.36.47h.09a1.6,1.6,0,0,1-.32.62,5.56,5.56,0,0,1-1,.85,5.12,5.12,0,0,0-1.14,1.06,3.37,3.37,0,0,0-.6,1.92h0v10.67a1.86,1.86,0,0,0,1.58,2h8.41a1.86,1.86,0,0,0,1.57-2V366.52h0a3.36,3.36,0,0,0-.58-1.91,5.17,5.17,0,0,0-1.14-1.07,5.61,5.61,0,0,1-1-.87A1.45,1.45,0,0,1,171,362h.11a.43.43,0,0,0,.37-.47v-2.28a.54.54,0,0,0-.1-.33.33.33,0,0,0-.26-.14H165.3Z"></path>
  <path class="cls-5" d="M172.39,380.29H164a2.93,2.93,0,0,1-2.68-3.12V366.5a4.51,4.51,0,0,1,.81-2.57,6,6,0,0,1,1.36-1.3,5.56,5.56,0,0,0,.54-.42,1.5,1.5,0,0,1-.13-.64v-2.28a1.53,1.53,0,0,1,1.27-1.56h5.94a1.43,1.43,0,0,1,1.13.57,1.65,1.65,0,0,1,.33,1v2.26a1.58,1.58,0,0,1-.14.65,4.63,4.63,0,0,0,.48.4,6.3,6.3,0,0,1,1.39,1.33,4.45,4.45,0,0,1,.79,2.54v10.67A2.93,2.93,0,0,1,172.39,380.29Zm-6.31-19.11a1.45,1.45,0,0,1,.17.18,1.11,1.11,0,0,1,.25.94,2.51,2.51,0,0,1-.53,1,6.05,6.05,0,0,1-1.18,1.05,4.21,4.21,0,0,0-.9.83,2.27,2.27,0,0,0-.39,1.29v10.66c0,.57.32.92.48.92h8.41c.16,0,.47-.35.47-.92V366.52a2.23,2.23,0,0,0-.38-1.28,4.22,4.22,0,0,0-.9-.84,6.36,6.36,0,0,1-1.18-1.06,2.66,2.66,0,0,1-.52-1.07,1.1,1.1,0,0,1,.22-.92,1.31,1.31,0,0,1,.24-.23v-1.2h-4.27Zm4.26.39Zm-5-.64Zm5-1.64h0Zm-4.27,0v0Z"></path>
  <rect class="cls-5" x="158.16" y="341.18" width="86" height="4.48"></rect>
  <path class="cls-5" d="M245.28,346.77H157v-6.71h88.24Zm-85.4-2.22h82.55v-2.26H159.88Z"></path>
  <line class="cls-8" x1="245.28" y1="420.68" x2="245.28" y2="253.3"></line>
  <polygon class="cls-2" points="512.21 277.32 491.15 277.32 495.15 297.39 508.21 297.39 512.21 277.32"></polygon>
  <path class="cls-3" d="M505.38,277.32l3-.85a11.1,11.1,0,0,1,.88-1.8c.67-1.07,1.53-2,2.1-3.15,1.22-2.46.85-5.37.45-8.09L506,267.36l-.09.14a20,20,0,0,0-.46-8.48c-.8-2.69-2.1-5.22-2.69-8s-1.38-5.81-.43-8.55c-2.67,3-3.27,7.39-2.95,11.42.13,1.56.33,3.11.52,4.65l-.82-1.06a21.68,21.68,0,0,1-4.7-15.6c-1.11,5.7-3.35,10.81-1.35,16.27.89,2.42,2.21,6.53,3.26,8.88.07.16.16.32.23.48-.53-.22-1.09-.4-1.64-.59a23.74,23.74,0,0,1-6.58-3.57c.64,2.73,3,4.67,4.46,7.05a11.85,11.85,0,0,1,1.72,6.46h-.09l11,.42"></path>
  <path class="cls-5" d="M509.4,298.85H494l-4.58-23H514Zm-13-2.91H507l3.42-17.16H492.92Z"></path>
  <rect class="cls-5" x="493.44" y="287.36" width="16.48" height="2.91"></rect>
  <path class="cls-5" d="M505.38,278.78h-.06l-11-.43a1.44,1.44,0,0,1-1.4-1.48,1.27,1.27,0,0,1,.09-.47,10.49,10.49,0,0,0-1.52-5.2,22.64,22.64,0,0,0-1.63-2.23,13.44,13.44,0,0,1-3-5.24,1.47,1.47,0,0,1,.62-1.56,1.44,1.44,0,0,1,1.68.07A22.31,22.31,0,0,0,493.9,265c-.45-1.2-.9-2.5-1.32-3.71-.33-1-.65-1.87-.92-2.61-1.69-4.62-.61-9,.43-13.28.3-1.23.61-2.48.86-3.77a1.39,1.39,0,0,1,1.63-1.16,1.45,1.45,0,0,1,1.24,1.58,20.11,20.11,0,0,0,2.05,10.9c-.14-3.53.41-8,3.36-11.41A1.46,1.46,0,0,1,503.7,243c-.74,2.16-.19,4.73.35,7.2l.13.57a30.38,30.38,0,0,0,1.45,4.42c.44,1.13.87,2.27,1.21,3.43a19.45,19.45,0,0,1,.77,5.9l3.34-2.28a1.49,1.49,0,0,1,1.4-.13,1.42,1.42,0,0,1,.86,1.12c.37,2.53.88,6-.59,8.95a16.05,16.05,0,0,1-1.37,2.13c-.27.37-.55.75-.8,1.14a8.73,8.73,0,0,0-.74,1.54,1.42,1.42,0,0,1-1,.89l-3,.85A1.39,1.39,0,0,1,505.38,278.78Zm-9.49-3.28,9.31.36,2.06-.59a11,11,0,0,1,.72-1.36c.29-.46.6-.9.92-1.33a11.91,11.91,0,0,0,1.11-1.71,9,9,0,0,0,.61-4.89l-3.71,2.52a1.52,1.52,0,0,1-1.44.3,1.4,1.4,0,0,1-1-1.5,18.61,18.61,0,0,0-.43-7.87c-.32-1.08-.73-2.14-1.14-3.21a33.17,33.17,0,0,1-1.58-4.85l-.12-.56c-.1-.44-.2-.9-.29-1.36a20.81,20.81,0,0,0-.09,4.36c.11,1.33.27,2.65.44,4l.07.63a1.45,1.45,0,0,1-2.6,1.06l-.81-1.07a22.55,22.55,0,0,1-4-7.52,13.4,13.4,0,0,0,.51,6.81c.27.76.59,1.67.93,2.65.74,2.14,1.58,4.57,2.29,6.13l.21.44a1.46,1.46,0,0,1-1.86,2c-.42-.18-.86-.32-1.3-.48-.77-.26-1.5-.56-2.21-.87a22.55,22.55,0,0,1,1.54,2.13A13.47,13.47,0,0,1,495.89,275.5Z"></path>
  <path class="cls-5" d="M480.9,341.51v21.05a1.41,1.41,0,0,0,1.41,1.4h9.63l-5.72,29.28a1.41,1.41,0,0,0,1.38,1.67H495a1.39,1.39,0,0,0,1.38-1.13L502.2,364h22.39a1.4,1.4,0,0,0,1.4-1.4V341.51a1.41,1.41,0,0,0-1.4-1.41H506.86l3.57-18.23h13.45a1.41,1.41,0,0,0,1.41-1.41v-21a1.41,1.41,0,0,0-1.41-1.4h-8.79l8.74-44.8a1.41,1.41,0,0,0-.21-1.06,1.39,1.39,0,0,0-.9-.59l-7.12-1.39a1.4,1.4,0,0,0-1.65,1.11L504.84,298H491.69a1.4,1.4,0,0,0-1.4,1.4v21a1.41,1.41,0,0,0,1.4,1.41h8.48L496.6,340.1H482.31A1.41,1.41,0,0,0,480.9,341.51Z"></path>
  <rect class="cls-9" x="216.5" y="295.69" width="8.2" height="9.8"></rect>
  <line class="cls-9" x1="220.61" y1="295.69" x2="220.61" y2="211.23"></line>
  <path class="cls-8" d="M208.83,305.49h23.56a7.85,7.85,0,0,1,7.85,7.85v0a0,0,0,0,1,0,0H201a0,0,0,0,1,0,0v0A7.85,7.85,0,0,1,208.83,305.49Z"></path>
  <rect class="cls-9" x="460.66" y="295.69" width="8.2" height="9.8"></rect>
  <line class="cls-9" x1="464.76" y1="295.69" x2="464.76" y2="211.23"></line>
  <path class="cls-8" d="M453,305.49h23.56a7.85,7.85,0,0,1,7.85,7.85v0a0,0,0,0,1,0,0H445.12a0,0,0,0,1,0,0v0A7.85,7.85,0,0,1,453,305.49Z"></path>
  <rect class="cls-9" x="286.94" y="198.38" width="8.98" height="280.96" transform="translate(582.86 677.71) rotate(-180)"></rect>
  <rect class="cls-8" x="148.05" y="402.18" width="138.89" height="73.42" transform="translate(434.99 877.78) rotate(-180)"></rect>
  <rect class="cls-9" x="157.04" y="274.28" width="129.91" height="6.34" transform="translate(443.98 554.89) rotate(-180)"></rect>
  <rect class="cls-9" x="70.69" y="274.28" width="77.36" height="6.34" transform="translate(218.74 554.89) rotate(-180)"></rect>
  <rect class="cls-10" x="148.19" y="392.26" width="138.75" height="9.92" transform="translate(435.14 794.43) rotate(-180)"></rect>
  <rect class="cls-9" x="295.92" y="280.62" width="90.92" height="194.99"></rect>
  <rect class="cls-9" x="525.29" y="198.38" width="8.98" height="280.96"></rect>
  <rect class="cls-9" x="70.69" y="198.38" width="8.98" height="280.96"></rect>
  <rect class="cls-9" x="386.4" y="198.38" width="8.98" height="280.96"></rect>
  <rect class="cls-8" x="65.63" y="475.6" width="472.54" height="15.75"></rect>
  <rect class="cls-8" x="395.38" y="402.18" width="138.89" height="73.42"></rect>
  <rect class="cls-9" x="395.38" y="274.28" width="129.91" height="6.34"></rect>
  <rect class="cls-9" x="295.92" y="274.28" width="90.48" height="6.34"></rect>
  <rect class="cls-10" x="395.38" y="392.26" width="138.75" height="9.92"></rect>
  <rect class="cls-11" x="319.95" y="445" width="42.48" height="9.52"></rect>
  <rect class="cls-10" x="157.04" y="402.18" width="129.91" height="73.42" transform="translate(443.98 877.78) rotate(-180)"></rect>
  <rect class="cls-10" x="395.38" y="402.18" width="138.89" height="73.42"></rect>
  <rect class="cls-10" x="443.12" y="384.45" width="43.42" height="108.89" transform="translate(903.72 -25.94) rotate(90)"></rect>
  <rect class="cls-10" x="200.28" y="390.09" width="43.42" height="97.6" transform="translate(660.88 216.9) rotate(90)"></rect>
  <rect class="cls-11" x="310.62" y="294.12" width="61.16" height="91.85"></rect>
  <rect class="cls-9" x="310.62" y="398.72" width="61.16" height="36.95"></rect>
  <rect class="cls-9" x="79.6" y="280.62" width="60.44" height="194.03"></rect>
  <rect class="cls-9" x="140.04" y="198.38" width="17" height="277.22" transform="translate(297.07 673.98) rotate(-180)"></rect>
  <rect class="cls-11" x="89.37" y="452.61" width="40.66" height="9.52"></rect>
  <rect class="cls-9" x="70.69" y="136.6" width="463.58" height="74.63"></rect>
  <rect class="cls-9" x="112.7" y="388.59" width="17" height="54.98"></rect>
  <rect class="cls-9" x="89.37" y="388.59" width="17" height="54.98"></rect>
  <rect class="cls-9" x="112.7" y="325.93" width="17" height="54.98"></rect>
  <rect class="cls-9" x="89.37" y="325.93" width="17" height="54.98"></rect>
  <rect class="cls-9" x="112.7" y="290.56" width="17" height="22.75"></rect>
  <rect class="cls-9" x="89.37" y="290.56" width="17" height="22.75"></rect>
  <path class="cls-5" d="M102.11,318.71h-1.47v-.92a2.15,2.15,0,0,0,1.14-.24,1.12,1.12,0,0,0,.45-.79h1.17v6.06h-1.29Z"></path>
  <path class="cls-5" d="M108.92,318.35a1.93,1.93,0,0,1-.19.9,2,2,0,0,1-.51.64,5.88,5.88,0,0,1-.83.57,7,7,0,0,0-.84.54,1.57,1.57,0,0,0-.39.38.85.85,0,0,0-.12.38h3v1.06h-4.58s0-.11,0-.19a3.43,3.43,0,0,1,.15-1.08,2.23,2.23,0,0,1,.52-.86,4.87,4.87,0,0,1,1.08-.8,7,7,0,0,0,.77-.5,1.49,1.49,0,0,0,.43-.44,1.1,1.1,0,0,0,.14-.55.69.69,0,0,0-.21-.52.79.79,0,0,0-.57-.2c-.6,0-.91.33-.92,1h-1.31a2,2,0,0,1,.62-1.52,2.31,2.31,0,0,1,1.61-.53,2.41,2.41,0,0,1,1.55.47A1.53,1.53,0,0,1,108.92,318.35Z"></path>
  <path class="cls-5" d="M110.75,318.71h-1.47v-.92a2.09,2.09,0,0,0,1.13-.24,1.1,1.1,0,0,0,.46-.79H112v6.06h-1.29Z"></path>
  <path class="cls-5" d="M114.15,322.82h-1.39l2.23-6.41h1.78l2.22,6.41h-1.38l-.5-1.56h-2.46Zm1.74-5.62h0c-.22.84-.46,1.67-.72,2.5l-.14.42h1.74l-.13-.42C116.32,318.76,116.08,317.93,115.89,317.2Z"></path>
  <rect class="cls-9" x="153.47" y="151.64" width="8.61" height="63.62"></rect>
  <circle class="cls-9" cx="157.77" cy="151.84" r="4.3"></circle>
  <path class="cls-5" d="M356.6,183.17c2.21.21,4.32-.2,6.44.11-.06-.19-.12-.27-.2-.3-1.79-.67-1.93-.85-1.94-2.78,0-2.32,0-4.64,0-6.95a17.14,17.14,0,0,0-.17-3.28,3.93,3.93,0,0,0-3.55-3.41c-3.26-.49-5.53,1.1-7.45,3.47a2.75,2.75,0,0,0,.86-.57,8.09,8.09,0,0,1,2.87-1.55c3-.88,5.16.54,5.53,3.61a57.56,57.56,0,0,1,.12,8.2C359.07,181.35,359.05,183.1,356.6,183.17Z"></path>
  <path class="cls-5" d="M325.87,164.46a4.1,4.1,0,0,1-3.49,3c1.86,1,1.86,1,1.86,3.16v1.83q0,4,0,7.92a3,3,0,0,0,1.71,3,6.84,6.84,0,0,0,6.81-1.41,6.5,6.5,0,0,1-3.24.64c-2.19,0-3.31-1-3.35-3.24-.07-3.41,0-6.82,0-10.23,0-.77.34-1.14,1.12-1.06l4,.43c.39.05.79.14,1.05-.26a.85.85,0,0,0,0-.92c-.23-.42-.64-.35-1-.3a33.46,33.46,0,0,1-4.13.3c-.74,0-1-.32-1.07-1A3.83,3.83,0,0,0,325.87,164.46Z"></path>
  <path class="cls-5" d="M349.31,168.52V154c0-.36,0-.71,0-1.06s-.27-.7-.7-.49a45,45,0,0,0-4.43,2.25c.42.17.66-.06.92-.13,1.25-.36,1.87,0,2.23,1.24a7.73,7.73,0,0,1,.13,2.3q0,11.1,0,22.2c0,2-.34,2.33-2.26,2.66-.11,0-.27,0-.25.31,2.31.08,4.61-.32,7.15.07a1.57,1.57,0,0,0-1.18-.52,1.56,1.56,0,0,1-1.46-1.43,9,9,0,0,1-.11-1.15c0-2.9,0-5.8,0-8.69a2.73,2.73,0,0,1,.39-1.56A1.82,1.82,0,0,1,349.31,168.52Z"></path>
  <path class="cls-5" d="M349.7,170h0l0,0h0Z"></path>
  <path class="cls-5" d="M407,181a22.36,22.36,0,0,1-.11-3.66c0-2.12-.05-4.25.09-6.37a9.94,9.94,0,0,0-.49-3.49c-.17-.54-.6-1-1.27-.69a16.72,16.72,0,0,0-4,2.13c.21,0,.43-.07.65-.13,2.49-.65,3.14-.16,3.22,2.44v.19c0,2.67,0,5.35,0,8a16.25,16.25,0,0,1-.23,2.2,1.33,1.33,0,0,1-1.26,1.25c-.34,0-.73,0-1,.44,2.76-.25,5.5.12,8.25-.08-.71-.2-1.42-.27-2.13-.41C407.58,182.57,407.21,182.17,407,181Z"></path>
  <path class="cls-5" d="M413.81,167.19a3,3,0,0,0-1.69-.62c-1.71-.11-2.65,1.06-3.63,2.16a2.74,2.74,0,0,1,3.66-.13,2.66,2.66,0,0,0,.78.37,1,1,0,0,0,1.23-.52A.9.9,0,0,0,413.81,167.19Z"></path>
  <path class="cls-5" d="M285.16,186.92a3.38,3.38,0,0,0-2.86-3.78,16.46,16.46,0,0,0-4.88-.45c-1.88-.11-3.42,0-4.86-.58a2,2,0,0,1-1.21-2.6,2.47,2.47,0,0,1,2.51-2.15,11.17,11.17,0,0,0,2.88.18,6.11,6.11,0,0,0,5.06-2.92,5.17,5.17,0,0,0-.22-5.59c-.46-.75-.35-.93.53-1a6.44,6.44,0,0,1,2,.22c.37.09.77.27,1.05-.17a1,1,0,0,0,0-1.1c-.24-.46-.68-.43-1.1-.36a10.57,10.57,0,0,0-2.57.83,1.8,1.8,0,0,1-1.66,0,8.07,8.07,0,0,0-7.42.07,5.11,5.11,0,0,0-2.85,4.77,5,5,0,0,0,2,4c.71.51.87.91.07,1.53a9.25,9.25,0,0,0-1.49,1.63,2.81,2.81,0,0,0,1.53,4.67c.27.05.64.08.67.45s-.27.5-.5.65a8.63,8.63,0,0,0-2.09,2.13,5.22,5.22,0,0,0-1.3,4.11,4.49,4.49,0,0,0,3.84,3.71,11.26,11.26,0,0,0,10-2.58A7.1,7.1,0,0,0,285.16,186.92Zm-13.07-18c.87-2,3.56-2.6,5.63-1.32,1.89,1.18,2.65,3,2.65,5.69a3.62,3.62,0,0,1-2.18,3.6,4.6,4.6,0,0,1-4.91-1.31A6.63,6.63,0,0,1,272.09,169Zm6.2,25.11a11.63,11.63,0,0,1-4.4,0,4.75,4.75,0,0,1-2.51-7.61,4.67,4.67,0,0,1,4.75-1.92,37.59,37.59,0,0,1,3.82.16c3.24.39,4.64,3,3.14,6A6.11,6.11,0,0,1,278.29,194.07Z"></path>
  <path class="cls-5" d="M310.41,181.52c-2.51.61-3.21.09-3.36-2.49a2.81,2.81,0,0,1,0-.29c0-2.28-.1-4.57.11-6.85a8.73,8.73,0,0,0-.36-3.25,2.65,2.65,0,0,0-2.47-2.1,10,10,0,0,0-7,2.46,2.16,2.16,0,0,0-.82,1.17c-.15.57-.12,1.14.49,1.42a1.13,1.13,0,0,0,1.5-.5,4.21,4.21,0,0,0,.46-1.36,3.54,3.54,0,0,1,3.36-2.68c1.54.08,2.5,1.06,2.84,2.91a25.34,25.34,0,0,1,.16,4.44,1.46,1.46,0,0,1-.6,1,8,8,0,0,0-2.74.84,14.51,14.51,0,0,0-4.45,2.05,2.84,2.84,0,0,0,1.64,5.24,7.37,7.37,0,0,0,4.34-1.65c1.52-1,1.54-1,2.22.68.22.54.52,1,1.2.9a15.84,15.84,0,0,0,4-2.09ZM305.28,180a.85.85,0,0,1-.48.79,25.94,25.94,0,0,1-2.84,1.42,2.54,2.54,0,1,1-2-4.66c1-.49,2-.87,3-1.27a6.51,6.51,0,0,0,1.73-.81h0a.74.74,0,0,1,.59.78C305.29,177.48,305.29,178.73,305.28,180Z"></path>
  <path class="cls-5" d="M384.81,166.57a9.13,9.13,0,0,0-7.5,15.07c2,2.29,6.23,2.89,9.3,1.27a3.84,3.84,0,0,0,1.53-1.1c-.51-.16-.75.12-1,.23-2.52,1-5,1-7.08-.89-2.45-2.16-2.77-5.1-2.59-8.15a.68.68,0,0,1,.72-.64l.87,0,8.31,0c.63,0,1.3-.06,1.34-.9C388.8,168.85,387.41,166.76,384.81,166.57Zm1.55,4.67c0,.45-.35.61-.72.63s-.84,0-1.25,0c-1.86.08-3.73.12-5.59.1-1,0-1.34-.4-1-1.32,1-2.33,2.67-4,5.83-3.38A3.74,3.74,0,0,1,386.36,171.24Z"></path>
  <path class="cls-5" d="M487.48,171.56h-2.42v-1.12a3.3,3.3,0,0,0,1.87-.41,2,2,0,0,0,.76-1.39h1.25v10.78h-1.46Z"></path>
  <path class="cls-5" d="M498,169.84a2.88,2.88,0,0,1,.43,1.58A3.14,3.14,0,0,1,498,173a3.79,3.79,0,0,1-1,1.15,16.42,16.42,0,0,1-1.63,1.08,11.18,11.18,0,0,0-1.62,1.09,3.07,3.07,0,0,0-.76.9,2.31,2.31,0,0,0-.23,1h5.83v1.26h-7.44a2.33,2.33,0,0,1,0-.32,5.8,5.8,0,0,1,.25-1.84,3.72,3.72,0,0,1,.93-1.46,10.06,10.06,0,0,1,2-1.47c.63-.37,1.11-.68,1.45-.93a2.85,2.85,0,0,0,.76-.84,2.08,2.08,0,0,0,.28-1.11,1.7,1.7,0,0,0-.52-1.27,2,2,0,0,0-1.4-.49c-1.32,0-2,.71-2.1,2.12h-1.51a3.46,3.46,0,0,1,1-2.5,3.62,3.62,0,0,1,2.58-.9,4.11,4.11,0,0,1,1.8.38A2.89,2.89,0,0,1,498,169.84Z"></path>
  <path class="cls-5" d="M501.62,171.56h-2.41v-1.12a3.29,3.29,0,0,0,1.86-.41,2,2,0,0,0,.76-1.39h1.25v10.78h-1.46Z"></path>
</svg>
