<?xml version="1.0" encoding="UTF-8"?>
<svg xmlns="http://www.w3.org/2000/svg" id="Layer_1" data-name="Layer 1" viewBox="0 0 600 600">
  <defs>
    <style>.cls-1{fill:#fff;}.cls-1,.cls-5,.cls-6,.cls-7{stroke:#1c19a8;stroke-linejoin:round;stroke-width:2.82px;}.cls-2{fill:#1c19a8;}.cls-3,.cls-7{fill:#ffde00;}.cls-4,.cls-5{fill:#00ab81;}.cls-6{fill:#fb715d;}</style>
  </defs>
  <title>Shops_JarrMarket</title>
  <rect class="cls-1" x="183.41" y="177.36" width="243.06" height="205.47"></rect>
  <path class="cls-2" d="M230,320.59H214.72l-3.8-19.43h9a1.5,1.5,0,0,0,1.5-1.49V277.24a1.5,1.5,0,0,0-1.5-1.5H206L196.24,226a1.5,1.5,0,0,0-1.76-1.18l-7.59,1.48a1.5,1.5,0,0,0-.95.64,1.48,1.48,0,0,0-.23,1.12L195,275.74h-9.37a1.5,1.5,0,0,0-1.49,1.5v22.43a1.49,1.49,0,0,0,1.49,1.49H200l3.8,19.43H184.91a1.5,1.5,0,0,0-1.5,1.5v22.43a1.5,1.5,0,0,0,1.5,1.5h23.85L215,377.78a1.48,1.48,0,0,0,1.47,1.21h7.87a1.52,1.52,0,0,0,1.16-.54,1.5,1.5,0,0,0,.31-1.24L219.69,346H230a1.5,1.5,0,0,0,1.5-1.5V322.09A1.5,1.5,0,0,0,230,320.59Z"></path>
  <polygon class="cls-3" points="298.1 366.73 266.6 366.73 272.59 396.76 292.12 396.76 298.1 366.73"></polygon>
  <path class="cls-4" d="M293.42,364.86a11,11,0,0,0,1.14-1.51c.38-.62.81-1.2,1.24-1.79a20.56,20.56,0,0,0,1.95-3c2-4.11,1.35-8.89.78-12.74a1.07,1.07,0,0,0-.64-.84,1.1,1.1,0,0,0-.44-.07c.05-.37.09-.73.13-1.09a64.61,64.61,0,0,0,.16-11l-.15-1.89c-.38-4.55-.77-9.25,1.58-12.8a1.09,1.09,0,0,0-1.78-1.26,27.09,27.09,0,0,0-3.67,5.81c-1.32,3.15-1.42,6.55-1.53,9.84,0,.75-.05,1.5-.09,2.24a27.14,27.14,0,0,1-1.05-7.6,27.83,27.83,0,0,1,.63-3.36c.17-.77.34-1.54.47-2.32.83-4.75.17-9.54-.46-14.18a58.6,58.6,0,0,1-.81-10.55,1.1,1.1,0,0,0-.92-1.13,1.12,1.12,0,0,0-1.23.77c-1.19,4.08-1.19,8.34-1.19,12.46a56.82,56.82,0,0,1-.54,9.42,59.22,59.22,0,0,1-1.45,5.8c-.5,1.72-1,3.47-1.35,5.24-.2-.67-.43-1.34-.57-2a22.61,22.61,0,0,1,.73-12.2A1.1,1.1,0,0,0,282.5,314c-4.63,5.27-5.1,12.64-4.67,17.88.08,1,.19,2,.29,3a31.21,31.21,0,0,1-5.6-20.92,1.09,1.09,0,0,0-.93-1.18,1.07,1.07,0,0,0-1.23.87c-2.05,10.58-1.77,19.2.84,26.33a64,64,0,0,0,3,6.61c.65,1.3,1.31,2.6,1.9,3.93l.3.67.41.9a16.72,16.72,0,0,0-3.6-1.58l-.66-.23A34.77,34.77,0,0,1,263,345a1.08,1.08,0,0,0-1.26-.05,1.1,1.1,0,0,0-.47,1.17c.69,2.89,2.51,5.18,4.28,7.41a34.53,34.53,0,0,1,2.52,3.45,16.55,16.55,0,0,1,2.42,9h22.35Z"></path>
  <path class="cls-2" d="M297,362.42a22.39,22.39,0,0,0,2.08-3.23c2.25-4.52,1.51-9.55.92-13.6a2.56,2.56,0,0,0-1-1.64h0a65.46,65.46,0,0,0,.16-11.29l-.14-1.9c-.36-4.3-.73-8.74,1.34-11.87a2.55,2.55,0,0,0-4.15-2.95c-.8,1-1.6,2.11-2.34,3.26a56.66,56.66,0,0,0-.76-12.16,57.88,57.88,0,0,1-.8-10.28,2.55,2.55,0,0,0-5-.82c-1.25,4.27-1.25,8.64-1.25,12.91a54.81,54.81,0,0,1-.52,9.11c-.24,1.36-.6,2.76-1,4.16a21,21,0,0,1,1.16-6.6A2.55,2.55,0,0,0,281.4,313c-4,4.56-5.11,10.49-5.15,15.52A29.34,29.34,0,0,1,274,314a2.55,2.55,0,0,0-5-.73c-2.09,10.84-1.79,19.71.91,27.11a66.17,66.17,0,0,0,3.12,6.86c.31.62.62,1.23.92,1.85l-.19-.07-.65-.22a33,33,0,0,1-9.15-5,2.56,2.56,0,0,0-4,2.62c.76,3.21,2.69,5.64,4.56,8a35.58,35.58,0,0,1,2.42,3.3,15.17,15.17,0,0,1,2.19,7.86H266.6a1.08,1.08,0,0,0-.84.4,1.11,1.11,0,0,0-.23.91l6,30a1.11,1.11,0,0,0,1.08.88h19.52a1.11,1.11,0,0,0,1.08-.88l6-30A1.1,1.1,0,0,0,299,366a1.11,1.11,0,0,0-.85-.4h-3.43a12.55,12.55,0,0,0,1.12-1.52C296.15,363.55,296.54,363,297,362.42Zm-5.75,33.25H273.48L271.36,385h22Zm2.56-12.84H270.92l-.56-2.82h24Zm1-5H269.93l-2-10h28.84Zm-2.24-31.71a48.91,48.91,0,0,0,1-11.12,1,1,0,0,0,.05-.23c0-.75.07-1.5.1-2.27.09-3.15.2-6.41,1.41-9.31a17,17,0,0,1,1.39-2.59c-.91,3.25-.61,6.86-.32,10.38l.15,1.88a64.75,64.75,0,0,1-.15,10.79l-.12,1.06a1.2,1.2,0,0,0,0,.33c-1.54,1.76-3.19,3.4-4.75,5.13A32.78,32.78,0,0,0,292.53,346.12Zm4.82,1.8c.42,3.24.62,6.89-.91,10a20.16,20.16,0,0,1-1.85,2.86c-.44.6-.88,1.2-1.27,1.83a10.29,10.29,0,0,1-1,1.34,1,1,0,0,0-.19.27l-.18.33h-5.12a30.25,30.25,0,0,1,4.31-9.61A66.54,66.54,0,0,1,297.35,347.92ZM287,324.38a42.26,42.26,0,0,0,2-15.59,58.19,58.19,0,0,1,.45-8.85c.12,2.52.47,5,.81,7.53.61,4.52,1.25,9.19.46,13.71-.12.75-.29,1.49-.46,2.23a30.15,30.15,0,0,0-.65,3.55,28,28,0,0,0,1,7.61c-.05,5.11-.33,10.1-2.19,15.08-.89,2.4-1.89,4.64-2.79,6.91a60.56,60.56,0,0,0-.58-7.05,1.51,1.51,0,0,0,.61-.3c6-4.88,2.77-13.87.11-20.12C286.06,327.57,286.47,326.06,287,324.38Zm-4.54-7.93a24.11,24.11,0,0,0-.21,11.08c0,.18.1.35.14.52a1.51,1.51,0,0,0,.11.74l.28.64.07.24a1.42,1.42,0,0,0,.23.44c2.08,4.78,5,12,1.41,16.19a35.55,35.55,0,0,0-4.9-11.94l0-.19c-.09-.81-.18-1.63-.24-2.45C278.92,327.25,279.22,321.18,282.41,316.45Zm-9.84,22.95c-2.1-5.73-2.63-12.5-1.59-20.56a32.37,32.37,0,0,0,4.72,14.77,1.31,1.31,0,0,0,.25.56c5.56,7.57,6.79,16,6.76,24.9a15.13,15.13,0,0,0-4.82-8.2l-.46-1c-.59-1.3-1.23-2.59-1.93-4A61.84,61.84,0,0,1,272.57,339.4Zm-5.89,13.26a21.56,21.56,0,0,1-3.69-5.81,36,36,0,0,0,9.08,4.73l.67.23a16,16,0,0,1,3.29,1.43c.07.05.17,0,.25.07,2.94,2.46,4.21,7.54,4.16,11.21h-8.52a18.16,18.16,0,0,0-2.61-8.26A36.82,36.82,0,0,0,266.68,352.66Z"></path>
  <rect class="cls-5" x="318.71" y="249.48" width="102.37" height="204.51"></rect>
  <rect class="cls-6" x="150.86" y="475.6" width="298.27" height="15.75"></rect>
  <rect class="cls-1" x="346.05" y="389.39" width="47.83" height="13.03"></rect>
  <rect class="cls-1" x="324.71" y="255.88" width="89.88" height="122.39"></rect>
  <rect class="cls-5" x="335.25" y="412.49" width="68.87" height="28.93"></rect>
  <rect class="cls-5" x="162.58" y="126.6" width="281.78" height="11.01"></rect>
  <rect class="cls-7" x="174.58" y="137.61" width="257.77" height="51.58"></rect>
  <rect class="cls-6" x="420.59" y="189.33" width="11.76" height="286.27"></rect>
  <rect class="cls-6" x="306.95" y="189.33" width="11.76" height="286.27"></rect>
  <rect class="cls-6" x="174.58" y="189.33" width="11.76" height="286.27"></rect>
  <rect class="cls-5" x="306.95" y="453.99" width="125.4" height="21.62"></rect>
  <circle class="cls-6" cx="393.3" cy="310.47" r="7.78"></circle>
  <circle class="cls-6" cx="385.52" cy="290.51" r="7.78"></circle>
  <circle class="cls-6" cx="365.1" cy="272.83" r="7.78"></circle>
  <path class="cls-6" d="M401.08,259.34a7.78,7.78,0,1,1-15.56,0,7.69,7.69,0,0,1,.7-3.22h14.16A7.69,7.69,0,0,1,401.08,259.34Z"></path>
  <rect class="cls-6" x="318.71" y="189.33" width="101.88" height="59.94"></rect>
  <rect class="cls-1" x="345.68" y="174.36" width="47.94" height="89.88" transform="translate(588.95 -150.35) rotate(90)"></rect>
  <circle class="cls-6" cx="392.28" cy="230.53" r="7.78"></circle>
  <circle class="cls-6" cx="374.6" cy="212.47" r="7.78"></circle>
  <circle class="cls-6" cx="400.06" cy="208.31" r="7.78"></circle>
  <path class="cls-6" d="M342.63,195.33a7.78,7.78,0,1,0,15.56,0Z"></path>
  <path class="cls-6" d="M375.68,243.28a7.78,7.78,0,1,0-14.4,0Z"></path>
  <rect class="cls-5" x="186.34" y="378.27" width="120.61" height="97.34"></rect>
  <rect class="cls-5" x="181.52" y="378.27" width="131.3" height="7.97"></rect>
  <path class="cls-2" d="M298.47,168.21,297.14,165h-7.35l-1.33,3.18h-3l6.6-15.05h3l6.51,15.05Zm-7.65-5.65h5.29l-2.63-6.32Z"></path>
  <path class="cls-2" d="M271.7,158.25h2.54v1.91s.21,3.14,4.1,2.42a2.57,2.57,0,0,0,1.47-.69,2.31,2.31,0,0,0,.53-1.62V152H277.8v-2.56h5.44v10.89a4.82,4.82,0,0,1-1.29,3.58,5.18,5.18,0,0,1-3.53,1.28S271.21,166.15,271.7,158.25Z"></path>
  <path class="cls-2" d="M315,164.87l-2.6-4.45a3.73,3.73,0,0,1-.54,0h-3.39v4.43h-2.88v-15h6.27a6.79,6.79,0,0,1,4.52,1.35,4.75,4.75,0,0,1,1.59,3.83,5.68,5.68,0,0,1-.77,3,4.72,4.72,0,0,1-2.22,1.87l3.31,5Zm-6.53-7h3.39a3.88,3.88,0,0,0,2.5-.71,2.59,2.59,0,0,0,.86-2.11,2.5,2.5,0,0,0-.86-2.06,3.94,3.94,0,0,0-2.5-.69h-3.39Z"></path>
  <path class="cls-2" d="M332,167.9l-2.6-4.45-.54,0h-3.39v4.43h-2.88V152.85h6.27a6.77,6.77,0,0,1,4.51,1.36,4.75,4.75,0,0,1,1.59,3.82,5.63,5.63,0,0,1-.76,3,4.66,4.66,0,0,1-2.22,1.87l3.31,5Zm-6.53-7h3.39a3.83,3.83,0,0,0,2.49-.7,2.57,2.57,0,0,0,.86-2.11,2.46,2.46,0,0,0-.86-2.06,3.89,3.89,0,0,0-2.49-.69h-3.39Z"></path>
  <path class="cls-2" d="M288.69,173.54h.83l1.27,2.46,1.25-2.46h.84v3.82h-.67v-2.74L291,177h-.47l-1.2-2.34v2.74h-.66Z"></path>
  <path class="cls-2" d="M297.74,177.36l-.34-.81h-1.87l-.33.81h-.76l1.67-3.82h.76l1.66,3.82Zm-1.94-1.44h1.34l-.67-1.6Z"></path>
  <path class="cls-2" d="M302.47,177.36l-.66-1.13h-1v1.13h-.73v-3.82h1.59a1.72,1.72,0,0,1,1.15.34,1.2,1.2,0,0,1,.41,1,1.47,1.47,0,0,1-.2.77,1.18,1.18,0,0,1-.56.47l.84,1.27Zm-1.66-1.77h.86a1,1,0,0,0,.64-.18.68.68,0,0,0,.22-.54.65.65,0,0,0-.22-.52,1,1,0,0,0-.64-.18h-.86Z"></path>
  <path class="cls-2" d="M308.53,177.36h-.88l-1.2-1.64-.6.66v1h-.73v-3.82h.73v1.9l1.73-1.9h.86L307,175.15Z"></path>
  <path class="cls-2" d="M310.18,173.54H313v.63h-2.07v1h1.85v.64h-1.85v1H313v.64h-2.86Z"></path>
  <path class="cls-2" d="M314.45,173.54h3.12v.65h-1.19v3.17h-.74v-3.17h-1.19Z"></path>
</svg>
