<?xml version="1.0" encoding="UTF-8"?>
<svg xmlns="http://www.w3.org/2000/svg" xmlns:xlink="http://www.w3.org/1999/xlink" viewBox="0 0 600 600">
  <clipPath id="a">
    <path d="m216.25 370h271.89v105.33h-271.89z"></path>
  </clipPath>
  <clipPath id="b">
    <path d="m468.03 347.85h25.1v27h-25.1z"></path>
  </clipPath>
  <clipPath id="c">
    <path d="m468.03 374.85h25.1v27h-25.1z"></path>
  </clipPath>
  <clipPath id="d">
    <path d="m468.03 401.85h25.1v27h-25.1z"></path>
  </clipPath>
  <clipPath id="e">
    <path d="m468.03 428.85h25.1v27h-25.1z"></path>
  </clipPath>
  <clipPath id="f">
    <path d="m468.03 455.85h25.1v27h-25.1z"></path>
  </clipPath>
  <clipPath id="g">
    <path d="m442.94 347.85h25.1v27h-25.1z"></path>
  </clipPath>
  <clipPath id="h">
    <path d="m442.94 374.85h25.1v27h-25.1z"></path>
  </clipPath>
  <clipPath id="i">
    <path d="m442.94 401.85h25.1v27h-25.1z"></path>
  </clipPath>
  <clipPath id="j">
    <path d="m442.94 428.85h25.1v27h-25.1z"></path>
  </clipPath>
  <clipPath id="k">
    <path d="m442.94 455.85h25.1v27h-25.1z"></path>
  </clipPath>
  <clipPath id="l">
    <path d="m417.84 347.85h25.1v27h-25.1z"></path>
  </clipPath>
  <clipPath id="m">
    <path d="m417.84 374.85h25.1v27h-25.1z"></path>
  </clipPath>
  <clipPath id="n">
    <path d="m417.84 401.85h25.1v27h-25.1z"></path>
  </clipPath>
  <clipPath id="o">
    <path d="m417.84 428.85h25.1v27h-25.1z"></path>
  </clipPath>
  <clipPath id="p">
    <path d="m417.84 455.85h25.1v27h-25.1z"></path>
  </clipPath>
  <clipPath id="q">
    <path d="m392.75 347.85h25.1v27h-25.1z"></path>
  </clipPath>
  <clipPath id="r">
    <path d="m392.75 374.85h25.1v27h-25.1z"></path>
  </clipPath>
  <clipPath id="s">
    <path d="m392.75 401.85h25.1v27h-25.1z"></path>
  </clipPath>
  <clipPath id="t">
    <path d="m392.75 428.85h25.1v27h-25.1z"></path>
  </clipPath>
  <clipPath id="u">
    <path d="m392.75 455.85h25.1v27h-25.1z"></path>
  </clipPath>
  <clipPath id="v">
    <path d="m367.65 347.85h25.1v27h-25.1z"></path>
  </clipPath>
  <clipPath id="w">
    <path d="m367.65 374.85h25.1v27h-25.1z"></path>
  </clipPath>
  <clipPath id="x">
    <path d="m367.65 401.85h25.1v27h-25.1z"></path>
  </clipPath>
  <clipPath id="y">
    <path d="m367.65 428.85h25.1v27h-25.1z"></path>
  </clipPath>
  <clipPath id="z">
    <path d="m367.65 455.85h25.1v27h-25.1z"></path>
  </clipPath>
  <clipPath id="A">
    <path d="m342.55 347.85h25.1v27h-25.1z"></path>
  </clipPath>
  <clipPath id="B">
    <path d="m342.55 374.85h25.1v27h-25.1z"></path>
  </clipPath>
  <clipPath id="C">
    <path d="m342.55 401.85h25.1v27h-25.1z"></path>
  </clipPath>
  <clipPath id="D">
    <path d="m342.55 428.85h25.1v27h-25.1z"></path>
  </clipPath>
  <clipPath id="E">
    <path d="m342.55 455.85h25.1v27h-25.1z"></path>
  </clipPath>
  <clipPath id="F">
    <path d="m317.46 347.85h25.1v27h-25.1z"></path>
  </clipPath>
  <clipPath id="G">
    <path d="m317.46 374.85h25.1v27h-25.1z"></path>
  </clipPath>
  <clipPath id="H">
    <path d="m317.46 401.85h25.1v27h-25.1z"></path>
  </clipPath>
  <clipPath id="I">
    <path d="m317.46 428.85h25.1v27h-25.1z"></path>
  </clipPath>
  <clipPath id="J">
    <path d="m317.46 455.85h25.1v27h-25.1z"></path>
  </clipPath>
  <clipPath id="K">
    <path d="m292.36 347.85h25.1v27h-25.1z"></path>
  </clipPath>
  <clipPath id="L">
    <path d="m292.36 374.85h25.1v27h-25.1z"></path>
  </clipPath>
  <clipPath id="M">
    <path d="m292.36 401.85h25.1v27h-25.1z"></path>
  </clipPath>
  <clipPath id="N">
    <path d="m292.36 428.85h25.1v27h-25.1z"></path>
  </clipPath>
  <clipPath id="O">
    <path d="m292.36 455.85h25.1v27h-25.1z"></path>
  </clipPath>
  <clipPath id="P">
    <path d="m267.27 347.85h25.1v27h-25.1z"></path>
  </clipPath>
  <clipPath id="Q">
    <path d="m267.27 374.85h25.1v27h-25.1z"></path>
  </clipPath>
  <clipPath id="R">
    <path d="m267.27 401.85h25.1v27h-25.1z"></path>
  </clipPath>
  <clipPath id="S">
    <path d="m267.27 428.85h25.1v27h-25.1z"></path>
  </clipPath>
  <clipPath id="T">
    <path d="m267.27 455.85h25.1v27h-25.1z"></path>
  </clipPath>
  <clipPath id="U">
    <path d="m242.17 347.85h25.1v27h-25.1z"></path>
  </clipPath>
  <clipPath id="V">
    <path d="m242.17 374.85h25.1v27h-25.1z"></path>
  </clipPath>
  <clipPath id="W">
    <path d="m242.17 401.85h25.1v27h-25.1z"></path>
  </clipPath>
  <clipPath id="X">
    <path d="m242.17 428.85h25.1v27h-25.1z"></path>
  </clipPath>
  <clipPath id="Y">
    <path d="m242.17 455.85h25.1v27h-25.1z"></path>
  </clipPath>
  <clipPath id="Z">
    <path d="m217.07 347.85h25.1v27h-25.1z"></path>
  </clipPath>
  <clipPath id="aa">
    <path d="m217.07 374.85h25.1v27h-25.1z"></path>
  </clipPath>
  <clipPath id="ab">
    <path d="m217.07 401.85h25.1v27h-25.1z"></path>
  </clipPath>
  <clipPath id="ac">
    <path d="m217.07 428.85h25.1v27h-25.1z"></path>
  </clipPath>
  <clipPath id="ad">
    <path d="m217.07 455.85h25.1v27h-25.1z"></path>
  </clipPath>
  <clipPath id="ae">
    <path d="m191.98 347.85h25.1v27h-25.1z"></path>
  </clipPath>
  <clipPath id="af">
    <path d="m191.98 374.85h25.1v27h-25.1z"></path>
  </clipPath>
  <clipPath id="ag">
    <path d="m191.98 401.85h25.1v27h-25.1z"></path>
  </clipPath>
  <clipPath id="ah">
    <path d="m191.98 428.85h25.1v27h-25.1z"></path>
  </clipPath>
  <clipPath id="ai">
    <path d="m191.98 455.85h25.1v27h-25.1z"></path>
  </clipPath>
  <path d="m70.8 215.54h424.8v275.72h-424.8z" fill="#fff"></path>
  <path d="m216.25 370.19h63.64v49.59h-63.64z" fill="#ffde00"></path>
  <path d="m285.67 370.19h63.64v49.59h-63.64z" fill="#ffde00"></path>
  <path d="m355.08 370.19h63.64v49.59h-63.64z" fill="#ffde00"></path>
  <path d="m424.5 370.19h63.64v49.59h-63.64z" fill="#ffde00"></path>
  <path d="m216.25 425.74h63.64v49.59h-63.64z" fill="#ffde00"></path>
  <path d="m285.67 425.74h63.64v49.59h-63.64z" fill="#ffde00"></path>
  <path d="m355.08 425.74h63.64v49.59h-63.64z" fill="#ffde00"></path>
  <path d="m424.5 425.74h63.64v49.59h-63.64z" fill="#ffde00"></path>
  <path d="m527.9 277.03h-338.76l27.48-55.15h283.63z" fill="#ffde00"></path>
  <path d="m189.14 284.32h338.76v14.57h-338.76z" fill="#ffde00"></path>
  <path d="m189.14 284.32h.06a3.65 3.65 0 0 1 0-7.29h-.06l5.86-11.82h-116.74v24.79h110.88z" fill="#ffde00"></path>
  <path d="m349.31 298.89h5.77v65.19h-5.77z" fill="#00ab81"></path>
  <path d="m279.9 298.89h5.77v65.19h-5.77z" fill="#00ab81"></path>
  <path d="m418.73 298.89h5.77v65.19h-5.77z" fill="#00ab81"></path>
  <path d="m66.15 221.88h12.11v253.45h-12.11z" fill="#00ab81"></path>
  <path d="m72.21 128.98h421.99v66.24h-421.99z" fill="#00ab81"></path>
  <path d="m66.15 115.96h434.1v12.83h-434.1z" fill="#00ab81"></path>
  <path d="m66.15 475.33h434.1v14.53h-434.1z" fill="#00ab81"></path>
  <path d="m204.15 298.89h12.11v176.44h-12.11z" fill="#00ab81"></path>
  <path d="m488.14 298.89h12.11v176.44h-12.11z" fill="#00ab81"></path>
  <rect fill="#00ab81" height="7.29" rx=".97" width="348.29" x="185.56" y="277.03"></rect>
  <path d="m488.14 419.78h-63.64v-49.78h-5.77v49.78h-63.65v-49.78h-5.77v49.78h-63.64v-49.78h-5.77v49.78h-63.65v5.77h63.65v49.78h5.77v-49.78h63.64v49.78h5.77v-49.78h63.65v49.78h5.77v-49.78h63.64z" fill="#00ab81"></path>
  <path d="m216.25 364.08h271.89v6.11h-271.89z" fill="#00ab81"></path>
  <path d="m66.15 195.22h434.1v26.66h-434.1z" fill="#00ab81"></path>
  <path d="m468.5 339.23a.53.53 0 0 1 .39.56v2.79a.52.52 0 0 1 -.44.57h-.12a2.06 2.06 0 0 0 .4.76 6.61 6.61 0 0 0 1.19 1 6 6 0 0 1 1.38 1.3 4 4 0 0 1 .73 2.33v13a2.25 2.25 0 0 1 -1.92 2.47h-10.26a2.25 2.25 0 0 1 -1.92-2.47v-13a4 4 0 0 1 .71-2.33 6.07 6.07 0 0 1 1.36-1.21 6.58 6.58 0 0 0 1.18-1.05 1.88 1.88 0 0 0 .39-.77h-.15a.52.52 0 0 1 -.44-.57v-2.78a.68.68 0 0 1 .13-.4.4.4 0 0 1 .31-.17h7.07z" fill="#fb715d" fill-rule="evenodd"></path>
  <path d="m404.52 339.23a.53.53 0 0 1 .4.56v2.79a.52.52 0 0 1 -.45.57h-.11a1.9 1.9 0 0 0 .39.76 6.61 6.61 0 0 0 1.19 1 6 6 0 0 1 1.39 1.3 4 4 0 0 1 .73 2.33v13a2.26 2.26 0 0 1 -1.93 2.47h-10.26a2.26 2.26 0 0 1 -1.92-2.47v-13a4 4 0 0 1 .72-2.33 6 6 0 0 1 1.38-1.31 7 7 0 0 0 1.19-1.05 2 2 0 0 0 .38-.77h-.14a.52.52 0 0 1 -.44-.57v-2.78a.68.68 0 0 1 .13-.4.4.4 0 0 1 .32-.17h7.06z" fill="#fb715d" fill-rule="evenodd"></path>
  <path d="m293.34 334.37h20.33v29.36h-20.33z" fill="#fb715d"></path>
  <path d="m244.5 339.5 26.43-11.37v35.6h-26.43z" fill="#fb715d"></path>
  <g fill="#1c19a8">
    <path d="m279.9 421.18h-63.65a1.4 1.4 0 0 1 -1.4-1.4v-49.59a1.41 1.41 0 0 1 1.4-1.41h63.65a1.4 1.4 0 0 1 1.4 1.41v49.59a1.4 1.4 0 0 1 -1.4 1.4zm-62.24-2.81h60.83v-46.78h-60.83z"></path>
    <path d="m349.31 421.18h-63.64a1.41 1.41 0 0 1 -1.41-1.4v-49.59a1.41 1.41 0 0 1 1.41-1.41h63.64a1.41 1.41 0 0 1 1.41 1.41v49.59a1.41 1.41 0 0 1 -1.41 1.4zm-62.23-2.81h60.83v-46.78h-60.83z"></path>
    <path d="m418.73 421.18h-63.65a1.4 1.4 0 0 1 -1.4-1.4v-49.59a1.41 1.41 0 0 1 1.4-1.41h63.65a1.41 1.41 0 0 1 1.4 1.41v49.59a1.4 1.4 0 0 1 -1.4 1.4zm-62.24-2.81h60.83v-46.78h-60.83z"></path>
    <path d="m488.14 421.18h-63.64a1.41 1.41 0 0 1 -1.41-1.4v-49.59a1.41 1.41 0 0 1 1.41-1.41h63.64a1.41 1.41 0 0 1 1.41 1.41v49.59a1.41 1.41 0 0 1 -1.41 1.4zm-62.24-2.81h60.83v-46.78h-60.83z"></path>
    <path d="m279.9 476.73h-63.65a1.4 1.4 0 0 1 -1.4-1.4v-49.59a1.41 1.41 0 0 1 1.4-1.41h63.65a1.4 1.4 0 0 1 1.4 1.41v49.59a1.4 1.4 0 0 1 -1.4 1.4zm-62.24-2.81h60.83v-46.78h-60.83z"></path>
    <path d="m349.31 476.73h-63.64a1.41 1.41 0 0 1 -1.41-1.4v-49.59a1.41 1.41 0 0 1 1.41-1.41h63.64a1.41 1.41 0 0 1 1.41 1.41v49.59a1.41 1.41 0 0 1 -1.41 1.4zm-62.23-2.81h60.83v-46.78h-60.83z"></path>
    <path d="m418.73 476.73h-63.65a1.4 1.4 0 0 1 -1.4-1.4v-49.59a1.41 1.41 0 0 1 1.4-1.41h63.65a1.41 1.41 0 0 1 1.4 1.41v49.59a1.4 1.4 0 0 1 -1.4 1.4zm-62.24-2.81h60.83v-46.78h-60.83z"></path>
    <path d="m488.14 476.73h-63.64a1.41 1.41 0 0 1 -1.41-1.4v-49.59a1.41 1.41 0 0 1 1.41-1.41h63.64a1.41 1.41 0 0 1 1.41 1.41v49.59a1.41 1.41 0 0 1 -1.41 1.4zm-62.24-2.81h60.83v-46.78h-60.83z"></path>
    <path d="m355.08 365.49h-5.77a1.41 1.41 0 0 1 -1.4-1.41v-65.19a1.41 1.41 0 0 1 1.4-1.41h5.77a1.41 1.41 0 0 1 1.41 1.41v65.19a1.41 1.41 0 0 1 -1.41 1.41zm-4.36-2.81h3v-62.38h-3z"></path>
    <path d="m285.67 365.49h-5.77a1.41 1.41 0 0 1 -1.41-1.41v-65.19a1.41 1.41 0 0 1 1.41-1.41h5.77a1.41 1.41 0 0 1 1.41 1.41v65.19a1.41 1.41 0 0 1 -1.41 1.41zm-4.37-2.81h3v-62.38h-3z"></path>
    <path d="m424.5 365.49h-5.77a1.41 1.41 0 0 1 -1.41-1.41v-65.19a1.41 1.41 0 0 1 1.41-1.41h5.77a1.41 1.41 0 0 1 1.4 1.41v65.19a1.41 1.41 0 0 1 -1.4 1.41zm-4.37-2.81h3v-62.38h-3z"></path>
    <path d="m78.26 476.73h-12.11a1.4 1.4 0 0 1 -1.4-1.4v-253.45a1.41 1.41 0 0 1 1.4-1.41h12.11a1.41 1.41 0 0 1 1.41 1.41v253.45a1.41 1.41 0 0 1 -1.41 1.4zm-10.7-2.81h9.29v-250.63h-9.29z"></path>
    <path d="m494.19 196.63h-422a1.41 1.41 0 0 1 -1.41-1.41v-66.22a1.41 1.41 0 0 1 1.41-1.4h422a1.41 1.41 0 0 1 1.41 1.4v66.24a1.41 1.41 0 0 1 -1.41 1.39zm-420.58-2.81h419.18v-63.43h-419.18z"></path>
    <path d="m501.66 130.2h-436.91v-15.65h436.91zm-434.1-2.82h431.29v-10h-431.29z"></path>
    <path d="m501.66 491.26h-436.91v-17.34h436.91zm-434.1-2.81h431.29v-11.72h-431.29z"></path>
    <path d="m500.25 223.29h-434.1a1.41 1.41 0 0 1 -1.4-1.41v-26.66a1.4 1.4 0 0 1 1.4-1.4h434.1a1.41 1.41 0 0 1 1.41 1.4v26.66a1.41 1.41 0 0 1 -1.41 1.41zm-432.69-2.82h431.29v-23.84h-431.29z"></path>
    <path d="m216.25 476.73h-12.11a1.4 1.4 0 0 1 -1.4-1.4v-176.44a1.41 1.41 0 0 1 1.4-1.41h12.11a1.41 1.41 0 0 1 1.41 1.41v176.44a1.41 1.41 0 0 1 -1.41 1.4zm-10.7-2.81h9.3v-173.62h-9.3z"></path>
    <path d="m500.25 476.73h-12.11a1.41 1.41 0 0 1 -1.41-1.4v-176.44a1.41 1.41 0 0 1 1.41-1.41h12.11a1.41 1.41 0 0 1 1.41 1.41v176.44a1.41 1.41 0 0 1 -1.41 1.4zm-10.7-2.81h9.3v-173.62h-9.3z"></path>
    <path d="m488.14 476.73h-271.89a1.4 1.4 0 0 1 -1.4-1.4v-105.33a1.41 1.41 0 0 1 1.4-1.41h271.89a1.41 1.41 0 0 1 1.41 1.41v105.33a1.41 1.41 0 0 1 -1.41 1.4zm-270.48-2.81h269.07v-102.52h-269.07z"></path>
    <path d="m139.8 290.02h2.81v183.23h-2.81z"></path>
    <path d="m133 411.23a1.4 1.4 0 0 1 -1.4-1.4v-33.43a1.41 1.41 0 1 1 2.81 0v33.43a1.41 1.41 0 0 1 -1.41 1.4z"></path>
    <path d="m149.4 411.23a1.4 1.4 0 0 1 -1.4-1.4v-33.43a1.41 1.41 0 1 1 2.81 0v33.43a1.41 1.41 0 0 1 -1.41 1.4z"></path>
    <path d="m527.9 278.44h-338.76a1.43 1.43 0 0 1 -1.2-.67 1.4 1.4 0 0 1 -.06-1.36l27.48-55.16a1.4 1.4 0 0 1 1.26-.78h283.63a1.41 1.41 0 0 1 1.26.78l27.64 55.15a1.39 1.39 0 0 1 -.06 1.37 1.41 1.41 0 0 1 -1.19.67zm-336.49-2.81h334.21l-26.24-52.34h-281.89z"></path>
    <path d="m527.9 300.3h-338.76a1.41 1.41 0 0 1 -1.41-1.41v-14.57a1.41 1.41 0 0 1 1.41-1.41h338.76a1.41 1.41 0 0 1 1.4 1.41v14.57a1.41 1.41 0 0 1 -1.4 1.41zm-337.35-2.82h335.94v-11.75h-335.94z"></path>
    <path d="m530.2 285.73h-341a5.05 5.05 0 1 1 0-10.1h341a5.05 5.05 0 0 1 0 10.1zm-341-7.29a2.24 2.24 0 1 0 0 4.47h341a2.24 2.24 0 1 0 0-4.47z"></path>
    <path d="m470.11 365.49h-10.26a3.64 3.64 0 0 1 -3.33-3.88v-13a5.46 5.46 0 0 1 1-3.16 7.53 7.53 0 0 1 1.67-1.61c.22-.16.42-.32.6-.47a1.91 1.91 0 0 1 -.16-.8v-2.77a2.07 2.07 0 0 1 .39-1.24 1.85 1.85 0 0 1 1.45-.75h7 .26a1.91 1.91 0 0 1 1.59 2v2.79a2 2 0 0 1 -.14.75 5.79 5.79 0 0 0 .61.5 7.3 7.3 0 0 1 1.67 1.59 5.46 5.46 0 0 1 1 3.14v13.05a3.64 3.64 0 0 1 -3.35 3.86zm-7.7-23.43a1.11 1.11 0 0 1 .22.21 1.48 1.48 0 0 1 .34 1.2 3.29 3.29 0 0 1 -.64 1.3 8 8 0 0 1 -1.43 1.3 4.8 4.8 0 0 0 -1.11 1 2.55 2.55 0 0 0 -.46 1.53v13c0 .65.36 1.07.52 1.07h10.26c.16 0 .52-.42.52-1.07v-13a2.71 2.71 0 0 0 -.47-1.52 4.84 4.84 0 0 0 -1.08-1 8.21 8.21 0 0 1 -1.45-1.3 3.28 3.28 0 0 1 -.66-1.3 1.4 1.4 0 0 1 .26-1.2 1 1 0 0 1 .26-.25v-1.4h-5.09z"></path>
    <path d="m406.14 365.49h-10.27a3.64 3.64 0 0 1 -3.33-3.88v-13a5.47 5.47 0 0 1 1-3.16 7.26 7.26 0 0 1 1.67-1.61l.59-.47a1.91 1.91 0 0 1 -.16-.8v-2.77a2.08 2.08 0 0 1 .41-1.27 1.85 1.85 0 0 1 1.44-.72h7 .25a1.91 1.91 0 0 1 1.59 2v2.79a2 2 0 0 1 -.14.75 6.17 6.17 0 0 0 .6.49 7.41 7.41 0 0 1 1.68 1.6 5.46 5.46 0 0 1 1 3.14v13.05a3.64 3.64 0 0 1 -3.33 3.86zm-7.7-23.42a1.34 1.34 0 0 1 .21.2 1.44 1.44 0 0 1 .34 1.2 3.29 3.29 0 0 1 -.64 1.3 7.59 7.59 0 0 1 -1.42 1.3 4.81 4.81 0 0 0 -1.12 1 2.63 2.63 0 0 0 -.46 1.53v13c0 .65.37 1.07.52 1.07h10.27c.15 0 .51-.42.51-1.07v-13a2.72 2.72 0 0 0 -.46-1.52 5.12 5.12 0 0 0 -1.09-1 7.69 7.69 0 0 1 -1.45-1.3 3.28 3.28 0 0 1 -.66-1.3 1.43 1.43 0 0 1 .26-1.2 1.23 1.23 0 0 1 .26-.25v-1.4h-5.08z"></path>
    <path d="m313.67 365.13h-20.33a1.4 1.4 0 0 1 -1.4-1.4v-29.36a1.41 1.41 0 0 1 1.4-1.41h20.33a1.41 1.41 0 0 1 1.41 1.41v29.36a1.41 1.41 0 0 1 -1.41 1.4zm-18.92-2.81h17.51v-26.54h-17.51z"></path>
    <path d="m270.93 365.13h-26.43a1.41 1.41 0 0 1 -1.41-1.4v-24.23a1.41 1.41 0 0 1 .85-1.29l26.43-11.38a1.4 1.4 0 0 1 1.33.12 1.42 1.42 0 0 1 .63 1.18v35.6a1.4 1.4 0 0 1 -1.4 1.4zm-25-2.81h23.61v-32.06l-23.61 10.17z"></path>
    <path d="m222 154.19v-9.28h5.37v34.09h-5.32v-1c0-3.67 0-7.34 0-11v-1.65l-3.48-4.35v1.22 15.94.92s-.56 0-.95 0c-1.46-.05-2.93 0-4.45 0v-35.02c.51.66.82 1 1.09 1.41q3.5 5.22 7 10.42c.19.29.47.74.8 1.2"></path>
    <path d="m238.94 173.63h-1c0-.18 0-.3 0-.38 0-4.16 0-8.32 0-12.48 0-.24 0-.64 0-.64h.78 4.1v-5.43h-4.82v-4.43h6.08v-5.34h-11.5v34.07h11.52v-5.4h-4.65"></path>
    <path d="m252.15 152.81v25.21 1.07h4.47c.79 0 1-.21 1-1 0-8.87 0-17.74 0-26.6v-1.13h4.21v-5.43h-13.83v5.47h4.14v2.41z"></path>
    <path d="m184.26 173.62h3.45v3.79 1.65s-.8 0-1.63 0c-2.57 0-5.14 0-7.71 0h-.95v-.9q0-16.2 0-32.41v-.9h5.48v28.75h1.06z"></path>
    <path d="m200.27 144.06h-.16c-3.19 11.64-6.37 23.27-9.59 35h5 .43s.13-.42.18-.53a17.53 17.53 0 0 0 .65-2.25c.06-.29.14-.64.14-.64s.54 0 .77 0h5.2.93s.12.56.23 1l.43 1.69.22.79h.5 4.93c-3.34-11.82-6.6-23.44-9.86-35.06zm-1.9 26.34 1.79-7.09 2 7.09z"></path>
    <path d="m173.48 150.41a7.41 7.41 0 0 0 -7.68-5.51c-2.13 0-4.27 0-6.41 0h-1s0 .65 0 1.07q0 16 0 32v.79.35h.38 5.1v-15.6h2.08c3.27 0 5.89-1.18 7.23-4.34a12.1 12.1 0 0 0 .3-8.76zm-4.9 4.79a2.87 2.87 0 0 1 -2.87 2.86h-1.84v-7.88h1.84a2.87 2.87 0 0 1 2.87 2.86z"></path>
    <path d="m316.38 177.94c-.77-3.14-1.52-6.29-2.33-9.41-.68-2.65-1.15-5.37-2.81-7.67.45-.38.93-.7 1.33-1.11a9.33 9.33 0 0 0 2.55-7.46 7.35 7.35 0 0 0 -6.08-7.14 82.53 82.53 0 0 0 -9.32-.34s-.09.08-.12.11v33.54h5.4v-15.46c1.38-.13 2 .16 2.48 1.25a10.8 10.8 0 0 1 .73 2c.88 3.85 1.7 7.72 2.58 11.57.06.26.35.66.54.67h5.15c-.04-.22-.06-.39-.1-.55zm-6.84-22.36a3.11 3.11 0 0 1 -3.06 1.5h-1.43v-7.35c1.65 0 3.41-.33 4.49 1.33a4.1 4.1 0 0 1 0 4.52z"></path>
    <path d="m277.14 163.15c.11-5.74.49-10 2.41-14a12 12 0 0 1 2.22-3.27 5.84 5.84 0 0 1 8.91.55 16.72 16.72 0 0 1 3.33 7.81 36.28 36.28 0 0 1 -.63 17.14 13.75 13.75 0 0 1 -2.9 5.56 5.86 5.86 0 0 1 -9 0 13.71 13.71 0 0 1 -3.27-6.78c-.57-2.72-.86-5.56-1.07-7.01zm10.31 9.07a12.64 12.64 0 0 0 1.42-3.4 32.69 32.69 0 0 0 0-14.43 11.54 11.54 0 0 0 -1.37-3.33c-.81-1.35-2.18-1.35-3.1-.06a7.51 7.51 0 0 0 -1.07 2.25 31.9 31.9 0 0 0 -.39 15.17 14.88 14.88 0 0 0 1.36 3.61c.43.89 1 1.09 1.54 1a1.87 1.87 0 0 0 1.61-.81z"></path>
    <path d="m331.52 165.75c0-.31.11-.58.16-1h-2.63v-5.23h7.69v3.11a29.16 29.16 0 0 1 -2.19 11.06 13.61 13.61 0 0 1 -1.46 2.54c-2.88 3.9-7.58 3.78-10.36-.2a19 19 0 0 1 -3-8.15 37.16 37.16 0 0 1 .6-15.39 15.69 15.69 0 0 1 2.63-5.7c2.72-3.55 7.11-3.66 9.88-.15a36.15 36.15 0 0 1 2.32 3.86l-4.76 1.93c-.28-.48-.49-.92-.76-1.31-1-1.44-2.48-1.48-3.32.05a13.37 13.37 0 0 0 -1.32 3.73 32.4 32.4 0 0 0 .23 14.43 11.83 11.83 0 0 0 1.14 2.7 4 4 0 0 0 .28.43 1.43 1.43 0 0 0 2.1.09c.81-.83 2.31-2.55 2.77-6.8z"></path>
    <path d="m398.15 169.9a32.67 32.67 0 0 1 -.55-14.42 9.93 9.93 0 0 1 1.64-4.52 1.83 1.83 0 0 1 3.09-.11 15.69 15.69 0 0 1 1.05 1.49l4.63-1.9a11.26 11.26 0 0 0 -3-4.73 6.11 6.11 0 0 0 -8.47.21 11.9 11.9 0 0 0 -2.84 4.8 35.41 35.41 0 0 0 -.94 18.38 16.13 16.13 0 0 0 3.35 7.7 6 6 0 0 0 7.82 1.44c2.16-1.26 3.27-3.31 4.13-5.63l-4.6-1.85c-.5.67-.9 1.27-1.36 1.82 0 0-1 1.52-1.93.62a6.46 6.46 0 0 1 -2.02-3.3z"></path>
    <path d="m381.81 144.43h5.35v34h-5.35z"></path>
    <path d="m348 143.81h-.16c-3.19 11.64-6.38 23.27-9.59 35h5 .43l.17-.54a15.58 15.58 0 0 0 .66-2.24c.06-.29.14-.64.14-.64s.54 0 .77 0h5.19.94s.12.56.23 1l.43 1.69.22.79h.5 4.93c-3.31-11.82-6.57-23.44-9.86-35.06zm-1.9 26.34 1.79-7.09 2 7.09z"></path>
    <path d="m370.7 153.6v-9.28h5.37v34.1h-5.32v-1c0-3.67 0-7.34 0-11v-1.62l-3.54-4.44v1.22 15.94.92h-1c-1.46-.06-2.93 0-4.45 0v-34.97c.51.66.82 1 1.09 1.41q3.49 5.22 7 10.42c.19.29.47.74.8 1.2"></path>
    <path d="m424.5 476.73h-5.77a1.41 1.41 0 0 1 -1.41-1.4v-48.33h-60.83v48.38a1.41 1.41 0 0 1 -1.41 1.4h-5.77a1.4 1.4 0 0 1 -1.4-1.4v-48.38h-60.84v48.38a1.4 1.4 0 0 1 -1.4 1.4h-5.77a1.41 1.41 0 0 1 -1.41-1.4v-48.38h-62.24a1.4 1.4 0 0 1 -1.4-1.4v-5.77a1.41 1.41 0 0 1 1.4-1.41h62.24v-48.42a1.41 1.41 0 0 1 1.41-1.41h5.77a1.41 1.41 0 0 1 1.4 1.41v48.37h60.84v-48.37a1.41 1.41 0 0 1 1.4-1.41h5.77a1.41 1.41 0 0 1 1.41 1.41v48.37h60.83v-48.37a1.41 1.41 0 0 1 1.41-1.41h5.77a1.41 1.41 0 0 1 1.4 1.41v48.37h62.24a1.41 1.41 0 0 1 1.41 1.41v5.77a1.41 1.41 0 0 1 -1.41 1.4h-62.24v48.38a1.4 1.4 0 0 1 -1.4 1.4zm-4.37-2.81h3v-48.37a1.41 1.41 0 0 1 1.41-1.41h62.23v-3h-62.27a1.41 1.41 0 0 1 -1.41-1.4v-48.34h-3v48.38a1.4 1.4 0 0 1 -1.4 1.4h-63.61a1.4 1.4 0 0 1 -1.4-1.4v-48.38h-3v48.38a1.41 1.41 0 0 1 -1.41 1.4h-63.6a1.41 1.41 0 0 1 -1.41-1.4v-48.38h-3v48.38a1.4 1.4 0 0 1 -1.4 1.4h-62.2v3h62.24a1.4 1.4 0 0 1 1.4 1.41v48.37h3v-48.41a1.41 1.41 0 0 1 1.41-1.41h63.64a1.41 1.41 0 0 1 1.41 1.41v48.37h3v-48.37a1.41 1.41 0 0 1 1.4-1.41h63.65a1.41 1.41 0 0 1 1.4 1.41z"></path>
    <path d="m190.55 291.43h-113.7v-27.63h120.45l-6.9 13.86-1.2-.6v1.38a2.24 2.24 0 1 0 0 4.47v1.41h1.35zm-110.88-2.82h108.06v-3.1a5.05 5.05 0 0 1 .49-9.79l4.54-9.11h-113.09z"></path>
    <path d="m488.14 371.59h-271.89a1.4 1.4 0 0 1 -1.4-1.4v-6.11a1.4 1.4 0 0 1 1.4-1.4h271.89a1.41 1.41 0 0 1 1.41 1.4v6.11a1.41 1.41 0 0 1 -1.41 1.4zm-270.48-2.81h269.07v-3.29h-269.07z"></path>
    <path d="m501.66 223.29h-436.91v-29.47h436.91zm-434.1-2.82h431.29v-23.84h-431.29z"></path>
    <path d="m319.97 432.63h64.46v5.25h-64.46z"></path>
    <path d="m385.84 439.29h-67.28v-8.07h67.28zm-64.47-2.81h61.63v-2.48h-61.63z"></path>
    <path d="m332.75 435.26 38.9 54.07"></path>
    <path d="m350.79 428.99h2.81v66.61h-2.81z" transform="matrix(.81177787 -.58396634 .58396634 .81177787 -203.66 292.64)"></path>
    <path d="m371.65 435.26-38.9 54.07"></path>
    <path d="m318.89 460.89h66.61v2.81h-66.61z" transform="matrix(.58325771 -.81228717 .81228717 .58325771 -228.74 478.78)"></path>
    <path d="m338.27 480.26h27.86v2.81h-27.86z"></path>
    <path d="m228.88 432.63h64.46v5.25h-64.46z"></path>
    <path d="m294.75 439.29h-67.28v-8.07h67.28zm-64.47-2.81h61.66v-2.48h-61.66z"></path>
    <path d="m241.66 435.26 38.9 54.07"></path>
    <path d="m259.71 428.99h2.81v66.62h-2.81z" transform="matrix(.81177787 -.58396634 .58396634 .81177787 -220.81 239.48)"></path>
    <path d="m280.56 435.26-38.9 54.07"></path>
    <path d="m227.8 460.89h66.62v2.81h-66.62z" transform="matrix(.58325771 -.81228717 .81228717 .58325771 -266.7 404.79)"></path>
    <path d="m247.18 480.26h27.86v2.81h-27.86z"></path>
    <path d="m411.05 432.63h64.46v5.25h-64.46z"></path>
    <path d="m476.92 439.29h-67.27v-8.07h67.27zm-64.46-2.81h61.65v-2.48h-61.65z"></path>
    <path d="m423.84 435.26 38.89 54.07"></path>
    <path d="m441.88 428.99h2.81v66.62h-2.81z" transform="matrix(.81177787 -.58396634 .58396634 .81177787 -186.52 345.85)"></path>
    <path d="m462.73 435.26-38.89 54.07"></path>
    <path d="m409.98 460.89h66.62v2.81h-66.62z" transform="matrix(.58325771 -.81228717 .81228717 .58325771 -190.78 552.77)"></path>
    <path d="m429.35 480.26h27.86v2.81h-27.86z"></path>
    <g clip-path="url(#a)">
      <g clip-path="url(#b)">
        <path d="m493.13 376.2a1.35 1.35 0 1 0 -1.26-1.35 1.31 1.31 0 0 0 1.26 1.35z"></path>
        <path d="m480.58 376.2a1.35 1.35 0 0 0 0-2.7 1.35 1.35 0 0 0 0 2.7z"></path>
        <path d="m493.13 362.7a1.35 1.35 0 1 0 -1.26-1.35 1.31 1.31 0 0 0 1.26 1.35z"></path>
        <path d="m480.58 362.7a1.35 1.35 0 0 0 0-2.7 1.35 1.35 0 0 0 0 2.7z"></path>
        <path d="m474.31 369.45a1.35 1.35 0 1 0 -1.26-1.35 1.31 1.31 0 0 0 1.26 1.35z"></path>
        <path d="m486.86 369.45a1.35 1.35 0 1 0 -1.26-1.35 1.31 1.31 0 0 0 1.26 1.35z"></path>
        <path d="m474.31 356a1.35 1.35 0 1 0 -1.26-1.35 1.31 1.31 0 0 0 1.26 1.35z"></path>
        <path d="m486.86 356a1.35 1.35 0 1 0 -1.26-1.35 1.31 1.31 0 0 0 1.26 1.35z"></path>
        <path d="m468 376.2a1.35 1.35 0 1 0 -1.25-1.35 1.31 1.31 0 0 0 1.25 1.35z"></path>
        <path d="m468 362.7a1.35 1.35 0 1 0 -1.25-1.35 1.31 1.31 0 0 0 1.25 1.35z"></path>
        <path d="m493.13 349.2a1.35 1.35 0 1 0 -1.26-1.35 1.31 1.31 0 0 0 1.26 1.35z"></path>
        <path d="m480.58 349.2a1.35 1.35 0 0 0 0-2.7 1.35 1.35 0 0 0 0 2.7z"></path>
        <path d="m468 349.2a1.35 1.35 0 1 0 -1.25-1.35 1.31 1.31 0 0 0 1.25 1.35z"></path>
      </g>
      <g clip-path="url(#c)">
        <path d="m493.13 403.2a1.35 1.35 0 1 0 -1.26-1.35 1.31 1.31 0 0 0 1.26 1.35z"></path>
        <path d="m480.58 403.2a1.35 1.35 0 0 0 0-2.7 1.35 1.35 0 0 0 0 2.7z"></path>
        <path d="m493.13 389.7a1.35 1.35 0 1 0 -1.26-1.35 1.31 1.31 0 0 0 1.26 1.35z"></path>
        <path d="m480.58 389.7a1.35 1.35 0 0 0 0-2.7 1.35 1.35 0 0 0 0 2.7z"></path>
        <path d="m474.31 396.45a1.35 1.35 0 1 0 -1.26-1.35 1.31 1.31 0 0 0 1.26 1.35z"></path>
        <path d="m486.86 396.45a1.35 1.35 0 1 0 -1.26-1.35 1.31 1.31 0 0 0 1.26 1.35z"></path>
        <path d="m474.31 383a1.35 1.35 0 1 0 -1.26-1.35 1.31 1.31 0 0 0 1.26 1.35z"></path>
        <path d="m486.86 383a1.35 1.35 0 1 0 -1.26-1.35 1.31 1.31 0 0 0 1.26 1.35z"></path>
        <path d="m468 403.2a1.35 1.35 0 1 0 -1.25-1.35 1.31 1.31 0 0 0 1.25 1.35z"></path>
        <path d="m468 389.7a1.35 1.35 0 1 0 -1.25-1.35 1.31 1.31 0 0 0 1.25 1.35z"></path>
        <path d="m493.13 376.2a1.35 1.35 0 1 0 -1.26-1.35 1.31 1.31 0 0 0 1.26 1.35z"></path>
        <path d="m480.58 376.2a1.35 1.35 0 0 0 0-2.7 1.35 1.35 0 0 0 0 2.7z"></path>
        <path d="m468 376.2a1.35 1.35 0 1 0 -1.25-1.35 1.31 1.31 0 0 0 1.25 1.35z"></path>
      </g>
      <g clip-path="url(#d)">
        <path d="m493.13 430.2a1.35 1.35 0 1 0 -1.26-1.35 1.31 1.31 0 0 0 1.26 1.35z"></path>
        <path d="m480.58 430.2a1.35 1.35 0 0 0 0-2.7 1.35 1.35 0 0 0 0 2.7z"></path>
        <path d="m493.13 416.7a1.35 1.35 0 1 0 -1.26-1.35 1.31 1.31 0 0 0 1.26 1.35z"></path>
        <path d="m480.58 416.7a1.35 1.35 0 0 0 0-2.7 1.35 1.35 0 0 0 0 2.7z"></path>
        <path d="m474.31 423.45a1.35 1.35 0 1 0 -1.26-1.35 1.31 1.31 0 0 0 1.26 1.35z"></path>
        <path d="m486.86 423.45a1.35 1.35 0 1 0 -1.26-1.35 1.31 1.31 0 0 0 1.26 1.35z"></path>
        <path d="m474.31 410a1.35 1.35 0 1 0 -1.26-1.35 1.31 1.31 0 0 0 1.26 1.35z"></path>
        <path d="m486.86 410a1.35 1.35 0 1 0 -1.26-1.35 1.31 1.31 0 0 0 1.26 1.35z"></path>
        <path d="m468 430.2a1.35 1.35 0 1 0 -1.25-1.35 1.31 1.31 0 0 0 1.25 1.35z"></path>
        <path d="m468 416.7a1.35 1.35 0 1 0 -1.25-1.35 1.31 1.31 0 0 0 1.25 1.35z"></path>
        <path d="m493.13 403.2a1.35 1.35 0 1 0 -1.26-1.35 1.31 1.31 0 0 0 1.26 1.35z"></path>
        <path d="m480.58 403.2a1.35 1.35 0 0 0 0-2.7 1.35 1.35 0 0 0 0 2.7z"></path>
        <path d="m468 403.2a1.35 1.35 0 1 0 -1.25-1.35 1.31 1.31 0 0 0 1.25 1.35z"></path>
      </g>
      <g clip-path="url(#e)">
        <path d="m493.13 457.2a1.35 1.35 0 1 0 -1.26-1.35 1.31 1.31 0 0 0 1.26 1.35z"></path>
        <path d="m480.58 457.2a1.35 1.35 0 0 0 0-2.7 1.35 1.35 0 0 0 0 2.7z"></path>
        <path d="m493.13 443.7a1.35 1.35 0 1 0 -1.26-1.35 1.31 1.31 0 0 0 1.26 1.35z"></path>
        <path d="m480.58 443.7a1.35 1.35 0 0 0 0-2.7 1.35 1.35 0 0 0 0 2.7z"></path>
        <path d="m474.31 450.45a1.35 1.35 0 1 0 -1.26-1.35 1.3 1.3 0 0 0 1.26 1.35z"></path>
        <path d="m486.86 450.45a1.35 1.35 0 1 0 -1.26-1.35 1.3 1.3 0 0 0 1.26 1.35z"></path>
        <path d="m474.31 437a1.35 1.35 0 1 0 -1.26-1.35 1.31 1.31 0 0 0 1.26 1.35z"></path>
        <path d="m486.86 437a1.35 1.35 0 1 0 -1.26-1.35 1.31 1.31 0 0 0 1.26 1.35z"></path>
        <path d="m468 457.2a1.35 1.35 0 1 0 -1.25-1.35 1.31 1.31 0 0 0 1.25 1.35z"></path>
        <path d="m468 443.7a1.35 1.35 0 1 0 -1.25-1.35 1.31 1.31 0 0 0 1.25 1.35z"></path>
        <path d="m493.13 430.2a1.35 1.35 0 1 0 -1.26-1.35 1.31 1.31 0 0 0 1.26 1.35z"></path>
        <path d="m480.58 430.2a1.35 1.35 0 0 0 0-2.7 1.35 1.35 0 0 0 0 2.7z"></path>
        <path d="m468 430.2a1.35 1.35 0 1 0 -1.25-1.35 1.31 1.31 0 0 0 1.25 1.35z"></path>
      </g>
      <g clip-path="url(#f)">
        <path d="m493.13 484.2a1.35 1.35 0 1 0 -1.26-1.35 1.3 1.3 0 0 0 1.26 1.35z"></path>
        <path d="m480.58 484.2a1.35 1.35 0 1 0 -1.25-1.35 1.31 1.31 0 0 0 1.25 1.35z"></path>
        <path d="m493.13 470.7a1.35 1.35 0 1 0 -1.26-1.35 1.31 1.31 0 0 0 1.26 1.35z"></path>
        <path d="m480.58 470.7a1.35 1.35 0 0 0 0-2.7 1.35 1.35 0 0 0 0 2.7z"></path>
        <path d="m474.31 477.45a1.35 1.35 0 1 0 -1.26-1.35 1.3 1.3 0 0 0 1.26 1.35z"></path>
        <path d="m486.86 477.45a1.35 1.35 0 1 0 -1.26-1.35 1.3 1.3 0 0 0 1.26 1.35z"></path>
        <path d="m474.31 464a1.35 1.35 0 1 0 -1.26-1.35 1.3 1.3 0 0 0 1.26 1.35z"></path>
        <path d="m486.86 464a1.35 1.35 0 1 0 -1.26-1.35 1.3 1.3 0 0 0 1.26 1.35z"></path>
        <path d="m468 484.2a1.35 1.35 0 1 0 -1.25-1.35 1.3 1.3 0 0 0 1.25 1.35z"></path>
        <path d="m468 470.7a1.35 1.35 0 1 0 -1.25-1.35 1.31 1.31 0 0 0 1.25 1.35z"></path>
        <path d="m493.13 457.2a1.35 1.35 0 1 0 -1.26-1.35 1.31 1.31 0 0 0 1.26 1.35z"></path>
        <path d="m480.58 457.2a1.35 1.35 0 0 0 0-2.7 1.35 1.35 0 0 0 0 2.7z"></path>
        <path d="m468 457.2a1.35 1.35 0 1 0 -1.25-1.35 1.31 1.31 0 0 0 1.25 1.35z"></path>
      </g>
      <g clip-path="url(#g)">
        <path d="m468 376.2a1.35 1.35 0 1 0 -1.25-1.35 1.31 1.31 0 0 0 1.25 1.35z"></path>
        <path d="m455.49 376.2a1.35 1.35 0 1 0 -1.26-1.35 1.31 1.31 0 0 0 1.26 1.35z"></path>
        <path d="m468 362.7a1.35 1.35 0 1 0 -1.25-1.35 1.31 1.31 0 0 0 1.25 1.35z"></path>
        <path d="m455.49 362.7a1.35 1.35 0 1 0 -1.26-1.35 1.31 1.31 0 0 0 1.26 1.35z"></path>
        <path d="m449.21 369.45a1.35 1.35 0 0 0 0-2.7 1.35 1.35 0 0 0 0 2.7z"></path>
        <path d="m461.76 369.45a1.35 1.35 0 1 0 -1.26-1.35 1.31 1.31 0 0 0 1.26 1.35z"></path>
        <path d="m449.21 356a1.35 1.35 0 0 0 0-2.7 1.35 1.35 0 0 0 0 2.7z"></path>
        <path d="m461.76 356a1.35 1.35 0 1 0 -1.26-1.35 1.31 1.31 0 0 0 1.26 1.35z"></path>
        <path d="m442.94 376.2a1.35 1.35 0 1 0 -1.26-1.35 1.31 1.31 0 0 0 1.26 1.35z"></path>
        <path d="m442.94 362.7a1.35 1.35 0 1 0 -1.26-1.35 1.31 1.31 0 0 0 1.26 1.35z"></path>
        <path d="m468 349.2a1.35 1.35 0 1 0 -1.25-1.35 1.31 1.31 0 0 0 1.25 1.35z"></path>
        <path d="m455.49 349.2a1.35 1.35 0 1 0 -1.26-1.35 1.31 1.31 0 0 0 1.26 1.35z"></path>
        <path d="m442.94 349.2a1.35 1.35 0 1 0 -1.26-1.35 1.31 1.31 0 0 0 1.26 1.35z"></path>
      </g>
      <g clip-path="url(#h)">
        <path d="m468 403.2a1.35 1.35 0 1 0 -1.25-1.35 1.31 1.31 0 0 0 1.25 1.35z"></path>
        <path d="m455.49 403.2a1.35 1.35 0 1 0 -1.26-1.35 1.31 1.31 0 0 0 1.26 1.35z"></path>
        <path d="m468 389.7a1.35 1.35 0 1 0 -1.25-1.35 1.31 1.31 0 0 0 1.25 1.35z"></path>
        <path d="m455.49 389.7a1.35 1.35 0 1 0 -1.26-1.35 1.31 1.31 0 0 0 1.26 1.35z"></path>
        <path d="m449.21 396.45a1.35 1.35 0 0 0 0-2.7 1.35 1.35 0 0 0 0 2.7z"></path>
        <path d="m461.76 396.45a1.35 1.35 0 1 0 -1.26-1.35 1.31 1.31 0 0 0 1.26 1.35z"></path>
        <path d="m449.21 383a1.35 1.35 0 0 0 0-2.7 1.35 1.35 0 0 0 0 2.7z"></path>
        <path d="m461.76 383a1.35 1.35 0 1 0 -1.26-1.35 1.31 1.31 0 0 0 1.26 1.35z"></path>
        <path d="m442.94 403.2a1.35 1.35 0 1 0 -1.26-1.35 1.31 1.31 0 0 0 1.26 1.35z"></path>
        <path d="m442.94 389.7a1.35 1.35 0 1 0 -1.26-1.35 1.31 1.31 0 0 0 1.26 1.35z"></path>
        <path d="m468 376.2a1.35 1.35 0 1 0 -1.25-1.35 1.31 1.31 0 0 0 1.25 1.35z"></path>
        <path d="m455.49 376.2a1.35 1.35 0 1 0 -1.26-1.35 1.31 1.31 0 0 0 1.26 1.35z"></path>
        <path d="m442.94 376.2a1.35 1.35 0 1 0 -1.26-1.35 1.31 1.31 0 0 0 1.26 1.35z"></path>
      </g>
      <g clip-path="url(#i)">
        <path d="m468 430.2a1.35 1.35 0 1 0 -1.25-1.35 1.31 1.31 0 0 0 1.25 1.35z"></path>
        <path d="m455.49 430.2a1.35 1.35 0 1 0 -1.26-1.35 1.31 1.31 0 0 0 1.26 1.35z"></path>
        <path d="m468 416.7a1.35 1.35 0 1 0 -1.25-1.35 1.31 1.31 0 0 0 1.25 1.35z"></path>
        <path d="m455.49 416.7a1.35 1.35 0 1 0 -1.26-1.35 1.31 1.31 0 0 0 1.26 1.35z"></path>
        <path d="m449.21 423.45a1.35 1.35 0 0 0 0-2.7 1.35 1.35 0 0 0 0 2.7z"></path>
        <path d="m461.76 423.45a1.35 1.35 0 1 0 -1.26-1.35 1.31 1.31 0 0 0 1.26 1.35z"></path>
        <path d="m449.21 410a1.35 1.35 0 0 0 0-2.7 1.35 1.35 0 0 0 0 2.7z"></path>
        <path d="m461.76 410a1.35 1.35 0 1 0 -1.26-1.35 1.31 1.31 0 0 0 1.26 1.35z"></path>
        <path d="m442.94 430.2a1.35 1.35 0 1 0 -1.26-1.35 1.31 1.31 0 0 0 1.26 1.35z"></path>
        <path d="m442.94 416.7a1.35 1.35 0 1 0 -1.26-1.35 1.31 1.31 0 0 0 1.26 1.35z"></path>
        <path d="m468 403.2a1.35 1.35 0 1 0 -1.25-1.35 1.31 1.31 0 0 0 1.25 1.35z"></path>
        <path d="m455.49 403.2a1.35 1.35 0 1 0 -1.26-1.35 1.31 1.31 0 0 0 1.26 1.35z"></path>
        <path d="m442.94 403.2a1.35 1.35 0 1 0 -1.26-1.35 1.31 1.31 0 0 0 1.26 1.35z"></path>
      </g>
      <g clip-path="url(#j)">
        <path d="m468 457.2a1.35 1.35 0 1 0 -1.25-1.35 1.31 1.31 0 0 0 1.25 1.35z"></path>
        <path d="m455.49 457.2a1.35 1.35 0 1 0 -1.26-1.35 1.31 1.31 0 0 0 1.26 1.35z"></path>
        <path d="m468 443.7a1.35 1.35 0 1 0 -1.25-1.35 1.31 1.31 0 0 0 1.25 1.35z"></path>
        <path d="m455.49 443.7a1.35 1.35 0 1 0 -1.26-1.35 1.31 1.31 0 0 0 1.26 1.35z"></path>
        <path d="m449.21 450.45a1.35 1.35 0 1 0 -1.21-1.35 1.31 1.31 0 0 0 1.21 1.35z"></path>
        <path d="m461.76 450.45a1.35 1.35 0 1 0 -1.26-1.35 1.3 1.3 0 0 0 1.26 1.35z"></path>
        <path d="m449.21 437a1.35 1.35 0 0 0 0-2.7 1.35 1.35 0 0 0 0 2.7z"></path>
        <path d="m461.76 437a1.35 1.35 0 1 0 -1.26-1.35 1.31 1.31 0 0 0 1.26 1.35z"></path>
        <path d="m442.94 457.2a1.35 1.35 0 1 0 -1.26-1.35 1.31 1.31 0 0 0 1.26 1.35z"></path>
        <path d="m442.94 443.7a1.35 1.35 0 1 0 -1.26-1.35 1.31 1.31 0 0 0 1.26 1.35z"></path>
        <path d="m468 430.2a1.35 1.35 0 1 0 -1.25-1.35 1.31 1.31 0 0 0 1.25 1.35z"></path>
        <path d="m455.49 430.2a1.35 1.35 0 1 0 -1.26-1.35 1.31 1.31 0 0 0 1.26 1.35z"></path>
        <path d="m442.94 430.2a1.35 1.35 0 1 0 -1.26-1.35 1.31 1.31 0 0 0 1.26 1.35z"></path>
      </g>
      <g clip-path="url(#k)">
        <path d="m468 484.2a1.35 1.35 0 1 0 -1.25-1.35 1.3 1.3 0 0 0 1.25 1.35z"></path>
        <path d="m455.49 484.2a1.35 1.35 0 1 0 -1.26-1.35 1.3 1.3 0 0 0 1.26 1.35z"></path>
        <path d="m468 470.7a1.35 1.35 0 1 0 -1.25-1.35 1.31 1.31 0 0 0 1.25 1.35z"></path>
        <path d="m455.49 470.7a1.35 1.35 0 1 0 -1.26-1.35 1.31 1.31 0 0 0 1.26 1.35z"></path>
        <path d="m449.21 477.45a1.35 1.35 0 1 0 -1.21-1.35 1.31 1.31 0 0 0 1.21 1.35z"></path>
        <path d="m461.76 477.45a1.35 1.35 0 1 0 -1.26-1.35 1.3 1.3 0 0 0 1.26 1.35z"></path>
        <path d="m449.21 464a1.35 1.35 0 1 0 -1.21-1.4 1.31 1.31 0 0 0 1.21 1.4z"></path>
        <path d="m461.76 464a1.35 1.35 0 1 0 -1.26-1.35 1.3 1.3 0 0 0 1.26 1.35z"></path>
        <path d="m442.94 484.2a1.35 1.35 0 1 0 -1.26-1.35 1.3 1.3 0 0 0 1.26 1.35z"></path>
        <path d="m442.94 470.7a1.35 1.35 0 1 0 -1.26-1.35 1.31 1.31 0 0 0 1.26 1.35z"></path>
        <path d="m468 457.2a1.35 1.35 0 1 0 -1.25-1.35 1.31 1.31 0 0 0 1.25 1.35z"></path>
        <path d="m455.49 457.2a1.35 1.35 0 1 0 -1.26-1.35 1.31 1.31 0 0 0 1.26 1.35z"></path>
        <path d="m442.94 457.2a1.35 1.35 0 1 0 -1.26-1.35 1.31 1.31 0 0 0 1.26 1.35z"></path>
      </g>
      <g clip-path="url(#l)">
        <path d="m442.94 376.2a1.35 1.35 0 1 0 -1.26-1.35 1.31 1.31 0 0 0 1.26 1.35z"></path>
        <path d="m430.39 376.2a1.35 1.35 0 1 0 -1.26-1.35 1.31 1.31 0 0 0 1.26 1.35z"></path>
        <path d="m442.94 362.7a1.35 1.35 0 1 0 -1.26-1.35 1.31 1.31 0 0 0 1.26 1.35z"></path>
        <path d="m430.39 362.7a1.35 1.35 0 1 0 -1.26-1.35 1.31 1.31 0 0 0 1.26 1.35z"></path>
        <path d="m424.11 369.45a1.35 1.35 0 1 0 -1.25-1.35 1.31 1.31 0 0 0 1.25 1.35z"></path>
        <path d="m436.66 369.45a1.35 1.35 0 1 0 -1.25-1.35 1.31 1.31 0 0 0 1.25 1.35z"></path>
        <path d="m424.11 356a1.35 1.35 0 1 0 -1.25-1.35 1.31 1.31 0 0 0 1.25 1.35z"></path>
        <path d="m436.66 356a1.35 1.35 0 1 0 -1.25-1.35 1.31 1.31 0 0 0 1.25 1.35z"></path>
        <path d="m417.84 376.2a1.35 1.35 0 0 0 0-2.7 1.35 1.35 0 0 0 0 2.7z"></path>
        <path d="m417.84 362.7a1.35 1.35 0 0 0 0-2.7 1.35 1.35 0 0 0 0 2.7z"></path>
        <path d="m442.94 349.2a1.35 1.35 0 1 0 -1.26-1.35 1.31 1.31 0 0 0 1.26 1.35z"></path>
        <path d="m430.39 349.2a1.35 1.35 0 1 0 -1.26-1.35 1.31 1.31 0 0 0 1.26 1.35z"></path>
        <path d="m417.84 349.2a1.35 1.35 0 0 0 0-2.7 1.35 1.35 0 0 0 0 2.7z"></path>
      </g>
      <g clip-path="url(#m)">
        <path d="m442.94 403.2a1.35 1.35 0 1 0 -1.26-1.35 1.31 1.31 0 0 0 1.26 1.35z"></path>
        <path d="m430.39 403.2a1.35 1.35 0 1 0 -1.26-1.35 1.31 1.31 0 0 0 1.26 1.35z"></path>
        <path d="m442.94 389.7a1.35 1.35 0 1 0 -1.26-1.35 1.31 1.31 0 0 0 1.26 1.35z"></path>
        <path d="m430.39 389.7a1.35 1.35 0 1 0 -1.26-1.35 1.31 1.31 0 0 0 1.26 1.35z"></path>
        <path d="m424.11 396.45a1.35 1.35 0 1 0 -1.25-1.35 1.31 1.31 0 0 0 1.25 1.35z"></path>
        <path d="m436.66 396.45a1.35 1.35 0 1 0 -1.25-1.35 1.31 1.31 0 0 0 1.25 1.35z"></path>
        <path d="m424.11 383a1.35 1.35 0 1 0 -1.25-1.35 1.31 1.31 0 0 0 1.25 1.35z"></path>
        <path d="m436.66 383a1.35 1.35 0 1 0 -1.25-1.35 1.31 1.31 0 0 0 1.25 1.35z"></path>
        <path d="m417.84 403.2a1.35 1.35 0 0 0 0-2.7 1.35 1.35 0 0 0 0 2.7z"></path>
        <path d="m417.84 389.7a1.35 1.35 0 0 0 0-2.7 1.35 1.35 0 0 0 0 2.7z"></path>
        <path d="m442.94 376.2a1.35 1.35 0 1 0 -1.26-1.35 1.31 1.31 0 0 0 1.26 1.35z"></path>
        <path d="m430.39 376.2a1.35 1.35 0 1 0 -1.26-1.35 1.31 1.31 0 0 0 1.26 1.35z"></path>
        <path d="m417.84 376.2a1.35 1.35 0 0 0 0-2.7 1.35 1.35 0 0 0 0 2.7z"></path>
      </g>
      <g clip-path="url(#n)">
        <path d="m442.94 430.2a1.35 1.35 0 1 0 -1.26-1.35 1.31 1.31 0 0 0 1.26 1.35z"></path>
        <path d="m430.39 430.2a1.35 1.35 0 1 0 -1.26-1.35 1.31 1.31 0 0 0 1.26 1.35z"></path>
        <path d="m442.94 416.7a1.35 1.35 0 1 0 -1.26-1.35 1.31 1.31 0 0 0 1.26 1.35z"></path>
        <path d="m430.39 416.7a1.35 1.35 0 1 0 -1.26-1.35 1.31 1.31 0 0 0 1.26 1.35z"></path>
        <path d="m424.11 423.45a1.35 1.35 0 1 0 -1.25-1.35 1.31 1.31 0 0 0 1.25 1.35z"></path>
        <path d="m436.66 423.45a1.35 1.35 0 1 0 -1.25-1.35 1.31 1.31 0 0 0 1.25 1.35z"></path>
        <path d="m424.11 410a1.35 1.35 0 1 0 -1.25-1.35 1.31 1.31 0 0 0 1.25 1.35z"></path>
        <path d="m436.66 410a1.35 1.35 0 1 0 -1.25-1.35 1.31 1.31 0 0 0 1.25 1.35z"></path>
        <path d="m417.84 430.2a1.35 1.35 0 0 0 0-2.7 1.35 1.35 0 0 0 0 2.7z"></path>
        <path d="m417.84 416.7a1.35 1.35 0 0 0 0-2.7 1.35 1.35 0 0 0 0 2.7z"></path>
        <path d="m442.94 403.2a1.35 1.35 0 1 0 -1.26-1.35 1.31 1.31 0 0 0 1.26 1.35z"></path>
        <path d="m430.39 403.2a1.35 1.35 0 1 0 -1.26-1.35 1.31 1.31 0 0 0 1.26 1.35z"></path>
        <path d="m417.84 403.2a1.35 1.35 0 0 0 0-2.7 1.35 1.35 0 0 0 0 2.7z"></path>
      </g>
      <g clip-path="url(#o)">
        <path d="m442.94 457.2a1.35 1.35 0 1 0 -1.26-1.35 1.31 1.31 0 0 0 1.26 1.35z"></path>
        <path d="m430.39 457.2a1.35 1.35 0 1 0 -1.26-1.35 1.31 1.31 0 0 0 1.26 1.35z"></path>
        <path d="m442.94 443.7a1.35 1.35 0 1 0 -1.26-1.35 1.31 1.31 0 0 0 1.26 1.35z"></path>
        <path d="m430.39 443.7a1.35 1.35 0 1 0 -1.26-1.35 1.31 1.31 0 0 0 1.26 1.35z"></path>
        <path d="m424.11 450.45a1.35 1.35 0 1 0 -1.25-1.35 1.3 1.3 0 0 0 1.25 1.35z"></path>
        <path d="m436.66 450.45a1.35 1.35 0 1 0 -1.25-1.35 1.3 1.3 0 0 0 1.25 1.35z"></path>
        <path d="m424.11 437a1.35 1.35 0 1 0 -1.25-1.35 1.31 1.31 0 0 0 1.25 1.35z"></path>
        <path d="m436.66 437a1.35 1.35 0 1 0 -1.25-1.35 1.31 1.31 0 0 0 1.25 1.35z"></path>
        <path d="m417.84 457.2a1.35 1.35 0 0 0 0-2.7 1.35 1.35 0 0 0 0 2.7z"></path>
        <path d="m417.84 443.7a1.35 1.35 0 0 0 0-2.7 1.35 1.35 0 0 0 0 2.7z"></path>
        <path d="m442.94 430.2a1.35 1.35 0 1 0 -1.26-1.35 1.31 1.31 0 0 0 1.26 1.35z"></path>
        <path d="m430.39 430.2a1.35 1.35 0 1 0 -1.26-1.35 1.31 1.31 0 0 0 1.26 1.35z"></path>
        <path d="m417.84 430.2a1.35 1.35 0 0 0 0-2.7 1.35 1.35 0 0 0 0 2.7z"></path>
      </g>
      <g clip-path="url(#p)">
        <path d="m442.94 484.2a1.35 1.35 0 1 0 -1.26-1.35 1.3 1.3 0 0 0 1.26 1.35z"></path>
        <path d="m430.39 484.2a1.35 1.35 0 1 0 -1.26-1.35 1.3 1.3 0 0 0 1.26 1.35z"></path>
        <path d="m442.94 470.7a1.35 1.35 0 1 0 -1.26-1.35 1.31 1.31 0 0 0 1.26 1.35z"></path>
        <path d="m430.39 470.7a1.35 1.35 0 1 0 -1.26-1.35 1.31 1.31 0 0 0 1.26 1.35z"></path>
        <path d="m424.11 477.45a1.35 1.35 0 1 0 -1.25-1.35 1.3 1.3 0 0 0 1.25 1.35z"></path>
        <path d="m436.66 477.45a1.35 1.35 0 1 0 -1.25-1.35 1.3 1.3 0 0 0 1.25 1.35z"></path>
        <path d="m424.11 464a1.35 1.35 0 1 0 -1.25-1.35 1.3 1.3 0 0 0 1.25 1.35z"></path>
        <path d="m436.66 464a1.35 1.35 0 1 0 -1.25-1.35 1.3 1.3 0 0 0 1.25 1.35z"></path>
        <path d="m417.84 484.2a1.35 1.35 0 1 0 -1.25-1.35 1.31 1.31 0 0 0 1.25 1.35z"></path>
        <path d="m417.84 470.7a1.35 1.35 0 0 0 0-2.7 1.35 1.35 0 0 0 0 2.7z"></path>
        <path d="m442.94 457.2a1.35 1.35 0 1 0 -1.26-1.35 1.31 1.31 0 0 0 1.26 1.35z"></path>
        <path d="m430.39 457.2a1.35 1.35 0 1 0 -1.26-1.35 1.31 1.31 0 0 0 1.26 1.35z"></path>
        <path d="m417.84 457.2a1.35 1.35 0 0 0 0-2.7 1.35 1.35 0 0 0 0 2.7z"></path>
      </g>
      <g clip-path="url(#q)">
        <path d="m417.84 376.2a1.35 1.35 0 0 0 0-2.7 1.35 1.35 0 0 0 0 2.7z"></path>
        <path d="m405.29 376.2a1.35 1.35 0 1 0 -1.25-1.35 1.31 1.31 0 0 0 1.25 1.35z"></path>
        <path d="m417.84 362.7a1.35 1.35 0 0 0 0-2.7 1.35 1.35 0 0 0 0 2.7z"></path>
        <path d="m405.29 362.7a1.35 1.35 0 1 0 -1.25-1.35 1.31 1.31 0 0 0 1.25 1.35z"></path>
        <path d="m399 369.45a1.35 1.35 0 1 0 -1.26-1.35 1.31 1.31 0 0 0 1.26 1.35z"></path>
        <path d="m411.57 369.45a1.35 1.35 0 1 0 -1.26-1.35 1.31 1.31 0 0 0 1.26 1.35z"></path>
        <path d="m399 356a1.35 1.35 0 1 0 -1.26-1.35 1.31 1.31 0 0 0 1.26 1.35z"></path>
        <path d="m411.57 356a1.35 1.35 0 1 0 -1.26-1.35 1.31 1.31 0 0 0 1.26 1.35z"></path>
        <path d="m392.75 376.2a1.35 1.35 0 1 0 -1.26-1.35 1.31 1.31 0 0 0 1.26 1.35z"></path>
        <path d="m392.75 362.7a1.35 1.35 0 1 0 -1.26-1.35 1.31 1.31 0 0 0 1.26 1.35z"></path>
        <path d="m417.84 349.2a1.35 1.35 0 0 0 0-2.7 1.35 1.35 0 0 0 0 2.7z"></path>
        <path d="m405.29 349.2a1.35 1.35 0 1 0 -1.25-1.35 1.31 1.31 0 0 0 1.25 1.35z"></path>
        <path d="m392.75 349.2a1.35 1.35 0 1 0 -1.26-1.35 1.31 1.31 0 0 0 1.26 1.35z"></path>
      </g>
      <g clip-path="url(#r)">
        <path d="m417.84 403.2a1.35 1.35 0 0 0 0-2.7 1.35 1.35 0 0 0 0 2.7z"></path>
        <path d="m405.29 403.2a1.35 1.35 0 1 0 -1.25-1.35 1.31 1.31 0 0 0 1.25 1.35z"></path>
        <path d="m417.84 389.7a1.35 1.35 0 0 0 0-2.7 1.35 1.35 0 0 0 0 2.7z"></path>
        <path d="m405.29 389.7a1.35 1.35 0 1 0 -1.25-1.35 1.31 1.31 0 0 0 1.25 1.35z"></path>
        <path d="m399 396.45a1.35 1.35 0 1 0 -1.26-1.35 1.31 1.31 0 0 0 1.26 1.35z"></path>
        <path d="m411.57 396.45a1.35 1.35 0 1 0 -1.26-1.35 1.31 1.31 0 0 0 1.26 1.35z"></path>
        <path d="m399 383a1.35 1.35 0 1 0 -1.26-1.35 1.31 1.31 0 0 0 1.26 1.35z"></path>
        <path d="m411.57 383a1.35 1.35 0 1 0 -1.26-1.35 1.31 1.31 0 0 0 1.26 1.35z"></path>
        <path d="m392.75 403.2a1.35 1.35 0 1 0 -1.26-1.35 1.31 1.31 0 0 0 1.26 1.35z"></path>
        <path d="m392.75 389.7a1.35 1.35 0 1 0 -1.26-1.35 1.31 1.31 0 0 0 1.26 1.35z"></path>
        <path d="m417.84 376.2a1.35 1.35 0 0 0 0-2.7 1.35 1.35 0 0 0 0 2.7z"></path>
        <path d="m405.29 376.2a1.35 1.35 0 1 0 -1.25-1.35 1.31 1.31 0 0 0 1.25 1.35z"></path>
        <path d="m392.75 376.2a1.35 1.35 0 1 0 -1.26-1.35 1.31 1.31 0 0 0 1.26 1.35z"></path>
      </g>
      <g clip-path="url(#s)">
        <path d="m417.84 430.2a1.35 1.35 0 0 0 0-2.7 1.35 1.35 0 0 0 0 2.7z"></path>
        <path d="m405.29 430.2a1.35 1.35 0 1 0 -1.25-1.35 1.31 1.31 0 0 0 1.25 1.35z"></path>
        <path d="m417.84 416.7a1.35 1.35 0 0 0 0-2.7 1.35 1.35 0 0 0 0 2.7z"></path>
        <path d="m405.29 416.7a1.35 1.35 0 1 0 -1.25-1.35 1.31 1.31 0 0 0 1.25 1.35z"></path>
        <path d="m399 423.45a1.35 1.35 0 1 0 -1.26-1.35 1.31 1.31 0 0 0 1.26 1.35z"></path>
        <path d="m411.57 423.45a1.35 1.35 0 1 0 -1.26-1.35 1.31 1.31 0 0 0 1.26 1.35z"></path>
        <path d="m399 410a1.35 1.35 0 1 0 -1.26-1.35 1.31 1.31 0 0 0 1.26 1.35z"></path>
        <path d="m411.57 410a1.35 1.35 0 1 0 -1.26-1.35 1.31 1.31 0 0 0 1.26 1.35z"></path>
        <path d="m392.75 430.2a1.35 1.35 0 1 0 -1.26-1.35 1.31 1.31 0 0 0 1.26 1.35z"></path>
        <path d="m392.75 416.7a1.35 1.35 0 1 0 -1.26-1.35 1.31 1.31 0 0 0 1.26 1.35z"></path>
        <path d="m417.84 403.2a1.35 1.35 0 0 0 0-2.7 1.35 1.35 0 0 0 0 2.7z"></path>
        <path d="m405.29 403.2a1.35 1.35 0 1 0 -1.25-1.35 1.31 1.31 0 0 0 1.25 1.35z"></path>
        <path d="m392.75 403.2a1.35 1.35 0 1 0 -1.26-1.35 1.31 1.31 0 0 0 1.26 1.35z"></path>
      </g>
      <g clip-path="url(#t)">
        <path d="m417.84 457.2a1.35 1.35 0 0 0 0-2.7 1.35 1.35 0 0 0 0 2.7z"></path>
        <path d="m405.29 457.2a1.35 1.35 0 1 0 -1.25-1.35 1.31 1.31 0 0 0 1.25 1.35z"></path>
        <path d="m417.84 443.7a1.35 1.35 0 0 0 0-2.7 1.35 1.35 0 0 0 0 2.7z"></path>
        <path d="m405.29 443.7a1.35 1.35 0 1 0 -1.25-1.35 1.31 1.31 0 0 0 1.25 1.35z"></path>
        <path d="m399 450.45a1.35 1.35 0 1 0 -1.26-1.35 1.3 1.3 0 0 0 1.26 1.35z"></path>
        <path d="m411.57 450.45a1.35 1.35 0 1 0 -1.26-1.35 1.3 1.3 0 0 0 1.26 1.35z"></path>
        <path d="m399 437a1.35 1.35 0 1 0 -1.26-1.35 1.31 1.31 0 0 0 1.26 1.35z"></path>
        <path d="m411.57 437a1.35 1.35 0 1 0 -1.26-1.35 1.31 1.31 0 0 0 1.26 1.35z"></path>
        <path d="m392.75 457.2a1.35 1.35 0 1 0 -1.26-1.35 1.31 1.31 0 0 0 1.26 1.35z"></path>
        <path d="m392.75 443.7a1.35 1.35 0 1 0 -1.26-1.35 1.31 1.31 0 0 0 1.26 1.35z"></path>
        <path d="m417.84 430.2a1.35 1.35 0 0 0 0-2.7 1.35 1.35 0 0 0 0 2.7z"></path>
        <path d="m405.29 430.2a1.35 1.35 0 1 0 -1.25-1.35 1.31 1.31 0 0 0 1.25 1.35z"></path>
        <path d="m392.75 430.2a1.35 1.35 0 1 0 -1.26-1.35 1.31 1.31 0 0 0 1.26 1.35z"></path>
      </g>
      <g clip-path="url(#u)">
        <path d="m417.84 484.2a1.35 1.35 0 1 0 -1.25-1.35 1.31 1.31 0 0 0 1.25 1.35z"></path>
        <path d="m405.29 484.2a1.35 1.35 0 1 0 -1.25-1.35 1.3 1.3 0 0 0 1.25 1.35z"></path>
        <path d="m417.84 470.7a1.35 1.35 0 0 0 0-2.7 1.35 1.35 0 0 0 0 2.7z"></path>
        <path d="m405.29 470.7a1.35 1.35 0 1 0 -1.25-1.35 1.31 1.31 0 0 0 1.25 1.35z"></path>
        <path d="m399 477.45a1.35 1.35 0 1 0 -1.26-1.35 1.3 1.3 0 0 0 1.26 1.35z"></path>
        <path d="m411.57 477.45a1.35 1.35 0 1 0 -1.26-1.35 1.3 1.3 0 0 0 1.26 1.35z"></path>
        <path d="m399 464a1.35 1.35 0 1 0 -1.26-1.35 1.3 1.3 0 0 0 1.26 1.35z"></path>
        <path d="m411.57 464a1.35 1.35 0 1 0 -1.26-1.35 1.3 1.3 0 0 0 1.26 1.35z"></path>
        <path d="m392.75 484.2a1.35 1.35 0 1 0 -1.26-1.35 1.3 1.3 0 0 0 1.26 1.35z"></path>
        <path d="m392.75 470.7a1.35 1.35 0 1 0 -1.26-1.35 1.31 1.31 0 0 0 1.26 1.35z"></path>
        <path d="m417.84 457.2a1.35 1.35 0 0 0 0-2.7 1.35 1.35 0 0 0 0 2.7z"></path>
        <path d="m405.29 457.2a1.35 1.35 0 1 0 -1.25-1.35 1.31 1.31 0 0 0 1.25 1.35z"></path>
        <path d="m392.75 457.2a1.35 1.35 0 1 0 -1.26-1.35 1.31 1.31 0 0 0 1.26 1.35z"></path>
      </g>
      <g clip-path="url(#v)">
        <path d="m392.75 376.2a1.35 1.35 0 1 0 -1.26-1.35 1.31 1.31 0 0 0 1.26 1.35z"></path>
        <path d="m380.2 376.2a1.35 1.35 0 1 0 -1.26-1.35 1.31 1.31 0 0 0 1.26 1.35z"></path>
        <path d="m392.75 362.7a1.35 1.35 0 1 0 -1.26-1.35 1.31 1.31 0 0 0 1.26 1.35z"></path>
        <path d="m380.2 362.7a1.35 1.35 0 1 0 -1.26-1.35 1.31 1.31 0 0 0 1.26 1.35z"></path>
        <path d="m373.92 369.45a1.35 1.35 0 1 0 -1.25-1.35 1.31 1.31 0 0 0 1.25 1.35z"></path>
        <path d="m386.47 369.45a1.35 1.35 0 0 0 0-2.7 1.35 1.35 0 0 0 0 2.7z"></path>
        <path d="m373.92 356a1.35 1.35 0 1 0 -1.25-1.35 1.31 1.31 0 0 0 1.25 1.35z"></path>
        <path d="m386.47 356a1.35 1.35 0 0 0 0-2.7 1.35 1.35 0 0 0 0 2.7z"></path>
        <path d="m367.65 376.2a1.35 1.35 0 1 0 -1.26-1.35 1.31 1.31 0 0 0 1.26 1.35z"></path>
        <path d="m367.65 362.7a1.35 1.35 0 1 0 -1.26-1.35 1.31 1.31 0 0 0 1.26 1.35z"></path>
        <path d="m392.75 349.2a1.35 1.35 0 1 0 -1.26-1.35 1.31 1.31 0 0 0 1.26 1.35z"></path>
        <path d="m380.2 349.2a1.35 1.35 0 1 0 -1.26-1.35 1.31 1.31 0 0 0 1.26 1.35z"></path>
        <path d="m367.65 349.2a1.35 1.35 0 1 0 -1.26-1.35 1.31 1.31 0 0 0 1.26 1.35z"></path>
      </g>
      <g clip-path="url(#w)">
        <path d="m392.75 403.2a1.35 1.35 0 1 0 -1.26-1.35 1.31 1.31 0 0 0 1.26 1.35z"></path>
        <path d="m380.2 403.2a1.35 1.35 0 1 0 -1.26-1.35 1.31 1.31 0 0 0 1.26 1.35z"></path>
        <path d="m392.75 389.7a1.35 1.35 0 1 0 -1.26-1.35 1.31 1.31 0 0 0 1.26 1.35z"></path>
        <path d="m380.2 389.7a1.35 1.35 0 1 0 -1.26-1.35 1.31 1.31 0 0 0 1.26 1.35z"></path>
        <path d="m373.92 396.45a1.35 1.35 0 1 0 -1.25-1.35 1.31 1.31 0 0 0 1.25 1.35z"></path>
        <path d="m386.47 396.45a1.35 1.35 0 0 0 0-2.7 1.35 1.35 0 0 0 0 2.7z"></path>
        <path d="m373.92 383a1.35 1.35 0 1 0 -1.25-1.35 1.31 1.31 0 0 0 1.25 1.35z"></path>
        <path d="m386.47 383a1.35 1.35 0 0 0 0-2.7 1.35 1.35 0 0 0 0 2.7z"></path>
        <path d="m367.65 403.2a1.35 1.35 0 1 0 -1.26-1.35 1.31 1.31 0 0 0 1.26 1.35z"></path>
        <path d="m367.65 389.7a1.35 1.35 0 1 0 -1.26-1.35 1.31 1.31 0 0 0 1.26 1.35z"></path>
        <path d="m392.75 376.2a1.35 1.35 0 1 0 -1.26-1.35 1.31 1.31 0 0 0 1.26 1.35z"></path>
        <path d="m380.2 376.2a1.35 1.35 0 1 0 -1.26-1.35 1.31 1.31 0 0 0 1.26 1.35z"></path>
        <path d="m367.65 376.2a1.35 1.35 0 1 0 -1.26-1.35 1.31 1.31 0 0 0 1.26 1.35z"></path>
      </g>
      <g clip-path="url(#x)">
        <path d="m392.75 430.2a1.35 1.35 0 1 0 -1.26-1.35 1.31 1.31 0 0 0 1.26 1.35z"></path>
        <path d="m380.2 430.2a1.35 1.35 0 1 0 -1.26-1.35 1.31 1.31 0 0 0 1.26 1.35z"></path>
        <path d="m392.75 416.7a1.35 1.35 0 1 0 -1.26-1.35 1.31 1.31 0 0 0 1.26 1.35z"></path>
        <path d="m380.2 416.7a1.35 1.35 0 1 0 -1.26-1.35 1.31 1.31 0 0 0 1.26 1.35z"></path>
        <path d="m373.92 423.45a1.35 1.35 0 1 0 -1.25-1.35 1.31 1.31 0 0 0 1.25 1.35z"></path>
        <path d="m386.47 423.45a1.35 1.35 0 0 0 0-2.7 1.35 1.35 0 0 0 0 2.7z"></path>
        <path d="m373.92 410a1.35 1.35 0 1 0 -1.25-1.35 1.31 1.31 0 0 0 1.25 1.35z"></path>
        <path d="m386.47 410a1.35 1.35 0 0 0 0-2.7 1.35 1.35 0 0 0 0 2.7z"></path>
        <path d="m367.65 430.2a1.35 1.35 0 1 0 -1.26-1.35 1.31 1.31 0 0 0 1.26 1.35z"></path>
        <path d="m367.65 416.7a1.35 1.35 0 1 0 -1.26-1.35 1.31 1.31 0 0 0 1.26 1.35z"></path>
        <path d="m392.75 403.2a1.35 1.35 0 1 0 -1.26-1.35 1.31 1.31 0 0 0 1.26 1.35z"></path>
        <path d="m380.2 403.2a1.35 1.35 0 1 0 -1.26-1.35 1.31 1.31 0 0 0 1.26 1.35z"></path>
        <path d="m367.65 403.2a1.35 1.35 0 1 0 -1.26-1.35 1.31 1.31 0 0 0 1.26 1.35z"></path>
      </g>
      <g clip-path="url(#y)">
        <path d="m392.75 457.2a1.35 1.35 0 1 0 -1.26-1.35 1.31 1.31 0 0 0 1.26 1.35z"></path>
        <path d="m380.2 457.2a1.35 1.35 0 1 0 -1.26-1.35 1.31 1.31 0 0 0 1.26 1.35z"></path>
        <path d="m392.75 443.7a1.35 1.35 0 1 0 -1.26-1.35 1.31 1.31 0 0 0 1.26 1.35z"></path>
        <path d="m380.2 443.7a1.35 1.35 0 1 0 -1.26-1.35 1.31 1.31 0 0 0 1.26 1.35z"></path>
        <path d="m373.92 450.45a1.35 1.35 0 1 0 -1.25-1.35 1.3 1.3 0 0 0 1.25 1.35z"></path>
        <path d="m386.47 450.45a1.35 1.35 0 1 0 -1.25-1.35 1.31 1.31 0 0 0 1.25 1.35z"></path>
        <path d="m373.92 437a1.35 1.35 0 1 0 -1.25-1.35 1.31 1.31 0 0 0 1.25 1.35z"></path>
        <path d="m386.47 437a1.35 1.35 0 0 0 0-2.7 1.35 1.35 0 0 0 0 2.7z"></path>
        <path d="m367.65 457.2a1.35 1.35 0 1 0 -1.26-1.35 1.31 1.31 0 0 0 1.26 1.35z"></path>
        <path d="m367.65 443.7a1.35 1.35 0 1 0 -1.26-1.35 1.31 1.31 0 0 0 1.26 1.35z"></path>
        <path d="m392.75 430.2a1.35 1.35 0 1 0 -1.26-1.35 1.31 1.31 0 0 0 1.26 1.35z"></path>
        <path d="m380.2 430.2a1.35 1.35 0 1 0 -1.26-1.35 1.31 1.31 0 0 0 1.26 1.35z"></path>
        <path d="m367.65 430.2a1.35 1.35 0 1 0 -1.26-1.35 1.31 1.31 0 0 0 1.26 1.35z"></path>
      </g>
      <g clip-path="url(#z)">
        <path d="m392.75 484.2a1.35 1.35 0 1 0 -1.26-1.35 1.3 1.3 0 0 0 1.26 1.35z"></path>
        <path d="m380.2 484.2a1.35 1.35 0 1 0 -1.26-1.35 1.3 1.3 0 0 0 1.26 1.35z"></path>
        <path d="m392.75 470.7a1.35 1.35 0 1 0 -1.26-1.35 1.31 1.31 0 0 0 1.26 1.35z"></path>
        <path d="m380.2 470.7a1.35 1.35 0 1 0 -1.26-1.35 1.31 1.31 0 0 0 1.26 1.35z"></path>
        <path d="m373.92 477.45a1.35 1.35 0 1 0 -1.25-1.35 1.3 1.3 0 0 0 1.25 1.35z"></path>
        <path d="m386.47 477.45a1.35 1.35 0 1 0 -1.25-1.35 1.31 1.31 0 0 0 1.25 1.35z"></path>
        <path d="m373.92 464a1.35 1.35 0 1 0 -1.25-1.35 1.3 1.3 0 0 0 1.25 1.35z"></path>
        <path d="m386.47 464a1.35 1.35 0 1 0 -1.25-1.35 1.31 1.31 0 0 0 1.25 1.35z"></path>
        <path d="m367.65 484.2a1.35 1.35 0 1 0 -1.26-1.35 1.3 1.3 0 0 0 1.26 1.35z"></path>
        <path d="m367.65 470.7a1.35 1.35 0 1 0 -1.26-1.35 1.31 1.31 0 0 0 1.26 1.35z"></path>
        <path d="m392.75 457.2a1.35 1.35 0 1 0 -1.26-1.35 1.31 1.31 0 0 0 1.26 1.35z"></path>
        <path d="m380.2 457.2a1.35 1.35 0 1 0 -1.26-1.35 1.31 1.31 0 0 0 1.26 1.35z"></path>
        <path d="m367.65 457.2a1.35 1.35 0 1 0 -1.26-1.35 1.31 1.31 0 0 0 1.26 1.35z"></path>
      </g>
      <g clip-path="url(#A)">
        <path d="m367.65 376.2a1.35 1.35 0 1 0 -1.26-1.35 1.31 1.31 0 0 0 1.26 1.35z"></path>
        <path d="m355.1 376.2a1.35 1.35 0 0 0 0-2.7 1.35 1.35 0 0 0 0 2.7z"></path>
        <path d="m367.65 362.7a1.35 1.35 0 1 0 -1.26-1.35 1.31 1.31 0 0 0 1.26 1.35z"></path>
        <path d="m355.1 362.7a1.35 1.35 0 0 0 0-2.7 1.35 1.35 0 0 0 0 2.7z"></path>
        <path d="m348.83 369.45a1.35 1.35 0 1 0 -1.26-1.35 1.31 1.31 0 0 0 1.26 1.35z"></path>
        <path d="m361.38 369.45a1.35 1.35 0 1 0 -1.26-1.35 1.31 1.31 0 0 0 1.26 1.35z"></path>
        <path d="m348.83 356a1.35 1.35 0 1 0 -1.26-1.35 1.31 1.31 0 0 0 1.26 1.35z"></path>
        <path d="m361.38 356a1.35 1.35 0 1 0 -1.26-1.35 1.31 1.31 0 0 0 1.26 1.35z"></path>
        <path d="m342.55 376.2a1.35 1.35 0 1 0 -1.25-1.35 1.31 1.31 0 0 0 1.25 1.35z"></path>
        <path d="m342.55 362.7a1.35 1.35 0 1 0 -1.25-1.35 1.31 1.31 0 0 0 1.25 1.35z"></path>
        <path d="m367.65 349.2a1.35 1.35 0 1 0 -1.26-1.35 1.31 1.31 0 0 0 1.26 1.35z"></path>
        <path d="m355.1 349.2a1.35 1.35 0 0 0 0-2.7 1.35 1.35 0 0 0 0 2.7z"></path>
        <path d="m342.55 349.2a1.35 1.35 0 1 0 -1.25-1.35 1.31 1.31 0 0 0 1.25 1.35z"></path>
      </g>
      <g clip-path="url(#B)">
        <path d="m367.65 403.2a1.35 1.35 0 1 0 -1.26-1.35 1.31 1.31 0 0 0 1.26 1.35z"></path>
        <path d="m355.1 403.2a1.35 1.35 0 0 0 0-2.7 1.35 1.35 0 0 0 0 2.7z"></path>
        <path d="m367.65 389.7a1.35 1.35 0 1 0 -1.26-1.35 1.31 1.31 0 0 0 1.26 1.35z"></path>
        <path d="m355.1 389.7a1.35 1.35 0 0 0 0-2.7 1.35 1.35 0 0 0 0 2.7z"></path>
        <path d="m348.83 396.45a1.35 1.35 0 1 0 -1.26-1.35 1.31 1.31 0 0 0 1.26 1.35z"></path>
        <path d="m361.38 396.45a1.35 1.35 0 1 0 -1.26-1.35 1.31 1.31 0 0 0 1.26 1.35z"></path>
        <path d="m348.83 383a1.35 1.35 0 1 0 -1.26-1.35 1.31 1.31 0 0 0 1.26 1.35z"></path>
        <path d="m361.38 383a1.35 1.35 0 1 0 -1.26-1.35 1.31 1.31 0 0 0 1.26 1.35z"></path>
        <path d="m342.55 403.2a1.35 1.35 0 1 0 -1.25-1.35 1.31 1.31 0 0 0 1.25 1.35z"></path>
        <path d="m342.55 389.7a1.35 1.35 0 1 0 -1.25-1.35 1.31 1.31 0 0 0 1.25 1.35z"></path>
        <path d="m367.65 376.2a1.35 1.35 0 1 0 -1.26-1.35 1.31 1.31 0 0 0 1.26 1.35z"></path>
        <path d="m355.1 376.2a1.35 1.35 0 0 0 0-2.7 1.35 1.35 0 0 0 0 2.7z"></path>
        <path d="m342.55 376.2a1.35 1.35 0 1 0 -1.25-1.35 1.31 1.31 0 0 0 1.25 1.35z"></path>
      </g>
      <g clip-path="url(#C)">
        <path d="m367.65 430.2a1.35 1.35 0 1 0 -1.26-1.35 1.31 1.31 0 0 0 1.26 1.35z"></path>
        <path d="m355.1 430.2a1.35 1.35 0 0 0 0-2.7 1.35 1.35 0 0 0 0 2.7z"></path>
        <path d="m367.65 416.7a1.35 1.35 0 1 0 -1.26-1.35 1.31 1.31 0 0 0 1.26 1.35z"></path>
        <path d="m355.1 416.7a1.35 1.35 0 0 0 0-2.7 1.35 1.35 0 0 0 0 2.7z"></path>
        <path d="m348.83 423.45a1.35 1.35 0 1 0 -1.26-1.35 1.31 1.31 0 0 0 1.26 1.35z"></path>
        <path d="m361.38 423.45a1.35 1.35 0 1 0 -1.26-1.35 1.31 1.31 0 0 0 1.26 1.35z"></path>
        <path d="m348.83 410a1.35 1.35 0 1 0 -1.26-1.35 1.31 1.31 0 0 0 1.26 1.35z"></path>
        <path d="m361.38 410a1.35 1.35 0 1 0 -1.26-1.35 1.31 1.31 0 0 0 1.26 1.35z"></path>
        <path d="m342.55 430.2a1.35 1.35 0 1 0 -1.25-1.35 1.31 1.31 0 0 0 1.25 1.35z"></path>
        <path d="m342.55 416.7a1.35 1.35 0 1 0 -1.25-1.35 1.31 1.31 0 0 0 1.25 1.35z"></path>
        <path d="m367.65 403.2a1.35 1.35 0 1 0 -1.26-1.35 1.31 1.31 0 0 0 1.26 1.35z"></path>
        <path d="m355.1 403.2a1.35 1.35 0 0 0 0-2.7 1.35 1.35 0 0 0 0 2.7z"></path>
        <path d="m342.55 403.2a1.35 1.35 0 1 0 -1.25-1.35 1.31 1.31 0 0 0 1.25 1.35z"></path>
      </g>
      <g clip-path="url(#D)">
        <path d="m367.65 457.2a1.35 1.35 0 1 0 -1.26-1.35 1.31 1.31 0 0 0 1.26 1.35z"></path>
        <path d="m355.1 457.2a1.35 1.35 0 0 0 0-2.7 1.35 1.35 0 0 0 0 2.7z"></path>
        <path d="m367.65 443.7a1.35 1.35 0 1 0 -1.26-1.35 1.31 1.31 0 0 0 1.26 1.35z"></path>
        <path d="m355.1 443.7a1.35 1.35 0 0 0 0-2.7 1.35 1.35 0 0 0 0 2.7z"></path>
        <path d="m348.83 450.45a1.35 1.35 0 1 0 -1.26-1.35 1.3 1.3 0 0 0 1.26 1.35z"></path>
        <path d="m361.38 450.45a1.35 1.35 0 1 0 -1.26-1.35 1.3 1.3 0 0 0 1.26 1.35z"></path>
        <path d="m348.83 437a1.35 1.35 0 1 0 -1.26-1.35 1.31 1.31 0 0 0 1.26 1.35z"></path>
        <path d="m361.38 437a1.35 1.35 0 1 0 -1.26-1.35 1.31 1.31 0 0 0 1.26 1.35z"></path>
        <path d="m342.55 457.2a1.35 1.35 0 1 0 -1.25-1.35 1.31 1.31 0 0 0 1.25 1.35z"></path>
        <path d="m342.55 443.7a1.35 1.35 0 1 0 -1.25-1.35 1.31 1.31 0 0 0 1.25 1.35z"></path>
        <path d="m367.65 430.2a1.35 1.35 0 1 0 -1.26-1.35 1.31 1.31 0 0 0 1.26 1.35z"></path>
        <path d="m355.1 430.2a1.35 1.35 0 0 0 0-2.7 1.35 1.35 0 0 0 0 2.7z"></path>
        <path d="m342.55 430.2a1.35 1.35 0 1 0 -1.25-1.35 1.31 1.31 0 0 0 1.25 1.35z"></path>
      </g>
      <g clip-path="url(#E)">
        <path d="m367.65 484.2a1.35 1.35 0 1 0 -1.26-1.35 1.3 1.3 0 0 0 1.26 1.35z"></path>
        <path d="m355.1 484.2a1.35 1.35 0 1 0 -1.25-1.35 1.31 1.31 0 0 0 1.25 1.35z"></path>
        <path d="m367.65 470.7a1.35 1.35 0 1 0 -1.26-1.35 1.31 1.31 0 0 0 1.26 1.35z"></path>
        <path d="m355.1 470.7a1.35 1.35 0 0 0 0-2.7 1.35 1.35 0 0 0 0 2.7z"></path>
        <path d="m348.83 477.45a1.35 1.35 0 1 0 -1.26-1.35 1.3 1.3 0 0 0 1.26 1.35z"></path>
        <path d="m361.38 477.45a1.35 1.35 0 1 0 -1.26-1.35 1.3 1.3 0 0 0 1.26 1.35z"></path>
        <path d="m348.83 464a1.35 1.35 0 1 0 -1.26-1.35 1.3 1.3 0 0 0 1.26 1.35z"></path>
        <path d="m361.38 464a1.35 1.35 0 1 0 -1.26-1.35 1.3 1.3 0 0 0 1.26 1.35z"></path>
        <path d="m342.55 484.2a1.35 1.35 0 1 0 -1.25-1.35 1.3 1.3 0 0 0 1.25 1.35z"></path>
        <path d="m342.55 470.7a1.35 1.35 0 1 0 -1.25-1.35 1.31 1.31 0 0 0 1.25 1.35z"></path>
        <path d="m367.65 457.2a1.35 1.35 0 1 0 -1.26-1.35 1.31 1.31 0 0 0 1.26 1.35z"></path>
        <path d="m355.1 457.2a1.35 1.35 0 0 0 0-2.7 1.35 1.35 0 0 0 0 2.7z"></path>
        <path d="m342.55 457.2a1.35 1.35 0 1 0 -1.25-1.35 1.31 1.31 0 0 0 1.25 1.35z"></path>
      </g>
      <g clip-path="url(#F)">
        <path d="m342.55 376.2a1.35 1.35 0 1 0 -1.25-1.35 1.31 1.31 0 0 0 1.25 1.35z"></path>
        <path d="m330 376.2a1.35 1.35 0 1 0 -1.25-1.35 1.31 1.31 0 0 0 1.25 1.35z"></path>
        <path d="m342.55 362.7a1.35 1.35 0 1 0 -1.25-1.35 1.31 1.31 0 0 0 1.25 1.35z"></path>
        <path d="m330 362.7a1.35 1.35 0 1 0 -1.25-1.35 1.31 1.31 0 0 0 1.25 1.35z"></path>
        <path d="m323.73 369.45a1.35 1.35 0 0 0 0-2.7 1.35 1.35 0 0 0 0 2.7z"></path>
        <path d="m336.28 369.45a1.35 1.35 0 1 0 -1.28-1.35 1.31 1.31 0 0 0 1.28 1.35z"></path>
        <path d="m323.73 356a1.35 1.35 0 0 0 0-2.7 1.35 1.35 0 0 0 0 2.7z"></path>
        <path d="m336.28 356a1.35 1.35 0 1 0 -1.28-1.4 1.31 1.31 0 0 0 1.28 1.4z"></path>
        <path d="m317.46 376.2a1.35 1.35 0 1 0 -1.26-1.35 1.31 1.31 0 0 0 1.26 1.35z"></path>
        <path d="m317.46 362.7a1.35 1.35 0 1 0 -1.26-1.35 1.31 1.31 0 0 0 1.26 1.35z"></path>
        <path d="m342.55 349.2a1.35 1.35 0 1 0 -1.25-1.35 1.31 1.31 0 0 0 1.25 1.35z"></path>
        <path d="m330 349.2a1.35 1.35 0 1 0 -1.25-1.35 1.31 1.31 0 0 0 1.25 1.35z"></path>
        <path d="m317.46 349.2a1.35 1.35 0 1 0 -1.26-1.35 1.31 1.31 0 0 0 1.26 1.35z"></path>
      </g>
      <g clip-path="url(#G)">
        <path d="m342.55 403.2a1.35 1.35 0 1 0 -1.25-1.35 1.31 1.31 0 0 0 1.25 1.35z"></path>
        <path d="m330 403.2a1.35 1.35 0 1 0 -1.25-1.35 1.31 1.31 0 0 0 1.25 1.35z"></path>
        <path d="m342.55 389.7a1.35 1.35 0 1 0 -1.25-1.35 1.31 1.31 0 0 0 1.25 1.35z"></path>
        <path d="m330 389.7a1.35 1.35 0 1 0 -1.25-1.35 1.31 1.31 0 0 0 1.25 1.35z"></path>
        <path d="m323.73 396.45a1.35 1.35 0 0 0 0-2.7 1.35 1.35 0 0 0 0 2.7z"></path>
        <path d="m336.28 396.45a1.35 1.35 0 1 0 -1.28-1.35 1.31 1.31 0 0 0 1.28 1.35z"></path>
        <path d="m323.73 383a1.35 1.35 0 0 0 0-2.7 1.35 1.35 0 0 0 0 2.7z"></path>
        <path d="m336.28 383a1.35 1.35 0 1 0 -1.28-1.4 1.31 1.31 0 0 0 1.28 1.4z"></path>
        <path d="m317.46 403.2a1.35 1.35 0 1 0 -1.26-1.35 1.31 1.31 0 0 0 1.26 1.35z"></path>
        <path d="m317.46 389.7a1.35 1.35 0 1 0 -1.26-1.35 1.31 1.31 0 0 0 1.26 1.35z"></path>
        <path d="m342.55 376.2a1.35 1.35 0 1 0 -1.25-1.35 1.31 1.31 0 0 0 1.25 1.35z"></path>
        <path d="m330 376.2a1.35 1.35 0 1 0 -1.25-1.35 1.31 1.31 0 0 0 1.25 1.35z"></path>
        <path d="m317.46 376.2a1.35 1.35 0 1 0 -1.26-1.35 1.31 1.31 0 0 0 1.26 1.35z"></path>
      </g>
      <g clip-path="url(#H)">
        <path d="m342.55 430.2a1.35 1.35 0 1 0 -1.25-1.35 1.31 1.31 0 0 0 1.25 1.35z"></path>
        <path d="m330 430.2a1.35 1.35 0 1 0 -1.25-1.35 1.31 1.31 0 0 0 1.25 1.35z"></path>
        <path d="m342.55 416.7a1.35 1.35 0 1 0 -1.25-1.35 1.31 1.31 0 0 0 1.25 1.35z"></path>
        <path d="m330 416.7a1.35 1.35 0 1 0 -1.25-1.35 1.31 1.31 0 0 0 1.25 1.35z"></path>
        <path d="m323.73 423.45a1.35 1.35 0 0 0 0-2.7 1.35 1.35 0 0 0 0 2.7z"></path>
        <path d="m336.28 423.45a1.35 1.35 0 1 0 -1.28-1.35 1.31 1.31 0 0 0 1.28 1.35z"></path>
        <path d="m323.73 410a1.35 1.35 0 0 0 0-2.7 1.35 1.35 0 0 0 0 2.7z"></path>
        <path d="m336.28 410a1.35 1.35 0 1 0 -1.28-1.4 1.31 1.31 0 0 0 1.28 1.4z"></path>
        <path d="m317.46 430.2a1.35 1.35 0 1 0 -1.26-1.35 1.31 1.31 0 0 0 1.26 1.35z"></path>
        <path d="m317.46 416.7a1.35 1.35 0 1 0 -1.26-1.35 1.31 1.31 0 0 0 1.26 1.35z"></path>
        <path d="m342.55 403.2a1.35 1.35 0 1 0 -1.25-1.35 1.31 1.31 0 0 0 1.25 1.35z"></path>
        <path d="m330 403.2a1.35 1.35 0 1 0 -1.25-1.35 1.31 1.31 0 0 0 1.25 1.35z"></path>
        <path d="m317.46 403.2a1.35 1.35 0 1 0 -1.26-1.35 1.31 1.31 0 0 0 1.26 1.35z"></path>
      </g>
      <g clip-path="url(#I)">
        <path d="m342.55 457.2a1.35 1.35 0 1 0 -1.25-1.35 1.31 1.31 0 0 0 1.25 1.35z"></path>
        <path d="m330 457.2a1.35 1.35 0 1 0 -1.25-1.35 1.31 1.31 0 0 0 1.25 1.35z"></path>
        <path d="m342.55 443.7a1.35 1.35 0 1 0 -1.25-1.35 1.31 1.31 0 0 0 1.25 1.35z"></path>
        <path d="m330 443.7a1.35 1.35 0 1 0 -1.25-1.35 1.31 1.31 0 0 0 1.25 1.35z"></path>
        <path d="m323.73 450.45a1.35 1.35 0 1 0 -1.25-1.35 1.31 1.31 0 0 0 1.25 1.35z"></path>
        <path d="m336.28 450.45a1.35 1.35 0 1 0 -1.28-1.35 1.3 1.3 0 0 0 1.28 1.35z"></path>
        <path d="m323.73 437a1.35 1.35 0 0 0 0-2.7 1.35 1.35 0 0 0 0 2.7z"></path>
        <path d="m336.28 437a1.35 1.35 0 1 0 -1.28-1.4 1.31 1.31 0 0 0 1.28 1.4z"></path>
        <path d="m317.46 457.2a1.35 1.35 0 1 0 -1.26-1.35 1.31 1.31 0 0 0 1.26 1.35z"></path>
        <path d="m317.46 443.7a1.35 1.35 0 1 0 -1.26-1.35 1.31 1.31 0 0 0 1.26 1.35z"></path>
        <path d="m342.55 430.2a1.35 1.35 0 1 0 -1.25-1.35 1.31 1.31 0 0 0 1.25 1.35z"></path>
        <path d="m330 430.2a1.35 1.35 0 1 0 -1.25-1.35 1.31 1.31 0 0 0 1.25 1.35z"></path>
        <path d="m317.46 430.2a1.35 1.35 0 1 0 -1.26-1.35 1.31 1.31 0 0 0 1.26 1.35z"></path>
      </g>
      <g clip-path="url(#J)">
        <path d="m342.55 484.2a1.35 1.35 0 1 0 -1.25-1.35 1.3 1.3 0 0 0 1.25 1.35z"></path>
        <path d="m330 484.2a1.35 1.35 0 1 0 -1.25-1.35 1.3 1.3 0 0 0 1.25 1.35z"></path>
        <path d="m342.55 470.7a1.35 1.35 0 1 0 -1.25-1.35 1.31 1.31 0 0 0 1.25 1.35z"></path>
        <path d="m330 470.7a1.35 1.35 0 1 0 -1.25-1.35 1.31 1.31 0 0 0 1.25 1.35z"></path>
        <path d="m323.73 477.45a1.35 1.35 0 1 0 -1.25-1.35 1.31 1.31 0 0 0 1.25 1.35z"></path>
        <path d="m336.28 477.45a1.35 1.35 0 1 0 -1.28-1.35 1.3 1.3 0 0 0 1.28 1.35z"></path>
        <path d="m323.73 464a1.35 1.35 0 1 0 -1.25-1.35 1.31 1.31 0 0 0 1.25 1.35z"></path>
        <path d="m336.28 464a1.35 1.35 0 1 0 -1.28-1.4 1.3 1.3 0 0 0 1.28 1.4z"></path>
        <path d="m317.46 484.2a1.35 1.35 0 1 0 -1.26-1.35 1.3 1.3 0 0 0 1.26 1.35z"></path>
        <path d="m317.46 470.7a1.35 1.35 0 1 0 -1.26-1.35 1.31 1.31 0 0 0 1.26 1.35z"></path>
        <path d="m342.55 457.2a1.35 1.35 0 1 0 -1.25-1.35 1.31 1.31 0 0 0 1.25 1.35z"></path>
        <path d="m330 457.2a1.35 1.35 0 1 0 -1.25-1.35 1.31 1.31 0 0 0 1.25 1.35z"></path>
        <path d="m317.46 457.2a1.35 1.35 0 1 0 -1.26-1.35 1.31 1.31 0 0 0 1.26 1.35z"></path>
      </g>
      <g clip-path="url(#K)">
        <path d="m317.46 376.2a1.35 1.35 0 1 0 -1.26-1.35 1.31 1.31 0 0 0 1.26 1.35z"></path>
        <path d="m304.91 376.2a1.35 1.35 0 1 0 -1.26-1.35 1.31 1.31 0 0 0 1.26 1.35z"></path>
        <path d="m317.46 362.7a1.35 1.35 0 1 0 -1.26-1.35 1.31 1.31 0 0 0 1.26 1.35z"></path>
        <path d="m304.91 362.7a1.35 1.35 0 1 0 -1.26-1.35 1.31 1.31 0 0 0 1.26 1.35z"></path>
        <path d="m298.63 369.45a1.35 1.35 0 1 0 -1.25-1.35 1.31 1.31 0 0 0 1.25 1.35z"></path>
        <path d="m311.18 369.45a1.35 1.35 0 1 0 -1.25-1.35 1.31 1.31 0 0 0 1.25 1.35z"></path>
        <path d="m298.63 356a1.35 1.35 0 1 0 -1.25-1.35 1.31 1.31 0 0 0 1.25 1.35z"></path>
        <path d="m311.18 356a1.35 1.35 0 1 0 -1.25-1.35 1.31 1.31 0 0 0 1.25 1.35z"></path>
        <path d="m292.36 376.2a1.35 1.35 0 0 0 0-2.7 1.35 1.35 0 0 0 0 2.7z"></path>
        <path d="m292.36 362.7a1.35 1.35 0 0 0 0-2.7 1.35 1.35 0 0 0 0 2.7z"></path>
        <path d="m317.46 349.2a1.35 1.35 0 1 0 -1.26-1.35 1.31 1.31 0 0 0 1.26 1.35z"></path>
        <path d="m304.91 349.2a1.35 1.35 0 1 0 -1.26-1.35 1.31 1.31 0 0 0 1.26 1.35z"></path>
        <path d="m292.36 349.2a1.35 1.35 0 0 0 0-2.7 1.35 1.35 0 0 0 0 2.7z"></path>
      </g>
      <g clip-path="url(#L)">
        <path d="m317.46 403.2a1.35 1.35 0 1 0 -1.26-1.35 1.31 1.31 0 0 0 1.26 1.35z"></path>
        <path d="m304.91 403.2a1.35 1.35 0 1 0 -1.26-1.35 1.31 1.31 0 0 0 1.26 1.35z"></path>
        <path d="m317.46 389.7a1.35 1.35 0 1 0 -1.26-1.35 1.31 1.31 0 0 0 1.26 1.35z"></path>
        <path d="m304.91 389.7a1.35 1.35 0 1 0 -1.26-1.35 1.31 1.31 0 0 0 1.26 1.35z"></path>
        <path d="m298.63 396.45a1.35 1.35 0 1 0 -1.25-1.35 1.31 1.31 0 0 0 1.25 1.35z"></path>
        <path d="m311.18 396.45a1.35 1.35 0 1 0 -1.25-1.35 1.31 1.31 0 0 0 1.25 1.35z"></path>
        <path d="m298.63 383a1.35 1.35 0 1 0 -1.25-1.35 1.31 1.31 0 0 0 1.25 1.35z"></path>
        <path d="m311.18 383a1.35 1.35 0 1 0 -1.25-1.35 1.31 1.31 0 0 0 1.25 1.35z"></path>
        <path d="m292.36 403.2a1.35 1.35 0 0 0 0-2.7 1.35 1.35 0 0 0 0 2.7z"></path>
        <path d="m292.36 389.7a1.35 1.35 0 0 0 0-2.7 1.35 1.35 0 0 0 0 2.7z"></path>
        <path d="m317.46 376.2a1.35 1.35 0 1 0 -1.26-1.35 1.31 1.31 0 0 0 1.26 1.35z"></path>
        <path d="m304.91 376.2a1.35 1.35 0 1 0 -1.26-1.35 1.31 1.31 0 0 0 1.26 1.35z"></path>
        <path d="m292.36 376.2a1.35 1.35 0 0 0 0-2.7 1.35 1.35 0 0 0 0 2.7z"></path>
      </g>
      <g clip-path="url(#M)">
        <path d="m317.46 430.2a1.35 1.35 0 1 0 -1.26-1.35 1.31 1.31 0 0 0 1.26 1.35z"></path>
        <path d="m304.91 430.2a1.35 1.35 0 1 0 -1.26-1.35 1.31 1.31 0 0 0 1.26 1.35z"></path>
        <path d="m317.46 416.7a1.35 1.35 0 1 0 -1.26-1.35 1.31 1.31 0 0 0 1.26 1.35z"></path>
        <path d="m304.91 416.7a1.35 1.35 0 1 0 -1.26-1.35 1.31 1.31 0 0 0 1.26 1.35z"></path>
        <path d="m298.63 423.45a1.35 1.35 0 1 0 -1.25-1.35 1.31 1.31 0 0 0 1.25 1.35z"></path>
        <path d="m311.18 423.45a1.35 1.35 0 1 0 -1.25-1.35 1.31 1.31 0 0 0 1.25 1.35z"></path>
        <path d="m298.63 410a1.35 1.35 0 1 0 -1.25-1.35 1.31 1.31 0 0 0 1.25 1.35z"></path>
        <path d="m311.18 410a1.35 1.35 0 1 0 -1.25-1.35 1.31 1.31 0 0 0 1.25 1.35z"></path>
        <path d="m292.36 430.2a1.35 1.35 0 0 0 0-2.7 1.35 1.35 0 0 0 0 2.7z"></path>
        <path d="m292.36 416.7a1.35 1.35 0 0 0 0-2.7 1.35 1.35 0 0 0 0 2.7z"></path>
        <path d="m317.46 403.2a1.35 1.35 0 1 0 -1.26-1.35 1.31 1.31 0 0 0 1.26 1.35z"></path>
        <path d="m304.91 403.2a1.35 1.35 0 1 0 -1.26-1.35 1.31 1.31 0 0 0 1.26 1.35z"></path>
        <path d="m292.36 403.2a1.35 1.35 0 0 0 0-2.7 1.35 1.35 0 0 0 0 2.7z"></path>
      </g>
      <g clip-path="url(#N)">
        <path d="m317.46 457.2a1.35 1.35 0 1 0 -1.26-1.35 1.31 1.31 0 0 0 1.26 1.35z"></path>
        <path d="m304.91 457.2a1.35 1.35 0 1 0 -1.26-1.35 1.31 1.31 0 0 0 1.26 1.35z"></path>
        <path d="m317.46 443.7a1.35 1.35 0 1 0 -1.26-1.35 1.31 1.31 0 0 0 1.26 1.35z"></path>
        <path d="m304.91 443.7a1.35 1.35 0 1 0 -1.26-1.35 1.31 1.31 0 0 0 1.26 1.35z"></path>
        <path d="m298.63 450.45a1.35 1.35 0 1 0 -1.25-1.35 1.3 1.3 0 0 0 1.25 1.35z"></path>
        <path d="m311.18 450.45a1.35 1.35 0 1 0 -1.25-1.35 1.3 1.3 0 0 0 1.25 1.35z"></path>
        <path d="m298.63 437a1.35 1.35 0 1 0 -1.25-1.35 1.31 1.31 0 0 0 1.25 1.35z"></path>
        <path d="m311.18 437a1.35 1.35 0 1 0 -1.25-1.35 1.31 1.31 0 0 0 1.25 1.35z"></path>
        <path d="m292.36 457.2a1.35 1.35 0 0 0 0-2.7 1.35 1.35 0 0 0 0 2.7z"></path>
        <path d="m292.36 443.7a1.35 1.35 0 0 0 0-2.7 1.35 1.35 0 0 0 0 2.7z"></path>
        <path d="m317.46 430.2a1.35 1.35 0 1 0 -1.26-1.35 1.31 1.31 0 0 0 1.26 1.35z"></path>
        <path d="m304.91 430.2a1.35 1.35 0 1 0 -1.26-1.35 1.31 1.31 0 0 0 1.26 1.35z"></path>
        <path d="m292.36 430.2a1.35 1.35 0 0 0 0-2.7 1.35 1.35 0 0 0 0 2.7z"></path>
      </g>
      <g clip-path="url(#O)">
        <path d="m317.46 484.2a1.35 1.35 0 1 0 -1.26-1.35 1.3 1.3 0 0 0 1.26 1.35z"></path>
        <path d="m304.91 484.2a1.35 1.35 0 1 0 -1.26-1.35 1.3 1.3 0 0 0 1.26 1.35z"></path>
        <path d="m317.46 470.7a1.35 1.35 0 1 0 -1.26-1.35 1.31 1.31 0 0 0 1.26 1.35z"></path>
        <path d="m304.91 470.7a1.35 1.35 0 1 0 -1.26-1.35 1.31 1.31 0 0 0 1.26 1.35z"></path>
        <path d="m298.63 477.45a1.35 1.35 0 1 0 -1.25-1.35 1.3 1.3 0 0 0 1.25 1.35z"></path>
        <path d="m311.18 477.45a1.35 1.35 0 1 0 -1.25-1.35 1.3 1.3 0 0 0 1.25 1.35z"></path>
        <path d="m298.63 464a1.35 1.35 0 1 0 -1.25-1.35 1.3 1.3 0 0 0 1.25 1.35z"></path>
        <path d="m311.18 464a1.35 1.35 0 1 0 -1.25-1.35 1.3 1.3 0 0 0 1.25 1.35z"></path>
        <path d="m292.36 484.2a1.35 1.35 0 1 0 -1.25-1.35 1.31 1.31 0 0 0 1.25 1.35z"></path>
        <path d="m292.36 470.7a1.35 1.35 0 0 0 0-2.7 1.35 1.35 0 0 0 0 2.7z"></path>
        <path d="m317.46 457.2a1.35 1.35 0 1 0 -1.26-1.35 1.31 1.31 0 0 0 1.26 1.35z"></path>
        <path d="m304.91 457.2a1.35 1.35 0 1 0 -1.26-1.35 1.31 1.31 0 0 0 1.26 1.35z"></path>
        <path d="m292.36 457.2a1.35 1.35 0 0 0 0-2.7 1.35 1.35 0 0 0 0 2.7z"></path>
      </g>
      <g clip-path="url(#P)">
        <path d="m292.36 376.2a1.35 1.35 0 0 0 0-2.7 1.35 1.35 0 0 0 0 2.7z"></path>
        <path d="m279.81 376.2a1.35 1.35 0 1 0 -1.25-1.35 1.31 1.31 0 0 0 1.25 1.35z"></path>
        <path d="m292.36 362.7a1.35 1.35 0 0 0 0-2.7 1.35 1.35 0 0 0 0 2.7z"></path>
        <path d="m279.81 362.7a1.35 1.35 0 1 0 -1.25-1.35 1.31 1.31 0 0 0 1.25 1.35z"></path>
        <path d="m273.54 369.45a1.35 1.35 0 1 0 -1.26-1.35 1.31 1.31 0 0 0 1.26 1.35z"></path>
        <path d="m286.09 369.45a1.35 1.35 0 1 0 -1.26-1.35 1.31 1.31 0 0 0 1.26 1.35z"></path>
        <path d="m273.54 356a1.35 1.35 0 1 0 -1.26-1.35 1.31 1.31 0 0 0 1.26 1.35z"></path>
        <path d="m286.09 356a1.35 1.35 0 1 0 -1.26-1.35 1.31 1.31 0 0 0 1.26 1.35z"></path>
        <path d="m267.27 376.2a1.35 1.35 0 1 0 -1.26-1.35 1.31 1.31 0 0 0 1.26 1.35z"></path>
        <path d="m267.27 362.7a1.35 1.35 0 1 0 -1.26-1.35 1.31 1.31 0 0 0 1.26 1.35z"></path>
        <path d="m292.36 349.2a1.35 1.35 0 0 0 0-2.7 1.35 1.35 0 0 0 0 2.7z"></path>
        <path d="m279.81 349.2a1.35 1.35 0 1 0 -1.25-1.35 1.31 1.31 0 0 0 1.25 1.35z"></path>
        <path d="m267.27 349.2a1.35 1.35 0 1 0 -1.26-1.35 1.31 1.31 0 0 0 1.26 1.35z"></path>
      </g>
      <g clip-path="url(#Q)">
        <path d="m292.36 403.2a1.35 1.35 0 0 0 0-2.7 1.35 1.35 0 0 0 0 2.7z"></path>
        <path d="m279.81 403.2a1.35 1.35 0 1 0 -1.25-1.35 1.31 1.31 0 0 0 1.25 1.35z"></path>
        <path d="m292.36 389.7a1.35 1.35 0 0 0 0-2.7 1.35 1.35 0 0 0 0 2.7z"></path>
        <path d="m279.81 389.7a1.35 1.35 0 1 0 -1.25-1.35 1.31 1.31 0 0 0 1.25 1.35z"></path>
        <path d="m273.54 396.45a1.35 1.35 0 1 0 -1.26-1.35 1.31 1.31 0 0 0 1.26 1.35z"></path>
        <path d="m286.09 396.45a1.35 1.35 0 1 0 -1.26-1.35 1.31 1.31 0 0 0 1.26 1.35z"></path>
        <path d="m273.54 383a1.35 1.35 0 1 0 -1.26-1.35 1.31 1.31 0 0 0 1.26 1.35z"></path>
        <path d="m286.09 383a1.35 1.35 0 1 0 -1.26-1.35 1.31 1.31 0 0 0 1.26 1.35z"></path>
        <path d="m267.27 403.2a1.35 1.35 0 1 0 -1.26-1.35 1.31 1.31 0 0 0 1.26 1.35z"></path>
        <path d="m267.27 389.7a1.35 1.35 0 1 0 -1.26-1.35 1.31 1.31 0 0 0 1.26 1.35z"></path>
        <path d="m292.36 376.2a1.35 1.35 0 0 0 0-2.7 1.35 1.35 0 0 0 0 2.7z"></path>
        <path d="m279.81 376.2a1.35 1.35 0 1 0 -1.25-1.35 1.31 1.31 0 0 0 1.25 1.35z"></path>
        <path d="m267.27 376.2a1.35 1.35 0 1 0 -1.26-1.35 1.31 1.31 0 0 0 1.26 1.35z"></path>
      </g>
      <g clip-path="url(#R)">
        <path d="m292.36 430.2a1.35 1.35 0 0 0 0-2.7 1.35 1.35 0 0 0 0 2.7z"></path>
        <path d="m279.81 430.2a1.35 1.35 0 1 0 -1.25-1.35 1.31 1.31 0 0 0 1.25 1.35z"></path>
        <path d="m292.36 416.7a1.35 1.35 0 0 0 0-2.7 1.35 1.35 0 0 0 0 2.7z"></path>
        <path d="m279.81 416.7a1.35 1.35 0 1 0 -1.25-1.35 1.31 1.31 0 0 0 1.25 1.35z"></path>
        <path d="m273.54 423.45a1.35 1.35 0 1 0 -1.26-1.35 1.31 1.31 0 0 0 1.26 1.35z"></path>
        <path d="m286.09 423.45a1.35 1.35 0 1 0 -1.26-1.35 1.31 1.31 0 0 0 1.26 1.35z"></path>
        <path d="m273.54 410a1.35 1.35 0 1 0 -1.26-1.35 1.31 1.31 0 0 0 1.26 1.35z"></path>
        <path d="m286.09 410a1.35 1.35 0 1 0 -1.26-1.35 1.31 1.31 0 0 0 1.26 1.35z"></path>
        <path d="m267.27 430.2a1.35 1.35 0 1 0 -1.26-1.35 1.31 1.31 0 0 0 1.26 1.35z"></path>
        <path d="m267.27 416.7a1.35 1.35 0 1 0 -1.26-1.35 1.31 1.31 0 0 0 1.26 1.35z"></path>
        <path d="m292.36 403.2a1.35 1.35 0 0 0 0-2.7 1.35 1.35 0 0 0 0 2.7z"></path>
        <path d="m279.81 403.2a1.35 1.35 0 1 0 -1.25-1.35 1.31 1.31 0 0 0 1.25 1.35z"></path>
        <path d="m267.27 403.2a1.35 1.35 0 1 0 -1.26-1.35 1.31 1.31 0 0 0 1.26 1.35z"></path>
      </g>
      <g clip-path="url(#S)">
        <path d="m292.36 457.2a1.35 1.35 0 0 0 0-2.7 1.35 1.35 0 0 0 0 2.7z"></path>
        <path d="m279.81 457.2a1.35 1.35 0 1 0 -1.25-1.35 1.31 1.31 0 0 0 1.25 1.35z"></path>
        <path d="m292.36 443.7a1.35 1.35 0 0 0 0-2.7 1.35 1.35 0 0 0 0 2.7z"></path>
        <path d="m279.81 443.7a1.35 1.35 0 1 0 -1.25-1.35 1.31 1.31 0 0 0 1.25 1.35z"></path>
        <path d="m273.54 450.45a1.35 1.35 0 1 0 -1.26-1.35 1.3 1.3 0 0 0 1.26 1.35z"></path>
        <path d="m286.09 450.45a1.35 1.35 0 1 0 -1.26-1.35 1.3 1.3 0 0 0 1.26 1.35z"></path>
        <path d="m273.54 437a1.35 1.35 0 1 0 -1.26-1.35 1.31 1.31 0 0 0 1.26 1.35z"></path>
        <path d="m286.09 437a1.35 1.35 0 1 0 -1.26-1.35 1.31 1.31 0 0 0 1.26 1.35z"></path>
        <path d="m267.27 457.2a1.35 1.35 0 1 0 -1.26-1.35 1.31 1.31 0 0 0 1.26 1.35z"></path>
        <path d="m267.27 443.7a1.35 1.35 0 1 0 -1.26-1.35 1.31 1.31 0 0 0 1.26 1.35z"></path>
        <path d="m292.36 430.2a1.35 1.35 0 0 0 0-2.7 1.35 1.35 0 0 0 0 2.7z"></path>
        <path d="m279.81 430.2a1.35 1.35 0 1 0 -1.25-1.35 1.31 1.31 0 0 0 1.25 1.35z"></path>
        <path d="m267.27 430.2a1.35 1.35 0 1 0 -1.26-1.35 1.31 1.31 0 0 0 1.26 1.35z"></path>
      </g>
      <g clip-path="url(#T)">
        <path d="m292.36 484.2a1.35 1.35 0 1 0 -1.25-1.35 1.31 1.31 0 0 0 1.25 1.35z"></path>
        <path d="m279.81 484.2a1.35 1.35 0 1 0 -1.25-1.35 1.3 1.3 0 0 0 1.25 1.35z"></path>
        <path d="m292.36 470.7a1.35 1.35 0 0 0 0-2.7 1.35 1.35 0 0 0 0 2.7z"></path>
        <path d="m279.81 470.7a1.35 1.35 0 1 0 -1.25-1.35 1.31 1.31 0 0 0 1.25 1.35z"></path>
        <path d="m273.54 477.45a1.35 1.35 0 1 0 -1.26-1.35 1.3 1.3 0 0 0 1.26 1.35z"></path>
        <path d="m286.09 477.45a1.35 1.35 0 1 0 -1.26-1.35 1.3 1.3 0 0 0 1.26 1.35z"></path>
        <path d="m273.54 464a1.35 1.35 0 1 0 -1.26-1.35 1.3 1.3 0 0 0 1.26 1.35z"></path>
        <path d="m286.09 464a1.35 1.35 0 1 0 -1.26-1.35 1.3 1.3 0 0 0 1.26 1.35z"></path>
        <path d="m267.27 484.2a1.35 1.35 0 1 0 -1.26-1.35 1.3 1.3 0 0 0 1.26 1.35z"></path>
        <path d="m267.27 470.7a1.35 1.35 0 1 0 -1.26-1.35 1.31 1.31 0 0 0 1.26 1.35z"></path>
        <path d="m292.36 457.2a1.35 1.35 0 0 0 0-2.7 1.35 1.35 0 0 0 0 2.7z"></path>
        <path d="m279.81 457.2a1.35 1.35 0 1 0 -1.25-1.35 1.31 1.31 0 0 0 1.25 1.35z"></path>
        <path d="m267.27 457.2a1.35 1.35 0 1 0 -1.26-1.35 1.31 1.31 0 0 0 1.26 1.35z"></path>
      </g>
      <g clip-path="url(#U)">
        <path d="m267.27 376.2a1.35 1.35 0 1 0 -1.26-1.35 1.31 1.31 0 0 0 1.26 1.35z"></path>
        <path d="m254.72 376.2a1.35 1.35 0 1 0 -1.26-1.35 1.31 1.31 0 0 0 1.26 1.35z"></path>
        <path d="m267.27 362.7a1.35 1.35 0 1 0 -1.26-1.35 1.31 1.31 0 0 0 1.26 1.35z"></path>
        <path d="m254.72 362.7a1.35 1.35 0 1 0 -1.26-1.35 1.31 1.31 0 0 0 1.26 1.35z"></path>
        <path d="m248.44 369.45a1.35 1.35 0 1 0 -1.25-1.35 1.31 1.31 0 0 0 1.25 1.35z"></path>
        <path d="m261 369.45a1.35 1.35 0 0 0 0-2.7 1.35 1.35 0 0 0 0 2.7z"></path>
        <path d="m248.44 356a1.35 1.35 0 1 0 -1.25-1.35 1.31 1.31 0 0 0 1.25 1.35z"></path>
        <path d="m261 356a1.35 1.35 0 0 0 0-2.7 1.35 1.35 0 0 0 0 2.7z"></path>
        <path d="m242.17 376.2a1.35 1.35 0 1 0 -1.26-1.35 1.31 1.31 0 0 0 1.26 1.35z"></path>
        <path d="m242.17 362.7a1.35 1.35 0 1 0 -1.26-1.35 1.31 1.31 0 0 0 1.26 1.35z"></path>
        <path d="m267.27 349.2a1.35 1.35 0 1 0 -1.26-1.35 1.31 1.31 0 0 0 1.26 1.35z"></path>
        <path d="m254.72 349.2a1.35 1.35 0 1 0 -1.26-1.35 1.31 1.31 0 0 0 1.26 1.35z"></path>
        <path d="m242.17 349.2a1.35 1.35 0 1 0 -1.26-1.35 1.31 1.31 0 0 0 1.26 1.35z"></path>
      </g>
      <g clip-path="url(#V)">
        <path d="m267.27 403.2a1.35 1.35 0 1 0 -1.26-1.35 1.31 1.31 0 0 0 1.26 1.35z"></path>
        <path d="m254.72 403.2a1.35 1.35 0 1 0 -1.26-1.35 1.31 1.31 0 0 0 1.26 1.35z"></path>
        <path d="m267.27 389.7a1.35 1.35 0 1 0 -1.26-1.35 1.31 1.31 0 0 0 1.26 1.35z"></path>
        <path d="m254.72 389.7a1.35 1.35 0 1 0 -1.26-1.35 1.31 1.31 0 0 0 1.26 1.35z"></path>
        <path d="m248.44 396.45a1.35 1.35 0 1 0 -1.25-1.35 1.31 1.31 0 0 0 1.25 1.35z"></path>
        <path d="m261 396.45a1.35 1.35 0 0 0 0-2.7 1.35 1.35 0 0 0 0 2.7z"></path>
        <path d="m248.44 383a1.35 1.35 0 1 0 -1.25-1.35 1.31 1.31 0 0 0 1.25 1.35z"></path>
        <path d="m261 383a1.35 1.35 0 0 0 0-2.7 1.35 1.35 0 0 0 0 2.7z"></path>
        <path d="m242.17 403.2a1.35 1.35 0 1 0 -1.26-1.35 1.31 1.31 0 0 0 1.26 1.35z"></path>
        <path d="m242.17 389.7a1.35 1.35 0 1 0 -1.26-1.35 1.31 1.31 0 0 0 1.26 1.35z"></path>
        <path d="m267.27 376.2a1.35 1.35 0 1 0 -1.26-1.35 1.31 1.31 0 0 0 1.26 1.35z"></path>
        <path d="m254.72 376.2a1.35 1.35 0 1 0 -1.26-1.35 1.31 1.31 0 0 0 1.26 1.35z"></path>
        <path d="m242.17 376.2a1.35 1.35 0 1 0 -1.26-1.35 1.31 1.31 0 0 0 1.26 1.35z"></path>
      </g>
      <g clip-path="url(#W)">
        <path d="m267.27 430.2a1.35 1.35 0 1 0 -1.26-1.35 1.31 1.31 0 0 0 1.26 1.35z"></path>
        <path d="m254.72 430.2a1.35 1.35 0 1 0 -1.26-1.35 1.31 1.31 0 0 0 1.26 1.35z"></path>
        <path d="m267.27 416.7a1.35 1.35 0 1 0 -1.26-1.35 1.31 1.31 0 0 0 1.26 1.35z"></path>
        <path d="m254.72 416.7a1.35 1.35 0 1 0 -1.26-1.35 1.31 1.31 0 0 0 1.26 1.35z"></path>
        <path d="m248.44 423.45a1.35 1.35 0 1 0 -1.25-1.35 1.31 1.31 0 0 0 1.25 1.35z"></path>
        <path d="m261 423.45a1.35 1.35 0 0 0 0-2.7 1.35 1.35 0 0 0 0 2.7z"></path>
        <path d="m248.44 410a1.35 1.35 0 1 0 -1.25-1.35 1.31 1.31 0 0 0 1.25 1.35z"></path>
        <path d="m261 410a1.35 1.35 0 0 0 0-2.7 1.35 1.35 0 0 0 0 2.7z"></path>
        <path d="m242.17 430.2a1.35 1.35 0 1 0 -1.26-1.35 1.31 1.31 0 0 0 1.26 1.35z"></path>
        <path d="m242.17 416.7a1.35 1.35 0 1 0 -1.26-1.35 1.31 1.31 0 0 0 1.26 1.35z"></path>
        <path d="m267.27 403.2a1.35 1.35 0 1 0 -1.26-1.35 1.31 1.31 0 0 0 1.26 1.35z"></path>
        <path d="m254.72 403.2a1.35 1.35 0 1 0 -1.26-1.35 1.31 1.31 0 0 0 1.26 1.35z"></path>
        <path d="m242.17 403.2a1.35 1.35 0 1 0 -1.26-1.35 1.31 1.31 0 0 0 1.26 1.35z"></path>
      </g>
      <g clip-path="url(#X)">
        <path d="m267.27 457.2a1.35 1.35 0 1 0 -1.26-1.35 1.31 1.31 0 0 0 1.26 1.35z"></path>
        <path d="m254.72 457.2a1.35 1.35 0 1 0 -1.26-1.35 1.31 1.31 0 0 0 1.26 1.35z"></path>
        <path d="m267.27 443.7a1.35 1.35 0 1 0 -1.26-1.35 1.31 1.31 0 0 0 1.26 1.35z"></path>
        <path d="m254.72 443.7a1.35 1.35 0 1 0 -1.26-1.35 1.31 1.31 0 0 0 1.26 1.35z"></path>
        <path d="m248.44 450.45a1.35 1.35 0 1 0 -1.25-1.35 1.3 1.3 0 0 0 1.25 1.35z"></path>
        <path d="m261 450.45a1.35 1.35 0 1 0 -1.25-1.35 1.31 1.31 0 0 0 1.25 1.35z"></path>
        <path d="m248.44 437a1.35 1.35 0 1 0 -1.25-1.35 1.31 1.31 0 0 0 1.25 1.35z"></path>
        <path d="m261 437a1.35 1.35 0 0 0 0-2.7 1.35 1.35 0 0 0 0 2.7z"></path>
        <path d="m242.17 457.2a1.35 1.35 0 1 0 -1.26-1.35 1.31 1.31 0 0 0 1.26 1.35z"></path>
        <path d="m242.17 443.7a1.35 1.35 0 1 0 -1.26-1.35 1.31 1.31 0 0 0 1.26 1.35z"></path>
        <path d="m267.27 430.2a1.35 1.35 0 1 0 -1.26-1.35 1.31 1.31 0 0 0 1.26 1.35z"></path>
        <path d="m254.72 430.2a1.35 1.35 0 1 0 -1.26-1.35 1.31 1.31 0 0 0 1.26 1.35z"></path>
        <path d="m242.17 430.2a1.35 1.35 0 1 0 -1.26-1.35 1.31 1.31 0 0 0 1.26 1.35z"></path>
      </g>
      <g clip-path="url(#Y)">
        <path d="m267.27 484.2a1.35 1.35 0 1 0 -1.26-1.35 1.3 1.3 0 0 0 1.26 1.35z"></path>
        <path d="m254.72 484.2a1.35 1.35 0 1 0 -1.26-1.35 1.3 1.3 0 0 0 1.26 1.35z"></path>
        <path d="m267.27 470.7a1.35 1.35 0 1 0 -1.26-1.35 1.31 1.31 0 0 0 1.26 1.35z"></path>
        <path d="m254.72 470.7a1.35 1.35 0 1 0 -1.26-1.35 1.31 1.31 0 0 0 1.26 1.35z"></path>
        <path d="m248.44 477.45a1.35 1.35 0 1 0 -1.25-1.35 1.3 1.3 0 0 0 1.25 1.35z"></path>
        <path d="m261 477.45a1.35 1.35 0 1 0 -1.25-1.35 1.31 1.31 0 0 0 1.25 1.35z"></path>
        <path d="m248.44 464a1.35 1.35 0 1 0 -1.25-1.35 1.3 1.3 0 0 0 1.25 1.35z"></path>
        <path d="m261 464a1.35 1.35 0 1 0 -1.25-1.35 1.31 1.31 0 0 0 1.25 1.35z"></path>
        <path d="m242.17 484.2a1.35 1.35 0 1 0 -1.26-1.35 1.3 1.3 0 0 0 1.26 1.35z"></path>
        <path d="m242.17 470.7a1.35 1.35 0 1 0 -1.26-1.35 1.31 1.31 0 0 0 1.26 1.35z"></path>
        <path d="m267.27 457.2a1.35 1.35 0 1 0 -1.26-1.35 1.31 1.31 0 0 0 1.26 1.35z"></path>
        <path d="m254.72 457.2a1.35 1.35 0 1 0 -1.26-1.35 1.31 1.31 0 0 0 1.26 1.35z"></path>
        <path d="m242.17 457.2a1.35 1.35 0 1 0 -1.26-1.35 1.31 1.31 0 0 0 1.26 1.35z"></path>
      </g>
      <g clip-path="url(#Z)">
        <path d="m242.17 376.2a1.35 1.35 0 1 0 -1.26-1.35 1.31 1.31 0 0 0 1.26 1.35z"></path>
        <path d="m229.62 376.2a1.35 1.35 0 0 0 0-2.7 1.35 1.35 0 0 0 0 2.7z"></path>
        <path d="m242.17 362.7a1.35 1.35 0 1 0 -1.26-1.35 1.31 1.31 0 0 0 1.26 1.35z"></path>
        <path d="m229.62 362.7a1.35 1.35 0 0 0 0-2.7 1.35 1.35 0 0 0 0 2.7z"></path>
        <path d="m223.35 369.45a1.35 1.35 0 1 0 -1.26-1.35 1.31 1.31 0 0 0 1.26 1.35z"></path>
        <path d="m235.9 369.45a1.35 1.35 0 1 0 -1.26-1.35 1.31 1.31 0 0 0 1.26 1.35z"></path>
        <path d="m223.35 356a1.35 1.35 0 1 0 -1.26-1.35 1.31 1.31 0 0 0 1.26 1.35z"></path>
        <path d="m235.9 356a1.35 1.35 0 1 0 -1.26-1.35 1.31 1.31 0 0 0 1.26 1.35z"></path>
        <path d="m217.07 376.2a1.35 1.35 0 1 0 -1.25-1.35 1.31 1.31 0 0 0 1.25 1.35z"></path>
        <path d="m217.07 362.7a1.35 1.35 0 1 0 -1.25-1.35 1.31 1.31 0 0 0 1.25 1.35z"></path>
        <path d="m242.17 349.2a1.35 1.35 0 1 0 -1.26-1.35 1.31 1.31 0 0 0 1.26 1.35z"></path>
        <path d="m229.62 349.2a1.35 1.35 0 0 0 0-2.7 1.35 1.35 0 0 0 0 2.7z"></path>
        <path d="m217.07 349.2a1.35 1.35 0 1 0 -1.25-1.35 1.31 1.31 0 0 0 1.25 1.35z"></path>
      </g>
      <g clip-path="url(#aa)">
        <path d="m242.17 403.2a1.35 1.35 0 1 0 -1.26-1.35 1.31 1.31 0 0 0 1.26 1.35z"></path>
        <path d="m229.62 403.2a1.35 1.35 0 0 0 0-2.7 1.35 1.35 0 0 0 0 2.7z"></path>
        <path d="m242.17 389.7a1.35 1.35 0 1 0 -1.26-1.35 1.31 1.31 0 0 0 1.26 1.35z"></path>
        <path d="m229.62 389.7a1.35 1.35 0 0 0 0-2.7 1.35 1.35 0 0 0 0 2.7z"></path>
        <path d="m223.35 396.45a1.35 1.35 0 1 0 -1.26-1.35 1.31 1.31 0 0 0 1.26 1.35z"></path>
        <path d="m235.9 396.45a1.35 1.35 0 1 0 -1.26-1.35 1.31 1.31 0 0 0 1.26 1.35z"></path>
        <path d="m223.35 383a1.35 1.35 0 1 0 -1.26-1.35 1.31 1.31 0 0 0 1.26 1.35z"></path>
        <path d="m235.9 383a1.35 1.35 0 1 0 -1.26-1.35 1.31 1.31 0 0 0 1.26 1.35z"></path>
        <path d="m217.07 403.2a1.35 1.35 0 1 0 -1.25-1.35 1.31 1.31 0 0 0 1.25 1.35z"></path>
        <path d="m217.07 389.7a1.35 1.35 0 1 0 -1.25-1.35 1.31 1.31 0 0 0 1.25 1.35z"></path>
        <path d="m242.17 376.2a1.35 1.35 0 1 0 -1.26-1.35 1.31 1.31 0 0 0 1.26 1.35z"></path>
        <path d="m229.62 376.2a1.35 1.35 0 0 0 0-2.7 1.35 1.35 0 0 0 0 2.7z"></path>
        <path d="m217.07 376.2a1.35 1.35 0 1 0 -1.25-1.35 1.31 1.31 0 0 0 1.25 1.35z"></path>
      </g>
      <g clip-path="url(#ab)">
        <path d="m242.17 430.2a1.35 1.35 0 1 0 -1.26-1.35 1.31 1.31 0 0 0 1.26 1.35z"></path>
        <path d="m229.62 430.2a1.35 1.35 0 0 0 0-2.7 1.35 1.35 0 0 0 0 2.7z"></path>
        <path d="m242.17 416.7a1.35 1.35 0 1 0 -1.26-1.35 1.31 1.31 0 0 0 1.26 1.35z"></path>
        <path d="m229.62 416.7a1.35 1.35 0 0 0 0-2.7 1.35 1.35 0 0 0 0 2.7z"></path>
        <path d="m223.35 423.45a1.35 1.35 0 1 0 -1.26-1.35 1.31 1.31 0 0 0 1.26 1.35z"></path>
        <path d="m235.9 423.45a1.35 1.35 0 1 0 -1.26-1.35 1.31 1.31 0 0 0 1.26 1.35z"></path>
        <path d="m223.35 410a1.35 1.35 0 1 0 -1.26-1.35 1.31 1.31 0 0 0 1.26 1.35z"></path>
        <path d="m235.9 410a1.35 1.35 0 1 0 -1.26-1.35 1.31 1.31 0 0 0 1.26 1.35z"></path>
        <path d="m217.07 430.2a1.35 1.35 0 1 0 -1.25-1.35 1.31 1.31 0 0 0 1.25 1.35z"></path>
        <path d="m217.07 416.7a1.35 1.35 0 1 0 -1.25-1.35 1.31 1.31 0 0 0 1.25 1.35z"></path>
        <path d="m242.17 403.2a1.35 1.35 0 1 0 -1.26-1.35 1.31 1.31 0 0 0 1.26 1.35z"></path>
        <path d="m229.62 403.2a1.35 1.35 0 0 0 0-2.7 1.35 1.35 0 0 0 0 2.7z"></path>
        <path d="m217.07 403.2a1.35 1.35 0 1 0 -1.25-1.35 1.31 1.31 0 0 0 1.25 1.35z"></path>
      </g>
      <g clip-path="url(#ac)">
        <path d="m242.17 457.2a1.35 1.35 0 1 0 -1.26-1.35 1.31 1.31 0 0 0 1.26 1.35z"></path>
        <path d="m229.62 457.2a1.35 1.35 0 0 0 0-2.7 1.35 1.35 0 0 0 0 2.7z"></path>
        <path d="m242.17 443.7a1.35 1.35 0 1 0 -1.26-1.35 1.31 1.31 0 0 0 1.26 1.35z"></path>
        <path d="m229.62 443.7a1.35 1.35 0 0 0 0-2.7 1.35 1.35 0 0 0 0 2.7z"></path>
        <path d="m223.35 450.45a1.35 1.35 0 1 0 -1.26-1.35 1.3 1.3 0 0 0 1.26 1.35z"></path>
        <path d="m235.9 450.45a1.35 1.35 0 1 0 -1.26-1.35 1.3 1.3 0 0 0 1.26 1.35z"></path>
        <path d="m223.35 437a1.35 1.35 0 1 0 -1.26-1.35 1.31 1.31 0 0 0 1.26 1.35z"></path>
        <path d="m235.9 437a1.35 1.35 0 1 0 -1.26-1.35 1.31 1.31 0 0 0 1.26 1.35z"></path>
        <path d="m217.07 457.2a1.35 1.35 0 1 0 -1.25-1.35 1.31 1.31 0 0 0 1.25 1.35z"></path>
        <path d="m217.07 443.7a1.35 1.35 0 1 0 -1.25-1.35 1.31 1.31 0 0 0 1.25 1.35z"></path>
        <path d="m242.17 430.2a1.35 1.35 0 1 0 -1.26-1.35 1.31 1.31 0 0 0 1.26 1.35z"></path>
        <path d="m229.62 430.2a1.35 1.35 0 0 0 0-2.7 1.35 1.35 0 0 0 0 2.7z"></path>
        <path d="m217.07 430.2a1.35 1.35 0 1 0 -1.25-1.35 1.31 1.31 0 0 0 1.25 1.35z"></path>
      </g>
      <g clip-path="url(#ad)">
        <path d="m242.17 484.2a1.35 1.35 0 1 0 -1.26-1.35 1.3 1.3 0 0 0 1.26 1.35z"></path>
        <path d="m229.62 484.2a1.35 1.35 0 1 0 -1.25-1.35 1.31 1.31 0 0 0 1.25 1.35z"></path>
        <path d="m242.17 470.7a1.35 1.35 0 1 0 -1.26-1.35 1.31 1.31 0 0 0 1.26 1.35z"></path>
        <path d="m229.62 470.7a1.35 1.35 0 0 0 0-2.7 1.35 1.35 0 0 0 0 2.7z"></path>
        <path d="m223.35 477.45a1.35 1.35 0 1 0 -1.26-1.35 1.3 1.3 0 0 0 1.26 1.35z"></path>
        <path d="m235.9 477.45a1.35 1.35 0 1 0 -1.26-1.35 1.3 1.3 0 0 0 1.26 1.35z"></path>
        <path d="m223.35 464a1.35 1.35 0 1 0 -1.26-1.35 1.3 1.3 0 0 0 1.26 1.35z"></path>
        <path d="m235.9 464a1.35 1.35 0 1 0 -1.26-1.35 1.3 1.3 0 0 0 1.26 1.35z"></path>
        <path d="m217.07 484.2a1.35 1.35 0 1 0 -1.25-1.35 1.3 1.3 0 0 0 1.25 1.35z"></path>
        <path d="m217.07 470.7a1.35 1.35 0 1 0 -1.25-1.35 1.31 1.31 0 0 0 1.25 1.35z"></path>
        <path d="m242.17 457.2a1.35 1.35 0 1 0 -1.26-1.35 1.31 1.31 0 0 0 1.26 1.35z"></path>
        <path d="m229.62 457.2a1.35 1.35 0 0 0 0-2.7 1.35 1.35 0 0 0 0 2.7z"></path>
        <path d="m217.07 457.2a1.35 1.35 0 1 0 -1.25-1.35 1.31 1.31 0 0 0 1.25 1.35z"></path>
      </g>
      <g clip-path="url(#ae)">
        <path d="m217.07 376.2a1.35 1.35 0 1 0 -1.25-1.35 1.31 1.31 0 0 0 1.25 1.35z"></path>
        <path d="m204.52 376.2a1.35 1.35 0 1 0 -1.25-1.35 1.31 1.31 0 0 0 1.25 1.35z"></path>
        <path d="m217.07 362.7a1.35 1.35 0 1 0 -1.25-1.35 1.31 1.31 0 0 0 1.25 1.35z"></path>
        <path d="m204.52 362.7a1.35 1.35 0 1 0 -1.25-1.35 1.31 1.31 0 0 0 1.25 1.35z"></path>
        <path d="m198.25 369.45a1.35 1.35 0 0 0 0-2.7 1.35 1.35 0 0 0 0 2.7z"></path>
        <path d="m210.8 369.45a1.35 1.35 0 1 0 -1.26-1.35 1.31 1.31 0 0 0 1.26 1.35z"></path>
        <path d="m198.25 356a1.35 1.35 0 0 0 0-2.7 1.35 1.35 0 0 0 0 2.7z"></path>
        <path d="m210.8 356a1.35 1.35 0 1 0 -1.26-1.35 1.31 1.31 0 0 0 1.26 1.35z"></path>
        <path d="m192 376.2a1.35 1.35 0 1 0 -1.26-1.35 1.31 1.31 0 0 0 1.26 1.35z"></path>
        <path d="m192 362.7a1.35 1.35 0 1 0 -1.26-1.35 1.31 1.31 0 0 0 1.26 1.35z"></path>
        <path d="m217.07 349.2a1.35 1.35 0 1 0 -1.25-1.35 1.31 1.31 0 0 0 1.25 1.35z"></path>
        <path d="m204.52 349.2a1.35 1.35 0 1 0 -1.25-1.35 1.31 1.31 0 0 0 1.25 1.35z"></path>
        <path d="m192 349.2a1.35 1.35 0 1 0 -1.26-1.35 1.31 1.31 0 0 0 1.26 1.35z"></path>
      </g>
      <g clip-path="url(#af)">
        <path d="m217.07 403.2a1.35 1.35 0 1 0 -1.25-1.35 1.31 1.31 0 0 0 1.25 1.35z"></path>
        <path d="m204.52 403.2a1.35 1.35 0 1 0 -1.25-1.35 1.31 1.31 0 0 0 1.25 1.35z"></path>
        <path d="m217.07 389.7a1.35 1.35 0 1 0 -1.25-1.35 1.31 1.31 0 0 0 1.25 1.35z"></path>
        <path d="m204.52 389.7a1.35 1.35 0 1 0 -1.25-1.35 1.31 1.31 0 0 0 1.25 1.35z"></path>
        <path d="m198.25 396.45a1.35 1.35 0 0 0 0-2.7 1.35 1.35 0 0 0 0 2.7z"></path>
        <path d="m210.8 396.45a1.35 1.35 0 1 0 -1.26-1.35 1.31 1.31 0 0 0 1.26 1.35z"></path>
        <path d="m198.25 383a1.35 1.35 0 0 0 0-2.7 1.35 1.35 0 0 0 0 2.7z"></path>
        <path d="m210.8 383a1.35 1.35 0 1 0 -1.26-1.35 1.31 1.31 0 0 0 1.26 1.35z"></path>
        <path d="m192 403.2a1.35 1.35 0 1 0 -1.26-1.35 1.31 1.31 0 0 0 1.26 1.35z"></path>
        <path d="m192 389.7a1.35 1.35 0 1 0 -1.26-1.35 1.31 1.31 0 0 0 1.26 1.35z"></path>
        <path d="m217.07 376.2a1.35 1.35 0 1 0 -1.25-1.35 1.31 1.31 0 0 0 1.25 1.35z"></path>
        <path d="m204.52 376.2a1.35 1.35 0 1 0 -1.25-1.35 1.31 1.31 0 0 0 1.25 1.35z"></path>
        <path d="m192 376.2a1.35 1.35 0 1 0 -1.26-1.35 1.31 1.31 0 0 0 1.26 1.35z"></path>
      </g>
      <g clip-path="url(#ag)">
        <path d="m217.07 430.2a1.35 1.35 0 1 0 -1.25-1.35 1.31 1.31 0 0 0 1.25 1.35z"></path>
        <path d="m204.52 430.2a1.35 1.35 0 1 0 -1.25-1.35 1.31 1.31 0 0 0 1.25 1.35z"></path>
        <path d="m217.07 416.7a1.35 1.35 0 1 0 -1.25-1.35 1.31 1.31 0 0 0 1.25 1.35z"></path>
        <path d="m204.52 416.7a1.35 1.35 0 1 0 -1.25-1.35 1.31 1.31 0 0 0 1.25 1.35z"></path>
        <path d="m198.25 423.45a1.35 1.35 0 0 0 0-2.7 1.35 1.35 0 0 0 0 2.7z"></path>
        <path d="m210.8 423.45a1.35 1.35 0 1 0 -1.26-1.35 1.31 1.31 0 0 0 1.26 1.35z"></path>
        <path d="m198.25 410a1.35 1.35 0 0 0 0-2.7 1.35 1.35 0 0 0 0 2.7z"></path>
        <path d="m210.8 410a1.35 1.35 0 1 0 -1.26-1.35 1.31 1.31 0 0 0 1.26 1.35z"></path>
        <path d="m192 430.2a1.35 1.35 0 1 0 -1.26-1.35 1.31 1.31 0 0 0 1.26 1.35z"></path>
        <path d="m192 416.7a1.35 1.35 0 1 0 -1.26-1.35 1.31 1.31 0 0 0 1.26 1.35z"></path>
        <path d="m217.07 403.2a1.35 1.35 0 1 0 -1.25-1.35 1.31 1.31 0 0 0 1.25 1.35z"></path>
        <path d="m204.52 403.2a1.35 1.35 0 1 0 -1.25-1.35 1.31 1.31 0 0 0 1.25 1.35z"></path>
        <path d="m192 403.2a1.35 1.35 0 1 0 -1.26-1.35 1.31 1.31 0 0 0 1.26 1.35z"></path>
      </g>
      <g clip-path="url(#ah)">
        <path d="m217.07 457.2a1.35 1.35 0 1 0 -1.25-1.35 1.31 1.31 0 0 0 1.25 1.35z"></path>
        <path d="m204.52 457.2a1.35 1.35 0 1 0 -1.25-1.35 1.31 1.31 0 0 0 1.25 1.35z"></path>
        <path d="m217.07 443.7a1.35 1.35 0 1 0 -1.25-1.35 1.31 1.31 0 0 0 1.25 1.35z"></path>
        <path d="m204.52 443.7a1.35 1.35 0 1 0 -1.25-1.35 1.31 1.31 0 0 0 1.25 1.35z"></path>
        <path d="m198.25 450.45a1.35 1.35 0 1 0 -1.25-1.35 1.31 1.31 0 0 0 1.25 1.35z"></path>
        <path d="m210.8 450.45a1.35 1.35 0 1 0 -1.26-1.35 1.3 1.3 0 0 0 1.26 1.35z"></path>
        <path d="m198.25 437a1.35 1.35 0 0 0 0-2.7 1.35 1.35 0 0 0 0 2.7z"></path>
        <path d="m210.8 437a1.35 1.35 0 1 0 -1.26-1.35 1.31 1.31 0 0 0 1.26 1.35z"></path>
        <path d="m192 457.2a1.35 1.35 0 1 0 -1.26-1.35 1.31 1.31 0 0 0 1.26 1.35z"></path>
        <path d="m192 443.7a1.35 1.35 0 1 0 -1.26-1.35 1.31 1.31 0 0 0 1.26 1.35z"></path>
        <path d="m217.07 430.2a1.35 1.35 0 1 0 -1.25-1.35 1.31 1.31 0 0 0 1.25 1.35z"></path>
        <path d="m204.52 430.2a1.35 1.35 0 1 0 -1.25-1.35 1.31 1.31 0 0 0 1.25 1.35z"></path>
        <path d="m192 430.2a1.35 1.35 0 1 0 -1.26-1.35 1.31 1.31 0 0 0 1.26 1.35z"></path>
      </g>
      <g clip-path="url(#ai)">
        <path d="m217.07 484.2a1.35 1.35 0 1 0 -1.25-1.35 1.3 1.3 0 0 0 1.25 1.35z"></path>
        <path d="m204.52 484.2a1.35 1.35 0 1 0 -1.25-1.35 1.3 1.3 0 0 0 1.25 1.35z"></path>
        <path d="m217.07 470.7a1.35 1.35 0 1 0 -1.25-1.35 1.31 1.31 0 0 0 1.25 1.35z"></path>
        <path d="m204.52 470.7a1.35 1.35 0 1 0 -1.25-1.35 1.31 1.31 0 0 0 1.25 1.35z"></path>
        <path d="m198.25 477.45a1.35 1.35 0 1 0 -1.25-1.35 1.31 1.31 0 0 0 1.25 1.35z"></path>
        <path d="m210.8 477.45a1.35 1.35 0 1 0 -1.26-1.35 1.3 1.3 0 0 0 1.26 1.35z"></path>
        <path d="m198.25 464a1.35 1.35 0 1 0 -1.25-1.4 1.31 1.31 0 0 0 1.25 1.4z"></path>
        <path d="m210.8 464a1.35 1.35 0 1 0 -1.26-1.35 1.3 1.3 0 0 0 1.26 1.35z"></path>
        <path d="m192 484.2a1.35 1.35 0 1 0 -1.26-1.35 1.3 1.3 0 0 0 1.26 1.35z"></path>
        <path d="m192 470.7a1.35 1.35 0 1 0 -1.26-1.35 1.31 1.31 0 0 0 1.26 1.35z"></path>
        <path d="m217.07 457.2a1.35 1.35 0 1 0 -1.25-1.35 1.31 1.31 0 0 0 1.25 1.35z"></path>
        <path d="m204.52 457.2a1.35 1.35 0 1 0 -1.25-1.35 1.31 1.31 0 0 0 1.25 1.35z"></path>
        <path d="m192 457.2a1.35 1.35 0 1 0 -1.26-1.35 1.31 1.31 0 0 0 1.26 1.35z"></path>
      </g>
    </g>
  </g>
</svg>
