<?xml version="1.0" encoding="UTF-8"?>
<svg xmlns="http://www.w3.org/2000/svg" xmlns:xlink="http://www.w3.org/1999/xlink" viewBox="0 0 600 600">
  <clipPath id="a">
    <path d="m126.49 437.03h119.96v42.06h-119.96z"></path>
  </clipPath>
  <clipPath id="b">
    <path d="m226.11 429.88h27v27h-27z"></path>
  </clipPath>
  <clipPath id="c">
    <path d="m226.11 456.88h27v27h-27z"></path>
  </clipPath>
  <clipPath id="d">
    <path d="m199.11 429.88h27v27h-27z"></path>
  </clipPath>
  <clipPath id="e">
    <path d="m199.11 456.88h27v27h-27z"></path>
  </clipPath>
  <clipPath id="f">
    <path d="m172.11 429.88h27v27h-27z"></path>
  </clipPath>
  <clipPath id="g">
    <path d="m172.11 456.88h27v27h-27z"></path>
  </clipPath>
  <clipPath id="h">
    <path d="m145.11 429.88h27v27h-27z"></path>
  </clipPath>
  <clipPath id="i">
    <path d="m145.11 456.88h27v27h-27z"></path>
  </clipPath>
  <clipPath id="j">
    <path d="m118.11 429.88h27v27h-27z"></path>
  </clipPath>
  <clipPath id="k">
    <path d="m118.11 456.88h27v27h-27z"></path>
  </clipPath>
  <clipPath id="l">
    <path d="m257.48 437.03h119.96v42.06h-119.96z"></path>
  </clipPath>
  <clipPath id="m">
    <path d="m361.11 429.88h27v27h-27z"></path>
  </clipPath>
  <clipPath id="n">
    <path d="m361.11 456.88h27v27h-27z"></path>
  </clipPath>
  <clipPath id="o">
    <path d="m334.11 429.88h27v27h-27z"></path>
  </clipPath>
  <clipPath id="p">
    <path d="m334.11 456.88h27v27h-27z"></path>
  </clipPath>
  <clipPath id="q">
    <path d="m307.11 429.88h27v27h-27z"></path>
  </clipPath>
  <clipPath id="r">
    <path d="m307.11 456.88h27v27h-27z"></path>
  </clipPath>
  <clipPath id="s">
    <path d="m280.11 429.88h27v27h-27z"></path>
  </clipPath>
  <clipPath id="t">
    <path d="m280.11 456.88h27v27h-27z"></path>
  </clipPath>
  <clipPath id="u">
    <path d="m253.11 429.88h27v27h-27z"></path>
  </clipPath>
  <clipPath id="v">
    <path d="m253.11 456.88h27v27h-27z"></path>
  </clipPath>
  <path d="m120.82 213.75h353.89v278.12h-353.89z" fill="#fff"></path>
  <path d="m126.94 226v211h262.28v-211zm120.88 198.59h-120.88v-188.38h120.88zm129.61 0h-118.69v-188.38h118.69z" fill="#ffde00"></path>
  <path d="m389.22 236.21v59.39h76.95v-59.39zm68.25 49h-59.55v-38.21h59.55z" fill="#ffde00"></path>
  <path d="m377.43 437.03h11.79v42.06h-11.79z" fill="#ffde00"></path>
  <path d="m246.44 437.03h11.03v42.06h-11.03z" fill="#ffde00"></path>
  <path d="m126.49 437.03h119.96v42.06h-119.96z" fill="#ffde00"></path>
  <path d="m257.48 437.03h119.96v42.06h-119.96z" fill="#ffde00"></path>
  <path d="m126.94 366.27h22.3v7.06h-22.3z" fill="#ffde00"></path>
  <path d="m126.94 330.42h22.3v7.06h-22.3z" fill="#ffde00"></path>
  <path d="m126.94 294.58h22.3v7.06h-22.3z" fill="#ffde00"></path>
  <path d="m126.94 258.74h22.3v7.06h-22.3z" fill="#ffde00"></path>
  <path d="m272.46 380.13h23.87v35.16h-23.87z" fill="#ffde00"></path>
  <path d="m305.71 380.13h23.87v35.16h-23.87z" fill="#ffde00"></path>
  <path d="m338.95 380.13h23.87v35.16h-23.87z" fill="#ffde00"></path>
  <path d="m389.22 225.95h76.95v10.26h-76.95z" fill="#ffde00"></path>
  <path d="m109.85 149.4h378.26v76.55h-378.26z" fill="#00ab81"></path>
  <path d="m466.17 225.95h17.09v253.28h-17.09z" fill="#00ab81"></path>
  <path d="m114.7 225.95h12.24v253.28h-12.24z" fill="#00ab81"></path>
  <path d="m111.89 479.09h378.26v11.37h-378.26z" fill="#00ab81"></path>
  <path d="m191.41 361.55a14.59 14.59 0 0 0 1.46-2c.49-.79 1-1.54 1.59-2.29a27.56 27.56 0 0 0 2.51-3.89c2.64-5.3 1.74-11.45 1-16.4a1.38 1.38 0 0 0 -.83-1.08 1.35 1.35 0 0 0 -.56-.09c.06-.48.12-.95.17-1.41a84.3 84.3 0 0 0 .2-14.21l-.19-2.43c-.49-5.85-1-11.9 2-16.47a1.41 1.41 0 0 0 -2.3-1.63 34.78 34.78 0 0 0 -4.72 7.49c-1.7 4.05-1.84 8.43-2 12.66 0 1-.07 1.92-.11 2.88-.93-3.65-1.57-7.6-1.35-9.78a34.82 34.82 0 0 1 .8-4.33c.22-1 .44-2 .61-3 1.06-6.11.21-12.29-.6-18.26a76.53 76.53 0 0 1 -1-13.57 1.41 1.41 0 0 0 -2.76-.46c-1.53 5.25-1.54 10.73-1.54 16a73.07 73.07 0 0 1 -.69 12.12 75.7 75.7 0 0 1 -1.87 7.48c-.64 2.21-1.28 4.45-1.73 6.74-.26-.87-.55-1.72-.74-2.61a29.12 29.12 0 0 1 .94-15.7 1.41 1.41 0 0 0 -2.39-1.39c-6 6.79-6.56 16.27-6 23 .11 1.28.25 2.55.38 3.82a40.13 40.13 0 0 1 -7.21-26.92 1.41 1.41 0 0 0 -1.2-1.53 1.39 1.39 0 0 0 -1.58 1.13c-2.63 13.61-2.27 24.7 1.08 33.89a82 82 0 0 0 3.87 8.5c.84 1.68 1.68 3.35 2.44 5.06l.39.86c.17.38.35.77.52 1.16a22.11 22.11 0 0 0 -4.63-2l-.85-.3a44 44 0 0 1 -12.27-6.59 1.4 1.4 0 0 0 -1.62-.06 1.42 1.42 0 0 0 -.61 1.51c.89 3.72 3.23 6.68 5.5 9.53a47.32 47.32 0 0 1 3.26 4.45 21.36 21.36 0 0 1 3.11 11.57h28.76z" fill="#00ab81"></path>
  <path d="m389.22 295.6v183.49h76.95v-183.49zm11.78 76.2a3.09 3.09 0 1 1 3.09-3.09 3.09 3.09 0 0 1 -3.09 3.09zm43.06-25h-32.74v-32.8h32.75z" fill="#fb715d"></path>
  <path d="m218.37 364.21h21.93v33.31h-21.93z" fill="#fb715d"></path>
  <path d="m195.79 365.36h-37.19l6.41 32.15h24.37z" fill="#fb715d"></path>
  <g fill="#1c19a8">
    <path d="m133.91 236.21h8.29v160.65h-8.29z"></path>
    <path d="m142.2 398.27h-8.29a1.41 1.41 0 0 1 -1.41-1.41v-160.65a1.41 1.41 0 0 1 1.41-1.41h8.29a1.41 1.41 0 0 1 1.4 1.41v160.65a1.41 1.41 0 0 1 -1.4 1.41zm-6.89-2.82h5.48v-157.83h-5.48z"></path>
    <path d="m488.11 227.36h-378.26a1.41 1.41 0 0 1 -1.41-1.41v-76.55a1.41 1.41 0 0 1 1.41-1.4h378.26a1.41 1.41 0 0 1 1.41 1.4v76.6a1.41 1.41 0 0 1 -1.41 1.36zm-376.86-2.81h375.46v-73.74h-375.46z"></path>
    <path d="m389.22 438.43h-262.28a1.4 1.4 0 0 1 -1.4-1.4v-211.03a1.4 1.4 0 0 1 1.4-1.4h262.28a1.41 1.41 0 0 1 1.41 1.4v211a1.41 1.41 0 0 1 -1.41 1.43zm-260.87-2.81h259.46v-208.26h-259.46v7.44h119.47a1.41 1.41 0 0 1 1.41 1.41v188.38a1.41 1.41 0 0 1 -1.41 1.41h-119.47zm0-12.44h118.07v-185.56h-118.07zm249.08 2.82h-118.69a1.41 1.41 0 0 1 -1.41-1.41v-188.38a1.41 1.41 0 0 1 1.41-1.41h118.69a1.41 1.41 0 0 1 1.41 1.41v188.38a1.41 1.41 0 0 1 -1.41 1.41zm-117.28-2.82h115.85v-185.56h-115.85z"></path>
    <path d="m483.26 480.64h-17.09a1.41 1.41 0 0 1 -1.41-1.41v-253.23a1.41 1.41 0 0 1 1.41-1.4h17.09a1.41 1.41 0 0 1 1.41 1.4v253.23a1.41 1.41 0 0 1 -1.41 1.41zm-15.69-2.81h14.28v-250.47h-14.28z"></path>
    <path d="m126.94 480.64h-12.24a1.41 1.41 0 0 1 -1.41-1.41v-253.23a1.41 1.41 0 0 1 1.41-1.4h12.24a1.41 1.41 0 0 1 1.41 1.4v253.23a1.41 1.41 0 0 1 -1.41 1.41zm-10.84-2.81h9.44v-250.47h-9.44z"></path>
    <path d="m466.17 297h-76.95a1.41 1.41 0 0 1 -1.41-1.4v-59.39a1.41 1.41 0 0 1 1.41-1.41h76.95a1.41 1.41 0 0 1 1.4 1.41v59.39a1.4 1.4 0 0 1 -1.4 1.4zm-75.54-2.81h74.13v-56.57h-74.13zm66.84-7.54h-59.55a1.41 1.41 0 0 1 -1.41-1.41v-38.24a1.41 1.41 0 0 1 1.41-1.41h59.55a1.41 1.41 0 0 1 1.4 1.41v38.21a1.41 1.41 0 0 1 -1.4 1.44zm-58.14-2.82h56.73v-35.39h-56.73z"></path>
    <path d="m490.15 491.86h-378.26a1.41 1.41 0 0 1 -1.41-1.4v-11.37a1.41 1.41 0 0 1 1.41-1.41h378.26a1.41 1.41 0 0 1 1.41 1.41v11.37a1.41 1.41 0 0 1 -1.41 1.4zm-376.86-2.81h375.46v-8.55h-375.46z"></path>
    <path d="m466.17 480.5h-76.95a1.41 1.41 0 0 1 -1.41-1.41v-183.49a1.41 1.41 0 0 1 1.41-1.41h76.95a1.41 1.41 0 0 1 1.4 1.41v183.49a1.41 1.41 0 0 1 -1.4 1.41zm-75.54-2.82h74.13v-180.68h-74.13zm10.37-104.48a4.49 4.49 0 1 1 4.5-4.49 4.5 4.5 0 0 1 -4.5 4.49zm0-6.17a1.68 1.68 0 1 0 1.68 1.68 1.68 1.68 0 0 0 -1.68-1.71zm43.06-18.85h-32.75a1.4 1.4 0 0 1 -1.4-1.4v-32.78a1.41 1.41 0 0 1 1.4-1.41h32.76a1.41 1.41 0 0 1 1.41 1.41v32.76a1.41 1.41 0 0 1 -1.41 1.42zm-31.35-2.81h29.94v-29.94h-29.93z"></path>
    <path d="m389.22 480.5h-11.79a1.41 1.41 0 0 1 -1.4-1.41v-42.09a1.41 1.41 0 0 1 1.4-1.41h11.79a1.41 1.41 0 0 1 1.41 1.41v42.06a1.41 1.41 0 0 1 -1.41 1.44zm-10.38-2.82h9v-39.25h-9z"></path>
    <path d="m257.85 480.5h-11.79a1.41 1.41 0 0 1 -1.4-1.41v-42.09a1.41 1.41 0 0 1 1.4-1.41h11.79a1.41 1.41 0 0 1 1.41 1.41v42.06a1.41 1.41 0 0 1 -1.41 1.44zm-10.38-2.82h9v-39.25h-9z"></path>
    <path d="m444.07 348.18h-32.75a1.41 1.41 0 0 1 -1.41-1.4v-32.78a1.41 1.41 0 0 1 1.41-1.41h32.75a1.41 1.41 0 0 1 1.41 1.41v32.76a1.41 1.41 0 0 1 -1.41 1.42zm-31.35-2.81h29.94v-29.94h-29.94z"></path>
    <path d="m411.32 443.39h32.76v9.58h-32.76z"></path>
    <path d="m445.48 454.37h-35.57v-12.37h35.57zm-32.76-2.81h29.94v-6.77h-29.94z"></path>
    <path d="m257.48 480.5h-11a1.41 1.41 0 0 1 -1.4-1.41v-42.09a1.41 1.41 0 0 1 1.4-1.41h11a1.41 1.41 0 0 1 1.4 1.41v42.06a1.41 1.41 0 0 1 -1.4 1.44zm-9.63-2.82h8.22v-39.25h-8.22z"></path>
    <path d="m246.44 480.5h-119.95a1.41 1.41 0 0 1 -1.41-1.41v-42.09a1.41 1.41 0 0 1 1.41-1.41h120a1.41 1.41 0 0 1 1.41 1.41v42.06a1.41 1.41 0 0 1 -1.46 1.44zm-118.55-2.82h117.11v-39.25h-117.11z"></path>
    <path d="m377.43 480.5h-119.95a1.41 1.41 0 0 1 -1.41-1.41v-42.09a1.41 1.41 0 0 1 1.41-1.41h120a1.41 1.41 0 0 1 1.41 1.41v42.06a1.41 1.41 0 0 1 -1.46 1.44zm-118.55-2.82h117.12v-39.25h-117.12z"></path>
    <path d="m246.44 480.5h-119.95a1.41 1.41 0 0 1 -1.41-1.41v-42.09a1.41 1.41 0 0 1 1.41-1.41h120a1.41 1.41 0 0 1 1.41 1.41v42.06a1.41 1.41 0 0 1 -1.46 1.44zm-118.55-2.82h117.11v-39.25h-117.11z"></path>
    <path d="m377.43 480.5h-119.95a1.41 1.41 0 0 1 -1.41-1.41v-42.09a1.41 1.41 0 0 1 1.41-1.41h120a1.41 1.41 0 0 1 1.41 1.41v42.06a1.41 1.41 0 0 1 -1.46 1.44zm-118.55-2.82h117.12v-39.25h-117.12z"></path>
    <path d="m126.94 397.44h121.13v7.06h-121.13z"></path>
    <path d="m248.07 405.9h-121.13a1.4 1.4 0 0 1 -1.4-1.4v-7.06a1.41 1.41 0 0 1 1.4-1.41h121.13a1.41 1.41 0 0 1 1.41 1.41v7.06a1.41 1.41 0 0 1 -1.41 1.4zm-119.72-2.81h118.32v-4.25h-118.32z"></path>
    <path d="m149.24 374.73h-22.3a1.4 1.4 0 0 1 -1.4-1.4v-7.06a1.41 1.41 0 0 1 1.4-1.41h22.3a1.41 1.41 0 0 1 1.41 1.41v7.06a1.41 1.41 0 0 1 -1.41 1.4zm-20.89-2.81h19.49v-4.25h-19.49z"></path>
    <path d="m149.24 338.89h-22.3a1.41 1.41 0 0 1 -1.4-1.41v-7.05a1.41 1.41 0 0 1 1.4-1.41h22.3a1.41 1.41 0 0 1 1.41 1.41v7.05a1.41 1.41 0 0 1 -1.41 1.41zm-20.89-2.81h19.49v-4.25h-19.49z"></path>
    <path d="m149.24 303.05h-22.3a1.41 1.41 0 0 1 -1.4-1.41v-7.06a1.41 1.41 0 0 1 1.4-1.41h22.3a1.41 1.41 0 0 1 1.41 1.41v7.06a1.41 1.41 0 0 1 -1.41 1.41zm-20.89-2.82h19.49v-4.23h-19.49z"></path>
    <path d="m149.24 267.2h-22.3a1.41 1.41 0 0 1 -1.4-1.41v-7.05a1.41 1.41 0 0 1 1.4-1.41h22.3a1.41 1.41 0 0 1 1.41 1.41v7.05a1.41 1.41 0 0 1 -1.41 1.41zm-20.89-2.81h19.49v-4.25h-19.49z"></path>
    <path d="m258.74 397.44h13.72v7.06h-13.72z"></path>
    <path d="m272.46 405.9h-13.72a1.41 1.41 0 0 1 -1.41-1.4v-7.06a1.41 1.41 0 0 1 1.41-1.41h13.72a1.41 1.41 0 0 1 1.41 1.41v7.06a1.41 1.41 0 0 1 -1.41 1.4zm-12.31-2.81h10.9v-4.25h-10.9z"></path>
    <path d="m296.33 397.44h9.38v7.06h-9.38z"></path>
    <path d="m305.71 405.9h-9.38a1.4 1.4 0 0 1 -1.4-1.4v-7.06a1.41 1.41 0 0 1 1.4-1.41h9.38a1.41 1.41 0 0 1 1.41 1.41v7.06a1.41 1.41 0 0 1 -1.41 1.4zm-8-2.81h6.56v-4.25h-6.56z"></path>
    <path d="m329.58 397.44h9.38v7.06h-9.38z"></path>
    <path d="m339 405.9h-9.37a1.41 1.41 0 0 1 -1.41-1.4v-7.06a1.41 1.41 0 0 1 1.41-1.41h9.37a1.41 1.41 0 0 1 1.41 1.41v7.06a1.41 1.41 0 0 1 -1.41 1.4zm-8-2.81h6.56v-4.25h-6.56z"></path>
    <path d="m362.82 397.44h14.61v7.06h-14.61z"></path>
    <path d="m377.43 405.9h-14.61a1.4 1.4 0 0 1 -1.4-1.4v-7.06a1.41 1.41 0 0 1 1.4-1.41h14.61a1.41 1.41 0 0 1 1.41 1.41v7.06a1.41 1.41 0 0 1 -1.41 1.4zm-13.2-2.81h11.77v-4.25h-11.8z"></path>
    <path d="m240.3 398.92h-21.93a1.41 1.41 0 0 1 -1.4-1.41v-33.3a1.41 1.41 0 0 1 1.4-1.41h21.93a1.41 1.41 0 0 1 1.41 1.41v33.3a1.41 1.41 0 0 1 -1.41 1.41zm-20.52-2.81h19.11v-30.5h-19.11z"></path>
    <path d="m296.33 416.7h-23.87a1.41 1.41 0 0 1 -1.41-1.4v-35.17a1.41 1.41 0 0 1 1.41-1.4h23.87a1.41 1.41 0 0 1 1.41 1.4v35.17a1.41 1.41 0 0 1 -1.41 1.4zm-22.46-2.81h21.06v-32.35h-21.06z"></path>
    <path d="m329.58 416.7h-23.87a1.41 1.41 0 0 1 -1.41-1.4v-35.17a1.41 1.41 0 0 1 1.41-1.4h23.87a1.41 1.41 0 0 1 1.41 1.4v35.17a1.41 1.41 0 0 1 -1.41 1.4zm-22.46-2.81h21.05v-32.35h-21.05z"></path>
    <path d="m362.82 416.7h-23.82a1.4 1.4 0 0 1 -1.4-1.4v-35.17a1.4 1.4 0 0 1 1.4-1.4h23.87a1.41 1.41 0 0 1 1.41 1.4v35.17a1.41 1.41 0 0 1 -1.46 1.4zm-22.46-2.81h21.06v-32.35h-21.06z"></path>
    <path d="m177.11 199.6a1.8 1.8 0 0 1 -.48-1.3v-21.14a1.74 1.74 0 0 1 .46-1.27 1.79 1.79 0 0 1 1.31-.47h12.44c1.12 0 1.67.49 1.67 1.46s-.55 1.46-1.67 1.46h-10.67v7.66h10c1.11 0 1.67.48 1.67 1.46s-.56 1.46-1.67 1.46h-10v9.35a1.79 1.79 0 0 1 -.47 1.32 1.74 1.74 0 0 1 -1.3.49 1.72 1.72 0 0 1 -1.29-.48z"></path>
    <path d="m200.18 198.68a10.2 10.2 0 0 1 -4-4.34 14.8 14.8 0 0 1 -1.39-6.64 15.29 15.29 0 0 1 1.37-6.7 10 10 0 0 1 3.95-4.34 12.94 12.94 0 0 1 12.13 0 10 10 0 0 1 4 4.34 16.87 16.87 0 0 1 0 13.32 10 10 0 0 1 -4 4.36 11.66 11.66 0 0 1 -6.08 1.53 11.5 11.5 0 0 1 -5.98-1.53zm11.76-3.89q2.06-2.5 2.05-7.13c0-3.08-.67-5.45-2-7.11a7.84 7.84 0 0 0 -11.44 0q-2 2.49-2 7.11t2 7.13a7.77 7.77 0 0 0 11.42 0z"></path>
    <path d="m227 198.68a10.27 10.27 0 0 1 -3.95-4.34 14.94 14.94 0 0 1 -1.39-6.64 15.15 15.15 0 0 1 1.34-6.7 10 10 0 0 1 3.94-4.34 12.94 12.94 0 0 1 12.13 0 10 10 0 0 1 3.93 4.34 16.87 16.87 0 0 1 0 13.32 10 10 0 0 1 -3.95 4.36 11.66 11.66 0 0 1 -6.08 1.53 11.5 11.5 0 0 1 -5.97-1.53zm11.77-3.89c1.36-1.67 2.05-4 2.05-7.13s-.68-5.45-2-7.11a7 7 0 0 0 -5.75-2.48 6.94 6.94 0 0 0 -5.68 2.48q-2 2.49-2 7.11t2 7.13a6.9 6.9 0 0 0 5.68 2.5 7 7 0 0 0 5.68-2.5z"></path>
    <path d="m249.75 199.46a1.71 1.71 0 0 1 -.47-1.27v-21a1.75 1.75 0 0 1 .47-1.27 1.77 1.77 0 0 1 1.3-.47h6.81q6 0 9.22 3.2t3.27 9q0 5.84-3.27 9.06t-9.22 3.21h-6.81a1.73 1.73 0 0 1 -1.3-.46zm7.91-2.52q9 0 9-9.28t-9-9.25h-4.8v18.53z"></path>
    <path d="m284.88 199.6a1.76 1.76 0 0 1 -.49-1.3v-21.14a1.71 1.71 0 0 1 .47-1.27 1.77 1.77 0 0 1 1.3-.47h12.45c1.11 0 1.66.49 1.66 1.46s-.55 1.46-1.66 1.46h-10.68v7.66h10c1.11 0 1.67.48 1.67 1.46s-.6 1.54-1.69 1.54h-10v9.35a1.79 1.79 0 0 1 -.47 1.32 1.73 1.73 0 0 1 -1.3.49 1.68 1.68 0 0 1 -1.26-.56z"></path>
    <path d="m307.94 198.68a10.27 10.27 0 0 1 -3.95-4.34 14.94 14.94 0 0 1 -1.39-6.64 15.15 15.15 0 0 1 1.4-6.7 10 10 0 0 1 3.94-4.34 12.94 12.94 0 0 1 12.13 0 10 10 0 0 1 3.93 4.34 16.87 16.87 0 0 1 0 13.32 10 10 0 0 1 -3.95 4.36 11.66 11.66 0 0 1 -6.08 1.53 11.5 11.5 0 0 1 -6.03-1.53zm11.77-3.89c1.36-1.67 2.05-4 2.05-7.13s-.68-5.45-2-7.11a7 7 0 0 0 -5.75-2.48 6.94 6.94 0 0 0 -5.68 2.48q-2 2.49-2 7.11t2 7.13a6.9 6.9 0 0 0 5.68 2.5 7 7 0 0 0 5.7-2.5z"></path>
    <path d="m349.67 198.68a1.36 1.36 0 0 1 -.5 1.06 1.76 1.76 0 0 1 -1.17.44 1.8 1.8 0 0 1 -1.56-.87l-4.66-7.23a5 5 0 0 0 -1.7-1.76 4.82 4.82 0 0 0 -2.37-.5h-3.92v8.48a1.84 1.84 0 0 1 -.47 1.32 1.77 1.77 0 0 1 -1.31.49 1.74 1.74 0 0 1 -1.28-.49 1.77 1.77 0 0 1 -.49-1.32v-21.14a1.75 1.75 0 0 1 .47-1.27 1.77 1.77 0 0 1 1.3-.47h8.66a9.38 9.38 0 0 1 6.2 1.81 6.53 6.53 0 0 1 2.14 5.29 6.65 6.65 0 0 1 -1.63 4.67 7.73 7.73 0 0 1 -4.66 2.28 4 4 0 0 1 1.63.87 7.3 7.3 0 0 1 1.43 1.74l3.58 5.63a1.65 1.65 0 0 1 .31.97zm-9.42-11.75a6.29 6.29 0 0 0 4-1.06 4 4 0 0 0 1.3-3.28 3.89 3.89 0 0 0 -1.29-3.25 6.38 6.38 0 0 0 -4-1h-6.5v8.62z"></path>
    <path d="m385.2 198.54a1.39 1.39 0 0 1 -.54 1.11 1.84 1.84 0 0 1 -1.2.46 1.48 1.48 0 0 1 -.85-.27 1.6 1.6 0 0 1 -.61-.74l-2.29-5.22h-12.71l-2.29 5.22a1.69 1.69 0 0 1 -1.5 1 1.88 1.88 0 0 1 -1.23-.46 1.39 1.39 0 0 1 -.54-1.11 2 2 0 0 1 .17-.69l9.81-21.45a1.83 1.83 0 0 1 .78-.87 2.21 2.21 0 0 1 2.26 0 1.83 1.83 0 0 1 .78.87l9.8 21.45a1.81 1.81 0 0 1 .16.7zm-16.93-7.54h10.18l-5.11-11.5z"></path>
    <path d="m389.39 199.48a1.59 1.59 0 0 1 -.47-1.22v-21.2a1.8 1.8 0 0 1 .48-1.3 1.72 1.72 0 0 1 1.29-.51 1.69 1.69 0 0 1 1.81 1.81v19.88h10.57a1.83 1.83 0 0 1 1.23.38 1.42 1.42 0 0 1 .43 1.12 1.4 1.4 0 0 1 -.43 1.11 1.78 1.78 0 0 1 -1.23.38h-12.41a1.74 1.74 0 0 1 -1.27-.45z"></path>
    <path d="m408.4 199.48a1.63 1.63 0 0 1 -.47-1.22v-21.2a1.81 1.81 0 0 1 .49-1.3 1.69 1.69 0 0 1 1.29-.51 1.67 1.67 0 0 1 1.8 1.81v19.88h10.57a1.86 1.86 0 0 1 1.24.38 1.45 1.45 0 0 1 .43 1.12 1.43 1.43 0 0 1 -.43 1.11 1.8 1.8 0 0 1 -1.24.38h-12.41a1.78 1.78 0 0 1 -1.27-.45z"></path>
    <path d="m466.17 237.62h-76.95a1.41 1.41 0 0 1 -1.41-1.41v-10.21a1.41 1.41 0 0 1 1.41-1.4h76.95a1.4 1.4 0 0 1 1.4 1.4v10.26a1.41 1.41 0 0 1 -1.4 1.36zm-75.54-2.82h74.13v-7.44h-74.13z"></path>
    <g clip-path="url(#a)">
      <g clip-path="url(#b)">
        <path d="m253.11 458.23a1.35 1.35 0 1 0 -1.35-1.35 1.35 1.35 0 0 0 1.35 1.35z"></path>
        <path d="m239.61 458.23a1.35 1.35 0 1 0 -1.35-1.35 1.35 1.35 0 0 0 1.35 1.35z"></path>
        <path d="m253.11 444.73a1.35 1.35 0 1 0 -1.35-1.35 1.35 1.35 0 0 0 1.35 1.35z"></path>
        <path d="m239.61 444.73a1.35 1.35 0 1 0 -1.35-1.35 1.35 1.35 0 0 0 1.35 1.35z"></path>
        <path d="m232.86 451.48a1.35 1.35 0 1 0 -1.35-1.35 1.35 1.35 0 0 0 1.35 1.35z"></path>
        <path d="m246.36 451.48a1.35 1.35 0 1 0 -1.35-1.35 1.35 1.35 0 0 0 1.35 1.35z"></path>
        <path d="m232.86 438a1.35 1.35 0 1 0 -1.35-1.35 1.35 1.35 0 0 0 1.35 1.35z"></path>
        <path d="m246.36 438a1.35 1.35 0 1 0 -1.35-1.35 1.35 1.35 0 0 0 1.35 1.35z"></path>
        <path d="m226.11 458.23a1.35 1.35 0 1 0 -1.35-1.35 1.35 1.35 0 0 0 1.35 1.35z"></path>
        <path d="m226.11 444.73a1.35 1.35 0 1 0 -1.35-1.35 1.35 1.35 0 0 0 1.35 1.35z"></path>
        <path d="m253.11 431.23a1.35 1.35 0 1 0 -1.35-1.35 1.35 1.35 0 0 0 1.35 1.35z"></path>
        <path d="m239.61 431.23a1.35 1.35 0 1 0 -1.35-1.35 1.35 1.35 0 0 0 1.35 1.35z"></path>
        <path d="m226.11 431.23a1.35 1.35 0 1 0 -1.35-1.35 1.35 1.35 0 0 0 1.35 1.35z"></path>
      </g>
      <g clip-path="url(#c)">
        <path d="m253.11 485.23a1.35 1.35 0 1 0 -1.35-1.35 1.35 1.35 0 0 0 1.35 1.35z"></path>
        <path d="m239.61 485.23a1.35 1.35 0 1 0 -1.35-1.35 1.35 1.35 0 0 0 1.35 1.35z"></path>
        <path d="m253.11 471.73a1.35 1.35 0 1 0 -1.35-1.35 1.35 1.35 0 0 0 1.35 1.35z"></path>
        <path d="m239.61 471.73a1.35 1.35 0 1 0 -1.35-1.35 1.35 1.35 0 0 0 1.35 1.35z"></path>
        <path d="m232.86 478.48a1.35 1.35 0 1 0 -1.35-1.35 1.34 1.34 0 0 0 1.35 1.35z"></path>
        <path d="m246.36 478.48a1.35 1.35 0 1 0 -1.35-1.35 1.34 1.34 0 0 0 1.35 1.35z"></path>
        <path d="m232.86 465a1.35 1.35 0 1 0 -1.35-1.35 1.35 1.35 0 0 0 1.35 1.35z"></path>
        <path d="m246.36 465a1.35 1.35 0 1 0 -1.35-1.35 1.35 1.35 0 0 0 1.35 1.35z"></path>
        <path d="m226.11 485.23a1.35 1.35 0 1 0 -1.35-1.35 1.35 1.35 0 0 0 1.35 1.35z"></path>
        <path d="m226.11 471.73a1.35 1.35 0 1 0 -1.35-1.35 1.35 1.35 0 0 0 1.35 1.35z"></path>
        <path d="m253.11 458.23a1.35 1.35 0 1 0 -1.35-1.35 1.35 1.35 0 0 0 1.35 1.35z"></path>
        <path d="m239.61 458.23a1.35 1.35 0 1 0 -1.35-1.35 1.35 1.35 0 0 0 1.35 1.35z"></path>
        <path d="m226.11 458.23a1.35 1.35 0 1 0 -1.35-1.35 1.35 1.35 0 0 0 1.35 1.35z"></path>
      </g>
      <g clip-path="url(#d)">
        <path d="m226.11 458.23a1.35 1.35 0 1 0 -1.35-1.35 1.35 1.35 0 0 0 1.35 1.35z"></path>
        <path d="m212.61 458.23a1.35 1.35 0 1 0 -1.35-1.35 1.35 1.35 0 0 0 1.35 1.35z"></path>
        <path d="m226.11 444.73a1.35 1.35 0 1 0 -1.35-1.35 1.35 1.35 0 0 0 1.35 1.35z"></path>
        <path d="m212.61 444.73a1.35 1.35 0 1 0 -1.35-1.35 1.35 1.35 0 0 0 1.35 1.35z"></path>
        <path d="m205.86 451.48a1.35 1.35 0 1 0 -1.35-1.35 1.35 1.35 0 0 0 1.35 1.35z"></path>
        <path d="m219.36 451.48a1.35 1.35 0 1 0 -1.35-1.35 1.35 1.35 0 0 0 1.35 1.35z"></path>
        <path d="m205.86 438a1.35 1.35 0 1 0 -1.35-1.35 1.35 1.35 0 0 0 1.35 1.35z"></path>
        <path d="m219.36 438a1.35 1.35 0 1 0 -1.35-1.35 1.35 1.35 0 0 0 1.35 1.35z"></path>
        <path d="m199.11 458.23a1.35 1.35 0 1 0 -1.35-1.35 1.35 1.35 0 0 0 1.35 1.35z"></path>
        <path d="m199.11 444.73a1.35 1.35 0 1 0 -1.35-1.35 1.35 1.35 0 0 0 1.35 1.35z"></path>
        <path d="m226.11 431.23a1.35 1.35 0 1 0 -1.35-1.35 1.35 1.35 0 0 0 1.35 1.35z"></path>
        <path d="m212.61 431.23a1.35 1.35 0 1 0 -1.35-1.35 1.35 1.35 0 0 0 1.35 1.35z"></path>
        <path d="m199.11 431.23a1.35 1.35 0 1 0 -1.35-1.35 1.35 1.35 0 0 0 1.35 1.35z"></path>
      </g>
      <g clip-path="url(#e)">
        <path d="m226.11 485.23a1.35 1.35 0 1 0 -1.35-1.35 1.35 1.35 0 0 0 1.35 1.35z"></path>
        <path d="m212.61 485.23a1.35 1.35 0 1 0 -1.35-1.35 1.35 1.35 0 0 0 1.35 1.35z"></path>
        <path d="m226.11 471.73a1.35 1.35 0 1 0 -1.35-1.35 1.35 1.35 0 0 0 1.35 1.35z"></path>
        <path d="m212.61 471.73a1.35 1.35 0 1 0 -1.35-1.35 1.35 1.35 0 0 0 1.35 1.35z"></path>
        <path d="m205.86 478.48a1.35 1.35 0 1 0 -1.35-1.35 1.34 1.34 0 0 0 1.35 1.35z"></path>
        <path d="m219.36 478.48a1.35 1.35 0 1 0 -1.35-1.35 1.34 1.34 0 0 0 1.35 1.35z"></path>
        <path d="m205.86 465a1.35 1.35 0 1 0 -1.35-1.35 1.35 1.35 0 0 0 1.35 1.35z"></path>
        <path d="m219.36 465a1.35 1.35 0 1 0 -1.35-1.35 1.35 1.35 0 0 0 1.35 1.35z"></path>
        <path d="m199.11 485.23a1.35 1.35 0 1 0 -1.35-1.35 1.35 1.35 0 0 0 1.35 1.35z"></path>
        <path d="m199.11 471.73a1.35 1.35 0 1 0 -1.35-1.35 1.35 1.35 0 0 0 1.35 1.35z"></path>
        <path d="m226.11 458.23a1.35 1.35 0 1 0 -1.35-1.35 1.35 1.35 0 0 0 1.35 1.35z"></path>
        <path d="m212.61 458.23a1.35 1.35 0 1 0 -1.35-1.35 1.35 1.35 0 0 0 1.35 1.35z"></path>
        <path d="m199.11 458.23a1.35 1.35 0 1 0 -1.35-1.35 1.35 1.35 0 0 0 1.35 1.35z"></path>
      </g>
      <g clip-path="url(#f)">
        <path d="m199.11 458.23a1.35 1.35 0 1 0 -1.35-1.35 1.35 1.35 0 0 0 1.35 1.35z"></path>
        <path d="m185.61 458.23a1.35 1.35 0 1 0 -1.35-1.35 1.35 1.35 0 0 0 1.35 1.35z"></path>
        <path d="m199.11 444.73a1.35 1.35 0 1 0 -1.35-1.35 1.35 1.35 0 0 0 1.35 1.35z"></path>
        <path d="m185.61 444.73a1.35 1.35 0 1 0 -1.35-1.35 1.35 1.35 0 0 0 1.35 1.35z"></path>
        <path d="m178.86 451.48a1.35 1.35 0 1 0 -1.35-1.35 1.35 1.35 0 0 0 1.35 1.35z"></path>
        <path d="m192.36 451.48a1.35 1.35 0 1 0 -1.35-1.35 1.35 1.35 0 0 0 1.35 1.35z"></path>
        <path d="m178.86 438a1.35 1.35 0 1 0 -1.35-1.35 1.35 1.35 0 0 0 1.35 1.35z"></path>
        <path d="m192.36 438a1.35 1.35 0 1 0 -1.35-1.35 1.35 1.35 0 0 0 1.35 1.35z"></path>
        <path d="m172.11 458.23a1.35 1.35 0 1 0 -1.35-1.35 1.35 1.35 0 0 0 1.35 1.35z"></path>
        <path d="m172.11 444.73a1.35 1.35 0 1 0 -1.35-1.35 1.35 1.35 0 0 0 1.35 1.35z"></path>
        <path d="m199.11 431.23a1.35 1.35 0 1 0 -1.35-1.35 1.35 1.35 0 0 0 1.35 1.35z"></path>
        <path d="m185.61 431.23a1.35 1.35 0 1 0 -1.35-1.35 1.35 1.35 0 0 0 1.35 1.35z"></path>
        <path d="m172.11 431.23a1.35 1.35 0 1 0 -1.35-1.35 1.35 1.35 0 0 0 1.35 1.35z"></path>
      </g>
      <g clip-path="url(#g)">
        <path d="m199.11 485.23a1.35 1.35 0 1 0 -1.35-1.35 1.35 1.35 0 0 0 1.35 1.35z"></path>
        <path d="m185.61 485.23a1.35 1.35 0 1 0 -1.35-1.35 1.35 1.35 0 0 0 1.35 1.35z"></path>
        <path d="m199.11 471.73a1.35 1.35 0 1 0 -1.35-1.35 1.35 1.35 0 0 0 1.35 1.35z"></path>
        <path d="m185.61 471.73a1.35 1.35 0 1 0 -1.35-1.35 1.35 1.35 0 0 0 1.35 1.35z"></path>
        <path d="m178.86 478.48a1.35 1.35 0 1 0 -1.35-1.35 1.34 1.34 0 0 0 1.35 1.35z"></path>
        <path d="m192.36 478.48a1.35 1.35 0 1 0 -1.35-1.35 1.34 1.34 0 0 0 1.35 1.35z"></path>
        <path d="m178.86 465a1.35 1.35 0 1 0 -1.35-1.35 1.35 1.35 0 0 0 1.35 1.35z"></path>
        <path d="m192.36 465a1.35 1.35 0 1 0 -1.35-1.35 1.35 1.35 0 0 0 1.35 1.35z"></path>
        <path d="m172.11 485.23a1.35 1.35 0 1 0 -1.35-1.35 1.35 1.35 0 0 0 1.35 1.35z"></path>
        <path d="m172.11 471.73a1.35 1.35 0 1 0 -1.35-1.35 1.35 1.35 0 0 0 1.35 1.35z"></path>
        <path d="m199.11 458.23a1.35 1.35 0 1 0 -1.35-1.35 1.35 1.35 0 0 0 1.35 1.35z"></path>
        <path d="m185.61 458.23a1.35 1.35 0 1 0 -1.35-1.35 1.35 1.35 0 0 0 1.35 1.35z"></path>
        <path d="m172.11 458.23a1.35 1.35 0 1 0 -1.35-1.35 1.35 1.35 0 0 0 1.35 1.35z"></path>
      </g>
      <g clip-path="url(#h)">
        <path d="m172.11 458.23a1.35 1.35 0 1 0 -1.35-1.35 1.35 1.35 0 0 0 1.35 1.35z"></path>
        <path d="m158.61 458.23a1.35 1.35 0 1 0 -1.35-1.35 1.35 1.35 0 0 0 1.35 1.35z"></path>
        <path d="m172.11 444.73a1.35 1.35 0 1 0 -1.35-1.35 1.35 1.35 0 0 0 1.35 1.35z"></path>
        <path d="m158.61 444.73a1.35 1.35 0 1 0 -1.35-1.35 1.35 1.35 0 0 0 1.35 1.35z"></path>
        <path d="m151.86 451.48a1.35 1.35 0 1 0 -1.35-1.35 1.35 1.35 0 0 0 1.35 1.35z"></path>
        <path d="m165.36 451.48a1.35 1.35 0 1 0 -1.35-1.35 1.35 1.35 0 0 0 1.35 1.35z"></path>
        <path d="m151.86 438a1.35 1.35 0 1 0 -1.35-1.35 1.35 1.35 0 0 0 1.35 1.35z"></path>
        <path d="m165.36 438a1.35 1.35 0 1 0 -1.35-1.35 1.35 1.35 0 0 0 1.35 1.35z"></path>
        <path d="m145.11 458.23a1.35 1.35 0 1 0 -1.35-1.35 1.35 1.35 0 0 0 1.35 1.35z"></path>
        <path d="m145.11 444.73a1.35 1.35 0 1 0 -1.35-1.35 1.35 1.35 0 0 0 1.35 1.35z"></path>
        <path d="m172.11 431.23a1.35 1.35 0 1 0 -1.35-1.35 1.35 1.35 0 0 0 1.35 1.35z"></path>
        <path d="m158.61 431.23a1.35 1.35 0 1 0 -1.35-1.35 1.35 1.35 0 0 0 1.35 1.35z"></path>
        <path d="m145.11 431.23a1.35 1.35 0 1 0 -1.35-1.35 1.35 1.35 0 0 0 1.35 1.35z"></path>
      </g>
      <g clip-path="url(#i)">
        <path d="m172.11 485.23a1.35 1.35 0 1 0 -1.35-1.35 1.35 1.35 0 0 0 1.35 1.35z"></path>
        <path d="m158.61 485.23a1.35 1.35 0 1 0 -1.35-1.35 1.35 1.35 0 0 0 1.35 1.35z"></path>
        <path d="m172.11 471.73a1.35 1.35 0 1 0 -1.35-1.35 1.35 1.35 0 0 0 1.35 1.35z"></path>
        <path d="m158.61 471.73a1.35 1.35 0 1 0 -1.35-1.35 1.35 1.35 0 0 0 1.35 1.35z"></path>
        <path d="m151.86 478.48a1.35 1.35 0 1 0 -1.35-1.35 1.34 1.34 0 0 0 1.35 1.35z"></path>
        <path d="m165.36 478.48a1.35 1.35 0 1 0 -1.35-1.35 1.34 1.34 0 0 0 1.35 1.35z"></path>
        <path d="m151.86 465a1.35 1.35 0 1 0 -1.35-1.35 1.35 1.35 0 0 0 1.35 1.35z"></path>
        <path d="m165.36 465a1.35 1.35 0 1 0 -1.35-1.35 1.35 1.35 0 0 0 1.35 1.35z"></path>
        <path d="m145.11 485.23a1.35 1.35 0 1 0 -1.35-1.35 1.35 1.35 0 0 0 1.35 1.35z"></path>
        <path d="m145.11 471.73a1.35 1.35 0 1 0 -1.35-1.35 1.35 1.35 0 0 0 1.35 1.35z"></path>
        <path d="m172.11 458.23a1.35 1.35 0 1 0 -1.35-1.35 1.35 1.35 0 0 0 1.35 1.35z"></path>
        <path d="m158.61 458.23a1.35 1.35 0 1 0 -1.35-1.35 1.35 1.35 0 0 0 1.35 1.35z"></path>
        <path d="m145.11 458.23a1.35 1.35 0 1 0 -1.35-1.35 1.35 1.35 0 0 0 1.35 1.35z"></path>
      </g>
      <g clip-path="url(#j)">
        <path d="m145.11 458.23a1.35 1.35 0 1 0 -1.35-1.35 1.35 1.35 0 0 0 1.35 1.35z"></path>
        <path d="m131.61 458.23a1.35 1.35 0 1 0 -1.35-1.35 1.35 1.35 0 0 0 1.35 1.35z"></path>
        <path d="m145.11 444.73a1.35 1.35 0 1 0 -1.35-1.35 1.35 1.35 0 0 0 1.35 1.35z"></path>
        <path d="m131.61 444.73a1.35 1.35 0 1 0 -1.35-1.35 1.35 1.35 0 0 0 1.35 1.35z"></path>
        <path d="m124.86 451.48a1.35 1.35 0 1 0 -1.35-1.35 1.35 1.35 0 0 0 1.35 1.35z"></path>
        <path d="m138.36 451.48a1.35 1.35 0 1 0 -1.35-1.35 1.35 1.35 0 0 0 1.35 1.35z"></path>
        <path d="m124.86 438a1.35 1.35 0 1 0 -1.35-1.35 1.35 1.35 0 0 0 1.35 1.35z"></path>
        <path d="m138.36 438a1.35 1.35 0 1 0 -1.35-1.35 1.35 1.35 0 0 0 1.35 1.35z"></path>
        <path d="m118.11 458.23a1.35 1.35 0 1 0 -1.35-1.35 1.35 1.35 0 0 0 1.35 1.35z"></path>
        <path d="m118.11 444.73a1.35 1.35 0 1 0 -1.35-1.35 1.35 1.35 0 0 0 1.35 1.35z"></path>
        <path d="m145.11 431.23a1.35 1.35 0 1 0 -1.35-1.35 1.35 1.35 0 0 0 1.35 1.35z"></path>
        <path d="m131.61 431.23a1.35 1.35 0 1 0 -1.35-1.35 1.35 1.35 0 0 0 1.35 1.35z"></path>
        <path d="m118.11 431.23a1.35 1.35 0 1 0 -1.35-1.35 1.35 1.35 0 0 0 1.35 1.35z"></path>
      </g>
      <g clip-path="url(#k)">
        <path d="m145.11 485.23a1.35 1.35 0 1 0 -1.35-1.35 1.35 1.35 0 0 0 1.35 1.35z"></path>
        <path d="m131.61 485.23a1.35 1.35 0 1 0 -1.35-1.35 1.35 1.35 0 0 0 1.35 1.35z"></path>
        <path d="m145.11 471.73a1.35 1.35 0 1 0 -1.35-1.35 1.35 1.35 0 0 0 1.35 1.35z"></path>
        <path d="m131.61 471.73a1.35 1.35 0 1 0 -1.35-1.35 1.35 1.35 0 0 0 1.35 1.35z"></path>
        <path d="m124.86 478.48a1.35 1.35 0 1 0 -1.35-1.35 1.34 1.34 0 0 0 1.35 1.35z"></path>
        <path d="m138.36 478.48a1.35 1.35 0 1 0 -1.35-1.35 1.34 1.34 0 0 0 1.35 1.35z"></path>
        <path d="m124.86 465a1.35 1.35 0 1 0 -1.35-1.35 1.35 1.35 0 0 0 1.35 1.35z"></path>
        <path d="m138.36 465a1.35 1.35 0 1 0 -1.35-1.35 1.35 1.35 0 0 0 1.35 1.35z"></path>
        <path d="m118.11 485.23a1.35 1.35 0 1 0 -1.35-1.35 1.35 1.35 0 0 0 1.35 1.35z"></path>
        <path d="m118.11 471.73a1.35 1.35 0 1 0 -1.35-1.35 1.35 1.35 0 0 0 1.35 1.35z"></path>
        <path d="m145.11 458.23a1.35 1.35 0 1 0 -1.35-1.35 1.35 1.35 0 0 0 1.35 1.35z"></path>
        <path d="m131.61 458.23a1.35 1.35 0 1 0 -1.35-1.35 1.35 1.35 0 0 0 1.35 1.35z"></path>
        <path d="m118.11 458.23a1.35 1.35 0 1 0 -1.35-1.35 1.35 1.35 0 0 0 1.35 1.35z"></path>
      </g>
    </g>
    <g clip-path="url(#l)">
      <g clip-path="url(#m)">
        <path d="m388.11 458.23a1.35 1.35 0 1 0 -1.35-1.35 1.35 1.35 0 0 0 1.35 1.35z"></path>
        <path d="m374.61 458.23a1.35 1.35 0 1 0 -1.35-1.35 1.35 1.35 0 0 0 1.35 1.35z"></path>
        <path d="m388.11 444.73a1.35 1.35 0 1 0 -1.35-1.35 1.35 1.35 0 0 0 1.35 1.35z"></path>
        <path d="m374.61 444.73a1.35 1.35 0 1 0 -1.35-1.35 1.35 1.35 0 0 0 1.35 1.35z"></path>
        <path d="m367.86 451.48a1.35 1.35 0 1 0 -1.35-1.35 1.35 1.35 0 0 0 1.35 1.35z"></path>
        <path d="m381.36 451.48a1.35 1.35 0 1 0 -1.35-1.35 1.35 1.35 0 0 0 1.35 1.35z"></path>
        <path d="m367.86 438a1.35 1.35 0 1 0 -1.35-1.35 1.35 1.35 0 0 0 1.35 1.35z"></path>
        <path d="m381.36 438a1.35 1.35 0 1 0 -1.35-1.35 1.35 1.35 0 0 0 1.35 1.35z"></path>
        <path d="m361.11 458.23a1.35 1.35 0 1 0 -1.35-1.35 1.35 1.35 0 0 0 1.35 1.35z"></path>
        <path d="m361.11 444.73a1.35 1.35 0 1 0 -1.35-1.35 1.35 1.35 0 0 0 1.35 1.35z"></path>
        <path d="m388.11 431.23a1.35 1.35 0 1 0 -1.35-1.35 1.35 1.35 0 0 0 1.35 1.35z"></path>
        <path d="m374.61 431.23a1.35 1.35 0 1 0 -1.35-1.35 1.35 1.35 0 0 0 1.35 1.35z"></path>
        <path d="m361.11 431.23a1.35 1.35 0 1 0 -1.35-1.35 1.35 1.35 0 0 0 1.35 1.35z"></path>
      </g>
      <g clip-path="url(#n)">
        <path d="m388.11 485.23a1.35 1.35 0 1 0 -1.35-1.35 1.35 1.35 0 0 0 1.35 1.35z"></path>
        <path d="m374.61 485.23a1.35 1.35 0 1 0 -1.35-1.35 1.35 1.35 0 0 0 1.35 1.35z"></path>
        <path d="m388.11 471.73a1.35 1.35 0 1 0 -1.35-1.35 1.35 1.35 0 0 0 1.35 1.35z"></path>
        <path d="m374.61 471.73a1.35 1.35 0 1 0 -1.35-1.35 1.35 1.35 0 0 0 1.35 1.35z"></path>
        <path d="m367.86 478.48a1.35 1.35 0 1 0 -1.35-1.35 1.34 1.34 0 0 0 1.35 1.35z"></path>
        <path d="m381.36 478.48a1.35 1.35 0 1 0 -1.35-1.35 1.34 1.34 0 0 0 1.35 1.35z"></path>
        <path d="m367.86 465a1.35 1.35 0 1 0 -1.35-1.35 1.35 1.35 0 0 0 1.35 1.35z"></path>
        <path d="m381.36 465a1.35 1.35 0 1 0 -1.35-1.35 1.35 1.35 0 0 0 1.35 1.35z"></path>
        <path d="m361.11 485.23a1.35 1.35 0 1 0 -1.35-1.35 1.35 1.35 0 0 0 1.35 1.35z"></path>
        <path d="m361.11 471.73a1.35 1.35 0 1 0 -1.35-1.35 1.35 1.35 0 0 0 1.35 1.35z"></path>
        <path d="m388.11 458.23a1.35 1.35 0 1 0 -1.35-1.35 1.35 1.35 0 0 0 1.35 1.35z"></path>
        <path d="m374.61 458.23a1.35 1.35 0 1 0 -1.35-1.35 1.35 1.35 0 0 0 1.35 1.35z"></path>
        <path d="m361.11 458.23a1.35 1.35 0 1 0 -1.35-1.35 1.35 1.35 0 0 0 1.35 1.35z"></path>
      </g>
      <g clip-path="url(#o)">
        <path d="m361.11 458.23a1.35 1.35 0 1 0 -1.35-1.35 1.35 1.35 0 0 0 1.35 1.35z"></path>
        <path d="m347.61 458.23a1.35 1.35 0 1 0 -1.35-1.35 1.35 1.35 0 0 0 1.35 1.35z"></path>
        <path d="m361.11 444.73a1.35 1.35 0 1 0 -1.35-1.35 1.35 1.35 0 0 0 1.35 1.35z"></path>
        <path d="m347.61 444.73a1.35 1.35 0 1 0 -1.35-1.35 1.35 1.35 0 0 0 1.35 1.35z"></path>
        <path d="m340.86 451.48a1.35 1.35 0 1 0 -1.35-1.35 1.35 1.35 0 0 0 1.35 1.35z"></path>
        <path d="m354.36 451.48a1.35 1.35 0 1 0 -1.35-1.35 1.35 1.35 0 0 0 1.35 1.35z"></path>
        <path d="m340.86 438a1.35 1.35 0 1 0 -1.35-1.35 1.35 1.35 0 0 0 1.35 1.35z"></path>
        <path d="m354.36 438a1.35 1.35 0 1 0 -1.35-1.35 1.35 1.35 0 0 0 1.35 1.35z"></path>
        <path d="m334.11 458.23a1.35 1.35 0 1 0 -1.35-1.35 1.35 1.35 0 0 0 1.35 1.35z"></path>
        <path d="m334.11 444.73a1.35 1.35 0 1 0 -1.35-1.35 1.35 1.35 0 0 0 1.35 1.35z"></path>
        <path d="m361.11 431.23a1.35 1.35 0 1 0 -1.35-1.35 1.35 1.35 0 0 0 1.35 1.35z"></path>
        <path d="m347.61 431.23a1.35 1.35 0 1 0 -1.35-1.35 1.35 1.35 0 0 0 1.35 1.35z"></path>
        <path d="m334.11 431.23a1.35 1.35 0 1 0 -1.35-1.35 1.35 1.35 0 0 0 1.35 1.35z"></path>
      </g>
      <g clip-path="url(#p)">
        <path d="m361.11 485.23a1.35 1.35 0 1 0 -1.35-1.35 1.35 1.35 0 0 0 1.35 1.35z"></path>
        <path d="m347.61 485.23a1.35 1.35 0 1 0 -1.35-1.35 1.35 1.35 0 0 0 1.35 1.35z"></path>
        <path d="m361.11 471.73a1.35 1.35 0 1 0 -1.35-1.35 1.35 1.35 0 0 0 1.35 1.35z"></path>
        <path d="m347.61 471.73a1.35 1.35 0 1 0 -1.35-1.35 1.35 1.35 0 0 0 1.35 1.35z"></path>
        <path d="m340.86 478.48a1.35 1.35 0 1 0 -1.35-1.35 1.34 1.34 0 0 0 1.35 1.35z"></path>
        <path d="m354.36 478.48a1.35 1.35 0 1 0 -1.35-1.35 1.34 1.34 0 0 0 1.35 1.35z"></path>
        <path d="m340.86 465a1.35 1.35 0 1 0 -1.35-1.35 1.35 1.35 0 0 0 1.35 1.35z"></path>
        <path d="m354.36 465a1.35 1.35 0 1 0 -1.35-1.35 1.35 1.35 0 0 0 1.35 1.35z"></path>
        <path d="m334.11 485.23a1.35 1.35 0 1 0 -1.35-1.35 1.35 1.35 0 0 0 1.35 1.35z"></path>
        <path d="m334.11 471.73a1.35 1.35 0 1 0 -1.35-1.35 1.35 1.35 0 0 0 1.35 1.35z"></path>
        <path d="m361.11 458.23a1.35 1.35 0 1 0 -1.35-1.35 1.35 1.35 0 0 0 1.35 1.35z"></path>
        <path d="m347.61 458.23a1.35 1.35 0 1 0 -1.35-1.35 1.35 1.35 0 0 0 1.35 1.35z"></path>
        <path d="m334.11 458.23a1.35 1.35 0 1 0 -1.35-1.35 1.35 1.35 0 0 0 1.35 1.35z"></path>
      </g>
      <g clip-path="url(#q)">
        <path d="m334.11 458.23a1.35 1.35 0 1 0 -1.35-1.35 1.35 1.35 0 0 0 1.35 1.35z"></path>
        <path d="m320.61 458.23a1.35 1.35 0 1 0 -1.35-1.35 1.35 1.35 0 0 0 1.35 1.35z"></path>
        <path d="m334.11 444.73a1.35 1.35 0 1 0 -1.35-1.35 1.35 1.35 0 0 0 1.35 1.35z"></path>
        <path d="m320.61 444.73a1.35 1.35 0 1 0 -1.35-1.35 1.35 1.35 0 0 0 1.35 1.35z"></path>
        <path d="m313.86 451.48a1.35 1.35 0 1 0 -1.35-1.35 1.35 1.35 0 0 0 1.35 1.35z"></path>
        <path d="m327.36 451.48a1.35 1.35 0 1 0 -1.35-1.35 1.35 1.35 0 0 0 1.35 1.35z"></path>
        <path d="m313.86 438a1.35 1.35 0 1 0 -1.35-1.35 1.35 1.35 0 0 0 1.35 1.35z"></path>
        <path d="m327.36 438a1.35 1.35 0 1 0 -1.35-1.35 1.35 1.35 0 0 0 1.35 1.35z"></path>
        <path d="m307.11 458.23a1.35 1.35 0 1 0 -1.35-1.35 1.35 1.35 0 0 0 1.35 1.35z"></path>
        <path d="m307.11 444.73a1.35 1.35 0 1 0 -1.35-1.35 1.35 1.35 0 0 0 1.35 1.35z"></path>
        <path d="m334.11 431.23a1.35 1.35 0 1 0 -1.35-1.35 1.35 1.35 0 0 0 1.35 1.35z"></path>
        <path d="m320.61 431.23a1.35 1.35 0 1 0 -1.35-1.35 1.35 1.35 0 0 0 1.35 1.35z"></path>
        <path d="m307.11 431.23a1.35 1.35 0 1 0 -1.35-1.35 1.35 1.35 0 0 0 1.35 1.35z"></path>
      </g>
      <g clip-path="url(#r)">
        <path d="m334.11 485.23a1.35 1.35 0 1 0 -1.35-1.35 1.35 1.35 0 0 0 1.35 1.35z"></path>
        <path d="m320.61 485.23a1.35 1.35 0 1 0 -1.35-1.35 1.35 1.35 0 0 0 1.35 1.35z"></path>
        <path d="m334.11 471.73a1.35 1.35 0 1 0 -1.35-1.35 1.35 1.35 0 0 0 1.35 1.35z"></path>
        <path d="m320.61 471.73a1.35 1.35 0 1 0 -1.35-1.35 1.35 1.35 0 0 0 1.35 1.35z"></path>
        <path d="m313.86 478.48a1.35 1.35 0 1 0 -1.35-1.35 1.34 1.34 0 0 0 1.35 1.35z"></path>
        <path d="m327.36 478.48a1.35 1.35 0 1 0 -1.35-1.35 1.34 1.34 0 0 0 1.35 1.35z"></path>
        <path d="m313.86 465a1.35 1.35 0 1 0 -1.35-1.35 1.35 1.35 0 0 0 1.35 1.35z"></path>
        <path d="m327.36 465a1.35 1.35 0 1 0 -1.35-1.35 1.35 1.35 0 0 0 1.35 1.35z"></path>
        <path d="m307.11 485.23a1.35 1.35 0 1 0 -1.35-1.35 1.35 1.35 0 0 0 1.35 1.35z"></path>
        <path d="m307.11 471.73a1.35 1.35 0 1 0 -1.35-1.35 1.35 1.35 0 0 0 1.35 1.35z"></path>
        <path d="m334.11 458.23a1.35 1.35 0 1 0 -1.35-1.35 1.35 1.35 0 0 0 1.35 1.35z"></path>
        <path d="m320.61 458.23a1.35 1.35 0 1 0 -1.35-1.35 1.35 1.35 0 0 0 1.35 1.35z"></path>
        <path d="m307.11 458.23a1.35 1.35 0 1 0 -1.35-1.35 1.35 1.35 0 0 0 1.35 1.35z"></path>
      </g>
      <g clip-path="url(#s)">
        <path d="m307.11 458.23a1.35 1.35 0 1 0 -1.35-1.35 1.35 1.35 0 0 0 1.35 1.35z"></path>
        <path d="m293.61 458.23a1.35 1.35 0 1 0 -1.35-1.35 1.35 1.35 0 0 0 1.35 1.35z"></path>
        <path d="m307.11 444.73a1.35 1.35 0 1 0 -1.35-1.35 1.35 1.35 0 0 0 1.35 1.35z"></path>
        <path d="m293.61 444.73a1.35 1.35 0 1 0 -1.35-1.35 1.35 1.35 0 0 0 1.35 1.35z"></path>
        <path d="m286.86 451.48a1.35 1.35 0 1 0 -1.35-1.35 1.35 1.35 0 0 0 1.35 1.35z"></path>
        <path d="m300.36 451.48a1.35 1.35 0 1 0 -1.35-1.35 1.35 1.35 0 0 0 1.35 1.35z"></path>
        <path d="m286.86 438a1.35 1.35 0 1 0 -1.35-1.35 1.35 1.35 0 0 0 1.35 1.35z"></path>
        <path d="m300.36 438a1.35 1.35 0 1 0 -1.35-1.35 1.35 1.35 0 0 0 1.35 1.35z"></path>
        <path d="m280.11 458.23a1.35 1.35 0 1 0 -1.35-1.35 1.35 1.35 0 0 0 1.35 1.35z"></path>
        <path d="m280.11 444.73a1.35 1.35 0 1 0 -1.35-1.35 1.35 1.35 0 0 0 1.35 1.35z"></path>
        <path d="m307.11 431.23a1.35 1.35 0 1 0 -1.35-1.35 1.35 1.35 0 0 0 1.35 1.35z"></path>
        <path d="m293.61 431.23a1.35 1.35 0 1 0 -1.35-1.35 1.35 1.35 0 0 0 1.35 1.35z"></path>
        <path d="m280.11 431.23a1.35 1.35 0 1 0 -1.35-1.35 1.35 1.35 0 0 0 1.35 1.35z"></path>
      </g>
      <g clip-path="url(#t)">
        <path d="m307.11 485.23a1.35 1.35 0 1 0 -1.35-1.35 1.35 1.35 0 0 0 1.35 1.35z"></path>
        <path d="m293.61 485.23a1.35 1.35 0 1 0 -1.35-1.35 1.35 1.35 0 0 0 1.35 1.35z"></path>
        <path d="m307.11 471.73a1.35 1.35 0 1 0 -1.35-1.35 1.35 1.35 0 0 0 1.35 1.35z"></path>
        <path d="m293.61 471.73a1.35 1.35 0 1 0 -1.35-1.35 1.35 1.35 0 0 0 1.35 1.35z"></path>
        <path d="m286.86 478.48a1.35 1.35 0 1 0 -1.35-1.35 1.34 1.34 0 0 0 1.35 1.35z"></path>
        <path d="m300.36 478.48a1.35 1.35 0 1 0 -1.35-1.35 1.34 1.34 0 0 0 1.35 1.35z"></path>
        <path d="m286.86 465a1.35 1.35 0 1 0 -1.35-1.35 1.35 1.35 0 0 0 1.35 1.35z"></path>
        <path d="m300.36 465a1.35 1.35 0 1 0 -1.35-1.35 1.35 1.35 0 0 0 1.35 1.35z"></path>
        <path d="m280.11 485.23a1.35 1.35 0 1 0 -1.35-1.35 1.35 1.35 0 0 0 1.35 1.35z"></path>
        <path d="m280.11 471.73a1.35 1.35 0 1 0 -1.35-1.35 1.35 1.35 0 0 0 1.35 1.35z"></path>
        <path d="m307.11 458.23a1.35 1.35 0 1 0 -1.35-1.35 1.35 1.35 0 0 0 1.35 1.35z"></path>
        <path d="m293.61 458.23a1.35 1.35 0 1 0 -1.35-1.35 1.35 1.35 0 0 0 1.35 1.35z"></path>
        <path d="m280.11 458.23a1.35 1.35 0 1 0 -1.35-1.35 1.35 1.35 0 0 0 1.35 1.35z"></path>
      </g>
      <g clip-path="url(#u)">
        <path d="m280.11 458.23a1.35 1.35 0 1 0 -1.35-1.35 1.35 1.35 0 0 0 1.35 1.35z"></path>
        <path d="m266.61 458.23a1.35 1.35 0 1 0 -1.35-1.35 1.35 1.35 0 0 0 1.35 1.35z"></path>
        <path d="m280.11 444.73a1.35 1.35 0 1 0 -1.35-1.35 1.35 1.35 0 0 0 1.35 1.35z"></path>
        <path d="m266.61 444.73a1.35 1.35 0 1 0 -1.35-1.35 1.35 1.35 0 0 0 1.35 1.35z"></path>
        <path d="m259.86 451.48a1.35 1.35 0 1 0 -1.35-1.35 1.35 1.35 0 0 0 1.35 1.35z"></path>
        <path d="m273.36 451.48a1.35 1.35 0 1 0 -1.35-1.35 1.35 1.35 0 0 0 1.35 1.35z"></path>
        <path d="m259.86 438a1.35 1.35 0 1 0 -1.35-1.35 1.35 1.35 0 0 0 1.35 1.35z"></path>
        <path d="m273.36 438a1.35 1.35 0 1 0 -1.35-1.35 1.35 1.35 0 0 0 1.35 1.35z"></path>
        <path d="m253.11 458.23a1.35 1.35 0 1 0 -1.35-1.35 1.35 1.35 0 0 0 1.35 1.35z"></path>
        <path d="m253.11 444.73a1.35 1.35 0 1 0 -1.35-1.35 1.35 1.35 0 0 0 1.35 1.35z"></path>
        <path d="m280.11 431.23a1.35 1.35 0 1 0 -1.35-1.35 1.35 1.35 0 0 0 1.35 1.35z"></path>
        <path d="m266.61 431.23a1.35 1.35 0 1 0 -1.35-1.35 1.35 1.35 0 0 0 1.35 1.35z"></path>
        <path d="m253.11 431.23a1.35 1.35 0 1 0 -1.35-1.35 1.35 1.35 0 0 0 1.35 1.35z"></path>
      </g>
      <g clip-path="url(#v)">
        <path d="m280.11 485.23a1.35 1.35 0 1 0 -1.35-1.35 1.35 1.35 0 0 0 1.35 1.35z"></path>
        <path d="m266.61 485.23a1.35 1.35 0 1 0 -1.35-1.35 1.35 1.35 0 0 0 1.35 1.35z"></path>
        <path d="m280.11 471.73a1.35 1.35 0 1 0 -1.35-1.35 1.35 1.35 0 0 0 1.35 1.35z"></path>
        <path d="m266.61 471.73a1.35 1.35 0 1 0 -1.35-1.35 1.35 1.35 0 0 0 1.35 1.35z"></path>
        <path d="m259.86 478.48a1.35 1.35 0 1 0 -1.35-1.35 1.34 1.34 0 0 0 1.35 1.35z"></path>
        <path d="m273.36 478.48a1.35 1.35 0 1 0 -1.35-1.35 1.34 1.34 0 0 0 1.35 1.35z"></path>
        <path d="m259.86 465a1.35 1.35 0 1 0 -1.35-1.35 1.35 1.35 0 0 0 1.35 1.35z"></path>
        <path d="m273.36 465a1.35 1.35 0 1 0 -1.35-1.35 1.35 1.35 0 0 0 1.35 1.35z"></path>
        <path d="m253.11 485.23a1.35 1.35 0 1 0 -1.35-1.35 1.35 1.35 0 0 0 1.35 1.35z"></path>
        <path d="m253.11 471.73a1.35 1.35 0 1 0 -1.35-1.35 1.35 1.35 0 0 0 1.35 1.35z"></path>
        <path d="m280.11 458.23a1.35 1.35 0 1 0 -1.35-1.35 1.35 1.35 0 0 0 1.35 1.35z"></path>
        <path d="m266.61 458.23a1.35 1.35 0 1 0 -1.35-1.35 1.35 1.35 0 0 0 1.35 1.35z"></path>
        <path d="m253.11 458.23a1.35 1.35 0 1 0 -1.35-1.35 1.35 1.35 0 0 0 1.35 1.35z"></path>
      </g>
    </g>
    <path d="m196 358.4a27.11 27.11 0 0 0 2.67-4.15c2.9-5.83 2-12.3 1.19-17.51a3.25 3.25 0 0 0 -1.21-2.11 85 85 0 0 0 .2-14.54l-.19-2.45c-.46-5.53-.93-11.25 1.73-15.27a3.28 3.28 0 0 0 -5.34-3.8c-1 1.35-2.07 2.72-3 4.2.42-5.29-.29-10.53-1-15.66a74.15 74.15 0 0 1 -1-13.23 3.28 3.28 0 0 0 -6.43-1.06c-1.62 5.5-1.62 11.12-1.62 16.62a70 70 0 0 1 -.66 11.73c-.31 1.75-.78 3.55-1.28 5.35a27.5 27.5 0 0 1 1.5-8.51 3.29 3.29 0 0 0 -5.57-3.24c-5.16 5.87-6.58 13.51-6.64 20a37.8 37.8 0 0 1 -2.94-18.64 3.28 3.28 0 0 0 -6.49-.94c-2.7 14-2.31 25.37 1.17 34.89a81.93 81.93 0 0 0 4 8.84c.39.79.79 1.58 1.18 2.38l-.24-.09-.84-.29a42.28 42.28 0 0 1 -11.78-6.37 3.28 3.28 0 0 0 -5.18 3.37c1 4.13 3.45 7.25 5.86 10.28a47.52 47.52 0 0 1 3.12 4.25 19.54 19.54 0 0 1 2.79 10.1h-3.11a1.43 1.43 0 0 0 -1.09.51 1.45 1.45 0 0 0 -.29 1.17l7.71 38.65a1.41 1.41 0 0 0 1.38 1.13h25.13a1.41 1.41 0 0 0 1.38-1.13l7.71-38.65a1.45 1.45 0 0 0 -.29-1.17 1.43 1.43 0 0 0 -1.09-.51h-4.44a17 17 0 0 0 1.44-2c.47-.7.98-1.39 1.56-2.15zm-7.4 42.8h-22.86l-2.74-13.72h28.3zm3.29-16.53h-29.44l-.73-3.62h30.87zm1.29-6.43h-32l-2.56-12.88h37.11zm-2.89-40.81a63.9 63.9 0 0 0 1.25-14.33 1.24 1.24 0 0 0 .06-.29c.05-1 .09-1.93.12-2.92.13-4.06.26-8.26 1.82-12a22.13 22.13 0 0 1 1.79-3.32c-1.17 4.17-.78 8.82-.41 13.35l.19 2.43a82.46 82.46 0 0 1 -.19 13.88l-.16 1.37a3.09 3.09 0 0 0 0 .43c-2 2.25-4.1 4.37-6.1 6.59a42.33 42.33 0 0 0 1.6-5.19zm6.2 2.31c.54 4.16.8 8.86-1.17 12.83a26.85 26.85 0 0 1 -2.39 3.68c-.56.77-1.13 1.55-1.63 2.35a12.66 12.66 0 0 1 -1.29 1.73 1.41 1.41 0 0 0 -.23.35l-.24.43h-6.59a39 39 0 0 1 5.54-12.38c2.29-3.32 5.24-6.05 7.97-8.99zm-13.38-30.31a75.07 75.07 0 0 0 1.9-7.62 72.68 72.68 0 0 0 .72-12.44 76.13 76.13 0 0 1 .57-11.39c.16 3.24.61 6.49 1 9.7.79 5.81 1.61 11.82.6 17.63-.17 1-.38 1.93-.6 2.88a38.7 38.7 0 0 0 -.83 4.56c-.3 2.92.73 7.68 1.24 9.8-.07 6.58-.42 13-2.81 19.42-1.15 3.08-2.44 6-3.6 8.88a79.8 79.8 0 0 0 -.74-9.07 2 2 0 0 0 .78-.38c7.72-6.28 3.56-17.86.14-25.89.44-1.97.98-3.9 1.6-6.08zm-5.85-10.2a31.13 31.13 0 0 0 -.26 14.27c0 .22.12.44.18.66a2.06 2.06 0 0 0 .14 1c.12.26.24.54.36.82l.09.3a2.19 2.19 0 0 0 .29.57c2.69 6.16 6.46 15.44 1.82 20.84a45.6 45.6 0 0 0 -6.31-15.36v-.25c-.12-1.05-.23-2.1-.31-3.16-.52-5.79-.13-13.6 3.97-19.69zm-12.67 29.55c-2.7-7.39-3.38-16.09-2.05-26.47a41.87 41.87 0 0 0 6.08 19 1.68 1.68 0 0 0 .33.71c7.16 9.76 8.74 20.57 8.7 32.06-1.06-4.16-3.13-8.15-6.21-10.56l-.59-1.32c-.75-1.68-1.58-3.33-2.48-5.13a80 80 0 0 1 -3.81-8.29zm-7.59 17.06c-1.85-2.34-3.76-4.74-4.75-7.49a46.11 46.11 0 0 0 11.68 6.1l.86.29a19.42 19.42 0 0 1 4.23 1.85c.1.06.23 0 .33.08 3.79 3.17 5.41 9.71 5.36 14.44h-11a23.39 23.39 0 0 0 -3.35-10.64 47.65 47.65 0 0 0 -3.36-4.63z"></path>
  </g>
</svg>
