<?xml version="1.0" encoding="UTF-8"?>
<svg xmlns="http://www.w3.org/2000/svg" viewBox="0 0 600 600">
  <path d="m253.21 252.87h278.14v228.33h-278.14z" fill="#fff"></path>
  <path d="m292.68 302.88a.4.4 0 0 0 -.29.41v2a.38.38 0 0 0 .32.41h.09a1.22 1.22 0 0 1 -.29.55 4.35 4.35 0 0 1 -.86.76 4.18 4.18 0 0 0 -1 .94 2.91 2.91 0 0 0 -.53 1.7v9.44a1.64 1.64 0 0 0 1.39 1.79h7.49a1.63 1.63 0 0 0 1.39-1.79v-9.42a2.87 2.87 0 0 0 -.52-1.68 4.29 4.29 0 0 0 -1-1 4.69 4.69 0 0 1 -.86-.76 1.41 1.41 0 0 1 -.28-.56h.11a.38.38 0 0 0 .32-.41v-2a.46.46 0 0 0 -.16-.26.29.29 0 0 0 -.23-.13h-5.12z" fill="#ffde00" fill-rule="evenodd"></path>
  <path d="m349.94 332.32a.38.38 0 0 0 -.28.4v2a.38.38 0 0 0 .32.41h.08a1.44 1.44 0 0 1 -.28.55 4.76 4.76 0 0 1 -.87.75 4.61 4.61 0 0 0 -1 .94 2.91 2.91 0 0 0 -.53 1.7v9.44a1.63 1.63 0 0 0 1.39 1.79h7.44a1.64 1.64 0 0 0 1.4-1.79v-9.42a3 3 0 0 0 -.52-1.69 4.53 4.53 0 0 0 -1-1 4.35 4.35 0 0 1 -.86-.76 1.59 1.59 0 0 1 -.28-.55h.11a.38.38 0 0 0 .32-.41v-2a.42.42 0 0 0 -.09-.29.28.28 0 0 0 -.23-.12h-5.12z" fill="#ffde00" fill-rule="evenodd"></path>
  <path d="m525.02 252.88-225.02-73.66-225.02 73.66z" fill="#ffde00"></path>
  <path d="m-22.8 363.83h210.02v11.89h-210.02z" fill="#ffde00" transform="matrix(0 1 -1 0 451.98 287.57)"></path>
  <path d="m-10.91 363.83h210.02v11.89h-210.02z" fill="#ffde00" transform="matrix(0 1 -1 0 463.87 275.68)"></path>
  <path d="m.98 363.83h210.02v11.89h-210.02z" fill="#ffde00" transform="matrix(0 1 -1 0 475.76 263.78)"></path>
  <path d="m12.87 363.83h210.02v11.89h-210.02z" fill="#ffde00" transform="matrix(0 1 -1 0 487.65 251.89)"></path>
  <path d="m61.66 400.73h136.22v11.89h-136.22z" fill="#ffde00" transform="matrix(0 1 -1 0 536.45 276.91)"></path>
  <path d="m73.55 400.73h136.22v11.89h-136.22z" fill="#ffde00" transform="matrix(0 1 -1 0 548.34 265.01)"></path>
  <path d="m85.44 400.73h136.22v11.89h-136.22z" fill="#ffde00" transform="matrix(0 1 -1 0 560.23 253.12)"></path>
  <path d="m97.33 400.73h136.22v11.89h-136.22z" fill="#ffde00" transform="matrix(0 1 -1 0 572.12 241.23)"></path>
  <path d="m109.22 400.73h136.22v11.89h-136.22z" fill="#ffde00" transform="matrix(0 1 -1 0 584.01 229.34)"></path>
  <path d="m121.11 400.73h136.22v11.89h-136.22z" fill="#ffde00" transform="matrix(0 1 -1 0 595.9 217.45)"></path>
  <path d="m133 400.73h136.22v11.89h-136.22z" fill="#ffde00" transform="matrix(0 1 -1 0 607.79 205.56)"></path>
  <path d="m144.89 400.73h136.22v11.89h-136.22z" fill="#ffde00" transform="matrix(0 1 -1 0 619.68 193.67)"></path>
  <path d="m203.45 268.37h19.11v11.89h-19.11z" fill="#ffde00" transform="matrix(0 1 -1 0 487.32 61.31)"></path>
  <path d="m191.56 268.37h19.11v11.89h-19.11z" fill="#ffde00" transform="matrix(0 1 -1 0 475.43 73.2)"></path>
  <path d="m179.67 268.37h19.11v11.89h-19.11z" fill="#ffde00" transform="matrix(0 1 -1 0 463.54 85.1)"></path>
  <path d="m167.78 268.37h19.11v11.89h-19.11z" fill="#ffde00" transform="matrix(0 1 -1 0 451.65 96.99)"></path>
  <path d="m155.89 268.37h19.11v11.89h-19.11z" fill="#ffde00" transform="matrix(0 1 -1 0 439.76 108.88)"></path>
  <path d="m144 268.37h19.11v11.89h-19.11z" fill="#ffde00" transform="matrix(0 1 -1 0 427.87 120.77)"></path>
  <path d="m132.11 268.37h19.11v11.89h-19.11z" fill="#ffde00" transform="matrix(0 1 -1 0 415.98 132.66)"></path>
  <path d="m120.22 268.37h19.11v11.89h-19.11z" fill="#ffde00" transform="matrix(0 1 -1 0 404.09 144.55)"></path>
  <path d="m143.66 363.83h210.02v11.89h-210.02z" fill="#ffde00" transform="matrix(0 1 -1 0 618.45 121.1)"></path>
  <path d="m131.77 363.83h210.02v11.89h-210.02z" fill="#ffde00" transform="matrix(0 1 -1 0 606.56 132.99)"></path>
  <path d="m119.88 363.83h210.02v11.89h-210.02z" fill="#ffde00" transform="matrix(0 1 -1 0 594.67 144.88)"></path>
  <path d="m155.55 363.83h210.02v11.89h-210.02z" fill="#ffde00" transform="matrix(0 1 -1 0 630.34 109.21)"></path>
  <path d="m298.93 408.76a.35.35 0 0 0 -.25.37v1.81c0 .2.13.37.28.37h.04a1.27 1.27 0 0 1 -.25.49 4.11 4.11 0 0 1 -.78.67 4.19 4.19 0 0 0 -.9.85 2.66 2.66 0 0 0 -.47 1.52v8.45a1.46 1.46 0 0 0 1.25 1.6h6.66a1.47 1.47 0 0 0 1.25-1.6v-8.43a2.58 2.58 0 0 0 -.47-1.51 4 4 0 0 0 -.9-.85 4.85 4.85 0 0 1 -.77-.69 1.27 1.27 0 0 1 -.25-.49h.1c.15 0 .28-.17.28-.37v-1.8a.42.42 0 0 0 -.09-.27.24.24 0 0 0 -.2-.11h-4.59z" fill="#ffde00" fill-rule="evenodd"></path>
  <path d="m316 408.76a.35.35 0 0 0 -.25.37v1.81c0 .2.13.37.28.37h.08a1.27 1.27 0 0 1 -.25.49 4.11 4.11 0 0 1 -.78.67 4.19 4.19 0 0 0 -.9.85 2.66 2.66 0 0 0 -.47 1.52v8.45a1.46 1.46 0 0 0 1.25 1.6h6.66a1.47 1.47 0 0 0 1.25-1.6v-8.43a2.58 2.58 0 0 0 -.47-1.51 3.77 3.77 0 0 0 -.9-.85 4.85 4.85 0 0 1 -.77-.69 1.27 1.27 0 0 1 -.25-.49h.1c.16 0 .28-.17.28-.37v-1.8a.42.42 0 0 0 -.09-.27.24.24 0 0 0 -.2-.11h-4.57z" fill="#ffde00" fill-rule="evenodd"></path>
  <path d="m279.19 424.93h8.13v49.86h-8.13z" fill="#ffde00"></path>
  <path d="m333.86 424.93h8.13v49.86h-8.13z" fill="#ffde00"></path>
  <path d="m287.32 424.89h46.54v7.13h-46.54z" fill="#ffde00"></path>
  <path d="m287.32 432.02h46.54v14.25h-46.54z" fill="#ffde00"></path>
  <path d="m287.32 446.28h46.54v7.13h-46.54z" fill="#ffde00"></path>
  <path d="m287.32 453.4h46.54v14.25h-46.54z" fill="#ffde00"></path>
  <path d="m287.32 467.66h46.54v7.13h-46.54z" fill="#ffde00"></path>
  <path d="m378.22 424.93h8.13v49.86h-8.13z" fill="#ffde00"></path>
  <path d="m432.89 424.93h8.13v49.86h-8.13z" fill="#ffde00"></path>
  <path d="m386.35 424.89h46.54v7.13h-46.54z" fill="#ffde00"></path>
  <path d="m386.35 432.02h46.54v14.25h-46.54z" fill="#ffde00"></path>
  <path d="m386.35 446.28h46.54v7.13h-46.54z" fill="#ffde00"></path>
  <path d="m386.35 453.4h46.54v14.25h-46.54z" fill="#ffde00"></path>
  <path d="m386.35 467.66h46.54v7.13h-46.54z" fill="#ffde00"></path>
  <path d="m451.35 424.93h8.13v49.86h-8.13z" fill="#ffde00"></path>
  <path d="m506.02 424.93h8.13v49.86h-8.13z" fill="#ffde00"></path>
  <path d="m459.48 424.89h46.54v7.13h-46.54z" fill="#ffde00"></path>
  <path d="m459.48 432.02h46.54v14.25h-46.54z" fill="#ffde00"></path>
  <path d="m459.48 446.28h46.54v7.13h-46.54z" fill="#ffde00"></path>
  <path d="m459.48 453.4h46.54v14.25h-46.54z" fill="#ffde00"></path>
  <path d="m459.48 467.66h46.54v7.13h-46.54z" fill="#ffde00"></path>
  <path d="m480.88 347.06h29.21v15.64h-29.21z" fill="#ffde00"></path>
  <path d="m342.37 285.38h7.76v8.73h-7.76z" fill="#00ab81"></path>
  <path d="m494.74 298.34h7.76v8.73h-7.76z" fill="#00ab81" transform="matrix(-1 0 0 -1 997.24 605.41)"></path>
  <path d="m478.18 298.34h7.76v8.73h-7.76z" fill="#00ab81" transform="matrix(-1 0 0 -1 964.13 605.41)"></path>
  <path d="m50.65 474.78h499.46v15.67h-499.46z" fill="#00ab81"></path>
  <path d="m76.26 474.78h-25.61v-213.93l25.61-8.38z" fill="#00ab81"></path>
  <path d="m569.27 240.42-7.96 24.34-261.31-85.54v-26.93z" fill="#00ab81"></path>
  <path d="m30.72 240.42 7.97 24.34 261.31-85.54v-26.93z" fill="#00ab81"></path>
  <path d="m76.26 252.87h448.23v11.89h-448.23z" fill="#00ab81"></path>
  <path d="m550.11 474.78h-25.62v-221.9l25.62 8.22z" fill="#00ab81"></path>
  <path d="m301.85 285.38h7.76v8.73h-7.76z" fill="#fb715d"></path>
  <path d="m313.83 285.38h7.76v8.73h-7.76z" fill="#fb715d"></path>
  <path d="m325.81 285.38h7.76v8.73h-7.76z" fill="#fb715d"></path>
  <path d="m276.37 302.88a.39.39 0 0 0 -.28.41v2a.37.37 0 0 0 .32.41h.08a1.31 1.31 0 0 1 -.28.55 4.43 4.43 0 0 1 -.87.76 4.38 4.38 0 0 0 -1 .94 3 3 0 0 0 -.53 1.7v9.44a1.64 1.64 0 0 0 1.39 1.79h7.44a1.64 1.64 0 0 0 1.4-1.79v-9.42a2.87 2.87 0 0 0 -.52-1.68 4.53 4.53 0 0 0 -1-1 4.61 4.61 0 0 1 -.85-.76 1.29 1.29 0 0 1 -.28-.56h.1a.37.37 0 0 0 .32-.41v-2a.46.46 0 0 0 -.1-.29.29.29 0 0 0 -.22-.13h-5.13z" fill="#fb715d" fill-rule="evenodd"></path>
  <path d="m321.8 302.88a.39.39 0 0 0 -.28.41v2a.37.37 0 0 0 .32.41h.08a1.31 1.31 0 0 1 -.28.55 4.43 4.43 0 0 1 -.87.76 4.59 4.59 0 0 0 -1 .94 3 3 0 0 0 -.53 1.7v9.44a1.64 1.64 0 0 0 1.39 1.79h7.44a1.64 1.64 0 0 0 1.4-1.79v-9.42a2.87 2.87 0 0 0 -.47-1.67 4.72 4.72 0 0 0 -1-1 4.38 4.38 0 0 1 -.86-.76 1.29 1.29 0 0 1 -.28-.56h.1a.37.37 0 0 0 .32-.41v-2a.46.46 0 0 0 -.1-.29.29.29 0 0 0 -.22-.13h-5.16z" fill="#fb715d" fill-rule="evenodd"></path>
  <path d="m330.48 332.32a.38.38 0 0 0 -.28.4v2a.38.38 0 0 0 .32.41h.08a1.44 1.44 0 0 1 -.28.55 4.76 4.76 0 0 1 -.87.75 4.61 4.61 0 0 0 -1 .94 2.91 2.91 0 0 0 -.53 1.7v9.44a1.63 1.63 0 0 0 1.39 1.79h7.44a1.64 1.64 0 0 0 1.4-1.79v-9.42a3 3 0 0 0 -.52-1.69 4.53 4.53 0 0 0 -1-1 4.35 4.35 0 0 1 -.86-.76 1.42 1.42 0 0 1 -.27-.55h.1a.38.38 0 0 0 .32-.41v-2a.42.42 0 0 0 -.09-.29.28.28 0 0 0 -.22-.12h-5.13z" fill="#fb715d" fill-rule="evenodd"></path>
  <path d="m349.94 412.57a.38.38 0 0 0 -.28.4v2a.38.38 0 0 0 .32.41h.08a1.44 1.44 0 0 1 -.28.55 4.76 4.76 0 0 1 -.87.75 4.61 4.61 0 0 0 -1 .94 2.91 2.91 0 0 0 -.53 1.7v9.44a1.63 1.63 0 0 0 1.39 1.79h7.44a1.64 1.64 0 0 0 1.4-1.79v-9.42a3 3 0 0 0 -.52-1.69 4.53 4.53 0 0 0 -1-1 4.35 4.35 0 0 1 -.86-.76 1.59 1.59 0 0 1 -.28-.55h.11a.38.38 0 0 0 .32-.41v-2a.42.42 0 0 0 -.09-.29.28.28 0 0 0 -.23-.12h-5.12z" fill="#fb715d" fill-rule="evenodd"></path>
  <path d="m275.35 372.15a.4.4 0 0 0 -.29.41v2a.38.38 0 0 0 .32.41h.09a1.32 1.32 0 0 1 -.29.55 4.35 4.35 0 0 1 -.86.76 4.18 4.18 0 0 0 -1 .94 2.91 2.91 0 0 0 -.53 1.7v9.44a1.64 1.64 0 0 0 1.39 1.79h7.44a1.63 1.63 0 0 0 1.39-1.79v-9.36a2.87 2.87 0 0 0 -.52-1.68 4.29 4.29 0 0 0 -1-1 4.69 4.69 0 0 1 -.86-.76 1.41 1.41 0 0 1 -.28-.56h.11a.38.38 0 0 0 .32-.41v-2a.46.46 0 0 0 -.09-.29.29.29 0 0 0 -.23-.13h-5.12z" fill="#fb715d" fill-rule="evenodd"></path>
  <path d="m311 332.32a.38.38 0 0 0 -.28.4v2a.38.38 0 0 0 .32.41h.08a1.44 1.44 0 0 1 -.28.55 4.76 4.76 0 0 1 -.87.75 4.61 4.61 0 0 0 -1 .94 2.91 2.91 0 0 0 -.53 1.7v9.44a1.63 1.63 0 0 0 1.39 1.79h7.44a1.64 1.64 0 0 0 1.4-1.79v-9.42a2.9 2.9 0 0 0 -.52-1.69 4.53 4.53 0 0 0 -1-1 4.27 4.27 0 0 1 -.85-.76 1.31 1.31 0 0 1 -.28-.55h.1a.38.38 0 0 0 .32-.41v-2a.48.48 0 0 0 -.1-.29.28.28 0 0 0 -.22-.12h-5.12z" fill="#fb715d" fill-rule="evenodd"></path>
  <path d="m509 314.3a.39.39 0 0 1 .28.41v2a.38.38 0 0 1 -.32.41h-.08a1.44 1.44 0 0 0 .28.55 4.76 4.76 0 0 0 .87.75 4.85 4.85 0 0 1 1 .94 3 3 0 0 1 .53 1.7v9.43a1.63 1.63 0 0 1 -1.39 1.79h-7.45a1.64 1.64 0 0 1 -1.39-1.79v-9.39a2.9 2.9 0 0 1 .52-1.69 4.66 4.66 0 0 1 1-1 4.72 4.72 0 0 0 .86-.77 1.31 1.31 0 0 0 .28-.55h-.1a.38.38 0 0 1 -.32-.41v-2a.48.48 0 0 1 .1-.29.28.28 0 0 1 .22-.12h5.11z" fill="#fb715d" fill-rule="evenodd"></path>
  <path d="m489.57 385a.39.39 0 0 1 .28.41v2a.37.37 0 0 1 -.32.41h-.08a1.37 1.37 0 0 0 .28.55 4.78 4.78 0 0 0 .87.76 4.59 4.59 0 0 1 1 .94 3 3 0 0 1 .53 1.69v9.44a1.64 1.64 0 0 1 -1.39 1.79h-7.44a1.64 1.64 0 0 1 -1.4-1.79v-9.4a2.93 2.93 0 0 1 .52-1.69 4.71 4.71 0 0 1 1-1 4.61 4.61 0 0 0 .85-.76 1.29 1.29 0 0 0 .28-.56h-.1a.37.37 0 0 1 -.32-.41v-2a.51.51 0 0 1 .1-.3.31.31 0 0 1 .22-.12h5.13z" fill="#fb715d" fill-rule="evenodd"></path>
  <path d="m509 385a.39.39 0 0 1 .28.41v2a.37.37 0 0 1 -.32.41h-.08a1.37 1.37 0 0 0 .28.55 4.78 4.78 0 0 0 .87.76 4.59 4.59 0 0 1 1 .94 3 3 0 0 1 .53 1.69v9.44a1.64 1.64 0 0 1 -1.36 1.8h-7.45a1.64 1.64 0 0 1 -1.39-1.79v-9.41a2.93 2.93 0 0 1 .52-1.69 4.92 4.92 0 0 1 1-1 4.69 4.69 0 0 0 .86-.76 1.29 1.29 0 0 0 .28-.56h-.1a.37.37 0 0 1 -.32-.41v-2a.51.51 0 0 1 .1-.3.31.31 0 0 1 .22-.12h5.08z" fill="#fb715d" fill-rule="evenodd"></path>
  <path d="m123.82 283.87h95.12v54.32h-95.12z" fill="#fb715d"></path>
  <g fill="#1c19a8">
    <path d="m365.63 294.1h2.81v180.68h-2.81z"></path>
    <path d="m368.5 394.45h-102.68v-5.69h102.68z"></path>
    <path d="m368.5 434.87h-27.92v-5.69h27.92zm-25.1-2.82 22.29-.06z"></path>
    <path d="m280.47 434.87h-15.37v-5.69h15.37zm-12.55-2.82 9.74-.06z"></path>
    <path d="m265.07 292.69h103.42v5.61h-103.42z"></path>
    <path d="m311 295.51h-10.56v-11.51h10.56zm-7.76-2.81h4.95v-5.91h-4.95z"></path>
    <path d="m323 295.51h-10.57v-11.51h10.57zm-7.75-2.81h4.94v-5.91h-4.94z"></path>
    <path d="m335 295.51h-10.59v-11.51h10.59zm-7.76-2.81h4.94v-5.91h-4.94z"></path>
    <path d="m351.53 295.51h-10.53v-11.51h10.57zm-7.76-2.81h5v-5.91h-5z"></path>
    <path d="m299 322.31h-7.44a3 3 0 0 1 -2.8-3.2v-9.44a4.41 4.41 0 0 1 .79-2.52 5.51 5.51 0 0 1 1.31-1.25l.23-.17a1.42 1.42 0 0 1 -.05-.42v-2a1.77 1.77 0 0 1 1.49-1.8h5.32a2 2 0 0 1 1.36.68 1.94 1.94 0 0 1 .37 1.14v2a2 2 0 0 1 -.05.43l.2.15a6 6 0 0 1 1.31 1.26 4.4 4.4 0 0 1 .78 2.49v9.45a3 3 0 0 1 -2.82 3.2zm-5.15-17.53.07.08a1.44 1.44 0 0 1 .29 1.21 2.89 2.89 0 0 1 -.54 1.08 6.12 6.12 0 0 1 -1.13 1 3.07 3.07 0 0 0 -.7.63 1.54 1.54 0 0 0 -.27.9v9.42a.54.54 0 0 0 .14.42h7.28c-.09 0 0-.16 0-.39v-9.42a1.63 1.63 0 0 0 -.26-.88 3.71 3.71 0 0 0 -.71-.65 6 6 0 0 1 -1.12-1 2.79 2.79 0 0 1 -.54-1.09 1.4 1.4 0 0 1 .27-1.2l.12-.14v-.42h-2.95z"></path>
    <path d="m282.65 322.31h-7.45a3 3 0 0 1 -2.79-3.2v-9.44a4.32 4.32 0 0 1 .79-2.52 5.85 5.85 0 0 1 1.29-1.24l.24-.18a1.42 1.42 0 0 1 -.05-.42v-2a1.79 1.79 0 0 1 1.49-1.8h5.33a2 2 0 0 1 1.35.68 1.84 1.84 0 0 1 .37 1.19v2a1.54 1.54 0 0 1 -.06.43l.19.14a6.15 6.15 0 0 1 1.32 1.27 4.34 4.34 0 0 1 .78 2.5v9.44a3 3 0 0 1 -2.8 3.15zm-5.16-17.53.07.08a1.45 1.45 0 0 1 .3 1.21 3 3 0 0 1 -.56 1.09 6.09 6.09 0 0 1 -1.11 1 3.2 3.2 0 0 0 -.71.63 1.55 1.55 0 0 0 -.26.9v9.42a.66.66 0 0 0 .13.43h7.28c-.09 0 0-.16 0-.39v-9.42a1.49 1.49 0 0 0 -.25-.87 3.79 3.79 0 0 0 -.72-.66 6.33 6.33 0 0 1 -1.11-1 2.92 2.92 0 0 1 -.55-1.1 1.44 1.44 0 0 1 .27-1.2l.13-.14v-.42h-2.91z"></path>
    <path d="m328.07 322.31h-7.43a3 3 0 0 1 -2.81-3.2v-9.44a4.36 4.36 0 0 1 .81-2.53 5.43 5.43 0 0 1 1.3-1.24l.22-.17a1.86 1.86 0 0 1 -.05-.42v-2a1.78 1.78 0 0 1 1.49-1.8h5.33a2 2 0 0 1 1.35.68 1.94 1.94 0 0 1 .37 1.14v2a2 2 0 0 1 -.05.43l.19.15a6.35 6.35 0 0 1 1.31 1.26 4.41 4.41 0 0 1 .79 2.49v9.45a3 3 0 0 1 -2.82 3.2zm-5.15-17.52a.17.17 0 0 1 .06.06 1.42 1.42 0 0 1 .31 1.2 2.72 2.72 0 0 1 -.55 1.1 5.83 5.83 0 0 1 -1.12 1 3.42 3.42 0 0 0 -.71.64 1.48 1.48 0 0 0 -.26.9v9.42a.6.6 0 0 0 .13.42h7.29c-.1 0 0-.16 0-.39v-9.42a1.55 1.55 0 0 0 -.25-.88 3.45 3.45 0 0 0 -.71-.64 6 6 0 0 1 -1.12-1 2.82 2.82 0 0 1 -.54-1.1 1.43 1.43 0 0 1 .26-1.2l.13-.14v-.42h-2.91z"></path>
    <path d="m356.21 351.74h-7.44a3 3 0 0 1 -2.8-3.2v-9.44a4.39 4.39 0 0 1 .8-2.52 5.66 5.66 0 0 1 1.3-1.24l.23-.18a1.84 1.84 0 0 1 -.05-.41v-2a1.79 1.79 0 0 1 1.49-1.81h5.32a2 2 0 0 1 1.36.69 1.84 1.84 0 0 1 .37 1.13v2a1.54 1.54 0 0 1 0 .43 1.33 1.33 0 0 0 .19.14 6.15 6.15 0 0 1 1.32 1.27 4.39 4.39 0 0 1 .78 2.5v9.44a3 3 0 0 1 -2.87 3.2zm-5.15-17.52.07.07a1.43 1.43 0 0 1 .29 1.22 2.77 2.77 0 0 1 -.55 1.08 5.83 5.83 0 0 1 -1.12 1 3.42 3.42 0 0 0 -.71.64 1.51 1.51 0 0 0 -.25.9v9.41a.63.63 0 0 0 .13.43h7.28c-.09 0 0-.16 0-.39v-9.42a1.49 1.49 0 0 0 -.25-.87 3 3 0 0 0 -.72-.65 6 6 0 0 1 -1.11-1 2.73 2.73 0 0 1 -.55-1.12 1.39 1.39 0 0 1 .28-1.18l.11-.13v-.43h-2.91z"></path>
    <path d="m336.75 351.74h-7.44a3 3 0 0 1 -2.8-3.2v-9.44a4.38 4.38 0 0 1 .81-2.53 5.64 5.64 0 0 1 1.3-1.24l.22-.17a1.84 1.84 0 0 1 0-.41v-2a1.8 1.8 0 0 1 1.49-1.81h5.33a2 2 0 0 1 1.33.66 1.93 1.93 0 0 1 .39 1.16v2a2 2 0 0 1 -.05.43l.19.16a5.67 5.67 0 0 1 1.31 1.26 4.28 4.28 0 0 1 .78 2.49v9.44a3 3 0 0 1 -2.86 3.2zm-5.15-17.52a.2.2 0 0 1 .06.07 1.4 1.4 0 0 1 .31 1.19 2.66 2.66 0 0 1 -.55 1.1 5.83 5.83 0 0 1 -1.12 1 3.42 3.42 0 0 0 -.71.64 1.51 1.51 0 0 0 -.26.91v9.41a.63.63 0 0 0 .13.43h7.29c-.1 0 0-.16 0-.39v-9.42a1.49 1.49 0 0 0 -.25-.87 3.41 3.41 0 0 0 -.7-.65 5.8 5.8 0 0 1 -1.13-1 2.75 2.75 0 0 1 -.54-1.1 1.4 1.4 0 0 1 .26-1.19.86.86 0 0 1 .13-.14v-.43h-2.92z"></path>
    <path d="m356.21 432h-7.44a3 3 0 0 1 -2.8-3.2v-9.44a4.44 4.44 0 0 1 .8-2.52 5.68 5.68 0 0 1 1.27-1.22l.26-.2a1.84 1.84 0 0 1 -.05-.41v-2a1.79 1.79 0 0 1 1.47-1.79h.22 5.12a2 2 0 0 1 1.37.7 1.83 1.83 0 0 1 .36 1.12v2a1.54 1.54 0 0 1 0 .43l.17.13a6.12 6.12 0 0 1 1.34 1.28 4.39 4.39 0 0 1 .78 2.5v9.44a3 3 0 0 1 -2.87 3.18zm-5.15-17.52.07.07a1.44 1.44 0 0 1 .29 1.21 2.74 2.74 0 0 1 -.55 1.09 6 6 0 0 1 -1.12 1 3.45 3.45 0 0 0 -.71.64 1.6 1.6 0 0 0 -.25.9v9.41a.66.66 0 0 0 .13.43h7.28c-.09 0 0-.16 0-.39v-9.42a1.49 1.49 0 0 0 -.25-.87 3.76 3.76 0 0 0 -.71-.65 5.89 5.89 0 0 1 -1.13-1 2.84 2.84 0 0 1 -.54-1.12 1.42 1.42 0 0 1 .28-1.19l.11-.12v-.47h-2.91z"></path>
    <path d="m281.62 391.58h-7.44a3 3 0 0 1 -2.8-3.2v-9.44a4.32 4.32 0 0 1 .8-2.52 5.49 5.49 0 0 1 1.3-1.25l.23-.17a1.42 1.42 0 0 1 0-.42v-2a1.77 1.77 0 0 1 1.5-1.8h5.31a2 2 0 0 1 1.32.64 1.94 1.94 0 0 1 .41 1.18v2a1.54 1.54 0 0 1 -.05.43c.07.06.15.11.21.17a5.51 5.51 0 0 1 1.3 1.25 4.31 4.31 0 0 1 .78 2.49v9.44a3 3 0 0 1 -2.87 3.2zm-5.15-17.53a.27.27 0 0 0 .07.08 1.46 1.46 0 0 1 .29 1.22 2.84 2.84 0 0 1 -.55 1.08 5.77 5.77 0 0 1 -1.12 1 3.44 3.44 0 0 0 -.71.65 1.56 1.56 0 0 0 -.26.89v9.42a.56.56 0 0 0 .14.42h7.28c-.09 0 0-.15 0-.38v-9.43a1.46 1.46 0 0 0 -.26-.87 3 3 0 0 0 -.71-.66 5.87 5.87 0 0 1 -1.11-1 2.72 2.72 0 0 1 -.55-1.1 1.4 1.4 0 0 1 .27-1.2l.13-.14v-.42h-2.91z"></path>
    <path d="m317.29 351.74h-7.44a3 3 0 0 1 -2.8-3.2v-9.44a4.44 4.44 0 0 1 .8-2.52 5.72 5.72 0 0 1 1.31-1.25l.22-.17a1.84 1.84 0 0 1 -.05-.41v-2a1.79 1.79 0 0 1 1.49-1.81h5.33a2 2 0 0 1 1.35.69 1.89 1.89 0 0 1 .37 1.13v2a2 2 0 0 1 -.05.43l.19.16a5.61 5.61 0 0 1 1.31 1.26 4.28 4.28 0 0 1 .78 2.49v9.44a3 3 0 0 1 -2.81 3.2zm-5.15-17.52a.46.46 0 0 1 .07.07 1.47 1.47 0 0 1 .3 1.22 2.81 2.81 0 0 1 -.55 1.07 5.83 5.83 0 0 1 -1.12 1 3.42 3.42 0 0 0 -.71.64 1.56 1.56 0 0 0 -.26.91v9.41a.66.66 0 0 0 .13.43h7.29c-.1 0 0-.16 0-.39v-9.42a1.49 1.49 0 0 0 -.25-.87 3 3 0 0 0 -.72-.65 6.31 6.31 0 0 1 -1.11-1 2.75 2.75 0 0 1 -.54-1.1 1.4 1.4 0 0 1 .26-1.19.86.86 0 0 1 .13-.14v-.43h-2.91z"></path>
    <path d="m368.5 354h-102.68v-5.69h102.68zm-99.87-2.81 97.06-.07z"></path>
    <path d="m368.5 324.38h-102.68v-5.68h102.68zm-99.87-2.81 97.06-.06z"></path>
    <path d="m471.07 307.07h2.81v168.11h-2.81z"></path>
    <path d="m525.52 407.42h-54.52v-5.69h54.51zm-51.7-2.81 48.89-.07z"></path>
    <path d="m471.02 305.65h55.25v5.61h-55.25z"></path>
    <path d="m503.9 308.48h-10.57v-11.54h10.57zm-7.75-2.81h4.94v-5.92h-4.94z"></path>
    <path d="m487.35 308.48h-10.57v-11.54h10.57zm-7.76-2.81h5v-5.92h-5z"></path>
    <path d="m510.19 333.72h-7.43a3 3 0 0 1 -2.81-3.2v-9.41a4.39 4.39 0 0 1 .79-2.52 5.67 5.67 0 0 1 1.29-1.25c.07-.06.15-.11.21-.17a2.12 2.12 0 0 1 -.05-.44v-2a2.33 2.33 0 0 1 .37-1.14 1.69 1.69 0 0 1 1.35-.69h5.33a1.79 1.79 0 0 1 1.49 1.81v2a1.84 1.84 0 0 1 -.05.41l.23.18a5.61 5.61 0 0 1 1.3 1.24 4.42 4.42 0 0 1 .8 2.49v9.47a3 3 0 0 1 -2.82 3.22zm-5.19-17.54.07.09a1.4 1.4 0 0 1 .32 1.19 2.7 2.7 0 0 1 -.53 1.09 5.68 5.68 0 0 1 -1.09 1 3.33 3.33 0 0 0 -.75.68 1.52 1.52 0 0 0 -.25.89v9.4a.66.66 0 0 0 .13.43h7.29c-.09 0 0-.16 0-.39v-9.43a1.55 1.55 0 0 0 -.26-.88 3.42 3.42 0 0 0 -.7-.64 5.9 5.9 0 0 1 -1.12-1 2.75 2.75 0 0 1 -.56-1.09 1.43 1.43 0 0 1 .26-1.21.6.6 0 0 1 .11-.12v-.45h-2.92z"></path>
    <path d="m490.74 404.42h-7.44a3 3 0 0 1 -2.81-3.2v-9.42a4.44 4.44 0 0 1 .79-2.52 5.56 5.56 0 0 1 1.27-1.23l.23-.18a2.22 2.22 0 0 1 0-.45v-2a2.42 2.42 0 0 1 .38-1.16 1.69 1.69 0 0 1 1.34-.67h5.09.33a1.79 1.79 0 0 1 1.4 1.8v2a1.86 1.86 0 0 1 -.05.42l.23.17a5.68 5.68 0 0 1 1.3 1.25 4.32 4.32 0 0 1 .8 2.49v9.47a3 3 0 0 1 -2.86 3.23zm-5.2-17.55.07.09a1.43 1.43 0 0 1 .32 1.2 2.82 2.82 0 0 1 -.54 1.1 5.82 5.82 0 0 1 -1.12 1 3.81 3.81 0 0 0 -.71.66 1.47 1.47 0 0 0 -.25.89v9.4a.62.62 0 0 0 .13.42h7.29c-.1 0 0-.15 0-.38v-9.44a1.4 1.4 0 0 0 -.26-.87 3.09 3.09 0 0 0 -.7-.64 6.18 6.18 0 0 1 -1.12-1 2.79 2.79 0 0 1 -.56-1.11 1.4 1.4 0 0 1 .27-1.2l.09-.11v-.45h-2.9z"></path>
    <path d="m510.19 404.42h-7.43a3 3 0 0 1 -2.81-3.2v-9.42a4.44 4.44 0 0 1 .79-2.52 5.91 5.91 0 0 1 1.26-1.28l.21-.16a2.14 2.14 0 0 1 -.05-.45v-2a2.42 2.42 0 0 1 .38-1.16 1.7 1.7 0 0 1 1.34-.67h5.31a1.79 1.79 0 0 1 1.51 1.8v2a1.86 1.86 0 0 1 -.05.42l.23.17a5.68 5.68 0 0 1 1.3 1.25 4.37 4.37 0 0 1 .8 2.49v9.47a3 3 0 0 1 -2.79 3.26zm-5.19-17.55.07.09a1.43 1.43 0 0 1 .32 1.2 2.82 2.82 0 0 1 -.54 1.1 5.54 5.54 0 0 1 -1.12 1 3.47 3.47 0 0 0 -.71.66 1.47 1.47 0 0 0 -.25.89v9.4a.62.62 0 0 0 .13.42h7.29c-.09 0 0-.15 0-.38v-9.44a1.53 1.53 0 0 0 -.26-.88 3.3 3.3 0 0 0 -.7-.63 6.18 6.18 0 0 1 -1.12-1 2.91 2.91 0 0 1 -.56-1.09 1.42 1.42 0 0 1 .26-1.21.45.45 0 0 1 .11-.13v-.44h-2.92z"></path>
    <path d="m525.52 367h-54.52v-5.68h54.51zm-51.7-2.81 48.89-.06z"></path>
    <path d="m525.52 337.35h-54.52v-5.69h54.51zm-51.7-2.81 48.89-.07z"></path>
    <path d="m550.11 491.86h-499.46a1.41 1.41 0 0 1 -1.41-1.4v-15.68a1.41 1.41 0 0 1 1.41-1.4h499.46a1.4 1.4 0 0 1 1.4 1.4v15.68a1.4 1.4 0 0 1 -1.4 1.4zm-498.06-2.81h496.65v-12.86h-496.65z"></path>
    <path d="m76.26 476.19h-25.61a1.41 1.41 0 0 1 -1.41-1.41v-213.93a1.41 1.41 0 0 1 1-1.34l25.62-8.38a1.41 1.41 0 0 1 1.84 1.33v222.32a1.41 1.41 0 0 1 -1.44 1.41zm-24.21-2.81h22.81v-219l-22.81 7.46z"></path>
    <path d="m525 254.29h-450a1.4 1.4 0 0 1 -.43-2.74l225-73.66a1.47 1.47 0 0 1 .88 0l225 73.66a1.4 1.4 0 0 1 -.44 2.74zm-441.2-2.81h432.4l-216.2-70.77z"></path>
    <path d="m561.31 266.17a1.31 1.31 0 0 1 -.44-.07l-261.31-85.54a1.42 1.42 0 0 1 -1-1.33v-26.94a1.41 1.41 0 0 1 .59-1.14 1.38 1.38 0 0 1 1.26-.2l269.27 88.13a1.42 1.42 0 0 1 .82.7 1.4 1.4 0 0 1 .08 1.08l-8 24.34a1.42 1.42 0 0 1 -.7.82 1.39 1.39 0 0 1 -.57.15zm-259.9-88 259 84.78 7.09-21.67-266.09-87.05z"></path>
    <path d="m38.69 266.17a1.39 1.39 0 0 1 -.63-.15 1.42 1.42 0 0 1 -.7-.82l-8-24.34a1.4 1.4 0 0 1 .08-1.08 1.42 1.42 0 0 1 .82-.7l269.3-88.08a1.38 1.38 0 0 1 1.26.2 1.41 1.41 0 0 1 .59 1.14v26.94a1.42 1.42 0 0 1 -1 1.33l-261.28 85.49a1.31 1.31 0 0 1 -.44.07zm-6.19-24.85 7.09 21.68 259-84.78v-24z"></path>
    <path d="m298.59 179.23h2.81v73.66h-2.81z"></path>
    <path d="m311.62 183.47h2.81v69.4h-2.81z"></path>
    <path d="m324.68 187.76h2.81v65.12h-2.81z"></path>
    <path d="m337.7 192.01h2.81v60.87h-2.81z"></path>
    <path d="m350.73 196.29h2.81v56.58h-2.81z"></path>
    <path d="m363.75 200.54h2.81v52.34h-2.81z"></path>
    <path d="m376.81 204.83h2.81v48.05h-2.81z"></path>
    <path d="m389.84 209.07h2.81v43.8h-2.81z"></path>
    <path d="m402.86 213.36h2.81v39.51h-2.81z"></path>
    <path d="m415.88 217.61h2.81v35.27h-2.81z"></path>
    <path d="m428.94 221.89h2.81v30.98h-2.81z"></path>
    <path d="m441.97 226.14h2.81v26.73h-2.81z"></path>
    <path d="m454.99 230.43h2.81v22.45h-2.81z"></path>
    <path d="m468.01 234.67h2.81v18.2h-2.81z"></path>
    <path d="m481.08 238.96h2.81v13.91h-2.81z"></path>
    <path d="m494.1 243.21h2.81v9.67h-2.81z"></path>
    <path d="m507.12 247.45h2.81v5.42h-2.81z"></path>
    <path d="m284.48 183.47h2.81v69.4h-2.81z"></path>
    <path d="m271.41 187.76h2.81v65.12h-2.81z"></path>
    <path d="m258.39 192.01h2.81v60.87h-2.81z"></path>
    <path d="m245.37 196.29h2.81v56.58h-2.81z"></path>
    <path d="m232.35 200.54h2.81v52.34h-2.81z"></path>
    <path d="m219.28 204.83h2.81v48.05h-2.81z"></path>
    <path d="m206.26 209.07h2.81v43.8h-2.81z"></path>
    <path d="m193.23 213.36h2.81v39.51h-2.81z"></path>
    <path d="m180.21 217.61h2.81v35.27h-2.81z"></path>
    <path d="m167.15 221.89h2.81v30.98h-2.81z"></path>
    <path d="m154.13 226.14h2.81v26.73h-2.81z"></path>
    <path d="m141.1 230.43h2.81v22.45h-2.81z"></path>
    <path d="m128.08 234.67h2.81v18.2h-2.81z"></path>
    <path d="m115.02 238.96h2.81v13.91h-2.81z"></path>
    <path d="m101.99 243.21h2.81v9.67h-2.81z"></path>
    <path d="m88.97 247.45h2.81v5.42h-2.81z"></path>
    <path d="m524.49 266.17h-448.23a1.41 1.41 0 0 1 -1.4-1.41v-11.89a1.4 1.4 0 0 1 1.4-1.4h448.23a1.4 1.4 0 0 1 1.4 1.4v11.89a1.41 1.41 0 0 1 -1.4 1.41zm-446.82-2.81h445.41v-9.08h-445.41z"></path>
    <path d="m88.15 476.19h-11.89a1.41 1.41 0 0 1 -1.4-1.41v-210a1.4 1.4 0 0 1 1.4-1.4h11.89a1.41 1.41 0 0 1 1.41 1.4v210a1.41 1.41 0 0 1 -1.41 1.41zm-10.48-2.81h9.08v-207.21h-9.08z"></path>
    <path d="m100.05 476.19h-11.9a1.41 1.41 0 0 1 -1.4-1.41v-210a1.4 1.4 0 0 1 1.4-1.4h11.9a1.4 1.4 0 0 1 1.4 1.4v210a1.41 1.41 0 0 1 -1.4 1.41zm-10.49-2.81h9.08v-207.21h-9.08z"></path>
    <path d="m111.94 476.19h-11.89a1.41 1.41 0 0 1 -1.41-1.41v-210a1.41 1.41 0 0 1 1.41-1.4h11.89a1.4 1.4 0 0 1 1.4 1.4v210a1.41 1.41 0 0 1 -1.4 1.41zm-10.49-2.81h9.08v-207.21h-9.08z"></path>
    <path d="m123.82 476.19h-11.88a1.41 1.41 0 0 1 -1.41-1.41v-210a1.41 1.41 0 0 1 1.41-1.4h11.88a1.41 1.41 0 0 1 1.41 1.4v210a1.41 1.41 0 0 1 -1.41 1.41zm-10.48-2.81h9.08v-207.21h-9.08z"></path>
    <path d="m135.71 476.19h-11.89a1.41 1.41 0 0 1 -1.4-1.41v-136.21a1.41 1.41 0 0 1 1.4-1.41h11.89a1.41 1.41 0 0 1 1.41 1.41v136.21a1.41 1.41 0 0 1 -1.41 1.41zm-10.48-2.81h9.08v-133.38h-9.08z"></path>
    <path d="m147.6 476.19h-11.89a1.41 1.41 0 0 1 -1.4-1.41v-136.21a1.41 1.41 0 0 1 1.4-1.41h11.89a1.41 1.41 0 0 1 1.41 1.41v136.21a1.41 1.41 0 0 1 -1.41 1.41zm-10.48-2.81h9.08v-133.38h-9.08z"></path>
    <path d="m159.5 476.19h-11.9a1.41 1.41 0 0 1 -1.4-1.41v-136.21a1.41 1.41 0 0 1 1.4-1.41h11.9a1.41 1.41 0 0 1 1.4 1.41v136.21a1.41 1.41 0 0 1 -1.4 1.41zm-10.5-2.81h9.08v-133.38h-9.08z"></path>
    <path d="m171.39 476.19h-11.89a1.41 1.41 0 0 1 -1.41-1.41v-136.21a1.41 1.41 0 0 1 1.41-1.41h11.89a1.41 1.41 0 0 1 1.4 1.41v136.21a1.41 1.41 0 0 1 -1.4 1.41zm-10.49-2.81h9.1v-133.38h-9.1z"></path>
    <path d="m183.28 476.19h-11.89a1.41 1.41 0 0 1 -1.41-1.41v-136.21a1.41 1.41 0 0 1 1.41-1.41h11.89a1.41 1.41 0 0 1 1.4 1.41v136.21a1.41 1.41 0 0 1 -1.4 1.41zm-10.49-2.81h9.08v-133.38h-9.08z"></path>
    <path d="m195.17 476.19h-11.89a1.41 1.41 0 0 1 -1.41-1.41v-136.21a1.41 1.41 0 0 1 1.41-1.41h11.89a1.41 1.41 0 0 1 1.4 1.41v136.21a1.41 1.41 0 0 1 -1.4 1.41zm-10.49-2.81h9.08v-133.38h-9.08z"></path>
    <path d="m207.06 476.19h-11.89a1.41 1.41 0 0 1 -1.41-1.41v-136.21a1.41 1.41 0 0 1 1.41-1.41h11.89a1.41 1.41 0 0 1 1.41 1.41v136.21a1.41 1.41 0 0 1 -1.41 1.41zm-10.49-2.81h9.08v-133.38h-9.08z"></path>
    <path d="m219 476.19h-11.94a1.41 1.41 0 0 1 -1.41-1.41v-136.21a1.41 1.41 0 0 1 1.41-1.41h11.94a1.41 1.41 0 0 1 1.4 1.41v136.21a1.41 1.41 0 0 1 -1.4 1.41zm-10.48-2.81h9.07v-133.38h-9.07z"></path>
    <path d="m219 285.28h-11.94a1.41 1.41 0 0 1 -1.41-1.41v-19.11a1.41 1.41 0 0 1 1.41-1.4h11.94a1.41 1.41 0 0 1 1.41 1.4v19.11a1.41 1.41 0 0 1 -1.41 1.41zm-10.48-2.82h9.07v-16.29h-9.07z"></path>
    <path d="m207.06 285.28h-11.89a1.41 1.41 0 0 1 -1.41-1.41v-19.11a1.41 1.41 0 0 1 1.41-1.4h11.89a1.41 1.41 0 0 1 1.41 1.4v19.11a1.41 1.41 0 0 1 -1.41 1.41zm-10.49-2.82h9.08v-16.29h-9.08z"></path>
    <path d="m195.17 285.28h-11.89a1.41 1.41 0 0 1 -1.41-1.41v-19.11a1.41 1.41 0 0 1 1.41-1.4h11.89a1.4 1.4 0 0 1 1.4 1.4v19.11a1.41 1.41 0 0 1 -1.4 1.41zm-10.49-2.82h9.08v-16.29h-9.08z"></path>
    <path d="m183.28 285.28h-11.89a1.41 1.41 0 0 1 -1.41-1.41v-19.11a1.41 1.41 0 0 1 1.41-1.4h11.89a1.4 1.4 0 0 1 1.4 1.4v19.11a1.41 1.41 0 0 1 -1.4 1.41zm-10.49-2.82h9.08v-16.29h-9.08z"></path>
    <path d="m171.39 285.28h-11.89a1.41 1.41 0 0 1 -1.41-1.41v-19.11a1.41 1.41 0 0 1 1.41-1.4h11.89a1.4 1.4 0 0 1 1.4 1.4v19.11a1.41 1.41 0 0 1 -1.4 1.41zm-10.49-2.82h9.1v-16.29h-9.1z"></path>
    <path d="m159.5 285.28h-11.9a1.41 1.41 0 0 1 -1.4-1.41v-19.11a1.4 1.4 0 0 1 1.4-1.4h11.9a1.4 1.4 0 0 1 1.4 1.4v19.11a1.41 1.41 0 0 1 -1.4 1.41zm-10.5-2.82h9.08v-16.29h-9.08z"></path>
    <path d="m147.6 285.28h-11.89a1.41 1.41 0 0 1 -1.4-1.41v-19.11a1.4 1.4 0 0 1 1.4-1.4h11.89a1.41 1.41 0 0 1 1.41 1.4v19.11a1.41 1.41 0 0 1 -1.41 1.41zm-10.48-2.82h9.08v-16.29h-9.08z"></path>
    <path d="m135.71 285.28h-11.89a1.41 1.41 0 0 1 -1.4-1.41v-19.11a1.4 1.4 0 0 1 1.4-1.4h11.89a1.41 1.41 0 0 1 1.41 1.4v19.11a1.41 1.41 0 0 1 -1.41 1.41zm-10.48-2.82h9.08v-16.29h-9.08z"></path>
    <path d="m254.62 476.19h-11.89a1.41 1.41 0 0 1 -1.41-1.41v-210a1.41 1.41 0 0 1 1.41-1.4h11.89a1.41 1.41 0 0 1 1.41 1.4v210a1.41 1.41 0 0 1 -1.41 1.41zm-10.49-2.81h9.08v-207.21h-9.08z"></path>
    <path d="m242.73 476.19h-11.89a1.41 1.41 0 0 1 -1.41-1.41v-210a1.41 1.41 0 0 1 1.41-1.4h11.89a1.4 1.4 0 0 1 1.4 1.4v210a1.41 1.41 0 0 1 -1.4 1.41zm-10.49-2.81h9.08v-207.21h-9.08z"></path>
    <path d="m230.84 476.19h-11.84a1.41 1.41 0 0 1 -1.41-1.41v-210a1.41 1.41 0 0 1 1.41-1.41h11.89a1.41 1.41 0 0 1 1.4 1.41v210a1.41 1.41 0 0 1 -1.45 1.41zm-10.49-2.81h9.08v-207.21h-9.08z"></path>
    <path d="m266.51 476.19h-11.89a1.41 1.41 0 0 1 -1.41-1.41v-210a1.41 1.41 0 0 1 1.41-1.4h11.89a1.41 1.41 0 0 1 1.41 1.4v210a1.41 1.41 0 0 1 -1.41 1.41zm-10.51-2.81h9.07v-207.21h-9.07z"></path>
    <circle cx="254.62" cy="369.23" r="4.14"></circle>
    <path d="m254.62 374.78a5.55 5.55 0 1 1 5.54-5.55 5.56 5.56 0 0 1 -5.54 5.55zm0-8.28a2.74 2.74 0 1 0 2.73 2.73 2.73 2.73 0 0 0 -2.73-2.73z"></path>
    <path d="m254.62 370.64h-8.73a1.41 1.41 0 0 1 0-2.81h8.73a1.41 1.41 0 1 1 0 2.81z"></path>
    <path d="m304.55 426.3h-6.66a2.85 2.85 0 0 1 -2.66-3v-8.45a4.09 4.09 0 0 1 .75-2.35 5.15 5.15 0 0 1 1.19-1.14l.13-.1a1.63 1.63 0 0 1 0-.31v-1.81a1.74 1.74 0 0 1 1.46-1.76h4.79a2 2 0 0 1 1.31.64 1.86 1.86 0 0 1 .38 1.19v1.79a1.84 1.84 0 0 1 0 .33.18.18 0 0 0 .07.05 5.42 5.42 0 0 1 1.23 1.19 4 4 0 0 1 .73 2.32v8.45a2.85 2.85 0 0 1 -2.72 2.96zm-4.47-15.89a1.45 1.45 0 0 1 .3 1.2 2.64 2.64 0 0 1 -.53 1 4.83 4.83 0 0 1 -1 .92 3.61 3.61 0 0 0 -.6.54 1.26 1.26 0 0 0 -.21.73v8.42l6.51.2-.16-8.63a1.37 1.37 0 0 0 -.2-.7 3 3 0 0 0 -.61-.55 5.42 5.42 0 0 1 -1-.94 2.65 2.65 0 0 1 -.52-1.05 1.44 1.44 0 0 1 .27-1.19l.08-.09v-.17h-2.31z"></path>
    <path d="m321.58 426.3h-6.66a2.85 2.85 0 0 1 -2.66-3v-8.45a4.1 4.1 0 0 1 .74-2.34 5.45 5.45 0 0 1 1.2-1.15l.13-.1a1.63 1.63 0 0 1 0-.31v-1.81a1.76 1.76 0 0 1 1.45-1.76h4.8a1.9 1.9 0 0 1 1.33.68 1.81 1.81 0 0 1 .36 1.1v1.84a1.84 1.84 0 0 1 0 .33l.07.05a5.85 5.85 0 0 1 1.23 1.19 4 4 0 0 1 .73 2.32v8.45a2.85 2.85 0 0 1 -2.72 2.96zm-4.46-15.89a1.42 1.42 0 0 1 .3 1.2 2.71 2.71 0 0 1 -.53 1 5.21 5.21 0 0 1 -1 .92 2.78 2.78 0 0 0 -.61.54 1.19 1.19 0 0 0 -.2.72v8.43l6.5.2-.16-8.63a1.2 1.2 0 0 0 -.2-.7 2.81 2.81 0 0 0 -.61-.55 5.42 5.42 0 0 1 -1-.94 2.62 2.62 0 0 1 -.51-1 1.37 1.37 0 0 1 .26-1.2.39.39 0 0 1 .08-.1v-.17h-2.3z"></path>
    <path d="m287.32 476.19h-8.13a1.41 1.41 0 0 1 -1.4-1.41v-49.85a1.41 1.41 0 0 1 1.4-1.41h8.13a1.41 1.41 0 0 1 1.41 1.41v49.85a1.41 1.41 0 0 1 -1.41 1.41zm-6.72-2.81h5.32v-47.05h-5.32z"></path>
    <path d="m342 476.19h-8.13a1.41 1.41 0 0 1 -1.41-1.41v-49.85a1.41 1.41 0 0 1 1.41-1.41h8.13a1.41 1.41 0 0 1 1.41 1.41v49.85a1.41 1.41 0 0 1 -1.41 1.41zm-6.72-2.81h5.31v-47.05h-5.31z"></path>
    <path d="m333.86 433.43h-46.54a1.41 1.41 0 0 1 -1.4-1.41v-7.13a1.4 1.4 0 0 1 1.4-1.4h46.54a1.41 1.41 0 0 1 1.41 1.4v7.11a1.41 1.41 0 0 1 -1.41 1.43zm-45.13-2.81h43.72v-4.32h-43.72z"></path>
    <path d="m333.86 447.68h-46.54a1.41 1.41 0 0 1 -1.4-1.41v-14.27a1.4 1.4 0 0 1 1.4-1.4h46.54a1.41 1.41 0 0 1 1.41 1.4v14.25a1.41 1.41 0 0 1 -1.41 1.43zm-45.13-2.81h43.72v-11.44h-43.72z"></path>
    <path d="m333.86 454.81h-46.54a1.41 1.41 0 0 1 -1.4-1.41v-7.13a1.4 1.4 0 0 1 1.4-1.4h46.54a1.41 1.41 0 0 1 1.41 1.4v7.13a1.41 1.41 0 0 1 -1.41 1.41zm-45.13-2.81h43.72v-4.32h-43.72z"></path>
    <path d="m333.86 469.06h-46.54a1.4 1.4 0 0 1 -1.4-1.4v-14.26a1.4 1.4 0 0 1 1.4-1.4h46.54a1.41 1.41 0 0 1 1.41 1.4v14.26a1.41 1.41 0 0 1 -1.41 1.4zm-45.13-2.81h43.72v-11.44h-43.72z"></path>
    <path d="m333.86 476.19h-46.54a1.41 1.41 0 0 1 -1.4-1.41v-7.12a1.41 1.41 0 0 1 1.4-1.41h46.54a1.41 1.41 0 0 1 1.41 1.41v7.12a1.41 1.41 0 0 1 -1.41 1.41zm-45.13-2.81h43.72v-4.32h-43.72z"></path>
    <path d="m386.35 476.19h-8.13a1.41 1.41 0 0 1 -1.41-1.41v-49.85a1.41 1.41 0 0 1 1.41-1.41h8.13a1.41 1.41 0 0 1 1.41 1.41v49.85a1.41 1.41 0 0 1 -1.41 1.41zm-6.72-2.81h5.31v-47.05h-5.31z"></path>
    <path d="m441 476.19h-8.13a1.41 1.41 0 0 1 -1.41-1.41v-49.85a1.41 1.41 0 0 1 1.41-1.41h8.13a1.41 1.41 0 0 1 1.4 1.41v49.85a1.41 1.41 0 0 1 -1.4 1.41zm-6.73-2.81h5.32v-47.05h-5.32z"></path>
    <path d="m432.89 433.43h-46.54a1.41 1.41 0 0 1 -1.41-1.41v-7.13a1.41 1.41 0 0 1 1.41-1.4h46.54a1.4 1.4 0 0 1 1.4 1.4v7.11a1.41 1.41 0 0 1 -1.4 1.43zm-45.13-2.81h43.72v-4.32h-43.72z"></path>
    <path d="m432.89 447.68h-46.54a1.41 1.41 0 0 1 -1.41-1.41v-14.27a1.41 1.41 0 0 1 1.41-1.4h46.54a1.4 1.4 0 0 1 1.4 1.4v14.25a1.41 1.41 0 0 1 -1.4 1.43zm-45.13-2.81h43.72v-11.44h-43.72z"></path>
    <path d="m432.89 454.81h-46.54a1.41 1.41 0 0 1 -1.41-1.41v-7.13a1.41 1.41 0 0 1 1.41-1.4h46.54a1.4 1.4 0 0 1 1.4 1.4v7.13a1.41 1.41 0 0 1 -1.4 1.41zm-45.13-2.81h43.72v-4.32h-43.72z"></path>
    <path d="m432.89 469.06h-46.54a1.41 1.41 0 0 1 -1.41-1.4v-14.26a1.41 1.41 0 0 1 1.41-1.4h46.54a1.4 1.4 0 0 1 1.4 1.4v14.26a1.4 1.4 0 0 1 -1.4 1.4zm-45.13-2.81h43.72v-11.44h-43.72z"></path>
    <path d="m432.89 476.19h-46.54a1.41 1.41 0 0 1 -1.41-1.41v-7.12a1.41 1.41 0 0 1 1.41-1.41h46.54a1.41 1.41 0 0 1 1.4 1.41v7.12a1.41 1.41 0 0 1 -1.4 1.41zm-45.13-2.81h43.72v-4.32h-43.72z"></path>
    <path d="m459.48 476.19h-8.13a1.41 1.41 0 0 1 -1.4-1.41v-49.85a1.41 1.41 0 0 1 1.4-1.41h8.13a1.41 1.41 0 0 1 1.41 1.41v49.85a1.41 1.41 0 0 1 -1.41 1.41zm-6.72-2.81h5.32v-47.05h-5.32z"></path>
    <path d="m514.15 476.19h-8.15a1.41 1.41 0 0 1 -1.41-1.41v-49.85a1.41 1.41 0 0 1 1.41-1.41h8.13a1.41 1.41 0 0 1 1.41 1.41v49.85a1.41 1.41 0 0 1 -1.39 1.41zm-6.72-2.81h5.32v-47.05h-5.32z"></path>
    <path d="m506 433.43h-46.52a1.41 1.41 0 0 1 -1.4-1.41v-7.13a1.4 1.4 0 0 1 1.4-1.4h46.52a1.41 1.41 0 0 1 1.41 1.4v7.11a1.41 1.41 0 0 1 -1.41 1.43zm-45.13-2.81h43.72v-4.32h-43.7z"></path>
    <path d="m506 447.68h-46.52a1.41 1.41 0 0 1 -1.4-1.41v-14.27a1.4 1.4 0 0 1 1.4-1.4h46.52a1.41 1.41 0 0 1 1.41 1.4v14.25a1.41 1.41 0 0 1 -1.41 1.43zm-45.13-2.81h43.72v-11.44h-43.7z"></path>
    <path d="m506 454.81h-46.52a1.41 1.41 0 0 1 -1.4-1.41v-7.13a1.4 1.4 0 0 1 1.4-1.4h46.52a1.41 1.41 0 0 1 1.41 1.4v7.13a1.41 1.41 0 0 1 -1.41 1.41zm-45.11-2.81h43.72v-4.32h-43.72z"></path>
    <path d="m506 469.06h-46.52a1.4 1.4 0 0 1 -1.4-1.4v-14.26a1.4 1.4 0 0 1 1.4-1.4h46.52a1.41 1.41 0 0 1 1.41 1.4v14.26a1.41 1.41 0 0 1 -1.41 1.4zm-45.13-2.81h43.72v-11.44h-43.7z"></path>
    <path d="m506 476.19h-46.52a1.41 1.41 0 0 1 -1.4-1.41v-7.12a1.41 1.41 0 0 1 1.4-1.41h46.52a1.41 1.41 0 0 1 1.41 1.41v7.12a1.41 1.41 0 0 1 -1.41 1.41zm-45.13-2.81h43.72v-4.32h-43.7z"></path>
    <path d="m219 339.59h-95.18a1.4 1.4 0 0 1 -1.4-1.4v-54.32a1.41 1.41 0 0 1 1.4-1.41h95.18a1.41 1.41 0 0 1 1.4 1.41v54.32a1.4 1.4 0 0 1 -1.4 1.4zm-93.72-2.81h92.31v-51.5h-92.36z"></path>
    <path d="m550.11 476.19h-25.62a1.41 1.41 0 0 1 -1.41-1.41v-221.9a1.41 1.41 0 0 1 .58-1.13 1.35 1.35 0 0 1 1.26-.2l25.62 8.21a1.41 1.41 0 0 1 1 1.34v213.68a1.41 1.41 0 0 1 -1.43 1.41zm-24.22-2.81h22.81v-211.26l-22.81-7.31z"></path>
    <path d="m510.08 364.1h-29.2a1.41 1.41 0 0 1 -1.41-1.41v-15.63a1.41 1.41 0 0 1 1.41-1.41h29.2a1.41 1.41 0 0 1 1.41 1.41v15.63a1.41 1.41 0 0 1 -1.41 1.41zm-27.79-2.81h26.39v-12.83h-26.39z"></path>
    <path d="m157.42 311.14.28-1-.06-.05-.39.29a3.82 3.82 0 0 1 -2.81 1 1.78 1.78 0 0 1 -1.69-1.32 1.21 1.21 0 0 0 -.1-.23c-.11.1-.21.17-.3.26a4.27 4.27 0 0 1 -3.29 1.3 3 3 0 0 1 -2.92-2.56 7.3 7.3 0 0 1 1.13-5.26 5.9 5.9 0 0 1 2.33-2.21 4.1 4.1 0 0 1 2.38-.45 2.74 2.74 0 0 1 2.1 1.34l.25.42c.16-.5.3-.91.42-1.33a.34.34 0 0 1 .39-.3h2.53c0 .16 0 .3-.09.43l-2 6.6a2.68 2.68 0 0 0 -.13.74.49.49 0 0 0 .66.56 1.7 1.7 0 0 0 .69-.36 6.09 6.09 0 0 0 .94-1 10.91 10.91 0 0 0 1.73-3.48c.67-2.32 1.4-4.63 2.1-6.95a.38.38 0 0 1 .42-.32h2.55l-1.54 5h.08l.28-.24a4.09 4.09 0 0 1 3-1.22 2.42 2.42 0 0 1 2.39 2.37 3.81 3.81 0 0 1 -1.52 3.14 10.41 10.41 0 0 1 -1.5 1c-.18.11-.27.21-.19.42a6.36 6.36 0 0 0 .33.86 1.16 1.16 0 0 0 1.79.47 5.78 5.78 0 0 0 1.25-1.22 15.73 15.73 0 0 0 1.06-1.71 1.4 1.4 0 0 0 .13-.41 6.07 6.07 0 0 1 3.67-4.6 4.91 4.91 0 0 1 3.38-.12 2.78 2.78 0 0 1 1.23 4.71 5.1 5.1 0 0 1 -3 1.54c-.61.11-1.23.12-1.85.18h-.4a2.25 2.25 0 0 0 .6 1.19 2.88 2.88 0 0 0 2.63.68 5.42 5.42 0 0 0 3.38-2.17 7.29 7.29 0 0 0 1.19-2.13 6.63 6.63 0 0 1 2.89-3.67 4 4 0 0 1 2.78-.51 2.64 2.64 0 0 1 1.94 1.41c0 .08.1.16.19.31.07-.19.12-.32.16-.45.48-1.54 1-3.08 1.42-4.62a.41.41 0 0 1 .46-.35h2.13.37c-.14.47-.26.9-.39 1.33l-2.88 9.44a4 4 0 0 0 -.16.78c0 .53.29.79.8.6a2 2 0 0 0 .65-.39 3.63 3.63 0 0 0 .63-.67c.2-.32.4-.26.65-.1.65.4.68.51.21 1.09a5.12 5.12 0 0 1 -2.93 2 3.75 3.75 0 0 1 -1.25 0 1.67 1.67 0 0 1 -1.42-1.19 2.44 2.44 0 0 0 -.1-.24s0 0-.07 0l-.64.55a4.25 4.25 0 0 1 -2.79 1 3 3 0 0 1 -3-2.29c0-.15-.09-.31-.15-.54l-.32.35a6.82 6.82 0 0 1 -4.4 2.48 5.81 5.81 0 0 1 -3.85-.66 3.8 3.8 0 0 1 -1.57-1.83l-.15-.36c-.11.14-.19.22-.25.31a7.13 7.13 0 0 1 -1.76 1.87 3.08 3.08 0 0 1 -3.23.39 3 3 0 0 1 -1.43-1.64c-.31-.74-.52-1.52-.77-2.29-.07-.21 0-.28.22-.35a5.81 5.81 0 0 0 2-1.1 1.85 1.85 0 0 0 .69-1.13 1.09 1.09 0 0 0 -1-1.32 2.19 2.19 0 0 0 -1.34.41 2.59 2.59 0 0 0 -1.19 1.52c-.54 1.89-1.15 3.77-1.71 5.65-.08.27-.19.37-.48.36-.8-.02-1.6-.01-2.47-.01zm30.37-5.95a3.43 3.43 0 0 0 -.09-.58 1.41 1.41 0 0 0 -1.94-1 2.17 2.17 0 0 0 -.71.4 4.24 4.24 0 0 0 -1.57 3.3 1.54 1.54 0 0 0 .74 1.5 1.67 1.67 0 0 0 1.73-.14 1.48 1.48 0 0 0 .27-.19 4.43 4.43 0 0 0 1.57-3.29zm-34.41.24c0-1.32-.63-2-1.6-1.94a2 2 0 0 0 -1 .36 4.1 4.1 0 0 0 -1.68 3.85 1.33 1.33 0 0 0 1.62 1.22 2.42 2.42 0 0 0 1-.45 4.25 4.25 0 0 0 1.66-3.04zm19.73.75c.39 0 .77-.05 1.13-.12a3.16 3.16 0 0 0 2.14-1.14 1.06 1.06 0 0 0 .13-1.26 1.07 1.07 0 0 0 -1.18-.39 3.13 3.13 0 0 0 -2.22 2.91z"></path>
    <path d="m186.65 318c.06-.17.11-.27.15-.38q.72-2.36 1.43-4.69c.07-.24.17-.35.43-.34h2.19.33c-.1.34-.18.66-.28 1q-1.49 4.85-3 9.67a4 4 0 0 0 -.18.91c0 .41.25.66.64.53a2.09 2.09 0 0 0 1-.58 13.09 13.09 0 0 0 1.4-1.92 12 12 0 0 0 .82-1.83 5.77 5.77 0 0 1 4.78-4.12 4.44 4.44 0 0 1 2.46.34 2.72 2.72 0 0 1 1.16 4.16 4.8 4.8 0 0 1 -3.29 1.93 17.7 17.7 0 0 1 -1.94.19c-.35 0-.39.06-.26.4a2.34 2.34 0 0 0 2.11 1.52 3.81 3.81 0 0 0 2.25-.42 6.55 6.55 0 0 0 3.31-3.91c.18-.57.23-1.13-.49-1.47a4.9 4.9 0 0 1 1.6-1.12.53.53 0 0 1 .39.09c.29.18.56.39.87.61.11-.16.24-.32.36-.49a3.07 3.07 0 0 1 2-1.31 1.82 1.82 0 0 1 2.11 1.38 1.9 1.9 0 0 1 -1.32 2.1 1 1 0 0 1 -1.41-1c0-.06 0-.13 0-.3a2.37 2.37 0 0 0 -.33.44c-.35.8-.71 1.59-1 2.41-.5 1.48-.94 3-1.41 4.46-.17.53-.2.54-.75.43a1.82 1.82 0 0 1 -1.49-1.61c0-.14-.05-.28-.08-.5l-.35.31a6.68 6.68 0 0 1 -6.69 1.63 3.79 3.79 0 0 1 -2.63-2.51c0-.08-.07-.16-.13-.29l-.36.47a7.21 7.21 0 0 1 -2 2 3.58 3.58 0 0 1 -2.34.56 1.76 1.76 0 0 1 -1.62-1.3c0-.07-.06-.14-.1-.25l-.36.32a4.48 4.48 0 0 1 -2.53 1.23 3.06 3.06 0 0 1 -3.65-2.8 7.18 7.18 0 0 1 3.18-7 3.81 3.81 0 0 1 2.52-.66 2.71 2.71 0 0 1 2.34 1.51 2.47 2.47 0 0 0 .16.2zm-.94 2.65c0-.18 0-.34-.05-.5a1.43 1.43 0 0 0 -2.09-1.13 3 3 0 0 0 -.89.61 4.23 4.23 0 0 0 -1.24 2.51 3.24 3.24 0 0 0 .05 1.12 1.34 1.34 0 0 0 1.74 1 2.66 2.66 0 0 0 .93-.48 4.28 4.28 0 0 0 1.55-3.1zm8.69.9a4.56 4.56 0 0 0 1.52-.17 2.88 2.88 0 0 0 1.79-1.12 1 1 0 0 0 .08-1.21 1 1 0 0 0 -1.12-.38 3.08 3.08 0 0 0 -2.27 2.91z"></path>
    <path d="m171.14 324.81-.34.32a4.54 4.54 0 0 1 -3 1.62 1.93 1.93 0 0 1 -2.12-1.08c-.06-.14-.11-.28-.19-.48l-.34.29a4.18 4.18 0 0 1 -3.4 1.25 3 3 0 0 1 -2.75-2.42 7 7 0 0 1 .69-4.63 6.41 6.41 0 0 1 2.38-2.75 4.11 4.11 0 0 1 3-.62 2.68 2.68 0 0 1 1.88 1.34l.24.38c.1-.33.18-.57.26-.82.25-.79.25-.79 1.08-.79h2a2 2 0 0 1 -.06.32c-.67 2.19-1.34 4.37-2 6.56a4.41 4.41 0 0 0 -.17.88c0 .42.24.67.65.55a2.09 2.09 0 0 0 .87-.49 6.21 6.21 0 0 0 .94-1.11 8.8 8.8 0 0 0 1.38-2.67c.14-.56.2-1.11-.53-1.45a5.47 5.47 0 0 1 1.61-1.11.54.54 0 0 1 .4.09c.29.18.55.39.86.62l.27-.36a3.14 3.14 0 0 1 2.09-1.45 1.83 1.83 0 0 1 2.11 1.39 1.92 1.92 0 0 1 -1.31 2.08 1 1 0 0 1 -1.43-1 .33.33 0 0 0 -.1-.23 3.26 3.26 0 0 0 -.37.57c-.36.89-.73 1.78-1 2.69-.45 1.33-.85 2.68-1.27 4-.16.48-.16.48-.66.39a1.75 1.75 0 0 1 -1.5-1.4c-.09-.12-.12-.29-.17-.48zm-9.22-2.23v.44a1.43 1.43 0 0 0 2.16 1.18 3.9 3.9 0 0 0 1.2-1 3.83 3.83 0 0 0 .87-3.07 1.43 1.43 0 0 0 -2-1.11 2.3 2.3 0 0 0 -.71.42 4.45 4.45 0 0 0 -1.52 3.14z"></path>
    <path d="m140.28 310.9c.05-.2.09-.35.13-.49q1.29-4.2 2.57-8.4a7.06 7.06 0 0 0 .23-1.2 1.26 1.26 0 0 0 -1.16-1.52 2.89 2.89 0 0 0 -3.25 1.62 34.33 34.33 0 0 0 -1.36 3.45c-.74 2.08-1.45 4.17-2.15 6.26a.37.37 0 0 1 -.43.3c-1 0-.86.18-1-.91a20.94 20.94 0 0 1 1-9 6 6 0 0 1 2.9-3.32 9.13 9.13 0 0 1 5.89-1.23 4.93 4.93 0 0 1 2.24.86 3 3 0 0 1 1.19 3.65 30 30 0 0 1 -4.06 8c-.35.49-.75 1-1.08 1.46a1 1 0 0 1 -1 .49c-.22-.04-.42-.02-.66-.02z"></path>
    <path d="m152.6 326.68.61-2q1.78-5.81 3.54-11.6c.11-.36.27-.47.62-.45h2 .41l-.25.88-3.66 12c-.09.29-.05.39.25.52.88.37 1.75.79 2.6 1.23a10.86 10.86 0 0 0 2.78 1.14 4.88 4.88 0 0 0 2.43-.09h.27a4.08 4.08 0 0 1 -1.22 2.77 1.5 1.5 0 0 1 -1.23.27 5.14 5.14 0 0 1 -2.29-1.07c-.87-.63-1.7-1.31-2.56-1.95a7.09 7.09 0 0 0 -3.11-1.49c-.39-.14-.79-.14-1.19-.16z"></path>
    <path d="m141.2 295.79.67-2.89c0-.19.11-.38.14-.58.15-.92.77-1.38 1.83-1.53a3 3 0 0 1 1.26.15.71.71 0 0 1 .45 1.08c-.51 1.2-1 2.4-1.55 3.59a.34.34 0 0 1 -.24.17z"></path>
  </g>
</svg>
