<?xml version="1.0" encoding="UTF-8"?>
<svg xmlns="http://www.w3.org/2000/svg" viewBox="0 0 600 600">
  <path d="m106.17 234.79h391.56v257.18h-391.56z" fill="#fff"></path>
  <path d="m218.46 423.77h268.19v48.97h-268.19z" fill="#ffde00"></path>
  <path d="m88.55 129.05h424.98v74.21h-424.98z" fill="#ffde00"></path>
  <path d="m88.49 218.79h424.98v26.24h-424.98z" fill="#ffde00"></path>
  <path d="m83.51 203.21h435.43v7.74h-435.43z" fill="#ffde00"></path>
  <path d="m212.01 472.75v8.91h6.45v8.9h263.1v-18.09z" fill="#ffde00"></path>
  <path d="m212.01 481.66v-8.91h-96.03v8.91h-6.87v8.9h6.87 96.03 6.45v-8.9z" fill="#ffde00"></path>
  <path d="m116 301.65v171.1h96v-171.1zm44.8 160.14h-34.8v-37.28h34.8zm0-60.14h-35.23v-89.77h35.23zm40.88 60.14h-34.78v-37.28h34.78zm0-60.14h-34.78v-89.77h34.81z" fill="#00ab81"></path>
  <path d="m443.43 258.44h4.09v82.33h-4.09z" fill="#00ab81" transform="matrix(0 1 -1 0 745.08 -145.87)"></path>
  <path d="m352.88 255.88h4.09v87.45h-4.09z" fill="#00ab81" transform="matrix(0 1 -1 0 654.53 -55.32)"></path>
  <path d="m259.56 255.88h4.09v87.45h-4.09z" fill="#00ab81" transform="matrix(0 1 -1 0 561.21 38)"></path>
  <path d="m161.94 251.58h4.09v96.05h-4.09z" fill="#00ab81" transform="matrix(0 1 -1 0 463.59 135.62)"></path>
  <path d="m349.93 287.06h5.24v268.19h-5.24z" fill="#00ab81" transform="matrix(0 1 -1 0 773.7 68.61)"></path>
  <path d="m212.01 245.21h6.44v227.54h-6.44z" fill="#00ab81"></path>
  <path d="m486.64 245.09h21.48v222.38h-21.48z" fill="#00ab81"></path>
  <path d="m115.98 467.47v-222.38h-21.48v222.38" fill="#00ab81"></path>
  <path d="m314.76 328.95h173.45v5.66h-173.45z" fill="#00ab81" transform="matrix(0 1 -1 0 733.26 -69.71)"></path>
  <path d="m221.65 328.95h173.45v5.66h-173.45z" fill="#00ab81" transform="matrix(0 1 -1 0 640.15 23.4)"></path>
  <path d="m88.49 113.64h424.98v15.47h-424.98z" fill="#fb715d"></path>
  <path d="m83.51 210.99h435.43v7.74h-435.43z" fill="#fb715d"></path>
  <path d="m81.06 104.14h435.85v4.92h-435.85z" fill="#fb715d"></path>
  <path d="m88.49 109.14h424.98v4.48h-424.98z" fill="#fb715d"></path>
  <path d="m349.32 326.19v1.31a6.74 6.74 0 1 0 4.64.06v-4.45h-4.64z" fill="#fb715d"></path>
  <path d="m279.55 308.7v1.3a6.74 6.74 0 1 0 4.64.06v-4.45h-4.64z" fill="#fb715d"></path>
  <path d="m421 315v1.3a6.74 6.74 0 1 0 4.64.06v-4.45h-4.64z" fill="#fb715d"></path>
  <g fill="#1c19a8">
    <path d="m212 474.15h-96a1.4 1.4 0 0 1 -1.4-1.4v-171.1a1.41 1.41 0 0 1 1.4-1.41h96a1.41 1.41 0 0 1 1.41 1.41v171.1a1.41 1.41 0 0 1 -1.41 1.4zm-94.62-2.81h93.22v-168.29h-93.21zm84.29-8.14h-34.77a1.41 1.41 0 0 1 -1.41-1.41v-37.28a1.41 1.41 0 0 1 1.41-1.41h34.78a1.41 1.41 0 0 1 1.41 1.41v37.28a1.41 1.41 0 0 1 -1.41 1.41zm-33.37-2.82h32v-34.46h-32zm-7.51 2.82h-34.79a1.41 1.41 0 0 1 -1.4-1.41v-37.28a1.41 1.41 0 0 1 1.4-1.41h34.8a1.41 1.41 0 0 1 1.41 1.41v37.28a1.41 1.41 0 0 1 -1.41 1.41zm-33.38-2.82h32v-34.46h-32zm74.29-57.32h-34.8a1.41 1.41 0 0 1 -1.41-1.41v-89.77a1.41 1.41 0 0 1 1.41-1.4h34.81a1.41 1.41 0 0 1 1.41 1.4v89.77a1.41 1.41 0 0 1 -1.41 1.41zm-33.4-2.82h32v-86.95h-32zm-7.51 2.82h-35.22a1.41 1.41 0 0 1 -1.41-1.41v-89.77a1.41 1.41 0 0 1 1.41-1.4h35.23a1.41 1.41 0 0 1 1.41 1.4v89.77a1.41 1.41 0 0 1 -1.41 1.41zm-33.79-2.82h32.41v-86.95h-32.41z"></path>
    <path d="m350.15 244.67h2.81v52.89h-2.81z"></path>
    <path d="m350.15 301.65h2.81v21.46h-2.81z"></path>
    <path d="m421.8 301.65h2.81v11.34h-2.81z"></path>
    <path d="m421.8 245.21h2.81v52.61h-2.81z"></path>
    <path d="m513.53 204.67h-425a1.41 1.41 0 0 1 -1.41-1.4v-74.22a1.41 1.41 0 0 1 1.41-1.4h425a1.41 1.41 0 0 1 1.41 1.4v74.22a1.41 1.41 0 0 1 -1.41 1.4zm-423.53-2.81h422.12v-71.4h-422.12z"></path>
    <path d="m513.48 130.51h-425a1.4 1.4 0 0 1 -1.4-1.4v-15.47a1.41 1.41 0 0 1 1.4-1.41h425a1.41 1.41 0 0 1 1.4 1.41v15.47a1.4 1.4 0 0 1 -1.4 1.4zm-423.58-2.81h422.17v-12.7h-422.17z"></path>
    <path d="m513.48 246.44h-425a1.4 1.4 0 0 1 -1.4-1.4v-26.25a1.4 1.4 0 0 1 1.4-1.4h425a1.4 1.4 0 0 1 1.4 1.4v26.21a1.4 1.4 0 0 1 -1.4 1.44zm-423.58-2.81h422.17v-23.43h-422.17z"></path>
    <path d="m518.94 212.35h-435.43a1.41 1.41 0 0 1 -1.41-1.41v-7.73a1.41 1.41 0 0 1 1.41-1.41h435.43a1.41 1.41 0 0 1 1.41 1.41v7.73a1.41 1.41 0 0 1 -1.41 1.41zm-434-2.81h432.59v-4.93h-432.62z"></path>
    <path d="m518.94 220.13h-435.43a1.41 1.41 0 0 1 -1.41-1.4v-7.73a1.41 1.41 0 0 1 1.41-1.41h435.43a1.41 1.41 0 0 1 1.41 1.41v7.74a1.41 1.41 0 0 1 -1.41 1.39zm-434-2.81h432.59v-4.92h-432.62z"></path>
    <path d="m516.91 110.46h-435.85a1.41 1.41 0 0 1 -1.41-1.4v-4.92a1.41 1.41 0 0 1 1.41-1.41h435.85a1.41 1.41 0 0 1 1.41 1.41v4.92a1.41 1.41 0 0 1 -1.41 1.4zm-434.44-2.81h433v-2.1h-433z"></path>
    <path d="m513.48 115h-425a1.41 1.41 0 0 1 -1.41-1.4v-4.48a1.41 1.41 0 0 1 1.41-1.4h425a1.4 1.4 0 0 1 1.4 1.4v4.48a1.4 1.4 0 0 1 -1.4 1.4zm-423.58-2.79h422.17v-1.66h-422.17z"></path>
    <path d="m486.64 303.05h-82.33a1.4 1.4 0 0 1 -1.4-1.4v-4.09a1.4 1.4 0 0 1 1.4-1.4h82.33a1.4 1.4 0 0 1 1.41 1.4v4.09a1.41 1.41 0 0 1 -1.41 1.4zm-80.92-2.81h79.52v-1.24h-79.52z"></path>
    <path d="m398.65 303.05h-87.45a1.41 1.41 0 0 1 -1.41-1.4v-4.09a1.4 1.4 0 0 1 1.41-1.4h87.45a1.4 1.4 0 0 1 1.41 1.4v4.09a1.41 1.41 0 0 1 -1.41 1.4zm-86-2.81h84.65v-1.24h-84.7z"></path>
    <path d="m305.33 303.05h-87.45a1.41 1.41 0 0 1 -1.41-1.4v-4.09a1.4 1.4 0 0 1 1.41-1.4h87.45a1.4 1.4 0 0 1 1.41 1.4v4.09a1.41 1.41 0 0 1 -1.41 1.4zm-86-2.81h84.64v-1.24h-84.68z"></path>
    <path d="m212 303.05h-96a1.41 1.41 0 0 1 -1.41-1.4v-4.09a1.4 1.4 0 0 1 1.41-1.4h96a1.4 1.4 0 0 1 1.41 1.4v4.09a1.41 1.41 0 0 1 -1.41 1.4zm-94.64-2.81h93.24v-1.24h-93.23z"></path>
    <path d="m486.64 425.18h-268.18a1.41 1.41 0 0 1 -1.41-1.41v-5.23a1.41 1.41 0 0 1 1.41-1.41h268.18a1.41 1.41 0 0 1 1.41 1.41v5.23a1.41 1.41 0 0 1 -1.41 1.41zm-266.78-2.81h265.38v-2.37h-265.38z"></path>
    <path d="m218.46 474.15h-6.46a1.41 1.41 0 0 1 -1.41-1.4v-227.54a1.41 1.41 0 0 1 1.41-1.4h6.45a1.4 1.4 0 0 1 1.4 1.4v227.54a1.4 1.4 0 0 1 -1.39 1.4zm-5-2.81h3.63v-224.72h-3.63z"></path>
    <path d="m160.8 403.06h-35.23a1.41 1.41 0 0 1 -1.41-1.41v-89.77a1.41 1.41 0 0 1 1.41-1.4h35.23a1.41 1.41 0 0 1 1.41 1.4v89.77a1.41 1.41 0 0 1 -1.41 1.41zm-33.8-2.82h32.41v-86.95h-32.41z"></path>
    <path d="m201.71 403.06h-34.81a1.41 1.41 0 0 1 -1.41-1.41v-89.77a1.41 1.41 0 0 1 1.41-1.4h34.81a1.41 1.41 0 0 1 1.41 1.4v89.77a1.41 1.41 0 0 1 -1.41 1.41zm-33.4-2.82h32v-86.95h-32z"></path>
    <path d="m151.83 409.51h24.33v7.15h-24.33z"></path>
    <path d="m176.16 418.06h-24.33a1.41 1.41 0 0 1 -1.4-1.41v-7.15a1.4 1.4 0 0 1 1.4-1.4h24.33a1.41 1.41 0 0 1 1.41 1.4v7.15a1.41 1.41 0 0 1 -1.41 1.41zm-22.92-2.81h21.52v-4.34h-21.52z"></path>
    <path d="m486.64 474.15h-268.18a1.41 1.41 0 0 1 -1.41-1.4v-49a1.41 1.41 0 0 1 1.41-1.4h268.18a1.41 1.41 0 0 1 1.41 1.4v49a1.41 1.41 0 0 1 -1.41 1.4zm-266.78-2.81h265.38v-46.16h-265.38z"></path>
    <path d="m508.12 468.87h-21.48a1.4 1.4 0 0 1 -1.4-1.4v-222.38a1.41 1.41 0 0 1 1.4-1.41h21.48a1.41 1.41 0 0 1 1.41 1.41v222.38a1.41 1.41 0 0 1 -1.41 1.4zm-20.07-2.81h18.67v-219.56h-18.67z"></path>
    <path d="m481.56 467.47h31.65v23.1h-31.65z"></path>
    <path d="m513.2 492h-31.64a1.41 1.41 0 0 1 -1.41-1.41v-23.12a1.41 1.41 0 0 1 1.41-1.41h31.64a1.41 1.41 0 0 1 1.41 1.41v23.09a1.41 1.41 0 0 1 -1.41 1.44zm-30.2-2.84h28.8v-20.29h-28.8z"></path>
    <path d="m481.56 492h-263.1a1.41 1.41 0 0 1 -1.41-1.41v-7.5h-5a1.41 1.41 0 0 1 -1.41-1.4v-8.91a1.41 1.41 0 0 1 1.41-1.41l269.55-.28a1.42 1.42 0 0 1 1.41 1.41v18.09a1.41 1.41 0 0 1 -1.45 1.41zm-261.7-2.81h260.29v-15.31l-266.73.27v6.1h5a1.41 1.41 0 0 1 1.4 1.41z"></path>
    <path d="m218.46 492h-109.35a1.41 1.41 0 0 1 -1.41-1.41v-8.9a1.41 1.41 0 0 1 1.41-1.41h5.47v-7.5a1.41 1.41 0 0 1 1.4-1.41h96a1.41 1.41 0 0 1 1.41 1.41v7.5h5a1.41 1.41 0 0 1 1.4 1.41v8.9a1.41 1.41 0 0 1 -1.33 1.41zm-107.94-2.81h106.53v-6.1h-5a1.41 1.41 0 0 1 -1.41-1.4v-7.51h-93.25v7.51a1.41 1.41 0 0 1 -1.41 1.4h-5.46z"></path>
    <path d="m117.39 467.47h-2.81v-221h-18.67v221h-2.82v-222.38a1.41 1.41 0 0 1 1.41-1.41h21.5a1.41 1.41 0 0 1 1.41 1.41z"></path>
    <path d="m115.98 481.66v-8.91h5.09v-5.28h-31.65v23.09h19.69v-8.9z"></path>
    <path d="m109.11 492h-19.69a1.41 1.41 0 0 1 -1.4-1.41v-23.12a1.41 1.41 0 0 1 1.4-1.41h31.65a1.41 1.41 0 0 1 1.4 1.41v5.28a1.4 1.4 0 0 1 -1.4 1.4h-3.68v7.51a1.41 1.41 0 0 1 -1.41 1.4h-5.46v7.5a1.41 1.41 0 0 1 -1.41 1.44zm-18.28-2.81h16.87v-7.5a1.41 1.41 0 0 1 1.41-1.41h5.47v-7.5a1.41 1.41 0 0 1 1.4-1.41h3.68v-2.47h-28.83z"></path>
    <path d="m243 162.85c-.28-4.9-5.84-6.58-9.63-4.2-4.61 2.88-5.59 9.25-6 14.21-.35 4.35-.45 10.34 3.35 13.35 4.59 3.64 10.14 0 13.74-3.17.95-.82-.43-2.19-1.37-1.37-2.8 2.44-7.21 5.81-11 3.17-2.92-2-3-6.57-2.91-9.74.08-3.91.54-8.44 2.51-11.91a7.2 7.2 0 0 1 4.47-3.65 3.88 3.88 0 0 1 4.85 3.31c.07 1.24 2 1.25 1.95 0z"></path>
    <path d="m254.88 160.65c-3.57.93-4.84 4.67-5.37 7.94-.68 4.2-1 9 .22 13.1.91 3 3 6 6.48 5.92 3.88-.08 6.58-4 8.26-7a27.87 27.87 0 0 0 3.41-12.45c.1-3 .13-8-3-9.58-2.72-1.35-5.35 1.4-5.05 4.12.36 3.18 4.14 4.37 6.85 3.59a11.07 11.07 0 0 0 5.08-3.7c.87-1 2.91-4.15 4-1.19.39 1.05-.16 3.09-.23 4.2-.44 6.39-1.2 12.75-2.23 19.07-.21 1.3 1.76 1.87 2 .55l2.07-11.36c.57-3.17.73-7.12 2.36-10 .85-1.47 3.5-4.07 4.56-1.51.6 1.44.36 3.71.42 5.29a68.67 68.67 0 0 1 -.5 11.1h2.07a38.63 38.63 0 0 1 2.5-10 36.19 36.19 0 0 1 2.38-4.84 11.81 11.81 0 0 1 1.74-2.6 1.79 1.79 0 0 1 1.87-.73 6.69 6.69 0 0 1 .08 1.18 162.47 162.47 0 0 1 -1 22.7c-.13 1.32 1.94 1.31 2.07 0q.81-7.94 1-15.92c.06-2.46.21-5 0-7.44-.1-1.25-.5-2.59-1.87-2.92-3.56-.85-6.21 5.46-7.31 7.82a40.88 40.88 0 0 0 -3.52 12.74c-.15 1.32 1.91 1.3 2.07 0a68.53 68.53 0 0 0 .27-14.67c-.13-1.4 0-3.45-1.29-4.41s-2.85-.58-4.08 0c-3.65 1.73-4.42 6-5.07 9.56q-1.41 7.71-2.81 15.42l2 .55a167.27 167.27 0 0 0 2.51-23.19c.06-2.34-1.14-4.5-3.81-3.91-2.84.63-4.11 4.1-6.5 5.54a4.28 4.28 0 0 1 -4.68.2c-2.23-1.61.33-5.09 2-2.55s1.17 7.33.67 10.26a25.45 25.45 0 0 1 -3.83 9.72c-1.89 2.87-5.86 6.32-8.68 2.44-2.12-2.91-2-7.18-1.85-10.59.16-3.22.36-9.48 4.33-10.51a1 1 0 0 0 -.55-2z"></path>
    <path d="m304.2 161.65q.92-1.76 3.06-.9a4.24 4.24 0 0 1 .14 1.37 23.38 23.38 0 0 1 -.32 2.9l-.89 6.63-1.83 13.72c-.16 1.24 2 1.54 2.19.3 1.17-7.09 2.34-14.23 4.69-21a21.58 21.58 0 0 1 .93-2.47 4.48 4.48 0 0 1 .88-1.32l2.24.29c1.27 1 .9 4.7.82 6.12-.22 3.59-.63 7.17-1 10.75-.12 1.43 2.11 1.42 2.24 0a113.58 113.58 0 0 1 1.13-11.38 9.36 9.36 0 0 1 2.37-5c1.64-1.59 4.48-2 4.82 1 .4 3.46-.24 7.31-.49 10.77-.27 3.89-.62 7.78-1 11.66-.15 1.43 2.09 1.42 2.23 0q.85-8.19 1.33-16.42c.18-3.14 1.38-8.87-2.57-10.28-3.48-1.25-6.67 1.89-7.94 4.82-1.94 4.45-1.67 10.12-2.1 14.88h2.24c.43-4.78 1.57-10.07.84-14.85-.45-2.94-2.62-6.57-6-4.45a7.09 7.09 0 0 0 -2.56 3.78 67.42 67.42 0 0 0 -2.21 7.12c-1.32 5.09-2.17 10.29-3 15.48l2.19.3c1-7.44 2.33-14.92 3-22.4.15-1.82 0-4.12-1.93-5-2.24-1-4.15.92-5.38 2.54-.87 1.15 1.07 2.26 1.93 1.13z"></path>
    <path d="m344 157.38c-6.68-1.15-9.44 6.13-10.28 11.46-.8 5.06-1 14.64 4.66 17.17 5.08 2.27 10-1.61 11.78-6.25 1.18-3.07 1.26-6.45 1.29-9.7a57.87 57.87 0 0 0 -1-11.75 1.19 1.19 0 0 0 -1.13-.86c-3.86 0-5.88 4.76-4.55 8.1 1.57 3.95 7.22 1.47 9.14-.76 1.35-1.57 2.32-5.41 4.65-5.77 3.28-.51 2 5.17 1.81 6.77l-2.54 18.79c-.2 1.46 2 2.14 2.26.63 1.38-8 .42-18.87 7.16-24.82 1.14-1 2.48-1.43 3.27.19.43.88.21 2.64.26 3.61q.18 3.66.18 7.32c0 4.89-.27 9.77-.75 14.63-.15 1.5 2.2 1.49 2.35 0a148.38 148.38 0 0 0 .68-19.21c-.09-2.91.69-10.68-4.3-10-4.18.55-6.92 6.08-8.16 9.56-2.06 5.8-1.92 12.09-2.95 18.1l2.26.63 2.17-16.05c.43-3.13 1.92-7.91-.05-10.83-1.71-2.56-5-1.9-6.92.06-1.48 1.54-2 3.77-3.52 5.26-.66.64-2.52 1.95-3.52 1.6s-1.5-1.89-1.32-2.88c.24-1.25.63-2.57 2.39-2.57l-1.14-.86a54.54 54.54 0 0 1 .78 15.2c-.36 4.25-2.37 10.24-7.61 10.16-5.55-.08-5.78-8.16-5.61-12.19s1.69-13.49 7.64-12.47c1.48.26 2.11-2 .62-2.26z"></path>
    <path d="m285.24 140.24a2.34 2.34 0 0 0 -1-.24 2.39 2.39 0 0 0 -1.18.31 2.34 2.34 0 0 0 -1.15 2 2.32 2.32 0 0 0 .31 1.19 2.29 2.29 0 0 0 2 1.16 2.45 2.45 0 0 0 1-.22 2.81 2.81 0 0 0 .88-.6l.79.87a4.31 4.31 0 0 1 -1.27.88 3.64 3.64 0 0 1 -1.47.32 3.6 3.6 0 0 1 -1.83-.48 3.48 3.48 0 0 1 -1.78-3.1 3.46 3.46 0 0 1 .48-1.8 3.55 3.55 0 0 1 1.33-1.28 3.82 3.82 0 0 1 4.53.65l-.78 1a2.54 2.54 0 0 0 -.86-.66z"></path>
    <path d="m296.81 145.84-.61-1.47h-3.39l-.62 1.47h-1.37l3-6.94h1.38l3 6.94zm-3.53-2.61h2.44l-1.21-2.91z"></path>
    <path d="m302.85 138.9h4.78v1.16h-3.45v1.88h3.14v1.15h-3.14v2.75h-1.32z"></path>
    <path d="m312.39 138.9h5.08v1.16h-3.76v1.72h3.37v1.16h-3.37v1.74h3.88v1.16h-5.2z"></path>
    <path d="m329.12 140.39h170.22v2.81h-170.22z"></path>
    <path d="m99.67 140.39h170.22v2.81h-170.22z"></path>
    <path d="m88.47 210.8h2.81v7.9h-2.81z"></path>
    <path d="m95.91 210.8h2.81v7.9h-2.81z"></path>
    <path d="m103.36 210.8h2.81v7.9h-2.81z"></path>
    <path d="m110.8 210.8h2.81v7.9h-2.81z"></path>
    <path d="m118.24 210.8h2.81v7.9h-2.81z"></path>
    <path d="m125.68 210.8h2.81v7.9h-2.81z"></path>
    <path d="m133.12 210.8h2.81v7.9h-2.81z"></path>
    <path d="m140.56 210.8h2.81v7.9h-2.81z"></path>
    <path d="m148 210.8h2.81v7.9h-2.81z"></path>
    <path d="m155.44 210.8h2.81v7.9h-2.81z"></path>
    <path d="m162.88 210.8h2.81v7.9h-2.81z"></path>
    <path d="m170.32 210.8h2.81v7.9h-2.81z"></path>
    <path d="m177.77 210.8h2.81v7.9h-2.81z"></path>
    <path d="m185.2 210.8h2.81v7.9h-2.81z"></path>
    <path d="m192.65 210.8h2.81v7.9h-2.81z"></path>
    <path d="m200.09 210.8h2.81v7.9h-2.81z"></path>
    <path d="m207.53 210.8h2.81v7.9h-2.81z"></path>
    <path d="m214.97 210.8h2.81v7.9h-2.81z"></path>
    <path d="m222.41 210.8h2.81v7.9h-2.81z"></path>
    <path d="m229.85 210.8h2.81v7.9h-2.81z"></path>
    <path d="m237.29 210.8h2.81v7.9h-2.81z"></path>
    <path d="m244.73 210.8h2.81v7.9h-2.81z"></path>
    <path d="m252.17 210.8h2.81v7.9h-2.81z"></path>
    <path d="m259.61 210.8h2.81v7.9h-2.81z"></path>
    <path d="m267.06 210.8h2.81v7.9h-2.81z"></path>
    <path d="m274.5 210.8h2.81v7.9h-2.81z"></path>
    <path d="m281.94 210.8h2.81v7.9h-2.81z"></path>
    <path d="m289.38 210.8h2.81v7.9h-2.81z"></path>
    <path d="m296.82 210.8h2.81v7.9h-2.81z"></path>
    <path d="m304.26 210.8h2.81v7.9h-2.81z"></path>
    <path d="m311.7 210.8h2.81v7.9h-2.81z"></path>
    <path d="m319.14 210.8h2.81v7.9h-2.81z"></path>
    <path d="m326.58 210.8h2.81v7.9h-2.81z"></path>
    <path d="m334.02 210.8h2.81v7.9h-2.81z"></path>
    <path d="m341.47 210.8h2.81v7.9h-2.81z"></path>
    <path d="m348.91 210.8h2.81v7.9h-2.81z"></path>
    <path d="m356.35 210.8h2.81v7.9h-2.81z"></path>
    <path d="m363.79 210.8h2.81v7.9h-2.81z"></path>
    <path d="m371.23 210.8h2.81v7.9h-2.81z"></path>
    <path d="m378.67 210.8h2.81v7.9h-2.81z"></path>
    <path d="m386.11 210.8h2.81v7.9h-2.81z"></path>
    <path d="m393.55 210.8h2.81v7.9h-2.81z"></path>
    <path d="m400.99 210.8h2.81v7.9h-2.81z"></path>
    <path d="m408.44 210.8h2.81v7.9h-2.81z"></path>
    <path d="m415.88 210.8h2.81v7.9h-2.81z"></path>
    <path d="m423.31 210.8h2.81v7.9h-2.81z"></path>
    <path d="m430.76 210.8h2.81v7.9h-2.81z"></path>
    <path d="m438.2 210.8h2.81v7.9h-2.81z"></path>
    <path d="m445.64 210.8h2.81v7.9h-2.81z"></path>
    <path d="m453.08 210.8h2.81v7.9h-2.81z"></path>
    <path d="m460.52 210.8h2.81v7.9h-2.81z"></path>
    <path d="m467.96 210.8h2.81v7.9h-2.81z"></path>
    <path d="m475.4 210.8h2.81v7.9h-2.81z"></path>
    <path d="m482.84 210.8h2.81v7.9h-2.81z"></path>
    <path d="m490.28 210.8h2.81v7.9h-2.81z"></path>
    <path d="m497.72 210.8h2.81v7.9h-2.81z"></path>
    <path d="m505.17 210.8h2.81v7.9h-2.81z"></path>
    <path d="m512.61 210.8h2.81v7.9h-2.81z"></path>
    <path d="m280.38 301.65h2.81v5.69h-2.81z"></path>
    <path d="m280.38 245.21h2.81v52.35h-2.81z"></path>
    <path d="m351.56 342a8.15 8.15 0 0 1 -3.65-15.44v-3.46a1.41 1.41 0 0 1 1.41-1.41h4.68a1.41 1.41 0 0 1 1.41 1.41v3.55a8.15 8.15 0 0 1 -3.85 15.35zm-.84-17.49v3a1.39 1.39 0 0 1 -.94 1.32 5.34 5.34 0 1 0 3.68.05 1.39 1.39 0 0 1 -.91-1.31v-3z"></path>
    <path d="m281.78 324.52a8.15 8.15 0 0 1 -3.64-15.44v-3.46a1.41 1.41 0 0 1 1.41-1.41h4.64a1.41 1.41 0 0 1 1.4 1.41v3.55a8.15 8.15 0 0 1 -3.81 15.35zm-.78-17.52v3a1.4 1.4 0 0 1 -.94 1.32 5.34 5.34 0 1 0 3.68.05 1.4 1.4 0 0 1 -.91-1.31v-3z"></path>
    <path d="m423.2 330.78a8.15 8.15 0 0 1 -3.64-15.44v-3.46a1.41 1.41 0 0 1 1.41-1.4h4.64a1.41 1.41 0 0 1 1.41 1.4v3.55a8.15 8.15 0 0 1 -3.82 15.35zm-.83-17.49v3a1.4 1.4 0 0 1 -.94 1.33 5.34 5.34 0 1 0 3.68 0 1.41 1.41 0 0 1 -.91-1.32v-3z"></path>
    <path d="m404.31 419.91h-5.66a1.41 1.41 0 0 1 -1.4-1.41v-173.45a1.4 1.4 0 0 1 1.4-1.4h5.66a1.41 1.41 0 0 1 1.41 1.4v173.45a1.41 1.41 0 0 1 -1.41 1.41zm-4.25-2.82h2.85v-170.63h-2.85z"></path>
    <path d="m311.2 419.91h-5.66a1.41 1.41 0 0 1 -1.41-1.41v-173.45a1.41 1.41 0 0 1 1.41-1.4h5.66a1.4 1.4 0 0 1 1.4 1.4v173.45a1.4 1.4 0 0 1 -1.4 1.41zm-4.2-2.82h2.84v-170.63h-2.84z"></path>
    <path d="m94.5 466.06h21.48v2.81h-21.48z"></path>
  </g>
</svg>
