<?xml version="1.0" encoding="UTF-8"?>
<svg xmlns="http://www.w3.org/2000/svg" xmlns:xlink="http://www.w3.org/1999/xlink" id="Layer_1" data-name="Layer 1" viewBox="0 0 600 600">
  <defs>
    <style>.cls-1,.cls-10,.cls-7{fill:none;}.cls-12,.cls-14,.cls-15,.cls-2,.cls-9{fill:#1c19a8;}.cls-3{fill:#fff;}.cls-13,.cls-16,.cls-4{fill:#ffde00;}.cls-10,.cls-11,.cls-12,.cls-13,.cls-14,.cls-15,.cls-16,.cls-17,.cls-18,.cls-19,.cls-4,.cls-5,.cls-6,.cls-7,.cls-8,.cls-9{stroke:#1c19a8;}.cls-11,.cls-12,.cls-13,.cls-16,.cls-17,.cls-19,.cls-4,.cls-5,.cls-6,.cls-7,.cls-8{stroke-linejoin:round;}.cls-10,.cls-11,.cls-12,.cls-13,.cls-4,.cls-5,.cls-6,.cls-7,.cls-8,.cls-9{stroke-width:2.82px;}.cls-17,.cls-18,.cls-19,.cls-5{fill:#fb715d;}.cls-6{fill:#9d9d9c;}.cls-11,.cls-8{fill:#00ab81;}.cls-13,.cls-19,.cls-8{fill-rule:evenodd;}.cls-10,.cls-14,.cls-15,.cls-18,.cls-9{stroke-miterlimit:10;}.cls-15{stroke-width:1.02px;}.cls-16{stroke-width:2.81px;}.cls-17,.cls-18{stroke-width:2.81px;}.cls-19{stroke-width:2.78px;}.cls-20{fill:url(#New_Blue_Dots);}</style>
    <pattern id="New_Blue_Dots" data-name="New Blue Dots" width="28.8" height="28.8" patternTransform="translate(51.48 11.39)" patternUnits="userSpaceOnUse" viewBox="0 0 28.8 28.8">
      <rect class="cls-1" width="28.8" height="28.8"></rect>
      <path class="cls-2" d="M28.8,30.24a1.44,1.44,0,1,0-1.44-1.44A1.44,1.44,0,0,0,28.8,30.24Z"></path>
      <path class="cls-2" d="M14.4,30.24A1.44,1.44,0,1,0,13,28.8,1.44,1.44,0,0,0,14.4,30.24Z"></path>
      <path class="cls-2" d="M28.8,15.84a1.44,1.44,0,1,0-1.44-1.44A1.44,1.44,0,0,0,28.8,15.84Z"></path>
      <path class="cls-2" d="M14.4,15.84A1.44,1.44,0,1,0,13,14.4,1.44,1.44,0,0,0,14.4,15.84Z"></path>
      <path class="cls-2" d="M7.2,23A1.44,1.44,0,1,0,5.76,21.6,1.44,1.44,0,0,0,7.2,23Z"></path>
      <path class="cls-2" d="M21.6,23a1.44,1.44,0,1,0-1.44-1.44A1.44,1.44,0,0,0,21.6,23Z"></path>
      <path class="cls-2" d="M7.2,8.64A1.44,1.44,0,1,0,5.76,7.2,1.44,1.44,0,0,0,7.2,8.64Z"></path>
      <path class="cls-2" d="M21.6,8.64A1.44,1.44,0,1,0,20.16,7.2,1.44,1.44,0,0,0,21.6,8.64Z"></path>
      <path class="cls-2" d="M0,30.24A1.44,1.44,0,0,0,1.44,28.8,1.45,1.45,0,0,0,0,27.36,1.44,1.44,0,0,0-1.44,28.8,1.43,1.43,0,0,0,0,30.24Z"></path>
      <path class="cls-2" d="M0,15.84A1.44,1.44,0,0,0,1.44,14.4,1.45,1.45,0,0,0,0,13,1.44,1.44,0,0,0-1.44,14.4,1.43,1.43,0,0,0,0,15.84Z"></path>
      <path class="cls-2" d="M28.8,1.44A1.45,1.45,0,0,0,30.24,0,1.45,1.45,0,0,0,28.8-1.44,1.44,1.44,0,0,0,27.36,0,1.44,1.44,0,0,0,28.8,1.44Z"></path>
      <path class="cls-2" d="M14.4,1.44A1.45,1.45,0,0,0,15.84,0,1.45,1.45,0,0,0,14.4-1.44,1.44,1.44,0,0,0,13,0,1.44,1.44,0,0,0,14.4,1.44Z"></path>
      <path class="cls-2" d="M0,1.44A1.45,1.45,0,0,0,1.44,0,1.45,1.45,0,0,0,0-1.44,1.44,1.44,0,0,0-1.44,0,1.44,1.44,0,0,0,0,1.44Z"></path>
    </pattern>
  </defs>
  <rect class="cls-3" x="102.64" y="224.4" width="399.95" height="254.26"></rect>
  <rect class="cls-3" x="106.2" y="219.68" width="396.29" height="261.59"></rect>
  <path class="cls-4" d="M259.73,276.28V472.1h86.11V276.28Zm76.85,184.81H268.33v-57h68.25Zm0-83.34v10.47H268.33V286H336.6Z"></path>
  <path class="cls-4" d="M491.63,123.38V240.46h4.81a6.15,6.15,0,0,0,12.3,0h4.81v8.15h0V123.38Z"></path>
  <path class="cls-4" d="M91.64,240.46h4.8a6.15,6.15,0,1,0,12.3,0h4.81V123.38H91.64V248.61h0Z"></path>
  <rect class="cls-5" x="113.55" y="148.27" width="378.09" height="71.41"></rect>
  <rect class="cls-5" x="113.55" y="138.21" width="378.09" height="10.92"></rect>
  <rect class="cls-5" x="113.55" y="219.68" width="378.09" height="10.92"></rect>
  <line class="cls-6" x1="259.73" y1="321.07" x2="259.73" y2="230.9"></line>
  <line class="cls-6" x1="345.84" y1="321.07" x2="345.84" y2="230.9"></line>
  <line class="cls-7" x1="491.53" y1="132.41" x2="513.44" y2="132.41"></line>
  <line class="cls-7" x1="491.64" y1="137.81" x2="513.55" y2="137.81"></line>
  <line class="cls-7" x1="91.58" y1="132.41" x2="113.49" y2="132.41"></line>
  <line class="cls-7" x1="91.69" y1="137.81" x2="113.6" y2="137.81"></line>
  <path class="cls-8" d="M476.13,394.26a.43.43,0,0,0-.32.45V397a.41.41,0,0,0,.36.45h.09a1.56,1.56,0,0,1-.32.61,5.35,5.35,0,0,1-.95.84,4.93,4.93,0,0,0-1.12,1,3.33,3.33,0,0,0-.59,1.88h0v10.47a1.82,1.82,0,0,0,1.55,2h8.25a1.82,1.82,0,0,0,1.55-2V401.81h0a3.25,3.25,0,0,0-.58-1.87,5,5,0,0,0-1.11-1.06A5,5,0,0,1,482,398a1.45,1.45,0,0,1-.31-.62h.11a.41.41,0,0,0,.36-.45l0-2.24a.55.55,0,0,0-.11-.33.31.31,0,0,0-.25-.13h-5.68Z"></path>
  <path class="cls-8" d="M458,394.26a.43.43,0,0,0-.32.45V397a.41.41,0,0,0,.36.45h.09a1.56,1.56,0,0,1-.32.61,5.35,5.35,0,0,1-1,.84,4.93,4.93,0,0,0-1.12,1,3.33,3.33,0,0,0-.59,1.88h0v10.47a1.82,1.82,0,0,0,1.55,2H465a1.82,1.82,0,0,0,1.55-2V401.81h0a3.25,3.25,0,0,0-.58-1.87,5,5,0,0,0-1.11-1.06,5,5,0,0,1-1-.84,1.45,1.45,0,0,1-.31-.62h.11a.41.41,0,0,0,.36-.45v-2.24a.48.48,0,0,0-.1-.33.31.31,0,0,0-.25-.13H458Z"></path>
  <path class="cls-4" d="M430.32,448h7.79l0-13.42-2-6.29v-5.15h-3.78v5.15l-2,6.29Z"></path>
  <path class="cls-4" d="M444.33,448h7.78l0-13.42-2-6.29v-5.15h-3.78v5.15l-2,6.29Z"></path>
  <rect class="cls-5" x="433.21" y="366.78" width="21.29" height="16.57"></rect>
  <rect class="cls-9" x="424.41" y="445.14" width="65.48" height="4.4"></rect>
  <rect class="cls-9" x="424.41" y="414.25" width="65.48" height="4.4"></rect>
  <rect class="cls-9" x="424.41" y="383.35" width="65.48" height="4.4"></rect>
  <rect class="cls-9" x="424.41" y="352.46" width="65.48" height="4.4"></rect>
  <line class="cls-10" x1="424.41" y1="352.46" x2="424.41" y2="472.05"></line>
  <path class="cls-11" d="M455,352.46h7.78l0-13.42-2-6.28V327.6H457v5.16L455,339Z"></path>
  <path class="cls-11" d="M469,352.46h7.78l0-13.42-2-6.28V327.6H471v5.16L469,339Z"></path>
  <polygon class="cls-12" points="486.45 481.35 486.45 472.27 481.27 472.27 481.27 466.88 513.55 466.88 513.55 490.44 493.47 490.44 493.47 481.35 486.45 481.35"></polygon>
  <rect class="cls-12" x="292.82" y="393.99" width="21.81" height="4.57"></rect>
  <path class="cls-11" d="M113.55,466.88V240.46h-4.81a6.15,6.15,0,1,1-12.3,0h-4.8V466.88Z"></path>
  <path class="cls-11" d="M508.74,240.46a6.15,6.15,0,0,1-12.3,0h-4.81V466.88h21.92V240.46Z"></path>
  <polygon class="cls-6" points="350.92 481.27 350.92 472.1 254.76 472.1 254.76 481.27 247.88 481.27 247.88 490.44 254.76 490.44 350.92 490.44 357.38 490.44 357.38 481.27 350.92 481.27"></polygon>
  <path class="cls-13" d="M395.2,383.26a.43.43,0,0,0-.32.45V386a.41.41,0,0,0,.35.45h.1a1.56,1.56,0,0,1-.32.61,5.32,5.32,0,0,1-.95.83,4.9,4.9,0,0,0-1.11,1,3.31,3.31,0,0,0-.59,1.88h0V401.2a1.82,1.82,0,0,0,1.54,2h8.23a1.82,1.82,0,0,0,1.54-2V390.79h0a3.22,3.22,0,0,0-.58-1.87,4.55,4.55,0,0,0-1.11-1.05A5.67,5.67,0,0,1,401,387a1.45,1.45,0,0,1-.31-.62h.11a.41.41,0,0,0,.36-.45v-2.23a.49.49,0,0,0-.1-.32.33.33,0,0,0-.25-.14H395.2Z"></path>
  <path class="cls-13" d="M377.17,383.26a.42.42,0,0,0-.31.45V386a.4.4,0,0,0,.35.45h.09a1.54,1.54,0,0,1-.31.61,5.08,5.08,0,0,1-1,.83,5.11,5.11,0,0,0-1.11,1,3.23,3.23,0,0,0-.58,1.88h0V401.2a1.81,1.81,0,0,0,1.54,2h8.22a1.81,1.81,0,0,0,1.54-2V390.79h0a3.22,3.22,0,0,0-.57-1.87,4.94,4.94,0,0,0-1.11-1.05A5.78,5.78,0,0,1,383,387a1.58,1.58,0,0,1-.31-.62h.12a.41.41,0,0,0,.35-.45l0-2.23a.55.55,0,0,0-.1-.32.33.33,0,0,0-.26-.14h-5.66Z"></path>
  <path class="cls-13" d="M367.17,282.58a.45.45,0,0,0-.32.46v2.23a.41.41,0,0,0,.36.45h.09a1.47,1.47,0,0,1-.31.61,5.44,5.44,0,0,1-1,.84,4.88,4.88,0,0,0-1.11,1,3.2,3.2,0,0,0-.58,1.87h0v10.43a1.8,1.8,0,0,0,1.54,2h8.22a1.8,1.8,0,0,0,1.54-2V290.11h0a3.19,3.19,0,0,0-.57-1.86,5.23,5.23,0,0,0-1.11-1.06,5,5,0,0,1-.95-.84,1.58,1.58,0,0,1-.31-.62h.12a.41.41,0,0,0,.35-.45l0-2.23a.52.52,0,0,0-.11-.32.3.3,0,0,0-.25-.14h-5.66Z"></path>
  <path class="cls-11" d="M363.51,436.79h7.76l0-13.37-2-6.27V412h-3.77v5.13l-2,6.27Z"></path>
  <rect class="cls-4" x="387.41" y="285.99" width="21.22" height="16.51"></rect>
  <rect class="cls-5" x="358.9" y="358.6" width="21.22" height="16.51"></rect>
  <line class="cls-10" x1="413.27" y1="301.76" x2="413.27" y2="472.18"></line>
  <path class="cls-11" d="M381.79,342h7.75l0-13.38-2-6.26v-5.14h-3.77v5.14l-2,6.26Z"></path>
  <path class="cls-11" d="M395.74,342h7.76l0-13.38-2-6.26v-5.14h-3.77v5.14l-2,6.26Z"></path>
  <rect class="cls-14" x="346.74" y="433.1" width="66.51" height="5.24"></rect>
  <rect class="cls-14" x="346.77" y="402.75" width="66.43" height="5.24"></rect>
  <rect class="cls-14" x="346.79" y="372.4" width="66.42" height="5.24"></rect>
  <rect class="cls-14" x="346.77" y="342.05" width="66.46" height="5.24"></rect>
  <rect class="cls-15" x="345.23" y="301.76" width="68.48" height="5.24"></rect>
  <polygon class="cls-12" points="113.55 481.35 113.55 472.27 118.73 472.27 118.73 466.88 86.45 466.88 86.45 490.44 107.34 490.44 107.34 481.35 113.55 481.35"></polygon>
  <polygon class="cls-11" points="486.45 481.35 486.45 472.27 481.27 472.27 481.27 472 118.73 472.25 118.73 472.27 113.55 472.27 113.55 481.35 107.34 481.35 107.34 490.44 493.46 490.44 493.46 481.35 486.45 481.35"></polygon>
  <rect class="cls-4" x="87.64" y="123.38" width="29.91" height="14.43"></rect>
  <rect class="cls-4" x="87.64" y="123.38" width="29.91" height="7.21"></rect>
  <rect class="cls-4" x="487.64" y="123.38" width="29.91" height="14.43"></rect>
  <rect class="cls-4" x="487.64" y="123.38" width="29.91" height="7.21"></rect>
  <rect class="cls-4" x="117.55" y="130.6" width="370.09" height="7.21"></rect>
  <rect class="cls-11" x="259.73" y="230.6" width="86.1" height="6.74"></rect>
  <rect class="cls-11" x="259.73" y="237.09" width="86.1" height="6.74"></rect>
  <rect class="cls-11" x="259.73" y="243.58" width="86.1" height="6.74"></rect>
  <rect class="cls-16" x="113.55" y="399.89" width="8.94" height="25.39"></rect>
  <rect class="cls-16" x="113.55" y="361.22" width="8.94" height="31.06"></rect>
  <rect class="cls-16" x="113.55" y="322.55" width="8.94" height="31.06"></rect>
  <rect class="cls-16" x="113.55" y="283.88" width="8.94" height="31.06"></rect>
  <rect class="cls-16" x="150.93" y="399.89" width="8.94" height="25.39"></rect>
  <rect class="cls-16" x="150.93" y="361.22" width="8.94" height="31.06"></rect>
  <rect class="cls-16" x="150.93" y="322.55" width="8.94" height="31.06"></rect>
  <rect class="cls-16" x="150.93" y="283.88" width="8.94" height="31.06"></rect>
  <rect class="cls-17" x="113.55" y="392.28" width="48.61" height="7.61"></rect>
  <rect class="cls-17" x="113.55" y="425.28" width="57.27" height="9.82"></rect>
  <rect class="cls-17" x="113.55" y="353.61" width="48.61" height="7.61"></rect>
  <rect class="cls-17" x="113.55" y="314.94" width="48.61" height="7.61"></rect>
  <rect class="cls-17" x="113.55" y="276.27" width="48.61" height="7.61" transform="translate(275.7 560.15) rotate(180)"></rect>
  <rect class="cls-17" x="113.55" y="435.1" width="57.27" height="37.01"></rect>
  <rect class="cls-18" x="136.23" y="339.65" width="9.96" height="14.13"></rect>
  <rect class="cls-18" x="126.33" y="339.65" width="9.96" height="14.13"></rect>
  <rect class="cls-18" x="136.23" y="302.65" width="8.66" height="12.29"></rect>
  <rect class="cls-18" x="127.62" y="302.65" width="8.66" height="12.29"></rect>
  <rect class="cls-18" x="131.9" y="290.36" width="8.66" height="12.29"></rect>
  <path class="cls-19" d="M132.78,367.73a.53.53,0,0,0-.39.55V371a.5.5,0,0,0,.43.55h.12a1.8,1.8,0,0,1-.39.75,6.64,6.64,0,0,1-1.16,1,5.75,5.75,0,0,0-1.36,1.27,4,4,0,0,0-.72,2.3h0v12.77a2.21,2.21,0,0,0,1.89,2.42h10.06a2.21,2.21,0,0,0,1.89-2.42V376.94h0a3.94,3.94,0,0,0-.71-2.28,6.26,6.26,0,0,0-1.35-1.29,6.76,6.76,0,0,1-1.17-1,1.8,1.8,0,0,1-.37-.76h.14a.5.5,0,0,0,.43-.55l0-2.73a.62.62,0,0,0-.12-.39.4.4,0,0,0-.31-.17h-6.93Z"></path>
  <rect class="cls-11" x="259.73" y="250.07" width="86.1" height="6.74"></rect>
  <rect class="cls-11" x="259.73" y="256.56" width="86.1" height="6.74"></rect>
  <rect class="cls-11" x="259.73" y="263.05" width="86.1" height="6.74"></rect>
  <rect class="cls-11" x="259.73" y="269.54" width="86.1" height="6.74"></rect>
  <polygon class="cls-4" points="211.43 425.71 209.83 430.69 190.88 430.69 189.41 425.71 182.22 425.71 182.22 471.88 218.72 471.88 218.72 425.71 211.43 425.71"></polygon>
  <line class="cls-4" x1="182.22" y1="437.39" x2="218.96" y2="437.39"></line>
  <line class="cls-4" x1="182.22" y1="442.83" x2="218.96" y2="442.83"></line>
  <line class="cls-4" x1="214.96" y1="407.19" x2="214.96" y2="425.7"></line>
  <polygon class="cls-4" points="220.19 409.64 216.69 409.64 209.73 409.64 209.73 404.81 220.19 404.81 220.19 409.64"></polygon>
  <polyline class="cls-7" points="214.96 415.49 226.3 415.49 229.42 418.61"></polyline>
  <polygon class="cls-4" points="229.8 425.71 228.2 430.69 209.25 430.69 207.78 425.71 200.59 425.71 200.59 471.88 237.09 471.88 237.09 425.71 229.8 425.71"></polygon>
  <line class="cls-4" x1="200.59" y1="437.39" x2="237.33" y2="437.39"></line>
  <line class="cls-4" x1="200.59" y1="442.83" x2="237.33" y2="442.83"></line>
  <line class="cls-4" x1="233.33" y1="407.19" x2="233.33" y2="425.7"></line>
  <polygon class="cls-4" points="238.56 409.64 235.06 409.64 228.1 409.64 228.1 404.81 238.56 404.81 238.56 409.64"></polygon>
  <polyline class="cls-7" points="233.33 415.49 244.66 415.49 247.79 418.61"></polyline>
  <rect class="cls-4" x="268.4" y="383.26" width="9.96" height="26.03"></rect>
  <line class="cls-4" x1="207.53" y1="230.5" x2="207.53" y2="294.33"></line>
  <rect class="cls-4" x="203.6" y="294.33" width="7.86" height="7.86"></rect>
  <circle class="cls-11" cx="207.53" cy="315.92" r="13.72"></circle>
  <line class="cls-4" x1="418.74" y1="230.5" x2="418.74" y2="294.33"></line>
  <rect class="cls-4" x="414.81" y="294.33" width="7.86" height="7.86"></rect>
  <circle class="cls-11" cx="418.74" cy="315.92" r="13.72"></circle>
  <rect class="cls-20" x="113.6" y="230.9" width="145.8" height="241.11"></rect>
  <rect class="cls-20" x="345.84" y="230.9" width="145.8" height="241.11"></rect>
  <path class="cls-2" d="M391.8,207.4v1h-6.44l5.11-8h-4.54v-1h6.4l-5.09,8Z"></path>
  <path class="cls-2" d="M393.7,205.59a2,2,0,0,0,.41,1.14,2,2,0,0,0,1.67.85,2.17,2.17,0,0,0,1.87-1.07l.9.34a3,3,0,0,1-2.77,1.67,3.26,3.26,0,1,1,3.12-3.33c0,.08,0,.25,0,.4Zm4.11-.75a2,2,0,0,0-.35-1.07,2.15,2.15,0,0,0-1.72-.85,2,2,0,0,0-1.67.86,2.49,2.49,0,0,0-.35,1.06Z"></path>
  <path class="cls-2" d="M401.41,202.15v1a1.74,1.74,0,0,1,.57-.82,2,2,0,0,1,1.18-.38h.25v1h-.29a1.59,1.59,0,0,0-1.35.71,2.29,2.29,0,0,0-.36,1.47v3.16h-1v-6.22Z"></path>
  <path class="cls-2" d="M410.32,205.28a3.18,3.18,0,0,1-3.19,3.24,3.26,3.26,0,1,1,3.19-3.24Zm-5.28,0a2.1,2.1,0,0,0,2.12,2.31,2.13,2.13,0,0,0,2.1-2.31,2.12,2.12,0,1,0-4.22,0Z"></path>
  <path class="cls-2" d="M425.28,199.37h1.18l-2.76,9h-1l-2-7.07-2,7.07h-1l-2.75-9h1.2l2.05,6.9,2-6.9h1.07l1.93,6.92Z"></path>
  <path class="cls-2" d="M431.87,202.15h1v6.22h-1v-1.2a2.59,2.59,0,0,1-2.27,1.35,3,3,0,0,1-2.93-3.24,3,3,0,0,1,3-3.28,2.62,2.62,0,0,1,2.24,1.18Zm-3.61,1.51a2.88,2.88,0,0,0-.51,1.65,2.13,2.13,0,0,0,2,2.32,2.3,2.3,0,0,0,2.13-2.43,2.09,2.09,0,0,0-2.1-2.28A1.71,1.71,0,0,0,428.26,203.66Z"></path>
  <path class="cls-2" d="M437.82,203.85v-.07c0-.58-.47-.94-1.19-.94s-1.12.35-1.12.89.27.74,1.39,1.05a3.14,3.14,0,0,1,1.51.72,1.73,1.73,0,0,1,.5,1.21c0,1.08-.89,1.81-2.21,1.81s-2.21-.66-2.32-1.92h1a1.15,1.15,0,0,0,1.31,1.08c.7,0,1.16-.36,1.16-.91s-.35-.81-1.42-1.08c-1.35-.37-1.95-.93-1.95-1.88s.87-1.81,2.18-1.81a1.9,1.9,0,0,1,2.17,1.85Z"></path>
  <path class="cls-2" d="M441.61,207.1c0,.3.11.38.47.38h.48v.89h-1c-.72,0-1-.28-1-1v-4.34h-.87v-.91h.87v-2h1v2h.95v.91h-.95Z"></path>
  <path class="cls-2" d="M444.48,205.59a2,2,0,0,0,.41,1.14,2,2,0,0,0,1.67.85,2.17,2.17,0,0,0,1.87-1.07l.9.34a3,3,0,0,1-2.77,1.67,3.26,3.26,0,1,1,3.12-3.33c0,.08,0,.25,0,.4Zm4.11-.75a2,2,0,0,0-.35-1.07,2.13,2.13,0,0,0-1.72-.85,2,2,0,0,0-1.67.86,2.49,2.49,0,0,0-.35,1.06Z"></path>
  <path class="cls-2" d="M455.78,206a1.46,1.46,0,0,0,1.59,1.56A1.57,1.57,0,0,0,459.1,206c0-.79-.41-1.15-1.82-1.62a4.44,4.44,0,0,1-1.82-.91,2.22,2.22,0,0,1-.71-1.7,2.68,2.68,0,0,1,5.36,0H459a1.74,1.74,0,0,0-.22-.93,1.53,1.53,0,0,0-1.33-.64,1.44,1.44,0,0,0-1.53,1.47,1.26,1.26,0,0,0,.51,1,5.66,5.66,0,0,0,1.45.64,4,4,0,0,1,1.78,1,2.32,2.32,0,0,1,.61,1.59,2.59,2.59,0,0,1-2.84,2.6,2.53,2.53,0,0,1-2.4-1.21,2.16,2.16,0,0,1-.31-1.17V206Z"></path>
  <path class="cls-2" d="M462.88,203a2.27,2.27,0,0,1,1.87-1,2.1,2.1,0,0,1,1.45.57,2.12,2.12,0,0,1,.48,1.62v4.18h-1v-4.13c0-.85-.42-1.32-1.16-1.32a1.63,1.63,0,0,0-1.62,1.81v3.64h-1v-9h1Z"></path>
  <path class="cls-2" d="M474.54,205.28a3.18,3.18,0,0,1-3.19,3.24,3.26,3.26,0,1,1,3.19-3.24Zm-5.28,0a2.1,2.1,0,0,0,2.12,2.31,2.13,2.13,0,0,0,2.11-2.31,2.12,2.12,0,1,0-4.23,0Z"></path>
  <path class="cls-2" d="M477.13,202.15v1.13A2.42,2.42,0,0,1,479.4,202a3,3,0,0,1,2.92,3.21c0,2-1.2,3.31-2.92,3.31a3.07,3.07,0,0,1-1.37-.32,2.21,2.21,0,0,1-.9-.8v3.89h-1v-9.14Zm0,3.21a2,2,0,0,0,2.05,2.27,2.11,2.11,0,0,0,2.05-2.37,2.39,2.39,0,0,0-.54-1.69,2,2,0,0,0-1.47-.65A2.17,2.17,0,0,0,477.13,205.36Z"></path>
  <path class="cls-2" d="M130.37,169.25v1.39h-7.1l4.41-6.31c1.27-1.84,1.55-2.41,1.55-3.17a2.13,2.13,0,0,0-3.95-.82,3.24,3.24,0,0,0-.23,1.31h-1.42c.08-2.41,1.35-3.74,3.61-3.74,2.07,0,3.51,1.29,3.51,3.13a5.77,5.77,0,0,1-1.44,3.48l-3.4,4.73Z"></path>
  <path class="cls-2" d="M139.87,169.25v1.39h-7.1l4.41-6.31c1.27-1.84,1.55-2.41,1.55-3.17a2.13,2.13,0,0,0-3.95-.82,3.24,3.24,0,0,0-.23,1.31h-1.42c.08-2.41,1.35-3.74,3.61-3.74,2.07,0,3.51,1.29,3.51,3.13a5.77,5.77,0,0,1-1.44,3.48l-3.4,4.73Z"></path>
  <path class="cls-2" d="M316.28,170.5c-1.48-2.14-2.46-3.06-3-3.34l3-8.23s1.27-3.59-1.27-3.88-2.88.78-3.24,3.52-.91,8-.91,8-2.18-.07-4.08,3-3,9.13-3.38,12-1.34,5.82,2.6,7.51c0,0,1.08.35,3.11-2.54s7.17-11.75,7.17-11.75A4,4,0,0,0,316.28,170.5ZM312.16,173l-3.43,9c-2,5.74-3.12,5.24-3.12,5.24-1.62-.5-1.55-4-.62-6.3s6.49-10.47,6.49-10.47C313.47,170.27,312.16,173,312.16,173Zm.52-3.66a1.05,1.05,0,0,1-1.06.43c-.66-.14-2.07.28-4.07,4.6l-2.25,4.77s.38-5.77,2.06-7.82,2.87-3.68,4.74-3.25C313.15,168.33,313,168.9,312.68,169.35Z"></path>
  <path class="cls-2" d="M255,156.79c3.51,0,8.54.5,8.54,7.66V167c0,3.55-1.48,5.95-4.43,6.87l5.16,15.23h-3.6l-4.75-14.54H252v14.54h-3.46v-32.3Zm-3,14.76h3.41c2.54,0,4.66-1.47,4.66-4.33v-3.05c0-4-3.09-4.38-4.84-4.38H252Z"></path>
  <path class="cls-2" d="M269.11,156.79h13V160h-9.51v11.26H281v3h-8.4v11.68h9.65v3.18H269.11Z"></path>
  <path class="cls-2" d="M286.74,156.79H300V160H290.2v11.45h8.63v3.27H290.2v14.4h-3.46Z"></path>
  <path class="cls-2" d="M328.82,156.79v29.12H339v3.18H325.36v-32.3Z"></path>
  <path class="cls-2" d="M346.54,156.79v29.12h10.2v3.18H343.08v-32.3Z"></path>
  <path class="cls-2" d="M256.67,206.37a1.09,1.09,0,0,0,1,1.15c.7,0,1-.53,1-1.68v-5.5c0-2.09-.38-4.65-4.49-4.65-3.13,0-3.81,1.59-4.1,2.4a10.06,10.06,0,0,0-.4,3.33v5.44c0,2.18.38,3.17.89,3.72a5,5,0,0,0,3.54,1.16,8,8,0,0,0,3-.5l.29.88a9.39,9.39,0,0,1-3.7.66c-1.06,0-3.09-.13-4.25-1.5-1-1.19-1.06-3-1.06-4.47v-5.39c0-1.83.15-3.86,1.1-5,.66-.81,1.89-1.71,4.56-1.71,1.91,0,3.5.33,4.64,1.54,1,1,1.19,2.44,1.19,4.4v5.18c0,2.4-1.36,2.77-2.35,2.77-.62,0-1.76-.2-1.85-1.39a2.46,2.46,0,0,1-2.23,1.39c-1.58,0-1.87-1.21-1.87-2.07v-5.06c0-.86.29-2.07,1.87-2.07a2.31,2.31,0,0,1,1.92,1v-.88h1.25Zm-1.25-.77v-3.3c0-.55-.22-1.7-1.3-1.7a1.28,1.28,0,0,0-1.23,1.43v3.83a1.28,1.28,0,0,0,1.23,1.44C255.2,207.3,255.42,206.15,255.42,205.6Z"></path>
  <path class="cls-2" d="M274.51,194.66v1.52h-2.86v13.89H270V196.18h-2.84v-1.52Z"></path>
  <path class="cls-2" d="M278.21,194.66v6.89h3.72v-6.89h1.65v15.41h-1.65V203h-3.72v7.09h-1.65V194.66Z"></path>
  <path class="cls-2" d="M286.58,194.66h6.19v1.52h-4.54v5.37h4V203h-4v5.57h4.6v1.52h-6.25Z"></path>
  <path class="cls-2" d="M306,208.84a3.08,3.08,0,0,1-2.71,1.45,3,3,0,0,1-2.51-1,4.38,4.38,0,0,1-.77-2.6v-8.13a4.29,4.29,0,0,1,.71-2.75,3.58,3.58,0,0,1,3-1.36c2.2,0,3.7,1.1,3.7,3.65v.71h-1.65v-.69a1.88,1.88,0,0,0-2-2.07c-1.8,0-2,1.63-2,2.58v7.53c0,1.56.53,2.53,2,2.53s2.07-1.14,2.07-2.84v-2.46h-2V202h3.61v8.12h-.95Z"></path>
  <path class="cls-2" d="M313.36,194.66c1.67,0,4.07.24,4.07,3.65v1.21a3.06,3.06,0,0,1-2.11,3.28l2.46,7.27h-1.71l-2.27-6.94h-1.87v6.94h-1.65V194.66Zm-1.43,7h1.63a2,2,0,0,0,2.22-2.07v-1.45c0-1.92-1.48-2.09-2.31-2.09h-1.54Z"></path>
  <path class="cls-2" d="M325.65,210.07l-.78-3.43H321.4l-.75,3.43H319l3.35-15.41h1.49l3.37,15.41ZM323.09,198l-1.47,7.27h3Z"></path>
  <path class="cls-2" d="M331.17,194.66l4.36,11.47V194.66h1.65v15.41h-1.65l-4.36-11.25v11.25h-1.65V194.66Z"></path>
  <path class="cls-2" d="M346.06,208.84a3.09,3.09,0,0,1-2.71,1.45,2.94,2.94,0,0,1-2.51-1,4.38,4.38,0,0,1-.77-2.6v-8.13a4.28,4.28,0,0,1,.7-2.75,3.6,3.6,0,0,1,3-1.36c2.2,0,3.7,1.1,3.7,3.65v.71H345.8v-.69a1.88,1.88,0,0,0-2-2.07c-1.81,0-2,1.63-2,2.58v7.53c0,1.56.53,2.53,2,2.53s2.07-1.14,2.07-2.84v-2.46h-2V202h3.61v8.12h-.95Z"></path>
  <path class="cls-2" d="M350.33,194.66h6.19v1.52H352v5.37h4V203h-4v5.57h4.61v1.52h-6.26Z"></path>
</svg>
