<?xml version="1.0" encoding="UTF-8"?>
<svg xmlns="http://www.w3.org/2000/svg" viewBox="0 0 600 600">
  <path d="m355.21 228.48h150.79v253.38h-150.79z" fill="#fff"></path>
  <path d="m428.97 350.29h26.13v17.53h-26.13z" fill="#ffde00" transform="matrix(-1 0 0 -1 884.07 718.1)"></path>
  <path d="m428.97 415.64h26.13v17.53h-26.13z" fill="#ffde00" transform="matrix(-1 0 0 -1 884.07 848.8)"></path>
  <path d="m462.4 415.64h26.13v17.53h-26.13z" fill="#ffde00" transform="matrix(-1 0 0 -1 950.94 848.8)"></path>
  <path d="m78.35 332.31h25.81v34.1h-25.81z" fill="#ffde00"></path>
  <path d="m78.35 264.02h25.81v34.1h-25.81z" fill="#ffde00"></path>
  <path d="m78.35 212.26h34.1v17.66h-34.1z" fill="#ffde00"></path>
  <path d="m146.55 212.26h34.1v17.66h-34.1z" fill="#ffde00"></path>
  <path d="m214.75 212.26h34.1v17.66h-34.1z" fill="#ffde00"></path>
  <path d="m282.95 212.26h34.1v17.66h-34.1z" fill="#ffde00"></path>
  <path d="m351.15 212.26h34.1v17.66h-34.1z" fill="#ffde00"></path>
  <path d="m419.35 212.26h34.1v17.66h-34.1z" fill="#ffde00"></path>
  <path d="m487.55 212.26h34.1v17.66h-34.1z" fill="#ffde00"></path>
  <path d="m78.35 176.94h34.1v17.66h-34.1z" fill="#ffde00"></path>
  <path d="m146.55 176.94h34.1v17.66h-34.1z" fill="#ffde00"></path>
  <path d="m214.75 176.94h34.1v17.66h-34.1z" fill="#ffde00"></path>
  <path d="m282.95 176.94h34.1v17.66h-34.1z" fill="#ffde00"></path>
  <path d="m351.15 176.94h34.1v17.66h-34.1z" fill="#ffde00"></path>
  <path d="m419.35 176.94h34.1v17.66h-34.1z" fill="#ffde00"></path>
  <path d="m487.55 176.94h34.1v17.66h-34.1z" fill="#ffde00"></path>
  <path d="m78.35 194.6h17.05v17.66h-17.05z" fill="#ffde00"></path>
  <path d="m129.5 194.6h34.1v17.66h-34.1z" fill="#ffde00"></path>
  <path d="m197.7 194.6h34.1v17.66h-34.1z" fill="#ffde00"></path>
  <path d="m265.9 194.6h34.1v17.66h-34.1z" fill="#ffde00"></path>
  <path d="m334.1 194.6h34.1v17.66h-34.1z" fill="#ffde00"></path>
  <path d="m402.3 194.6h34.1v17.66h-34.1z" fill="#ffde00"></path>
  <path d="m470.5 194.6h34.1v17.66h-34.1z" fill="#ffde00"></path>
  <path d="m78.35 400.51h25.81v89.95h-25.81z" fill="#ffde00"></path>
  <path d="m495.84 332.31h25.81v34.1h-25.81z" fill="#ffde00"></path>
  <path d="m495.84 264.02h25.81v34.1h-25.81z" fill="#ffde00"></path>
  <path d="m495.84 400.51h25.81v89.95h-25.81z" fill="#ffde00"></path>
  <path d="m129.37 256.21c0-.11-.07-.22-.11-.33z" fill="#ffde00"></path>
  <path d="m158.24 276.14a133.13 133.13 0 0 0 -10.36-11.14 1.77 1.77 0 0 1 -.56-.78 1.87 1.87 0 0 1 .16-1.11 18.14 18.14 0 0 0 .7-9.63c-.33-1.68-1-3.46-2.52-4.3a6.22 6.22 0 0 0 -3.37-.57 9.68 9.68 0 0 0 -3.24.6 12.29 12.29 0 0 0 -2.74 1.73l-6.9 5.25 8 24.61 8.3-1.79a.72.72 0 0 0 .38-.16c.19-.2.09-.53 0-.78-1-2.25-2.06-4.46-3.19-6.65l9.86 9.53a.59.59 0 0 0 .27.17.51.51 0 0 0 .39-.18l4.81-4a.56.56 0 0 0 .22-.27.6.6 0 0 0 -.21-.53zm-14.84-16.49a6.15 6.15 0 0 1 -2.77 3.37c-1-1.88-2.34-3.42-3.17-5.4a9.45 9.45 0 0 1 3.74-.47 3.56 3.56 0 0 1 1.44.36 1.66 1.66 0 0 1 .9 1.14 2.14 2.14 0 0 1 -.14 1z" fill="#ffde00"></path>
  <path d="m167.21 255h.29a14.44 14.44 0 0 0 -2.93-4.55 7.27 7.27 0 0 0 -4.83-2.21 4.26 4.26 0 0 0 -1.55.23 4.78 4.78 0 0 0 -2.12 1.76 14.65 14.65 0 0 0 -2.17 6 24.18 24.18 0 0 0 .2 10.73c.66 3.23 1.64 6.52 3.81 9 1.27 1.46 3.2 2.64 5.07 2.13a5.22 5.22 0 0 0 2.94-2.59 17.84 17.84 0 0 0 2-7.34 68.87 68.87 0 0 0 .17-8.62 11.82 11.82 0 0 0 -.88-4.54zm-4.33 12.81a1.46 1.46 0 0 1 -1.86.52 2.07 2.07 0 0 1 -.69-1 18.43 18.43 0 0 1 -1.37-5.84 5 5 0 0 1 1-3.95 1.31 1.31 0 0 1 1.85-.28l.3.6a19 19 0 0 1 1.28 7.9 3.76 3.76 0 0 1 -.51 2.01z" fill="#ffde00"></path>
  <path d="m186.13 257.05a17.08 17.08 0 0 0 -5.4-7.75 7.6 7.6 0 0 0 -3.56-1.67 6 6 0 0 0 -4.54 1.4 9.17 9.17 0 0 0 -2.69 4h-.79a59.62 59.62 0 0 0 -.15 13.97 27.81 27.81 0 0 0 1.21 6.41 11.39 11.39 0 0 0 3.6 5.36 7.33 7.33 0 0 0 6.14 1.49 8.86 8.86 0 0 0 4.83-3.64 14.33 14.33 0 0 0 2.18-4.37 20.23 20.23 0 0 0 .67-5.81 28.24 28.24 0 0 0 -1.5-9.39zm-6.68 11.28a5.45 5.45 0 0 1 -1 2 .34.34 0 0 1 -.23.16.33.33 0 0 1 -.2-.09 7.55 7.55 0 0 1 -3-5.05 17.77 17.77 0 0 1 .26-6c.15-.89.42-1.91 1.25-2.28a.91.91 0 0 1 .82 0 1.15 1.15 0 0 1 .39.48 8.24 8.24 0 0 1 1 2.41l.06.26a11.9 11.9 0 0 1 .65 8.11z" fill="#ffde00"></path>
  <path d="m183.26 249a113.66 113.66 0 0 1 21.21-4.46 59.27 59.27 0 0 0 2.16 11.06l-6.17.57a.23.23 0 0 0 -.25.32l3.42 19.51a62.7 62.7 0 0 1 -9.15 1.15.64.64 0 0 1 -.48-.15.72.72 0 0 1 -.16-.38c-.28-1.68-.34-3.4-.6-5.08-.5-3.28-1.75-6.44-2-9.74a29.51 29.51 0 0 0 -.35-3.77.55.55 0 0 0 -.18-.38.66.66 0 0 0 -.44-.07l-2.74.22a1.44 1.44 0 0 1 -.94-.13 1.38 1.38 0 0 1 -.39-.47 25.88 25.88 0 0 1 -3.19-8" fill="#ffde00"></path>
  <path d="m214.24 257.52a41.41 41.41 0 0 0 6.12-5.72.81.81 0 0 0 .24-.42.73.73 0 0 0 -.15-.47c-1.2-2-3.48-3-5.67-3.71s-4.94-1.35-7.17-.33a9 9 0 0 0 -2.66 2.06 10 10 0 0 0 -2 2.73 8.8 8.8 0 0 0 -.69 3.21 7.9 7.9 0 0 0 .85 4.23c1.14 2 3.39 3.09 5.53 3.94s4.44 1.66 6 3.39a1.52 1.52 0 0 1 .47 1.56 1.31 1.31 0 0 1 -1.11.63 3.74 3.74 0 0 1 -2.85-1.14 10.48 10.48 0 0 1 -1.81-2.59 68.35 68.35 0 0 1 -6.21 4.61 5.43 5.43 0 0 0 2 2.94 16 16 0 0 0 9.19 3.88 7.74 7.74 0 0 0 3.58-.41 7.24 7.24 0 0 0 3.34-3.16 8.15 8.15 0 0 0 1.16-3.41 5.06 5.06 0 0 0 -.89-3.45 8.09 8.09 0 0 0 -1.78-1.62 70.67 70.67 0 0 0 -7.36-4.71c-.81-.45-1.76-1.14-1.57-2.05a.74.74 0 0 1 .21-.41 1.08 1.08 0 0 1 .9-.19 4.34 4.34 0 0 1 1.67.59" fill="#ffde00"></path>
  <path d="m242.64 259.48a36.89 36.89 0 0 1 -4.56-3.61 26.43 26.43 0 0 0 -4.2 6l-5.34-4.87-.21-.75a20.68 20.68 0 0 0 -3.81 4.17 1.57 1.57 0 0 0 -.4 1.31 1.69 1.69 0 0 0 .52.67 54.18 54.18 0 0 1 4.68 4.9.72.72 0 0 1 .17.29.68.68 0 0 1 -.15.47 11.74 11.74 0 0 0 -1.67 4.08 7.52 7.52 0 0 0 1.52 5.88 7 7 0 0 0 5.48 2.58 5.06 5.06 0 0 0 3.2-1.11 5.18 5.18 0 0 0 1.64-2.84 11.19 11.19 0 0 0 .19-3.32c-.13-2.16-.66-4.52-2.38-5.84-.14-.11-.31-.23-.34-.41a.6.6 0 0 1 .08-.41 18.86 18.86 0 0 1 5.58-7.19zm-8.13 13a2.07 2.07 0 0 1 -.74 1.18 1.23 1.23 0 0 1 -.71.33.91.91 0 0 1 -.61-.19 1.77 1.77 0 0 1 -.44-2 4.93 4.93 0 0 1 1.41-1.74l.71.9c.41.14.45 1.04.38 1.49z" fill="#ffde00"></path>
  <path d="m256.75 260.85a8.76 8.76 0 0 0 -6.27 1.87 2.1 2.1 0 0 0 -.91 1.34 1.59 1.59 0 0 0 .8 1.4 4 4 0 0 0 1.6.48 7 7 0 0 0 3-.08 3.12 3.12 0 0 0 2.16-1.89l6 7.09a1.43 1.43 0 0 1 .42.79 1.28 1.28 0 0 1 -.21.62 6.39 6.39 0 0 1 -2.79 2.25 17.64 17.64 0 0 1 -10.66 2 8.76 8.76 0 0 1 -3-1 9.26 9.26 0 0 1 -2.33-2.13 16 16 0 0 1 -.78-19.08 9.17 9.17 0 0 1 2.9-2.88 11.51 11.51 0 0 1 4.16-1.23 42.87 42.87 0 0 1 13 .16c-3.25 3.23-4.78 6.42-7.11 10.36" fill="#ffde00"></path>
  <path d="m262.19 252.74a76.8 76.8 0 0 0 5.81 6.92 24.73 24.73 0 0 1 3.8-5.75.63.63 0 0 1 .41-.27.61.61 0 0 1 .35.13l7.62 4.6c-3.28 4.93-5.29 10.57-8.05 15.8a122.52 122.52 0 0 1 -7.07 11.38.53.53 0 0 1 -.77.25 48 48 0 0 1 -9.35-3.94.57.57 0 0 1 -.22-.19c-.08-.16.05-.35.16-.49.91-1.1 1.9-2.12 2.84-3.19a55.94 55.94 0 0 0 6.76-9.41.69.69 0 0 0 .14-.4c0-.25-.23-.43-.44-.57a79.24 79.24 0 0 1 -7.45-5.73 1.13 1.13 0 0 1 -.45-.63 1.08 1.08 0 0 1 .26-.73l5.08-7.75" fill="#ffde00"></path>
  <path d="m290.93 251.05.75 8.93a.61.61 0 0 1 0 .36.6.6 0 0 1 -.34.24 27.68 27.68 0 0 0 -2.94 1.17 4 4 0 0 0 -2.07 2.28 5.48 5.48 0 0 0 -.07 2 1.43 1.43 0 0 0 1.56 1.65 3.77 3.77 0 0 0 2.68-.37.39.39 0 0 1 .27-.13c.12 0 .21.12.27.22a11.6 11.6 0 0 1 1.31 5.11l.36 3.5a1.84 1.84 0 0 1 -.18 1.25 1.6 1.6 0 0 1 -.88.51 16.83 16.83 0 0 1 -4 .61 19.44 19.44 0 0 1 -6.72-.56 8.94 8.94 0 0 1 -5.29-4 10.16 10.16 0 0 1 -1.09-4.16 15.28 15.28 0 0 1 .44-5.22 21.09 21.09 0 0 1 2.5-5.41 18.92 18.92 0 0 1 3.24-4.2c2.59-2.38 6.16-3.44 9.67-3.76" fill="#ffde00"></path>
  <path d="m294.83 250.12.49 22.91a1 1 0 0 0 .1.47.79.79 0 0 0 .33.23 9.92 9.92 0 0 0 2.46.71q4.89 1 9.84 1.59a.57.57 0 0 0 .5-.09.56.56 0 0 0 .12-.36c.19-2 .29-4.1.3-6.15a.8.8 0 0 0 -.14-.57.81.81 0 0 0 -.44-.18 62 62 0 0 1 -7.08-1.39.55.55 0 0 1 -.35-.21.58.58 0 0 1 -.06-.39c.47-5.3 1-10.67 2.88-15.62l-8.09-.46" fill="#ffde00"></path>
  <path d="m321 268.74a63 63 0 0 0 -6.59 0 .44.44 0 0 0 -.28.07c-.16.11-.14.35-.15.54a1.4 1.4 0 0 1 -1 1.16 2.58 2.58 0 0 1 -1.62-.13 4.91 4.91 0 0 1 -3-3.32l.83-.62q5-.89 10-1.84a2 2 0 0 0 1.18-.53c.43-.51.21-1.29 0-1.92-.92-2.34-2-4.84-4.25-6a12.23 12.23 0 0 0 -7.23-.66 8.54 8.54 0 0 0 -3.16 1.9 8.27 8.27 0 0 0 -2.36 3.09 12.66 12.66 0 0 0 -.37 5.21 20.91 20.91 0 0 0 .69 5.86 9.61 9.61 0 0 0 2.22 3.53 12.82 12.82 0 0 0 8 3.68 7.48 7.48 0 0 0 3.05-.24 6.45 6.45 0 0 0 3.92-4 10.39 10.39 0 0 0 .12-5.78zm-11.57-6.86a3.22 3.22 0 0 1 1.08-1.78 2 2 0 0 1 1.38-.26 2.9 2.9 0 0 1 2.28 1.81v.19h-.11a49.69 49.69 0 0 0 -5 1.19z" fill="#ffde00"></path>
  <path d="m330.49 260.93 8.38-4.22a30.64 30.64 0 0 0 -3.35-2.67 15.86 15.86 0 0 0 -4.72-2.37 16.13 16.13 0 0 0 -4.7-.48 9.76 9.76 0 0 0 -2.64.34 8.29 8.29 0 0 0 -5.14 7.3 8 8 0 0 0 2.54 5.23 53.75 53.75 0 0 0 4.62 3.76 11.19 11.19 0 0 1 3.71 4.57.71.71 0 0 1 0 .72.6.6 0 0 1 -.47.16 2.53 2.53 0 0 1 -2.45-2.07c0-.29-.06-.64-.31-.8a.88.88 0 0 0 -.51-.08l-3.49.09a.88.88 0 0 0 -.43.09.89.89 0 0 0 -.31.7 12.29 12.29 0 0 0 -.11 2.84 4.21 4.21 0 0 0 1.13 2.56 6.33 6.33 0 0 0 2.15 1.21 25.55 25.55 0 0 0 5.45 1.65 9 9 0 0 0 5.55-.76 8.85 8.85 0 0 0 3.2-3.06 8.75 8.75 0 0 0 1.52-4.07 4.92 4.92 0 0 0 -.43-2.57 5.36 5.36 0 0 0 -2.59-2.31 25.72 25.72 0 0 0 -3.34-1.13 27.93 27.93 0 0 1 -5.19-2.21 7.58 7.58 0 0 1 -2-1.5 1.75 1.75 0 0 1 -.48-.92.8.8 0 0 1 .45-.86 1.26 1.26 0 0 1 .94.15l2.58 1.17" fill="#ffde00"></path>
  <path d="m453.21 335.14h-8.21v-14.14l2.15-6.65v-5.45h4v5.45l2.14 6.65z" fill="#00ab81"></path>
  <path d="m438.39 335.14h-8.23v-14.19l2.14-6.65v-5.45h4v5.45l2.15 6.65z" fill="#00ab81"></path>
  <path d="m486.06 335.14h-8.23v-14.19l2.17-6.65v-5.45h4v5.45l2.15 6.65z" fill="#00ab81"></path>
  <path d="m471.24 335.14h-8.24v-14.14l2.14-6.65v-5.45h4v5.45l2.14 6.65z" fill="#00ab81"></path>
  <path d="m104.16 479.47h391.67v10.99h-391.67z" fill="#00ab81"></path>
  <path d="m351.1 229.92h8.22v249.55h-8.22z" fill="#00ab81"></path>
  <path d="m104.16 229.92h8.22v249.55h-8.22z" fill="#00ab81"></path>
  <path d="m227.67 114.71h8.22v238.65h-8.22z" fill="#00ab81" transform="matrix(0 1 -1 0 465.81 2.25)"></path>
  <path d="m112.45 402.8h238.65v76.67h-238.65z" fill="#00ab81"></path>
  <path d="m112.45 288.83h238.65v12.88h-238.65z" fill="#00ab81"></path>
  <path d="m112.45 301.43h238.65v12.88h-238.65z" fill="#00ab81"></path>
  <path d="m112.45 314.03h238.65v12.88h-238.65z" fill="#00ab81"></path>
  <path d="m112.45 326.63h238.65v12.88h-238.65z" fill="#00ab81"></path>
  <path d="m112.45 339.23h238.65v12.88h-238.65z" fill="#00ab81"></path>
  <path d="m112.45 351.83h238.65v12.88h-238.65z" fill="#00ab81"></path>
  <path d="m112.45 364.43h238.65v12.88h-238.65z" fill="#00ab81"></path>
  <path d="m112.45 377.03h238.65v12.88h-238.65z" fill="#00ab81"></path>
  <path d="m112.45 389.92h238.65v12.88h-238.65z" fill="#00ab81"></path>
  <path d="m359.32 467h136.52v12.47h-136.52z" fill="#00ab81"></path>
  <path d="m78.35 164.87h443.29v12.07h-443.29z" fill="#00ab81"></path>
  <path d="m338.1 276.23a8.37 8.37 0 0 1 -2.73 2.47 9 9 0 0 1 -5.55.76 25.38 25.38 0 0 1 -5.45-1.65 6.33 6.33 0 0 1 -2.15-1.21 2.4 2.4 0 0 1 -.25-.37h-2.14a5.88 5.88 0 0 1 -2.94 2.24 7.48 7.48 0 0 1 -3.05.24 13.1 13.1 0 0 1 -6.59-2.48h-14.57a1.53 1.53 0 0 1 -.19 1 1.59 1.59 0 0 1 -.89.51 16.67 16.67 0 0 1 -4 .61 19.44 19.44 0 0 1 -6.72-.56 10.28 10.28 0 0 1 -3.14-1.57h-6.83c-1.82 3.18-3.82 6.27-5.87 9.32a.53.53 0 0 1 -.77.25 48 48 0 0 1 -9.35-3.94.57.57 0 0 1 -.22-.19c-.08-.16.05-.35.16-.49.91-1.1 1.9-2.12 2.84-3.19.5-.56.94-1.18 1.41-1.76h-2.64a15.62 15.62 0 0 1 -6.62.45 11.45 11.45 0 0 1 -1.72-.45h-8.58a3.18 3.18 0 0 1 -.06.43 5.25 5.25 0 0 1 -1.64 2.84 5.06 5.06 0 0 1 -3.2 1.11 7 7 0 0 1 -5.45-2.6 7.31 7.31 0 0 1 -1-1.8h-11.7a9.76 9.76 0 0 1 -2.23.09l-.58-.09h-11.64a62.25 62.25 0 0 1 -7.57.89.63.63 0 0 1 -.48-.09.72.72 0 0 1 -.16-.38c0-.14 0-.28-.05-.42h-8.79c-.09.13-.15.27-.25.4a8.83 8.83 0 0 1 -4.83 3.64 7.32 7.32 0 0 1 -6.14-1.49 10.38 10.38 0 0 1 -2.26-2.55h-6.09a4.62 4.62 0 0 1 -2.47 1.89c-1.64.45-3.31-.43-4.56-1.64a.28.28 0 0 1 0 .18.59.59 0 0 1 -.21.26l-4.82 4a.53.53 0 0 1 -.39.18.59.59 0 0 1 -.27-.17l-4.87-4.71h-2.64c.28.61.6 1.21.88 1.83.11.25.21.58 0 .78a.72.72 0 0 1 -.38.16l-8.3 1.79c-.49-1.52-1-3-1.48-4.56h-23.47v12.88h238.65v-12.84z" fill="#00ab81"></path>
  <path d="m175.08 265.38a7.61 7.61 0 0 0 3 5.05.39.39 0 0 0 .21.09.34.34 0 0 0 .23-.16 5.45 5.45 0 0 0 1-2 11.7 11.7 0 0 0 .29-4.71h-4.8a12.92 12.92 0 0 0 .07 1.73z" fill="#00ab81"></path>
  <path d="m170.2 273.42a27.28 27.28 0 0 1 -1.2-6.42c-.11-1.13-.19-2.26-.25-3.39h-.66c0 1.53-.08 3.05-.22 4.57a17.84 17.84 0 0 1 -2 7.34 8.16 8.16 0 0 1 -.68 1h6.49a13.09 13.09 0 0 1 -1.48-3.1z" fill="#00ab81"></path>
  <path d="m228.28 276.51a7.6 7.6 0 0 1 -.61-4.36 11.74 11.74 0 0 1 1.67-4.08.68.68 0 0 0 .15-.47.72.72 0 0 0 -.17-.29c-1.1-1.3-2.31-2.5-3.52-3.69h-7.07c.32.23.65.43 1 .65a8.09 8.09 0 0 1 1.78 1.62 5.12 5.12 0 0 1 .89 3.45 8.15 8.15 0 0 1 -1.16 3.41 7.24 7.24 0 0 1 -3.34 3.16 7.74 7.74 0 0 1 -3.58.41 16 16 0 0 1 -9.2-3.88 5.47 5.47 0 0 1 -2-2.94 68.35 68.35 0 0 0 6.21-4.61 10.22 10.22 0 0 0 1.81 2.59 3.74 3.74 0 0 0 2.85 1.14 1.3 1.3 0 0 0 1.11-.63 1.52 1.52 0 0 0 -.47-1.56 11.5 11.5 0 0 0 -4.48-2.81h-8.67l2.15 12.38c-1.1.22-2.2.38-3.31.54z" fill="#00ab81"></path>
  <path d="m232 271.72a1.76 1.76 0 0 0 .44 2 .91.91 0 0 0 .61.19 1.23 1.23 0 0 0 .71-.33 2.07 2.07 0 0 0 .74-1.18c.07-.46 0-1.35-.38-1.57l-.71-.9a4.93 4.93 0 0 0 -1.41 1.79z" fill="#00ab81"></path>
  <path d="m193.28 271.57c-.41-2.68-1.3-5.28-1.78-7.95h-4c.08.95.13 1.89.13 2.83a20.23 20.23 0 0 1 -.67 5.81 14.54 14.54 0 0 1 -2.1 4.25h9c-.27-1.64-.34-3.3-.58-4.94z" fill="#00ab81"></path>
  <path d="m255.46 276.51h3.45c.45-.55.89-1.1 1.33-1.66a20.84 20.84 0 0 1 -4.78 1.66z" fill="#00ab81"></path>
  <path d="m161 268.29a1.46 1.46 0 0 0 1.86-.52 3.76 3.76 0 0 0 .52-2c0-.7 0-1.4 0-2.11h-4.09a18.66 18.66 0 0 0 1.05 3.68 2.07 2.07 0 0 0 .66.95z" fill="#00ab81"></path>
  <path d="m142.89 271.41c.87 1.68 1.66 3.39 2.44 5.1h2.84z" fill="#00ab81"></path>
  <path d="m147.32 264.21a1.85 1.85 0 0 0 .56.78c3.23 3.1 6.28 6.4 9.19 9.81a21.33 21.33 0 0 1 -3-7.82q-.34-1.67-.54-3.36h-6.24a1.18 1.18 0 0 0 .03.59z" fill="#00ab81"></path>
  <path d="m325.48 267.82a52.25 52.25 0 0 1 -4.62-3.76c-.12-.12-.23-.27-.34-.4a1 1 0 0 1 -.2.4 2 2 0 0 1 -1.17.53q-5 1-10 1.84l-.83.62a4.89 4.89 0 0 0 3 3.32 2.58 2.58 0 0 0 1.62.13 1.37 1.37 0 0 0 1-1.16c0-.19 0-.43.15-.54a.5.5 0 0 1 .29-.07 63 63 0 0 1 6.59 0 13.53 13.53 0 0 1 .27 2.11.58.58 0 0 1 .24-.35.88.88 0 0 1 .43-.09l3.49-.09a.88.88 0 0 1 .51.08c.25.16.27.51.31.8a2.53 2.53 0 0 0 2.45 2.07.6.6 0 0 0 .47-.16.71.71 0 0 0 0-.72 11.19 11.19 0 0 0 -3.66-4.56z" fill="#00ab81"></path>
  <path d="m319.62 276.51h2.54a4.23 4.23 0 0 1 -1.07-2.47c0-.2 0-.41 0-.62a9.34 9.34 0 0 1 -.27 1 7.14 7.14 0 0 1 -1.2 2.09z" fill="#00ab81"></path>
  <path d="m131.84 263.62h-19.39v12.89h23.55q-2.07-6.45-4.16-12.89z" fill="#00ab81"></path>
  <path d="m329.11 263.62a27.53 27.53 0 0 0 4.62 1.94 25.72 25.72 0 0 1 3.34 1.13 5.36 5.36 0 0 1 2.59 2.31 4.92 4.92 0 0 1 .43 2.57 8.75 8.75 0 0 1 -1.52 4.07c-.2.31-.47.58-.7.87h13.23v-12.89z" fill="#00ab81"></path>
  <path d="m301 267.08a.55.55 0 0 0 .35.21c.55.18 1.13.26 1.7.39l-.09-2c0-.67-.07-1.34-.08-2h-1.65c-.1 1-.2 2.05-.29 3.07a.58.58 0 0 0 .06.33z" fill="#00ab81"></path>
  <path d="m275.61 273.83a10.16 10.16 0 0 1 -1.09-4.16c0-.13 0-.26 0-.4-.77 1.65-1.54 3.3-2.39 4.9-.42.8-.91 1.56-1.36 2.34h7.42a7.87 7.87 0 0 1 -2.58-2.68z" fill="#00ab81"></path>
  <path d="m249.18 276.51a8.31 8.31 0 0 1 -2.32-.86 9.4 9.4 0 0 1 -2.32-2.13 16.15 16.15 0 0 1 -3.54-9.41c0-.16 0-.32 0-.49h-2.2a19.63 19.63 0 0 0 -1.74 3.06.66.66 0 0 0 -.08.41c0 .18.2.3.34.41 1.72 1.32 2.25 3.68 2.38 5.84a11.23 11.23 0 0 1 -.17 3.17z" fill="#00ab81"></path>
  <path d="m250.37 265.46a4 4 0 0 0 1.6.48 7 7 0 0 0 3-.08 3.12 3.12 0 0 0 2.16-1.89q2.94 3.48 5.9 6.94c.49-.78 1-1.53 1.49-2.33a.77.77 0 0 0 .14-.4c0-.25-.23-.43-.44-.57-1.83-1.25-3.6-2.59-5.32-4h-9.11a1.85 1.85 0 0 0 -.18.44 1.59 1.59 0 0 0 .76 1.41z" fill="#00ab81"></path>
  <path d="m306.77 275.83c-2.86-.39-5.72-.83-8.56-1.39a9.92 9.92 0 0 1 -2.46-.71.79.79 0 0 1 -.33-.23 1 1 0 0 1 -.1-.47q-.09-4.69-.2-9.41h-8.59c-.07.15-.2.26-.24.41a5.48 5.48 0 0 0 -.07 2 1.43 1.43 0 0 0 1.56 1.65 3.77 3.77 0 0 0 2.68-.37.39.39 0 0 1 .27-.13c.12 0 .21.12.27.22a11.6 11.6 0 0 1 1.31 5.11l.36 3.5v.52h14.93c-.29-.22-.55-.47-.83-.7z" fill="#00ab81"></path>
  <path d="m178.77 260a8 8 0 0 0 -1-2.41 1.15 1.15 0 0 0 -.39-.48.91.91 0 0 0 -.82 0c-.83.37-1.1 1.39-1.26 2.28a22.15 22.15 0 0 0 -.39 4.52h4.85a11.66 11.66 0 0 0 -1-3.64z" fill="#00ab81"></path>
  <path d="m203.13 259.1a7 7 0 0 1 -.78-3.13l-1.89.17a.29.29 0 0 0 -.23.1.32.32 0 0 0 0 .22c.44 2.48.87 5 1.31 7.45h9.27c-.71-.31-1.42-.59-2.12-.87-2.17-.85-4.42-1.94-5.56-3.94z" fill="#00ab81"></path>
  <path d="m143.4 259.65a2.14 2.14 0 0 0 .14-1 1.66 1.66 0 0 0 -.9-1.14 3.56 3.56 0 0 0 -1.44-.36 9.45 9.45 0 0 0 -3.74.47c.83 2 2.15 3.52 3.17 5.4a6.15 6.15 0 0 0 2.77-3.37z" fill="#00ab81"></path>
  <path d="m153.4 260.59a28.85 28.85 0 0 1 .5-4.34 16.39 16.39 0 0 1 1.7-5.23h-8.23a9.16 9.16 0 0 1 .81 2.45 18.14 18.14 0 0 1 -.7 9.63 2.79 2.79 0 0 0 -.17.81h6.28a24.64 24.64 0 0 1 -.19-3.32z" fill="#00ab81"></path>
  <path d="m161.82 257.23a1.33 1.33 0 0 0 -1.86.28 5.08 5.08 0 0 0 -1 3.95 17.06 17.06 0 0 0 .37 2.45h4a17.65 17.65 0 0 0 -1.26-6.08z" fill="#00ab81"></path>
  <path d="m314.17 261.65a2.9 2.9 0 0 0 -2.28-1.81 2 2 0 0 0 -1.38.26 3.22 3.22 0 0 0 -1.08 1.78l-.33 1.19a49.69 49.69 0 0 1 5-1.19h.11s-.02-.17-.04-.23z" fill="#00ab81"></path>
  <path d="m224.64 262.41a1.77 1.77 0 0 1 -.52-.67 1.6 1.6 0 0 1 .4-1.31 20.68 20.68 0 0 1 3.81-4.17l.21.75 5.34 4.84a26.43 26.43 0 0 1 4.2-6 36.25 36.25 0 0 0 3.64 2.88 15.93 15.93 0 0 1 2-4.31 9.17 9.17 0 0 1 2.9-2.88 7.41 7.41 0 0 1 1.38-.54h-27.5a.61.61 0 0 1 .11.36.81.81 0 0 1 -.24.42 42 42 0 0 1 -6.12 5.72h-.71a4.34 4.34 0 0 0 -1.67-.59 1.08 1.08 0 0 0 -.9.19.74.74 0 0 0 -.21.41c-.19.91.76 1.6 1.57 2.05a68.57 68.57 0 0 1 6.83 4.35h6.92c-.5-.49-.93-1.03-1.44-1.5z" fill="#00ab81"></path>
  <path d="m320.52 263.66a1.92 1.92 0 0 1 -.12.25h.33c-.08-.08-.14-.17-.21-.25z" fill="#00ab81"></path>
  <path d="m303 251h.76a47.66 47.66 0 0 0 -2.61 12.84h1.68a8.85 8.85 0 0 1 .43-3.48 8.4 8.4 0 0 1 2.37-3.09 8.54 8.54 0 0 1 3.16-1.9 9.63 9.63 0 0 1 3-.26 9.5 9.5 0 0 1 4.19.92 6.81 6.81 0 0 1 2.36 2.26 7.73 7.73 0 0 1 1-3.3 7.51 7.51 0 0 1 4-3.53 9.76 9.76 0 0 1 2.64-.34 16.13 16.13 0 0 1 4.7.48 15.86 15.86 0 0 1 4.72 2.37 29.71 29.71 0 0 1 3.35 2.67l-8.38 4.22-.5.46-2.58-1.17a1.26 1.26 0 0 0 -.94-.15.8.8 0 0 0 -.45.86 1.68 1.68 0 0 0 .48.92 7.58 7.58 0 0 0 2 1.5c.37.2.77.37 1.15.56h21.57v-12.84z" fill="#00ab81"></path>
  <path d="m294.85 251h-31.47c-.55.58-1.08 1.16-1.54 1.74h.35a76.8 76.8 0 0 0 5.81 6.92 25 25 0 0 1 3.79-5.75.67.67 0 0 1 .42-.27.61.61 0 0 1 .35.13l6 3.62a15.81 15.81 0 0 1 2.14-2.55c2.59-2.38 6.16-3.44 9.67-3.76h.56l.75 8.93a.61.61 0 0 1 0 .36.6.6 0 0 1 -.34.24 27.68 27.68 0 0 0 -2.94 1.17 4.06 4.06 0 0 0 -2 2.16h8.77q-.17-6.48-.32-12.94z" fill="#00ab81"></path>
  <path d="m129.41 256.18-.07-.36c0 .11.08.22.11.33l6.78-5.16h-23.78v12.89h19.48z" fill="#00ab81"></path>
  <path d="m256.28 261.25a.7.7 0 0 1 .07-.4 8.76 8.76 0 0 0 -5.87 1.87 2.17 2.17 0 0 0 -.84 1.19h9.57c-.84-.67-1.68-1.33-2.48-2a1.08 1.08 0 0 1 -.45-.66z" fill="#00ab81"></path>
  <path d="m184.21 253.2c-.27-.71-.45-1.45-.66-2.18h-1a16.57 16.57 0 0 1 1.66 2.18z" fill="#00ab81"></path>
  <path d="m168.77 263.91a55.32 55.32 0 0 1 .38-10.84h.79a10.81 10.81 0 0 1 1-2h-5.94a15.28 15.28 0 0 1 2.49 4h-.29a11.82 11.82 0 0 1 .83 4.61c.05 1.44.07 2.89.05 4.34z" fill="#00ab81"></path>
  <path d="m191.23 261.83a31.43 31.43 0 0 0 -.34-3.77.48.48 0 0 0 -.63-.45l-2.74.22a1.44 1.44 0 0 1 -.94-.13 1.38 1.38 0 0 1 -.39-.47.08.08 0 0 0 0 0 26.46 26.46 0 0 1 1.35 6.72h4a18.33 18.33 0 0 1 -.31-2.12z" fill="#00ab81"></path>
  <path d="m241.27 260.7a18.68 18.68 0 0 0 -2.66 3.21h2.39a15.69 15.69 0 0 1 .27-3.21z" fill="#00ab81"></path>
  <path d="m112.45 238.14v12.86h23.74l.12-.09a12.29 12.29 0 0 1 2.74-1.73 9.68 9.68 0 0 1 3.24-.6 6.24 6.24 0 0 1 3.37.57 4.43 4.43 0 0 1 1.71 1.85h8.23c.16-.26.29-.53.47-.78a4.78 4.78 0 0 1 2.12-1.76 4.26 4.26 0 0 1 1.55-.23 7.27 7.27 0 0 1 4.83 2.21c.17.17.28.38.44.56h5.92a8.31 8.31 0 0 1 1.7-2 6 6 0 0 1 4.54-1.4 7.6 7.6 0 0 1 3.56 1.67 15.75 15.75 0 0 1 1.84 1.72h1c-.18-.59-.42-1.17-.55-1.78l.26-.27a113.66 113.66 0 0 1 21.21-4.46c.14 1.44.38 2.86.62 4.28a8.83 8.83 0 0 1 2.52-1.92c2.23-1 4.84-.45 7.17.33s4.47 1.73 5.67 3.71v.11h27.53a15 15 0 0 1 2.83-.69 42.87 42.87 0 0 1 13 .16c-.18.18-.31.36-.48.53h31.47c0-.3 0-.6 0-.9l.86.49 7.32.42h48.1v-12.86z" fill="#00ab81"></path>
  <rect fill="#fb715d" height="37.35" rx="1.45" width="30.82" x="374.73" y="425.23"></rect>
  <rect fill="#fb715d" height="4.42" rx=".59" width="30.82" x="374.73" y="462.58"></rect>
  <rect fill="#fb715d" height="4.42" rx=".59" width="30.82" x="374.73" y="420.81"></rect>
  <path d="m374.73 430.69v26.44a5.44 5.44 0 0 1 -5.44 5.43h-10v-37.35h10a5.45 5.45 0 0 1 5.44 5.48z" fill="#fb715d"></path>
  <path d="m374.73 464.78a2.22 2.22 0 0 1 -2.21 2.21h-13.2v-4.43h13.2a2.25 2.25 0 0 1 2.21 2.22z" fill="#fb715d"></path>
  <path d="m374.73 423a2.2 2.2 0 0 1 -2.21 2.17h-13.2v-4.38h13.2a2.21 2.21 0 0 1 2.21 2.21z" fill="#fb715d"></path>
  <path d="m435.35 379.35a.44.44 0 0 1 .33.48v2.37c0 .27-.16.48-.37.48h-.1a1.74 1.74 0 0 0 .33.65 5.35 5.35 0 0 0 1 .88 5.09 5.09 0 0 1 1.18 1.11 3.53 3.53 0 0 1 .62 2v11.08a1.92 1.92 0 0 1 -1.64 2.1h-8.7a1.92 1.92 0 0 1 -1.63-2.1v-11.06a3.38 3.38 0 0 1 .61-2 5.32 5.32 0 0 1 1.17-1.12 5.71 5.71 0 0 0 1-.89 1.64 1.64 0 0 0 .33-.66h-.12a.44.44 0 0 1 -.38-.48v-2.36a.58.58 0 0 1 .11-.35.35.35 0 0 1 .27-.14h6z" fill="#fb715d" fill-rule="evenodd"></path>
  <path d="m454.48 379.35a.46.46 0 0 1 .34.48v2.37a.44.44 0 0 1 -.38.48h-.1a1.76 1.76 0 0 0 .34.65 5 5 0 0 0 1 .88 5.09 5.09 0 0 1 1.18 1.11 3.46 3.46 0 0 1 .62 2v11.08a1.92 1.92 0 0 1 -1.64 2.1h-8.73a1.92 1.92 0 0 1 -1.63-2.1v-11.06a3.38 3.38 0 0 1 .61-2 5.15 5.15 0 0 1 1.18-1.12 6 6 0 0 0 1-.89 1.64 1.64 0 0 0 .33-.66h-.12a.44.44 0 0 1 -.38-.48v-2.36a.58.58 0 0 1 .1-.35.35.35 0 0 1 .27-.14h6z" fill="#fb715d" fill-rule="evenodd"></path>
  <path d="m478.46 346.19a.46.46 0 0 1 .34.48v2.33a.44.44 0 0 1 -.38.48h-.1a1.56 1.56 0 0 0 .34.65 5 5 0 0 0 1 .88 5.09 5.09 0 0 1 1.18 1.11 3.48 3.48 0 0 1 .62 2v11.07a1.92 1.92 0 0 1 -1.64 2.1h-8.72a1.92 1.92 0 0 1 -1.63-2.1v-11.01a3.38 3.38 0 0 1 .61-2 5.15 5.15 0 0 1 1.18-1.12 5.57 5.57 0 0 0 1-.89 1.58 1.58 0 0 0 .33-.66h-.12a.44.44 0 0 1 -.38-.48v-2.36a.53.53 0 0 1 .1-.35.35.35 0 0 1 .27-.14h6z" fill="#fb715d" fill-rule="evenodd"></path>
  <path d="m78.35 298.21h25.81v34.1h-25.81z" fill="#fb715d"></path>
  <path d="m78.35 229.92h25.81v34.1h-25.81z" fill="#fb715d"></path>
  <path d="m78.35 366.41h25.81v34.1h-25.81z" fill="#fb715d"></path>
  <path d="m112.45 212.26h34.1v17.66h-34.1z" fill="#fb715d"></path>
  <path d="m180.65 212.26h34.1v17.66h-34.1z" fill="#fb715d"></path>
  <path d="m248.85 212.26h34.1v17.66h-34.1z" fill="#fb715d"></path>
  <path d="m317.05 212.26h34.1v17.66h-34.1z" fill="#fb715d"></path>
  <path d="m385.25 212.26h34.1v17.66h-34.1z" fill="#fb715d"></path>
  <path d="m453.45 212.26h34.1v17.66h-34.1z" fill="#fb715d"></path>
  <path d="m112.45 176.94h34.1v17.66h-34.1z" fill="#fb715d"></path>
  <path d="m180.65 176.94h34.1v17.66h-34.1z" fill="#fb715d"></path>
  <path d="m248.85 176.94h34.1v17.66h-34.1z" fill="#fb715d"></path>
  <path d="m317.05 176.94h34.1v17.66h-34.1z" fill="#fb715d"></path>
  <path d="m385.25 176.94h34.1v17.66h-34.1z" fill="#fb715d"></path>
  <path d="m453.45 176.94h34.1v17.66h-34.1z" fill="#fb715d"></path>
  <path d="m95.4 194.6h34.1v17.66h-34.1z" fill="#fb715d"></path>
  <path d="m163.6 194.6h34.1v17.66h-34.1z" fill="#fb715d"></path>
  <path d="m231.8 194.6h34.1v17.66h-34.1z" fill="#fb715d"></path>
  <path d="m300 194.6h34.1v17.66h-34.1z" fill="#fb715d"></path>
  <path d="m368.2 194.6h34.1v17.66h-34.1z" fill="#fb715d"></path>
  <path d="m436.4 194.6h34.1v17.66h-34.1z" fill="#fb715d"></path>
  <path d="m504.6 194.6h17.05v17.66h-17.05z" fill="#fb715d"></path>
  <path d="m495.84 298.21h25.81v34.1h-25.81z" fill="#fb715d"></path>
  <path d="m495.84 229.92h25.81v34.1h-25.81z" fill="#fb715d"></path>
  <path d="m495.84 366.41h25.81v34.1h-25.81z" fill="#fb715d"></path>
  <g fill="#1c19a8">
    <path d="m400.1 464h-19.93a6.85 6.85 0 0 1 -6.85-6.85v-26.48a6.85 6.85 0 0 1 6.85-6.84h19.93a6.85 6.85 0 0 1 6.85 6.84v26.47a6.85 6.85 0 0 1 -6.85 6.86zm-19.93-37.35a4 4 0 0 0 -4 4v26.47a4 4 0 0 0 4 4h19.93a4 4 0 0 0 4-4v-26.45a4 4 0 0 0 -4-4z"></path>
    <path d="m403.34 468.41h-26.4a3.62 3.62 0 1 1 0-7.23h26.4a3.62 3.62 0 0 1 0 7.23zm-26.4-4.41a.8.8 0 0 0 -.81.8.81.81 0 0 0 .81.81h26.4a.81.81 0 0 0 .8-.81.8.8 0 0 0 -.8-.8z"></path>
    <path d="m403.34 426.64h-26.4a3.62 3.62 0 1 1 0-7.23h26.4a3.62 3.62 0 0 1 0 7.23zm-26.4-4.42a.8.8 0 0 0 -.81.8.81.81 0 0 0 .81.81h26.4a.81.81 0 0 0 .8-.81.8.8 0 0 0 -.8-.8z"></path>
    <path d="m369.29 464h-10a1.41 1.41 0 0 1 -1.41-1.41v-37.38a1.41 1.41 0 0 1 1.41-1.4h10a6.87 6.87 0 0 1 6.85 6.88v26.44a6.85 6.85 0 0 1 -6.85 6.87zm-8.57-2.81h8.57a4 4 0 0 0 4-4v-26.5a4 4 0 0 0 -4-4.07h-8.57z"></path>
    <path d="m372.52 468.4h-13.2a1.41 1.41 0 0 1 -1.41-1.41v-4.43a1.41 1.41 0 0 1 1.41-1.4h13.2a3.62 3.62 0 1 1 0 7.24zm-11.8-2.82h11.8a.82.82 0 0 0 .8-.8.83.83 0 0 0 -.8-.81h-11.8z"></path>
    <path d="m372.52 426.62h-13.2a1.41 1.41 0 0 1 -1.41-1.41v-4.38a1.41 1.41 0 0 1 1.41-1.41h13.2a3.6 3.6 0 1 1 0 7.2zm-11.8-2.81h11.8a.79.79 0 1 0 0-1.58h-11.8z"></path>
    <path d="m436.72 401.9h-8.72a3.31 3.31 0 0 1 -3-3.51v-11.05a4.88 4.88 0 0 1 .87-2.81 7 7 0 0 1 1.45-1.41l.4-.31a2 2 0 0 1 -.09-.61v-2.35a2 2 0 0 1 .39-1.21 2.15 2.15 0 0 1 1.39-.7h6.2a1.85 1.85 0 0 1 1.55 1.9v2.35a2.2 2.2 0 0 1 -.08.58q.19.17.39.3a6.7 6.7 0 0 1 1.48 1.42 4.86 4.86 0 0 1 .88 2.78v11.11a3.31 3.31 0 0 1 -3.11 3.52zm-6.34-20.24.14.15a1.41 1.41 0 0 1 .33 1.19 2.93 2.93 0 0 1 -.6 1.21 6.42 6.42 0 0 1 -1.22 1.11 4.22 4.22 0 0 0 -.92.84 2.12 2.12 0 0 0 -.35 1.19v11a.84.84 0 0 0 .28.7h8.68a1 1 0 0 0 .23-.69v-11.05a2 2 0 0 0 -.36-1.16 3.61 3.61 0 0 0 -.85-.79 7.11 7.11 0 0 1 -1.3-1.16 3.08 3.08 0 0 1 -.6-1.18 1.45 1.45 0 0 1 .26-1.21l.18-.18v-.87h-3.9z"></path>
    <path d="m455.85 401.9h-8.73a3.31 3.31 0 0 1 -3-3.51v-11.05a4.86 4.86 0 0 1 .88-2.81 6.41 6.41 0 0 1 1.46-1.42c.14-.11.27-.2.38-.3a2 2 0 0 1 -.09-.61v-2.35a2 2 0 0 1 .39-1.21 2.15 2.15 0 0 1 1.39-.7h6.2a1.86 1.86 0 0 1 1.55 1.88v2.37a2.2 2.2 0 0 1 -.08.58c.12.11.26.21.39.31a6.52 6.52 0 0 1 1.48 1.4 4.84 4.84 0 0 1 .88 2.79v11.11a3.31 3.31 0 0 1 -3.1 3.52zm-6.33-20.24.14.15a1.49 1.49 0 0 1 .34 1.19 3 3 0 0 1 -.6 1.19 6.48 6.48 0 0 1 -1.19 1.09 4.51 4.51 0 0 0 -.95.86 2.05 2.05 0 0 0 -.34 1.19v11a.84.84 0 0 0 .27.7h8.68a1 1 0 0 0 .23-.69v-11.03a2.07 2.07 0 0 0 -.35-1.17 3.86 3.86 0 0 0 -.89-.8 6.83 6.83 0 0 1 -1.27-1.14 3.11 3.11 0 0 1 -.59-1.2 1.41 1.41 0 0 1 .25-1.22 1.62 1.62 0 0 1 .18-.19v-.87h-3.9z"></path>
    <path d="m479.83 368.74h-8.73a3.31 3.31 0 0 1 -3-3.51v-11.05a5 5 0 0 1 .87-2.81 6.86 6.86 0 0 1 1.43-1.37l.38-.29a2.11 2.11 0 0 1 -.09-.62v-2.35a1.94 1.94 0 0 1 .38-1.19 2.11 2.11 0 0 1 1.4-.72h6 .26a1.84 1.84 0 0 1 1.52 1.87v2.3a2.2 2.2 0 0 1 -.08.58l.38.3a6.56 6.56 0 0 1 1.49 1.41 4.92 4.92 0 0 1 .88 2.79v11.11a3.31 3.31 0 0 1 -3.09 3.55zm-6.33-20.24.14.15a1.46 1.46 0 0 1 .32 1.2 3 3 0 0 1 -.59 1.19 6.21 6.21 0 0 1 -1.23 1.12 4.23 4.23 0 0 0 -.92.85 2 2 0 0 0 -.34 1.18v11a.86.86 0 0 0 .27.7h8.68a1 1 0 0 0 .23-.69v-11.05a2.07 2.07 0 0 0 -.35-1.17 4.24 4.24 0 0 0 -.88-.8 6.88 6.88 0 0 1 -1.27-1.12 3.11 3.11 0 0 1 -.61-1.2 1.45 1.45 0 0 1 .26-1.21c.06-.06.12-.13.18-.18v-.87h-3.9z"></path>
    <path d="m455.1 369.22h-26.1a1.41 1.41 0 0 1 -1.41-1.4v-17.53a1.41 1.41 0 0 1 1.41-1.41h26.1a1.41 1.41 0 0 1 1.41 1.41v17.53a1.41 1.41 0 0 1 -1.41 1.4zm-24.72-2.81h23.32v-14.71h-23.32z"></path>
    <path d="m455.1 434.57h-26.1a1.41 1.41 0 0 1 -1.41-1.41v-17.52a1.41 1.41 0 0 1 1.41-1.41h26.1a1.41 1.41 0 0 1 1.41 1.41v17.52a1.41 1.41 0 0 1 -1.41 1.41zm-24.72-2.81h23.32v-14.76h-23.32z"></path>
    <path d="m488.53 434.57h-26.13a1.41 1.41 0 0 1 -1.4-1.41v-17.52a1.41 1.41 0 0 1 1.4-1.41h26.13a1.41 1.41 0 0 1 1.41 1.41v17.52a1.41 1.41 0 0 1 -1.41 1.41zm-24.72-2.81h23.32v-14.76h-23.32z"></path>
    <path d="m417.91 335.14h2.81v133.51h-2.81z"></path>
    <path d="m419.32 433.17h76.51v4.65h-76.51z" transform="matrix(-1 0 0 -1 915.16 870.99)"></path>
    <path d="m497.24 439.22h-79.33v-7.46h79.33zm-76.51-2.81h73.7v-1.84h-73.7z"></path>
    <path d="m419.32 400.49h76.51v4.65h-76.51z" transform="matrix(-1 0 0 -1 915.16 805.64)"></path>
    <path d="m497.24 406.55h-79.33v-7.47h79.33zm-76.51-2.81h73.7v-1.84h-73.7z"></path>
    <path d="m419.32 367.82h76.51v4.65h-76.51z" transform="matrix(-1 0 0 -1 915.16 740.29)"></path>
    <path d="m497.24 373.88h-79.33v-7.47h79.33zm-76.51-2.81h73.7v-1.85h-73.7z"></path>
    <path d="m419.32 335.14h76.51v4.65h-76.51z" transform="matrix(-1 0 0 -1 915.16 674.94)"></path>
    <path d="m497.24 341.2h-79.33v-7.46h79.33zm-76.51-2.81h73.7v-1.84h-73.7z"></path>
    <path d="m453.21 336.55h-8.21a1.41 1.41 0 0 1 -1.41-1.41v-14.19a1.25 1.25 0 0 1 .07-.43l2.08-6.44v-5.23a1.42 1.42 0 0 1 1.4-1.41h4a1.38 1.38 0 0 1 1 .42 1.41 1.41 0 0 1 .41 1v5.23l2.08 6.44a1.25 1.25 0 0 1 .07.43v14.19a1.41 1.41 0 0 1 -1.49 1.4zm-6.83-2.82h5.43v-12.56l-2.08-6.44a1.25 1.25 0 0 1 -.07-.43v-4h-1.16v4a1.25 1.25 0 0 1 -.07.43l-2.08 6.44z"></path>
    <path d="m438.39 336.55h-8.23a1.41 1.41 0 0 1 -1.41-1.41v-14.19a1.25 1.25 0 0 1 .07-.43l2.08-6.44v-5.23a1.41 1.41 0 0 1 .41-1 1.38 1.38 0 0 1 1-.42h4a1.42 1.42 0 0 1 1.4 1.41v5.23l2.07 6.44a1.25 1.25 0 0 1 .07.43v14.19a1.41 1.41 0 0 1 -1.46 1.42zm-6.83-2.82h5.44v-12.56l-2.08-6.44a1.25 1.25 0 0 1 -.07-.43v-4h-1.18v4a1.25 1.25 0 0 1 -.07.43l-2.08 6.44z"></path>
    <path d="m486.06 336.55h-8.23a1.41 1.41 0 0 1 -1.41-1.41v-14.19a1.54 1.54 0 0 1 .06-.43l2.08-6.44v-5.23a1.42 1.42 0 0 1 1.4-1.41h4a1.42 1.42 0 0 1 1.41 1.41v5.23l2.08 6.44a1.25 1.25 0 0 1 .07.43v14.19a1.41 1.41 0 0 1 -1.46 1.41zm-6.83-2.82h5.42v-12.56l-2.07-6.44a1.25 1.25 0 0 1 -.07-.43v-4h-1.18v4a1.54 1.54 0 0 1 -.06.43l-2.08 6.44z"></path>
    <path d="m471.24 336.55h-8.24a1.41 1.41 0 0 1 -1.41-1.41v-14.19a1.25 1.25 0 0 1 .07-.43l2.08-6.44v-5.23a1.41 1.41 0 0 1 .41-1 1.38 1.38 0 0 1 1-.42h4a1.42 1.42 0 0 1 1.4 1.41v5.23l2.08 6.44a1.25 1.25 0 0 1 .07.43v14.19a1.41 1.41 0 0 1 -1.46 1.42zm-6.83-2.82h5.43v-12.56l-2.08-6.44a1.25 1.25 0 0 1 -.07-.43v-4h-1.18v4a1.25 1.25 0 0 1 -.07.43l-2.08 6.44z"></path>
    <path d="m104.16 333.72h-25.81a1.41 1.41 0 0 1 -1.4-1.41v-34.1a1.4 1.4 0 0 1 1.4-1.4h25.81a1.41 1.41 0 0 1 1.41 1.4v34.1a1.41 1.41 0 0 1 -1.41 1.41zm-24.4-2.81h23v-31.29h-23z"></path>
    <path d="m104.16 367.82h-25.81a1.41 1.41 0 0 1 -1.4-1.41v-34.1a1.4 1.4 0 0 1 1.4-1.4h25.81a1.41 1.41 0 0 1 1.41 1.4v34.1a1.41 1.41 0 0 1 -1.41 1.41zm-24.4-2.82h23v-31.28h-23z"></path>
    <path d="m104.16 265.43h-25.81a1.41 1.41 0 0 1 -1.35-1.43v-34.1a1.4 1.4 0 0 1 1.4-1.4h25.81a1.41 1.41 0 0 1 1.41 1.4v34.1a1.41 1.41 0 0 1 -1.46 1.43zm-24.4-2.81h23v-31.29h-23z"></path>
    <path d="m104.16 299.53h-25.81a1.41 1.41 0 0 1 -1.4-1.41v-34.12a1.4 1.4 0 0 1 1.4-1.4h25.81a1.41 1.41 0 0 1 1.41 1.4v34.1a1.41 1.41 0 0 1 -1.41 1.43zm-24.4-2.81h23v-31.29h-23z"></path>
    <path d="m104.16 401.92h-25.81a1.41 1.41 0 0 1 -1.4-1.41v-34.1a1.41 1.41 0 0 1 1.4-1.41h25.81a1.41 1.41 0 0 1 1.41 1.41v34.1a1.41 1.41 0 0 1 -1.41 1.41zm-24.4-2.81h23v-31.29h-23z"></path>
    <path d="m495.84 491.86h-391.68a1.4 1.4 0 0 1 -1.4-1.4v-11a1.4 1.4 0 0 1 1.4-1.4h391.68a1.4 1.4 0 0 1 1.4 1.4v11a1.4 1.4 0 0 1 -1.4 1.4zm-390.27-2.81h388.86v-8.17h-388.86z"></path>
    <path d="m359.32 480.88h-8.22a1.41 1.41 0 0 1 -1.4-1.41v-249.55a1.4 1.4 0 0 1 1.4-1.4h8.22a1.4 1.4 0 0 1 1.4 1.4v249.55a1.41 1.41 0 0 1 -1.4 1.41zm-6.81-2.81h5.4v-246.74h-5.4z"></path>
    <path d="m112.38 480.88h-8.22a1.41 1.41 0 0 1 -1.4-1.41v-249.55a1.4 1.4 0 0 1 1.4-1.4h8.22a1.41 1.41 0 0 1 1.41 1.4v249.55a1.41 1.41 0 0 1 -1.41 1.41zm-6.81-2.81h5.43v-246.74h-5.4z"></path>
    <path d="m351.1 239.54h-238.65a1.4 1.4 0 0 1 -1.4-1.4v-8.22a1.4 1.4 0 0 1 1.4-1.4h238.65a1.41 1.41 0 0 1 1.41 1.4v8.22a1.41 1.41 0 0 1 -1.41 1.4zm-237.24-2.81h235.84v-5.4h-235.84z"></path>
    <path d="m112.45 231.33h-34.1a1.41 1.41 0 0 1 -1.4-1.41v-17.66a1.4 1.4 0 0 1 1.4-1.4h34.1a1.41 1.41 0 0 1 1.41 1.4v17.66a1.41 1.41 0 0 1 -1.41 1.41zm-32.69-2.81h31.29v-14.85h-31.29z"></path>
    <path d="m146.55 231.33h-34.1a1.41 1.41 0 0 1 -1.4-1.41v-17.66a1.4 1.4 0 0 1 1.4-1.4h34.1a1.41 1.41 0 0 1 1.41 1.4v17.66a1.41 1.41 0 0 1 -1.41 1.41zm-32.69-2.81h31.29v-14.85h-31.29z"></path>
    <path d="m180.65 231.33h-34.1a1.41 1.41 0 0 1 -1.4-1.41v-17.66a1.4 1.4 0 0 1 1.4-1.4h34.1a1.41 1.41 0 0 1 1.41 1.4v17.66a1.41 1.41 0 0 1 -1.41 1.41zm-32.65-2.81h31.29v-14.85h-31.29z"></path>
    <path d="m214.75 231.33h-34.1a1.41 1.41 0 0 1 -1.4-1.41v-17.66a1.4 1.4 0 0 1 1.4-1.4h34.1a1.41 1.41 0 0 1 1.41 1.4v17.66a1.41 1.41 0 0 1 -1.41 1.41zm-32.69-2.81h31.29v-14.85h-31.29z"></path>
    <path d="m248.85 231.33h-34.1a1.41 1.41 0 0 1 -1.4-1.41v-17.66a1.4 1.4 0 0 1 1.4-1.4h34.1a1.41 1.41 0 0 1 1.41 1.4v17.66a1.41 1.41 0 0 1 -1.41 1.41zm-32.69-2.81h31.28v-14.85h-31.28z"></path>
    <path d="m283 231.33h-34.1a1.41 1.41 0 0 1 -1.41-1.41v-17.66a1.41 1.41 0 0 1 1.41-1.4h34.1a1.41 1.41 0 0 1 1.41 1.4v17.66a1.41 1.41 0 0 1 -1.41 1.41zm-32.69-2.81h31.28v-14.85h-31.33z"></path>
    <path d="m317.05 231.33h-34.05a1.41 1.41 0 0 1 -1.41-1.41v-17.66a1.41 1.41 0 0 1 1.41-1.4h34.1a1.41 1.41 0 0 1 1.41 1.4v17.66a1.41 1.41 0 0 1 -1.46 1.41zm-32.69-2.81h31.28v-14.85h-31.28z"></path>
    <path d="m351.15 231.33h-34.1a1.41 1.41 0 0 1 -1.41-1.41v-17.66a1.41 1.41 0 0 1 1.41-1.4h34.1a1.41 1.41 0 0 1 1.41 1.4v17.66a1.41 1.41 0 0 1 -1.41 1.41zm-32.69-2.81h31.28v-14.85h-31.28z"></path>
    <path d="m385.25 231.33h-34.1a1.41 1.41 0 0 1 -1.41-1.41v-17.66a1.41 1.41 0 0 1 1.41-1.4h34.1a1.4 1.4 0 0 1 1.4 1.4v17.66a1.41 1.41 0 0 1 -1.4 1.41zm-32.69-2.81h31.28v-14.85h-31.28z"></path>
    <path d="m419.35 231.33h-34.1a1.41 1.41 0 0 1 -1.41-1.41v-17.66a1.41 1.41 0 0 1 1.41-1.4h34.1a1.4 1.4 0 0 1 1.4 1.4v17.66a1.41 1.41 0 0 1 -1.4 1.41zm-32.7-2.81h31.29v-14.85h-31.29z"></path>
    <path d="m453.45 231.33h-34.1a1.41 1.41 0 0 1 -1.41-1.41v-17.66a1.41 1.41 0 0 1 1.41-1.4h34.1a1.4 1.4 0 0 1 1.4 1.4v17.66a1.41 1.41 0 0 1 -1.4 1.41zm-32.7-2.81h31.25v-14.85h-31.25z"></path>
    <path d="m487.55 231.33h-34.1a1.41 1.41 0 0 1 -1.41-1.41v-17.66a1.41 1.41 0 0 1 1.41-1.4h34.1a1.4 1.4 0 0 1 1.4 1.4v17.66a1.41 1.41 0 0 1 -1.4 1.41zm-32.7-2.81h31.29v-14.85h-31.29z"></path>
    <path d="m521.65 231.33h-34.1a1.41 1.41 0 0 1 -1.41-1.41v-17.66a1.41 1.41 0 0 1 1.41-1.4h34.1a1.4 1.4 0 0 1 1.4 1.4v17.66a1.41 1.41 0 0 1 -1.4 1.41zm-32.65-2.81h31.29v-14.85h-31.29z"></path>
    <path d="m112.45 196h-34.1a1.41 1.41 0 0 1 -1.35-1.4v-17.66a1.41 1.41 0 0 1 1.4-1.41h34.1a1.41 1.41 0 0 1 1.41 1.41v17.66a1.41 1.41 0 0 1 -1.46 1.4zm-32.69-2.82h31.29v-14.83h-31.29z"></path>
    <path d="m146.55 196h-34.1a1.41 1.41 0 0 1 -1.4-1.41v-17.65a1.41 1.41 0 0 1 1.4-1.41h34.1a1.41 1.41 0 0 1 1.41 1.41v17.66a1.41 1.41 0 0 1 -1.41 1.4zm-32.69-2.82h31.29v-14.83h-31.29z"></path>
    <path d="m180.65 196h-34.1a1.41 1.41 0 0 1 -1.4-1.41v-17.65a1.41 1.41 0 0 1 1.4-1.41h34.1a1.41 1.41 0 0 1 1.41 1.41v17.66a1.41 1.41 0 0 1 -1.41 1.4zm-32.65-2.81h31.29v-14.84h-31.29z"></path>
    <path d="m214.75 196h-34.1a1.41 1.41 0 0 1 -1.4-1.41v-17.65a1.41 1.41 0 0 1 1.4-1.41h34.1a1.41 1.41 0 0 1 1.41 1.41v17.66a1.41 1.41 0 0 1 -1.41 1.4zm-32.69-2.82h31.29v-14.83h-31.29z"></path>
    <path d="m248.85 196h-34.1a1.41 1.41 0 0 1 -1.4-1.41v-17.65a1.41 1.41 0 0 1 1.4-1.41h34.1a1.41 1.41 0 0 1 1.41 1.41v17.66a1.41 1.41 0 0 1 -1.41 1.4zm-32.69-2.82h31.28v-14.83h-31.28z"></path>
    <path d="m283 196h-34.1a1.41 1.41 0 0 1 -1.41-1.41v-17.65a1.41 1.41 0 0 1 1.41-1.41h34.1a1.41 1.41 0 0 1 1.41 1.41v17.66a1.41 1.41 0 0 1 -1.41 1.4zm-32.69-2.82h31.28v-14.83h-31.33z"></path>
    <path d="m317.05 196h-34.05a1.41 1.41 0 0 1 -1.41-1.41v-17.65a1.41 1.41 0 0 1 1.41-1.41h34.1a1.41 1.41 0 0 1 1.41 1.41v17.66a1.41 1.41 0 0 1 -1.46 1.4zm-32.69-2.82h31.28v-14.83h-31.28z"></path>
    <path d="m351.15 196h-34.1a1.41 1.41 0 0 1 -1.41-1.41v-17.65a1.41 1.41 0 0 1 1.41-1.41h34.1a1.41 1.41 0 0 1 1.41 1.41v17.66a1.41 1.41 0 0 1 -1.41 1.4zm-32.69-2.82h31.28v-14.83h-31.28z"></path>
    <path d="m385.25 196h-34.1a1.41 1.41 0 0 1 -1.41-1.41v-17.65a1.41 1.41 0 0 1 1.41-1.41h34.1a1.41 1.41 0 0 1 1.4 1.41v17.66a1.41 1.41 0 0 1 -1.4 1.4zm-32.69-2.82h31.28v-14.83h-31.28z"></path>
    <path d="m419.35 196h-34.1a1.41 1.41 0 0 1 -1.41-1.41v-17.65a1.41 1.41 0 0 1 1.41-1.41h34.1a1.41 1.41 0 0 1 1.4 1.41v17.66a1.41 1.41 0 0 1 -1.4 1.4zm-32.7-2.82h31.29v-14.83h-31.29z"></path>
    <path d="m453.45 196h-34.1a1.41 1.41 0 0 1 -1.41-1.41v-17.65a1.41 1.41 0 0 1 1.41-1.41h34.1a1.41 1.41 0 0 1 1.4 1.41v17.66a1.41 1.41 0 0 1 -1.4 1.4zm-32.7-2.82h31.25v-14.83h-31.25z"></path>
    <path d="m487.55 196h-34.1a1.41 1.41 0 0 1 -1.45-1.4v-17.66a1.41 1.41 0 0 1 1.41-1.41h34.1a1.41 1.41 0 0 1 1.4 1.41v17.66a1.41 1.41 0 0 1 -1.36 1.4zm-32.7-2.82h31.29v-14.83h-31.29z"></path>
    <path d="m521.65 196h-34.1a1.41 1.41 0 0 1 -1.41-1.41v-17.65a1.41 1.41 0 0 1 1.41-1.41h34.1a1.41 1.41 0 0 1 1.4 1.41v17.66a1.41 1.41 0 0 1 -1.4 1.4zm-32.65-2.81h31.29v-14.84h-31.29z"></path>
    <path d="m95.4 213.67h-17.05a1.41 1.41 0 0 1 -1.4-1.41v-17.66a1.41 1.41 0 0 1 1.4-1.41h17.05a1.41 1.41 0 0 1 1.41 1.41v17.66a1.41 1.41 0 0 1 -1.41 1.41zm-15.64-2.81h14.24v-14.86h-14.24z"></path>
    <path d="m129.5 213.67h-34.1a1.41 1.41 0 0 1 -1.4-1.41v-17.66a1.41 1.41 0 0 1 1.4-1.41h34.1a1.41 1.41 0 0 1 1.41 1.41v17.66a1.41 1.41 0 0 1 -1.41 1.41zm-32.69-2.81h31.29v-14.86h-31.29z"></path>
    <path d="m163.6 213.67h-34.1a1.4 1.4 0 0 1 -1.4-1.41v-17.66a1.4 1.4 0 0 1 1.4-1.41h34.1a1.41 1.41 0 0 1 1.4 1.41v17.66a1.41 1.41 0 0 1 -1.4 1.41zm-32.69-2.81h31.29v-14.86h-31.29z"></path>
    <path d="m197.7 213.67h-34.1a1.41 1.41 0 0 1 -1.4-1.41v-17.66a1.41 1.41 0 0 1 1.4-1.41h34.1a1.41 1.41 0 0 1 1.41 1.41v17.66a1.41 1.41 0 0 1 -1.41 1.41zm-32.7-2.81h31.28v-14.86h-31.28z"></path>
    <path d="m231.8 213.67h-34.1a1.41 1.41 0 0 1 -1.41-1.41v-17.66a1.41 1.41 0 0 1 1.41-1.41h34.1a1.41 1.41 0 0 1 1.41 1.41v17.66a1.41 1.41 0 0 1 -1.41 1.41zm-32.69-2.81h31.29v-14.86h-31.29z"></path>
    <path d="m265.9 213.67h-34.1a1.41 1.41 0 0 1 -1.4-1.41v-17.66a1.41 1.41 0 0 1 1.4-1.41h34.1a1.41 1.41 0 0 1 1.41 1.41v17.66a1.41 1.41 0 0 1 -1.41 1.41zm-32.69-2.81h31.28v-14.86h-31.28z"></path>
    <path d="m300 213.67h-34.1a1.41 1.41 0 0 1 -1.41-1.41v-17.66a1.41 1.41 0 0 1 1.41-1.41h34.1a1.41 1.41 0 0 1 1.4 1.41v17.66a1.41 1.41 0 0 1 -1.4 1.41zm-32.69-2.81h31.28v-14.86h-31.28z"></path>
    <path d="m334.1 213.67h-34.1a1.41 1.41 0 0 1 -1.41-1.41v-17.66a1.41 1.41 0 0 1 1.41-1.41h34.1a1.41 1.41 0 0 1 1.41 1.41v17.66a1.41 1.41 0 0 1 -1.41 1.41zm-32.7-2.81h31.29v-14.86h-31.29z"></path>
    <path d="m368.2 213.67h-34.1a1.41 1.41 0 0 1 -1.41-1.41v-17.66a1.41 1.41 0 0 1 1.41-1.41h34.1a1.41 1.41 0 0 1 1.4 1.41v17.66a1.41 1.41 0 0 1 -1.4 1.41zm-32.69-2.81h31.28v-14.86h-31.28z"></path>
    <path d="m402.3 213.67h-34.1a1.41 1.41 0 0 1 -1.41-1.41v-17.66a1.41 1.41 0 0 1 1.41-1.41h34.1a1.41 1.41 0 0 1 1.41 1.41v17.66a1.41 1.41 0 0 1 -1.41 1.41zm-32.7-2.81h31.29v-14.86h-31.29z"></path>
    <path d="m436.4 213.67h-34.1a1.41 1.41 0 0 1 -1.41-1.41v-17.66a1.41 1.41 0 0 1 1.41-1.41h34.1a1.41 1.41 0 0 1 1.4 1.41v17.66a1.41 1.41 0 0 1 -1.4 1.41zm-32.69-2.81h31.29v-14.86h-31.29z"></path>
    <path d="m470.5 213.67h-34.1a1.41 1.41 0 0 1 -1.41-1.41v-17.66a1.41 1.41 0 0 1 1.41-1.41h34.1a1.4 1.4 0 0 1 1.4 1.41v17.66a1.4 1.4 0 0 1 -1.4 1.41zm-32.7-2.81h31.29v-14.86h-31.29z"></path>
    <path d="m521.65 213.67h-17a1.41 1.41 0 0 1 -1.41-1.41v-17.66a1.41 1.41 0 0 1 1.41-1.41h17a1.41 1.41 0 0 1 1.4 1.41v17.66a1.41 1.41 0 0 1 -1.4 1.41zm-15.65-2.81h14.24v-14.86h-14.24z"></path>
    <path d="m504.6 213.67h-34.1a1.41 1.41 0 0 1 -1.41-1.41v-17.66a1.41 1.41 0 0 1 1.41-1.41h34.1a1.41 1.41 0 0 1 1.4 1.41v17.66a1.41 1.41 0 0 1 -1.4 1.41zm-32.7-2.81h31.29v-14.86h-31.29z"></path>
    <path d="m104.16 491.86h-25.81a1.4 1.4 0 0 1 -1.4-1.4v-89.95a1.4 1.4 0 0 1 1.4-1.4h25.81a1.41 1.41 0 0 1 1.41 1.4v89.95a1.41 1.41 0 0 1 -1.41 1.4zm-24.4-2.81h23v-87.13h-23z"></path>
    <path d="m521.65 333.72h-25.81a1.41 1.41 0 0 1 -1.41-1.41v-34.1a1.41 1.41 0 0 1 1.41-1.4h25.81a1.4 1.4 0 0 1 1.4 1.4v34.1a1.41 1.41 0 0 1 -1.4 1.41zm-24.41-2.81h23v-31.29h-23z"></path>
    <path d="m521.65 367.82h-25.81a1.41 1.41 0 0 1 -1.41-1.41v-34.1a1.41 1.41 0 0 1 1.41-1.4h25.81a1.4 1.4 0 0 1 1.4 1.4v34.1a1.41 1.41 0 0 1 -1.4 1.41zm-24.41-2.82h23v-31.28h-23z"></path>
    <path d="m521.65 265.43h-25.81a1.41 1.41 0 0 1 -1.41-1.41v-34.1a1.41 1.41 0 0 1 1.41-1.4h25.81a1.4 1.4 0 0 1 1.4 1.4v34.08a1.41 1.41 0 0 1 -1.4 1.43zm-24.41-2.81h23v-31.29h-23z"></path>
    <path d="m521.65 299.53h-25.81a1.41 1.41 0 0 1 -1.41-1.41v-34.12a1.41 1.41 0 0 1 1.41-1.4h25.81a1.4 1.4 0 0 1 1.4 1.4v34.1a1.41 1.41 0 0 1 -1.4 1.43zm-24.41-2.81h23v-31.29h-23z"></path>
    <path d="m521.65 401.92h-25.81a1.41 1.41 0 0 1 -1.41-1.41v-34.1a1.41 1.41 0 0 1 1.41-1.41h25.81a1.41 1.41 0 0 1 1.4 1.41v34.1a1.41 1.41 0 0 1 -1.4 1.41zm-24.41-2.81h23v-31.29h-23z"></path>
    <path d="m521.65 491.86h-25.81a1.41 1.41 0 0 1 -1.41-1.4v-89.95a1.41 1.41 0 0 1 1.41-1.4h25.81a1.4 1.4 0 0 1 1.4 1.4v89.95a1.4 1.4 0 0 1 -1.4 1.4zm-24.41-2.81h23v-87.13h-23z"></path>
    <path d="m351.1 480.88h-238.65a1.41 1.41 0 0 1 -1.4-1.41v-76.66a1.41 1.41 0 0 1 1.4-1.41h238.65a1.41 1.41 0 0 1 1.41 1.41v76.66a1.41 1.41 0 0 1 -1.41 1.41zm-237.24-2.81h235.84v-73.86h-235.84z"></path>
    <path d="m351.1 303.12h-238.65a1.41 1.41 0 0 1 -1.4-1.41v-12.88a1.41 1.41 0 0 1 1.4-1.41h238.65a1.41 1.41 0 0 1 1.41 1.41v12.88a1.41 1.41 0 0 1 -1.41 1.41zm-237.24-2.81h235.84v-10.08h-235.84z"></path>
    <path d="m351.1 315.72h-238.65a1.41 1.41 0 0 1 -1.4-1.41v-12.88a1.41 1.41 0 0 1 1.4-1.41h238.65a1.41 1.41 0 0 1 1.41 1.41v12.88a1.41 1.41 0 0 1 -1.41 1.41zm-237.24-2.81h235.84v-10.08h-235.84z"></path>
    <path d="m351.1 328.32h-238.65a1.4 1.4 0 0 1 -1.4-1.4v-12.92a1.41 1.41 0 0 1 1.4-1.41h238.65a1.41 1.41 0 0 1 1.41 1.41v12.89a1.41 1.41 0 0 1 -1.41 1.43zm-237.24-2.81h235.84v-10.08h-235.84z"></path>
    <path d="m351.1 340.92h-238.65a1.41 1.41 0 0 1 -1.4-1.41v-12.88a1.41 1.41 0 0 1 1.4-1.41h238.65a1.41 1.41 0 0 1 1.41 1.41v12.88a1.41 1.41 0 0 1 -1.41 1.41zm-237.24-2.81h235.84v-10.11h-235.84z"></path>
    <path d="m351.1 353.52h-238.65a1.41 1.41 0 0 1 -1.4-1.41v-12.88a1.41 1.41 0 0 1 1.4-1.41h238.65a1.41 1.41 0 0 1 1.41 1.41v12.88a1.41 1.41 0 0 1 -1.41 1.41zm-237.24-2.81h235.84v-10.07h-235.84z"></path>
    <path d="m351.1 366.12h-238.65a1.4 1.4 0 0 1 -1.4-1.4v-12.89a1.4 1.4 0 0 1 1.4-1.4h238.65a1.41 1.41 0 0 1 1.41 1.4v12.89a1.41 1.41 0 0 1 -1.41 1.4zm-237.24-2.81h235.84v-10.07h-235.84z"></path>
    <path d="m351.1 378.72h-238.65a1.4 1.4 0 0 1 -1.4-1.4v-12.89a1.4 1.4 0 0 1 1.4-1.4h238.65a1.41 1.41 0 0 1 1.41 1.4v12.89a1.41 1.41 0 0 1 -1.41 1.4zm-237.24-2.81h235.84v-10.07h-235.84z"></path>
    <path d="m351.1 391.32h-238.65a1.4 1.4 0 0 1 -1.4-1.4v-12.92a1.4 1.4 0 0 1 1.4-1.4h238.65a1.41 1.41 0 0 1 1.41 1.4v12.89a1.41 1.41 0 0 1 -1.41 1.43zm-237.24-2.81h235.84v-10.07h-235.84z"></path>
    <path d="m351.1 404.21h-238.65a1.4 1.4 0 0 1 -1.4-1.4v-12.89a1.41 1.41 0 0 1 1.4-1.41h238.65a1.41 1.41 0 0 1 1.41 1.41v12.89a1.41 1.41 0 0 1 -1.41 1.4zm-237.24-2.81h235.84v-10.08h-235.84z"></path>
    <path d="m495.84 480.88h-136.52a1.41 1.41 0 0 1 -1.41-1.41v-12.47a1.41 1.41 0 0 1 1.41-1.4h136.52a1.4 1.4 0 0 1 1.4 1.4v12.47a1.41 1.41 0 0 1 -1.4 1.41zm-135.12-2.81h133.71v-9.66h-133.71z"></path>
    <path d="m521.65 178.35h-443.3a1.41 1.41 0 0 1 -1.4-1.41v-12.07a1.4 1.4 0 0 1 1.4-1.4h443.3a1.4 1.4 0 0 1 1.4 1.4v12.07a1.41 1.41 0 0 1 -1.4 1.41zm-441.89-2.82h440.48v-9.25h-440.48z"></path>
    <path d="m351.1 290.52h-238.65a1.41 1.41 0 0 1 -1.4-1.41v-12.89a1.4 1.4 0 0 1 1.4-1.4h23.49a1.4 1.4 0 0 1 1.33 1l1.1 3.36 6-1.3-.11-.23-.39-.8a1.41 1.41 0 0 1 1.28-2h2.68a1.45 1.45 0 0 1 1 .39l4.27 4.13 4-3.32a1.36 1.36 0 0 1 .58-.72 1.39 1.39 0 0 1 1.7.17c.52.51 1.89 1.66 3.22 1.3a3.24 3.24 0 0 0 1.69-1.37 1.41 1.41 0 0 1 1.15-.58h6.08a1.39 1.39 0 0 1 1.19.65 8.74 8.74 0 0 0 1.94 2.2 5.93 5.93 0 0 0 4.94 1.24 7.62 7.62 0 0 0 4-3.1l.24-.39a1.41 1.41 0 0 1 1.15-.6h8.8a1.42 1.42 0 0 1 1.3.85 58.77 58.77 0 0 0 6.68-.83h11.89a4.46 4.46 0 0 1 .51.07 8 8 0 0 0 2.09-.06h11.88a1.39 1.39 0 0 1 1.3.87 5.74 5.74 0 0 0 .82 1.46 5.59 5.59 0 0 0 4.35 2.06 3.77 3.77 0 0 0 2.33-.78 4 4 0 0 0 1.18-2.1c.12-.67.74-1.51 1.42-1.51h8.58a1.34 1.34 0 0 1 .48.08 8 8 0 0 0 1.47.39 14.37 14.37 0 0 0 6-.42 1.14 1.14 0 0 1 .37-.05h2.65a1.4 1.4 0 0 1 1.09 2.29l-.51.65c-.31.39-.61.79-1 1.17l-1 1.08-1.08 1.2a46.12 46.12 0 0 0 7.49 3.09c1.74-2.59 3.7-5.59 5.51-8.77a1.41 1.41 0 0 1 1.22-.71h6.83a1.39 1.39 0 0 1 .84.28 9 9 0 0 0 2.7 1.35 18.74 18.74 0 0 0 6.24.51 15.91 15.91 0 0 0 3.65-.55 1.55 1.55 0 0 1 .42-1.1 1.57 1.57 0 0 1 1.07-.49h14.57a1.43 1.43 0 0 1 .84.27 11.64 11.64 0 0 0 5.88 2.23 6.45 6.45 0 0 0 2.5-.19 4.65 4.65 0 0 0 2.23-1.73 1.39 1.39 0 0 1 1.14-.58h2.29a1.43 1.43 0 0 1 1.13.55c0 .06.17.27.2.33a6 6 0 0 0 1.59.8 24 24 0 0 0 5.13 1.57 7.83 7.83 0 0 0 4.69-.61 6.86 6.86 0 0 0 2.27-2.08 1.42 1.42 0 0 1 1.12-.56h13a1.41 1.41 0 0 1 1.41 1.4v12.89a1.41 1.41 0 0 1 -1.44 1.35zm-237.24-2.82h235.84v-10.07h-10.92a9.31 9.31 0 0 1 -2.78 2.37 10.47 10.47 0 0 1 -6.41.9 26.26 26.26 0 0 1 -5.75-1.74 7.44 7.44 0 0 1 -2.6-1.48h-.75a7.07 7.07 0 0 1 -3.19 2.18 9 9 0 0 1 -3.6.3 14.39 14.39 0 0 1 -6.92-2.48h-12.9a3.28 3.28 0 0 1 -.25.44 3 3 0 0 1 -1.61 1 18 18 0 0 1 -4.32.66 20.81 20.81 0 0 1 -7.21-.62 11.77 11.77 0 0 1 -3.18-1.51h-5.57c-1.85 3.19-3.81 6.17-5.51 8.7a2 2 0 0 1 -.88.78 1.91 1.91 0 0 1 -1.48 0 48.57 48.57 0 0 1 -9.61-4.05 2.48 2.48 0 0 1 -.8-.81 1.79 1.79 0 0 1 .35-2c.61-.73 1.25-1.44 1.9-2.15l.3-.33a16.53 16.53 0 0 1 -6.37.27 10.3 10.3 0 0 1 -1.72-.43h-7.22a6.41 6.41 0 0 1 -1.92 2.95 6.53 6.53 0 0 1 -4.09 1.44 8.46 8.46 0 0 1 -6.59-3.1 7.73 7.73 0 0 1 -.83-1.29h-10.76a9.4 9.4 0 0 1 -2.34.09l-.5-.07h-11.62a56.53 56.53 0 0 1 -7.49.89 2 2 0 0 1 -1.44-.42 1.79 1.79 0 0 1 -.38-.47h-7a10.14 10.14 0 0 1 -5.51 4 8.74 8.74 0 0 1 -7.35-1.75 11 11 0 0 1 -2.13-2.26h-4.66a5.65 5.65 0 0 1 -2.79 1.85 5.73 5.73 0 0 1 -4.75-1l-4.23 3.51a1.8 1.8 0 0 1 -1.54.48 2.61 2.61 0 0 1 -1-.56l-4.28-4.13a1.88 1.88 0 0 1 -.37 2 2.06 2.06 0 0 1 -1.09.57l-8.3 1.78a1.39 1.39 0 0 1 -1.63-.94l-1.18-3.59h-21zm81.22-11.6-1.22.55 1.39-.22a.76.76 0 0 0 -.16-.33z"></path>
    <path d="m178.2 271.92a1.68 1.68 0 0 1 -1-.34 8.93 8.93 0 0 1 -3.54-6 14 14 0 0 1 -.17-2 1.41 1.41 0 0 1 .41-1 1.38 1.38 0 0 1 1-.42h4.81a1.4 1.4 0 0 1 1.39 1.22 13.13 13.13 0 0 1 -.33 5.26 7 7 0 0 1 -1.25 2.56 2 2 0 0 1 -1.25.66zm-1.73-6.77a6.81 6.81 0 0 0 1.47 3.31c.05-.16.11-.33.16-.52a10.23 10.23 0 0 0 .35-2.91h-2s.01.08.02.12z"></path>
    <path d="m171.73 277.92h-6.49a1.42 1.42 0 0 1 -1.1-2.3 5.48 5.48 0 0 0 .56-.8 16.67 16.67 0 0 0 1.77-6.75c.14-1.49.2-3 .21-4.46a1.41 1.41 0 0 1 1.41-1.39h.66a1.39 1.39 0 0 1 1.4 1.33c.06 1.11.14 2.22.25 3.33a25.83 25.83 0 0 0 1.13 6.08 11.54 11.54 0 0 0 1.37 2.77 1.38 1.38 0 0 1 .07 1.44 1.4 1.4 0 0 1 -1.24.75zm-4-2.82h1.64c-.17-.39-.33-.8-.48-1.22-.13-.36-.24-.72-.34-1.08a15.41 15.41 0 0 1 -.84 2.3z"></path>
    <path d="m228.28 277.92h-28a1.41 1.41 0 0 1 -.21-2.8l1.89-.29-1.92-11a1.4 1.4 0 0 1 1.39-1.64h8.67a1.4 1.4 0 0 1 .54.1 12.87 12.87 0 0 1 5 3.19 2.81 2.81 0 0 1 .69 3.07 2.65 2.65 0 0 1 -2.24 1.44 5.18 5.18 0 0 1 -4-1.52 8.72 8.72 0 0 1 -1.22-1.49c-1.33 1.07-2.71 2.08-4.12 3a5.92 5.92 0 0 0 1.18 1.33 14.55 14.55 0 0 0 8.39 3.54 6.33 6.33 0 0 0 2.93-.31 6 6 0 0 0 2.75-2.54 6.74 6.74 0 0 0 1-2.82 3.67 3.67 0 0 0 -.62-2.49 6.79 6.79 0 0 0 -1.47-1.32l-.94-.64a1.4 1.4 0 0 1 -.52-1.58 1.39 1.39 0 0 1 1.34-1h7.06a1.42 1.42 0 0 1 1 .4c1.15 1.13 2.45 2.41 3.6 3.78a2.89 2.89 0 0 1 .48.94 2.07 2.07 0 0 1 -.32 1.46 10.13 10.13 0 0 0 -1.49 3.58 6.14 6.14 0 0 0 .5 3.54 1.42 1.42 0 0 1 -1.28 2zm-7.05-2.82h5.12a9 9 0 0 1 -.06-3.18 12.09 12.09 0 0 1 1.59-4.13c-.86-1-1.76-1.88-2.65-2.76h-2.66a6.47 6.47 0 0 1 1.17 4.4 9.69 9.69 0 0 1 -1.35 4 10.93 10.93 0 0 1 -1.16 1.67zm-16.32 0h1.4a15 15 0 0 1 -1.6-1.14zm-1.77-10.1.43 2.47c1.14-.79 2.26-1.62 3.35-2.47zm8.39.78a4.5 4.5 0 0 0 .57.65 2.72 2.72 0 0 0 1.32.74 7.29 7.29 0 0 0 -1.89-1.36z"></path>
    <path d="m233 275.37a2.44 2.44 0 0 1 -1.38-.45 3.15 3.15 0 0 1 -.93-3.72 6.14 6.14 0 0 1 1.78-2.27 1.39 1.39 0 0 1 1.06-.35 1.46 1.46 0 0 1 1 .53l.58.74a3.15 3.15 0 0 1 .78 2.84 3.41 3.41 0 0 1 -1.21 2 2.61 2.61 0 0 1 -1.54.67z"></path>
    <path d="m193.86 277.92h-9a1.41 1.41 0 0 1 -1.15-2.22 12.73 12.73 0 0 0 1.9-3.84 18.29 18.29 0 0 0 .62-5.4c0-.91-.06-1.81-.14-2.72a1.41 1.41 0 0 1 1.41-1.52h4a1.4 1.4 0 0 1 1.39 1.15c.21 1.2.51 2.38.81 3.56.37 1.46.74 2.93 1 4.43.12.82.2 1.65.28 2.47s.17 1.64.29 2.46a1.42 1.42 0 0 1 -1.38 1.63zm-6.53-2.82h4.93l-.1-1c-.08-.77-.16-1.55-.27-2.32-.22-1.4-.57-2.78-.92-4.17-.22-.86-.43-1.72-.62-2.58h-1.35v1.42a21.07 21.07 0 0 1 -.73 6.21 14.09 14.09 0 0 1 -.94 2.44z"></path>
    <path d="m258.91 277.92h-3.45a1.41 1.41 0 0 1 -.28-2.79 19.07 19.07 0 0 0 4.45-1.55 1.41 1.41 0 0 1 1.73 2.12c-.45.58-.91 1.15-1.37 1.71a1.41 1.41 0 0 1 -1.08.51z"></path>
    <path d="m161.61 269.86a2.5 2.5 0 0 1 -1.35-.39 3.36 3.36 0 0 1 -1.23-1.64 19.32 19.32 0 0 1 -1.13-3.95 1.43 1.43 0 0 1 .3-1.15 1.4 1.4 0 0 1 1.09-.51h4.08a1.4 1.4 0 0 1 1.4 1.32 21 21 0 0 1 0 2.24 5 5 0 0 1 -.77 2.8 3 3 0 0 1 -2.39 1.28zm-.56-4.83a13.84 13.84 0 0 0 .58 1.72l.07.17a2.28 2.28 0 0 0 .29-1.23c0-.22 0-.44 0-.66z"></path>
    <path d="m148.17 277.92h-2.84a1.43 1.43 0 0 1 -1.28-.82c-.77-1.7-1.55-3.39-2.41-5a1.42 1.42 0 0 1 .42-1.78 1.4 1.4 0 0 1 1.81.12l5.28 5.1a1.41 1.41 0 0 1 -1 2.42z"></path>
    <path d="m157.07 276.21a1.42 1.42 0 0 1 -1.07-.49 131.39 131.39 0 0 0 -9.1-9.72 3.17 3.17 0 0 1 -.94-1.42 2.74 2.74 0 0 1 0-1.24 1.41 1.41 0 0 1 1.38-1.12h6.25a1.41 1.41 0 0 1 1.39 1.25c.12 1.08.3 2.16.52 3.23a20 20 0 0 0 2.75 7.32 1.39 1.39 0 0 1 -.31 1.9 1.41 1.41 0 0 1 -.87.29zm-7.07-11.21c1 1 2 2 2.94 3-.06-.26-.11-.52-.17-.78-.15-.74-.28-1.48-.39-2.23z"></path>
    <path d="m158.45 277.92a1.44 1.44 0 0 1 -1.45-1.22 1.41 1.41 0 0 1 2.17-1.39 1.68 1.68 0 0 1 .42.42 1.41 1.41 0 0 1 -1.17 2.19zm-.09-1.35-1.08.72z"></path>
    <path d="m328.71 274.68a4 4 0 0 1 -3.78-2.95l-2.63.08a1.36 1.36 0 0 1 -1.2.44 1.4 1.4 0 0 1 -1.23-1.32c0-.28 0-.56-.07-.84-1.52 0-3.07 0-4.59 0a2.8 2.8 0 0 1 -1.88 1.76 4 4 0 0 1 -2.5-.17 6.3 6.3 0 0 1 -3.87-4.3 1.4 1.4 0 0 1 .53-1.47l.82-.62a1.33 1.33 0 0 1 .6-.25q5-.89 10-1.84a4.29 4.29 0 0 0 .44-.11 1.15 1.15 0 0 1 .94-.91 1.37 1.37 0 0 1 1.31.54l-.56 1.06h.1l.75-.74a26.76 26.76 0 0 0 2.95 2.44c.52.4 1.05.79 1.56 1.2a12.77 12.77 0 0 1 4.13 5.18 1.91 1.91 0 0 1 -1.77 2.78zm-18.59-6.99a3.55 3.55 0 0 0 1.68 1.36 1.28 1.28 0 0 0 .75.1 2 2 0 0 1 .74-1.48 2.55 2.55 0 0 1 1.07-.35c2.21-.1 4.49-.1 6.72 0a1.39 1.39 0 0 1 1.3 1.1c0 .18.07.36.1.55l2.14-.06c-.48-.39-1-.76-1.48-1.14-.88-.66-1.78-1.34-2.63-2.11a4.83 4.83 0 0 1 -1.08.31c-3.11.59-6.2 1.16-9.31 1.72z"></path>
    <path d="m322.16 277.92h-2.54a1.41 1.41 0 0 1 -1.1-2.29 5.51 5.51 0 0 0 1-1.64 5.77 5.77 0 0 0 .21-.79 1.47 1.47 0 0 1 1.52-1.14 1.38 1.38 0 0 1 1.28 1.33l-.49.23.45.1a1.16 1.16 0 0 1 0 .18h.08a2.83 2.83 0 0 0 .69 1.65 1.41 1.41 0 0 1 -1 2.38z"></path>
    <path d="m136 277.92h-23.55a1.41 1.41 0 0 1 -1.4-1.41v-12.89a1.4 1.4 0 0 1 1.4-1.4h19.39a1.39 1.39 0 0 1 1.33 1l4.2 12.88a1.41 1.41 0 0 1 -1.34 1.85zm-22.17-2.82h20.23l-3.24-10.1h-17z"></path>
    <path d="m351.1 277.92h-13.23a1.41 1.41 0 0 1 -1.09-2.3l.28-.32a4.58 4.58 0 0 0 .34-.43 7.38 7.38 0 0 0 1.29-3.41 3.55 3.55 0 0 0 -.29-1.82 4.06 4.06 0 0 0 -1.93-1.68 16.71 16.71 0 0 0 -2.32-.8l-.84-.26a28.79 28.79 0 0 1 -4.85-2 1.41 1.41 0 0 1 .65-2.65h22a1.41 1.41 0 0 1 1.41 1.4v12.89a1.41 1.41 0 0 1 -1.42 1.38zm-10.6-2.82h9.2v-10.1h-13c.31.12.63.24.94.39a6.68 6.68 0 0 1 3.24 2.95 6.18 6.18 0 0 1 .58 3.31 9.24 9.24 0 0 1 -.96 3.45z"></path>
    <path d="m303 269.08h-.3l-.5-.1a12.84 12.84 0 0 1 -1.33-.32 2 2 0 0 1 -1.1-.77 2.13 2.13 0 0 1 -.27-1.28c.1-1 .19-2.06.3-3.09a1.39 1.39 0 0 1 1.4-1.26h1.64a1.4 1.4 0 0 1 1.41 1.38c0 .58 0 1.17.07 1.75l.09 2.26a1.39 1.39 0 0 1 -1.4 1.47z"></path>
    <path d="m278.19 277.92h-7.42a1.41 1.41 0 0 1 -1.22-2.11l.53-.89c.28-.46.56-.92.81-1.4.83-1.58 1.59-3.21 2.35-4.84a1.41 1.41 0 0 1 2.68.52v.38a8.53 8.53 0 0 0 .92 3.56 6.37 6.37 0 0 0 2.12 2.19 1.4 1.4 0 0 1 .57 1.58 1.42 1.42 0 0 1 -1.34 1.01zm-5-2.82h1.52c-.13-.19-.25-.39-.37-.59-.14-.27-.28-.55-.4-.84l-.6 1.16z"></path>
    <path d="m249.18 277.92h-9.65a1.42 1.42 0 0 1 -1.37-1.71 10.4 10.4 0 0 0 .14-2.78c-.15-2.41-.75-4-1.84-4.82a2.08 2.08 0 0 1 -.86-1.23 2 2 0 0 1 .18-1.26 20 20 0 0 1 1.86-3.29 1.4 1.4 0 0 1 1.16-.61h2.2a1.4 1.4 0 0 1 1.4 1.37v.37a14.69 14.69 0 0 0 3.23 8.68 7.93 7.93 0 0 0 2 1.8 6.54 6.54 0 0 0 1.9.7 1.41 1.41 0 0 1 -.31 2.78zm-8.05-2.82h2.92c-.2-.22-.4-.45-.6-.7a17.52 17.52 0 0 1 -3.8-9.37h-.09a17 17 0 0 0 -1 1.71c1.53 1.43 2.33 3.55 2.52 6.51a16.56 16.56 0 0 1 .05 1.85z"></path>
    <path d="m263 272.32a1.38 1.38 0 0 1 -1.07-.5l-4.75-5.58a5.21 5.21 0 0 1 -1.85 1 8.41 8.41 0 0 1 -3.54.11 5.15 5.15 0 0 1 -2.16-.69 3 3 0 0 1 -1.44-2.71 3.51 3.51 0 0 1 .27-.85 1.63 1.63 0 0 1 1.3-.86h9.11a1.44 1.44 0 0 1 .89.31c1.94 1.57 3.6 2.82 5.22 3.91a2 2 0 0 1 .73 2.85c-.31.54-.66 1.06-1 1.59l-.52.79a1.41 1.41 0 0 1 -1.09.64zm-.51-4.18.36.43.08-.12z"></path>
    <path d="m307.6 277.92h-14.92a1.46 1.46 0 0 1 -1-.42 1.4 1.4 0 0 1 -.4-1l-.36-3.86a14 14 0 0 0 -.7-3.67 6.2 6.2 0 0 1 -2.61.1 2.77 2.77 0 0 1 -2.79-2.91 6.89 6.89 0 0 1 .11-2.49 3.78 3.78 0 0 1 .36-.69 1.31 1.31 0 0 1 1.24-.74h8.59a1.4 1.4 0 0 1 1.41 1.37l.19 9a10.76 10.76 0 0 0 1.76.44c2.47.49 5.17.93 8.48 1.37a1.42 1.42 0 0 1 .71.31l.31.26a3.54 3.54 0 0 0 .42.35 1.41 1.41 0 0 1 -.8 2.57zm-13.6-2.82h1.37l-.22-.1a2 2 0 0 1 -.88-.72 2.22 2.22 0 0 1 -.34-1.21l-.17-8h-6.2c0 .24 0 .56.07.86 0 .09 0 .29.05.4 0-.06.2-.05.27 0 .47.05 1.34.15 1.67-.1a5.13 5.13 0 0 1 1.17-.41 1.72 1.72 0 0 1 1.43.92 12.74 12.74 0 0 1 1.5 5.67z"></path>
    <path d="m179.79 265.31h-4.85a1.4 1.4 0 0 1 -1.41-1.35 23.08 23.08 0 0 1 .42-4.81c.14-.78.46-2.6 2.07-3.32a2.27 2.27 0 0 1 2.14.1 2.52 2.52 0 0 1 .89 1 9.19 9.19 0 0 1 1.1 2.8v.19a12.21 12.21 0 0 1 1 3.82 1.41 1.41 0 0 1 -.36 1.09 1.36 1.36 0 0 1 -1 .48zm-3.43-2.81h1.76a8.67 8.67 0 0 0 -.57-1.65 4.44 4.44 0 0 1 -.15-.52v-.18a4.62 4.62 0 0 0 -.48-1.24 5.57 5.57 0 0 0 -.17.72 26.43 26.43 0 0 0 -.39 2.87z"></path>
    <path d="m210.79 265.31h-9.27a1.41 1.41 0 0 1 -1.39-1.16l-1.3-7.45a2 2 0 0 1 .25-1.27 1.62 1.62 0 0 1 1.21-.68l1.77-.17a1.71 1.71 0 0 1 1.13.33 1.48 1.48 0 0 1 .56 1 5.7 5.7 0 0 0 .6 2.51c.92 1.6 2.86 2.55 4.84 3.33.71.28 1.44.58 2.16.89a1.4 1.4 0 0 1 -.56 2.69zm-8.09-2.81h1.79a8.51 8.51 0 0 1 -2.15-2z"></path>
    <path d="m140.63 264.42a1.27 1.27 0 0 1 -.39-.05 1.44 1.44 0 0 1 -.85-.68c-.39-.73-.83-1.4-1.27-2.07a20.8 20.8 0 0 1 -2-3.45 1.41 1.41 0 0 1 0-1.12 1.34 1.34 0 0 1 .83-.75 10.4 10.4 0 0 1 4.3-.55 5 5 0 0 1 2 .52 3.07 3.07 0 0 1 1.62 2.16 3.54 3.54 0 0 1 -.19 1.66 7.64 7.64 0 0 1 -3.42 4.14 1.39 1.39 0 0 1 -.63.19zm-1.11-5.83c.3.5.62 1 .95 1.49l.56.85a4.81 4.81 0 0 0 1-1.72 1.2 1.2 0 0 0 .08-.35 2.26 2.26 0 0 0 -1.05-.31 9.3 9.3 0 0 0 -1.54.04z"></path>
    <path d="m153.59 265.31h-6.28a1.4 1.4 0 0 1 -1.4-1.46 4.34 4.34 0 0 1 .25-1.23 16.66 16.66 0 0 0 .64-8.88 7.85 7.85 0 0 0 -.68-2.07 1.4 1.4 0 0 1 1.25-2h8.23a1.4 1.4 0 0 1 1.22.69 1.42 1.42 0 0 1 0 1.41 15.41 15.41 0 0 0 -1.53 4.78 26.92 26.92 0 0 0 -.48 4.12 21.94 21.94 0 0 0 .18 3.12 1.42 1.42 0 0 1 -.34 1.1 1.43 1.43 0 0 1 -1.06.42zm-4.43-2.81h2.89a18.47 18.47 0 0 1 -.05-1.95 28.55 28.55 0 0 1 .52-4.55 22.58 22.58 0 0 1 .91-3.57h-4c.06.24.12.5.17.76a19.55 19.55 0 0 1 -.44 9.31z"></path>
    <path d="m163.38 265.31h-4a1.4 1.4 0 0 1 -1.38-1.12 19.54 19.54 0 0 1 -.39-2.64c-.16-2.25.3-3.89 1.4-5a2.68 2.68 0 0 1 3.81-.33 1.35 1.35 0 0 1 .31.4l.3.6a18.91 18.91 0 0 1 1.41 6.65 1.46 1.46 0 0 1 -.39 1 1.4 1.4 0 0 1 -1.07.44zm-2.89-2.81h1.37a15.75 15.75 0 0 0 -.93-3.88 3.85 3.85 0 0 0 -.57 2.74c.03.38.08.77.13 1.14z"></path>
    <path d="m309.1 264.47a1.42 1.42 0 0 1 -1-.4 1.44 1.44 0 0 1 -.37-1.38l.34-1.19a4.58 4.58 0 0 1 1.66-2.58 3.53 3.53 0 0 1 2.33-.48 4.29 4.29 0 0 1 3.42 2.72v.1a1.53 1.53 0 0 1 -1.18 2c-1.61.3-3.24.69-4.85 1.16a1.74 1.74 0 0 1 -.35.05z"></path>
    <path d="m226.07 265.31h-6.92a1.43 1.43 0 0 1 -.82-.26 69.61 69.61 0 0 0 -6.69-4.26c-2.22-1.24-2.46-2.62-2.27-3.56a2.19 2.19 0 0 1 .61-1.14 2.36 2.36 0 0 1 2.07-.57 5.91 5.91 0 0 1 1.78.54 40.87 40.87 0 0 0 5.3-5 1.3 1.3 0 0 1 .2-.75 1.41 1.41 0 0 1 1.16-.71h27.51a1.41 1.41 0 0 1 .47 2.73 6.41 6.41 0 0 0 -1.09.43 7.9 7.9 0 0 0 -2.45 2.45 14.62 14.62 0 0 0 -1.86 3.94 1.41 1.41 0 0 1 -.89.92 1.47 1.47 0 0 1 -1.27-.2c-.88-.63-1.8-1.3-2.7-2a25.21 25.21 0 0 0 -3.07 4.64 1.41 1.41 0 0 1 -2.2.4l-4.94-4.47a18.73 18.73 0 0 0 -2.34 2.78l-.1.15c.33.3.64.63.94 1s.36.4.55.58a1.41 1.41 0 0 1 -1 2.4zm-6.47-2.81h3.32a1.53 1.53 0 0 1 -.13-.32 2.9 2.9 0 0 1 .57-2.55 22 22 0 0 1 4.07-4.45 1.41 1.41 0 0 1 2.25.7l.1.36 3.73 3.38a27.5 27.5 0 0 1 3.54-4.71 1.4 1.4 0 0 1 2-.07c.64.59 1.32 1.14 2 1.67a17.18 17.18 0 0 1 1.56-2.87c.3-.44.61-.84.92-1.21h-21.87c-.09.12-.17.21-.23.28a42.78 42.78 0 0 1 -6.34 5.93 1.53 1.53 0 0 1 -.89.29h-.15c1.84 1.07 3.7 2.26 5.55 3.57z"></path>
    <path d="m320.73 265.31a1.69 1.69 0 0 1 -1.39-.71 1.44 1.44 0 0 1 -.16-1.41 1.31 1.31 0 0 1 1-.95 1.36 1.36 0 0 1 1.37.48l.14.16a1.53 1.53 0 0 1 .25 1.56 1.37 1.37 0 0 1 -1.21.87z"></path>
    <path d="m351.1 265.31h-21.41a1.39 1.39 0 0 1 -.63-.15l-.4-.19a8.52 8.52 0 0 1 -.8-.4 8.67 8.67 0 0 1 -2.42-1.79 3.2 3.2 0 0 1 -.82-1.67 2.22 2.22 0 0 1 1.35-2.36 2.56 2.56 0 0 1 2 .2l1.75.79.11-.06 6.48-3.28c-.52-.42-1.06-.82-1.61-1.2a14.62 14.62 0 0 0 -4.3-2.18 15.36 15.36 0 0 0 -4.3-.42 8.19 8.19 0 0 0 -2.24.27 6 6 0 0 0 -3.25 2.89 6.26 6.26 0 0 0 -.84 2.69 1.4 1.4 0 0 1 -2.56.71 5.42 5.42 0 0 0 -1.87-1.82 8.21 8.21 0 0 0 -3.59-.75 8.49 8.49 0 0 0 -2.57.2 7 7 0 0 0 -2.63 1.61 6.65 6.65 0 0 0 -2 2.55 7.48 7.48 0 0 0 -.35 2.92 1.4 1.4 0 0 1 -1.4 1.44h-1.68a1.41 1.41 0 0 1 -1.4-1.54 53.46 53.46 0 0 1 2.28-11.77 1.42 1.42 0 0 1 -.35-1 1.4 1.4 0 0 1 1.4-1.36h48.05a1.41 1.41 0 0 1 1.41 1.4v12.89a1.41 1.41 0 0 1 -1.41 1.38zm-20.25-2.81h18.85v-10.07h-14.06l.69.46a33.23 33.23 0 0 1 3.49 2.78 1.41 1.41 0 0 1 -.32 2.29l-8.57 4.48zm-26.07-10.07a34.34 34.34 0 0 0 -1.34 5.14 14.26 14.26 0 0 1 1.29-1.29 9.76 9.76 0 0 1 3.69-2.19 11.44 11.44 0 0 1 3.47-.31 10.76 10.76 0 0 1 4.82 1.08 6.93 6.93 0 0 1 .94.62 9.67 9.67 0 0 1 .55-1.12 10.94 10.94 0 0 1 1.42-1.93z"></path>
    <path d="m295.13 265.31h-8.77a1.4 1.4 0 0 1 -1.14-.58 1.45 1.45 0 0 1 -.19-1.28 5.44 5.44 0 0 1 2.66-2.94 15.46 15.46 0 0 1 2.15-.89l.39-.14-.58-6.91a14.69 14.69 0 0 0 -8 3.31 14 14 0 0 0 -1.94 2.32 1.41 1.41 0 0 1 -1.88.39l-5.4-3.26a23.56 23.56 0 0 0 -3.16 4.94 1.39 1.39 0 0 1 -1 .78 1.43 1.43 0 0 1 -1.23-.4 74.77 74.77 0 0 1 -5.67-6.72 1.49 1.49 0 0 1 -.59-2 24.44 24.44 0 0 1 1.62-1.83 1.39 1.39 0 0 1 1-.44h31.47a1.41 1.41 0 0 1 1.41 1.37l.28 12.89a1.45 1.45 0 0 1 -.4 1 1.42 1.42 0 0 1 -1.03.39zm-5-2.81h3.57l-.22-10.07h-1l.62 7.44a2 2 0 0 1 -.2 1.14 2 2 0 0 1 -1.07.88l-1 .38zm-26.28-9.92c1.22 1.58 2.48 3.17 3.83 4.68a25.84 25.84 0 0 1 3.06-4.28 2.4 2.4 0 0 1 .68-.55h-7.42zm9.2-.15.26.14 4.88 3a12.92 12.92 0 0 1 1.56-1.71 12.63 12.63 0 0 1 1.78-1.38z"></path>
    <path d="m131.93 265.31h-19.48a1.4 1.4 0 0 1 -1.4-1.4v-12.91a1.4 1.4 0 0 1 1.4-1.4h23.74a1.4 1.4 0 0 1 .85 2.52l-6 4.55 2.21 6.78a1.44 1.44 0 0 1 -.2 1.27 1.42 1.42 0 0 1 -1.12.59zm-18.07-2.81h16.14l-1.8-5.5a1.28 1.28 0 0 1 -.21-.53l-.07-.36a1.4 1.4 0 0 1 1-1.61 1.53 1.53 0 0 1 .41-.05l2.65-2h-18.12z"></path>
    <path d="m259.21 265.31h-9.57a1.39 1.39 0 0 1 -1.37-1.72 3.63 3.63 0 0 1 1.33-2 10.17 10.17 0 0 1 6.82-2.18 1.43 1.43 0 0 1 1.34 1.47c.66.57 1.26 1 1.85 1.52l.47.38a1.4 1.4 0 0 1 -.87 2.5zm-5.21-2.81h1.37a2.09 2.09 0 0 1 -.16-.22 8.06 8.06 0 0 0 -1.21.22z"></path>
    <path d="m184.21 254.61a1.4 1.4 0 0 1 -1.21-.61 14.6 14.6 0 0 0 -1.5-2 1.43 1.43 0 0 1 -.25-1.52 1.41 1.41 0 0 1 1.29-.83h1a1.4 1.4 0 0 1 1.34 1l.19.65a12.84 12.84 0 0 0 .44 1.41 1.4 1.4 0 0 1 -.67 1.77 1.32 1.32 0 0 1 -.63.13z"></path>
    <path d="m168.77 265.31h-.68a1.42 1.42 0 0 1 -1-.42 1.38 1.38 0 0 1 -.4-1c0-1.42 0-2.85-.06-4.27a10.49 10.49 0 0 0 -.69-4.06 1.43 1.43 0 0 1 -.12-.81 13.37 13.37 0 0 0 -1.82-2.75 1.4 1.4 0 0 1 1-2.33h5.92a1.4 1.4 0 0 1 1.19 2.15 9 9 0 0 0 -.85 1.74 1.43 1.43 0 0 1 -.87.86 55 55 0 0 0 -.22 9.46 1.45 1.45 0 0 1 -.38 1.05 1.42 1.42 0 0 1 -1.02.38zm-1-12.88.08.13a.38.38 0 0 1 .06-.13z"></path>
    <path d="m191.55 265.31h-4a1.41 1.41 0 0 1 -1.41-1.3 24.83 24.83 0 0 0 -1.26-6.35 1.41 1.41 0 0 1 2.58-1.1l2.72-.35a2 2 0 0 1 1.4.35 2 2 0 0 1 .71 1.21 17.94 17.94 0 0 1 .3 2.74c0 .4 0 .79.07 1.19a17.78 17.78 0 0 0 .29 1.94 1.41 1.41 0 0 1 -.3 1.17 1.39 1.39 0 0 1 -1.1.5zm-2.76-2.81h1.1l-.06-.55c0-.43-.06-.86-.08-1.29s-.06-1.06-.12-1.59l-1.41.12a28.18 28.18 0 0 1 .57 3.31z"></path>
    <path d="m241 265.31h-2.4a1.4 1.4 0 0 1 -1.17-2.18 20.57 20.57 0 0 1 2.86-3.45 1.42 1.42 0 0 1 1.64-.22 1.4 1.4 0 0 1 .72 1.49 14.7 14.7 0 0 0 -.25 2.92 1.4 1.4 0 0 1 -1.4 1.44z"></path>
    <path d="m351.1 252.43h-48.52l-6.75-.38a1.38 1.38 0 0 1 -1 .4h-31.45a1.42 1.42 0 0 1 -1.26-.77 40.93 40.93 0 0 0 -11.11.06 14.5 14.5 0 0 0 -2.56.63 1.44 1.44 0 0 1 -.46.08h-27.5a1.4 1.4 0 0 1 -1.2-.68 1 1 0 0 1 -.11-.23c-1-1.55-3-2.38-4.85-3s-4.28-1.23-6.13-.38a7.51 7.51 0 0 0 -2.1 1.62 1.43 1.43 0 0 1 -1.42.37 1.41 1.41 0 0 1 -1-1.11c-.17-1-.34-2-.47-3a111.37 111.37 0 0 0 -18.51 3.96l.2.63a1.44 1.44 0 0 1 -.23 1.24 1.42 1.42 0 0 1 -1.12.56h-1a1.42 1.42 0 0 1 -1-.46 13.62 13.62 0 0 0 -1.66-1.56 6.12 6.12 0 0 0 -2.89-1.41 4.57 4.57 0 0 0 -3.46 1.09 6.48 6.48 0 0 0 -1.39 1.65 1.42 1.42 0 0 1 -1.2.66h-5.95a1.37 1.37 0 0 1 -1-.47s-.26-.33-.29-.37a6 6 0 0 0 -4-1.94 4.08 4.08 0 0 0 -1 .15 3.37 3.37 0 0 0 -1.46 1.27 4.06 4.06 0 0 0 -.25.41 1.85 1.85 0 0 1 -1.36 1h-8.23a1.41 1.41 0 0 1 -1.25-.76 3 3 0 0 0 -1.16-1.29 4.87 4.87 0 0 0 -2.61-.39 8.53 8.53 0 0 0 -2.77.49 11.52 11.52 0 0 0 -2.42 1.55 2 2 0 0 1 -1 .38h-23.75a1.41 1.41 0 0 1 -1.4-1.41v-12.88a1.41 1.41 0 0 1 1.4-1.41h238.65a1.41 1.41 0 0 1 1.41 1.41v12.86a1.41 1.41 0 0 1 -1.41 1.43zm-55-3.2 7 .39h46.6v-10.08h-235.84v10.08h21.86a12 12 0 0 1 2.81-1.72 11.44 11.44 0 0 1 3.7-.71 7.81 7.81 0 0 1 4.12.76 5.41 5.41 0 0 1 1.81 1.67h6.64l.12-.19a6 6 0 0 1 2.78-2.26 6.14 6.14 0 0 1 2.06-.33 8.59 8.59 0 0 1 5.79 2.62 1.14 1.14 0 0 1 .15.16h4.49a8.3 8.3 0 0 1 1.55-1.67 7.37 7.37 0 0 1 5.61-1.71 8.74 8.74 0 0 1 4.24 1.95l.28.22.11-.13.25-.27a1.4 1.4 0 0 1 .61-.38 114 114 0 0 1 21.47-4.51 1.41 1.41 0 0 1 1 .3 1.44 1.44 0 0 1 .52 1q.09.88.21 1.74a7.21 7.21 0 0 1 .95-.52c2.74-1.25 5.82-.52 8.19.27 2 .68 4.53 1.71 6.05 3.76h26.49a16 16 0 0 1 2.85-.68 44.15 44.15 0 0 1 13.48.16 1.43 1.43 0 0 1 .87.52h28.56a1.35 1.35 0 0 1 .6-.71 1.39 1.39 0 0 1 1.42 0z"></path>
    <path d="m129.37 257.62a1.38 1.38 0 0 1 -.68-.18 1.37 1.37 0 0 1 -.7-1l-.07-.36a1.41 1.41 0 0 1 2.72-.69l.11.34a1.4 1.4 0 0 1 -.49 1.56l-.85-1.11.48 1.32a1.55 1.55 0 0 1 -.52.12zm-.52-2.72.39 1z"></path>
    <path d="m153.07 282.52h-.29a2.68 2.68 0 0 1 -1-.53l-4.3-4.16a1.9 1.9 0 0 1 -.38 2 2 2 0 0 1 -1.08.56l-8.3 1.78a1.39 1.39 0 0 1 -1.63-.94l-8-24.6a1.41 1.41 0 0 1 .48-1.56l6.9-5.25a13.45 13.45 0 0 1 3.07-1.91 11.44 11.44 0 0 1 3.7-.71 7.81 7.81 0 0 1 4.12.76c1.61.9 2.69 2.67 3.21 5.24a19.6 19.6 0 0 1 -.75 10.38 2.23 2.23 0 0 0 -.12.39 116.25 116.25 0 0 1 10.64 11.29 1.91 1.91 0 0 1 .47 1.79 2.72 2.72 0 0 1 -.7 1l-4.79 4a1.89 1.89 0 0 1 -1.25.47zm-10.18-12.52a1.4 1.4 0 0 1 1 .39l9.26 8.94 3.51-2.93a132.74 132.74 0 0 0 -9.76-10.4 3 3 0 0 1 -.94-1.42 3.11 3.11 0 0 1 .18-1.91 16.69 16.69 0 0 0 .66-8.93c-.34-1.73-1-2.86-1.83-3.34a4.87 4.87 0 0 0 -2.61-.39 8.53 8.53 0 0 0 -2.77.49 11.52 11.52 0 0 0 -2.42 1.55l-6.11 4.64 7.31 22.46 6.07-1.31c-.9-2-1.82-3.89-2.8-5.78a1.42 1.42 0 0 1 .42-1.78 1.4 1.4 0 0 1 .83-.28zm14.27 7 .55-.47zm.72-.59.37-.32zm-17.25-12a1.27 1.27 0 0 1 -.39-.05 1.41 1.41 0 0 1 -.85-.68c-.39-.72-.83-1.39-1.26-2.06a21.25 21.25 0 0 1 -2-3.46 1.41 1.41 0 0 1 0-1.12 1.35 1.35 0 0 1 .82-.75 10.44 10.44 0 0 1 4.3-.55 5 5 0 0 1 2 .52 3 3 0 0 1 1.62 2.17 3.41 3.41 0 0 1 -.18 1.65 7.64 7.64 0 0 1 -3.42 4.14 1.39 1.39 0 0 1 -.64.2zm-1.11-5.83c.3.5.62 1 1 1.5l.55.85a4.94 4.94 0 0 0 1-1.73 1.12 1.12 0 0 0 .08-.34 2.09 2.09 0 0 0 -1.06-.32 9.16 9.16 0 0 0 -1.57.05z"></path>
    <path d="m162.08 279.65a7.15 7.15 0 0 1 -5.23-2.74c-2.5-2.86-3.52-6.66-4.13-9.65a30.23 30.23 0 0 1 -.72-6.71 29.85 29.85 0 0 1 .52-4.54 15.84 15.84 0 0 1 2.4-6.59 5.5 5.5 0 0 1 4.84-2.58 8.59 8.59 0 0 1 5.79 2.62 15.22 15.22 0 0 1 3.23 5 1.39 1.39 0 0 1 .09.9 15.37 15.37 0 0 1 .57 4.18 67.1 67.1 0 0 1 -.17 8.8 19.35 19.35 0 0 1 -2.13 7.91 6.53 6.53 0 0 1 -3.79 3.25 5 5 0 0 1 -1.27.15zm-2.43-30a2.88 2.88 0 0 0 -1 .15 3.37 3.37 0 0 0 -1.46 1.27 13.25 13.25 0 0 0 -1.92 5.44 22.7 22.7 0 0 0 .19 10.18c.57 2.82 1.44 6 3.49 8.38.87 1 2.36 2 3.64 1.7a4 4 0 0 0 2.09-1.95 16.63 16.63 0 0 0 1.77-6.75 65.34 65.34 0 0 0 .16-8.45 10.49 10.49 0 0 0 -.69-4.06 1.38 1.38 0 0 1 -.11-.82 12 12 0 0 0 -2.25-3.28 6 6 0 0 0 -3.87-1.81zm2 20.21a2.5 2.5 0 0 1 -1.35-.39 3.3 3.3 0 0 1 -1.22-1.63 19.52 19.52 0 0 1 -1.48-6.29c-.16-2.25.3-3.89 1.4-5a2.7 2.7 0 0 1 3.81-.34 1.53 1.53 0 0 1 .31.41l.3.6a20.11 20.11 0 0 1 1.42 8.58 5 5 0 0 1 -.77 2.8 3 3 0 0 1 -2.46 1.26zm-.79-11.49a5.58 5.58 0 0 0 -.46 3 17 17 0 0 0 1.27 5.4 1.58 1.58 0 0 0 .19.38l1.06.63-1.14-.81a2.66 2.66 0 0 0 .25-1.28 17.52 17.52 0 0 0 -1.21-7.32z"></path>
    <path d="m178.46 281.86a9.08 9.08 0 0 1 -5.53-2 12.9 12.9 0 0 1 -4.06-6 28.91 28.91 0 0 1 -1.28-6.74 61.06 61.06 0 0 1 .17-14.27 1.38 1.38 0 0 1 1.21-1.19 10.1 10.1 0 0 1 2.77-3.73 7.42 7.42 0 0 1 5.61-1.71 8.74 8.74 0 0 1 4.24 1.95 18.36 18.36 0 0 1 5.86 8.38 29.21 29.21 0 0 1 1.58 9.88 21.92 21.92 0 0 1 -.73 6.21 15.75 15.75 0 0 1 -2.39 4.8 10.21 10.21 0 0 1 -5.63 4.18 7.49 7.49 0 0 1 -1.82.24zm-8.06-27.49a59.91 59.91 0 0 0 0 12.51 25.89 25.89 0 0 0 1.14 6.08 10 10 0 0 0 3.14 4.71 5.92 5.92 0 0 0 4.93 1.24 7.61 7.61 0 0 0 4-3.1 12.89 12.89 0 0 0 2-3.94 18.89 18.89 0 0 0 .62-5.41 26.44 26.44 0 0 0 -1.41-8.93 15.69 15.69 0 0 0 -4.94-7.12 6.12 6.12 0 0 0 -2.88-1.41 4.62 4.62 0 0 0 -3.46 1.09 7.76 7.76 0 0 0 -2.26 3.4 1.44 1.44 0 0 1 -.88.88zm7.8 17.55a1.68 1.68 0 0 1 -1-.34 8.91 8.91 0 0 1 -3.54-6 19.44 19.44 0 0 1 .25-6.46c.12-.71.45-2.6 2.07-3.32a2.27 2.27 0 0 1 2.14.1 2.55 2.55 0 0 1 .89 1 9 9 0 0 1 1.12 2.9 13.19 13.19 0 0 1 .64 8.85 6.77 6.77 0 0 1 -1.24 2.54 2.06 2.06 0 0 1 -1.26.67zm-1.31-13a5.57 5.57 0 0 0 -.17.72 16.47 16.47 0 0 0 -.25 5.51 6.71 6.71 0 0 0 1.47 3.32c.05-.16.11-.33.16-.51a10.52 10.52 0 0 0 -.55-7.1 4.44 4.44 0 0 1 -.15-.52 5 5 0 0 0 -.51-1.43z"></path>
    <path d="m194.38 278.53a1.88 1.88 0 0 1 -1.28-.45 1.91 1.91 0 0 1 -.61-1.21c-.16-.91-.25-1.83-.34-2.76s-.15-1.55-.27-2.32a41.66 41.66 0 0 0 -.92-4.16 34.82 34.82 0 0 1 -1.13-5.68c0-.42-.06-.85-.08-1.27s-.05-1.07-.12-1.61l-1.81.15a3 3 0 0 1 -2-.34 2.78 2.78 0 0 1 -.82-.88 27.06 27.06 0 0 1 -3.36-8.42 1.95 1.95 0 0 1 1.21-1.91 114 114 0 0 1 21.47-4.51 1.41 1.41 0 0 1 1.56 1.26 57.52 57.52 0 0 0 2.12 10.75 1.39 1.39 0 0 1 -.19 1.19 1.35 1.35 0 0 1 -1 .61l-4.95.46 3.2 18.29a1.41 1.41 0 0 1 -1.11 1.62 61.48 61.48 0 0 1 -9.34 1.18zm-4-22.33a1.87 1.87 0 0 1 1.16.36 2 2 0 0 1 .71 1.21 18.33 18.33 0 0 1 .3 2.77c0 .38 0 .78.07 1.16a32.52 32.52 0 0 0 1.05 5.23 41.65 41.65 0 0 1 1 4.43c.13.82.21 1.65.29 2.48.06.62.12 1.23.2 1.83a58.22 58.22 0 0 0 6.85-.83l-3.17-18.14a2 2 0 0 1 .25-1.27 1.62 1.62 0 0 1 1.21-.68l4.53-.42a59.46 59.46 0 0 1 -1.59-8.25 111.51 111.51 0 0 0 -18.6 3.94 24.23 24.23 0 0 0 2.77 6.48l2.74-.29z"></path>
    <path d="m222.59 265.05a9.58 9.58 0 0 0 -2.07-1.91 72.23 72.23 0 0 0 -6.49-4.23 1.37 1.37 0 0 0 1.06-.27 43.14 43.14 0 0 0 6.33-5.91 2.17 2.17 0 0 0 .58-1.2 2.07 2.07 0 0 0 -.35-1.35c-1.46-2.42-4.21-3.58-6.43-4.32-2.38-.79-5.46-1.52-8.19-.27a7.85 7.85 0 0 0 -1.55 1c.22 1 .6 2 .82 3a6.69 6.69 0 0 1 1.9-1.43c1.85-.85 4.25-.24 6.13.38a9.59 9.59 0 0 1 4.64 2.72 40.28 40.28 0 0 1 -5.14 4.81 5.89 5.89 0 0 0 -1.79-.54 2.43 2.43 0 0 0 -2.08.58 2.3 2.3 0 0 0 -.59 1.12c-.2.95 0 2.34 2.27 3.57a68.44 68.44 0 0 1 7.21 4.62 6.93 6.93 0 0 1 1.48 1.32 3.67 3.67 0 0 1 .62 2.49 6.63 6.63 0 0 1 -1 2.82 6 6 0 0 1 -2.65 2.57 6.35 6.35 0 0 1 -2.94.31 14.55 14.55 0 0 1 -8.38-3.54 6.13 6.13 0 0 1 -1.18-1.32c1.41-1 2.79-2 4.12-3a8.14 8.14 0 0 0 1.22 1.48 5 5 0 0 0 4 1.52 2.64 2.64 0 0 0 2.24-1.43 2.81 2.81 0 0 0 -.68-3.08c-1.64-1.87-4-2.79-6-3.6l-.46-.18c-2-.78-3.93-1.73-4.84-3.33a6.36 6.36 0 0 1 -.65-3.16 5.84 5.84 0 0 1 -2.81-.15 9.13 9.13 0 0 0 1 4.7c1.29 2.28 3.62 3.5 6 4.46-1.76 1.43-3.63 2.81-5.56 4.08a1.4 1.4 0 0 0 -.61 1.42 6.77 6.77 0 0 0 2.42 3.75 17.35 17.35 0 0 0 10 4.22h1.09a8 8 0 0 0 3.13-.56 8.57 8.57 0 0 0 4-3.75 9.52 9.52 0 0 0 1.36-4 6.45 6.45 0 0 0 -1.18-4.41z"></path>
    <path d="m211.53 265.8a4 4 0 0 0 .57.66 2.72 2.72 0 0 0 1.32.74 7.61 7.61 0 0 0 -1.89-1.4z"></path>
    <path d="m234.54 282a8.36 8.36 0 0 1 -6.44-3.1 8.89 8.89 0 0 1 -1.81-7 12 12 0 0 1 1.59-4.13 49.42 49.42 0 0 0 -4.2-4.35 2.91 2.91 0 0 1 -.89-1.26 2.85 2.85 0 0 1 .58-2.56 21.9 21.9 0 0 1 4.06-4.44 1.41 1.41 0 0 1 2.25.7l.1.36 3.73 3.38a27.5 27.5 0 0 1 3.54-4.71 1.4 1.4 0 0 1 2-.07 35.35 35.35 0 0 0 4.4 3.47 1.45 1.45 0 0 1 .62 1.12 1.42 1.42 0 0 1 -.54 1.16 17.41 17.41 0 0 0 -4.93 6.14c1.54 1.43 2.34 3.56 2.53 6.52a13 13 0 0 1 -.23 3.74 6.17 6.17 0 0 1 -6.19 5zm-9-20.66a53.44 53.44 0 0 1 4.81 5 2.89 2.89 0 0 1 .48.94 2 2 0 0 1 -.3 1.42 10.29 10.29 0 0 0 -1.51 3.62 6.1 6.1 0 0 0 1.23 4.77 5.59 5.59 0 0 0 4.35 2.06 3.79 3.79 0 0 0 2.33-.78 3.89 3.89 0 0 0 1.17-2.09 10.13 10.13 0 0 0 .16-2.91c-.15-2.41-.75-4-1.84-4.82a2 2 0 0 1 -.86-1.23 1.93 1.93 0 0 1 .18-1.27 20.22 20.22 0 0 1 4.58-6.52c-.74-.55-1.47-1.13-2.17-1.73a25.61 25.61 0 0 0 -3.06 4.63 1.41 1.41 0 0 1 -2.2.4l-4.89-4.39a18.73 18.73 0 0 0 -2.34 2.78zm7.45 14a2.45 2.45 0 0 1 -1.39-.45 3.15 3.15 0 0 1 -.93-3.72 6 6 0 0 1 1.78-2.27 1.38 1.38 0 0 1 1.06-.34 1.41 1.41 0 0 1 1 .52l.58.73a3.24 3.24 0 0 1 .78 2.84 3.4 3.4 0 0 1 -1.21 2 2.61 2.61 0 0 1 -1.54.67z"></path>
    <path d="m256 277.67c1.13-1.32 2.24-2.57 3.28-3.92a15.81 15.81 0 0 1 -9.16 1.54 7.25 7.25 0 0 1 -2.51-.85 7.6 7.6 0 0 1 -2-1.8 14.61 14.61 0 0 1 -.72-17.41 7.9 7.9 0 0 1 2.45-2.45 10 10 0 0 1 3.64-1.06 41.89 41.89 0 0 1 5.8-.41 39.12 39.12 0 0 1 4.2.22 44.7 44.7 0 0 0 -4.28 6.55l-.7 1.32a10.21 10.21 0 0 0 -6.33 2.22 3.51 3.51 0 0 0 -1.42 2.31 2.93 2.93 0 0 0 1.44 2.71 5.15 5.15 0 0 0 2.16.69 8.46 8.46 0 0 0 3.55-.11 5.11 5.11 0 0 0 1.83-1l4.11 4.84c.57-.78 1.14-1.57 1.72-2.33l-4.84-5.69a1.38 1.38 0 0 0 -1.33-.47 1.42 1.42 0 0 0 -1.07.94 1.77 1.77 0 0 1 -1.21 1 5.92 5.92 0 0 1 -2.37 0 3.85 3.85 0 0 1 -1.2-.33s.06-.14.39-.41a7.38 7.38 0 0 1 5.25-1.56 1.39 1.39 0 0 0 1.35-.69l1.21-2.08a34.48 34.48 0 0 1 5.68-8 1.41 1.41 0 0 0 -.76-2.39 44.15 44.15 0 0 0 -13.48-.16 12.71 12.71 0 0 0 -4.66 1.4 10.51 10.51 0 0 0 -3.35 3.31 17.4 17.4 0 0 0 .85 20.75 10.1 10.1 0 0 0 2.69 2.45 9.7 9.7 0 0 0 3.5 1.21 14.92 14.92 0 0 0 2.56.22 18.36 18.36 0 0 0 3.7-.45 1.19 1.19 0 0 1 .03-.11z"></path>
    <path d="m264.61 287.27a2.53 2.53 0 0 1 -.74-.13 48.57 48.57 0 0 1 -9.61-4.05 2.38 2.38 0 0 1 -.82-.85 1.79 1.79 0 0 1 .36-2c.61-.72 1.25-1.43 1.89-2.13l1-1.08a55.29 55.29 0 0 0 6.26-8.6 85.37 85.37 0 0 1 -7.15-5.43 2.43 2.43 0 0 1 -.91-1.5 2.5 2.5 0 0 1 .47-1.71l5.09-7.74a2.1 2.1 0 0 1 2.85-.13c1.4 1.81 2.83 3.66 4.37 5.39a26.49 26.49 0 0 1 3.07-4.28 2 2 0 0 1 1.4-.75 2.17 2.17 0 0 1 1.15.33l7.61 4.61a1.4 1.4 0 0 1 .45 2 70.62 70.62 0 0 0 -5.09 9.71c-.93 2-1.86 4-2.88 6a125 125 0 0 1 -7.15 11.5 2.15 2.15 0 0 1 -.86.78 1.79 1.79 0 0 1 -.76.06zm-7.9-6.06a46 46 0 0 0 7.49 3.09 115.92 115.92 0 0 0 6.69-10.78c1-1.91 1.91-3.87 2.81-5.84a85.81 85.81 0 0 1 4.52-8.85l-5.79-3.5a24 24 0 0 0 -3.17 4.94 1.37 1.37 0 0 1 -1 .78 1.45 1.45 0 0 1 -1.24-.4 72.22 72.22 0 0 1 -5-5.87l-4.1 6.24a76.92 76.92 0 0 0 7.08 5.42 2 2 0 0 1 .73 2.85 57.73 57.73 0 0 1 -6.93 9.64l-1 1.1z"></path>
    <path d="m294.07 275.85-.36-3.51a13 13 0 0 0 -1.5-5.67 1.72 1.72 0 0 0 -1.43-.92 3.27 3.27 0 0 0 -1.17.41c-.33.25-1.2.15-1.67.1-.07 0-.26 0-.27 0 0-.11 0-.32-.05-.4a4.75 4.75 0 0 1 0-1.47 2.66 2.66 0 0 1 1.38-1.39 12.26 12.26 0 0 1 1.76-.72l1-.38a2 2 0 0 0 1.05-.85 1.94 1.94 0 0 0 .22-1.17l-.74-8.94a1.36 1.36 0 0 0 -1.52-1.28h-.24a1.25 1.25 0 0 0 -.34 0c-4.41.4-7.94 1.79-10.49 4.13a15.94 15.94 0 0 0 -1.65 1.85 2 2 0 0 1 2.53 1.38 11.28 11.28 0 0 1 1-1.16 14.69 14.69 0 0 1 8-3.31l.57 6.91-.37.13a14.67 14.67 0 0 0 -2.16.9 5.34 5.34 0 0 0 -2.76 3.14 6.89 6.89 0 0 0 -.11 2.49 3.21 3.21 0 0 0 .83 2.12 3.18 3.18 0 0 0 2 .79 6.37 6.37 0 0 0 2.61-.1 14.71 14.71 0 0 1 .7 3.67l.35 3.52c0 .08 0 .31-.08.27a15.91 15.91 0 0 1 -3.65.55 18.74 18.74 0 0 1 -6.24-.51 7.5 7.5 0 0 1 -4.46-3.31 8.55 8.55 0 0 1 -.92-3.58c0-.28 0-.53 0-.81-.46.78-1.16 1.36-1.59 2.16a1.65 1.65 0 0 1 -.9.79 10.44 10.44 0 0 0 .95 2.81 10.31 10.31 0 0 0 6.11 4.63 18 18 0 0 0 5.23.68c.7 0 1.37 0 2-.06a18 18 0 0 0 4.32-.66 3 3 0 0 0 1.61-1 3.1 3.1 0 0 0 .45-2.23z"></path>
    <path d="m308.61 275.58s-.18 0-.43-.19a2.18 2.18 0 0 1 -.69-.4 4.77 4.77 0 0 1 -.48-.52c-2.85-.39-5.71-.85-8.53-1.41l-1.76-.34-.44-20.67 5.55.32a64.79 64.79 0 0 0 -2.32 14.17 1.82 1.82 0 0 0 1.37 2.09 24.73 24.73 0 0 0 3.23.75 1.68 1.68 0 0 1 .09-1c-.18-.53-.35-1.06-.52-1.55a1.64 1.64 0 0 1 -.07-.48c-.41-.09-.84-.13-1.24-.24.43-4.92.94-10 2.72-14.57a1.4 1.4 0 0 0 -1.23-1.91l-7.95-.44a1.22 1.22 0 0 0 -1.1-.51 1.41 1.41 0 0 0 -1.38 1.44l.49 22.92a2.18 2.18 0 0 0 .34 1.21 2 2 0 0 0 .88.72 11.47 11.47 0 0 0 2.8.83c3.28.64 6.62 1.18 9.94 1.6h.35a1.75 1.75 0 0 0 1.32-.52 1.62 1.62 0 0 0 .3-.49 1.74 1.74 0 0 1 -1.24-.81z"></path>
    <path d="m314.83 280.17a10.94 10.94 0 0 1 -1.12-.06 14.13 14.13 0 0 1 -8.89-4.1 11.13 11.13 0 0 1 -2.54-4.05 17.9 17.9 0 0 1 -.73-5.23l-.07-1.63a12.23 12.23 0 0 1 .5-5.18 9.45 9.45 0 0 1 2.75-3.64 9.62 9.62 0 0 1 3.68-2.18 11 11 0 0 1 3.48-.32 10.76 10.76 0 0 1 4.82 1.08c2.64 1.43 3.91 4.24 4.89 6.77a2.82 2.82 0 0 1 -2.2 4.34q-4.62.88-9.28 1.72a3.55 3.55 0 0 0 1.68 1.36 1.36 1.36 0 0 0 .75.1 2 2 0 0 1 .74-1.48 2.55 2.55 0 0 1 1.07-.35c2.21-.1 4.48-.1 6.72 0a1.4 1.4 0 0 1 1.3 1.1 11.89 11.89 0 0 1 -.25 6.5 7.81 7.81 0 0 1 -4.81 4.87 8 8 0 0 1 -2.49.38zm-3.72-23.6a6.71 6.71 0 0 0 -1.91.23 6.92 6.92 0 0 0 -2.61 1.6 6.59 6.59 0 0 0 -2 2.55 9.74 9.74 0 0 0 -.31 4l.08 1.69a15.14 15.14 0 0 0 .56 4.41 8.38 8.38 0 0 0 1.91 3 11.51 11.51 0 0 0 7.13 3.27 6.45 6.45 0 0 0 2.5-.19 5.05 5.05 0 0 0 3-3.14 8.28 8.28 0 0 0 .33-3.9c-1.53 0-3.07 0-4.6 0a2.8 2.8 0 0 1 -1.88 1.76 4 4 0 0 1 -2.5-.17 6.3 6.3 0 0 1 -3.87-4.3 1.4 1.4 0 0 1 .53-1.47l.83-.62a1.29 1.29 0 0 1 .59-.25q5-.89 10-1.84l.29-.07a2.93 2.93 0 0 1 -.2-.49c-.83-2.15-1.8-4.34-3.61-5.31a8.14 8.14 0 0 0 -3.58-.75zm-2 7.9a1.42 1.42 0 0 1 -1-.4 1.44 1.44 0 0 1 -.37-1.38l.33-1.19v-.06a4.48 4.48 0 0 1 1.64-2.52 3.53 3.53 0 0 1 2.33-.48 4.28 4.28 0 0 1 3.42 2.72 1.53 1.53 0 0 1 -1.15 2.1c-1.61.3-3.23.69-4.85 1.16a1.74 1.74 0 0 1 -.36.05z"></path>
    <path d="m340.91 268.37a6.68 6.68 0 0 0 -3.24-2.95 18.68 18.68 0 0 0 -2.72-1l-.8-.24a26.85 26.85 0 0 1 -3.75-1.49 1.4 1.4 0 0 0 .76-.56l8.34-4.13a1.39 1.39 0 0 0 .76-1.06 1.37 1.37 0 0 0 -.45-1.23 34.18 34.18 0 0 0 -3.48-2.78 15.09 15.09 0 0 0 -10.26-3.1 10.75 10.75 0 0 0 -3 .4 8.79 8.79 0 0 0 -4.84 4.17 8.89 8.89 0 0 0 -.53 1.24 1.41 1.41 0 0 1 .24.13 10.83 10.83 0 0 1 2 1.81 7 7 0 0 1 .72-1.78 6.07 6.07 0 0 1 3.24-2.89 8.31 8.31 0 0 1 2.25-.27 14.83 14.83 0 0 1 4.3.42 14.46 14.46 0 0 1 4.29 2.18q.84.57 1.62 1.2l-6.48 3.28-.11.06-1.76-.8a2.67 2.67 0 0 0 -2-.19 2.19 2.19 0 0 0 -1.35 2.34 3.11 3.11 0 0 0 .82 1.69 9.13 9.13 0 0 0 2.42 1.8 29.76 29.76 0 0 0 5.45 2.32l.84.26a16.71 16.71 0 0 1 2.32.8 4.06 4.06 0 0 1 1.93 1.68 3.55 3.55 0 0 1 .29 1.82 7.38 7.38 0 0 1 -1.29 3.41 7.49 7.49 0 0 1 -2.69 2.59 7.83 7.83 0 0 1 -4.69.61 24 24 0 0 1 -5.13-1.57 5.38 5.38 0 0 1 -1.68-.9 2.85 2.85 0 0 1 -.72-1.72 9.28 9.28 0 0 1 .06-2.08l2.38-.07a3.93 3.93 0 0 0 3.79 2.95 1.91 1.91 0 0 0 1.78-2.78 12.77 12.77 0 0 0 -4.13-5.18c-.51-.41-1-.8-1.56-1.2a29.63 29.63 0 0 1 -2.66-2.2l-.06.27h.05a2.52 2.52 0 0 1 -.12.29 2.46 2.46 0 0 1 -.26.62 3.75 3.75 0 0 1 -1.11 1.26c.81.72 1.64 1.39 2.47 2 .5.38 1 .75 1.48 1.14l-2.76.08a2.12 2.12 0 0 0 -1.08.29 2.26 2.26 0 0 0 -1 1.78 14 14 0 0 0 -.11 3.12 5.56 5.56 0 0 0 1.55 3.4 7.23 7.23 0 0 0 2.62 1.51 26.26 26.26 0 0 0 5.75 1.74 13.69 13.69 0 0 0 1.89.14 9.72 9.72 0 0 0 4.53-1 10.24 10.24 0 0 0 3.72-3.54 10.05 10.05 0 0 0 1.74-4.73 6.18 6.18 0 0 0 -.58-3.36z"></path>
  </g>
</svg>
