<?xml version="1.0" encoding="UTF-8"?>
<svg xmlns="http://www.w3.org/2000/svg" viewBox="0 0 600 600">
  <path d="m89.32 217.12h421.35v269.7h-421.35z" fill="#fff"></path>
  <path d="m159.82 249.71h11.64v13.09h-11.64z" fill="#ffde00"></path>
  <path d="m177.79 249.71h11.64v13.09h-11.64z" fill="#ffde00"></path>
  <path d="m195.77 249.71h11.64v13.09h-11.64z" fill="#ffde00"></path>
  <path d="m220.61 249.71h11.64v13.09h-11.64z" fill="#ffde00"></path>
  <path d="m104.24 396.67h55.7v14.1h-55.7z" fill="#ffde00"></path>
  <path d="m57.73 432.89h82.43v9.99h-82.43z" fill="#ffde00" transform="matrix(0 1 -1 0 536.83 338.94)"></path>
  <path d="m123.72 432.89h82.43v9.99h-82.43z" fill="#ffde00" transform="matrix(0 1 -1 0 602.82 272.95)"></path>
  <path d="m104.24 410.77h55.7v27.6h-55.7z" fill="#ffde00"></path>
  <path d="m104.24 438.07h55.7v27.6h-55.7z" fill="#ffde00"></path>
  <path d="m104.24 465.67h55.7v14.1h-55.7z" fill="#ffde00"></path>
  <path d="m146.06 276a.58.58 0 0 0 -.42.62v3a.55.55 0 0 0 .47.61h.13a1.94 1.94 0 0 1 -.43.83 7 7 0 0 1 -1.29 1.13 6.83 6.83 0 0 0 -1.52 1.41 4.49 4.49 0 0 0 -.79 2.55v14.16a2.45 2.45 0 0 0 2.09 2.68h11.16a2.45 2.45 0 0 0 2.09-2.68v-14.12a4.33 4.33 0 0 0 -.78-2.54 6.7 6.7 0 0 0 -1.5-1.43 7.06 7.06 0 0 1 -1.29-1.14 2 2 0 0 1 -.42-.84h.16a.56.56 0 0 0 .48-.61v-3a.7.7 0 0 0 -.14-.44.43.43 0 0 0 -.34-.19h-7.69z" fill="#ffde00" fill-rule="evenodd"></path>
  <path d="m232 320.13a.58.58 0 0 0 -.43.61v3a.56.56 0 0 0 .48.61h.13a2.06 2.06 0 0 1 -.43.83 7 7 0 0 1 -1.29 1.13 6.6 6.6 0 0 0 -1.51 1.41 4.48 4.48 0 0 0 -.79 2.54v14.16a2.45 2.45 0 0 0 2.09 2.69h11.16a2.45 2.45 0 0 0 2.09-2.69v-14.08a4.3 4.3 0 0 0 -.78-2.53 6.7 6.7 0 0 0 -1.5-1.43 7.06 7.06 0 0 1 -1.29-1.14 2.08 2.08 0 0 1 -.42-.84h.16a.56.56 0 0 0 .48-.61v-3a.74.74 0 0 0 -.14-.44.42.42 0 0 0 -.34-.18h-7.67z" fill="#ffde00" fill-rule="evenodd"></path>
  <path d="m367.73 394.48h11.64v13.09h-11.64z" fill="#ffde00"></path>
  <path d="m392.57 394.48h11.64v13.09h-11.64z" fill="#ffde00"></path>
  <path d="m386.73 346.25a1.78 1.78 0 0 1 -1.51-1.95v-10.3a3.19 3.19 0 0 1 .57-1.84 4.73 4.73 0 0 1 1.1-1 5.6 5.6 0 0 0 .94-.83 1.59 1.59 0 0 0 .31-.59h-.14c-.19 0-.34-.2-.34-.45v-2.2a.4.4 0 0 1 .3-.44h4.27v-.17a5.72 5.72 0 0 0 -1-3.35 8.8 8.8 0 0 0 -2-1.89 9.19 9.19 0 0 1 -1.7-1.51 2.72 2.72 0 0 1 -.56-1.11h.21a.74.74 0 0 0 .64-.81v-4a1 1 0 0 0 -.19-.58.57.57 0 0 0 -.45-.24h-10.11a.76.76 0 0 0 -.57.81v4a.74.74 0 0 0 .64.81h.17a2.82 2.82 0 0 1 -.57 1.1 9.56 9.56 0 0 1 -1.71 1.49 8.68 8.68 0 0 0 -2 1.87 5.74 5.74 0 0 0 -1.05 3.36v18.74c0 1.95 1.24 3.56 2.76 3.56h14.76a3 3 0 0 0 2.6-2.5z" fill="#ffde00" fill-rule="evenodd"></path>
  <path d="m176.42 426.44h8.13v64.13h-8.13z" fill="#ffde00"></path>
  <path d="m231.09 426.44h8.13v64.13h-8.13z" fill="#ffde00"></path>
  <path d="m184.55 426.4h46.54v9.17h-46.54z" fill="#ffde00"></path>
  <path d="m184.55 435.57h46.54v18.33h-46.54z" fill="#ffde00"></path>
  <path d="m184.55 453.9h46.54v9.17h-46.54z" fill="#ffde00"></path>
  <path d="m184.55 463.07h46.54v18.33h-46.54z" fill="#ffde00"></path>
  <path d="m184.55 481.41h46.54v9.17h-46.54z" fill="#ffde00"></path>
  <path d="m295.61 426.42h8.13v64.13h-8.13z" fill="#ffde00"></path>
  <path d="m350.28 426.42h8.13v64.13h-8.13z" fill="#ffde00"></path>
  <path d="m303.74 426.38h46.54v9.17h-46.54z" fill="#ffde00"></path>
  <path d="m303.74 435.55h46.54v18.33h-46.54z" fill="#ffde00"></path>
  <path d="m303.74 453.88h46.54v9.17h-46.54z" fill="#ffde00"></path>
  <path d="m303.74 463.05h46.54v18.33h-46.54z" fill="#ffde00"></path>
  <path d="m303.74 481.39h46.54v9.17h-46.54z" fill="#ffde00"></path>
  <path d="m410.15 426.42h8.13v64.13h-8.13z" fill="#ffde00"></path>
  <path d="m464.82 426.42h8.13v64.13h-8.13z" fill="#ffde00"></path>
  <path d="m418.28 426.38h46.54v9.17h-46.54z" fill="#ffde00"></path>
  <path d="m418.28 435.55h46.54v18.33h-46.54z" fill="#ffde00"></path>
  <path d="m418.28 453.88h46.54v9.17h-46.54z" fill="#ffde00"></path>
  <path d="m418.28 463.05h46.54v18.33h-46.54z" fill="#ffde00"></path>
  <path d="m418.28 481.39h46.54v9.17h-46.54z" fill="#ffde00"></path>
  <path d="m488.81 326.66a.42.42 0 0 0 -.31.44v2.2a.41.41 0 0 0 .35.45h.09a1.35 1.35 0 0 1 -.31.59 4.91 4.91 0 0 1 -.94.83 4.91 4.91 0 0 0 -1.09 1 3.19 3.19 0 0 0 -.6 1.83v10.3a1.78 1.78 0 0 0 1.51 1.95h8.09a1.78 1.78 0 0 0 1.52-1.95v-10.24a3.18 3.18 0 0 0 -.56-1.83 5.08 5.08 0 0 0 -1.1-1 5.15 5.15 0 0 1 -.93-.83 1.36 1.36 0 0 1 -.3-.6h.11a.41.41 0 0 0 .35-.45v-2.19a.49.49 0 0 0 -.1-.32.28.28 0 0 0 -.24-.13h-5.58z" fill="#00ab81" fill-rule="evenodd"></path>
  <path d="m471.08 326.66a.41.41 0 0 0 -.31.44v2.2a.4.4 0 0 0 .35.45h.09a1.46 1.46 0 0 1 -.31.59 5.23 5.23 0 0 1 -.94.83 4.51 4.51 0 0 0 -1.09 1 3.19 3.19 0 0 0 -.58 1.84v10.29a1.79 1.79 0 0 0 1.52 1.95h8.09a1.79 1.79 0 0 0 1.52-1.95v-10.24a3.18 3.18 0 0 0 -.57-1.83 4.83 4.83 0 0 0 -1.09-1 5.23 5.23 0 0 1 -.94-.83 1.61 1.61 0 0 1 -.3-.6h.11a.4.4 0 0 0 .35-.45v-2.19a.55.55 0 0 0 -.1-.32.31.31 0 0 0 -.25-.13h-5.57z" fill="#00ab81" fill-rule="evenodd"></path>
  <path d="m84.39 223.7h9.56v255.41h-9.56z" fill="#00ab81"></path>
  <path d="m506.05 223.7h9.56v256.09h-9.56z" fill="#00ab81"></path>
  <path d="m84.39 154.14v69.56h431.22v-69.56zm414.07 56.74h-396.91v-44.75h396.91z" fill="#00ab81"></path>
  <path d="m211.5 386.87a.43.43 0 0 0 -.31.45v2.2a.41.41 0 0 0 .35.44h.09a1.43 1.43 0 0 1 -.31.6 4.85 4.85 0 0 1 -.94.82 5.17 5.17 0 0 0 -1.09 1 3.23 3.23 0 0 0 -.57 1.85v10.26a1.78 1.78 0 0 0 1.51 2h8.09a1.78 1.78 0 0 0 1.52-2v-10.21a3.14 3.14 0 0 0 -.57-1.84 4.77 4.77 0 0 0 -1.09-1 5.18 5.18 0 0 1 -.93-.83 1.54 1.54 0 0 1 -.31-.61h.12a.41.41 0 0 0 .35-.44v-2.2a.48.48 0 0 0 -.1-.31.3.3 0 0 0 -.25-.14h-5.56z" fill="#00ab81" fill-rule="evenodd"></path>
  <path d="m121.6 276a.59.59 0 0 0 -.43.62v3a.56.56 0 0 0 .48.61h.13a2.06 2.06 0 0 1 -.43.83 7.48 7.48 0 0 1 -1.3 1.13 7 7 0 0 0 -1.5 1.41 4.49 4.49 0 0 0 -.8 2.55v14.16a2.46 2.46 0 0 0 2.09 2.68h11.16a2.45 2.45 0 0 0 2.09-2.68v-14.12a4.48 4.48 0 0 0 -.78-2.54 7 7 0 0 0 -1.51-1.43 7.41 7.41 0 0 1 -1.29-1.14 2.15 2.15 0 0 1 -.42-.84h.16a.55.55 0 0 0 .48-.61v-3a.64.64 0 0 0 -.13-.44.45.45 0 0 0 -.35-.19z" fill="#00ab81" fill-rule="evenodd"></path>
  <path d="m189.76 276a.59.59 0 0 0 -.43.62v3a.55.55 0 0 0 .48.61h.13a2.06 2.06 0 0 1 -.43.83 7.48 7.48 0 0 1 -1.3 1.13 6.59 6.59 0 0 0 -1.5 1.41 4.42 4.42 0 0 0 -.8 2.55v14.16a2.46 2.46 0 0 0 2.09 2.69h11.17a2.46 2.46 0 0 0 2.09-2.68v-14.13a4.48 4.48 0 0 0 -.78-2.54 7 7 0 0 0 -1.51-1.43 7.41 7.41 0 0 1 -1.29-1.14 2.15 2.15 0 0 1 -.42-.84h.16a.55.55 0 0 0 .48-.61v-3a.7.7 0 0 0 -.14-.44.43.43 0 0 0 -.34-.19h-7.68z" fill="#00ab81" fill-rule="evenodd"></path>
  <path d="m202.78 320.13a.57.57 0 0 0 -.43.61v3a.55.55 0 0 0 .48.61h.17a2.2 2.2 0 0 1 -.43.83 7.48 7.48 0 0 1 -1.3 1.13 6.57 6.57 0 0 0 -1.5 1.41 4.48 4.48 0 0 0 -.8 2.54v14.16a2.46 2.46 0 0 0 2.09 2.69h11.17a2.46 2.46 0 0 0 2.09-2.69v-14.08a4.44 4.44 0 0 0 -.78-2.53 7 7 0 0 0 -1.51-1.43 7.41 7.41 0 0 1 -1.29-1.14 2.22 2.22 0 0 1 -.42-.84h.16a.55.55 0 0 0 .48-.61v-3a.74.74 0 0 0 -.13-.44.44.44 0 0 0 -.35-.18h-7.68z" fill="#00ab81" fill-rule="evenodd"></path>
  <path d="m173.58 320.13a.57.57 0 0 0 -.42.61v3a.55.55 0 0 0 .47.61h.13a2.18 2.18 0 0 1 -.42.83 7.48 7.48 0 0 1 -1.3 1.13 6.6 6.6 0 0 0 -1.51 1.41 4.48 4.48 0 0 0 -.79 2.54v14.16a2.45 2.45 0 0 0 2.09 2.69h11.17a2.45 2.45 0 0 0 2.09-2.69v-14.08a4.3 4.3 0 0 0 -.78-2.53 6.7 6.7 0 0 0 -1.5-1.43 7.06 7.06 0 0 1 -1.29-1.14 2.08 2.08 0 0 1 -.42-.84h.16a.56.56 0 0 0 .48-.61v-3a.74.74 0 0 0 -.14-.44.42.42 0 0 0 -.34-.18h-7.69z" fill="#00ab81" fill-rule="evenodd"></path>
  <path d="m353.28 289.42h11.64v13.09h-11.64z" fill="#00ab81"></path>
  <path d="m371.26 289.42h11.64v13.09h-11.64z" fill="#00ab81"></path>
  <path d="m101.55 166.13h396.91v44.75h-396.91z" fill="#fb715d"></path>
  <path d="m451.92 262.79h7.63v-13.16l-2-6.16v-5.05h-3.71v5.05l-2 6.16z" fill="#fb715d"></path>
  <path d="m465.65 262.79h7.63v-13.16l-2-6.16v-5.05h-3.71v5.05l-2 6.16z" fill="#fb715d"></path>
  <path d="m105.24 262.79h7.63v-13.16l-2-6.16v-5.05h-3.7v5.05l-2 6.16z" fill="#fb715d"></path>
  <path d="m119 262.79h7.63v-13.16l-2-6.16v-5.05h-3.71v5.05l-2 6.16z" fill="#fb715d"></path>
  <path d="m473.26 479.79h42.35v10.77h-42.35z" fill="#fb715d"></path>
  <path d="m358.41 479.79h51.74v10.77h-51.74z" fill="#fb715d"></path>
  <path d="m239.22 479.79h56.4v10.77h-56.4z" fill="#fb715d"></path>
  <path d="m84.39 479.79h92.03v10.77h-92.03z" fill="#fb715d"></path>
  <path d="m309 406.49a.41.41 0 0 0 -.31.45v2.19c0 .25.15.45.34.45h.1a1.63 1.63 0 0 1 -.31.6 5.63 5.63 0 0 1 -.94.82 4.51 4.51 0 0 0 -1.09 1 3.16 3.16 0 0 0 -.58 1.85v10.27a1.78 1.78 0 0 0 1.51 1.95h8.1a1.78 1.78 0 0 0 1.51-1.95v-10.23a3.19 3.19 0 0 0 -.56-1.84 5.28 5.28 0 0 0 -1.09-1 5.23 5.23 0 0 1 -.94-.83 1.48 1.48 0 0 1 -.3-.6h.11a.41.41 0 0 0 .35-.45v-2.19a.58.58 0 0 0 -.1-.32.34.34 0 0 0 -.25-.13h-5.55z" fill="#fb715d" fill-rule="evenodd"></path>
  <path d="m329.64 406.49a.41.41 0 0 0 -.3.45v2.19c0 .25.15.45.34.45h.1a1.63 1.63 0 0 1 -.31.6 6.06 6.06 0 0 1 -.94.82 4.73 4.73 0 0 0 -1.1 1 3.23 3.23 0 0 0 -.57 1.85v10.27a1.78 1.78 0 0 0 1.51 1.95h8.1a1.78 1.78 0 0 0 1.51-1.95v-10.23a3.19 3.19 0 0 0 -.56-1.84 5.08 5.08 0 0 0 -1.1-1 5.51 5.51 0 0 1 -.93-.83 1.36 1.36 0 0 1 -.3-.6h.11a.41.41 0 0 0 .35-.45v-2.19a.46.46 0 0 0 -.1-.32.31.31 0 0 0 -.24-.13h-5.58z" fill="#fb715d" fill-rule="evenodd"></path>
  <path d="m192.94 386.87a.43.43 0 0 0 -.31.45v2.2a.4.4 0 0 0 .35.44h.09a1.43 1.43 0 0 1 -.31.6 4.85 4.85 0 0 1 -.94.82 4.94 4.94 0 0 0 -1.09 1 3.23 3.23 0 0 0 -.58 1.85v10.26a1.79 1.79 0 0 0 1.52 2h8.09a1.78 1.78 0 0 0 1.51-2v-10.21a3.22 3.22 0 0 0 -.56-1.84 4.77 4.77 0 0 0 -1.09-1 5.65 5.65 0 0 1 -.94-.83 1.66 1.66 0 0 1 -.3-.61h.11a.4.4 0 0 0 .35-.44v-2.2a.55.55 0 0 0 -.1-.31.33.33 0 0 0 -.25-.14h-5.57z" fill="#fb715d" fill-rule="evenodd"></path>
  <path d="m230.07 386.87a.42.42 0 0 0 -.31.45v2.2a.4.4 0 0 0 .34.44h.1a1.56 1.56 0 0 1 -.31.6 5.16 5.16 0 0 1 -.94.82 5.21 5.21 0 0 0 -1.1 1 3.23 3.23 0 0 0 -.57 1.85v10.26a1.78 1.78 0 0 0 1.51 2h8.1a1.78 1.78 0 0 0 1.51-2v-10.21a3.22 3.22 0 0 0 -.56-1.84 5.22 5.22 0 0 0 -1.09-1 5.65 5.65 0 0 1 -.94-.83 1.52 1.52 0 0 1 -.3-.61h.11a.41.41 0 0 0 .35-.44v-2.2a.47.47 0 0 0 -.09-.31.33.33 0 0 0 -.25-.14h-5.57z" fill="#fb715d" fill-rule="evenodd"></path>
  <path d="m356.62 326.66a.41.41 0 0 0 -.31.44v2.2a.41.41 0 0 0 .35.45h.09a1.46 1.46 0 0 1 -.31.59 5.23 5.23 0 0 1 -.94.83 4.51 4.51 0 0 0 -1.09 1 3.27 3.27 0 0 0 -.58 1.84v10.29a1.79 1.79 0 0 0 1.52 1.95h8.09a1.79 1.79 0 0 0 1.56-1.95v-10.24a3.18 3.18 0 0 0 -.57-1.83 4.83 4.83 0 0 0 -1.09-1 4.83 4.83 0 0 1 -.93-.83 1.5 1.5 0 0 1 -.31-.6h.12c.19 0 .34-.2.34-.45v-2.19a.55.55 0 0 0 -.1-.32.31.31 0 0 0 -.25-.13h-5.57z" fill="#fb715d" fill-rule="evenodd"></path>
  <path d="m388 326.66a.4.4 0 0 0 -.3.44v2.2c0 .25.15.45.34.45h.1a1.59 1.59 0 0 1 -.31.59 5.6 5.6 0 0 1 -.94.83 4.73 4.73 0 0 0 -1.1 1 3.19 3.19 0 0 0 -.57 1.84v10.29a1.78 1.78 0 0 0 1.51 1.95h8.1a1.78 1.78 0 0 0 1.51-1.95v-10.24a3.18 3.18 0 0 0 -.56-1.83 5.08 5.08 0 0 0 -1.1-1 5.51 5.51 0 0 1 -.93-.83 1.36 1.36 0 0 1 -.3-.6h.11a.41.41 0 0 0 .35-.45v-2.19a.44.44 0 0 0 -.1-.32.28.28 0 0 0 -.24-.13h-5.57z" fill="#fb715d" fill-rule="evenodd"></path>
  <g fill="#1c19a8">
    <path d="m169.55 194.75h-2.14l-1.88-3.61h-1.53v2.27h1.07v1.34h-3.69v-1.34h1.06v-6.41h-1.06v-1.34h4.07a3.89 3.89 0 0 1 2.54.71 2.48 2.48 0 0 1 .84 2 2.59 2.59 0 0 1 -.48 1.57 2.64 2.64 0 0 1 -1.35.93l1.4 2.6h1.12zm-2.35-6.4a1.26 1.26 0 0 0 -.45-1.09 2.75 2.75 0 0 0 -1.53-.31h-1.22v2.94h1.18a2.36 2.36 0 0 0 1.56-.4 1.48 1.48 0 0 0 .46-1.14z"></path>
    <path d="m169.65 194.84h-2.3l-1.88-3.61h-1.35v2.09h1.07v1.52h-3.87v-1.52h1.05v-6.32h-1.05v-1.52h4.16a4 4 0 0 1 2.6.73 2.56 2.56 0 0 1 .88 2.06 2.7 2.7 0 0 1 -.5 1.63 2.8 2.8 0 0 1 -1.29.93l1.31 2.45h1.17zm-2.18-.18h2v-1.15h-1.09l-1.44-2.7h.1a2.43 2.43 0 0 0 1.77-2.41 2.39 2.39 0 0 0 -.81-1.92 3.84 3.84 0 0 0 -2.48-.68h-4v1.14h1.05v6.66h-1.05v1.15h3.48v-1.15h-1.07v-2.6h1.66zm-2.26-4.66h-1.28v-3.13h1.29a2.78 2.78 0 0 1 1.59.34 1.31 1.31 0 0 1 .49 1.16 1.54 1.54 0 0 1 -.47 1.2 2.35 2.35 0 0 1 -1.62.43zm-1.09-.19h1.09a2.32 2.32 0 0 0 1.5-.37 1.43 1.43 0 0 0 .4-1.07 1.18 1.18 0 0 0 -.41-1 2.68 2.68 0 0 0 -1.48-.3h-1.1z"></path>
    <path d="m175.93 192.82a2.13 2.13 0 0 1 -.81 1.45 3 3 0 0 1 -2 .62 3.24 3.24 0 0 1 -2.27-.81 3.06 3.06 0 0 1 -.88-2.38 3.65 3.65 0 0 1 .81-2.42 2.87 2.87 0 0 1 5.11 1.79 4.3 4.3 0 0 1 -.09.84h-4.26c.09 1.18.65 1.77 1.69 1.77a1.37 1.37 0 0 0 1.05-.35 1.88 1.88 0 0 0 .41-.74zm-1.6-1.84a1.68 1.68 0 0 0 -.26-1.06 1.16 1.16 0 0 0 -1.06-.5 1.23 1.23 0 0 0 -1 .45 2.3 2.3 0 0 0 -.44 1.11z"></path>
    <path d="m173.1 195a3.35 3.35 0 0 1 -2.32-.83 3.17 3.17 0 0 1 -.92-2.45 3.81 3.81 0 0 1 .83-2.48 2.9 2.9 0 0 1 2.33-1 2.78 2.78 0 0 1 2.95 2.85 4.66 4.66 0 0 1 -.09.86v.05h-4.24c.11 1.07.63 1.59 1.59 1.59a1.28 1.28 0 0 0 1-.32 1.79 1.79 0 0 0 .39-.71v-.08l1.42.27v.08a2.22 2.22 0 0 1 -.84 1.51 3.1 3.1 0 0 1 -2.1.66zm-.08-6.57a2.69 2.69 0 0 0 -2.18.93 3.6 3.6 0 0 0 -.79 2.36 3 3 0 0 0 .85 2.31 3.19 3.19 0 0 0 2.2.79 2.93 2.93 0 0 0 2-.6 2.07 2.07 0 0 0 .77-1.3l-1.08-.21a2 2 0 0 1 -.41.7 1.44 1.44 0 0 1 -1.12.39c-1.09 0-1.69-.63-1.79-1.86v-.1h4.29a5.25 5.25 0 0 0 .06-.75 2.58 2.58 0 0 0 -2.76-2.66zm1.39 2.67h-3v-.1a2.37 2.37 0 0 1 .46-1.16 1.32 1.32 0 0 1 1.1-.48 1.25 1.25 0 0 1 1.14.54 1.74 1.74 0 0 1 .27 1.12zm-2.76-.19h2.59a1.6 1.6 0 0 0 -.24-.91 1.07 1.07 0 0 0 -1-.45 1.17 1.17 0 0 0 -1 .41 2.2 2.2 0 0 0 -.35.93z"></path>
    <path d="m180 184.94a4.58 4.58 0 0 1 .89.1 2.33 2.33 0 0 1 .85.42l.27 1.61-1.18.15-.29-1a1.65 1.65 0 0 0 -.58-.1c-.58 0-.87.37-.87 1.1v1.25h1.59v1.11h-1.59v4h1.19v1.15h-3.62v-1.13h.94v-4h-.83v-1.11h.83v-1a2.52 2.52 0 0 1 .64-1.74 2.26 2.26 0 0 1 1.76-.81z"></path>
    <path d="m180.4 194.84h-3.82v-1.34h.94v-3.86h-.83v-1.3h.83v-.94a2.65 2.65 0 0 1 .67-1.81 2.38 2.38 0 0 1 1.83-.74 4.22 4.22 0 0 1 .91.1 2.25 2.25 0 0 1 .89.44l.28 1.7-1.36.17-.3-1.06a1.74 1.74 0 0 0 -.5-.08c-.53 0-.77.32-.77 1v1.15h1.58v1.3h-1.58v3.86h1.19zm-3.63-.18h3.44v-1h-1.21v-4.23h1.59v-.93h-1.59v-1.34c0-1 .53-1.19 1-1.19a1.86 1.86 0 0 1 .61.1l.27 1 1-.12-.24-1.48a2.19 2.19 0 0 0 -.79-.37 3.91 3.91 0 0 0 -.85-.1 2.16 2.16 0 0 0 -1.69.69 2.44 2.44 0 0 0 -.62 1.68v1.13h-.83v.93h.83v4.23h-.94z"></path>
    <path d="m185 194.75h-3.37v-1.15h.94v-4h-1v-1.16h2.49v5.16h.94zm-2.51-7.62v-1.66h1.51v1.66z"></path>
    <path d="m185.1 194.84h-3.55v-1.34h.94v-3.8h-1v-1.36h2.67v5.16h.94zm-3.36-.18h3.17v-1h-.91v-5.16h-2.29v1h1v4.18h-.94zm2.38-7.43h-1.72v-1.85h1.72zm-1.53-.19h1.34v-1.47h-1.34z"></path>
    <path d="m188.92 194.75h-3.38v-1.15h.94v-7.37h-1v-1.15h2.52v8.52h.94z"></path>
    <path d="m189 194.84h-3.57v-1.34h.94v-7.18h-1v-1.32h2.68v8.52h1zm-3.38-.18h3.19v-1h-1v-8.52h-2.3v1h1v7.55h-.94z"></path>
    <path d="m192.83 194.75h-3.38v-1.15h.94v-7.37h-1v-1.15h2.49v8.52h.94z"></path>
    <path d="m192.92 194.84h-3.56v-1.34h.94v-7.18h-1v-1.32h2.7v8.52h.94zm-3.37-.18h3.18v-1h-.94v-8.52h-2.3v1h1v7.55h-.94z"></path>
    <path d="m201.85 192.87a1.68 1.68 0 0 1 -.81 1.5 3.7 3.7 0 0 1 -2.06.52 6.21 6.21 0 0 1 -1.35-.15 4.5 4.5 0 0 1 -1.23-.47l.22-1.63 1.18.11v.82a2.65 2.65 0 0 0 .57.15 3.74 3.74 0 0 0 .54.05 2.23 2.23 0 0 0 1-.21.64.64 0 0 0 .43-.61.58.58 0 0 0 -.38-.56 4.09 4.09 0 0 0 -1-.26 10 10 0 0 1 -1.15-.26 2.19 2.19 0 0 1 -1-.53 1.79 1.79 0 0 1 .46-2.62 4 4 0 0 1 1.76-.41 4.73 4.73 0 0 1 2.3.58l.16 1.56-1.18.14-.13-.94a3 3 0 0 0 -1.11-.21 1.39 1.39 0 0 0 -.73.17.59.59 0 0 0 -.31.56.57.57 0 0 0 .38.55 4.74 4.74 0 0 0 .94.24 11.44 11.44 0 0 1 1.13.25 2.2 2.2 0 0 1 .94.54 1.52 1.52 0 0 1 .43 1.12z"></path>
    <path d="m199 195a6.48 6.48 0 0 1 -1.38-.15 4.57 4.57 0 0 1 -1.25-.48h-.06v-.06l.24-1.72 1.36.13v.09.75a2.7 2.7 0 0 0 .49.12 3.79 3.79 0 0 0 .53 0 2.19 2.19 0 0 0 1-.19.56.56 0 0 0 .38-.53.49.49 0 0 0 -.33-.48 4.41 4.41 0 0 0 -.94-.25 8.37 8.37 0 0 1 -1.16-.26 2.17 2.17 0 0 1 -1-.55 1.57 1.57 0 0 1 -.42-1.19 1.6 1.6 0 0 1 .89-1.58 4.07 4.07 0 0 1 1.81-.42 5 5 0 0 1 2.35.59l.17 1.65-1.36.16v-.09l-.12-.89a3 3 0 0 0 -1-.18 1.35 1.35 0 0 0 -.69.16.51.51 0 0 0 -.25.48.46.46 0 0 0 .32.46 4 4 0 0 0 .92.24 9.19 9.19 0 0 1 1.14.26 2.31 2.31 0 0 1 1 .55 1.66 1.66 0 0 1 .4 1.19 1.78 1.78 0 0 1 -.85 1.58 3.88 3.88 0 0 1 -2.19.61zm-2.48-.76a4.14 4.14 0 0 0 1.15.42 6 6 0 0 0 1.33.16 3.61 3.61 0 0 0 2-.51 1.58 1.58 0 0 0 .76-1.42 1.45 1.45 0 0 0 -.34-1.06 2.18 2.18 0 0 0 -.91-.5 8 8 0 0 0 -1.11-.25 4.36 4.36 0 0 1 -1-.26.63.63 0 0 1 -.44-.63.69.69 0 0 1 .35-.64 1.48 1.48 0 0 1 .78-.19 3.26 3.26 0 0 1 1.15.22l.12.9 1-.11-.06-1.37a4.79 4.79 0 0 0 -2.22-.54 4 4 0 0 0 -1.73.39 1.43 1.43 0 0 0 -.78 1.42 1.38 1.38 0 0 0 .36 1.05 2.07 2.07 0 0 0 .93.51 9.8 9.8 0 0 0 1.14.17 3.68 3.68 0 0 1 1 .26.67.67 0 0 1 .45.65.75.75 0 0 1 -.49.7 2.41 2.41 0 0 1 -1 .21 4 4 0 0 1 -.55 0 2.43 2.43 0 0 1 -.6-.17h-.06v-.06-.73l-1-.1z"></path>
    <path d="m207.76 192.89a2 2 0 0 1 -2.21 2 2.33 2.33 0 0 1 -1.61-.53 1.91 1.91 0 0 1 -.6-1.49v-3.32h-.93v-1.11h.93v-2h1.5v2h2.35v1.11h-2.35v3.08c0 .66.29 1 .88 1a1 1 0 0 0 .53-.17c.2-.12.33-.42.41-.91z"></path>
    <path d="m205.55 195a2.4 2.4 0 0 1 -1.67-.55 2 2 0 0 1 -.63-1.56v-3.23h-.93v-1.3h.93v-2h1.69v2h2.35v1.3h-2.35v3c0 .61.24.9.78.9a.94.94 0 0 0 .48-.16c.17-.1.29-.39.36-.84v-.11l1.28.41v.08a2.1 2.1 0 0 1 -2.29 2.06zm-3-5.52h.93v3.41a1.84 1.84 0 0 0 .56 1.42 2.23 2.23 0 0 0 1.55.51 1.92 1.92 0 0 0 2.11-1.84l-.93-.3a1 1 0 0 1 -1 1.06c-.44 0-1-.19-1-1.09v-3.17h2.35v-.93h-2.35v-1.95h-1.31v1.95h-.93z"></path>
    <path d="m208.75 188.9a6.09 6.09 0 0 1 1.25-.46 5.31 5.31 0 0 1 1.26-.13 2.7 2.7 0 0 1 1.74.54 1.91 1.91 0 0 1 .68 1.6v2.84c0 .37.16.56.46.56a1.16 1.16 0 0 0 .33-.06v.83a1.93 1.93 0 0 1 -1 .27 1.18 1.18 0 0 1 -1.29-1.25 3 3 0 0 1 -.8.89 2 2 0 0 1 -1.27.39 2.41 2.41 0 0 1 -1.3-.4 1.51 1.51 0 0 1 -.64-1.4 1.49 1.49 0 0 1 .93-1.54 5.32 5.32 0 0 1 2-.37h.55l.52.05v-.36a2.53 2.53 0 0 0 -.2-1c-.13-.3-.46-.45-1-.45a4.92 4.92 0 0 0 -.56 0 1.85 1.85 0 0 0 -.5.17l-.25 1-1.21-.12zm3.43 3.35v-.25l-.49-.05a4.53 4.53 0 0 0 -.52 0 2.34 2.34 0 0 0 -1 .2.77.77 0 0 0 -.44.78c0 .57.3.86.91.86a1.61 1.61 0 0 0 1-.39 1.58 1.58 0 0 0 .54-1.15z"></path>
    <path d="m213.47 195a1.23 1.23 0 0 1 -1.36-1.1 2.92 2.92 0 0 1 -.67.69 2.13 2.13 0 0 1 -1.33.41 2.59 2.59 0 0 1 -1.35-.41 1.62 1.62 0 0 1 -.68-1.48 1.58 1.58 0 0 1 1-1.63 6.09 6.09 0 0 1 2.59-.36h.42v-.25a2.5 2.5 0 0 0 -.18-1q-.18-.39-.9-.39a3.12 3.12 0 0 0 -.54 0 1.5 1.5 0 0 0 -.44.14l-.26 1-1.39-.15v-.1l.27-1.62h.05a5.57 5.57 0 0 1 1.27-.47 5.48 5.48 0 0 1 1.28-.13 2.9 2.9 0 0 1 1.8.55 2 2 0 0 1 .72 1.68v2.84c0 .41.19.47.36.47a1.1 1.1 0 0 0 .31-.06h.11v1h-.05a2.05 2.05 0 0 1 -1.03.37zm-1.2-1.72v.38a1.09 1.09 0 0 0 1.2 1.16 1.93 1.93 0 0 0 .92-.23v-.66h-.24c-.25 0-.55-.11-.55-.65v-2.84a1.79 1.79 0 0 0 -.65-1.53 2.67 2.67 0 0 0 -1.68-.51 5.66 5.66 0 0 0 -1.24.12 5.9 5.9 0 0 0 -1.19.44l-.24 1.43 1 .1.24-.93a1.75 1.75 0 0 1 .53-.18 3.48 3.48 0 0 1 .57 0c.56 0 .92.17 1.07.51a2.64 2.64 0 0 1 .2 1v.46h-.1-.51-.55a5.27 5.27 0 0 0 -2 .37 1.38 1.38 0 0 0 -.87 1.45 1.42 1.42 0 0 0 .59 1.32 2.32 2.32 0 0 0 1.25.39 1.93 1.93 0 0 0 1.22-.38 2.85 2.85 0 0 0 .77-.86zm-1.64.61a.87.87 0 0 1 -1-1 .86.86 0 0 1 .49-.87 2.52 2.52 0 0 1 1-.2 4.7 4.7 0 0 1 .53 0h.31.26v.32a1.67 1.67 0 0 1 -1.64 1.61zm.54-1.84a2.47 2.47 0 0 0 -1 .19.69.69 0 0 0 -.38.7c0 .52.25.77.81.77a1.54 1.54 0 0 0 1-.37 1.45 1.45 0 0 0 .49-1.08v-.13h-.09-.32a4.07 4.07 0 0 0 -.51-.13z"></path>
    <path d="m220.2 192.89a2 2 0 0 1 -2.22 2 2.32 2.32 0 0 1 -1.6-.53 1.91 1.91 0 0 1 -.6-1.49v-3.32h-.93v-1.11h.93v-2h1.5v2h2.35v1.11h-2.35v3.08q0 1 .87 1a1.05 1.05 0 0 0 .54-.17 1.27 1.27 0 0 0 .4-.91z"></path>
    <path d="m218 195a2.4 2.4 0 0 1 -1.67-.55 2 2 0 0 1 -.63-1.56v-3.23h-.92v-1.3h.92v-2h1.7v2h2.34v1.3h-2.34v3c0 .61.24.9.77.9a1 1 0 0 0 .49-.16q.26-.15.36-.84v-.11l1.29.41v.08a2.12 2.12 0 0 1 -2.31 2.06zm-3-5.52h.92v3.41a1.82 1.82 0 0 0 .57 1.42 2.25 2.25 0 0 0 1.54.51 1.93 1.93 0 0 0 2.07-1.82l-.93-.3a1.22 1.22 0 0 1 -.44.87 1.17 1.17 0 0 1 -.58.19c-.44 0-1-.19-1-1.09v-3.17h2.34v-.93h-2.34v-1.95h-1.32v1.95h-.83z"></path>
    <path d="m224 194.75h-3.38v-1.15h.95v-4h-1v-1.16h2.48v5.16h.95zm-2.52-7.62v-1.66h1.52v1.66z"></path>
    <path d="m224.09 194.84h-3.56v-1.34h.94v-3.8h-1v-1.36h2.68v5.16h.94zm-3.37-.18h3.18v-1h-.9v-5.16h-2.3v1h1v4.18h-.94zm2.39-7.43h-1.72v-1.85h1.72zm-1.53-.19h1.34v-1.47h-1.34z"></path>
    <path d="m231.19 191.6a3.16 3.16 0 0 1 -.93 2.38 3.34 3.34 0 0 1 -2.43.91 3 3 0 0 1 -3.2-3.23 3.53 3.53 0 0 1 .83-2.37 3.56 3.56 0 0 1 4.92 0 3.55 3.55 0 0 1 .81 2.31zm-1.56 0a2.2 2.2 0 0 0 -.49-1.55 1.62 1.62 0 0 0 -1.25-.53 1.48 1.48 0 0 0 -1.25.57 2.37 2.37 0 0 0 -.45 1.52 2.57 2.57 0 0 0 .43 1.52 1.45 1.45 0 0 0 1.27.62 1.53 1.53 0 0 0 1.28-.6 2.5 2.5 0 0 0 .46-1.59z"></path>
    <path d="m227.83 195a3.11 3.11 0 0 1 -3.3-3.32 3.69 3.69 0 0 1 .85-2.43 3.67 3.67 0 0 1 5.07 0 3.64 3.64 0 0 1 .84 2.38 3.27 3.27 0 0 1 -1 2.45 3.43 3.43 0 0 1 -2.46.92zm.09-6.59a2.93 2.93 0 0 0 -2.39 1 3.53 3.53 0 0 0 -.8 2.31 2.91 2.91 0 0 0 3.1 3.14 3.23 3.23 0 0 0 2.36-.89 3.09 3.09 0 0 0 .91-2.31 3.45 3.45 0 0 0 -.8-2.26 2.92 2.92 0 0 0 -2.38-1.01zm0 5.41a1.55 1.55 0 0 1 -1.35-.66 2.72 2.72 0 0 1 -.45-1.57 2.5 2.5 0 0 1 .47-1.58 1.61 1.61 0 0 1 1.33-.61 1.76 1.76 0 0 1 1.33.57 2.3 2.3 0 0 1 .51 1.61 2.59 2.59 0 0 1 -.49 1.61 1.62 1.62 0 0 1 -1.38.61zm0-4.23a1.4 1.4 0 0 0 -1.18.54 2.27 2.27 0 0 0 -.43 1.46 2.48 2.48 0 0 0 .42 1.47 1.33 1.33 0 0 0 1.19.58 1.43 1.43 0 0 0 1.2-.57 2.34 2.34 0 0 0 .45-1.49 2.15 2.15 0 0 0 -.46-1.48 1.53 1.53 0 0 0 -1.22-.53z"></path>
    <path d="m239.63 194.75h-3.37v-1.15h.93v-2.48a1.92 1.92 0 0 0 -.32-1.27 1.13 1.13 0 0 0 -.9-.37 1.43 1.43 0 0 0 -1.13.46 1.69 1.69 0 0 0 -.43 1.14v2.52h.94v1.15h-3.35v-1.15h.95v-4h-1v-1.16h2.49v1a2.25 2.25 0 0 1 2.09-1.15 2.35 2.35 0 0 1 1.55.55 2.13 2.13 0 0 1 .64 1.71v3h.94z"></path>
    <path d="m239.73 194.84h-3.56v-1.34h.93v-2.38a1.88 1.88 0 0 0 -.3-1.21 1.08 1.08 0 0 0 -.83-.34 1.34 1.34 0 0 0 -1.06.44 1.55 1.55 0 0 0 -.41 1.07v2.42h.94v1.34h-3.57v-1.34h.94v-3.8h-1v-1.36h2.67v.81a2.34 2.34 0 0 1 2-.93 2.42 2.42 0 0 1 1.61.57 2.21 2.21 0 0 1 .68 1.78v2.93h.94zm-3.37-.18h3.18v-1h-.94v-3.12a2 2 0 0 0 -.61-1.64 2.24 2.24 0 0 0 -1.49-.52 2.16 2.16 0 0 0 -2 1.1l-.18.31v-1.29h-2.32v1h1v4.18h-.94v1h3.19v-1h-.94v-2.61a1.76 1.76 0 0 1 .46-1.2 1.52 1.52 0 0 1 1.2-.5 1.22 1.22 0 0 1 1 .41 2 2 0 0 1 .35 1.33v2.57h-.93z"></path>
    <path d="m240.65 190.43v-2h1.68v2zm0 4.32v-2h1.68v2z"></path>
    <path d="m242.42 194.84h-1.86v-2.18h1.86zm-1.67-.18h1.48v-1.81h-1.48zm1.67-4.13h-1.86v-2.19h1.86zm-1.67-.19h1.48v-1.81h-1.48z"></path>
    <path d="m250.25 188.34a2.17 2.17 0 0 1 1.18.35l.27 2-1.17.14-.24-1.08a1 1 0 0 0 -.48-.14.91.91 0 0 0 -.68.32 1.33 1.33 0 0 0 -.29.9v2.8h1.26v1.15h-3.7v-1.18h.94v-4h-1v-1.16h2.37v1.18a2.07 2.07 0 0 1 .55-.91 1.27 1.27 0 0 1 .99-.37z"></path>
    <path d="m250.19 194.84h-3.88v-1.34h.94v-3.8h-1v-1.36h2.57v.81a2.6 2.6 0 0 1 .38-.51 1.41 1.41 0 0 1 1-.39 2.26 2.26 0 0 1 1.23.36l.28 2.06-1.34.16-.25-1.12a1 1 0 0 0 -.4-.11.82.82 0 0 0 -.61.29 1.21 1.21 0 0 0 -.26.84v2.7h1.25zm-3.69-.18h3.5v-1h-1.25v-2.86a1.37 1.37 0 0 1 .31-1 1 1 0 0 1 .75-.36 1.06 1.06 0 0 1 .52.16l.22 1 1-.12-.25-1.83a2 2 0 0 0 -1.09-.32 1.23 1.23 0 0 0 -.91.35 2.07 2.07 0 0 0 -.52.87l-.18.59v-1.71h-2.19v1h1v4.18h-.94z"></path>
    <path d="m258.43 192.82a2.17 2.17 0 0 1 -.81 1.45 3 3 0 0 1 -2 .62 3.23 3.23 0 0 1 -2.26-.81 3.06 3.06 0 0 1 -.88-2.38 3.6 3.6 0 0 1 .81-2.42 2.86 2.86 0 0 1 5.1 1.79 4.25 4.25 0 0 1 -.08.84h-4.31c.09 1.18.65 1.77 1.69 1.77a1.38 1.38 0 0 0 1-.35 1.88 1.88 0 0 0 .41-.74zm-1.6-1.84a1.68 1.68 0 0 0 -.26-1.06 1.17 1.17 0 0 0 -1.06-.5 1.23 1.23 0 0 0 -1 .45 2.21 2.21 0 0 0 -.51 1.13z"></path>
    <path d="m255.6 195a3.33 3.33 0 0 1 -2.32-.83 3.15 3.15 0 0 1 -.92-2.45 3.81 3.81 0 0 1 .83-2.48 2.9 2.9 0 0 1 2.33-1 2.78 2.78 0 0 1 3 2.85 4.41 4.41 0 0 1 -.09.86v.05h-4.24c.11 1.07.63 1.59 1.59 1.59a1.28 1.28 0 0 0 1-.32 1.85 1.85 0 0 0 .39-.71v-.08l1.42.27v.08a2.26 2.26 0 0 1 -.84 1.51 3.1 3.1 0 0 1 -2.15.66zm-.08-6.57a2.68 2.68 0 0 0 -2.18.93 3.6 3.6 0 0 0 -.79 2.36 3 3 0 0 0 .85 2.31 3.16 3.16 0 0 0 2.2.79 2.9 2.9 0 0 0 2-.6 2.09 2.09 0 0 0 .78-1.3l-1.09-.21a1.79 1.79 0 0 1 -.41.7 1.4 1.4 0 0 1 -1.11.39c-1.09 0-1.69-.63-1.79-1.86v-.1h4.28a4 4 0 0 0 .07-.75 2.67 2.67 0 0 0 -.75-1.91 2.7 2.7 0 0 0 -2.06-.77zm1.39 2.67h-3v-.1a2.37 2.37 0 0 1 .46-1.16 1.32 1.32 0 0 1 1.1-.48 1.25 1.25 0 0 1 1.14.54 1.72 1.72 0 0 1 .27 1.12zm-2.76-.19h2.59a1.6 1.6 0 0 0 -.25-.92 1.07 1.07 0 0 0 -1-.45 1.17 1.17 0 0 0 -1 .41 2.2 2.2 0 0 0 -.34.94z"></path>
    <path d="m266.5 194.75h-2.44v-1.21a2.68 2.68 0 0 1 -.8 1 2.21 2.21 0 0 1 -1.39.4 2.46 2.46 0 0 1 -2-.84 3.48 3.48 0 0 1 -.72-2.32 4.23 4.23 0 0 1 .68-2.38 2.4 2.4 0 0 1 2.15-1 2.34 2.34 0 0 1 1.25.31 2 2 0 0 1 .79.8v-3.19h-1.32v-1.15h2.87v8.52h.93zm-2.44-3v-.47a1.71 1.71 0 0 0 -.47-1.26 1.59 1.59 0 0 0 -1.14-.46 1.51 1.51 0 0 0 -1.23.57 2.33 2.33 0 0 0 -.47 1.55 2.15 2.15 0 0 0 .47 1.52 1.51 1.51 0 0 0 2.37-.11 2.23 2.23 0 0 0 .47-1.38z"></path>
    <path d="m261.87 195a2.55 2.55 0 0 1 -2-.87 3.59 3.59 0 0 1 -.74-2.38 4.36 4.36 0 0 1 .69-2.44 2.49 2.49 0 0 1 2.23-1.07 2.41 2.41 0 0 1 1.3.32 2.11 2.11 0 0 1 .65.57v-2.79h-1.36v-1.34h3.06v8.52h.92v1.34h-2.62v-1a3 3 0 0 1 -.65.68 2.29 2.29 0 0 1 -1.48.46zm.15-6.57a2.3 2.3 0 0 0 -2.07 1 4.13 4.13 0 0 0 -.66 2.33 3.41 3.41 0 0 0 .71 2.24 2.41 2.41 0 0 0 1.89.81 2.15 2.15 0 0 0 1.34-.39 2.66 2.66 0 0 0 .77-.91l.18-.35v1.51h2.24v-1h-.92v-8.52h-2.7v1h1.36v3.65l-.18-.32a2 2 0 0 0 -.75-.77 2.31 2.31 0 0 0 -1.23-.3zm.33 5.37a1.56 1.56 0 0 1 -1.2-.56 2.25 2.25 0 0 1 -.5-1.58 2.42 2.42 0 0 1 .5-1.61 1.71 1.71 0 0 1 2.5-.11 1.81 1.81 0 0 1 .51 1.31v.49a2.38 2.38 0 0 1 -.5 1.38 1.53 1.53 0 0 1 -1.31.66zm.1-4.17a1.4 1.4 0 0 0 -1.15.54 2.2 2.2 0 0 0 -.46 1.49 2.08 2.08 0 0 0 .45 1.46 1.4 1.4 0 0 0 1.06.49 1.36 1.36 0 0 0 1.16-.6 2.18 2.18 0 0 0 .46-1.28v-.47a1.65 1.65 0 0 0 -.45-1.19 1.45 1.45 0 0 0 -1.07-.46z"></path>
    <path d="m274.58 194.75h-2.49v-1.06a2.17 2.17 0 0 1 -2.08 1.19 2.3 2.3 0 0 1 -1.55-.55 2.09 2.09 0 0 1 -.66-1.72v-3h-.94v-1.15h2.44v3.62a2 2 0 0 0 .33 1.28 1.16 1.16 0 0 0 .91.37 1.37 1.37 0 0 0 1.12-.49 1.81 1.81 0 0 0 .43-1.17v-2.46h-1.09v-1.15h2.63v5.16h1z"></path>
    <path d="m270 195a2.45 2.45 0 0 1 -1.61-.56 2.2 2.2 0 0 1 -.69-1.8v-2.93h-.94v-1.34h2.63v3.73a1.85 1.85 0 0 0 .3 1.2 1 1 0 0 0 .84.35 1.28 1.28 0 0 0 1-.46 1.7 1.7 0 0 0 .4-1.11v-2.37h-1.12v-1.34h2.81v5.16h1v1.34h-2.62v-.87a2.28 2.28 0 0 1 -2 1zm-3-5.5h.94v3.11a2 2 0 0 0 .61 1.65 2.26 2.26 0 0 0 1.5.52 2.05 2.05 0 0 0 2-1.13l.18-.33v1.34h2.3v-1h-1v-5.16h-2.43v1h1.12v2.55a1.93 1.93 0 0 1 -.44 1.23 1.5 1.5 0 0 1 -1.2.52 1.22 1.22 0 0 1 -1-.4 2.06 2.06 0 0 1 -.35-1.33v-3.54h-2.23z"></path>
    <path d="m281 192.49a3.05 3.05 0 0 1 -.74 1.62 2.55 2.55 0 0 1 -2.08.78 3 3 0 0 1 -2.2-.82 3.11 3.11 0 0 1 -.85-2.37 3.42 3.42 0 0 1 .88-2.46 3 3 0 0 1 2.29-.93 4.86 4.86 0 0 1 1.13.14 4.25 4.25 0 0 1 1.11.47l.25 1.77-1.2.12-.22-1a2.42 2.42 0 0 0 -1.09-.25c-1.05 0-1.58.7-1.58 2.11s.54 2.05 1.62 2.05c.79 0 1.26-.48 1.42-1.43z"></path>
    <path d="m278.22 195a3.14 3.14 0 0 1 -2.27-.84 3.22 3.22 0 0 1 -.87-2.44 3.5 3.5 0 0 1 .9-2.52 3.1 3.1 0 0 1 2.36-1 4.64 4.64 0 0 1 1.15.14 4.14 4.14 0 0 1 1.14.48l.27 1.87h-.1l-1.29.14v-.09l-.2-1a2.37 2.37 0 0 0 -1-.23c-1 0-1.48.66-1.48 2s.49 2 1.52 2c.74 0 1.18-.44 1.33-1.36v-.09l1.45.27v.09a3.29 3.29 0 0 1 -.77 1.67 2.65 2.65 0 0 1 -2.14.91zm.12-6.57a2.94 2.94 0 0 0 -2.22.89 3.34 3.34 0 0 0 -.85 2.4 3 3 0 0 0 .82 2.31 3 3 0 0 0 2.13.79 2.5 2.5 0 0 0 2-.75 3.15 3.15 0 0 0 .71-1.49l-1.09-.2c-.18.94-.68 1.42-1.49 1.42-1.14 0-1.71-.73-1.71-2.15s.56-2.2 1.67-2.2a2.54 2.54 0 0 1 1.14.26l.19 1 1-.11-.24-1.63a4.17 4.17 0 0 0 -1-.43 4.86 4.86 0 0 0 -1.06-.13z"></path>
    <path d="m287.7 192.82a2.09 2.09 0 0 1 -.81 1.45 3 3 0 0 1 -2 .62 3.21 3.21 0 0 1 -2.26-.81 3.06 3.06 0 0 1 -.89-2.38 3.65 3.65 0 0 1 .81-2.42 2.8 2.8 0 0 1 2.26-1 2.68 2.68 0 0 1 2.85 2.76 5.16 5.16 0 0 1 -.08.84h-4.28c.09 1.18.65 1.77 1.69 1.77a1.37 1.37 0 0 0 1.05-.35 1.79 1.79 0 0 0 .42-.74zm-1.6-1.82a1.56 1.56 0 0 0 -.26-1.06 1.16 1.16 0 0 0 -1.06-.5 1.24 1.24 0 0 0 -1 .45 2.29 2.29 0 0 0 -.43 1.11z"></path>
    <path d="m284.88 195a3.37 3.37 0 0 1 -2.33-.83 3.18 3.18 0 0 1 -.91-2.45 3.75 3.75 0 0 1 .83-2.48 2.9 2.9 0 0 1 2.33-1 2.78 2.78 0 0 1 2.94 2.85 5.29 5.29 0 0 1 -.08.86v.07h-4.23c.1 1.07.62 1.59 1.58 1.59a1.28 1.28 0 0 0 1-.32 1.67 1.67 0 0 0 .39-.71v-.08l1.43.27v.08a2.22 2.22 0 0 1 -.84 1.51 3.07 3.07 0 0 1 -2.11.64zm-.08-6.57a2.68 2.68 0 0 0 -2.18.93 3.54 3.54 0 0 0 -.79 2.36 3 3 0 0 0 .85 2.31 3.11 3.11 0 0 0 2.2.79 2.9 2.9 0 0 0 1.95-.6 2.07 2.07 0 0 0 .77-1.3l-1.08-.21a1.87 1.87 0 0 1 -.41.7 1.42 1.42 0 0 1 -1.12.39c-1.09 0-1.69-.63-1.78-1.86v-.1h4.29a4.93 4.93 0 0 0 .06-.75 2.63 2.63 0 0 0 -.75-1.91 2.68 2.68 0 0 0 -2.01-.77zm1.39 2.67h-3v-.11a2.36 2.36 0 0 1 .45-1.16 1.32 1.32 0 0 1 1.1-.48 1.27 1.27 0 0 1 1.15.54 1.79 1.79 0 0 1 .26 1.12zm-2.76-.19h2.57a1.52 1.52 0 0 0 -.24-.92 1.1 1.1 0 0 0 -1-.45 1.15 1.15 0 0 0 -.95.41 2 2 0 0 0 -.38.94z"></path>
    <path d="m298.43 191.43a4.26 4.26 0 0 1 -.71 2.41 2.45 2.45 0 0 1 -2.18 1 2.19 2.19 0 0 1 -2-1v2.65h1.26v1.18h-3.7v-1.18h.94v-7h-1v-1.15h2.48v1.25a2.79 2.79 0 0 1 .78-1 2.21 2.21 0 0 1 1.39-.41 2.56 2.56 0 0 1 2 .82 3.3 3.3 0 0 1 .74 2.43zm-1.56.16a2.2 2.2 0 0 0 -.47-1.54 1.49 1.49 0 0 0 -1.18-.53 1.4 1.4 0 0 0 -1.19.58 2.32 2.32 0 0 0 -.47 1.35v.49a1.73 1.73 0 0 0 .46 1.26 1.53 1.53 0 0 0 1.17.48 1.51 1.51 0 0 0 1.25-.56 2.46 2.46 0 0 0 .43-1.53z"></path>
    <path d="m294.9 197.84h-3.9v-1.37h1v-6.79h-1v-1.34h2.68v1a2.83 2.83 0 0 1 .62-.68 2.26 2.26 0 0 1 1.45-.43 2.62 2.62 0 0 1 2 .85 3.38 3.38 0 0 1 .78 2.36 4.33 4.33 0 0 1 -.72 2.46 2.56 2.56 0 0 1 -2.26 1.09 2.29 2.29 0 0 1 -1.89-.79v2.28h1.25zm-3.7-.19h3.51v-1h-1.25v-3.07l.17.28a2.09 2.09 0 0 0 1.91.94 2.4 2.4 0 0 0 2.11-1 4.18 4.18 0 0 0 .68-2.35 3.17 3.17 0 0 0 -.73-2.23 2.39 2.39 0 0 0 -1.88-.79 2.14 2.14 0 0 0 -1.33.38 2.61 2.61 0 0 0 -.75.94l-.18.37v-1.57h-2.3v1h1v7.15h-.94zm4-3.87a1.64 1.64 0 0 1 -1.24-.51 1.84 1.84 0 0 1 -.48-1.33v-.5a2.44 2.44 0 0 1 .52-1.44 1.52 1.52 0 0 1 1.27-.61 1.58 1.58 0 0 1 1.25.56 2.3 2.3 0 0 1 .49 1.6 2.52 2.52 0 0 1 -.46 1.59 1.61 1.61 0 0 1 -1.37.64zm0-4.17a1.34 1.34 0 0 0 -1.12.54 2.33 2.33 0 0 0 -.44 1.3v.49a1.69 1.69 0 0 0 .42 1.2 1.48 1.48 0 0 0 1.11.45 1.38 1.38 0 0 0 1.17-.53 2.34 2.34 0 0 0 .42-1.47 2.15 2.15 0 0 0 -.44-1.48 1.42 1.42 0 0 0 -1.1-.5z"></path>
    <path d="m302.46 194.75h-3.37v-1.15h.91v-7.37h-1v-1.15h2.49v8.52h.94z"></path>
    <path d="m302.56 194.84h-3.56v-1.34h.94v-7.18h-1v-1.32h2.68v8.52h.95zm-3.38-.18h3.19v-1h-.95v-8.52h-2.3v1h1v7.55h-.94z"></path>
    <path d="m303.75 188.9a6.15 6.15 0 0 1 1.26-.46 5.25 5.25 0 0 1 1.26-.13 2.74 2.74 0 0 1 1.74.54 1.91 1.91 0 0 1 .67 1.6v2.84c0 .37.16.56.47.56a1.1 1.1 0 0 0 .32-.06v.83a2 2 0 0 1 -1 .27 1.19 1.19 0 0 1 -1.3-1.25 3.13 3.13 0 0 1 -.79.89 2 2 0 0 1 -1.27.39 2.38 2.38 0 0 1 -1.3-.4 1.51 1.51 0 0 1 -.64-1.4 1.49 1.49 0 0 1 .93-1.54 5.27 5.27 0 0 1 2-.37h.55l.52.05v-.36a2.53 2.53 0 0 0 -.19-1q-.19-.45-1-.45a4.74 4.74 0 0 0 -.55 0 1.74 1.74 0 0 0 -.5.17l-.26 1-1.2-.12zm3.43 3.35v-.25l-.49-.05a4.41 4.41 0 0 0 -.52 0 2.29 2.29 0 0 0 -1 .2.76.76 0 0 0 -.44.78c0 .57.3.86.91.86a1.59 1.59 0 0 0 1-.39 1.51 1.51 0 0 0 .54-1.15z"></path>
    <path d="m308.48 195a1.23 1.23 0 0 1 -1.36-1.09 3.13 3.13 0 0 1 -.68.68 2.1 2.1 0 0 1 -1.32.41 2.56 2.56 0 0 1 -1.35-.41 1.88 1.88 0 0 1 .3-3.11 5.44 5.44 0 0 1 2-.37h.56.42v-.25a2.27 2.27 0 0 0 -.19-1q-.16-.39-.9-.39a3.27 3.27 0 0 0 -.54 0 1.36 1.36 0 0 0 -.43.14l-.27 1-1.38-.15v-.1l.28-1.62a5.75 5.75 0 0 1 1.27-.47 5.57 5.57 0 0 1 1.29-.13 2.87 2.87 0 0 1 1.79.55 2 2 0 0 1 .72 1.68v2.84c0 .41.2.47.37.47a1.11 1.11 0 0 0 .3-.06h.12v1a2.1 2.1 0 0 1 -1 .38zm-1.2-1.72v.38a1.09 1.09 0 0 0 1.2 1.16 1.92 1.92 0 0 0 .91-.23v-.66h-.23c-.25 0-.56-.11-.56-.65v-2.84a1.82 1.82 0 0 0 -.64-1.53 2.67 2.67 0 0 0 -1.68-.51 5.66 5.66 0 0 0 -1.24.12 5.9 5.9 0 0 0 -1.19.44l-.24 1.43 1 .1.24-.93a1.85 1.85 0 0 1 .53-.18 3.56 3.56 0 0 1 .57 0c.57 0 .93.17 1.07.5a2.52 2.52 0 0 1 .21 1v.46h-.11-.51-.55a5.31 5.31 0 0 0 -2 .37 1.39 1.39 0 0 0 -.87 1.45 1.42 1.42 0 0 0 .6 1.32 2.32 2.32 0 0 0 1.25.39 1.92 1.92 0 0 0 1.21-.38 2.73 2.73 0 0 0 .77-.86zm-1.64.61c-.66 0-1-.33-1-1a.87.87 0 0 1 .5-.87 2.48 2.48 0 0 1 1-.2 4.61 4.61 0 0 1 .53 0h.35.23v.32a1.6 1.6 0 0 1 -.57 1.2 1.64 1.64 0 0 1 -1.04.53zm.53-1.84a2.5 2.5 0 0 0 -1 .19.69.69 0 0 0 -.38.7c0 .52.26.77.82.77a1.54 1.54 0 0 0 .95-.37 1.44 1.44 0 0 0 .5-1.08v-.13h-.06-.34a4.24 4.24 0 0 0 -.49-.13z"></path>
    <path d="m315.63 192.87a1.68 1.68 0 0 1 -.81 1.5 3.7 3.7 0 0 1 -2.06.52 6.21 6.21 0 0 1 -1.35-.15 4.62 4.62 0 0 1 -1.23-.47l.22-1.63 1.18.11v.82a2.65 2.65 0 0 0 .57.15 3.74 3.74 0 0 0 .54.05 2.23 2.23 0 0 0 1-.21.64.64 0 0 0 .43-.61.57.57 0 0 0 -.38-.56 4.09 4.09 0 0 0 -1-.26 10 10 0 0 1 -1.15-.26 2.1 2.1 0 0 1 -1-.53 1.48 1.48 0 0 1 -.39-1.12 1.51 1.51 0 0 1 .84-1.5 4 4 0 0 1 1.76-.41 4.8 4.8 0 0 1 2.31.58l.15 1.56-1.18.14-.13-.94a3 3 0 0 0 -1.1-.21 1.4 1.4 0 0 0 -.74.17.59.59 0 0 0 -.31.56.57.57 0 0 0 .38.55 4.68 4.68 0 0 0 .95.24c.37.06.74.15 1.12.25a2.2 2.2 0 0 1 .94.54 1.48 1.48 0 0 1 .44 1.12z"></path>
    <path d="m312.76 195a6.32 6.32 0 0 1 -1.37-.15 4.52 4.52 0 0 1 -1.26-.48h-.06v-.06l.23-1.72 1.36.13v.09.75a2.7 2.7 0 0 0 .49.12 3.89 3.89 0 0 0 .53 0 2.22 2.22 0 0 0 1-.19.56.56 0 0 0 .32-.49.48.48 0 0 0 -.33-.48 4.41 4.41 0 0 0 -.94-.25 9.2 9.2 0 0 1 -1.17-.26 2.24 2.24 0 0 1 -1-.55 1.88 1.88 0 0 1 .48-2.77 4 4 0 0 1 1.8-.42 5 5 0 0 1 2.35.59l.16 1.65-1.36.16v-.09l-.12-.89a3 3 0 0 0 -1-.18 1.37 1.37 0 0 0 -.7.16.51.51 0 0 0 -.25.48.46.46 0 0 0 .32.46 4 4 0 0 0 .92.24 8.8 8.8 0 0 1 1.14.26 2.26 2.26 0 0 1 1 .55 1.62 1.62 0 0 1 .41 1.19 1.77 1.77 0 0 1 -.86 1.58 3.8 3.8 0 0 1 -2.09.57zm-2.48-.76a4.14 4.14 0 0 0 1.15.42 6 6 0 0 0 1.33.16 3.61 3.61 0 0 0 2-.51 1.56 1.56 0 0 0 .76-1.42 1.45 1.45 0 0 0 -.34-1.06 2.15 2.15 0 0 0 -.9-.5 8.44 8.44 0 0 0 -1.12-.25 4.52 4.52 0 0 1 -1-.26.65.65 0 0 1 -.44-.63.69.69 0 0 1 .35-.64 1.47 1.47 0 0 1 .79-.19 3.15 3.15 0 0 1 1.13.22h.06l.12.9 1-.11-.14-1.42a4.79 4.79 0 0 0 -2.22-.54 3.94 3.94 0 0 0 -1.72.39 1.42 1.42 0 0 0 -.78 1.42 1.37 1.37 0 0 0 .35 1.05 2.09 2.09 0 0 0 .92.51 11 11 0 0 0 1.15.26 3.86 3.86 0 0 1 1 .26.67.67 0 0 1 .44.65.75.75 0 0 1 -.49.7 2.44 2.44 0 0 1 -1 .21 4 4 0 0 1 -.55 0 2.43 2.43 0 0 1 -.6-.17h-.06v-.06-.73l-1-.1z"></path>
    <path d="m321.55 192.89a2 2 0 0 1 -2.22 2 2.33 2.33 0 0 1 -1.61-.53 1.91 1.91 0 0 1 -.6-1.49v-3.32h-.93v-1.11h.93v-2h1.5v2h2.38v1.11h-2.35v3.08c0 .66.29 1 .88 1a1 1 0 0 0 .53-.17c.2-.12.33-.42.41-.91z"></path>
    <path d="m319.33 195a2.4 2.4 0 0 1 -1.67-.55 2 2 0 0 1 -.63-1.56v-3.23h-.93v-1.3h.9v-2h1.69v2h2.35v1.3h-2.35v3c0 .61.25.9.78.9a.94.94 0 0 0 .48-.16c.17-.1.29-.39.37-.84v-.11l1.29.41v.08a2.12 2.12 0 0 1 -2.28 2.06zm-3-5.52h.93v3.41a1.78 1.78 0 0 0 .56 1.42 2.26 2.26 0 0 0 1.55.51 1.92 1.92 0 0 0 2.11-1.84l-.93-.3a1.22 1.22 0 0 1 -.43.87 1.16 1.16 0 0 1 -.58.19c-.44 0-1-.19-1-1.09v-3.17h2.35v-.93h-2.35v-1.95h-1.31v1.95h-.93z"></path>
    <path d="m325.34 194.75h-3.34v-1.15h.94v-4h-1v-1.16h2.49v5.16h.94zm-2.51-7.62v-1.66h1.53v1.66z"></path>
    <path d="m325.43 194.84h-3.56v-1.34h.94v-3.8h-1v-1.36h2.67v5.16h.94zm-3.37-.18h3.18v-1h-.94v-5.16h-2.3v1h1v4.18h-.95zm2.39-7.43h-1.72v-1.85h1.72zm-1.53-.19h1.34v-1.47h-1.34z"></path>
    <path d="m331.86 192.49a3.21 3.21 0 0 1 -.74 1.62 2.56 2.56 0 0 1 -2.08.78 3 3 0 0 1 -2.2-.82 3.11 3.11 0 0 1 -.85-2.37 3.46 3.46 0 0 1 .87-2.46 3 3 0 0 1 2.3-.93 4.86 4.86 0 0 1 1.13.14 4.4 4.4 0 0 1 1.11.47l.25 1.77-1.21.12-.21-1a2.46 2.46 0 0 0 -1.1-.25c-1 0-1.57.7-1.57 2.11s.54 2.05 1.61 2.05c.79 0 1.27-.48 1.42-1.43z"></path>
    <path d="m329 195a3.14 3.14 0 0 1 -2.27-.84 3.24 3.24 0 0 1 -.88-2.44 3.49 3.49 0 0 1 .91-2.52 3.09 3.09 0 0 1 2.36-1 4.69 4.69 0 0 1 1.15.14 4.42 4.42 0 0 1 1.14.48l.26 1.87h-.09l-1.29.14-.22-1.08a2.41 2.41 0 0 0 -1-.23c-1 0-1.48.66-1.48 2s.5 2 1.52 2c.75 0 1.18-.44 1.33-1.36v-.09l1.44.27v.09a3.2 3.2 0 0 1 -.76 1.67 2.66 2.66 0 0 1 -2.12.9zm.12-6.57a3 3 0 0 0 -2.23.89 3.38 3.38 0 0 0 -.85 2.4 3.08 3.08 0 0 0 .82 2.31 3 3 0 0 0 2.14.79 2.48 2.48 0 0 0 2-.75 3 3 0 0 0 .71-1.49l-1.08-.2c-.18.94-.68 1.42-1.5 1.42-1.13 0-1.71-.73-1.71-2.15s.57-2.2 1.67-2.2a2.51 2.51 0 0 1 1.14.26l.2 1 1-.11-.23-1.63a4.08 4.08 0 0 0 -1.05-.43 4.71 4.71 0 0 0 -.99-.13z"></path>
    <path d="m332.32 196 .8-3.2h1.46l-.79 3.2z"></path>
    <path d="m333.86 196.14h-1.66v-.12l.82-3.28h1.66v.12zm-1.41-.19h1.26l.75-3h-1.26z"></path>
    <path d="m348.28 189.59h-.63l-1.78 5.16h-1.12l-1.75-4.16h-.08l-1.64 4.16h-1.07l-1.81-5.16h-.62v-1.15h3.22v1.15h-1l1 3h.09l1.61-4.19h.93l1.81 4.15h.09l.76-3h-.94v-1.15h2.95z"></path>
    <path d="m345.94 194.84h-1.25v-.05l-1.69-4-1.62 4.09h-1.19l-1.81-5.16h-.66v-1.34h3.4v1.34h-.95l.89 2.78 1.59-4.12h1.05v.06l1.76 4 .7-2.74h-.92v-1.34h3.14v1.34h-.66zm-1.13-.18h1l1.77-5.16h.6v-1h-2.76v1h1v.12l-.78 3.06h-.22v-.06l-1.79-4.09h-.8l-1.62 4.19h-.22v-.06l-1-3.16h1v-1h-3v1h.6l1.81 5.16h.94l1.64-4.17h.2v.06z"></path>
    <path d="m349.42 188.9a5.88 5.88 0 0 1 1.25-.46 5.25 5.25 0 0 1 1.26-.13 2.74 2.74 0 0 1 1.74.54 1.91 1.91 0 0 1 .68 1.6v2.84c0 .37.15.56.46.56a1.22 1.22 0 0 0 .33-.06v.83a2 2 0 0 1 -1 .27 1.18 1.18 0 0 1 -1.29-1.25 3 3 0 0 1 -.8.89 2 2 0 0 1 -1.27.39 2.41 2.41 0 0 1 -1.3-.4 1.51 1.51 0 0 1 -.64-1.4 1.49 1.49 0 0 1 .93-1.54 5.29 5.29 0 0 1 2-.37h.55l.52.05v-.36a2.53 2.53 0 0 0 -.2-1c-.13-.3-.46-.45-1-.45a4.75 4.75 0 0 0 -.56 0 1.85 1.85 0 0 0 -.5.17l-.25 1-1.21-.12zm3.43 3.35v-.25l-.5-.05a4.36 4.36 0 0 0 -.51 0 2.31 2.31 0 0 0 -1 .2.77.77 0 0 0 -.44.78c0 .57.3.86.91.86a1.58 1.58 0 0 0 1.55-1.53z"></path>
    <path d="m354.14 195a1.23 1.23 0 0 1 -1.36-1.1 2.92 2.92 0 0 1 -.67.69 2.13 2.13 0 0 1 -1.33.41 2.56 2.56 0 0 1 -1.35-.41 1.62 1.62 0 0 1 -.68-1.48 1.58 1.58 0 0 1 1-1.63 5.43 5.43 0 0 1 2-.37h.56.42v-.25a2.5 2.5 0 0 0 -.18-1q-.18-.39-.9-.39a3.31 3.31 0 0 0 -.55 0 1.44 1.44 0 0 0 -.43.14l-.26 1-1.39-.15v-.1l.27-1.62h.05a5.41 5.41 0 0 1 1.27-.47 5.48 5.48 0 0 1 1.28-.13 2.92 2.92 0 0 1 1.8.55 2 2 0 0 1 .71 1.68v2.84c0 .41.2.47.37.47a1 1 0 0 0 .3-.06h.12v1h-.05a2.05 2.05 0 0 1 -1 .38zm-1.2-1.72v.38a1.09 1.09 0 0 0 1.2 1.16 2 2 0 0 0 .92-.23v-.66h-.24c-.25 0-.56-.11-.56-.65v-2.84a1.79 1.79 0 0 0 -.64-1.53 2.67 2.67 0 0 0 -1.68-.51 5.66 5.66 0 0 0 -1.24.12 5.9 5.9 0 0 0 -1.19.44l-.24 1.43 1 .1.24-.93a1.69 1.69 0 0 1 .52-.18 3.69 3.69 0 0 1 .58 0c.56 0 .92.17 1.06.5a2.56 2.56 0 0 1 .21 1v.46h-.1-.52-.55a5.15 5.15 0 0 0 -2 .37 1.39 1.39 0 0 0 -.86 1.45 1.42 1.42 0 0 0 .59 1.32 2.32 2.32 0 0 0 1.25.39 1.88 1.88 0 0 0 1.21-.38 2.88 2.88 0 0 0 .78-.86zm-1.64.61a.87.87 0 0 1 -1-1 .86.86 0 0 1 .49-.87 2.52 2.52 0 0 1 1-.2 4.43 4.43 0 0 1 .52 0h.32.26v.32a1.59 1.59 0 0 1 -.57 1.2 1.64 1.64 0 0 1 -1.02.53zm.54-1.84a2.43 2.43 0 0 0 -1 .19.69.69 0 0 0 -.38.7c0 .52.25.77.81.77a1.5 1.5 0 0 0 .95-.37 1.41 1.41 0 0 0 .5-1.08v-.13h-.09-.32a4.07 4.07 0 0 0 -.47-.13z"></path>
    <path d="m361.29 192.87a1.68 1.68 0 0 1 -.81 1.5 3.7 3.7 0 0 1 -2.06.52 6.21 6.21 0 0 1 -1.35-.15 4.5 4.5 0 0 1 -1.23-.47l.22-1.63 1.18.11v.82a2.65 2.65 0 0 0 .57.15 3.74 3.74 0 0 0 .54.05 2.23 2.23 0 0 0 1-.21.64.64 0 0 0 .43-.61.58.58 0 0 0 -.38-.56 4.23 4.23 0 0 0 -1-.26 10 10 0 0 1 -1.15-.26 2.19 2.19 0 0 1 -1-.53 1.8 1.8 0 0 1 .45-2.62 4.06 4.06 0 0 1 1.77-.41 4.73 4.73 0 0 1 2.3.58l.16 1.56-1.18.14-.13-.94a3 3 0 0 0 -1.11-.21 1.45 1.45 0 0 0 -.74.17.6.6 0 0 0 -.3.56.57.57 0 0 0 .38.55 4.74 4.74 0 0 0 .94.24 11.44 11.44 0 0 1 1.13.25 2.2 2.2 0 0 1 .94.54 1.52 1.52 0 0 1 .43 1.12z"></path>
    <path d="m358.42 195a6.48 6.48 0 0 1 -1.38-.15 4.78 4.78 0 0 1 -1.25-.48h-.06v-.06l.24-1.72 1.36.13v.09.75a2.07 2.07 0 0 0 .49.12 3.79 3.79 0 0 0 .53 0 2.22 2.22 0 0 0 1-.19.56.56 0 0 0 .38-.53.48.48 0 0 0 -.33-.48 4.26 4.26 0 0 0 -.94-.25 9.2 9.2 0 0 1 -1.17-.26 2.23 2.23 0 0 1 -1-.55 1.57 1.57 0 0 1 -.41-1.19 1.6 1.6 0 0 1 .89-1.58 4 4 0 0 1 1.8-.42 5 5 0 0 1 2.35.59l.16 1.65-1.36.16v-.09l-.12-.89a3 3 0 0 0 -1-.18 1.35 1.35 0 0 0 -.69.16.51.51 0 0 0 -.25.48.46.46 0 0 0 .32.46 4 4 0 0 0 .92.24 9.19 9.19 0 0 1 1.14.26 2.31 2.31 0 0 1 1 .55 1.62 1.62 0 0 1 .4 1.19 1.78 1.78 0 0 1 -.85 1.58 3.88 3.88 0 0 1 -2.17.61zm-2.48-.76a4 4 0 0 0 1.15.42 5.9 5.9 0 0 0 1.33.16 3.63 3.63 0 0 0 2-.51 1.58 1.58 0 0 0 .76-1.42 1.45 1.45 0 0 0 -.34-1.06 2.15 2.15 0 0 0 -.9-.5 8.81 8.81 0 0 0 -1.12-.25 4.46 4.46 0 0 1 -1-.26.64.64 0 0 1 -.43-.63.69.69 0 0 1 .35-.64 1.46 1.46 0 0 1 .78-.19 3.17 3.17 0 0 1 1.14.22h.05l.13.9 1-.11-.14-1.42a4.82 4.82 0 0 0 -2.22-.54 3.94 3.94 0 0 0 -1.72.39 1.42 1.42 0 0 0 -.78 1.42 1.37 1.37 0 0 0 .35 1.05 2.13 2.13 0 0 0 .92.51 11 11 0 0 0 1.15.26 3.58 3.58 0 0 1 1 .26.67.67 0 0 1 .45.65.75.75 0 0 1 -.49.7 2.44 2.44 0 0 1 -1 .21 4 4 0 0 1 -.55 0 2.06 2.06 0 0 1 -.6-.17h-.06v-.06-.73l-1-.1z"></path>
    <path d="m367.2 192.89a2 2 0 0 1 -2.21 2 2.33 2.33 0 0 1 -1.61-.53 1.91 1.91 0 0 1 -.6-1.49v-3.32h-.93v-1.11h.93v-2h1.5v2h2.35v1.11h-2.35v3.08c0 .66.29 1 .88 1a1 1 0 0 0 .53-.17c.2-.12.33-.42.41-.91z"></path>
    <path d="m365 195a2.4 2.4 0 0 1 -1.67-.55 2 2 0 0 1 -.63-1.56v-3.23h-.92v-1.3h.92v-2h1.7v2h2.34v1.3h-2.34v3c0 .61.24.9.78.9a.94.94 0 0 0 .48-.16c.17-.1.29-.39.37-.84v-.11l1.29.41v.08a2.11 2.11 0 0 1 -2.32 2.06zm-3-5.52h.92v3.41a1.85 1.85 0 0 0 .57 1.42 2.25 2.25 0 0 0 1.54.51 1.93 1.93 0 0 0 2.07-1.82l-.93-.3a1.19 1.19 0 0 1 -.44.87 1.17 1.17 0 0 1 -.57.19c-.65 0-1-.37-1-1.09v-3.17h2.34v-.93h-2.34v-1.95h-1.32v1.95h-.84z"></path>
    <path d="m373.52 192.82a2.17 2.17 0 0 1 -.81 1.45 3 3 0 0 1 -2 .62 3.23 3.23 0 0 1 -2.26-.81 3.06 3.06 0 0 1 -.88-2.38 3.6 3.6 0 0 1 .81-2.42 2.86 2.86 0 0 1 5.1 1.79 4.25 4.25 0 0 1 -.08.84h-4.26c.09 1.18.65 1.77 1.69 1.77a1.37 1.37 0 0 0 1.05-.35 1.88 1.88 0 0 0 .41-.74zm-1.6-1.84a1.68 1.68 0 0 0 -.26-1.06 1.17 1.17 0 0 0 -1.06-.5 1.23 1.23 0 0 0 -1 .45 2.21 2.21 0 0 0 -.44 1.11z"></path>
    <path d="m370.69 195a3.35 3.35 0 0 1 -2.32-.83 3.15 3.15 0 0 1 -.92-2.45 3.75 3.75 0 0 1 .83-2.48 2.9 2.9 0 0 1 2.33-1 2.78 2.78 0 0 1 2.95 2.85 4.66 4.66 0 0 1 -.09.86v.05h-4.24c.11 1.07.63 1.59 1.59 1.59a1.3 1.3 0 0 0 1-.32 1.79 1.79 0 0 0 .39-.71v-.08l1.42.27v.08a2.22 2.22 0 0 1 -.84 1.51 3.1 3.1 0 0 1 -2.1.66zm-.08-6.57a2.69 2.69 0 0 0 -2.18.93 3.6 3.6 0 0 0 -.79 2.36 3 3 0 0 0 .85 2.31 3.11 3.11 0 0 0 2.2.79 2.94 2.94 0 0 0 2-.6 2.12 2.12 0 0 0 .77-1.3l-1.09-.21a1.84 1.84 0 0 1 -.4.7 1.44 1.44 0 0 1 -1.12.39c-1.09 0-1.69-.63-1.79-1.86v-.1h4.28a4.19 4.19 0 0 0 .07-.75 2.58 2.58 0 0 0 -2.76-2.66zm1.39 2.67h-3v-.1a2.28 2.28 0 0 1 .46-1.16 1.32 1.32 0 0 1 1.1-.48 1.25 1.25 0 0 1 1.14.54 1.74 1.74 0 0 1 .3 1.1zm-2.76-.19h2.59a1.6 1.6 0 0 0 -.25-.92 1.07 1.07 0 0 0 -1-.45 1.17 1.17 0 0 0 -1 .41 2.2 2.2 0 0 0 -.34.94z"></path>
    <path d="m380.36 194.75h-3.36v-1.15h.94v-7.37h-1v-1.15h2.49v8.52h.94z"></path>
    <path d="m380.46 194.84h-3.57v-1.34h.94v-7.18h-1v-1.32h2.69v8.52h.94zm-3.38-.18h3.19v-1h-.95v-8.52h-2.32v1h1v7.55h-.94z"></path>
    <path d="m387 192.82a2.13 2.13 0 0 1 -.81 1.45 3 3 0 0 1 -2 .62 3.24 3.24 0 0 1 -2.27-.81 3.06 3.06 0 0 1 -.88-2.38 3.65 3.65 0 0 1 .81-2.42 2.86 2.86 0 0 1 5.11 1.79 4.3 4.3 0 0 1 -.09.84h-4.26c.09 1.18.65 1.77 1.69 1.77a1.37 1.37 0 0 0 1.05-.35 1.76 1.76 0 0 0 .41-.74zm-1.6-1.84a1.68 1.68 0 0 0 -.26-1.06 1.16 1.16 0 0 0 -1.06-.5 1.24 1.24 0 0 0 -1 .45 2.3 2.3 0 0 0 -.44 1.11z"></path>
    <path d="m384.16 195a3.36 3.36 0 0 1 -2.33-.83 3.15 3.15 0 0 1 -.92-2.45 3.76 3.76 0 0 1 .84-2.48 2.88 2.88 0 0 1 2.32-1 2.78 2.78 0 0 1 2.95 2.85 4.66 4.66 0 0 1 -.09.86v.05h-4.24c.11 1.07.63 1.59 1.59 1.59a1.28 1.28 0 0 0 1-.32 1.67 1.67 0 0 0 .39-.71v-.08l1.42.27v.08a2.22 2.22 0 0 1 -.84 1.51 3.09 3.09 0 0 1 -2.09.66zm-.09-6.57a2.69 2.69 0 0 0 -2.18.93 3.6 3.6 0 0 0 -.79 2.36 3 3 0 0 0 .9 2.28 3.14 3.14 0 0 0 2.21.79 2.9 2.9 0 0 0 1.95-.6 2.07 2.07 0 0 0 .77-1.3l-1.08-.21a2 2 0 0 1 -.41.7 1.42 1.42 0 0 1 -1.12.39c-1.09 0-1.69-.63-1.78-1.86v-.1h4.29a5.25 5.25 0 0 0 .06-.75 2.58 2.58 0 0 0 -2.76-2.66zm1.39 2.67h-3v-.1a2.37 2.37 0 0 1 .46-1.16 1.32 1.32 0 0 1 1.1-.48 1.25 1.25 0 0 1 1.14.54 1.74 1.74 0 0 1 .27 1.12zm-2.75-.19h2.58a1.53 1.53 0 0 0 -.29-.91 1.07 1.07 0 0 0 -1-.45 1.17 1.17 0 0 0 -1 .41 2.08 2.08 0 0 0 -.29.93z"></path>
    <path d="m393.26 192.87a1.68 1.68 0 0 1 -.8 1.5 3.73 3.73 0 0 1 -2.06.52 6.37 6.37 0 0 1 -1.36-.15 4.76 4.76 0 0 1 -1.23-.47l.23-1.63 1.18.11v.82a2.65 2.65 0 0 0 .57.15 3.86 3.86 0 0 0 .55.05 2.26 2.26 0 0 0 1-.21.64.64 0 0 0 .43-.61.57.57 0 0 0 -.39-.56 4.13 4.13 0 0 0 -1-.26 9.1 9.1 0 0 1 -1.15-.26 2.13 2.13 0 0 1 -1-.53 1.48 1.48 0 0 1 -.38-1.12 1.52 1.52 0 0 1 .83-1.5 4 4 0 0 1 1.76-.41 4.77 4.77 0 0 1 2.31.58l.16 1.56-1.18.14-.13-.94a3.12 3.12 0 0 0 -1.11-.21 1.42 1.42 0 0 0 -.74.17.6.6 0 0 0 -.3.56.57.57 0 0 0 .38.55 4.4 4.4 0 0 0 .94.24c.37.06.75.15 1.13.25a2.26 2.26 0 0 1 .94.54 1.51 1.51 0 0 1 .42 1.12z"></path>
    <path d="m390.4 195a6.41 6.41 0 0 1 -1.38-.15 4.78 4.78 0 0 1 -1.25-.48h-.06v-.06l.24-1.72 1.35.13v.84a2.59 2.59 0 0 0 .48.12 3.89 3.89 0 0 0 .53 0 2.27 2.27 0 0 0 1-.19.56.56 0 0 0 .37-.53.48.48 0 0 0 -.32-.48 4.21 4.21 0 0 0 -.95-.25 8.7 8.7 0 0 1 -1.16-.26 2.23 2.23 0 0 1 -1-.55 1.57 1.57 0 0 1 -.42-1.19 1.61 1.61 0 0 1 .89-1.58 4 4 0 0 1 1.8-.42 5 5 0 0 1 2.36.59l.17 1.65-1.36.16v-.09l-.12-.89a3 3 0 0 0 -1-.18 1.33 1.33 0 0 0 -.69.16.52.52 0 0 0 -.26.48.47.47 0 0 0 .33.46 4.09 4.09 0 0 0 .91.24 8.11 8.11 0 0 1 1.14.26 2.15 2.15 0 0 1 1 .55 1.62 1.62 0 0 1 .41 1.19 1.77 1.77 0 0 1 -.85 1.58 3.88 3.88 0 0 1 -2.16.61zm-2.48-.76a4 4 0 0 0 1.15.42 5.9 5.9 0 0 0 1.33.16 3.63 3.63 0 0 0 2-.51 1.57 1.57 0 0 0 .76-1.42 1.46 1.46 0 0 0 -.35-1.06 2 2 0 0 0 -.9-.5 8.31 8.31 0 0 0 -1.11-.25 4.46 4.46 0 0 1 -1-.26.65.65 0 0 1 -.44-.63.69.69 0 0 1 .35-.64 1.52 1.52 0 0 1 .79-.19 3.21 3.21 0 0 1 1.14.22h.05l.13.9 1-.11-.14-1.42a4.76 4.76 0 0 0 -2.22-.54 4 4 0 0 0 -1.72.39 1.45 1.45 0 0 0 -.78 1.42 1.38 1.38 0 0 0 .36 1.05 2.13 2.13 0 0 0 .92.51 10.83 10.83 0 0 0 1.14.26 3.76 3.76 0 0 1 1 .26.67.67 0 0 1 .44.65.74.74 0 0 1 -.48.7 2.46 2.46 0 0 1 -1.05.21 4.16 4.16 0 0 1 -.55 0 2 2 0 0 1 -.59-.17h-.06v-.79l-1-.1z"></path>
    <path d="m399.6 192.87a1.66 1.66 0 0 1 -.81 1.5 3.67 3.67 0 0 1 -2.05.52 6.37 6.37 0 0 1 -1.36-.15 4.76 4.76 0 0 1 -1.23-.47l.23-1.63 1.18.11v.82a2.65 2.65 0 0 0 .57.15 3.74 3.74 0 0 0 .54.05 2.31 2.31 0 0 0 1-.21.66.66 0 0 0 .43-.61.57.57 0 0 0 -.39-.56 4.13 4.13 0 0 0 -1-.26 9.66 9.66 0 0 1 -1.16-.26 2.15 2.15 0 0 1 -1-.53 1.48 1.48 0 0 1 -.39-1.12 1.51 1.51 0 0 1 .84-1.5 4 4 0 0 1 1.76-.41 4.77 4.77 0 0 1 2.31.58l.15 1.56-1.18.14-.12-.94a3.12 3.12 0 0 0 -1.11-.21 1.4 1.4 0 0 0 -.74.17.6.6 0 0 0 -.3.56.55.55 0 0 0 .38.55 4.4 4.4 0 0 0 .94.24 11.25 11.25 0 0 1 1.12.25 2.23 2.23 0 0 1 1 .54 1.51 1.51 0 0 1 .39 1.12z"></path>
    <path d="m396.73 195a6.32 6.32 0 0 1 -1.37-.15 4.57 4.57 0 0 1 -1.25-.48h-.06v-.06l.24-1.72 1.35.13v.84a2.41 2.41 0 0 0 .48.12 3.89 3.89 0 0 0 .53 0 2.19 2.19 0 0 0 1-.19.56.56 0 0 0 .35-.49.48.48 0 0 0 -.33-.48 4.26 4.26 0 0 0 -.94-.25 8.7 8.7 0 0 1 -1.16-.26 2.27 2.27 0 0 1 -1-.55 1.88 1.88 0 0 1 .48-2.77 4 4 0 0 1 1.8-.42 4.94 4.94 0 0 1 2.35.59l.17 1.65-1.37.16v-.09l-.12-.89a3 3 0 0 0 -1-.18 1.33 1.33 0 0 0 -.69.16.5.5 0 0 0 -.26.48.47.47 0 0 0 .32.46 4.35 4.35 0 0 0 .92.24 8.44 8.44 0 0 1 1.14.26 2.2 2.2 0 0 1 1 .55 1.62 1.62 0 0 1 .41 1.19 1.77 1.77 0 0 1 -.86 1.58 3.84 3.84 0 0 1 -2.13.57zm-2.48-.76a4.2 4.2 0 0 0 1.16.42 5.88 5.88 0 0 0 1.32.16 3.59 3.59 0 0 0 2-.51 1.57 1.57 0 0 0 .77-1.42 1.46 1.46 0 0 0 -.35-1.06 2.09 2.09 0 0 0 -.9-.5 8.44 8.44 0 0 0 -1.12-.25 4.52 4.52 0 0 1 -1-.26.65.65 0 0 1 -.44-.63.69.69 0 0 1 .35-.64 1.52 1.52 0 0 1 .79-.19 3.21 3.21 0 0 1 1.14.22h.05l.13.9 1-.11-.14-1.42a4.76 4.76 0 0 0 -2.22-.54 3.94 3.94 0 0 0 -1.72.39 1.71 1.71 0 0 0 -.43 2.47 2.07 2.07 0 0 0 .93.51 10.29 10.29 0 0 0 1.14.26 3.86 3.86 0 0 1 1 .26.67.67 0 0 1 .44.65.74.74 0 0 1 -.49.7 2.38 2.38 0 0 1 -1 .21 4 4 0 0 1 -.55 0 2.43 2.43 0 0 1 -.6-.17h-.05v-.79l-1-.1z"></path>
    <path d="m149.2 200.79c-.1.09-.15.14-.24.12h-.07c.08-.31.08-.31-.18-.25a.22.22 0 0 1 -.21-.12c0-.05 0-.1.06-.09.21 0 .4-.15.63 0-.13-.23 0-.48-.07-.68a3.15 3.15 0 0 1 -.06-.61c-.06-.81 0-1.63-.06-2.44 0-1.07-.14-2.14-.07-3.21 0-.45 0-.9 0-1.34 0-1.07 0-2.14-.07-3.21a.25.25 0 0 1 0-.07.25.25 0 0 0 0 .07c0-.09-.09-.18 0-.27 0-.28 0-.56 0-.85 0-1.08 0-2.16-.11-3.24-.06-.05-.13 0-.19 0s.13 0 .19 0v-.2c0-.2 0-.39 0-.58s0-.22-.05-.31a.08.08 0 0 0 0-.1 7.21 7.21 0 0 0 0-1 1 1 0 0 0 0-.42v-1.13c0-.2 0-.39 0-.58a2.29 2.29 0 0 0 0-.69c0-.29 0-.57 0-.86s.06-.29-.17-.3a.57.57 0 0 0 -.26 0 1.11 1.11 0 0 0 -.51.06h-.11l-.45.07h-.27-.11a.32.32 0 0 0 -.21 0 .4.4 0 0 0 -.24 0h-.06a.25.25 0 0 0 -.19.07h-.28-.15l-.14-.05-.14-.08h-.12l-.23-.08h-.13-.07-.1-.19-.07-.1-.06-.11l-.23-.42v-.12c0-.1 0-.19 0-.29l-.09.25.09-.25a.36.36 0 0 1 0-.11.17.17 0 0 0 -.05-.21.49.49 0 0 0 -.12-.25c.07 0 0-.09 0-.14a1.5 1.5 0 0 0 -.18-.59v-.08-.08-.05l-.05-.08a.37.37 0 0 0 -.07-.23v-.06l-.06-.12v-.06l-.07-.16-.19-.28a.34.34 0 0 0 -.13-.18l-.08-.09a3 3 0 0 0 -.92-.73l-.11-.08h-.06l-.17-.08h-.09s0 0 0 0h-.07a.43.43 0 0 0 -.25-.1h-.05a.81.81 0 0 0 -.4-.12 1.31 1.31 0 0 0 -.48-.12.21.21 0 0 0 -.26 0h-.2-.07-.32a1.48 1.48 0 0 0 -.36 0c-.24 0-.5-.09-.7.11a.91.91 0 0 0 -.5.17c0 .07.17 0 .17.12a.09.09 0 0 1 -.09.08.16.16 0 0 1 -.16-.16c0-.22-.14-.23-.29-.2a5.06 5.06 0 0 0 -.87.23c-.12 0-.25.07-.19.25s-.08.15-.15.2-.09 0-.11 0c-.15-.32-.3-.13-.46 0s-.25 0-.26.21 0 .08 0 .08a.28.28 0 0 0 -.18 0l-.06.06a.31.31 0 0 0 -.15.1.16.16 0 0 0 -.11.15l-.07.06c-.08.1-.21.17-.21.32-.25.15-.22.48-.43.65a.08.08 0 0 0 0 .11c.27.1.06.17 0 .22s-.17.07-.2.18-.13.31-.18.48c-.09.39-.18.78-.25 1.18a.3.3 0 0 1 -.26.28 3.86 3.86 0 0 0 -.93.29 2.41 2.41 0 0 1 -1.45.15c-.59-.11-1.2-.12-1.8-.18-.17 0-.23 0-.23.2a10.61 10.61 0 0 1 0 1.13 23.05 23.05 0 0 0 0 2.35v.1.07 1.52a.39.39 0 0 0 .19.38s-.24.18-.23.38 0 .58 0 .88c0 .11 0 .21.16.25a.61.61 0 0 0 0 .14c-.07.06-.17.1-.14.22v.1a2.69 2.69 0 0 0 0 .49v1.69a.81.81 0 0 0 0 .41v.52a.22.22 0 0 0 0 .16.66.66 0 0 0 0 .28.55.55 0 0 0 0 .25v3.4a6.16 6.16 0 0 0 0 1 1.09 1.09 0 0 0 0 .62.77.77 0 0 0 0 .37c-.07.12 0 .25 0 .38v-.02a3.82 3.82 0 0 0 0 .83v.4s0 .14 0 .21 0 .08 0 .11 0 .14 0 .21 0 .2 0 .3a.5.5 0 0 0 0 .27v.06.13s0 .08 0 .11 0 .2 0 .3 0 0 0 .05v.09a1.56 1.56 0 0 0 -.06.57.74.74 0 0 0 0 .36 2.28 2.28 0 0 0 0 1.1.08.08 0 0 0 -.07.09 1.3 1.3 0 0 0 -.07.48 1 1 0 0 0 0 .67.24.24 0 0 0 0 .16h.06.44a.14.14 0 0 0 .2 0h.06c.05.05.1.06.14 0h.54l.07-.13-.07.13h.13.72a2.06 2.06 0 0 0 .26 0h2.69 1.91c.15 0 .36.09.47 0s.17 0 .26 0a.68.68 0 0 1 .1-.49.33.33 0 0 1 .31.12s0 0 0 0v.06c-.07.26 0 .34.3.3s.34 0 .51 0a5.15 5.15 0 0 0 1-.05 1.11 1.11 0 0 0 .48 0c.12 0 .27 0 .31-.16h.1v.09s0 .08 0 .1h.56a5.61 5.61 0 0 1 .71 0h2.24c.95 0 1.9.06 2.85 0h.52s.11-.16.16-.09.29.17.46.11.07-.05.13 0a.57.57 0 0 0 .75-.24c.13.05.05.17.06.27a2.8 2.8 0 0 1 .87.05c.29.08.55-.11.82 0 .11 0 .15 0 .15-.13a14.63 14.63 0 0 0 -.92-1.65zm-1.25-20a.05.05 0 0 0 0 .05.05.05 0 0 1 .05-.03zm-4.1-3.45c-.16.07-.25.12-.28.18s.12-.09.28-.16zm-3.72-3.72a.09.09 0 0 1 -.07 0s0 0 0 0a.09.09 0 0 0 .07-.03zm-.88-.03a.47.47 0 0 0 -.17.07.47.47 0 0 1 .17-.1zm-3.48 1.51a3.1 3.1 0 0 1 1.67-.69l.79-.11h.22c.55 0 1.1.08 1.65.12a.26.26 0 0 0 .17.05.2.2 0 0 0 .15.05l.16.06h.13l.18.09.26.12.11.07a5 5 0 0 1 .59.54l.08.1.25.28v.07a.37.37 0 0 0 .09.16l.07.17v.07.08c.06.31.28.56.3.88v.16a.34.34 0 0 0 0 .1h.08.18-.18-.11c0 .12-.06.26.07.36v.1c-.15.16-.38.11-.56.21a.26.26 0 0 0 -.17.05.21.21 0 0 0 -.15 0 789205294290.0798 789205294290.0798 0 0 1 -.32.1s0 .07 0 .11l.11.1a.29.29 0 0 1 .14 0 .29.29 0 0 0 -.14 0l-.11-.1a.09.09 0 0 0 -.13 0 .77.77 0 0 1 -.69.09c-.16-.05-.11.11-.17.15a.16.16 0 0 1 -.11-.15c0-.13-.08-.16-.17-.19l-1.37-.47a.75.75 0 0 0 -.55 0c-.59.25-1.22.37-1.79.67a.63.63 0 0 1 -.58 0 5.36 5.36 0 0 0 -1.23-.46c-.24-.07-.38-.16-.33-.46a4.22 4.22 0 0 1 1.41-2.51zm6.57 3.7h-.18zm-1.72.54-.05-.11zm.05-.32-.05.11.05-.11h.05zm-.62.11v.07s-.06 0 0-.07zm-5.23-4.46a.12.12 0 0 0 -.08 0 .12.12 0 0 1 .13-.03zm-6.46 26.07a.34.34 0 0 1 0-.1.34.34 0 0 0 0 .1c0 .05.05.08.14.08-.04-.02-.07-.05-.09-.1zm7.88 1.55a.14.14 0 0 1 .08.09.14.14 0 0 0 -.03-.11zm2.83-.53a.14.14 0 0 1 .09-.05.14.14 0 0 0 -.04.03zm-.21.62c-.06-.09 0-.14.05-.19s-.06.08 0 .17zm4.75-.33c-.09 0-.17.06-.27 0h.27a.45.45 0 0 0 .23-.17.45.45 0 0 1 -.18.12zm2.3.24a.2.2 0 0 1 .09.09.2.2 0 0 0 0-.11zm.15 0s0-.05 0-.07.08.02.05.05zm.81-.24a.09.09 0 0 0 0 .12.09.09 0 0 1 .05-.17zm.25-.18a.13.13 0 0 0 0 .06.13.13 0 0 1 .05-.08zm.84-.2a.45.45 0 0 0 -.21.45.73.73 0 0 1 0 .29 1.05 1.05 0 0 1 -.23-.56c0-.08 0-.1.1-.1s.14 0 .12-.1-.08-.08-.14-.08h-.34c-.08-.09-.17 0-.26 0a4.8 4.8 0 0 1 -.85 0c-.14 0-.3.12-.45 0v.07l-.11.08a.09.09 0 0 1 .06.06.09.09 0 0 0 -.06-.06.19.19 0 0 1 -.1 0 .67.67 0 0 0 -.73-.1.06.06 0 0 0 0 0l-.72.05h-.05a2.81 2.81 0 0 0 -1-.05c-.61 0-1.21 0-1.82 0-.43 0-.86 0-1.29 0s-1.14 0-1.71 0h-3.17c-.55 0-1.1 0-1.65 0-.72.07-1.45-.06-2.17 0a5.79 5.79 0 0 1 -1.1 0 1.53 1.53 0 0 0 -.82.13h-.19-.06v-.06-.08c0-.07 0-.15 0-.22s.11-.17.07-.28c.21-.18.13-.43.15-.66 0 0 0-.07 0-.11v-.16a.61.61 0 0 0 0-.3.93.93 0 0 0 .06-.37 1.65 1.65 0 0 0 0-.54v-.13-.16-.1-.26-.15a.41.41 0 0 0 0-.11c0-.12.08-.24 0-.36s0-.26 0-.39v-.18-.42a1.2 1.2 0 0 0 0-.2v-2a.65.65 0 0 0 0-.31v-.63c0-.1 0-.2 0-.31 0-.54 0-1.09 0-1.64v-.23a2.06 2.06 0 0 0 0-.43.64.64 0 0 0 0-.47v-.06a.25.25 0 0 0 0-.22v-.21a.76.76 0 0 0 0-.15.92.92 0 0 0 0-.16.43.43 0 0 1 -.07-.16.43.43 0 0 0 .07.16v-.83a1.09 1.09 0 0 0 0-.36v-.94c.06-1 0-2 .07-3 0-1.35 0-2.7 0-4.06a1 1 0 0 0 -.1-.52c-.09-.17 0-.24.14-.28a.62.62 0 0 1 .33 0c.25.08.52.09.76.16a2.22 2.22 0 0 0 1.46-.14c.43-.19.91-.27 1.33-.5a.74.74 0 0 1 .65 0c.48.2 1 .33 1.47.54a1.36 1.36 0 0 0 1.12 0c.47-.17 1-.3 1.42-.51a.87.87 0 0 1 .77 0c.36.17.73.3 1.1.45a.28.28 0 0 0 .25 0s.06 0 .1 0c.09.12.15.09.18 0h.1a2.74 2.74 0 0 0 0-.28 2.74 2.74 0 0 1 0 .28c.16.26.21.27.57.09a.4.4 0 0 0 .21-.09h.21.06l.11-.06a.78.78 0 0 0 .3-.07h.08a2.14 2.14 0 0 0 .6-.21l.15-.07a2.15 2.15 0 0 1 .67-.06l.23.13h.08l.12.06.14.06a.19.19 0 0 0 .14 0h.06l.17.07h.1.06.09.06l.17.06.15.06h.06.1a.19.19 0 0 0 .16 0h.11a.21.21 0 0 0 .15 0l.47-.06a.33.33 0 0 0 .17 0h.19.07.08.08l.14-.07h.05a.45.45 0 0 1 .47.2v.21.09 1.32c0-.44 0-.88 0-1.32a4.14 4.14 0 0 0 0 1.57v.88a6.27 6.27 0 0 0 0 1.06v.07a.11.11 0 0 0 0 .12 1.79 1.79 0 0 0 0 .4v-.14a.2.2 0 0 0 0 .15v2.26.85a.54.54 0 0 0 .07.39c.12.13-.07.19-.06.32v1c0 1.41 0 2.82.1 4.24 0 1.12 0 2.24.07 3.35v.79c0 .1 0 .23.1.29s.06.07 0 .08c-.22.08-.11.26-.11.38a14.38 14.38 0 0 0 .16 2.37 3.76 3.76 0 0 0 .15.8c.57.2.41.29.25.38zm.87-.12s0 0 0 0 .05 0 .05-.02z"></path>
    <path d="m128.47 203a.65.65 0 0 1 -.2 0h-.36a.34.34 0 0 1 -.17-.05.35.35 0 0 1 -.19-.15.48.48 0 0 1 -.09-.27 1.35 1.35 0 0 1 0-.79v-.12a1.08 1.08 0 0 1 .08-.44.25.25 0 0 1 0-.07 2.33 2.33 0 0 1 0-.84v-.22a1.1 1.1 0 0 1 0-.38 2 2 0 0 1 .07-.52.31.31 0 0 1 0-.08.36.36 0 0 1 0-.1v-.25s0-.12 0-.14a.68.68 0 0 1 0-.14.77.77 0 0 1 0-.36v-.22-.26l.07-.68v-.24a1.9 1.9 0 0 1 0-.66v-.12-.16a1.16 1.16 0 0 1 0-.42.76.76 0 0 1 0-.3 1.51 1.51 0 0 1 0-.67 5.31 5.31 0 0 1 0-.8v-.16-3.39a1 1 0 0 1 0-.29 1.48 1.48 0 0 1 0-.21.39.39 0 0 1 0-.24v-.29a.76.76 0 0 0 0-.15 1.41 1.41 0 0 1 0-.5v-.5c0-.37 0-.75 0-1.12a2.21 2.21 0 0 1 0-.56.42.42 0 0 1 .05-.32.73.73 0 0 1 -.06-.32v-.27a5.8 5.8 0 0 0 0-.59.69.69 0 0 1 .11-.39.87.87 0 0 1 -.07-.4v-1.51a.36.36 0 0 1 0-.11.17.17 0 0 1 0-.05v-.18c0-.82 0-1.6 0-2.33a9.85 9.85 0 0 0 0-1.09.57.57 0 0 1 .17-.47.52.52 0 0 1 1.12-.11l.61.05a10.37 10.37 0 0 1 1.22.14 2.06 2.06 0 0 0 1.23-.13 3.78 3.78 0 0 1 1-.32 7.28 7.28 0 0 1 .2-1.18 3.43 3.43 0 0 1 .13-.38l.06-.14a.57.57 0 0 1 .16-.25.48.48 0 0 1 .15-.4.42.42 0 0 0 .07-.15 1.26 1.26 0 0 1 .25-.42 1 1 0 0 1 .22-.3l.07-.08a.5.5 0 0 1 .22-.25.62.62 0 0 1 .19-.12l.08-.06a.56.56 0 0 1 .32-.24.66.66 0 0 1 .61-.24.66.66 0 0 1 .35-.25 6.77 6.77 0 0 1 1-.25.68.68 0 0 1 .5.07.94.94 0 0 1 .36-.1 1 1 0 0 1 .61-.12h.15a.85.85 0 0 1 .36 0h.4a.2.2 0 0 1 .11 0h.11a.59.59 0 0 1 .45.05 1.87 1.87 0 0 1 .41.1 1.27 1.27 0 0 1 .39.12.72.72 0 0 1 .4.17h.06.1l.18.09.14.07.11.07a3 3 0 0 1 1 .82 1 1 0 0 1 .25.32l.19.26.07.11.06.14.06.1v.12a.84.84 0 0 1 .13.33.73.73 0 0 1 0 .09v.11c.06.11.07.16.1.2a1.73 1.73 0 0 1 .13.51.5.5 0 0 1 0 .16l.06.13a.49.49 0 0 1 .08.39.2.2 0 0 1 0 .07 2.29 2.29 0 0 1 0 .25h.07.12.17.13.14.15l.23.07.18.07v.41l.13-.35.14.05h.18a.48.48 0 0 1 .2-.07.72.72 0 0 1 .33-.06.51.51 0 0 1 .29-.05l.78-.11h.18a1.23 1.23 0 0 1 .49 0 1.16 1.16 0 0 1 .33 0 .48.48 0 0 1 .38.19.64.64 0 0 1 .09.53v.76a2 2 0 0 1 0 .58v.73 1.13a1.52 1.52 0 0 1 0 .47 7.1 7.1 0 0 1 0 1 .2.2 0 0 1 0 .13.36.36 0 0 1 0 .15v.1.75c.06.74.07 1.49.08 2.21v1.05s0 .57 0 .85a.45.45 0 0 1 0 .16.57.57 0 0 1 0 .19c0 1.06.06 2.11.07 3.17v.5a8.19 8.19 0 0 1 0 .86 19.79 19.79 0 0 0 0 2c0 .38 0 .76.05 1.14s0 .51 0 .77v1.66.1a1.88 1.88 0 0 0 .05.43 1 1 0 0 1 0 .39.56.56 0 0 0 0 .2.39.39 0 0 1 0 .39.37.37 0 0 1 .08.18 15.81 15.81 0 0 1 0 1.66.52.52 0 0 1 -.2.39.47.47 0 0 1 -.42.08.86.86 0 0 0 -.23 0 1.15 1.15 0 0 1 -.59 0 2.54 2.54 0 0 0 -.69 0 .36.36 0 0 1 -.25-.06 1 1 0 0 1 -.69 0 .84.84 0 0 1 -.6 0 1.31 1.31 0 0 1 -.45 0h-.14c-.65.05-1.28 0-1.89 0-.33 0-.67 0-1 0h-2.89-.61a.43.43 0 0 1 -.21-.06h-.12a1.58 1.58 0 0 1 -.58 0 2.52 2.52 0 0 1 -.66 0c-.12 0-.23 0-.35 0h-.5a.7.7 0 0 1 -.54-.12.45.45 0 0 1 -.26.08h-.11a.85.85 0 0 1 -.48.05h-5.69v-.05a.45.45 0 0 1 -.4.09zm.43-.3.06.06-.05-.19zm19.29-.48h.16a.6.6 0 0 0 .25 0h.26v-.22a.49.49 0 0 1 -.31-.24 1 1 0 0 1 -.32.27s-.05 0 0 .09-.05.02-.05.06zm-20 0h.3a.37.37 0 0 1 .21 0h.42a.38.38 0 0 1 .45-.08.27.27 0 0 1 .1.08h3.95 1.4a.83.83 0 0 1 .22 0 .57.57 0 0 1 .16-.11 1 1 0 0 1 .09-.21h-.63-.95-.54a7.9 7.9 0 0 1 -1.29 0c-.3 0-.62 0-.91 0h-.33a3.38 3.38 0 0 1 -.84 0 1.2 1.2 0 0 0 -.61.1.31.31 0 0 1 -.13 0h-.2a.25.25 0 0 1 -.23-.07l-.08-.06a.57.57 0 0 1 -.11-.11.2.2 0 0 1 -.06-.07l-.06-.09a.43.43 0 0 1 0-.07h-.07a.44.44 0 0 1 -.19-.19s0 0 0 0 0 .1 0 .15a1.09 1.09 0 0 1 0 .18.76.76 0 0 0 -.09.52zm15.91 0h1.17.31-.08a.35.35 0 0 1 -.18-.06c-.24-.15-.29-.12-.35-.09a.39.39 0 0 1 -.38 0h-.3a.75.75 0 0 1 -.06.13zm-.42 0v-.17zm-4 0h3.36a.32.32 0 0 1 0-.14.35.35 0 0 1 0-.14h-.13a12.71 12.71 0 0 1 -1.38 0h-.47c-.42 0-.84 0-1.26 0h-.31a.33.33 0 0 1 -.14.12h-.05a.43.43 0 0 1 0 .11h.15zm-2.54 0h.45a1.06 1.06 0 0 0 .31 0 .28.28 0 0 1 .22 0 .78.78 0 0 0 .31 0h.07a.69.69 0 0 1 .15-.21h-2.28v.05a.53.53 0 0 1 .25.24h.44zm9.37 0a.06.06 0 0 1 0 0 .77.77 0 0 1 0-.15h-.14a.45.45 0 0 1 .11.19zm-1.46-1.05a1.07 1.07 0 0 1 .45.11.35.35 0 0 1 .16-.08.32.32 0 0 1 .31.07.41.41 0 0 1 .19-.08 2 2 0 0 1 .42 0 1.37 1.37 0 0 0 .37 0h.12a.46.46 0 0 1 .35 0h.25.17a3 3 0 0 1 -.07-.5v-.18a15.07 15.07 0 0 1 -.17-2.43.85.85 0 0 1 0-.41.69.69 0 0 1 0-.25 3 3 0 0 1 0-.51c0-.11 0-.22 0-.33-.05-.64-.05-1.29-.05-1.93 0-.48 0-1 0-1.44-.06-1.42-.08-2.86-.1-4.25 0-.32 0-.65 0-1a.57.57 0 0 1 .06-.24.87.87 0 0 1 -.07-.42c0-.2 0-.35 0-.5v-.4c0-.57 0-1.13 0-1.7v-.51a.49.49 0 0 1 0-.24 1.46 1.46 0 0 1 0-.36.36.36 0 0 1 0-.23 4.38 4.38 0 0 1 0-.8v-1.28a3.93 3.93 0 0 1 .06-1.56h-.09l-.1.05h-.12a.43.43 0 0 1 -.16 0h-.1a.69.69 0 0 1 -.29 0l-.36.05a.53.53 0 0 1 -.35 0 .48.48 0 0 1 -.33 0l-.12-.05-.12-.05h-.1-.09-.08-.11-.08a.31.31 0 0 1 -.13-.06h-.11a.42.42 0 0 1 -.25-.1l-.23-.1-.11-.07-.13-.06a1.5 1.5 0 0 0 -.45 0h-.06a2.42 2.42 0 0 1 -.75.27h-.08a1.38 1.38 0 0 1 -.26.07h-.05-.14-.12a.67.67 0 0 1 -.21.09c-.29.14-.55.23-.79 0a.43.43 0 0 1 -.34-.07h-.08a.66.66 0 0 1 -.3-.07l-.21-.08c-.31-.12-.61-.23-.9-.37a.55.55 0 0 0 -.46 0c-.32.15-.64.25-.95.36l-.5.17a1.77 1.77 0 0 1 -1.4 0c-.24-.1-.48-.19-.73-.27s-.49-.17-.73-.27c-.09 0-.24-.08-.33 0a5 5 0 0 1 -.85.33c-.17.06-.35.11-.51.18a2.47 2.47 0 0 1 -1.71.16l-.3-.06a2.7 2.7 0 0 1 -.39-.08 1.67 1.67 0 0 1 0 .43l-.34 4.98v2.21.91a.94.94 0 0 1 0 .44v1.27a.44.44 0 0 1 0 .27 1 1 0 0 1 0 .5 1.21 1.21 0 0 1 0 .33v.31 2.58a.68.68 0 0 1 0 .35v2a1.17 1.17 0 0 1 0 .22v.4a1 1 0 0 1 0 .17v.38a1 1 0 0 1 0 .33l-.39.05.37.07a.68.68 0 0 1 0 .14v.34l-.4.07.37.05v.14s0 .11 0 .13a1.91 1.91 0 0 1 -.06.57 1.26 1.26 0 0 1 -.05.37 1 1 0 0 1 -.07.39v.06l-.38.05h.37v.13a1 1 0 0 1 -.13.62.57.57 0 0 1 -.09.25 1.81 1.81 0 0 1 .94-.12 2.43 2.43 0 0 0 .66 0 5.15 5.15 0 0 1 .55 0h.79a7.75 7.75 0 0 0 1.18 0 7.9 7.9 0 0 1 1.09 0 5.8 5.8 0 0 0 .59 0h3.72 1.05s.87 0 1.32 0h.48 1.31-.22a2.83 2.83 0 0 1 1.07.08l.63-.06a.23.23 0 0 1 .16 0zm3.55-.06v.11l.06-.05-.09-.07zm-20.19-.87a.38.38 0 0 1 .27.12 1.34 1.34 0 0 1 0-.2.78.78 0 0 1 0-.16v-.13a.84.84 0 0 0 0-.24.45.45 0 0 1 0-.16.59.59 0 0 0 0-.21.39.39 0 0 1 0-.14 1 1 0 0 0 0-.36.68.68 0 0 1 0-.15v-.13s0 0 0-.11 0-.12 0-.17v-.2a1.06 1.06 0 0 1 .06-.22.82.82 0 0 1 0-.24.68.68 0 0 1 0-.15v-.39s0-.13 0-.15v-.3a.92.92 0 0 1 0-.15s0-.11 0-.12c0-.73 0-1.41 0-2.08a.43.43 0 0 1 0-.11.17.17 0 0 0 0-.12v-.6l.38-.11h-.37v-1.94a1.48 1.48 0 0 0 0-.21v-.11a.66.66 0 0 0 0-.2.42.42 0 0 1 0-.22.31.31 0 0 0 0-.19.32.32 0 0 1 0-.14.6.6 0 0 1 0-.22v-.48a.64.64 0 0 1 -.06-.18.22.22 0 0 1 0-.08.44.44 0 0 1 .07-.22v-.45a1 1 0 0 0 0-.3v-1c0-.73 0-1.45 0-2.18l.07-4.86a.68.68 0 0 0 -.06-.34.58.58 0 0 1 -.05-.5.62.62 0 0 1 .43-.32 1 1 0 0 1 .54 0 1.55 1.55 0 0 0 .36.08 2.33 2.33 0 0 1 .38.08 1.7 1.7 0 0 0 1.21-.13 5.84 5.84 0 0 1 .59-.2 4 4 0 0 0 .71-.28 1.12 1.12 0 0 1 1 0c.22.1.45.17.68.25s.53.18.79.29a1 1 0 0 0 .84 0l.52-.18a6.45 6.45 0 0 0 .87-.32 1.22 1.22 0 0 1 1.09 0l.52.22a.35.35 0 0 1 .33-.16h.11a0 0 0 0 1 0 0l-1.31-.46a.41.41 0 0 0 -.29 0c-.24.1-.5.18-.75.26a6.51 6.51 0 0 0 -1 .39 1 1 0 0 1 -.94 0 4.23 4.23 0 0 0 -1-.36l-.2-.06a.71.71 0 0 1 -.59-.89 4.67 4.67 0 0 1 1.4-2.82 2.5 2.5 0 0 1 .52-.35.44.44 0 0 1 -.2 0 .35.35 0 0 1 -.17-.09.19.19 0 0 1 -.07.06.41.41 0 0 1 -.2.26h-.16a.47.47 0 0 1 -.06.15.32.32 0 0 1 -.33.17.37.37 0 0 1 -.21.29.93.93 0 0 0 -.08.17l-.06.14a.66.66 0 0 1 .06.2.49.49 0 0 1 -.31.46l.26-.29.17.33-.07.16c0 .09-.07.18-.09.27-.09.39-.18.78-.25 1.17a.67.67 0 0 1 -.57.58 3.62 3.62 0 0 0 -.84.26 2.73 2.73 0 0 1 -1.67.18 8.31 8.31 0 0 0 -1.13-.12h-.45v1 2.3.16a.24.24 0 0 1 0 .08v1.47a.53.53 0 0 1 .19.35.55.55 0 0 1 -.17.37l-.07.08a3.75 3.75 0 0 1 0 .59v.19a.39.39 0 0 1 .15.31v.14a.38.38 0 0 1 -.15.3s0 .08 0 .1a2.55 2.55 0 0 0 0 .4v1.7a.29.29 0 0 1 0 .16v.08a.4.4 0 0 1 .11.27.4.4 0 0 1 -.11.26v.15a.22.22 0 0 1 0 .08.26.26 0 0 1 0 .15.24.24 0 0 0 0 .12.41.41 0 0 1 -.05.29v3.64a6 6 0 0 0 0 .74.4.4 0 0 1 0 .11.67.67 0 0 0 0 .42.44.44 0 0 1 0 .2.37.37 0 0 0 0 .21.44.44 0 0 1 0 .25.34.34 0 0 0 0 .09v.13.17.11a2.94 2.94 0 0 0 0 .56 1.31 1.31 0 0 1 0 .28l-.07.77v.23.24a.47.47 0 0 1 0 .16.81.81 0 0 1 0 .15v.13a1.78 1.78 0 0 1 0 .2v.25a.06.06 0 0 1 0 0 .57.57 0 0 1 0 .13 1.84 1.84 0 0 0 -.06.43v.12a.35.35 0 0 1 0 .13 1 1 0 0 0 0 .19v.25zm19.9-2.24a.56.56 0 0 1 0 .13 11.84 11.84 0 0 0 .12 1.92.21.21 0 0 1 .16 0h.09a.06.06 0 0 0 0 0 .74.74 0 0 0 0-.15 2.47 2.47 0 0 1 -.07-.58v-.1c0-.56 0-1.13 0-1.7 0-.25 0-.5 0-.75s0-.74-.05-1.11c0-.7-.07-1.42 0-2.13a6.77 6.77 0 0 0 0-.78c0-.18 0-.36 0-.54 0-1 0-2.06-.07-3.1a.37.37 0 0 1 -.07-.2.28.28 0 0 1 0-.15.48.48 0 0 1 0-.18c0-.25 0-.49 0-.74s0-.7 0-1.06c0-.62 0-1.25-.06-1.88a.39.39 0 0 1 -.21-.34v-.07a.42.42 0 0 1 .19-.26v-.35a1 1 0 0 1 0-.22.45.45 0 0 1 0-.23.43.43 0 0 1 0-.12c0-.32 0-.59 0-.85a.72.72 0 0 1 0-.21.69.69 0 0 0 0-.25c0-.32 0-.62 0-.91a.37.37 0 0 1 -.21.18.44.44 0 0 1 0 .15v.91.3a3 3 0 0 0 0 .68s0 .13 0 .15v.22a.66.66 0 0 0 0 .2.44.44 0 0 1 0 .1.78.78 0 0 1 0 .14.17.17 0 0 1 0 .07v.56 1.7.44.4.1a.6.6 0 0 1 0 .68v.91c0 1.39 0 2.82.1 4.23v1.48s0 1.25.05 1.86v.4a1.53 1.53 0 0 0 0 .37v.09a.4.4 0 0 1 0 .6zm-19.06-8.07s0 0 0 0zm18.78-5.76a0 0 0 0 0 -.03-.01zm.33-.89a.14.14 0 0 0 0 .09zm-.28-2.82a.36.36 0 0 1 .23.17v-.63a1.28 1.28 0 0 0 0-.4.23.23 0 0 1 0-.11v-.77h-.16-.18-.15-.14l-.71.1a.92.92 0 0 1 -.18 0 .3.3 0 0 1 0 .1.52.52 0 0 1 0 .11.46.46 0 0 1 -.11.16h.06.13l.16-.08a.62.62 0 0 1 .19-.07.84.84 0 0 1 .82.36.33.33 0 0 1 .07.21v.21a.44.44 0 0 1 0 .14zm-2.46-1.11h.12.1a.2.2 0 0 1 .11 0l.33-.05a.36.36 0 0 1 -.28-.3h-.32l-.2-.06-.14-.05-.12-.07h-.12l-.23-.07a1.21 1.21 0 0 1 -.18 0h-.14-.15-.1-.1l-.12-.05a.79.79 0 0 1 -.25-.15l-.15-.19a.38.38 0 0 1 -.18-.2h-.11a.71.71 0 0 1 -.09-.07s0 0 0 0v-.09a.35.35 0 0 1 -.1.26.92.92 0 0 1 -.52.25h-.13a.43.43 0 0 1 -.16 0h-.06l.06.26.06.27-.06-.27.06.27-.06-.27a1.34 1.34 0 0 0 .41-.15l.19-.09a2 2 0 0 1 .73-.08h.09a.33.33 0 0 1 .17 0l.24.13.09.05.22.09h.05.11l.2.09h.06.09.13l.18.08h.1.1zm-4.46-.24v.06.14h.06.09a.6.6 0 0 1 .25-.1l.25-.06h-.1a.31.31 0 0 1 -.22-.09 1 1 0 0 1 -.37.1.13.13 0 0 1 0-.1zm-5.16-3.76a4 4 0 0 0 -1.15 2.38s0 0 .06.05l.19.05a4.86 4.86 0 0 1 1.13.43.28.28 0 0 0 .22 0 7 7 0 0 1 1.12-.43c.24-.08.47-.15.7-.24a1.1 1.1 0 0 1 .82 0l1.36.48a.68.68 0 0 1 .29.17.39.39 0 0 1 .16 0 .39.39 0 0 0 .37-.06.58.58 0 0 1 .21-.06.44.44 0 0 1 .24-.1.3.3 0 0 1 .15 0 .52.52 0 0 1 .16-.06.49.49 0 0 1 .2-.05.61.61 0 0 1 .18 0 .67.67 0 0 1 0-.26s0 0 0-.08a.83.83 0 0 1 0-.15.91.91 0 0 0 -.12-.35 2.17 2.17 0 0 1 -.17-.49v-.11-.1a.68.68 0 0 1 -.12-.21v-.07l-.2-.21.2-.35-.27.26a3.86 3.86 0 0 0 -.54-.49l-.47-.24v-.4l-.14.35h-.1a.66.66 0 0 1 -.2-.06.64.64 0 0 1 -.17-.05h-.45a9.45 9.45 0 0 0 -1.07-.07l-.95.11a2.8 2.8 0 0 0 -1.49.6zm7.15 1.77a.4.4 0 0 1 .2.09h.06a.43.43 0 0 1 0-.22.5.5 0 0 1 0-.12.71.71 0 0 0 -.08-.28l-.07-.18v-.1a.67.67 0 0 1 -.12-.36s-.07-.06-.07-.08l-.06-.13v-.05c0-.07-.06-.12-.08-.18l-.19-.26c-.05 0-.05-.06-.07-.13l-.1-.08a2.4 2.4 0 0 0 -.65-.58.24.24 0 0 1 .06.11.31.31 0 0 1 0 .13.41.41 0 0 1 0 .19 2.65 2.65 0 0 1 .29.29l.09.09.29.33.07.11a.65.65 0 0 1 .08.17s0 0 .07.08a2.16 2.16 0 0 1 .08.23.36.36 0 0 1 0 .09.45.45 0 0 1 0 .11 1.11 1.11 0 0 0 .11.3 2.08 2.08 0 0 1 .1.43zm-2.65-3h.1.1v.39l.08-.35h.07.06l.29.14a.4.4 0 0 1 .15-.1.31.31 0 0 1 .21 0l-.11-.07a.5.5 0 0 1 -.14-.08h-.08-.07-.08-.08l-.08-.06h-.13-.12a.44.44 0 0 0 -.22-.07l-.08.08a.51.51 0 0 1 -.16.09.38.38 0 0 1 .17.08.3.3 0 0 1 .13-.05zm-4-.2a.52.52 0 0 1 -.27.39 5 5 0 0 1 1.11-.3.54.54 0 0 1 -.21-.26 5.39 5.39 0 0 0 -.59.17zm2.77 0h.33.24a.37.37 0 0 1 -.17-.18h-.13-.06a.41.41 0 0 1 -.17.19zm-1.19-.21a.52.52 0 0 1 -.09.2h.4.36a.33.33 0 0 1 -.13-.26h-.31a.38.38 0 0 1 -.19.07z"></path>
    <path d="m134.67 189.92a.7.7 0 0 1 .22-.23 1.33 1.33 0 0 0 0-1.94 2.2 2.2 0 0 0 -1.41-.47h-2.4c-.18 0-.22 0-.21.21 0 .46 0 .46.49.47.09 0 .16 0 .16.13-.05.77.05 1.54 0 2.31v1.64a.83.83 0 0 1 -.15 0c-.48-.06-.48-.06-.44.43v.05c0 .12 0 .16.16.16h1.86a4.91 4.91 0 0 0 1.66-.16 1.44 1.44 0 0 0 .93-1.64 1.39 1.39 0 0 0 -.87-.96zm-2.29-.66c0-.37 0-.74 0-1.1 0-.15 0-.2.19-.2h1.1a.77.77 0 0 1 .8.81.89.89 0 0 1 -.76.79c-.2 0-.41 0-.62 0h-.38c-.35.04-.36.04-.33-.3zm-.56 3.1s0 0 0-.05 0 0 0 .05l.12.1zm2-.32c-.22 0-.45 0-.67 0-.21 0-.43 0-.64 0s-.16 0-.15-.15a8.25 8.25 0 0 0 0-1.49c0-.12.08-.11.16-.11h1.23a1 1 0 0 1 1 .9.92.92 0 0 1 -.94.81z"></path>
    <path d="m132.81 193.1h-1.74a.55.55 0 0 1 -.41-.16.52.52 0 0 1 -.13-.41c0-.31 0-.53.14-.71a.56.56 0 0 1 .48-.14c0-.2 0-.39 0-.6s0-.47 0-.7a10.07 10.07 0 0 0 0-1.1c0-.32 0-.64 0-1-.46 0-.59-.24-.63-.79a.64.64 0 0 1 .14-.48.57.57 0 0 1 .45-.15h2.39a2.53 2.53 0 0 1 1.65.55 1.67 1.67 0 0 1 .55 1.32 1.59 1.59 0 0 1 -.41 1.07 1.73 1.73 0 0 1 .61 1 1.82 1.82 0 0 1 -1.16 2.07 3.35 3.35 0 0 1 -1.33.18h-.59zm2.04-2.63a1.19 1.19 0 0 1 -.32 1.71 1.05 1.05 0 0 0 .62-1.18 1 1 0 0 0 -.3-.53zm-2.92 1.47h.09v-.1a8.39 8.39 0 0 0 0-1.42.63.63 0 0 1 .11-.38.46.46 0 0 1 .22-.13.39.39 0 0 1 -.19-.12.72.72 0 0 1 -.13-.58 5.34 5.34 0 0 0 0-.8v-.27a.56.56 0 0 1 .16-.43l.09-.07h-.57a.25.25 0 0 1 .1.08.52.52 0 0 1 .12.38 10.67 10.67 0 0 0 0 1.13v1.17.64a8.68 8.68 0 0 1 -.04.9zm1.31-.28h.58c.32 0 .55-.22.55-.48a.57.57 0 0 0 -.58-.52h-1v1h.46zm.73-1.74a1.74 1.74 0 0 1 .39.11.39.39 0 0 1 0-.28v-.06a1.1 1.1 0 0 1 -.43.23zm.58-1.98a1.11 1.11 0 0 1 .33.85 1.13 1.13 0 0 1 -.21.63.83.83 0 0 0 .27-.63.89.89 0 0 0 -.27-.71zm-1.75.4v.07a7.3 7.3 0 0 1 0 .81h.91a.5.5 0 0 0 .42-.43c0-.17 0-.4-.43-.42s-.65-.02-.94-.03z"></path>
    <path d="m145.83 187.91a2.62 2.62 0 0 0 -2.58-.64 2.11 2.11 0 0 0 -1.42 1 2.85 2.85 0 0 0 -.38 1.67v.2a2.49 2.49 0 0 0 3.41 2.5 2.22 2.22 0 0 0 1.57-1.74 4.09 4.09 0 0 0 .09-1.35 2.77 2.77 0 0 0 -.69-1.64zm-3.13.32a2 2 0 0 0 0 .24 2 2 0 0 1 0-.24zm2.77 2.82a1.5 1.5 0 0 1 -1.72 1 1.67 1.67 0 0 1 -1.41-1.72 3 3 0 0 1 .41-1.83 2 2 0 0 1 1-.49 1.56 1.56 0 0 1 1.78 1.08 3 3 0 0 1 -.06 1.96z"></path>
    <path d="m143.92 193.19a2.89 2.89 0 0 1 -1.73-.54 3 3 0 0 1 -1.11-2.47v-.18a3.14 3.14 0 0 1 .42-1.85 2.42 2.42 0 0 1 1.67-1.22 3 3 0 0 1 2.93.74 3 3 0 0 1 .79 1.9 4.15 4.15 0 0 1 -.1 1.48 2.57 2.57 0 0 1 -1.83 2 3.79 3.79 0 0 1 -1.04.14zm-1.59-4.95a2.2 2.2 0 0 0 -.17.25 2.47 2.47 0 0 0 -.34 1.45v.24a2.25 2.25 0 0 0 .82 1.87 2.43 2.43 0 0 0 2.12.27 1.83 1.83 0 0 0 1.3-1.47 3.62 3.62 0 0 0 .09-1.22 2.36 2.36 0 0 0 -.59-1.46 2.22 2.22 0 0 0 -2.23-.53 1.87 1.87 0 0 0 -.56.22.33.33 0 0 1 .13 0 2.42 2.42 0 0 1 .75-.28 1.93 1.93 0 0 1 2.21 1.35 3.4 3.4 0 0 1 0 2.21 1.91 1.91 0 0 1 -2.14 1.22 2 2 0 0 1 -1.72-2.05 3.31 3.31 0 0 1 .38-1.92 1.11 1.11 0 0 1 0-.19zm.72.48a2.61 2.61 0 0 0 -.34 1.56c.08.85.42 1.28 1.09 1.38a1.12 1.12 0 0 0 1.32-.74 2.62 2.62 0 0 0 0-1.73 1.17 1.17 0 0 0 -1.35-.82 1.51 1.51 0 0 0 -.72.35z"></path>
    <path d="m141 187.28h-1.84c-.11 0-.15 0-.15.14 0 .49 0 .54.5.55h.17c-.39.68-.7 1.4-1.15 2.06a10 10 0 0 1 -.56-1l-.57-1.03h.14c.17.05.33-.07.5 0v-.52c0-.08 0-.13-.12-.13-.27 0-.53 0-.8 0-.07 0-.16.09-.2.07-.3-.17-.63 0-.95-.1-.1 0-.12 0-.12.14 0 .55 0 .55.53.55.07 0 .13 0 .14.06 0 .28.27.46.39.7a13.73 13.73 0 0 0 .87 1.6 1.8 1.8 0 0 1 .28 1.23.67.67 0 0 0 0 .2c.06.26-.06.31-.29.3s-.37 0-.37.39a.07.07 0 0 1 0 .05c0 .17.05.23.22.23h1.91s.11 0 .11 0c0-.21 0-.42 0-.64 0 0-.09 0-.14 0h-.2c-.2 0-.4.06-.28-.27 0-.07 0-.17 0-.25 0-.33-.07-.65.13-1 .49-.81.95-1.64 1.4-2.47.08-.13.17-.11.28-.1.35 0 .39 0 .37-.34a.54.54 0 0 1 0-.18c-.03-.19-.07-.25-.2-.24z"></path>
    <path d="m137.61 193.09a.53.53 0 0 1 -.57-.64.86.86 0 0 1 .17-.63.53.53 0 0 1 .49-.15s0-.09 0-.13a1.45 1.45 0 0 0 -.21-1 12.29 12.29 0 0 1 -.9-1.64l-.13-.2a1.9 1.9 0 0 1 -.21-.35.74.74 0 0 1 -.59-.18c-.18-.18-.18-.4-.17-.75a.5.5 0 0 1 .18-.41.63.63 0 0 1 .4-.09 1.24 1.24 0 0 0 .28 0 1.56 1.56 0 0 1 .6.05h.17.81a.5.5 0 0 1 .51.53v.51a.42.42 0 0 1 -.14.28.49.49 0 0 1 -.29.08l.3.58.09.18.15.28c.13-.24.26-.47.38-.72.06-.1.11-.21.16-.31a.67.67 0 0 1 -.29-.17.9.9 0 0 1 -.15-.73c0-.31.18-.48.53-.5h1.82a.48.48 0 0 1 .43.17.51.51 0 0 1 .12.43v.12a.72.72 0 0 1 -.16.61.73.73 0 0 1 -.58.13l-.22.4c-.37.66-.74 1.33-1.14 2a.78.78 0 0 0 -.07.48 1.82 1.82 0 0 1 0 .33.29.29 0 0 1 0 .09h.14a.42.42 0 0 1 .47.36 5.53 5.53 0 0 1 0 .69.47.47 0 0 1 -.12.3.58.58 0 0 1 -.34.11h-1.95zm.87-.75h.3l-.1-.1a.6.6 0 0 1 0-.6s0-.07 0-.15v-.25a1.52 1.52 0 0 1 .18-.89l.09-.14v.06a.36.36 0 0 1 -.31.17.37.37 0 0 1 -.28-.13 2.13 2.13 0 0 1 .22 1.28v.1a.58.58 0 0 1 -.1.53.53.53 0 0 1 -.14.12zm.75-.6.12.28v-.12a.43.43 0 0 0 -.06-.12zm-2.44-4a.5.5 0 0 1 .13.25.8.8 0 0 0 .16.3 2 2 0 0 1 .19.31c.19.39.39.77.6 1.13-.05-.1-.11-.2-.15-.3l-.09-.17c-.18-.35-.37-.7-.56-1.08a.36.36 0 0 1 0-.36.16.16 0 0 1 .06-.08.36.36 0 0 1 -.34-.04zm3.06 0a.43.43 0 0 1 .12.11.38.38 0 0 1 0 .42c-.15.25-.28.51-.42.78l-.21.39c.18-.32.37-.64.54-1l.28-.49a.59.59 0 0 1 .23-.24z"></path>
    <path d="m495.63 347.66h-8.09a3.17 3.17 0 0 1 -2.92-3.36v-10.3a4.68 4.68 0 0 1 .84-2.67 6.07 6.07 0 0 1 1.36-1.31l.34-.26a2 2 0 0 1 -.06-.5v-2.2a1.8 1.8 0 0 1 1.52-1.84h5.76a2.06 2.06 0 0 1 1.36.67 2 2 0 0 1 .4 1.19v2.2a1.77 1.77 0 0 1 -.07.52l.29.23a6 6 0 0 1 1.39 1.34 4.62 4.62 0 0 1 .83 2.63v10.3a3.18 3.18 0 0 1 -2.95 3.36zm-5.72-18.89a.87.87 0 0 1 .09.11 1.45 1.45 0 0 1 .31 1.21 3 3 0 0 1 -.58 1.13 5.92 5.92 0 0 1 -1.2 1.07 3.67 3.67 0 0 0 -.78.72 1.88 1.88 0 0 0 -.32 1.05v10.24a.8.8 0 0 0 .2.57h8a2.58 2.58 0 0 0 .11-.55v-10.26a1.79 1.79 0 0 0 -.3-1 3.81 3.81 0 0 0 -.77-.71 6.43 6.43 0 0 1 -1.22-1.1 3 3 0 0 1 -.56-1.15 1.43 1.43 0 0 1 .26-1.2l.17-.17v-.64h-3.41z"></path>
    <path d="m477.9 347.66h-8.09a3.17 3.17 0 0 1 -2.92-3.36v-10.3a4.6 4.6 0 0 1 .83-2.67 6.37 6.37 0 0 1 1.37-1.32l.34-.25a1.63 1.63 0 0 1 -.07-.5v-2.2a1.81 1.81 0 0 1 1.52-1.84h5.77a2.06 2.06 0 0 1 1.35.67 1.86 1.86 0 0 1 .4 1.23v2.16a2.18 2.18 0 0 1 -.07.52l.29.23a6.12 6.12 0 0 1 1.38 1.37 4.58 4.58 0 0 1 .83 2.64v10.26a3.17 3.17 0 0 1 -2.93 3.36zm-5.73-18.89a.52.52 0 0 1 .1.11 1.45 1.45 0 0 1 .31 1.21 3 3 0 0 1 -.58 1.13 6 6 0 0 1 -1.2 1.07 3.5 3.5 0 0 0 -.79.72 1.81 1.81 0 0 0 -.31 1.05v10.24a.75.75 0 0 0 .2.57h8s.11-.21.11-.55v-10.26a1.85 1.85 0 0 0 -.3-1 4.09 4.09 0 0 0 -.8-.73 6.09 6.09 0 0 1 -1.19-1.08 2.89 2.89 0 0 1 -.57-1.15 1.4 1.4 0 0 1 .27-1.2 1.29 1.29 0 0 1 .16-.17v-.64h-3.41z"></path>
    <path d="m441.86 406.93h64.19v4.31h-64.19z"></path>
    <path d="m507.46 412.65h-67v-7.13h67zm-64.19-2.81h61.38v-1.51h-61.38z"></path>
    <path d="m441.86 346.25h64.19v4.31h-64.19z"></path>
    <path d="m507.46 352h-67v-7.12h67zm-64.19-2.81h61.38v-1.5h-61.38z"></path>
    <path d="m441.86 301.81h64.19v4.31h-64.19z"></path>
    <path d="m507.46 307.52h-67v-7.12h67zm-64.19-2.81h61.38v-1.5h-61.38z"></path>
    <path d="m441.86 262.79h64.19v4.31h-64.19z"></path>
    <path d="m507.46 268.51h-67v-7.13h67zm-64.19-2.81h61.38v-1.51h-61.38z"></path>
    <path d="m440.46 261.71h2.81v164.73h-2.81z"></path>
    <path d="m256.2 262.8h2.81v216.98h-2.81z"></path>
    <path d="m459.55 264.19h-7.63a1.4 1.4 0 0 1 -1.41-1.4v-13.15a1.31 1.31 0 0 1 .07-.44l1.92-5.95v-4.83a1.4 1.4 0 0 1 1.41-1.41h3.7a1.41 1.41 0 0 1 1 .41 1.43 1.43 0 0 1 .41 1v4.83l1.92 5.95a1.62 1.62 0 0 1 .07.44v13.15a1.4 1.4 0 0 1 -1.46 1.4zm-6.23-2.81h4.82v-11.53l-1.92-5.95a1.55 1.55 0 0 1 -.07-.43v-3.65h-.89v3.65a1.25 1.25 0 0 1 -.07.43l-1.92 5.95z"></path>
    <path d="m473.28 264.19h-7.63a1.4 1.4 0 0 1 -1.4-1.4v-13.15a1.62 1.62 0 0 1 .07-.44l1.92-5.95v-4.83a1.39 1.39 0 0 1 .41-1 1.41 1.41 0 0 1 1-.41h3.71a1.45 1.45 0 0 1 1 .41 1.43 1.43 0 0 1 .41 1v4.83l1.92 5.95a1.31 1.31 0 0 1 .07.44v13.15a1.4 1.4 0 0 1 -1.48 1.4zm-6.23-2.81h4.83v-11.53l-1.88-5.95a1.25 1.25 0 0 1 -.07-.43v-3.65h-.93v3.65a1.54 1.54 0 0 1 -.06.43l-1.94 5.95z"></path>
    <path d="m344.59 406.93h64.19v4.31h-64.19z"></path>
    <path d="m410.19 412.65h-67v-7.13h67zm-64.19-2.81h61.38v-1.51h-61.38z"></path>
    <path d="m344.59 301.81h64.19v4.31h-64.19z"></path>
    <path d="m410.19 307.52h-67v-7.12h67zm-64.19-2.81h61.38v-1.5h-61.38z"></path>
    <path d="m344.59 262.79h64.19v4.31h-64.19z"></path>
    <path d="m410.19 268.51h-67v-7.13h67zm-64.19-2.81h61.38v-1.51h-61.38z"></path>
    <path d="m343.19 261.71h2.81v163.32h-2.81z"></path>
    <path d="m408.86 261.71h2.81v164.71h-2.81z"></path>
    <path d="m169.93 406.93h87.78v4.31h-87.78z"></path>
    <path d="m259.12 412.65h-90.6v-7.13h90.6zm-87.78-2.81h85v-1.51h-85z"></path>
    <path d="m93.96 262.79h163.72v4.2h-163.72z"></path>
    <path d="m259.09 268.39h-166.53v-7h166.53zm-163.72-2.81h160.91v-1.39h-160.91z"></path>
    <path d="m112.87 264.19h-7.62a1.4 1.4 0 0 1 -1.41-1.4v-13.15a1.31 1.31 0 0 1 .07-.44l1.92-5.95v-4.83a1.39 1.39 0 0 1 .41-1 1.41 1.41 0 0 1 1-.41h3.71a1.45 1.45 0 0 1 1 .41 1.43 1.43 0 0 1 .41 1v4.83l1.92 5.95a1.31 1.31 0 0 1 .07.44v13.15a1.4 1.4 0 0 1 -1.48 1.4zm-6.22-2.81h4.82v-11.53l-1.92-5.95a1.25 1.25 0 0 1 -.07-.43v-3.65h-.89v3.65a1.25 1.25 0 0 1 -.07.43l-1.92 5.95z"></path>
    <path d="m126.61 264.19h-7.61a1.4 1.4 0 0 1 -1.41-1.4v-13.15a1.31 1.31 0 0 1 .07-.44l1.92-5.95v-4.83a1.4 1.4 0 0 1 1.41-1.41h3.71a1.41 1.41 0 0 1 1 .41 1.39 1.39 0 0 1 .41 1v4.83l1.89 5.95a1.61 1.61 0 0 1 .06.44v13.15a1.4 1.4 0 0 1 -1.45 1.4zm-6.23-2.81h4.82v-11.53l-1.92-5.95a1.55 1.55 0 0 1 -.07-.43v-3.65h-.89v3.65a1.25 1.25 0 0 1 -.07.43l-1.92 5.95z"></path>
    <path d="m94 480.51h-9.61a1.41 1.41 0 0 1 -1.39-1.41v-255.4a1.41 1.41 0 0 1 1.41-1.41h9.59a1.41 1.41 0 0 1 1.41 1.41v255.4a1.41 1.41 0 0 1 -1.41 1.41zm-8.2-2.81h6.75v-252.6h-6.75z"></path>
    <path d="m515.61 481.19h-9.56a1.4 1.4 0 0 1 -1.4-1.4v-256.09a1.41 1.41 0 0 1 1.4-1.41h9.56a1.41 1.41 0 0 1 1.39 1.41v256.09a1.41 1.41 0 0 1 -1.39 1.4zm-8.15-2.81h6.74v-253.28h-6.74z"></path>
    <path d="m515.61 492h-42.35a1.41 1.41 0 0 1 -1.4-1.41v-10.8a1.41 1.41 0 0 1 1.4-1.41h42.35a1.41 1.41 0 0 1 1.41 1.41v10.76a1.41 1.41 0 0 1 -1.41 1.45zm-40.94-2.81h39.53v-8h-39.53z"></path>
    <path d="m410.15 492h-51.74a1.41 1.41 0 0 1 -1.41-1.41v-10.8a1.41 1.41 0 0 1 1.41-1.41h51.74a1.41 1.41 0 0 1 1.41 1.41v10.76a1.41 1.41 0 0 1 -1.41 1.45zm-50.33-2.81h48.93v-8h-48.93z"></path>
    <path d="m295.61 492h-56.39a1.41 1.41 0 0 1 -1.41-1.41v-10.8a1.41 1.41 0 0 1 1.41-1.41h56.39a1.41 1.41 0 0 1 1.41 1.41v10.76a1.41 1.41 0 0 1 -1.41 1.45zm-55-2.81h53.59v-8h-53.58z"></path>
    <path d="m176.42 492h-92a1.41 1.41 0 0 1 -1.42-1.45v-10.76a1.41 1.41 0 0 1 1.41-1.41h92a1.41 1.41 0 0 1 1.4 1.41v10.76a1.41 1.41 0 0 1 -1.39 1.45zm-90.62-2.85h89.2v-8h-89.2z"></path>
    <path d="m315.78 427.49h-8.1a3.17 3.17 0 0 1 -2.92-3.35v-10.27a4.69 4.69 0 0 1 .85-2.68 6.2 6.2 0 0 1 1.38-1.32l.32-.23a1.7 1.7 0 0 1 -.07-.51v-2.2a1.81 1.81 0 0 1 1.51-1.83h.2 5.58a2.07 2.07 0 0 1 1.36.69 2 2 0 0 1 .39 1.17v2.2a1.72 1.72 0 0 1 -.07.52l.27.21a6.61 6.61 0 0 1 1.41 1.36 4.65 4.65 0 0 1 .83 2.64v10.27a3.16 3.16 0 0 1 -2.94 3.33zm-5.73-18.88a.52.52 0 0 1 .1.11 1.42 1.42 0 0 1 .3 1.2 2.87 2.87 0 0 1 -.58 1.14 6.26 6.26 0 0 1 -1.19 1.07 3.45 3.45 0 0 0 -.79.71 1.81 1.81 0 0 0 -.31 1.05v10.25a.75.75 0 0 0 .19.56h8s.11-.21.11-.54v-10.27a1.83 1.83 0 0 0 -.3-1 4.32 4.32 0 0 0 -.79-.73 6 6 0 0 1 -1.21-1.09 2.92 2.92 0 0 1 -.56-1.15 1.4 1.4 0 0 1 .26-1.19c0-.07.11-.12.16-.18v-.63h-3.41z"></path>
    <path d="m336.47 427.49h-8.1a3.16 3.16 0 0 1 -2.92-3.35v-10.27a4.68 4.68 0 0 1 .84-2.67 6.08 6.08 0 0 1 1.37-1.31l.33-.25a2.1 2.1 0 0 1 -.06-.51v-2.2a1.82 1.82 0 0 1 1.51-1.83h.2 5.58a2.07 2.07 0 0 1 1.36.69 1.94 1.94 0 0 1 .42 1.21v2.15a1.88 1.88 0 0 1 -.07.53l.29.22a6.15 6.15 0 0 1 1.39 1.34 4.7 4.7 0 0 1 .83 2.64v10.27a3.17 3.17 0 0 1 -2.97 3.34zm-5.73-18.89.1.12a1.39 1.39 0 0 1 .3 1.2 2.87 2.87 0 0 1 -.58 1.14 6.7 6.7 0 0 1 -1.19 1.07 3.54 3.54 0 0 0 -.8.72 1.9 1.9 0 0 0 -.31 1v10.25a.74.74 0 0 0 .2.56h8s.1-.21.1-.54v-10.23a1.69 1.69 0 0 0 -.3-1 3.6 3.6 0 0 0 -.8-.74 6.39 6.39 0 0 1 -1.19-1.08 2.87 2.87 0 0 1 -.56-1.15 1.4 1.4 0 0 1 .26-1.19l.17-.18v-.63h-3.41z"></path>
    <path d="m515.61 225.1h-431.22a1.41 1.41 0 0 1 -1.39-1.4v-69.56a1.41 1.41 0 0 1 1.41-1.41h431.2a1.41 1.41 0 0 1 1.41 1.41v69.56a1.41 1.41 0 0 1 -1.41 1.4zm-429.81-2.81h428.4v-66.74h-428.4zm412.65-10h-396.9a1.41 1.41 0 0 1 -1.41-1.41v-44.75a1.41 1.41 0 0 1 1.41-1.41h396.9a1.41 1.41 0 0 1 1.41 1.41v44.75a1.41 1.41 0 0 1 -1.41 1.41zm-395.45-2.82h394.1v-41.93h-394.1z"></path>
    <path d="m172.86 264.21h-14.45v-15.91h14.45zm-11.64-2.81h8.83v-10.28h-8.83z"></path>
    <path d="m190.84 264.21h-14.45v-15.91h14.45zm-11.64-2.81h8.8v-10.28h-8.8z"></path>
    <path d="m208.82 264.21h-14.45v-15.91h14.45zm-11.64-2.81h8.82v-10.28h-8.82z"></path>
    <path d="m233.65 264.21h-14.45v-15.91h14.45zm-11.65-2.81h8.82v-10.28h-8.82z"></path>
    <path d="m159.94 412.18h-55.7a1.41 1.41 0 0 1 -1.4-1.41v-14.1a1.41 1.41 0 0 1 1.4-1.41h55.7a1.41 1.41 0 0 1 1.41 1.41v14.1a1.41 1.41 0 0 1 -1.41 1.41zm-54.29-2.82h52.89v-11.28h-52.89z"></path>
    <path d="m103.93 480.51h-9.93a1.41 1.41 0 0 1 -1.4-1.41v-82.43a1.41 1.41 0 0 1 1.4-1.41h10a1.41 1.41 0 0 1 1.41 1.41v82.43a1.41 1.41 0 0 1 -1.48 1.41zm-8.57-2.81h7.17v-79.62h-7.17z"></path>
    <path d="m169.93 480.51h-10a1.41 1.41 0 0 1 -1.4-1.41v-82.43a1.41 1.41 0 0 1 1.4-1.41h10a1.41 1.41 0 0 1 1.41 1.41v82.43a1.41 1.41 0 0 1 -1.41 1.41zm-8.58-2.81h7.17v-79.62h-7.17z"></path>
    <path d="m159.94 439.78h-55.7a1.41 1.41 0 0 1 -1.4-1.41v-27.6a1.41 1.41 0 0 1 1.4-1.41h55.7a1.41 1.41 0 0 1 1.41 1.41v27.6a1.41 1.41 0 0 1 -1.41 1.41zm-54.29-2.78h52.89v-24.82h-52.89z"></path>
    <path d="m159.94 467.08h-55.7a1.41 1.41 0 0 1 -1.4-1.41v-27.6a1.41 1.41 0 0 1 1.4-1.41h55.7a1.41 1.41 0 0 1 1.41 1.41v27.6a1.41 1.41 0 0 1 -1.41 1.41zm-54.29-2.82h52.89v-24.78h-52.89z"></path>
    <path d="m159.94 481.17h-55.7a1.4 1.4 0 0 1 -1.4-1.4v-14.1a1.41 1.41 0 0 1 1.4-1.41h55.7a1.41 1.41 0 0 1 1.41 1.41v14.1a1.41 1.41 0 0 1 -1.41 1.4zm-54.29-2.81h52.89v-11.28h-52.89z"></path>
    <path d="m218.32 407.88h-8.09a3.17 3.17 0 0 1 -2.92-3.36v-10.26a4.69 4.69 0 0 1 .84-2.68 6 6 0 0 1 1.39-1.32l.31-.24a2.07 2.07 0 0 1 -.06-.5v-2.2a1.81 1.81 0 0 1 1.51-1.84 1.49 1.49 0 0 1 .47 0h5.31a2.09 2.09 0 0 1 1.35.67 2 2 0 0 1 .4 1.19v2.2a1.81 1.81 0 0 1 -.07.52l.25.19a6.69 6.69 0 0 1 1.43 1.37 4.62 4.62 0 0 1 .82 2.65v10.26a3.17 3.17 0 0 1 -2.94 3.35zm-5.72-18.88.1.11a1.45 1.45 0 0 1 .3 1.2 3 3 0 0 1 -.58 1.14 6.26 6.26 0 0 1 -1.19 1.07 3.32 3.32 0 0 0 -.8.72 1.83 1.83 0 0 0 -.31 1v10.24a.74.74 0 0 0 .2.56h8s.11-.21.11-.54v-10.22a1.7 1.7 0 0 0 -.3-1 3.82 3.82 0 0 0 -.8-.74 6.48 6.48 0 0 1 -1.19-1.07 2.93 2.93 0 0 1 -.57-1.16 1.39 1.39 0 0 1 .27-1.19 1.29 1.29 0 0 1 .16-.17v-.64h-3.4z"></path>
    <path d="m199.76 407.88h-8.09a3.17 3.17 0 0 1 -2.92-3.36v-10.26a4.76 4.76 0 0 1 .83-2.68 6.21 6.21 0 0 1 1.4-1.32l.31-.24a1.68 1.68 0 0 1 -.07-.5v-2.2a1.81 1.81 0 0 1 1.52-1.84 1.49 1.49 0 0 1 .47 0h5.3a2.06 2.06 0 0 1 1.35.67 1.89 1.89 0 0 1 .4 1.23v2.16a1.82 1.82 0 0 1 -.08.52l.29.22a6.34 6.34 0 0 1 1.39 1.34 4.63 4.63 0 0 1 .83 2.65v10.26a3.17 3.17 0 0 1 -2.93 3.35zm-5.76-18.88a.52.52 0 0 1 .1.11 1.42 1.42 0 0 1 .31 1.2 3 3 0 0 1 -.58 1.14 6.31 6.31 0 0 1 -1.2 1.07 3.46 3.46 0 0 0 -.79.72 1.76 1.76 0 0 0 -.31 1v10.24a.7.7 0 0 0 .2.56h8s.11-.21.11-.54v-10.22a1.85 1.85 0 0 0 -.3-1 3.88 3.88 0 0 0 -.81-.74 6.28 6.28 0 0 1 -1.18-1.07 2.93 2.93 0 0 1 -.57-1.16 1.39 1.39 0 0 1 .27-1.19 1.29 1.29 0 0 1 .16-.17v-.64h-3.41z"></path>
    <path d="m236.89 407.88h-8.1a3.17 3.17 0 0 1 -2.92-3.36v-10.26a4.65 4.65 0 0 1 .85-2.68 5.62 5.62 0 0 1 1.39-1.32c.09-.08.2-.16.31-.24a1.68 1.68 0 0 1 -.07-.5v-2.2a1.82 1.82 0 0 1 1.51-1.84 1.49 1.49 0 0 1 .47 0h5.31a2.06 2.06 0 0 1 1.38.7 2 2 0 0 1 .37 1.16v2.2a1.81 1.81 0 0 1 -.07.52l.25.19a6.69 6.69 0 0 1 1.43 1.37 4.63 4.63 0 0 1 .83 2.64v10.27a3.17 3.17 0 0 1 -2.94 3.35zm-5.73-18.88a.52.52 0 0 1 .1.11 1.42 1.42 0 0 1 .3 1.2 2.87 2.87 0 0 1 -.58 1.14 6.26 6.26 0 0 1 -1.19 1.07 3.27 3.27 0 0 0 -.79.72 1.85 1.85 0 0 0 -.32 1v10.24a.74.74 0 0 0 .2.56h8s.11-.21.11-.54v-10.22a1.81 1.81 0 0 0 -.3-1 3.9 3.9 0 0 0 -.81-.75 6.48 6.48 0 0 1 -1.19-1.07 3 3 0 0 1 -.56-1.16 1.42 1.42 0 0 1 .26-1.19l.17-.17v-.64h-3.41z"></path>
    <circle cx="185.03" cy="492.72" r="2.96"></circle>
    <path d="m185 497.09a4.37 4.37 0 1 1 4.37-4.37 4.37 4.37 0 0 1 -4.37 4.37zm0-5.92a1.56 1.56 0 1 0 1.56 1.55 1.56 1.56 0 0 0 -1.56-1.55z"></path>
    <circle cx="230.61" cy="492.72" r="2.96"></circle>
    <path d="m230.61 497.09a4.37 4.37 0 1 1 4.37-4.37 4.37 4.37 0 0 1 -4.37 4.37zm0-5.92a1.56 1.56 0 1 0 1.55 1.55 1.56 1.56 0 0 0 -1.55-1.55z"></path>
    <path d="m155.47 304.41h-11.16c-1.93 0-3.5-1.84-3.5-4.09v-14.16a5.9 5.9 0 0 1 1.06-3.38 7.85 7.85 0 0 1 1.81-1.71c.24-.19.52-.39.74-.58a2 2 0 0 1 -.19-.87v-3a2 2 0 0 1 1.64-2h7.88a1.84 1.84 0 0 1 1.45.72 2.15 2.15 0 0 1 .44 1.31v3a2.27 2.27 0 0 1 -.18.88c.21.2.43.37.65.55a8.34 8.34 0 0 1 1.84 1.76 5.81 5.81 0 0 1 1.05 3.34v14.16c0 2.23-1.6 4.07-3.53 4.07zm-8.47-25.28a1.42 1.42 0 0 1 .25.24 1.47 1.47 0 0 1 .32 1.2 3.65 3.65 0 0 1 -.7 1.37 8.38 8.38 0 0 1 -1.55 1.38 5.35 5.35 0 0 0 -1.21 1.11 3.05 3.05 0 0 0 -.53 1.75v14.14c0 .79.45 1.28.69 1.28h11.16c.24 0 .69-.49.69-1.28v-14.13a3 3 0 0 0 -.52-1.73 5.73 5.73 0 0 0 -1.22-1.13 8.35 8.35 0 0 1 -1.54-1.4 3.28 3.28 0 0 1 -.68-1.39 1.39 1.39 0 0 1 .27-1.18 1.55 1.55 0 0 1 .33-.3v-1.68h-5.76z"></path>
    <path d="m131 304.41h-11.15c-1.93 0-3.5-1.84-3.5-4.09v-14.16a5.83 5.83 0 0 1 1.06-3.38 7.63 7.63 0 0 1 1.8-1.71c.25-.19.52-.39.74-.58a2.08 2.08 0 0 1 -.18-.87v-3a2 2 0 0 1 1.63-2h7.88a1.86 1.86 0 0 1 1.46.72 2.17 2.17 0 0 1 .43 1.34v3a2.17 2.17 0 0 1 -.19.88c.21.2.43.37.66.55a8.38 8.38 0 0 1 1.84 1.76 5.86 5.86 0 0 1 1 3.34v14.16c.03 2.2-1.54 4.04-3.48 4.04zm-8.43-25.28a1.36 1.36 0 0 1 .24.24 1.44 1.44 0 0 1 .32 1.2 3.42 3.42 0 0 1 -.69 1.37 8.72 8.72 0 0 1 -1.55 1.38 5.15 5.15 0 0 0 -1.21 1.11 3.05 3.05 0 0 0 -.53 1.75v14.14c0 .79.44 1.28.69 1.28h11.16c.24 0 .68-.49.68-1.28v-14.13a2.89 2.89 0 0 0 -.52-1.73 5.54 5.54 0 0 0 -1.19-1.12 8.24 8.24 0 0 1 -1.56-1.41 3.55 3.55 0 0 1 -.69-1.37 1.44 1.44 0 0 1 .27-1.2 1.38 1.38 0 0 1 .34-.3v-1.68h-5.77z"></path>
    <path d="m199.17 304.41h-11.17c-1.92 0-3.49-1.84-3.49-4.09v-14.16a5.83 5.83 0 0 1 1.06-3.38 7.63 7.63 0 0 1 1.8-1.71c.25-.19.52-.39.74-.58a2.13 2.13 0 0 1 -.19-.87v-3a2 2 0 0 1 1.64-2h.06a1.45 1.45 0 0 1 .36 0h7.46a1.84 1.84 0 0 1 1.47.74 2.06 2.06 0 0 1 .42 1.32v3a2.17 2.17 0 0 1 -.19.88 6.42 6.42 0 0 0 .64.53 8.56 8.56 0 0 1 1.86 1.78 5.78 5.78 0 0 1 1 3.34v14.16c.02 2.2-1.55 4.04-3.47 4.04zm-8.43-25.28a1.36 1.36 0 0 1 .24.24 1.44 1.44 0 0 1 .32 1.2 3.42 3.42 0 0 1 -.69 1.37 8.48 8.48 0 0 1 -1.55 1.38 5.15 5.15 0 0 0 -1.21 1.11 3.05 3.05 0 0 0 -.53 1.75v14.14c0 .79.44 1.28.68 1.28h11.17c.24 0 .68-.49.68-1.28v-14.13a3 3 0 0 0 -.52-1.73 5.45 5.45 0 0 0 -1.21-1.13 8.48 8.48 0 0 1 -1.55-1.4 3.53 3.53 0 0 1 -.68-1.37 1.4 1.4 0 0 1 .27-1.2 1.38 1.38 0 0 1 .34-.3v-1.68h-5.77z"></path>
    <path d="m241.38 348.57h-11.16c-1.93 0-3.5-1.84-3.5-4.1v-14.16a5.89 5.89 0 0 1 1.06-3.37 8.07 8.07 0 0 1 1.81-1.72c.24-.18.51-.39.73-.58a2 2 0 0 1 -.18-.86v-3a2 2 0 0 1 1.63-2h.2 7.69a1.82 1.82 0 0 1 1.45.73 2.12 2.12 0 0 1 .44 1.3v3a2.09 2.09 0 0 1 -.19.87 6.33 6.33 0 0 0 .7.58 8.46 8.46 0 0 1 1.8 1.73 5.84 5.84 0 0 1 1 3.34v14.16c.02 2.24-1.55 4.08-3.48 4.08zm-8.38-25.28a1.84 1.84 0 0 1 .25.23 1.49 1.49 0 0 1 .32 1.21 3.41 3.41 0 0 1 -.7 1.36 8.44 8.44 0 0 1 -1.55 1.39 5.27 5.27 0 0 0 -1.21 1.1 3.08 3.08 0 0 0 -.53 1.75v14.14c0 .8.45 1.28.69 1.28h11.16c.24 0 .69-.48.69-1.28v-14.13a3 3 0 0 0 -.52-1.72 5.79 5.79 0 0 0 -1.22-1.14 8.24 8.24 0 0 1 -1.54-1.39 3.4 3.4 0 0 1 -.68-1.39 1.42 1.42 0 0 1 .27-1.19 1.55 1.55 0 0 1 .33-.3v-1.68h-5.76z"></path>
    <path d="m212.19 348.57h-11.19c-1.93 0-3.49-1.84-3.49-4.1v-14.16a5.82 5.82 0 0 1 1.06-3.37 8.06 8.06 0 0 1 1.8-1.72c.25-.18.52-.39.74-.58a2 2 0 0 1 -.19-.86v-3a2 2 0 0 1 1.64-2h.2 7.69a1.83 1.83 0 0 1 1.45.73 2.18 2.18 0 0 1 .43 1.3v3a2.09 2.09 0 0 1 -.19.87 5.85 5.85 0 0 0 .67.56 8.72 8.72 0 0 1 1.83 1.75 5.76 5.76 0 0 1 1 3.34v14.16c.04 2.24-1.52 4.08-3.45 4.08zm-8.43-25.28a1.75 1.75 0 0 1 .24.23 1.42 1.42 0 0 1 .32 1.21 3.55 3.55 0 0 1 -.69 1.36 8.44 8.44 0 0 1 -1.55 1.39 5.27 5.27 0 0 0 -1.21 1.1 3.08 3.08 0 0 0 -.53 1.75v14.14c0 .8.44 1.28.68 1.28h11.17c.24 0 .68-.48.68-1.28v-14.13a3 3 0 0 0 -.52-1.72 5.73 5.73 0 0 0 -1.21-1.14 8 8 0 0 1 -1.55-1.39 3.56 3.56 0 0 1 -.68-1.38 1.39 1.39 0 0 1 .27-1.19 1.26 1.26 0 0 1 .34-.31v-1.68h-5.77z"></path>
    <path d="m183 348.57h-11.17c-1.93 0-3.5-1.84-3.5-4.1v-14.16a5.89 5.89 0 0 1 1.06-3.37 8.07 8.07 0 0 1 1.81-1.72c.25-.18.52-.39.74-.58a2 2 0 0 1 -.19-.86v-3a2 2 0 0 1 1.64-2h.19 7.69a1.82 1.82 0 0 1 1.45.73 2.16 2.16 0 0 1 .43 1.33v3a2.09 2.09 0 0 1 -.19.87 6.86 6.86 0 0 0 .67.56 8.48 8.48 0 0 1 1.83 1.75 5.84 5.84 0 0 1 1.05 3.34v14.16c-.02 2.21-1.59 4.05-3.51 4.05zm-8.43-25.28a1.84 1.84 0 0 1 .25.23 1.49 1.49 0 0 1 .32 1.21 3.41 3.41 0 0 1 -.7 1.36 8.44 8.44 0 0 1 -1.55 1.39 5.48 5.48 0 0 0 -1.21 1.1 3 3 0 0 0 -.52 1.75v14.14c0 .8.44 1.28.68 1.28h11.16c.24 0 .69-.48.69-1.28v-14.13a3 3 0 0 0 -.52-1.72 5.79 5.79 0 0 0 -1.22-1.14 7.94 7.94 0 0 1 -1.54-1.39 3.43 3.43 0 0 1 -.68-1.38 1.39 1.39 0 0 1 .27-1.19 1.22 1.22 0 0 1 .33-.31v-1.68h-5.77z"></path>
    <path d="m95.19 346.25h162.52v4.31h-162.52z"></path>
    <path d="m259.12 352h-165.34v-7.12h165.34zm-162.52-2.84h159.7v-1.5h-159.7z"></path>
    <path d="m95.19 301.81h162.52v4.31h-162.52z"></path>
    <path d="m259.12 307.52h-165.34v-7.12h165.34zm-162.52-2.81h159.7v-1.5h-159.7z"></path>
    <path d="m366.33 303.92h-14.45v-15.92h14.45zm-11.64-2.81h8.83v-10.28h-8.83z"></path>
    <path d="m384.31 303.92h-14.46v-15.92h14.46zm-11.64-2.81h8.83v-10.28h-8.83z"></path>
    <path d="m380.78 409h-14.46v-15.93h14.46zm-11.64-2.81h8.86v-10.3h-8.82z"></path>
    <path d="m405.61 409h-14.45v-15.93h14.45zm-11.61-2.83h8.83v-10.28h-8.83z"></path>
    <path d="m389.51 350.15h-14.76c-2.3 0-4.17-2.22-4.17-5v-18.68a7.34 7.34 0 0 1 1.32-4.21 10 10 0 0 1 2.27-2.15 13.09 13.09 0 0 0 1.28-1.05 2.25 2.25 0 0 1 -.35-1.24v-4a2.15 2.15 0 0 1 1.77-2.21 2.41 2.41 0 0 1 .38 0h10a2 2 0 0 1 1.57.79 2.35 2.35 0 0 1 .47 1.47v4a2.3 2.3 0 0 1 -.38 1.28 13.3 13.3 0 0 0 1.24 1 10.51 10.51 0 0 1 2.29 2.19 7.27 7.27 0 0 1 1.29 4.15 1.61 1.61 0 0 1 -.41 1.09 1.47 1.47 0 0 1 -1 .5h-3.22v.71l.1.11a1.44 1.44 0 0 1 .3 1.21 2.84 2.84 0 0 1 -.58 1.13 6.26 6.26 0 0 1 -1.19 1.07 3.48 3.48 0 0 0 -.79.72 1.78 1.78 0 0 0 -.32 1.06v10.21a.86.86 0 0 0 .18.55h5.31a1.42 1.42 0 0 1 1.11.54 1.45 1.45 0 0 1 .25 1.21 4.31 4.31 0 0 1 -3.96 3.55zm-11.6-32.73a1.43 1.43 0 0 1 .42.35 1.48 1.48 0 0 1 .34 1.2 4.25 4.25 0 0 1 -.83 1.64 11.54 11.54 0 0 1 -2 1.74 7.4 7.4 0 0 0 -1.69 1.56 4.46 4.46 0 0 0 -.79 2.57v18.71c0 1.23.72 2.15 1.36 2.15h10.74a3.44 3.44 0 0 1 -1.68-3v-10.34a4.72 4.72 0 0 1 .85-2.68 5.78 5.78 0 0 1 1.37-1.32l.32-.24a1.63 1.63 0 0 1 -.07-.5v-2.2a1.82 1.82 0 0 1 1.51-1.84h2.9a3.83 3.83 0 0 0 -.6-1.29 7.56 7.56 0 0 0 -1.7-1.59 11.19 11.19 0 0 1 -2-1.76 4.24 4.24 0 0 1 -.81-1.65 1.38 1.38 0 0 1 .8-1.61v-3h-8.55z"></path>
    <path d="m363.44 347.66h-8.09a3.17 3.17 0 0 1 -2.92-3.36v-10.3a4.61 4.61 0 0 1 .84-2.67 6 6 0 0 1 1.37-1.32l.33-.25a1.63 1.63 0 0 1 -.07-.5v-2.2a1.81 1.81 0 0 1 1.52-1.84h5.77a2 2 0 0 1 1.35.67 1.86 1.86 0 0 1 .4 1.23v2.16a2.18 2.18 0 0 1 -.07.52l.29.23a6.12 6.12 0 0 1 1.38 1.34 4.58 4.58 0 0 1 .83 2.64v10.29a3.17 3.17 0 0 1 -2.93 3.36zm-5.73-18.89a.52.52 0 0 1 .1.11 1.45 1.45 0 0 1 .31 1.21 3 3 0 0 1 -.58 1.13 6 6 0 0 1 -1.2 1.07 3.73 3.73 0 0 0 -.79.72 1.89 1.89 0 0 0 -.31 1.05v10.24a.8.8 0 0 0 .2.57h8s.11-.21.11-.55v-10.26a1.85 1.85 0 0 0 -.3-1 4.09 4.09 0 0 0 -.8-.73 6.39 6.39 0 0 1 -1.19-1.08 2.89 2.89 0 0 1 -.57-1.15 1.4 1.4 0 0 1 .27-1.2 1.29 1.29 0 0 1 .16-.17v-.64h-3.41z"></path>
    <path d="m344.59 346.25h64.19v4.31h-64.19z"></path>
    <path d="m410.19 352h-67v-7.12h67zm-64.19-2.84h61.38v-1.5h-61.38z"></path>
    <path d="m184.55 492h-8.13a1.41 1.41 0 0 1 -1.41-1.41v-64.15a1.41 1.41 0 0 1 1.41-1.4h8.13a1.4 1.4 0 0 1 1.4 1.4v64.13a1.41 1.41 0 0 1 -1.4 1.43zm-6.73-2.81h5.32v-61.34h-5.32z"></path>
    <path d="m239.22 492h-8.13a1.41 1.41 0 0 1 -1.41-1.41v-64.15a1.41 1.41 0 0 1 1.41-1.4h8.13a1.4 1.4 0 0 1 1.4 1.4v64.13a1.41 1.41 0 0 1 -1.4 1.43zm-6.73-2.81h5.32v-61.34h-5.32z"></path>
    <path d="m231.09 437h-46.54a1.41 1.41 0 0 1 -1.41-1.41v-9.19a1.41 1.41 0 0 1 1.41-1.4h46.54a1.4 1.4 0 0 1 1.4 1.4v9.17a1.41 1.41 0 0 1 -1.4 1.43zm-45.09-2.84h43.73v-6.35h-43.73z"></path>
    <path d="m231.09 455.31h-46.54a1.41 1.41 0 0 1 -1.41-1.41v-18.33a1.41 1.41 0 0 1 1.41-1.41h46.54a1.41 1.41 0 0 1 1.4 1.41v18.33a1.41 1.41 0 0 1 -1.4 1.41zm-45.09-2.81h43.73v-15.5h-43.73z"></path>
    <path d="m231.09 464.48h-46.54a1.41 1.41 0 0 1 -1.41-1.41v-9.17a1.41 1.41 0 0 1 1.41-1.4h46.54a1.4 1.4 0 0 1 1.4 1.4v9.17a1.41 1.41 0 0 1 -1.4 1.41zm-45.09-2.82h43.73v-6.35h-43.73z"></path>
    <path d="m231.09 482.81h-46.54a1.41 1.41 0 0 1 -1.41-1.41v-18.33a1.41 1.41 0 0 1 1.41-1.41h46.54a1.41 1.41 0 0 1 1.4 1.41v18.33a1.41 1.41 0 0 1 -1.4 1.41zm-45.09-2.81h43.73v-15.52h-43.73z"></path>
    <path d="m231.09 492h-46.54a1.41 1.41 0 0 1 -1.41-1.41v-9.19a1.41 1.41 0 0 1 1.41-1.4h46.54a1.4 1.4 0 0 1 1.4 1.4v9.17a1.41 1.41 0 0 1 -1.4 1.43zm-45.09-2.83h43.73v-6.36h-43.73z"></path>
    <circle cx="304.22" cy="492.72" r="2.96"></circle>
    <path d="m304.22 497.09a4.37 4.37 0 1 1 4.37-4.37 4.37 4.37 0 0 1 -4.37 4.37zm0-5.92a1.56 1.56 0 1 0 1.56 1.55 1.56 1.56 0 0 0 -1.56-1.55z"></path>
    <circle cx="349.8" cy="492.72" r="2.96"></circle>
    <path d="m349.8 497.09a4.37 4.37 0 1 1 4.37-4.37 4.37 4.37 0 0 1 -4.37 4.37zm0-5.92a1.56 1.56 0 1 0 1.56 1.55 1.56 1.56 0 0 0 -1.56-1.55z"></path>
    <path d="m303.75 492h-8.14a1.41 1.41 0 0 1 -1.4-1.41v-64.17a1.4 1.4 0 0 1 1.4-1.4h8.14a1.4 1.4 0 0 1 1.4 1.4v64.13a1.41 1.41 0 0 1 -1.4 1.45zm-6.75-2.85h5.32v-61.32h-5.32z"></path>
    <path d="m358.41 492h-8.13a1.41 1.41 0 0 1 -1.41-1.41v-64.17a1.41 1.41 0 0 1 1.41-1.4h8.13a1.41 1.41 0 0 1 1.41 1.4v64.13a1.41 1.41 0 0 1 -1.41 1.45zm-6.72-2.81h5.31v-61.36h-5.31z"></path>
    <path d="m350.28 437h-46.53a1.41 1.41 0 0 1 -1.41-1.4v-9.17a1.41 1.41 0 0 1 1.41-1.4h46.53a1.41 1.41 0 0 1 1.41 1.4v9.17a1.41 1.41 0 0 1 -1.41 1.4zm-45.13-2.81h43.72v-6.35h-43.72z"></path>
    <path d="m350.28 455.29h-46.53a1.41 1.41 0 0 1 -1.41-1.41v-18.33a1.41 1.41 0 0 1 1.41-1.41h46.53a1.41 1.41 0 0 1 1.41 1.41v18.33a1.41 1.41 0 0 1 -1.41 1.41zm-45.13-2.81h43.72v-15.48h-43.72z"></path>
    <path d="m350.28 464.46h-46.53a1.41 1.41 0 0 1 -1.41-1.41v-9.17a1.41 1.41 0 0 1 1.41-1.4h46.53a1.41 1.41 0 0 1 1.41 1.4v9.17a1.41 1.41 0 0 1 -1.41 1.41zm-45.13-2.82h43.72v-6.35h-43.72z"></path>
    <path d="m350.28 482.79h-46.53a1.41 1.41 0 0 1 -1.41-1.41v-18.33a1.41 1.41 0 0 1 1.41-1.41h46.53a1.41 1.41 0 0 1 1.41 1.41v18.33a1.41 1.41 0 0 1 -1.41 1.41zm-45.13-2.79h43.72v-15.54h-43.72z"></path>
    <path d="m350.28 492h-46.53a1.41 1.41 0 0 1 -1.41-1.41v-9.17a1.41 1.41 0 0 1 1.41-1.4h46.53a1.41 1.41 0 0 1 1.41 1.4v9.17a1.41 1.41 0 0 1 -1.41 1.41zm-45.13-2.81h43.72v-6.36h-43.72z"></path>
    <circle cx="418.76" cy="492.72" r="2.96"></circle>
    <path d="m418.76 497.09a4.37 4.37 0 1 1 4.37-4.37 4.37 4.37 0 0 1 -4.37 4.37zm0-5.92a1.56 1.56 0 1 0 1.55 1.55 1.55 1.55 0 0 0 -1.55-1.55z"></path>
    <circle cx="464.34" cy="492.72" r="2.96"></circle>
    <path d="m464.34 497.09a4.37 4.37 0 1 1 4.37-4.37 4.37 4.37 0 0 1 -4.37 4.37zm0-5.92a1.56 1.56 0 1 0 1.56 1.55 1.55 1.55 0 0 0 -1.56-1.55z"></path>
    <path d="m418.28 492h-8.13a1.41 1.41 0 0 1 -1.4-1.41v-64.17a1.4 1.4 0 0 1 1.4-1.4h8.13a1.41 1.41 0 0 1 1.41 1.4v64.13a1.41 1.41 0 0 1 -1.41 1.45zm-6.72-2.81h5.32v-61.36h-5.32z"></path>
    <path d="m473 492h-8.13a1.41 1.41 0 0 1 -1.41-1.41v-64.17a1.41 1.41 0 0 1 1.41-1.4h8.13a1.41 1.41 0 0 1 1.41 1.4v64.13a1.41 1.41 0 0 1 -1.41 1.45zm-6.72-2.81h5.31v-61.36h-5.31z"></path>
    <path d="m464.82 437h-46.54a1.4 1.4 0 0 1 -1.4-1.4v-9.17a1.4 1.4 0 0 1 1.4-1.4h46.54a1.41 1.41 0 0 1 1.41 1.4v9.17a1.41 1.41 0 0 1 -1.41 1.4zm-45.13-2.81h43.72v-6.35h-43.72z"></path>
    <path d="m464.82 455.29h-46.54a1.41 1.41 0 0 1 -1.4-1.41v-18.33a1.41 1.41 0 0 1 1.4-1.41h46.54a1.41 1.41 0 0 1 1.41 1.41v18.33a1.41 1.41 0 0 1 -1.41 1.41zm-45.13-2.81h43.72v-15.48h-43.72z"></path>
    <path d="m464.82 464.46h-46.54a1.41 1.41 0 0 1 -1.4-1.41v-9.17a1.4 1.4 0 0 1 1.4-1.4h46.54a1.41 1.41 0 0 1 1.41 1.4v9.17a1.41 1.41 0 0 1 -1.41 1.41zm-45.13-2.82h43.72v-6.35h-43.72z"></path>
    <path d="m464.82 482.79h-46.54a1.41 1.41 0 0 1 -1.4-1.41v-18.33a1.41 1.41 0 0 1 1.4-1.41h46.54a1.41 1.41 0 0 1 1.41 1.41v18.33a1.41 1.41 0 0 1 -1.41 1.41zm-45.13-2.79h43.72v-15.54h-43.72z"></path>
    <path d="m464.82 492h-46.54a1.41 1.41 0 0 1 -1.4-1.41v-9.17a1.4 1.4 0 0 1 1.4-1.4h46.54a1.41 1.41 0 0 1 1.41 1.4v9.17a1.41 1.41 0 0 1 -1.41 1.41zm-45.13-2.81h43.72v-6.36h-43.72z"></path>
    <path d="m394.83 347.66h-8.1a3.17 3.17 0 0 1 -2.92-3.36v-10.3a4.67 4.67 0 0 1 .85-2.68 5.78 5.78 0 0 1 1.34-1.32l.32-.24a1.63 1.63 0 0 1 -.07-.5v-2.2a1.82 1.82 0 0 1 1.51-1.84h5.78a2.08 2.08 0 0 1 1.37.7 1.92 1.92 0 0 1 .38 1.16v2.2a1.77 1.77 0 0 1 -.07.52l.25.2a6.48 6.48 0 0 1 1.43 1.37 4.59 4.59 0 0 1 .83 2.63v10.3a3.17 3.17 0 0 1 -2.9 3.36zm-5.73-18.89.1.11a1.44 1.44 0 0 1 .3 1.21 2.84 2.84 0 0 1 -.58 1.13 6.26 6.26 0 0 1 -1.19 1.07 3.48 3.48 0 0 0 -.79.72 1.78 1.78 0 0 0 -.32 1.06v10.23a.8.8 0 0 0 .2.57h8s.11-.22.11-.55v-10.26a1.81 1.81 0 0 0 -.3-1 3.9 3.9 0 0 0 -.81-.74 6.52 6.52 0 0 1 -1.19-1.08 2.86 2.86 0 0 1 -.56-1.15 1.43 1.43 0 0 1 .26-1.2l.16-.17v-.64h-3.39z"></path>
  </g>
</svg>
