<?xml version="1.0" encoding="UTF-8"?>
<svg xmlns="http://www.w3.org/2000/svg" id="Layer_1" data-name="Layer 1" viewBox="0 0 600 600">
  <defs>
    <style>.cls-1,.cls-3,.cls-8{fill:#fb715d;}.cls-1,.cls-10,.cls-11,.cls-13,.cls-14,.cls-2,.cls-3,.cls-4,.cls-5{stroke:#1c19a8;stroke-width:2.82px;}.cls-1,.cls-11,.cls-13,.cls-14,.cls-2,.cls-3,.cls-4,.cls-5{stroke-linejoin:round;}.cls-12,.cls-2{fill:#fff;}.cls-11,.cls-3,.cls-6,.cls-8{fill-rule:evenodd;}.cls-11,.cls-4,.cls-6,.cls-7{fill:#ffde00;}.cls-5{fill:#00ab81;}.cls-10,.cls-13,.cls-9{fill:#1c19a8;}.cls-10{stroke-miterlimit:10;}.cls-14{fill:none;}</style>
  </defs>
  <title>Shop_</title>
  <rect class="cls-1" x="108.2" y="483.43" width="241.44" height="7.92"></rect>
  <rect class="cls-2" x="115.59" y="247.49" width="371.44" height="235.94"></rect>
  <polygon class="cls-3" points="271.39 360 247.51 360 247.51 367.2 247.51 394.53 271.39 394.53 271.39 360"></polygon>
  <line class="cls-4" x1="246.83" y1="368.61" x2="271.39" y2="368.61"></line>
  <line class="cls-4" x1="246.83" y1="373.17" x2="271.39" y2="373.17"></line>
  <polygon class="cls-3" points="247.56 360 223.68 360 223.68 367.2 223.68 394.53 247.56 394.53 247.56 360"></polygon>
  <line class="cls-4" x1="223" y1="368.61" x2="247.56" y2="368.61"></line>
  <line class="cls-4" x1="223" y1="373.17" x2="247.56" y2="373.17"></line>
  <rect class="cls-5" x="404.14" y="274.04" width="55.22" height="17.22"></rect>
  <path class="cls-6" d="M446.63,353.11a.55.55,0,0,0-.41.59v2.89a.53.53,0,0,0,.46.58h.12a2.06,2.06,0,0,1-.41.79,6.68,6.68,0,0,1-1.23,1.08,6.41,6.41,0,0,0-1.44,1.34,4.28,4.28,0,0,0-.76,2.43h0v13.5a2.34,2.34,0,0,0,2,2.56H455.6a2.35,2.35,0,0,0,2-2.56V362.85h0a4.19,4.19,0,0,0-.74-2.42,6.53,6.53,0,0,0-1.44-1.36,7.1,7.1,0,0,1-1.23-1.09,2.15,2.15,0,0,1-.4-.8h.15a.53.53,0,0,0,.46-.58l0-2.89a.7.7,0,0,0-.13-.42.42.42,0,0,0-.33-.17h-7.32Z"></path>
  <rect class="cls-7" x="400.98" y="304.15" width="15.3" height="17.22"></rect>
  <rect class="cls-7" x="424.62" y="304.15" width="15.3" height="17.22"></rect>
  <rect class="cls-7" x="419.97" y="411.29" width="15.3" height="17.22"></rect>
  <rect class="cls-7" x="452.63" y="411.29" width="15.3" height="17.22"></rect>
  <path class="cls-6" d="M405.36,353.11a.56.56,0,0,0-.41.59v2.89a.53.53,0,0,0,.46.58h.12a1.91,1.91,0,0,1-.4.79,6.45,6.45,0,0,1-1.24,1.08,6.38,6.38,0,0,0-1.43,1.34,4.2,4.2,0,0,0-.76,2.43h0v13.5a2.35,2.35,0,0,0,2,2.56h10.64a2.34,2.34,0,0,0,2-2.56V362.85h0a4.12,4.12,0,0,0-.74-2.42,6.49,6.49,0,0,0-1.43-1.36,6.74,6.74,0,0,1-1.23-1.09,2,2,0,0,1-.4-.8h.15a.53.53,0,0,0,.45-.58l0-2.89a.71.71,0,0,0-.14-.42.4.4,0,0,0-.32-.17h-7.33Z"></path>
  <path class="cls-8" d="M445,378.88a2.35,2.35,0,0,1-2-2.57V362.82h0a4.27,4.27,0,0,1,.75-2.43,6.19,6.19,0,0,1,1.44-1.34,6.68,6.68,0,0,0,1.23-1.08,1.93,1.93,0,0,0,.41-.79h-.12a.53.53,0,0,1-.46-.58V353.7a.56.56,0,0,1,.41-.59h5.61v-.22a7.54,7.54,0,0,0-1.35-4.4,12,12,0,0,0-2.62-2.49,12.43,12.43,0,0,1-2.24-2,3.49,3.49,0,0,1-.73-1.45h.28a1,1,0,0,0,.83-1.07l0-5.25a1.24,1.24,0,0,0-.24-.77.77.77,0,0,0-.6-.32H432.25a1,1,0,0,0-.74,1.07v5.27a1,1,0,0,0,.83,1.07h.22a3.66,3.66,0,0,1-.74,1.44,12.56,12.56,0,0,1-2.26,2,11.46,11.46,0,0,0-2.61,2.45,7.64,7.64,0,0,0-1.38,4.42v24.64c0,2.57,1.64,4.68,3.63,4.68h19.41c1.61,0,2.94-1.4,3.41-3.28Z"></path>
  <path class="cls-9" d="M455.6,380.27H445a3.7,3.7,0,0,1-3.39-3.95v-13.5a5.66,5.66,0,0,1,1-3.25,7.65,7.65,0,0,1,1.73-1.65c.23-.17.47-.35.67-.52a2,2,0,0,1-.17-.81V353.7a1.92,1.92,0,0,1,1.6-2H454a1.8,1.8,0,0,1,1.43.71,2.13,2.13,0,0,1,.42,1.27l0,2.9a2,2,0,0,1-.17.82c.21.19.42.36.64.53a7.79,7.79,0,0,1,1.73,1.66,5.63,5.63,0,0,1,1,3.21v13.5A3.7,3.7,0,0,1,455.6,380.27Zm-8-24.18a1.61,1.61,0,0,1,.23.22,1.46,1.46,0,0,1,.31,1.2,3.31,3.31,0,0,1-.67,1.32,7.79,7.79,0,0,1-1.49,1.32,5.16,5.16,0,0,0-1.14,1.05,2.84,2.84,0,0,0-.49,1.64v13.48c0,.71.39,1.16.6,1.16H455.6c.2,0,.6-.45.6-1.16V362.85a2.9,2.9,0,0,0-.48-1.62,5.37,5.37,0,0,0-1.15-1.07,8.14,8.14,0,0,1-1.48-1.33,3.36,3.36,0,0,1-.66-1.34,1.39,1.39,0,0,1,.26-1.18A1.41,1.41,0,0,1,453,356V354.5h-5.4Zm5.39.48v0Zm-6.32-.79Z"></path>
  <path class="cls-9" d="M448.61,383.55H429.2c-2.77,0-5-2.72-5-6.07V352.86a9.13,9.13,0,0,1,1.65-5.25,12.54,12.54,0,0,1,2.91-2.75,12.63,12.63,0,0,0,2-1.71,2.48,2.48,0,0,1-.61-1.66v-5.27a2.4,2.4,0,0,1,1.95-2.45h13.56a2.11,2.11,0,0,1,1.69.86,2.59,2.59,0,0,1,.53,1.63l0,5.25a2.59,2.59,0,0,1-.63,1.71,11.84,11.84,0,0,0,1.87,1.63,13.54,13.54,0,0,1,3,2.84,9,9,0,0,1,1.62,5.2,1.65,1.65,0,0,1-.41,1.1,1.51,1.51,0,0,1-1,.52h-4.62v1.59l.22.22a1.42,1.42,0,0,1,.31,1.2,3.31,3.31,0,0,1-.67,1.32,8.08,8.08,0,0,1-1.49,1.33,4.94,4.94,0,0,0-1.14,1,2.76,2.76,0,0,0-.49,1.64v13.48c0,.71.39,1.16.6,1.16H452a1.4,1.4,0,0,1,1.1.54,1.38,1.38,0,0,1,.25,1.19C452.72,381.81,450.81,383.55,448.61,383.55ZM432.9,341.27a1.48,1.48,0,0,1,.65.44,1.46,1.46,0,0,1,.36,1.19,5,5,0,0,1-1,2,14.5,14.5,0,0,1-2.51,2.21,10.52,10.52,0,0,0-2.33,2.16,6.28,6.28,0,0,0-1.11,3.63v24.61c0,1.75,1.05,3.29,2.24,3.29h19.41a1.66,1.66,0,0,0,1.12-.5H445a3.7,3.7,0,0,1-3.38-3.95v-13.5a5.61,5.61,0,0,1,1-3.25,7.41,7.41,0,0,1,1.72-1.64c.23-.17.48-.36.68-.53a2,2,0,0,1-.17-.81V353.7a1.93,1.93,0,0,1,1.61-2h4.29a5.71,5.71,0,0,0-1-2.42,10.44,10.44,0,0,0-2.33-2.19,13.15,13.15,0,0,1-2.49-2.24,4.84,4.84,0,0,1-1-2,1.39,1.39,0,0,1,.26-1.18,1.42,1.42,0,0,1,.81-.5l0-4.66H432.9Zm13.78,14.51h0Zm.94-2.1v0Z"></path>
  <rect class="cls-9" x="389.55" y="427.66" width="84.4" height="5.67"></rect>
  <rect class="cls-9" x="389.55" y="320.43" width="84.4" height="5.67"></rect>
  <rect class="cls-9" x="389.55" y="290.69" width="84.4" height="5.67"></rect>
  <path class="cls-9" d="M417.69,322.77H399.57v-20h18.12ZM402.38,320h12.49V305.55H402.38Z"></path>
  <path class="cls-9" d="M441.33,322.77H423.21v-20h18.12ZM426,320h12.5V305.55H426Z"></path>
  <path class="cls-9" d="M436.68,429.91H418.56v-20h18.12Zm-15.3-2.81h12.49V412.69H421.38Z"></path>
  <path class="cls-9" d="M469.34,429.91H451.22v-20h18.12ZM454,427.1h12.49V412.69H454Z"></path>
  <path class="cls-9" d="M414.33,380.27H403.69a3.7,3.7,0,0,1-3.38-3.95v-13.5a5.61,5.61,0,0,1,1-3.25,7.43,7.43,0,0,1,1.73-1.64c.21-.17.46-.35.67-.53a2,2,0,0,1-.17-.81V353.7a1.93,1.93,0,0,1,1.61-2h7.52a1.8,1.8,0,0,1,1.42.71,2,2,0,0,1,.43,1.31l0,2.85a2.05,2.05,0,0,1-.17.83,5.68,5.68,0,0,0,.6.5,8.05,8.05,0,0,1,1.76,1.69,5.54,5.54,0,0,1,1,3.21v13.5A3.7,3.7,0,0,1,414.33,380.27Zm-8-24.18.22.22a1.46,1.46,0,0,1,.32,1.2,3.59,3.59,0,0,1-.67,1.32,8.94,8.94,0,0,1-1.5,1.33,4.94,4.94,0,0,0-1.14,1,2.91,2.91,0,0,0-.49,1.64v13.48c0,.71.4,1.16.6,1.16h10.64c.21,0,.6-.45.6-1.16V362.85a2.82,2.82,0,0,0-.48-1.62,5,5,0,0,0-1.15-1.06,8,8,0,0,1-1.48-1.35,3.32,3.32,0,0,1-.66-1.35,1.41,1.41,0,0,1,.27-1.17,1.38,1.38,0,0,1,.31-.28V354.5h-5.4Zm5.38.49h0Zm-6.32-.8h0Zm6.34-2.08h0Zm-5.4,0v0Z"></path>
  <rect class="cls-9" x="389.55" y="378.88" width="84.4" height="5.67"></rect>
  <line class="cls-10" x1="473.95" y1="483.43" x2="473.95" y2="290.69"></line>
  <line class="cls-10" x1="389.55" y1="483.43" x2="389.55" y2="290.69"></line>
  <rect class="cls-4" x="395.17" y="447.21" width="33.66" height="5.28"></rect>
  <polygon class="cls-11" points="427.35 447.21 396.65 447.21 399.85 441.93 424.15 441.93 427.35 447.21"></polygon>
  <polygon class="cls-11" points="418.08 452.5 418.08 456.71 405.92 456.71 405.92 452.5 396.65 452.5 401.45 483.43 422.55 483.43 427.35 452.5 418.08 452.5"></polygon>
  <rect class="cls-4" x="405.92" y="452.5" width="12.15" height="4.22"></rect>
  <rect class="cls-4" x="434.64" y="447.21" width="33.66" height="5.28"></rect>
  <polygon class="cls-11" points="466.82 447.21 436.12 447.21 439.32 441.93 463.62 441.93 466.82 447.21"></polygon>
  <polygon class="cls-11" points="457.55 452.5 457.55 456.71 445.39 456.71 445.39 452.5 436.12 452.5 440.92 483.43 462.02 483.43 466.82 452.5 457.55 452.5"></polygon>
  <rect class="cls-4" x="445.39" y="452.5" width="12.15" height="4.22"></rect>
  <rect class="cls-5" x="311.33" y="274.04" width="55.22" height="17.22"></rect>
  <rect class="cls-7" x="308.16" y="304.15" width="15.3" height="17.22"></rect>
  <rect class="cls-7" x="331.8" y="304.15" width="15.3" height="17.22"></rect>
  <rect class="cls-7" x="327.16" y="411.29" width="15.3" height="17.22"></rect>
  <rect class="cls-7" x="359.82" y="411.29" width="15.3" height="17.22"></rect>
  <rect class="cls-9" x="296.74" y="427.66" width="84.4" height="5.67"></rect>
  <rect class="cls-9" x="296.74" y="320.43" width="84.4" height="5.67"></rect>
  <rect class="cls-9" x="296.74" y="290.69" width="84.4" height="5.67"></rect>
  <path class="cls-9" d="M324.87,322.77H306.76v-20h18.11ZM309.57,320h12.49V305.55H309.57Z"></path>
  <path class="cls-9" d="M348.52,322.77H330.4v-20h18.12ZM333.21,320H345.7V305.55H333.21Z"></path>
  <path class="cls-9" d="M343.87,429.91H325.75v-20h18.12Zm-15.31-2.81h12.5V412.69h-12.5Z"></path>
  <path class="cls-9" d="M376.53,429.91H358.41v-20h18.12Zm-15.31-2.81h12.49V412.69H361.22Z"></path>
  <rect class="cls-9" x="296.74" y="378.88" width="84.4" height="5.67"></rect>
  <line class="cls-10" x1="381.14" y1="483.43" x2="381.14" y2="290.69"></line>
  <line class="cls-10" x1="296.74" y1="483.43" x2="296.74" y2="290.69"></line>
  <rect class="cls-4" x="249.94" y="447.21" width="33.66" height="5.28"></rect>
  <polygon class="cls-11" points="282.12 447.21 251.41 447.21 254.62 441.93 278.92 441.93 282.12 447.21"></polygon>
  <polygon class="cls-11" points="272.84 452.5 272.84 456.71 260.69 456.71 260.69 452.5 251.41 452.5 256.22 483.43 277.31 483.43 282.12 452.5 272.84 452.5"></polygon>
  <rect class="cls-4" x="260.69" y="452.5" width="12.15" height="4.22"></rect>
  <rect class="cls-4" x="303.93" y="447.21" width="33.66" height="5.28"></rect>
  <polygon class="cls-11" points="336.11 447.21 305.4 447.21 308.61 441.93 332.91 441.93 336.11 447.21"></polygon>
  <polygon class="cls-11" points="326.83 452.5 326.83 456.71 314.68 456.71 314.68 452.5 305.4 452.5 310.21 483.43 331.31 483.43 336.11 452.5 326.83 452.5"></polygon>
  <rect class="cls-4" x="314.68" y="452.5" width="12.15" height="4.22"></rect>
  <rect class="cls-5" x="218.52" y="274.04" width="55.22" height="17.22"></rect>
  <rect class="cls-7" x="215.35" y="304.15" width="15.3" height="17.22"></rect>
  <rect class="cls-7" x="238.99" y="304.15" width="15.3" height="17.22"></rect>
  <rect class="cls-9" x="203.92" y="427.66" width="84.4" height="5.67"></rect>
  <rect class="cls-9" x="203.92" y="320.43" width="84.4" height="5.67"></rect>
  <rect class="cls-9" x="203.92" y="290.69" width="84.4" height="5.67"></rect>
  <path class="cls-9" d="M232.06,322.77H213.94v-20h18.12ZM216.76,320h12.49V305.55H216.76Z"></path>
  <path class="cls-9" d="M255.7,322.77H237.58v-20H255.7ZM240.4,320h12.49V305.55H240.4Z"></path>
  <line class="cls-10" x1="288.33" y1="483.43" x2="288.33" y2="290.69"></line>
  <line class="cls-10" x1="203.92" y1="483.43" x2="203.92" y2="290.69"></line>
  <polygon class="cls-5" points="496.46 237.3 106.16 237.3 106.16 207.27 301.31 153.14 496.46 207.27 496.46 237.3"></polygon>
  <rect class="cls-4" x="487.03" y="207.27" width="9.43" height="285.5"></rect>
  <rect class="cls-4" x="106.16" y="207.27" width="9.43" height="285.5"></rect>
  <rect class="cls-5" x="106.16" y="207.27" width="390.3" height="40.22"></rect>
  <path class="cls-9" d="M218.06,222.08a9.49,9.49,0,0,0-2.88-.57,2.64,2.64,0,0,0-1.45.34,1.09,1.09,0,0,0-.53,1,1.39,1.39,0,0,0,.46,1,3.54,3.54,0,0,0,1.14.67c.45.17,1.12.39,2,.67a24.1,24.1,0,0,1,3.26,1.13,5.65,5.65,0,0,1,2.21,1.75,4.86,4.86,0,0,1,.92,3.07,5.27,5.27,0,0,1-1,3.24,6.06,6.06,0,0,1-2.75,2,10.68,10.68,0,0,1-3.88.68,14.07,14.07,0,0,1-4.7-.83,12.84,12.84,0,0,1-4.05-2.26l1.93-3.87a12.12,12.12,0,0,0,3.39,2.09,9.31,9.31,0,0,0,3.48.81,3.26,3.26,0,0,0,1.75-.41,1.33,1.33,0,0,0,.63-1.19,1.39,1.39,0,0,0-.47-1.08,3.46,3.46,0,0,0-1.19-.69c-.48-.17-1.15-.38-2-.61a24.72,24.72,0,0,1-3.22-1.1,5.73,5.73,0,0,1-2.18-1.68,4.62,4.62,0,0,1-.9-3,5.22,5.22,0,0,1,.93-3.08,5.94,5.94,0,0,1,2.65-2.05,10.48,10.48,0,0,1,4-.71,14.45,14.45,0,0,1,4.07.58,13.43,13.43,0,0,1,3.51,1.56l-1.86,3.95A15.8,15.8,0,0,0,218.06,222.08Z"></path>
  <path class="cls-9" d="M231.39,231.85a3.6,3.6,0,0,0,2.68,1.08,3.37,3.37,0,0,0,2.59-1.07,4.06,4.06,0,0,0,1-2.88V217.83h4.95V229a8.74,8.74,0,0,1-1,4.32,7.13,7.13,0,0,1-3,2.85,9.71,9.71,0,0,1-4.54,1,9.88,9.88,0,0,1-4.56-1,7.31,7.31,0,0,1-3-2.85,8.54,8.54,0,0,1-1.07-4.32V217.83h5V229A4,4,0,0,0,231.39,231.85Z"></path>
  <path class="cls-9" d="M255.82,222.08a9.54,9.54,0,0,0-2.88-.57,2.61,2.61,0,0,0-1.45.34,1.09,1.09,0,0,0-.53,1,1.39,1.39,0,0,0,.46,1,3.54,3.54,0,0,0,1.14.67c.45.17,1.12.39,2,.67a24.1,24.1,0,0,1,3.26,1.13A5.65,5.65,0,0,1,260,228.1a4.86,4.86,0,0,1,.92,3.07,5.27,5.27,0,0,1-1,3.24,6.06,6.06,0,0,1-2.75,2,10.68,10.68,0,0,1-3.88.68,14.07,14.07,0,0,1-4.7-.83,12.84,12.84,0,0,1-4.05-2.26l1.93-3.87a12,12,0,0,0,3.39,2.09,9.31,9.31,0,0,0,3.48.81,3.26,3.26,0,0,0,1.75-.41,1.33,1.33,0,0,0,.63-1.19,1.39,1.39,0,0,0-.47-1.08,3.46,3.46,0,0,0-1.19-.69c-.48-.17-1.15-.38-2-.61a24.72,24.72,0,0,1-3.22-1.1,5.73,5.73,0,0,1-2.18-1.68,4.62,4.62,0,0,1-.9-3,5.22,5.22,0,0,1,.93-3.08,5.94,5.94,0,0,1,2.65-2.05,10.48,10.48,0,0,1,4-.71,14.33,14.33,0,0,1,4.06.58,13.35,13.35,0,0,1,3.52,1.56l-1.86,3.95A16,16,0,0,0,255.82,222.08Z"></path>
  <path class="cls-9" d="M261.82,217.83h16.26v4.08H272.4V236.8h-4.95V221.91h-5.63Z"></path>
  <path class="cls-9" d="M280.09,217.83h15v3.95H285v3.54h9v3.93l-9,0v3.57h10.29v4H280.09Z"></path>
  <path class="cls-9" d="M311.32,217.83h4.6v19h-4.33L303,225.46V236.8h-4.63v-19h4.36l8.63,11.42Z"></path>
  <path class="cls-9" d="M333.57,236.8l-1.3-3.36h-8.2l-1.32,3.36h-5.09l8.14-19h5.09l8,19Zm-8-7.15h5.25l-2.6-6.76Z"></path>
  <path class="cls-9" d="M353.52,217.83h4.6v19h-4.33l-8.6-11.34V236.8h-4.63v-19h4.35l8.64,11.42Z"></path>
  <path class="cls-9" d="M373.36,222.41a5.23,5.23,0,0,0-2.51-.69,4.94,4.94,0,0,0-2.62.72,5.12,5.12,0,0,0-1.85,2,6.1,6.1,0,0,0,0,5.6,5.12,5.12,0,0,0,1.85,2,5,5,0,0,0,2.62.71,5.69,5.69,0,0,0,2.43-.59,7.75,7.75,0,0,0,2.28-1.63l2.89,3.12a11.59,11.59,0,0,1-3.67,2.58,10.14,10.14,0,0,1-4.21,1,10,10,0,0,1-5.08-1.3,9.51,9.51,0,0,1-3.58-3.54,10,10,0,0,1-1.3-5,9.46,9.46,0,0,1,5-8.47,10.79,10.79,0,0,1,9.35-.39,10.18,10.18,0,0,1,3.49,2.39l-2.86,3.47A7.12,7.12,0,0,0,373.36,222.41Z"></path>
  <path class="cls-9" d="M380.56,217.83h15v3.95h-10v3.54h9v3.93l-9,0v3.57H395.8v4H380.56Z"></path>
  <rect class="cls-12" x="467.56" y="432.03" width="43.12" height="60.74"></rect>
  <polygon class="cls-5" points="464.34 487.31 464.34 509.44 472.34 509.44 472.34 509.18 481.6 500.11 497.11 500.11 505.71 509.18 505.71 509.44 513.91 509.44 513.91 487.31 464.34 487.31"></polygon>
  <rect class="cls-5" x="464.34" y="437.71" width="6.45" height="49.6"></rect>
  <rect class="cls-5" x="507.46" y="437.71" width="6.45" height="49.6"></rect>
  <rect class="cls-5" x="464.34" y="421.19" width="49.58" height="16.52"></rect>
  <rect class="cls-5" x="483.63" y="412.88" width="10.99" height="8.31"></rect>
  <rect class="cls-5" x="474.15" y="404.31" width="29.96" height="8.57"></rect>
  <rect class="cls-5" x="477.68" y="381.43" width="22.94" height="22.94"></rect>
  <rect class="cls-1" x="481.92" y="372.52" width="14.41" height="2.86"></rect>
  <line class="cls-1" x1="489.13" y1="375.38" x2="489.13" y2="381.43"></line>
  <rect class="cls-2" x="477.68" y="451.39" width="22.89" height="17.4"></rect>
  <circle class="cls-13" cx="489.13" cy="391.48" r="2.67"></circle>
  <line class="cls-13" x1="489.13" y1="391.48" x2="495.23" y2="397.58"></line>
  <rect class="cls-12" x="417.99" y="432.03" width="43.12" height="60.74"></rect>
  <polygon class="cls-5" points="414.76 487.31 414.76 509.44 422.76 509.44 422.76 509.18 432.03 500.11 447.53 500.11 456.14 509.18 456.14 509.44 464.34 509.44 464.34 487.31 414.76 487.31"></polygon>
  <rect class="cls-5" x="414.76" y="437.71" width="6.45" height="49.6"></rect>
  <rect class="cls-5" x="457.88" y="437.71" width="6.45" height="49.6"></rect>
  <rect class="cls-5" x="414.76" y="421.19" width="49.58" height="16.52"></rect>
  <rect class="cls-5" x="434.06" y="412.88" width="10.99" height="8.31"></rect>
  <rect class="cls-5" x="424.57" y="404.31" width="29.96" height="8.57"></rect>
  <rect class="cls-5" x="428.1" y="381.43" width="22.94" height="22.94"></rect>
  <rect class="cls-1" x="432.34" y="365.52" width="14.41" height="2.86"></rect>
  <line class="cls-1" x1="439.55" y1="368.38" x2="439.55" y2="381.43"></line>
  <rect class="cls-2" x="428.1" y="451.39" width="22.89" height="17.4"></rect>
  <circle class="cls-13" cx="439.55" cy="391.48" r="2.67"></circle>
  <line class="cls-13" x1="439.55" y1="391.48" x2="434.64" y2="397.58"></line>
  <rect class="cls-12" x="367.83" y="432.03" width="43.12" height="60.74"></rect>
  <polygon class="cls-5" points="364.6 487.31 364.6 509.44 372.6 509.44 372.6 509.18 381.87 500.11 397.37 500.11 405.97 509.18 405.97 509.44 414.18 509.44 414.18 487.31 364.6 487.31"></polygon>
  <rect class="cls-5" x="364.6" y="437.71" width="6.45" height="49.6"></rect>
  <rect class="cls-5" x="407.72" y="437.71" width="6.45" height="49.6"></rect>
  <rect class="cls-5" x="364.6" y="421.19" width="49.58" height="16.52"></rect>
  <rect class="cls-5" x="383.89" y="412.88" width="10.99" height="8.31"></rect>
  <rect class="cls-5" x="374.41" y="404.31" width="29.96" height="8.57"></rect>
  <rect class="cls-5" x="377.94" y="381.43" width="22.94" height="22.94"></rect>
  <rect class="cls-1" x="382.18" y="372.52" width="14.41" height="2.86"></rect>
  <line class="cls-1" x1="389.39" y1="375.38" x2="389.39" y2="381.43"></line>
  <rect class="cls-2" x="377.94" y="451.39" width="22.89" height="17.4"></rect>
  <circle class="cls-13" cx="389.39" cy="391.48" r="2.67"></circle>
  <line class="cls-13" x1="389.39" y1="391.48" x2="389.39" y2="399.2"></line>
  <rect class="cls-12" x="148.6" y="432.03" width="43.12" height="60.74"></rect>
  <polygon class="cls-5" points="145.38 487.31 145.38 509.44 153.38 509.44 153.38 509.18 162.64 500.11 178.15 500.11 186.75 509.18 186.75 509.44 194.95 509.44 194.95 487.31 145.38 487.31"></polygon>
  <rect class="cls-5" x="145.38" y="437.71" width="6.45" height="49.6"></rect>
  <rect class="cls-5" x="188.5" y="437.71" width="6.45" height="49.6"></rect>
  <rect class="cls-5" x="145.38" y="421.19" width="49.58" height="16.52"></rect>
  <rect class="cls-5" x="164.67" y="412.88" width="10.99" height="8.31"></rect>
  <rect class="cls-5" x="155.19" y="404.31" width="29.96" height="8.57"></rect>
  <rect class="cls-5" x="158.72" y="381.43" width="22.94" height="22.94"></rect>
  <rect class="cls-1" x="162.96" y="359.38" width="14.41" height="2.86"></rect>
  <line class="cls-1" x1="170.17" y1="362.24" x2="170.17" y2="381.43"></line>
  <rect class="cls-2" x="158.72" y="451.39" width="22.89" height="17.4"></rect>
  <circle class="cls-13" cx="170.17" cy="391.48" r="2.67"></circle>
  <line class="cls-13" x1="170.17" y1="391.48" x2="165.85" y2="398.37"></line>
  <rect class="cls-12" x="89.31" y="432.03" width="43.12" height="60.74"></rect>
  <polygon class="cls-5" points="86.09 487.31 86.09 509.44 94.09 509.44 94.09 509.18 103.35 500.11 118.86 500.11 127.46 509.18 127.46 509.44 135.66 509.44 135.66 487.31 86.09 487.31"></polygon>
  <rect class="cls-5" x="86.09" y="437.71" width="6.45" height="49.6"></rect>
  <rect class="cls-5" x="129.21" y="437.71" width="6.45" height="49.6"></rect>
  <rect class="cls-5" x="86.09" y="421.19" width="49.58" height="16.52"></rect>
  <rect class="cls-5" x="105.38" y="412.88" width="10.99" height="8.31"></rect>
  <rect class="cls-5" x="95.9" y="404.31" width="29.96" height="8.57"></rect>
  <rect class="cls-5" x="99.43" y="381.43" width="22.94" height="22.94"></rect>
  <rect class="cls-1" x="103.67" y="372.52" width="14.41" height="2.86"></rect>
  <line class="cls-1" x1="110.87" y1="375.38" x2="110.87" y2="381.43"></line>
  <rect class="cls-2" x="99.43" y="451.39" width="22.89" height="17.4"></rect>
  <circle class="cls-13" cx="110.87" cy="391.48" r="2.67"></circle>
  <line class="cls-13" x1="110.87" y1="391.48" x2="102.84" y2="391.48"></line>
  <polygon class="cls-4" points="202.43 468.79 200.83 473.77 181.88 473.77 180.4 468.79 173.22 468.79 173.22 514.97 209.72 514.97 209.72 468.79 202.43 468.79"></polygon>
  <line class="cls-4" x1="173.22" y1="480.47" x2="209.96" y2="480.47"></line>
  <line class="cls-4" x1="173.22" y1="485.91" x2="209.96" y2="485.91"></line>
  <line class="cls-4" x1="205.96" y1="450.28" x2="205.96" y2="468.79"></line>
  <polygon class="cls-4" points="211.19 452.73 207.69 452.73 200.73 452.73 200.73 447.9 211.19 447.9 211.19 452.73"></polygon>
  <polyline class="cls-14" points="205.96 458.57 217.29 458.57 220.42 461.7"></polyline>
  <polygon class="cls-1" points="356.93 468.79 358.53 473.77 377.48 473.77 378.95 468.79 386.14 468.79 386.14 514.97 349.64 514.97 349.64 468.79 356.93 468.79"></polygon>
  <line class="cls-4" x1="386.14" y1="480.47" x2="349.4" y2="480.47"></line>
  <line class="cls-4" x1="386.14" y1="485.91" x2="349.4" y2="485.91"></line>
  <line class="cls-4" x1="353.39" y1="450.28" x2="353.39" y2="468.79"></line>
  <polygon class="cls-1" points="348.16 452.73 351.67 452.73 358.63 452.73 358.63 447.9 348.16 447.9 348.16 452.73"></polygon>
  <polyline class="cls-14" points="353.39 458.57 342.06 458.57 338.94 461.7"></polyline>
  <polygon class="cls-11" points="235.28 394.02 211.41 394.02 211.41 401.23 211.41 428.56 235.28 428.56 235.28 394.02"></polygon>
  <line class="cls-4" x1="210.72" y1="402.63" x2="235.28" y2="402.63"></line>
  <line class="cls-4" x1="210.72" y1="407.2" x2="235.28" y2="407.2"></line>
  <polygon class="cls-11" points="259.11 394.02 235.23 394.02 235.23 401.23 235.23 428.56 259.11 428.56 259.11 394.02"></polygon>
  <line class="cls-4" x1="234.55" y1="402.63" x2="259.11" y2="402.63"></line>
  <line class="cls-4" x1="234.55" y1="407.2" x2="259.11" y2="407.2"></line>
  <polygon class="cls-11" points="282.87 394.02 259 394.02 259 401.23 259 428.56 282.87 428.56 282.87 394.02"></polygon>
  <line class="cls-4" x1="258.32" y1="402.63" x2="282.87" y2="402.63"></line>
  <line class="cls-4" x1="258.32" y1="407.2" x2="282.87" y2="407.2"></line>
  <line class="cls-1" x1="301.31" y1="153.14" x2="301.31" y2="207.27"></line>
</svg>
