<?xml version="1.0" encoding="UTF-8"?>
<svg xmlns="http://www.w3.org/2000/svg" xmlns:xlink="http://www.w3.org/1999/xlink" id="Layer_1" data-name="Layer 1" viewBox="0 0 600 600">
  <defs>
    <style>.cls-1,.cls-16,.cls-18,.cls-23,.cls-4{fill:none;}.cls-2,.cls-22,.cls-8{fill:#1c19a8;}.cls-3{fill:#fff;}.cls-10,.cls-11,.cls-12,.cls-13,.cls-14,.cls-15,.cls-16,.cls-17,.cls-18,.cls-19,.cls-20,.cls-21,.cls-22,.cls-23,.cls-24,.cls-4,.cls-5,.cls-6,.cls-7,.cls-8,.cls-9{stroke:#1c19a8;}.cls-12,.cls-16,.cls-17,.cls-22,.cls-4,.cls-8{stroke-miterlimit:10;}.cls-23,.cls-4,.cls-5,.cls-6,.cls-7,.cls-8,.cls-9{stroke-width:2.82px;}.cls-10,.cls-14,.cls-17,.cls-21,.cls-5,.cls-9{fill:#ffdc2d;}.cls-10,.cls-11,.cls-13,.cls-14,.cls-15,.cls-18,.cls-19,.cls-20,.cls-21,.cls-23,.cls-24,.cls-5,.cls-6,.cls-7,.cls-9{stroke-linejoin:round;}.cls-13,.cls-24,.cls-5{fill-rule:evenodd;}.cls-15,.cls-19,.cls-24,.cls-6{fill:#00ab81;}.cls-11,.cls-12,.cls-13,.cls-20,.cls-7{fill:#fb715d;}.cls-10{stroke-width:2.81px;}.cls-11,.cls-12,.cls-15,.cls-16,.cls-17,.cls-21{stroke-width:2.81px;}.cls-13{stroke-width:2.78px;}.cls-14,.cls-18,.cls-19,.cls-20,.cls-24{stroke-width:2.82px;}.cls-22{stroke-width:0.94px;}.cls-25{fill:url(#Blue_dots);}</style>
    <pattern id="Blue_dots" data-name="Blue dots" width="28.8" height="28.8" patternTransform="translate(57.6)" patternUnits="userSpaceOnUse" viewBox="0 0 28.8 28.8">
      <rect class="cls-1" width="28.8" height="28.8"></rect>
      <path class="cls-2" d="M28.8,30.24a1.44,1.44,0,1,0-1.44-1.44A1.44,1.44,0,0,0,28.8,30.24Z"></path>
      <path class="cls-2" d="M14.4,30.24A1.44,1.44,0,1,0,13,28.8,1.44,1.44,0,0,0,14.4,30.24Z"></path>
      <path class="cls-2" d="M28.8,15.84a1.44,1.44,0,1,0-1.44-1.44A1.44,1.44,0,0,0,28.8,15.84Z"></path>
      <path class="cls-2" d="M14.4,15.84A1.44,1.44,0,1,0,13,14.4,1.44,1.44,0,0,0,14.4,15.84Z"></path>
      <path class="cls-2" d="M7.2,23A1.44,1.44,0,1,0,5.76,21.6,1.44,1.44,0,0,0,7.2,23Z"></path>
      <path class="cls-2" d="M21.6,23a1.44,1.44,0,1,0-1.44-1.44A1.44,1.44,0,0,0,21.6,23Z"></path>
      <path class="cls-2" d="M7.2,8.64A1.44,1.44,0,1,0,5.76,7.2,1.44,1.44,0,0,0,7.2,8.64Z"></path>
      <path class="cls-2" d="M21.6,8.64A1.44,1.44,0,1,0,20.16,7.2,1.44,1.44,0,0,0,21.6,8.64Z"></path>
      <path class="cls-2" d="M0,30.24A1.44,1.44,0,0,0,1.44,28.8,1.45,1.45,0,0,0,0,27.36,1.44,1.44,0,0,0-1.44,28.8,1.43,1.43,0,0,0,0,30.24Z"></path>
      <path class="cls-2" d="M0,15.84A1.44,1.44,0,0,0,1.44,14.4,1.45,1.45,0,0,0,0,13,1.44,1.44,0,0,0-1.44,14.4,1.43,1.43,0,0,0,0,15.84Z"></path>
      <path class="cls-2" d="M28.8,1.44A1.45,1.45,0,0,0,30.24,0,1.45,1.45,0,0,0,28.8-1.44,1.44,1.44,0,0,0,27.36,0,1.44,1.44,0,0,0,28.8,1.44Z"></path>
      <path class="cls-2" d="M14.4,1.44A1.45,1.45,0,0,0,15.84,0,1.45,1.45,0,0,0,14.4-1.44,1.44,1.44,0,0,0,13,0,1.44,1.44,0,0,0,14.4,1.44Z"></path>
      <path class="cls-2" d="M0,1.44A1.45,1.45,0,0,0,1.44,0,1.45,1.45,0,0,0,0-1.44,1.44,1.44,0,0,0-1.44,0,1.44,1.44,0,0,0,0,1.44Z"></path>
    </pattern>
  </defs>
  <rect class="cls-3" x="84.85" y="248.61" width="433.4" height="232.66"></rect>
  <line class="cls-4" x1="439.28" y1="328.41" x2="439.28" y2="479.07"></line>
  <path class="cls-5" d="M495.65,374a.48.48,0,0,0-.35.5v2.44a.46.46,0,0,0,.39.5h.1a1.6,1.6,0,0,1-.34.66,6.11,6.11,0,0,1-1.05.92,5.15,5.15,0,0,0-1.21,1.14,3.57,3.57,0,0,0-.64,2.05h0V393.6a2,2,0,0,0,1.69,2.16h9a2,2,0,0,0,1.69-2.16V382.21h0a3.51,3.51,0,0,0-.63-2,5.71,5.71,0,0,0-1.21-1.16,5.66,5.66,0,0,1-1-.92,1.53,1.53,0,0,1-.34-.67h.13c.21,0,.38-.22.38-.5l0-2.43a.61.61,0,0,0-.11-.36.36.36,0,0,0-.28-.15h-6.19Z"></path>
  <path class="cls-5" d="M475.93,374a.46.46,0,0,0-.34.5v2.44c0,.28.17.5.38.5h.1a1.6,1.6,0,0,1-.34.66,5.66,5.66,0,0,1-1,.92,5.18,5.18,0,0,0-1.22,1.14,3.57,3.57,0,0,0-.64,2.05h0V393.6a2,2,0,0,0,1.69,2.16h9a2,2,0,0,0,1.69-2.16V382.21h0a3.51,3.51,0,0,0-.63-2,5.71,5.71,0,0,0-1.21-1.16,5.66,5.66,0,0,1-1-.92,1.64,1.64,0,0,1-.34-.67h.13c.21,0,.38-.22.38-.5l0-2.43a.61.61,0,0,0-.11-.36.36.36,0,0,0-.27-.15h-6.2Z"></path>
  <path class="cls-6" d="M445.72,432.53h8.48l0-14.63L452,411.05v-5.62H447.9v5.62l-2.21,6.85Z"></path>
  <path class="cls-6" d="M461,432.53h8.48l0-14.63-2.21-6.85v-5.62h-4.12v5.62L461,417.9Z"></path>
  <rect class="cls-7" x="448.86" y="344.02" width="23.21" height="18.06"></rect>
  <rect class="cls-8" x="439.28" y="429.44" width="71.37" height="4.8"></rect>
  <rect class="cls-8" x="439.28" y="395.76" width="71.37" height="4.8"></rect>
  <rect class="cls-8" x="439.28" y="362.09" width="71.37" height="4.8"></rect>
  <rect class="cls-8" x="439.28" y="328.41" width="71.37" height="4.8"></rect>
  <path class="cls-9" d="M472.64,328.41h8.48l0-14.62-2.21-6.86v-5.62h-4.12v5.62l-2.21,6.86Z"></path>
  <path class="cls-9" d="M487.91,328.41h8.48l0-14.62-2.21-6.86v-5.62h-4.12v5.62l-2.21,6.86Z"></path>
  <rect class="cls-10" x="323.35" y="412.53" width="8.94" height="25.39"></rect>
  <rect class="cls-10" x="323.35" y="373.86" width="8.94" height="31.06"></rect>
  <rect class="cls-10" x="323.35" y="335.19" width="8.94" height="31.06"></rect>
  <rect class="cls-10" x="323.35" y="296.52" width="8.94" height="31.06"></rect>
  <rect class="cls-10" x="360.73" y="412.53" width="8.94" height="25.39"></rect>
  <rect class="cls-10" x="360.73" y="373.86" width="8.94" height="31.06"></rect>
  <rect class="cls-10" x="360.73" y="335.19" width="8.94" height="31.06"></rect>
  <rect class="cls-10" x="360.73" y="296.52" width="8.94" height="31.06"></rect>
  <rect class="cls-11" x="323.35" y="404.91" width="48.61" height="7.61"></rect>
  <rect class="cls-11" x="323.35" y="437.92" width="57.27" height="9.82"></rect>
  <rect class="cls-11" x="323.35" y="366.25" width="48.61" height="7.61"></rect>
  <rect class="cls-11" x="323.35" y="327.58" width="48.61" height="7.61"></rect>
  <rect class="cls-11" x="323.35" y="288.91" width="48.61" height="7.61" transform="translate(695.31 585.43) rotate(180)"></rect>
  <rect class="cls-11" x="323.35" y="447.74" width="57.27" height="37.01"></rect>
  <rect class="cls-12" x="346.03" y="352.29" width="9.96" height="14.13"></rect>
  <rect class="cls-12" x="336.13" y="352.29" width="9.96" height="14.13"></rect>
  <rect class="cls-12" x="346.04" y="315.29" width="8.66" height="12.29"></rect>
  <rect class="cls-12" x="337.42" y="315.29" width="8.66" height="12.29"></rect>
  <rect class="cls-12" x="341.7" y="303" width="8.66" height="12.29"></rect>
  <path class="cls-13" d="M342.58,380.37a.51.51,0,0,0-.38.55v2.74a.5.5,0,0,0,.43.55h.11a1.9,1.9,0,0,1-.38.75,6.73,6.73,0,0,1-1.17,1,5.75,5.75,0,0,0-1.36,1.27,3.94,3.94,0,0,0-.71,2.29h0v12.77a2.21,2.21,0,0,0,1.88,2.42h10.06a2.21,2.21,0,0,0,1.89-2.42V389.58h0a3.93,3.93,0,0,0-.7-2.28,6.29,6.29,0,0,0-1.36-1.29,6.32,6.32,0,0,1-1.16-1,2,2,0,0,1-.38-.76h.14a.5.5,0,0,0,.43-.55l0-2.73a.62.62,0,0,0-.12-.39.38.38,0,0,0-.31-.17h-6.93Z"></path>
  <rect class="cls-10" x="308.95" y="412.53" width="8.94" height="25.39" transform="translate(626.84 850.45) rotate(-180)"></rect>
  <rect class="cls-10" x="308.95" y="373.86" width="8.94" height="31.06" transform="translate(626.84 778.77) rotate(-180)"></rect>
  <rect class="cls-10" x="308.95" y="335.19" width="8.94" height="31.06" transform="translate(626.84 701.43) rotate(-180)"></rect>
  <rect class="cls-10" x="308.95" y="296.52" width="8.94" height="31.06" transform="translate(626.84 624.1) rotate(-180)"></rect>
  <rect class="cls-10" x="271.57" y="412.53" width="8.94" height="25.39" transform="translate(552.08 850.45) rotate(-180)"></rect>
  <rect class="cls-10" x="271.57" y="373.86" width="8.94" height="31.06" transform="translate(552.08 778.77) rotate(-180)"></rect>
  <rect class="cls-10" x="271.57" y="335.19" width="8.94" height="31.06" transform="translate(552.08 701.43) rotate(-180)"></rect>
  <rect class="cls-10" x="271.57" y="296.52" width="8.94" height="31.06" transform="translate(552.08 624.1) rotate(-180)"></rect>
  <rect class="cls-11" x="269.29" y="404.91" width="48.61" height="7.61" transform="translate(587.18 817.44) rotate(-180)"></rect>
  <rect class="cls-11" x="260.62" y="437.92" width="57.27" height="9.82" transform="translate(578.52 885.66) rotate(-180)"></rect>
  <rect class="cls-11" x="269.29" y="366.25" width="48.61" height="7.61" transform="translate(587.18 740.1) rotate(-180)"></rect>
  <rect class="cls-11" x="269.29" y="327.58" width="48.61" height="7.61" transform="translate(587.18 662.76) rotate(-180)"></rect>
  <rect class="cls-11" x="269.29" y="288.91" width="48.61" height="7.61"></rect>
  <rect class="cls-11" x="260.62" y="447.74" width="57.27" height="37.01" transform="translate(578.52 932.49) rotate(-180)"></rect>
  <rect class="cls-12" x="285.25" y="352.29" width="9.96" height="14.13" transform="translate(580.46 718.7) rotate(-180)"></rect>
  <rect class="cls-12" x="295.15" y="352.29" width="9.96" height="14.13" transform="translate(600.26 718.7) rotate(-180)"></rect>
  <rect class="cls-12" x="286.54" y="315.29" width="8.66" height="12.29" transform="translate(581.75 642.86) rotate(-180)"></rect>
  <rect class="cls-12" x="295.16" y="315.29" width="8.66" height="12.29" transform="translate(598.98 642.86) rotate(-180)"></rect>
  <rect class="cls-12" x="290.87" y="303" width="8.66" height="12.29" transform="translate(590.41 618.29) rotate(-180)"></rect>
  <path class="cls-13" d="M298.66,380.37a.53.53,0,0,1,.39.55v2.74a.5.5,0,0,1-.44.55h-.11a1.9,1.9,0,0,0,.38.75,6.73,6.73,0,0,0,1.17,1,5.75,5.75,0,0,1,1.36,1.27,4,4,0,0,1,.72,2.29h0v12.77a2.21,2.21,0,0,1-1.89,2.42H290.18a2.21,2.21,0,0,1-1.89-2.42V389.58h0a3.94,3.94,0,0,1,.71-2.28,6,6,0,0,1,1.35-1.29,6.32,6.32,0,0,0,1.16-1,1.82,1.82,0,0,0,.38-.76h-.14a.5.5,0,0,1-.43-.55l0-2.73a.62.62,0,0,1,.12-.39.4.4,0,0,1,.31-.17h6.93Z"></path>
  <rect class="cls-14" x="70.69" y="148.11" width="458.62" height="18.21"></rect>
  <path class="cls-12" d="M129.65,368a18.41,18.41,0,0,0-36.81,0h-8v12.28h52.79V368Z"></path>
  <polygon class="cls-12" points="88.85 460.74 88.85 449.25 92.84 449.25 92.84 420.75 88.85 420.75 88.85 409.26 92.84 409.26 92.84 380.23 84.85 380.23 84.85 470.73 92.84 470.73 92.84 460.74 88.85 460.74"></polygon>
  <polygon class="cls-12" points="129.65 380.23 129.65 409.26 133.64 409.26 133.64 420.75 129.65 420.75 129.65 449.25 133.64 449.25 133.64 460.74 129.65 460.74 129.65 470.73 137.64 470.73 137.64 380.23 129.65 380.23"></polygon>
  <path class="cls-15" d="M117.45,430a3.91,3.91,0,0,0,3.71-3.21,9.6,9.6,0,0,0-.81-5.36,10.23,10.23,0,0,1-.88-3.08,19,19,0,0,1,.47-3.25,7.84,7.84,0,0,0-.39-3.66c-.57-1.58-1.64-3-2-4.6a29.7,29.7,0,0,1-.2-4.53A2.42,2.42,0,0,0,117,401a2,2,0,0,0-.94-.66,4.52,4.52,0,0,0-3.79.38,6.73,6.73,0,0,0-2.58,2.88c-.67,1.37-1,2.95-2,4.09s-2.37,1.65-3,2.9a4.87,4.87,0,0,0-.39,2.3c0,2.23.46,4.56-.44,6.6-.58,1.32-1.93,2.25-2.34,3.63l-.06.19a5.29,5.29,0,0,0,5.34,6.68Z"></path>
  <rect class="cls-12" x="88.85" y="449.25" width="44.8" height="11.49"></rect>
  <path class="cls-12" d="M103.81,419.49c.9-2,.47-4.37.44-6.6a4.87,4.87,0,0,1,.39-2.3,4.37,4.37,0,0,1,1.17-1.33h-17v11.49H103A6.28,6.28,0,0,0,103.81,419.49Z"></path>
  <path class="cls-12" d="M118.54,409.26a17.38,17.38,0,0,1,1,2.14,7.84,7.84,0,0,1,.39,3.66,19,19,0,0,0-.47,3.25,8,8,0,0,0,.64,2.44h13.53V409.26Z"></path>
  <path class="cls-16" d="M111.57,430.25s-1.61-13.55,1.16-21.74"></path>
  <polygon class="cls-17" points="121.4 429.98 101.18 429.98 105.02 449.25 117.56 449.25 121.4 429.98"></polygon>
  <line class="cls-18" x1="511.87" y1="200.47" x2="511.87" y2="479.6"></line>
  <line class="cls-18" x1="331.92" y1="200.83" x2="331.92" y2="241.89"></line>
  <line class="cls-18" x1="271.21" y1="200.83" x2="271.21" y2="241.89"></line>
  <line class="cls-18" x1="89.33" y1="201.07" x2="89.33" y2="480.2"></line>
  <rect class="cls-19" x="89.4" y="234.15" width="422.37" height="25.43"></rect>
  <rect class="cls-19" x="70.69" y="479.34" width="458.62" height="12.01"></rect>
  <rect class="cls-19" x="70.69" y="208.25" width="18.64" height="271.08"></rect>
  <rect class="cls-19" x="511.87" y="208.25" width="17.44" height="271.08"></rect>
  <rect class="cls-14" x="480.88" y="357.03" width="30.89" height="56.4"></rect>
  <polygon class="cls-14" points="511.77 390.22 464.06 420.22 464.06 479.33 511.77 479.33 511.77 390.22"></polygon>
  <rect class="cls-14" x="70.69" y="166.31" width="458.62" height="68.16"></rect>
  <rect class="cls-20" x="61.95" y="140.68" width="476.09" height="7.42"></rect>
  <polygon class="cls-11" points="236.1 439.96 195.16 439.96 202.94 478.99 228.32 478.99 236.1 439.96"></polygon>
  <rect class="cls-21" x="207.54" y="387.43" width="5.64" height="52.5"></rect>
  <path class="cls-15" d="M222.18,423c-8.32-15.38-14.51-7.75-19.65-3.24a2.71,2.71,0,0,0,1.6-.21c2.4-.76,5-.36,7.47,0,3.78.62,7.72,1.31,10.8,3.57"></path>
  <path class="cls-15" d="M230.76,393.13c6.42-5.38,14.21-6.13,21.94-2.89a22.27,22.27,0,0,0-18.77,7.51"></path>
  <path class="cls-15" d="M220.7,396.74a25.29,25.29,0,0,1,1.51-4.55,17.79,17.79,0,0,1,6.95-8.24,11.46,11.46,0,0,1,10.51-.77,15,15,0,0,0-8.9,13.59"></path>
  <path class="cls-15" d="M219.2,361.55a18.3,18.3,0,0,0-4.34-5.83,37.75,37.75,0,0,0-4.36-3.19l-11.81-7.79c2.69-1.37,5.88-1.21,8.89-1a17.48,17.48,0,0,1,5.67,1,11.52,11.52,0,0,1,5.45,5.38,34.53,34.53,0,0,1,2.57,7.36Z"></path>
  <path class="cls-15" d="M219.33,350.9c1.24-4.59,5.24-8,9.68-9.76s9.3-1.91,14.05-1.88a15.72,15.72,0,0,0-10.59,3.35,11.62,11.62,0,0,0-4.26,10l-4.66,10.17-5.1.33Z"></path>
  <path class="cls-15" d="M221.29,408.07c3.72-3.59,9-5.22,14.14-5.5s10.29.65,15.37,1.59A24.55,24.55,0,0,0,231,395a12.24,12.24,0,0,0-4.33.82c-3.71,1.56-6.64,8-5.42,11.87"></path>
  <rect class="cls-21" x="219.39" y="370.04" width="5.64" height="69.89"></rect>
  <path class="cls-15" d="M222.4,371.14a11.16,11.16,0,0,1,4.63-6.9,23.24,23.24,0,0,1,8.25-3.75,39.9,39.9,0,0,1,15.65-.94c-3.72-4.88-10.29-6.64-16.42-6.89a14.76,14.76,0,0,0-4.45.35,10.71,10.71,0,0,0-6.71,6.2c-1.25,2.9-1.3,8.8-.95,11.93"></path>
  <path class="cls-15" d="M221,369.44a10.6,10.6,0,0,0-4.1-6.16,19.23,19.23,0,0,0-6.84-3.11,33.23,33.23,0,0,0-13-.78c3.09-4,8.53-5.5,13.61-5.7a12.32,12.32,0,0,1,3.69.28,8.91,8.91,0,0,1,5.57,5.15c1,2.39,1.35,7.72,1,10.32"></path>
  <path class="cls-15" d="M225,429.05c.36-18.78,10.88-12.82,17.23-10.31a2.62,2.62,0,0,1-1.57.34c-2.52.09-4.83,1.34-7,2.55a24.63,24.63,0,0,0-8.63,7.42"></path>
  <path class="cls-15" d="M207.54,435.19c-.35-18.78-10.87-12.82-17.23-10.3a2.64,2.64,0,0,0,1.58.34c2.51.09,4.82,1.33,7,2.55a24.52,24.52,0,0,1,8.63,7.41"></path>
  <path class="cls-15" d="M207.3,404.36c-.3-16-9.25-10.91-14.65-8.77a2.15,2.15,0,0,0,1.33.29,13.88,13.88,0,0,1,6,2.17,20.91,20.91,0,0,1,7.34,6.31"></path>
  <path class="cls-15" d="M208.06,381.16a12.72,12.72,0,0,0-3-4.06,25.43,25.43,0,0,0-3-2.22l-8.22-5.43c1.87-.95,4.09-.84,6.19-.71a11.73,11.73,0,0,1,3.95.7,8,8,0,0,1,3.79,3.75,24.13,24.13,0,0,1,1.8,5.12Z"></path>
  <path class="cls-15" d="M208.15,373.74c.86-3.19,3.65-5.6,6.74-6.79a26.7,26.7,0,0,1,9.79-1.31A10.91,10.91,0,0,0,217.3,368a8.11,8.11,0,0,0-3,7L211.09,382l-3.55.23Z"></path>
  <path class="cls-15" d="M210.29,387.84a7.79,7.79,0,0,1,3.22-4.81,16.31,16.31,0,0,1,5.75-2.61,28,28,0,0,1,10.9-.66c-2.59-3.39-7.17-4.62-11.43-4.79a10.38,10.38,0,0,0-3.1.24,7.48,7.48,0,0,0-4.68,4.32c-.87,2-.9,6.13-.66,8.31"></path>
  <path class="cls-15" d="M209.32,386.65a7.39,7.39,0,0,0-2.85-4.28,13.42,13.42,0,0,0-4.77-2.17,23,23,0,0,0-9-.54c2.15-2.82,5.94-3.84,9.48-4a8.85,8.85,0,0,1,2.57.2,6.18,6.18,0,0,1,3.88,3.58,18.73,18.73,0,0,1,.73,7.19"></path>
  <rect class="cls-20" x="89.8" y="148.11" width="6.99" height="9.31"></rect>
  <rect class="cls-20" x="108.59" y="148.11" width="6.99" height="9.31"></rect>
  <rect class="cls-20" x="127.38" y="148.11" width="6.99" height="9.31"></rect>
  <rect class="cls-20" x="146.17" y="148.11" width="6.99" height="9.31"></rect>
  <rect class="cls-20" x="164.97" y="148.11" width="6.99" height="9.31"></rect>
  <rect class="cls-20" x="183.76" y="148.11" width="6.99" height="9.31"></rect>
  <rect class="cls-20" x="202.55" y="148.11" width="6.99" height="9.31"></rect>
  <rect class="cls-20" x="221.34" y="148.11" width="6.99" height="9.31"></rect>
  <rect class="cls-20" x="240.13" y="148.11" width="6.99" height="9.31"></rect>
  <rect class="cls-20" x="258.92" y="148.11" width="6.99" height="9.31"></rect>
  <rect class="cls-20" x="277.71" y="148.11" width="6.99" height="9.31"></rect>
  <rect class="cls-20" x="296.5" y="148.11" width="6.99" height="9.31"></rect>
  <rect class="cls-20" x="315.29" y="148.11" width="6.99" height="9.31"></rect>
  <rect class="cls-20" x="334.08" y="148.11" width="6.99" height="9.31"></rect>
  <rect class="cls-20" x="352.88" y="148.11" width="6.99" height="9.31"></rect>
  <rect class="cls-20" x="371.67" y="148.11" width="6.99" height="9.31"></rect>
  <rect class="cls-20" x="390.46" y="148.11" width="6.99" height="9.31"></rect>
  <rect class="cls-20" x="409.25" y="148.11" width="6.99" height="9.31"></rect>
  <rect class="cls-20" x="428.04" y="148.11" width="6.99" height="9.31"></rect>
  <rect class="cls-20" x="446.83" y="148.11" width="6.99" height="9.31"></rect>
  <rect class="cls-20" x="465.62" y="148.11" width="6.99" height="9.31"></rect>
  <rect class="cls-20" x="484.41" y="148.11" width="6.99" height="9.31"></rect>
  <rect class="cls-20" x="503.2" y="148.11" width="6.99" height="9.31"></rect>
  <path class="cls-22" d="M206.66,197.52v-.47a3.12,3.12,0,0,0,1.62-.47,4.49,4.49,0,0,0,1.18-1.12,7.17,7.17,0,0,0,.85-1.51c.22-.55.42-1.08.6-1.6h.42v4.29h4v.88h-4v6.89a6.06,6.06,0,0,0,0,.75,2.27,2.27,0,0,0,.18.67,1.1,1.1,0,0,0,.38.47,1.19,1.19,0,0,0,.7.18,2.6,2.6,0,0,0,1.47-.39,7.25,7.25,0,0,0,1.19-1l.26.29c-.33.3-.66.6-1,.91a9.35,9.35,0,0,1-1,.82,4.35,4.35,0,0,1-1.13.59,3.72,3.72,0,0,1-1.31.23,1.81,1.81,0,0,1-1.69-.76,3.52,3.52,0,0,1-.44-1.79v-7.89Z"></path>
  <path class="cls-22" d="M231,207.6c-.57,0-1.19-.07-1.84-.09s-1.31,0-2,0c-.45,0-.89,0-1.31,0s-.83.05-1.23.09v-.35a4.57,4.57,0,0,0,1.47-.49,1.4,1.4,0,0,0,.51-1.29v-4.75a3.79,3.79,0,0,0-.63-2.34,2.45,2.45,0,0,0-2.06-.83,3.77,3.77,0,0,0-1,.15,4.48,4.48,0,0,0-1,.4,3.32,3.32,0,0,0-.73.55.81.81,0,0,0-.3.56v6.26a1.36,1.36,0,0,0,.56,1.29,5.38,5.38,0,0,0,1.69.49v.35l-2-.09c-.66,0-1.32,0-2,0-.46,0-.89,0-1.32,0l-1.31.09v-.35a4.65,4.65,0,0,0,1.53-.49,1.37,1.37,0,0,0,.54-1.29V190.4a10.26,10.26,0,0,0-.11-1.67,1.92,1.92,0,0,0-.35-.91,1.16,1.16,0,0,0-.68-.4,7.08,7.08,0,0,0-1.08-.12V187l4.52-.51v11.44a13.14,13.14,0,0,1,1.83-1.18,4.09,4.09,0,0,1,2-.56,6.27,6.27,0,0,1,1.58.2,3.82,3.82,0,0,1,1.35.68,3.33,3.33,0,0,1,.94,1.27,4.83,4.83,0,0,1,.36,2v5.2a1.39,1.39,0,0,0,.53,1.29,4.72,4.72,0,0,0,1.54.49Z"></path>
  <path class="cls-22" d="M235.05,201.28a7.08,7.08,0,0,0,.4,2.54,4.44,4.44,0,0,0,1,1.59,3.35,3.35,0,0,0,1.3.83,3.93,3.93,0,0,0,1.28.24,6,6,0,0,0,2.25-.4,5.43,5.43,0,0,0,1.86-1.26l.5.48a10,10,0,0,1-2.48,2,6.41,6.41,0,0,1-3,.68,5,5,0,0,1-2.28-.51,5.2,5.2,0,0,1-1.71-1.33,5.54,5.54,0,0,1-1.08-1.89,6.64,6.64,0,0,1,0-4.37,5.54,5.54,0,0,1,1.08-1.89,5.33,5.33,0,0,1,1.71-1.33,5,5,0,0,1,2.28-.5,5.41,5.41,0,0,1,3.75,1.27,6,6,0,0,1,1.74,3.87Zm5.77-.89a12.13,12.13,0,0,0-.24-1.43,2.92,2.92,0,0,0-.47-1.07,2.16,2.16,0,0,0-.86-.65,3.72,3.72,0,0,0-1.36-.22,2.27,2.27,0,0,0-1.14.31,3.2,3.2,0,0,0-.88.8,3.66,3.66,0,0,0-.57,1.09,4.2,4.2,0,0,0-.19,1.17Z"></path>
  <path class="cls-22" d="M253.34,203.73h.42a10.28,10.28,0,0,0,.93,1.21,7.23,7.23,0,0,0,1.14,1.07,5.66,5.66,0,0,0,1.33.76,3.79,3.79,0,0,0,1.5.3,5.39,5.39,0,0,0,.79-.07,2.47,2.47,0,0,0,.72-.26,1.34,1.34,0,0,0,.53-.47,1.24,1.24,0,0,0,.21-.74,1.52,1.52,0,0,0-.55-1.21,5.57,5.57,0,0,0-1.34-.83c-.53-.23-1.12-.45-1.76-.66a10.45,10.45,0,0,1-1.76-.74,4.88,4.88,0,0,1-1.34-1.05,2.28,2.28,0,0,1-.55-1.59,3.07,3.07,0,0,1,1-2.46,3.68,3.68,0,0,1,2.5-.85,7.84,7.84,0,0,1,2.17.29,9.74,9.74,0,0,0,2.17.36l.18,3.13h-.39a5.4,5.4,0,0,0-.73-1.08,6.63,6.63,0,0,0-1-.92,6.11,6.11,0,0,0-1.17-.65,3.5,3.5,0,0,0-1.27-.25,2.68,2.68,0,0,0-1.33.33,1.21,1.21,0,0,0-.59,1.18,1.23,1.23,0,0,0,.54,1,7.65,7.65,0,0,0,1.35.74c.53.22,1.12.45,1.76.66a9.67,9.67,0,0,1,1.75.79,4.78,4.78,0,0,1,1.35,1.12,2.52,2.52,0,0,1,.55,1.64,3.84,3.84,0,0,1-.34,1.7,2.79,2.79,0,0,1-.93,1.05,4.23,4.23,0,0,1-1.38.54,8.08,8.08,0,0,1-1.67.17,8.61,8.61,0,0,1-1.36-.11c-.43-.07-.84-.15-1.22-.25l-1.08-.27-.89-.17Z"></path>
  <path class="cls-22" d="M271,196.14a7.61,7.61,0,0,1,2.59.42,6.11,6.11,0,0,1,2,1.2,5.25,5.25,0,0,1,1.3,1.86,6.62,6.62,0,0,1,0,4.85,5.25,5.25,0,0,1-1.3,1.86,6.11,6.11,0,0,1-2,1.2,8,8,0,0,1-5.17,0,6.11,6.11,0,0,1-2-1.2,5.12,5.12,0,0,1-1.3-1.86,6.62,6.62,0,0,1,0-4.85,5.12,5.12,0,0,1,1.3-1.86,6.11,6.11,0,0,1,2-1.2A7.59,7.59,0,0,1,271,196.14Zm-.53.88a2.44,2.44,0,0,0-1.43.42,3.31,3.31,0,0,0-1,1.07,5.18,5.18,0,0,0-.6,1.51,8,8,0,0,0-.19,1.67,7.67,7.67,0,0,0,.25,1.89,5.56,5.56,0,0,0,.79,1.73,4.14,4.14,0,0,0,1.33,1.27,3.56,3.56,0,0,0,1.92.49,2.51,2.51,0,0,0,1.43-.41,3.45,3.45,0,0,0,1-1.08,5.12,5.12,0,0,0,.6-1.5,7.87,7.87,0,0,0,.19-1.68,6.94,6.94,0,0,0-.27-1.88,5.76,5.76,0,0,0-.8-1.74,4.14,4.14,0,0,0-1.33-1.27A3.5,3.5,0,0,0,270.51,197Z"></path>
  <path class="cls-22" d="M283.37,203.88a2.71,2.71,0,0,0,.63,1.92,2.47,2.47,0,0,0,1.88.68,4.2,4.2,0,0,0,1.88-.46,4.47,4.47,0,0,0,1.37-1v-6.24a3.8,3.8,0,0,0-.06-.7,1.12,1.12,0,0,0-.3-.58,1.79,1.79,0,0,0-.7-.44,5.2,5.2,0,0,0-1.28-.31v-.33l4.64-.32v9.07a1.66,1.66,0,0,0,.58,1.49,3.29,3.29,0,0,0,1.61.43v.29c-.75,0-1.5.07-2.26.09s-1.5.05-2.23.09v-1.54a13.16,13.16,0,0,1-2.17,1.33,5.44,5.44,0,0,1-2.47.57,3.77,3.77,0,0,1-2.42-.8,2.94,2.94,0,0,1-1-2.45v-6.12a1.33,1.33,0,0,0-.49-1.21,4.15,4.15,0,0,0-1.72-.48v-.38l4.52-.38Z"></path>
  <path class="cls-22" d="M294.89,207.25a4.8,4.8,0,0,0,1.54-.49,1.39,1.39,0,0,0,.53-1.29v-6.85c0-.59-.2-1-.61-1.1a4.54,4.54,0,0,0-1.4-.2V197l4.31-.65V198c.24-.16.51-.37.82-.62s.63-.51,1-.76a9.72,9.72,0,0,1,1.05-.63,2.3,2.3,0,0,1,1-.27,2.18,2.18,0,0,1,1.72.64,2.72,2.72,0,0,1,.64,1.76l-2.36,1.24c0-.14.07-.28.11-.43a2.29,2.29,0,0,0,.06-.58,1.28,1.28,0,0,0-.29-.78,1,1,0,0,0-.8-.37,1.82,1.82,0,0,0-.83.21,4.67,4.67,0,0,0-.8.51,9.07,9.07,0,0,0-.72.67l-.61.62v6.26a1.34,1.34,0,0,0,.57,1.29,5.22,5.22,0,0,0,1.68.49v.35l-2-.09c-.66,0-1.33,0-2,0-.45,0-.89,0-1.31,0l-1.32.09Z"></path>
  <path class="cls-22" d="M317,201.1c-.19-.49-.41-1-.66-1.49a6.32,6.32,0,0,0-.89-1.35,4.38,4.38,0,0,0-1.21-1,3.23,3.23,0,0,0-1.61-.39,2.71,2.71,0,0,0-1.57.45,3.32,3.32,0,0,0-1,1.13,5.57,5.57,0,0,0-.6,1.57,8.56,8.56,0,0,0-.19,1.73,5.28,5.28,0,0,0,.33,1.86,5.06,5.06,0,0,0,.91,1.58,4.32,4.32,0,0,0,1.44,1.1,4.38,4.38,0,0,0,1.87.39,5.52,5.52,0,0,0,2.07-.39,9.92,9.92,0,0,0,1.86-1l.42.47a11,11,0,0,1-2.62,1.64,7.36,7.36,0,0,1-2.88.55,5.22,5.22,0,0,1-2.2-.48,5.89,5.89,0,0,1-1.83-1.27,6.1,6.1,0,0,1-1.26-1.87,5.76,5.76,0,0,1-.47-2.29,5.69,5.69,0,0,1,.47-2.29,6.14,6.14,0,0,1,1.26-1.88,5.89,5.89,0,0,1,1.83-1.27,5.21,5.21,0,0,1,2.2-.47,17.75,17.75,0,0,1,2.28.13c.69.09,1.37.2,2.06.34l.39,4.49Z"></path>
  <path class="cls-22" d="M322.31,201.28a7.08,7.08,0,0,0,.4,2.54,4.44,4.44,0,0,0,1,1.59,3.35,3.35,0,0,0,1.3.83,3.93,3.93,0,0,0,1.28.24,6,6,0,0,0,2.25-.4,5.43,5.43,0,0,0,1.86-1.26l.5.48a10,10,0,0,1-2.48,2,6.41,6.41,0,0,1-3,.68,5,5,0,0,1-2.28-.51,5.2,5.2,0,0,1-1.71-1.33,5.54,5.54,0,0,1-1.08-1.89,6.64,6.64,0,0,1,0-4.37A5.54,5.54,0,0,1,321.4,198a5.33,5.33,0,0,1,1.71-1.33,5,5,0,0,1,2.28-.5,5.41,5.41,0,0,1,3.75,1.27,6,6,0,0,1,1.74,3.87Zm5.77-.89a12.13,12.13,0,0,0-.24-1.43,2.92,2.92,0,0,0-.47-1.07,2.16,2.16,0,0,0-.86-.65,3.76,3.76,0,0,0-1.36-.22,2.27,2.27,0,0,0-1.14.31,3.2,3.2,0,0,0-.88.8,3.66,3.66,0,0,0-.57,1.09,4.2,4.2,0,0,0-.19,1.17Z"></path>
  <path class="cls-22" d="M343.58,198.7c0-.49,0-.9-.05-1.23a1.6,1.6,0,0,0-.23-.78,1.1,1.1,0,0,0-.54-.45,3.46,3.46,0,0,0-1-.19v-.21l1.08,0,1.08,0c.47,0,.95,0,1.42-.07a14.51,14.51,0,0,1,1.52-.07,8.76,8.76,0,0,1,1.57.15,5.32,5.32,0,0,1,1.51.54,3.53,3.53,0,0,1,1.15,1,2.66,2.66,0,0,1,.46,1.6,2.25,2.25,0,0,1-.5,1.44,2.57,2.57,0,0,1-1.25.89v0a4.09,4.09,0,0,1,1.91,1.19,3.23,3.23,0,0,1,.68,2.14,2.38,2.38,0,0,1-.36,1.35,2.63,2.63,0,0,1-.94.87,4.21,4.21,0,0,1-1.32.46,8.62,8.62,0,0,1-1.53.13c-.81,0-1.61,0-2.4-.08s-1.58-.09-2.39-.09h-.83c-.28,0-.55,0-.82.06v-.22a3.45,3.45,0,0,0,1-.19,1,1,0,0,0,.53-.44,1.76,1.76,0,0,0,.22-.79c0-.33.05-.74.05-1.23Zm1.59,2.24a3.66,3.66,0,0,0,1,.33,5.58,5.58,0,0,0,1,.09,2.83,2.83,0,0,0,1.88-.63,2.23,2.23,0,0,0,.75-1.81,2.38,2.38,0,0,0-.24-1.08,2.82,2.82,0,0,0-.66-.83,3,3,0,0,0-.95-.53,3.5,3.5,0,0,0-1.12-.18c-.28,0-.56,0-.83,0a3.45,3.45,0,0,0-.82.18Zm0,5.52a.65.65,0,0,0,.33.25,3.59,3.59,0,0,0,.6.18,5.42,5.42,0,0,0,.74.13,6.34,6.34,0,0,0,.74,0,3.16,3.16,0,0,0,2.24-.75,2.84,2.84,0,0,0,.81-2.19,2.32,2.32,0,0,0-.48-1.42,4.64,4.64,0,0,0-1.1-1.07l-.85.13a6.15,6.15,0,0,1-.87.06,10.28,10.28,0,0,1-1.1-.06,4.44,4.44,0,0,1-1.06-.26Z"></path>
  <path class="cls-22" d="M355.51,197.62a2.61,2.61,0,0,0-.09-.77,1,1,0,0,0-.3-.43,1.22,1.22,0,0,0-.47-.23l-.66-.14v-.21l1.46,0,1.46,0,1.06,0,1,0v.21a3.65,3.65,0,0,0-.94.18,1.33,1.33,0,0,0-.58.35,1.23,1.23,0,0,0-.3.59,3.79,3.79,0,0,0-.09.9v5.77a3.35,3.35,0,0,0,.27,1.41,2.67,2.67,0,0,0,.75.94,3.17,3.17,0,0,0,1.11.53,5.29,5.29,0,0,0,1.34.17,4.55,4.55,0,0,0,1.86-.34,3.53,3.53,0,0,0,1.15-.82,2.74,2.74,0,0,0,.58-1,3.49,3.49,0,0,0,.16-1v-5a10.18,10.18,0,0,0-.06-1.2,1.89,1.89,0,0,0-.25-.79,1.13,1.13,0,0,0-.52-.47,2.87,2.87,0,0,0-.87-.23v-.21l1.09,0,1.09,0,.9,0,.91,0v.21a4.42,4.42,0,0,0-.69.14,1.17,1.17,0,0,0-.52.32,1.46,1.46,0,0,0-.32.66,4.59,4.59,0,0,0-.12,1.18v5.29a4.2,4.2,0,0,1-.38,1.84,3.72,3.72,0,0,1-1,1.28,4.23,4.23,0,0,1-1.53.76,6.65,6.65,0,0,1-1.87.25,6.18,6.18,0,0,1-1.73-.24,4.53,4.53,0,0,1-1.48-.72,3.72,3.72,0,0,1-1-1.22,3.47,3.47,0,0,1-.39-1.68Z"></path>
  <path class="cls-22" d="M373.74,196.05a8.52,8.52,0,0,0-1.33.28,1.7,1.7,0,0,0-.7.4,1.12,1.12,0,0,0-.28.6,7.33,7.33,0,0,0-.05.9v8.5l.93.16a6.84,6.84,0,0,0,.91.07,6.65,6.65,0,0,0,1.83-.22,4.63,4.63,0,0,0,1.39-.63,5.3,5.3,0,0,0,1.15-1.08,14.54,14.54,0,0,0,1.05-1.51h.27l-1.37,4c-.42,0-.85,0-1.28-.06h-7.38c-.29,0-.59,0-.88.06v-.22a3.78,3.78,0,0,0,.93-.17,1.54,1.54,0,0,0,.54-.31.92.92,0,0,0,.25-.45,2.35,2.35,0,0,0,.07-.62v-7c0-.49,0-.9-.05-1.23a1.85,1.85,0,0,0-.22-.78,1.08,1.08,0,0,0-.53-.45,3.61,3.61,0,0,0-1-.19v-.21l1.37,0,1.37,0,1.5,0,1.5,0Z"></path>
  <path class="cls-22" d="M382.85,204.62c0,.49,0,.9,0,1.23a1.76,1.76,0,0,0,.23.79,1,1,0,0,0,.56.44,3.78,3.78,0,0,0,1,.19v.22c-.44,0-.89,0-1.34-.06h-2.64l-1.28.06v-.22a3.62,3.62,0,0,0,1-.19,1.12,1.12,0,0,0,.54-.44,1.89,1.89,0,0,0,.23-.79c0-.33,0-.74,0-1.23V198.7c0-.49,0-.9,0-1.23a1.84,1.84,0,0,0-.23-.78,1.15,1.15,0,0,0-.56-.45,3.86,3.86,0,0,0-1-.19v-.21l1.44,0,1.45,0,1.16,0,1.16,0v.21a3.53,3.53,0,0,0-1,.19,1.12,1.12,0,0,0-.53.45,1.85,1.85,0,0,0-.22.78c0,.33,0,.74,0,1.23v3l2.7-2.2c.24-.2.48-.41.7-.63a6,6,0,0,0,.6-.66,4.36,4.36,0,0,0,.4-.64,1.26,1.26,0,0,0,.16-.55.82.82,0,0,0-.12-.45,1.07,1.07,0,0,0-.3-.3,1.42,1.42,0,0,0-.42-.17,2.31,2.31,0,0,0-.46,0v-.21l1.32,0,1.32,0,1.41,0,1.41,0v.21a3.74,3.74,0,0,0-.86.18,3.87,3.87,0,0,0-.82.36,8.66,8.66,0,0,0-.88.6c-.32.24-.68.54-1.09.89l-2.2,1.88,3.58,5.26a7.5,7.5,0,0,0,1.25,1.38,2.71,2.71,0,0,0,1.64.67v.22l-1.53-.06h-2.89l-1.37.06v-.22a2.83,2.83,0,0,0,1.1-.26.82.82,0,0,0,.47-.82,1,1,0,0,0-.19-.53l-.55-.79-2.68-3.93-1.7,1.32Z"></path>
  <path class="cls-22" d="M400.47,204.92a7.72,7.72,0,0,0,.07,1.11,1.24,1.24,0,0,0,.3.63,1.39,1.39,0,0,0,.64.35c.29.08.67.17,1.15.26v.22l-1.5-.06h-2.81l-1.3.06v-.22a3.62,3.62,0,0,0,1-.19,1.12,1.12,0,0,0,.56-.44,1.89,1.89,0,0,0,.25-.79c0-.33.05-.74.05-1.23V198.7c0-.49,0-.9-.05-1.23a1.84,1.84,0,0,0-.25-.78,1.2,1.2,0,0,0-.56-.45,3.62,3.62,0,0,0-1-.19v-.21l.66,0,.84,0h5.32q.9,0,1.59,0l1.45,0c0,.24,0,.49-.05.73s0,.48,0,.72,0,.61,0,.91,0,.6.05.91h-.28a4.5,4.5,0,0,0-.73-1.57,2.77,2.77,0,0,0-1.07-.81,4.44,4.44,0,0,0-1.39-.31c-.52,0-1.08,0-1.7,0h-.6c-.2,0-.41,0-.64,0v4.39h1.42a2.65,2.65,0,0,0,1.65-.44,3,3,0,0,0,.94-1.45h.21c0,.8-.06,1.6-.06,2.41,0,.42,0,.82,0,1.17s0,.75.05,1.16h-.21a7.77,7.77,0,0,0-.38-1.08,2,2,0,0,0-.47-.7,1.57,1.57,0,0,0-.66-.39,4.45,4.45,0,0,0-1-.18l-.33,0h-1.21Z"></path>
  <path class="cls-22" d="M408.35,201.66a6.24,6.24,0,0,1,.52-2.57,5.9,5.9,0,0,1,1.41-1.92,6.3,6.3,0,0,1,2.08-1.2,7.92,7.92,0,0,1,5.09,0,6.3,6.3,0,0,1,2.08,1.2,5.74,5.74,0,0,1,1.4,1.92,6.5,6.5,0,0,1,0,5.14,5.64,5.64,0,0,1-1.4,1.92,6,6,0,0,1-2.08,1.2,7.92,7.92,0,0,1-5.09,0,6,6,0,0,1-2.08-1.2,5.8,5.8,0,0,1-1.41-1.92A6.21,6.21,0,0,1,408.35,201.66Zm1.88,0a6.79,6.79,0,0,0,.32,2.07,5.41,5.41,0,0,0,.92,1.75,4.52,4.52,0,0,0,1.47,1.2,4.52,4.52,0,0,0,3.93,0,4.52,4.52,0,0,0,1.47-1.2,5.41,5.41,0,0,0,.92-1.75,6.86,6.86,0,0,0,0-4.14,5.36,5.36,0,0,0-.92-1.74,4.42,4.42,0,0,0-1.47-1.21,4.52,4.52,0,0,0-3.93,0,4.42,4.42,0,0,0-1.47,1.21,5.36,5.36,0,0,0-.92,1.74A6.79,6.79,0,0,0,410.23,201.66Z"></path>
  <path class="cls-22" d="M423.1,201.66a6.09,6.09,0,0,1,.53-2.57,5.74,5.74,0,0,1,1.4-1.92,6.3,6.3,0,0,1,2.08-1.2,7.92,7.92,0,0,1,5.09,0,6.3,6.3,0,0,1,2.08,1.2,5.74,5.74,0,0,1,1.4,1.92,6.5,6.5,0,0,1,0,5.14,5.64,5.64,0,0,1-1.4,1.92,6,6,0,0,1-2.08,1.2,7.92,7.92,0,0,1-5.09,0,6,6,0,0,1-2.08-1.2,5.64,5.64,0,0,1-1.4-1.92A6.05,6.05,0,0,1,423.1,201.66Zm1.88,0a6.79,6.79,0,0,0,.32,2.07,5.41,5.41,0,0,0,.92,1.75,4.52,4.52,0,0,0,1.47,1.2,4.52,4.52,0,0,0,3.93,0,4.52,4.52,0,0,0,1.47-1.2,5.41,5.41,0,0,0,.92-1.75,6.86,6.86,0,0,0,0-4.14,5.36,5.36,0,0,0-.92-1.74,4.42,4.42,0,0,0-1.47-1.21,4.52,4.52,0,0,0-3.93,0,4.42,4.42,0,0,0-1.47,1.21,5.36,5.36,0,0,0-.92,1.74A6.79,6.79,0,0,0,425,201.66Z"></path>
  <path class="cls-22" d="M437.71,207.27a3.28,3.28,0,0,0,.93-.19,1.42,1.42,0,0,0,.53-.33.73.73,0,0,0,.24-.4,1.51,1.51,0,0,0,0-.42v-8.18a4.52,4.52,0,0,0,0-.68,1,1,0,0,0-.22-.51,1.21,1.21,0,0,0-.53-.33,3.57,3.57,0,0,0-1-.18v-.21l.92,0,.92,0a18.19,18.19,0,0,0,2.3-.13,19.5,19.5,0,0,1,2.18-.12,8.12,8.12,0,0,1,2.69.44,6.8,6.8,0,0,1,2.21,1.27,6,6,0,0,1,1.5,2A6.17,6.17,0,0,1,451,202a5.38,5.38,0,0,1-.53,2.51,4.87,4.87,0,0,1-1.41,1.7,5.86,5.86,0,0,1-2,1,9.35,9.35,0,0,1-2.38.3H438.9l-1.19.06Zm3.35-1.2a3.19,3.19,0,0,0,1.3.74,5,5,0,0,0,1.48.22,5.07,5.07,0,0,0,4-1.4,5.87,5.87,0,0,0,1.25-4.06,5.71,5.71,0,0,0-.41-2.15,5.36,5.36,0,0,0-1.16-1.74,5.17,5.17,0,0,0-1.75-1.17,5.88,5.88,0,0,0-4.58.07c0,.61-.07,1.22-.08,1.83s0,1.23,0,1.87Z"></path>
  <path class="cls-22" d="M460.47,199.2a7.16,7.16,0,0,0-.6-1.12,4.79,4.79,0,0,0-.84-1,4.43,4.43,0,0,0-1.06-.7,3.18,3.18,0,0,0-1.28-.26,3.25,3.25,0,0,0-1.65.37,1.41,1.41,0,0,0-.65,1.33,1.69,1.69,0,0,0,.29,1,3.08,3.08,0,0,0,.78.74,8.22,8.22,0,0,0,1.11.58l1.27.54c.43.18.85.38,1.26.59a5.48,5.48,0,0,1,1.11.77,3.55,3.55,0,0,1,.78,1,3.18,3.18,0,0,1,.29,1.4,3.32,3.32,0,0,1-.32,1.5,2.88,2.88,0,0,1-.86,1,3.56,3.56,0,0,1-1.25.61,5.85,5.85,0,0,1-1.54.19,6,6,0,0,1-.92-.08l-.92-.18-.8-.19a3.25,3.25,0,0,0-.58-.08,1.15,1.15,0,0,0-.37.06l-.37.13c-.11-.67-.23-1.32-.38-2s-.28-1.3-.44-2l.23-.12a13.24,13.24,0,0,0,.77,1.29,8,8,0,0,0,1,1.22,5.64,5.64,0,0,0,1.25.93,3.12,3.12,0,0,0,1.48.37,4.07,4.07,0,0,0,1-.12,2.67,2.67,0,0,0,.84-.36,1.92,1.92,0,0,0,.58-.65,2.06,2.06,0,0,0,.21-1,2,2,0,0,0-.51-1.39,5.13,5.13,0,0,0-1.28-1,17.15,17.15,0,0,0-1.66-.77,12.59,12.59,0,0,1-1.65-.79,4.93,4.93,0,0,1-1.28-1,2.25,2.25,0,0,1-.51-1.52,3,3,0,0,1,1-2.22,3.41,3.41,0,0,1,1.05-.61,3.74,3.74,0,0,1,1.26-.21,7,7,0,0,1,1.18.09l1,.2,1,.2a5.87,5.87,0,0,0,1.06.1c0,.53,0,1,0,1.55s0,1,.11,1.51Z"></path>
  <path class="cls-2" d="M159.31,179.8a20.59,20.59,0,1,0,20.6,20.59A20.59,20.59,0,0,0,159.31,179.8Zm5.72,8.47c1.21-.34,1.26-.28,1.42,1,.46,3.72-2.21,5.51-4.76,5.73-.64.06-.9-.1-.89-.73a3.63,3.63,0,0,0-.06-.61A5.56,5.56,0,0,1,165,188.27Zm-10.13-3.91a.77.77,0,0,1,1.09-.47,5.08,5.08,0,0,1,3.56,4.37c0,.45.08.91.13,1.43s-.14,1-.19,1.57-.29.68-.8.67a4.16,4.16,0,0,1-3.85-2.83A6,6,0,0,1,154.9,184.36Zm-1.6,7.18a5.42,5.42,0,0,1,6,3.47,4.33,4.33,0,0,1-2.52.62,4.64,4.64,0,0,1-4.22-2.89C152.26,191.82,152.32,191.72,153.3,191.54Zm6,8.66a.78.78,0,0,1-.43.61,9.67,9.67,0,0,1-1.41.22c-2-.08-3.65-.49-4.44-2.28s-.39-2.37,1.46-2.58A4.8,4.8,0,0,1,159.34,200.2Zm-6.88,1.2a5.28,5.28,0,0,1,5.85,3.23,1.39,1.39,0,0,1,.1.33c.1,1.32.53,1.58-1.18,1.44a5.2,5.2,0,0,1-4.08-1.6,4.63,4.63,0,0,1-1-3A.55.55,0,0,1,152.46,201.4Zm-.78,8.89a5.85,5.85,0,0,1-1.56-3.51c-.06-.41.17-.53.51-.56a6,6,0,0,1,6.41,3.9,4.61,4.61,0,0,1,.15.53c.3,1.22.29,1.23-1.22,1.22A6.52,6.52,0,0,1,151.68,210.29Zm7.28,4.39a4.56,4.56,0,0,1-2.89,2.28c.33-1,.63-1.87.87-2.73.89-3.29,1.9-6.54,2.59-9.87a25.18,25.18,0,0,0-.12-11,.6.6,0,0,1,.07-.47,4.76,4.76,0,0,1,.34.57,18.35,18.35,0,0,1,1.51,6.09,33.44,33.44,0,0,1-.13,7.81A17.78,17.78,0,0,1,159,214.68Zm8-3.89c-1.83,1.52-4,1.69-6.3,1.33a5.68,5.68,0,0,1,1.62-3.4,7.24,7.24,0,0,1,5.83-1.85c.13,0,.35.33.35.51A4.31,4.31,0,0,1,167,210.79Zm-1.14-5.16a9.09,9.09,0,0,1-4,.45,4.73,4.73,0,0,1,2.31-4.16,6.27,6.27,0,0,1,3.76-.85c.47,0,.63.21.62.68A4,4,0,0,1,165.84,205.63Zm-.93-5.47c-.49.09-1,.13-1.49.19-1.85-.08-1.85-.15-1.4-2a4.6,4.6,0,0,1,4.19-3.23c.52,0,1,0,1.57,0s.74.19.73.75A4.23,4.23,0,0,1,164.91,200.16Z"></path>
  <path class="cls-6" d="M89.33,259.2V479.14H200.7V259.2ZM193.21,471.65H96.82v-205h96.39Z"></path>
  <path class="cls-23" d="M193.21,343.79h-4.85a7.09,7.09,0,0,0-7.09,7.09v57.17a7.08,7.08,0,0,0,7.09,7.09h4.85"></path>
  <rect class="cls-21" x="292.56" y="429.21" width="7.52" height="49.86"></rect>
  <rect class="cls-21" x="346.62" y="429.21" width="6.33" height="49.86"></rect>
  <rect class="cls-21" x="300.08" y="429.18" width="46.54" height="15.92"></rect>
  <rect class="cls-21" x="300.08" y="445.1" width="46.54" height="33.97"></rect>
  <path class="cls-24" d="M313.63,423.23a.48.48,0,0,1,.34.5v2.44a.45.45,0,0,1-.39.5h-.1a1.73,1.73,0,0,0,.34.66,6.11,6.11,0,0,0,1.05.92,5.3,5.3,0,0,1,1.21,1.13,3.55,3.55,0,0,1,.64,2.06h0v11.42A2,2,0,0,1,315,445h-9a2,2,0,0,1-1.68-2.16V431.47h0a3.51,3.51,0,0,1,.62-2,5.75,5.75,0,0,1,1.22-1.16,6,6,0,0,0,1-.92,1.62,1.62,0,0,0,.33-.67h-.12a.45.45,0,0,1-.39-.5l0-2.43a.61.61,0,0,1,.11-.36.39.39,0,0,1,.28-.15h6.2Z"></path>
  <path class="cls-24" d="M326,423.23a.48.48,0,0,1,.35.5v2.44a.46.46,0,0,1-.39.5h-.1a1.6,1.6,0,0,0,.34.66,6.11,6.11,0,0,0,1.05.92,5.3,5.3,0,0,1,1.21,1.13,3.63,3.63,0,0,1,.64,2.06h0v11.42A2,2,0,0,1,327.4,445h-9a2,2,0,0,1-1.69-2.16V431.47h0a3.51,3.51,0,0,1,.63-2,5.71,5.71,0,0,1,1.21-1.16,5.66,5.66,0,0,0,1-.92,1.53,1.53,0,0,0,.34-.67h-.13c-.21,0-.38-.22-.38-.5l0-2.43a.61.61,0,0,1,.11-.36.36.36,0,0,1,.28-.15H326Z"></path>
  <path class="cls-24" d="M338.36,423.31a.46.46,0,0,1,.34.49v2.45a.45.45,0,0,1-.38.49h-.11a1.79,1.79,0,0,0,.35.67,5.29,5.29,0,0,0,1,.91,5.4,5.4,0,0,1,1.22,1.14,3.59,3.59,0,0,1,.64,2.05h0v11.41a2,2,0,0,1-1.69,2.17h-9a2,2,0,0,1-1.68-2.17V431.54h0a3.51,3.51,0,0,1,.63-2,5.42,5.42,0,0,1,1.21-1.15,6.06,6.06,0,0,0,1-.92,1.74,1.74,0,0,0,.34-.68h-.13a.45.45,0,0,1-.39-.49v-2.44a.58.58,0,0,1,.11-.35.33.33,0,0,1,.27-.15h6.2Z"></path>
  <path class="cls-2" d="M242.68,489.19l-11.5-67.55a1.42,1.42,0,0,0-1.62-1.15l-1,.17a5.18,5.18,0,0,0-10.2,0l-1-.17a1.43,1.43,0,0,0-1.63,1.15l-11.49,67.55a1.4,1.4,0,0,0,1.15,1.62l6.08,1h.24a1.33,1.33,0,0,0,.81-.26,1.39,1.39,0,0,0,.57-.91l10.41-61.16,10.4,61.16a1.4,1.4,0,0,0,.58.91,1.31,1.31,0,0,0,.81.26h.24l6.08-1A1.41,1.41,0,0,0,242.68,489.19Z"></path>
  <rect class="cls-25" x="96.82" y="266.69" width="96.39" height="204.96"></rect>
</svg>
