<?xml version="1.0" encoding="UTF-8"?>
<svg xmlns="http://www.w3.org/2000/svg" viewBox="0 0 600 600">
  <defs>
    <style>.cls-1{fill:#fb715d;}.cls-1,.cls-2,.cls-3,.cls-5,.cls-6,.cls-7,.cls-8{stroke:#1c19a8;stroke-linejoin:round;stroke-width:2.82px;}.cls-2{fill:#ffdc2d;}.cls-3,.cls-8{fill:#00ab81;}.cls-14,.cls-4,.cls-7,.cls-9{fill:#1c19a8;}.cls-5{fill:none;}.cls-6{fill:#fff;}.cls-8{fill-rule:evenodd;}.cls-9{font-size:10.6px;}.cls-14,.cls-9{font-family:DINNextLTPro-BoldCondensed, DIN Next LT Pro;font-weight:700;}.cls-10{letter-spacing:-0.08em;}.cls-11{letter-spacing:0em;}.cls-12{letter-spacing:-0.02em;}.cls-13{letter-spacing:0em;}.cls-14{font-size:13.66px;}.cls-15{letter-spacing:0em;}.cls-16{letter-spacing:-0.02em;}.cls-17{letter-spacing:-0.01em;}.cls-18{letter-spacing:-0.05em;}.cls-19{letter-spacing:-0.02em;}.cls-20{letter-spacing:0em;}</style>
  </defs>
  <g id="Layer_2" data-name="Layer 2">
    <rect class="cls-1" x="495.08" y="230.03" width="23.84" height="9.02"></rect>
    <polygon class="cls-2" points="518.92 230.03 495.08 230.03 499.31 212.02 514.7 212.02 518.92 230.03"></polygon>
    <rect class="cls-2" x="233.37" y="253.96" width="211.59" height="6.14"></rect>
    <rect class="cls-2" x="441.19" y="388.54" width="31.16" height="32.33"></rect>
    <path class="cls-1" d="M542.3,448.45H529.11a6.48,6.48,0,0,1-6.47-6.48V425.71h-5.8v15.88a12.66,12.66,0,0,0,12.66,12.66h12.8Z"></path>
    <polygon class="cls-2" points="335.53 451.9 347.85 451.9 429.83 451.9 429.83 404.39 335.92 404.39 335.53 451.9"></polygon>
    <rect class="cls-1" x="190.52" y="439.81" width="145.01" height="22.81"></rect>
    <rect class="cls-2" x="86.53" y="409.22" width="88.07" height="42.68"></rect>
    <polygon class="cls-3" points="81.44 253.96 187.14 253.96 187.14 350.53 66.45 350.53 81.44 253.96"></polygon>
    <circle class="cls-2" cx="130.57" cy="451.9" r="39.15"></circle>
    <circle class="cls-2" cx="130.57" cy="451.9" r="24.54"></circle>
    <circle class="cls-1" cx="130.57" cy="451.9" r="20.03"></circle>
    <circle class="cls-2" cx="130.57" cy="451.9" r="4.66"></circle>
    <circle class="cls-4" cx="130.57" cy="437.84" r="1.72"></circle>
    <circle class="cls-4" cx="142.74" cy="444.87" r="1.72"></circle>
    <circle class="cls-4" cx="142.74" cy="458.93" r="1.72"></circle>
    <circle class="cls-4" cx="130.57" cy="465.96" r="1.72"></circle>
    <circle class="cls-4" cx="118.39" cy="458.93" r="1.72"></circle>
    <circle class="cls-4" cx="118.39" cy="444.87" r="1.72"></circle>
    <path class="cls-1" d="M66.45,350.53,64.08,375a1.37,1.37,0,0,0,1.36,1.5h3.31v70.33H86.46c0-.15,0-.3,0-.46a44.06,44.06,0,0,1,20.39-37.14h47.38a44.06,44.06,0,0,1,20.39,37.14c0,.16,0,.31,0,.46h12.55V350.53Z"></path>
    <path class="cls-5" d="M68.75,411.11H89.56l12.86-12.85h45a10.85,10.85,0,0,0,10.85-10.85h0a10.85,10.85,0,0,0-10.85-10.85H68.75"></path>
    <rect class="cls-2" x="57.7" y="441.75" width="28.83" height="10.16"></rect>
    <line class="cls-3" x1="66.45" y1="350.53" x2="79.86" y2="264.31"></line>
    <polygon class="cls-1" points="81.44 253.96 187.14 253.96 187.14 350.53 66.45 350.53 81.44 253.96"></polygon>
    <path class="cls-6" d="M78.07,331.15l9.41-60.62a9.13,9.13,0,0,1,9-7.73h73.27a9.14,9.14,0,0,1,9.14,9.13v60.63a9.14,9.14,0,0,1-9.14,9.13H87.1A9.14,9.14,0,0,1,78.07,331.15Z"></path>
    <rect class="cls-6" x="166.42" y="404.39" width="12.49" height="3.95" rx="1.98"></rect>
    <rect class="cls-1" x="187.14" y="253.96" width="5.8" height="192.86"></rect>
    <rect class="cls-2" x="456.77" y="253.96" width="5.8" height="134.57"></rect>
    <path class="cls-1" d="M192.94,456.08V439.81h-5.8V455.7a12.66,12.66,0,0,0,12.66,12.66h39.31a5.8,5.8,0,0,0,5.8-5.8h-45.5A6.48,6.48,0,0,1,192.94,456.08Z"></path>
    <rect class="cls-1" x="330.76" y="401.5" width="4.77" height="61.06"></rect>
    <polygon class="cls-1" points="335.53 398.68 441.19 398.68 441.19 453.92 429.83 453.92 429.83 428.69 405.7 407.78 365.18 407.78 346.89 428.99 335.53 428.99 335.53 398.68"></polygon>
    <circle class="cls-2" cx="385.61" cy="451.9" r="39.15"></circle>
    <circle class="cls-2" cx="385.61" cy="451.9" r="24.54"></circle>
    <circle class="cls-1" cx="385.61" cy="451.9" r="20.03"></circle>
    <circle class="cls-2" cx="385.61" cy="451.9" r="4.66"></circle>
    <circle class="cls-4" cx="385.61" cy="437.84" r="1.72"></circle>
    <circle class="cls-4" cx="397.78" cy="444.87" r="1.72"></circle>
    <circle class="cls-4" cx="397.78" cy="458.93" r="1.72"></circle>
    <circle class="cls-4" cx="385.61" cy="465.96" r="1.72"></circle>
    <circle class="cls-4" cx="373.43" cy="458.93" r="1.72"></circle>
    <circle class="cls-4" cx="373.43" cy="444.87" r="1.72"></circle>
    <rect class="cls-1" x="233.37" y="388.54" width="238.98" height="12.96"></rect>
    <rect class="cls-2" x="192.94" y="414.9" width="43.03" height="5.21"></rect>
    <polygon class="cls-1" points="330.76 401.5 235.97 401.5 235.97 420.11 192.94 420.11 192.94 439.81 242.89 439.81 242.89 439.67 330.76 439.67 330.76 401.5"></polygon>
    <rect class="cls-1" x="441.19" y="420.87" width="99.31" height="14.98"></rect>
    <rect class="cls-1" x="531.09" y="420.87" width="11.2" height="21.3"></rect>
    <rect class="cls-3" x="471.73" y="350.75" width="59.36" height="70.12"></rect>
    <rect class="cls-3" x="471.73" y="280.27" width="59.36" height="70.12"></rect>
    <rect class="cls-3" x="471.73" y="365.58" width="23.42" height="9.38"></rect>
    <rect class="cls-3" x="471.73" y="396.65" width="23.42" height="9.38"></rect>
    <rect class="cls-3" x="470.19" y="277.6" width="62.45" height="6.64"></rect>
    <path class="cls-1" d="M187.14,229.12C121,229.12,83.52,240.35,78,244.55a3.67,3.67,0,0,0-2.24,3.38v2.38A3.64,3.64,0,0,0,79.36,254H531.09V238.25C345.88,226.81,187.14,229.12,187.14,229.12Z"></path>
    <polygon class="cls-2" points="477.79 260.1 441.55 260.1 436.01 253.96 483.33 253.96 477.79 260.1"></polygon>
    <rect class="cls-3" x="284.39" y="344.85" width="12.37" height="6.31" transform="translate(638.58 57.43) rotate(90)"></rect>
    <rect class="cls-3" x="283.37" y="333.63" width="14.38" height="14.38" transform="translate(581.12 681.64) rotate(-180)"></rect>
    <rect class="cls-1" x="285.27" y="326.83" width="10.6" height="2.1" transform="translate(581.15 655.76) rotate(-180)"></rect>
    <line class="cls-1" x1="290.58" y1="328.5" x2="290.58" y2="333.63"></line>
    <rect class="cls-3" x="275.48" y="354.68" width="30.15" height="33.46" transform="translate(581.12 742.81) rotate(-180)"></rect>
    <rect class="cls-6" x="275.48" y="363.7" width="30.15" height="15.41" transform="translate(581.12 742.81) rotate(-180)"></rect>
    <circle class="cls-7" cx="290.58" cy="340.72" r="1.97"></circle>
    <line class="cls-7" x1="290.58" y1="340.72" x2="290.58" y2="347.27"></line>
    <rect class="cls-2" x="249.54" y="344.85" width="12.37" height="6.31" transform="translate(603.74 92.28) rotate(90)"></rect>
    <rect class="cls-2" x="248.52" y="333.63" width="14.38" height="14.38" transform="translate(511.42 681.64) rotate(-180)"></rect>
    <rect class="cls-1" x="250.43" y="321.19" width="10.6" height="2.1" transform="translate(511.46 644.48) rotate(-180)"></rect>
    <line class="cls-1" x1="255.73" y1="323.29" x2="255.73" y2="333.63"></line>
    <rect class="cls-2" x="240.64" y="354.68" width="30.15" height="33.46" transform="translate(511.42 742.81) rotate(-180)"></rect>
    <rect class="cls-6" x="240.64" y="363.7" width="30.15" height="15.41" transform="translate(511.42 742.81) rotate(-180)"></rect>
    <circle class="cls-7" cx="255.73" cy="340.72" r="1.97"></circle>
    <line class="cls-7" x1="255.73" y1="340.72" x2="255.73" y2="347.27"></line>
    <rect class="cls-3" x="369.89" y="334.07" width="13.38" height="13.38" rx="6.69"></rect>
    <rect class="cls-3" x="356.51" y="333.51" width="13.38" height="13.38" rx="6.69"></rect>
    <rect class="cls-3" x="380.18" y="336.95" width="13.38" height="13.38" rx="6.69"></rect>
    <rect class="cls-3" x="347.4" y="340.2" width="13.38" height="13.38" rx="6.69"></rect>
    <rect class="cls-3" x="349.7" y="350.09" width="13.38" height="13.38" rx="6.69"></rect>
    <rect class="cls-3" x="359.17" y="355.19" width="13.38" height="13.38" rx="6.69"></rect>
    <rect class="cls-3" x="360.45" y="342.63" width="13.38" height="13.38" rx="6.69"></rect>
    <rect class="cls-3" x="371.62" y="347.67" width="13.38" height="13.38" rx="6.69"></rect>
    <rect class="cls-3" x="371.62" y="354.35" width="13.38" height="13.38" rx="6.69"></rect>
    <rect class="cls-3" x="380.53" y="353.58" width="13.38" height="13.38" rx="6.69"></rect>
    <polygon class="cls-2" points="345.87 341.97 345.87 348.17 345.87 370.25 352.61 370.25 352.61 348.17 349.24 341.97 345.87 341.97"></polygon>
    <polygon class="cls-2" points="391.92 341.97 388.55 348.17 388.55 370.25 395.29 370.25 395.29 348.17 395.29 341.97 391.92 341.97"></polygon>
    <rect class="cls-2" x="345.87" y="361.58" width="49.42" height="8.66"></rect>
    <rect class="cls-2" x="345.87" y="351.68" width="49.42" height="6.73"></rect>
    <polygon class="cls-1" points="345.87 360.26 345.87 366.47 345.87 388.55 352.61 388.55 352.61 366.47 349.24 360.26 345.87 360.26"></polygon>
    <polygon class="cls-1" points="391.92 360.26 388.55 366.47 388.55 388.55 395.29 388.55 395.29 366.47 395.29 360.26 391.92 360.26"></polygon>
    <rect class="cls-1" x="345.87" y="379.88" width="49.42" height="8.66"></rect>
    <rect class="cls-1" x="345.87" y="369.97" width="49.42" height="6.73"></rect>
    <rect class="cls-3" x="315.02" y="368.68" width="36.53" height="16.13"></rect>
    <path class="cls-3" d="M336.42,341.94h.44a8.31,8.31,0,0,1,8.31,8.31v0a0,0,0,0,1,0,0h-.44a8.31,8.31,0,0,1-8.31-8.31v0a0,0,0,0,1,0,0Z" transform="matrix(0.3, 0.95, -0.95, 0.3, 568.03, -83.19)"></path>
    <path class="cls-2" d="M340,350.27a13.78,13.78,0,0,1,5.76-.1"></path>
    <path class="cls-2" d="M337.15,358.47l3.22-5.15a2.81,2.81,0,0,0-.43-3.5h0a2.8,2.8,0,0,0-3.58-.24l-5.08,3.69a3.75,3.75,0,0,0-2.09,2.7,4.31,4.31,0,0,0,1.1,4.08,4.2,4.2,0,0,0,5.95-.13A4.27,4.27,0,0,0,337.15,358.47Z"></path>
    <path class="cls-3" d="M348,347h.44a8.31,8.31,0,0,1,8.31,8.31v0a0,0,0,0,1,0,0h-.44A8.31,8.31,0,0,1,348,347v0a0,0,0,0,1,0,0Z" transform="translate(747.12 48.42) rotate(97.62)"></path>
    <path class="cls-2" d="M349.9,354.57a13.73,13.73,0,0,1,5.25,2.36"></path>
    <path class="cls-2" d="M343.81,360.77l5.11-3.29a2.81,2.81,0,0,0,1.1-3.35h0a2.79,2.79,0,0,0-3.13-1.74l-6.18,1.17a3.77,3.77,0,0,0-3,1.57,4.28,4.28,0,0,0-.74,4.16,4.22,4.22,0,0,0,5.44,2.41A4.16,4.16,0,0,0,343.81,360.77Z"></path>
    <path class="cls-3" d="M317.45,344.15h.44a8.31,8.31,0,0,1,8.31,8.31v0a0,0,0,0,1,0,0h-.44a8.31,8.31,0,0,1-8.31-8.31v0A0,0,0,0,1,317.45,344.15Z" transform="translate(246.27 -119.86) rotate(33.57)"></path>
    <path class="cls-2" d="M323.83,352a13.92,13.92,0,0,1,4.43-3.69"></path>
    <path class="cls-2" d="M326.75,360.22l-.73-6a2.8,2.8,0,0,0-2.53-2.45h0a2.82,2.82,0,0,0-2.94,2.05l-1.64,6.07a3.76,3.76,0,0,0,.08,3.42,4.31,4.31,0,0,0,3.41,2.49,4.22,4.22,0,0,0,4.55-3.84A4.07,4.07,0,0,0,326.75,360.22Z"></path>
    <path class="cls-3" d="M350.5,356.81h.44a8.31,8.31,0,0,1,8.31,8.31v0a0,0,0,0,1,0,0h-.44a8.31,8.31,0,0,1-8.31-8.31v0A0,0,0,0,1,350.5,356.81Z" transform="translate(842.8 226.22) rotate(119.08)"></path>
    <path class="cls-2" d="M351.31,363.26a13.75,13.75,0,0,1,4,4.12"></path>
    <path class="cls-2" d="M343.38,366.81l6-1.2a2.79,2.79,0,0,0,2.24-2.71h0a2.79,2.79,0,0,0-2.27-2.77L343.13,359a3.73,3.73,0,0,0-3.4.34,4.27,4.27,0,0,0-2.21,3.6,4.21,4.21,0,0,0,4.18,4.24A4.27,4.27,0,0,0,343.38,366.81Z"></path>
    <path class="cls-3" d="M303.8,349.95h.44a8.31,8.31,0,0,1,8.31,8.31v0a0,0,0,0,1,0,0h-.44a8.31,8.31,0,0,1-8.31-8.31v0A0,0,0,0,1,303.8,349.95Z" transform="translate(-49.7 50.31) rotate(-8.64)"></path>
    <path class="cls-2" d="M312.17,355.52a13.93,13.93,0,0,1,.8-5.71"></path>
    <path class="cls-2" d="M319.83,359.62l-4.59-4a2.8,2.8,0,0,0-3.52-.12h0a2.8,2.8,0,0,0-.8,3.5l2.86,5.6a3.76,3.76,0,0,0,2.35,2.48,4.31,4.31,0,0,0,4.2-.46,4.22,4.22,0,0,0,.8-5.9A4.31,4.31,0,0,0,319.83,359.62Z"></path>
    <path class="cls-3" d="M317.41,360.88h.44a8.31,8.31,0,0,1,8.31,8.31v0a0,0,0,0,1,0,0h-.44a8.31,8.31,0,0,1-8.31-8.31v0A0,0,0,0,1,317.41,360.88Z" transform="translate(-153.59 469.08) rotate(-60.95)"></path>
    <path class="cls-2" d="M325.35,362.74a13.9,13.9,0,0,1-4-4.11"></path>
    <path class="cls-2" d="M333.28,359.19l-6,1.2a2.79,2.79,0,0,0-2.24,2.72h0a2.79,2.79,0,0,0,2.27,2.76l6.18,1.16a3.76,3.76,0,0,0,3.4-.34,4.27,4.27,0,0,0,2.21-3.6,4.2,4.2,0,0,0-5.86-3.9Z"></path>
    <path class="cls-3" d="M327.09,345.43h.44a8.31,8.31,0,0,1,8.31,8.31v0a0,0,0,0,1,0,0h-.44a8.31,8.31,0,0,1-8.31-8.31v0A0,0,0,0,1,327.09,345.43Z" transform="translate(400.35 -127.21) rotate(51.7)"></path>
    <path class="cls-2" d="M332.44,362.44l1.19-6a2.79,2.79,0,0,0-1.64-3.11h0a2.79,2.79,0,0,0-3.43,1l-3.45,5.26a3.73,3.73,0,0,0-1,3.27,4.31,4.31,0,0,0,2.47,3.43,4.22,4.22,0,0,0,5.52-2.24A4.16,4.16,0,0,0,332.44,362.44Z"></path>
    <rect class="cls-3" x="310.58" y="384" width="44.2" height="4.54"></rect>
    <rect class="cls-3" x="310.58" y="364.14" width="44.2" height="4.54"></rect>
    <line class="cls-1" x1="342.23" y1="368.68" x2="342.23" y2="384"></line>
    <line class="cls-1" x1="332.68" y1="368.68" x2="332.68" y2="384"></line>
    <line class="cls-1" x1="323.14" y1="368.68" x2="323.14" y2="384"></line>
    <rect class="cls-3" x="416.95" y="351.95" width="33.7" height="5.29"></rect>
    <polygon class="cls-8" points="449.17 351.95 418.43 351.95 421.63 346.66 445.96 346.66 449.17 351.95"></polygon>
    <polygon class="cls-8" points="439.88 357.24 439.88 361.46 427.71 361.46 427.71 357.24 418.43 357.24 423.24 388.21 444.36 388.21 449.17 357.24 439.88 357.24"></polygon>
    <rect class="cls-3" x="427.71" y="357.24" width="12.17" height="4.22"></rect>
    <rect class="cls-3" x="383.25" y="351.95" width="33.7" height="5.29"></rect>
    <polygon class="cls-8" points="415.47 351.95 384.73 351.95 387.94 346.66 412.26 346.66 415.47 351.95"></polygon>
    <polygon class="cls-8" points="406.18 357.24 406.18 361.46 394.02 361.46 394.02 357.24 384.73 357.24 389.54 388.21 410.66 388.21 415.47 357.24 406.18 357.24"></polygon>
    <rect class="cls-3" x="394.02" y="357.24" width="12.17" height="4.22"></rect>
    <polygon class="cls-3" points="135.23 341.69 135.23 341.69 135.23 341.69 135.23 341.69"></polygon>
    <path class="cls-3" d="M78.58,327.88l-.51,3.27a9.14,9.14,0,0,0,6.56,10.19l50.6.35a67.14,67.14,0,0,0-40.8-13.81Z"></path>
    <rect class="cls-7" x="108.81" y="311.07" width="43.51" height="3.82" rx="1.91" transform="translate(146.61 -25.76) rotate(25.36)"></rect>
    <line class="cls-5" x1="129.15" y1="314.58" x2="126.31" y2="335.8"></line>
    <path class="cls-7" d="M93.34,344.82h-3a5.25,5.25,0,0,1-5.25-5.25V320.46a5.25,5.25,0,0,1,5.25-5.25h3Z"></path>
    <path class="cls-5" d="M79.55,321.59S78,329,83.87,329"></path>
    <path class="cls-7" d="M115.12,273.44h2.05a0,0,0,0,1,0,0v10.33a0,0,0,0,1,0,0h-2.05a4.94,4.94,0,0,1-4.94-4.94v-.44A4.94,4.94,0,0,1,115.12,273.44Z"></path>
    <path class="cls-5" d="M105.69,262.8v10.64a4.88,4.88,0,0,0,3.64,4.72l.84.22"></path>
    <text class="cls-9" transform="translate(85.12 368.14)">WW<tspan class="cls-10" x="12.96" y="0">W</tspan><tspan class="cls-11" x="18.6" y="0">.</tspan><tspan class="cls-12" x="20.8" y="0">T</tspan><tspan x="24.91" y="0">OPUPT</tspan><tspan class="cls-13" x="48.17" y="0">R</tspan><tspan x="52.97" y="0">UCK.COM</tspan></text>
    <text class="cls-14" transform="translate(206.05 246.86)">G<tspan class="cls-15" x="6.08" y="0">R</tspan><tspan x="12.25" y="0">OCERIES</tspan><tspan class="cls-16" x="49.69" y="0"> </tspan><tspan x="52.14" y="0">WITHOU</tspan><tspan class="cls-17" x="87.7" y="0">T</tspan><tspan x="93.09" y="0"> </tspan><tspan class="cls-18" x="95.76" y="0">P</tspan><tspan class="cls-16" x="101.08" y="0">A</tspan><tspan x="107.04" y="0">CK</tspan><tspan class="cls-19" x="119.05" y="0">A</tspan><tspan class="cls-20" x="125" y="0" xml:space="preserve">GING  </tspan></text>
    <path class="cls-4" d="M79.23,395.08v1.24c0,.31,0,.61,0,.92a.5.5,0,0,1-.5.53c-.23,0-.46,0-.69,0-.43,0-.58-.14-.58-.58v-6.76c0-.42.2-.61.62-.61.72,0,1.44,0,2.17,0a1.79,1.79,0,0,1,1.84,1.69,9.18,9.18,0,0,1,.06,1.39,1.69,1.69,0,0,1-.87,1.48.55.55,0,0,0-.2.38,2.15,2.15,0,0,0,.09.61.44.44,0,0,0,.56.34c.37-.05.5,0,.51.42s0,.83,0,1.24a.39.39,0,0,1-.4.43,1.46,1.46,0,0,1-1.54-.71c-.19-.35-.28-.75-.44-1.12s-.29-.64-.43-1Zm0-2.67a2.8,2.8,0,0,0,0,.58c0,.15.13.39.21.4a.94.94,0,0,0,.63-.14,1.7,1.7,0,0,0,0-1.73.69.69,0,0,0-.56-.12c-.1,0-.2.24-.23.39A3.2,3.2,0,0,0,79.21,392.41Z"></path>
    <path class="cls-4" d="M77.33,385c.06-.81.06-1.64.18-2.45a1.66,1.66,0,0,1,1.64-1.51,5.37,5.37,0,0,1,1.06,0A1.77,1.77,0,0,1,82,382.93c0,1.22.07,2.45.08,3.67a4.32,4.32,0,0,1-.11.88,1.73,1.73,0,0,1-1.68,1.57,4.72,4.72,0,0,1-1.45-.08,1.78,1.78,0,0,1-1.39-1.84c0-.35,0-.71-.05-1.06s0-.69,0-1Zm2.89,0c0-.63,0-1.27,0-1.91,0-.32-.15-.5-.49-.49s-.54.12-.54.48c0,1.27,0,2.53,0,3.79,0,.43.18.6.53.6s.49-.19.49-.63C80.23,386.26,80.23,385.65,80.22,385Z"></path>
    <path class="cls-4" d="M91.93,384.55v2.76A1.53,1.53,0,0,1,90.41,389a7.78,7.78,0,0,1-1.6,0,1.47,1.47,0,0,1-1.48-1.58c0-1.92,0-3.85,0-5.77,0-.42.2-.58.63-.59,1.09,0,1.17.06,1.17,1.15,0,1.57,0,3.14,0,4.71,0,.46.14.57.6.56a.35.35,0,0,0,.39-.35,4.36,4.36,0,0,0,0-.51c0-1.63,0-3.26,0-4.89,0-.5.18-.66.67-.67,1.06,0,1.11,0,1.11,1.11v2.36Z"></path>
    <path class="cls-4" d="M87.14,393.31c0,.89,0,1.77,0,2.65a1.59,1.59,0,0,1-1.72,1.83,8.15,8.15,0,0,1-1.21,0,1.59,1.59,0,0,1-1.69-1.7c0-1.88,0-3.76,0-5.63,0-.44.21-.61.64-.63,1.07-.06,1.18.05,1.18,1.13,0,1.59,0,3.19,0,4.78a.43.43,0,0,0,.41.5c.37.06.57-.07.58-.45,0-.7,0-1.4,0-2.1,0-1.09,0-2.18,0-3.27,0-.43.16-.57.58-.59,1.1-.07,1.2,0,1.21,1.13v2.35Z"></path>
    <path class="cls-4" d="M93.31,392.68a5.25,5.25,0,0,0,.31-.63c.2-.55.39-1.1.57-1.66a.71.71,0,0,1,.82-.57c.21,0,.42,0,.62,0,.48,0,.6.17.42.63s-.48,1-.72,1.53a4,4,0,0,0-.59,1.35,4.09,4.09,0,0,0,.52,1.36c.31.78.61,1.57.89,2.36.19.53,0,.7-.5.72-1.18,0-1.18,0-1.53-1.11-.19-.61-.38-1.23-.59-1.85a2.82,2.82,0,0,0-.23-.41l-.12,0v.38c0,.75,0,1.5,0,2.24,0,.53-.18.7-.72.71h-.18c-.75,0-.9-.13-.9-.87,0-2.07,0-4.15,0-6.22,0-.29-.05-.69.28-.77a2.93,2.93,0,0,1,1.25,0c.12,0,.25.37.26.58,0,.68,0,1.37,0,2.06a.14.14,0,0,0,0,.06Z"></path>
    <path class="cls-4" d="M82.36,385v-2.83a4.77,4.77,0,0,1,0-.66.46.46,0,0,1,.5-.44c.86,0,1.72,0,2.58,0a1.77,1.77,0,0,1,1.5,1.55,5.53,5.53,0,0,1-.08,2.36,1.57,1.57,0,0,1-1.61,1.3,6.57,6.57,0,0,1-.77,0c-.26,0-.34.08-.34.34,0,.63,0,1.27,0,1.9,0,.36-.25.47-.57.48-1.12,0-1.21,0-1.21-1.18Zm1.84-1.33a3.37,3.37,0,0,0,0,.55c0,.15.11.41.17.41a1.2,1.2,0,0,0,.69-.16,1.77,1.77,0,0,0-.09-1.7.72.72,0,0,0-.56-.12c-.09,0-.18.25-.21.4A4.28,4.28,0,0,0,84.2,383.69Z"></path>
    <path class="cls-4" d="M92.3,385v-3.24c0-.5.17-.68.68-.68s1.3,0,2,0a1.8,1.8,0,0,1,2,1.68,4.73,4.73,0,0,1-.1,2.21,1.57,1.57,0,0,1-1.61,1.33,6.57,6.57,0,0,1-.77,0c-.25,0-.35.08-.35.34,0,.6,0,1.2,0,1.8,0,.41-.19.57-.6.58-1.1,0-1.17,0-1.17-1.12Zm1.78-1.29h0a2.9,2.9,0,0,0,0,.51c0,.16.12.39.23.43s.59.1.69-.22a1.84,1.84,0,0,0-.1-1.62c-.08-.13-.36-.18-.54-.16s-.24.22-.26.36A3.26,3.26,0,0,0,94.08,383.72Z"></path>
    <path class="cls-4" d="M87.42,393.72a5.44,5.44,0,0,1,.37-2.22,2.9,2.9,0,0,1,2.9-1.73c.23,0,.36.13.36.37s0,.64,0,1a.41.41,0,0,1-.25.28c-.37.05-.83-.1-1.05.34a2.59,2.59,0,0,0-.34,1.06,14.49,14.49,0,0,0,.13,2.55c.1.67.37.8,1,.8.3,0,.46.14.46.44s0,.54,0,.81-.15.43-.44.45A2.74,2.74,0,0,1,87.82,396a7.64,7.64,0,0,1-.4-2.3Z"></path>
    <path class="cls-4" d="M74.3,385.74c0-.87,0-1.74,0-2.61,0-.33-.11-.46-.45-.44-.56,0-.63-.05-.63-.63,0-1,0-1,1-1h2.43c.43,0,.52.1.52.52,0,.2,0,.41,0,.62s-.16.47-.49.47c-.57,0-.57,0-.57.56,0,1.66,0,3.31,0,5,0,.64-.16.8-.8.8H75c-.47,0-.64-.16-.65-.64,0-.88,0-1.77,0-2.65Z"></path>
    <path class="cls-4" d="M76.1,394.45c0,.86,0,1.72,0,2.58,0,.57-.18.74-.75.75h-.44c-.4,0-.58-.18-.58-.6,0-1.17,0-2.35,0-3.53,0-.6,0-1.2,0-1.8,0-.27-.06-.42-.4-.4-.59,0-.68-.07-.68-.66,0-1,0-1,1-1h2.43c.45,0,.53.09.53.54v.52c0,.48-.07.55-.54.56s-.51,0-.51.5v2.5Z"></path>
  </g>
</svg>
