<?xml version="1.0" encoding="UTF-8"?>
<svg xmlns="http://www.w3.org/2000/svg" viewBox="0 0 600 600">
  <defs>
    <style>.cls-1,.cls-5,.cls-6{fill:#ffdc2d;}.cls-1,.cls-10,.cls-11,.cls-12,.cls-13,.cls-3,.cls-4,.cls-5,.cls-8,.cls-9{stroke:#1c19a8;stroke-width:2.82px;}.cls-1,.cls-10,.cls-11,.cls-12,.cls-13,.cls-3,.cls-4,.cls-5,.cls-9{stroke-linejoin:round;}.cls-13,.cls-2{fill:#fff;}.cls-12,.cls-3{fill:#00ab81;}.cls-4,.cls-9{fill:#fb715d;}.cls-12,.cls-4,.cls-5{fill-rule:evenodd;}.cls-10,.cls-7,.cls-8{fill:#1c19a8;}.cls-8{stroke-miterlimit:10;}.cls-11{fill:none;}</style>
  </defs>
  <g id="Layer_1" data-name="Layer 1">
    <polygon class="cls-1" points="104.14 221.59 165.48 221.59 165.48 158.35 104.14 221.59"></polygon>
    <rect class="cls-2" x="100.64" y="222.12" width="380.84" height="270.14"></rect>
    <rect class="cls-3" x="479.14" y="215.53" width="9.43" height="275.82"></rect>
    <rect class="cls-3" x="99.2" y="215.6" width="9.43" height="275.75"></rect>
    <polygon class="cls-4" points="372.95 377.69 352.51 377.69 352.51 383.85 352.51 407.25 372.95 407.25 372.95 377.69"></polygon>
    <line class="cls-1" x1="351.93" y1="385.06" x2="372.96" y2="385.06"></line>
    <line class="cls-1" x1="351.93" y1="388.97" x2="372.96" y2="388.97"></line>
    <polygon class="cls-4" points="352.55 377.69 332.11 377.69 332.11 383.85 332.11 407.25 352.55 407.25 352.55 377.69"></polygon>
    <line class="cls-1" x1="331.53" y1="385.06" x2="352.55" y2="385.06"></line>
    <line class="cls-1" x1="331.53" y1="388.97" x2="352.55" y2="388.97"></line>
    <rect class="cls-1" x="432.28" y="452.09" width="28.82" height="4.52"></rect>
    <polygon class="cls-5" points="459.84 452.09 433.55 452.09 436.29 447.57 457.1 447.57 459.84 452.09"></polygon>
    <polygon class="cls-5" points="451.89 456.62 451.89 460.23 441.49 460.23 441.49 456.62 433.55 456.62 437.66 483.1 455.72 483.1 459.84 456.62 451.89 456.62"></polygon>
    <rect class="cls-1" x="441.49" y="456.62" width="10.41" height="3.61"></rect>
    <rect class="cls-3" x="327.69" y="304.09" width="47.28" height="14.74"></rect>
    <rect class="cls-6" x="324.98" y="329.87" width="13.1" height="14.74"></rect>
    <rect class="cls-6" x="345.22" y="329.87" width="13.1" height="14.74"></rect>
    <rect class="cls-7" x="315.19" y="435.62" width="72.27" height="4.86"></rect>
    <rect class="cls-7" x="315.19" y="343.81" width="72.27" height="4.86"></rect>
    <rect class="cls-7" x="315.19" y="318.34" width="72.27" height="4.86"></rect>
    <path class="cls-7" d="M339.28,345.81H323.77V328.66h15.51Zm-13.1-2.41h10.7V331.07h-10.7Z"></path>
    <path class="cls-7" d="M359.53,345.81H344V328.66h15.52Zm-13.11-2.41h10.7V331.07h-10.7Z"></path>
    <line class="cls-8" x1="387.46" y1="483.37" x2="387.46" y2="318.34"></line>
    <line class="cls-8" x1="315.19" y1="483.37" x2="315.19" y2="318.34"></line>
    <polygon class="cls-5" points="342.04 406.82 321.6 406.82 321.6 412.99 321.6 436.39 342.04 436.39 342.04 406.82"></polygon>
    <line class="cls-1" x1="321.01" y1="414.19" x2="342.04" y2="414.19"></line>
    <line class="cls-1" x1="321.01" y1="418.1" x2="342.04" y2="418.1"></line>
    <polygon class="cls-5" points="362.44 406.82 342 406.82 342 412.99 342 436.39 362.44 436.39 362.44 406.82"></polygon>
    <line class="cls-1" x1="341.42" y1="414.19" x2="362.44" y2="414.19"></line>
    <line class="cls-1" x1="341.42" y1="418.1" x2="362.44" y2="418.1"></line>
    <polygon class="cls-5" points="382.79 406.82 362.35 406.82 362.35 412.99 362.35 436.39 382.79 436.39 382.79 406.82"></polygon>
    <line class="cls-1" x1="361.76" y1="414.19" x2="382.79" y2="414.19"></line>
    <line class="cls-1" x1="361.76" y1="418.1" x2="382.79" y2="418.1"></line>
    <polygon class="cls-4" points="451.27 377.69 430.82 377.69 430.82 383.85 430.82 407.25 451.27 407.25 451.27 377.69"></polygon>
    <line class="cls-1" x1="430.24" y1="385.06" x2="451.27" y2="385.06"></line>
    <line class="cls-1" x1="430.24" y1="388.97" x2="451.27" y2="388.97"></line>
    <polygon class="cls-4" points="430.87 377.69 410.42 377.69 410.42 383.85 410.42 407.25 430.87 407.25 430.87 377.69"></polygon>
    <line class="cls-1" x1="409.84" y1="385.06" x2="430.87" y2="385.06"></line>
    <line class="cls-1" x1="409.84" y1="388.97" x2="430.87" y2="388.97"></line>
    <rect class="cls-3" x="406" y="304.09" width="47.28" height="14.74"></rect>
    <rect class="cls-6" x="403.29" y="329.87" width="13.1" height="14.74"></rect>
    <rect class="cls-6" x="423.53" y="329.87" width="13.1" height="14.74"></rect>
    <rect class="cls-7" x="393.5" y="435.62" width="72.27" height="4.86"></rect>
    <rect class="cls-7" x="393.5" y="343.81" width="72.27" height="4.86"></rect>
    <rect class="cls-7" x="393.5" y="318.34" width="72.27" height="4.86"></rect>
    <path class="cls-7" d="M417.59,345.81H402.08V328.66h15.51Zm-13.1-2.41h10.7V331.07h-10.7Z"></path>
    <path class="cls-7" d="M437.84,345.81H422.32V328.66h15.52Zm-13.11-2.41h10.7V331.07h-10.7Z"></path>
    <line class="cls-8" x1="465.77" y1="483.37" x2="465.77" y2="318.34"></line>
    <line class="cls-8" x1="393.5" y1="483.37" x2="393.5" y2="318.34"></line>
    <polygon class="cls-5" points="420.35 406.82 399.91 406.82 399.91 412.99 399.91 436.39 420.35 436.39 420.35 406.82"></polygon>
    <line class="cls-1" x1="399.33" y1="414.19" x2="420.35" y2="414.19"></line>
    <line class="cls-1" x1="399.33" y1="418.1" x2="420.35" y2="418.1"></line>
    <polygon class="cls-5" points="440.75 406.82 420.31 406.82 420.31 412.99 420.31 436.39 440.75 436.39 440.75 406.82"></polygon>
    <line class="cls-1" x1="419.73" y1="414.19" x2="440.75" y2="414.19"></line>
    <line class="cls-1" x1="419.73" y1="418.1" x2="440.75" y2="418.1"></line>
    <polygon class="cls-5" points="461.1 406.82 440.66 406.82 440.66 412.99 440.66 436.39 461.1 436.39 461.1 406.82"></polygon>
    <line class="cls-1" x1="440.07" y1="414.19" x2="461.1" y2="414.19"></line>
    <line class="cls-1" x1="440.07" y1="418.1" x2="461.1" y2="418.1"></line>
    <rect class="cls-9" x="107.86" y="483.43" width="371.44" height="7.92"></rect>
    <polygon class="cls-3" points="483.37 221.59 488.56 216.4 424.39 151.25 423.17 151 165.48 151 99.2 215.51 104.39 220.71 168.46 158.35 421.81 158.35 483.37 221.59"></polygon>
    <rect class="cls-3" x="165.48" y="151" width="8.79" height="72.68"></rect>
    <rect class="cls-3" x="248.75" y="151" width="8.79" height="72.68"></rect>
    <rect class="cls-3" x="332.01" y="151" width="8.79" height="72.68"></rect>
    <rect class="cls-3" x="415.28" y="151" width="8.79" height="72.68"></rect>
    <rect class="cls-1" x="174.27" y="158.35" width="74.47" height="68.16"></rect>
    <rect class="cls-1" x="257.54" y="158.35" width="74.47" height="68.16"></rect>
    <rect class="cls-1" x="340.81" y="158.35" width="74.47" height="68.16"></rect>
    <polygon class="cls-1" points="485.42 221.59 424.07 221.59 424.07 158.35 485.42 221.59"></polygon>
    <rect class="cls-3" x="99.2" y="215.53" width="389.37" height="12.12"></rect>
    <rect class="cls-3" x="99.2" y="227.82" width="389.37" height="30.2"></rect>
    <rect class="cls-3" x="94.42" y="446.23" width="20.01" height="45.12"></rect>
    <rect class="cls-3" x="473.84" y="446.23" width="20.01" height="45.12"></rect>
    <rect class="cls-10" x="235.59" y="314.04" width="5.85" height="169.07"></rect>
    <rect class="cls-1" x="134.81" y="363.9" width="100.78" height="12.54"></rect>
    <rect class="cls-1" x="134.81" y="417.14" width="100.78" height="12.54"></rect>
    <rect class="cls-1" x="134.81" y="473.41" width="100.78" height="9.51"></rect>
    <rect class="cls-1" x="134.81" y="314.06" width="100.78" height="9.14"></rect>
    <polygon class="cls-1" points="263.63 437.26 265.24 442.24 284.18 442.24 285.66 437.26 292.84 437.26 292.84 483.43 256.34 483.43 256.34 437.26 263.63 437.26"></polygon>
    <line class="cls-1" x1="292.84" y1="448.94" x2="256.1" y2="448.94"></line>
    <line class="cls-1" x1="292.84" y1="454.38" x2="256.1" y2="454.38"></line>
    <line class="cls-1" x1="260.1" y1="418.74" x2="260.1" y2="437.25"></line>
    <polygon class="cls-1" points="254.87 421.2 258.38 421.2 265.33 421.2 265.33 416.36 254.87 416.36 254.87 421.2"></polygon>
    <polyline class="cls-11" points="260.1 427.04 248.77 427.04 245.64 430.16"></polyline>
    <polygon class="cls-9" points="281.54 437.26 283.15 442.24 302.1 442.24 303.57 437.26 310.76 437.26 310.76 483.43 274.26 483.43 274.26 437.26 281.54 437.26"></polygon>
    <line class="cls-1" x1="310.76" y1="448.94" x2="274.02" y2="448.94"></line>
    <line class="cls-1" x1="310.76" y1="454.38" x2="274.02" y2="454.38"></line>
    <line class="cls-1" x1="278.01" y1="418.74" x2="278.01" y2="437.25"></line>
    <polygon class="cls-9" points="272.78 421.2 276.29 421.2 283.24 421.2 283.24 416.36 272.78 416.36 272.78 421.2"></polygon>
    <polyline class="cls-11" points="278.01 427.04 266.68 427.04 263.56 430.16"></polyline>
    <polygon class="cls-1" points="300.82 437.26 302.43 442.24 321.37 442.24 322.85 437.26 330.03 437.26 330.03 483.43 293.53 483.43 293.53 437.26 300.82 437.26"></polygon>
    <line class="cls-1" x1="330.03" y1="448.94" x2="293.3" y2="448.94"></line>
    <line class="cls-1" x1="330.03" y1="454.38" x2="293.3" y2="454.38"></line>
    <line class="cls-1" x1="297.29" y1="418.74" x2="297.29" y2="437.25"></line>
    <polygon class="cls-1" points="292.06 421.2 295.57 421.2 302.52 421.2 302.52 416.36 292.06 416.36 292.06 421.2"></polygon>
    <polyline class="cls-11" points="297.29 427.04 285.96 427.04 282.83 430.16"></polyline>
    <rect class="cls-10" x="129.76" y="314.04" width="5.85" height="169.07"></rect>
    <rect class="cls-3" x="173.22" y="390.57" width="24.71" height="3.88"></rect>
    <polygon class="cls-12" points="196.84 390.57 174.3 390.57 176.65 386.69 194.49 386.69 196.84 390.57"></polygon>
    <polygon class="cls-12" points="190.03 394.45 190.03 397.54 181.11 397.54 181.11 394.45 174.3 394.45 177.83 417.15 193.32 417.15 196.84 394.45 190.03 394.45"></polygon>
    <rect class="cls-3" x="181.11" y="394.45" width="8.92" height="3.1"></rect>
    <rect class="cls-9" x="142.68" y="390.57" width="24.71" height="3.88"></rect>
    <polygon class="cls-4" points="166.3 390.57 143.76 390.57 146.11 386.69 163.95 386.69 166.3 390.57"></polygon>
    <polygon class="cls-4" points="159.49 394.45 159.49 397.54 150.57 397.54 150.57 394.45 143.76 394.45 147.29 417.15 162.78 417.15 166.3 394.45 159.49 394.45"></polygon>
    <rect class="cls-9" x="150.57" y="394.45" width="8.92" height="3.1"></rect>
    <rect class="cls-9" x="203.76" y="390.57" width="24.71" height="3.88"></rect>
    <polygon class="cls-4" points="227.38 390.57 204.84 390.57 207.19 386.69 225.03 386.69 227.38 390.57"></polygon>
    <polygon class="cls-4" points="220.57 394.45 220.57 397.54 211.65 397.54 211.65 394.45 204.84 394.45 208.37 417.15 223.85 417.15 227.38 394.45 220.57 394.45"></polygon>
    <rect class="cls-9" x="211.65" y="394.45" width="8.92" height="3.1"></rect>
  </g>
  <g id="Layer_2" data-name="Layer 2">
    <rect class="cls-3" x="180.57" y="328.14" width="10.07" height="5.13" transform="translate(516.32 145.1) rotate(90)"></rect>
    <rect class="cls-3" x="179.74" y="319" width="11.71" height="11.71" transform="translate(371.19 649.71) rotate(-180)"></rect>
    <rect class="cls-9" x="181.29" y="313.47" width="8.63" height="1.71" transform="translate(371.22 628.64) rotate(-180)"></rect>
    <line class="cls-9" x1="185.61" y1="314.83" x2="185.61" y2="319"></line>
    <rect class="cls-3" x="173.32" y="336.14" width="24.55" height="27.24" transform="translate(371.19 699.52) rotate(-180)"></rect>
    <rect class="cls-13" x="173.32" y="343.49" width="24.55" height="12.55" transform="translate(371.19 699.52) rotate(-180)"></rect>
    <circle class="cls-10" cx="185.61" cy="324.78" r="1.6"></circle>
    <line class="cls-10" x1="185.61" y1="324.78" x2="185.61" y2="330.11"></line>
    <rect class="cls-1" x="149.83" y="328.14" width="10.07" height="5.13" transform="translate(485.58 175.84) rotate(90)"></rect>
    <rect class="cls-1" x="149" y="319" width="11.71" height="11.71" transform="translate(309.71 649.71) rotate(-180)"></rect>
    <rect class="cls-9" x="150.55" y="308.88" width="8.63" height="1.71" transform="translate(309.74 619.47) rotate(-180)"></rect>
    <line class="cls-9" x1="154.87" y1="310.59" x2="154.87" y2="319"></line>
    <rect class="cls-1" x="142.58" y="336.14" width="24.55" height="27.24" transform="translate(309.71 699.52) rotate(-180)"></rect>
    <rect class="cls-13" x="142.58" y="343.49" width="24.55" height="12.55" transform="translate(309.71 699.52) rotate(-180)"></rect>
    <circle class="cls-10" cx="154.87" cy="324.78" r="1.6"></circle>
    <line class="cls-10" x1="154.87" y1="324.78" x2="154.87" y2="330.11"></line>
    <rect class="cls-9" x="211.31" y="328.14" width="10.07" height="5.13" transform="translate(547.05 114.37) rotate(90)"></rect>
    <rect class="cls-9" x="210.48" y="319" width="11.71" height="11.71" transform="translate(432.66 649.71) rotate(-180)"></rect>
    <rect class="cls-9" x="212.03" y="308.88" width="8.63" height="1.71" transform="translate(432.69 619.47) rotate(-180)"></rect>
    <line class="cls-9" x1="216.34" y1="310.59" x2="216.34" y2="319"></line>
    <rect class="cls-9" x="204.06" y="336.14" width="24.55" height="27.24" transform="translate(432.66 699.52) rotate(-180)"></rect>
    <rect class="cls-13" x="204.06" y="343.49" width="24.55" height="12.55" transform="translate(432.66 699.52) rotate(-180)"></rect>
    <circle class="cls-10" cx="216.34" cy="324.78" r="1.6"></circle>
    <line class="cls-10" x1="216.34" y1="324.78" x2="216.34" y2="330.11"></line>
    <rect class="cls-3" x="180.57" y="437.65" width="10.07" height="5.13" transform="translate(625.83 254.61) rotate(90)"></rect>
    <rect class="cls-3" x="179.74" y="428.51" width="11.71" height="11.71" transform="translate(371.19 868.74) rotate(-180)"></rect>
    <rect class="cls-9" x="181.29" y="422.98" width="8.63" height="1.71" transform="translate(371.22 847.66) rotate(-180)"></rect>
    <line class="cls-9" x1="185.61" y1="424.34" x2="185.61" y2="428.51"></line>
    <rect class="cls-3" x="173.32" y="445.65" width="24.55" height="27.24" transform="translate(371.19 918.54) rotate(-180)"></rect>
    <rect class="cls-13" x="173.32" y="453" width="24.55" height="12.55" transform="translate(371.19 918.54) rotate(-180)"></rect>
    <circle class="cls-10" cx="185.61" cy="434.29" r="1.6"></circle>
    <line class="cls-10" x1="185.61" y1="434.29" x2="185.61" y2="439.62"></line>
    <rect class="cls-1" x="149.83" y="437.65" width="10.07" height="5.13" transform="translate(595.09 285.35) rotate(90)"></rect>
    <rect class="cls-1" x="149" y="428.51" width="11.71" height="11.71" transform="translate(309.71 868.74) rotate(-180)"></rect>
    <rect class="cls-9" x="150.55" y="418.39" width="8.63" height="1.71" transform="translate(309.74 838.49) rotate(-180)"></rect>
    <line class="cls-9" x1="154.87" y1="420.1" x2="154.87" y2="428.51"></line>
    <rect class="cls-1" x="142.58" y="445.65" width="24.55" height="27.24" transform="translate(309.71 918.54) rotate(-180)"></rect>
    <rect class="cls-13" x="142.58" y="453" width="24.55" height="12.55" transform="translate(309.71 918.54) rotate(-180)"></rect>
    <circle class="cls-10" cx="154.87" cy="434.29" r="1.6"></circle>
    <line class="cls-10" x1="154.87" y1="434.29" x2="154.87" y2="439.62"></line>
    <rect class="cls-9" x="211.31" y="437.65" width="10.07" height="5.13" transform="translate(656.57 223.88) rotate(90)"></rect>
    <rect class="cls-9" x="210.48" y="428.51" width="11.71" height="11.71" transform="translate(432.66 868.74) rotate(-180)"></rect>
    <rect class="cls-9" x="212.03" y="418.39" width="8.63" height="1.71" transform="translate(432.69 838.49) rotate(-180)"></rect>
    <line class="cls-9" x1="216.34" y1="420.1" x2="216.34" y2="428.51"></line>
    <rect class="cls-9" x="204.06" y="445.65" width="24.55" height="27.24" transform="translate(432.66 918.54) rotate(-180)"></rect>
    <rect class="cls-13" x="204.06" y="453" width="24.55" height="12.55" transform="translate(432.66 918.54) rotate(-180)"></rect>
    <circle class="cls-10" cx="216.34" cy="434.29" r="1.6"></circle>
    <line class="cls-10" x1="216.34" y1="434.29" x2="216.34" y2="439.62"></line>
    <path class="cls-7" d="M236,249.12a6.52,6.52,0,0,1-5.75-3,6.19,6.19,0,0,1,4.4-9.44c2.62-.4,5,.13,6.72,2.26a6.17,6.17,0,0,1-3.4,9.9A6.53,6.53,0,0,1,236,249.12Zm1.87-6.25a1.89,1.89,0,0,0-1.86-2.05,2,2,0,0,0,0,4.07A1.87,1.87,0,0,0,237.87,242.87Z"></path>
    <path class="cls-7" d="M221.67,245.08a22.84,22.84,0,0,0,0,3.2c0,.51-.16.64-.65.62-1.12,0-2.24,0-3.36,0-.38,0-.48-.12-.48-.49,0-3.7,0-7.39,0-11.09,0-.29.06-.47.4-.48a35.43,35.43,0,0,1,6.18,0c1.65.25,3.12.89,3.67,2.63a4.16,4.16,0,0,1-1,4.56c-.24.23-.21.37,0,.62.8,1.26,1.58,2.54,2.39,3.8.23.36.2.46-.25.46-1.38,0-2.77,0-4.15,0a.71.71,0,0,1-.75-.45c-.53-1.07-1.09-2.12-1.65-3.18A.27.27,0,0,0,221.67,245.08Zm-.07-4.2v.68c0,.14,0,.29.2.29a1.47,1.47,0,0,0,1-.19.87.87,0,0,0,.28-1.11,1.05,1.05,0,0,0-1.2-.57c-.53.08-.14.57-.26.84Z"></path>
    <path class="cls-7" d="M206,242.86c0-1.84,0-3.68,0-5.52,0-.38.09-.53.51-.53q4.16,0,8.3,0c.41,0,.53.13.52.52,0,.82,0,1.63,0,2.45,0,.38-.13.49-.5.48h-3.64c-.29,0-.71-.18-.72.42s.44.44.75.44c1.08,0,2.16,0,3.24,0,.38,0,.55.08.53.5,0,.81,0,1.63,0,2.44,0,.42-.14.51-.52.5-1.16,0-2.32,0-3.47,0-.31,0-.54,0-.54.43s.22.47.56.47c1.37,0,2.73,0,4.1,0,.42,0,.57.11.55.54,0,.82,0,1.63,0,2.45,0,.34-.11.46-.46.46-2.92,0-5.84,0-8.76,0-.42,0-.44-.2-.44-.53C206,246.54,206,244.7,206,242.86Z"></path>
    <path class="cls-7" d="M199.82,245.11c1.28,0,2.53,0,3.78,0,.41,0,.57.1.56.54,0,.92,0,1.85,0,2.78,0,.34-.1.47-.45.47-3.09,0-6.19,0-9.28,0-.34,0-.47-.12-.47-.46,0-1,0-2,0-3a1.1,1.1,0,0,1,.39-.79c1.12-1.15,2.23-2.32,3.35-3.48a1.42,1.42,0,0,0,.44-.61H195c-.73,0-.73,0-.73-.74s0-1.71,0-2.56c0-.38.13-.49.5-.49,2.9,0,5.8,0,8.7,0,.34,0,.47.11.46.46,0,1,0,2,0,3a.93.93,0,0,1-.33.69l-3.57,3.75A.61.61,0,0,0,199.82,245.11Z"></path>
    <path class="cls-7" d="M260.72,243.19c.25-1.73.5-3.43.73-5.13.17-1.26.17-1.26,1.44-1.26.91,0,1.82,0,2.73,0,.46,0,.61.11.5.58-.51,2.29-1,4.59-1.49,6.88-.29,1.35-.59,2.7-.86,4.06-.07.35-.2.51-.59.5-1.32,0-2.65,0-4,0-.4,0-.54-.13-.62-.54-.31-1.63-.67-3.26-1-4.88a.6.6,0,0,0-.25-.46c-.2.95-.41,1.87-.6,2.78s-.37,1.78-.53,2.67c-.06.33-.21.43-.54.43-1.36,0-2.73,0-4.09,0-.39,0-.5-.19-.56-.48-.65-3.1-1.31-6.19-2-9.28-.12-.57-.26-1.14-.4-1.71-.09-.38,0-.55.43-.55,1.21,0,2.42,0,3.64,0,.32,0,.45.08.5.43.2,1.61.44,3.22.67,4.83a2.47,2.47,0,0,0,.24.9,1.26,1.26,0,0,0,.25-.72q.49-2.48,1-5a.5.5,0,0,1,.6-.5c1,0,1.93,0,2.9,0,.38,0,.56.09.64.51.32,1.81.68,3.61,1,5.41A.62.62,0,0,0,260.72,243.19Z"></path>
    <path class="cls-7" d="M272.44,236.8c.79,0,1.59,0,2.38,0,.33,0,.5.06.6.42q1.41,4.91,2.86,9.8c.13.46.26.91.41,1.36.1.28.07.42-.27.42-1.41,0-2.81,0-4.21,0-.36,0-.39-.23-.45-.46-.31-1.25-.31-1.25-1.56-1.25-1,0-1,0-1.14,1-.08.57-.27.79-.89.76-1.23-.06-2.46,0-3.69,0-.43,0-.52-.1-.39-.53q1.59-5.35,3.13-10.73c.15-.53.36-.84,1-.77a20.53,20.53,0,0,0,2.22,0Zm0,4.64h-.13c-.15.79-.31,1.58-.45,2.38,0,.18-.22.44,0,.55a1.3,1.3,0,0,0,.89,0c.26-.09.17-.36.13-.55C272.77,243,272.6,242.24,272.43,241.44Z"></path>
    <path class="cls-7" d="M302.08,242.78c0-1.8,0-3.61,0-5.41,0-.42.1-.58.56-.58q4.06,0,8.14,0c.43,0,.6.1.57.57a21.47,21.47,0,0,0,0,2.27c0,.44-.14.55-.56.54-1.23,0-2.46,0-3.69,0-.35,0-.58.05-.58.48s.22.49.57.49c1.12,0,2.24,0,3.35,0,.47,0,.58.15.57.59,0,.73,0,1.47,0,2.21,0,.44-.11.6-.57.59-1.12,0-2.24,0-3.35,0-.26,0-.56,0-.62.34s.1.62.56.61c1.35,0,2.69,0,4,0,.45,0,.65.09.62.59,0,.77,0,1.55,0,2.33,0,.34-.12.46-.46.45q-4.35,0-8.7,0c-.42,0-.46-.19-.46-.52C302.08,246.45,302.08,244.61,302.08,242.78Z"></path>
    <path class="cls-7" d="M284.54,249a7.66,7.66,0,0,1-4.73-1.42c-.71-.51-.71-.58-.24-1.3.3-.46.6-.92.87-1.4.19-.32.35-.43.7-.17a4.43,4.43,0,0,0,2.17.79,2.18,2.18,0,0,0,.51,0,.54.54,0,0,0,.52-.44c0-.29-.16-.41-.38-.51l-1.88-.79a3.51,3.51,0,0,1-2.19-4.28,3.82,3.82,0,0,1,2.72-2.6,6.49,6.49,0,0,1,6.08,1c.61.45.6.48.18,1.13-.31.47-.63.94-.91,1.44s-.38.52-.76.2a3.2,3.2,0,0,0-1.46-.6,1,1,0,0,0-.61,0,.52.52,0,0,0-.4.44c0,.23.15.34.32.42l1.51.65a4.06,4.06,0,0,1,2.59,2.38,3.62,3.62,0,0,1-2.16,4.5,5.82,5.82,0,0,1-1.47.45C285.15,249,284.77,249,284.54,249Z"></path>
    <path class="cls-7" d="M295.17,236.8c1.63,0,3.26,0,4.89,0,.42,0,.62.08.59.56,0,1,0,1.9,0,2.85,0,.39-.11.54-.51.52-.74,0-1.48,0-2.22,0-.46,0-.58.14-.58.59,0,2.29,0,4.58,0,6.88,0,.49-.11.65-.63.63-1.08,0-2.16,0-3.24,0-.44,0-.54-.14-.54-.55,0-2.3,0-4.59,0-6.88,0-.53-.15-.7-.68-.67-.68,0-1.36,0-2,0-.49,0-.61-.16-.59-.62q0-1.36,0-2.73c0-.43.11-.59.57-.58C291.88,236.82,293.52,236.8,295.17,236.8Z"></path>
    <path class="cls-7" d="M389.28,242c0-1.49,0-3,0-4.47,0-.48.09-.67.61-.65,1.16,0,2.32,0,3.47,0,.35,0,.46.12.46.46,0,3.75,0,7.51,0,11.26,0,.34-.1.47-.46.47-1.4,0-2.8,0-4.21,0-.39,0-.52-.24-.66-.5-.75-1.36-1.49-2.73-2.23-4.09-.09-.16-.13-.36-.34-.46-.13.14-.07.32-.07.47,0,1.35,0,2.7,0,4,0,.37-.07.55-.5.54-1.19,0-2.39,0-3.58,0-.35,0-.46-.12-.46-.46,0-3.76,0-7.51,0-11.27,0-.34.1-.46.45-.46,1.41,0,2.81,0,4.21,0,.37,0,.49.19.63.45l2.56,4.69Z"></path>
    <path class="cls-7" d="M372.74,236.62c3.23,0,5.65,1.68,6.54,4.41a6.28,6.28,0,0,1-5,8.09,7.18,7.18,0,0,1-6.13-1.51,6.24,6.24,0,0,1,2.74-10.75A6.21,6.21,0,0,1,372.74,236.62Zm-1.8,6.33a2,2,0,0,0,1.89,2.07,2,2,0,0,0,1.88-2.1,2,2,0,0,0-1.91-2.06A1.94,1.94,0,0,0,370.94,243Z"></path>
    <path class="cls-7" d="M329.07,240.54c0-1.06,0-2.12,0-3.18,0-.39.1-.53.5-.52,1.18,0,2.35,0,3.53,0,.4,0,.51.13.51.52,0,1.84,0,3.68,0,5.51a7.06,7.06,0,0,0,0,.8,1.41,1.41,0,0,0,1.22,1.24,1.35,1.35,0,0,0,1.42-1,2.34,2.34,0,0,0,.09-.79c0-1.91,0-3.83,0-5.74,0-.46.15-.57.58-.56,1.16,0,2.31,0,3.47,0,.25,0,.49,0,.49.36-.05,2.29.12,4.59-.08,6.87a5.47,5.47,0,0,1-5.1,5.14,5.7,5.7,0,0,1-6.41-4.15,12.88,12.88,0,0,1-.22-3.16Z"></path>
    <path class="cls-7" d="M322.69,249.25a7.54,7.54,0,0,1-4.77-1.55c-.4-.32-.56-.6-.19-1.07A14,14,0,0,0,318.8,245c.18-.32.32-.33.6-.12a4.52,4.52,0,0,0,2.32.85,1.31,1.31,0,0,0,.56-.05.49.49,0,0,0,.37-.39c0-.21-.14-.32-.28-.38-.59-.28-1.18-.53-1.77-.78a3.68,3.68,0,0,1-2.57-3.64,3.51,3.51,0,0,1,1.85-3,6.58,6.58,0,0,1,7.3.66c.33.3.46.52.14.94a10.8,10.8,0,0,0-1,1.58c-.22.4-.41.51-.81.2a3,3,0,0,0-1.57-.61,1.13,1.13,0,0,0-.45,0c-.21.07-.4.16-.42.41s.16.34.32.41c.59.27,1.19.5,1.77.77a3.89,3.89,0,0,1,2.42,2.55,3.63,3.63,0,0,1-1.94,4.19A5.75,5.75,0,0,1,322.69,249.25Z"></path>
    <path class="cls-7" d="M359.87,236.85c1.69,0,3.38,0,5.06,0,.4,0,.53.12.52.52,0,1,0,2,0,3,0,.4-.15.48-.5.47-.68,0-1.36,0-2.05,0s-.75,0-.75.73c0,2.27,0,4.55,0,6.82,0,.55-.17.67-.67.65-1.12,0-2.24,0-3.36,0-.4,0-.51-.13-.51-.52,0-2.37,0-4.74,0-7.11,0-.43-.1-.61-.57-.58-.74,0-1.48,0-2.22,0-.38,0-.54-.09-.53-.5,0-1,0-2,0-3,0-.37.12-.48.49-.48C356.5,236.86,358.18,236.85,359.87,236.85Z"></path>
    <path class="cls-7" d="M347.85,236.85c1.65,0,3.3,0,4.94,0,.42,0,.57.11.56.54,0,1,0,1.93,0,2.9,0,.41-.1.58-.54.56-.78,0-1.56,0-2.33,0-.32,0-.41.07-.41.42,0,2.33,0,4.66,0,7,0,.79,0,.79-.82.79-1,0-2,0-3.07,0-.5,0-.65-.12-.65-.63,0-2.31,0-4.62,0-6.93,0-.54-.16-.69-.67-.66-.72,0-1.44,0-2.16,0-.37,0-.5-.11-.49-.49,0-1,0-2,0-3,0-.42.15-.5.53-.5C344.47,236.86,346.16,236.85,347.85,236.85Z"></path>
  </g>
</svg>
