<svg id="Layer_1" data-name="Layer 1" xmlns="http://www.w3.org/2000/svg" viewBox="0 0 600 600"><defs><style>.cls-1,.cls-11,.cls-8{fill:none}.cls-2,.cls-4,.cls-7{fill:#1c19a8}.cls-3,.cls-9{fill:#fff}.cls-10,.cls-11,.cls-12,.cls-13,.cls-3,.cls-4,.cls-5,.cls-6,.cls-7,.cls-8,.cls-9{stroke:#1c19a8;stroke-width:3px}.cls-3{stroke-miterlimit:10}.cls-10,.cls-11,.cls-12,.cls-13,.cls-4,.cls-5,.cls-6,.cls-7,.cls-8,.cls-9{stroke-linejoin:round}.cls-5{fill:#ffde00}.cls-14,.cls-6{fill:#00ab81}.cls-11,.cls-7{stroke-linecap:round}.cls-10,.cls-15{fill:#fb715d}.cls-12{fill:url(#Blue_dots_2)}.cls-13{fill:url(#Blue_dots_2-5)}</style><pattern id="Blue_dots_2" data-name="Blue dots 2" width="28.8" height="28.8" patternTransform="matrix(.95 0 0 .95 352.07 346.77)" patternUnits="userSpaceOnUse"><path class="cls-1" d="M0 0h28.8v28.8H0z"/><path class="cls-2" d="M28.8 30.24a1.44 1.44 0 1 0-1.44-1.44 1.44 1.44 0 0 0 1.44 1.44zm-14.4 0A1.44 1.44 0 1 0 13 28.8a1.44 1.44 0 0 0 1.4 1.44zm14.4-14.4a1.44 1.44 0 1 0-1.44-1.44 1.44 1.44 0 0 0 1.44 1.44zm-14.4 0A1.44 1.44 0 1 0 13 14.4a1.44 1.44 0 0 0 1.4 1.44zM7.2 23a1.44 1.44 0 1 0-1.44-1.4A1.44 1.44 0 0 0 7.2 23zm14.4 0a1.44 1.44 0 1 0-1.44-1.44A1.44 1.44 0 0 0 21.6 23zM7.2 8.64A1.44 1.44 0 1 0 5.76 7.2 1.44 1.44 0 0 0 7.2 8.64zm14.4 0a1.44 1.44 0 1 0-1.44-1.44 1.44 1.44 0 0 0 1.44 1.44zM0 30.24a1.44 1.44 0 0 0 1.44-1.44A1.45 1.45 0 0 0 0 27.36a1.44 1.44 0 0 0-1.44 1.44A1.43 1.43 0 0 0 0 30.24zm0-14.4a1.44 1.44 0 0 0 1.44-1.44A1.45 1.45 0 0 0 0 13a1.44 1.44 0 0 0-1.44 1.4A1.43 1.43 0 0 0 0 15.84zm28.8-14.4A1.45 1.45 0 0 0 30.24 0a1.45 1.45 0 0 0-1.44-1.44A1.44 1.44 0 0 0 27.36 0a1.44 1.44 0 0 0 1.44 1.44zm-14.4 0A1.45 1.45 0 0 0 15.84 0a1.45 1.45 0 0 0-1.44-1.44A1.44 1.44 0 0 0 13 0a1.44 1.44 0 0 0 1.4 1.44zM0 1.44A1.45 1.45 0 0 0 1.44 0 1.45 1.45 0 0 0 0-1.44 1.44 1.44 0 0 0-1.44 0 1.44 1.44 0 0 0 0 1.44z"/></pattern><pattern id="Blue_dots_2-5" data-name="Blue dots 2" width="28.8" height="28.8" patternTransform="matrix(.95 0 0 .96 352.07 335.51)" patternUnits="userSpaceOnUse"><path class="cls-1" d="M0 0h28.8v28.8H0z"/><path class="cls-2" d="M28.8 30.24a1.44 1.44 0 1 0-1.44-1.44 1.44 1.44 0 0 0 1.44 1.44zm-14.4 0A1.44 1.44 0 1 0 13 28.8a1.44 1.44 0 0 0 1.4 1.44zm14.4-14.4a1.44 1.44 0 1 0-1.44-1.44 1.44 1.44 0 0 0 1.44 1.44zm-14.4 0A1.44 1.44 0 1 0 13 14.4a1.44 1.44 0 0 0 1.4 1.44zM7.2 23a1.44 1.44 0 1 0-1.44-1.4A1.44 1.44 0 0 0 7.2 23zm14.4 0a1.44 1.44 0 1 0-1.44-1.44A1.44 1.44 0 0 0 21.6 23zM7.2 8.64A1.44 1.44 0 1 0 5.76 7.2 1.44 1.44 0 0 0 7.2 8.64zm14.4 0a1.44 1.44 0 1 0-1.44-1.44 1.44 1.44 0 0 0 1.44 1.44zM0 30.24a1.44 1.44 0 0 0 1.44-1.44A1.45 1.45 0 0 0 0 27.36a1.44 1.44 0 0 0-1.44 1.44A1.43 1.43 0 0 0 0 30.24zm0-14.4a1.44 1.44 0 0 0 1.44-1.44A1.45 1.45 0 0 0 0 13a1.44 1.44 0 0 0-1.44 1.4A1.43 1.43 0 0 0 0 15.84zm28.8-14.4A1.45 1.45 0 0 0 30.24 0a1.45 1.45 0 0 0-1.44-1.44A1.44 1.44 0 0 0 27.36 0a1.44 1.44 0 0 0 1.44 1.44zm-14.4 0A1.45 1.45 0 0 0 15.84 0a1.45 1.45 0 0 0-1.44-1.44A1.44 1.44 0 0 0 13 0a1.44 1.44 0 0 0 1.4 1.44zM0 1.44A1.45 1.45 0 0 0 1.44 0 1.45 1.45 0 0 0 0-1.44 1.44 1.44 0 0 0-1.44 0 1.44 1.44 0 0 0 0 1.44z"/></pattern></defs><path class="cls-3" d="M79 221.62h442.01v295.26H79z"/><path class="cls-4" d="M122.67 415.5h172.98v6.92H122.67z"/><path class="cls-4" transform="rotate(90 129.815 447.885)" d="M102.54 445.33h54.53v5.1h-54.53z"/><path class="cls-4" transform="rotate(90 290.15 447.88)" d="M262.88 445.33h54.53v5.1h-54.53z"/><path class="cls-5" d="M88.38 385.42h5.53v51.48h-5.53z"/><path class="cls-6" d="M101.45 420.23c3.27-20.48-8.3-14.43-15-14a2.59 2.59 0 0 0 1.37.79c2.32.83 5.71 2.45 7.41 4.24 2.57 2.73 5.23 5.6 6.29 9.21"/><path class="cls-6" d="M102.73 420.25c-8.16-15.08-14.22-7.6-19.26-3.18a2.52 2.52 0 0 0 1.56-.21c2.35-.74 4.9-.35 7.33.05 3.71.61 7.56 1.28 10.59 3.49m6.52-28.72a23 23 0 0 1 23.19-3.5 21.79 21.79 0 0 0-18.4 7.36"/><path class="cls-6" d="M101.29 394.55a24.27 24.27 0 0 1 1.47-4.46 17.45 17.45 0 0 1 6.82-8.08 11.24 11.24 0 0 1 10.3-.76 14.71 14.71 0 0 0-8.72 13.33m-11.34-34.53a18 18 0 0 0-4.27-5.72 35.45 35.45 0 0 0-4.27-3.13l-11.58-7.63c2.64-1.35 5.76-1.2 8.72-1a16.81 16.81 0 0 1 5.56 1 11.35 11.35 0 0 1 5.34 5.28 33.8 33.8 0 0 1 2.53 7.22z"/><path class="cls-6" d="M99.94 349.61c1.21-4.51 5.14-7.9 9.49-9.57s9.11-1.88 13.78-1.85a15.44 15.44 0 0 0-10.39 3.29 11.39 11.39 0 0 0-4.17 9.83l-4.57 10-5 .33zm1.92 56.05c3.64-3.52 8.8-5.12 13.86-5.39s10.1.64 15.08 1.55a24.1 24.1 0 0 0-19.38-9 12.06 12.06 0 0 0-4.25.81c-3.63 1.53-6.51 7.87-5.31 11.63"/><path class="cls-5" d="M100 368.37h5.53v68.53H100zM116.53 436.9H76.4l7.62 38.25h24.88l7.63-38.25z"/><path class="cls-6" d="M103 369.45a11 11 0 0 1 4.53-6.77 23 23 0 0 1 8.1-3.68 39.27 39.27 0 0 1 15.34-.92c-3.65-4.78-10.08-6.51-16.09-6.75a14.55 14.55 0 0 0-4.37.34 10.49 10.49 0 0 0-6.58 6.08c-1.23 2.84-1.27 8.63-.93 11.7m-1.41-1.67a10.42 10.42 0 0 0-4-6 19 19 0 0 0-6.7-3.05 32.49 32.49 0 0 0-12.72-.76c3-4 8.36-5.4 13.34-5.6a12.24 12.24 0 0 1 3.62.29 8.67 8.67 0 0 1 5.45 5c1 2.35 1.33 7.58 1 10.12m3.95 58.45c.35-18.42 10.66-12.57 16.89-10.1a2.58 2.58 0 0 1-1.54.33c-2.47.09-4.73 1.31-6.89 2.5a24 24 0 0 0-8.46 7.27m-17.15 6.02c-.35-18.41-10.66-12.57-16.89-10.1a2.58 2.58 0 0 0 1.54.33c2.46.09 4.73 1.31 6.89 2.5a24.16 24.16 0 0 1 8.46 7.27M88.15 402c-.3-15.67-9.08-10.69-14.38-8.59a2.26 2.26 0 0 0 1.32.28 13.43 13.43 0 0 1 5.91 2.15 20.56 20.56 0 0 1 7.2 6.18m.69-22.75a12.62 12.62 0 0 0-3-4 25.46 25.46 0 0 0-3-2.18l-8.07-5.31c1.84-.94 4-.84 6.08-.71a12.08 12.08 0 0 1 3.87.69 8 8 0 0 1 3.72 3.68 23.73 23.73 0 0 1 1.76 5z"/><path class="cls-6" d="M89 372c.84-3.13 3.58-5.5 6.61-6.66a26.08 26.08 0 0 1 9.59-1.29 10.78 10.78 0 0 0-7.2 2.29 8 8 0 0 0-3 6.85l-3.18 6.95-3.48.22z"/><path class="cls-6" d="M91.08 385.82a7.61 7.61 0 0 1 3.15-4.71 16 16 0 0 1 5.64-2.56 27.13 27.13 0 0 1 10.69-.64c-2.54-3.33-7-4.54-11.21-4.71a10 10 0 0 0-3 .24 7.33 7.33 0 0 0-4.59 4.24c-.85 2-.89 6-.64 8.14m-.99-1.16a7.27 7.27 0 0 0-2.81-4.2 13.05 13.05 0 0 0-4.67-2.13 22.62 22.62 0 0 0-8.86-.53c2.11-2.76 5.83-3.76 9.3-3.9a8.54 8.54 0 0 1 2.52.2 6.06 6.06 0 0 1 3.8 3.51 18.6 18.6 0 0 1 .72 7.05"/><path class="cls-4" d="M224.81 437.81H195.4v-5.35h29.41v5.35zM203.42 437.81l-7.05 76.61M217.76 437.81l7.05 76.61"/><path class="cls-7" d="M195.44 493.39h29.95"/><path class="cls-4" d="M210.59 437.81v76.61M172.76 437.81H143.35v-5.35h29.41v5.35zM151.37 437.81l-7.05 76.61M165.71 437.81l7.05 76.61"/><path class="cls-7" d="M143.39 493.39h29.95"/><path class="cls-4" d="M158.54 437.81v76.61M276.85 437.81H247.45v-5.35h29.4v5.35zM255.47 437.81l-7.05 76.61M269.81 437.81l7.04 76.61"/><path class="cls-7" d="M247.49 493.39h29.94"/><path class="cls-4" d="M262.64 437.81v76.61"/><path class="cls-6" d="M317.04 292.38h119v216.33h-119z"/><path class="cls-8" d="M331.66 445.38h41.49v44.46h-41.49zM379.62 445.38h41.49v44.46h-41.49z"/><path class="cls-4" d="M363.64 428.94h25.8v7.58h-25.8z"/><path class="cls-9" d="M379.62 305.46h41.49v114.63h-41.49zM331.66 305.46h41.49v114.63h-41.49z"/><path class="cls-10" d="M72.85 155.28h454.3v83.39H72.85z"/><path class="cls-6" d="M517.31 441.35c3.33 0 6.06-3.06 6.74-6.33s-.26-6.65-1.46-9.76a18 18 0 0 1-1.61-5.6c-.09-2 .59-3.94.85-5.92a14.22 14.22 0 0 0-.71-6.66c-1-2.88-3-5.4-3.66-8.37-.63-2.69-.16-5.5-.36-8.26a4.35 4.35 0 0 0-.67-2.3 3.74 3.74 0 0 0-1.73-1.21 8.22 8.22 0 0 0-6.88.7 12.06 12.06 0 0 0-4.7 5.24c-1.22 2.5-1.81 5.37-3.65 7.45-1.7 1.91-4.33 3-5.49 5.28a8.85 8.85 0 0 0-.72 4.18c.06 4 .84 8.31-.79 12-1.06 2.41-3.51 4.11-4.27 6.62 0 .12-.07.23-.1.34a10 10 0 0 0 9.72 12.65z"/><path class="cls-11" d="M506.59 441.39s-2.93-24.65 2.11-39.58"/><path class="cls-10" d="M524.71 440.06h-36.82l7 35.09h22.82l7-35.09z"/><path class="cls-5" d="M527.15 145.35H72.85v-13.02L300 76.25l227.15 56.08v13.02zM514.86 238.67h12.29v268.15h-12.29z"/><path class="cls-10" d="M436.04 238.67h12.29v268.15h-12.29z"/><path class="cls-5" d="M65.59 511.51h468.83v10.74H65.59z"/><path class="cls-10" d="M65.59 166.38h19.55v342.33H65.59zM514.86 166.38h19.55v342.33h-19.55zM304.75 238.67h12.29v270.04h-12.29z"/><path class="cls-6" d="M61.38 475.15h259.21v9.53H61.38zM65.59 484.68h251.45v26.83H65.59z"/><path class="cls-10" d="M317.04 279.26h119v13.12h-119z"/><path class="cls-9" d="M85.14 271.71h219.61M158.34 238.67v236.48M231.55 238.67v236.48"/><path class="cls-5" d="M317.04 503.34h115.33v10.74H317.04z"/><path class="cls-5" d="M309.67 511.51h130.07v10.74H309.67z"/><path class="cls-12" d="M379.62 305.46h41.49v114.63h-41.49zM331.66 305.46h41.49v114.63h-41.49z"/><path class="cls-4" transform="rotate(80.34 182.618 487.478)" d="M147.85 484.33h69.55v6.26h-69.55z"/><path class="cls-4" transform="matrix(-.17 .99 -.99 -.17 672.27 407.38)" d="M129.4 484.33h69.55v6.26H129.4z"/><circle class="cls-9" cx="173.4" cy="452.36" r="3.84"/><circle class="cls-5" cx="194.95" cy="326.57" r="13.05"/><path class="cls-5" d="M190.33 305.46h9.24v8.06h-9.24zM194.95 305.46v-66.79"/><circle class="cls-5" cx="121.74" cy="326.57" r="13.05"/><path class="cls-5" d="M117.13 305.46h9.24v8.06h-9.24zM121.74 305.46v-66.79"/><circle class="cls-5" cx="268.15" cy="326.57" r="13.05"/><path class="cls-5" d="M263.53 305.46h9.24v8.06h-9.24zM268.15 305.46v-66.79M57.43 142.06h485.13v24.33H57.43z"/><path class="cls-6" d="M431.9 484.68h102.52v26.83H431.9zM427.9 475.15h110.3v9.53H427.9z"/><path class="cls-10" d="M317 238.67v40.59h119v-40.59zm109.48 31.08h-100v-21.56h100z"/><path class="cls-13" d="M448.33 238.67h66.53v236.48h-66.53z"/><circle class="cls-5" cx="75.36" cy="179" r="4.6"/><path class="cls-8" d="M85.14 238.67H65.59M85.14 190.49H65.59"/><path class="cls-5" d="M75.36 190.49v48.18"/><circle class="cls-5" cx="524.64" cy="179.04" r="4.6"/><path class="cls-8" d="M534.41 238.72h-19.55M534.41 190.54h-19.55"/><path class="cls-5" d="M524.64 190.54v48.18"/><path class="cls-14" d="M303 480a14.61 14.61 0 0 0 1.51-2c.51-.82 1.08-1.59 1.64-2.37a28.12 28.12 0 0 0 2.59-4c2.71-5.46 1.79-11.8 1-16.9a1.45 1.45 0 0 0-.85-1.12 1.47 1.47 0 0 0-.58-.09c.06-.49.12-1 .16-1.45a85.32 85.32 0 0 0 .21-14.65l-.19-2.51c-.5-6-1-12.26 2.1-17a1.45 1.45 0 0 0-2.36-1.68 35.39 35.39 0 0 0-4.87 7.72c-1.76 4.18-1.9 8.69-2 13.05q0 1.49-.12 3c-.95-3.77-1.62-7.83-1.39-10.08a37.06 37.06 0 0 1 .82-4.47c.23-1 .46-2 .64-3.06 1.09-6.31.21-12.67-.62-18.83a78.38 78.38 0 0 1-1.08-14 1.45 1.45 0 0 0-2.84-.47c-1.58 5.41-1.59 11.06-1.59 16.53a73.26 73.26 0 0 1-.71 12.49 74.72 74.72 0 0 1-1.93 7.7c-.66 2.28-1.31 4.59-1.78 7-.27-.89-.57-1.77-.77-2.69a30.19 30.19 0 0 1 1-16.18 1.45 1.45 0 0 0-2.46-1.43c-6.14 7-6.76 16.76-6.2 23.73.11 1.31.25 2.62.39 3.93a41.41 41.41 0 0 1-7.44-27.75 1.45 1.45 0 0 0-2.86-.41c-2.71 14-2.34 25.46 1.12 34.93a84 84 0 0 0 4 8.77c.87 1.72 1.73 3.45 2.52 5.21l.4.89.54 1.2a22 22 0 0 0-4.78-2.1l-.87-.3a45.63 45.63 0 0 1-12.67-6.86 1.46 1.46 0 0 0-2.3 1.49c.91 3.84 3.33 6.88 5.67 9.83a47.24 47.24 0 0 1 3.36 4.59 22.07 22.07 0 0 1 3.21 11.88h29.65z"/><path class="cls-15" d="M309.2 482.46h-41.79l7.94 39.84h25.91l7.94-39.84z"/><path class="cls-2" d="M307.7 476.74a29.76 29.76 0 0 0 2.75-4.29c3-6 2-12.67 1.23-18a3.36 3.36 0 0 0-1.26-2.17 87.21 87.21 0 0 0 .21-15l-.19-2.52c-.47-5.7-1-11.59 1.78-15.74a3.38 3.38 0 0 0-5.51-3.92c-1 1.39-2.12 2.81-3.09 4.33.43-5.45-.3-10.84-1-16.13a77 77 0 0 1-1.06-13.64 3.38 3.38 0 0 0-6.63-1.09c-1.66 5.67-1.66 11.46-1.67 17.13a71.12 71.12 0 0 1-.68 12.09c-.32 1.8-.8 3.66-1.31 5.52a28 28 0 0 1 1.54-8.77 3.39 3.39 0 0 0-5.75-3.34c-5.31 6.05-6.78 13.92-6.84 20.59a39.13 39.13 0 0 1-3-19.21 3.38 3.38 0 0 0-6.69-1c-2.77 14.39-2.38 26.15 1.21 36a87.94 87.94 0 0 0 4.14 9.11c.41.81.82 1.63 1.22 2.45l-.25-.09-.86-.3a43.49 43.49 0 0 1-12.15-6.57 3.38 3.38 0 0 0-5.34 3.47c1 4.26 3.56 7.48 6.05 10.61a47 47 0 0 1 3.21 4.38 20.09 20.09 0 0 1 2.9 10.42h-3.26a1.45 1.45 0 0 0-1.42 1.73l7.94 39.84a1.47 1.47 0 0 0 1.43 1.17h25.9a1.47 1.47 0 0 0 1.43-1.17l7.94-39.84a1.45 1.45 0 0 0-.3-1.2 1.48 1.48 0 0 0-1.12-.53h-4.55a16.88 16.88 0 0 0 1.49-2c.47-.82.99-1.54 1.56-2.32zm-7.64 44.11h-23.52l-2.82-14.14h29.16zm3.4-17h-30.32l-.75-3.73h31.82zm1.32-6.63h-33l-2.65-13.27h38.26zm-3-42.06a64.84 64.84 0 0 0 1.28-14.77 1.46 1.46 0 0 0 .07-.3c.06-1 .09-2 .13-3 .13-4.18.26-8.51 1.87-12.36a22.59 22.59 0 0 1 1.85-3.42c-1.21 4.3-.81 9.09-.42 13.76l.19 2.5a84.39 84.39 0 0 1-.2 14.31l-.16 1.41a2.12 2.12 0 0 0 0 .44c-2 2.33-4.22 4.52-6.3 6.8a41.14 41.14 0 0 0 1.72-5.41zm6.39 2.38c.56 4.29.83 9.14-1.21 13.23a26.61 26.61 0 0 1-2.46 3.79c-.58.8-1.16 1.59-1.68 2.43a13.2 13.2 0 0 1-1.33 1.77 2.25 2.25 0 0 0-.24.36l-.24.45h-6.8a40 40 0 0 1 5.79-12.8c2.34-3.43 5.39-6.24 8.2-9.27zm-13.79-31.24a74.37 74.37 0 0 0 1.95-7.85 75.15 75.15 0 0 0 .75-12.82 78.27 78.27 0 0 1 .59-11.75c.16 3.34.62 6.69 1.08 10 .81 6 1.65 12.19.62 18.18-.17 1-.39 2-.62 3a40.33 40.33 0 0 0-.86 4.7c-.3 3 .76 7.91 1.28 10.09-.07 6.78-.44 13.41-2.89 20-1.19 3.18-2.52 6.15-3.71 9.16a82 82 0 0 0-.77-9.35 2.11 2.11 0 0 0 .81-.4c7.95-6.47 3.67-18.4.14-26.69.47-2.07 1.02-4.07 1.66-6.31zm-6-10.51a32 32 0 0 0-.28 14.7c0 .23.13.46.19.68a2 2 0 0 0 .14 1c.12.27.25.56.37.85l.1.31a1.83 1.83 0 0 0 .3.59c2.76 6.34 6.65 15.91 1.87 21.47a47.13 47.13 0 0 0-6.5-15.83v-.25c-.12-1.08-.23-2.17-.32-3.26-.5-5.98-.1-14.05 4.13-20.3zm-13.06 30.41c-2.78-7.61-3.48-16.58-2.11-27.28a43.14 43.14 0 0 0 6.26 19.59 2 2 0 0 0 .34.74c7.38 10.05 9 21.2 9 33-1.09-4.28-3.23-8.4-6.4-10.88l-.61-1.36c-.78-1.73-1.63-3.44-2.55-5.29a80 80 0 0 1-3.93-8.52zm-7.81 17.59c-1.91-2.41-3.87-4.88-4.89-7.72a47.3 47.3 0 0 0 12 6.28l.88.31a20.48 20.48 0 0 1 4.37 1.9c.1.07.23 0 .34.08 3.9 3.27 5.58 10 5.52 14.89h-11.27a24.07 24.07 0 0 0-3.46-11 49.07 49.07 0 0 0-3.49-4.74z"/><path class="cls-14" d="M447.35 480a15.55 15.55 0 0 1-1.5-2c-.51-.82-1.08-1.59-1.64-2.37a27.28 27.28 0 0 1-2.59-4c-2.72-5.46-1.79-11.8-1-16.9a1.45 1.45 0 0 1 .85-1.12 1.47 1.47 0 0 1 .58-.09c-.06-.49-.12-1-.17-1.45a86.35 86.35 0 0 1-.2-14.65l.19-2.51c.5-6 1-12.26-2.1-17a1.45 1.45 0 0 1 2.36-1.68 36.16 36.16 0 0 1 4.87 7.72c1.75 4.18 1.89 8.69 2 13.05q0 1.49.12 3c.95-3.77 1.61-7.83 1.39-10.08a39.13 39.13 0 0 0-.82-4.47c-.23-1-.46-2-.64-3.06-1.09-6.31-.22-12.67.62-18.83a79.31 79.31 0 0 0 1.08-14A1.46 1.46 0 0 1 452 388a1.48 1.48 0 0 1 1.63 1c1.58 5.41 1.58 11.06 1.59 16.53a73.26 73.26 0 0 0 .71 12.49 74.72 74.72 0 0 0 1.93 7.7c.65 2.28 1.31 4.59 1.78 7 .27-.89.57-1.77.77-2.69a30.19 30.19 0 0 0-1-16.18 1.45 1.45 0 0 1 2.46-1.43c6.14 7 6.76 16.76 6.2 23.73-.11 1.31-.26 2.62-.4 3.93a41.36 41.36 0 0 0 7.45-27.75 1.45 1.45 0 0 1 2.86-.41c2.71 14 2.34 25.46-1.12 34.93a84 84 0 0 1-4 8.77c-.87 1.72-1.74 3.45-2.52 5.21l-.4.89-.54 1.2a22 22 0 0 1 4.77-2.1l.88-.3a45.77 45.77 0 0 0 12.67-6.86 1.45 1.45 0 0 1 2.29 1.49c-.91 3.84-3.33 6.88-5.67 9.83a47.13 47.13 0 0 0-3.35 4.59 22.07 22.07 0 0 0-3.21 11.88h-29.65z"/><path class="cls-5" d="M441.15 482.46h41.79L475 522.3h-25.91l-7.94-39.84z"/><path class="cls-2" d="M444.21 479a16.88 16.88 0 0 0 1.49 2h-4.55a1.46 1.46 0 0 0-1.12.53 1.42 1.42 0 0 0-.3 1.2l7.94 39.84a1.46 1.46 0 0 0 1.43 1.17H475a1.45 1.45 0 0 0 1.42-1.17l7.95-39.84a1.46 1.46 0 0 0-1.43-1.73h-3.2a20.09 20.09 0 0 1 2.9-10.42 45.28 45.28 0 0 1 3.21-4.38c2.48-3.13 5-6.35 6-10.61a3.38 3.38 0 0 0-5.34-3.47 43.49 43.49 0 0 1-12.15 6.57l-.86.3-.25.09c.4-.82.81-1.64 1.21-2.45a86 86 0 0 0 4.15-9.11c3.59-9.82 4-21.58 1.2-36a3.36 3.36 0 0 0-3.79-2.71 3.4 3.4 0 0 0-2.9 3.68 39 39 0 0 1-3 19.21c-.07-6.67-1.54-14.54-6.85-20.59a3.38 3.38 0 0 0-5.74 3.34 28 28 0 0 1 1.54 8.77c-.51-1.86-1-3.72-1.31-5.52a71.12 71.12 0 0 1-.68-12.09c0-5.67 0-11.46-1.67-17.13a3.38 3.38 0 0 0-6.63 1.09 77 77 0 0 1-1.06 13.64c-.72 5.29-1.45 10.68-1 16.13-1-1.52-2-2.94-3.09-4.33a3.39 3.39 0 0 0-4.67-.7 3.36 3.36 0 0 0-.84 4.62c2.74 4.15 2.25 10 1.78 15.74l-.2 2.52a88.23 88.23 0 0 0 .22 15 3.32 3.32 0 0 0-1.26 2.17c-.79 5.37-1.76 12 1.23 18a29.76 29.76 0 0 0 2.75 4.29c.58.87 1.1 1.59 1.57 2.35zm3.25 27.72h29.17l-2.82 14.14h-23.53zm-1.32-6.63H478l-.74 3.73h-30.37zm-3.22-16.17h38.26l-2.65 13.27h-33zm7.29-23.43c-2.07-2.28-4.25-4.47-6.29-6.8a3.16 3.16 0 0 0 0-.44l-.16-1.41a84.39 84.39 0 0 1-.2-14.31l.19-2.5c.39-4.67.79-9.46-.42-13.76a21.68 21.68 0 0 1 1.84 3.42c1.62 3.85 1.75 8.18 1.88 12.36 0 1 .07 2 .13 3a1.45 1.45 0 0 0 .06.3 65.42 65.42 0 0 0 1.29 14.77 42.69 42.69 0 0 0 1.68 5.36zm.18 6.29a40 40 0 0 1 5.72 12.76h-6.8l-.24-.45a2.25 2.25 0 0 0-.24-.36 14 14 0 0 1-1.34-1.77c-.51-.84-1.09-1.63-1.68-2.43a28.46 28.46 0 0 1-2.46-3.79c-2-4.09-1.76-8.94-1.21-13.23 2.86 3.02 5.86 5.83 8.25 9.26zm7.17-34.25c-3.52 8.29-7.81 20.22.15 26.69a2 2 0 0 0 .81.4 79.83 79.83 0 0 0-.77 9.35c-1.19-3-2.52-6-3.71-9.16-2.46-6.61-2.83-13.24-2.89-20 .52-2.18 1.58-7.08 1.27-10.09a36.53 36.53 0 0 0-.86-4.7c-.22-1-.44-2-.61-3-1-6-.19-12.19.62-18.18.45-3.31.91-6.66 1.08-10a78.27 78.27 0 0 1 .59 11.75 75.14 75.14 0 0 0 .74 12.82 77 77 0 0 0 2 7.85c.6 2.24 1.15 4.24 1.58 6.26zm8.57 3.48c-.09 1.09-.21 2.18-.32 3.26v.25a46.93 46.93 0 0 0-6.5 15.83c-4.79-5.56-.89-15.13 1.87-21.47a1.83 1.83 0 0 0 .3-.59l.09-.31c.13-.29.26-.58.37-.85a1.94 1.94 0 0 0 .15-1c.06-.22.14-.45.19-.68a32 32 0 0 0-.28-14.7c4.2 6.25 4.6 14.32 4.13 20.25zm5 18.76c-.92 1.85-1.78 3.56-2.55 5.29l-.61 1.36c-3.17 2.48-5.31 6.6-6.4 10.88 0-11.84 1.59-23 9-33a2 2 0 0 0 .34-.74 43.26 43.26 0 0 0 6.26-19.59c1.37 10.7.67 19.67-2.11 27.28a82 82 0 0 1-3.93 8.51zm8.22 13.81a24 24 0 0 0-3.46 11h-11.31c-.06-4.88 1.62-11.62 5.52-14.89.11 0 .24 0 .34-.08a20.26 20.26 0 0 1 4.37-1.9l.87-.31a47.19 47.19 0 0 0 12.05-6.28c-1 2.84-3 5.31-4.9 7.72a50.68 50.68 0 0 0-3.48 4.73zM116.42 210.76L134.61 196h-17.86v-8.19h22.73v6.34L121.63 209h17.81v8.19h-23zm25.79-22.93h22.13V196h-20v2.85h19.53v6.85h-19.52v3.3h20v8.19h-22.14zm44.73 18.44l4.11 11h-7.72l-3.83-10h-9.7v10h-2.14v-29.4h13.1c4.92 0 11.43 1.17 11.43 9.61 0 5.09-2.35 7.61-5.25 8.79zm-17.14-6.81h10.08c9.28 0 11 0 11-2s-2.23-1.84-11-1.84H169.8zm23.94 3.07c0-9.45 5.17-15.33 14-15.33s14 5.88 14 15.33-5.17 15.33-14 15.33-14-5.86-14-15.33zm26.3 0c0-3.24-2.61-7.31-12.27-7.31s-12.31 4.07-12.31 7.31 2.65 7.31 12.31 7.31 12.23-4.08 12.23-7.31zm15.24-14.7h2.14v10.37h21.63v-10.37h2.15v29.4h-2.15v-10.84h-21.63v10.84h-2.14zm29.86 0h22.14V196h-20v2.85h19.53v6.85h-19.53v3.3h20v8.19h-22.14zm44.73 18.44l4.12 11h-7.73l-3.82-10h-9.71v10h-2.14v-29.4h13.11c4.91 0 11.42 1.17 11.42 9.61 0 5.09-2.35 7.61-5.25 8.79zm-17.14-6.81h10.08c9.29 0 11 0 11-2s-2.23-1.84-11-1.84h-10.08zm23.94 3.07c0-9.45 5.17-15.33 14-15.33s14 5.88 14 15.33-5.17 15.33-14 15.33-14-5.86-14-15.33zm26.3 0c0-3.24-2.61-7.31-12.27-7.31s-12.31 4.07-12.31 7.31 2.65 7.31 12.31 7.31 12.3-4.08 12.3-7.31zm4.74-14.7h22.14V196h-20v2.85h19.54v6.85h-19.54v3.3h20v8.19h-22.14zm23.9 18.23h1.72c0 2.39 3.91 3.78 10.5 3.78 7 0 11.18-1.09 11.18-2.94 0-4.46-23.4 3.19-23.19-10.59.08-5.71 4.66-9.11 12.31-9.11s12 4 12 10.71h-1.72c0-1.68-3.95-2.69-10.67-2.69-6.39 0-10.17.71-10.17 1.93 0 4.92 23.19-1.6 23.19 10.21 0 6.59-4.62 10.5-12.48 10.5s-12.67-4.37-12.67-11.8zm57.46-9.41c0-1.05-.59-2-9.71-2-8.36 0-11.13 0-8.94 4.71h-1.64a9.75 9.75 0 0 1-1-4c0-4.37 3.7-8.07 11.55-8.07 7.52 0 11.39 3.11 11.39 7.6 0 7-11.18 5.8-11.13 12.31h-1.49c-.21-8.33 10.97-7.82 10.97-10.55zm-14.66 16.8c0-2.6 2.1-4.29 4.7-4.29s4.71 1.69 4.71 4.29-2.1 4.28-4.71 4.28-4.7-1.68-4.7-4.28zm41.08-16.8c0-1.05-.59-2-9.71-2-8.36 0-11.13 0-8.95 4.71h-1.63a9.75 9.75 0 0 1-1-4c0-4.37 3.7-8.07 11.55-8.07 7.52 0 11.39 3.11 11.39 7.6 0 7-11.18 5.8-11.14 12.31h-1.51c-.18-8.33 11-7.82 11-10.55zm-14.67 16.8c0-2.6 2.11-4.29 4.71-4.29s4.7 1.69 4.7 4.29-2.1 4.28-4.7 4.28-4.71-1.68-4.71-4.28zm41.08-16.8c0-1.05-.59-2-9.7-2-8.36 0-11.13 0-8.95 4.71h-1.64a9.73 9.73 0 0 1-1-4c0-4.37 3.69-8.07 11.55-8.07 7.52 0 11.38 3.11 11.38 7.6 0 7-11.17 5.8-11.13 12.31h-1.51c-.17-8.33 11-7.82 11-10.55zm-14.66 16.8c0-2.6 2.1-4.29 4.71-4.29s4.7 1.69 4.7 4.29-2.1 4.28-4.7 4.28-4.71-1.68-4.71-4.28z"/></svg>